M48
; DRILL file {KiCad 5.1.4-e60b266~84~ubuntu18.04.1} date Mon Aug 12 22:35:55 2019
; FORMAT={-:-/ absolute / metric / decimal}
; #@! TF.CreationDate,2019-08-12T22:35:55+05:30
; #@! TF.GenerationSoftware,Kicad,Pcbnew,5.1.4-e60b266~84~ubuntu18.04.1
; #@! TF.FileFunction,Plated,1,2,PTH
FMAT,2
METRIC
T1C0.400
T2C0.800
T3C1.000
T4C1.100
T5C1.520
%
G90
G05
T1
X73.1Y-92.3
X75.5Y-72.7
X76.1Y-54.3
X76.1Y-70.9
X76.1Y-92.7
X76.3Y-55.5
X76.9Y-94.7
X78.3Y-81.7
X78.5Y-50.7
X78.5Y-65.3
X78.9Y-80.6
X79.1Y-79.5
X86.0Y-100.7
X87.5Y-59.2
X87.5Y-89.2
X88.0Y-74.2
X92.0Y-51.0
X92.0Y-56.2
X92.0Y-59.2
X92.0Y-66.0
X92.0Y-66.0
X92.0Y-71.7
X92.0Y-74.2
X92.0Y-81.0
X92.0Y-86.2
X92.0Y-89.2
X92.0Y-96.0
X95.8Y-51.0
X95.8Y-66.0
X95.8Y-81.0
X95.8Y-96.0
X99.0Y-54.7
X99.0Y-69.7
X99.0Y-84.7
X99.0Y-99.7
X101.1Y-93.3
X101.2Y-47.9
X101.4Y-63.5
T2
X70.5Y-50.7
X75.5Y-50.7
T3
X72.8Y-64.0
X72.8Y-66.54
X72.8Y-69.08
X72.8Y-71.62
X103.1Y-69.28
X103.1Y-71.82
X103.1Y-74.36
X103.1Y-76.9
X72.8Y-76.38
X72.8Y-78.92
X72.8Y-81.46
X72.8Y-84.0
T4
X64.5Y-47.96
X64.5Y-50.5
X64.5Y-53.04
T5
X110.0Y-48.92
X110.0Y-54.0
X54.5Y-95.92
X54.5Y-101.0
X54.5Y-59.92
X54.5Y-65.0
X54.5Y-47.92
X54.5Y-53.0
X54.5Y-71.92
X54.5Y-77.0
X54.4Y-83.92
X54.4Y-89.0
X110.0Y-64.92
X110.0Y-70.0
X110.0Y-93.92
X110.0Y-99.0
X110.0Y-79.92
X110.0Y-85.0
T0
M30
