M48
;DRILL file {KiCad no-vcs-found-72d4889~60~ubuntu16.04.1} date Fri Oct 20 12:27:10 2017
;FORMAT={-:-/ absolute / metric / decimal}
FMAT,2
METRIC,TZ
T1C0.250
T2C0.700
T3C1.000
%
G90
G05
M71
T1
X88.1Y-105.4
X90.5Y-108.6
X91.1Y-89.6
X95.1Y-110.9
X95.3Y-102.8
X97.4Y-107.5
X97.5Y-90.5
X101.4Y-105.
X101.6Y-110.9
X103.6Y-109.8
X104.Y-104.8
X108.4Y-113.
X109.2Y-108.5
X110.Y-100.2
X111.Y-109.8
T2
X98.204Y-101.796
X101.796Y-98.204
X101.796Y-101.796
T3
X89.14Y-117.274
X91.68Y-117.274
X94.22Y-117.274
X96.76Y-117.274
X99.3Y-117.274
X101.84Y-117.274
X104.38Y-117.274
X106.92Y-117.274
X109.46Y-117.274
X112.Y-122.354
X112.Y-124.894
X108.1Y-89.6
X108.1Y-92.14
T0
M30
