M48
; DRILL file {KiCad 5.1.4-e60b266~84~ubuntu18.04.1} date Mon Aug 12 18:19:19 2019
; FORMAT={-:-/ absolute / metric / decimal}
; #@! TF.CreationDate,2019-08-12T18:19:19+05:30
; #@! TF.GenerationSoftware,Kicad,Pcbnew,5.1.4-e60b266~84~ubuntu18.04.1
; #@! TF.FileFunction,Plated,1,2,PTH
FMAT,2
METRIC
T1C0.400
T2C1.520
%
G90
G05
T1
X99.0Y-93.0
X99.0Y-94.0
X99.0Y-95.0
X99.0Y-96.0
X99.0Y-97.0
X99.0Y-103.0
X99.0Y-104.0
X99.0Y-105.0
X99.0Y-106.0
X99.0Y-107.0
X100.0Y-93.0
X100.0Y-94.0
X100.0Y-95.0
X100.0Y-96.0
X100.0Y-97.0
X100.0Y-100.0
X100.0Y-103.0
X100.0Y-104.0
X100.0Y-105.0
X100.0Y-106.0
X100.0Y-107.0
X101.0Y-93.0
X101.0Y-94.0
X101.0Y-95.0
X101.0Y-96.0
X101.0Y-97.0
X101.0Y-103.0
X101.0Y-104.0
X101.0Y-105.0
X101.0Y-106.0
X101.0Y-107.0
T2
X97.409Y-90.0
X102.489Y-90.0
X97.409Y-109.982
X102.489Y-109.982
T0
M30
