G04 #@! TF.GenerationSoftware,KiCad,Pcbnew,5.1.4-e60b266~84~ubuntu18.04.1*
G04 #@! TF.CreationDate,2019-08-12T18:19:12+05:30*
G04 #@! TF.ProjectId,XHP70.2_breakout,58485037-302e-4325-9f62-7265616b6f75,rev?*
G04 #@! TF.SameCoordinates,Original*
G04 #@! TF.FileFunction,Legend,Top*
G04 #@! TF.FilePolarity,Positive*
%FSLAX46Y46*%
G04 Gerber Fmt 4.6, Leading zero omitted, Abs format (unit mm)*
G04 Created by KiCad (PCBNEW 5.1.4-e60b266~84~ubuntu18.04.1) date 2019-08-12 18:19:12*
%MOMM*%
%LPD*%
G04 APERTURE LIST*
%ADD10C,0.150000*%
%ADD11C,0.200000*%
%ADD12C,0.010000*%
%ADD13C,0.120000*%
%ADD14C,0.300000*%
%ADD15C,0.400000*%
G04 APERTURE END LIST*
D10*
X110452380Y-107880952D02*
X111452380Y-107214285D01*
X110452380Y-107214285D02*
X111452380Y-107880952D01*
X111452380Y-106833333D02*
X110452380Y-106833333D01*
X110928571Y-106833333D02*
X110928571Y-106261904D01*
X111452380Y-106261904D02*
X110452380Y-106261904D01*
X111452380Y-105785714D02*
X110452380Y-105785714D01*
X110452380Y-105404761D01*
X110500000Y-105309523D01*
X110547619Y-105261904D01*
X110642857Y-105214285D01*
X110785714Y-105214285D01*
X110880952Y-105261904D01*
X110928571Y-105309523D01*
X110976190Y-105404761D01*
X110976190Y-105785714D01*
X110452380Y-104880952D02*
X110452380Y-104214285D01*
X111452380Y-104642857D01*
X110452380Y-103642857D02*
X110452380Y-103547619D01*
X110500000Y-103452380D01*
X110547619Y-103404761D01*
X110642857Y-103357142D01*
X110833333Y-103309523D01*
X111071428Y-103309523D01*
X111261904Y-103357142D01*
X111357142Y-103404761D01*
X111404761Y-103452380D01*
X111452380Y-103547619D01*
X111452380Y-103642857D01*
X111404761Y-103738095D01*
X111357142Y-103785714D01*
X111261904Y-103833333D01*
X111071428Y-103880952D01*
X110833333Y-103880952D01*
X110642857Y-103833333D01*
X110547619Y-103785714D01*
X110500000Y-103738095D01*
X110452380Y-103642857D01*
X111357142Y-102880952D02*
X111404761Y-102833333D01*
X111452380Y-102880952D01*
X111404761Y-102928571D01*
X111357142Y-102880952D01*
X111452380Y-102880952D01*
X110547619Y-102452380D02*
X110500000Y-102404761D01*
X110452380Y-102309523D01*
X110452380Y-102071428D01*
X110500000Y-101976190D01*
X110547619Y-101928571D01*
X110642857Y-101880952D01*
X110738095Y-101880952D01*
X110880952Y-101928571D01*
X111452380Y-102500000D01*
X111452380Y-101880952D01*
X111452380Y-100690476D02*
X110452380Y-100690476D01*
X110833333Y-100690476D02*
X110785714Y-100595238D01*
X110785714Y-100404761D01*
X110833333Y-100309523D01*
X110880952Y-100261904D01*
X110976190Y-100214285D01*
X111261904Y-100214285D01*
X111357142Y-100261904D01*
X111404761Y-100309523D01*
X111452380Y-100404761D01*
X111452380Y-100595238D01*
X111404761Y-100690476D01*
X111452380Y-99785714D02*
X110785714Y-99785714D01*
X110976190Y-99785714D02*
X110880952Y-99738095D01*
X110833333Y-99690476D01*
X110785714Y-99595238D01*
X110785714Y-99500000D01*
X111404761Y-98785714D02*
X111452380Y-98880952D01*
X111452380Y-99071428D01*
X111404761Y-99166666D01*
X111309523Y-99214285D01*
X110928571Y-99214285D01*
X110833333Y-99166666D01*
X110785714Y-99071428D01*
X110785714Y-98880952D01*
X110833333Y-98785714D01*
X110928571Y-98738095D01*
X111023809Y-98738095D01*
X111119047Y-99214285D01*
X111452380Y-97880952D02*
X110928571Y-97880952D01*
X110833333Y-97928571D01*
X110785714Y-98023809D01*
X110785714Y-98214285D01*
X110833333Y-98309523D01*
X111404761Y-97880952D02*
X111452380Y-97976190D01*
X111452380Y-98214285D01*
X111404761Y-98309523D01*
X111309523Y-98357142D01*
X111214285Y-98357142D01*
X111119047Y-98309523D01*
X111071428Y-98214285D01*
X111071428Y-97976190D01*
X111023809Y-97880952D01*
X111452380Y-97404761D02*
X110452380Y-97404761D01*
X111071428Y-97309523D02*
X111452380Y-97023809D01*
X110785714Y-97023809D02*
X111166666Y-97404761D01*
X111452380Y-96452380D02*
X111404761Y-96547619D01*
X111357142Y-96595238D01*
X111261904Y-96642857D01*
X110976190Y-96642857D01*
X110880952Y-96595238D01*
X110833333Y-96547619D01*
X110785714Y-96452380D01*
X110785714Y-96309523D01*
X110833333Y-96214285D01*
X110880952Y-96166666D01*
X110976190Y-96119047D01*
X111261904Y-96119047D01*
X111357142Y-96166666D01*
X111404761Y-96214285D01*
X111452380Y-96309523D01*
X111452380Y-96452380D01*
X110785714Y-95261904D02*
X111452380Y-95261904D01*
X110785714Y-95690476D02*
X111309523Y-95690476D01*
X111404761Y-95642857D01*
X111452380Y-95547619D01*
X111452380Y-95404761D01*
X111404761Y-95309523D01*
X111357142Y-95261904D01*
X110785714Y-94928571D02*
X110785714Y-94547619D01*
X110452380Y-94785714D02*
X111309523Y-94785714D01*
X111404761Y-94738095D01*
X111452380Y-94642857D01*
X111452380Y-94547619D01*
X110785714Y-93547619D02*
X111452380Y-93309523D01*
X110785714Y-93071428D01*
X111452380Y-92166666D02*
X111452380Y-92738095D01*
X111452380Y-92452380D02*
X110452380Y-92452380D01*
X110595238Y-92547619D01*
X110690476Y-92642857D01*
X110738095Y-92738095D01*
D11*
X96000000Y-100000000D02*
X94000000Y-100000000D01*
X105000000Y-99000000D02*
X105000000Y-101000000D01*
X104000000Y-100000000D02*
X106000000Y-100000000D01*
D12*
G36*
X89058463Y-92660086D02*
G01*
X89252763Y-92457113D01*
X89581929Y-92345494D01*
X90050323Y-92323211D01*
X90321177Y-92343168D01*
X90674849Y-92400167D01*
X90890187Y-92498223D01*
X90997392Y-92661960D01*
X91026665Y-92916004D01*
X91026666Y-92918416D01*
X90997706Y-93167738D01*
X90887341Y-93328688D01*
X90803257Y-93391147D01*
X90559845Y-93489524D01*
X90197548Y-93533722D01*
X90134842Y-93534999D01*
X90134842Y-93461538D01*
X90468279Y-93419734D01*
X90719898Y-93329573D01*
X90772013Y-93291592D01*
X90911168Y-93070440D01*
X90920994Y-92820016D01*
X90807981Y-92600629D01*
X90688000Y-92511013D01*
X90393662Y-92421563D01*
X90040937Y-92398040D01*
X89683199Y-92434262D01*
X89373820Y-92524047D01*
X89166173Y-92661213D01*
X89144129Y-92689842D01*
X89081894Y-92920062D01*
X89150836Y-93166466D01*
X89253428Y-93295310D01*
X89466437Y-93399475D01*
X89780568Y-93454835D01*
X90134842Y-93461538D01*
X90134842Y-93534999D01*
X90010666Y-93537530D01*
X89552512Y-93506617D01*
X89239505Y-93408740D01*
X89058167Y-93236188D01*
X88995016Y-92981251D01*
X88994666Y-92956430D01*
X89058463Y-92660086D01*
X89058463Y-92660086D01*
G37*
X89058463Y-92660086D02*
X89252763Y-92457113D01*
X89581929Y-92345494D01*
X90050323Y-92323211D01*
X90321177Y-92343168D01*
X90674849Y-92400167D01*
X90890187Y-92498223D01*
X90997392Y-92661960D01*
X91026665Y-92916004D01*
X91026666Y-92918416D01*
X90997706Y-93167738D01*
X90887341Y-93328688D01*
X90803257Y-93391147D01*
X90559845Y-93489524D01*
X90197548Y-93533722D01*
X90134842Y-93534999D01*
X90134842Y-93461538D01*
X90468279Y-93419734D01*
X90719898Y-93329573D01*
X90772013Y-93291592D01*
X90911168Y-93070440D01*
X90920994Y-92820016D01*
X90807981Y-92600629D01*
X90688000Y-92511013D01*
X90393662Y-92421563D01*
X90040937Y-92398040D01*
X89683199Y-92434262D01*
X89373820Y-92524047D01*
X89166173Y-92661213D01*
X89144129Y-92689842D01*
X89081894Y-92920062D01*
X89150836Y-93166466D01*
X89253428Y-93295310D01*
X89466437Y-93399475D01*
X89780568Y-93454835D01*
X90134842Y-93461538D01*
X90134842Y-93534999D01*
X90010666Y-93537530D01*
X89552512Y-93506617D01*
X89239505Y-93408740D01*
X89058167Y-93236188D01*
X88995016Y-92981251D01*
X88994666Y-92956430D01*
X89058463Y-92660086D01*
G36*
X90899666Y-105694667D02*
G01*
X90942000Y-105737000D01*
X90899666Y-105779334D01*
X90857333Y-105737000D01*
X90899666Y-105694667D01*
X90899666Y-105694667D01*
G37*
X90899666Y-105694667D02*
X90942000Y-105737000D01*
X90899666Y-105779334D01*
X90857333Y-105737000D01*
X90899666Y-105694667D01*
G36*
X89750601Y-105961410D02*
G01*
X90151466Y-105985343D01*
X90426898Y-106025785D01*
X90620634Y-106091848D01*
X90745434Y-106168705D01*
X90933283Y-106381655D01*
X91013810Y-106630276D01*
X90977293Y-106860933D01*
X90891027Y-106971879D01*
X90703570Y-107048452D01*
X90405368Y-107089769D01*
X90051085Y-107096827D01*
X90048876Y-107096665D01*
X90048876Y-107007000D01*
X90490250Y-106975807D01*
X90787726Y-106885977D01*
X90936079Y-106743132D01*
X90930084Y-106552896D01*
X90764515Y-106320893D01*
X90723562Y-106280926D01*
X90590314Y-106176285D01*
X90432203Y-106110410D01*
X90203410Y-106071733D01*
X89858115Y-106048687D01*
X89792229Y-106045812D01*
X89079333Y-106015957D01*
X89079333Y-106350190D01*
X89115288Y-106641785D01*
X89237970Y-106837607D01*
X89469603Y-106952713D01*
X89832413Y-107002159D01*
X90048876Y-107007000D01*
X90048876Y-107096665D01*
X89695386Y-107070618D01*
X89392933Y-107012138D01*
X89224132Y-106941549D01*
X89084334Y-106826779D01*
X89016137Y-106681971D01*
X88995311Y-106445890D01*
X88994666Y-106361625D01*
X88994666Y-105931819D01*
X89750601Y-105961410D01*
X89750601Y-105961410D01*
G37*
X89750601Y-105961410D02*
X90151466Y-105985343D01*
X90426898Y-106025785D01*
X90620634Y-106091848D01*
X90745434Y-106168705D01*
X90933283Y-106381655D01*
X91013810Y-106630276D01*
X90977293Y-106860933D01*
X90891027Y-106971879D01*
X90703570Y-107048452D01*
X90405368Y-107089769D01*
X90051085Y-107096827D01*
X90048876Y-107096665D01*
X90048876Y-107007000D01*
X90490250Y-106975807D01*
X90787726Y-106885977D01*
X90936079Y-106743132D01*
X90930084Y-106552896D01*
X90764515Y-106320893D01*
X90723562Y-106280926D01*
X90590314Y-106176285D01*
X90432203Y-106110410D01*
X90203410Y-106071733D01*
X89858115Y-106048687D01*
X89792229Y-106045812D01*
X89079333Y-106015957D01*
X89079333Y-106350190D01*
X89115288Y-106641785D01*
X89237970Y-106837607D01*
X89469603Y-106952713D01*
X89832413Y-107002159D01*
X90048876Y-107007000D01*
X90048876Y-107096665D01*
X89695386Y-107070618D01*
X89392933Y-107012138D01*
X89224132Y-106941549D01*
X89084334Y-106826779D01*
X89016137Y-106681971D01*
X88995311Y-106445890D01*
X88994666Y-106361625D01*
X88994666Y-105931819D01*
X89750601Y-105961410D01*
G36*
X89023056Y-99953795D02*
G01*
X89118209Y-99804012D01*
X89319772Y-99713331D01*
X89651006Y-99668726D01*
X89934753Y-99658450D01*
X90386984Y-99681752D01*
X90700606Y-99777153D01*
X90895997Y-99958471D01*
X90993535Y-100239526D01*
X91010026Y-100387604D01*
X91017054Y-100629309D01*
X90981119Y-100754766D01*
X90879230Y-100815878D01*
X90811998Y-100834653D01*
X90610205Y-100854044D01*
X90610205Y-100785091D01*
X90809306Y-100755567D01*
X90920795Y-100633616D01*
X90946307Y-100424834D01*
X90891354Y-100184883D01*
X90761450Y-99969423D01*
X90728048Y-99935187D01*
X90589431Y-99826574D01*
X90430682Y-99767000D01*
X90198943Y-99743908D01*
X89920573Y-99743336D01*
X89588865Y-99763218D01*
X89328945Y-99806593D01*
X89198910Y-99858827D01*
X89093344Y-100039587D01*
X89122626Y-100256937D01*
X89273691Y-100465029D01*
X89397309Y-100555099D01*
X89633179Y-100648817D01*
X89955742Y-100724322D01*
X90302313Y-100772713D01*
X90610205Y-100785091D01*
X90610205Y-100854044D01*
X90502126Y-100864431D01*
X90110408Y-100837653D01*
X89710796Y-100764094D01*
X89377246Y-100653528D01*
X89352215Y-100641715D01*
X89140879Y-100514318D01*
X89042550Y-100364703D01*
X89011052Y-100175705D01*
X89023056Y-99953795D01*
X89023056Y-99953795D01*
G37*
X89023056Y-99953795D02*
X89118209Y-99804012D01*
X89319772Y-99713331D01*
X89651006Y-99668726D01*
X89934753Y-99658450D01*
X90386984Y-99681752D01*
X90700606Y-99777153D01*
X90895997Y-99958471D01*
X90993535Y-100239526D01*
X91010026Y-100387604D01*
X91017054Y-100629309D01*
X90981119Y-100754766D01*
X90879230Y-100815878D01*
X90811998Y-100834653D01*
X90610205Y-100854044D01*
X90610205Y-100785091D01*
X90809306Y-100755567D01*
X90920795Y-100633616D01*
X90946307Y-100424834D01*
X90891354Y-100184883D01*
X90761450Y-99969423D01*
X90728048Y-99935187D01*
X90589431Y-99826574D01*
X90430682Y-99767000D01*
X90198943Y-99743908D01*
X89920573Y-99743336D01*
X89588865Y-99763218D01*
X89328945Y-99806593D01*
X89198910Y-99858827D01*
X89093344Y-100039587D01*
X89122626Y-100256937D01*
X89273691Y-100465029D01*
X89397309Y-100555099D01*
X89633179Y-100648817D01*
X89955742Y-100724322D01*
X90302313Y-100772713D01*
X90610205Y-100785091D01*
X90610205Y-100854044D01*
X90502126Y-100864431D01*
X90110408Y-100837653D01*
X89710796Y-100764094D01*
X89377246Y-100653528D01*
X89352215Y-100641715D01*
X89140879Y-100514318D01*
X89042550Y-100364703D01*
X89011052Y-100175705D01*
X89023056Y-99953795D01*
G36*
X89017084Y-103092282D02*
G01*
X89098254Y-102949011D01*
X89284192Y-102854848D01*
X89604529Y-102786082D01*
X89678019Y-102774681D01*
X90049421Y-102761349D01*
X90424137Y-102817102D01*
X90739884Y-102928576D01*
X90895856Y-103035952D01*
X90986849Y-103219289D01*
X91026207Y-103503845D01*
X91026666Y-103540102D01*
X91014709Y-103777928D01*
X90960668Y-103900330D01*
X90837289Y-103960569D01*
X90807471Y-103968456D01*
X90610246Y-103987193D01*
X90610246Y-103917768D01*
X90809306Y-103888234D01*
X90913887Y-103768367D01*
X90944904Y-103559060D01*
X90905703Y-103321733D01*
X90799631Y-103117804D01*
X90765340Y-103081347D01*
X90556292Y-102949801D01*
X90299067Y-102862440D01*
X90295670Y-102861795D01*
X89999095Y-102837946D01*
X89676782Y-102859543D01*
X89387823Y-102917719D01*
X89191310Y-103003603D01*
X89160228Y-103032211D01*
X89085842Y-103237165D01*
X89154490Y-103460003D01*
X89350901Y-103658507D01*
X89397309Y-103687619D01*
X89633164Y-103781406D01*
X89955736Y-103856966D01*
X90302328Y-103905389D01*
X90610246Y-103917768D01*
X90610246Y-103987193D01*
X90501595Y-103997516D01*
X90113186Y-103970718D01*
X89715795Y-103897870D01*
X89382971Y-103788781D01*
X89352215Y-103774382D01*
X89140879Y-103646985D01*
X89042550Y-103497370D01*
X89011052Y-103308371D01*
X89017084Y-103092282D01*
X89017084Y-103092282D01*
G37*
X89017084Y-103092282D02*
X89098254Y-102949011D01*
X89284192Y-102854848D01*
X89604529Y-102786082D01*
X89678019Y-102774681D01*
X90049421Y-102761349D01*
X90424137Y-102817102D01*
X90739884Y-102928576D01*
X90895856Y-103035952D01*
X90986849Y-103219289D01*
X91026207Y-103503845D01*
X91026666Y-103540102D01*
X91014709Y-103777928D01*
X90960668Y-103900330D01*
X90837289Y-103960569D01*
X90807471Y-103968456D01*
X90610246Y-103987193D01*
X90610246Y-103917768D01*
X90809306Y-103888234D01*
X90913887Y-103768367D01*
X90944904Y-103559060D01*
X90905703Y-103321733D01*
X90799631Y-103117804D01*
X90765340Y-103081347D01*
X90556292Y-102949801D01*
X90299067Y-102862440D01*
X90295670Y-102861795D01*
X89999095Y-102837946D01*
X89676782Y-102859543D01*
X89387823Y-102917719D01*
X89191310Y-103003603D01*
X89160228Y-103032211D01*
X89085842Y-103237165D01*
X89154490Y-103460003D01*
X89350901Y-103658507D01*
X89397309Y-103687619D01*
X89633164Y-103781406D01*
X89955736Y-103856966D01*
X90302328Y-103905389D01*
X90610246Y-103917768D01*
X90610246Y-103987193D01*
X90501595Y-103997516D01*
X90113186Y-103970718D01*
X89715795Y-103897870D01*
X89382971Y-103788781D01*
X89352215Y-103774382D01*
X89140879Y-103646985D01*
X89042550Y-103497370D01*
X89011052Y-103308371D01*
X89017084Y-103092282D01*
G36*
X87342142Y-97826448D02*
G01*
X87518140Y-97674103D01*
X87754459Y-97642253D01*
X87950787Y-97716978D01*
X88061064Y-97870765D01*
X88107644Y-98099456D01*
X88075667Y-98315820D01*
X88058598Y-98349834D01*
X87907120Y-98460102D01*
X87689455Y-98493345D01*
X87689455Y-98389827D01*
X87891151Y-98357497D01*
X87937432Y-98327755D01*
X88047992Y-98190909D01*
X88035250Y-98027498D01*
X87975687Y-97899768D01*
X87829488Y-97762832D01*
X87643329Y-97745516D01*
X87467228Y-97823991D01*
X87351205Y-97974427D01*
X87345280Y-98172998D01*
X87353309Y-98196265D01*
X87482632Y-98329883D01*
X87689455Y-98389827D01*
X87689455Y-98493345D01*
X87677018Y-98495245D01*
X87445148Y-98447219D01*
X87393055Y-98419486D01*
X87308676Y-98287829D01*
X87273115Y-98076921D01*
X87273111Y-98074667D01*
X87342142Y-97826448D01*
X87342142Y-97826448D01*
G37*
X87342142Y-97826448D02*
X87518140Y-97674103D01*
X87754459Y-97642253D01*
X87950787Y-97716978D01*
X88061064Y-97870765D01*
X88107644Y-98099456D01*
X88075667Y-98315820D01*
X88058598Y-98349834D01*
X87907120Y-98460102D01*
X87689455Y-98493345D01*
X87689455Y-98389827D01*
X87891151Y-98357497D01*
X87937432Y-98327755D01*
X88047992Y-98190909D01*
X88035250Y-98027498D01*
X87975687Y-97899768D01*
X87829488Y-97762832D01*
X87643329Y-97745516D01*
X87467228Y-97823991D01*
X87351205Y-97974427D01*
X87345280Y-98172998D01*
X87353309Y-98196265D01*
X87482632Y-98329883D01*
X87689455Y-98389827D01*
X87689455Y-98493345D01*
X87677018Y-98495245D01*
X87445148Y-98447219D01*
X87393055Y-98419486D01*
X87308676Y-98287829D01*
X87273115Y-98076921D01*
X87273111Y-98074667D01*
X87342142Y-97826448D01*
G36*
X88532087Y-92490214D02*
G01*
X88672309Y-92122458D01*
X88934729Y-91863150D01*
X89326219Y-91706121D01*
X89853651Y-91645199D01*
X89986780Y-91644067D01*
X90543920Y-91697593D01*
X90968687Y-91853056D01*
X91267985Y-92116081D01*
X91448714Y-92492291D01*
X91513180Y-92887696D01*
X91513141Y-93253459D01*
X91448197Y-93532187D01*
X91382087Y-93672000D01*
X91146204Y-93937057D01*
X90799741Y-94122077D01*
X90381828Y-94226144D01*
X90236863Y-94233290D01*
X90236863Y-94164627D01*
X90659482Y-94081773D01*
X91021745Y-93904154D01*
X91275900Y-93642977D01*
X91416791Y-93282592D01*
X91441553Y-92869403D01*
X91349901Y-92474108D01*
X91281124Y-92337727D01*
X91024090Y-92024268D01*
X90693046Y-91828453D01*
X90258684Y-91736424D01*
X89985295Y-91724984D01*
X89505782Y-91758185D01*
X89147441Y-91868149D01*
X88873922Y-92069509D01*
X88747341Y-92223293D01*
X88607985Y-92547114D01*
X88570919Y-92939054D01*
X88636373Y-93332113D01*
X88742732Y-93571090D01*
X89006823Y-93855947D01*
X89370538Y-94050579D01*
X89793883Y-94153851D01*
X90236863Y-94164627D01*
X90236863Y-94233290D01*
X89931599Y-94248340D01*
X89488184Y-94187748D01*
X89090715Y-94043452D01*
X88778325Y-93814534D01*
X88711013Y-93734589D01*
X88581410Y-93464682D01*
X88514168Y-93072814D01*
X88507191Y-92972589D01*
X88532087Y-92490214D01*
X88532087Y-92490214D01*
G37*
X88532087Y-92490214D02*
X88672309Y-92122458D01*
X88934729Y-91863150D01*
X89326219Y-91706121D01*
X89853651Y-91645199D01*
X89986780Y-91644067D01*
X90543920Y-91697593D01*
X90968687Y-91853056D01*
X91267985Y-92116081D01*
X91448714Y-92492291D01*
X91513180Y-92887696D01*
X91513141Y-93253459D01*
X91448197Y-93532187D01*
X91382087Y-93672000D01*
X91146204Y-93937057D01*
X90799741Y-94122077D01*
X90381828Y-94226144D01*
X90236863Y-94233290D01*
X90236863Y-94164627D01*
X90659482Y-94081773D01*
X91021745Y-93904154D01*
X91275900Y-93642977D01*
X91416791Y-93282592D01*
X91441553Y-92869403D01*
X91349901Y-92474108D01*
X91281124Y-92337727D01*
X91024090Y-92024268D01*
X90693046Y-91828453D01*
X90258684Y-91736424D01*
X89985295Y-91724984D01*
X89505782Y-91758185D01*
X89147441Y-91868149D01*
X88873922Y-92069509D01*
X88747341Y-92223293D01*
X88607985Y-92547114D01*
X88570919Y-92939054D01*
X88636373Y-93332113D01*
X88742732Y-93571090D01*
X89006823Y-93855947D01*
X89370538Y-94050579D01*
X89793883Y-94153851D01*
X90236863Y-94164627D01*
X90236863Y-94233290D01*
X89931599Y-94248340D01*
X89488184Y-94187748D01*
X89090715Y-94043452D01*
X88778325Y-93814534D01*
X88711013Y-93734589D01*
X88581410Y-93464682D01*
X88514168Y-93072814D01*
X88507191Y-92972589D01*
X88532087Y-92490214D01*
G36*
X87291961Y-96317834D02*
G01*
X87353894Y-96262944D01*
X87540048Y-96229013D01*
X87868542Y-96213573D01*
X88069380Y-96212000D01*
X88428763Y-96209347D01*
X88644376Y-96197930D01*
X88741746Y-96172560D01*
X88746397Y-96128051D01*
X88707706Y-96082279D01*
X88580091Y-95859320D01*
X88509324Y-95537794D01*
X88507148Y-95182349D01*
X88523534Y-95068360D01*
X88657072Y-94765713D01*
X88914254Y-94568810D01*
X89277784Y-94489531D01*
X89367030Y-94488965D01*
X89616060Y-94521987D01*
X89807949Y-94631775D01*
X89969601Y-94798207D01*
X90229145Y-95098455D01*
X90761776Y-94759806D01*
X91035318Y-94601362D01*
X91264659Y-94496383D01*
X91405113Y-94464896D01*
X91414537Y-94467255D01*
X91503915Y-94580809D01*
X91531033Y-94783266D01*
X91494415Y-95005481D01*
X91428833Y-95137445D01*
X91304301Y-95249695D01*
X91080265Y-95406731D01*
X90801349Y-95582041D01*
X90512183Y-95749114D01*
X90257391Y-95881439D01*
X90081602Y-95952504D01*
X90047583Y-95958000D01*
X89939288Y-95888378D01*
X89820647Y-95717286D01*
X89802997Y-95682049D01*
X89633584Y-95417575D01*
X89444063Y-95266885D01*
X89264315Y-95249588D01*
X89199698Y-95286173D01*
X89088498Y-95475950D01*
X89096069Y-95717298D01*
X89214146Y-95949831D01*
X89302418Y-96036522D01*
X89420828Y-96114495D01*
X89563418Y-96165553D01*
X89766900Y-96195171D01*
X90067985Y-96208826D01*
X90478692Y-96212000D01*
X90904929Y-96215744D01*
X91190572Y-96229517D01*
X91364248Y-96257138D01*
X91454583Y-96302421D01*
X91483274Y-96345925D01*
X91524982Y-96646775D01*
X91478593Y-96868167D01*
X91422134Y-96903997D01*
X91274817Y-96931369D01*
X91020907Y-96951104D01*
X90644669Y-96964023D01*
X90130367Y-96970947D01*
X89474444Y-96972704D01*
X89010324Y-96970266D01*
X89010324Y-96889345D01*
X89401231Y-96889334D01*
X89957747Y-96886801D01*
X90456986Y-96879701D01*
X90874249Y-96868780D01*
X91184836Y-96854785D01*
X91364048Y-96838462D01*
X91397442Y-96829002D01*
X91434526Y-96707075D01*
X91432720Y-96553836D01*
X91417286Y-96463605D01*
X91376744Y-96401692D01*
X91282392Y-96361090D01*
X91105528Y-96334793D01*
X90817453Y-96315795D01*
X90389464Y-96297091D01*
X90379173Y-96296667D01*
X89860113Y-96266602D01*
X89487157Y-96218140D01*
X89237221Y-96139819D01*
X89087218Y-96020176D01*
X89014062Y-95847746D01*
X88994667Y-95611066D01*
X88994666Y-95609190D01*
X89051063Y-95341647D01*
X89195253Y-95188831D01*
X89389730Y-95151566D01*
X89596991Y-95230672D01*
X89779533Y-95426973D01*
X89857664Y-95590282D01*
X89940829Y-95777451D01*
X90012698Y-95870918D01*
X90021607Y-95873334D01*
X90125387Y-95832087D01*
X90328859Y-95725170D01*
X90588851Y-95577816D01*
X90862189Y-95415257D01*
X91105701Y-95262729D01*
X91276214Y-95145463D01*
X91301833Y-95125072D01*
X91383462Y-94998243D01*
X91439187Y-94813568D01*
X91458013Y-94635309D01*
X91428944Y-94527730D01*
X91405591Y-94518667D01*
X91317640Y-94560719D01*
X91125960Y-94671836D01*
X90869226Y-94829460D01*
X90824942Y-94857334D01*
X90555550Y-95021071D01*
X90338434Y-95141295D01*
X90215369Y-95195078D01*
X90207939Y-95196000D01*
X90109582Y-95133849D01*
X89968696Y-94980160D01*
X89936241Y-94937745D01*
X89661820Y-94668950D01*
X89360537Y-94560980D01*
X89060393Y-94611179D01*
X88773005Y-94811282D01*
X88608000Y-95102428D01*
X88573540Y-95450656D01*
X88677782Y-95822001D01*
X88741284Y-95939375D01*
X88826075Y-96090130D01*
X88845969Y-96190385D01*
X88778374Y-96251960D01*
X88600701Y-96286670D01*
X88290359Y-96306333D01*
X88021000Y-96316164D01*
X87684601Y-96330949D01*
X87484852Y-96353697D01*
X87389079Y-96394036D01*
X87364605Y-96461596D01*
X87368855Y-96508334D01*
X87388046Y-96629274D01*
X87418828Y-96721477D01*
X87481976Y-96788840D01*
X87598264Y-96835256D01*
X87788469Y-96864620D01*
X88073363Y-96880826D01*
X88473724Y-96887770D01*
X89010324Y-96889345D01*
X89010324Y-96970266D01*
X88911499Y-96969746D01*
X88403251Y-96962159D01*
X87974829Y-96950718D01*
X87651363Y-96936197D01*
X87457985Y-96919373D01*
X87415835Y-96909204D01*
X87334420Y-96774803D01*
X87290780Y-96537177D01*
X87291961Y-96317834D01*
X87291961Y-96317834D01*
G37*
X87291961Y-96317834D02*
X87353894Y-96262944D01*
X87540048Y-96229013D01*
X87868542Y-96213573D01*
X88069380Y-96212000D01*
X88428763Y-96209347D01*
X88644376Y-96197930D01*
X88741746Y-96172560D01*
X88746397Y-96128051D01*
X88707706Y-96082279D01*
X88580091Y-95859320D01*
X88509324Y-95537794D01*
X88507148Y-95182349D01*
X88523534Y-95068360D01*
X88657072Y-94765713D01*
X88914254Y-94568810D01*
X89277784Y-94489531D01*
X89367030Y-94488965D01*
X89616060Y-94521987D01*
X89807949Y-94631775D01*
X89969601Y-94798207D01*
X90229145Y-95098455D01*
X90761776Y-94759806D01*
X91035318Y-94601362D01*
X91264659Y-94496383D01*
X91405113Y-94464896D01*
X91414537Y-94467255D01*
X91503915Y-94580809D01*
X91531033Y-94783266D01*
X91494415Y-95005481D01*
X91428833Y-95137445D01*
X91304301Y-95249695D01*
X91080265Y-95406731D01*
X90801349Y-95582041D01*
X90512183Y-95749114D01*
X90257391Y-95881439D01*
X90081602Y-95952504D01*
X90047583Y-95958000D01*
X89939288Y-95888378D01*
X89820647Y-95717286D01*
X89802997Y-95682049D01*
X89633584Y-95417575D01*
X89444063Y-95266885D01*
X89264315Y-95249588D01*
X89199698Y-95286173D01*
X89088498Y-95475950D01*
X89096069Y-95717298D01*
X89214146Y-95949831D01*
X89302418Y-96036522D01*
X89420828Y-96114495D01*
X89563418Y-96165553D01*
X89766900Y-96195171D01*
X90067985Y-96208826D01*
X90478692Y-96212000D01*
X90904929Y-96215744D01*
X91190572Y-96229517D01*
X91364248Y-96257138D01*
X91454583Y-96302421D01*
X91483274Y-96345925D01*
X91524982Y-96646775D01*
X91478593Y-96868167D01*
X91422134Y-96903997D01*
X91274817Y-96931369D01*
X91020907Y-96951104D01*
X90644669Y-96964023D01*
X90130367Y-96970947D01*
X89474444Y-96972704D01*
X89010324Y-96970266D01*
X89010324Y-96889345D01*
X89401231Y-96889334D01*
X89957747Y-96886801D01*
X90456986Y-96879701D01*
X90874249Y-96868780D01*
X91184836Y-96854785D01*
X91364048Y-96838462D01*
X91397442Y-96829002D01*
X91434526Y-96707075D01*
X91432720Y-96553836D01*
X91417286Y-96463605D01*
X91376744Y-96401692D01*
X91282392Y-96361090D01*
X91105528Y-96334793D01*
X90817453Y-96315795D01*
X90389464Y-96297091D01*
X90379173Y-96296667D01*
X89860113Y-96266602D01*
X89487157Y-96218140D01*
X89237221Y-96139819D01*
X89087218Y-96020176D01*
X89014062Y-95847746D01*
X88994667Y-95611066D01*
X88994666Y-95609190D01*
X89051063Y-95341647D01*
X89195253Y-95188831D01*
X89389730Y-95151566D01*
X89596991Y-95230672D01*
X89779533Y-95426973D01*
X89857664Y-95590282D01*
X89940829Y-95777451D01*
X90012698Y-95870918D01*
X90021607Y-95873334D01*
X90125387Y-95832087D01*
X90328859Y-95725170D01*
X90588851Y-95577816D01*
X90862189Y-95415257D01*
X91105701Y-95262729D01*
X91276214Y-95145463D01*
X91301833Y-95125072D01*
X91383462Y-94998243D01*
X91439187Y-94813568D01*
X91458013Y-94635309D01*
X91428944Y-94527730D01*
X91405591Y-94518667D01*
X91317640Y-94560719D01*
X91125960Y-94671836D01*
X90869226Y-94829460D01*
X90824942Y-94857334D01*
X90555550Y-95021071D01*
X90338434Y-95141295D01*
X90215369Y-95195078D01*
X90207939Y-95196000D01*
X90109582Y-95133849D01*
X89968696Y-94980160D01*
X89936241Y-94937745D01*
X89661820Y-94668950D01*
X89360537Y-94560980D01*
X89060393Y-94611179D01*
X88773005Y-94811282D01*
X88608000Y-95102428D01*
X88573540Y-95450656D01*
X88677782Y-95822001D01*
X88741284Y-95939375D01*
X88826075Y-96090130D01*
X88845969Y-96190385D01*
X88778374Y-96251960D01*
X88600701Y-96286670D01*
X88290359Y-96306333D01*
X88021000Y-96316164D01*
X87684601Y-96330949D01*
X87484852Y-96353697D01*
X87389079Y-96394036D01*
X87364605Y-96461596D01*
X87368855Y-96508334D01*
X87388046Y-96629274D01*
X87418828Y-96721477D01*
X87481976Y-96788840D01*
X87598264Y-96835256D01*
X87788469Y-96864620D01*
X88073363Y-96880826D01*
X88473724Y-96887770D01*
X89010324Y-96889345D01*
X89010324Y-96970266D01*
X88911499Y-96969746D01*
X88403251Y-96962159D01*
X87974829Y-96950718D01*
X87651363Y-96936197D01*
X87457985Y-96919373D01*
X87415835Y-96909204D01*
X87334420Y-96774803D01*
X87290780Y-96537177D01*
X87291961Y-96317834D01*
G36*
X89722259Y-97736000D02*
G01*
X90185675Y-97734283D01*
X90507064Y-97726667D01*
X90713718Y-97709458D01*
X90832929Y-97678963D01*
X90891990Y-97631486D01*
X90915420Y-97574495D01*
X91028961Y-97416174D01*
X91213746Y-97366436D01*
X91398227Y-97442849D01*
X91409156Y-97453252D01*
X91518665Y-97672908D01*
X91503090Y-97949586D01*
X91433494Y-98117000D01*
X91317891Y-98279600D01*
X91245569Y-98348537D01*
X91132526Y-98370260D01*
X90882002Y-98388851D01*
X90525838Y-98402849D01*
X90095878Y-98410793D01*
X89862500Y-98412037D01*
X88656000Y-98413248D01*
X88656000Y-98328667D01*
X89880368Y-98328667D01*
X90362157Y-98327126D01*
X90704184Y-98319889D01*
X90936008Y-98303034D01*
X91087190Y-98272641D01*
X91187292Y-98224789D01*
X91265874Y-98155556D01*
X91277368Y-98143369D01*
X91418985Y-97907708D01*
X91438933Y-97668606D01*
X91355016Y-97505550D01*
X91211157Y-97447602D01*
X91075378Y-97498724D01*
X91026666Y-97609000D01*
X91002742Y-97690642D01*
X90915698Y-97748809D01*
X90742625Y-97787179D01*
X90460615Y-97809427D01*
X90046759Y-97819229D01*
X89707408Y-97820667D01*
X88656000Y-97820667D01*
X88656000Y-98328667D01*
X88656000Y-98413248D01*
X88571333Y-98413334D01*
X88571333Y-97736000D01*
X89722259Y-97736000D01*
X89722259Y-97736000D01*
G37*
X89722259Y-97736000D02*
X90185675Y-97734283D01*
X90507064Y-97726667D01*
X90713718Y-97709458D01*
X90832929Y-97678963D01*
X90891990Y-97631486D01*
X90915420Y-97574495D01*
X91028961Y-97416174D01*
X91213746Y-97366436D01*
X91398227Y-97442849D01*
X91409156Y-97453252D01*
X91518665Y-97672908D01*
X91503090Y-97949586D01*
X91433494Y-98117000D01*
X91317891Y-98279600D01*
X91245569Y-98348537D01*
X91132526Y-98370260D01*
X90882002Y-98388851D01*
X90525838Y-98402849D01*
X90095878Y-98410793D01*
X89862500Y-98412037D01*
X88656000Y-98413248D01*
X88656000Y-98328667D01*
X89880368Y-98328667D01*
X90362157Y-98327126D01*
X90704184Y-98319889D01*
X90936008Y-98303034D01*
X91087190Y-98272641D01*
X91187292Y-98224789D01*
X91265874Y-98155556D01*
X91277368Y-98143369D01*
X91418985Y-97907708D01*
X91438933Y-97668606D01*
X91355016Y-97505550D01*
X91211157Y-97447602D01*
X91075378Y-97498724D01*
X91026666Y-97609000D01*
X91002742Y-97690642D01*
X90915698Y-97748809D01*
X90742625Y-97787179D01*
X90460615Y-97809427D01*
X90046759Y-97819229D01*
X89707408Y-97820667D01*
X88656000Y-97820667D01*
X88656000Y-98328667D01*
X88656000Y-98413248D01*
X88571333Y-98413334D01*
X88571333Y-97736000D01*
X89722259Y-97736000D01*
G36*
X88565652Y-105760265D02*
G01*
X88578349Y-105698835D01*
X88670031Y-105271334D01*
X89530849Y-105269314D01*
X90022143Y-105260190D01*
X90407442Y-105230058D01*
X90749593Y-105170799D01*
X91111442Y-105074293D01*
X91164087Y-105058318D01*
X91297253Y-105049238D01*
X91387486Y-105149348D01*
X91441940Y-105284608D01*
X91485938Y-105512425D01*
X91409474Y-105670349D01*
X91189728Y-105801605D01*
X91162826Y-105813295D01*
X91136996Y-105886801D01*
X91213838Y-105971415D01*
X91395608Y-106213503D01*
X91503983Y-106546538D01*
X91523687Y-106902417D01*
X91474601Y-107134000D01*
X91277254Y-107433459D01*
X90945827Y-107652053D01*
X90499818Y-107780241D01*
X90090505Y-107811334D01*
X90069725Y-107809129D01*
X90069725Y-107726667D01*
X90425512Y-107705265D01*
X90726862Y-107648591D01*
X90854062Y-107601359D01*
X91180143Y-107357991D01*
X91382187Y-107047376D01*
X91446658Y-106703659D01*
X91360025Y-106360986D01*
X91351896Y-106345268D01*
X91209800Y-106151251D01*
X91101443Y-106052184D01*
X91004631Y-105916275D01*
X91016194Y-105774359D01*
X91126155Y-105696499D01*
X91152358Y-105694667D01*
X91313449Y-105624983D01*
X91384889Y-105455501D01*
X91362258Y-105303171D01*
X91313156Y-105202613D01*
X91235978Y-105163830D01*
X91084105Y-105181091D01*
X90845557Y-105239671D01*
X90553957Y-105292235D01*
X90161573Y-105332439D01*
X89736844Y-105354000D01*
X89577940Y-105356000D01*
X89176898Y-105358008D01*
X88913228Y-105382414D01*
X88755047Y-105456791D01*
X88670472Y-105608713D01*
X88627619Y-105865753D01*
X88598952Y-106202667D01*
X88581854Y-106522514D01*
X88602409Y-106738907D01*
X88672441Y-106915743D01*
X88755257Y-107047319D01*
X89066238Y-107408443D01*
X89424162Y-107625772D01*
X89867850Y-107719368D01*
X90069725Y-107726667D01*
X90069725Y-107809129D01*
X89525540Y-107751377D01*
X89081488Y-107573893D01*
X88760912Y-107282461D01*
X88566372Y-106880659D01*
X88500432Y-106372068D01*
X88565652Y-105760265D01*
X88565652Y-105760265D01*
G37*
X88565652Y-105760265D02*
X88578349Y-105698835D01*
X88670031Y-105271334D01*
X89530849Y-105269314D01*
X90022143Y-105260190D01*
X90407442Y-105230058D01*
X90749593Y-105170799D01*
X91111442Y-105074293D01*
X91164087Y-105058318D01*
X91297253Y-105049238D01*
X91387486Y-105149348D01*
X91441940Y-105284608D01*
X91485938Y-105512425D01*
X91409474Y-105670349D01*
X91189728Y-105801605D01*
X91162826Y-105813295D01*
X91136996Y-105886801D01*
X91213838Y-105971415D01*
X91395608Y-106213503D01*
X91503983Y-106546538D01*
X91523687Y-106902417D01*
X91474601Y-107134000D01*
X91277254Y-107433459D01*
X90945827Y-107652053D01*
X90499818Y-107780241D01*
X90090505Y-107811334D01*
X90069725Y-107809129D01*
X90069725Y-107726667D01*
X90425512Y-107705265D01*
X90726862Y-107648591D01*
X90854062Y-107601359D01*
X91180143Y-107357991D01*
X91382187Y-107047376D01*
X91446658Y-106703659D01*
X91360025Y-106360986D01*
X91351896Y-106345268D01*
X91209800Y-106151251D01*
X91101443Y-106052184D01*
X91004631Y-105916275D01*
X91016194Y-105774359D01*
X91126155Y-105696499D01*
X91152358Y-105694667D01*
X91313449Y-105624983D01*
X91384889Y-105455501D01*
X91362258Y-105303171D01*
X91313156Y-105202613D01*
X91235978Y-105163830D01*
X91084105Y-105181091D01*
X90845557Y-105239671D01*
X90553957Y-105292235D01*
X90161573Y-105332439D01*
X89736844Y-105354000D01*
X89577940Y-105356000D01*
X89176898Y-105358008D01*
X88913228Y-105382414D01*
X88755047Y-105456791D01*
X88670472Y-105608713D01*
X88627619Y-105865753D01*
X88598952Y-106202667D01*
X88581854Y-106522514D01*
X88602409Y-106738907D01*
X88672441Y-106915743D01*
X88755257Y-107047319D01*
X89066238Y-107408443D01*
X89424162Y-107625772D01*
X89867850Y-107719368D01*
X90069725Y-107726667D01*
X90069725Y-107809129D01*
X89525540Y-107751377D01*
X89081488Y-107573893D01*
X88760912Y-107282461D01*
X88566372Y-106880659D01*
X88500432Y-106372068D01*
X88565652Y-105760265D01*
G36*
X88519334Y-99786363D02*
G01*
X88644541Y-99459545D01*
X88894522Y-99209949D01*
X89256601Y-99038550D01*
X89689756Y-98951249D01*
X90152959Y-98953946D01*
X90605188Y-99052543D01*
X90826405Y-99145707D01*
X91138578Y-99391832D01*
X91376559Y-99751317D01*
X91512918Y-100174775D01*
X91534666Y-100420940D01*
X91534666Y-100784000D01*
X92075941Y-100784000D01*
X92393653Y-100794732D01*
X92577634Y-100832133D01*
X92662430Y-100904008D01*
X92668608Y-100917925D01*
X92713002Y-101126203D01*
X92712081Y-101343867D01*
X92666593Y-101486315D01*
X92663555Y-101489556D01*
X92564957Y-101507212D01*
X92324291Y-101522610D01*
X91968816Y-101534823D01*
X91525791Y-101542927D01*
X91022476Y-101545996D01*
X91001211Y-101546000D01*
X90383107Y-101551617D01*
X89852427Y-101567668D01*
X89432767Y-101592955D01*
X89147722Y-101626279D01*
X89067443Y-101644232D01*
X88831856Y-101705265D01*
X88819274Y-101703315D01*
X88819274Y-101606927D01*
X88971598Y-101592734D01*
X89082875Y-101557453D01*
X89276637Y-101521612D01*
X89619474Y-101493205D01*
X90091246Y-101473242D01*
X90671817Y-101462731D01*
X91002331Y-101461334D01*
X92646062Y-101461334D01*
X92593000Y-100911000D01*
X91450000Y-100860930D01*
X91450000Y-100475428D01*
X91417284Y-100159684D01*
X91336063Y-99856666D01*
X91309767Y-99794407D01*
X91078846Y-99466266D01*
X90761737Y-99230771D01*
X90387571Y-99085258D01*
X89985478Y-99027064D01*
X89584591Y-99053525D01*
X89214041Y-99161977D01*
X88902958Y-99349756D01*
X88680473Y-99614199D01*
X88575719Y-99952640D01*
X88571333Y-100044819D01*
X88618942Y-100299722D01*
X88738872Y-100543623D01*
X88896775Y-100722711D01*
X89043145Y-100784000D01*
X89141956Y-100825155D01*
X89119869Y-100922803D01*
X88996012Y-101038219D01*
X88888833Y-101096398D01*
X88698486Y-101230165D01*
X88670201Y-101401469D01*
X88732871Y-101536286D01*
X88819274Y-101606927D01*
X88819274Y-101703315D01*
X88706565Y-101685839D01*
X88641080Y-101558614D01*
X88604323Y-101393452D01*
X88585987Y-101199297D01*
X88658653Y-101095086D01*
X88777738Y-101040001D01*
X89004593Y-100953751D01*
X88777090Y-100758060D01*
X88591077Y-100496520D01*
X88503121Y-100152662D01*
X88519334Y-99786363D01*
X88519334Y-99786363D01*
G37*
X88519334Y-99786363D02*
X88644541Y-99459545D01*
X88894522Y-99209949D01*
X89256601Y-99038550D01*
X89689756Y-98951249D01*
X90152959Y-98953946D01*
X90605188Y-99052543D01*
X90826405Y-99145707D01*
X91138578Y-99391832D01*
X91376559Y-99751317D01*
X91512918Y-100174775D01*
X91534666Y-100420940D01*
X91534666Y-100784000D01*
X92075941Y-100784000D01*
X92393653Y-100794732D01*
X92577634Y-100832133D01*
X92662430Y-100904008D01*
X92668608Y-100917925D01*
X92713002Y-101126203D01*
X92712081Y-101343867D01*
X92666593Y-101486315D01*
X92663555Y-101489556D01*
X92564957Y-101507212D01*
X92324291Y-101522610D01*
X91968816Y-101534823D01*
X91525791Y-101542927D01*
X91022476Y-101545996D01*
X91001211Y-101546000D01*
X90383107Y-101551617D01*
X89852427Y-101567668D01*
X89432767Y-101592955D01*
X89147722Y-101626279D01*
X89067443Y-101644232D01*
X88831856Y-101705265D01*
X88819274Y-101703315D01*
X88819274Y-101606927D01*
X88971598Y-101592734D01*
X89082875Y-101557453D01*
X89276637Y-101521612D01*
X89619474Y-101493205D01*
X90091246Y-101473242D01*
X90671817Y-101462731D01*
X91002331Y-101461334D01*
X92646062Y-101461334D01*
X92593000Y-100911000D01*
X91450000Y-100860930D01*
X91450000Y-100475428D01*
X91417284Y-100159684D01*
X91336063Y-99856666D01*
X91309767Y-99794407D01*
X91078846Y-99466266D01*
X90761737Y-99230771D01*
X90387571Y-99085258D01*
X89985478Y-99027064D01*
X89584591Y-99053525D01*
X89214041Y-99161977D01*
X88902958Y-99349756D01*
X88680473Y-99614199D01*
X88575719Y-99952640D01*
X88571333Y-100044819D01*
X88618942Y-100299722D01*
X88738872Y-100543623D01*
X88896775Y-100722711D01*
X89043145Y-100784000D01*
X89141956Y-100825155D01*
X89119869Y-100922803D01*
X88996012Y-101038219D01*
X88888833Y-101096398D01*
X88698486Y-101230165D01*
X88670201Y-101401469D01*
X88732871Y-101536286D01*
X88819274Y-101606927D01*
X88819274Y-101703315D01*
X88706565Y-101685839D01*
X88641080Y-101558614D01*
X88604323Y-101393452D01*
X88585987Y-101199297D01*
X88658653Y-101095086D01*
X88777738Y-101040001D01*
X89004593Y-100953751D01*
X88777090Y-100758060D01*
X88591077Y-100496520D01*
X88503121Y-100152662D01*
X88519334Y-99786363D01*
G36*
X88544874Y-102796943D02*
G01*
X88688619Y-102510377D01*
X88772266Y-102422757D01*
X89145163Y-102200470D01*
X89592238Y-102084087D01*
X90069854Y-102070307D01*
X90534375Y-102155828D01*
X90942165Y-102337348D01*
X91248469Y-102610098D01*
X91409092Y-102897887D01*
X91496601Y-103267708D01*
X91511521Y-103402053D01*
X91557530Y-103909452D01*
X92677666Y-103959000D01*
X92703294Y-104265596D01*
X92728921Y-104572191D01*
X91052294Y-104617524D01*
X90439233Y-104639356D01*
X89905597Y-104668746D01*
X89475940Y-104703821D01*
X89174818Y-104742708D01*
X89058238Y-104769612D01*
X88827318Y-104836771D01*
X88786464Y-104830155D01*
X88786464Y-104729603D01*
X88939328Y-104725088D01*
X89418337Y-104623899D01*
X90057711Y-104554524D01*
X90851398Y-104517494D01*
X91386500Y-104511036D01*
X92635333Y-104509334D01*
X92635333Y-104001334D01*
X91470352Y-104001334D01*
X91434737Y-103508964D01*
X91336120Y-103014365D01*
X91116053Y-102633857D01*
X90767743Y-102356919D01*
X90654042Y-102299994D01*
X90163304Y-102155217D01*
X89670812Y-102150761D01*
X89215715Y-102281812D01*
X88861075Y-102520399D01*
X88669418Y-102733463D01*
X88585721Y-102938400D01*
X88571333Y-103132080D01*
X88617032Y-103414643D01*
X88734102Y-103672712D01*
X88892501Y-103856333D01*
X89043145Y-103916667D01*
X89150030Y-103984575D01*
X89164000Y-104043667D01*
X89094107Y-104148709D01*
X89005033Y-104170667D01*
X88800976Y-104241514D01*
X88691463Y-104416928D01*
X88699500Y-104597678D01*
X88786464Y-104729603D01*
X88786464Y-104830155D01*
X88704386Y-104816862D01*
X88638879Y-104682275D01*
X88603340Y-104521203D01*
X88583419Y-104326375D01*
X88655564Y-104220669D01*
X88808185Y-104151223D01*
X88977468Y-104080843D01*
X89001979Y-104031786D01*
X88896274Y-103968029D01*
X88884562Y-103962178D01*
X88669777Y-103768620D01*
X88539122Y-103476362D01*
X88496264Y-103135704D01*
X88544874Y-102796943D01*
X88544874Y-102796943D01*
G37*
X88544874Y-102796943D02*
X88688619Y-102510377D01*
X88772266Y-102422757D01*
X89145163Y-102200470D01*
X89592238Y-102084087D01*
X90069854Y-102070307D01*
X90534375Y-102155828D01*
X90942165Y-102337348D01*
X91248469Y-102610098D01*
X91409092Y-102897887D01*
X91496601Y-103267708D01*
X91511521Y-103402053D01*
X91557530Y-103909452D01*
X92677666Y-103959000D01*
X92703294Y-104265596D01*
X92728921Y-104572191D01*
X91052294Y-104617524D01*
X90439233Y-104639356D01*
X89905597Y-104668746D01*
X89475940Y-104703821D01*
X89174818Y-104742708D01*
X89058238Y-104769612D01*
X88827318Y-104836771D01*
X88786464Y-104830155D01*
X88786464Y-104729603D01*
X88939328Y-104725088D01*
X89418337Y-104623899D01*
X90057711Y-104554524D01*
X90851398Y-104517494D01*
X91386500Y-104511036D01*
X92635333Y-104509334D01*
X92635333Y-104001334D01*
X91470352Y-104001334D01*
X91434737Y-103508964D01*
X91336120Y-103014365D01*
X91116053Y-102633857D01*
X90767743Y-102356919D01*
X90654042Y-102299994D01*
X90163304Y-102155217D01*
X89670812Y-102150761D01*
X89215715Y-102281812D01*
X88861075Y-102520399D01*
X88669418Y-102733463D01*
X88585721Y-102938400D01*
X88571333Y-103132080D01*
X88617032Y-103414643D01*
X88734102Y-103672712D01*
X88892501Y-103856333D01*
X89043145Y-103916667D01*
X89150030Y-103984575D01*
X89164000Y-104043667D01*
X89094107Y-104148709D01*
X89005033Y-104170667D01*
X88800976Y-104241514D01*
X88691463Y-104416928D01*
X88699500Y-104597678D01*
X88786464Y-104729603D01*
X88786464Y-104830155D01*
X88704386Y-104816862D01*
X88638879Y-104682275D01*
X88603340Y-104521203D01*
X88583419Y-104326375D01*
X88655564Y-104220669D01*
X88808185Y-104151223D01*
X88977468Y-104080843D01*
X89001979Y-104031786D01*
X88896274Y-103968029D01*
X88884562Y-103962178D01*
X88669777Y-103768620D01*
X88539122Y-103476362D01*
X88496264Y-103135704D01*
X88544874Y-102796943D01*
D13*
X96400000Y-96400000D02*
X96400000Y-97400000D01*
X101500000Y-96400000D02*
X96400000Y-96400000D01*
X96400000Y-103600000D02*
X96400000Y-102600000D01*
X101500000Y-103600000D02*
X96400000Y-103600000D01*
D14*
G36*
X96190000Y-103937000D02*
G01*
X96190000Y-104318000D01*
X96571000Y-104318000D01*
X96571000Y-103937000D01*
X96317000Y-103937000D01*
X96190000Y-103937000D01*
G37*
X96190000Y-103937000D02*
X96190000Y-104318000D01*
X96571000Y-104318000D01*
X96571000Y-103937000D01*
X96317000Y-103937000D01*
X96190000Y-103937000D01*
D15*
X103683000Y-104064000D02*
G75*
G03X103683000Y-104064000I-127000J0D01*
G01*
D13*
X105029000Y-86190000D02*
X94869000Y-86190000D01*
X105029000Y-93810000D02*
X105029000Y-86190000D01*
X94869000Y-93810000D02*
X105029000Y-93810000D01*
X94869000Y-86190000D02*
X94869000Y-93810000D01*
X94869000Y-87460000D02*
X105029000Y-87460000D01*
X105029000Y-112522000D02*
X94869000Y-112522000D01*
X105029000Y-113792000D02*
X105029000Y-106172000D01*
X105029000Y-106172000D02*
X94869000Y-106172000D01*
X94869000Y-106172000D02*
X94869000Y-113792000D01*
X94869000Y-113792000D02*
X105029000Y-113792000D01*
D10*
X105452380Y-96738095D02*
X104452380Y-96738095D01*
X104452380Y-96500000D01*
X104500000Y-96357142D01*
X104595238Y-96261904D01*
X104690476Y-96214285D01*
X104880952Y-96166666D01*
X105023809Y-96166666D01*
X105214285Y-96214285D01*
X105309523Y-96261904D01*
X105404761Y-96357142D01*
X105452380Y-96500000D01*
X105452380Y-96738095D01*
X105452380Y-95214285D02*
X105452380Y-95785714D01*
X105452380Y-95500000D02*
X104452380Y-95500000D01*
X104595238Y-95595238D01*
X104690476Y-95690476D01*
X104738095Y-95785714D01*
X105751380Y-91984333D02*
X106465666Y-91984333D01*
X106608523Y-92031952D01*
X106703761Y-92127190D01*
X106751380Y-92270047D01*
X106751380Y-92365285D01*
X106751380Y-90984333D02*
X106751380Y-91555761D01*
X106751380Y-91270047D02*
X105751380Y-91270047D01*
X105894238Y-91365285D01*
X105989476Y-91460523D01*
X106037095Y-91555761D01*
X105624380Y-110569333D02*
X106338666Y-110569333D01*
X106481523Y-110616952D01*
X106576761Y-110712190D01*
X106624380Y-110855047D01*
X106624380Y-110950285D01*
X105719619Y-110140761D02*
X105672000Y-110093142D01*
X105624380Y-109997904D01*
X105624380Y-109759809D01*
X105672000Y-109664571D01*
X105719619Y-109616952D01*
X105814857Y-109569333D01*
X105910095Y-109569333D01*
X106052952Y-109616952D01*
X106624380Y-110188380D01*
X106624380Y-109569333D01*
M02*
