M48
; DRILL file {KiCad (5.1.0)-1} date 07/17/19 20:00:46
; FORMAT={-:-/ absolute / inch / decimal}
; #@! TF.CreationDate,2019-07-17T20:00:46+05:30
; #@! TF.GenerationSoftware,Kicad,Pcbnew,(5.1.0)-1
; #@! TF.FileFunction,Plated,1,2,PTH
FMAT,2
INCH
T1C0.0157
T2C0.0394
%
G90
G05
T1
X1.1417Y-0.7008
X1.2913Y-1.7323
X1.3386Y-0.5866
X1.4449Y-1.8898
X1.4567Y-1.4606
X1.4567Y-1.5157
X1.4843Y-1.8898
X1.5354Y-1.9291
X1.5732Y-1.8599
X1.6811Y-1.2323
X1.6929Y-1.2795
X1.7008Y-1.9439
X1.7598Y-0.6299
X1.8622Y-1.4173
X2.3228Y-0.7008
X2.3583Y-1.5551
X2.4016Y-1.2205
X2.4409Y-1.3543
T2
X2.5591Y-0.8071
X2.5591Y-0.9071
X2.5591Y-1.0071
X2.5591Y-1.1071
X2.5591Y-1.2071
X2.5591Y-1.3071
X2.5591Y-1.4071
X2.5591Y-1.5071
X2.1654Y-0.8071
X2.1654Y-0.9071
X2.1654Y-1.0071
X2.1654Y-1.1071
X2.1654Y-1.2071
X2.1654Y-1.3071
X2.1654Y-1.4071
X2.1654Y-1.5071
X2.5591Y-1.711
X2.5591Y-1.811
X0.9843Y-0.8071
X0.9843Y-0.9071
X0.9843Y-1.0071
X0.9843Y-1.1071
X0.9843Y-1.2071
X0.9843Y-1.3071
X0.9843Y-1.4071
X0.9843Y-1.5071
T0
M30
