M48
; DRILL file {KiCad (5.1.0)-1} date 09/12/19 18:25:08
; FORMAT={-:-/ absolute / inch / decimal}
; #@! TF.CreationDate,2019-09-12T18:25:08+05:30
; #@! TF.GenerationSoftware,Kicad,Pcbnew,(5.1.0)-1
; #@! TF.FileFunction,Plated,1,2,PTH
FMAT,2
INCH
T1C0.0157
T2C0.0394
%
G90
G05
T1
X0.8268Y-0.6496
X0.8268Y-0.6811
X0.8268Y-0.7126
X0.8268Y-0.7441
X0.8268Y-0.7756
X0.8268Y-0.8071
X0.8268Y-0.8386
X0.8268Y-0.8701
X0.8583Y-0.6496
X0.8583Y-0.6811
X0.8583Y-0.7126
X0.8583Y-0.7441
X0.8583Y-0.7756
X0.8583Y-0.8071
X0.8583Y-0.8386
X0.8583Y-0.8701
X0.8898Y-0.6496
X0.8898Y-0.6811
X0.8898Y-0.7126
X0.8898Y-0.7441
X0.8898Y-0.7756
X0.8898Y-0.8071
X0.8898Y-0.8386
X0.8898Y-0.8701
X0.9213Y-0.6496
X0.9213Y-0.6811
X0.9213Y-0.7126
X0.9213Y-0.7441
X0.9213Y-0.7756
X0.9213Y-0.8071
X0.9213Y-0.8386
X0.9213Y-0.8701
X0.9213Y-0.9921
X0.9213Y-1.0236
X0.9213Y-1.0551
X0.9213Y-1.0866
X0.9213Y-1.1181
X0.9213Y-1.1496
X0.9528Y-0.6496
X0.9528Y-0.6811
X0.9528Y-0.7126
X0.9528Y-0.7441
X0.9528Y-0.7756
X0.9528Y-0.8071
X0.9528Y-0.8386
X0.9528Y-0.8701
X0.9528Y-0.9921
X0.9528Y-1.0236
X0.9528Y-1.0551
X0.9528Y-1.0866
X0.9528Y-1.1181
X0.9528Y-1.1496
X0.9843Y-0.6496
X0.9843Y-0.6811
X0.9843Y-0.7126
X0.9843Y-0.7441
X0.9843Y-0.7756
X0.9843Y-0.8071
X0.9843Y-0.8386
X0.9843Y-0.8701
X0.9843Y-0.9921
X0.9843Y-1.0236
X0.9843Y-1.0551
X0.9843Y-1.0866
X0.9843Y-1.1181
X0.9843Y-1.1496
X1.0157Y-0.6496
X1.0157Y-0.6811
X1.0157Y-0.7126
X1.0157Y-1.0866
X1.0157Y-1.1181
X1.0157Y-1.1496
X1.0472Y-0.6496
X1.0472Y-0.6811
X1.0472Y-0.7126
X1.0472Y-1.0866
X1.0472Y-1.1181
X1.0472Y-1.1496
X1.0787Y-1.0866
X1.0787Y-1.1181
X1.0787Y-1.1496
X1.1102Y-1.0866
X1.1102Y-1.1181
X1.1102Y-1.1496
X1.1417Y-1.0866
X1.1417Y-1.1181
X1.1417Y-1.1496
X1.1732Y-1.0866
X1.1732Y-1.1181
X1.1732Y-1.1496
X1.2047Y-1.0866
X1.2047Y-1.1181
X1.2047Y-1.1496
X1.2362Y-1.0866
X1.2362Y-1.1181
X1.2362Y-1.1496
X1.2677Y-1.0866
X1.2677Y-1.1181
X1.2677Y-1.1496
X1.2992Y-1.0866
X1.2992Y-1.1181
X1.2992Y-1.1496
X1.3228Y-0.7441
X1.3228Y-0.7756
X1.3228Y-0.8071
X1.3228Y-0.8386
X1.3228Y-0.8701
X1.3543Y-0.7126
X1.3543Y-0.7441
X1.3543Y-0.7756
X1.3543Y-0.8071
X1.3543Y-0.8386
X1.3543Y-0.8701
X1.3858Y-0.7126
X1.3858Y-0.7441
X1.3858Y-0.7756
X1.3858Y-0.8071
X1.3858Y-0.8386
X1.3858Y-0.8701
X1.4173Y-0.7126
X1.4173Y-0.7441
X1.4173Y-0.7756
X1.4173Y-0.8071
X1.4173Y-0.8386
X1.4173Y-0.8701
X1.4488Y-0.7126
X1.4488Y-0.7441
X1.4488Y-0.7756
X1.4488Y-0.8071
X1.4488Y-0.8386
X1.4488Y-0.8701
X1.4803Y-0.7126
X1.4803Y-0.7441
X1.4803Y-0.7756
X1.4803Y-0.8071
X1.4803Y-0.8386
X1.8031Y-0.7126
X1.8031Y-0.7441
X1.8031Y-0.7756
X1.8031Y-0.8071
X1.8031Y-0.8386
X1.8346Y-0.7126
X1.8346Y-0.7441
X1.8346Y-0.7756
X1.8346Y-0.8071
X1.8346Y-0.8386
X1.8346Y-0.8701
X1.8661Y-0.6811
X1.8661Y-0.7126
X1.8661Y-0.7441
X1.8661Y-0.7756
X1.8661Y-0.8071
X1.8661Y-0.8386
X1.8661Y-0.8701
X1.8661Y-0.9921
X1.8661Y-1.0236
X1.8661Y-1.0551
X1.8661Y-1.0866
X1.8661Y-1.1181
X1.8661Y-1.1496
X1.8976Y-0.6811
X1.8976Y-0.7126
X1.8976Y-0.7441
X1.8976Y-0.7756
X1.8976Y-0.8071
X1.8976Y-0.8386
X1.8976Y-0.8701
X1.8976Y-0.9921
X1.8976Y-1.0236
X1.8976Y-1.0551
X1.8976Y-1.0866
X1.8976Y-1.1181
X1.8976Y-1.1496
X1.9291Y-0.6811
X1.9291Y-0.7126
X1.9291Y-0.7441
X1.9291Y-0.7756
X1.9291Y-0.8071
X1.9291Y-0.8386
X1.9291Y-0.8701
X1.9291Y-0.9921
X1.9291Y-1.0236
X1.9291Y-1.0551
X1.9291Y-1.0866
X1.9291Y-1.1181
X1.9291Y-1.1496
X1.9606Y-0.6811
X1.9606Y-0.7126
X1.9606Y-0.7441
X1.9606Y-0.7756
X1.9606Y-0.8071
X1.9606Y-0.8386
X1.9606Y-0.8701
X1.9606Y-0.9921
X1.9606Y-1.0236
X1.9606Y-1.0551
X1.9606Y-1.0866
X1.9606Y-1.1181
X1.9606Y-1.1496
X1.9921Y-0.6811
X1.9921Y-0.7126
X1.9921Y-0.7441
X1.9921Y-0.7756
X1.9921Y-0.8071
X1.9921Y-0.8386
X1.9921Y-0.8701
X1.9921Y-0.9921
X1.9921Y-1.0236
X1.9921Y-1.0551
X1.9921Y-1.0866
X1.9921Y-1.1181
X1.9921Y-1.1496
X2.0236Y-0.7126
X2.0236Y-0.7441
X2.0236Y-0.7756
X2.0236Y-0.8071
X2.0236Y-0.8386
X2.0236Y-0.8701
X2.0236Y-0.9921
X2.0236Y-1.0236
X2.0236Y-1.0551
X2.0236Y-1.0866
X2.0236Y-1.1181
X2.0236Y-1.1496
X2.0551Y-1.0866
X2.0551Y-1.1181
X2.0551Y-1.1496
X2.0866Y-1.0866
X2.0866Y-1.1181
X2.0866Y-1.1496
X2.1181Y-1.0866
X2.1181Y-1.1181
X2.1181Y-1.1496
X2.2953Y-0.6693
X2.2953Y-0.7008
X2.2953Y-0.7323
X2.3268Y-0.6693
X2.3268Y-0.7008
X2.3268Y-0.7323
X2.3583Y-0.6693
X2.3583Y-0.7008
X2.3583Y-0.7323
X2.3898Y-0.6693
X2.3898Y-0.7008
X2.3898Y-0.7323
X2.3898Y-0.7638
X2.3898Y-0.7953
X2.3898Y-0.8268
X2.3898Y-0.8583
X2.3898Y-0.8898
X2.3898Y-0.9213
X2.3898Y-0.9528
X2.3898Y-0.9843
X2.3898Y-1.0157
X2.3898Y-1.0472
X2.3898Y-1.0787
X2.3898Y-1.1102
X2.3898Y-1.1417
X2.3898Y-1.1732
X2.3898Y-1.2047
X2.3898Y-1.2362
X2.3898Y-1.2677
X2.4213Y-0.6693
X2.4213Y-0.7008
X2.4213Y-0.7323
X2.4213Y-0.7638
X2.4213Y-0.7953
X2.4213Y-0.8268
X2.4213Y-0.8583
X2.4213Y-0.8898
X2.4213Y-0.9213
X2.4213Y-0.9528
X2.4213Y-0.9843
X2.4213Y-1.0157
X2.4213Y-1.0472
X2.4213Y-1.0787
X2.4213Y-1.1102
X2.4213Y-1.1417
X2.4213Y-1.1732
X2.4213Y-1.2047
X2.4213Y-1.2362
X2.4213Y-1.2677
X2.4528Y-0.6693
X2.4528Y-0.7008
X2.4528Y-0.7323
X2.4528Y-0.7638
X2.4528Y-0.7953
X2.4528Y-0.8268
X2.4528Y-0.8583
X2.4528Y-0.8898
X2.4528Y-0.9213
X2.4528Y-0.9528
X2.4528Y-0.9843
X2.4528Y-1.0157
X2.4528Y-1.0472
X2.4528Y-1.0787
X2.4528Y-1.1102
X2.4528Y-1.1417
X2.4528Y-1.1732
X2.4528Y-1.2047
X2.4528Y-1.2362
X2.4528Y-1.2677
T2
X1.6732Y-0.5118
X1.7732Y-0.5118
X1.8732Y-0.5118
X1.6732Y-1.2992
X1.7732Y-1.2992
X1.8732Y-1.2992
T0
M30
