G04 #@! TF.GenerationSoftware,KiCad,Pcbnew,5.0.0-fee4fd1~66~ubuntu16.04.1*
G04 #@! TF.CreationDate,2018-09-26T19:07:44+05:30*
G04 #@! TF.ProjectId,senseBeRx_rev1,73656E7365426552785F726576312E6B,rev?*
G04 #@! TF.SameCoordinates,Original*
G04 #@! TF.FileFunction,Soldermask,Top*
G04 #@! TF.FilePolarity,Negative*
%FSLAX46Y46*%
G04 Gerber Fmt 4.6, Leading zero omitted, Abs format (unit mm)*
G04 Created by KiCad (PCBNEW 5.0.0-fee4fd1~66~ubuntu16.04.1) date Wed Sep 26 19:07:44 2018*
%MOMM*%
%LPD*%
G01*
G04 APERTURE LIST*
%ADD10C,1.400000*%
%ADD11C,1.800000*%
%ADD12C,3.400000*%
%ADD13R,2.600000X2.400000*%
%ADD14R,2.600000X2.800000*%
%ADD15C,1.500000*%
%ADD16C,0.100000*%
%ADD17C,1.350000*%
%ADD18R,2.000000X1.200000*%
%ADD19R,2.200000X2.200000*%
%ADD20C,2.200000*%
%ADD21C,3.600000*%
%ADD22R,2.300000X1.200000*%
%ADD23R,1.200000X2.300000*%
%ADD24C,2.100000*%
%ADD25R,0.900000X1.600000*%
%ADD26R,1.300000X2.000000*%
%ADD27R,0.900000X2.000000*%
%ADD28R,2.000000X0.900000*%
%ADD29C,1.550000*%
G04 APERTURE END LIST*
D10*
G04 #@! TO.C,P1*
X133070000Y-117880000D03*
X130530000Y-133120000D03*
X133070000Y-130580000D03*
X133070000Y-128040000D03*
X133070000Y-125500000D03*
X133070000Y-122960000D03*
X133070000Y-120420000D03*
X130530000Y-120420000D03*
X130530000Y-122960000D03*
X130530000Y-125500000D03*
X130530000Y-128040000D03*
X130530000Y-130580000D03*
X133070000Y-133120000D03*
G04 #@! TD*
D11*
G04 #@! TO.C,BT1*
X120000000Y-112500000D03*
D12*
X134000000Y-77500000D03*
X129000000Y-77500000D03*
G04 #@! TD*
D13*
G04 #@! TO.C,J2*
X103050000Y-143870000D03*
X109750000Y-143870000D03*
X102050000Y-136670000D03*
X105650000Y-136670000D03*
D14*
X111550000Y-136870000D03*
D15*
X109450000Y-140270000D03*
X103450000Y-140270000D03*
G04 #@! TD*
D16*
G04 #@! TO.C,R9*
G36*
X107395581Y-132726625D02*
X107428343Y-132731485D01*
X107460471Y-132739533D01*
X107491656Y-132750691D01*
X107521596Y-132764852D01*
X107550005Y-132781879D01*
X107576608Y-132801609D01*
X107601149Y-132823851D01*
X107623391Y-132848392D01*
X107643121Y-132874995D01*
X107660148Y-132903404D01*
X107674309Y-132933344D01*
X107685467Y-132964529D01*
X107693515Y-132996657D01*
X107698375Y-133029419D01*
X107700000Y-133062500D01*
X107700000Y-133737500D01*
X107698375Y-133770581D01*
X107693515Y-133803343D01*
X107685467Y-133835471D01*
X107674309Y-133866656D01*
X107660148Y-133896596D01*
X107643121Y-133925005D01*
X107623391Y-133951608D01*
X107601149Y-133976149D01*
X107576608Y-133998391D01*
X107550005Y-134018121D01*
X107521596Y-134035148D01*
X107491656Y-134049309D01*
X107460471Y-134060467D01*
X107428343Y-134068515D01*
X107395581Y-134073375D01*
X107362500Y-134075000D01*
X106587500Y-134075000D01*
X106554419Y-134073375D01*
X106521657Y-134068515D01*
X106489529Y-134060467D01*
X106458344Y-134049309D01*
X106428404Y-134035148D01*
X106399995Y-134018121D01*
X106373392Y-133998391D01*
X106348851Y-133976149D01*
X106326609Y-133951608D01*
X106306879Y-133925005D01*
X106289852Y-133896596D01*
X106275691Y-133866656D01*
X106264533Y-133835471D01*
X106256485Y-133803343D01*
X106251625Y-133770581D01*
X106250000Y-133737500D01*
X106250000Y-133062500D01*
X106251625Y-133029419D01*
X106256485Y-132996657D01*
X106264533Y-132964529D01*
X106275691Y-132933344D01*
X106289852Y-132903404D01*
X106306879Y-132874995D01*
X106326609Y-132848392D01*
X106348851Y-132823851D01*
X106373392Y-132801609D01*
X106399995Y-132781879D01*
X106428404Y-132764852D01*
X106458344Y-132750691D01*
X106489529Y-132739533D01*
X106521657Y-132731485D01*
X106554419Y-132726625D01*
X106587500Y-132725000D01*
X107362500Y-132725000D01*
X107395581Y-132726625D01*
X107395581Y-132726625D01*
G37*
D17*
X106975000Y-133400000D03*
D16*
G36*
X105645581Y-132726625D02*
X105678343Y-132731485D01*
X105710471Y-132739533D01*
X105741656Y-132750691D01*
X105771596Y-132764852D01*
X105800005Y-132781879D01*
X105826608Y-132801609D01*
X105851149Y-132823851D01*
X105873391Y-132848392D01*
X105893121Y-132874995D01*
X105910148Y-132903404D01*
X105924309Y-132933344D01*
X105935467Y-132964529D01*
X105943515Y-132996657D01*
X105948375Y-133029419D01*
X105950000Y-133062500D01*
X105950000Y-133737500D01*
X105948375Y-133770581D01*
X105943515Y-133803343D01*
X105935467Y-133835471D01*
X105924309Y-133866656D01*
X105910148Y-133896596D01*
X105893121Y-133925005D01*
X105873391Y-133951608D01*
X105851149Y-133976149D01*
X105826608Y-133998391D01*
X105800005Y-134018121D01*
X105771596Y-134035148D01*
X105741656Y-134049309D01*
X105710471Y-134060467D01*
X105678343Y-134068515D01*
X105645581Y-134073375D01*
X105612500Y-134075000D01*
X104837500Y-134075000D01*
X104804419Y-134073375D01*
X104771657Y-134068515D01*
X104739529Y-134060467D01*
X104708344Y-134049309D01*
X104678404Y-134035148D01*
X104649995Y-134018121D01*
X104623392Y-133998391D01*
X104598851Y-133976149D01*
X104576609Y-133951608D01*
X104556879Y-133925005D01*
X104539852Y-133896596D01*
X104525691Y-133866656D01*
X104514533Y-133835471D01*
X104506485Y-133803343D01*
X104501625Y-133770581D01*
X104500000Y-133737500D01*
X104500000Y-133062500D01*
X104501625Y-133029419D01*
X104506485Y-132996657D01*
X104514533Y-132964529D01*
X104525691Y-132933344D01*
X104539852Y-132903404D01*
X104556879Y-132874995D01*
X104576609Y-132848392D01*
X104598851Y-132823851D01*
X104623392Y-132801609D01*
X104649995Y-132781879D01*
X104678404Y-132764852D01*
X104708344Y-132750691D01*
X104739529Y-132739533D01*
X104771657Y-132731485D01*
X104804419Y-132726625D01*
X104837500Y-132725000D01*
X105612500Y-132725000D01*
X105645581Y-132726625D01*
X105645581Y-132726625D01*
G37*
D17*
X105225000Y-133400000D03*
G04 #@! TD*
D15*
G04 #@! TO.C,J1*
X103430000Y-123770000D03*
X109430000Y-123770000D03*
D14*
X111530000Y-120370000D03*
D13*
X105630000Y-120170000D03*
X102030000Y-120170000D03*
X109730000Y-127370000D03*
X103030000Y-127370000D03*
G04 #@! TD*
D18*
G04 #@! TO.C,D1*
X118400000Y-81800000D03*
X121600000Y-81800000D03*
X121600000Y-83200000D03*
X118400000Y-83200000D03*
G04 #@! TD*
D19*
G04 #@! TO.C,D2*
X121300000Y-136900000D03*
D20*
X118760000Y-136900000D03*
G04 #@! TD*
D21*
G04 #@! TO.C,*
X120000000Y-75000000D03*
G04 #@! TD*
G04 #@! TO.C,*
X120000000Y-145000000D03*
G04 #@! TD*
D22*
G04 #@! TO.C,Q1*
X132500000Y-81550000D03*
X132500000Y-83450000D03*
X135500000Y-82500000D03*
G04 #@! TD*
D23*
G04 #@! TO.C,Q2*
X131450000Y-92800000D03*
X133350000Y-92800000D03*
X132400000Y-89800000D03*
G04 #@! TD*
G04 #@! TO.C,Q3*
X128000000Y-89800000D03*
X128950000Y-92800000D03*
X127050000Y-92800000D03*
G04 #@! TD*
D22*
G04 #@! TO.C,Q4*
X108800000Y-95700000D03*
X111800000Y-94750000D03*
X111800000Y-96650000D03*
G04 #@! TD*
D24*
G04 #@! TO.C,SW1*
X116700000Y-121400000D03*
X123200000Y-121400000D03*
X116700000Y-125900000D03*
X123200000Y-125900000D03*
G04 #@! TD*
D25*
G04 #@! TO.C,U1*
X133850000Y-112900000D03*
X135250000Y-112900000D03*
D26*
X135800000Y-114750000D03*
D27*
X134900000Y-114750000D03*
X134200000Y-114750000D03*
X133500000Y-114750000D03*
X132800000Y-114750000D03*
X132100000Y-114750000D03*
X131400000Y-114750000D03*
X130700000Y-114750000D03*
X130000000Y-114750000D03*
X129300000Y-114750000D03*
X128600000Y-114750000D03*
X127900000Y-114750000D03*
X127200000Y-114750000D03*
X126500000Y-114750000D03*
X125800000Y-114750000D03*
D28*
X124250000Y-114200000D03*
X124250000Y-113500000D03*
X124250000Y-112800000D03*
X124250000Y-112100000D03*
X124250000Y-111400000D03*
X124250000Y-110700000D03*
X124250000Y-110000000D03*
X124250000Y-109300000D03*
X124250000Y-108600000D03*
X124250000Y-107900000D03*
X124250000Y-107200000D03*
X124250000Y-106500000D03*
D27*
X126500000Y-105250000D03*
X127200000Y-105250000D03*
X127900000Y-105250000D03*
X128600000Y-105250000D03*
X129300000Y-105250000D03*
X130000000Y-105250000D03*
X130700000Y-105250000D03*
X131400000Y-105250000D03*
X132100000Y-105250000D03*
D26*
X135800000Y-105250000D03*
D27*
X132800000Y-105250000D03*
D28*
X124250000Y-105700000D03*
G04 #@! TD*
D10*
G04 #@! TO.C,Y1*
X120500000Y-106000000D03*
X120500000Y-107900000D03*
G04 #@! TD*
D16*
G04 #@! TO.C,C1*
G36*
X131870581Y-98501625D02*
X131903343Y-98506485D01*
X131935471Y-98514533D01*
X131966656Y-98525691D01*
X131996596Y-98539852D01*
X132025005Y-98556879D01*
X132051608Y-98576609D01*
X132076149Y-98598851D01*
X132098391Y-98623392D01*
X132118121Y-98649995D01*
X132135148Y-98678404D01*
X132149309Y-98708344D01*
X132160467Y-98739529D01*
X132168515Y-98771657D01*
X132173375Y-98804419D01*
X132175000Y-98837500D01*
X132175000Y-99612500D01*
X132173375Y-99645581D01*
X132168515Y-99678343D01*
X132160467Y-99710471D01*
X132149309Y-99741656D01*
X132135148Y-99771596D01*
X132118121Y-99800005D01*
X132098391Y-99826608D01*
X132076149Y-99851149D01*
X132051608Y-99873391D01*
X132025005Y-99893121D01*
X131996596Y-99910148D01*
X131966656Y-99924309D01*
X131935471Y-99935467D01*
X131903343Y-99943515D01*
X131870581Y-99948375D01*
X131837500Y-99950000D01*
X131162500Y-99950000D01*
X131129419Y-99948375D01*
X131096657Y-99943515D01*
X131064529Y-99935467D01*
X131033344Y-99924309D01*
X131003404Y-99910148D01*
X130974995Y-99893121D01*
X130948392Y-99873391D01*
X130923851Y-99851149D01*
X130901609Y-99826608D01*
X130881879Y-99800005D01*
X130864852Y-99771596D01*
X130850691Y-99741656D01*
X130839533Y-99710471D01*
X130831485Y-99678343D01*
X130826625Y-99645581D01*
X130825000Y-99612500D01*
X130825000Y-98837500D01*
X130826625Y-98804419D01*
X130831485Y-98771657D01*
X130839533Y-98739529D01*
X130850691Y-98708344D01*
X130864852Y-98678404D01*
X130881879Y-98649995D01*
X130901609Y-98623392D01*
X130923851Y-98598851D01*
X130948392Y-98576609D01*
X130974995Y-98556879D01*
X131003404Y-98539852D01*
X131033344Y-98525691D01*
X131064529Y-98514533D01*
X131096657Y-98506485D01*
X131129419Y-98501625D01*
X131162500Y-98500000D01*
X131837500Y-98500000D01*
X131870581Y-98501625D01*
X131870581Y-98501625D01*
G37*
D17*
X131500000Y-99225000D03*
D16*
G36*
X131870581Y-100251625D02*
X131903343Y-100256485D01*
X131935471Y-100264533D01*
X131966656Y-100275691D01*
X131996596Y-100289852D01*
X132025005Y-100306879D01*
X132051608Y-100326609D01*
X132076149Y-100348851D01*
X132098391Y-100373392D01*
X132118121Y-100399995D01*
X132135148Y-100428404D01*
X132149309Y-100458344D01*
X132160467Y-100489529D01*
X132168515Y-100521657D01*
X132173375Y-100554419D01*
X132175000Y-100587500D01*
X132175000Y-101362500D01*
X132173375Y-101395581D01*
X132168515Y-101428343D01*
X132160467Y-101460471D01*
X132149309Y-101491656D01*
X132135148Y-101521596D01*
X132118121Y-101550005D01*
X132098391Y-101576608D01*
X132076149Y-101601149D01*
X132051608Y-101623391D01*
X132025005Y-101643121D01*
X131996596Y-101660148D01*
X131966656Y-101674309D01*
X131935471Y-101685467D01*
X131903343Y-101693515D01*
X131870581Y-101698375D01*
X131837500Y-101700000D01*
X131162500Y-101700000D01*
X131129419Y-101698375D01*
X131096657Y-101693515D01*
X131064529Y-101685467D01*
X131033344Y-101674309D01*
X131003404Y-101660148D01*
X130974995Y-101643121D01*
X130948392Y-101623391D01*
X130923851Y-101601149D01*
X130901609Y-101576608D01*
X130881879Y-101550005D01*
X130864852Y-101521596D01*
X130850691Y-101491656D01*
X130839533Y-101460471D01*
X130831485Y-101428343D01*
X130826625Y-101395581D01*
X130825000Y-101362500D01*
X130825000Y-100587500D01*
X130826625Y-100554419D01*
X130831485Y-100521657D01*
X130839533Y-100489529D01*
X130850691Y-100458344D01*
X130864852Y-100428404D01*
X130881879Y-100399995D01*
X130901609Y-100373392D01*
X130923851Y-100348851D01*
X130948392Y-100326609D01*
X130974995Y-100306879D01*
X131003404Y-100289852D01*
X131033344Y-100275691D01*
X131064529Y-100264533D01*
X131096657Y-100256485D01*
X131129419Y-100251625D01*
X131162500Y-100250000D01*
X131837500Y-100250000D01*
X131870581Y-100251625D01*
X131870581Y-100251625D01*
G37*
D17*
X131500000Y-100975000D03*
G04 #@! TD*
D16*
G04 #@! TO.C,C2*
G36*
X129596071Y-82751623D02*
X129628781Y-82756475D01*
X129660857Y-82764509D01*
X129691991Y-82775649D01*
X129721884Y-82789787D01*
X129750247Y-82806787D01*
X129776807Y-82826485D01*
X129801308Y-82848692D01*
X129823515Y-82873193D01*
X129843213Y-82899753D01*
X129860213Y-82928116D01*
X129874351Y-82958009D01*
X129885491Y-82989143D01*
X129893525Y-83021219D01*
X129898377Y-83053929D01*
X129900000Y-83086956D01*
X129900000Y-83963044D01*
X129898377Y-83996071D01*
X129893525Y-84028781D01*
X129885491Y-84060857D01*
X129874351Y-84091991D01*
X129860213Y-84121884D01*
X129843213Y-84150247D01*
X129823515Y-84176807D01*
X129801308Y-84201308D01*
X129776807Y-84223515D01*
X129750247Y-84243213D01*
X129721884Y-84260213D01*
X129691991Y-84274351D01*
X129660857Y-84285491D01*
X129628781Y-84293525D01*
X129596071Y-84298377D01*
X129563044Y-84300000D01*
X128436956Y-84300000D01*
X128403929Y-84298377D01*
X128371219Y-84293525D01*
X128339143Y-84285491D01*
X128308009Y-84274351D01*
X128278116Y-84260213D01*
X128249753Y-84243213D01*
X128223193Y-84223515D01*
X128198692Y-84201308D01*
X128176485Y-84176807D01*
X128156787Y-84150247D01*
X128139787Y-84121884D01*
X128125649Y-84091991D01*
X128114509Y-84060857D01*
X128106475Y-84028781D01*
X128101623Y-83996071D01*
X128100000Y-83963044D01*
X128100000Y-83086956D01*
X128101623Y-83053929D01*
X128106475Y-83021219D01*
X128114509Y-82989143D01*
X128125649Y-82958009D01*
X128139787Y-82928116D01*
X128156787Y-82899753D01*
X128176485Y-82873193D01*
X128198692Y-82848692D01*
X128223193Y-82826485D01*
X128249753Y-82806787D01*
X128278116Y-82789787D01*
X128308009Y-82775649D01*
X128339143Y-82764509D01*
X128371219Y-82756475D01*
X128403929Y-82751623D01*
X128436956Y-82750000D01*
X129563044Y-82750000D01*
X129596071Y-82751623D01*
X129596071Y-82751623D01*
G37*
D29*
X129000000Y-83525000D03*
D16*
G36*
X129596071Y-80701623D02*
X129628781Y-80706475D01*
X129660857Y-80714509D01*
X129691991Y-80725649D01*
X129721884Y-80739787D01*
X129750247Y-80756787D01*
X129776807Y-80776485D01*
X129801308Y-80798692D01*
X129823515Y-80823193D01*
X129843213Y-80849753D01*
X129860213Y-80878116D01*
X129874351Y-80908009D01*
X129885491Y-80939143D01*
X129893525Y-80971219D01*
X129898377Y-81003929D01*
X129900000Y-81036956D01*
X129900000Y-81913044D01*
X129898377Y-81946071D01*
X129893525Y-81978781D01*
X129885491Y-82010857D01*
X129874351Y-82041991D01*
X129860213Y-82071884D01*
X129843213Y-82100247D01*
X129823515Y-82126807D01*
X129801308Y-82151308D01*
X129776807Y-82173515D01*
X129750247Y-82193213D01*
X129721884Y-82210213D01*
X129691991Y-82224351D01*
X129660857Y-82235491D01*
X129628781Y-82243525D01*
X129596071Y-82248377D01*
X129563044Y-82250000D01*
X128436956Y-82250000D01*
X128403929Y-82248377D01*
X128371219Y-82243525D01*
X128339143Y-82235491D01*
X128308009Y-82224351D01*
X128278116Y-82210213D01*
X128249753Y-82193213D01*
X128223193Y-82173515D01*
X128198692Y-82151308D01*
X128176485Y-82126807D01*
X128156787Y-82100247D01*
X128139787Y-82071884D01*
X128125649Y-82041991D01*
X128114509Y-82010857D01*
X128106475Y-81978781D01*
X128101623Y-81946071D01*
X128100000Y-81913044D01*
X128100000Y-81036956D01*
X128101623Y-81003929D01*
X128106475Y-80971219D01*
X128114509Y-80939143D01*
X128125649Y-80908009D01*
X128139787Y-80878116D01*
X128156787Y-80849753D01*
X128176485Y-80823193D01*
X128198692Y-80798692D01*
X128223193Y-80776485D01*
X128249753Y-80756787D01*
X128278116Y-80739787D01*
X128308009Y-80725649D01*
X128339143Y-80714509D01*
X128371219Y-80706475D01*
X128403929Y-80701623D01*
X128436956Y-80700000D01*
X129563044Y-80700000D01*
X129596071Y-80701623D01*
X129596071Y-80701623D01*
G37*
D29*
X129000000Y-81475000D03*
G04 #@! TD*
D16*
G04 #@! TO.C,C3*
G36*
X125420581Y-98501625D02*
X125453343Y-98506485D01*
X125485471Y-98514533D01*
X125516656Y-98525691D01*
X125546596Y-98539852D01*
X125575005Y-98556879D01*
X125601608Y-98576609D01*
X125626149Y-98598851D01*
X125648391Y-98623392D01*
X125668121Y-98649995D01*
X125685148Y-98678404D01*
X125699309Y-98708344D01*
X125710467Y-98739529D01*
X125718515Y-98771657D01*
X125723375Y-98804419D01*
X125725000Y-98837500D01*
X125725000Y-99612500D01*
X125723375Y-99645581D01*
X125718515Y-99678343D01*
X125710467Y-99710471D01*
X125699309Y-99741656D01*
X125685148Y-99771596D01*
X125668121Y-99800005D01*
X125648391Y-99826608D01*
X125626149Y-99851149D01*
X125601608Y-99873391D01*
X125575005Y-99893121D01*
X125546596Y-99910148D01*
X125516656Y-99924309D01*
X125485471Y-99935467D01*
X125453343Y-99943515D01*
X125420581Y-99948375D01*
X125387500Y-99950000D01*
X124712500Y-99950000D01*
X124679419Y-99948375D01*
X124646657Y-99943515D01*
X124614529Y-99935467D01*
X124583344Y-99924309D01*
X124553404Y-99910148D01*
X124524995Y-99893121D01*
X124498392Y-99873391D01*
X124473851Y-99851149D01*
X124451609Y-99826608D01*
X124431879Y-99800005D01*
X124414852Y-99771596D01*
X124400691Y-99741656D01*
X124389533Y-99710471D01*
X124381485Y-99678343D01*
X124376625Y-99645581D01*
X124375000Y-99612500D01*
X124375000Y-98837500D01*
X124376625Y-98804419D01*
X124381485Y-98771657D01*
X124389533Y-98739529D01*
X124400691Y-98708344D01*
X124414852Y-98678404D01*
X124431879Y-98649995D01*
X124451609Y-98623392D01*
X124473851Y-98598851D01*
X124498392Y-98576609D01*
X124524995Y-98556879D01*
X124553404Y-98539852D01*
X124583344Y-98525691D01*
X124614529Y-98514533D01*
X124646657Y-98506485D01*
X124679419Y-98501625D01*
X124712500Y-98500000D01*
X125387500Y-98500000D01*
X125420581Y-98501625D01*
X125420581Y-98501625D01*
G37*
D17*
X125050000Y-99225000D03*
D16*
G36*
X125420581Y-100251625D02*
X125453343Y-100256485D01*
X125485471Y-100264533D01*
X125516656Y-100275691D01*
X125546596Y-100289852D01*
X125575005Y-100306879D01*
X125601608Y-100326609D01*
X125626149Y-100348851D01*
X125648391Y-100373392D01*
X125668121Y-100399995D01*
X125685148Y-100428404D01*
X125699309Y-100458344D01*
X125710467Y-100489529D01*
X125718515Y-100521657D01*
X125723375Y-100554419D01*
X125725000Y-100587500D01*
X125725000Y-101362500D01*
X125723375Y-101395581D01*
X125718515Y-101428343D01*
X125710467Y-101460471D01*
X125699309Y-101491656D01*
X125685148Y-101521596D01*
X125668121Y-101550005D01*
X125648391Y-101576608D01*
X125626149Y-101601149D01*
X125601608Y-101623391D01*
X125575005Y-101643121D01*
X125546596Y-101660148D01*
X125516656Y-101674309D01*
X125485471Y-101685467D01*
X125453343Y-101693515D01*
X125420581Y-101698375D01*
X125387500Y-101700000D01*
X124712500Y-101700000D01*
X124679419Y-101698375D01*
X124646657Y-101693515D01*
X124614529Y-101685467D01*
X124583344Y-101674309D01*
X124553404Y-101660148D01*
X124524995Y-101643121D01*
X124498392Y-101623391D01*
X124473851Y-101601149D01*
X124451609Y-101576608D01*
X124431879Y-101550005D01*
X124414852Y-101521596D01*
X124400691Y-101491656D01*
X124389533Y-101460471D01*
X124381485Y-101428343D01*
X124376625Y-101395581D01*
X124375000Y-101362500D01*
X124375000Y-100587500D01*
X124376625Y-100554419D01*
X124381485Y-100521657D01*
X124389533Y-100489529D01*
X124400691Y-100458344D01*
X124414852Y-100428404D01*
X124431879Y-100399995D01*
X124451609Y-100373392D01*
X124473851Y-100348851D01*
X124498392Y-100326609D01*
X124524995Y-100306879D01*
X124553404Y-100289852D01*
X124583344Y-100275691D01*
X124614529Y-100264533D01*
X124646657Y-100256485D01*
X124679419Y-100251625D01*
X124712500Y-100250000D01*
X125387500Y-100250000D01*
X125420581Y-100251625D01*
X125420581Y-100251625D01*
G37*
D17*
X125050000Y-100975000D03*
G04 #@! TD*
D16*
G04 #@! TO.C,C4*
G36*
X119295581Y-103226625D02*
X119328343Y-103231485D01*
X119360471Y-103239533D01*
X119391656Y-103250691D01*
X119421596Y-103264852D01*
X119450005Y-103281879D01*
X119476608Y-103301609D01*
X119501149Y-103323851D01*
X119523391Y-103348392D01*
X119543121Y-103374995D01*
X119560148Y-103403404D01*
X119574309Y-103433344D01*
X119585467Y-103464529D01*
X119593515Y-103496657D01*
X119598375Y-103529419D01*
X119600000Y-103562500D01*
X119600000Y-104237500D01*
X119598375Y-104270581D01*
X119593515Y-104303343D01*
X119585467Y-104335471D01*
X119574309Y-104366656D01*
X119560148Y-104396596D01*
X119543121Y-104425005D01*
X119523391Y-104451608D01*
X119501149Y-104476149D01*
X119476608Y-104498391D01*
X119450005Y-104518121D01*
X119421596Y-104535148D01*
X119391656Y-104549309D01*
X119360471Y-104560467D01*
X119328343Y-104568515D01*
X119295581Y-104573375D01*
X119262500Y-104575000D01*
X118487500Y-104575000D01*
X118454419Y-104573375D01*
X118421657Y-104568515D01*
X118389529Y-104560467D01*
X118358344Y-104549309D01*
X118328404Y-104535148D01*
X118299995Y-104518121D01*
X118273392Y-104498391D01*
X118248851Y-104476149D01*
X118226609Y-104451608D01*
X118206879Y-104425005D01*
X118189852Y-104396596D01*
X118175691Y-104366656D01*
X118164533Y-104335471D01*
X118156485Y-104303343D01*
X118151625Y-104270581D01*
X118150000Y-104237500D01*
X118150000Y-103562500D01*
X118151625Y-103529419D01*
X118156485Y-103496657D01*
X118164533Y-103464529D01*
X118175691Y-103433344D01*
X118189852Y-103403404D01*
X118206879Y-103374995D01*
X118226609Y-103348392D01*
X118248851Y-103323851D01*
X118273392Y-103301609D01*
X118299995Y-103281879D01*
X118328404Y-103264852D01*
X118358344Y-103250691D01*
X118389529Y-103239533D01*
X118421657Y-103231485D01*
X118454419Y-103226625D01*
X118487500Y-103225000D01*
X119262500Y-103225000D01*
X119295581Y-103226625D01*
X119295581Y-103226625D01*
G37*
D17*
X118875000Y-103900000D03*
D16*
G36*
X117545581Y-103226625D02*
X117578343Y-103231485D01*
X117610471Y-103239533D01*
X117641656Y-103250691D01*
X117671596Y-103264852D01*
X117700005Y-103281879D01*
X117726608Y-103301609D01*
X117751149Y-103323851D01*
X117773391Y-103348392D01*
X117793121Y-103374995D01*
X117810148Y-103403404D01*
X117824309Y-103433344D01*
X117835467Y-103464529D01*
X117843515Y-103496657D01*
X117848375Y-103529419D01*
X117850000Y-103562500D01*
X117850000Y-104237500D01*
X117848375Y-104270581D01*
X117843515Y-104303343D01*
X117835467Y-104335471D01*
X117824309Y-104366656D01*
X117810148Y-104396596D01*
X117793121Y-104425005D01*
X117773391Y-104451608D01*
X117751149Y-104476149D01*
X117726608Y-104498391D01*
X117700005Y-104518121D01*
X117671596Y-104535148D01*
X117641656Y-104549309D01*
X117610471Y-104560467D01*
X117578343Y-104568515D01*
X117545581Y-104573375D01*
X117512500Y-104575000D01*
X116737500Y-104575000D01*
X116704419Y-104573375D01*
X116671657Y-104568515D01*
X116639529Y-104560467D01*
X116608344Y-104549309D01*
X116578404Y-104535148D01*
X116549995Y-104518121D01*
X116523392Y-104498391D01*
X116498851Y-104476149D01*
X116476609Y-104451608D01*
X116456879Y-104425005D01*
X116439852Y-104396596D01*
X116425691Y-104366656D01*
X116414533Y-104335471D01*
X116406485Y-104303343D01*
X116401625Y-104270581D01*
X116400000Y-104237500D01*
X116400000Y-103562500D01*
X116401625Y-103529419D01*
X116406485Y-103496657D01*
X116414533Y-103464529D01*
X116425691Y-103433344D01*
X116439852Y-103403404D01*
X116456879Y-103374995D01*
X116476609Y-103348392D01*
X116498851Y-103323851D01*
X116523392Y-103301609D01*
X116549995Y-103281879D01*
X116578404Y-103264852D01*
X116608344Y-103250691D01*
X116639529Y-103239533D01*
X116671657Y-103231485D01*
X116704419Y-103226625D01*
X116737500Y-103225000D01*
X117512500Y-103225000D01*
X117545581Y-103226625D01*
X117545581Y-103226625D01*
G37*
D17*
X117125000Y-103900000D03*
G04 #@! TD*
D16*
G04 #@! TO.C,C5*
G36*
X123270581Y-100251625D02*
X123303343Y-100256485D01*
X123335471Y-100264533D01*
X123366656Y-100275691D01*
X123396596Y-100289852D01*
X123425005Y-100306879D01*
X123451608Y-100326609D01*
X123476149Y-100348851D01*
X123498391Y-100373392D01*
X123518121Y-100399995D01*
X123535148Y-100428404D01*
X123549309Y-100458344D01*
X123560467Y-100489529D01*
X123568515Y-100521657D01*
X123573375Y-100554419D01*
X123575000Y-100587500D01*
X123575000Y-101362500D01*
X123573375Y-101395581D01*
X123568515Y-101428343D01*
X123560467Y-101460471D01*
X123549309Y-101491656D01*
X123535148Y-101521596D01*
X123518121Y-101550005D01*
X123498391Y-101576608D01*
X123476149Y-101601149D01*
X123451608Y-101623391D01*
X123425005Y-101643121D01*
X123396596Y-101660148D01*
X123366656Y-101674309D01*
X123335471Y-101685467D01*
X123303343Y-101693515D01*
X123270581Y-101698375D01*
X123237500Y-101700000D01*
X122562500Y-101700000D01*
X122529419Y-101698375D01*
X122496657Y-101693515D01*
X122464529Y-101685467D01*
X122433344Y-101674309D01*
X122403404Y-101660148D01*
X122374995Y-101643121D01*
X122348392Y-101623391D01*
X122323851Y-101601149D01*
X122301609Y-101576608D01*
X122281879Y-101550005D01*
X122264852Y-101521596D01*
X122250691Y-101491656D01*
X122239533Y-101460471D01*
X122231485Y-101428343D01*
X122226625Y-101395581D01*
X122225000Y-101362500D01*
X122225000Y-100587500D01*
X122226625Y-100554419D01*
X122231485Y-100521657D01*
X122239533Y-100489529D01*
X122250691Y-100458344D01*
X122264852Y-100428404D01*
X122281879Y-100399995D01*
X122301609Y-100373392D01*
X122323851Y-100348851D01*
X122348392Y-100326609D01*
X122374995Y-100306879D01*
X122403404Y-100289852D01*
X122433344Y-100275691D01*
X122464529Y-100264533D01*
X122496657Y-100256485D01*
X122529419Y-100251625D01*
X122562500Y-100250000D01*
X123237500Y-100250000D01*
X123270581Y-100251625D01*
X123270581Y-100251625D01*
G37*
D17*
X122900000Y-100975000D03*
D16*
G36*
X123270581Y-98501625D02*
X123303343Y-98506485D01*
X123335471Y-98514533D01*
X123366656Y-98525691D01*
X123396596Y-98539852D01*
X123425005Y-98556879D01*
X123451608Y-98576609D01*
X123476149Y-98598851D01*
X123498391Y-98623392D01*
X123518121Y-98649995D01*
X123535148Y-98678404D01*
X123549309Y-98708344D01*
X123560467Y-98739529D01*
X123568515Y-98771657D01*
X123573375Y-98804419D01*
X123575000Y-98837500D01*
X123575000Y-99612500D01*
X123573375Y-99645581D01*
X123568515Y-99678343D01*
X123560467Y-99710471D01*
X123549309Y-99741656D01*
X123535148Y-99771596D01*
X123518121Y-99800005D01*
X123498391Y-99826608D01*
X123476149Y-99851149D01*
X123451608Y-99873391D01*
X123425005Y-99893121D01*
X123396596Y-99910148D01*
X123366656Y-99924309D01*
X123335471Y-99935467D01*
X123303343Y-99943515D01*
X123270581Y-99948375D01*
X123237500Y-99950000D01*
X122562500Y-99950000D01*
X122529419Y-99948375D01*
X122496657Y-99943515D01*
X122464529Y-99935467D01*
X122433344Y-99924309D01*
X122403404Y-99910148D01*
X122374995Y-99893121D01*
X122348392Y-99873391D01*
X122323851Y-99851149D01*
X122301609Y-99826608D01*
X122281879Y-99800005D01*
X122264852Y-99771596D01*
X122250691Y-99741656D01*
X122239533Y-99710471D01*
X122231485Y-99678343D01*
X122226625Y-99645581D01*
X122225000Y-99612500D01*
X122225000Y-98837500D01*
X122226625Y-98804419D01*
X122231485Y-98771657D01*
X122239533Y-98739529D01*
X122250691Y-98708344D01*
X122264852Y-98678404D01*
X122281879Y-98649995D01*
X122301609Y-98623392D01*
X122323851Y-98598851D01*
X122348392Y-98576609D01*
X122374995Y-98556879D01*
X122403404Y-98539852D01*
X122433344Y-98525691D01*
X122464529Y-98514533D01*
X122496657Y-98506485D01*
X122529419Y-98501625D01*
X122562500Y-98500000D01*
X123237500Y-98500000D01*
X123270581Y-98501625D01*
X123270581Y-98501625D01*
G37*
D17*
X122900000Y-99225000D03*
G04 #@! TD*
D16*
G04 #@! TO.C,C6*
G36*
X117545581Y-109326625D02*
X117578343Y-109331485D01*
X117610471Y-109339533D01*
X117641656Y-109350691D01*
X117671596Y-109364852D01*
X117700005Y-109381879D01*
X117726608Y-109401609D01*
X117751149Y-109423851D01*
X117773391Y-109448392D01*
X117793121Y-109474995D01*
X117810148Y-109503404D01*
X117824309Y-109533344D01*
X117835467Y-109564529D01*
X117843515Y-109596657D01*
X117848375Y-109629419D01*
X117850000Y-109662500D01*
X117850000Y-110337500D01*
X117848375Y-110370581D01*
X117843515Y-110403343D01*
X117835467Y-110435471D01*
X117824309Y-110466656D01*
X117810148Y-110496596D01*
X117793121Y-110525005D01*
X117773391Y-110551608D01*
X117751149Y-110576149D01*
X117726608Y-110598391D01*
X117700005Y-110618121D01*
X117671596Y-110635148D01*
X117641656Y-110649309D01*
X117610471Y-110660467D01*
X117578343Y-110668515D01*
X117545581Y-110673375D01*
X117512500Y-110675000D01*
X116737500Y-110675000D01*
X116704419Y-110673375D01*
X116671657Y-110668515D01*
X116639529Y-110660467D01*
X116608344Y-110649309D01*
X116578404Y-110635148D01*
X116549995Y-110618121D01*
X116523392Y-110598391D01*
X116498851Y-110576149D01*
X116476609Y-110551608D01*
X116456879Y-110525005D01*
X116439852Y-110496596D01*
X116425691Y-110466656D01*
X116414533Y-110435471D01*
X116406485Y-110403343D01*
X116401625Y-110370581D01*
X116400000Y-110337500D01*
X116400000Y-109662500D01*
X116401625Y-109629419D01*
X116406485Y-109596657D01*
X116414533Y-109564529D01*
X116425691Y-109533344D01*
X116439852Y-109503404D01*
X116456879Y-109474995D01*
X116476609Y-109448392D01*
X116498851Y-109423851D01*
X116523392Y-109401609D01*
X116549995Y-109381879D01*
X116578404Y-109364852D01*
X116608344Y-109350691D01*
X116639529Y-109339533D01*
X116671657Y-109331485D01*
X116704419Y-109326625D01*
X116737500Y-109325000D01*
X117512500Y-109325000D01*
X117545581Y-109326625D01*
X117545581Y-109326625D01*
G37*
D17*
X117125000Y-110000000D03*
D16*
G36*
X119295581Y-109326625D02*
X119328343Y-109331485D01*
X119360471Y-109339533D01*
X119391656Y-109350691D01*
X119421596Y-109364852D01*
X119450005Y-109381879D01*
X119476608Y-109401609D01*
X119501149Y-109423851D01*
X119523391Y-109448392D01*
X119543121Y-109474995D01*
X119560148Y-109503404D01*
X119574309Y-109533344D01*
X119585467Y-109564529D01*
X119593515Y-109596657D01*
X119598375Y-109629419D01*
X119600000Y-109662500D01*
X119600000Y-110337500D01*
X119598375Y-110370581D01*
X119593515Y-110403343D01*
X119585467Y-110435471D01*
X119574309Y-110466656D01*
X119560148Y-110496596D01*
X119543121Y-110525005D01*
X119523391Y-110551608D01*
X119501149Y-110576149D01*
X119476608Y-110598391D01*
X119450005Y-110618121D01*
X119421596Y-110635148D01*
X119391656Y-110649309D01*
X119360471Y-110660467D01*
X119328343Y-110668515D01*
X119295581Y-110673375D01*
X119262500Y-110675000D01*
X118487500Y-110675000D01*
X118454419Y-110673375D01*
X118421657Y-110668515D01*
X118389529Y-110660467D01*
X118358344Y-110649309D01*
X118328404Y-110635148D01*
X118299995Y-110618121D01*
X118273392Y-110598391D01*
X118248851Y-110576149D01*
X118226609Y-110551608D01*
X118206879Y-110525005D01*
X118189852Y-110496596D01*
X118175691Y-110466656D01*
X118164533Y-110435471D01*
X118156485Y-110403343D01*
X118151625Y-110370581D01*
X118150000Y-110337500D01*
X118150000Y-109662500D01*
X118151625Y-109629419D01*
X118156485Y-109596657D01*
X118164533Y-109564529D01*
X118175691Y-109533344D01*
X118189852Y-109503404D01*
X118206879Y-109474995D01*
X118226609Y-109448392D01*
X118248851Y-109423851D01*
X118273392Y-109401609D01*
X118299995Y-109381879D01*
X118328404Y-109364852D01*
X118358344Y-109350691D01*
X118389529Y-109339533D01*
X118421657Y-109331485D01*
X118454419Y-109326625D01*
X118487500Y-109325000D01*
X119262500Y-109325000D01*
X119295581Y-109326625D01*
X119295581Y-109326625D01*
G37*
D17*
X118875000Y-110000000D03*
G04 #@! TD*
D16*
G04 #@! TO.C,C7*
G36*
X126870581Y-80901625D02*
X126903343Y-80906485D01*
X126935471Y-80914533D01*
X126966656Y-80925691D01*
X126996596Y-80939852D01*
X127025005Y-80956879D01*
X127051608Y-80976609D01*
X127076149Y-80998851D01*
X127098391Y-81023392D01*
X127118121Y-81049995D01*
X127135148Y-81078404D01*
X127149309Y-81108344D01*
X127160467Y-81139529D01*
X127168515Y-81171657D01*
X127173375Y-81204419D01*
X127175000Y-81237500D01*
X127175000Y-82012500D01*
X127173375Y-82045581D01*
X127168515Y-82078343D01*
X127160467Y-82110471D01*
X127149309Y-82141656D01*
X127135148Y-82171596D01*
X127118121Y-82200005D01*
X127098391Y-82226608D01*
X127076149Y-82251149D01*
X127051608Y-82273391D01*
X127025005Y-82293121D01*
X126996596Y-82310148D01*
X126966656Y-82324309D01*
X126935471Y-82335467D01*
X126903343Y-82343515D01*
X126870581Y-82348375D01*
X126837500Y-82350000D01*
X126162500Y-82350000D01*
X126129419Y-82348375D01*
X126096657Y-82343515D01*
X126064529Y-82335467D01*
X126033344Y-82324309D01*
X126003404Y-82310148D01*
X125974995Y-82293121D01*
X125948392Y-82273391D01*
X125923851Y-82251149D01*
X125901609Y-82226608D01*
X125881879Y-82200005D01*
X125864852Y-82171596D01*
X125850691Y-82141656D01*
X125839533Y-82110471D01*
X125831485Y-82078343D01*
X125826625Y-82045581D01*
X125825000Y-82012500D01*
X125825000Y-81237500D01*
X125826625Y-81204419D01*
X125831485Y-81171657D01*
X125839533Y-81139529D01*
X125850691Y-81108344D01*
X125864852Y-81078404D01*
X125881879Y-81049995D01*
X125901609Y-81023392D01*
X125923851Y-80998851D01*
X125948392Y-80976609D01*
X125974995Y-80956879D01*
X126003404Y-80939852D01*
X126033344Y-80925691D01*
X126064529Y-80914533D01*
X126096657Y-80906485D01*
X126129419Y-80901625D01*
X126162500Y-80900000D01*
X126837500Y-80900000D01*
X126870581Y-80901625D01*
X126870581Y-80901625D01*
G37*
D17*
X126500000Y-81625000D03*
D16*
G36*
X126870581Y-82651625D02*
X126903343Y-82656485D01*
X126935471Y-82664533D01*
X126966656Y-82675691D01*
X126996596Y-82689852D01*
X127025005Y-82706879D01*
X127051608Y-82726609D01*
X127076149Y-82748851D01*
X127098391Y-82773392D01*
X127118121Y-82799995D01*
X127135148Y-82828404D01*
X127149309Y-82858344D01*
X127160467Y-82889529D01*
X127168515Y-82921657D01*
X127173375Y-82954419D01*
X127175000Y-82987500D01*
X127175000Y-83762500D01*
X127173375Y-83795581D01*
X127168515Y-83828343D01*
X127160467Y-83860471D01*
X127149309Y-83891656D01*
X127135148Y-83921596D01*
X127118121Y-83950005D01*
X127098391Y-83976608D01*
X127076149Y-84001149D01*
X127051608Y-84023391D01*
X127025005Y-84043121D01*
X126996596Y-84060148D01*
X126966656Y-84074309D01*
X126935471Y-84085467D01*
X126903343Y-84093515D01*
X126870581Y-84098375D01*
X126837500Y-84100000D01*
X126162500Y-84100000D01*
X126129419Y-84098375D01*
X126096657Y-84093515D01*
X126064529Y-84085467D01*
X126033344Y-84074309D01*
X126003404Y-84060148D01*
X125974995Y-84043121D01*
X125948392Y-84023391D01*
X125923851Y-84001149D01*
X125901609Y-83976608D01*
X125881879Y-83950005D01*
X125864852Y-83921596D01*
X125850691Y-83891656D01*
X125839533Y-83860471D01*
X125831485Y-83828343D01*
X125826625Y-83795581D01*
X125825000Y-83762500D01*
X125825000Y-82987500D01*
X125826625Y-82954419D01*
X125831485Y-82921657D01*
X125839533Y-82889529D01*
X125850691Y-82858344D01*
X125864852Y-82828404D01*
X125881879Y-82799995D01*
X125901609Y-82773392D01*
X125923851Y-82748851D01*
X125948392Y-82726609D01*
X125974995Y-82706879D01*
X126003404Y-82689852D01*
X126033344Y-82675691D01*
X126064529Y-82664533D01*
X126096657Y-82656485D01*
X126129419Y-82651625D01*
X126162500Y-82650000D01*
X126837500Y-82650000D01*
X126870581Y-82651625D01*
X126870581Y-82651625D01*
G37*
D17*
X126500000Y-83375000D03*
G04 #@! TD*
D16*
G04 #@! TO.C,C8*
G36*
X121295581Y-118126625D02*
X121328343Y-118131485D01*
X121360471Y-118139533D01*
X121391656Y-118150691D01*
X121421596Y-118164852D01*
X121450005Y-118181879D01*
X121476608Y-118201609D01*
X121501149Y-118223851D01*
X121523391Y-118248392D01*
X121543121Y-118274995D01*
X121560148Y-118303404D01*
X121574309Y-118333344D01*
X121585467Y-118364529D01*
X121593515Y-118396657D01*
X121598375Y-118429419D01*
X121600000Y-118462500D01*
X121600000Y-119137500D01*
X121598375Y-119170581D01*
X121593515Y-119203343D01*
X121585467Y-119235471D01*
X121574309Y-119266656D01*
X121560148Y-119296596D01*
X121543121Y-119325005D01*
X121523391Y-119351608D01*
X121501149Y-119376149D01*
X121476608Y-119398391D01*
X121450005Y-119418121D01*
X121421596Y-119435148D01*
X121391656Y-119449309D01*
X121360471Y-119460467D01*
X121328343Y-119468515D01*
X121295581Y-119473375D01*
X121262500Y-119475000D01*
X120487500Y-119475000D01*
X120454419Y-119473375D01*
X120421657Y-119468515D01*
X120389529Y-119460467D01*
X120358344Y-119449309D01*
X120328404Y-119435148D01*
X120299995Y-119418121D01*
X120273392Y-119398391D01*
X120248851Y-119376149D01*
X120226609Y-119351608D01*
X120206879Y-119325005D01*
X120189852Y-119296596D01*
X120175691Y-119266656D01*
X120164533Y-119235471D01*
X120156485Y-119203343D01*
X120151625Y-119170581D01*
X120150000Y-119137500D01*
X120150000Y-118462500D01*
X120151625Y-118429419D01*
X120156485Y-118396657D01*
X120164533Y-118364529D01*
X120175691Y-118333344D01*
X120189852Y-118303404D01*
X120206879Y-118274995D01*
X120226609Y-118248392D01*
X120248851Y-118223851D01*
X120273392Y-118201609D01*
X120299995Y-118181879D01*
X120328404Y-118164852D01*
X120358344Y-118150691D01*
X120389529Y-118139533D01*
X120421657Y-118131485D01*
X120454419Y-118126625D01*
X120487500Y-118125000D01*
X121262500Y-118125000D01*
X121295581Y-118126625D01*
X121295581Y-118126625D01*
G37*
D17*
X120875000Y-118800000D03*
D16*
G36*
X119545581Y-118126625D02*
X119578343Y-118131485D01*
X119610471Y-118139533D01*
X119641656Y-118150691D01*
X119671596Y-118164852D01*
X119700005Y-118181879D01*
X119726608Y-118201609D01*
X119751149Y-118223851D01*
X119773391Y-118248392D01*
X119793121Y-118274995D01*
X119810148Y-118303404D01*
X119824309Y-118333344D01*
X119835467Y-118364529D01*
X119843515Y-118396657D01*
X119848375Y-118429419D01*
X119850000Y-118462500D01*
X119850000Y-119137500D01*
X119848375Y-119170581D01*
X119843515Y-119203343D01*
X119835467Y-119235471D01*
X119824309Y-119266656D01*
X119810148Y-119296596D01*
X119793121Y-119325005D01*
X119773391Y-119351608D01*
X119751149Y-119376149D01*
X119726608Y-119398391D01*
X119700005Y-119418121D01*
X119671596Y-119435148D01*
X119641656Y-119449309D01*
X119610471Y-119460467D01*
X119578343Y-119468515D01*
X119545581Y-119473375D01*
X119512500Y-119475000D01*
X118737500Y-119475000D01*
X118704419Y-119473375D01*
X118671657Y-119468515D01*
X118639529Y-119460467D01*
X118608344Y-119449309D01*
X118578404Y-119435148D01*
X118549995Y-119418121D01*
X118523392Y-119398391D01*
X118498851Y-119376149D01*
X118476609Y-119351608D01*
X118456879Y-119325005D01*
X118439852Y-119296596D01*
X118425691Y-119266656D01*
X118414533Y-119235471D01*
X118406485Y-119203343D01*
X118401625Y-119170581D01*
X118400000Y-119137500D01*
X118400000Y-118462500D01*
X118401625Y-118429419D01*
X118406485Y-118396657D01*
X118414533Y-118364529D01*
X118425691Y-118333344D01*
X118439852Y-118303404D01*
X118456879Y-118274995D01*
X118476609Y-118248392D01*
X118498851Y-118223851D01*
X118523392Y-118201609D01*
X118549995Y-118181879D01*
X118578404Y-118164852D01*
X118608344Y-118150691D01*
X118639529Y-118139533D01*
X118671657Y-118131485D01*
X118704419Y-118126625D01*
X118737500Y-118125000D01*
X119512500Y-118125000D01*
X119545581Y-118126625D01*
X119545581Y-118126625D01*
G37*
D17*
X119125000Y-118800000D03*
G04 #@! TD*
D16*
G04 #@! TO.C,R1*
G36*
X131945581Y-94726625D02*
X131978343Y-94731485D01*
X132010471Y-94739533D01*
X132041656Y-94750691D01*
X132071596Y-94764852D01*
X132100005Y-94781879D01*
X132126608Y-94801609D01*
X132151149Y-94823851D01*
X132173391Y-94848392D01*
X132193121Y-94874995D01*
X132210148Y-94903404D01*
X132224309Y-94933344D01*
X132235467Y-94964529D01*
X132243515Y-94996657D01*
X132248375Y-95029419D01*
X132250000Y-95062500D01*
X132250000Y-95737500D01*
X132248375Y-95770581D01*
X132243515Y-95803343D01*
X132235467Y-95835471D01*
X132224309Y-95866656D01*
X132210148Y-95896596D01*
X132193121Y-95925005D01*
X132173391Y-95951608D01*
X132151149Y-95976149D01*
X132126608Y-95998391D01*
X132100005Y-96018121D01*
X132071596Y-96035148D01*
X132041656Y-96049309D01*
X132010471Y-96060467D01*
X131978343Y-96068515D01*
X131945581Y-96073375D01*
X131912500Y-96075000D01*
X131137500Y-96075000D01*
X131104419Y-96073375D01*
X131071657Y-96068515D01*
X131039529Y-96060467D01*
X131008344Y-96049309D01*
X130978404Y-96035148D01*
X130949995Y-96018121D01*
X130923392Y-95998391D01*
X130898851Y-95976149D01*
X130876609Y-95951608D01*
X130856879Y-95925005D01*
X130839852Y-95896596D01*
X130825691Y-95866656D01*
X130814533Y-95835471D01*
X130806485Y-95803343D01*
X130801625Y-95770581D01*
X130800000Y-95737500D01*
X130800000Y-95062500D01*
X130801625Y-95029419D01*
X130806485Y-94996657D01*
X130814533Y-94964529D01*
X130825691Y-94933344D01*
X130839852Y-94903404D01*
X130856879Y-94874995D01*
X130876609Y-94848392D01*
X130898851Y-94823851D01*
X130923392Y-94801609D01*
X130949995Y-94781879D01*
X130978404Y-94764852D01*
X131008344Y-94750691D01*
X131039529Y-94739533D01*
X131071657Y-94731485D01*
X131104419Y-94726625D01*
X131137500Y-94725000D01*
X131912500Y-94725000D01*
X131945581Y-94726625D01*
X131945581Y-94726625D01*
G37*
D17*
X131525000Y-95400000D03*
D16*
G36*
X133695581Y-94726625D02*
X133728343Y-94731485D01*
X133760471Y-94739533D01*
X133791656Y-94750691D01*
X133821596Y-94764852D01*
X133850005Y-94781879D01*
X133876608Y-94801609D01*
X133901149Y-94823851D01*
X133923391Y-94848392D01*
X133943121Y-94874995D01*
X133960148Y-94903404D01*
X133974309Y-94933344D01*
X133985467Y-94964529D01*
X133993515Y-94996657D01*
X133998375Y-95029419D01*
X134000000Y-95062500D01*
X134000000Y-95737500D01*
X133998375Y-95770581D01*
X133993515Y-95803343D01*
X133985467Y-95835471D01*
X133974309Y-95866656D01*
X133960148Y-95896596D01*
X133943121Y-95925005D01*
X133923391Y-95951608D01*
X133901149Y-95976149D01*
X133876608Y-95998391D01*
X133850005Y-96018121D01*
X133821596Y-96035148D01*
X133791656Y-96049309D01*
X133760471Y-96060467D01*
X133728343Y-96068515D01*
X133695581Y-96073375D01*
X133662500Y-96075000D01*
X132887500Y-96075000D01*
X132854419Y-96073375D01*
X132821657Y-96068515D01*
X132789529Y-96060467D01*
X132758344Y-96049309D01*
X132728404Y-96035148D01*
X132699995Y-96018121D01*
X132673392Y-95998391D01*
X132648851Y-95976149D01*
X132626609Y-95951608D01*
X132606879Y-95925005D01*
X132589852Y-95896596D01*
X132575691Y-95866656D01*
X132564533Y-95835471D01*
X132556485Y-95803343D01*
X132551625Y-95770581D01*
X132550000Y-95737500D01*
X132550000Y-95062500D01*
X132551625Y-95029419D01*
X132556485Y-94996657D01*
X132564533Y-94964529D01*
X132575691Y-94933344D01*
X132589852Y-94903404D01*
X132606879Y-94874995D01*
X132626609Y-94848392D01*
X132648851Y-94823851D01*
X132673392Y-94801609D01*
X132699995Y-94781879D01*
X132728404Y-94764852D01*
X132758344Y-94750691D01*
X132789529Y-94739533D01*
X132821657Y-94731485D01*
X132854419Y-94726625D01*
X132887500Y-94725000D01*
X133662500Y-94725000D01*
X133695581Y-94726625D01*
X133695581Y-94726625D01*
G37*
D17*
X133275000Y-95400000D03*
G04 #@! TD*
D16*
G04 #@! TO.C,R2*
G36*
X127545581Y-86626625D02*
X127578343Y-86631485D01*
X127610471Y-86639533D01*
X127641656Y-86650691D01*
X127671596Y-86664852D01*
X127700005Y-86681879D01*
X127726608Y-86701609D01*
X127751149Y-86723851D01*
X127773391Y-86748392D01*
X127793121Y-86774995D01*
X127810148Y-86803404D01*
X127824309Y-86833344D01*
X127835467Y-86864529D01*
X127843515Y-86896657D01*
X127848375Y-86929419D01*
X127850000Y-86962500D01*
X127850000Y-87637500D01*
X127848375Y-87670581D01*
X127843515Y-87703343D01*
X127835467Y-87735471D01*
X127824309Y-87766656D01*
X127810148Y-87796596D01*
X127793121Y-87825005D01*
X127773391Y-87851608D01*
X127751149Y-87876149D01*
X127726608Y-87898391D01*
X127700005Y-87918121D01*
X127671596Y-87935148D01*
X127641656Y-87949309D01*
X127610471Y-87960467D01*
X127578343Y-87968515D01*
X127545581Y-87973375D01*
X127512500Y-87975000D01*
X126737500Y-87975000D01*
X126704419Y-87973375D01*
X126671657Y-87968515D01*
X126639529Y-87960467D01*
X126608344Y-87949309D01*
X126578404Y-87935148D01*
X126549995Y-87918121D01*
X126523392Y-87898391D01*
X126498851Y-87876149D01*
X126476609Y-87851608D01*
X126456879Y-87825005D01*
X126439852Y-87796596D01*
X126425691Y-87766656D01*
X126414533Y-87735471D01*
X126406485Y-87703343D01*
X126401625Y-87670581D01*
X126400000Y-87637500D01*
X126400000Y-86962500D01*
X126401625Y-86929419D01*
X126406485Y-86896657D01*
X126414533Y-86864529D01*
X126425691Y-86833344D01*
X126439852Y-86803404D01*
X126456879Y-86774995D01*
X126476609Y-86748392D01*
X126498851Y-86723851D01*
X126523392Y-86701609D01*
X126549995Y-86681879D01*
X126578404Y-86664852D01*
X126608344Y-86650691D01*
X126639529Y-86639533D01*
X126671657Y-86631485D01*
X126704419Y-86626625D01*
X126737500Y-86625000D01*
X127512500Y-86625000D01*
X127545581Y-86626625D01*
X127545581Y-86626625D01*
G37*
D17*
X127125000Y-87300000D03*
D16*
G36*
X129295581Y-86626625D02*
X129328343Y-86631485D01*
X129360471Y-86639533D01*
X129391656Y-86650691D01*
X129421596Y-86664852D01*
X129450005Y-86681879D01*
X129476608Y-86701609D01*
X129501149Y-86723851D01*
X129523391Y-86748392D01*
X129543121Y-86774995D01*
X129560148Y-86803404D01*
X129574309Y-86833344D01*
X129585467Y-86864529D01*
X129593515Y-86896657D01*
X129598375Y-86929419D01*
X129600000Y-86962500D01*
X129600000Y-87637500D01*
X129598375Y-87670581D01*
X129593515Y-87703343D01*
X129585467Y-87735471D01*
X129574309Y-87766656D01*
X129560148Y-87796596D01*
X129543121Y-87825005D01*
X129523391Y-87851608D01*
X129501149Y-87876149D01*
X129476608Y-87898391D01*
X129450005Y-87918121D01*
X129421596Y-87935148D01*
X129391656Y-87949309D01*
X129360471Y-87960467D01*
X129328343Y-87968515D01*
X129295581Y-87973375D01*
X129262500Y-87975000D01*
X128487500Y-87975000D01*
X128454419Y-87973375D01*
X128421657Y-87968515D01*
X128389529Y-87960467D01*
X128358344Y-87949309D01*
X128328404Y-87935148D01*
X128299995Y-87918121D01*
X128273392Y-87898391D01*
X128248851Y-87876149D01*
X128226609Y-87851608D01*
X128206879Y-87825005D01*
X128189852Y-87796596D01*
X128175691Y-87766656D01*
X128164533Y-87735471D01*
X128156485Y-87703343D01*
X128151625Y-87670581D01*
X128150000Y-87637500D01*
X128150000Y-86962500D01*
X128151625Y-86929419D01*
X128156485Y-86896657D01*
X128164533Y-86864529D01*
X128175691Y-86833344D01*
X128189852Y-86803404D01*
X128206879Y-86774995D01*
X128226609Y-86748392D01*
X128248851Y-86723851D01*
X128273392Y-86701609D01*
X128299995Y-86681879D01*
X128328404Y-86664852D01*
X128358344Y-86650691D01*
X128389529Y-86639533D01*
X128421657Y-86631485D01*
X128454419Y-86626625D01*
X128487500Y-86625000D01*
X129262500Y-86625000D01*
X129295581Y-86626625D01*
X129295581Y-86626625D01*
G37*
D17*
X128875000Y-87300000D03*
G04 #@! TD*
D16*
G04 #@! TO.C,R3*
G36*
X133695581Y-86626625D02*
X133728343Y-86631485D01*
X133760471Y-86639533D01*
X133791656Y-86650691D01*
X133821596Y-86664852D01*
X133850005Y-86681879D01*
X133876608Y-86701609D01*
X133901149Y-86723851D01*
X133923391Y-86748392D01*
X133943121Y-86774995D01*
X133960148Y-86803404D01*
X133974309Y-86833344D01*
X133985467Y-86864529D01*
X133993515Y-86896657D01*
X133998375Y-86929419D01*
X134000000Y-86962500D01*
X134000000Y-87637500D01*
X133998375Y-87670581D01*
X133993515Y-87703343D01*
X133985467Y-87735471D01*
X133974309Y-87766656D01*
X133960148Y-87796596D01*
X133943121Y-87825005D01*
X133923391Y-87851608D01*
X133901149Y-87876149D01*
X133876608Y-87898391D01*
X133850005Y-87918121D01*
X133821596Y-87935148D01*
X133791656Y-87949309D01*
X133760471Y-87960467D01*
X133728343Y-87968515D01*
X133695581Y-87973375D01*
X133662500Y-87975000D01*
X132887500Y-87975000D01*
X132854419Y-87973375D01*
X132821657Y-87968515D01*
X132789529Y-87960467D01*
X132758344Y-87949309D01*
X132728404Y-87935148D01*
X132699995Y-87918121D01*
X132673392Y-87898391D01*
X132648851Y-87876149D01*
X132626609Y-87851608D01*
X132606879Y-87825005D01*
X132589852Y-87796596D01*
X132575691Y-87766656D01*
X132564533Y-87735471D01*
X132556485Y-87703343D01*
X132551625Y-87670581D01*
X132550000Y-87637500D01*
X132550000Y-86962500D01*
X132551625Y-86929419D01*
X132556485Y-86896657D01*
X132564533Y-86864529D01*
X132575691Y-86833344D01*
X132589852Y-86803404D01*
X132606879Y-86774995D01*
X132626609Y-86748392D01*
X132648851Y-86723851D01*
X132673392Y-86701609D01*
X132699995Y-86681879D01*
X132728404Y-86664852D01*
X132758344Y-86650691D01*
X132789529Y-86639533D01*
X132821657Y-86631485D01*
X132854419Y-86626625D01*
X132887500Y-86625000D01*
X133662500Y-86625000D01*
X133695581Y-86626625D01*
X133695581Y-86626625D01*
G37*
D17*
X133275000Y-87300000D03*
D16*
G36*
X131945581Y-86626625D02*
X131978343Y-86631485D01*
X132010471Y-86639533D01*
X132041656Y-86650691D01*
X132071596Y-86664852D01*
X132100005Y-86681879D01*
X132126608Y-86701609D01*
X132151149Y-86723851D01*
X132173391Y-86748392D01*
X132193121Y-86774995D01*
X132210148Y-86803404D01*
X132224309Y-86833344D01*
X132235467Y-86864529D01*
X132243515Y-86896657D01*
X132248375Y-86929419D01*
X132250000Y-86962500D01*
X132250000Y-87637500D01*
X132248375Y-87670581D01*
X132243515Y-87703343D01*
X132235467Y-87735471D01*
X132224309Y-87766656D01*
X132210148Y-87796596D01*
X132193121Y-87825005D01*
X132173391Y-87851608D01*
X132151149Y-87876149D01*
X132126608Y-87898391D01*
X132100005Y-87918121D01*
X132071596Y-87935148D01*
X132041656Y-87949309D01*
X132010471Y-87960467D01*
X131978343Y-87968515D01*
X131945581Y-87973375D01*
X131912500Y-87975000D01*
X131137500Y-87975000D01*
X131104419Y-87973375D01*
X131071657Y-87968515D01*
X131039529Y-87960467D01*
X131008344Y-87949309D01*
X130978404Y-87935148D01*
X130949995Y-87918121D01*
X130923392Y-87898391D01*
X130898851Y-87876149D01*
X130876609Y-87851608D01*
X130856879Y-87825005D01*
X130839852Y-87796596D01*
X130825691Y-87766656D01*
X130814533Y-87735471D01*
X130806485Y-87703343D01*
X130801625Y-87670581D01*
X130800000Y-87637500D01*
X130800000Y-86962500D01*
X130801625Y-86929419D01*
X130806485Y-86896657D01*
X130814533Y-86864529D01*
X130825691Y-86833344D01*
X130839852Y-86803404D01*
X130856879Y-86774995D01*
X130876609Y-86748392D01*
X130898851Y-86723851D01*
X130923392Y-86701609D01*
X130949995Y-86681879D01*
X130978404Y-86664852D01*
X131008344Y-86650691D01*
X131039529Y-86639533D01*
X131071657Y-86631485D01*
X131104419Y-86626625D01*
X131137500Y-86625000D01*
X131912500Y-86625000D01*
X131945581Y-86626625D01*
X131945581Y-86626625D01*
G37*
D17*
X131525000Y-87300000D03*
G04 #@! TD*
D16*
G04 #@! TO.C,R4*
G36*
X129295581Y-94726625D02*
X129328343Y-94731485D01*
X129360471Y-94739533D01*
X129391656Y-94750691D01*
X129421596Y-94764852D01*
X129450005Y-94781879D01*
X129476608Y-94801609D01*
X129501149Y-94823851D01*
X129523391Y-94848392D01*
X129543121Y-94874995D01*
X129560148Y-94903404D01*
X129574309Y-94933344D01*
X129585467Y-94964529D01*
X129593515Y-94996657D01*
X129598375Y-95029419D01*
X129600000Y-95062500D01*
X129600000Y-95737500D01*
X129598375Y-95770581D01*
X129593515Y-95803343D01*
X129585467Y-95835471D01*
X129574309Y-95866656D01*
X129560148Y-95896596D01*
X129543121Y-95925005D01*
X129523391Y-95951608D01*
X129501149Y-95976149D01*
X129476608Y-95998391D01*
X129450005Y-96018121D01*
X129421596Y-96035148D01*
X129391656Y-96049309D01*
X129360471Y-96060467D01*
X129328343Y-96068515D01*
X129295581Y-96073375D01*
X129262500Y-96075000D01*
X128487500Y-96075000D01*
X128454419Y-96073375D01*
X128421657Y-96068515D01*
X128389529Y-96060467D01*
X128358344Y-96049309D01*
X128328404Y-96035148D01*
X128299995Y-96018121D01*
X128273392Y-95998391D01*
X128248851Y-95976149D01*
X128226609Y-95951608D01*
X128206879Y-95925005D01*
X128189852Y-95896596D01*
X128175691Y-95866656D01*
X128164533Y-95835471D01*
X128156485Y-95803343D01*
X128151625Y-95770581D01*
X128150000Y-95737500D01*
X128150000Y-95062500D01*
X128151625Y-95029419D01*
X128156485Y-94996657D01*
X128164533Y-94964529D01*
X128175691Y-94933344D01*
X128189852Y-94903404D01*
X128206879Y-94874995D01*
X128226609Y-94848392D01*
X128248851Y-94823851D01*
X128273392Y-94801609D01*
X128299995Y-94781879D01*
X128328404Y-94764852D01*
X128358344Y-94750691D01*
X128389529Y-94739533D01*
X128421657Y-94731485D01*
X128454419Y-94726625D01*
X128487500Y-94725000D01*
X129262500Y-94725000D01*
X129295581Y-94726625D01*
X129295581Y-94726625D01*
G37*
D17*
X128875000Y-95400000D03*
D16*
G36*
X127545581Y-94726625D02*
X127578343Y-94731485D01*
X127610471Y-94739533D01*
X127641656Y-94750691D01*
X127671596Y-94764852D01*
X127700005Y-94781879D01*
X127726608Y-94801609D01*
X127751149Y-94823851D01*
X127773391Y-94848392D01*
X127793121Y-94874995D01*
X127810148Y-94903404D01*
X127824309Y-94933344D01*
X127835467Y-94964529D01*
X127843515Y-94996657D01*
X127848375Y-95029419D01*
X127850000Y-95062500D01*
X127850000Y-95737500D01*
X127848375Y-95770581D01*
X127843515Y-95803343D01*
X127835467Y-95835471D01*
X127824309Y-95866656D01*
X127810148Y-95896596D01*
X127793121Y-95925005D01*
X127773391Y-95951608D01*
X127751149Y-95976149D01*
X127726608Y-95998391D01*
X127700005Y-96018121D01*
X127671596Y-96035148D01*
X127641656Y-96049309D01*
X127610471Y-96060467D01*
X127578343Y-96068515D01*
X127545581Y-96073375D01*
X127512500Y-96075000D01*
X126737500Y-96075000D01*
X126704419Y-96073375D01*
X126671657Y-96068515D01*
X126639529Y-96060467D01*
X126608344Y-96049309D01*
X126578404Y-96035148D01*
X126549995Y-96018121D01*
X126523392Y-95998391D01*
X126498851Y-95976149D01*
X126476609Y-95951608D01*
X126456879Y-95925005D01*
X126439852Y-95896596D01*
X126425691Y-95866656D01*
X126414533Y-95835471D01*
X126406485Y-95803343D01*
X126401625Y-95770581D01*
X126400000Y-95737500D01*
X126400000Y-95062500D01*
X126401625Y-95029419D01*
X126406485Y-94996657D01*
X126414533Y-94964529D01*
X126425691Y-94933344D01*
X126439852Y-94903404D01*
X126456879Y-94874995D01*
X126476609Y-94848392D01*
X126498851Y-94823851D01*
X126523392Y-94801609D01*
X126549995Y-94781879D01*
X126578404Y-94764852D01*
X126608344Y-94750691D01*
X126639529Y-94739533D01*
X126671657Y-94731485D01*
X126704419Y-94726625D01*
X126737500Y-94725000D01*
X127512500Y-94725000D01*
X127545581Y-94726625D01*
X127545581Y-94726625D01*
G37*
D17*
X127125000Y-95400000D03*
G04 #@! TD*
D16*
G04 #@! TO.C,R5*
G36*
X119545581Y-132026625D02*
X119578343Y-132031485D01*
X119610471Y-132039533D01*
X119641656Y-132050691D01*
X119671596Y-132064852D01*
X119700005Y-132081879D01*
X119726608Y-132101609D01*
X119751149Y-132123851D01*
X119773391Y-132148392D01*
X119793121Y-132174995D01*
X119810148Y-132203404D01*
X119824309Y-132233344D01*
X119835467Y-132264529D01*
X119843515Y-132296657D01*
X119848375Y-132329419D01*
X119850000Y-132362500D01*
X119850000Y-133037500D01*
X119848375Y-133070581D01*
X119843515Y-133103343D01*
X119835467Y-133135471D01*
X119824309Y-133166656D01*
X119810148Y-133196596D01*
X119793121Y-133225005D01*
X119773391Y-133251608D01*
X119751149Y-133276149D01*
X119726608Y-133298391D01*
X119700005Y-133318121D01*
X119671596Y-133335148D01*
X119641656Y-133349309D01*
X119610471Y-133360467D01*
X119578343Y-133368515D01*
X119545581Y-133373375D01*
X119512500Y-133375000D01*
X118737500Y-133375000D01*
X118704419Y-133373375D01*
X118671657Y-133368515D01*
X118639529Y-133360467D01*
X118608344Y-133349309D01*
X118578404Y-133335148D01*
X118549995Y-133318121D01*
X118523392Y-133298391D01*
X118498851Y-133276149D01*
X118476609Y-133251608D01*
X118456879Y-133225005D01*
X118439852Y-133196596D01*
X118425691Y-133166656D01*
X118414533Y-133135471D01*
X118406485Y-133103343D01*
X118401625Y-133070581D01*
X118400000Y-133037500D01*
X118400000Y-132362500D01*
X118401625Y-132329419D01*
X118406485Y-132296657D01*
X118414533Y-132264529D01*
X118425691Y-132233344D01*
X118439852Y-132203404D01*
X118456879Y-132174995D01*
X118476609Y-132148392D01*
X118498851Y-132123851D01*
X118523392Y-132101609D01*
X118549995Y-132081879D01*
X118578404Y-132064852D01*
X118608344Y-132050691D01*
X118639529Y-132039533D01*
X118671657Y-132031485D01*
X118704419Y-132026625D01*
X118737500Y-132025000D01*
X119512500Y-132025000D01*
X119545581Y-132026625D01*
X119545581Y-132026625D01*
G37*
D17*
X119125000Y-132700000D03*
D16*
G36*
X121295581Y-132026625D02*
X121328343Y-132031485D01*
X121360471Y-132039533D01*
X121391656Y-132050691D01*
X121421596Y-132064852D01*
X121450005Y-132081879D01*
X121476608Y-132101609D01*
X121501149Y-132123851D01*
X121523391Y-132148392D01*
X121543121Y-132174995D01*
X121560148Y-132203404D01*
X121574309Y-132233344D01*
X121585467Y-132264529D01*
X121593515Y-132296657D01*
X121598375Y-132329419D01*
X121600000Y-132362500D01*
X121600000Y-133037500D01*
X121598375Y-133070581D01*
X121593515Y-133103343D01*
X121585467Y-133135471D01*
X121574309Y-133166656D01*
X121560148Y-133196596D01*
X121543121Y-133225005D01*
X121523391Y-133251608D01*
X121501149Y-133276149D01*
X121476608Y-133298391D01*
X121450005Y-133318121D01*
X121421596Y-133335148D01*
X121391656Y-133349309D01*
X121360471Y-133360467D01*
X121328343Y-133368515D01*
X121295581Y-133373375D01*
X121262500Y-133375000D01*
X120487500Y-133375000D01*
X120454419Y-133373375D01*
X120421657Y-133368515D01*
X120389529Y-133360467D01*
X120358344Y-133349309D01*
X120328404Y-133335148D01*
X120299995Y-133318121D01*
X120273392Y-133298391D01*
X120248851Y-133276149D01*
X120226609Y-133251608D01*
X120206879Y-133225005D01*
X120189852Y-133196596D01*
X120175691Y-133166656D01*
X120164533Y-133135471D01*
X120156485Y-133103343D01*
X120151625Y-133070581D01*
X120150000Y-133037500D01*
X120150000Y-132362500D01*
X120151625Y-132329419D01*
X120156485Y-132296657D01*
X120164533Y-132264529D01*
X120175691Y-132233344D01*
X120189852Y-132203404D01*
X120206879Y-132174995D01*
X120226609Y-132148392D01*
X120248851Y-132123851D01*
X120273392Y-132101609D01*
X120299995Y-132081879D01*
X120328404Y-132064852D01*
X120358344Y-132050691D01*
X120389529Y-132039533D01*
X120421657Y-132031485D01*
X120454419Y-132026625D01*
X120487500Y-132025000D01*
X121262500Y-132025000D01*
X121295581Y-132026625D01*
X121295581Y-132026625D01*
G37*
D17*
X120875000Y-132700000D03*
G04 #@! TD*
D16*
G04 #@! TO.C,R6*
G36*
X109845581Y-91726625D02*
X109878343Y-91731485D01*
X109910471Y-91739533D01*
X109941656Y-91750691D01*
X109971596Y-91764852D01*
X110000005Y-91781879D01*
X110026608Y-91801609D01*
X110051149Y-91823851D01*
X110073391Y-91848392D01*
X110093121Y-91874995D01*
X110110148Y-91903404D01*
X110124309Y-91933344D01*
X110135467Y-91964529D01*
X110143515Y-91996657D01*
X110148375Y-92029419D01*
X110150000Y-92062500D01*
X110150000Y-92737500D01*
X110148375Y-92770581D01*
X110143515Y-92803343D01*
X110135467Y-92835471D01*
X110124309Y-92866656D01*
X110110148Y-92896596D01*
X110093121Y-92925005D01*
X110073391Y-92951608D01*
X110051149Y-92976149D01*
X110026608Y-92998391D01*
X110000005Y-93018121D01*
X109971596Y-93035148D01*
X109941656Y-93049309D01*
X109910471Y-93060467D01*
X109878343Y-93068515D01*
X109845581Y-93073375D01*
X109812500Y-93075000D01*
X109037500Y-93075000D01*
X109004419Y-93073375D01*
X108971657Y-93068515D01*
X108939529Y-93060467D01*
X108908344Y-93049309D01*
X108878404Y-93035148D01*
X108849995Y-93018121D01*
X108823392Y-92998391D01*
X108798851Y-92976149D01*
X108776609Y-92951608D01*
X108756879Y-92925005D01*
X108739852Y-92896596D01*
X108725691Y-92866656D01*
X108714533Y-92835471D01*
X108706485Y-92803343D01*
X108701625Y-92770581D01*
X108700000Y-92737500D01*
X108700000Y-92062500D01*
X108701625Y-92029419D01*
X108706485Y-91996657D01*
X108714533Y-91964529D01*
X108725691Y-91933344D01*
X108739852Y-91903404D01*
X108756879Y-91874995D01*
X108776609Y-91848392D01*
X108798851Y-91823851D01*
X108823392Y-91801609D01*
X108849995Y-91781879D01*
X108878404Y-91764852D01*
X108908344Y-91750691D01*
X108939529Y-91739533D01*
X108971657Y-91731485D01*
X109004419Y-91726625D01*
X109037500Y-91725000D01*
X109812500Y-91725000D01*
X109845581Y-91726625D01*
X109845581Y-91726625D01*
G37*
D17*
X109425000Y-92400000D03*
D16*
G36*
X111595581Y-91726625D02*
X111628343Y-91731485D01*
X111660471Y-91739533D01*
X111691656Y-91750691D01*
X111721596Y-91764852D01*
X111750005Y-91781879D01*
X111776608Y-91801609D01*
X111801149Y-91823851D01*
X111823391Y-91848392D01*
X111843121Y-91874995D01*
X111860148Y-91903404D01*
X111874309Y-91933344D01*
X111885467Y-91964529D01*
X111893515Y-91996657D01*
X111898375Y-92029419D01*
X111900000Y-92062500D01*
X111900000Y-92737500D01*
X111898375Y-92770581D01*
X111893515Y-92803343D01*
X111885467Y-92835471D01*
X111874309Y-92866656D01*
X111860148Y-92896596D01*
X111843121Y-92925005D01*
X111823391Y-92951608D01*
X111801149Y-92976149D01*
X111776608Y-92998391D01*
X111750005Y-93018121D01*
X111721596Y-93035148D01*
X111691656Y-93049309D01*
X111660471Y-93060467D01*
X111628343Y-93068515D01*
X111595581Y-93073375D01*
X111562500Y-93075000D01*
X110787500Y-93075000D01*
X110754419Y-93073375D01*
X110721657Y-93068515D01*
X110689529Y-93060467D01*
X110658344Y-93049309D01*
X110628404Y-93035148D01*
X110599995Y-93018121D01*
X110573392Y-92998391D01*
X110548851Y-92976149D01*
X110526609Y-92951608D01*
X110506879Y-92925005D01*
X110489852Y-92896596D01*
X110475691Y-92866656D01*
X110464533Y-92835471D01*
X110456485Y-92803343D01*
X110451625Y-92770581D01*
X110450000Y-92737500D01*
X110450000Y-92062500D01*
X110451625Y-92029419D01*
X110456485Y-91996657D01*
X110464533Y-91964529D01*
X110475691Y-91933344D01*
X110489852Y-91903404D01*
X110506879Y-91874995D01*
X110526609Y-91848392D01*
X110548851Y-91823851D01*
X110573392Y-91801609D01*
X110599995Y-91781879D01*
X110628404Y-91764852D01*
X110658344Y-91750691D01*
X110689529Y-91739533D01*
X110721657Y-91731485D01*
X110754419Y-91726625D01*
X110787500Y-91725000D01*
X111562500Y-91725000D01*
X111595581Y-91726625D01*
X111595581Y-91726625D01*
G37*
D17*
X111175000Y-92400000D03*
G04 #@! TD*
D16*
G04 #@! TO.C,R7*
G36*
X109845581Y-98426625D02*
X109878343Y-98431485D01*
X109910471Y-98439533D01*
X109941656Y-98450691D01*
X109971596Y-98464852D01*
X110000005Y-98481879D01*
X110026608Y-98501609D01*
X110051149Y-98523851D01*
X110073391Y-98548392D01*
X110093121Y-98574995D01*
X110110148Y-98603404D01*
X110124309Y-98633344D01*
X110135467Y-98664529D01*
X110143515Y-98696657D01*
X110148375Y-98729419D01*
X110150000Y-98762500D01*
X110150000Y-99437500D01*
X110148375Y-99470581D01*
X110143515Y-99503343D01*
X110135467Y-99535471D01*
X110124309Y-99566656D01*
X110110148Y-99596596D01*
X110093121Y-99625005D01*
X110073391Y-99651608D01*
X110051149Y-99676149D01*
X110026608Y-99698391D01*
X110000005Y-99718121D01*
X109971596Y-99735148D01*
X109941656Y-99749309D01*
X109910471Y-99760467D01*
X109878343Y-99768515D01*
X109845581Y-99773375D01*
X109812500Y-99775000D01*
X109037500Y-99775000D01*
X109004419Y-99773375D01*
X108971657Y-99768515D01*
X108939529Y-99760467D01*
X108908344Y-99749309D01*
X108878404Y-99735148D01*
X108849995Y-99718121D01*
X108823392Y-99698391D01*
X108798851Y-99676149D01*
X108776609Y-99651608D01*
X108756879Y-99625005D01*
X108739852Y-99596596D01*
X108725691Y-99566656D01*
X108714533Y-99535471D01*
X108706485Y-99503343D01*
X108701625Y-99470581D01*
X108700000Y-99437500D01*
X108700000Y-98762500D01*
X108701625Y-98729419D01*
X108706485Y-98696657D01*
X108714533Y-98664529D01*
X108725691Y-98633344D01*
X108739852Y-98603404D01*
X108756879Y-98574995D01*
X108776609Y-98548392D01*
X108798851Y-98523851D01*
X108823392Y-98501609D01*
X108849995Y-98481879D01*
X108878404Y-98464852D01*
X108908344Y-98450691D01*
X108939529Y-98439533D01*
X108971657Y-98431485D01*
X109004419Y-98426625D01*
X109037500Y-98425000D01*
X109812500Y-98425000D01*
X109845581Y-98426625D01*
X109845581Y-98426625D01*
G37*
D17*
X109425000Y-99100000D03*
D16*
G36*
X111595581Y-98426625D02*
X111628343Y-98431485D01*
X111660471Y-98439533D01*
X111691656Y-98450691D01*
X111721596Y-98464852D01*
X111750005Y-98481879D01*
X111776608Y-98501609D01*
X111801149Y-98523851D01*
X111823391Y-98548392D01*
X111843121Y-98574995D01*
X111860148Y-98603404D01*
X111874309Y-98633344D01*
X111885467Y-98664529D01*
X111893515Y-98696657D01*
X111898375Y-98729419D01*
X111900000Y-98762500D01*
X111900000Y-99437500D01*
X111898375Y-99470581D01*
X111893515Y-99503343D01*
X111885467Y-99535471D01*
X111874309Y-99566656D01*
X111860148Y-99596596D01*
X111843121Y-99625005D01*
X111823391Y-99651608D01*
X111801149Y-99676149D01*
X111776608Y-99698391D01*
X111750005Y-99718121D01*
X111721596Y-99735148D01*
X111691656Y-99749309D01*
X111660471Y-99760467D01*
X111628343Y-99768515D01*
X111595581Y-99773375D01*
X111562500Y-99775000D01*
X110787500Y-99775000D01*
X110754419Y-99773375D01*
X110721657Y-99768515D01*
X110689529Y-99760467D01*
X110658344Y-99749309D01*
X110628404Y-99735148D01*
X110599995Y-99718121D01*
X110573392Y-99698391D01*
X110548851Y-99676149D01*
X110526609Y-99651608D01*
X110506879Y-99625005D01*
X110489852Y-99596596D01*
X110475691Y-99566656D01*
X110464533Y-99535471D01*
X110456485Y-99503343D01*
X110451625Y-99470581D01*
X110450000Y-99437500D01*
X110450000Y-98762500D01*
X110451625Y-98729419D01*
X110456485Y-98696657D01*
X110464533Y-98664529D01*
X110475691Y-98633344D01*
X110489852Y-98603404D01*
X110506879Y-98574995D01*
X110526609Y-98548392D01*
X110548851Y-98523851D01*
X110573392Y-98501609D01*
X110599995Y-98481879D01*
X110628404Y-98464852D01*
X110658344Y-98450691D01*
X110689529Y-98439533D01*
X110721657Y-98431485D01*
X110754419Y-98426625D01*
X110787500Y-98425000D01*
X111562500Y-98425000D01*
X111595581Y-98426625D01*
X111595581Y-98426625D01*
G37*
D17*
X111175000Y-99100000D03*
G04 #@! TD*
D16*
G04 #@! TO.C,R8*
G36*
X105645581Y-115926625D02*
X105678343Y-115931485D01*
X105710471Y-115939533D01*
X105741656Y-115950691D01*
X105771596Y-115964852D01*
X105800005Y-115981879D01*
X105826608Y-116001609D01*
X105851149Y-116023851D01*
X105873391Y-116048392D01*
X105893121Y-116074995D01*
X105910148Y-116103404D01*
X105924309Y-116133344D01*
X105935467Y-116164529D01*
X105943515Y-116196657D01*
X105948375Y-116229419D01*
X105950000Y-116262500D01*
X105950000Y-116937500D01*
X105948375Y-116970581D01*
X105943515Y-117003343D01*
X105935467Y-117035471D01*
X105924309Y-117066656D01*
X105910148Y-117096596D01*
X105893121Y-117125005D01*
X105873391Y-117151608D01*
X105851149Y-117176149D01*
X105826608Y-117198391D01*
X105800005Y-117218121D01*
X105771596Y-117235148D01*
X105741656Y-117249309D01*
X105710471Y-117260467D01*
X105678343Y-117268515D01*
X105645581Y-117273375D01*
X105612500Y-117275000D01*
X104837500Y-117275000D01*
X104804419Y-117273375D01*
X104771657Y-117268515D01*
X104739529Y-117260467D01*
X104708344Y-117249309D01*
X104678404Y-117235148D01*
X104649995Y-117218121D01*
X104623392Y-117198391D01*
X104598851Y-117176149D01*
X104576609Y-117151608D01*
X104556879Y-117125005D01*
X104539852Y-117096596D01*
X104525691Y-117066656D01*
X104514533Y-117035471D01*
X104506485Y-117003343D01*
X104501625Y-116970581D01*
X104500000Y-116937500D01*
X104500000Y-116262500D01*
X104501625Y-116229419D01*
X104506485Y-116196657D01*
X104514533Y-116164529D01*
X104525691Y-116133344D01*
X104539852Y-116103404D01*
X104556879Y-116074995D01*
X104576609Y-116048392D01*
X104598851Y-116023851D01*
X104623392Y-116001609D01*
X104649995Y-115981879D01*
X104678404Y-115964852D01*
X104708344Y-115950691D01*
X104739529Y-115939533D01*
X104771657Y-115931485D01*
X104804419Y-115926625D01*
X104837500Y-115925000D01*
X105612500Y-115925000D01*
X105645581Y-115926625D01*
X105645581Y-115926625D01*
G37*
D17*
X105225000Y-116600000D03*
D16*
G36*
X107395581Y-115926625D02*
X107428343Y-115931485D01*
X107460471Y-115939533D01*
X107491656Y-115950691D01*
X107521596Y-115964852D01*
X107550005Y-115981879D01*
X107576608Y-116001609D01*
X107601149Y-116023851D01*
X107623391Y-116048392D01*
X107643121Y-116074995D01*
X107660148Y-116103404D01*
X107674309Y-116133344D01*
X107685467Y-116164529D01*
X107693515Y-116196657D01*
X107698375Y-116229419D01*
X107700000Y-116262500D01*
X107700000Y-116937500D01*
X107698375Y-116970581D01*
X107693515Y-117003343D01*
X107685467Y-117035471D01*
X107674309Y-117066656D01*
X107660148Y-117096596D01*
X107643121Y-117125005D01*
X107623391Y-117151608D01*
X107601149Y-117176149D01*
X107576608Y-117198391D01*
X107550005Y-117218121D01*
X107521596Y-117235148D01*
X107491656Y-117249309D01*
X107460471Y-117260467D01*
X107428343Y-117268515D01*
X107395581Y-117273375D01*
X107362500Y-117275000D01*
X106587500Y-117275000D01*
X106554419Y-117273375D01*
X106521657Y-117268515D01*
X106489529Y-117260467D01*
X106458344Y-117249309D01*
X106428404Y-117235148D01*
X106399995Y-117218121D01*
X106373392Y-117198391D01*
X106348851Y-117176149D01*
X106326609Y-117151608D01*
X106306879Y-117125005D01*
X106289852Y-117096596D01*
X106275691Y-117066656D01*
X106264533Y-117035471D01*
X106256485Y-117003343D01*
X106251625Y-116970581D01*
X106250000Y-116937500D01*
X106250000Y-116262500D01*
X106251625Y-116229419D01*
X106256485Y-116196657D01*
X106264533Y-116164529D01*
X106275691Y-116133344D01*
X106289852Y-116103404D01*
X106306879Y-116074995D01*
X106326609Y-116048392D01*
X106348851Y-116023851D01*
X106373392Y-116001609D01*
X106399995Y-115981879D01*
X106428404Y-115964852D01*
X106458344Y-115950691D01*
X106489529Y-115939533D01*
X106521657Y-115931485D01*
X106554419Y-115926625D01*
X106587500Y-115925000D01*
X107362500Y-115925000D01*
X107395581Y-115926625D01*
X107395581Y-115926625D01*
G37*
D17*
X106975000Y-116600000D03*
G04 #@! TD*
D16*
G04 #@! TO.C,L1*
G36*
X129870581Y-98501625D02*
X129903343Y-98506485D01*
X129935471Y-98514533D01*
X129966656Y-98525691D01*
X129996596Y-98539852D01*
X130025005Y-98556879D01*
X130051608Y-98576609D01*
X130076149Y-98598851D01*
X130098391Y-98623392D01*
X130118121Y-98649995D01*
X130135148Y-98678404D01*
X130149309Y-98708344D01*
X130160467Y-98739529D01*
X130168515Y-98771657D01*
X130173375Y-98804419D01*
X130175000Y-98837500D01*
X130175000Y-99612500D01*
X130173375Y-99645581D01*
X130168515Y-99678343D01*
X130160467Y-99710471D01*
X130149309Y-99741656D01*
X130135148Y-99771596D01*
X130118121Y-99800005D01*
X130098391Y-99826608D01*
X130076149Y-99851149D01*
X130051608Y-99873391D01*
X130025005Y-99893121D01*
X129996596Y-99910148D01*
X129966656Y-99924309D01*
X129935471Y-99935467D01*
X129903343Y-99943515D01*
X129870581Y-99948375D01*
X129837500Y-99950000D01*
X129162500Y-99950000D01*
X129129419Y-99948375D01*
X129096657Y-99943515D01*
X129064529Y-99935467D01*
X129033344Y-99924309D01*
X129003404Y-99910148D01*
X128974995Y-99893121D01*
X128948392Y-99873391D01*
X128923851Y-99851149D01*
X128901609Y-99826608D01*
X128881879Y-99800005D01*
X128864852Y-99771596D01*
X128850691Y-99741656D01*
X128839533Y-99710471D01*
X128831485Y-99678343D01*
X128826625Y-99645581D01*
X128825000Y-99612500D01*
X128825000Y-98837500D01*
X128826625Y-98804419D01*
X128831485Y-98771657D01*
X128839533Y-98739529D01*
X128850691Y-98708344D01*
X128864852Y-98678404D01*
X128881879Y-98649995D01*
X128901609Y-98623392D01*
X128923851Y-98598851D01*
X128948392Y-98576609D01*
X128974995Y-98556879D01*
X129003404Y-98539852D01*
X129033344Y-98525691D01*
X129064529Y-98514533D01*
X129096657Y-98506485D01*
X129129419Y-98501625D01*
X129162500Y-98500000D01*
X129837500Y-98500000D01*
X129870581Y-98501625D01*
X129870581Y-98501625D01*
G37*
D17*
X129500000Y-99225000D03*
D16*
G36*
X129870581Y-100251625D02*
X129903343Y-100256485D01*
X129935471Y-100264533D01*
X129966656Y-100275691D01*
X129996596Y-100289852D01*
X130025005Y-100306879D01*
X130051608Y-100326609D01*
X130076149Y-100348851D01*
X130098391Y-100373392D01*
X130118121Y-100399995D01*
X130135148Y-100428404D01*
X130149309Y-100458344D01*
X130160467Y-100489529D01*
X130168515Y-100521657D01*
X130173375Y-100554419D01*
X130175000Y-100587500D01*
X130175000Y-101362500D01*
X130173375Y-101395581D01*
X130168515Y-101428343D01*
X130160467Y-101460471D01*
X130149309Y-101491656D01*
X130135148Y-101521596D01*
X130118121Y-101550005D01*
X130098391Y-101576608D01*
X130076149Y-101601149D01*
X130051608Y-101623391D01*
X130025005Y-101643121D01*
X129996596Y-101660148D01*
X129966656Y-101674309D01*
X129935471Y-101685467D01*
X129903343Y-101693515D01*
X129870581Y-101698375D01*
X129837500Y-101700000D01*
X129162500Y-101700000D01*
X129129419Y-101698375D01*
X129096657Y-101693515D01*
X129064529Y-101685467D01*
X129033344Y-101674309D01*
X129003404Y-101660148D01*
X128974995Y-101643121D01*
X128948392Y-101623391D01*
X128923851Y-101601149D01*
X128901609Y-101576608D01*
X128881879Y-101550005D01*
X128864852Y-101521596D01*
X128850691Y-101491656D01*
X128839533Y-101460471D01*
X128831485Y-101428343D01*
X128826625Y-101395581D01*
X128825000Y-101362500D01*
X128825000Y-100587500D01*
X128826625Y-100554419D01*
X128831485Y-100521657D01*
X128839533Y-100489529D01*
X128850691Y-100458344D01*
X128864852Y-100428404D01*
X128881879Y-100399995D01*
X128901609Y-100373392D01*
X128923851Y-100348851D01*
X128948392Y-100326609D01*
X128974995Y-100306879D01*
X129003404Y-100289852D01*
X129033344Y-100275691D01*
X129064529Y-100264533D01*
X129096657Y-100256485D01*
X129129419Y-100251625D01*
X129162500Y-100250000D01*
X129837500Y-100250000D01*
X129870581Y-100251625D01*
X129870581Y-100251625D01*
G37*
D17*
X129500000Y-100975000D03*
G04 #@! TD*
D16*
G04 #@! TO.C,L2*
G36*
X127570581Y-98501625D02*
X127603343Y-98506485D01*
X127635471Y-98514533D01*
X127666656Y-98525691D01*
X127696596Y-98539852D01*
X127725005Y-98556879D01*
X127751608Y-98576609D01*
X127776149Y-98598851D01*
X127798391Y-98623392D01*
X127818121Y-98649995D01*
X127835148Y-98678404D01*
X127849309Y-98708344D01*
X127860467Y-98739529D01*
X127868515Y-98771657D01*
X127873375Y-98804419D01*
X127875000Y-98837500D01*
X127875000Y-99612500D01*
X127873375Y-99645581D01*
X127868515Y-99678343D01*
X127860467Y-99710471D01*
X127849309Y-99741656D01*
X127835148Y-99771596D01*
X127818121Y-99800005D01*
X127798391Y-99826608D01*
X127776149Y-99851149D01*
X127751608Y-99873391D01*
X127725005Y-99893121D01*
X127696596Y-99910148D01*
X127666656Y-99924309D01*
X127635471Y-99935467D01*
X127603343Y-99943515D01*
X127570581Y-99948375D01*
X127537500Y-99950000D01*
X126862500Y-99950000D01*
X126829419Y-99948375D01*
X126796657Y-99943515D01*
X126764529Y-99935467D01*
X126733344Y-99924309D01*
X126703404Y-99910148D01*
X126674995Y-99893121D01*
X126648392Y-99873391D01*
X126623851Y-99851149D01*
X126601609Y-99826608D01*
X126581879Y-99800005D01*
X126564852Y-99771596D01*
X126550691Y-99741656D01*
X126539533Y-99710471D01*
X126531485Y-99678343D01*
X126526625Y-99645581D01*
X126525000Y-99612500D01*
X126525000Y-98837500D01*
X126526625Y-98804419D01*
X126531485Y-98771657D01*
X126539533Y-98739529D01*
X126550691Y-98708344D01*
X126564852Y-98678404D01*
X126581879Y-98649995D01*
X126601609Y-98623392D01*
X126623851Y-98598851D01*
X126648392Y-98576609D01*
X126674995Y-98556879D01*
X126703404Y-98539852D01*
X126733344Y-98525691D01*
X126764529Y-98514533D01*
X126796657Y-98506485D01*
X126829419Y-98501625D01*
X126862500Y-98500000D01*
X127537500Y-98500000D01*
X127570581Y-98501625D01*
X127570581Y-98501625D01*
G37*
D17*
X127200000Y-99225000D03*
D16*
G36*
X127570581Y-100251625D02*
X127603343Y-100256485D01*
X127635471Y-100264533D01*
X127666656Y-100275691D01*
X127696596Y-100289852D01*
X127725005Y-100306879D01*
X127751608Y-100326609D01*
X127776149Y-100348851D01*
X127798391Y-100373392D01*
X127818121Y-100399995D01*
X127835148Y-100428404D01*
X127849309Y-100458344D01*
X127860467Y-100489529D01*
X127868515Y-100521657D01*
X127873375Y-100554419D01*
X127875000Y-100587500D01*
X127875000Y-101362500D01*
X127873375Y-101395581D01*
X127868515Y-101428343D01*
X127860467Y-101460471D01*
X127849309Y-101491656D01*
X127835148Y-101521596D01*
X127818121Y-101550005D01*
X127798391Y-101576608D01*
X127776149Y-101601149D01*
X127751608Y-101623391D01*
X127725005Y-101643121D01*
X127696596Y-101660148D01*
X127666656Y-101674309D01*
X127635471Y-101685467D01*
X127603343Y-101693515D01*
X127570581Y-101698375D01*
X127537500Y-101700000D01*
X126862500Y-101700000D01*
X126829419Y-101698375D01*
X126796657Y-101693515D01*
X126764529Y-101685467D01*
X126733344Y-101674309D01*
X126703404Y-101660148D01*
X126674995Y-101643121D01*
X126648392Y-101623391D01*
X126623851Y-101601149D01*
X126601609Y-101576608D01*
X126581879Y-101550005D01*
X126564852Y-101521596D01*
X126550691Y-101491656D01*
X126539533Y-101460471D01*
X126531485Y-101428343D01*
X126526625Y-101395581D01*
X126525000Y-101362500D01*
X126525000Y-100587500D01*
X126526625Y-100554419D01*
X126531485Y-100521657D01*
X126539533Y-100489529D01*
X126550691Y-100458344D01*
X126564852Y-100428404D01*
X126581879Y-100399995D01*
X126601609Y-100373392D01*
X126623851Y-100348851D01*
X126648392Y-100326609D01*
X126674995Y-100306879D01*
X126703404Y-100289852D01*
X126733344Y-100275691D01*
X126764529Y-100264533D01*
X126796657Y-100256485D01*
X126829419Y-100251625D01*
X126862500Y-100250000D01*
X127537500Y-100250000D01*
X127570581Y-100251625D01*
X127570581Y-100251625D01*
G37*
D17*
X127200000Y-100975000D03*
G04 #@! TD*
D19*
G04 #@! TO.C,U2*
X117500000Y-93600000D03*
D20*
X120040000Y-93600000D03*
X122580000Y-93600000D03*
G04 #@! TD*
M02*
