M48
;DRILL file {KiCad 5.0.0-fee4fd1~66~ubuntu16.04.1} date Wed Sep 26 19:19:40 2018
;FORMAT={-:-/ absolute / metric / decimal}
FMAT,2
METRIC,TZ
T1C0.400
T2C0.500
T3C0.800
T4C0.900
T5C1.000
%
G90
G05
M71
T1
X102.5Y-146.55
X103.05Y-129.99
X107.Y-114.5
X107.1Y-131.7
X107.7Y-99.1
X112.8Y-92.4
X113.1Y-99.15
X117.13Y-111.37
X120.65Y-110.
X121.55Y-109.55
X121.6Y-84.7
X122.45Y-114.55
X122.45Y-115.55
X122.46Y-104.49
X122.46Y-105.7
X122.54Y-109.34
X122.9Y-97.5
X123.44Y-115.55
X123.5Y-104.49
X126.69Y-107.71
X126.69Y-112.2
X128.Y-110.
X129.225Y-128.
X129.85Y-112.2
X129.91Y-107.71
X130.52Y-118.07
X130.53Y-119.15
X131.7Y-110.
X132.85Y-116.46
X132.96Y-107.71
X133.07Y-119.15
X133.07Y-126.69
X133.08Y-124.18
X134.5Y-102.54
X134.5Y-103.5
X134.637Y-106.687
X134.64Y-107.71
X134.8Y-95.4
X135.52Y-106.69
X135.52Y-107.71
X135.57Y-102.54
X135.57Y-103.501
X135.58Y-117.43
X135.581Y-116.41
T2
X120.5Y-106.
X120.5Y-107.9
T3
X129.Y-77.5
X134.Y-77.5
T4
X118.76Y-136.9
X121.3Y-136.9
X117.5Y-93.6
X120.04Y-93.6
X122.58Y-93.6
T5
X116.7Y-121.4
X116.7Y-125.9
X123.2Y-121.4
X123.2Y-125.9
T0
M30
