G04 #@! TF.GenerationSoftware,KiCad,Pcbnew,5.0.0-fee4fd1~66~ubuntu16.04.1*
G04 #@! TF.CreationDate,2018-09-26T19:19:20+05:30*
G04 #@! TF.ProjectId,senseBeRx_rev1,73656E7365426552785F726576312E6B,rev?*
G04 #@! TF.SameCoordinates,Original*
G04 #@! TF.FileFunction,Legend,Top*
G04 #@! TF.FilePolarity,Positive*
%FSLAX46Y46*%
G04 Gerber Fmt 4.6, Leading zero omitted, Abs format (unit mm)*
G04 Created by KiCad (PCBNEW 5.0.0-fee4fd1~66~ubuntu16.04.1) date Wed Sep 26 19:19:20 2018*
%MOMM*%
%LPD*%
G01*
G04 APERTURE LIST*
%ADD10C,0.300000*%
%ADD11C,0.150000*%
%ADD12C,0.120000*%
%ADD13C,0.010000*%
%ADD14C,0.127000*%
%ADD15C,0.050000*%
%ADD16C,0.250000*%
G04 APERTURE END LIST*
D10*
X129332171Y-147145891D02*
X129689314Y-148145891D01*
X130046457Y-147145891D01*
X131403600Y-148145891D02*
X130546457Y-148145891D01*
X130975028Y-148145891D02*
X130975028Y-146645891D01*
X130832171Y-146860177D01*
X130689314Y-147003034D01*
X130546457Y-147074462D01*
X123978571Y-145707142D02*
X124192857Y-145778571D01*
X124550000Y-145778571D01*
X124692857Y-145707142D01*
X124764285Y-145635714D01*
X124835714Y-145492857D01*
X124835714Y-145350000D01*
X124764285Y-145207142D01*
X124692857Y-145135714D01*
X124550000Y-145064285D01*
X124264285Y-144992857D01*
X124121428Y-144921428D01*
X124050000Y-144850000D01*
X123978571Y-144707142D01*
X123978571Y-144564285D01*
X124050000Y-144421428D01*
X124121428Y-144350000D01*
X124264285Y-144278571D01*
X124621428Y-144278571D01*
X124835714Y-144350000D01*
X126050000Y-145707142D02*
X125907142Y-145778571D01*
X125621428Y-145778571D01*
X125478571Y-145707142D01*
X125407142Y-145564285D01*
X125407142Y-144992857D01*
X125478571Y-144850000D01*
X125621428Y-144778571D01*
X125907142Y-144778571D01*
X126050000Y-144850000D01*
X126121428Y-144992857D01*
X126121428Y-145135714D01*
X125407142Y-145278571D01*
X126764285Y-144778571D02*
X126764285Y-145778571D01*
X126764285Y-144921428D02*
X126835714Y-144850000D01*
X126978571Y-144778571D01*
X127192857Y-144778571D01*
X127335714Y-144850000D01*
X127407142Y-144992857D01*
X127407142Y-145778571D01*
X128050000Y-145707142D02*
X128192857Y-145778571D01*
X128478571Y-145778571D01*
X128621428Y-145707142D01*
X128692857Y-145564285D01*
X128692857Y-145492857D01*
X128621428Y-145350000D01*
X128478571Y-145278571D01*
X128264285Y-145278571D01*
X128121428Y-145207142D01*
X128050000Y-145064285D01*
X128050000Y-144992857D01*
X128121428Y-144850000D01*
X128264285Y-144778571D01*
X128478571Y-144778571D01*
X128621428Y-144850000D01*
X129907142Y-145707142D02*
X129764285Y-145778571D01*
X129478571Y-145778571D01*
X129335714Y-145707142D01*
X129264285Y-145564285D01*
X129264285Y-144992857D01*
X129335714Y-144850000D01*
X129478571Y-144778571D01*
X129764285Y-144778571D01*
X129907142Y-144850000D01*
X129978571Y-144992857D01*
X129978571Y-145135714D01*
X129264285Y-145278571D01*
X131121428Y-144992857D02*
X131335714Y-145064285D01*
X131407142Y-145135714D01*
X131478571Y-145278571D01*
X131478571Y-145492857D01*
X131407142Y-145635714D01*
X131335714Y-145707142D01*
X131192857Y-145778571D01*
X130621428Y-145778571D01*
X130621428Y-144278571D01*
X131121428Y-144278571D01*
X131264285Y-144350000D01*
X131335714Y-144421428D01*
X131407142Y-144564285D01*
X131407142Y-144707142D01*
X131335714Y-144850000D01*
X131264285Y-144921428D01*
X131121428Y-144992857D01*
X130621428Y-144992857D01*
X132692857Y-145707142D02*
X132550000Y-145778571D01*
X132264285Y-145778571D01*
X132121428Y-145707142D01*
X132050000Y-145564285D01*
X132050000Y-144992857D01*
X132121428Y-144850000D01*
X132264285Y-144778571D01*
X132550000Y-144778571D01*
X132692857Y-144850000D01*
X132764285Y-144992857D01*
X132764285Y-145135714D01*
X132050000Y-145278571D01*
X133050000Y-145921428D02*
X134192857Y-145921428D01*
X135407142Y-145778571D02*
X134907142Y-145064285D01*
X134550000Y-145778571D02*
X134550000Y-144278571D01*
X135121428Y-144278571D01*
X135264285Y-144350000D01*
X135335714Y-144421428D01*
X135407142Y-144564285D01*
X135407142Y-144778571D01*
X135335714Y-144921428D01*
X135264285Y-144992857D01*
X135121428Y-145064285D01*
X134550000Y-145064285D01*
X135907142Y-145778571D02*
X136692857Y-144778571D01*
X135907142Y-144778571D02*
X136692857Y-145778571D01*
D11*
G04 #@! TO.C,J2*
X103250000Y-137270000D02*
X104450000Y-137270000D01*
X106850000Y-137270000D02*
X110350000Y-137270000D01*
X104250000Y-143270000D02*
X108550000Y-143270000D01*
X112450000Y-143270000D02*
X112450000Y-138170000D01*
X110950000Y-143270000D02*
X112450000Y-143270000D01*
D12*
G04 #@! TO.C,R9*
X106271267Y-133910000D02*
X105928733Y-133910000D01*
X106271267Y-132890000D02*
X105928733Y-132890000D01*
D11*
G04 #@! TO.C,J1*
X110930000Y-126770000D02*
X112430000Y-126770000D01*
X112430000Y-126770000D02*
X112430000Y-121670000D01*
X104230000Y-126770000D02*
X108530000Y-126770000D01*
X106830000Y-120770000D02*
X110330000Y-120770000D01*
X103230000Y-120770000D02*
X104430000Y-120770000D01*
D12*
G04 #@! TO.C,D1*
X117500000Y-81800000D02*
X117500000Y-81000000D01*
X117499956Y-81000000D02*
X121950000Y-81000000D01*
X118050000Y-84000000D02*
X121950000Y-84000000D01*
G04 #@! TO.C,D2*
X117040000Y-136899538D02*
G75*
G03X122590000Y-138444830I2990000J-462D01*
G01*
X117040000Y-136900462D02*
G75*
G02X122590000Y-135355170I2990000J462D01*
G01*
X122530000Y-136900000D02*
G75*
G03X122530000Y-136900000I-2500000J0D01*
G01*
X122590000Y-138445000D02*
X122590000Y-135355000D01*
G04 #@! TO.C,Q1*
X134760000Y-84080000D02*
X134760000Y-83150000D01*
X134760000Y-80920000D02*
X134760000Y-81850000D01*
X134760000Y-80920000D02*
X131600000Y-80920000D01*
X134760000Y-84080000D02*
X133300000Y-84080000D01*
G04 #@! TO.C,Q2*
X133980000Y-90540000D02*
X133050000Y-90540000D01*
X130820000Y-90540000D02*
X131750000Y-90540000D01*
X130820000Y-90540000D02*
X130820000Y-93700000D01*
X133980000Y-90540000D02*
X133980000Y-92000000D01*
G04 #@! TO.C,Q3*
X129580000Y-90540000D02*
X129580000Y-92000000D01*
X126420000Y-90540000D02*
X126420000Y-93700000D01*
X126420000Y-90540000D02*
X127350000Y-90540000D01*
X129580000Y-90540000D02*
X128650000Y-90540000D01*
G04 #@! TO.C,Q4*
X109540000Y-94120000D02*
X111000000Y-94120000D01*
X109540000Y-97280000D02*
X112700000Y-97280000D01*
X109540000Y-97280000D02*
X109540000Y-96350000D01*
X109540000Y-94120000D02*
X109540000Y-95050000D01*
G04 #@! TO.C,SW1*
X121364214Y-123650000D02*
G75*
G03X121364214Y-123650000I-1414214J0D01*
G01*
X122920000Y-120530000D02*
X116980000Y-120530000D01*
X122920000Y-126770000D02*
X116980000Y-126770000D01*
X123070000Y-122310000D02*
X123070000Y-124990000D01*
X116830000Y-124990000D02*
X116830000Y-122310000D01*
D11*
G04 #@! TO.C,U1*
X136750000Y-115000000D02*
X136750000Y-105000000D01*
X140000000Y-105000000D02*
X140000000Y-115000000D01*
X133319400Y-104996200D02*
X135072000Y-104996200D01*
X139999600Y-104996200D02*
X136748400Y-104996200D01*
X124023000Y-104996200D02*
X125953400Y-104996200D01*
X123997600Y-115003800D02*
X125267600Y-115003800D01*
X139999600Y-115003800D02*
X136748400Y-115003800D01*
D12*
G04 #@! TO.C,Y1*
X118200000Y-105250000D02*
X109800000Y-105250000D01*
X109800000Y-105250000D02*
X109800000Y-108650000D01*
X109800000Y-108650000D02*
X118200000Y-108650000D01*
X118200000Y-108650000D02*
X118200000Y-105250000D01*
X118200000Y-106405000D02*
X119350000Y-106000000D01*
X119350000Y-106000000D02*
X119800000Y-106000000D01*
X118200000Y-107495000D02*
X119350000Y-107900000D01*
X119350000Y-107900000D02*
X119800000Y-107900000D01*
G04 #@! TO.C,C1*
X132010000Y-99928733D02*
X132010000Y-100271267D01*
X130990000Y-99928733D02*
X130990000Y-100271267D01*
G04 #@! TO.C,C2*
X128290000Y-82761252D02*
X128290000Y-82238748D01*
X129710000Y-82761252D02*
X129710000Y-82238748D01*
G04 #@! TO.C,C3*
X125560000Y-99928733D02*
X125560000Y-100271267D01*
X124540000Y-99928733D02*
X124540000Y-100271267D01*
G04 #@! TO.C,C4*
X117828733Y-104410000D02*
X118171267Y-104410000D01*
X117828733Y-103390000D02*
X118171267Y-103390000D01*
G04 #@! TO.C,C5*
X122390000Y-99928733D02*
X122390000Y-100271267D01*
X123410000Y-99928733D02*
X123410000Y-100271267D01*
G04 #@! TO.C,C6*
X117828733Y-109490000D02*
X118171267Y-109490000D01*
X117828733Y-110510000D02*
X118171267Y-110510000D01*
G04 #@! TO.C,C7*
X127010000Y-82671267D02*
X127010000Y-82328733D01*
X125990000Y-82671267D02*
X125990000Y-82328733D01*
G04 #@! TO.C,C8*
X120171267Y-119310000D02*
X119828733Y-119310000D01*
X120171267Y-118290000D02*
X119828733Y-118290000D01*
G04 #@! TO.C,R1*
X132228733Y-94890000D02*
X132571267Y-94890000D01*
X132228733Y-95910000D02*
X132571267Y-95910000D01*
G04 #@! TO.C,R2*
X128171267Y-86790000D02*
X127828733Y-86790000D01*
X128171267Y-87810000D02*
X127828733Y-87810000D01*
G04 #@! TO.C,R3*
X132571267Y-87810000D02*
X132228733Y-87810000D01*
X132571267Y-86790000D02*
X132228733Y-86790000D01*
G04 #@! TO.C,R4*
X127828733Y-95910000D02*
X128171267Y-95910000D01*
X127828733Y-94890000D02*
X128171267Y-94890000D01*
G04 #@! TO.C,R5*
X119828733Y-132190000D02*
X120171267Y-132190000D01*
X119828733Y-133210000D02*
X120171267Y-133210000D01*
G04 #@! TO.C,R6*
X110128733Y-91890000D02*
X110471267Y-91890000D01*
X110128733Y-92910000D02*
X110471267Y-92910000D01*
G04 #@! TO.C,R7*
X110471267Y-98590000D02*
X110128733Y-98590000D01*
X110471267Y-99610000D02*
X110128733Y-99610000D01*
G04 #@! TO.C,R8*
X106271267Y-116090000D02*
X105928733Y-116090000D01*
X106271267Y-117110000D02*
X105928733Y-117110000D01*
G04 #@! TO.C,L1*
X130010000Y-100271267D02*
X130010000Y-99928733D01*
X128990000Y-100271267D02*
X128990000Y-99928733D01*
G04 #@! TO.C,L2*
X127710000Y-99928733D02*
X127710000Y-100271267D01*
X126690000Y-99928733D02*
X126690000Y-100271267D01*
G04 #@! TO.C,U2*
X115900000Y-94100000D02*
X116300000Y-93600000D01*
X115900000Y-93100000D02*
X115900000Y-94100000D01*
X116300000Y-93600000D02*
X115900000Y-93100000D01*
X122600000Y-95000000D02*
X122600000Y-94800000D01*
X117400000Y-95000000D02*
X117400000Y-94800000D01*
X122740000Y-94750000D02*
X117340000Y-94750000D01*
X122740000Y-92500000D02*
X117340000Y-92500000D01*
X118020000Y-97150000D02*
X117620000Y-97150000D01*
X118020000Y-97150000D02*
X118020000Y-97550000D01*
X118020000Y-97150000D02*
X117220000Y-97950000D01*
X119020000Y-97550000D02*
X118220000Y-98350000D01*
X119020000Y-97550000D02*
X119020000Y-97950000D01*
X119020000Y-97550000D02*
X118620000Y-97550000D01*
X117400000Y-95000000D02*
G75*
G03X122600000Y-95000000I2600000J0D01*
G01*
D13*
G04 #@! TO.C,G\002A\002A\002A*
G36*
X110227118Y-73035471D02*
X110285553Y-73114417D01*
X110287600Y-73131832D01*
X110251391Y-73271698D01*
X110161695Y-73353216D01*
X110046907Y-73363760D01*
X109935420Y-73290708D01*
X109934023Y-73289037D01*
X109897946Y-73177505D01*
X109931659Y-73058785D01*
X110013813Y-72986675D01*
X110121477Y-72984905D01*
X110227118Y-73035471D01*
X110227118Y-73035471D01*
G37*
X110227118Y-73035471D02*
X110285553Y-73114417D01*
X110287600Y-73131832D01*
X110251391Y-73271698D01*
X110161695Y-73353216D01*
X110046907Y-73363760D01*
X109935420Y-73290708D01*
X109934023Y-73289037D01*
X109897946Y-73177505D01*
X109931659Y-73058785D01*
X110013813Y-72986675D01*
X110121477Y-72984905D01*
X110227118Y-73035471D01*
G36*
X107198149Y-70831476D02*
X107279924Y-70853429D01*
X107290400Y-70866472D01*
X107337736Y-70884269D01*
X107465920Y-70898708D01*
X107654212Y-70908104D01*
X107836500Y-70910859D01*
X108318577Y-70937586D01*
X108829595Y-71011731D01*
X109337283Y-71126037D01*
X109809371Y-71273250D01*
X110211056Y-71444821D01*
X110689684Y-71735620D01*
X111131581Y-72096441D01*
X111510806Y-72504722D01*
X111657158Y-72702400D01*
X111815997Y-72945608D01*
X111935307Y-73159073D01*
X112035095Y-73383512D01*
X112135372Y-73659646D01*
X112152480Y-73710393D01*
X112205310Y-73878763D01*
X112241713Y-74030367D01*
X112264661Y-74190904D01*
X112277129Y-74386076D01*
X112282089Y-74641584D01*
X112282698Y-74836000D01*
X112280824Y-75140565D01*
X112273227Y-75369240D01*
X112256945Y-75547693D01*
X112229014Y-75701597D01*
X112186474Y-75856623D01*
X112152982Y-75960026D01*
X112036330Y-76282949D01*
X111917496Y-76546262D01*
X111775395Y-76790179D01*
X111588946Y-77054918D01*
X111556154Y-77098509D01*
X111440806Y-77254417D01*
X111356031Y-77375782D01*
X111315158Y-77443237D01*
X111313811Y-77450639D01*
X111364373Y-77476034D01*
X111481523Y-77530699D01*
X111627545Y-77597201D01*
X112029547Y-77816928D01*
X112439140Y-78109693D01*
X112829821Y-78452826D01*
X113175081Y-78823658D01*
X113383047Y-79098589D01*
X113698446Y-79623750D01*
X113932004Y-80157928D01*
X114099489Y-80738333D01*
X114122161Y-80842527D01*
X114145512Y-81013030D01*
X114164916Y-81275950D01*
X114180292Y-81622178D01*
X114191559Y-82042603D01*
X114198637Y-82528117D01*
X114201443Y-83069611D01*
X114199897Y-83657974D01*
X114193919Y-84284097D01*
X114183426Y-84938872D01*
X114168338Y-85613188D01*
X114165555Y-85719900D01*
X114132131Y-86977200D01*
X113555068Y-86977200D01*
X113521644Y-85719900D01*
X113511699Y-85306328D01*
X113502921Y-84865810D01*
X113495780Y-84428112D01*
X113490742Y-84022999D01*
X113488278Y-83680237D01*
X113488110Y-83589412D01*
X113488000Y-82716225D01*
X113272100Y-82690003D01*
X113117406Y-82671268D01*
X113017515Y-82659200D01*
X113589600Y-82659200D01*
X113589600Y-85250000D01*
X114097600Y-85250000D01*
X114097600Y-82659200D01*
X113589600Y-82659200D01*
X113017515Y-82659200D01*
X112903146Y-82645383D01*
X112670626Y-82617339D01*
X112624400Y-82611770D01*
X112411313Y-82583969D01*
X112225688Y-82555938D01*
X112099545Y-82532627D01*
X112078300Y-82527354D01*
X112017355Y-82515762D01*
X111983137Y-82538203D01*
X111967949Y-82615128D01*
X111964096Y-82766982D01*
X111964000Y-82831075D01*
X111956936Y-83005954D01*
X111938170Y-83125949D01*
X111913200Y-83167200D01*
X111887047Y-83120275D01*
X111869008Y-82994776D01*
X111862400Y-82816569D01*
X111860495Y-82631715D01*
X111847976Y-82522531D01*
X111814635Y-82463087D01*
X111750265Y-82427452D01*
X111702419Y-82410169D01*
X111588794Y-82372228D01*
X111526454Y-82354563D01*
X111524619Y-82354400D01*
X111516343Y-82401190D01*
X111510111Y-82525531D01*
X111506978Y-82703380D01*
X111506800Y-82760800D01*
X111503210Y-82969320D01*
X111490188Y-83094461D01*
X111464350Y-83154262D01*
X111430600Y-83167200D01*
X111392411Y-83148701D01*
X111369080Y-83081382D01*
X111357459Y-82947511D01*
X111354400Y-82737843D01*
X111354400Y-82308487D01*
X110921926Y-82105823D01*
X110709981Y-82002328D01*
X110514955Y-81899791D01*
X110368447Y-81815088D01*
X110330501Y-81789976D01*
X110224235Y-81723088D01*
X110132893Y-81702373D01*
X110010705Y-81722217D01*
X109937475Y-81741769D01*
X109762387Y-81775492D01*
X109515371Y-81803924D01*
X109226027Y-81825605D01*
X108923955Y-81839071D01*
X108638754Y-81842860D01*
X108400024Y-81835511D01*
X108280710Y-81823611D01*
X108039210Y-81787396D01*
X108073065Y-81456946D01*
X108108361Y-81230528D01*
X108163297Y-80998301D01*
X108176945Y-80955850D01*
X108529540Y-80955850D01*
X108536720Y-81172959D01*
X108548535Y-81309695D01*
X108570827Y-81387275D01*
X108609440Y-81426918D01*
X108665138Y-81448344D01*
X108803185Y-81467343D01*
X108963820Y-81461924D01*
X108966800Y-81461535D01*
X109075005Y-81452250D01*
X109264325Y-81441232D01*
X109514314Y-81429460D01*
X109804521Y-81417913D01*
X110059000Y-81409272D01*
X110387942Y-81398228D01*
X110632897Y-81387036D01*
X110811451Y-81373231D01*
X110941188Y-81354350D01*
X111039697Y-81327931D01*
X111124561Y-81291510D01*
X111202000Y-81249185D01*
X111775347Y-80865975D01*
X112269673Y-80420068D01*
X112688991Y-79907315D01*
X113006526Y-79383412D01*
X113245136Y-78927024D01*
X113075992Y-78858006D01*
X112863226Y-78813359D01*
X112710067Y-78820455D01*
X112513284Y-78851922D01*
X112619642Y-78716710D01*
X112713595Y-78568045D01*
X112728823Y-78452451D01*
X112659943Y-78363920D01*
X112501571Y-78296447D01*
X112248326Y-78244022D01*
X112188163Y-78235143D01*
X111608188Y-78204150D01*
X111031013Y-78272558D01*
X110464932Y-78438317D01*
X109918234Y-78699377D01*
X109662503Y-78859723D01*
X109265208Y-79162019D01*
X108961690Y-79471558D01*
X108744358Y-79802386D01*
X108605616Y-80168555D01*
X108537871Y-80584112D01*
X108529540Y-80955850D01*
X108176945Y-80955850D01*
X108205455Y-80867176D01*
X108264995Y-80688725D01*
X108274345Y-80593916D01*
X108232659Y-80577572D01*
X108164263Y-80615901D01*
X107746293Y-80855185D01*
X107263567Y-81031774D01*
X106735034Y-81140561D01*
X106179641Y-81176437D01*
X106089919Y-81175079D01*
X105537800Y-81160600D01*
X105549568Y-80847496D01*
X105586428Y-80603947D01*
X106031379Y-80603947D01*
X106045253Y-80705794D01*
X106127545Y-80758690D01*
X106291572Y-80776988D01*
X106387105Y-80777815D01*
X106625264Y-80764651D01*
X106882097Y-80732992D01*
X107011000Y-80709170D01*
X107217382Y-80656594D01*
X107418487Y-80593739D01*
X107519000Y-80555664D01*
X107786008Y-80489435D01*
X108051068Y-80480791D01*
X108379936Y-80492563D01*
X108454651Y-80251977D01*
X108496385Y-80100154D01*
X108501186Y-80001950D01*
X108467767Y-79915846D01*
X108442969Y-79874796D01*
X108350547Y-79712672D01*
X108237021Y-79490578D01*
X108119015Y-79242877D01*
X108013150Y-79003935D01*
X107966650Y-78890051D01*
X107873274Y-78651503D01*
X107646746Y-78752923D01*
X107509049Y-78819691D01*
X107414521Y-78875024D01*
X107393408Y-78893224D01*
X107339240Y-78941505D01*
X107228331Y-79024440D01*
X107133433Y-79090697D01*
X106775985Y-79379668D01*
X106466623Y-79720566D01*
X106223278Y-80090602D01*
X106072609Y-80438795D01*
X106031379Y-80603947D01*
X105586428Y-80603947D01*
X105612355Y-80432637D01*
X105764882Y-80008539D01*
X105998981Y-79593102D01*
X106292390Y-79219582D01*
X106521114Y-79000213D01*
X106798070Y-78782323D01*
X107092446Y-78586974D01*
X107373431Y-78435230D01*
X107536092Y-78369359D01*
X107780710Y-78288110D01*
X107710442Y-77971755D01*
X107632051Y-77460058D01*
X107606500Y-76895822D01*
X107631522Y-76309518D01*
X107704853Y-75731615D01*
X107824224Y-75192581D01*
X107944301Y-74827770D01*
X108038116Y-74585218D01*
X108107920Y-74424480D01*
X108171247Y-74334651D01*
X108245631Y-74304827D01*
X108348607Y-74324105D01*
X108497710Y-74381580D01*
X108596876Y-74421973D01*
X108861952Y-74528437D01*
X109044354Y-74217214D01*
X109266672Y-73758565D01*
X109428886Y-73255765D01*
X109470393Y-73035391D01*
X109739998Y-73035391D01*
X109757430Y-73198818D01*
X109870969Y-73343894D01*
X109957400Y-73403042D01*
X110041406Y-73447537D01*
X110104275Y-73453738D01*
X110186389Y-73416598D01*
X110274900Y-73363356D01*
X110404531Y-73235661D01*
X110442237Y-73077604D01*
X110385502Y-72907075D01*
X110346720Y-72852460D01*
X110213556Y-72759794D01*
X110050217Y-72741379D01*
X109894941Y-72796345D01*
X109821393Y-72864390D01*
X109739998Y-73035391D01*
X109470393Y-73035391D01*
X109527361Y-72732933D01*
X109558460Y-72214190D01*
X109518546Y-71723656D01*
X109460374Y-71457800D01*
X109412527Y-71321238D01*
X109362901Y-71229866D01*
X109350273Y-71217277D01*
X109238240Y-71180386D01*
X109121569Y-71196155D01*
X109048874Y-71257716D01*
X109047961Y-71259988D01*
X108980240Y-71312865D01*
X108855389Y-71301025D01*
X108691292Y-71228270D01*
X108588898Y-71162322D01*
X108512093Y-71114567D01*
X108426382Y-71082804D01*
X108309942Y-71063885D01*
X108140951Y-71054662D01*
X107897586Y-71051989D01*
X107823800Y-71051974D01*
X107559757Y-71053868D01*
X107373907Y-71061397D01*
X107242860Y-71078218D01*
X107143226Y-71107984D01*
X107051617Y-71154350D01*
X107011000Y-71178974D01*
X106807800Y-71305400D01*
X107188800Y-71316637D01*
X107474137Y-71331905D01*
X107787883Y-71360084D01*
X108109830Y-71398130D01*
X108419772Y-71442998D01*
X108697502Y-71491643D01*
X108922815Y-71541023D01*
X109075505Y-71588093D01*
X109113341Y-71606579D01*
X109140125Y-71680218D01*
X109118516Y-71764398D01*
X109095474Y-71856598D01*
X109107757Y-71891144D01*
X109102198Y-71912664D01*
X109056312Y-71944126D01*
X108958655Y-71965601D01*
X108788662Y-71953012D01*
X108585588Y-71916569D01*
X107889120Y-71818443D01*
X107165588Y-71807535D01*
X106406667Y-71884137D01*
X105736351Y-72016176D01*
X105447675Y-72091881D01*
X105183671Y-72174509D01*
X104959445Y-72257921D01*
X104790103Y-72335973D01*
X104690752Y-72402525D01*
X104673998Y-72448074D01*
X104728804Y-72482409D01*
X104744219Y-72477619D01*
X104841482Y-72447779D01*
X105023054Y-72419820D01*
X105271647Y-72394594D01*
X105569976Y-72372949D01*
X105900753Y-72355737D01*
X106246693Y-72343808D01*
X106590508Y-72338011D01*
X106914912Y-72339196D01*
X107202620Y-72348215D01*
X107282527Y-72352790D01*
X107529630Y-72372953D01*
X107806988Y-72402239D01*
X108095662Y-72437862D01*
X108376710Y-72477034D01*
X108631191Y-72516969D01*
X108840165Y-72554880D01*
X108984691Y-72587979D01*
X109044746Y-72612093D01*
X109065106Y-72665329D01*
X109099704Y-72780427D01*
X109110713Y-72820039D01*
X109141213Y-72943807D01*
X109132411Y-72993931D01*
X109072066Y-72994698D01*
X109027127Y-72985881D01*
X108607633Y-72902290D01*
X108255632Y-72839387D01*
X107942861Y-72794351D01*
X107641054Y-72764361D01*
X107321948Y-72746595D01*
X106957281Y-72738233D01*
X106528400Y-72736441D01*
X106095068Y-72738999D01*
X105738893Y-72747271D01*
X105435488Y-72763623D01*
X105160464Y-72790423D01*
X104889434Y-72830038D01*
X104598010Y-72884833D01*
X104267800Y-72955839D01*
X103919206Y-73044248D01*
X103538890Y-73158213D01*
X103168100Y-73284382D01*
X102848083Y-73409402D01*
X102794600Y-73432738D01*
X102439000Y-73591400D01*
X102616800Y-73619455D01*
X102751249Y-73627765D01*
X102844049Y-73610875D01*
X102850074Y-73607196D01*
X102915687Y-73584875D01*
X102929845Y-73591179D01*
X102986643Y-73592194D01*
X103121307Y-73575984D01*
X103312140Y-73545561D01*
X103483971Y-73514292D01*
X104256182Y-73393036D01*
X104955915Y-73337898D01*
X105581190Y-73349014D01*
X105711052Y-73360622D01*
X106154817Y-73413650D01*
X106583749Y-73477893D01*
X106971450Y-73548855D01*
X107291525Y-73622039D01*
X107366600Y-73642653D01*
X107567813Y-73698925D01*
X107772297Y-73753512D01*
X107837146Y-73770072D01*
X107969164Y-73809381D01*
X108020232Y-73849081D01*
X108009635Y-73906156D01*
X108004033Y-73917052D01*
X107974130Y-74002498D01*
X107979214Y-74034681D01*
X107968589Y-74082439D01*
X107939327Y-74112728D01*
X107867948Y-74131083D01*
X107727979Y-74118062D01*
X107508137Y-74072262D01*
X107400233Y-74045700D01*
X106474942Y-73849310D01*
X105553501Y-73728064D01*
X104655716Y-73683820D01*
X103859892Y-73713367D01*
X103293245Y-73768314D01*
X102803359Y-73833799D01*
X102365620Y-73913591D01*
X102014203Y-73995985D01*
X101840064Y-74036172D01*
X101702254Y-74058998D01*
X101635070Y-74060023D01*
X101640802Y-74018728D01*
X101712007Y-73923125D01*
X101836679Y-73784629D01*
X102002814Y-73614655D01*
X102198405Y-73424619D01*
X102411447Y-73225937D01*
X102629934Y-73030024D01*
X102841862Y-72848296D01*
X103035225Y-72692168D01*
X103198016Y-72573055D01*
X103201000Y-72571047D01*
X103568323Y-72341473D01*
X103968759Y-72120561D01*
X104374996Y-71921587D01*
X104759722Y-71757829D01*
X105095623Y-71642565D01*
X105131400Y-71632611D01*
X105522570Y-71532188D01*
X105844328Y-71461832D01*
X106122492Y-71416191D01*
X106245070Y-71401802D01*
X106517061Y-71354597D01*
X106699879Y-71274415D01*
X106802316Y-71155203D01*
X106833200Y-70996912D01*
X106838290Y-70889927D01*
X106871993Y-70839265D01*
X106961956Y-70823869D01*
X107061800Y-70822800D01*
X107198149Y-70831476D01*
X107198149Y-70831476D01*
G37*
X107198149Y-70831476D02*
X107279924Y-70853429D01*
X107290400Y-70866472D01*
X107337736Y-70884269D01*
X107465920Y-70898708D01*
X107654212Y-70908104D01*
X107836500Y-70910859D01*
X108318577Y-70937586D01*
X108829595Y-71011731D01*
X109337283Y-71126037D01*
X109809371Y-71273250D01*
X110211056Y-71444821D01*
X110689684Y-71735620D01*
X111131581Y-72096441D01*
X111510806Y-72504722D01*
X111657158Y-72702400D01*
X111815997Y-72945608D01*
X111935307Y-73159073D01*
X112035095Y-73383512D01*
X112135372Y-73659646D01*
X112152480Y-73710393D01*
X112205310Y-73878763D01*
X112241713Y-74030367D01*
X112264661Y-74190904D01*
X112277129Y-74386076D01*
X112282089Y-74641584D01*
X112282698Y-74836000D01*
X112280824Y-75140565D01*
X112273227Y-75369240D01*
X112256945Y-75547693D01*
X112229014Y-75701597D01*
X112186474Y-75856623D01*
X112152982Y-75960026D01*
X112036330Y-76282949D01*
X111917496Y-76546262D01*
X111775395Y-76790179D01*
X111588946Y-77054918D01*
X111556154Y-77098509D01*
X111440806Y-77254417D01*
X111356031Y-77375782D01*
X111315158Y-77443237D01*
X111313811Y-77450639D01*
X111364373Y-77476034D01*
X111481523Y-77530699D01*
X111627545Y-77597201D01*
X112029547Y-77816928D01*
X112439140Y-78109693D01*
X112829821Y-78452826D01*
X113175081Y-78823658D01*
X113383047Y-79098589D01*
X113698446Y-79623750D01*
X113932004Y-80157928D01*
X114099489Y-80738333D01*
X114122161Y-80842527D01*
X114145512Y-81013030D01*
X114164916Y-81275950D01*
X114180292Y-81622178D01*
X114191559Y-82042603D01*
X114198637Y-82528117D01*
X114201443Y-83069611D01*
X114199897Y-83657974D01*
X114193919Y-84284097D01*
X114183426Y-84938872D01*
X114168338Y-85613188D01*
X114165555Y-85719900D01*
X114132131Y-86977200D01*
X113555068Y-86977200D01*
X113521644Y-85719900D01*
X113511699Y-85306328D01*
X113502921Y-84865810D01*
X113495780Y-84428112D01*
X113490742Y-84022999D01*
X113488278Y-83680237D01*
X113488110Y-83589412D01*
X113488000Y-82716225D01*
X113272100Y-82690003D01*
X113117406Y-82671268D01*
X113017515Y-82659200D01*
X113589600Y-82659200D01*
X113589600Y-85250000D01*
X114097600Y-85250000D01*
X114097600Y-82659200D01*
X113589600Y-82659200D01*
X113017515Y-82659200D01*
X112903146Y-82645383D01*
X112670626Y-82617339D01*
X112624400Y-82611770D01*
X112411313Y-82583969D01*
X112225688Y-82555938D01*
X112099545Y-82532627D01*
X112078300Y-82527354D01*
X112017355Y-82515762D01*
X111983137Y-82538203D01*
X111967949Y-82615128D01*
X111964096Y-82766982D01*
X111964000Y-82831075D01*
X111956936Y-83005954D01*
X111938170Y-83125949D01*
X111913200Y-83167200D01*
X111887047Y-83120275D01*
X111869008Y-82994776D01*
X111862400Y-82816569D01*
X111860495Y-82631715D01*
X111847976Y-82522531D01*
X111814635Y-82463087D01*
X111750265Y-82427452D01*
X111702419Y-82410169D01*
X111588794Y-82372228D01*
X111526454Y-82354563D01*
X111524619Y-82354400D01*
X111516343Y-82401190D01*
X111510111Y-82525531D01*
X111506978Y-82703380D01*
X111506800Y-82760800D01*
X111503210Y-82969320D01*
X111490188Y-83094461D01*
X111464350Y-83154262D01*
X111430600Y-83167200D01*
X111392411Y-83148701D01*
X111369080Y-83081382D01*
X111357459Y-82947511D01*
X111354400Y-82737843D01*
X111354400Y-82308487D01*
X110921926Y-82105823D01*
X110709981Y-82002328D01*
X110514955Y-81899791D01*
X110368447Y-81815088D01*
X110330501Y-81789976D01*
X110224235Y-81723088D01*
X110132893Y-81702373D01*
X110010705Y-81722217D01*
X109937475Y-81741769D01*
X109762387Y-81775492D01*
X109515371Y-81803924D01*
X109226027Y-81825605D01*
X108923955Y-81839071D01*
X108638754Y-81842860D01*
X108400024Y-81835511D01*
X108280710Y-81823611D01*
X108039210Y-81787396D01*
X108073065Y-81456946D01*
X108108361Y-81230528D01*
X108163297Y-80998301D01*
X108176945Y-80955850D01*
X108529540Y-80955850D01*
X108536720Y-81172959D01*
X108548535Y-81309695D01*
X108570827Y-81387275D01*
X108609440Y-81426918D01*
X108665138Y-81448344D01*
X108803185Y-81467343D01*
X108963820Y-81461924D01*
X108966800Y-81461535D01*
X109075005Y-81452250D01*
X109264325Y-81441232D01*
X109514314Y-81429460D01*
X109804521Y-81417913D01*
X110059000Y-81409272D01*
X110387942Y-81398228D01*
X110632897Y-81387036D01*
X110811451Y-81373231D01*
X110941188Y-81354350D01*
X111039697Y-81327931D01*
X111124561Y-81291510D01*
X111202000Y-81249185D01*
X111775347Y-80865975D01*
X112269673Y-80420068D01*
X112688991Y-79907315D01*
X113006526Y-79383412D01*
X113245136Y-78927024D01*
X113075992Y-78858006D01*
X112863226Y-78813359D01*
X112710067Y-78820455D01*
X112513284Y-78851922D01*
X112619642Y-78716710D01*
X112713595Y-78568045D01*
X112728823Y-78452451D01*
X112659943Y-78363920D01*
X112501571Y-78296447D01*
X112248326Y-78244022D01*
X112188163Y-78235143D01*
X111608188Y-78204150D01*
X111031013Y-78272558D01*
X110464932Y-78438317D01*
X109918234Y-78699377D01*
X109662503Y-78859723D01*
X109265208Y-79162019D01*
X108961690Y-79471558D01*
X108744358Y-79802386D01*
X108605616Y-80168555D01*
X108537871Y-80584112D01*
X108529540Y-80955850D01*
X108176945Y-80955850D01*
X108205455Y-80867176D01*
X108264995Y-80688725D01*
X108274345Y-80593916D01*
X108232659Y-80577572D01*
X108164263Y-80615901D01*
X107746293Y-80855185D01*
X107263567Y-81031774D01*
X106735034Y-81140561D01*
X106179641Y-81176437D01*
X106089919Y-81175079D01*
X105537800Y-81160600D01*
X105549568Y-80847496D01*
X105586428Y-80603947D01*
X106031379Y-80603947D01*
X106045253Y-80705794D01*
X106127545Y-80758690D01*
X106291572Y-80776988D01*
X106387105Y-80777815D01*
X106625264Y-80764651D01*
X106882097Y-80732992D01*
X107011000Y-80709170D01*
X107217382Y-80656594D01*
X107418487Y-80593739D01*
X107519000Y-80555664D01*
X107786008Y-80489435D01*
X108051068Y-80480791D01*
X108379936Y-80492563D01*
X108454651Y-80251977D01*
X108496385Y-80100154D01*
X108501186Y-80001950D01*
X108467767Y-79915846D01*
X108442969Y-79874796D01*
X108350547Y-79712672D01*
X108237021Y-79490578D01*
X108119015Y-79242877D01*
X108013150Y-79003935D01*
X107966650Y-78890051D01*
X107873274Y-78651503D01*
X107646746Y-78752923D01*
X107509049Y-78819691D01*
X107414521Y-78875024D01*
X107393408Y-78893224D01*
X107339240Y-78941505D01*
X107228331Y-79024440D01*
X107133433Y-79090697D01*
X106775985Y-79379668D01*
X106466623Y-79720566D01*
X106223278Y-80090602D01*
X106072609Y-80438795D01*
X106031379Y-80603947D01*
X105586428Y-80603947D01*
X105612355Y-80432637D01*
X105764882Y-80008539D01*
X105998981Y-79593102D01*
X106292390Y-79219582D01*
X106521114Y-79000213D01*
X106798070Y-78782323D01*
X107092446Y-78586974D01*
X107373431Y-78435230D01*
X107536092Y-78369359D01*
X107780710Y-78288110D01*
X107710442Y-77971755D01*
X107632051Y-77460058D01*
X107606500Y-76895822D01*
X107631522Y-76309518D01*
X107704853Y-75731615D01*
X107824224Y-75192581D01*
X107944301Y-74827770D01*
X108038116Y-74585218D01*
X108107920Y-74424480D01*
X108171247Y-74334651D01*
X108245631Y-74304827D01*
X108348607Y-74324105D01*
X108497710Y-74381580D01*
X108596876Y-74421973D01*
X108861952Y-74528437D01*
X109044354Y-74217214D01*
X109266672Y-73758565D01*
X109428886Y-73255765D01*
X109470393Y-73035391D01*
X109739998Y-73035391D01*
X109757430Y-73198818D01*
X109870969Y-73343894D01*
X109957400Y-73403042D01*
X110041406Y-73447537D01*
X110104275Y-73453738D01*
X110186389Y-73416598D01*
X110274900Y-73363356D01*
X110404531Y-73235661D01*
X110442237Y-73077604D01*
X110385502Y-72907075D01*
X110346720Y-72852460D01*
X110213556Y-72759794D01*
X110050217Y-72741379D01*
X109894941Y-72796345D01*
X109821393Y-72864390D01*
X109739998Y-73035391D01*
X109470393Y-73035391D01*
X109527361Y-72732933D01*
X109558460Y-72214190D01*
X109518546Y-71723656D01*
X109460374Y-71457800D01*
X109412527Y-71321238D01*
X109362901Y-71229866D01*
X109350273Y-71217277D01*
X109238240Y-71180386D01*
X109121569Y-71196155D01*
X109048874Y-71257716D01*
X109047961Y-71259988D01*
X108980240Y-71312865D01*
X108855389Y-71301025D01*
X108691292Y-71228270D01*
X108588898Y-71162322D01*
X108512093Y-71114567D01*
X108426382Y-71082804D01*
X108309942Y-71063885D01*
X108140951Y-71054662D01*
X107897586Y-71051989D01*
X107823800Y-71051974D01*
X107559757Y-71053868D01*
X107373907Y-71061397D01*
X107242860Y-71078218D01*
X107143226Y-71107984D01*
X107051617Y-71154350D01*
X107011000Y-71178974D01*
X106807800Y-71305400D01*
X107188800Y-71316637D01*
X107474137Y-71331905D01*
X107787883Y-71360084D01*
X108109830Y-71398130D01*
X108419772Y-71442998D01*
X108697502Y-71491643D01*
X108922815Y-71541023D01*
X109075505Y-71588093D01*
X109113341Y-71606579D01*
X109140125Y-71680218D01*
X109118516Y-71764398D01*
X109095474Y-71856598D01*
X109107757Y-71891144D01*
X109102198Y-71912664D01*
X109056312Y-71944126D01*
X108958655Y-71965601D01*
X108788662Y-71953012D01*
X108585588Y-71916569D01*
X107889120Y-71818443D01*
X107165588Y-71807535D01*
X106406667Y-71884137D01*
X105736351Y-72016176D01*
X105447675Y-72091881D01*
X105183671Y-72174509D01*
X104959445Y-72257921D01*
X104790103Y-72335973D01*
X104690752Y-72402525D01*
X104673998Y-72448074D01*
X104728804Y-72482409D01*
X104744219Y-72477619D01*
X104841482Y-72447779D01*
X105023054Y-72419820D01*
X105271647Y-72394594D01*
X105569976Y-72372949D01*
X105900753Y-72355737D01*
X106246693Y-72343808D01*
X106590508Y-72338011D01*
X106914912Y-72339196D01*
X107202620Y-72348215D01*
X107282527Y-72352790D01*
X107529630Y-72372953D01*
X107806988Y-72402239D01*
X108095662Y-72437862D01*
X108376710Y-72477034D01*
X108631191Y-72516969D01*
X108840165Y-72554880D01*
X108984691Y-72587979D01*
X109044746Y-72612093D01*
X109065106Y-72665329D01*
X109099704Y-72780427D01*
X109110713Y-72820039D01*
X109141213Y-72943807D01*
X109132411Y-72993931D01*
X109072066Y-72994698D01*
X109027127Y-72985881D01*
X108607633Y-72902290D01*
X108255632Y-72839387D01*
X107942861Y-72794351D01*
X107641054Y-72764361D01*
X107321948Y-72746595D01*
X106957281Y-72738233D01*
X106528400Y-72736441D01*
X106095068Y-72738999D01*
X105738893Y-72747271D01*
X105435488Y-72763623D01*
X105160464Y-72790423D01*
X104889434Y-72830038D01*
X104598010Y-72884833D01*
X104267800Y-72955839D01*
X103919206Y-73044248D01*
X103538890Y-73158213D01*
X103168100Y-73284382D01*
X102848083Y-73409402D01*
X102794600Y-73432738D01*
X102439000Y-73591400D01*
X102616800Y-73619455D01*
X102751249Y-73627765D01*
X102844049Y-73610875D01*
X102850074Y-73607196D01*
X102915687Y-73584875D01*
X102929845Y-73591179D01*
X102986643Y-73592194D01*
X103121307Y-73575984D01*
X103312140Y-73545561D01*
X103483971Y-73514292D01*
X104256182Y-73393036D01*
X104955915Y-73337898D01*
X105581190Y-73349014D01*
X105711052Y-73360622D01*
X106154817Y-73413650D01*
X106583749Y-73477893D01*
X106971450Y-73548855D01*
X107291525Y-73622039D01*
X107366600Y-73642653D01*
X107567813Y-73698925D01*
X107772297Y-73753512D01*
X107837146Y-73770072D01*
X107969164Y-73809381D01*
X108020232Y-73849081D01*
X108009635Y-73906156D01*
X108004033Y-73917052D01*
X107974130Y-74002498D01*
X107979214Y-74034681D01*
X107968589Y-74082439D01*
X107939327Y-74112728D01*
X107867948Y-74131083D01*
X107727979Y-74118062D01*
X107508137Y-74072262D01*
X107400233Y-74045700D01*
X106474942Y-73849310D01*
X105553501Y-73728064D01*
X104655716Y-73683820D01*
X103859892Y-73713367D01*
X103293245Y-73768314D01*
X102803359Y-73833799D01*
X102365620Y-73913591D01*
X102014203Y-73995985D01*
X101840064Y-74036172D01*
X101702254Y-74058998D01*
X101635070Y-74060023D01*
X101640802Y-74018728D01*
X101712007Y-73923125D01*
X101836679Y-73784629D01*
X102002814Y-73614655D01*
X102198405Y-73424619D01*
X102411447Y-73225937D01*
X102629934Y-73030024D01*
X102841862Y-72848296D01*
X103035225Y-72692168D01*
X103198016Y-72573055D01*
X103201000Y-72571047D01*
X103568323Y-72341473D01*
X103968759Y-72120561D01*
X104374996Y-71921587D01*
X104759722Y-71757829D01*
X105095623Y-71642565D01*
X105131400Y-71632611D01*
X105522570Y-71532188D01*
X105844328Y-71461832D01*
X106122492Y-71416191D01*
X106245070Y-71401802D01*
X106517061Y-71354597D01*
X106699879Y-71274415D01*
X106802316Y-71155203D01*
X106833200Y-70996912D01*
X106838290Y-70889927D01*
X106871993Y-70839265D01*
X106961956Y-70823869D01*
X107061800Y-70822800D01*
X107198149Y-70831476D01*
G04 #@! TO.C,P1*
D14*
X134437571Y-125844714D02*
X134437571Y-125082714D01*
X134727857Y-125082714D01*
X134800428Y-125119000D01*
X134836714Y-125155285D01*
X134873000Y-125227857D01*
X134873000Y-125336714D01*
X134836714Y-125409285D01*
X134800428Y-125445571D01*
X134727857Y-125481857D01*
X134437571Y-125481857D01*
X135598714Y-125844714D02*
X135163285Y-125844714D01*
X135381000Y-125844714D02*
X135381000Y-125082714D01*
X135308428Y-125191571D01*
X135235857Y-125264142D01*
X135163285Y-125300428D01*
G04 #@! TO.C,J2*
D11*
X106116666Y-143722380D02*
X106116666Y-144436666D01*
X106069047Y-144579523D01*
X105973809Y-144674761D01*
X105830952Y-144722380D01*
X105735714Y-144722380D01*
X106545238Y-143817619D02*
X106592857Y-143770000D01*
X106688095Y-143722380D01*
X106926190Y-143722380D01*
X107021428Y-143770000D01*
X107069047Y-143817619D01*
X107116666Y-143912857D01*
X107116666Y-144008095D01*
X107069047Y-144150952D01*
X106497619Y-144722380D01*
X107116666Y-144722380D01*
G04 #@! TO.C,R9*
X109033333Y-133852380D02*
X108700000Y-133376190D01*
X108461904Y-133852380D02*
X108461904Y-132852380D01*
X108842857Y-132852380D01*
X108938095Y-132900000D01*
X108985714Y-132947619D01*
X109033333Y-133042857D01*
X109033333Y-133185714D01*
X108985714Y-133280952D01*
X108938095Y-133328571D01*
X108842857Y-133376190D01*
X108461904Y-133376190D01*
X109509523Y-133852380D02*
X109700000Y-133852380D01*
X109795238Y-133804761D01*
X109842857Y-133757142D01*
X109938095Y-133614285D01*
X109985714Y-133423809D01*
X109985714Y-133042857D01*
X109938095Y-132947619D01*
X109890476Y-132900000D01*
X109795238Y-132852380D01*
X109604761Y-132852380D01*
X109509523Y-132900000D01*
X109461904Y-132947619D01*
X109414285Y-133042857D01*
X109414285Y-133280952D01*
X109461904Y-133376190D01*
X109509523Y-133423809D01*
X109604761Y-133471428D01*
X109795238Y-133471428D01*
X109890476Y-133423809D01*
X109938095Y-133376190D01*
X109985714Y-133280952D01*
G04 #@! TO.C,J1*
X106096666Y-127222380D02*
X106096666Y-127936666D01*
X106049047Y-128079523D01*
X105953809Y-128174761D01*
X105810952Y-128222380D01*
X105715714Y-128222380D01*
X107096666Y-128222380D02*
X106525238Y-128222380D01*
X106810952Y-128222380D02*
X106810952Y-127222380D01*
X106715714Y-127365238D01*
X106620476Y-127460476D01*
X106525238Y-127508095D01*
G04 #@! TO.C,D1*
X119261904Y-80302380D02*
X119261904Y-79302380D01*
X119500000Y-79302380D01*
X119642857Y-79350000D01*
X119738095Y-79445238D01*
X119785714Y-79540476D01*
X119833333Y-79730952D01*
X119833333Y-79873809D01*
X119785714Y-80064285D01*
X119738095Y-80159523D01*
X119642857Y-80254761D01*
X119500000Y-80302380D01*
X119261904Y-80302380D01*
X120785714Y-80302380D02*
X120214285Y-80302380D01*
X120500000Y-80302380D02*
X120500000Y-79302380D01*
X120404761Y-79445238D01*
X120309523Y-79540476D01*
X120214285Y-79588095D01*
G04 #@! TO.C,D2*
X119291904Y-141312380D02*
X119291904Y-140312380D01*
X119530000Y-140312380D01*
X119672857Y-140360000D01*
X119768095Y-140455238D01*
X119815714Y-140550476D01*
X119863333Y-140740952D01*
X119863333Y-140883809D01*
X119815714Y-141074285D01*
X119768095Y-141169523D01*
X119672857Y-141264761D01*
X119530000Y-141312380D01*
X119291904Y-141312380D01*
X120244285Y-140407619D02*
X120291904Y-140360000D01*
X120387142Y-140312380D01*
X120625238Y-140312380D01*
X120720476Y-140360000D01*
X120768095Y-140407619D01*
X120815714Y-140502857D01*
X120815714Y-140598095D01*
X120768095Y-140740952D01*
X120196666Y-141312380D01*
X120815714Y-141312380D01*
G04 #@! TO.C,*
G04 #@! TO.C,Q1*
X133904761Y-85647619D02*
X133809523Y-85600000D01*
X133714285Y-85504761D01*
X133571428Y-85361904D01*
X133476190Y-85314285D01*
X133380952Y-85314285D01*
X133428571Y-85552380D02*
X133333333Y-85504761D01*
X133238095Y-85409523D01*
X133190476Y-85219047D01*
X133190476Y-84885714D01*
X133238095Y-84695238D01*
X133333333Y-84600000D01*
X133428571Y-84552380D01*
X133619047Y-84552380D01*
X133714285Y-84600000D01*
X133809523Y-84695238D01*
X133857142Y-84885714D01*
X133857142Y-85219047D01*
X133809523Y-85409523D01*
X133714285Y-85504761D01*
X133619047Y-85552380D01*
X133428571Y-85552380D01*
X134809523Y-85552380D02*
X134238095Y-85552380D01*
X134523809Y-85552380D02*
X134523809Y-84552380D01*
X134428571Y-84695238D01*
X134333333Y-84790476D01*
X134238095Y-84838095D01*
G04 #@! TO.C,Q2*
X135004761Y-91847619D02*
X134909523Y-91800000D01*
X134814285Y-91704761D01*
X134671428Y-91561904D01*
X134576190Y-91514285D01*
X134480952Y-91514285D01*
X134528571Y-91752380D02*
X134433333Y-91704761D01*
X134338095Y-91609523D01*
X134290476Y-91419047D01*
X134290476Y-91085714D01*
X134338095Y-90895238D01*
X134433333Y-90800000D01*
X134528571Y-90752380D01*
X134719047Y-90752380D01*
X134814285Y-90800000D01*
X134909523Y-90895238D01*
X134957142Y-91085714D01*
X134957142Y-91419047D01*
X134909523Y-91609523D01*
X134814285Y-91704761D01*
X134719047Y-91752380D01*
X134528571Y-91752380D01*
X135338095Y-90847619D02*
X135385714Y-90800000D01*
X135480952Y-90752380D01*
X135719047Y-90752380D01*
X135814285Y-90800000D01*
X135861904Y-90847619D01*
X135909523Y-90942857D01*
X135909523Y-91038095D01*
X135861904Y-91180952D01*
X135290476Y-91752380D01*
X135909523Y-91752380D01*
G04 #@! TO.C,Q3*
X125204761Y-91847619D02*
X125109523Y-91800000D01*
X125014285Y-91704761D01*
X124871428Y-91561904D01*
X124776190Y-91514285D01*
X124680952Y-91514285D01*
X124728571Y-91752380D02*
X124633333Y-91704761D01*
X124538095Y-91609523D01*
X124490476Y-91419047D01*
X124490476Y-91085714D01*
X124538095Y-90895238D01*
X124633333Y-90800000D01*
X124728571Y-90752380D01*
X124919047Y-90752380D01*
X125014285Y-90800000D01*
X125109523Y-90895238D01*
X125157142Y-91085714D01*
X125157142Y-91419047D01*
X125109523Y-91609523D01*
X125014285Y-91704761D01*
X124919047Y-91752380D01*
X124728571Y-91752380D01*
X125490476Y-90752380D02*
X126109523Y-90752380D01*
X125776190Y-91133333D01*
X125919047Y-91133333D01*
X126014285Y-91180952D01*
X126061904Y-91228571D01*
X126109523Y-91323809D01*
X126109523Y-91561904D01*
X126061904Y-91657142D01*
X126014285Y-91704761D01*
X125919047Y-91752380D01*
X125633333Y-91752380D01*
X125538095Y-91704761D01*
X125490476Y-91657142D01*
G04 #@! TO.C,Q4*
X106104761Y-96247619D02*
X106009523Y-96200000D01*
X105914285Y-96104761D01*
X105771428Y-95961904D01*
X105676190Y-95914285D01*
X105580952Y-95914285D01*
X105628571Y-96152380D02*
X105533333Y-96104761D01*
X105438095Y-96009523D01*
X105390476Y-95819047D01*
X105390476Y-95485714D01*
X105438095Y-95295238D01*
X105533333Y-95200000D01*
X105628571Y-95152380D01*
X105819047Y-95152380D01*
X105914285Y-95200000D01*
X106009523Y-95295238D01*
X106057142Y-95485714D01*
X106057142Y-95819047D01*
X106009523Y-96009523D01*
X105914285Y-96104761D01*
X105819047Y-96152380D01*
X105628571Y-96152380D01*
X106914285Y-95485714D02*
X106914285Y-96152380D01*
X106676190Y-95104761D02*
X106438095Y-95819047D01*
X107057142Y-95819047D01*
G04 #@! TO.C,SW1*
X118616666Y-128354761D02*
X118759523Y-128402380D01*
X118997619Y-128402380D01*
X119092857Y-128354761D01*
X119140476Y-128307142D01*
X119188095Y-128211904D01*
X119188095Y-128116666D01*
X119140476Y-128021428D01*
X119092857Y-127973809D01*
X118997619Y-127926190D01*
X118807142Y-127878571D01*
X118711904Y-127830952D01*
X118664285Y-127783333D01*
X118616666Y-127688095D01*
X118616666Y-127592857D01*
X118664285Y-127497619D01*
X118711904Y-127450000D01*
X118807142Y-127402380D01*
X119045238Y-127402380D01*
X119188095Y-127450000D01*
X119521428Y-127402380D02*
X119759523Y-128402380D01*
X119950000Y-127688095D01*
X120140476Y-128402380D01*
X120378571Y-127402380D01*
X121283333Y-128402380D02*
X120711904Y-128402380D01*
X120997619Y-128402380D02*
X120997619Y-127402380D01*
X120902380Y-127545238D01*
X120807142Y-127640476D01*
X120711904Y-127688095D01*
G04 #@! TO.C,U1*
D15*
X122119047Y-110426190D02*
X122119047Y-110830952D01*
X122142857Y-110878571D01*
X122166666Y-110902380D01*
X122214285Y-110926190D01*
X122309523Y-110926190D01*
X122357142Y-110902380D01*
X122380952Y-110878571D01*
X122404761Y-110830952D01*
X122404761Y-110426190D01*
X122904761Y-110926190D02*
X122619047Y-110926190D01*
X122761904Y-110926190D02*
X122761904Y-110426190D01*
X122714285Y-110497619D01*
X122666666Y-110545238D01*
X122619047Y-110569047D01*
D11*
X138116666Y-111192857D02*
X138116666Y-110716666D01*
X138402380Y-111288095D02*
X137402380Y-110954761D01*
X138402380Y-110621428D01*
X138402380Y-110288095D02*
X137402380Y-110288095D01*
X138402380Y-109716666D01*
X137402380Y-109716666D01*
X137402380Y-109383333D02*
X137402380Y-108811904D01*
X138402380Y-109097619D02*
X137402380Y-109097619D01*
G04 #@! TO.C,Y1*
X107723809Y-106976190D02*
X107723809Y-107452380D01*
X107390476Y-106452380D02*
X107723809Y-106976190D01*
X108057142Y-106452380D01*
X108914285Y-107452380D02*
X108342857Y-107452380D01*
X108628571Y-107452380D02*
X108628571Y-106452380D01*
X108533333Y-106595238D01*
X108438095Y-106690476D01*
X108342857Y-106738095D01*
G04 #@! TO.C,C1*
X131333333Y-103087142D02*
X131285714Y-103134761D01*
X131142857Y-103182380D01*
X131047619Y-103182380D01*
X130904761Y-103134761D01*
X130809523Y-103039523D01*
X130761904Y-102944285D01*
X130714285Y-102753809D01*
X130714285Y-102610952D01*
X130761904Y-102420476D01*
X130809523Y-102325238D01*
X130904761Y-102230000D01*
X131047619Y-102182380D01*
X131142857Y-102182380D01*
X131285714Y-102230000D01*
X131333333Y-102277619D01*
X132285714Y-103182380D02*
X131714285Y-103182380D01*
X132000000Y-103182380D02*
X132000000Y-102182380D01*
X131904761Y-102325238D01*
X131809523Y-102420476D01*
X131714285Y-102468095D01*
G04 #@! TO.C,C2*
X128833333Y-85457142D02*
X128785714Y-85504761D01*
X128642857Y-85552380D01*
X128547619Y-85552380D01*
X128404761Y-85504761D01*
X128309523Y-85409523D01*
X128261904Y-85314285D01*
X128214285Y-85123809D01*
X128214285Y-84980952D01*
X128261904Y-84790476D01*
X128309523Y-84695238D01*
X128404761Y-84600000D01*
X128547619Y-84552380D01*
X128642857Y-84552380D01*
X128785714Y-84600000D01*
X128833333Y-84647619D01*
X129214285Y-84647619D02*
X129261904Y-84600000D01*
X129357142Y-84552380D01*
X129595238Y-84552380D01*
X129690476Y-84600000D01*
X129738095Y-84647619D01*
X129785714Y-84742857D01*
X129785714Y-84838095D01*
X129738095Y-84980952D01*
X129166666Y-85552380D01*
X129785714Y-85552380D01*
G04 #@! TO.C,C3*
X124893333Y-103107142D02*
X124845714Y-103154761D01*
X124702857Y-103202380D01*
X124607619Y-103202380D01*
X124464761Y-103154761D01*
X124369523Y-103059523D01*
X124321904Y-102964285D01*
X124274285Y-102773809D01*
X124274285Y-102630952D01*
X124321904Y-102440476D01*
X124369523Y-102345238D01*
X124464761Y-102250000D01*
X124607619Y-102202380D01*
X124702857Y-102202380D01*
X124845714Y-102250000D01*
X124893333Y-102297619D01*
X125226666Y-102202380D02*
X125845714Y-102202380D01*
X125512380Y-102583333D01*
X125655238Y-102583333D01*
X125750476Y-102630952D01*
X125798095Y-102678571D01*
X125845714Y-102773809D01*
X125845714Y-103011904D01*
X125798095Y-103107142D01*
X125750476Y-103154761D01*
X125655238Y-103202380D01*
X125369523Y-103202380D01*
X125274285Y-103154761D01*
X125226666Y-103107142D01*
G04 #@! TO.C,C4*
X114833333Y-104257142D02*
X114785714Y-104304761D01*
X114642857Y-104352380D01*
X114547619Y-104352380D01*
X114404761Y-104304761D01*
X114309523Y-104209523D01*
X114261904Y-104114285D01*
X114214285Y-103923809D01*
X114214285Y-103780952D01*
X114261904Y-103590476D01*
X114309523Y-103495238D01*
X114404761Y-103400000D01*
X114547619Y-103352380D01*
X114642857Y-103352380D01*
X114785714Y-103400000D01*
X114833333Y-103447619D01*
X115690476Y-103685714D02*
X115690476Y-104352380D01*
X115452380Y-103304761D02*
X115214285Y-104019047D01*
X115833333Y-104019047D01*
G04 #@! TO.C,C5*
X122733333Y-103097142D02*
X122685714Y-103144761D01*
X122542857Y-103192380D01*
X122447619Y-103192380D01*
X122304761Y-103144761D01*
X122209523Y-103049523D01*
X122161904Y-102954285D01*
X122114285Y-102763809D01*
X122114285Y-102620952D01*
X122161904Y-102430476D01*
X122209523Y-102335238D01*
X122304761Y-102240000D01*
X122447619Y-102192380D01*
X122542857Y-102192380D01*
X122685714Y-102240000D01*
X122733333Y-102287619D01*
X123638095Y-102192380D02*
X123161904Y-102192380D01*
X123114285Y-102668571D01*
X123161904Y-102620952D01*
X123257142Y-102573333D01*
X123495238Y-102573333D01*
X123590476Y-102620952D01*
X123638095Y-102668571D01*
X123685714Y-102763809D01*
X123685714Y-103001904D01*
X123638095Y-103097142D01*
X123590476Y-103144761D01*
X123495238Y-103192380D01*
X123257142Y-103192380D01*
X123161904Y-103144761D01*
X123114285Y-103097142D01*
G04 #@! TO.C,C6*
X114833333Y-110357142D02*
X114785714Y-110404761D01*
X114642857Y-110452380D01*
X114547619Y-110452380D01*
X114404761Y-110404761D01*
X114309523Y-110309523D01*
X114261904Y-110214285D01*
X114214285Y-110023809D01*
X114214285Y-109880952D01*
X114261904Y-109690476D01*
X114309523Y-109595238D01*
X114404761Y-109500000D01*
X114547619Y-109452380D01*
X114642857Y-109452380D01*
X114785714Y-109500000D01*
X114833333Y-109547619D01*
X115690476Y-109452380D02*
X115500000Y-109452380D01*
X115404761Y-109500000D01*
X115357142Y-109547619D01*
X115261904Y-109690476D01*
X115214285Y-109880952D01*
X115214285Y-110261904D01*
X115261904Y-110357142D01*
X115309523Y-110404761D01*
X115404761Y-110452380D01*
X115595238Y-110452380D01*
X115690476Y-110404761D01*
X115738095Y-110357142D01*
X115785714Y-110261904D01*
X115785714Y-110023809D01*
X115738095Y-109928571D01*
X115690476Y-109880952D01*
X115595238Y-109833333D01*
X115404761Y-109833333D01*
X115309523Y-109880952D01*
X115261904Y-109928571D01*
X115214285Y-110023809D01*
G04 #@! TO.C,C7*
X126333333Y-85357142D02*
X126285714Y-85404761D01*
X126142857Y-85452380D01*
X126047619Y-85452380D01*
X125904761Y-85404761D01*
X125809523Y-85309523D01*
X125761904Y-85214285D01*
X125714285Y-85023809D01*
X125714285Y-84880952D01*
X125761904Y-84690476D01*
X125809523Y-84595238D01*
X125904761Y-84500000D01*
X126047619Y-84452380D01*
X126142857Y-84452380D01*
X126285714Y-84500000D01*
X126333333Y-84547619D01*
X126666666Y-84452380D02*
X127333333Y-84452380D01*
X126904761Y-85452380D01*
G04 #@! TO.C,C8*
X119833333Y-117757142D02*
X119785714Y-117804761D01*
X119642857Y-117852380D01*
X119547619Y-117852380D01*
X119404761Y-117804761D01*
X119309523Y-117709523D01*
X119261904Y-117614285D01*
X119214285Y-117423809D01*
X119214285Y-117280952D01*
X119261904Y-117090476D01*
X119309523Y-116995238D01*
X119404761Y-116900000D01*
X119547619Y-116852380D01*
X119642857Y-116852380D01*
X119785714Y-116900000D01*
X119833333Y-116947619D01*
X120404761Y-117280952D02*
X120309523Y-117233333D01*
X120261904Y-117185714D01*
X120214285Y-117090476D01*
X120214285Y-117042857D01*
X120261904Y-116947619D01*
X120309523Y-116900000D01*
X120404761Y-116852380D01*
X120595238Y-116852380D01*
X120690476Y-116900000D01*
X120738095Y-116947619D01*
X120785714Y-117042857D01*
X120785714Y-117090476D01*
X120738095Y-117185714D01*
X120690476Y-117233333D01*
X120595238Y-117280952D01*
X120404761Y-117280952D01*
X120309523Y-117328571D01*
X120261904Y-117376190D01*
X120214285Y-117471428D01*
X120214285Y-117661904D01*
X120261904Y-117757142D01*
X120309523Y-117804761D01*
X120404761Y-117852380D01*
X120595238Y-117852380D01*
X120690476Y-117804761D01*
X120738095Y-117757142D01*
X120785714Y-117661904D01*
X120785714Y-117471428D01*
X120738095Y-117376190D01*
X120690476Y-117328571D01*
X120595238Y-117280952D01*
G04 #@! TO.C,R1*
X132233333Y-97312380D02*
X131900000Y-96836190D01*
X131661904Y-97312380D02*
X131661904Y-96312380D01*
X132042857Y-96312380D01*
X132138095Y-96360000D01*
X132185714Y-96407619D01*
X132233333Y-96502857D01*
X132233333Y-96645714D01*
X132185714Y-96740952D01*
X132138095Y-96788571D01*
X132042857Y-96836190D01*
X131661904Y-96836190D01*
X133185714Y-97312380D02*
X132614285Y-97312380D01*
X132900000Y-97312380D02*
X132900000Y-96312380D01*
X132804761Y-96455238D01*
X132709523Y-96550476D01*
X132614285Y-96598095D01*
G04 #@! TO.C,R2*
X125133333Y-87732380D02*
X124800000Y-87256190D01*
X124561904Y-87732380D02*
X124561904Y-86732380D01*
X124942857Y-86732380D01*
X125038095Y-86780000D01*
X125085714Y-86827619D01*
X125133333Y-86922857D01*
X125133333Y-87065714D01*
X125085714Y-87160952D01*
X125038095Y-87208571D01*
X124942857Y-87256190D01*
X124561904Y-87256190D01*
X125514285Y-86827619D02*
X125561904Y-86780000D01*
X125657142Y-86732380D01*
X125895238Y-86732380D01*
X125990476Y-86780000D01*
X126038095Y-86827619D01*
X126085714Y-86922857D01*
X126085714Y-87018095D01*
X126038095Y-87160952D01*
X125466666Y-87732380D01*
X126085714Y-87732380D01*
G04 #@! TO.C,R3*
X134933333Y-87752380D02*
X134600000Y-87276190D01*
X134361904Y-87752380D02*
X134361904Y-86752380D01*
X134742857Y-86752380D01*
X134838095Y-86800000D01*
X134885714Y-86847619D01*
X134933333Y-86942857D01*
X134933333Y-87085714D01*
X134885714Y-87180952D01*
X134838095Y-87228571D01*
X134742857Y-87276190D01*
X134361904Y-87276190D01*
X135266666Y-86752380D02*
X135885714Y-86752380D01*
X135552380Y-87133333D01*
X135695238Y-87133333D01*
X135790476Y-87180952D01*
X135838095Y-87228571D01*
X135885714Y-87323809D01*
X135885714Y-87561904D01*
X135838095Y-87657142D01*
X135790476Y-87704761D01*
X135695238Y-87752380D01*
X135409523Y-87752380D01*
X135314285Y-87704761D01*
X135266666Y-87657142D01*
G04 #@! TO.C,R4*
X127833333Y-97352380D02*
X127500000Y-96876190D01*
X127261904Y-97352380D02*
X127261904Y-96352380D01*
X127642857Y-96352380D01*
X127738095Y-96400000D01*
X127785714Y-96447619D01*
X127833333Y-96542857D01*
X127833333Y-96685714D01*
X127785714Y-96780952D01*
X127738095Y-96828571D01*
X127642857Y-96876190D01*
X127261904Y-96876190D01*
X128690476Y-96685714D02*
X128690476Y-97352380D01*
X128452380Y-96304761D02*
X128214285Y-97019047D01*
X128833333Y-97019047D01*
G04 #@! TO.C,R5*
X119833333Y-131722380D02*
X119500000Y-131246190D01*
X119261904Y-131722380D02*
X119261904Y-130722380D01*
X119642857Y-130722380D01*
X119738095Y-130770000D01*
X119785714Y-130817619D01*
X119833333Y-130912857D01*
X119833333Y-131055714D01*
X119785714Y-131150952D01*
X119738095Y-131198571D01*
X119642857Y-131246190D01*
X119261904Y-131246190D01*
X120738095Y-130722380D02*
X120261904Y-130722380D01*
X120214285Y-131198571D01*
X120261904Y-131150952D01*
X120357142Y-131103333D01*
X120595238Y-131103333D01*
X120690476Y-131150952D01*
X120738095Y-131198571D01*
X120785714Y-131293809D01*
X120785714Y-131531904D01*
X120738095Y-131627142D01*
X120690476Y-131674761D01*
X120595238Y-131722380D01*
X120357142Y-131722380D01*
X120261904Y-131674761D01*
X120214285Y-131627142D01*
G04 #@! TO.C,R6*
X106033333Y-92852380D02*
X105700000Y-92376190D01*
X105461904Y-92852380D02*
X105461904Y-91852380D01*
X105842857Y-91852380D01*
X105938095Y-91900000D01*
X105985714Y-91947619D01*
X106033333Y-92042857D01*
X106033333Y-92185714D01*
X105985714Y-92280952D01*
X105938095Y-92328571D01*
X105842857Y-92376190D01*
X105461904Y-92376190D01*
X106890476Y-91852380D02*
X106700000Y-91852380D01*
X106604761Y-91900000D01*
X106557142Y-91947619D01*
X106461904Y-92090476D01*
X106414285Y-92280952D01*
X106414285Y-92661904D01*
X106461904Y-92757142D01*
X106509523Y-92804761D01*
X106604761Y-92852380D01*
X106795238Y-92852380D01*
X106890476Y-92804761D01*
X106938095Y-92757142D01*
X106985714Y-92661904D01*
X106985714Y-92423809D01*
X106938095Y-92328571D01*
X106890476Y-92280952D01*
X106795238Y-92233333D01*
X106604761Y-92233333D01*
X106509523Y-92280952D01*
X106461904Y-92328571D01*
X106414285Y-92423809D01*
G04 #@! TO.C,R7*
X106133333Y-99552380D02*
X105800000Y-99076190D01*
X105561904Y-99552380D02*
X105561904Y-98552380D01*
X105942857Y-98552380D01*
X106038095Y-98600000D01*
X106085714Y-98647619D01*
X106133333Y-98742857D01*
X106133333Y-98885714D01*
X106085714Y-98980952D01*
X106038095Y-99028571D01*
X105942857Y-99076190D01*
X105561904Y-99076190D01*
X106466666Y-98552380D02*
X107133333Y-98552380D01*
X106704761Y-99552380D01*
G04 #@! TO.C,R8*
X108833333Y-117052380D02*
X108500000Y-116576190D01*
X108261904Y-117052380D02*
X108261904Y-116052380D01*
X108642857Y-116052380D01*
X108738095Y-116100000D01*
X108785714Y-116147619D01*
X108833333Y-116242857D01*
X108833333Y-116385714D01*
X108785714Y-116480952D01*
X108738095Y-116528571D01*
X108642857Y-116576190D01*
X108261904Y-116576190D01*
X109404761Y-116480952D02*
X109309523Y-116433333D01*
X109261904Y-116385714D01*
X109214285Y-116290476D01*
X109214285Y-116242857D01*
X109261904Y-116147619D01*
X109309523Y-116100000D01*
X109404761Y-116052380D01*
X109595238Y-116052380D01*
X109690476Y-116100000D01*
X109738095Y-116147619D01*
X109785714Y-116242857D01*
X109785714Y-116290476D01*
X109738095Y-116385714D01*
X109690476Y-116433333D01*
X109595238Y-116480952D01*
X109404761Y-116480952D01*
X109309523Y-116528571D01*
X109261904Y-116576190D01*
X109214285Y-116671428D01*
X109214285Y-116861904D01*
X109261904Y-116957142D01*
X109309523Y-117004761D01*
X109404761Y-117052380D01*
X109595238Y-117052380D01*
X109690476Y-117004761D01*
X109738095Y-116957142D01*
X109785714Y-116861904D01*
X109785714Y-116671428D01*
X109738095Y-116576190D01*
X109690476Y-116528571D01*
X109595238Y-116480952D01*
G04 #@! TO.C,L1*
X129333333Y-103132380D02*
X128857142Y-103132380D01*
X128857142Y-102132380D01*
X130190476Y-103132380D02*
X129619047Y-103132380D01*
X129904761Y-103132380D02*
X129904761Y-102132380D01*
X129809523Y-102275238D01*
X129714285Y-102370476D01*
X129619047Y-102418095D01*
G04 #@! TO.C,L2*
X127033333Y-103162380D02*
X126557142Y-103162380D01*
X126557142Y-102162380D01*
X127319047Y-102257619D02*
X127366666Y-102210000D01*
X127461904Y-102162380D01*
X127700000Y-102162380D01*
X127795238Y-102210000D01*
X127842857Y-102257619D01*
X127890476Y-102352857D01*
X127890476Y-102448095D01*
X127842857Y-102590952D01*
X127271428Y-103162380D01*
X127890476Y-103162380D01*
G04 #@! TO.C,U2*
X119338095Y-90552380D02*
X119338095Y-91361904D01*
X119385714Y-91457142D01*
X119433333Y-91504761D01*
X119528571Y-91552380D01*
X119719047Y-91552380D01*
X119814285Y-91504761D01*
X119861904Y-91457142D01*
X119909523Y-91361904D01*
X119909523Y-90552380D01*
X120338095Y-90647619D02*
X120385714Y-90600000D01*
X120480952Y-90552380D01*
X120719047Y-90552380D01*
X120814285Y-90600000D01*
X120861904Y-90647619D01*
X120909523Y-90742857D01*
X120909523Y-90838095D01*
X120861904Y-90980952D01*
X120290476Y-91552380D01*
X120909523Y-91552380D01*
G04 #@! TO.C,G\002A\002A\002A*
D16*
X101438095Y-88333333D02*
X102961904Y-88333333D01*
X101133333Y-89247619D02*
X102200000Y-86047619D01*
X103266666Y-89247619D01*
X104333333Y-87114285D02*
X104333333Y-90314285D01*
X104333333Y-87266666D02*
X104638095Y-87114285D01*
X105247619Y-87114285D01*
X105552380Y-87266666D01*
X105704761Y-87419047D01*
X105857142Y-87723809D01*
X105857142Y-88638095D01*
X105704761Y-88942857D01*
X105552380Y-89095238D01*
X105247619Y-89247619D01*
X104638095Y-89247619D01*
X104333333Y-89095238D01*
X107228571Y-87114285D02*
X107228571Y-90314285D01*
X107228571Y-87266666D02*
X107533333Y-87114285D01*
X108142857Y-87114285D01*
X108447619Y-87266666D01*
X108600000Y-87419047D01*
X108752380Y-87723809D01*
X108752380Y-88638095D01*
X108600000Y-88942857D01*
X108447619Y-89095238D01*
X108142857Y-89247619D01*
X107533333Y-89247619D01*
X107228571Y-89095238D01*
X110123809Y-89247619D02*
X110123809Y-87114285D01*
X110123809Y-86047619D02*
X109971428Y-86200000D01*
X110123809Y-86352380D01*
X110276190Y-86200000D01*
X110123809Y-86047619D01*
X110123809Y-86352380D01*
X111647619Y-89247619D02*
X111647619Y-86047619D01*
X111952380Y-88028571D02*
X112866666Y-89247619D01*
X112866666Y-87114285D02*
X111647619Y-88333333D01*
X114695238Y-89247619D02*
X114390476Y-89095238D01*
X114238095Y-88942857D01*
X114085714Y-88638095D01*
X114085714Y-87723809D01*
X114238095Y-87419047D01*
X114390476Y-87266666D01*
X114695238Y-87114285D01*
X115152380Y-87114285D01*
X115457142Y-87266666D01*
X115609523Y-87419047D01*
X115761904Y-87723809D01*
X115761904Y-88638095D01*
X115609523Y-88942857D01*
X115457142Y-89095238D01*
X115152380Y-89247619D01*
X114695238Y-89247619D01*
G04 #@! TD*
M02*
