G04 #@! TF.GenerationSoftware,KiCad,Pcbnew,5.1.5-52549c5~84~ubuntu18.04.1*
G04 #@! TF.CreationDate,2020-03-23T20:50:24+05:30*
G04 #@! TF.ProjectId,L80_adapter,4c38305f-6164-4617-9074-65722e6b6963,rev?*
G04 #@! TF.SameCoordinates,Original*
G04 #@! TF.FileFunction,Soldermask,Top*
G04 #@! TF.FilePolarity,Negative*
%FSLAX46Y46*%
G04 Gerber Fmt 4.6, Leading zero omitted, Abs format (unit mm)*
G04 Created by KiCad (PCBNEW 5.1.5-52549c5~84~ubuntu18.04.1) date 2020-03-23 20:50:24*
%MOMM*%
%LPD*%
G04 APERTURE LIST*
%ADD10C,0.100000*%
G04 APERTURE END LIST*
D10*
G36*
X93542674Y-105799789D02*
G01*
X93544471Y-105800335D01*
X93546129Y-105801221D01*
X93547585Y-105802415D01*
X93548779Y-105803871D01*
X93549665Y-105805529D01*
X93550211Y-105807326D01*
X93551000Y-105815341D01*
X93551000Y-106884659D01*
X93550211Y-106892674D01*
X93549665Y-106894471D01*
X93548779Y-106896129D01*
X93547585Y-106897585D01*
X93546129Y-106898779D01*
X93544471Y-106899665D01*
X93542674Y-106900211D01*
X93534659Y-106901000D01*
X90965341Y-106901000D01*
X90957326Y-106900211D01*
X90955529Y-106899665D01*
X90953871Y-106898779D01*
X90952415Y-106897585D01*
X90951221Y-106896129D01*
X90950335Y-106894471D01*
X90949789Y-106892674D01*
X90949000Y-106884659D01*
X90949000Y-105815341D01*
X90949789Y-105807326D01*
X90950335Y-105805529D01*
X90951221Y-105803871D01*
X90952415Y-105802415D01*
X90953871Y-105801221D01*
X90955529Y-105800335D01*
X90957326Y-105799789D01*
X90965341Y-105799000D01*
X93534659Y-105799000D01*
X93542674Y-105799789D01*
G37*
G36*
X109042674Y-105799789D02*
G01*
X109044471Y-105800335D01*
X109046129Y-105801221D01*
X109047585Y-105802415D01*
X109048779Y-105803871D01*
X109049665Y-105805529D01*
X109050211Y-105807326D01*
X109051000Y-105815341D01*
X109051000Y-106884659D01*
X109050211Y-106892674D01*
X109049665Y-106894471D01*
X109048779Y-106896129D01*
X109047585Y-106897585D01*
X109046129Y-106898779D01*
X109044471Y-106899665D01*
X109042674Y-106900211D01*
X109034659Y-106901000D01*
X106465341Y-106901000D01*
X106457326Y-106900211D01*
X106455529Y-106899665D01*
X106453871Y-106898779D01*
X106452415Y-106897585D01*
X106451221Y-106896129D01*
X106450335Y-106894471D01*
X106449789Y-106892674D01*
X106449000Y-106884659D01*
X106449000Y-105815341D01*
X106449789Y-105807326D01*
X106450335Y-105805529D01*
X106451221Y-105803871D01*
X106452415Y-105802415D01*
X106453871Y-105801221D01*
X106455529Y-105800335D01*
X106457326Y-105799789D01*
X106465341Y-105799000D01*
X109034659Y-105799000D01*
X109042674Y-105799789D01*
G37*
G36*
X109042674Y-103259789D02*
G01*
X109044471Y-103260335D01*
X109046129Y-103261221D01*
X109047585Y-103262415D01*
X109048779Y-103263871D01*
X109049665Y-103265529D01*
X109050211Y-103267326D01*
X109051000Y-103275341D01*
X109051000Y-104344659D01*
X109050211Y-104352674D01*
X109049665Y-104354471D01*
X109048779Y-104356129D01*
X109047585Y-104357585D01*
X109046129Y-104358779D01*
X109044471Y-104359665D01*
X109042674Y-104360211D01*
X109034659Y-104361000D01*
X106465341Y-104361000D01*
X106457326Y-104360211D01*
X106455529Y-104359665D01*
X106453871Y-104358779D01*
X106452415Y-104357585D01*
X106451221Y-104356129D01*
X106450335Y-104354471D01*
X106449789Y-104352674D01*
X106449000Y-104344659D01*
X106449000Y-103275341D01*
X106449789Y-103267326D01*
X106450335Y-103265529D01*
X106451221Y-103263871D01*
X106452415Y-103262415D01*
X106453871Y-103261221D01*
X106455529Y-103260335D01*
X106457326Y-103259789D01*
X106465341Y-103259000D01*
X109034659Y-103259000D01*
X109042674Y-103259789D01*
G37*
G36*
X93542674Y-103259789D02*
G01*
X93544471Y-103260335D01*
X93546129Y-103261221D01*
X93547585Y-103262415D01*
X93548779Y-103263871D01*
X93549665Y-103265529D01*
X93550211Y-103267326D01*
X93551000Y-103275341D01*
X93551000Y-104344659D01*
X93550211Y-104352674D01*
X93549665Y-104354471D01*
X93548779Y-104356129D01*
X93547585Y-104357585D01*
X93546129Y-104358779D01*
X93544471Y-104359665D01*
X93542674Y-104360211D01*
X93534659Y-104361000D01*
X90965341Y-104361000D01*
X90957326Y-104360211D01*
X90955529Y-104359665D01*
X90953871Y-104358779D01*
X90952415Y-104357585D01*
X90951221Y-104356129D01*
X90950335Y-104354471D01*
X90949789Y-104352674D01*
X90949000Y-104344659D01*
X90949000Y-103275341D01*
X90949789Y-103267326D01*
X90950335Y-103265529D01*
X90951221Y-103263871D01*
X90952415Y-103262415D01*
X90953871Y-103261221D01*
X90955529Y-103260335D01*
X90957326Y-103259789D01*
X90965341Y-103259000D01*
X93534659Y-103259000D01*
X93542674Y-103259789D01*
G37*
G36*
X109042674Y-100719789D02*
G01*
X109044471Y-100720335D01*
X109046129Y-100721221D01*
X109047585Y-100722415D01*
X109048779Y-100723871D01*
X109049665Y-100725529D01*
X109050211Y-100727326D01*
X109051000Y-100735341D01*
X109051000Y-101804659D01*
X109050211Y-101812674D01*
X109049665Y-101814471D01*
X109048779Y-101816129D01*
X109047585Y-101817585D01*
X109046129Y-101818779D01*
X109044471Y-101819665D01*
X109042674Y-101820211D01*
X109034659Y-101821000D01*
X106465341Y-101821000D01*
X106457326Y-101820211D01*
X106455529Y-101819665D01*
X106453871Y-101818779D01*
X106452415Y-101817585D01*
X106451221Y-101816129D01*
X106450335Y-101814471D01*
X106449789Y-101812674D01*
X106449000Y-101804659D01*
X106449000Y-100735341D01*
X106449789Y-100727326D01*
X106450335Y-100725529D01*
X106451221Y-100723871D01*
X106452415Y-100722415D01*
X106453871Y-100721221D01*
X106455529Y-100720335D01*
X106457326Y-100719789D01*
X106465341Y-100719000D01*
X109034659Y-100719000D01*
X109042674Y-100719789D01*
G37*
G36*
X93542674Y-100719789D02*
G01*
X93544471Y-100720335D01*
X93546129Y-100721221D01*
X93547585Y-100722415D01*
X93548779Y-100723871D01*
X93549665Y-100725529D01*
X93550211Y-100727326D01*
X93551000Y-100735341D01*
X93551000Y-101804659D01*
X93550211Y-101812674D01*
X93549665Y-101814471D01*
X93548779Y-101816129D01*
X93547585Y-101817585D01*
X93546129Y-101818779D01*
X93544471Y-101819665D01*
X93542674Y-101820211D01*
X93534659Y-101821000D01*
X90965341Y-101821000D01*
X90957326Y-101820211D01*
X90955529Y-101819665D01*
X90953871Y-101818779D01*
X90952415Y-101817585D01*
X90951221Y-101816129D01*
X90950335Y-101814471D01*
X90949789Y-101812674D01*
X90949000Y-101804659D01*
X90949000Y-100735341D01*
X90949789Y-100727326D01*
X90950335Y-100725529D01*
X90951221Y-100723871D01*
X90952415Y-100722415D01*
X90953871Y-100721221D01*
X90955529Y-100720335D01*
X90957326Y-100719789D01*
X90965341Y-100719000D01*
X93534659Y-100719000D01*
X93542674Y-100719789D01*
G37*
G36*
X100379487Y-98748996D02*
G01*
X100616253Y-98847068D01*
X100616255Y-98847069D01*
X100829339Y-98989447D01*
X101010553Y-99170661D01*
X101082865Y-99278883D01*
X101152932Y-99383747D01*
X101251004Y-99620513D01*
X101301000Y-99871861D01*
X101301000Y-100128139D01*
X101251004Y-100379487D01*
X101152932Y-100616253D01*
X101152931Y-100616255D01*
X101010553Y-100829339D01*
X100829339Y-101010553D01*
X100616255Y-101152931D01*
X100616254Y-101152932D01*
X100616253Y-101152932D01*
X100379487Y-101251004D01*
X100128139Y-101301000D01*
X99871861Y-101301000D01*
X99620513Y-101251004D01*
X99383747Y-101152932D01*
X99383746Y-101152932D01*
X99383745Y-101152931D01*
X99170661Y-101010553D01*
X98989447Y-100829339D01*
X98847069Y-100616255D01*
X98847068Y-100616253D01*
X98748996Y-100379487D01*
X98699000Y-100128139D01*
X98699000Y-99871861D01*
X98748996Y-99620513D01*
X98847068Y-99383747D01*
X98917136Y-99278883D01*
X98989447Y-99170661D01*
X99170661Y-98989447D01*
X99383745Y-98847069D01*
X99383747Y-98847068D01*
X99620513Y-98748996D01*
X99871861Y-98699000D01*
X100128139Y-98699000D01*
X100379487Y-98748996D01*
G37*
G36*
X93542674Y-98179789D02*
G01*
X93544471Y-98180335D01*
X93546129Y-98181221D01*
X93547585Y-98182415D01*
X93548779Y-98183871D01*
X93549665Y-98185529D01*
X93550211Y-98187326D01*
X93551000Y-98195341D01*
X93551000Y-99264659D01*
X93550211Y-99272674D01*
X93549665Y-99274471D01*
X93548779Y-99276129D01*
X93547585Y-99277585D01*
X93546129Y-99278779D01*
X93544471Y-99279665D01*
X93542674Y-99280211D01*
X93534659Y-99281000D01*
X90965341Y-99281000D01*
X90957326Y-99280211D01*
X90955529Y-99279665D01*
X90953871Y-99278779D01*
X90952415Y-99277585D01*
X90951221Y-99276129D01*
X90950335Y-99274471D01*
X90949789Y-99272674D01*
X90949000Y-99264659D01*
X90949000Y-98195341D01*
X90949789Y-98187326D01*
X90950335Y-98185529D01*
X90951221Y-98183871D01*
X90952415Y-98182415D01*
X90953871Y-98181221D01*
X90955529Y-98180335D01*
X90957326Y-98179789D01*
X90965341Y-98179000D01*
X93534659Y-98179000D01*
X93542674Y-98179789D01*
G37*
G36*
X109042674Y-98179789D02*
G01*
X109044471Y-98180335D01*
X109046129Y-98181221D01*
X109047585Y-98182415D01*
X109048779Y-98183871D01*
X109049665Y-98185529D01*
X109050211Y-98187326D01*
X109051000Y-98195341D01*
X109051000Y-99264659D01*
X109050211Y-99272674D01*
X109049665Y-99274471D01*
X109048779Y-99276129D01*
X109047585Y-99277585D01*
X109046129Y-99278779D01*
X109044471Y-99279665D01*
X109042674Y-99280211D01*
X109034659Y-99281000D01*
X106465341Y-99281000D01*
X106457326Y-99280211D01*
X106455529Y-99279665D01*
X106453871Y-99278779D01*
X106452415Y-99277585D01*
X106451221Y-99276129D01*
X106450335Y-99274471D01*
X106449789Y-99272674D01*
X106449000Y-99264659D01*
X106449000Y-98195341D01*
X106449789Y-98187326D01*
X106450335Y-98185529D01*
X106451221Y-98183871D01*
X106452415Y-98182415D01*
X106453871Y-98181221D01*
X106455529Y-98180335D01*
X106457326Y-98179789D01*
X106465341Y-98179000D01*
X109034659Y-98179000D01*
X109042674Y-98179789D01*
G37*
G36*
X93542674Y-95639789D02*
G01*
X93544471Y-95640335D01*
X93546129Y-95641221D01*
X93547585Y-95642415D01*
X93548779Y-95643871D01*
X93549665Y-95645529D01*
X93550211Y-95647326D01*
X93551000Y-95655341D01*
X93551000Y-96724659D01*
X93550211Y-96732674D01*
X93549665Y-96734471D01*
X93548779Y-96736129D01*
X93547585Y-96737585D01*
X93546129Y-96738779D01*
X93544471Y-96739665D01*
X93542674Y-96740211D01*
X93534659Y-96741000D01*
X90965341Y-96741000D01*
X90957326Y-96740211D01*
X90955529Y-96739665D01*
X90953871Y-96738779D01*
X90952415Y-96737585D01*
X90951221Y-96736129D01*
X90950335Y-96734471D01*
X90949789Y-96732674D01*
X90949000Y-96724659D01*
X90949000Y-95655341D01*
X90949789Y-95647326D01*
X90950335Y-95645529D01*
X90951221Y-95643871D01*
X90952415Y-95642415D01*
X90953871Y-95641221D01*
X90955529Y-95640335D01*
X90957326Y-95639789D01*
X90965341Y-95639000D01*
X93534659Y-95639000D01*
X93542674Y-95639789D01*
G37*
G36*
X109042674Y-95639789D02*
G01*
X109044471Y-95640335D01*
X109046129Y-95641221D01*
X109047585Y-95642415D01*
X109048779Y-95643871D01*
X109049665Y-95645529D01*
X109050211Y-95647326D01*
X109051000Y-95655341D01*
X109051000Y-96724659D01*
X109050211Y-96732674D01*
X109049665Y-96734471D01*
X109048779Y-96736129D01*
X109047585Y-96737585D01*
X109046129Y-96738779D01*
X109044471Y-96739665D01*
X109042674Y-96740211D01*
X109034659Y-96741000D01*
X106465341Y-96741000D01*
X106457326Y-96740211D01*
X106455529Y-96739665D01*
X106453871Y-96738779D01*
X106452415Y-96737585D01*
X106451221Y-96736129D01*
X106450335Y-96734471D01*
X106449789Y-96732674D01*
X106449000Y-96724659D01*
X106449000Y-95655341D01*
X106449789Y-95647326D01*
X106450335Y-95645529D01*
X106451221Y-95643871D01*
X106452415Y-95642415D01*
X106453871Y-95641221D01*
X106455529Y-95640335D01*
X106457326Y-95639789D01*
X106465341Y-95639000D01*
X109034659Y-95639000D01*
X109042674Y-95639789D01*
G37*
G36*
X93542674Y-93099789D02*
G01*
X93544471Y-93100335D01*
X93546129Y-93101221D01*
X93547585Y-93102415D01*
X93548779Y-93103871D01*
X93549665Y-93105529D01*
X93550211Y-93107326D01*
X93551000Y-93115341D01*
X93551000Y-94184659D01*
X93550211Y-94192674D01*
X93549665Y-94194471D01*
X93548779Y-94196129D01*
X93547585Y-94197585D01*
X93546129Y-94198779D01*
X93544471Y-94199665D01*
X93542674Y-94200211D01*
X93534659Y-94201000D01*
X90965341Y-94201000D01*
X90957326Y-94200211D01*
X90955529Y-94199665D01*
X90953871Y-94198779D01*
X90952415Y-94197585D01*
X90951221Y-94196129D01*
X90950335Y-94194471D01*
X90949789Y-94192674D01*
X90949000Y-94184659D01*
X90949000Y-93115341D01*
X90949789Y-93107326D01*
X90950335Y-93105529D01*
X90951221Y-93103871D01*
X90952415Y-93102415D01*
X90953871Y-93101221D01*
X90955529Y-93100335D01*
X90957326Y-93099789D01*
X90965341Y-93099000D01*
X93534659Y-93099000D01*
X93542674Y-93099789D01*
G37*
G36*
X109042674Y-93099789D02*
G01*
X109044471Y-93100335D01*
X109046129Y-93101221D01*
X109047585Y-93102415D01*
X109048779Y-93103871D01*
X109049665Y-93105529D01*
X109050211Y-93107326D01*
X109051000Y-93115341D01*
X109051000Y-94184659D01*
X109050211Y-94192674D01*
X109049665Y-94194471D01*
X109048779Y-94196129D01*
X109047585Y-94197585D01*
X109046129Y-94198779D01*
X109044471Y-94199665D01*
X109042674Y-94200211D01*
X109034659Y-94201000D01*
X106465341Y-94201000D01*
X106457326Y-94200211D01*
X106455529Y-94199665D01*
X106453871Y-94198779D01*
X106452415Y-94197585D01*
X106451221Y-94196129D01*
X106450335Y-94194471D01*
X106449789Y-94192674D01*
X106449000Y-94184659D01*
X106449000Y-93115341D01*
X106449789Y-93107326D01*
X106450335Y-93105529D01*
X106451221Y-93103871D01*
X106452415Y-93102415D01*
X106453871Y-93101221D01*
X106455529Y-93100335D01*
X106457326Y-93099789D01*
X106465341Y-93099000D01*
X109034659Y-93099000D01*
X109042674Y-93099789D01*
G37*
M02*
