G04 #@! TF.GenerationSoftware,KiCad,Pcbnew,5.0.1-33cea8e~68~ubuntu16.04.1*
G04 #@! TF.CreationDate,2018-11-29T19:17:26+05:30*
G04 #@! TF.ProjectId,senseBeTx_rev2,73656E7365426554785F726576322E6B,rev?*
G04 #@! TF.SameCoordinates,Original*
G04 #@! TF.FileFunction,Copper,L2,Bot,Signal*
G04 #@! TF.FilePolarity,Positive*
%FSLAX46Y46*%
G04 Gerber Fmt 4.6, Leading zero omitted, Abs format (unit mm)*
G04 Created by KiCad (PCBNEW 5.0.1-33cea8e~68~ubuntu16.04.1) date Thu Nov 29 19:17:26 2018*
%MOMM*%
%LPD*%
G01*
G04 APERTURE LIST*
G04 #@! TA.AperFunction,ComponentPad*
%ADD10C,3.000000*%
G04 #@! TD*
G04 #@! TA.AperFunction,ComponentPad*
%ADD11R,1.800000X1.800000*%
G04 #@! TD*
G04 #@! TA.AperFunction,ComponentPad*
%ADD12C,1.800000*%
G04 #@! TD*
G04 #@! TA.AperFunction,ComponentPad*
%ADD13C,1.000000*%
G04 #@! TD*
G04 #@! TA.AperFunction,ComponentPad*
%ADD14C,2.000000*%
G04 #@! TD*
G04 #@! TA.AperFunction,ViaPad*
%ADD15C,0.800000*%
G04 #@! TD*
G04 #@! TA.AperFunction,Conductor*
%ADD16C,0.250000*%
G04 #@! TD*
G04 #@! TA.AperFunction,Conductor*
%ADD17C,0.254000*%
G04 #@! TD*
G04 APERTURE END LIST*
D10*
G04 #@! TO.P,BT1,1*
G04 #@! TO.N,Net-(BT1-Pad1)*
X47000000Y-122000000D03*
G04 #@! TO.P,BT1,2*
G04 #@! TO.N,GND*
X42000000Y-122000000D03*
G04 #@! TD*
D11*
G04 #@! TO.P,D1,1*
G04 #@! TO.N,VDD*
X34300000Y-129500000D03*
D12*
G04 #@! TO.P,D1,2*
G04 #@! TO.N,/LIGHT_SENSE*
X31760000Y-129500000D03*
G04 #@! TD*
D11*
G04 #@! TO.P,D3,1*
G04 #@! TO.N,Net-(D3-Pad1)*
X31700000Y-139000000D03*
D12*
G04 #@! TO.P,D3,2*
G04 #@! TO.N,VDD*
X34240000Y-139000000D03*
G04 #@! TD*
D13*
G04 #@! TO.P,Y1,1*
G04 #@! TO.N,/RCC_OSC32_IN*
X16800000Y-163300000D03*
G04 #@! TO.P,Y1,2*
G04 #@! TO.N,/RCC_OSC32_OUT*
X18700000Y-163300000D03*
G04 #@! TD*
D14*
G04 #@! TO.P,SW1,2*
G04 #@! TO.N,/BUTTON*
X36300000Y-168500000D03*
G04 #@! TO.P,SW1,1*
G04 #@! TO.N,GND*
X36300000Y-173000000D03*
G04 #@! TO.P,SW1,2*
G04 #@! TO.N,/BUTTON*
X29800000Y-168500000D03*
G04 #@! TO.P,SW1,1*
G04 #@! TO.N,GND*
X29800000Y-173000000D03*
G04 #@! TD*
D15*
G04 #@! TO.N,GND*
X18000000Y-148900000D03*
X15600000Y-161700000D03*
X49300000Y-139500000D03*
X31400000Y-151700000D03*
X39100000Y-151700000D03*
X48700000Y-162000000D03*
X20600000Y-186900000D03*
X22200000Y-165100000D03*
X17000000Y-140900000D03*
X17000000Y-134500000D03*
X17000000Y-127900000D03*
G04 #@! TO.N,VDD*
X46000000Y-147700000D03*
X15400000Y-150300000D03*
X34600000Y-181400000D03*
X46000000Y-155600000D03*
G04 #@! TO.N,/SYS_SWDIO*
X28200000Y-157200003D03*
X43100000Y-151800000D03*
G04 #@! TO.N,/SYS_SWDCLK*
X43400000Y-154400000D03*
X16100000Y-155800000D03*
G04 #@! TO.N,/RESET*
X18800000Y-161700000D03*
X43400000Y-156900000D03*
G04 #@! TO.N,/LEDIR_CNTRL1*
X28200000Y-156200000D03*
X28200000Y-153300000D03*
G04 #@! TO.N,/LED_RED*
X23200000Y-159900000D03*
X15700000Y-178400000D03*
G04 #@! TO.N,/LED_GREEN*
X14175000Y-153900000D03*
X23200000Y-153900000D03*
G04 #@! TD*
D16*
G04 #@! TO.N,GND*
X29800000Y-173000000D02*
X36300000Y-173000000D01*
G04 #@! TO.N,VDD*
X37300000Y-139000000D02*
X34240000Y-139000000D01*
X46000000Y-147700000D02*
X37300000Y-139000000D01*
X34240000Y-129560000D02*
X34300000Y-129500000D01*
X34240000Y-139000000D02*
X34240000Y-129560000D01*
X15400000Y-150300000D02*
X33500000Y-150300000D01*
X34240000Y-149560000D02*
X34240000Y-139000000D01*
X33500000Y-150300000D02*
X34240000Y-149560000D01*
X46500000Y-181400000D02*
X34600000Y-181400000D01*
X49600000Y-181400000D02*
X46500000Y-181400000D01*
X46000000Y-155600000D02*
X50400000Y-155600000D01*
X51500000Y-156700000D02*
X51500000Y-179500000D01*
X50400000Y-155600000D02*
X51500000Y-156700000D01*
X51500000Y-179500000D02*
X49600000Y-181400000D01*
G04 #@! TO.N,/SYS_SWDIO*
X28200000Y-157200003D02*
X29799997Y-157200003D01*
X29799997Y-157200003D02*
X31700000Y-155300000D01*
X39600000Y-155300000D02*
X43100000Y-151800000D01*
X31700000Y-155300000D02*
X39600000Y-155300000D01*
G04 #@! TO.N,/SYS_SWDCLK*
X43400000Y-154400000D02*
X39400000Y-158400000D01*
X18700000Y-158400000D02*
X16100000Y-155800000D01*
X39400000Y-158400000D02*
X18700000Y-158400000D01*
G04 #@! TO.N,/RESET*
X18800000Y-161700000D02*
X42400000Y-161700000D01*
X43400000Y-160700000D02*
X43400000Y-156900000D01*
X42400000Y-161700000D02*
X43400000Y-160700000D01*
G04 #@! TO.N,/LEDIR_CNTRL1*
X28200000Y-156200000D02*
X28200000Y-153300000D01*
G04 #@! TO.N,/LED_RED*
X23200000Y-159900000D02*
X15000000Y-159900000D01*
X15000000Y-159900000D02*
X14700000Y-160200000D01*
X14700000Y-177400000D02*
X15700000Y-178400000D01*
X14700000Y-160200000D02*
X14700000Y-177400000D01*
G04 #@! TO.N,/LED_GREEN*
X14175000Y-153900000D02*
X23200000Y-153900000D01*
G04 #@! TD*
D17*
G04 #@! TO.N,GND*
G36*
X52290000Y-196290000D02*
X13710000Y-196290000D01*
X13710000Y-191555431D01*
X30765000Y-191555431D01*
X30765000Y-192444569D01*
X31105259Y-193266026D01*
X31733974Y-193894741D01*
X32555431Y-194235000D01*
X33444569Y-194235000D01*
X34266026Y-193894741D01*
X34894741Y-193266026D01*
X35235000Y-192444569D01*
X35235000Y-191555431D01*
X34894741Y-190733974D01*
X34266026Y-190105259D01*
X33444569Y-189765000D01*
X32555431Y-189765000D01*
X31733974Y-190105259D01*
X31105259Y-190733974D01*
X30765000Y-191555431D01*
X13710000Y-191555431D01*
X13710000Y-181194126D01*
X33565000Y-181194126D01*
X33565000Y-181605874D01*
X33722569Y-181986280D01*
X34013720Y-182277431D01*
X34394126Y-182435000D01*
X34805874Y-182435000D01*
X35186280Y-182277431D01*
X35303711Y-182160000D01*
X49525153Y-182160000D01*
X49600000Y-182174888D01*
X49674847Y-182160000D01*
X49674852Y-182160000D01*
X49896537Y-182115904D01*
X50147929Y-181947929D01*
X50190331Y-181884470D01*
X51984473Y-180090329D01*
X52047929Y-180047929D01*
X52090924Y-179983582D01*
X52215904Y-179796538D01*
X52225480Y-179748395D01*
X52260000Y-179574852D01*
X52260000Y-179574848D01*
X52274888Y-179500000D01*
X52260000Y-179425152D01*
X52260000Y-156774847D01*
X52274888Y-156700000D01*
X52260000Y-156625153D01*
X52260000Y-156625148D01*
X52215904Y-156403463D01*
X52047929Y-156152071D01*
X51984473Y-156109671D01*
X50990331Y-155115530D01*
X50947929Y-155052071D01*
X50696537Y-154884096D01*
X50474852Y-154840000D01*
X50474847Y-154840000D01*
X50400000Y-154825112D01*
X50325153Y-154840000D01*
X46703711Y-154840000D01*
X46586280Y-154722569D01*
X46205874Y-154565000D01*
X45794126Y-154565000D01*
X45413720Y-154722569D01*
X45122569Y-155013720D01*
X44965000Y-155394126D01*
X44965000Y-155805874D01*
X45122569Y-156186280D01*
X45413720Y-156477431D01*
X45794126Y-156635000D01*
X46205874Y-156635000D01*
X46586280Y-156477431D01*
X46703711Y-156360000D01*
X50085199Y-156360000D01*
X50740000Y-157014802D01*
X50740001Y-179185197D01*
X49285199Y-180640000D01*
X35303711Y-180640000D01*
X35186280Y-180522569D01*
X34805874Y-180365000D01*
X34394126Y-180365000D01*
X34013720Y-180522569D01*
X33722569Y-180813720D01*
X33565000Y-181194126D01*
X13710000Y-181194126D01*
X13710000Y-160200000D01*
X13925112Y-160200000D01*
X13940000Y-160274847D01*
X13940001Y-177325148D01*
X13925112Y-177400000D01*
X13940001Y-177474852D01*
X13984097Y-177696537D01*
X14152072Y-177947929D01*
X14215528Y-177990329D01*
X14665000Y-178439802D01*
X14665000Y-178605874D01*
X14822569Y-178986280D01*
X15113720Y-179277431D01*
X15494126Y-179435000D01*
X15905874Y-179435000D01*
X16286280Y-179277431D01*
X16577431Y-178986280D01*
X16735000Y-178605874D01*
X16735000Y-178194126D01*
X16577431Y-177813720D01*
X16286280Y-177522569D01*
X15905874Y-177365000D01*
X15739802Y-177365000D01*
X15460000Y-177085199D01*
X15460000Y-174152532D01*
X28827073Y-174152532D01*
X28925736Y-174419387D01*
X29535461Y-174645908D01*
X30185460Y-174621856D01*
X30674264Y-174419387D01*
X30772927Y-174152532D01*
X35327073Y-174152532D01*
X35425736Y-174419387D01*
X36035461Y-174645908D01*
X36685460Y-174621856D01*
X37174264Y-174419387D01*
X37272927Y-174152532D01*
X36300000Y-173179605D01*
X35327073Y-174152532D01*
X30772927Y-174152532D01*
X29800000Y-173179605D01*
X28827073Y-174152532D01*
X15460000Y-174152532D01*
X15460000Y-172735461D01*
X28154092Y-172735461D01*
X28178144Y-173385460D01*
X28380613Y-173874264D01*
X28647468Y-173972927D01*
X29620395Y-173000000D01*
X29979605Y-173000000D01*
X30952532Y-173972927D01*
X31219387Y-173874264D01*
X31445908Y-173264539D01*
X31426331Y-172735461D01*
X34654092Y-172735461D01*
X34678144Y-173385460D01*
X34880613Y-173874264D01*
X35147468Y-173972927D01*
X36120395Y-173000000D01*
X36479605Y-173000000D01*
X37452532Y-173972927D01*
X37719387Y-173874264D01*
X37945908Y-173264539D01*
X37921856Y-172614540D01*
X37719387Y-172125736D01*
X37452532Y-172027073D01*
X36479605Y-173000000D01*
X36120395Y-173000000D01*
X35147468Y-172027073D01*
X34880613Y-172125736D01*
X34654092Y-172735461D01*
X31426331Y-172735461D01*
X31421856Y-172614540D01*
X31219387Y-172125736D01*
X30952532Y-172027073D01*
X29979605Y-173000000D01*
X29620395Y-173000000D01*
X28647468Y-172027073D01*
X28380613Y-172125736D01*
X28154092Y-172735461D01*
X15460000Y-172735461D01*
X15460000Y-171847468D01*
X28827073Y-171847468D01*
X29800000Y-172820395D01*
X30772927Y-171847468D01*
X35327073Y-171847468D01*
X36300000Y-172820395D01*
X37272927Y-171847468D01*
X37174264Y-171580613D01*
X36564539Y-171354092D01*
X35914540Y-171378144D01*
X35425736Y-171580613D01*
X35327073Y-171847468D01*
X30772927Y-171847468D01*
X30674264Y-171580613D01*
X30064539Y-171354092D01*
X29414540Y-171378144D01*
X28925736Y-171580613D01*
X28827073Y-171847468D01*
X15460000Y-171847468D01*
X15460000Y-168174778D01*
X28165000Y-168174778D01*
X28165000Y-168825222D01*
X28413914Y-169426153D01*
X28873847Y-169886086D01*
X29474778Y-170135000D01*
X30125222Y-170135000D01*
X30726153Y-169886086D01*
X31186086Y-169426153D01*
X31435000Y-168825222D01*
X31435000Y-168174778D01*
X34665000Y-168174778D01*
X34665000Y-168825222D01*
X34913914Y-169426153D01*
X35373847Y-169886086D01*
X35974778Y-170135000D01*
X36625222Y-170135000D01*
X37226153Y-169886086D01*
X37686086Y-169426153D01*
X37935000Y-168825222D01*
X37935000Y-168174778D01*
X37686086Y-167573847D01*
X37226153Y-167113914D01*
X36625222Y-166865000D01*
X35974778Y-166865000D01*
X35373847Y-167113914D01*
X34913914Y-167573847D01*
X34665000Y-168174778D01*
X31435000Y-168174778D01*
X31186086Y-167573847D01*
X30726153Y-167113914D01*
X30125222Y-166865000D01*
X29474778Y-166865000D01*
X28873847Y-167113914D01*
X28413914Y-167573847D01*
X28165000Y-168174778D01*
X15460000Y-168174778D01*
X15460000Y-160660000D01*
X22496289Y-160660000D01*
X22613720Y-160777431D01*
X22994126Y-160935000D01*
X23405874Y-160935000D01*
X23786280Y-160777431D01*
X24077431Y-160486280D01*
X24235000Y-160105874D01*
X24235000Y-159694126D01*
X24077431Y-159313720D01*
X23923711Y-159160000D01*
X39325153Y-159160000D01*
X39400000Y-159174888D01*
X39474847Y-159160000D01*
X39474852Y-159160000D01*
X39696537Y-159115904D01*
X39947929Y-158947929D01*
X39990331Y-158884470D01*
X42495337Y-156379465D01*
X42365000Y-156694126D01*
X42365000Y-157105874D01*
X42522569Y-157486280D01*
X42640001Y-157603712D01*
X42640000Y-160385198D01*
X42085199Y-160940000D01*
X19503711Y-160940000D01*
X19386280Y-160822569D01*
X19005874Y-160665000D01*
X18594126Y-160665000D01*
X18213720Y-160822569D01*
X17922569Y-161113720D01*
X17765000Y-161494126D01*
X17765000Y-161905874D01*
X17922569Y-162286280D01*
X18015578Y-162379289D01*
X17750000Y-162644867D01*
X17442926Y-162337793D01*
X17025766Y-162165000D01*
X16574234Y-162165000D01*
X16157074Y-162337793D01*
X15837793Y-162657074D01*
X15665000Y-163074234D01*
X15665000Y-163525766D01*
X15837793Y-163942926D01*
X16157074Y-164262207D01*
X16574234Y-164435000D01*
X17025766Y-164435000D01*
X17442926Y-164262207D01*
X17750000Y-163955133D01*
X18057074Y-164262207D01*
X18474234Y-164435000D01*
X18925766Y-164435000D01*
X19265605Y-164294234D01*
X43595000Y-164294234D01*
X43595000Y-164745766D01*
X43767793Y-165162926D01*
X44087074Y-165482207D01*
X44504234Y-165655000D01*
X44955766Y-165655000D01*
X45372926Y-165482207D01*
X45692207Y-165162926D01*
X45865000Y-164745766D01*
X45865000Y-164294234D01*
X45692207Y-163877074D01*
X45372926Y-163557793D01*
X44955766Y-163385000D01*
X44504234Y-163385000D01*
X44087074Y-163557793D01*
X43767793Y-163877074D01*
X43595000Y-164294234D01*
X19265605Y-164294234D01*
X19342926Y-164262207D01*
X19662207Y-163942926D01*
X19835000Y-163525766D01*
X19835000Y-163074234D01*
X19662207Y-162657074D01*
X19484422Y-162479289D01*
X19503711Y-162460000D01*
X42325153Y-162460000D01*
X42400000Y-162474888D01*
X42474847Y-162460000D01*
X42474852Y-162460000D01*
X42696537Y-162415904D01*
X42947929Y-162247929D01*
X42990331Y-162184470D01*
X43884473Y-161290329D01*
X43947929Y-161247929D01*
X44115904Y-160996537D01*
X44160000Y-160774852D01*
X44160000Y-160774848D01*
X44174888Y-160700000D01*
X44160000Y-160625152D01*
X44160000Y-157603711D01*
X44277431Y-157486280D01*
X44435000Y-157105874D01*
X44435000Y-156694126D01*
X44277431Y-156313720D01*
X43986280Y-156022569D01*
X43605874Y-155865000D01*
X43194126Y-155865000D01*
X42879465Y-155995336D01*
X43439802Y-155435000D01*
X43605874Y-155435000D01*
X43986280Y-155277431D01*
X44277431Y-154986280D01*
X44435000Y-154605874D01*
X44435000Y-154194126D01*
X44277431Y-153813720D01*
X43986280Y-153522569D01*
X43605874Y-153365000D01*
X43194126Y-153365000D01*
X42813720Y-153522569D01*
X42522569Y-153813720D01*
X42365000Y-154194126D01*
X42365000Y-154360198D01*
X39085199Y-157640000D01*
X34179897Y-157640000D01*
X34335000Y-157265548D01*
X34335000Y-156734452D01*
X34131758Y-156243783D01*
X33947975Y-156060000D01*
X39525153Y-156060000D01*
X39600000Y-156074888D01*
X39674847Y-156060000D01*
X39674852Y-156060000D01*
X39896537Y-156015904D01*
X40147929Y-155847929D01*
X40190331Y-155784470D01*
X43139803Y-152835000D01*
X43305874Y-152835000D01*
X43686280Y-152677431D01*
X43977431Y-152386280D01*
X44135000Y-152005874D01*
X44135000Y-151594126D01*
X43977431Y-151213720D01*
X43686280Y-150922569D01*
X43305874Y-150765000D01*
X42894126Y-150765000D01*
X42513720Y-150922569D01*
X42222569Y-151213720D01*
X42065000Y-151594126D01*
X42065000Y-151760197D01*
X39285199Y-154540000D01*
X31774846Y-154540000D01*
X31699999Y-154525112D01*
X31625152Y-154540000D01*
X31625148Y-154540000D01*
X31403463Y-154584096D01*
X31152071Y-154752071D01*
X31109671Y-154815527D01*
X29485196Y-156440003D01*
X29220863Y-156440003D01*
X29235000Y-156405874D01*
X29235000Y-155994126D01*
X29077431Y-155613720D01*
X28960000Y-155496289D01*
X28960000Y-154003711D01*
X29077431Y-153886280D01*
X29235000Y-153505874D01*
X29235000Y-153094126D01*
X29077431Y-152713720D01*
X28786280Y-152422569D01*
X28405874Y-152265000D01*
X27994126Y-152265000D01*
X27613720Y-152422569D01*
X27322569Y-152713720D01*
X27165000Y-153094126D01*
X27165000Y-153505874D01*
X27322569Y-153886280D01*
X27440001Y-154003712D01*
X27440000Y-155496289D01*
X27322569Y-155613720D01*
X27165000Y-155994126D01*
X27165000Y-156405874D01*
X27286831Y-156700002D01*
X27165000Y-156994129D01*
X27165000Y-157405877D01*
X27261977Y-157640000D01*
X19014802Y-157640000D01*
X17135000Y-155760199D01*
X17135000Y-155594126D01*
X16977431Y-155213720D01*
X16686280Y-154922569D01*
X16305874Y-154765000D01*
X15894126Y-154765000D01*
X15513720Y-154922569D01*
X15222569Y-155213720D01*
X15065000Y-155594126D01*
X15065000Y-156005874D01*
X15222569Y-156386280D01*
X15513720Y-156677431D01*
X15894126Y-156835000D01*
X16060199Y-156835000D01*
X18109671Y-158884473D01*
X18152071Y-158947929D01*
X18403463Y-159115904D01*
X18524601Y-159140000D01*
X15074846Y-159140000D01*
X14999999Y-159125112D01*
X14925152Y-159140000D01*
X14925148Y-159140000D01*
X14703463Y-159184096D01*
X14452071Y-159352071D01*
X14409669Y-159415530D01*
X14215530Y-159609669D01*
X14152071Y-159652071D01*
X13984096Y-159903464D01*
X13940000Y-160125149D01*
X13940000Y-160125153D01*
X13925112Y-160200000D01*
X13710000Y-160200000D01*
X13710000Y-154827667D01*
X13969126Y-154935000D01*
X14380874Y-154935000D01*
X14761280Y-154777431D01*
X14878711Y-154660000D01*
X22496289Y-154660000D01*
X22613720Y-154777431D01*
X22994126Y-154935000D01*
X23405874Y-154935000D01*
X23786280Y-154777431D01*
X24077431Y-154486280D01*
X24235000Y-154105874D01*
X24235000Y-153694126D01*
X24077431Y-153313720D01*
X23786280Y-153022569D01*
X23405874Y-152865000D01*
X22994126Y-152865000D01*
X22613720Y-153022569D01*
X22496289Y-153140000D01*
X14878711Y-153140000D01*
X14761280Y-153022569D01*
X14380874Y-152865000D01*
X13969126Y-152865000D01*
X13710000Y-152972333D01*
X13710000Y-150094126D01*
X14365000Y-150094126D01*
X14365000Y-150505874D01*
X14522569Y-150886280D01*
X14813720Y-151177431D01*
X15194126Y-151335000D01*
X15605874Y-151335000D01*
X15986280Y-151177431D01*
X16103711Y-151060000D01*
X33425153Y-151060000D01*
X33500000Y-151074888D01*
X33574847Y-151060000D01*
X33574852Y-151060000D01*
X33796537Y-151015904D01*
X34047929Y-150847929D01*
X34090331Y-150784470D01*
X34724473Y-150150329D01*
X34787929Y-150107929D01*
X34955904Y-149856537D01*
X35000000Y-149634852D01*
X35000000Y-149634848D01*
X35014888Y-149560001D01*
X35000000Y-149485154D01*
X35000000Y-140346669D01*
X35109507Y-140301310D01*
X35541310Y-139869507D01*
X35586669Y-139760000D01*
X36985199Y-139760000D01*
X44965000Y-147739802D01*
X44965000Y-147905874D01*
X45086475Y-148199141D01*
X44955766Y-148145000D01*
X44504234Y-148145000D01*
X44087074Y-148317793D01*
X43767793Y-148637074D01*
X43595000Y-149054234D01*
X43595000Y-149505766D01*
X43767793Y-149922926D01*
X44087074Y-150242207D01*
X44504234Y-150415000D01*
X44955766Y-150415000D01*
X45372926Y-150242207D01*
X45692207Y-149922926D01*
X45865000Y-149505766D01*
X45865000Y-149054234D01*
X45720062Y-148704322D01*
X45794126Y-148735000D01*
X46205874Y-148735000D01*
X46279938Y-148704322D01*
X46135000Y-149054234D01*
X46135000Y-149505766D01*
X46307793Y-149922926D01*
X46627074Y-150242207D01*
X47044234Y-150415000D01*
X47495766Y-150415000D01*
X47912926Y-150242207D01*
X48232207Y-149922926D01*
X48405000Y-149505766D01*
X48405000Y-149054234D01*
X48232207Y-148637074D01*
X47912926Y-148317793D01*
X47495766Y-148145000D01*
X47044234Y-148145000D01*
X46913525Y-148199141D01*
X47035000Y-147905874D01*
X47035000Y-147494126D01*
X46877431Y-147113720D01*
X46586280Y-146822569D01*
X46205874Y-146665000D01*
X46039802Y-146665000D01*
X37890331Y-138515530D01*
X37847929Y-138452071D01*
X37596537Y-138284096D01*
X37374852Y-138240000D01*
X37374847Y-138240000D01*
X37300000Y-138225112D01*
X37225153Y-138240000D01*
X35586669Y-138240000D01*
X35541310Y-138130493D01*
X35109507Y-137698690D01*
X35000000Y-137653331D01*
X35000000Y-131047440D01*
X35200000Y-131047440D01*
X35447765Y-130998157D01*
X35657809Y-130857809D01*
X35798157Y-130647765D01*
X35847440Y-130400000D01*
X35847440Y-128600000D01*
X35798157Y-128352235D01*
X35657809Y-128142191D01*
X35447765Y-128001843D01*
X35200000Y-127952560D01*
X33400000Y-127952560D01*
X33152235Y-128001843D01*
X32942191Y-128142191D01*
X32801843Y-128352235D01*
X32798725Y-128367908D01*
X32629507Y-128198690D01*
X32065330Y-127965000D01*
X31454670Y-127965000D01*
X30890493Y-128198690D01*
X30458690Y-128630493D01*
X30225000Y-129194670D01*
X30225000Y-129805330D01*
X30458690Y-130369507D01*
X30890493Y-130801310D01*
X31454670Y-131035000D01*
X32065330Y-131035000D01*
X32629507Y-130801310D01*
X32798725Y-130632092D01*
X32801843Y-130647765D01*
X32942191Y-130857809D01*
X33152235Y-130998157D01*
X33400000Y-131047440D01*
X33480001Y-131047440D01*
X33480000Y-137653331D01*
X33370493Y-137698690D01*
X33201275Y-137867908D01*
X33198157Y-137852235D01*
X33057809Y-137642191D01*
X32847765Y-137501843D01*
X32600000Y-137452560D01*
X30800000Y-137452560D01*
X30552235Y-137501843D01*
X30342191Y-137642191D01*
X30201843Y-137852235D01*
X30152560Y-138100000D01*
X30152560Y-139900000D01*
X30201843Y-140147765D01*
X30342191Y-140357809D01*
X30552235Y-140498157D01*
X30800000Y-140547440D01*
X32600000Y-140547440D01*
X32847765Y-140498157D01*
X33057809Y-140357809D01*
X33198157Y-140147765D01*
X33201275Y-140132092D01*
X33370493Y-140301310D01*
X33480001Y-140346670D01*
X33480000Y-149245198D01*
X33185199Y-149540000D01*
X16103711Y-149540000D01*
X15986280Y-149422569D01*
X15605874Y-149265000D01*
X15194126Y-149265000D01*
X14813720Y-149422569D01*
X14522569Y-149713720D01*
X14365000Y-150094126D01*
X13710000Y-150094126D01*
X13710000Y-121555431D01*
X30765000Y-121555431D01*
X30765000Y-122444569D01*
X31105259Y-123266026D01*
X31733974Y-123894741D01*
X32555431Y-124235000D01*
X33444569Y-124235000D01*
X34266026Y-123894741D01*
X34646797Y-123513970D01*
X40665635Y-123513970D01*
X40825418Y-123832739D01*
X41616187Y-124142723D01*
X42465387Y-124126497D01*
X43174582Y-123832739D01*
X43334365Y-123513970D01*
X42000000Y-122179605D01*
X40665635Y-123513970D01*
X34646797Y-123513970D01*
X34894741Y-123266026D01*
X35235000Y-122444569D01*
X35235000Y-121616187D01*
X39857277Y-121616187D01*
X39873503Y-122465387D01*
X40167261Y-123174582D01*
X40486030Y-123334365D01*
X41820395Y-122000000D01*
X42179605Y-122000000D01*
X43513970Y-123334365D01*
X43832739Y-123174582D01*
X44142723Y-122383813D01*
X44127275Y-121575322D01*
X44865000Y-121575322D01*
X44865000Y-122424678D01*
X45190034Y-123209380D01*
X45790620Y-123809966D01*
X46575322Y-124135000D01*
X47424678Y-124135000D01*
X48209380Y-123809966D01*
X48809966Y-123209380D01*
X49135000Y-122424678D01*
X49135000Y-121575322D01*
X48809966Y-120790620D01*
X48209380Y-120190034D01*
X47424678Y-119865000D01*
X46575322Y-119865000D01*
X45790620Y-120190034D01*
X45190034Y-120790620D01*
X44865000Y-121575322D01*
X44127275Y-121575322D01*
X44126497Y-121534613D01*
X43832739Y-120825418D01*
X43513970Y-120665635D01*
X42179605Y-122000000D01*
X41820395Y-122000000D01*
X40486030Y-120665635D01*
X40167261Y-120825418D01*
X39857277Y-121616187D01*
X35235000Y-121616187D01*
X35235000Y-121555431D01*
X34894741Y-120733974D01*
X34646797Y-120486030D01*
X40665635Y-120486030D01*
X42000000Y-121820395D01*
X43334365Y-120486030D01*
X43174582Y-120167261D01*
X42383813Y-119857277D01*
X41534613Y-119873503D01*
X40825418Y-120167261D01*
X40665635Y-120486030D01*
X34646797Y-120486030D01*
X34266026Y-120105259D01*
X33444569Y-119765000D01*
X32555431Y-119765000D01*
X31733974Y-120105259D01*
X31105259Y-120733974D01*
X30765000Y-121555431D01*
X13710000Y-121555431D01*
X13710000Y-117710000D01*
X52290001Y-117710000D01*
X52290000Y-196290000D01*
X52290000Y-196290000D01*
G37*
X52290000Y-196290000D02*
X13710000Y-196290000D01*
X13710000Y-191555431D01*
X30765000Y-191555431D01*
X30765000Y-192444569D01*
X31105259Y-193266026D01*
X31733974Y-193894741D01*
X32555431Y-194235000D01*
X33444569Y-194235000D01*
X34266026Y-193894741D01*
X34894741Y-193266026D01*
X35235000Y-192444569D01*
X35235000Y-191555431D01*
X34894741Y-190733974D01*
X34266026Y-190105259D01*
X33444569Y-189765000D01*
X32555431Y-189765000D01*
X31733974Y-190105259D01*
X31105259Y-190733974D01*
X30765000Y-191555431D01*
X13710000Y-191555431D01*
X13710000Y-181194126D01*
X33565000Y-181194126D01*
X33565000Y-181605874D01*
X33722569Y-181986280D01*
X34013720Y-182277431D01*
X34394126Y-182435000D01*
X34805874Y-182435000D01*
X35186280Y-182277431D01*
X35303711Y-182160000D01*
X49525153Y-182160000D01*
X49600000Y-182174888D01*
X49674847Y-182160000D01*
X49674852Y-182160000D01*
X49896537Y-182115904D01*
X50147929Y-181947929D01*
X50190331Y-181884470D01*
X51984473Y-180090329D01*
X52047929Y-180047929D01*
X52090924Y-179983582D01*
X52215904Y-179796538D01*
X52225480Y-179748395D01*
X52260000Y-179574852D01*
X52260000Y-179574848D01*
X52274888Y-179500000D01*
X52260000Y-179425152D01*
X52260000Y-156774847D01*
X52274888Y-156700000D01*
X52260000Y-156625153D01*
X52260000Y-156625148D01*
X52215904Y-156403463D01*
X52047929Y-156152071D01*
X51984473Y-156109671D01*
X50990331Y-155115530D01*
X50947929Y-155052071D01*
X50696537Y-154884096D01*
X50474852Y-154840000D01*
X50474847Y-154840000D01*
X50400000Y-154825112D01*
X50325153Y-154840000D01*
X46703711Y-154840000D01*
X46586280Y-154722569D01*
X46205874Y-154565000D01*
X45794126Y-154565000D01*
X45413720Y-154722569D01*
X45122569Y-155013720D01*
X44965000Y-155394126D01*
X44965000Y-155805874D01*
X45122569Y-156186280D01*
X45413720Y-156477431D01*
X45794126Y-156635000D01*
X46205874Y-156635000D01*
X46586280Y-156477431D01*
X46703711Y-156360000D01*
X50085199Y-156360000D01*
X50740000Y-157014802D01*
X50740001Y-179185197D01*
X49285199Y-180640000D01*
X35303711Y-180640000D01*
X35186280Y-180522569D01*
X34805874Y-180365000D01*
X34394126Y-180365000D01*
X34013720Y-180522569D01*
X33722569Y-180813720D01*
X33565000Y-181194126D01*
X13710000Y-181194126D01*
X13710000Y-160200000D01*
X13925112Y-160200000D01*
X13940000Y-160274847D01*
X13940001Y-177325148D01*
X13925112Y-177400000D01*
X13940001Y-177474852D01*
X13984097Y-177696537D01*
X14152072Y-177947929D01*
X14215528Y-177990329D01*
X14665000Y-178439802D01*
X14665000Y-178605874D01*
X14822569Y-178986280D01*
X15113720Y-179277431D01*
X15494126Y-179435000D01*
X15905874Y-179435000D01*
X16286280Y-179277431D01*
X16577431Y-178986280D01*
X16735000Y-178605874D01*
X16735000Y-178194126D01*
X16577431Y-177813720D01*
X16286280Y-177522569D01*
X15905874Y-177365000D01*
X15739802Y-177365000D01*
X15460000Y-177085199D01*
X15460000Y-174152532D01*
X28827073Y-174152532D01*
X28925736Y-174419387D01*
X29535461Y-174645908D01*
X30185460Y-174621856D01*
X30674264Y-174419387D01*
X30772927Y-174152532D01*
X35327073Y-174152532D01*
X35425736Y-174419387D01*
X36035461Y-174645908D01*
X36685460Y-174621856D01*
X37174264Y-174419387D01*
X37272927Y-174152532D01*
X36300000Y-173179605D01*
X35327073Y-174152532D01*
X30772927Y-174152532D01*
X29800000Y-173179605D01*
X28827073Y-174152532D01*
X15460000Y-174152532D01*
X15460000Y-172735461D01*
X28154092Y-172735461D01*
X28178144Y-173385460D01*
X28380613Y-173874264D01*
X28647468Y-173972927D01*
X29620395Y-173000000D01*
X29979605Y-173000000D01*
X30952532Y-173972927D01*
X31219387Y-173874264D01*
X31445908Y-173264539D01*
X31426331Y-172735461D01*
X34654092Y-172735461D01*
X34678144Y-173385460D01*
X34880613Y-173874264D01*
X35147468Y-173972927D01*
X36120395Y-173000000D01*
X36479605Y-173000000D01*
X37452532Y-173972927D01*
X37719387Y-173874264D01*
X37945908Y-173264539D01*
X37921856Y-172614540D01*
X37719387Y-172125736D01*
X37452532Y-172027073D01*
X36479605Y-173000000D01*
X36120395Y-173000000D01*
X35147468Y-172027073D01*
X34880613Y-172125736D01*
X34654092Y-172735461D01*
X31426331Y-172735461D01*
X31421856Y-172614540D01*
X31219387Y-172125736D01*
X30952532Y-172027073D01*
X29979605Y-173000000D01*
X29620395Y-173000000D01*
X28647468Y-172027073D01*
X28380613Y-172125736D01*
X28154092Y-172735461D01*
X15460000Y-172735461D01*
X15460000Y-171847468D01*
X28827073Y-171847468D01*
X29800000Y-172820395D01*
X30772927Y-171847468D01*
X35327073Y-171847468D01*
X36300000Y-172820395D01*
X37272927Y-171847468D01*
X37174264Y-171580613D01*
X36564539Y-171354092D01*
X35914540Y-171378144D01*
X35425736Y-171580613D01*
X35327073Y-171847468D01*
X30772927Y-171847468D01*
X30674264Y-171580613D01*
X30064539Y-171354092D01*
X29414540Y-171378144D01*
X28925736Y-171580613D01*
X28827073Y-171847468D01*
X15460000Y-171847468D01*
X15460000Y-168174778D01*
X28165000Y-168174778D01*
X28165000Y-168825222D01*
X28413914Y-169426153D01*
X28873847Y-169886086D01*
X29474778Y-170135000D01*
X30125222Y-170135000D01*
X30726153Y-169886086D01*
X31186086Y-169426153D01*
X31435000Y-168825222D01*
X31435000Y-168174778D01*
X34665000Y-168174778D01*
X34665000Y-168825222D01*
X34913914Y-169426153D01*
X35373847Y-169886086D01*
X35974778Y-170135000D01*
X36625222Y-170135000D01*
X37226153Y-169886086D01*
X37686086Y-169426153D01*
X37935000Y-168825222D01*
X37935000Y-168174778D01*
X37686086Y-167573847D01*
X37226153Y-167113914D01*
X36625222Y-166865000D01*
X35974778Y-166865000D01*
X35373847Y-167113914D01*
X34913914Y-167573847D01*
X34665000Y-168174778D01*
X31435000Y-168174778D01*
X31186086Y-167573847D01*
X30726153Y-167113914D01*
X30125222Y-166865000D01*
X29474778Y-166865000D01*
X28873847Y-167113914D01*
X28413914Y-167573847D01*
X28165000Y-168174778D01*
X15460000Y-168174778D01*
X15460000Y-160660000D01*
X22496289Y-160660000D01*
X22613720Y-160777431D01*
X22994126Y-160935000D01*
X23405874Y-160935000D01*
X23786280Y-160777431D01*
X24077431Y-160486280D01*
X24235000Y-160105874D01*
X24235000Y-159694126D01*
X24077431Y-159313720D01*
X23923711Y-159160000D01*
X39325153Y-159160000D01*
X39400000Y-159174888D01*
X39474847Y-159160000D01*
X39474852Y-159160000D01*
X39696537Y-159115904D01*
X39947929Y-158947929D01*
X39990331Y-158884470D01*
X42495337Y-156379465D01*
X42365000Y-156694126D01*
X42365000Y-157105874D01*
X42522569Y-157486280D01*
X42640001Y-157603712D01*
X42640000Y-160385198D01*
X42085199Y-160940000D01*
X19503711Y-160940000D01*
X19386280Y-160822569D01*
X19005874Y-160665000D01*
X18594126Y-160665000D01*
X18213720Y-160822569D01*
X17922569Y-161113720D01*
X17765000Y-161494126D01*
X17765000Y-161905874D01*
X17922569Y-162286280D01*
X18015578Y-162379289D01*
X17750000Y-162644867D01*
X17442926Y-162337793D01*
X17025766Y-162165000D01*
X16574234Y-162165000D01*
X16157074Y-162337793D01*
X15837793Y-162657074D01*
X15665000Y-163074234D01*
X15665000Y-163525766D01*
X15837793Y-163942926D01*
X16157074Y-164262207D01*
X16574234Y-164435000D01*
X17025766Y-164435000D01*
X17442926Y-164262207D01*
X17750000Y-163955133D01*
X18057074Y-164262207D01*
X18474234Y-164435000D01*
X18925766Y-164435000D01*
X19265605Y-164294234D01*
X43595000Y-164294234D01*
X43595000Y-164745766D01*
X43767793Y-165162926D01*
X44087074Y-165482207D01*
X44504234Y-165655000D01*
X44955766Y-165655000D01*
X45372926Y-165482207D01*
X45692207Y-165162926D01*
X45865000Y-164745766D01*
X45865000Y-164294234D01*
X45692207Y-163877074D01*
X45372926Y-163557793D01*
X44955766Y-163385000D01*
X44504234Y-163385000D01*
X44087074Y-163557793D01*
X43767793Y-163877074D01*
X43595000Y-164294234D01*
X19265605Y-164294234D01*
X19342926Y-164262207D01*
X19662207Y-163942926D01*
X19835000Y-163525766D01*
X19835000Y-163074234D01*
X19662207Y-162657074D01*
X19484422Y-162479289D01*
X19503711Y-162460000D01*
X42325153Y-162460000D01*
X42400000Y-162474888D01*
X42474847Y-162460000D01*
X42474852Y-162460000D01*
X42696537Y-162415904D01*
X42947929Y-162247929D01*
X42990331Y-162184470D01*
X43884473Y-161290329D01*
X43947929Y-161247929D01*
X44115904Y-160996537D01*
X44160000Y-160774852D01*
X44160000Y-160774848D01*
X44174888Y-160700000D01*
X44160000Y-160625152D01*
X44160000Y-157603711D01*
X44277431Y-157486280D01*
X44435000Y-157105874D01*
X44435000Y-156694126D01*
X44277431Y-156313720D01*
X43986280Y-156022569D01*
X43605874Y-155865000D01*
X43194126Y-155865000D01*
X42879465Y-155995336D01*
X43439802Y-155435000D01*
X43605874Y-155435000D01*
X43986280Y-155277431D01*
X44277431Y-154986280D01*
X44435000Y-154605874D01*
X44435000Y-154194126D01*
X44277431Y-153813720D01*
X43986280Y-153522569D01*
X43605874Y-153365000D01*
X43194126Y-153365000D01*
X42813720Y-153522569D01*
X42522569Y-153813720D01*
X42365000Y-154194126D01*
X42365000Y-154360198D01*
X39085199Y-157640000D01*
X34179897Y-157640000D01*
X34335000Y-157265548D01*
X34335000Y-156734452D01*
X34131758Y-156243783D01*
X33947975Y-156060000D01*
X39525153Y-156060000D01*
X39600000Y-156074888D01*
X39674847Y-156060000D01*
X39674852Y-156060000D01*
X39896537Y-156015904D01*
X40147929Y-155847929D01*
X40190331Y-155784470D01*
X43139803Y-152835000D01*
X43305874Y-152835000D01*
X43686280Y-152677431D01*
X43977431Y-152386280D01*
X44135000Y-152005874D01*
X44135000Y-151594126D01*
X43977431Y-151213720D01*
X43686280Y-150922569D01*
X43305874Y-150765000D01*
X42894126Y-150765000D01*
X42513720Y-150922569D01*
X42222569Y-151213720D01*
X42065000Y-151594126D01*
X42065000Y-151760197D01*
X39285199Y-154540000D01*
X31774846Y-154540000D01*
X31699999Y-154525112D01*
X31625152Y-154540000D01*
X31625148Y-154540000D01*
X31403463Y-154584096D01*
X31152071Y-154752071D01*
X31109671Y-154815527D01*
X29485196Y-156440003D01*
X29220863Y-156440003D01*
X29235000Y-156405874D01*
X29235000Y-155994126D01*
X29077431Y-155613720D01*
X28960000Y-155496289D01*
X28960000Y-154003711D01*
X29077431Y-153886280D01*
X29235000Y-153505874D01*
X29235000Y-153094126D01*
X29077431Y-152713720D01*
X28786280Y-152422569D01*
X28405874Y-152265000D01*
X27994126Y-152265000D01*
X27613720Y-152422569D01*
X27322569Y-152713720D01*
X27165000Y-153094126D01*
X27165000Y-153505874D01*
X27322569Y-153886280D01*
X27440001Y-154003712D01*
X27440000Y-155496289D01*
X27322569Y-155613720D01*
X27165000Y-155994126D01*
X27165000Y-156405874D01*
X27286831Y-156700002D01*
X27165000Y-156994129D01*
X27165000Y-157405877D01*
X27261977Y-157640000D01*
X19014802Y-157640000D01*
X17135000Y-155760199D01*
X17135000Y-155594126D01*
X16977431Y-155213720D01*
X16686280Y-154922569D01*
X16305874Y-154765000D01*
X15894126Y-154765000D01*
X15513720Y-154922569D01*
X15222569Y-155213720D01*
X15065000Y-155594126D01*
X15065000Y-156005874D01*
X15222569Y-156386280D01*
X15513720Y-156677431D01*
X15894126Y-156835000D01*
X16060199Y-156835000D01*
X18109671Y-158884473D01*
X18152071Y-158947929D01*
X18403463Y-159115904D01*
X18524601Y-159140000D01*
X15074846Y-159140000D01*
X14999999Y-159125112D01*
X14925152Y-159140000D01*
X14925148Y-159140000D01*
X14703463Y-159184096D01*
X14452071Y-159352071D01*
X14409669Y-159415530D01*
X14215530Y-159609669D01*
X14152071Y-159652071D01*
X13984096Y-159903464D01*
X13940000Y-160125149D01*
X13940000Y-160125153D01*
X13925112Y-160200000D01*
X13710000Y-160200000D01*
X13710000Y-154827667D01*
X13969126Y-154935000D01*
X14380874Y-154935000D01*
X14761280Y-154777431D01*
X14878711Y-154660000D01*
X22496289Y-154660000D01*
X22613720Y-154777431D01*
X22994126Y-154935000D01*
X23405874Y-154935000D01*
X23786280Y-154777431D01*
X24077431Y-154486280D01*
X24235000Y-154105874D01*
X24235000Y-153694126D01*
X24077431Y-153313720D01*
X23786280Y-153022569D01*
X23405874Y-152865000D01*
X22994126Y-152865000D01*
X22613720Y-153022569D01*
X22496289Y-153140000D01*
X14878711Y-153140000D01*
X14761280Y-153022569D01*
X14380874Y-152865000D01*
X13969126Y-152865000D01*
X13710000Y-152972333D01*
X13710000Y-150094126D01*
X14365000Y-150094126D01*
X14365000Y-150505874D01*
X14522569Y-150886280D01*
X14813720Y-151177431D01*
X15194126Y-151335000D01*
X15605874Y-151335000D01*
X15986280Y-151177431D01*
X16103711Y-151060000D01*
X33425153Y-151060000D01*
X33500000Y-151074888D01*
X33574847Y-151060000D01*
X33574852Y-151060000D01*
X33796537Y-151015904D01*
X34047929Y-150847929D01*
X34090331Y-150784470D01*
X34724473Y-150150329D01*
X34787929Y-150107929D01*
X34955904Y-149856537D01*
X35000000Y-149634852D01*
X35000000Y-149634848D01*
X35014888Y-149560001D01*
X35000000Y-149485154D01*
X35000000Y-140346669D01*
X35109507Y-140301310D01*
X35541310Y-139869507D01*
X35586669Y-139760000D01*
X36985199Y-139760000D01*
X44965000Y-147739802D01*
X44965000Y-147905874D01*
X45086475Y-148199141D01*
X44955766Y-148145000D01*
X44504234Y-148145000D01*
X44087074Y-148317793D01*
X43767793Y-148637074D01*
X43595000Y-149054234D01*
X43595000Y-149505766D01*
X43767793Y-149922926D01*
X44087074Y-150242207D01*
X44504234Y-150415000D01*
X44955766Y-150415000D01*
X45372926Y-150242207D01*
X45692207Y-149922926D01*
X45865000Y-149505766D01*
X45865000Y-149054234D01*
X45720062Y-148704322D01*
X45794126Y-148735000D01*
X46205874Y-148735000D01*
X46279938Y-148704322D01*
X46135000Y-149054234D01*
X46135000Y-149505766D01*
X46307793Y-149922926D01*
X46627074Y-150242207D01*
X47044234Y-150415000D01*
X47495766Y-150415000D01*
X47912926Y-150242207D01*
X48232207Y-149922926D01*
X48405000Y-149505766D01*
X48405000Y-149054234D01*
X48232207Y-148637074D01*
X47912926Y-148317793D01*
X47495766Y-148145000D01*
X47044234Y-148145000D01*
X46913525Y-148199141D01*
X47035000Y-147905874D01*
X47035000Y-147494126D01*
X46877431Y-147113720D01*
X46586280Y-146822569D01*
X46205874Y-146665000D01*
X46039802Y-146665000D01*
X37890331Y-138515530D01*
X37847929Y-138452071D01*
X37596537Y-138284096D01*
X37374852Y-138240000D01*
X37374847Y-138240000D01*
X37300000Y-138225112D01*
X37225153Y-138240000D01*
X35586669Y-138240000D01*
X35541310Y-138130493D01*
X35109507Y-137698690D01*
X35000000Y-137653331D01*
X35000000Y-131047440D01*
X35200000Y-131047440D01*
X35447765Y-130998157D01*
X35657809Y-130857809D01*
X35798157Y-130647765D01*
X35847440Y-130400000D01*
X35847440Y-128600000D01*
X35798157Y-128352235D01*
X35657809Y-128142191D01*
X35447765Y-128001843D01*
X35200000Y-127952560D01*
X33400000Y-127952560D01*
X33152235Y-128001843D01*
X32942191Y-128142191D01*
X32801843Y-128352235D01*
X32798725Y-128367908D01*
X32629507Y-128198690D01*
X32065330Y-127965000D01*
X31454670Y-127965000D01*
X30890493Y-128198690D01*
X30458690Y-128630493D01*
X30225000Y-129194670D01*
X30225000Y-129805330D01*
X30458690Y-130369507D01*
X30890493Y-130801310D01*
X31454670Y-131035000D01*
X32065330Y-131035000D01*
X32629507Y-130801310D01*
X32798725Y-130632092D01*
X32801843Y-130647765D01*
X32942191Y-130857809D01*
X33152235Y-130998157D01*
X33400000Y-131047440D01*
X33480001Y-131047440D01*
X33480000Y-137653331D01*
X33370493Y-137698690D01*
X33201275Y-137867908D01*
X33198157Y-137852235D01*
X33057809Y-137642191D01*
X32847765Y-137501843D01*
X32600000Y-137452560D01*
X30800000Y-137452560D01*
X30552235Y-137501843D01*
X30342191Y-137642191D01*
X30201843Y-137852235D01*
X30152560Y-138100000D01*
X30152560Y-139900000D01*
X30201843Y-140147765D01*
X30342191Y-140357809D01*
X30552235Y-140498157D01*
X30800000Y-140547440D01*
X32600000Y-140547440D01*
X32847765Y-140498157D01*
X33057809Y-140357809D01*
X33198157Y-140147765D01*
X33201275Y-140132092D01*
X33370493Y-140301310D01*
X33480001Y-140346670D01*
X33480000Y-149245198D01*
X33185199Y-149540000D01*
X16103711Y-149540000D01*
X15986280Y-149422569D01*
X15605874Y-149265000D01*
X15194126Y-149265000D01*
X14813720Y-149422569D01*
X14522569Y-149713720D01*
X14365000Y-150094126D01*
X13710000Y-150094126D01*
X13710000Y-121555431D01*
X30765000Y-121555431D01*
X30765000Y-122444569D01*
X31105259Y-123266026D01*
X31733974Y-123894741D01*
X32555431Y-124235000D01*
X33444569Y-124235000D01*
X34266026Y-123894741D01*
X34646797Y-123513970D01*
X40665635Y-123513970D01*
X40825418Y-123832739D01*
X41616187Y-124142723D01*
X42465387Y-124126497D01*
X43174582Y-123832739D01*
X43334365Y-123513970D01*
X42000000Y-122179605D01*
X40665635Y-123513970D01*
X34646797Y-123513970D01*
X34894741Y-123266026D01*
X35235000Y-122444569D01*
X35235000Y-121616187D01*
X39857277Y-121616187D01*
X39873503Y-122465387D01*
X40167261Y-123174582D01*
X40486030Y-123334365D01*
X41820395Y-122000000D01*
X42179605Y-122000000D01*
X43513970Y-123334365D01*
X43832739Y-123174582D01*
X44142723Y-122383813D01*
X44127275Y-121575322D01*
X44865000Y-121575322D01*
X44865000Y-122424678D01*
X45190034Y-123209380D01*
X45790620Y-123809966D01*
X46575322Y-124135000D01*
X47424678Y-124135000D01*
X48209380Y-123809966D01*
X48809966Y-123209380D01*
X49135000Y-122424678D01*
X49135000Y-121575322D01*
X48809966Y-120790620D01*
X48209380Y-120190034D01*
X47424678Y-119865000D01*
X46575322Y-119865000D01*
X45790620Y-120190034D01*
X45190034Y-120790620D01*
X44865000Y-121575322D01*
X44127275Y-121575322D01*
X44126497Y-121534613D01*
X43832739Y-120825418D01*
X43513970Y-120665635D01*
X42179605Y-122000000D01*
X41820395Y-122000000D01*
X40486030Y-120665635D01*
X40167261Y-120825418D01*
X39857277Y-121616187D01*
X35235000Y-121616187D01*
X35235000Y-121555431D01*
X34894741Y-120733974D01*
X34646797Y-120486030D01*
X40665635Y-120486030D01*
X42000000Y-121820395D01*
X43334365Y-120486030D01*
X43174582Y-120167261D01*
X42383813Y-119857277D01*
X41534613Y-119873503D01*
X40825418Y-120167261D01*
X40665635Y-120486030D01*
X34646797Y-120486030D01*
X34266026Y-120105259D01*
X33444569Y-119765000D01*
X32555431Y-119765000D01*
X31733974Y-120105259D01*
X31105259Y-120733974D01*
X30765000Y-121555431D01*
X13710000Y-121555431D01*
X13710000Y-117710000D01*
X52290001Y-117710000D01*
X52290000Y-196290000D01*
G04 #@! TD*
M02*
