G04 #@! TF.GenerationSoftware,KiCad,Pcbnew,5.0.2-bee76a0~70~ubuntu16.04.1*
G04 #@! TF.CreationDate,2018-12-03T13:34:06+05:30*
G04 #@! TF.ProjectId,senseBeTx_rev2,73656e73-6542-4655-9478-5f726576322e,rev?*
G04 #@! TF.SameCoordinates,Original*
G04 #@! TF.FileFunction,Legend,Top*
G04 #@! TF.FilePolarity,Positive*
%FSLAX46Y46*%
G04 Gerber Fmt 4.6, Leading zero omitted, Abs format (unit mm)*
G04 Created by KiCad (PCBNEW 5.0.2-bee76a0~70~ubuntu16.04.1) date Mon Dec  3 13:34:06 2018*
%MOMM*%
%LPD*%
G01*
G04 APERTURE LIST*
%ADD10C,0.150000*%
%ADD11C,0.120000*%
%ADD12C,0.010000*%
%ADD13C,0.127000*%
G04 APERTURE END LIST*
D10*
X15580952Y-122404761D02*
X15676190Y-122452380D01*
X15866666Y-122452380D01*
X15961904Y-122404761D01*
X16009523Y-122309523D01*
X16009523Y-122261904D01*
X15961904Y-122166666D01*
X15866666Y-122119047D01*
X15723809Y-122119047D01*
X15628571Y-122071428D01*
X15580952Y-121976190D01*
X15580952Y-121928571D01*
X15628571Y-121833333D01*
X15723809Y-121785714D01*
X15866666Y-121785714D01*
X15961904Y-121833333D01*
X16819047Y-122404761D02*
X16723809Y-122452380D01*
X16533333Y-122452380D01*
X16438095Y-122404761D01*
X16390476Y-122309523D01*
X16390476Y-121928571D01*
X16438095Y-121833333D01*
X16533333Y-121785714D01*
X16723809Y-121785714D01*
X16819047Y-121833333D01*
X16866666Y-121928571D01*
X16866666Y-122023809D01*
X16390476Y-122119047D01*
X17295238Y-121785714D02*
X17295238Y-122452380D01*
X17295238Y-121880952D02*
X17342857Y-121833333D01*
X17438095Y-121785714D01*
X17580952Y-121785714D01*
X17676190Y-121833333D01*
X17723809Y-121928571D01*
X17723809Y-122452380D01*
X18152380Y-122404761D02*
X18247619Y-122452380D01*
X18438095Y-122452380D01*
X18533333Y-122404761D01*
X18580952Y-122309523D01*
X18580952Y-122261904D01*
X18533333Y-122166666D01*
X18438095Y-122119047D01*
X18295238Y-122119047D01*
X18200000Y-122071428D01*
X18152380Y-121976190D01*
X18152380Y-121928571D01*
X18200000Y-121833333D01*
X18295238Y-121785714D01*
X18438095Y-121785714D01*
X18533333Y-121833333D01*
X19390476Y-122404761D02*
X19295238Y-122452380D01*
X19104761Y-122452380D01*
X19009523Y-122404761D01*
X18961904Y-122309523D01*
X18961904Y-121928571D01*
X19009523Y-121833333D01*
X19104761Y-121785714D01*
X19295238Y-121785714D01*
X19390476Y-121833333D01*
X19438095Y-121928571D01*
X19438095Y-122023809D01*
X18961904Y-122119047D01*
X20200000Y-121928571D02*
X20342857Y-121976190D01*
X20390476Y-122023809D01*
X20438095Y-122119047D01*
X20438095Y-122261904D01*
X20390476Y-122357142D01*
X20342857Y-122404761D01*
X20247619Y-122452380D01*
X19866666Y-122452380D01*
X19866666Y-121452380D01*
X20200000Y-121452380D01*
X20295238Y-121500000D01*
X20342857Y-121547619D01*
X20390476Y-121642857D01*
X20390476Y-121738095D01*
X20342857Y-121833333D01*
X20295238Y-121880952D01*
X20200000Y-121928571D01*
X19866666Y-121928571D01*
X21247619Y-122404761D02*
X21152380Y-122452380D01*
X20961904Y-122452380D01*
X20866666Y-122404761D01*
X20819047Y-122309523D01*
X20819047Y-121928571D01*
X20866666Y-121833333D01*
X20961904Y-121785714D01*
X21152380Y-121785714D01*
X21247619Y-121833333D01*
X21295238Y-121928571D01*
X21295238Y-122023809D01*
X20819047Y-122119047D01*
X21580952Y-121452380D02*
X22152380Y-121452380D01*
X21866666Y-122452380D02*
X21866666Y-121452380D01*
X22390476Y-122452380D02*
X22914285Y-121785714D01*
X22390476Y-121785714D02*
X22914285Y-122452380D01*
X23057142Y-122547619D02*
X23819047Y-122547619D01*
X24057142Y-122452380D02*
X24057142Y-121785714D01*
X24057142Y-121976190D02*
X24104761Y-121880952D01*
X24152380Y-121833333D01*
X24247619Y-121785714D01*
X24342857Y-121785714D01*
X25057142Y-122404761D02*
X24961904Y-122452380D01*
X24771428Y-122452380D01*
X24676190Y-122404761D01*
X24628571Y-122309523D01*
X24628571Y-121928571D01*
X24676190Y-121833333D01*
X24771428Y-121785714D01*
X24961904Y-121785714D01*
X25057142Y-121833333D01*
X25104761Y-121928571D01*
X25104761Y-122023809D01*
X24628571Y-122119047D01*
X25438095Y-121785714D02*
X25676190Y-122452380D01*
X25914285Y-121785714D01*
X26247619Y-121547619D02*
X26295238Y-121500000D01*
X26390476Y-121452380D01*
X26628571Y-121452380D01*
X26723809Y-121500000D01*
X26771428Y-121547619D01*
X26819047Y-121642857D01*
X26819047Y-121738095D01*
X26771428Y-121880952D01*
X26200000Y-122452380D01*
X26819047Y-122452380D01*
G04 #@! TO.C,U1*
X22450000Y-159125000D02*
X22450000Y-154675000D01*
X15550000Y-160650000D02*
X15550000Y-154675000D01*
D11*
G04 #@! TO.C,C1*
X42950000Y-127300000D02*
X42950000Y-128300000D01*
X44650000Y-128300000D02*
X44650000Y-127300000D01*
G04 #@! TO.C,C2*
X32828733Y-164490000D02*
X33171267Y-164490000D01*
X32828733Y-165510000D02*
X33171267Y-165510000D01*
G04 #@! TO.C,C3*
X19310000Y-166728733D02*
X19310000Y-167071267D01*
X18290000Y-166728733D02*
X18290000Y-167071267D01*
G04 #@! TO.C,C4*
X16290000Y-166728733D02*
X16290000Y-167071267D01*
X17310000Y-166728733D02*
X17310000Y-167071267D01*
G04 #@! TO.C,D1*
X30040000Y-183999538D02*
G75*
G03X35590000Y-185544830I2990000J-462D01*
G01*
X30040000Y-184000462D02*
G75*
G02X35590000Y-182455170I2990000J462D01*
G01*
X35530000Y-184000000D02*
G75*
G03X35530000Y-184000000I-2500000J0D01*
G01*
X35590000Y-185545000D02*
X35590000Y-182455000D01*
G04 #@! TO.C,D3*
X30410000Y-137455000D02*
X30410000Y-140545000D01*
X35470000Y-139000000D02*
G75*
G03X35470000Y-139000000I-2500000J0D01*
G01*
X35960000Y-139000462D02*
G75*
G03X30410000Y-137455170I-2990000J462D01*
G01*
X35960000Y-138999538D02*
G75*
G02X30410000Y-140544830I-2990000J-462D01*
G01*
G04 #@! TO.C,Q2*
X47760000Y-129380000D02*
X47760000Y-128450000D01*
X47760000Y-126220000D02*
X47760000Y-127150000D01*
X47760000Y-126220000D02*
X45600000Y-126220000D01*
X47760000Y-129380000D02*
X46300000Y-129380000D01*
G04 #@! TO.C,Q3*
X44640000Y-131720000D02*
X46100000Y-131720000D01*
X44640000Y-134880000D02*
X46800000Y-134880000D01*
X44640000Y-134880000D02*
X44640000Y-133950000D01*
X44640000Y-131720000D02*
X44640000Y-132650000D01*
G04 #@! TO.C,Q4*
X44640000Y-136920000D02*
X44640000Y-137850000D01*
X44640000Y-140080000D02*
X44640000Y-139150000D01*
X44640000Y-140080000D02*
X46800000Y-140080000D01*
X44640000Y-136920000D02*
X46100000Y-136920000D01*
G04 #@! TO.C,Q5*
X21360000Y-144780000D02*
X19900000Y-144780000D01*
X21360000Y-141620000D02*
X19200000Y-141620000D01*
X21360000Y-141620000D02*
X21360000Y-142550000D01*
X21360000Y-144780000D02*
X21360000Y-143850000D01*
G04 #@! TO.C,Q6*
X21360000Y-138380000D02*
X21360000Y-137450000D01*
X21360000Y-135220000D02*
X21360000Y-136150000D01*
X21360000Y-135220000D02*
X19200000Y-135220000D01*
X21360000Y-138380000D02*
X19900000Y-138380000D01*
G04 #@! TO.C,Q7*
X30680000Y-147540000D02*
X30680000Y-149000000D01*
X27520000Y-147540000D02*
X27520000Y-149700000D01*
X27520000Y-147540000D02*
X28450000Y-147540000D01*
X30680000Y-147540000D02*
X29750000Y-147540000D01*
G04 #@! TO.C,Q8*
X38380000Y-147540000D02*
X37450000Y-147540000D01*
X35220000Y-147540000D02*
X36150000Y-147540000D01*
X35220000Y-147540000D02*
X35220000Y-149700000D01*
X38380000Y-147540000D02*
X38380000Y-149000000D01*
G04 #@! TO.C,R1*
X17810000Y-184071267D02*
X17810000Y-183728733D01*
X16790000Y-184071267D02*
X16790000Y-183728733D01*
G04 #@! TO.C,R2*
X23790000Y-184071267D02*
X23790000Y-183728733D01*
X24810000Y-184071267D02*
X24810000Y-183728733D01*
G04 #@! TO.C,R3*
X27110000Y-184071267D02*
X27110000Y-183728733D01*
X26090000Y-184071267D02*
X26090000Y-183728733D01*
G04 #@! TO.C,R4*
X42110000Y-138671267D02*
X42110000Y-138328733D01*
X41090000Y-138671267D02*
X41090000Y-138328733D01*
G04 #@! TO.C,R5*
X41090000Y-133471267D02*
X41090000Y-133128733D01*
X42110000Y-133471267D02*
X42110000Y-133128733D01*
G04 #@! TO.C,R6*
X48390000Y-133128733D02*
X48390000Y-133471267D01*
X49410000Y-133128733D02*
X49410000Y-133471267D01*
G04 #@! TO.C,R7*
X49410000Y-138328733D02*
X49410000Y-138671267D01*
X48390000Y-138328733D02*
X48390000Y-138671267D01*
G04 #@! TO.C,R8*
X17510000Y-143028733D02*
X17510000Y-143371267D01*
X16490000Y-143028733D02*
X16490000Y-143371267D01*
G04 #@! TO.C,R9*
X16490000Y-136628733D02*
X16490000Y-136971267D01*
X17510000Y-136628733D02*
X17510000Y-136971267D01*
G04 #@! TO.C,R10*
X29271267Y-152210000D02*
X28928733Y-152210000D01*
X29271267Y-151190000D02*
X28928733Y-151190000D01*
G04 #@! TO.C,R11*
X36971267Y-152210000D02*
X36628733Y-152210000D01*
X36971267Y-151190000D02*
X36628733Y-151190000D01*
G04 #@! TO.C,R12*
X25310000Y-130371267D02*
X25310000Y-130028733D01*
X24290000Y-130371267D02*
X24290000Y-130028733D01*
G04 #@! TO.C,R13*
X24290000Y-136971267D02*
X24290000Y-136628733D01*
X25310000Y-136971267D02*
X25310000Y-136628733D01*
G04 #@! TO.C,C5*
X18271267Y-150810000D02*
X17928733Y-150810000D01*
X18271267Y-149790000D02*
X17928733Y-149790000D01*
G04 #@! TO.C,D2*
X30500000Y-128800000D02*
X30500000Y-128000000D01*
X30499956Y-128000000D02*
X34950000Y-128000000D01*
X31050000Y-131000000D02*
X34950000Y-131000000D01*
G04 #@! TO.C,R14*
X25310000Y-143371267D02*
X25310000Y-143028733D01*
X24290000Y-143371267D02*
X24290000Y-143028733D01*
G04 #@! TO.C,R15*
X17510000Y-130028733D02*
X17510000Y-130371267D01*
X16490000Y-130028733D02*
X16490000Y-130371267D01*
G04 #@! TO.C,Q1*
X19220000Y-184660000D02*
X20150000Y-184660000D01*
X22380000Y-184660000D02*
X21450000Y-184660000D01*
X22380000Y-184660000D02*
X22380000Y-182500000D01*
X19220000Y-184660000D02*
X19220000Y-183200000D01*
G04 #@! TO.C,Q9*
X21360000Y-131780000D02*
X21360000Y-130850000D01*
X21360000Y-128620000D02*
X21360000Y-129550000D01*
X21360000Y-128620000D02*
X19200000Y-128620000D01*
X21360000Y-131780000D02*
X19900000Y-131780000D01*
G04 #@! TO.C,SW1*
X35300000Y-167500000D02*
X30800000Y-167500000D01*
X36550000Y-171500000D02*
X36550000Y-170000000D01*
X30800000Y-174000000D02*
X35300000Y-174000000D01*
X29550000Y-170000000D02*
X29550000Y-171500000D01*
G04 #@! TO.C,R16*
X14290000Y-167071267D02*
X14290000Y-166728733D01*
X15310000Y-167071267D02*
X15310000Y-166728733D01*
G04 #@! TO.C,Y1*
X19450000Y-163300000D02*
G75*
G03X16050000Y-163300000I-1700000J0D01*
G01*
X19450000Y-163300000D02*
G75*
G02X16050000Y-163300000I-1700000J0D01*
G01*
D12*
G04 #@! TO.C,G\002A\002A\002A*
G36*
X43442348Y-167559466D02*
X43515362Y-167576616D01*
X43524715Y-167586806D01*
X43566979Y-167600710D01*
X43681429Y-167611991D01*
X43849547Y-167619331D01*
X44012304Y-167621484D01*
X44442730Y-167642364D01*
X44898996Y-167700289D01*
X45352289Y-167789592D01*
X45773796Y-167904601D01*
X46132444Y-168038641D01*
X46559790Y-168265828D01*
X46954341Y-168547719D01*
X47292935Y-168866689D01*
X47423606Y-169021125D01*
X47565427Y-169211131D01*
X47671953Y-169377901D01*
X47761050Y-169553244D01*
X47850583Y-169768973D01*
X47865858Y-169808619D01*
X47913028Y-169940158D01*
X47945530Y-170058599D01*
X47966020Y-170184019D01*
X47977152Y-170336497D01*
X47981580Y-170536112D01*
X47982124Y-170688000D01*
X47980451Y-170925942D01*
X47973668Y-171104593D01*
X47959130Y-171244010D01*
X47934192Y-171364248D01*
X47896209Y-171485362D01*
X47866306Y-171566145D01*
X47762153Y-171818429D01*
X47656050Y-172024142D01*
X47529175Y-172214702D01*
X47362703Y-172421529D01*
X47333424Y-172455585D01*
X47230434Y-172577388D01*
X47154742Y-172672204D01*
X47118249Y-172724904D01*
X47117046Y-172730686D01*
X47162191Y-172750527D01*
X47266790Y-172793233D01*
X47397166Y-172845188D01*
X47756096Y-173016850D01*
X48121805Y-173245572D01*
X48470626Y-173513645D01*
X48778895Y-173803357D01*
X48964579Y-174018147D01*
X49246185Y-174428429D01*
X49454718Y-174845756D01*
X49604259Y-175299197D01*
X49624502Y-175380599D01*
X49645351Y-175513805D01*
X49662676Y-175719211D01*
X49676404Y-175989701D01*
X49686465Y-176318159D01*
X49692784Y-176697467D01*
X49695289Y-177120508D01*
X49693909Y-177580167D01*
X49688571Y-178069326D01*
X49679202Y-178580868D01*
X49665731Y-179107678D01*
X49663246Y-179191046D01*
X49633403Y-180173312D01*
X49118169Y-180173312D01*
X49088326Y-179191046D01*
X49079446Y-178867944D01*
X49071609Y-178523789D01*
X49065233Y-178181838D01*
X49060735Y-177865343D01*
X49058535Y-177597560D01*
X49058384Y-177526603D01*
X49058286Y-176844426D01*
X48865518Y-176823940D01*
X48727399Y-176809303D01*
X48638209Y-176799875D01*
X49149000Y-176799875D01*
X49149000Y-178823937D01*
X49602572Y-178823937D01*
X49602572Y-176799875D01*
X49149000Y-176799875D01*
X48638209Y-176799875D01*
X48536096Y-176789081D01*
X48328488Y-176767171D01*
X48287215Y-176762820D01*
X48096959Y-176741101D01*
X47931222Y-176719202D01*
X47818594Y-176700990D01*
X47799625Y-176696870D01*
X47745211Y-176687814D01*
X47714659Y-176705346D01*
X47701098Y-176765443D01*
X47697658Y-176884080D01*
X47697572Y-176934152D01*
X47691265Y-177070776D01*
X47674510Y-177164522D01*
X47652215Y-177196750D01*
X47628864Y-177160090D01*
X47612758Y-177062044D01*
X47606858Y-176922819D01*
X47605157Y-176778402D01*
X47593979Y-176693102D01*
X47564210Y-176646661D01*
X47506737Y-176618822D01*
X47464018Y-176605319D01*
X47362567Y-176575678D01*
X47306906Y-176561877D01*
X47305268Y-176561750D01*
X47297879Y-176598304D01*
X47292315Y-176695446D01*
X47289517Y-176834390D01*
X47289358Y-176879250D01*
X47286153Y-177042156D01*
X47274526Y-177139922D01*
X47251457Y-177186642D01*
X47221322Y-177196750D01*
X47187225Y-177182297D01*
X47166394Y-177129705D01*
X47156018Y-177025118D01*
X47153286Y-176861315D01*
X47153286Y-176525880D01*
X46767149Y-176367549D01*
X46577912Y-176286693D01*
X46403782Y-176206587D01*
X46272972Y-176140412D01*
X46239091Y-176120793D01*
X46144211Y-176068537D01*
X46062655Y-176052354D01*
X45953559Y-176067857D01*
X45888175Y-176083132D01*
X45731846Y-176109478D01*
X45511297Y-176131691D01*
X45252954Y-176148629D01*
X44983246Y-176159149D01*
X44728602Y-176162109D01*
X44515450Y-176156367D01*
X44408920Y-176147071D01*
X44193295Y-176118778D01*
X44223523Y-175860614D01*
X44255038Y-175683725D01*
X44304087Y-175502298D01*
X44316273Y-175469133D01*
X44631090Y-175469133D01*
X44637501Y-175638749D01*
X44648050Y-175745574D01*
X44667954Y-175806183D01*
X44702429Y-175837154D01*
X44752160Y-175853894D01*
X44875416Y-175868736D01*
X45018840Y-175864503D01*
X45021500Y-175864199D01*
X45118112Y-175856945D01*
X45287148Y-175848338D01*
X45510352Y-175839141D01*
X45769466Y-175830119D01*
X45996679Y-175823368D01*
X46290378Y-175814741D01*
X46509088Y-175805997D01*
X46668510Y-175795211D01*
X46784348Y-175780461D01*
X46872301Y-175759821D01*
X46948073Y-175731367D01*
X47017215Y-175698301D01*
X47529132Y-175398917D01*
X47970495Y-175050553D01*
X48344886Y-174649964D01*
X48628399Y-174240665D01*
X48841444Y-173884112D01*
X48690423Y-173830192D01*
X48500453Y-173795312D01*
X48363703Y-173800855D01*
X48188004Y-173825439D01*
X48282967Y-173719804D01*
X48366854Y-173603660D01*
X48380450Y-173513352D01*
X48318950Y-173444188D01*
X48177547Y-173391474D01*
X47951435Y-173350517D01*
X47897718Y-173343580D01*
X47379883Y-173319367D01*
X46864548Y-173372811D01*
X46359119Y-173502310D01*
X45870996Y-173706263D01*
X45642664Y-173831533D01*
X45287936Y-174067703D01*
X45016939Y-174309529D01*
X44822892Y-174567989D01*
X44699015Y-174854058D01*
X44638529Y-175178713D01*
X44631090Y-175469133D01*
X44316273Y-175469133D01*
X44341728Y-175399856D01*
X44394889Y-175260442D01*
X44403238Y-175186371D01*
X44366018Y-175173603D01*
X44304950Y-175203547D01*
X43931762Y-175390488D01*
X43500757Y-175528449D01*
X43028852Y-175613438D01*
X42532966Y-175641466D01*
X42452857Y-175640406D01*
X41959893Y-175629093D01*
X41970400Y-175384481D01*
X42003311Y-175194209D01*
X42400589Y-175194209D01*
X42412977Y-175273777D01*
X42486452Y-175315101D01*
X42632904Y-175329397D01*
X42718202Y-175330043D01*
X42930843Y-175319759D01*
X43160159Y-175295025D01*
X43275250Y-175276414D01*
X43459521Y-175235339D01*
X43639079Y-175186233D01*
X43728822Y-175156488D01*
X43967222Y-175104746D01*
X44203883Y-175097993D01*
X44497515Y-175107190D01*
X44564225Y-174919232D01*
X44601488Y-174800620D01*
X44605774Y-174723899D01*
X44575935Y-174656630D01*
X44553795Y-174624559D01*
X44471275Y-174497900D01*
X44369913Y-174324389D01*
X44264550Y-174130872D01*
X44170027Y-173944199D01*
X44128510Y-173855227D01*
X44045138Y-173668861D01*
X43842881Y-173748096D01*
X43719938Y-173800258D01*
X43635537Y-173843488D01*
X43616687Y-173857706D01*
X43568322Y-173895426D01*
X43469296Y-173960218D01*
X43384566Y-174011982D01*
X43065416Y-174237740D01*
X42789200Y-174504067D01*
X42571928Y-174793158D01*
X42437402Y-175065183D01*
X42400589Y-175194209D01*
X42003311Y-175194209D01*
X42026461Y-175060373D01*
X42162646Y-174729046D01*
X42371662Y-174404486D01*
X42633634Y-174112673D01*
X42837853Y-173941291D01*
X43085134Y-173771065D01*
X43347970Y-173618448D01*
X43598850Y-173499898D01*
X43744083Y-173448436D01*
X43962492Y-173384961D01*
X43899752Y-173137808D01*
X43829760Y-172738045D01*
X43806947Y-172297236D01*
X43829289Y-171839186D01*
X43894762Y-171387699D01*
X44001343Y-170966579D01*
X44108555Y-170681570D01*
X44192319Y-170492077D01*
X44254644Y-170366500D01*
X44311185Y-170296321D01*
X44377600Y-170273021D01*
X44469543Y-170288082D01*
X44602671Y-170332985D01*
X44691211Y-170364541D01*
X44927886Y-170447716D01*
X45090746Y-170204573D01*
X45289243Y-169846254D01*
X45434078Y-169453441D01*
X45471137Y-169281274D01*
X45711856Y-169281274D01*
X45727420Y-169408952D01*
X45828794Y-169522292D01*
X45905965Y-169568502D01*
X45980971Y-169603263D01*
X46037103Y-169608108D01*
X46110420Y-169579092D01*
X46189447Y-169537497D01*
X46305189Y-169437735D01*
X46338855Y-169314253D01*
X46288199Y-169181027D01*
X46253572Y-169138359D01*
X46134676Y-169065964D01*
X45988838Y-169051577D01*
X45850198Y-169094519D01*
X45784530Y-169147680D01*
X45711856Y-169281274D01*
X45471137Y-169281274D01*
X45522001Y-169044979D01*
X45549768Y-168639711D01*
X45514132Y-168256481D01*
X45462192Y-168048781D01*
X45419471Y-167942092D01*
X45375162Y-167870708D01*
X45363887Y-167860873D01*
X45263858Y-167832052D01*
X45159687Y-167844371D01*
X45094781Y-167892465D01*
X45093966Y-167894240D01*
X45033501Y-167935551D01*
X44922026Y-167926300D01*
X44775512Y-167869461D01*
X44684088Y-167817939D01*
X44615513Y-167780630D01*
X44538985Y-167755815D01*
X44435021Y-167741035D01*
X44284136Y-167733830D01*
X44066845Y-167731742D01*
X44000965Y-167731730D01*
X43765213Y-167733209D01*
X43599275Y-167739092D01*
X43482268Y-167752233D01*
X43393310Y-167775488D01*
X43311516Y-167811711D01*
X43275250Y-167830949D01*
X43093822Y-167929718D01*
X43434000Y-167938498D01*
X43688766Y-167950426D01*
X43968896Y-167972441D01*
X44256349Y-168002164D01*
X44533083Y-168037217D01*
X44781056Y-168075221D01*
X44982229Y-168113799D01*
X45118559Y-168150572D01*
X45152341Y-168165014D01*
X45176255Y-168222545D01*
X45156961Y-168288311D01*
X45136389Y-168360342D01*
X45147355Y-168387331D01*
X45142392Y-168404143D01*
X45101422Y-168428723D01*
X45014228Y-168445501D01*
X44862449Y-168435665D01*
X44681133Y-168407194D01*
X44059286Y-168330534D01*
X43413276Y-168322012D01*
X42735668Y-168381857D01*
X42137172Y-168485012D01*
X41879425Y-168544157D01*
X41643707Y-168608710D01*
X41443505Y-168673875D01*
X41292307Y-168734854D01*
X41203600Y-168786847D01*
X41188642Y-168822433D01*
X41237576Y-168849257D01*
X41251339Y-168845515D01*
X41338181Y-168822202D01*
X41500299Y-168800359D01*
X41722257Y-168780651D01*
X41988622Y-168763742D01*
X42283959Y-168750295D01*
X42592833Y-168740975D01*
X42899811Y-168736446D01*
X43189458Y-168737372D01*
X43446340Y-168744418D01*
X43517686Y-168747992D01*
X43738313Y-168763744D01*
X43985955Y-168786624D01*
X44243699Y-168814455D01*
X44494634Y-168845058D01*
X44721850Y-168876257D01*
X44908434Y-168905875D01*
X45037475Y-168931733D01*
X45091096Y-168950573D01*
X45109274Y-168992163D01*
X45140165Y-169082084D01*
X45149995Y-169113030D01*
X45177227Y-169209724D01*
X45169368Y-169248884D01*
X45115488Y-169249483D01*
X45075364Y-169242595D01*
X44700816Y-169177289D01*
X44386530Y-169128146D01*
X44107269Y-169092962D01*
X43837799Y-169069532D01*
X43552883Y-169055653D01*
X43227287Y-169049119D01*
X42844358Y-169047719D01*
X42457454Y-169049718D01*
X42139441Y-169056180D01*
X41868543Y-169068956D01*
X41622987Y-169089893D01*
X41380996Y-169120842D01*
X41120796Y-169163651D01*
X40825965Y-169219124D01*
X40514720Y-169288193D01*
X40175153Y-169377229D01*
X39844090Y-169475798D01*
X39558361Y-169573470D01*
X39510608Y-169591701D01*
X39193108Y-169715656D01*
X39351858Y-169737574D01*
X39471902Y-169744067D01*
X39554759Y-169730871D01*
X39560138Y-169727997D01*
X39618722Y-169710559D01*
X39631363Y-169715483D01*
X39682075Y-169716276D01*
X39802310Y-169703613D01*
X39972698Y-169679844D01*
X40126118Y-169655415D01*
X40815592Y-169560685D01*
X41440353Y-169517608D01*
X41998635Y-169526292D01*
X42114583Y-169535361D01*
X42510802Y-169576789D01*
X42893776Y-169626979D01*
X43239938Y-169682418D01*
X43525720Y-169739593D01*
X43592750Y-169755697D01*
X43772406Y-169799660D01*
X43954980Y-169842306D01*
X44012881Y-169855243D01*
X44130754Y-169885954D01*
X44176350Y-169916970D01*
X44166889Y-169961560D01*
X44161888Y-169970072D01*
X44135188Y-170036826D01*
X44139728Y-170061970D01*
X44130241Y-170099281D01*
X44104114Y-170122944D01*
X44040383Y-170137283D01*
X43915411Y-170127111D01*
X43719123Y-170091330D01*
X43622781Y-170070578D01*
X42796628Y-169917148D01*
X41973913Y-169822425D01*
X41172319Y-169787860D01*
X40461761Y-169810943D01*
X39955827Y-169853870D01*
X39518428Y-169905030D01*
X39127590Y-169967368D01*
X38813824Y-170031738D01*
X38658343Y-170063135D01*
X38535299Y-170080967D01*
X38475314Y-170081768D01*
X38480431Y-170049506D01*
X38544007Y-169974816D01*
X38655321Y-169866616D01*
X38803656Y-169733824D01*
X38978291Y-169585359D01*
X39168507Y-169430138D01*
X39363585Y-169277081D01*
X39552806Y-169135106D01*
X39725451Y-169013131D01*
X39870801Y-168920074D01*
X39873465Y-168918506D01*
X40201432Y-168739151D01*
X40558964Y-168566563D01*
X40921676Y-168411115D01*
X41265181Y-168283179D01*
X41565093Y-168193129D01*
X41597036Y-168185352D01*
X41946295Y-168106897D01*
X42233580Y-168051931D01*
X42481940Y-168016274D01*
X42591385Y-168005032D01*
X42834234Y-167968154D01*
X42997464Y-167905512D01*
X43088926Y-167812377D01*
X43116500Y-167688713D01*
X43121045Y-167605130D01*
X43151138Y-167565550D01*
X43231462Y-167553523D01*
X43320608Y-167552687D01*
X43442348Y-167559466D01*
X43442348Y-167559466D01*
G37*
X43442348Y-167559466D02*
X43515362Y-167576616D01*
X43524715Y-167586806D01*
X43566979Y-167600710D01*
X43681429Y-167611991D01*
X43849547Y-167619331D01*
X44012304Y-167621484D01*
X44442730Y-167642364D01*
X44898996Y-167700289D01*
X45352289Y-167789592D01*
X45773796Y-167904601D01*
X46132444Y-168038641D01*
X46559790Y-168265828D01*
X46954341Y-168547719D01*
X47292935Y-168866689D01*
X47423606Y-169021125D01*
X47565427Y-169211131D01*
X47671953Y-169377901D01*
X47761050Y-169553244D01*
X47850583Y-169768973D01*
X47865858Y-169808619D01*
X47913028Y-169940158D01*
X47945530Y-170058599D01*
X47966020Y-170184019D01*
X47977152Y-170336497D01*
X47981580Y-170536112D01*
X47982124Y-170688000D01*
X47980451Y-170925942D01*
X47973668Y-171104593D01*
X47959130Y-171244010D01*
X47934192Y-171364248D01*
X47896209Y-171485362D01*
X47866306Y-171566145D01*
X47762153Y-171818429D01*
X47656050Y-172024142D01*
X47529175Y-172214702D01*
X47362703Y-172421529D01*
X47333424Y-172455585D01*
X47230434Y-172577388D01*
X47154742Y-172672204D01*
X47118249Y-172724904D01*
X47117046Y-172730686D01*
X47162191Y-172750527D01*
X47266790Y-172793233D01*
X47397166Y-172845188D01*
X47756096Y-173016850D01*
X48121805Y-173245572D01*
X48470626Y-173513645D01*
X48778895Y-173803357D01*
X48964579Y-174018147D01*
X49246185Y-174428429D01*
X49454718Y-174845756D01*
X49604259Y-175299197D01*
X49624502Y-175380599D01*
X49645351Y-175513805D01*
X49662676Y-175719211D01*
X49676404Y-175989701D01*
X49686465Y-176318159D01*
X49692784Y-176697467D01*
X49695289Y-177120508D01*
X49693909Y-177580167D01*
X49688571Y-178069326D01*
X49679202Y-178580868D01*
X49665731Y-179107678D01*
X49663246Y-179191046D01*
X49633403Y-180173312D01*
X49118169Y-180173312D01*
X49088326Y-179191046D01*
X49079446Y-178867944D01*
X49071609Y-178523789D01*
X49065233Y-178181838D01*
X49060735Y-177865343D01*
X49058535Y-177597560D01*
X49058384Y-177526603D01*
X49058286Y-176844426D01*
X48865518Y-176823940D01*
X48727399Y-176809303D01*
X48638209Y-176799875D01*
X49149000Y-176799875D01*
X49149000Y-178823937D01*
X49602572Y-178823937D01*
X49602572Y-176799875D01*
X49149000Y-176799875D01*
X48638209Y-176799875D01*
X48536096Y-176789081D01*
X48328488Y-176767171D01*
X48287215Y-176762820D01*
X48096959Y-176741101D01*
X47931222Y-176719202D01*
X47818594Y-176700990D01*
X47799625Y-176696870D01*
X47745211Y-176687814D01*
X47714659Y-176705346D01*
X47701098Y-176765443D01*
X47697658Y-176884080D01*
X47697572Y-176934152D01*
X47691265Y-177070776D01*
X47674510Y-177164522D01*
X47652215Y-177196750D01*
X47628864Y-177160090D01*
X47612758Y-177062044D01*
X47606858Y-176922819D01*
X47605157Y-176778402D01*
X47593979Y-176693102D01*
X47564210Y-176646661D01*
X47506737Y-176618822D01*
X47464018Y-176605319D01*
X47362567Y-176575678D01*
X47306906Y-176561877D01*
X47305268Y-176561750D01*
X47297879Y-176598304D01*
X47292315Y-176695446D01*
X47289517Y-176834390D01*
X47289358Y-176879250D01*
X47286153Y-177042156D01*
X47274526Y-177139922D01*
X47251457Y-177186642D01*
X47221322Y-177196750D01*
X47187225Y-177182297D01*
X47166394Y-177129705D01*
X47156018Y-177025118D01*
X47153286Y-176861315D01*
X47153286Y-176525880D01*
X46767149Y-176367549D01*
X46577912Y-176286693D01*
X46403782Y-176206587D01*
X46272972Y-176140412D01*
X46239091Y-176120793D01*
X46144211Y-176068537D01*
X46062655Y-176052354D01*
X45953559Y-176067857D01*
X45888175Y-176083132D01*
X45731846Y-176109478D01*
X45511297Y-176131691D01*
X45252954Y-176148629D01*
X44983246Y-176159149D01*
X44728602Y-176162109D01*
X44515450Y-176156367D01*
X44408920Y-176147071D01*
X44193295Y-176118778D01*
X44223523Y-175860614D01*
X44255038Y-175683725D01*
X44304087Y-175502298D01*
X44316273Y-175469133D01*
X44631090Y-175469133D01*
X44637501Y-175638749D01*
X44648050Y-175745574D01*
X44667954Y-175806183D01*
X44702429Y-175837154D01*
X44752160Y-175853894D01*
X44875416Y-175868736D01*
X45018840Y-175864503D01*
X45021500Y-175864199D01*
X45118112Y-175856945D01*
X45287148Y-175848338D01*
X45510352Y-175839141D01*
X45769466Y-175830119D01*
X45996679Y-175823368D01*
X46290378Y-175814741D01*
X46509088Y-175805997D01*
X46668510Y-175795211D01*
X46784348Y-175780461D01*
X46872301Y-175759821D01*
X46948073Y-175731367D01*
X47017215Y-175698301D01*
X47529132Y-175398917D01*
X47970495Y-175050553D01*
X48344886Y-174649964D01*
X48628399Y-174240665D01*
X48841444Y-173884112D01*
X48690423Y-173830192D01*
X48500453Y-173795312D01*
X48363703Y-173800855D01*
X48188004Y-173825439D01*
X48282967Y-173719804D01*
X48366854Y-173603660D01*
X48380450Y-173513352D01*
X48318950Y-173444188D01*
X48177547Y-173391474D01*
X47951435Y-173350517D01*
X47897718Y-173343580D01*
X47379883Y-173319367D01*
X46864548Y-173372811D01*
X46359119Y-173502310D01*
X45870996Y-173706263D01*
X45642664Y-173831533D01*
X45287936Y-174067703D01*
X45016939Y-174309529D01*
X44822892Y-174567989D01*
X44699015Y-174854058D01*
X44638529Y-175178713D01*
X44631090Y-175469133D01*
X44316273Y-175469133D01*
X44341728Y-175399856D01*
X44394889Y-175260442D01*
X44403238Y-175186371D01*
X44366018Y-175173603D01*
X44304950Y-175203547D01*
X43931762Y-175390488D01*
X43500757Y-175528449D01*
X43028852Y-175613438D01*
X42532966Y-175641466D01*
X42452857Y-175640406D01*
X41959893Y-175629093D01*
X41970400Y-175384481D01*
X42003311Y-175194209D01*
X42400589Y-175194209D01*
X42412977Y-175273777D01*
X42486452Y-175315101D01*
X42632904Y-175329397D01*
X42718202Y-175330043D01*
X42930843Y-175319759D01*
X43160159Y-175295025D01*
X43275250Y-175276414D01*
X43459521Y-175235339D01*
X43639079Y-175186233D01*
X43728822Y-175156488D01*
X43967222Y-175104746D01*
X44203883Y-175097993D01*
X44497515Y-175107190D01*
X44564225Y-174919232D01*
X44601488Y-174800620D01*
X44605774Y-174723899D01*
X44575935Y-174656630D01*
X44553795Y-174624559D01*
X44471275Y-174497900D01*
X44369913Y-174324389D01*
X44264550Y-174130872D01*
X44170027Y-173944199D01*
X44128510Y-173855227D01*
X44045138Y-173668861D01*
X43842881Y-173748096D01*
X43719938Y-173800258D01*
X43635537Y-173843488D01*
X43616687Y-173857706D01*
X43568322Y-173895426D01*
X43469296Y-173960218D01*
X43384566Y-174011982D01*
X43065416Y-174237740D01*
X42789200Y-174504067D01*
X42571928Y-174793158D01*
X42437402Y-175065183D01*
X42400589Y-175194209D01*
X42003311Y-175194209D01*
X42026461Y-175060373D01*
X42162646Y-174729046D01*
X42371662Y-174404486D01*
X42633634Y-174112673D01*
X42837853Y-173941291D01*
X43085134Y-173771065D01*
X43347970Y-173618448D01*
X43598850Y-173499898D01*
X43744083Y-173448436D01*
X43962492Y-173384961D01*
X43899752Y-173137808D01*
X43829760Y-172738045D01*
X43806947Y-172297236D01*
X43829289Y-171839186D01*
X43894762Y-171387699D01*
X44001343Y-170966579D01*
X44108555Y-170681570D01*
X44192319Y-170492077D01*
X44254644Y-170366500D01*
X44311185Y-170296321D01*
X44377600Y-170273021D01*
X44469543Y-170288082D01*
X44602671Y-170332985D01*
X44691211Y-170364541D01*
X44927886Y-170447716D01*
X45090746Y-170204573D01*
X45289243Y-169846254D01*
X45434078Y-169453441D01*
X45471137Y-169281274D01*
X45711856Y-169281274D01*
X45727420Y-169408952D01*
X45828794Y-169522292D01*
X45905965Y-169568502D01*
X45980971Y-169603263D01*
X46037103Y-169608108D01*
X46110420Y-169579092D01*
X46189447Y-169537497D01*
X46305189Y-169437735D01*
X46338855Y-169314253D01*
X46288199Y-169181027D01*
X46253572Y-169138359D01*
X46134676Y-169065964D01*
X45988838Y-169051577D01*
X45850198Y-169094519D01*
X45784530Y-169147680D01*
X45711856Y-169281274D01*
X45471137Y-169281274D01*
X45522001Y-169044979D01*
X45549768Y-168639711D01*
X45514132Y-168256481D01*
X45462192Y-168048781D01*
X45419471Y-167942092D01*
X45375162Y-167870708D01*
X45363887Y-167860873D01*
X45263858Y-167832052D01*
X45159687Y-167844371D01*
X45094781Y-167892465D01*
X45093966Y-167894240D01*
X45033501Y-167935551D01*
X44922026Y-167926300D01*
X44775512Y-167869461D01*
X44684088Y-167817939D01*
X44615513Y-167780630D01*
X44538985Y-167755815D01*
X44435021Y-167741035D01*
X44284136Y-167733830D01*
X44066845Y-167731742D01*
X44000965Y-167731730D01*
X43765213Y-167733209D01*
X43599275Y-167739092D01*
X43482268Y-167752233D01*
X43393310Y-167775488D01*
X43311516Y-167811711D01*
X43275250Y-167830949D01*
X43093822Y-167929718D01*
X43434000Y-167938498D01*
X43688766Y-167950426D01*
X43968896Y-167972441D01*
X44256349Y-168002164D01*
X44533083Y-168037217D01*
X44781056Y-168075221D01*
X44982229Y-168113799D01*
X45118559Y-168150572D01*
X45152341Y-168165014D01*
X45176255Y-168222545D01*
X45156961Y-168288311D01*
X45136389Y-168360342D01*
X45147355Y-168387331D01*
X45142392Y-168404143D01*
X45101422Y-168428723D01*
X45014228Y-168445501D01*
X44862449Y-168435665D01*
X44681133Y-168407194D01*
X44059286Y-168330534D01*
X43413276Y-168322012D01*
X42735668Y-168381857D01*
X42137172Y-168485012D01*
X41879425Y-168544157D01*
X41643707Y-168608710D01*
X41443505Y-168673875D01*
X41292307Y-168734854D01*
X41203600Y-168786847D01*
X41188642Y-168822433D01*
X41237576Y-168849257D01*
X41251339Y-168845515D01*
X41338181Y-168822202D01*
X41500299Y-168800359D01*
X41722257Y-168780651D01*
X41988622Y-168763742D01*
X42283959Y-168750295D01*
X42592833Y-168740975D01*
X42899811Y-168736446D01*
X43189458Y-168737372D01*
X43446340Y-168744418D01*
X43517686Y-168747992D01*
X43738313Y-168763744D01*
X43985955Y-168786624D01*
X44243699Y-168814455D01*
X44494634Y-168845058D01*
X44721850Y-168876257D01*
X44908434Y-168905875D01*
X45037475Y-168931733D01*
X45091096Y-168950573D01*
X45109274Y-168992163D01*
X45140165Y-169082084D01*
X45149995Y-169113030D01*
X45177227Y-169209724D01*
X45169368Y-169248884D01*
X45115488Y-169249483D01*
X45075364Y-169242595D01*
X44700816Y-169177289D01*
X44386530Y-169128146D01*
X44107269Y-169092962D01*
X43837799Y-169069532D01*
X43552883Y-169055653D01*
X43227287Y-169049119D01*
X42844358Y-169047719D01*
X42457454Y-169049718D01*
X42139441Y-169056180D01*
X41868543Y-169068956D01*
X41622987Y-169089893D01*
X41380996Y-169120842D01*
X41120796Y-169163651D01*
X40825965Y-169219124D01*
X40514720Y-169288193D01*
X40175153Y-169377229D01*
X39844090Y-169475798D01*
X39558361Y-169573470D01*
X39510608Y-169591701D01*
X39193108Y-169715656D01*
X39351858Y-169737574D01*
X39471902Y-169744067D01*
X39554759Y-169730871D01*
X39560138Y-169727997D01*
X39618722Y-169710559D01*
X39631363Y-169715483D01*
X39682075Y-169716276D01*
X39802310Y-169703613D01*
X39972698Y-169679844D01*
X40126118Y-169655415D01*
X40815592Y-169560685D01*
X41440353Y-169517608D01*
X41998635Y-169526292D01*
X42114583Y-169535361D01*
X42510802Y-169576789D01*
X42893776Y-169626979D01*
X43239938Y-169682418D01*
X43525720Y-169739593D01*
X43592750Y-169755697D01*
X43772406Y-169799660D01*
X43954980Y-169842306D01*
X44012881Y-169855243D01*
X44130754Y-169885954D01*
X44176350Y-169916970D01*
X44166889Y-169961560D01*
X44161888Y-169970072D01*
X44135188Y-170036826D01*
X44139728Y-170061970D01*
X44130241Y-170099281D01*
X44104114Y-170122944D01*
X44040383Y-170137283D01*
X43915411Y-170127111D01*
X43719123Y-170091330D01*
X43622781Y-170070578D01*
X42796628Y-169917148D01*
X41973913Y-169822425D01*
X41172319Y-169787860D01*
X40461761Y-169810943D01*
X39955827Y-169853870D01*
X39518428Y-169905030D01*
X39127590Y-169967368D01*
X38813824Y-170031738D01*
X38658343Y-170063135D01*
X38535299Y-170080967D01*
X38475314Y-170081768D01*
X38480431Y-170049506D01*
X38544007Y-169974816D01*
X38655321Y-169866616D01*
X38803656Y-169733824D01*
X38978291Y-169585359D01*
X39168507Y-169430138D01*
X39363585Y-169277081D01*
X39552806Y-169135106D01*
X39725451Y-169013131D01*
X39870801Y-168920074D01*
X39873465Y-168918506D01*
X40201432Y-168739151D01*
X40558964Y-168566563D01*
X40921676Y-168411115D01*
X41265181Y-168283179D01*
X41565093Y-168193129D01*
X41597036Y-168185352D01*
X41946295Y-168106897D01*
X42233580Y-168051931D01*
X42481940Y-168016274D01*
X42591385Y-168005032D01*
X42834234Y-167968154D01*
X42997464Y-167905512D01*
X43088926Y-167812377D01*
X43116500Y-167688713D01*
X43121045Y-167605130D01*
X43151138Y-167565550D01*
X43231462Y-167553523D01*
X43320608Y-167552687D01*
X43442348Y-167559466D01*
G36*
X46146785Y-169281336D02*
X46198959Y-169343013D01*
X46200786Y-169356619D01*
X46168457Y-169465889D01*
X46088371Y-169529575D01*
X45985882Y-169537813D01*
X45886340Y-169480740D01*
X45885092Y-169479435D01*
X45852881Y-169392300D01*
X45882982Y-169299551D01*
X45956334Y-169243214D01*
X46052463Y-169241832D01*
X46146785Y-169281336D01*
X46146785Y-169281336D01*
G37*
X46146785Y-169281336D02*
X46198959Y-169343013D01*
X46200786Y-169356619D01*
X46168457Y-169465889D01*
X46088371Y-169529575D01*
X45985882Y-169537813D01*
X45886340Y-169480740D01*
X45885092Y-169479435D01*
X45852881Y-169392300D01*
X45882982Y-169299551D01*
X45956334Y-169243214D01*
X46052463Y-169241832D01*
X46146785Y-169281336D01*
G36*
X51249914Y-186510463D02*
X51452887Y-186704763D01*
X51564506Y-187033929D01*
X51586789Y-187502323D01*
X51566832Y-187773177D01*
X51509833Y-188126849D01*
X51411777Y-188342187D01*
X51248040Y-188449392D01*
X50993996Y-188478665D01*
X50991584Y-188478666D01*
X50742262Y-188449706D01*
X50581312Y-188339341D01*
X50518853Y-188255257D01*
X50420476Y-188011845D01*
X50376278Y-187649548D01*
X50375001Y-187586842D01*
X50448462Y-187586842D01*
X50490266Y-187920279D01*
X50580427Y-188171898D01*
X50618408Y-188224013D01*
X50839560Y-188363168D01*
X51089984Y-188372994D01*
X51309371Y-188259981D01*
X51398987Y-188140000D01*
X51488437Y-187845662D01*
X51511960Y-187492937D01*
X51475738Y-187135199D01*
X51385953Y-186825820D01*
X51248787Y-186618173D01*
X51220158Y-186596129D01*
X50989938Y-186533894D01*
X50743534Y-186602836D01*
X50614690Y-186705428D01*
X50510525Y-186918437D01*
X50455165Y-187232568D01*
X50448462Y-187586842D01*
X50375001Y-187586842D01*
X50372470Y-187462666D01*
X50403383Y-187004512D01*
X50501260Y-186691505D01*
X50673812Y-186510167D01*
X50928749Y-186447016D01*
X50953570Y-186446666D01*
X51249914Y-186510463D01*
X51249914Y-186510463D01*
G37*
X51249914Y-186510463D02*
X51452887Y-186704763D01*
X51564506Y-187033929D01*
X51586789Y-187502323D01*
X51566832Y-187773177D01*
X51509833Y-188126849D01*
X51411777Y-188342187D01*
X51248040Y-188449392D01*
X50993996Y-188478665D01*
X50991584Y-188478666D01*
X50742262Y-188449706D01*
X50581312Y-188339341D01*
X50518853Y-188255257D01*
X50420476Y-188011845D01*
X50376278Y-187649548D01*
X50375001Y-187586842D01*
X50448462Y-187586842D01*
X50490266Y-187920279D01*
X50580427Y-188171898D01*
X50618408Y-188224013D01*
X50839560Y-188363168D01*
X51089984Y-188372994D01*
X51309371Y-188259981D01*
X51398987Y-188140000D01*
X51488437Y-187845662D01*
X51511960Y-187492937D01*
X51475738Y-187135199D01*
X51385953Y-186825820D01*
X51248787Y-186618173D01*
X51220158Y-186596129D01*
X50989938Y-186533894D01*
X50743534Y-186602836D01*
X50614690Y-186705428D01*
X50510525Y-186918437D01*
X50455165Y-187232568D01*
X50448462Y-187586842D01*
X50375001Y-187586842D01*
X50372470Y-187462666D01*
X50403383Y-187004512D01*
X50501260Y-186691505D01*
X50673812Y-186510167D01*
X50928749Y-186447016D01*
X50953570Y-186446666D01*
X51249914Y-186510463D01*
G36*
X38215333Y-188351666D02*
X38173000Y-188394000D01*
X38130666Y-188351666D01*
X38173000Y-188309333D01*
X38215333Y-188351666D01*
X38215333Y-188351666D01*
G37*
X38215333Y-188351666D02*
X38173000Y-188394000D01*
X38130666Y-188351666D01*
X38173000Y-188309333D01*
X38215333Y-188351666D01*
G36*
X37948590Y-187202601D02*
X37924657Y-187603466D01*
X37884215Y-187878898D01*
X37818152Y-188072634D01*
X37741295Y-188197434D01*
X37528345Y-188385283D01*
X37279724Y-188465810D01*
X37049067Y-188429293D01*
X36938121Y-188343027D01*
X36861548Y-188155570D01*
X36820231Y-187857368D01*
X36813173Y-187503085D01*
X36813335Y-187500876D01*
X36903000Y-187500876D01*
X36934193Y-187942250D01*
X37024023Y-188239726D01*
X37166868Y-188388079D01*
X37357104Y-188382084D01*
X37589107Y-188216515D01*
X37629074Y-188175562D01*
X37733715Y-188042314D01*
X37799590Y-187884203D01*
X37838267Y-187655410D01*
X37861313Y-187310115D01*
X37864188Y-187244229D01*
X37894043Y-186531333D01*
X37559810Y-186531333D01*
X37268215Y-186567288D01*
X37072393Y-186689970D01*
X36957287Y-186921603D01*
X36907841Y-187284413D01*
X36903000Y-187500876D01*
X36813335Y-187500876D01*
X36839382Y-187147386D01*
X36897862Y-186844933D01*
X36968451Y-186676132D01*
X37083221Y-186536334D01*
X37228029Y-186468137D01*
X37464110Y-186447311D01*
X37548375Y-186446666D01*
X37978181Y-186446666D01*
X37948590Y-187202601D01*
X37948590Y-187202601D01*
G37*
X37948590Y-187202601D02*
X37924657Y-187603466D01*
X37884215Y-187878898D01*
X37818152Y-188072634D01*
X37741295Y-188197434D01*
X37528345Y-188385283D01*
X37279724Y-188465810D01*
X37049067Y-188429293D01*
X36938121Y-188343027D01*
X36861548Y-188155570D01*
X36820231Y-187857368D01*
X36813173Y-187503085D01*
X36813335Y-187500876D01*
X36903000Y-187500876D01*
X36934193Y-187942250D01*
X37024023Y-188239726D01*
X37166868Y-188388079D01*
X37357104Y-188382084D01*
X37589107Y-188216515D01*
X37629074Y-188175562D01*
X37733715Y-188042314D01*
X37799590Y-187884203D01*
X37838267Y-187655410D01*
X37861313Y-187310115D01*
X37864188Y-187244229D01*
X37894043Y-186531333D01*
X37559810Y-186531333D01*
X37268215Y-186567288D01*
X37072393Y-186689970D01*
X36957287Y-186921603D01*
X36907841Y-187284413D01*
X36903000Y-187500876D01*
X36813335Y-187500876D01*
X36839382Y-187147386D01*
X36897862Y-186844933D01*
X36968451Y-186676132D01*
X37083221Y-186536334D01*
X37228029Y-186468137D01*
X37464110Y-186447311D01*
X37548375Y-186446666D01*
X37978181Y-186446666D01*
X37948590Y-187202601D01*
G36*
X43956205Y-186475056D02*
X44105988Y-186570209D01*
X44196669Y-186771772D01*
X44241274Y-187103006D01*
X44251550Y-187386753D01*
X44228248Y-187838984D01*
X44132847Y-188152606D01*
X43951529Y-188347997D01*
X43670474Y-188445535D01*
X43522396Y-188462026D01*
X43280691Y-188469054D01*
X43155234Y-188433119D01*
X43094122Y-188331230D01*
X43075347Y-188263998D01*
X43055956Y-188062205D01*
X43124909Y-188062205D01*
X43154433Y-188261306D01*
X43276384Y-188372795D01*
X43485166Y-188398307D01*
X43725117Y-188343354D01*
X43940577Y-188213450D01*
X43974813Y-188180048D01*
X44083426Y-188041431D01*
X44143000Y-187882682D01*
X44166092Y-187650943D01*
X44166664Y-187372573D01*
X44146782Y-187040865D01*
X44103407Y-186780945D01*
X44051173Y-186650910D01*
X43870413Y-186545344D01*
X43653063Y-186574626D01*
X43444971Y-186725691D01*
X43354901Y-186849309D01*
X43261183Y-187085179D01*
X43185678Y-187407742D01*
X43137287Y-187754313D01*
X43124909Y-188062205D01*
X43055956Y-188062205D01*
X43045569Y-187954126D01*
X43072347Y-187562408D01*
X43145906Y-187162796D01*
X43256472Y-186829246D01*
X43268285Y-186804215D01*
X43395682Y-186592879D01*
X43545297Y-186494550D01*
X43734295Y-186463052D01*
X43956205Y-186475056D01*
X43956205Y-186475056D01*
G37*
X43956205Y-186475056D02*
X44105988Y-186570209D01*
X44196669Y-186771772D01*
X44241274Y-187103006D01*
X44251550Y-187386753D01*
X44228248Y-187838984D01*
X44132847Y-188152606D01*
X43951529Y-188347997D01*
X43670474Y-188445535D01*
X43522396Y-188462026D01*
X43280691Y-188469054D01*
X43155234Y-188433119D01*
X43094122Y-188331230D01*
X43075347Y-188263998D01*
X43055956Y-188062205D01*
X43124909Y-188062205D01*
X43154433Y-188261306D01*
X43276384Y-188372795D01*
X43485166Y-188398307D01*
X43725117Y-188343354D01*
X43940577Y-188213450D01*
X43974813Y-188180048D01*
X44083426Y-188041431D01*
X44143000Y-187882682D01*
X44166092Y-187650943D01*
X44166664Y-187372573D01*
X44146782Y-187040865D01*
X44103407Y-186780945D01*
X44051173Y-186650910D01*
X43870413Y-186545344D01*
X43653063Y-186574626D01*
X43444971Y-186725691D01*
X43354901Y-186849309D01*
X43261183Y-187085179D01*
X43185678Y-187407742D01*
X43137287Y-187754313D01*
X43124909Y-188062205D01*
X43055956Y-188062205D01*
X43045569Y-187954126D01*
X43072347Y-187562408D01*
X43145906Y-187162796D01*
X43256472Y-186829246D01*
X43268285Y-186804215D01*
X43395682Y-186592879D01*
X43545297Y-186494550D01*
X43734295Y-186463052D01*
X43956205Y-186475056D01*
G36*
X40817718Y-186469084D02*
X40960989Y-186550254D01*
X41055152Y-186736192D01*
X41123918Y-187056529D01*
X41135319Y-187130019D01*
X41148651Y-187501421D01*
X41092898Y-187876137D01*
X40981424Y-188191884D01*
X40874048Y-188347856D01*
X40690711Y-188438849D01*
X40406155Y-188478207D01*
X40369898Y-188478666D01*
X40132072Y-188466709D01*
X40009670Y-188412668D01*
X39949431Y-188289289D01*
X39941544Y-188259471D01*
X39922807Y-188062246D01*
X39992232Y-188062246D01*
X40021766Y-188261306D01*
X40141633Y-188365887D01*
X40350940Y-188396904D01*
X40588267Y-188357703D01*
X40792196Y-188251631D01*
X40828653Y-188217340D01*
X40960199Y-188008292D01*
X41047560Y-187751067D01*
X41048205Y-187747670D01*
X41072054Y-187451095D01*
X41050457Y-187128782D01*
X40992281Y-186839823D01*
X40906397Y-186643310D01*
X40877789Y-186612228D01*
X40672835Y-186537842D01*
X40449997Y-186606490D01*
X40251493Y-186802901D01*
X40222381Y-186849309D01*
X40128594Y-187085164D01*
X40053034Y-187407736D01*
X40004611Y-187754328D01*
X39992232Y-188062246D01*
X39922807Y-188062246D01*
X39912484Y-187953595D01*
X39939282Y-187565186D01*
X40012130Y-187167795D01*
X40121219Y-186834971D01*
X40135618Y-186804215D01*
X40263015Y-186592879D01*
X40412630Y-186494550D01*
X40601629Y-186463052D01*
X40817718Y-186469084D01*
X40817718Y-186469084D01*
G37*
X40817718Y-186469084D02*
X40960989Y-186550254D01*
X41055152Y-186736192D01*
X41123918Y-187056529D01*
X41135319Y-187130019D01*
X41148651Y-187501421D01*
X41092898Y-187876137D01*
X40981424Y-188191884D01*
X40874048Y-188347856D01*
X40690711Y-188438849D01*
X40406155Y-188478207D01*
X40369898Y-188478666D01*
X40132072Y-188466709D01*
X40009670Y-188412668D01*
X39949431Y-188289289D01*
X39941544Y-188259471D01*
X39922807Y-188062246D01*
X39992232Y-188062246D01*
X40021766Y-188261306D01*
X40141633Y-188365887D01*
X40350940Y-188396904D01*
X40588267Y-188357703D01*
X40792196Y-188251631D01*
X40828653Y-188217340D01*
X40960199Y-188008292D01*
X41047560Y-187751067D01*
X41048205Y-187747670D01*
X41072054Y-187451095D01*
X41050457Y-187128782D01*
X40992281Y-186839823D01*
X40906397Y-186643310D01*
X40877789Y-186612228D01*
X40672835Y-186537842D01*
X40449997Y-186606490D01*
X40251493Y-186802901D01*
X40222381Y-186849309D01*
X40128594Y-187085164D01*
X40053034Y-187407736D01*
X40004611Y-187754328D01*
X39992232Y-188062246D01*
X39922807Y-188062246D01*
X39912484Y-187953595D01*
X39939282Y-187565186D01*
X40012130Y-187167795D01*
X40121219Y-186834971D01*
X40135618Y-186804215D01*
X40263015Y-186592879D01*
X40412630Y-186494550D01*
X40601629Y-186463052D01*
X40817718Y-186469084D01*
G36*
X46083552Y-184794142D02*
X46235897Y-184970140D01*
X46267747Y-185206459D01*
X46193022Y-185402787D01*
X46039235Y-185513064D01*
X45810544Y-185559644D01*
X45594180Y-185527667D01*
X45560166Y-185510598D01*
X45449898Y-185359120D01*
X45416655Y-185141455D01*
X45520173Y-185141455D01*
X45552503Y-185343151D01*
X45582245Y-185389432D01*
X45719091Y-185499992D01*
X45882502Y-185487250D01*
X46010232Y-185427687D01*
X46147168Y-185281488D01*
X46164484Y-185095329D01*
X46086009Y-184919228D01*
X45935573Y-184803205D01*
X45737002Y-184797280D01*
X45713735Y-184805309D01*
X45580117Y-184934632D01*
X45520173Y-185141455D01*
X45416655Y-185141455D01*
X45414755Y-185129018D01*
X45462781Y-184897148D01*
X45490514Y-184845055D01*
X45622171Y-184760676D01*
X45833079Y-184725115D01*
X45835333Y-184725111D01*
X46083552Y-184794142D01*
X46083552Y-184794142D01*
G37*
X46083552Y-184794142D02*
X46235897Y-184970140D01*
X46267747Y-185206459D01*
X46193022Y-185402787D01*
X46039235Y-185513064D01*
X45810544Y-185559644D01*
X45594180Y-185527667D01*
X45560166Y-185510598D01*
X45449898Y-185359120D01*
X45416655Y-185141455D01*
X45520173Y-185141455D01*
X45552503Y-185343151D01*
X45582245Y-185389432D01*
X45719091Y-185499992D01*
X45882502Y-185487250D01*
X46010232Y-185427687D01*
X46147168Y-185281488D01*
X46164484Y-185095329D01*
X46086009Y-184919228D01*
X45935573Y-184803205D01*
X45737002Y-184797280D01*
X45713735Y-184805309D01*
X45580117Y-184934632D01*
X45520173Y-185141455D01*
X45416655Y-185141455D01*
X45414755Y-185129018D01*
X45462781Y-184897148D01*
X45490514Y-184845055D01*
X45622171Y-184760676D01*
X45833079Y-184725115D01*
X45835333Y-184725111D01*
X46083552Y-184794142D01*
G36*
X51419786Y-185984087D02*
X51787542Y-186124309D01*
X52046850Y-186386729D01*
X52203879Y-186778219D01*
X52264801Y-187305651D01*
X52265933Y-187438780D01*
X52212407Y-187995920D01*
X52056944Y-188420687D01*
X51793919Y-188719985D01*
X51417709Y-188900714D01*
X51022304Y-188965180D01*
X50656541Y-188965141D01*
X50377813Y-188900197D01*
X50238000Y-188834087D01*
X49972943Y-188598204D01*
X49787923Y-188251741D01*
X49683856Y-187833828D01*
X49676710Y-187688863D01*
X49745373Y-187688863D01*
X49828227Y-188111482D01*
X50005846Y-188473745D01*
X50267023Y-188727900D01*
X50627408Y-188868791D01*
X51040597Y-188893553D01*
X51435892Y-188801901D01*
X51572273Y-188733124D01*
X51885732Y-188476090D01*
X52081547Y-188145046D01*
X52173576Y-187710684D01*
X52185016Y-187437295D01*
X52151815Y-186957782D01*
X52041851Y-186599441D01*
X51840491Y-186325922D01*
X51686707Y-186199341D01*
X51362886Y-186059985D01*
X50970946Y-186022919D01*
X50577887Y-186088373D01*
X50338910Y-186194732D01*
X50054053Y-186458823D01*
X49859421Y-186822538D01*
X49756149Y-187245883D01*
X49745373Y-187688863D01*
X49676710Y-187688863D01*
X49661660Y-187383599D01*
X49722252Y-186940184D01*
X49866548Y-186542715D01*
X50095466Y-186230325D01*
X50175411Y-186163013D01*
X50445318Y-186033410D01*
X50837186Y-185966168D01*
X50937411Y-185959191D01*
X51419786Y-185984087D01*
X51419786Y-185984087D01*
G37*
X51419786Y-185984087D02*
X51787542Y-186124309D01*
X52046850Y-186386729D01*
X52203879Y-186778219D01*
X52264801Y-187305651D01*
X52265933Y-187438780D01*
X52212407Y-187995920D01*
X52056944Y-188420687D01*
X51793919Y-188719985D01*
X51417709Y-188900714D01*
X51022304Y-188965180D01*
X50656541Y-188965141D01*
X50377813Y-188900197D01*
X50238000Y-188834087D01*
X49972943Y-188598204D01*
X49787923Y-188251741D01*
X49683856Y-187833828D01*
X49676710Y-187688863D01*
X49745373Y-187688863D01*
X49828227Y-188111482D01*
X50005846Y-188473745D01*
X50267023Y-188727900D01*
X50627408Y-188868791D01*
X51040597Y-188893553D01*
X51435892Y-188801901D01*
X51572273Y-188733124D01*
X51885732Y-188476090D01*
X52081547Y-188145046D01*
X52173576Y-187710684D01*
X52185016Y-187437295D01*
X52151815Y-186957782D01*
X52041851Y-186599441D01*
X51840491Y-186325922D01*
X51686707Y-186199341D01*
X51362886Y-186059985D01*
X50970946Y-186022919D01*
X50577887Y-186088373D01*
X50338910Y-186194732D01*
X50054053Y-186458823D01*
X49859421Y-186822538D01*
X49756149Y-187245883D01*
X49745373Y-187688863D01*
X49676710Y-187688863D01*
X49661660Y-187383599D01*
X49722252Y-186940184D01*
X49866548Y-186542715D01*
X50095466Y-186230325D01*
X50175411Y-186163013D01*
X50445318Y-186033410D01*
X50837186Y-185966168D01*
X50937411Y-185959191D01*
X51419786Y-185984087D01*
G36*
X47592166Y-184743961D02*
X47647056Y-184805894D01*
X47680987Y-184992048D01*
X47696427Y-185320542D01*
X47698000Y-185521380D01*
X47700653Y-185880763D01*
X47712070Y-186096376D01*
X47737440Y-186193746D01*
X47781949Y-186198397D01*
X47827721Y-186159706D01*
X48050680Y-186032091D01*
X48372206Y-185961324D01*
X48727651Y-185959148D01*
X48841640Y-185975534D01*
X49144287Y-186109072D01*
X49341190Y-186366254D01*
X49420469Y-186729784D01*
X49421035Y-186819030D01*
X49388013Y-187068060D01*
X49278225Y-187259949D01*
X49111793Y-187421601D01*
X48811545Y-187681145D01*
X49150194Y-188213776D01*
X49308638Y-188487318D01*
X49413617Y-188716659D01*
X49445104Y-188857113D01*
X49442745Y-188866537D01*
X49329191Y-188955915D01*
X49126734Y-188983033D01*
X48904519Y-188946415D01*
X48772555Y-188880833D01*
X48660305Y-188756301D01*
X48503269Y-188532265D01*
X48327959Y-188253349D01*
X48160886Y-187964183D01*
X48028561Y-187709391D01*
X47957496Y-187533602D01*
X47952000Y-187499583D01*
X48021622Y-187391288D01*
X48192714Y-187272647D01*
X48227951Y-187254997D01*
X48492425Y-187085584D01*
X48643115Y-186896063D01*
X48660412Y-186716315D01*
X48623827Y-186651698D01*
X48434050Y-186540498D01*
X48192702Y-186548069D01*
X47960169Y-186666146D01*
X47873478Y-186754418D01*
X47795505Y-186872828D01*
X47744447Y-187015418D01*
X47714829Y-187218900D01*
X47701174Y-187519985D01*
X47698000Y-187930692D01*
X47694256Y-188356929D01*
X47680483Y-188642572D01*
X47652862Y-188816248D01*
X47607579Y-188906583D01*
X47564075Y-188935274D01*
X47263225Y-188976982D01*
X47041833Y-188930593D01*
X47006003Y-188874134D01*
X46978631Y-188726817D01*
X46958896Y-188472907D01*
X46945977Y-188096669D01*
X46939053Y-187582367D01*
X46937296Y-186926444D01*
X46939734Y-186462324D01*
X47020655Y-186462324D01*
X47020666Y-186853231D01*
X47023199Y-187409747D01*
X47030299Y-187908986D01*
X47041220Y-188326249D01*
X47055215Y-188636836D01*
X47071538Y-188816048D01*
X47080998Y-188849442D01*
X47202925Y-188886526D01*
X47356164Y-188884720D01*
X47446395Y-188869286D01*
X47508308Y-188828744D01*
X47548910Y-188734392D01*
X47575207Y-188557528D01*
X47594205Y-188269453D01*
X47612909Y-187841464D01*
X47613333Y-187831173D01*
X47643398Y-187312113D01*
X47691860Y-186939157D01*
X47770181Y-186689221D01*
X47889824Y-186539218D01*
X48062254Y-186466062D01*
X48298934Y-186446667D01*
X48300810Y-186446666D01*
X48568353Y-186503063D01*
X48721169Y-186647253D01*
X48758434Y-186841730D01*
X48679328Y-187048991D01*
X48483027Y-187231533D01*
X48319718Y-187309664D01*
X48132549Y-187392829D01*
X48039082Y-187464698D01*
X48036666Y-187473607D01*
X48077913Y-187577387D01*
X48184830Y-187780859D01*
X48332184Y-188040851D01*
X48494743Y-188314189D01*
X48647271Y-188557701D01*
X48764537Y-188728214D01*
X48784928Y-188753833D01*
X48911757Y-188835462D01*
X49096432Y-188891187D01*
X49274691Y-188910013D01*
X49382270Y-188880944D01*
X49391333Y-188857591D01*
X49349281Y-188769640D01*
X49238164Y-188577960D01*
X49080540Y-188321226D01*
X49052666Y-188276942D01*
X48888929Y-188007550D01*
X48768705Y-187790434D01*
X48714922Y-187667369D01*
X48714000Y-187659939D01*
X48776151Y-187561582D01*
X48929840Y-187420696D01*
X48972255Y-187388241D01*
X49241050Y-187113820D01*
X49349020Y-186812537D01*
X49298821Y-186512393D01*
X49098718Y-186225005D01*
X48807572Y-186060000D01*
X48459344Y-186025540D01*
X48087999Y-186129782D01*
X47970625Y-186193284D01*
X47819870Y-186278075D01*
X47719615Y-186297969D01*
X47658040Y-186230374D01*
X47623330Y-186052701D01*
X47603667Y-185742359D01*
X47593836Y-185473000D01*
X47579051Y-185136601D01*
X47556303Y-184936852D01*
X47515964Y-184841079D01*
X47448404Y-184816605D01*
X47401666Y-184820855D01*
X47280726Y-184840046D01*
X47188523Y-184870828D01*
X47121160Y-184933976D01*
X47074744Y-185050264D01*
X47045380Y-185240469D01*
X47029174Y-185525363D01*
X47022230Y-185925724D01*
X47020655Y-186462324D01*
X46939734Y-186462324D01*
X46940254Y-186363499D01*
X46947841Y-185855251D01*
X46959282Y-185426829D01*
X46973803Y-185103363D01*
X46990627Y-184909985D01*
X47000796Y-184867835D01*
X47135197Y-184786420D01*
X47372823Y-184742780D01*
X47592166Y-184743961D01*
X47592166Y-184743961D01*
G37*
X47592166Y-184743961D02*
X47647056Y-184805894D01*
X47680987Y-184992048D01*
X47696427Y-185320542D01*
X47698000Y-185521380D01*
X47700653Y-185880763D01*
X47712070Y-186096376D01*
X47737440Y-186193746D01*
X47781949Y-186198397D01*
X47827721Y-186159706D01*
X48050680Y-186032091D01*
X48372206Y-185961324D01*
X48727651Y-185959148D01*
X48841640Y-185975534D01*
X49144287Y-186109072D01*
X49341190Y-186366254D01*
X49420469Y-186729784D01*
X49421035Y-186819030D01*
X49388013Y-187068060D01*
X49278225Y-187259949D01*
X49111793Y-187421601D01*
X48811545Y-187681145D01*
X49150194Y-188213776D01*
X49308638Y-188487318D01*
X49413617Y-188716659D01*
X49445104Y-188857113D01*
X49442745Y-188866537D01*
X49329191Y-188955915D01*
X49126734Y-188983033D01*
X48904519Y-188946415D01*
X48772555Y-188880833D01*
X48660305Y-188756301D01*
X48503269Y-188532265D01*
X48327959Y-188253349D01*
X48160886Y-187964183D01*
X48028561Y-187709391D01*
X47957496Y-187533602D01*
X47952000Y-187499583D01*
X48021622Y-187391288D01*
X48192714Y-187272647D01*
X48227951Y-187254997D01*
X48492425Y-187085584D01*
X48643115Y-186896063D01*
X48660412Y-186716315D01*
X48623827Y-186651698D01*
X48434050Y-186540498D01*
X48192702Y-186548069D01*
X47960169Y-186666146D01*
X47873478Y-186754418D01*
X47795505Y-186872828D01*
X47744447Y-187015418D01*
X47714829Y-187218900D01*
X47701174Y-187519985D01*
X47698000Y-187930692D01*
X47694256Y-188356929D01*
X47680483Y-188642572D01*
X47652862Y-188816248D01*
X47607579Y-188906583D01*
X47564075Y-188935274D01*
X47263225Y-188976982D01*
X47041833Y-188930593D01*
X47006003Y-188874134D01*
X46978631Y-188726817D01*
X46958896Y-188472907D01*
X46945977Y-188096669D01*
X46939053Y-187582367D01*
X46937296Y-186926444D01*
X46939734Y-186462324D01*
X47020655Y-186462324D01*
X47020666Y-186853231D01*
X47023199Y-187409747D01*
X47030299Y-187908986D01*
X47041220Y-188326249D01*
X47055215Y-188636836D01*
X47071538Y-188816048D01*
X47080998Y-188849442D01*
X47202925Y-188886526D01*
X47356164Y-188884720D01*
X47446395Y-188869286D01*
X47508308Y-188828744D01*
X47548910Y-188734392D01*
X47575207Y-188557528D01*
X47594205Y-188269453D01*
X47612909Y-187841464D01*
X47613333Y-187831173D01*
X47643398Y-187312113D01*
X47691860Y-186939157D01*
X47770181Y-186689221D01*
X47889824Y-186539218D01*
X48062254Y-186466062D01*
X48298934Y-186446667D01*
X48300810Y-186446666D01*
X48568353Y-186503063D01*
X48721169Y-186647253D01*
X48758434Y-186841730D01*
X48679328Y-187048991D01*
X48483027Y-187231533D01*
X48319718Y-187309664D01*
X48132549Y-187392829D01*
X48039082Y-187464698D01*
X48036666Y-187473607D01*
X48077913Y-187577387D01*
X48184830Y-187780859D01*
X48332184Y-188040851D01*
X48494743Y-188314189D01*
X48647271Y-188557701D01*
X48764537Y-188728214D01*
X48784928Y-188753833D01*
X48911757Y-188835462D01*
X49096432Y-188891187D01*
X49274691Y-188910013D01*
X49382270Y-188880944D01*
X49391333Y-188857591D01*
X49349281Y-188769640D01*
X49238164Y-188577960D01*
X49080540Y-188321226D01*
X49052666Y-188276942D01*
X48888929Y-188007550D01*
X48768705Y-187790434D01*
X48714922Y-187667369D01*
X48714000Y-187659939D01*
X48776151Y-187561582D01*
X48929840Y-187420696D01*
X48972255Y-187388241D01*
X49241050Y-187113820D01*
X49349020Y-186812537D01*
X49298821Y-186512393D01*
X49098718Y-186225005D01*
X48807572Y-186060000D01*
X48459344Y-186025540D01*
X48087999Y-186129782D01*
X47970625Y-186193284D01*
X47819870Y-186278075D01*
X47719615Y-186297969D01*
X47658040Y-186230374D01*
X47623330Y-186052701D01*
X47603667Y-185742359D01*
X47593836Y-185473000D01*
X47579051Y-185136601D01*
X47556303Y-184936852D01*
X47515964Y-184841079D01*
X47448404Y-184816605D01*
X47401666Y-184820855D01*
X47280726Y-184840046D01*
X47188523Y-184870828D01*
X47121160Y-184933976D01*
X47074744Y-185050264D01*
X47045380Y-185240469D01*
X47029174Y-185525363D01*
X47022230Y-185925724D01*
X47020655Y-186462324D01*
X46939734Y-186462324D01*
X46940254Y-186363499D01*
X46947841Y-185855251D01*
X46959282Y-185426829D01*
X46973803Y-185103363D01*
X46990627Y-184909985D01*
X47000796Y-184867835D01*
X47135197Y-184786420D01*
X47372823Y-184742780D01*
X47592166Y-184743961D01*
G36*
X46174000Y-187174259D02*
X46175717Y-187637675D01*
X46183333Y-187959064D01*
X46200542Y-188165718D01*
X46231037Y-188284929D01*
X46278514Y-188343990D01*
X46335505Y-188367420D01*
X46493826Y-188480961D01*
X46543564Y-188665746D01*
X46467151Y-188850227D01*
X46456748Y-188861156D01*
X46237092Y-188970665D01*
X45960414Y-188955090D01*
X45793000Y-188885494D01*
X45630400Y-188769891D01*
X45561463Y-188697569D01*
X45539740Y-188584526D01*
X45521149Y-188334002D01*
X45507151Y-187977838D01*
X45499207Y-187547878D01*
X45497963Y-187314500D01*
X45496752Y-186108000D01*
X45581333Y-186108000D01*
X45581333Y-187332368D01*
X45582874Y-187814157D01*
X45590111Y-188156184D01*
X45606966Y-188388008D01*
X45637359Y-188539190D01*
X45685211Y-188639292D01*
X45754444Y-188717874D01*
X45766631Y-188729368D01*
X46002292Y-188870985D01*
X46241394Y-188890933D01*
X46404450Y-188807016D01*
X46462398Y-188663157D01*
X46411276Y-188527378D01*
X46301000Y-188478666D01*
X46219358Y-188454742D01*
X46161191Y-188367698D01*
X46122821Y-188194625D01*
X46100573Y-187912615D01*
X46090771Y-187498759D01*
X46089333Y-187159408D01*
X46089333Y-186108000D01*
X45581333Y-186108000D01*
X45496752Y-186108000D01*
X45496666Y-186023333D01*
X46174000Y-186023333D01*
X46174000Y-187174259D01*
X46174000Y-187174259D01*
G37*
X46174000Y-187174259D02*
X46175717Y-187637675D01*
X46183333Y-187959064D01*
X46200542Y-188165718D01*
X46231037Y-188284929D01*
X46278514Y-188343990D01*
X46335505Y-188367420D01*
X46493826Y-188480961D01*
X46543564Y-188665746D01*
X46467151Y-188850227D01*
X46456748Y-188861156D01*
X46237092Y-188970665D01*
X45960414Y-188955090D01*
X45793000Y-188885494D01*
X45630400Y-188769891D01*
X45561463Y-188697569D01*
X45539740Y-188584526D01*
X45521149Y-188334002D01*
X45507151Y-187977838D01*
X45499207Y-187547878D01*
X45497963Y-187314500D01*
X45496752Y-186108000D01*
X45581333Y-186108000D01*
X45581333Y-187332368D01*
X45582874Y-187814157D01*
X45590111Y-188156184D01*
X45606966Y-188388008D01*
X45637359Y-188539190D01*
X45685211Y-188639292D01*
X45754444Y-188717874D01*
X45766631Y-188729368D01*
X46002292Y-188870985D01*
X46241394Y-188890933D01*
X46404450Y-188807016D01*
X46462398Y-188663157D01*
X46411276Y-188527378D01*
X46301000Y-188478666D01*
X46219358Y-188454742D01*
X46161191Y-188367698D01*
X46122821Y-188194625D01*
X46100573Y-187912615D01*
X46090771Y-187498759D01*
X46089333Y-187159408D01*
X46089333Y-186108000D01*
X45581333Y-186108000D01*
X45496752Y-186108000D01*
X45496666Y-186023333D01*
X46174000Y-186023333D01*
X46174000Y-187174259D01*
G36*
X38149735Y-186017652D02*
X38211165Y-186030349D01*
X38638666Y-186122031D01*
X38640686Y-186982849D01*
X38649810Y-187474143D01*
X38679942Y-187859442D01*
X38739201Y-188201593D01*
X38835707Y-188563442D01*
X38851682Y-188616087D01*
X38860762Y-188749253D01*
X38760652Y-188839486D01*
X38625392Y-188893940D01*
X38397575Y-188937938D01*
X38239651Y-188861474D01*
X38108395Y-188641728D01*
X38096705Y-188614826D01*
X38023199Y-188588996D01*
X37938585Y-188665838D01*
X37696497Y-188847608D01*
X37363462Y-188955983D01*
X37007583Y-188975687D01*
X36776000Y-188926601D01*
X36476541Y-188729254D01*
X36257947Y-188397827D01*
X36129759Y-187951818D01*
X36098666Y-187542505D01*
X36100871Y-187521725D01*
X36183333Y-187521725D01*
X36204735Y-187877512D01*
X36261409Y-188178862D01*
X36308641Y-188306062D01*
X36552009Y-188632143D01*
X36862624Y-188834187D01*
X37206341Y-188898658D01*
X37549014Y-188812025D01*
X37564732Y-188803896D01*
X37758749Y-188661800D01*
X37857816Y-188553443D01*
X37993725Y-188456631D01*
X38135641Y-188468194D01*
X38213501Y-188578155D01*
X38215333Y-188604358D01*
X38285017Y-188765449D01*
X38454499Y-188836889D01*
X38606829Y-188814258D01*
X38707387Y-188765156D01*
X38746170Y-188687978D01*
X38728909Y-188536105D01*
X38670329Y-188297557D01*
X38617765Y-188005957D01*
X38577561Y-187613573D01*
X38556000Y-187188844D01*
X38554000Y-187029940D01*
X38551992Y-186628898D01*
X38527586Y-186365228D01*
X38453209Y-186207047D01*
X38301287Y-186122472D01*
X38044247Y-186079619D01*
X37707333Y-186050952D01*
X37387486Y-186033854D01*
X37171093Y-186054409D01*
X36994257Y-186124441D01*
X36862681Y-186207257D01*
X36501557Y-186518238D01*
X36284228Y-186876162D01*
X36190632Y-187319850D01*
X36183333Y-187521725D01*
X36100871Y-187521725D01*
X36158623Y-186977540D01*
X36336107Y-186533488D01*
X36627539Y-186212912D01*
X37029341Y-186018372D01*
X37537932Y-185952432D01*
X38149735Y-186017652D01*
X38149735Y-186017652D01*
G37*
X38149735Y-186017652D02*
X38211165Y-186030349D01*
X38638666Y-186122031D01*
X38640686Y-186982849D01*
X38649810Y-187474143D01*
X38679942Y-187859442D01*
X38739201Y-188201593D01*
X38835707Y-188563442D01*
X38851682Y-188616087D01*
X38860762Y-188749253D01*
X38760652Y-188839486D01*
X38625392Y-188893940D01*
X38397575Y-188937938D01*
X38239651Y-188861474D01*
X38108395Y-188641728D01*
X38096705Y-188614826D01*
X38023199Y-188588996D01*
X37938585Y-188665838D01*
X37696497Y-188847608D01*
X37363462Y-188955983D01*
X37007583Y-188975687D01*
X36776000Y-188926601D01*
X36476541Y-188729254D01*
X36257947Y-188397827D01*
X36129759Y-187951818D01*
X36098666Y-187542505D01*
X36100871Y-187521725D01*
X36183333Y-187521725D01*
X36204735Y-187877512D01*
X36261409Y-188178862D01*
X36308641Y-188306062D01*
X36552009Y-188632143D01*
X36862624Y-188834187D01*
X37206341Y-188898658D01*
X37549014Y-188812025D01*
X37564732Y-188803896D01*
X37758749Y-188661800D01*
X37857816Y-188553443D01*
X37993725Y-188456631D01*
X38135641Y-188468194D01*
X38213501Y-188578155D01*
X38215333Y-188604358D01*
X38285017Y-188765449D01*
X38454499Y-188836889D01*
X38606829Y-188814258D01*
X38707387Y-188765156D01*
X38746170Y-188687978D01*
X38728909Y-188536105D01*
X38670329Y-188297557D01*
X38617765Y-188005957D01*
X38577561Y-187613573D01*
X38556000Y-187188844D01*
X38554000Y-187029940D01*
X38551992Y-186628898D01*
X38527586Y-186365228D01*
X38453209Y-186207047D01*
X38301287Y-186122472D01*
X38044247Y-186079619D01*
X37707333Y-186050952D01*
X37387486Y-186033854D01*
X37171093Y-186054409D01*
X36994257Y-186124441D01*
X36862681Y-186207257D01*
X36501557Y-186518238D01*
X36284228Y-186876162D01*
X36190632Y-187319850D01*
X36183333Y-187521725D01*
X36100871Y-187521725D01*
X36158623Y-186977540D01*
X36336107Y-186533488D01*
X36627539Y-186212912D01*
X37029341Y-186018372D01*
X37537932Y-185952432D01*
X38149735Y-186017652D01*
G36*
X44123637Y-185971334D02*
X44450455Y-186096541D01*
X44700051Y-186346522D01*
X44871450Y-186708601D01*
X44958751Y-187141756D01*
X44956054Y-187604959D01*
X44857457Y-188057188D01*
X44764293Y-188278405D01*
X44518168Y-188590578D01*
X44158683Y-188828559D01*
X43735225Y-188964918D01*
X43489060Y-188986666D01*
X43126000Y-188986666D01*
X43126000Y-189527941D01*
X43115268Y-189845653D01*
X43077867Y-190029634D01*
X43005992Y-190114430D01*
X42992075Y-190120608D01*
X42783797Y-190165002D01*
X42566133Y-190164081D01*
X42423685Y-190118593D01*
X42420444Y-190115555D01*
X42402788Y-190016957D01*
X42387390Y-189776291D01*
X42375177Y-189420816D01*
X42367073Y-188977791D01*
X42364004Y-188474476D01*
X42364000Y-188453211D01*
X42358383Y-187835107D01*
X42342332Y-187304427D01*
X42317045Y-186884767D01*
X42283721Y-186599722D01*
X42265768Y-186519443D01*
X42204735Y-186283856D01*
X42206685Y-186271274D01*
X42303073Y-186271274D01*
X42317266Y-186423598D01*
X42352547Y-186534875D01*
X42388388Y-186728637D01*
X42416795Y-187071474D01*
X42436758Y-187543246D01*
X42447269Y-188123817D01*
X42448666Y-188454331D01*
X42448666Y-190098062D01*
X42999000Y-190045000D01*
X43049070Y-188902000D01*
X43434572Y-188902000D01*
X43750316Y-188869284D01*
X44053334Y-188788063D01*
X44115593Y-188761767D01*
X44443734Y-188530846D01*
X44679229Y-188213737D01*
X44824742Y-187839571D01*
X44882936Y-187437478D01*
X44856475Y-187036591D01*
X44748023Y-186666041D01*
X44560244Y-186354958D01*
X44295801Y-186132473D01*
X43957360Y-186027719D01*
X43865181Y-186023333D01*
X43610278Y-186070942D01*
X43366377Y-186190872D01*
X43187289Y-186348775D01*
X43126000Y-186495145D01*
X43084845Y-186593956D01*
X42987197Y-186571869D01*
X42871781Y-186448012D01*
X42813602Y-186340833D01*
X42679835Y-186150486D01*
X42508531Y-186122201D01*
X42373714Y-186184871D01*
X42303073Y-186271274D01*
X42206685Y-186271274D01*
X42224161Y-186158565D01*
X42351386Y-186093080D01*
X42516548Y-186056323D01*
X42710703Y-186037987D01*
X42814914Y-186110653D01*
X42869999Y-186229738D01*
X42956249Y-186456593D01*
X43151940Y-186229090D01*
X43413480Y-186043077D01*
X43757338Y-185955121D01*
X44123637Y-185971334D01*
X44123637Y-185971334D01*
G37*
X44123637Y-185971334D02*
X44450455Y-186096541D01*
X44700051Y-186346522D01*
X44871450Y-186708601D01*
X44958751Y-187141756D01*
X44956054Y-187604959D01*
X44857457Y-188057188D01*
X44764293Y-188278405D01*
X44518168Y-188590578D01*
X44158683Y-188828559D01*
X43735225Y-188964918D01*
X43489060Y-188986666D01*
X43126000Y-188986666D01*
X43126000Y-189527941D01*
X43115268Y-189845653D01*
X43077867Y-190029634D01*
X43005992Y-190114430D01*
X42992075Y-190120608D01*
X42783797Y-190165002D01*
X42566133Y-190164081D01*
X42423685Y-190118593D01*
X42420444Y-190115555D01*
X42402788Y-190016957D01*
X42387390Y-189776291D01*
X42375177Y-189420816D01*
X42367073Y-188977791D01*
X42364004Y-188474476D01*
X42364000Y-188453211D01*
X42358383Y-187835107D01*
X42342332Y-187304427D01*
X42317045Y-186884767D01*
X42283721Y-186599722D01*
X42265768Y-186519443D01*
X42204735Y-186283856D01*
X42206685Y-186271274D01*
X42303073Y-186271274D01*
X42317266Y-186423598D01*
X42352547Y-186534875D01*
X42388388Y-186728637D01*
X42416795Y-187071474D01*
X42436758Y-187543246D01*
X42447269Y-188123817D01*
X42448666Y-188454331D01*
X42448666Y-190098062D01*
X42999000Y-190045000D01*
X43049070Y-188902000D01*
X43434572Y-188902000D01*
X43750316Y-188869284D01*
X44053334Y-188788063D01*
X44115593Y-188761767D01*
X44443734Y-188530846D01*
X44679229Y-188213737D01*
X44824742Y-187839571D01*
X44882936Y-187437478D01*
X44856475Y-187036591D01*
X44748023Y-186666041D01*
X44560244Y-186354958D01*
X44295801Y-186132473D01*
X43957360Y-186027719D01*
X43865181Y-186023333D01*
X43610278Y-186070942D01*
X43366377Y-186190872D01*
X43187289Y-186348775D01*
X43126000Y-186495145D01*
X43084845Y-186593956D01*
X42987197Y-186571869D01*
X42871781Y-186448012D01*
X42813602Y-186340833D01*
X42679835Y-186150486D01*
X42508531Y-186122201D01*
X42373714Y-186184871D01*
X42303073Y-186271274D01*
X42206685Y-186271274D01*
X42224161Y-186158565D01*
X42351386Y-186093080D01*
X42516548Y-186056323D01*
X42710703Y-186037987D01*
X42814914Y-186110653D01*
X42869999Y-186229738D01*
X42956249Y-186456593D01*
X43151940Y-186229090D01*
X43413480Y-186043077D01*
X43757338Y-185955121D01*
X44123637Y-185971334D01*
G36*
X41113057Y-185996874D02*
X41399623Y-186140619D01*
X41487243Y-186224266D01*
X41709530Y-186597163D01*
X41825913Y-187044238D01*
X41839693Y-187521854D01*
X41754172Y-187986375D01*
X41572652Y-188394165D01*
X41299902Y-188700469D01*
X41012113Y-188861092D01*
X40642292Y-188948601D01*
X40507947Y-188963521D01*
X40000548Y-189009530D01*
X39951000Y-190129666D01*
X39644404Y-190155294D01*
X39337809Y-190180921D01*
X39292476Y-188504294D01*
X39270644Y-187891233D01*
X39241254Y-187357597D01*
X39206179Y-186927940D01*
X39167292Y-186626818D01*
X39140388Y-186510238D01*
X39073229Y-186279318D01*
X39079845Y-186238464D01*
X39180397Y-186238464D01*
X39184912Y-186391328D01*
X39286101Y-186870337D01*
X39355476Y-187509711D01*
X39392506Y-188303398D01*
X39398964Y-188838500D01*
X39400666Y-190087333D01*
X39908666Y-190087333D01*
X39908666Y-188922352D01*
X40401036Y-188886737D01*
X40895635Y-188788120D01*
X41276143Y-188568053D01*
X41553081Y-188219743D01*
X41610006Y-188106042D01*
X41754783Y-187615304D01*
X41759239Y-187122812D01*
X41628188Y-186667715D01*
X41389601Y-186313075D01*
X41176537Y-186121418D01*
X40971600Y-186037721D01*
X40777920Y-186023333D01*
X40495357Y-186069032D01*
X40237288Y-186186102D01*
X40053667Y-186344501D01*
X39993333Y-186495145D01*
X39925425Y-186602030D01*
X39866333Y-186616000D01*
X39761291Y-186546107D01*
X39739333Y-186457033D01*
X39668486Y-186252976D01*
X39493072Y-186143463D01*
X39312322Y-186151500D01*
X39180397Y-186238464D01*
X39079845Y-186238464D01*
X39093138Y-186156386D01*
X39227725Y-186090879D01*
X39388797Y-186055340D01*
X39583625Y-186035419D01*
X39689331Y-186107564D01*
X39758777Y-186260185D01*
X39829157Y-186429468D01*
X39878214Y-186453979D01*
X39941971Y-186348274D01*
X39947822Y-186336562D01*
X40141380Y-186121777D01*
X40433638Y-185991122D01*
X40774296Y-185948264D01*
X41113057Y-185996874D01*
X41113057Y-185996874D01*
G37*
X41113057Y-185996874D02*
X41399623Y-186140619D01*
X41487243Y-186224266D01*
X41709530Y-186597163D01*
X41825913Y-187044238D01*
X41839693Y-187521854D01*
X41754172Y-187986375D01*
X41572652Y-188394165D01*
X41299902Y-188700469D01*
X41012113Y-188861092D01*
X40642292Y-188948601D01*
X40507947Y-188963521D01*
X40000548Y-189009530D01*
X39951000Y-190129666D01*
X39644404Y-190155294D01*
X39337809Y-190180921D01*
X39292476Y-188504294D01*
X39270644Y-187891233D01*
X39241254Y-187357597D01*
X39206179Y-186927940D01*
X39167292Y-186626818D01*
X39140388Y-186510238D01*
X39073229Y-186279318D01*
X39079845Y-186238464D01*
X39180397Y-186238464D01*
X39184912Y-186391328D01*
X39286101Y-186870337D01*
X39355476Y-187509711D01*
X39392506Y-188303398D01*
X39398964Y-188838500D01*
X39400666Y-190087333D01*
X39908666Y-190087333D01*
X39908666Y-188922352D01*
X40401036Y-188886737D01*
X40895635Y-188788120D01*
X41276143Y-188568053D01*
X41553081Y-188219743D01*
X41610006Y-188106042D01*
X41754783Y-187615304D01*
X41759239Y-187122812D01*
X41628188Y-186667715D01*
X41389601Y-186313075D01*
X41176537Y-186121418D01*
X40971600Y-186037721D01*
X40777920Y-186023333D01*
X40495357Y-186069032D01*
X40237288Y-186186102D01*
X40053667Y-186344501D01*
X39993333Y-186495145D01*
X39925425Y-186602030D01*
X39866333Y-186616000D01*
X39761291Y-186546107D01*
X39739333Y-186457033D01*
X39668486Y-186252976D01*
X39493072Y-186143463D01*
X39312322Y-186151500D01*
X39180397Y-186238464D01*
X39079845Y-186238464D01*
X39093138Y-186156386D01*
X39227725Y-186090879D01*
X39388797Y-186055340D01*
X39583625Y-186035419D01*
X39689331Y-186107564D01*
X39758777Y-186260185D01*
X39829157Y-186429468D01*
X39878214Y-186453979D01*
X39941971Y-186348274D01*
X39947822Y-186336562D01*
X40141380Y-186121777D01*
X40433638Y-185991122D01*
X40774296Y-185948264D01*
X41113057Y-185996874D01*
G04 #@! TO.C,U1*
D10*
X23238095Y-156352380D02*
X23238095Y-157161904D01*
X23285714Y-157257142D01*
X23333333Y-157304761D01*
X23428571Y-157352380D01*
X23619047Y-157352380D01*
X23714285Y-157304761D01*
X23761904Y-157257142D01*
X23809523Y-157161904D01*
X23809523Y-156352380D01*
X24809523Y-157352380D02*
X24238095Y-157352380D01*
X24523809Y-157352380D02*
X24523809Y-156352380D01*
X24428571Y-156495238D01*
X24333333Y-156590476D01*
X24238095Y-156638095D01*
G04 #@! TO.C,C1*
X43633333Y-130657142D02*
X43585714Y-130704761D01*
X43442857Y-130752380D01*
X43347619Y-130752380D01*
X43204761Y-130704761D01*
X43109523Y-130609523D01*
X43061904Y-130514285D01*
X43014285Y-130323809D01*
X43014285Y-130180952D01*
X43061904Y-129990476D01*
X43109523Y-129895238D01*
X43204761Y-129800000D01*
X43347619Y-129752380D01*
X43442857Y-129752380D01*
X43585714Y-129800000D01*
X43633333Y-129847619D01*
X44585714Y-130752380D02*
X44014285Y-130752380D01*
X44300000Y-130752380D02*
X44300000Y-129752380D01*
X44204761Y-129895238D01*
X44109523Y-129990476D01*
X44014285Y-130038095D01*
G04 #@! TO.C,C2*
X32833333Y-163927142D02*
X32785714Y-163974761D01*
X32642857Y-164022380D01*
X32547619Y-164022380D01*
X32404761Y-163974761D01*
X32309523Y-163879523D01*
X32261904Y-163784285D01*
X32214285Y-163593809D01*
X32214285Y-163450952D01*
X32261904Y-163260476D01*
X32309523Y-163165238D01*
X32404761Y-163070000D01*
X32547619Y-163022380D01*
X32642857Y-163022380D01*
X32785714Y-163070000D01*
X32833333Y-163117619D01*
X33214285Y-163117619D02*
X33261904Y-163070000D01*
X33357142Y-163022380D01*
X33595238Y-163022380D01*
X33690476Y-163070000D01*
X33738095Y-163117619D01*
X33785714Y-163212857D01*
X33785714Y-163308095D01*
X33738095Y-163450952D01*
X33166666Y-164022380D01*
X33785714Y-164022380D01*
G04 #@! TO.C,C3*
X19157142Y-169866666D02*
X19204761Y-169914285D01*
X19252380Y-170057142D01*
X19252380Y-170152380D01*
X19204761Y-170295238D01*
X19109523Y-170390476D01*
X19014285Y-170438095D01*
X18823809Y-170485714D01*
X18680952Y-170485714D01*
X18490476Y-170438095D01*
X18395238Y-170390476D01*
X18300000Y-170295238D01*
X18252380Y-170152380D01*
X18252380Y-170057142D01*
X18300000Y-169914285D01*
X18347619Y-169866666D01*
X18252380Y-169533333D02*
X18252380Y-168914285D01*
X18633333Y-169247619D01*
X18633333Y-169104761D01*
X18680952Y-169009523D01*
X18728571Y-168961904D01*
X18823809Y-168914285D01*
X19061904Y-168914285D01*
X19157142Y-168961904D01*
X19204761Y-169009523D01*
X19252380Y-169104761D01*
X19252380Y-169390476D01*
X19204761Y-169485714D01*
X19157142Y-169533333D01*
G04 #@! TO.C,C4*
X17157142Y-169966666D02*
X17204761Y-170014285D01*
X17252380Y-170157142D01*
X17252380Y-170252380D01*
X17204761Y-170395238D01*
X17109523Y-170490476D01*
X17014285Y-170538095D01*
X16823809Y-170585714D01*
X16680952Y-170585714D01*
X16490476Y-170538095D01*
X16395238Y-170490476D01*
X16300000Y-170395238D01*
X16252380Y-170252380D01*
X16252380Y-170157142D01*
X16300000Y-170014285D01*
X16347619Y-169966666D01*
X16585714Y-169109523D02*
X17252380Y-169109523D01*
X16204761Y-169347619D02*
X16919047Y-169585714D01*
X16919047Y-168966666D01*
G04 #@! TO.C,D1*
X32291904Y-188412380D02*
X32291904Y-187412380D01*
X32530000Y-187412380D01*
X32672857Y-187460000D01*
X32768095Y-187555238D01*
X32815714Y-187650476D01*
X32863333Y-187840952D01*
X32863333Y-187983809D01*
X32815714Y-188174285D01*
X32768095Y-188269523D01*
X32672857Y-188364761D01*
X32530000Y-188412380D01*
X32291904Y-188412380D01*
X33815714Y-188412380D02*
X33244285Y-188412380D01*
X33530000Y-188412380D02*
X33530000Y-187412380D01*
X33434761Y-187555238D01*
X33339523Y-187650476D01*
X33244285Y-187698095D01*
G04 #@! TO.C,D3*
X32231904Y-143552380D02*
X32231904Y-142552380D01*
X32470000Y-142552380D01*
X32612857Y-142600000D01*
X32708095Y-142695238D01*
X32755714Y-142790476D01*
X32803333Y-142980952D01*
X32803333Y-143123809D01*
X32755714Y-143314285D01*
X32708095Y-143409523D01*
X32612857Y-143504761D01*
X32470000Y-143552380D01*
X32231904Y-143552380D01*
X33136666Y-142552380D02*
X33755714Y-142552380D01*
X33422380Y-142933333D01*
X33565238Y-142933333D01*
X33660476Y-142980952D01*
X33708095Y-143028571D01*
X33755714Y-143123809D01*
X33755714Y-143361904D01*
X33708095Y-143457142D01*
X33660476Y-143504761D01*
X33565238Y-143552380D01*
X33279523Y-143552380D01*
X33184285Y-143504761D01*
X33136666Y-143457142D01*
G04 #@! TO.C,*
G04 #@! TO.C,Q2*
X46904761Y-125847619D02*
X46809523Y-125800000D01*
X46714285Y-125704761D01*
X46571428Y-125561904D01*
X46476190Y-125514285D01*
X46380952Y-125514285D01*
X46428571Y-125752380D02*
X46333333Y-125704761D01*
X46238095Y-125609523D01*
X46190476Y-125419047D01*
X46190476Y-125085714D01*
X46238095Y-124895238D01*
X46333333Y-124800000D01*
X46428571Y-124752380D01*
X46619047Y-124752380D01*
X46714285Y-124800000D01*
X46809523Y-124895238D01*
X46857142Y-125085714D01*
X46857142Y-125419047D01*
X46809523Y-125609523D01*
X46714285Y-125704761D01*
X46619047Y-125752380D01*
X46428571Y-125752380D01*
X47238095Y-124847619D02*
X47285714Y-124800000D01*
X47380952Y-124752380D01*
X47619047Y-124752380D01*
X47714285Y-124800000D01*
X47761904Y-124847619D01*
X47809523Y-124942857D01*
X47809523Y-125038095D01*
X47761904Y-125180952D01*
X47190476Y-125752380D01*
X47809523Y-125752380D01*
G04 #@! TO.C,Q3*
X45304761Y-136347619D02*
X45209523Y-136300000D01*
X45114285Y-136204761D01*
X44971428Y-136061904D01*
X44876190Y-136014285D01*
X44780952Y-136014285D01*
X44828571Y-136252380D02*
X44733333Y-136204761D01*
X44638095Y-136109523D01*
X44590476Y-135919047D01*
X44590476Y-135585714D01*
X44638095Y-135395238D01*
X44733333Y-135300000D01*
X44828571Y-135252380D01*
X45019047Y-135252380D01*
X45114285Y-135300000D01*
X45209523Y-135395238D01*
X45257142Y-135585714D01*
X45257142Y-135919047D01*
X45209523Y-136109523D01*
X45114285Y-136204761D01*
X45019047Y-136252380D01*
X44828571Y-136252380D01*
X45590476Y-135252380D02*
X46209523Y-135252380D01*
X45876190Y-135633333D01*
X46019047Y-135633333D01*
X46114285Y-135680952D01*
X46161904Y-135728571D01*
X46209523Y-135823809D01*
X46209523Y-136061904D01*
X46161904Y-136157142D01*
X46114285Y-136204761D01*
X46019047Y-136252380D01*
X45733333Y-136252380D01*
X45638095Y-136204761D01*
X45590476Y-136157142D01*
G04 #@! TO.C,Q4*
X45304761Y-141647619D02*
X45209523Y-141600000D01*
X45114285Y-141504761D01*
X44971428Y-141361904D01*
X44876190Y-141314285D01*
X44780952Y-141314285D01*
X44828571Y-141552380D02*
X44733333Y-141504761D01*
X44638095Y-141409523D01*
X44590476Y-141219047D01*
X44590476Y-140885714D01*
X44638095Y-140695238D01*
X44733333Y-140600000D01*
X44828571Y-140552380D01*
X45019047Y-140552380D01*
X45114285Y-140600000D01*
X45209523Y-140695238D01*
X45257142Y-140885714D01*
X45257142Y-141219047D01*
X45209523Y-141409523D01*
X45114285Y-141504761D01*
X45019047Y-141552380D01*
X44828571Y-141552380D01*
X46114285Y-140885714D02*
X46114285Y-141552380D01*
X45876190Y-140504761D02*
X45638095Y-141219047D01*
X46257142Y-141219047D01*
G04 #@! TO.C,Q5*
X20504761Y-141147619D02*
X20409523Y-141100000D01*
X20314285Y-141004761D01*
X20171428Y-140861904D01*
X20076190Y-140814285D01*
X19980952Y-140814285D01*
X20028571Y-141052380D02*
X19933333Y-141004761D01*
X19838095Y-140909523D01*
X19790476Y-140719047D01*
X19790476Y-140385714D01*
X19838095Y-140195238D01*
X19933333Y-140100000D01*
X20028571Y-140052380D01*
X20219047Y-140052380D01*
X20314285Y-140100000D01*
X20409523Y-140195238D01*
X20457142Y-140385714D01*
X20457142Y-140719047D01*
X20409523Y-140909523D01*
X20314285Y-141004761D01*
X20219047Y-141052380D01*
X20028571Y-141052380D01*
X21361904Y-140052380D02*
X20885714Y-140052380D01*
X20838095Y-140528571D01*
X20885714Y-140480952D01*
X20980952Y-140433333D01*
X21219047Y-140433333D01*
X21314285Y-140480952D01*
X21361904Y-140528571D01*
X21409523Y-140623809D01*
X21409523Y-140861904D01*
X21361904Y-140957142D01*
X21314285Y-141004761D01*
X21219047Y-141052380D01*
X20980952Y-141052380D01*
X20885714Y-141004761D01*
X20838095Y-140957142D01*
G04 #@! TO.C,Q6*
X20504761Y-134747619D02*
X20409523Y-134700000D01*
X20314285Y-134604761D01*
X20171428Y-134461904D01*
X20076190Y-134414285D01*
X19980952Y-134414285D01*
X20028571Y-134652380D02*
X19933333Y-134604761D01*
X19838095Y-134509523D01*
X19790476Y-134319047D01*
X19790476Y-133985714D01*
X19838095Y-133795238D01*
X19933333Y-133700000D01*
X20028571Y-133652380D01*
X20219047Y-133652380D01*
X20314285Y-133700000D01*
X20409523Y-133795238D01*
X20457142Y-133985714D01*
X20457142Y-134319047D01*
X20409523Y-134509523D01*
X20314285Y-134604761D01*
X20219047Y-134652380D01*
X20028571Y-134652380D01*
X21314285Y-133652380D02*
X21123809Y-133652380D01*
X21028571Y-133700000D01*
X20980952Y-133747619D01*
X20885714Y-133890476D01*
X20838095Y-134080952D01*
X20838095Y-134461904D01*
X20885714Y-134557142D01*
X20933333Y-134604761D01*
X21028571Y-134652380D01*
X21219047Y-134652380D01*
X21314285Y-134604761D01*
X21361904Y-134557142D01*
X21409523Y-134461904D01*
X21409523Y-134223809D01*
X21361904Y-134128571D01*
X21314285Y-134080952D01*
X21219047Y-134033333D01*
X21028571Y-134033333D01*
X20933333Y-134080952D01*
X20885714Y-134128571D01*
X20838095Y-134223809D01*
G04 #@! TO.C,Q7*
X29004761Y-146347619D02*
X28909523Y-146300000D01*
X28814285Y-146204761D01*
X28671428Y-146061904D01*
X28576190Y-146014285D01*
X28480952Y-146014285D01*
X28528571Y-146252380D02*
X28433333Y-146204761D01*
X28338095Y-146109523D01*
X28290476Y-145919047D01*
X28290476Y-145585714D01*
X28338095Y-145395238D01*
X28433333Y-145300000D01*
X28528571Y-145252380D01*
X28719047Y-145252380D01*
X28814285Y-145300000D01*
X28909523Y-145395238D01*
X28957142Y-145585714D01*
X28957142Y-145919047D01*
X28909523Y-146109523D01*
X28814285Y-146204761D01*
X28719047Y-146252380D01*
X28528571Y-146252380D01*
X29290476Y-145252380D02*
X29957142Y-145252380D01*
X29528571Y-146252380D01*
G04 #@! TO.C,Q8*
X36704761Y-146347619D02*
X36609523Y-146300000D01*
X36514285Y-146204761D01*
X36371428Y-146061904D01*
X36276190Y-146014285D01*
X36180952Y-146014285D01*
X36228571Y-146252380D02*
X36133333Y-146204761D01*
X36038095Y-146109523D01*
X35990476Y-145919047D01*
X35990476Y-145585714D01*
X36038095Y-145395238D01*
X36133333Y-145300000D01*
X36228571Y-145252380D01*
X36419047Y-145252380D01*
X36514285Y-145300000D01*
X36609523Y-145395238D01*
X36657142Y-145585714D01*
X36657142Y-145919047D01*
X36609523Y-146109523D01*
X36514285Y-146204761D01*
X36419047Y-146252380D01*
X36228571Y-146252380D01*
X37228571Y-145680952D02*
X37133333Y-145633333D01*
X37085714Y-145585714D01*
X37038095Y-145490476D01*
X37038095Y-145442857D01*
X37085714Y-145347619D01*
X37133333Y-145300000D01*
X37228571Y-145252380D01*
X37419047Y-145252380D01*
X37514285Y-145300000D01*
X37561904Y-145347619D01*
X37609523Y-145442857D01*
X37609523Y-145490476D01*
X37561904Y-145585714D01*
X37514285Y-145633333D01*
X37419047Y-145680952D01*
X37228571Y-145680952D01*
X37133333Y-145728571D01*
X37085714Y-145776190D01*
X37038095Y-145871428D01*
X37038095Y-146061904D01*
X37085714Y-146157142D01*
X37133333Y-146204761D01*
X37228571Y-146252380D01*
X37419047Y-146252380D01*
X37514285Y-146204761D01*
X37561904Y-146157142D01*
X37609523Y-146061904D01*
X37609523Y-145871428D01*
X37561904Y-145776190D01*
X37514285Y-145728571D01*
X37419047Y-145680952D01*
G04 #@! TO.C,R1*
X17133333Y-181852380D02*
X16800000Y-181376190D01*
X16561904Y-181852380D02*
X16561904Y-180852380D01*
X16942857Y-180852380D01*
X17038095Y-180900000D01*
X17085714Y-180947619D01*
X17133333Y-181042857D01*
X17133333Y-181185714D01*
X17085714Y-181280952D01*
X17038095Y-181328571D01*
X16942857Y-181376190D01*
X16561904Y-181376190D01*
X18085714Y-181852380D02*
X17514285Y-181852380D01*
X17800000Y-181852380D02*
X17800000Y-180852380D01*
X17704761Y-180995238D01*
X17609523Y-181090476D01*
X17514285Y-181138095D01*
G04 #@! TO.C,R2*
X24133333Y-181952380D02*
X23800000Y-181476190D01*
X23561904Y-181952380D02*
X23561904Y-180952380D01*
X23942857Y-180952380D01*
X24038095Y-181000000D01*
X24085714Y-181047619D01*
X24133333Y-181142857D01*
X24133333Y-181285714D01*
X24085714Y-181380952D01*
X24038095Y-181428571D01*
X23942857Y-181476190D01*
X23561904Y-181476190D01*
X24514285Y-181047619D02*
X24561904Y-181000000D01*
X24657142Y-180952380D01*
X24895238Y-180952380D01*
X24990476Y-181000000D01*
X25038095Y-181047619D01*
X25085714Y-181142857D01*
X25085714Y-181238095D01*
X25038095Y-181380952D01*
X24466666Y-181952380D01*
X25085714Y-181952380D01*
G04 #@! TO.C,R3*
X26433333Y-181952380D02*
X26100000Y-181476190D01*
X25861904Y-181952380D02*
X25861904Y-180952380D01*
X26242857Y-180952380D01*
X26338095Y-181000000D01*
X26385714Y-181047619D01*
X26433333Y-181142857D01*
X26433333Y-181285714D01*
X26385714Y-181380952D01*
X26338095Y-181428571D01*
X26242857Y-181476190D01*
X25861904Y-181476190D01*
X26766666Y-180952380D02*
X27385714Y-180952380D01*
X27052380Y-181333333D01*
X27195238Y-181333333D01*
X27290476Y-181380952D01*
X27338095Y-181428571D01*
X27385714Y-181523809D01*
X27385714Y-181761904D01*
X27338095Y-181857142D01*
X27290476Y-181904761D01*
X27195238Y-181952380D01*
X26909523Y-181952380D01*
X26814285Y-181904761D01*
X26766666Y-181857142D01*
G04 #@! TO.C,R4*
X41433333Y-136452380D02*
X41100000Y-135976190D01*
X40861904Y-136452380D02*
X40861904Y-135452380D01*
X41242857Y-135452380D01*
X41338095Y-135500000D01*
X41385714Y-135547619D01*
X41433333Y-135642857D01*
X41433333Y-135785714D01*
X41385714Y-135880952D01*
X41338095Y-135928571D01*
X41242857Y-135976190D01*
X40861904Y-135976190D01*
X42290476Y-135785714D02*
X42290476Y-136452380D01*
X42052380Y-135404761D02*
X41814285Y-136119047D01*
X42433333Y-136119047D01*
G04 #@! TO.C,R5*
X41433333Y-131352380D02*
X41100000Y-130876190D01*
X40861904Y-131352380D02*
X40861904Y-130352380D01*
X41242857Y-130352380D01*
X41338095Y-130400000D01*
X41385714Y-130447619D01*
X41433333Y-130542857D01*
X41433333Y-130685714D01*
X41385714Y-130780952D01*
X41338095Y-130828571D01*
X41242857Y-130876190D01*
X40861904Y-130876190D01*
X42338095Y-130352380D02*
X41861904Y-130352380D01*
X41814285Y-130828571D01*
X41861904Y-130780952D01*
X41957142Y-130733333D01*
X42195238Y-130733333D01*
X42290476Y-130780952D01*
X42338095Y-130828571D01*
X42385714Y-130923809D01*
X42385714Y-131161904D01*
X42338095Y-131257142D01*
X42290476Y-131304761D01*
X42195238Y-131352380D01*
X41957142Y-131352380D01*
X41861904Y-131304761D01*
X41814285Y-131257142D01*
G04 #@! TO.C,R6*
X48733333Y-136352380D02*
X48400000Y-135876190D01*
X48161904Y-136352380D02*
X48161904Y-135352380D01*
X48542857Y-135352380D01*
X48638095Y-135400000D01*
X48685714Y-135447619D01*
X48733333Y-135542857D01*
X48733333Y-135685714D01*
X48685714Y-135780952D01*
X48638095Y-135828571D01*
X48542857Y-135876190D01*
X48161904Y-135876190D01*
X49590476Y-135352380D02*
X49400000Y-135352380D01*
X49304761Y-135400000D01*
X49257142Y-135447619D01*
X49161904Y-135590476D01*
X49114285Y-135780952D01*
X49114285Y-136161904D01*
X49161904Y-136257142D01*
X49209523Y-136304761D01*
X49304761Y-136352380D01*
X49495238Y-136352380D01*
X49590476Y-136304761D01*
X49638095Y-136257142D01*
X49685714Y-136161904D01*
X49685714Y-135923809D01*
X49638095Y-135828571D01*
X49590476Y-135780952D01*
X49495238Y-135733333D01*
X49304761Y-135733333D01*
X49209523Y-135780952D01*
X49161904Y-135828571D01*
X49114285Y-135923809D01*
G04 #@! TO.C,R7*
X48733333Y-141452380D02*
X48400000Y-140976190D01*
X48161904Y-141452380D02*
X48161904Y-140452380D01*
X48542857Y-140452380D01*
X48638095Y-140500000D01*
X48685714Y-140547619D01*
X48733333Y-140642857D01*
X48733333Y-140785714D01*
X48685714Y-140880952D01*
X48638095Y-140928571D01*
X48542857Y-140976190D01*
X48161904Y-140976190D01*
X49066666Y-140452380D02*
X49733333Y-140452380D01*
X49304761Y-141452380D01*
G04 #@! TO.C,R8*
X16833333Y-141052380D02*
X16500000Y-140576190D01*
X16261904Y-141052380D02*
X16261904Y-140052380D01*
X16642857Y-140052380D01*
X16738095Y-140100000D01*
X16785714Y-140147619D01*
X16833333Y-140242857D01*
X16833333Y-140385714D01*
X16785714Y-140480952D01*
X16738095Y-140528571D01*
X16642857Y-140576190D01*
X16261904Y-140576190D01*
X17404761Y-140480952D02*
X17309523Y-140433333D01*
X17261904Y-140385714D01*
X17214285Y-140290476D01*
X17214285Y-140242857D01*
X17261904Y-140147619D01*
X17309523Y-140100000D01*
X17404761Y-140052380D01*
X17595238Y-140052380D01*
X17690476Y-140100000D01*
X17738095Y-140147619D01*
X17785714Y-140242857D01*
X17785714Y-140290476D01*
X17738095Y-140385714D01*
X17690476Y-140433333D01*
X17595238Y-140480952D01*
X17404761Y-140480952D01*
X17309523Y-140528571D01*
X17261904Y-140576190D01*
X17214285Y-140671428D01*
X17214285Y-140861904D01*
X17261904Y-140957142D01*
X17309523Y-141004761D01*
X17404761Y-141052380D01*
X17595238Y-141052380D01*
X17690476Y-141004761D01*
X17738095Y-140957142D01*
X17785714Y-140861904D01*
X17785714Y-140671428D01*
X17738095Y-140576190D01*
X17690476Y-140528571D01*
X17595238Y-140480952D01*
G04 #@! TO.C,R9*
X16833333Y-134652380D02*
X16500000Y-134176190D01*
X16261904Y-134652380D02*
X16261904Y-133652380D01*
X16642857Y-133652380D01*
X16738095Y-133700000D01*
X16785714Y-133747619D01*
X16833333Y-133842857D01*
X16833333Y-133985714D01*
X16785714Y-134080952D01*
X16738095Y-134128571D01*
X16642857Y-134176190D01*
X16261904Y-134176190D01*
X17309523Y-134652380D02*
X17500000Y-134652380D01*
X17595238Y-134604761D01*
X17642857Y-134557142D01*
X17738095Y-134414285D01*
X17785714Y-134223809D01*
X17785714Y-133842857D01*
X17738095Y-133747619D01*
X17690476Y-133700000D01*
X17595238Y-133652380D01*
X17404761Y-133652380D01*
X17309523Y-133700000D01*
X17261904Y-133747619D01*
X17214285Y-133842857D01*
X17214285Y-134080952D01*
X17261904Y-134176190D01*
X17309523Y-134223809D01*
X17404761Y-134271428D01*
X17595238Y-134271428D01*
X17690476Y-134223809D01*
X17738095Y-134176190D01*
X17785714Y-134080952D01*
G04 #@! TO.C,R10*
X28457142Y-153652380D02*
X28123809Y-153176190D01*
X27885714Y-153652380D02*
X27885714Y-152652380D01*
X28266666Y-152652380D01*
X28361904Y-152700000D01*
X28409523Y-152747619D01*
X28457142Y-152842857D01*
X28457142Y-152985714D01*
X28409523Y-153080952D01*
X28361904Y-153128571D01*
X28266666Y-153176190D01*
X27885714Y-153176190D01*
X29409523Y-153652380D02*
X28838095Y-153652380D01*
X29123809Y-153652380D02*
X29123809Y-152652380D01*
X29028571Y-152795238D01*
X28933333Y-152890476D01*
X28838095Y-152938095D01*
X30028571Y-152652380D02*
X30123809Y-152652380D01*
X30219047Y-152700000D01*
X30266666Y-152747619D01*
X30314285Y-152842857D01*
X30361904Y-153033333D01*
X30361904Y-153271428D01*
X30314285Y-153461904D01*
X30266666Y-153557142D01*
X30219047Y-153604761D01*
X30123809Y-153652380D01*
X30028571Y-153652380D01*
X29933333Y-153604761D01*
X29885714Y-153557142D01*
X29838095Y-153461904D01*
X29790476Y-153271428D01*
X29790476Y-153033333D01*
X29838095Y-152842857D01*
X29885714Y-152747619D01*
X29933333Y-152700000D01*
X30028571Y-152652380D01*
G04 #@! TO.C,R11*
X36157142Y-153552380D02*
X35823809Y-153076190D01*
X35585714Y-153552380D02*
X35585714Y-152552380D01*
X35966666Y-152552380D01*
X36061904Y-152600000D01*
X36109523Y-152647619D01*
X36157142Y-152742857D01*
X36157142Y-152885714D01*
X36109523Y-152980952D01*
X36061904Y-153028571D01*
X35966666Y-153076190D01*
X35585714Y-153076190D01*
X37109523Y-153552380D02*
X36538095Y-153552380D01*
X36823809Y-153552380D02*
X36823809Y-152552380D01*
X36728571Y-152695238D01*
X36633333Y-152790476D01*
X36538095Y-152838095D01*
X38061904Y-153552380D02*
X37490476Y-153552380D01*
X37776190Y-153552380D02*
X37776190Y-152552380D01*
X37680952Y-152695238D01*
X37585714Y-152790476D01*
X37490476Y-152838095D01*
G04 #@! TO.C,R12*
X24157142Y-128052380D02*
X23823809Y-127576190D01*
X23585714Y-128052380D02*
X23585714Y-127052380D01*
X23966666Y-127052380D01*
X24061904Y-127100000D01*
X24109523Y-127147619D01*
X24157142Y-127242857D01*
X24157142Y-127385714D01*
X24109523Y-127480952D01*
X24061904Y-127528571D01*
X23966666Y-127576190D01*
X23585714Y-127576190D01*
X25109523Y-128052380D02*
X24538095Y-128052380D01*
X24823809Y-128052380D02*
X24823809Y-127052380D01*
X24728571Y-127195238D01*
X24633333Y-127290476D01*
X24538095Y-127338095D01*
X25490476Y-127147619D02*
X25538095Y-127100000D01*
X25633333Y-127052380D01*
X25871428Y-127052380D01*
X25966666Y-127100000D01*
X26014285Y-127147619D01*
X26061904Y-127242857D01*
X26061904Y-127338095D01*
X26014285Y-127480952D01*
X25442857Y-128052380D01*
X26061904Y-128052380D01*
G04 #@! TO.C,R13*
X24157142Y-134652380D02*
X23823809Y-134176190D01*
X23585714Y-134652380D02*
X23585714Y-133652380D01*
X23966666Y-133652380D01*
X24061904Y-133700000D01*
X24109523Y-133747619D01*
X24157142Y-133842857D01*
X24157142Y-133985714D01*
X24109523Y-134080952D01*
X24061904Y-134128571D01*
X23966666Y-134176190D01*
X23585714Y-134176190D01*
X25109523Y-134652380D02*
X24538095Y-134652380D01*
X24823809Y-134652380D02*
X24823809Y-133652380D01*
X24728571Y-133795238D01*
X24633333Y-133890476D01*
X24538095Y-133938095D01*
X25442857Y-133652380D02*
X26061904Y-133652380D01*
X25728571Y-134033333D01*
X25871428Y-134033333D01*
X25966666Y-134080952D01*
X26014285Y-134128571D01*
X26061904Y-134223809D01*
X26061904Y-134461904D01*
X26014285Y-134557142D01*
X25966666Y-134604761D01*
X25871428Y-134652380D01*
X25585714Y-134652380D01*
X25490476Y-134604761D01*
X25442857Y-134557142D01*
G04 #@! TO.C,C5*
X17933333Y-149257142D02*
X17885714Y-149304761D01*
X17742857Y-149352380D01*
X17647619Y-149352380D01*
X17504761Y-149304761D01*
X17409523Y-149209523D01*
X17361904Y-149114285D01*
X17314285Y-148923809D01*
X17314285Y-148780952D01*
X17361904Y-148590476D01*
X17409523Y-148495238D01*
X17504761Y-148400000D01*
X17647619Y-148352380D01*
X17742857Y-148352380D01*
X17885714Y-148400000D01*
X17933333Y-148447619D01*
X18838095Y-148352380D02*
X18361904Y-148352380D01*
X18314285Y-148828571D01*
X18361904Y-148780952D01*
X18457142Y-148733333D01*
X18695238Y-148733333D01*
X18790476Y-148780952D01*
X18838095Y-148828571D01*
X18885714Y-148923809D01*
X18885714Y-149161904D01*
X18838095Y-149257142D01*
X18790476Y-149304761D01*
X18695238Y-149352380D01*
X18457142Y-149352380D01*
X18361904Y-149304761D01*
X18314285Y-149257142D01*
G04 #@! TO.C,D2*
X32261904Y-127302380D02*
X32261904Y-126302380D01*
X32500000Y-126302380D01*
X32642857Y-126350000D01*
X32738095Y-126445238D01*
X32785714Y-126540476D01*
X32833333Y-126730952D01*
X32833333Y-126873809D01*
X32785714Y-127064285D01*
X32738095Y-127159523D01*
X32642857Y-127254761D01*
X32500000Y-127302380D01*
X32261904Y-127302380D01*
X33214285Y-126397619D02*
X33261904Y-126350000D01*
X33357142Y-126302380D01*
X33595238Y-126302380D01*
X33690476Y-126350000D01*
X33738095Y-126397619D01*
X33785714Y-126492857D01*
X33785714Y-126588095D01*
X33738095Y-126730952D01*
X33166666Y-127302380D01*
X33785714Y-127302380D01*
G04 #@! TO.C,R14*
X24157142Y-141052380D02*
X23823809Y-140576190D01*
X23585714Y-141052380D02*
X23585714Y-140052380D01*
X23966666Y-140052380D01*
X24061904Y-140100000D01*
X24109523Y-140147619D01*
X24157142Y-140242857D01*
X24157142Y-140385714D01*
X24109523Y-140480952D01*
X24061904Y-140528571D01*
X23966666Y-140576190D01*
X23585714Y-140576190D01*
X25109523Y-141052380D02*
X24538095Y-141052380D01*
X24823809Y-141052380D02*
X24823809Y-140052380D01*
X24728571Y-140195238D01*
X24633333Y-140290476D01*
X24538095Y-140338095D01*
X25966666Y-140385714D02*
X25966666Y-141052380D01*
X25728571Y-140004761D02*
X25490476Y-140719047D01*
X26109523Y-140719047D01*
G04 #@! TO.C,R15*
X16357142Y-128152380D02*
X16023809Y-127676190D01*
X15785714Y-128152380D02*
X15785714Y-127152380D01*
X16166666Y-127152380D01*
X16261904Y-127200000D01*
X16309523Y-127247619D01*
X16357142Y-127342857D01*
X16357142Y-127485714D01*
X16309523Y-127580952D01*
X16261904Y-127628571D01*
X16166666Y-127676190D01*
X15785714Y-127676190D01*
X17309523Y-128152380D02*
X16738095Y-128152380D01*
X17023809Y-128152380D02*
X17023809Y-127152380D01*
X16928571Y-127295238D01*
X16833333Y-127390476D01*
X16738095Y-127438095D01*
X18214285Y-127152380D02*
X17738095Y-127152380D01*
X17690476Y-127628571D01*
X17738095Y-127580952D01*
X17833333Y-127533333D01*
X18071428Y-127533333D01*
X18166666Y-127580952D01*
X18214285Y-127628571D01*
X18261904Y-127723809D01*
X18261904Y-127961904D01*
X18214285Y-128057142D01*
X18166666Y-128104761D01*
X18071428Y-128152380D01*
X17833333Y-128152380D01*
X17738095Y-128104761D01*
X17690476Y-128057142D01*
G04 #@! TO.C,Q1*
X20704761Y-181947619D02*
X20609523Y-181900000D01*
X20514285Y-181804761D01*
X20371428Y-181661904D01*
X20276190Y-181614285D01*
X20180952Y-181614285D01*
X20228571Y-181852380D02*
X20133333Y-181804761D01*
X20038095Y-181709523D01*
X19990476Y-181519047D01*
X19990476Y-181185714D01*
X20038095Y-180995238D01*
X20133333Y-180900000D01*
X20228571Y-180852380D01*
X20419047Y-180852380D01*
X20514285Y-180900000D01*
X20609523Y-180995238D01*
X20657142Y-181185714D01*
X20657142Y-181519047D01*
X20609523Y-181709523D01*
X20514285Y-181804761D01*
X20419047Y-181852380D01*
X20228571Y-181852380D01*
X21609523Y-181852380D02*
X21038095Y-181852380D01*
X21323809Y-181852380D02*
X21323809Y-180852380D01*
X21228571Y-180995238D01*
X21133333Y-181090476D01*
X21038095Y-181138095D01*
G04 #@! TO.C,Q9*
X20504761Y-128247619D02*
X20409523Y-128200000D01*
X20314285Y-128104761D01*
X20171428Y-127961904D01*
X20076190Y-127914285D01*
X19980952Y-127914285D01*
X20028571Y-128152380D02*
X19933333Y-128104761D01*
X19838095Y-128009523D01*
X19790476Y-127819047D01*
X19790476Y-127485714D01*
X19838095Y-127295238D01*
X19933333Y-127200000D01*
X20028571Y-127152380D01*
X20219047Y-127152380D01*
X20314285Y-127200000D01*
X20409523Y-127295238D01*
X20457142Y-127485714D01*
X20457142Y-127819047D01*
X20409523Y-128009523D01*
X20314285Y-128104761D01*
X20219047Y-128152380D01*
X20028571Y-128152380D01*
X20933333Y-128152380D02*
X21123809Y-128152380D01*
X21219047Y-128104761D01*
X21266666Y-128057142D01*
X21361904Y-127914285D01*
X21409523Y-127723809D01*
X21409523Y-127342857D01*
X21361904Y-127247619D01*
X21314285Y-127200000D01*
X21219047Y-127152380D01*
X21028571Y-127152380D01*
X20933333Y-127200000D01*
X20885714Y-127247619D01*
X20838095Y-127342857D01*
X20838095Y-127580952D01*
X20885714Y-127676190D01*
X20933333Y-127723809D01*
X21028571Y-127771428D01*
X21219047Y-127771428D01*
X21314285Y-127723809D01*
X21361904Y-127676190D01*
X21409523Y-127580952D01*
G04 #@! TO.C,SW1*
X31716666Y-175404761D02*
X31859523Y-175452380D01*
X32097619Y-175452380D01*
X32192857Y-175404761D01*
X32240476Y-175357142D01*
X32288095Y-175261904D01*
X32288095Y-175166666D01*
X32240476Y-175071428D01*
X32192857Y-175023809D01*
X32097619Y-174976190D01*
X31907142Y-174928571D01*
X31811904Y-174880952D01*
X31764285Y-174833333D01*
X31716666Y-174738095D01*
X31716666Y-174642857D01*
X31764285Y-174547619D01*
X31811904Y-174500000D01*
X31907142Y-174452380D01*
X32145238Y-174452380D01*
X32288095Y-174500000D01*
X32621428Y-174452380D02*
X32859523Y-175452380D01*
X33050000Y-174738095D01*
X33240476Y-175452380D01*
X33478571Y-174452380D01*
X34383333Y-175452380D02*
X33811904Y-175452380D01*
X34097619Y-175452380D02*
X34097619Y-174452380D01*
X34002380Y-174595238D01*
X33907142Y-174690476D01*
X33811904Y-174738095D01*
G04 #@! TO.C,P1*
D13*
X48937571Y-157244714D02*
X48937571Y-156482714D01*
X49227857Y-156482714D01*
X49300428Y-156519000D01*
X49336714Y-156555285D01*
X49373000Y-156627857D01*
X49373000Y-156736714D01*
X49336714Y-156809285D01*
X49300428Y-156845571D01*
X49227857Y-156881857D01*
X48937571Y-156881857D01*
X50098714Y-157244714D02*
X49663285Y-157244714D01*
X49881000Y-157244714D02*
X49881000Y-156482714D01*
X49808428Y-156591571D01*
X49735857Y-156664142D01*
X49663285Y-156700428D01*
G04 #@! TO.C,R16*
D10*
X15252380Y-170942857D02*
X14776190Y-171276190D01*
X15252380Y-171514285D02*
X14252380Y-171514285D01*
X14252380Y-171133333D01*
X14300000Y-171038095D01*
X14347619Y-170990476D01*
X14442857Y-170942857D01*
X14585714Y-170942857D01*
X14680952Y-170990476D01*
X14728571Y-171038095D01*
X14776190Y-171133333D01*
X14776190Y-171514285D01*
X15252380Y-169990476D02*
X15252380Y-170561904D01*
X15252380Y-170276190D02*
X14252380Y-170276190D01*
X14395238Y-170371428D01*
X14490476Y-170466666D01*
X14538095Y-170561904D01*
X14252380Y-169133333D02*
X14252380Y-169323809D01*
X14300000Y-169419047D01*
X14347619Y-169466666D01*
X14490476Y-169561904D01*
X14680952Y-169609523D01*
X15061904Y-169609523D01*
X15157142Y-169561904D01*
X15204761Y-169514285D01*
X15252380Y-169419047D01*
X15252380Y-169228571D01*
X15204761Y-169133333D01*
X15157142Y-169085714D01*
X15061904Y-169038095D01*
X14823809Y-169038095D01*
X14728571Y-169085714D01*
X14680952Y-169133333D01*
X14633333Y-169228571D01*
X14633333Y-169419047D01*
X14680952Y-169514285D01*
X14728571Y-169561904D01*
X14823809Y-169609523D01*
G04 #@! TO.C,Y1*
X17273809Y-160576190D02*
X17273809Y-161052380D01*
X16940476Y-160052380D02*
X17273809Y-160576190D01*
X17607142Y-160052380D01*
X18464285Y-161052380D02*
X17892857Y-161052380D01*
X18178571Y-161052380D02*
X18178571Y-160052380D01*
X18083333Y-160195238D01*
X17988095Y-160290476D01*
X17892857Y-160338095D01*
G04 #@! TD*
M02*
