M48
; DRILL file {KiCad (5.1.4)-1} date 11/19/19 12:29:14
; FORMAT={-:-/ absolute / inch / decimal}
; #@! TF.CreationDate,2019-11-19T12:29:14+05:30
; #@! TF.GenerationSoftware,Kicad,Pcbnew,(5.1.4)-1
; #@! TF.FileFunction,Plated,1,2,PTH
FMAT,2
INCH
T1C0.0157
T2C0.0276
T3C0.0354
T4C0.0394
T5C0.0433
T6C0.0453
T7C0.0472
%
G90
G05
T1
X0.9429Y-1.2323
X1.0728Y-1.1988
X1.189Y-1.8031
X1.2776Y-1.3248
X1.3307Y-1.8091
X1.4272Y-1.372
X1.4705Y-1.8976
X1.4921Y-1.1752
X1.622Y-1.8346
X1.7406Y-1.2858
X1.748Y-1.4646
X1.7854Y-1.2067
X1.9113Y-1.0817
X1.9843Y-1.937
X1.9921Y-1.5492
X2.0756Y-0.6799
X2.0768Y-0.8661
X2.0768Y-0.9134
X2.0782Y-1.2908
X2.1083Y-1.2874
X2.124Y-0.8661
X2.2421Y-1.188
X2.2441Y-0.9843
X2.2835Y-1.0827
X2.3356Y-1.0105
X2.3622Y-1.1811
X2.4094Y-1.0118
X2.4213Y-1.122
X2.5472Y-0.8051
X2.5472Y-0.8366
X2.5472Y-0.9606
X2.5472Y-0.9921
X2.5787Y-0.8051
X2.5787Y-0.8366
X2.5787Y-0.9606
X2.5787Y-0.9921
X2.5906Y-1.3248
T3
X1.8346Y-0.4906
X1.8346Y-0.5906
X1.5945Y-1.9173
X1.6945Y-1.9173
X1.7945Y-1.9173
X1.5591Y-0.4906
X1.5591Y-0.5906
X1.6457Y-1.6949
X1.7457Y-1.6949
T4
X0.8465Y-1.4173
X0.8465Y-1.5157
X2.4157Y-1.4339
X2.4157Y-1.5339
X2.4157Y-1.6339
X2.5157Y-1.4339
X2.5157Y-1.5339
X2.5157Y-1.6339
T5
X2.0866Y-1.5669
X2.0866Y-1.8228
X2.2638Y-1.5669
X2.2638Y-1.8228
T6
X0.4803Y-1.1024
X0.7165Y-1.1024
T2
G00X0.4606Y-0.9547
M15
G01X0.4921Y-0.9547
M16
G05
G00X0.4606Y-1.25
M15
G01X0.4921Y-1.25
M16
G05
T4
G00X0.9173Y-1.6614
M15
G01X0.9173Y-1.7244
M16
G05
G00X1.1024Y-1.6614
M15
G01X1.1024Y-1.7244
M16
G05
G00X1.2874Y-1.6614
M15
G01X1.2874Y-1.7244
M16
G05
T7
G00X1.248Y-0.626
M15
G01X1.3504Y-0.626
M16
G05
G00X1.248Y-1.4528
M15
G01X1.3504Y-1.4528
M16
G05
T0
M30
