M48
; DRILL file {KiCad 5.1.4-e60b266~84~ubuntu18.04.1} date Wed Oct 16 22:19:16 2019
; FORMAT={-:-/ absolute / metric / decimal}
; #@! TF.CreationDate,2019-10-16T22:19:16+05:30
; #@! TF.GenerationSoftware,Kicad,Pcbnew,5.1.4-e60b266~84~ubuntu18.04.1
; #@! TF.FileFunction,Plated,1,2,PTH
FMAT,2
METRIC
T1C0.400
T2C0.700
T3C0.900
T4C1.000
T5C1.100
T6C1.150
T7C1.600
T8C1.700
%
G90
G05
T1
X23.2Y-37.8
X23.9Y-25.55
X23.95Y-28.0
X23.95Y-29.45
X28.6Y-23.1
X33.6Y-22.9
X34.6Y-30.2
X38.5Y-46.45
X38.55Y-37.0
X40.3Y-25.5
X41.6Y-29.6
X41.9Y-33.3
X42.5Y-31.3
X42.6Y-27.9
X43.9Y-35.2
X45.7Y-32.3
X47.1Y-27.1
X47.5Y-29.5
X51.0Y-27.475
X51.4Y-25.15
X51.4Y-26.1
X51.7Y-28.3
X51.933Y-31.688
X52.75Y-22.0
X52.75Y-23.2
X52.787Y-32.787
X53.5Y-19.35
X53.5Y-34.5
X53.55Y-32.7
X53.95Y-22.0
X54.25Y-33.5
X54.25Y-35.5
X54.75Y-17.55
X56.0Y-29.5
X56.949Y-30.175
X57.0Y-25.0
X57.1Y-26.9
X58.0Y-27.5
X58.6Y-33.85
X59.325Y-25.667
X60.0Y-30.0
X60.15Y-17.5
X61.5Y-27.5
X62.45Y-24.8
X64.7Y-20.45
X64.7Y-21.25
X64.7Y-24.4
X64.7Y-25.2
X65.5Y-20.45
X65.5Y-21.25
X65.5Y-24.4
X65.5Y-25.2
X65.8Y-33.65
T3
X40.5Y-48.7
X43.04Y-48.7
X45.58Y-48.7
X44.06Y-15.0
X46.6Y-15.0
X41.8Y-43.05
X44.34Y-43.05
X37.06Y-15.0
X39.6Y-15.0
T4
X61.36Y-36.42
X61.36Y-38.96
X61.36Y-41.5
X63.9Y-36.42
X63.9Y-38.96
X63.9Y-41.5
X19.0Y-36.0
X19.0Y-38.5
T5
X53.0Y-39.8
X53.0Y-46.3
X57.5Y-39.8
X57.5Y-46.3
T6
X12.2Y-28.0
X18.2Y-28.0
T8
X23.3Y-43.0
X28.0Y-43.0
X32.7Y-43.0
T2
G00X11.7Y-24.25
M15
G01X12.5Y-24.25
M16
G05
G00X11.7Y-31.75
M15
G01X12.5Y-31.75
M16
G05
T7
G00X29.0Y-18.2
M15
G01X30.6Y-18.2
M16
G05
G00X29.0Y-39.2
M15
G01X30.6Y-39.2
M16
G05
T0
M30
