G04 #@! TF.GenerationSoftware,KiCad,Pcbnew,(5.1.4)-1*
G04 #@! TF.CreationDate,2019-11-19T12:29:16+05:30*
G04 #@! TF.ProjectId,senseBe_rev4_main,73656e73-6542-4655-9f72-6576345f6d61,rev?*
G04 #@! TF.SameCoordinates,Original*
G04 #@! TF.FileFunction,Soldermask,Top*
G04 #@! TF.FilePolarity,Negative*
%FSLAX46Y46*%
G04 Gerber Fmt 4.6, Leading zero omitted, Abs format (unit mm)*
G04 Created by KiCad (PCBNEW (5.1.4)-1) date 2019-11-19 12:29:16*
%MOMM*%
%LPD*%
G04 APERTURE LIST*
%ADD10C,0.100000*%
G04 APERTURE END LIST*
D10*
G36*
X41310723Y-47752939D02*
G01*
X41343280Y-47762815D01*
X41373276Y-47778848D01*
X41399572Y-47800428D01*
X41421152Y-47826724D01*
X41437185Y-47856720D01*
X41447061Y-47889277D01*
X41451000Y-47929269D01*
X41451000Y-49470731D01*
X41447061Y-49510723D01*
X41437185Y-49543280D01*
X41421152Y-49573276D01*
X41399572Y-49599572D01*
X41373276Y-49621152D01*
X41343280Y-49637185D01*
X41310723Y-49647061D01*
X41270731Y-49651000D01*
X39729269Y-49651000D01*
X39689277Y-49647061D01*
X39656720Y-49637185D01*
X39626724Y-49621152D01*
X39600428Y-49599572D01*
X39578848Y-49573276D01*
X39562815Y-49543280D01*
X39552939Y-49510723D01*
X39549000Y-49470731D01*
X39549000Y-47929269D01*
X39552939Y-47889277D01*
X39562815Y-47856720D01*
X39578848Y-47826724D01*
X39600428Y-47800428D01*
X39626724Y-47778848D01*
X39656720Y-47762815D01*
X39689277Y-47752939D01*
X39729269Y-47749000D01*
X41270731Y-47749000D01*
X41310723Y-47752939D01*
X41310723Y-47752939D01*
G37*
G36*
X43317395Y-47785546D02*
G01*
X43490466Y-47857234D01*
X43544121Y-47893085D01*
X43646227Y-47961310D01*
X43778690Y-48093773D01*
X43794919Y-48118062D01*
X43882766Y-48249534D01*
X43954454Y-48422605D01*
X43991000Y-48606333D01*
X43991000Y-48793667D01*
X43954454Y-48977395D01*
X43882766Y-49150466D01*
X43882765Y-49150467D01*
X43778690Y-49306227D01*
X43646227Y-49438690D01*
X43598274Y-49470731D01*
X43490466Y-49542766D01*
X43317395Y-49614454D01*
X43133667Y-49651000D01*
X42946333Y-49651000D01*
X42762605Y-49614454D01*
X42589534Y-49542766D01*
X42481726Y-49470731D01*
X42433773Y-49438690D01*
X42301310Y-49306227D01*
X42197235Y-49150467D01*
X42197234Y-49150466D01*
X42125546Y-48977395D01*
X42089000Y-48793667D01*
X42089000Y-48606333D01*
X42125546Y-48422605D01*
X42197234Y-48249534D01*
X42285081Y-48118062D01*
X42301310Y-48093773D01*
X42433773Y-47961310D01*
X42535879Y-47893085D01*
X42589534Y-47857234D01*
X42762605Y-47785546D01*
X42946333Y-47749000D01*
X43133667Y-47749000D01*
X43317395Y-47785546D01*
X43317395Y-47785546D01*
G37*
G36*
X45857395Y-47785546D02*
G01*
X46030466Y-47857234D01*
X46084121Y-47893085D01*
X46186227Y-47961310D01*
X46318690Y-48093773D01*
X46334919Y-48118062D01*
X46422766Y-48249534D01*
X46494454Y-48422605D01*
X46531000Y-48606333D01*
X46531000Y-48793667D01*
X46494454Y-48977395D01*
X46422766Y-49150466D01*
X46422765Y-49150467D01*
X46318690Y-49306227D01*
X46186227Y-49438690D01*
X46138274Y-49470731D01*
X46030466Y-49542766D01*
X45857395Y-49614454D01*
X45673667Y-49651000D01*
X45486333Y-49651000D01*
X45302605Y-49614454D01*
X45129534Y-49542766D01*
X45021726Y-49470731D01*
X44973773Y-49438690D01*
X44841310Y-49306227D01*
X44737235Y-49150467D01*
X44737234Y-49150466D01*
X44665546Y-48977395D01*
X44629000Y-48793667D01*
X44629000Y-48606333D01*
X44665546Y-48422605D01*
X44737234Y-48249534D01*
X44825081Y-48118062D01*
X44841310Y-48093773D01*
X44973773Y-47961310D01*
X45075879Y-47893085D01*
X45129534Y-47857234D01*
X45302605Y-47785546D01*
X45486333Y-47749000D01*
X45673667Y-47749000D01*
X45857395Y-47785546D01*
X45857395Y-47785546D01*
G37*
G36*
X30701000Y-49501000D02*
G01*
X29699000Y-49501000D01*
X29699000Y-48599000D01*
X30701000Y-48599000D01*
X30701000Y-49501000D01*
X30701000Y-49501000D01*
G37*
G36*
X47871938Y-48681716D02*
G01*
X47892557Y-48687971D01*
X47911553Y-48698124D01*
X47928208Y-48711792D01*
X47941876Y-48728447D01*
X47952029Y-48747443D01*
X47958284Y-48768062D01*
X47961000Y-48795640D01*
X47961000Y-49304360D01*
X47958284Y-49331938D01*
X47952029Y-49352557D01*
X47941876Y-49371553D01*
X47928208Y-49388208D01*
X47911553Y-49401876D01*
X47892557Y-49412029D01*
X47871938Y-49418284D01*
X47844360Y-49421000D01*
X47385640Y-49421000D01*
X47358062Y-49418284D01*
X47337443Y-49412029D01*
X47318447Y-49401876D01*
X47301792Y-49388208D01*
X47288124Y-49371553D01*
X47277971Y-49352557D01*
X47271716Y-49331938D01*
X47269000Y-49304360D01*
X47269000Y-48795640D01*
X47271716Y-48768062D01*
X47277971Y-48747443D01*
X47288124Y-48728447D01*
X47301792Y-48711792D01*
X47318447Y-48698124D01*
X47337443Y-48687971D01*
X47358062Y-48681716D01*
X47385640Y-48679000D01*
X47844360Y-48679000D01*
X47871938Y-48681716D01*
X47871938Y-48681716D01*
G37*
G36*
X48841938Y-48681716D02*
G01*
X48862557Y-48687971D01*
X48881553Y-48698124D01*
X48898208Y-48711792D01*
X48911876Y-48728447D01*
X48922029Y-48747443D01*
X48928284Y-48768062D01*
X48931000Y-48795640D01*
X48931000Y-49304360D01*
X48928284Y-49331938D01*
X48922029Y-49352557D01*
X48911876Y-49371553D01*
X48898208Y-49388208D01*
X48881553Y-49401876D01*
X48862557Y-49412029D01*
X48841938Y-49418284D01*
X48814360Y-49421000D01*
X48355640Y-49421000D01*
X48328062Y-49418284D01*
X48307443Y-49412029D01*
X48288447Y-49401876D01*
X48271792Y-49388208D01*
X48258124Y-49371553D01*
X48247971Y-49352557D01*
X48241716Y-49331938D01*
X48239000Y-49304360D01*
X48239000Y-48795640D01*
X48241716Y-48768062D01*
X48247971Y-48747443D01*
X48258124Y-48728447D01*
X48271792Y-48711792D01*
X48288447Y-48698124D01*
X48307443Y-48687971D01*
X48328062Y-48681716D01*
X48355640Y-48679000D01*
X48814360Y-48679000D01*
X48841938Y-48681716D01*
X48841938Y-48681716D01*
G37*
G36*
X34401000Y-48876000D02*
G01*
X33299000Y-48876000D01*
X33299000Y-47524000D01*
X34401000Y-47524000D01*
X34401000Y-48876000D01*
X34401000Y-48876000D01*
G37*
G36*
X36401000Y-48876000D02*
G01*
X35299000Y-48876000D01*
X35299000Y-47524000D01*
X36401000Y-47524000D01*
X36401000Y-48876000D01*
X36401000Y-48876000D01*
G37*
G36*
X55021938Y-48031716D02*
G01*
X55042557Y-48037971D01*
X55061553Y-48048124D01*
X55078208Y-48061792D01*
X55091876Y-48078447D01*
X55102029Y-48097443D01*
X55108284Y-48118062D01*
X55111000Y-48145640D01*
X55111000Y-48654360D01*
X55108284Y-48681938D01*
X55102029Y-48702557D01*
X55091876Y-48721553D01*
X55078208Y-48738208D01*
X55061553Y-48751876D01*
X55042557Y-48762029D01*
X55021938Y-48768284D01*
X54994360Y-48771000D01*
X54535640Y-48771000D01*
X54508062Y-48768284D01*
X54487443Y-48762029D01*
X54468447Y-48751876D01*
X54451792Y-48738208D01*
X54438124Y-48721553D01*
X54427971Y-48702557D01*
X54421716Y-48681938D01*
X54419000Y-48654360D01*
X54419000Y-48145640D01*
X54421716Y-48118062D01*
X54427971Y-48097443D01*
X54438124Y-48078447D01*
X54451792Y-48061792D01*
X54468447Y-48048124D01*
X54487443Y-48037971D01*
X54508062Y-48031716D01*
X54535640Y-48029000D01*
X54994360Y-48029000D01*
X55021938Y-48031716D01*
X55021938Y-48031716D01*
G37*
G36*
X55991938Y-48031716D02*
G01*
X56012557Y-48037971D01*
X56031553Y-48048124D01*
X56048208Y-48061792D01*
X56061876Y-48078447D01*
X56072029Y-48097443D01*
X56078284Y-48118062D01*
X56081000Y-48145640D01*
X56081000Y-48654360D01*
X56078284Y-48681938D01*
X56072029Y-48702557D01*
X56061876Y-48721553D01*
X56048208Y-48738208D01*
X56031553Y-48751876D01*
X56012557Y-48762029D01*
X55991938Y-48768284D01*
X55964360Y-48771000D01*
X55505640Y-48771000D01*
X55478062Y-48768284D01*
X55457443Y-48762029D01*
X55438447Y-48751876D01*
X55421792Y-48738208D01*
X55408124Y-48721553D01*
X55397971Y-48702557D01*
X55391716Y-48681938D01*
X55389000Y-48654360D01*
X55389000Y-48145640D01*
X55391716Y-48118062D01*
X55397971Y-48097443D01*
X55408124Y-48078447D01*
X55421792Y-48061792D01*
X55438447Y-48048124D01*
X55457443Y-48037971D01*
X55478062Y-48031716D01*
X55505640Y-48029000D01*
X55964360Y-48029000D01*
X55991938Y-48031716D01*
X55991938Y-48031716D01*
G37*
G36*
X32701000Y-48551000D02*
G01*
X31699000Y-48551000D01*
X31699000Y-47649000D01*
X32701000Y-47649000D01*
X32701000Y-48551000D01*
X32701000Y-48551000D01*
G37*
G36*
X13293972Y-45630027D02*
G01*
X13408657Y-45652839D01*
X13514267Y-45696585D01*
X13663621Y-45758449D01*
X13663622Y-45758450D01*
X13893086Y-45911772D01*
X14088228Y-46106914D01*
X14190675Y-46260237D01*
X14241551Y-46336379D01*
X14269359Y-46403514D01*
X14347161Y-46591343D01*
X14350189Y-46606565D01*
X14398810Y-46851000D01*
X14401000Y-46862014D01*
X14401000Y-47137986D01*
X14358630Y-47351000D01*
X14347161Y-47408656D01*
X14241551Y-47663621D01*
X14241550Y-47663622D01*
X14088228Y-47893086D01*
X13893086Y-48088228D01*
X13807162Y-48145640D01*
X13663621Y-48241551D01*
X13514267Y-48303415D01*
X13408657Y-48347161D01*
X13318433Y-48365107D01*
X13137988Y-48401000D01*
X12862012Y-48401000D01*
X12681567Y-48365107D01*
X12591343Y-48347161D01*
X12485733Y-48303415D01*
X12336379Y-48241551D01*
X12192838Y-48145640D01*
X12106914Y-48088228D01*
X11911772Y-47893086D01*
X11758450Y-47663622D01*
X11758449Y-47663621D01*
X11652839Y-47408656D01*
X11641371Y-47351000D01*
X11599000Y-47137986D01*
X11599000Y-46862014D01*
X11601191Y-46851000D01*
X11649811Y-46606565D01*
X11652839Y-46591343D01*
X11730641Y-46403514D01*
X11758449Y-46336379D01*
X11809325Y-46260237D01*
X11911772Y-46106914D01*
X12106914Y-45911772D01*
X12336378Y-45758450D01*
X12336379Y-45758449D01*
X12485733Y-45696585D01*
X12591343Y-45652839D01*
X12706028Y-45630027D01*
X12862012Y-45599000D01*
X13137988Y-45599000D01*
X13293972Y-45630027D01*
X13293972Y-45630027D01*
G37*
G36*
X63793972Y-45630027D02*
G01*
X63908657Y-45652839D01*
X64014267Y-45696585D01*
X64163621Y-45758449D01*
X64163622Y-45758450D01*
X64393086Y-45911772D01*
X64588228Y-46106914D01*
X64690675Y-46260237D01*
X64741551Y-46336379D01*
X64769359Y-46403514D01*
X64847161Y-46591343D01*
X64850189Y-46606565D01*
X64898810Y-46851000D01*
X64901000Y-46862014D01*
X64901000Y-47137986D01*
X64858630Y-47351000D01*
X64847161Y-47408656D01*
X64741551Y-47663621D01*
X64741550Y-47663622D01*
X64588228Y-47893086D01*
X64393086Y-48088228D01*
X64307162Y-48145640D01*
X64163621Y-48241551D01*
X64014267Y-48303415D01*
X63908657Y-48347161D01*
X63818433Y-48365107D01*
X63637988Y-48401000D01*
X63362012Y-48401000D01*
X63181567Y-48365107D01*
X63091343Y-48347161D01*
X62985733Y-48303415D01*
X62836379Y-48241551D01*
X62692838Y-48145640D01*
X62606914Y-48088228D01*
X62411772Y-47893086D01*
X62258450Y-47663622D01*
X62258449Y-47663621D01*
X62152839Y-47408656D01*
X62141371Y-47351000D01*
X62099000Y-47137986D01*
X62099000Y-46862014D01*
X62101191Y-46851000D01*
X62149811Y-46606565D01*
X62152839Y-46591343D01*
X62230641Y-46403514D01*
X62258449Y-46336379D01*
X62309325Y-46260237D01*
X62411772Y-46106914D01*
X62606914Y-45911772D01*
X62836378Y-45758450D01*
X62836379Y-45758449D01*
X62985733Y-45696585D01*
X63091343Y-45652839D01*
X63206028Y-45630027D01*
X63362012Y-45599000D01*
X63637988Y-45599000D01*
X63793972Y-45630027D01*
X63793972Y-45630027D01*
G37*
G36*
X50101000Y-47801000D02*
G01*
X49099000Y-47801000D01*
X49099000Y-46899000D01*
X50101000Y-46899000D01*
X50101000Y-47801000D01*
X50101000Y-47801000D01*
G37*
G36*
X30701000Y-47601000D02*
G01*
X29699000Y-47601000D01*
X29699000Y-46699000D01*
X30701000Y-46699000D01*
X30701000Y-47601000D01*
X30701000Y-47601000D01*
G37*
G36*
X57806564Y-45289389D02*
G01*
X57997833Y-45368615D01*
X57997835Y-45368616D01*
X58169973Y-45483635D01*
X58316365Y-45630027D01*
X58402175Y-45758450D01*
X58431385Y-45802167D01*
X58510611Y-45993436D01*
X58551000Y-46196484D01*
X58551000Y-46403516D01*
X58510611Y-46606564D01*
X58431385Y-46797833D01*
X58431384Y-46797835D01*
X58316365Y-46969973D01*
X58169973Y-47116365D01*
X57997835Y-47231384D01*
X57997834Y-47231385D01*
X57997833Y-47231385D01*
X57806564Y-47310611D01*
X57603516Y-47351000D01*
X57396484Y-47351000D01*
X57193436Y-47310611D01*
X57002167Y-47231385D01*
X57002166Y-47231385D01*
X57002165Y-47231384D01*
X56830027Y-47116365D01*
X56683635Y-46969973D01*
X56568616Y-46797835D01*
X56568615Y-46797833D01*
X56489389Y-46606564D01*
X56449000Y-46403516D01*
X56449000Y-46196484D01*
X56489389Y-45993436D01*
X56568615Y-45802167D01*
X56597826Y-45758450D01*
X56683635Y-45630027D01*
X56830027Y-45483635D01*
X57002165Y-45368616D01*
X57002167Y-45368615D01*
X57193436Y-45289389D01*
X57396484Y-45249000D01*
X57603516Y-45249000D01*
X57806564Y-45289389D01*
X57806564Y-45289389D01*
G37*
G36*
X53306564Y-45289389D02*
G01*
X53497833Y-45368615D01*
X53497835Y-45368616D01*
X53669973Y-45483635D01*
X53816365Y-45630027D01*
X53902175Y-45758450D01*
X53931385Y-45802167D01*
X54010611Y-45993436D01*
X54051000Y-46196484D01*
X54051000Y-46403516D01*
X54010611Y-46606564D01*
X53931385Y-46797833D01*
X53931384Y-46797835D01*
X53816365Y-46969973D01*
X53669973Y-47116365D01*
X53497835Y-47231384D01*
X53497834Y-47231385D01*
X53497833Y-47231385D01*
X53306564Y-47310611D01*
X53103516Y-47351000D01*
X52896484Y-47351000D01*
X52693436Y-47310611D01*
X52502167Y-47231385D01*
X52502166Y-47231385D01*
X52502165Y-47231384D01*
X52330027Y-47116365D01*
X52183635Y-46969973D01*
X52068616Y-46797835D01*
X52068615Y-46797833D01*
X51989389Y-46606564D01*
X51949000Y-46403516D01*
X51949000Y-46196484D01*
X51989389Y-45993436D01*
X52068615Y-45802167D01*
X52097826Y-45758450D01*
X52183635Y-45630027D01*
X52330027Y-45483635D01*
X52502165Y-45368616D01*
X52502167Y-45368615D01*
X52693436Y-45289389D01*
X52896484Y-45249000D01*
X53103516Y-45249000D01*
X53306564Y-45289389D01*
X53306564Y-45289389D01*
G37*
G36*
X48101000Y-46851000D02*
G01*
X47099000Y-46851000D01*
X47099000Y-45949000D01*
X48101000Y-45949000D01*
X48101000Y-46851000D01*
X48101000Y-46851000D01*
G37*
G36*
X50101000Y-45901000D02*
G01*
X49099000Y-45901000D01*
X49099000Y-44999000D01*
X50101000Y-44999000D01*
X50101000Y-45901000D01*
X50101000Y-45901000D01*
G37*
G36*
X32955039Y-41067825D02*
G01*
X33200279Y-41142218D01*
X33426293Y-41263025D01*
X33624396Y-41425604D01*
X33786975Y-41623706D01*
X33907782Y-41849720D01*
X33982175Y-42094960D01*
X34001000Y-42286095D01*
X34001000Y-43713905D01*
X33982175Y-43905040D01*
X33907782Y-44150280D01*
X33786975Y-44376294D01*
X33744624Y-44427899D01*
X33624397Y-44574397D01*
X33477899Y-44694624D01*
X33426294Y-44736975D01*
X33200280Y-44857782D01*
X32955040Y-44932175D01*
X32700000Y-44957294D01*
X32444961Y-44932175D01*
X32199721Y-44857782D01*
X31973707Y-44736975D01*
X31922102Y-44694624D01*
X31775604Y-44574397D01*
X31655377Y-44427899D01*
X31613026Y-44376294D01*
X31544451Y-44248000D01*
X31492219Y-44150282D01*
X31475691Y-44095796D01*
X31417825Y-43905040D01*
X31399000Y-43713905D01*
X31399000Y-42286096D01*
X31402282Y-42252778D01*
X31417825Y-42094962D01*
X31417825Y-42094961D01*
X31492218Y-41849721D01*
X31613025Y-41623707D01*
X31775604Y-41425604D01*
X31973706Y-41263025D01*
X31973705Y-41263025D01*
X31973707Y-41263024D01*
X32199718Y-41142219D01*
X32199720Y-41142218D01*
X32444960Y-41067825D01*
X32700000Y-41042706D01*
X32955039Y-41067825D01*
X32955039Y-41067825D01*
G37*
G36*
X23555039Y-41067825D02*
G01*
X23800279Y-41142218D01*
X24026293Y-41263025D01*
X24224396Y-41425604D01*
X24386975Y-41623706D01*
X24507782Y-41849720D01*
X24582175Y-42094960D01*
X24601000Y-42286095D01*
X24601000Y-43713905D01*
X24582175Y-43905040D01*
X24507782Y-44150280D01*
X24386975Y-44376294D01*
X24344624Y-44427899D01*
X24224397Y-44574397D01*
X24077899Y-44694624D01*
X24026294Y-44736975D01*
X23800280Y-44857782D01*
X23555040Y-44932175D01*
X23300000Y-44957294D01*
X23044961Y-44932175D01*
X22799721Y-44857782D01*
X22573707Y-44736975D01*
X22522102Y-44694624D01*
X22375604Y-44574397D01*
X22255377Y-44427899D01*
X22213026Y-44376294D01*
X22144451Y-44248000D01*
X22092219Y-44150282D01*
X22075691Y-44095796D01*
X22017825Y-43905040D01*
X21999000Y-43713905D01*
X21999000Y-42286096D01*
X22002282Y-42252778D01*
X22017825Y-42094962D01*
X22017825Y-42094961D01*
X22092218Y-41849721D01*
X22213025Y-41623707D01*
X22375604Y-41425604D01*
X22573706Y-41263025D01*
X22573705Y-41263025D01*
X22573707Y-41263024D01*
X22799718Y-41142219D01*
X22799720Y-41142218D01*
X23044960Y-41067825D01*
X23300000Y-41042706D01*
X23555039Y-41067825D01*
X23555039Y-41067825D01*
G37*
G36*
X28255039Y-41067825D02*
G01*
X28500279Y-41142218D01*
X28726293Y-41263025D01*
X28924396Y-41425604D01*
X29086975Y-41623706D01*
X29207782Y-41849720D01*
X29282175Y-42094960D01*
X29301000Y-42286095D01*
X29301000Y-43713905D01*
X29282175Y-43905040D01*
X29207782Y-44150280D01*
X29086975Y-44376294D01*
X29044624Y-44427899D01*
X28924397Y-44574397D01*
X28777899Y-44694624D01*
X28726294Y-44736975D01*
X28500280Y-44857782D01*
X28255040Y-44932175D01*
X28000000Y-44957294D01*
X27744961Y-44932175D01*
X27499721Y-44857782D01*
X27273707Y-44736975D01*
X27222102Y-44694624D01*
X27075604Y-44574397D01*
X26955377Y-44427899D01*
X26913026Y-44376294D01*
X26844451Y-44248000D01*
X26792219Y-44150282D01*
X26775691Y-44095796D01*
X26717825Y-43905040D01*
X26699000Y-43713905D01*
X26699000Y-42286096D01*
X26702282Y-42252778D01*
X26717825Y-42094962D01*
X26717825Y-42094961D01*
X26792218Y-41849721D01*
X26913025Y-41623707D01*
X27075604Y-41425604D01*
X27273706Y-41263025D01*
X27273705Y-41263025D01*
X27273707Y-41263024D01*
X27499718Y-41142219D01*
X27499720Y-41142218D01*
X27744960Y-41067825D01*
X28000000Y-41042706D01*
X28255039Y-41067825D01*
X28255039Y-41067825D01*
G37*
G36*
X35331938Y-43991716D02*
G01*
X35352557Y-43997971D01*
X35371553Y-44008124D01*
X35388208Y-44021792D01*
X35401876Y-44038447D01*
X35412029Y-44057443D01*
X35418284Y-44078062D01*
X35421000Y-44105640D01*
X35421000Y-44564360D01*
X35418284Y-44591938D01*
X35412029Y-44612557D01*
X35401876Y-44631553D01*
X35388208Y-44648208D01*
X35371553Y-44661876D01*
X35352557Y-44672029D01*
X35331938Y-44678284D01*
X35304360Y-44681000D01*
X34795640Y-44681000D01*
X34768062Y-44678284D01*
X34747443Y-44672029D01*
X34728447Y-44661876D01*
X34711792Y-44648208D01*
X34698124Y-44631553D01*
X34687971Y-44612557D01*
X34681716Y-44591938D01*
X34679000Y-44564360D01*
X34679000Y-44105640D01*
X34681716Y-44078062D01*
X34687971Y-44057443D01*
X34698124Y-44038447D01*
X34711792Y-44021792D01*
X34728447Y-44008124D01*
X34747443Y-43997971D01*
X34768062Y-43991716D01*
X34795640Y-43989000D01*
X35304360Y-43989000D01*
X35331938Y-43991716D01*
X35331938Y-43991716D01*
G37*
G36*
X36851000Y-44451000D02*
G01*
X35849000Y-44451000D01*
X35849000Y-43549000D01*
X36851000Y-43549000D01*
X36851000Y-44451000D01*
X36851000Y-44451000D01*
G37*
G36*
X48691938Y-43681716D02*
G01*
X48712557Y-43687971D01*
X48731553Y-43698124D01*
X48748208Y-43711792D01*
X48761876Y-43728447D01*
X48772029Y-43747443D01*
X48778284Y-43768062D01*
X48781000Y-43795640D01*
X48781000Y-44304360D01*
X48778284Y-44331938D01*
X48772029Y-44352557D01*
X48761876Y-44371553D01*
X48748208Y-44388208D01*
X48731553Y-44401876D01*
X48712557Y-44412029D01*
X48691938Y-44418284D01*
X48664360Y-44421000D01*
X48205640Y-44421000D01*
X48178062Y-44418284D01*
X48157443Y-44412029D01*
X48138447Y-44401876D01*
X48121792Y-44388208D01*
X48108124Y-44371553D01*
X48097971Y-44352557D01*
X48091716Y-44331938D01*
X48089000Y-44304360D01*
X48089000Y-43795640D01*
X48091716Y-43768062D01*
X48097971Y-43747443D01*
X48108124Y-43728447D01*
X48121792Y-43711792D01*
X48138447Y-43698124D01*
X48157443Y-43687971D01*
X48178062Y-43681716D01*
X48205640Y-43679000D01*
X48664360Y-43679000D01*
X48691938Y-43681716D01*
X48691938Y-43681716D01*
G37*
G36*
X47721938Y-43681716D02*
G01*
X47742557Y-43687971D01*
X47761553Y-43698124D01*
X47778208Y-43711792D01*
X47791876Y-43728447D01*
X47802029Y-43747443D01*
X47808284Y-43768062D01*
X47811000Y-43795640D01*
X47811000Y-44304360D01*
X47808284Y-44331938D01*
X47802029Y-44352557D01*
X47791876Y-44371553D01*
X47778208Y-44388208D01*
X47761553Y-44401876D01*
X47742557Y-44412029D01*
X47721938Y-44418284D01*
X47694360Y-44421000D01*
X47235640Y-44421000D01*
X47208062Y-44418284D01*
X47187443Y-44412029D01*
X47168447Y-44401876D01*
X47151792Y-44388208D01*
X47138124Y-44371553D01*
X47127971Y-44352557D01*
X47121716Y-44331938D01*
X47119000Y-44304360D01*
X47119000Y-43795640D01*
X47121716Y-43768062D01*
X47127971Y-43747443D01*
X47138124Y-43728447D01*
X47151792Y-43711792D01*
X47168447Y-43698124D01*
X47187443Y-43687971D01*
X47208062Y-43681716D01*
X47235640Y-43679000D01*
X47694360Y-43679000D01*
X47721938Y-43681716D01*
X47721938Y-43681716D01*
G37*
G36*
X49721938Y-43681716D02*
G01*
X49742557Y-43687971D01*
X49761553Y-43698124D01*
X49778208Y-43711792D01*
X49791876Y-43728447D01*
X49802029Y-43747443D01*
X49808284Y-43768062D01*
X49811000Y-43795640D01*
X49811000Y-44304360D01*
X49808284Y-44331938D01*
X49802029Y-44352557D01*
X49791876Y-44371553D01*
X49778208Y-44388208D01*
X49761553Y-44401876D01*
X49742557Y-44412029D01*
X49721938Y-44418284D01*
X49694360Y-44421000D01*
X49235640Y-44421000D01*
X49208062Y-44418284D01*
X49187443Y-44412029D01*
X49168447Y-44401876D01*
X49151792Y-44388208D01*
X49138124Y-44371553D01*
X49127971Y-44352557D01*
X49121716Y-44331938D01*
X49119000Y-44304360D01*
X49119000Y-43795640D01*
X49121716Y-43768062D01*
X49127971Y-43747443D01*
X49138124Y-43728447D01*
X49151792Y-43711792D01*
X49168447Y-43698124D01*
X49187443Y-43687971D01*
X49208062Y-43681716D01*
X49235640Y-43679000D01*
X49694360Y-43679000D01*
X49721938Y-43681716D01*
X49721938Y-43681716D01*
G37*
G36*
X50691938Y-43681716D02*
G01*
X50712557Y-43687971D01*
X50731553Y-43698124D01*
X50748208Y-43711792D01*
X50761876Y-43728447D01*
X50772029Y-43747443D01*
X50778284Y-43768062D01*
X50781000Y-43795640D01*
X50781000Y-44304360D01*
X50778284Y-44331938D01*
X50772029Y-44352557D01*
X50761876Y-44371553D01*
X50748208Y-44388208D01*
X50731553Y-44401876D01*
X50712557Y-44412029D01*
X50691938Y-44418284D01*
X50664360Y-44421000D01*
X50205640Y-44421000D01*
X50178062Y-44418284D01*
X50157443Y-44412029D01*
X50138447Y-44401876D01*
X50121792Y-44388208D01*
X50108124Y-44371553D01*
X50097971Y-44352557D01*
X50091716Y-44331938D01*
X50089000Y-44304360D01*
X50089000Y-43795640D01*
X50091716Y-43768062D01*
X50097971Y-43747443D01*
X50108124Y-43728447D01*
X50121792Y-43711792D01*
X50138447Y-43698124D01*
X50157443Y-43687971D01*
X50178062Y-43681716D01*
X50205640Y-43679000D01*
X50664360Y-43679000D01*
X50691938Y-43681716D01*
X50691938Y-43681716D01*
G37*
G36*
X44617395Y-42135546D02*
G01*
X44790466Y-42207234D01*
X44790467Y-42207235D01*
X44946227Y-42311310D01*
X45078690Y-42443773D01*
X45078691Y-42443775D01*
X45182766Y-42599534D01*
X45254454Y-42772605D01*
X45291000Y-42956333D01*
X45291000Y-43143667D01*
X45254454Y-43327395D01*
X45182766Y-43500466D01*
X45135135Y-43571751D01*
X45078690Y-43656227D01*
X44946227Y-43788690D01*
X44867818Y-43841081D01*
X44790466Y-43892766D01*
X44617395Y-43964454D01*
X44433667Y-44001000D01*
X44246333Y-44001000D01*
X44062605Y-43964454D01*
X43889534Y-43892766D01*
X43812182Y-43841081D01*
X43733773Y-43788690D01*
X43601310Y-43656227D01*
X43544865Y-43571751D01*
X43497234Y-43500466D01*
X43425546Y-43327395D01*
X43389000Y-43143667D01*
X43389000Y-42956333D01*
X43425546Y-42772605D01*
X43497234Y-42599534D01*
X43601309Y-42443775D01*
X43601310Y-42443773D01*
X43733773Y-42311310D01*
X43889533Y-42207235D01*
X43889534Y-42207234D01*
X44062605Y-42135546D01*
X44246333Y-42099000D01*
X44433667Y-42099000D01*
X44617395Y-42135546D01*
X44617395Y-42135546D01*
G37*
G36*
X42751000Y-44001000D02*
G01*
X40849000Y-44001000D01*
X40849000Y-42099000D01*
X42751000Y-42099000D01*
X42751000Y-44001000D01*
X42751000Y-44001000D01*
G37*
G36*
X35331938Y-43021716D02*
G01*
X35352557Y-43027971D01*
X35371553Y-43038124D01*
X35388208Y-43051792D01*
X35401876Y-43068447D01*
X35412029Y-43087443D01*
X35418284Y-43108062D01*
X35421000Y-43135640D01*
X35421000Y-43594360D01*
X35418284Y-43621938D01*
X35412029Y-43642557D01*
X35401876Y-43661553D01*
X35388208Y-43678208D01*
X35371553Y-43691876D01*
X35352557Y-43702029D01*
X35331938Y-43708284D01*
X35304360Y-43711000D01*
X34795640Y-43711000D01*
X34768062Y-43708284D01*
X34747443Y-43702029D01*
X34728447Y-43691876D01*
X34711792Y-43678208D01*
X34698124Y-43661553D01*
X34687971Y-43642557D01*
X34681716Y-43621938D01*
X34679000Y-43594360D01*
X34679000Y-43135640D01*
X34681716Y-43108062D01*
X34687971Y-43087443D01*
X34698124Y-43068447D01*
X34711792Y-43051792D01*
X34728447Y-43038124D01*
X34747443Y-43027971D01*
X34768062Y-43021716D01*
X34795640Y-43019000D01*
X35304360Y-43019000D01*
X35331938Y-43021716D01*
X35331938Y-43021716D01*
G37*
G36*
X38851000Y-43501000D02*
G01*
X37849000Y-43501000D01*
X37849000Y-42599000D01*
X38851000Y-42599000D01*
X38851000Y-43501000D01*
X38851000Y-43501000D01*
G37*
G36*
X36851000Y-42551000D02*
G01*
X35849000Y-42551000D01*
X35849000Y-41649000D01*
X36851000Y-41649000D01*
X36851000Y-42551000D01*
X36851000Y-42551000D01*
G37*
G36*
X64801000Y-42401000D02*
G01*
X62999000Y-42401000D01*
X62999000Y-40599000D01*
X64801000Y-40599000D01*
X64801000Y-42401000D01*
X64801000Y-42401000D01*
G37*
G36*
X61470443Y-40605519D02*
G01*
X61536627Y-40612037D01*
X61706466Y-40663557D01*
X61862991Y-40747222D01*
X61898729Y-40776552D01*
X62000186Y-40859814D01*
X62083448Y-40961271D01*
X62112778Y-40997009D01*
X62196443Y-41153534D01*
X62247963Y-41323373D01*
X62265359Y-41500000D01*
X62247963Y-41676627D01*
X62196443Y-41846466D01*
X62112778Y-42002991D01*
X62110451Y-42005826D01*
X62000186Y-42140186D01*
X61918485Y-42207235D01*
X61862991Y-42252778D01*
X61706466Y-42336443D01*
X61536627Y-42387963D01*
X61470443Y-42394481D01*
X61404260Y-42401000D01*
X61315740Y-42401000D01*
X61249557Y-42394481D01*
X61183373Y-42387963D01*
X61013534Y-42336443D01*
X60857009Y-42252778D01*
X60801515Y-42207235D01*
X60719814Y-42140186D01*
X60609549Y-42005826D01*
X60607222Y-42002991D01*
X60523557Y-41846466D01*
X60472037Y-41676627D01*
X60454641Y-41500000D01*
X60472037Y-41323373D01*
X60523557Y-41153534D01*
X60607222Y-40997009D01*
X60636552Y-40961271D01*
X60719814Y-40859814D01*
X60821271Y-40776552D01*
X60857009Y-40747222D01*
X61013534Y-40663557D01*
X61183373Y-40612037D01*
X61249557Y-40605519D01*
X61315740Y-40599000D01*
X61404260Y-40599000D01*
X61470443Y-40605519D01*
X61470443Y-40605519D01*
G37*
G36*
X51118604Y-40278347D02*
G01*
X51155144Y-40289432D01*
X51188821Y-40307433D01*
X51218341Y-40331659D01*
X51242567Y-40361179D01*
X51260568Y-40394856D01*
X51271653Y-40431396D01*
X51276000Y-40475538D01*
X51276000Y-41924462D01*
X51271653Y-41968604D01*
X51260568Y-42005144D01*
X51242567Y-42038821D01*
X51218341Y-42068341D01*
X51188821Y-42092567D01*
X51155144Y-42110568D01*
X51118604Y-42121653D01*
X51074462Y-42126000D01*
X50125538Y-42126000D01*
X50081396Y-42121653D01*
X50044856Y-42110568D01*
X50011179Y-42092567D01*
X49981659Y-42068341D01*
X49957433Y-42038821D01*
X49939432Y-42005144D01*
X49928347Y-41968604D01*
X49924000Y-41924462D01*
X49924000Y-40475538D01*
X49928347Y-40431396D01*
X49939432Y-40394856D01*
X49957433Y-40361179D01*
X49981659Y-40331659D01*
X50011179Y-40307433D01*
X50044856Y-40289432D01*
X50081396Y-40278347D01*
X50125538Y-40274000D01*
X51074462Y-40274000D01*
X51118604Y-40278347D01*
X51118604Y-40278347D01*
G37*
G36*
X48318604Y-40278347D02*
G01*
X48355144Y-40289432D01*
X48388821Y-40307433D01*
X48418341Y-40331659D01*
X48442567Y-40361179D01*
X48460568Y-40394856D01*
X48471653Y-40431396D01*
X48476000Y-40475538D01*
X48476000Y-41924462D01*
X48471653Y-41968604D01*
X48460568Y-42005144D01*
X48442567Y-42038821D01*
X48418341Y-42068341D01*
X48388821Y-42092567D01*
X48355144Y-42110568D01*
X48318604Y-42121653D01*
X48274462Y-42126000D01*
X47325538Y-42126000D01*
X47281396Y-42121653D01*
X47244856Y-42110568D01*
X47211179Y-42092567D01*
X47181659Y-42068341D01*
X47157433Y-42038821D01*
X47139432Y-42005144D01*
X47128347Y-41968604D01*
X47124000Y-41924462D01*
X47124000Y-40475538D01*
X47128347Y-40431396D01*
X47139432Y-40394856D01*
X47157433Y-40361179D01*
X47181659Y-40331659D01*
X47211179Y-40307433D01*
X47244856Y-40289432D01*
X47281396Y-40278347D01*
X47325538Y-40274000D01*
X48274462Y-40274000D01*
X48318604Y-40278347D01*
X48318604Y-40278347D01*
G37*
G36*
X39026000Y-41101000D02*
G01*
X38224000Y-41101000D01*
X38224000Y-38999000D01*
X39026000Y-38999000D01*
X39026000Y-41101000D01*
X39026000Y-41101000D01*
G37*
G36*
X37576000Y-41101000D02*
G01*
X36774000Y-41101000D01*
X36774000Y-38999000D01*
X37576000Y-38999000D01*
X37576000Y-41101000D01*
X37576000Y-41101000D01*
G37*
G36*
X57806564Y-38789389D02*
G01*
X57997833Y-38868615D01*
X57997835Y-38868616D01*
X58169973Y-38983635D01*
X58316365Y-39130027D01*
X58375212Y-39218097D01*
X58431385Y-39302167D01*
X58510611Y-39493436D01*
X58551000Y-39696484D01*
X58551000Y-39903516D01*
X58510611Y-40106564D01*
X58434865Y-40289432D01*
X58431384Y-40297835D01*
X58316365Y-40469973D01*
X58169973Y-40616365D01*
X57997835Y-40731384D01*
X57997834Y-40731385D01*
X57997833Y-40731385D01*
X57806564Y-40810611D01*
X57603516Y-40851000D01*
X57396484Y-40851000D01*
X57193436Y-40810611D01*
X57002167Y-40731385D01*
X57002166Y-40731385D01*
X57002165Y-40731384D01*
X56830027Y-40616365D01*
X56683635Y-40469973D01*
X56568616Y-40297835D01*
X56565135Y-40289432D01*
X56489389Y-40106564D01*
X56449000Y-39903516D01*
X56449000Y-39696484D01*
X56489389Y-39493436D01*
X56568615Y-39302167D01*
X56624789Y-39218097D01*
X56683635Y-39130027D01*
X56830027Y-38983635D01*
X57002165Y-38868616D01*
X57002167Y-38868615D01*
X57193436Y-38789389D01*
X57396484Y-38749000D01*
X57603516Y-38749000D01*
X57806564Y-38789389D01*
X57806564Y-38789389D01*
G37*
G36*
X53306564Y-38789389D02*
G01*
X53497833Y-38868615D01*
X53497835Y-38868616D01*
X53669973Y-38983635D01*
X53816365Y-39130027D01*
X53875212Y-39218097D01*
X53931385Y-39302167D01*
X54010611Y-39493436D01*
X54051000Y-39696484D01*
X54051000Y-39903516D01*
X54010611Y-40106564D01*
X53934865Y-40289432D01*
X53931384Y-40297835D01*
X53816365Y-40469973D01*
X53669973Y-40616365D01*
X53497835Y-40731384D01*
X53497834Y-40731385D01*
X53497833Y-40731385D01*
X53306564Y-40810611D01*
X53103516Y-40851000D01*
X52896484Y-40851000D01*
X52693436Y-40810611D01*
X52502167Y-40731385D01*
X52502166Y-40731385D01*
X52502165Y-40731384D01*
X52330027Y-40616365D01*
X52183635Y-40469973D01*
X52068616Y-40297835D01*
X52065135Y-40289432D01*
X51989389Y-40106564D01*
X51949000Y-39903516D01*
X51949000Y-39696484D01*
X51989389Y-39493436D01*
X52068615Y-39302167D01*
X52124789Y-39218097D01*
X52183635Y-39130027D01*
X52330027Y-38983635D01*
X52502165Y-38868616D01*
X52502167Y-38868615D01*
X52693436Y-38789389D01*
X52896484Y-38749000D01*
X53103516Y-38749000D01*
X53306564Y-38789389D01*
X53306564Y-38789389D01*
G37*
G36*
X61470442Y-38065518D02*
G01*
X61536627Y-38072037D01*
X61706466Y-38123557D01*
X61862991Y-38207222D01*
X61898729Y-38236552D01*
X62000186Y-38319814D01*
X62083448Y-38421271D01*
X62112778Y-38457009D01*
X62196443Y-38613534D01*
X62247963Y-38783373D01*
X62265359Y-38960000D01*
X62247963Y-39136627D01*
X62196443Y-39306466D01*
X62112778Y-39462991D01*
X62087793Y-39493435D01*
X62000186Y-39600186D01*
X61898729Y-39683448D01*
X61862991Y-39712778D01*
X61706466Y-39796443D01*
X61536627Y-39847963D01*
X61470442Y-39854482D01*
X61404260Y-39861000D01*
X61315740Y-39861000D01*
X61249558Y-39854482D01*
X61183373Y-39847963D01*
X61013534Y-39796443D01*
X60857009Y-39712778D01*
X60821271Y-39683448D01*
X60719814Y-39600186D01*
X60632207Y-39493435D01*
X60607222Y-39462991D01*
X60523557Y-39306466D01*
X60472037Y-39136627D01*
X60454641Y-38960000D01*
X60472037Y-38783373D01*
X60523557Y-38613534D01*
X60607222Y-38457009D01*
X60636552Y-38421271D01*
X60719814Y-38319814D01*
X60821271Y-38236552D01*
X60857009Y-38207222D01*
X61013534Y-38123557D01*
X61183373Y-38072037D01*
X61249558Y-38065518D01*
X61315740Y-38059000D01*
X61404260Y-38059000D01*
X61470442Y-38065518D01*
X61470442Y-38065518D01*
G37*
G36*
X64010442Y-38065518D02*
G01*
X64076627Y-38072037D01*
X64246466Y-38123557D01*
X64402991Y-38207222D01*
X64438729Y-38236552D01*
X64540186Y-38319814D01*
X64623448Y-38421271D01*
X64652778Y-38457009D01*
X64736443Y-38613534D01*
X64787963Y-38783373D01*
X64805359Y-38960000D01*
X64787963Y-39136627D01*
X64736443Y-39306466D01*
X64652778Y-39462991D01*
X64627793Y-39493435D01*
X64540186Y-39600186D01*
X64438729Y-39683448D01*
X64402991Y-39712778D01*
X64246466Y-39796443D01*
X64076627Y-39847963D01*
X64010442Y-39854482D01*
X63944260Y-39861000D01*
X63855740Y-39861000D01*
X63789558Y-39854482D01*
X63723373Y-39847963D01*
X63553534Y-39796443D01*
X63397009Y-39712778D01*
X63361271Y-39683448D01*
X63259814Y-39600186D01*
X63172207Y-39493435D01*
X63147222Y-39462991D01*
X63063557Y-39306466D01*
X63012037Y-39136627D01*
X62994641Y-38960000D01*
X63012037Y-38783373D01*
X63063557Y-38613534D01*
X63147222Y-38457009D01*
X63176552Y-38421271D01*
X63259814Y-38319814D01*
X63361271Y-38236552D01*
X63397009Y-38207222D01*
X63553534Y-38123557D01*
X63723373Y-38072037D01*
X63789558Y-38065518D01*
X63855740Y-38059000D01*
X63944260Y-38059000D01*
X64010442Y-38065518D01*
X64010442Y-38065518D01*
G37*
G36*
X40818604Y-37578347D02*
G01*
X40855144Y-37589432D01*
X40888821Y-37607433D01*
X40918341Y-37631659D01*
X40942567Y-37661179D01*
X40960568Y-37694856D01*
X40971653Y-37731396D01*
X40976000Y-37775538D01*
X40976000Y-39224462D01*
X40971653Y-39268604D01*
X40960568Y-39305144D01*
X40942567Y-39338821D01*
X40918341Y-39368341D01*
X40888821Y-39392567D01*
X40855144Y-39410568D01*
X40818604Y-39421653D01*
X40774462Y-39426000D01*
X39825538Y-39426000D01*
X39781396Y-39421653D01*
X39744856Y-39410568D01*
X39711179Y-39392567D01*
X39681659Y-39368341D01*
X39657433Y-39338821D01*
X39639432Y-39305144D01*
X39628347Y-39268604D01*
X39624000Y-39224462D01*
X39624000Y-37775538D01*
X39628347Y-37731396D01*
X39639432Y-37694856D01*
X39657433Y-37661179D01*
X39681659Y-37631659D01*
X39711179Y-37607433D01*
X39744856Y-37589432D01*
X39781396Y-37578347D01*
X39825538Y-37574000D01*
X40774462Y-37574000D01*
X40818604Y-37578347D01*
X40818604Y-37578347D01*
G37*
G36*
X43618604Y-37578347D02*
G01*
X43655144Y-37589432D01*
X43688821Y-37607433D01*
X43718341Y-37631659D01*
X43742567Y-37661179D01*
X43760568Y-37694856D01*
X43771653Y-37731396D01*
X43776000Y-37775538D01*
X43776000Y-39224462D01*
X43771653Y-39268604D01*
X43760568Y-39305144D01*
X43742567Y-39338821D01*
X43718341Y-39368341D01*
X43688821Y-39392567D01*
X43655144Y-39410568D01*
X43618604Y-39421653D01*
X43574462Y-39426000D01*
X42625538Y-39426000D01*
X42581396Y-39421653D01*
X42544856Y-39410568D01*
X42511179Y-39392567D01*
X42481659Y-39368341D01*
X42457433Y-39338821D01*
X42439432Y-39305144D01*
X42428347Y-39268604D01*
X42424000Y-39224462D01*
X42424000Y-37775538D01*
X42428347Y-37731396D01*
X42439432Y-37694856D01*
X42457433Y-37661179D01*
X42481659Y-37631659D01*
X42511179Y-37607433D01*
X42544856Y-37589432D01*
X42581396Y-37578347D01*
X42625538Y-37574000D01*
X43574462Y-37574000D01*
X43618604Y-37578347D01*
X43618604Y-37578347D01*
G37*
G36*
X22408600Y-37602989D02*
G01*
X22441652Y-37613015D01*
X22472103Y-37629292D01*
X22498799Y-37651201D01*
X22520708Y-37677897D01*
X22536985Y-37708348D01*
X22547011Y-37741400D01*
X22551000Y-37781903D01*
X22551000Y-39218097D01*
X22547011Y-39258600D01*
X22536985Y-39291652D01*
X22520708Y-39322103D01*
X22498799Y-39348799D01*
X22472103Y-39370708D01*
X22441652Y-39386985D01*
X22408600Y-39397011D01*
X22368097Y-39401000D01*
X20631903Y-39401000D01*
X20591400Y-39397011D01*
X20558348Y-39386985D01*
X20527897Y-39370708D01*
X20501201Y-39348799D01*
X20479292Y-39322103D01*
X20463015Y-39291652D01*
X20452989Y-39258600D01*
X20449000Y-39218097D01*
X20449000Y-37781903D01*
X20452989Y-37741400D01*
X20463015Y-37708348D01*
X20479292Y-37677897D01*
X20501201Y-37651201D01*
X20527897Y-37629292D01*
X20558348Y-37613015D01*
X20591400Y-37602989D01*
X20631903Y-37599000D01*
X22368097Y-37599000D01*
X22408600Y-37602989D01*
X22408600Y-37602989D01*
G37*
G36*
X37006553Y-36127934D02*
G01*
X37028164Y-36139485D01*
X37051613Y-36146598D01*
X37075999Y-36149000D01*
X37824001Y-36149000D01*
X37848387Y-36146598D01*
X37871836Y-36139485D01*
X37893447Y-36127934D01*
X37898241Y-36124000D01*
X38751000Y-36124000D01*
X38751000Y-38076000D01*
X37898241Y-38076000D01*
X37893447Y-38072066D01*
X37871836Y-38060515D01*
X37848387Y-38053402D01*
X37824001Y-38051000D01*
X37075999Y-38051000D01*
X37051613Y-38053402D01*
X37028164Y-38060515D01*
X37006553Y-38072066D01*
X37001759Y-38076000D01*
X36149000Y-38076000D01*
X36149000Y-36124000D01*
X37001759Y-36124000D01*
X37006553Y-36127934D01*
X37006553Y-36127934D01*
G37*
G36*
X34169271Y-35760103D02*
G01*
X34225635Y-35765654D01*
X34442600Y-35831470D01*
X34442602Y-35831471D01*
X34642555Y-35938347D01*
X34817818Y-36082182D01*
X34961653Y-36257445D01*
X35053350Y-36429000D01*
X35068530Y-36457400D01*
X35134346Y-36674365D01*
X35156569Y-36900000D01*
X35134346Y-37125635D01*
X35073675Y-37325640D01*
X35068529Y-37342602D01*
X34961653Y-37542555D01*
X34817818Y-37717818D01*
X34642555Y-37861653D01*
X34442602Y-37968529D01*
X34442600Y-37968530D01*
X34225635Y-38034346D01*
X34169271Y-38039897D01*
X34056545Y-38051000D01*
X31943455Y-38051000D01*
X31830729Y-38039897D01*
X31774365Y-38034346D01*
X31557400Y-37968530D01*
X31557398Y-37968529D01*
X31357445Y-37861653D01*
X31182182Y-37717818D01*
X31038347Y-37542555D01*
X30931471Y-37342602D01*
X30926326Y-37325640D01*
X30865654Y-37125635D01*
X30843431Y-36900000D01*
X30865654Y-36674365D01*
X30931470Y-36457400D01*
X30946650Y-36429000D01*
X31038347Y-36257445D01*
X31182182Y-36082182D01*
X31357445Y-35938347D01*
X31557398Y-35831471D01*
X31557400Y-35831470D01*
X31774365Y-35765654D01*
X31830729Y-35760103D01*
X31943455Y-35749000D01*
X34056545Y-35749000D01*
X34169271Y-35760103D01*
X34169271Y-35760103D01*
G37*
G36*
X58171938Y-37211716D02*
G01*
X58192557Y-37217971D01*
X58211553Y-37228124D01*
X58228208Y-37241792D01*
X58241876Y-37258447D01*
X58252029Y-37277443D01*
X58258284Y-37298062D01*
X58261000Y-37325640D01*
X58261000Y-37784360D01*
X58258284Y-37811938D01*
X58252029Y-37832557D01*
X58241876Y-37851553D01*
X58228208Y-37868208D01*
X58211553Y-37881876D01*
X58192557Y-37892029D01*
X58171938Y-37898284D01*
X58144360Y-37901000D01*
X57635640Y-37901000D01*
X57608062Y-37898284D01*
X57587443Y-37892029D01*
X57568447Y-37881876D01*
X57551792Y-37868208D01*
X57538124Y-37851553D01*
X57527971Y-37832557D01*
X57521716Y-37811938D01*
X57519000Y-37784360D01*
X57519000Y-37325640D01*
X57521716Y-37298062D01*
X57527971Y-37277443D01*
X57538124Y-37258447D01*
X57551792Y-37241792D01*
X57568447Y-37228124D01*
X57587443Y-37217971D01*
X57608062Y-37211716D01*
X57635640Y-37209000D01*
X58144360Y-37209000D01*
X58171938Y-37211716D01*
X58171938Y-37211716D01*
G37*
G36*
X56821938Y-37211716D02*
G01*
X56842557Y-37217971D01*
X56861553Y-37228124D01*
X56878208Y-37241792D01*
X56891876Y-37258447D01*
X56902029Y-37277443D01*
X56908284Y-37298062D01*
X56911000Y-37325640D01*
X56911000Y-37784360D01*
X56908284Y-37811938D01*
X56902029Y-37832557D01*
X56891876Y-37851553D01*
X56878208Y-37868208D01*
X56861553Y-37881876D01*
X56842557Y-37892029D01*
X56821938Y-37898284D01*
X56794360Y-37901000D01*
X56285640Y-37901000D01*
X56258062Y-37898284D01*
X56237443Y-37892029D01*
X56218447Y-37881876D01*
X56201792Y-37868208D01*
X56188124Y-37851553D01*
X56177971Y-37832557D01*
X56171716Y-37811938D01*
X56169000Y-37784360D01*
X56169000Y-37325640D01*
X56171716Y-37298062D01*
X56177971Y-37277443D01*
X56188124Y-37258447D01*
X56201792Y-37241792D01*
X56218447Y-37228124D01*
X56237443Y-37217971D01*
X56258062Y-37211716D01*
X56285640Y-37209000D01*
X56794360Y-37209000D01*
X56821938Y-37211716D01*
X56821938Y-37211716D01*
G37*
G36*
X61470443Y-35525519D02*
G01*
X61536627Y-35532037D01*
X61706466Y-35583557D01*
X61862991Y-35667222D01*
X61898729Y-35696552D01*
X62000186Y-35779814D01*
X62083448Y-35881271D01*
X62112778Y-35917009D01*
X62112779Y-35917011D01*
X62185231Y-36052557D01*
X62196443Y-36073534D01*
X62247963Y-36243373D01*
X62265359Y-36420000D01*
X62247963Y-36596627D01*
X62196443Y-36766466D01*
X62112778Y-36922991D01*
X62108933Y-36927676D01*
X62000186Y-37060186D01*
X61900684Y-37141844D01*
X61862991Y-37172778D01*
X61862989Y-37172779D01*
X61778442Y-37217971D01*
X61706466Y-37256443D01*
X61536627Y-37307963D01*
X61470442Y-37314482D01*
X61404260Y-37321000D01*
X61315740Y-37321000D01*
X61249558Y-37314482D01*
X61183373Y-37307963D01*
X61013534Y-37256443D01*
X60941559Y-37217971D01*
X60857011Y-37172779D01*
X60857009Y-37172778D01*
X60819316Y-37141844D01*
X60719814Y-37060186D01*
X60611067Y-36927676D01*
X60607222Y-36922991D01*
X60523557Y-36766466D01*
X60472037Y-36596627D01*
X60454641Y-36420000D01*
X60472037Y-36243373D01*
X60523557Y-36073534D01*
X60534770Y-36052557D01*
X60607221Y-35917011D01*
X60607222Y-35917009D01*
X60636552Y-35881271D01*
X60719814Y-35779814D01*
X60821271Y-35696552D01*
X60857009Y-35667222D01*
X61013534Y-35583557D01*
X61183373Y-35532037D01*
X61249557Y-35525519D01*
X61315740Y-35519000D01*
X61404260Y-35519000D01*
X61470443Y-35525519D01*
X61470443Y-35525519D01*
G37*
G36*
X64010443Y-35525519D02*
G01*
X64076627Y-35532037D01*
X64246466Y-35583557D01*
X64402991Y-35667222D01*
X64438729Y-35696552D01*
X64540186Y-35779814D01*
X64623448Y-35881271D01*
X64652778Y-35917009D01*
X64652779Y-35917011D01*
X64725231Y-36052557D01*
X64736443Y-36073534D01*
X64787963Y-36243373D01*
X64805359Y-36420000D01*
X64787963Y-36596627D01*
X64736443Y-36766466D01*
X64652778Y-36922991D01*
X64648933Y-36927676D01*
X64540186Y-37060186D01*
X64440684Y-37141844D01*
X64402991Y-37172778D01*
X64402989Y-37172779D01*
X64318442Y-37217971D01*
X64246466Y-37256443D01*
X64076627Y-37307963D01*
X64010442Y-37314482D01*
X63944260Y-37321000D01*
X63855740Y-37321000D01*
X63789558Y-37314482D01*
X63723373Y-37307963D01*
X63553534Y-37256443D01*
X63481559Y-37217971D01*
X63397011Y-37172779D01*
X63397009Y-37172778D01*
X63359316Y-37141844D01*
X63259814Y-37060186D01*
X63151067Y-36927676D01*
X63147222Y-36922991D01*
X63063557Y-36766466D01*
X63012037Y-36596627D01*
X62994641Y-36420000D01*
X63012037Y-36243373D01*
X63063557Y-36073534D01*
X63074770Y-36052557D01*
X63147221Y-35917011D01*
X63147222Y-35917009D01*
X63176552Y-35881271D01*
X63259814Y-35779814D01*
X63361271Y-35696552D01*
X63397009Y-35667222D01*
X63553534Y-35583557D01*
X63723373Y-35532037D01*
X63789557Y-35525519D01*
X63855740Y-35519000D01*
X63944260Y-35519000D01*
X64010443Y-35525519D01*
X64010443Y-35525519D01*
G37*
G36*
X40241938Y-36431716D02*
G01*
X40262557Y-36437971D01*
X40281553Y-36448124D01*
X40298208Y-36461792D01*
X40311876Y-36478447D01*
X40322029Y-36497443D01*
X40328284Y-36518062D01*
X40331000Y-36545640D01*
X40331000Y-37054360D01*
X40328284Y-37081938D01*
X40322029Y-37102557D01*
X40311876Y-37121553D01*
X40298208Y-37138208D01*
X40281553Y-37151876D01*
X40262557Y-37162029D01*
X40241938Y-37168284D01*
X40214360Y-37171000D01*
X39755640Y-37171000D01*
X39728062Y-37168284D01*
X39707443Y-37162029D01*
X39688447Y-37151876D01*
X39671792Y-37138208D01*
X39658124Y-37121553D01*
X39647971Y-37102557D01*
X39641716Y-37081938D01*
X39639000Y-37054360D01*
X39639000Y-36545640D01*
X39641716Y-36518062D01*
X39647971Y-36497443D01*
X39658124Y-36478447D01*
X39671792Y-36461792D01*
X39688447Y-36448124D01*
X39707443Y-36437971D01*
X39728062Y-36431716D01*
X39755640Y-36429000D01*
X40214360Y-36429000D01*
X40241938Y-36431716D01*
X40241938Y-36431716D01*
G37*
G36*
X41211938Y-36431716D02*
G01*
X41232557Y-36437971D01*
X41251553Y-36448124D01*
X41268208Y-36461792D01*
X41281876Y-36478447D01*
X41292029Y-36497443D01*
X41298284Y-36518062D01*
X41301000Y-36545640D01*
X41301000Y-37054360D01*
X41298284Y-37081938D01*
X41292029Y-37102557D01*
X41281876Y-37121553D01*
X41268208Y-37138208D01*
X41251553Y-37151876D01*
X41232557Y-37162029D01*
X41211938Y-37168284D01*
X41184360Y-37171000D01*
X40725640Y-37171000D01*
X40698062Y-37168284D01*
X40677443Y-37162029D01*
X40658447Y-37151876D01*
X40641792Y-37138208D01*
X40628124Y-37121553D01*
X40617971Y-37102557D01*
X40611716Y-37081938D01*
X40609000Y-37054360D01*
X40609000Y-36545640D01*
X40611716Y-36518062D01*
X40617971Y-36497443D01*
X40628124Y-36478447D01*
X40641792Y-36461792D01*
X40658447Y-36448124D01*
X40677443Y-36437971D01*
X40698062Y-36431716D01*
X40725640Y-36429000D01*
X41184360Y-36429000D01*
X41211938Y-36431716D01*
X41211938Y-36431716D01*
G37*
G36*
X58171938Y-36241716D02*
G01*
X58192557Y-36247971D01*
X58211553Y-36258124D01*
X58228208Y-36271792D01*
X58241876Y-36288447D01*
X58252029Y-36307443D01*
X58258284Y-36328062D01*
X58261000Y-36355640D01*
X58261000Y-36814360D01*
X58258284Y-36841938D01*
X58252029Y-36862557D01*
X58241876Y-36881553D01*
X58228208Y-36898208D01*
X58211553Y-36911876D01*
X58192557Y-36922029D01*
X58171938Y-36928284D01*
X58144360Y-36931000D01*
X57635640Y-36931000D01*
X57608062Y-36928284D01*
X57587443Y-36922029D01*
X57568447Y-36911876D01*
X57551792Y-36898208D01*
X57538124Y-36881553D01*
X57527971Y-36862557D01*
X57521716Y-36841938D01*
X57519000Y-36814360D01*
X57519000Y-36355640D01*
X57521716Y-36328062D01*
X57527971Y-36307443D01*
X57538124Y-36288447D01*
X57551792Y-36271792D01*
X57568447Y-36258124D01*
X57587443Y-36247971D01*
X57608062Y-36241716D01*
X57635640Y-36239000D01*
X58144360Y-36239000D01*
X58171938Y-36241716D01*
X58171938Y-36241716D01*
G37*
G36*
X56821938Y-36241716D02*
G01*
X56842557Y-36247971D01*
X56861553Y-36258124D01*
X56878208Y-36271792D01*
X56891876Y-36288447D01*
X56902029Y-36307443D01*
X56908284Y-36328062D01*
X56911000Y-36355640D01*
X56911000Y-36814360D01*
X56908284Y-36841938D01*
X56902029Y-36862557D01*
X56891876Y-36881553D01*
X56878208Y-36898208D01*
X56861553Y-36911876D01*
X56842557Y-36922029D01*
X56821938Y-36928284D01*
X56794360Y-36931000D01*
X56285640Y-36931000D01*
X56258062Y-36928284D01*
X56237443Y-36922029D01*
X56218447Y-36911876D01*
X56201792Y-36898208D01*
X56188124Y-36881553D01*
X56177971Y-36862557D01*
X56171716Y-36841938D01*
X56169000Y-36814360D01*
X56169000Y-36355640D01*
X56171716Y-36328062D01*
X56177971Y-36307443D01*
X56188124Y-36288447D01*
X56201792Y-36271792D01*
X56218447Y-36258124D01*
X56237443Y-36247971D01*
X56258062Y-36241716D01*
X56285640Y-36239000D01*
X56794360Y-36239000D01*
X56821938Y-36241716D01*
X56821938Y-36241716D01*
G37*
G36*
X21760442Y-35105518D02*
G01*
X21826627Y-35112037D01*
X21996466Y-35163557D01*
X22152991Y-35247222D01*
X22188729Y-35276552D01*
X22290186Y-35359814D01*
X22362100Y-35447443D01*
X22402778Y-35497009D01*
X22486443Y-35653534D01*
X22537963Y-35823373D01*
X22555359Y-36000000D01*
X22537963Y-36176627D01*
X22486443Y-36346466D01*
X22402778Y-36502991D01*
X22400402Y-36505886D01*
X22290186Y-36640186D01*
X22188729Y-36723448D01*
X22152991Y-36752778D01*
X21996466Y-36836443D01*
X21826627Y-36887963D01*
X21760443Y-36894481D01*
X21694260Y-36901000D01*
X21305740Y-36901000D01*
X21239557Y-36894481D01*
X21173373Y-36887963D01*
X21003534Y-36836443D01*
X20847009Y-36752778D01*
X20811271Y-36723448D01*
X20709814Y-36640186D01*
X20599598Y-36505886D01*
X20597222Y-36502991D01*
X20513557Y-36346466D01*
X20462037Y-36176627D01*
X20444641Y-36000000D01*
X20462037Y-35823373D01*
X20513557Y-35653534D01*
X20597222Y-35497009D01*
X20637900Y-35447443D01*
X20709814Y-35359814D01*
X20811271Y-35276552D01*
X20847009Y-35247222D01*
X21003534Y-35163557D01*
X21173373Y-35112037D01*
X21239558Y-35105518D01*
X21305740Y-35099000D01*
X21694260Y-35099000D01*
X21760442Y-35105518D01*
X21760442Y-35105518D01*
G37*
G36*
X40241938Y-35381716D02*
G01*
X40262557Y-35387971D01*
X40281553Y-35398124D01*
X40298208Y-35411792D01*
X40311876Y-35428447D01*
X40322029Y-35447443D01*
X40328284Y-35468062D01*
X40331000Y-35495640D01*
X40331000Y-36004360D01*
X40328284Y-36031938D01*
X40322029Y-36052557D01*
X40311876Y-36071553D01*
X40298208Y-36088208D01*
X40281553Y-36101876D01*
X40262557Y-36112029D01*
X40241938Y-36118284D01*
X40214360Y-36121000D01*
X39755640Y-36121000D01*
X39728062Y-36118284D01*
X39707443Y-36112029D01*
X39688447Y-36101876D01*
X39671792Y-36088208D01*
X39658124Y-36071553D01*
X39647971Y-36052557D01*
X39641716Y-36031938D01*
X39639000Y-36004360D01*
X39639000Y-35495640D01*
X39641716Y-35468062D01*
X39647971Y-35447443D01*
X39658124Y-35428447D01*
X39671792Y-35411792D01*
X39688447Y-35398124D01*
X39707443Y-35387971D01*
X39728062Y-35381716D01*
X39755640Y-35379000D01*
X40214360Y-35379000D01*
X40241938Y-35381716D01*
X40241938Y-35381716D01*
G37*
G36*
X41211938Y-35381716D02*
G01*
X41232557Y-35387971D01*
X41251553Y-35398124D01*
X41268208Y-35411792D01*
X41281876Y-35428447D01*
X41292029Y-35447443D01*
X41298284Y-35468062D01*
X41301000Y-35495640D01*
X41301000Y-36004360D01*
X41298284Y-36031938D01*
X41292029Y-36052557D01*
X41281876Y-36071553D01*
X41268208Y-36088208D01*
X41251553Y-36101876D01*
X41232557Y-36112029D01*
X41211938Y-36118284D01*
X41184360Y-36121000D01*
X40725640Y-36121000D01*
X40698062Y-36118284D01*
X40677443Y-36112029D01*
X40658447Y-36101876D01*
X40641792Y-36088208D01*
X40628124Y-36071553D01*
X40617971Y-36052557D01*
X40611716Y-36031938D01*
X40609000Y-36004360D01*
X40609000Y-35495640D01*
X40611716Y-35468062D01*
X40617971Y-35447443D01*
X40628124Y-35428447D01*
X40641792Y-35411792D01*
X40658447Y-35398124D01*
X40677443Y-35387971D01*
X40698062Y-35381716D01*
X40725640Y-35379000D01*
X41184360Y-35379000D01*
X41211938Y-35381716D01*
X41211938Y-35381716D01*
G37*
G36*
X31081000Y-35551000D02*
G01*
X29979000Y-35551000D01*
X29979000Y-33649000D01*
X31081000Y-33649000D01*
X31081000Y-35551000D01*
X31081000Y-35551000D01*
G37*
G36*
X28581000Y-35551000D02*
G01*
X27479000Y-35551000D01*
X27479000Y-33649000D01*
X28581000Y-33649000D01*
X28581000Y-35551000D01*
X28581000Y-35551000D01*
G37*
G36*
X38771938Y-34691716D02*
G01*
X38792557Y-34697971D01*
X38811553Y-34708124D01*
X38828208Y-34721792D01*
X38841876Y-34738447D01*
X38852029Y-34757443D01*
X38858284Y-34778062D01*
X38861000Y-34805640D01*
X38861000Y-35314360D01*
X38858284Y-35341938D01*
X38852029Y-35362557D01*
X38841876Y-35381553D01*
X38828208Y-35398208D01*
X38811553Y-35411876D01*
X38792557Y-35422029D01*
X38771938Y-35428284D01*
X38744360Y-35431000D01*
X38285640Y-35431000D01*
X38258062Y-35428284D01*
X38237443Y-35422029D01*
X38218447Y-35411876D01*
X38201792Y-35398208D01*
X38188124Y-35381553D01*
X38177971Y-35362557D01*
X38171716Y-35341938D01*
X38169000Y-35314360D01*
X38169000Y-34805640D01*
X38171716Y-34778062D01*
X38177971Y-34757443D01*
X38188124Y-34738447D01*
X38201792Y-34721792D01*
X38218447Y-34708124D01*
X38237443Y-34697971D01*
X38258062Y-34691716D01*
X38285640Y-34689000D01*
X38744360Y-34689000D01*
X38771938Y-34691716D01*
X38771938Y-34691716D01*
G37*
G36*
X37801938Y-34691716D02*
G01*
X37822557Y-34697971D01*
X37841553Y-34708124D01*
X37858208Y-34721792D01*
X37871876Y-34738447D01*
X37882029Y-34757443D01*
X37888284Y-34778062D01*
X37891000Y-34805640D01*
X37891000Y-35314360D01*
X37888284Y-35341938D01*
X37882029Y-35362557D01*
X37871876Y-35381553D01*
X37858208Y-35398208D01*
X37841553Y-35411876D01*
X37822557Y-35422029D01*
X37801938Y-35428284D01*
X37774360Y-35431000D01*
X37315640Y-35431000D01*
X37288062Y-35428284D01*
X37267443Y-35422029D01*
X37248447Y-35411876D01*
X37231792Y-35398208D01*
X37218124Y-35381553D01*
X37207971Y-35362557D01*
X37201716Y-35341938D01*
X37199000Y-35314360D01*
X37199000Y-34805640D01*
X37201716Y-34778062D01*
X37207971Y-34757443D01*
X37218124Y-34738447D01*
X37231792Y-34721792D01*
X37248447Y-34708124D01*
X37267443Y-34697971D01*
X37288062Y-34691716D01*
X37315640Y-34689000D01*
X37774360Y-34689000D01*
X37801938Y-34691716D01*
X37801938Y-34691716D01*
G37*
G36*
X40241938Y-34331716D02*
G01*
X40262557Y-34337971D01*
X40281553Y-34348124D01*
X40298208Y-34361792D01*
X40311876Y-34378447D01*
X40322029Y-34397443D01*
X40328284Y-34418062D01*
X40331000Y-34445640D01*
X40331000Y-34954360D01*
X40328284Y-34981938D01*
X40322029Y-35002557D01*
X40311876Y-35021553D01*
X40298208Y-35038208D01*
X40281553Y-35051876D01*
X40262557Y-35062029D01*
X40241938Y-35068284D01*
X40214360Y-35071000D01*
X39755640Y-35071000D01*
X39728062Y-35068284D01*
X39707443Y-35062029D01*
X39688447Y-35051876D01*
X39671792Y-35038208D01*
X39658124Y-35021553D01*
X39647971Y-35002557D01*
X39641716Y-34981938D01*
X39639000Y-34954360D01*
X39639000Y-34445640D01*
X39641716Y-34418062D01*
X39647971Y-34397443D01*
X39658124Y-34378447D01*
X39671792Y-34361792D01*
X39688447Y-34348124D01*
X39707443Y-34337971D01*
X39728062Y-34331716D01*
X39755640Y-34329000D01*
X40214360Y-34329000D01*
X40241938Y-34331716D01*
X40241938Y-34331716D01*
G37*
G36*
X41211938Y-34331716D02*
G01*
X41232557Y-34337971D01*
X41251553Y-34348124D01*
X41268208Y-34361792D01*
X41281876Y-34378447D01*
X41292029Y-34397443D01*
X41298284Y-34418062D01*
X41301000Y-34445640D01*
X41301000Y-34954360D01*
X41298284Y-34981938D01*
X41292029Y-35002557D01*
X41281876Y-35021553D01*
X41268208Y-35038208D01*
X41251553Y-35051876D01*
X41232557Y-35062029D01*
X41211938Y-35068284D01*
X41184360Y-35071000D01*
X40725640Y-35071000D01*
X40698062Y-35068284D01*
X40677443Y-35062029D01*
X40658447Y-35051876D01*
X40641792Y-35038208D01*
X40628124Y-35021553D01*
X40617971Y-35002557D01*
X40611716Y-34981938D01*
X40609000Y-34954360D01*
X40609000Y-34445640D01*
X40611716Y-34418062D01*
X40617971Y-34397443D01*
X40628124Y-34378447D01*
X40641792Y-34361792D01*
X40658447Y-34348124D01*
X40677443Y-34337971D01*
X40698062Y-34331716D01*
X40725640Y-34329000D01*
X41184360Y-34329000D01*
X41211938Y-34331716D01*
X41211938Y-34331716D01*
G37*
G36*
X40241938Y-33281716D02*
G01*
X40262557Y-33287971D01*
X40281553Y-33298124D01*
X40298208Y-33311792D01*
X40311876Y-33328447D01*
X40322029Y-33347443D01*
X40328284Y-33368062D01*
X40331000Y-33395640D01*
X40331000Y-33904360D01*
X40328284Y-33931938D01*
X40322029Y-33952557D01*
X40311876Y-33971553D01*
X40298208Y-33988208D01*
X40281553Y-34001876D01*
X40262557Y-34012029D01*
X40241938Y-34018284D01*
X40214360Y-34021000D01*
X39755640Y-34021000D01*
X39728062Y-34018284D01*
X39707443Y-34012029D01*
X39688447Y-34001876D01*
X39671792Y-33988208D01*
X39658124Y-33971553D01*
X39647971Y-33952557D01*
X39641716Y-33931938D01*
X39639000Y-33904360D01*
X39639000Y-33395640D01*
X39641716Y-33368062D01*
X39647971Y-33347443D01*
X39658124Y-33328447D01*
X39671792Y-33311792D01*
X39688447Y-33298124D01*
X39707443Y-33287971D01*
X39728062Y-33281716D01*
X39755640Y-33279000D01*
X40214360Y-33279000D01*
X40241938Y-33281716D01*
X40241938Y-33281716D01*
G37*
G36*
X41211938Y-33281716D02*
G01*
X41232557Y-33287971D01*
X41251553Y-33298124D01*
X41268208Y-33311792D01*
X41281876Y-33328447D01*
X41292029Y-33347443D01*
X41298284Y-33368062D01*
X41301000Y-33395640D01*
X41301000Y-33904360D01*
X41298284Y-33931938D01*
X41292029Y-33952557D01*
X41281876Y-33971553D01*
X41268208Y-33988208D01*
X41251553Y-34001876D01*
X41232557Y-34012029D01*
X41211938Y-34018284D01*
X41184360Y-34021000D01*
X40725640Y-34021000D01*
X40698062Y-34018284D01*
X40677443Y-34012029D01*
X40658447Y-34001876D01*
X40641792Y-33988208D01*
X40628124Y-33971553D01*
X40617971Y-33952557D01*
X40611716Y-33931938D01*
X40609000Y-33904360D01*
X40609000Y-33395640D01*
X40611716Y-33368062D01*
X40617971Y-33347443D01*
X40628124Y-33328447D01*
X40641792Y-33311792D01*
X40658447Y-33298124D01*
X40677443Y-33287971D01*
X40698062Y-33281716D01*
X40725640Y-33279000D01*
X41184360Y-33279000D01*
X41211938Y-33281716D01*
X41211938Y-33281716D01*
G37*
G36*
X37733642Y-31829781D02*
G01*
X37847650Y-31877005D01*
X37879416Y-31890163D01*
X38010608Y-31977822D01*
X38122178Y-32089392D01*
X38137068Y-32111677D01*
X38209838Y-32220586D01*
X38270219Y-32366358D01*
X38301000Y-32521107D01*
X38301000Y-32678893D01*
X38270219Y-32833642D01*
X38218778Y-32957831D01*
X38209837Y-32979416D01*
X38122178Y-33110608D01*
X38010608Y-33222178D01*
X37879416Y-33309837D01*
X37879415Y-33309838D01*
X37879414Y-33309838D01*
X37733642Y-33370219D01*
X37578893Y-33401000D01*
X37421107Y-33401000D01*
X37266358Y-33370219D01*
X37120586Y-33309838D01*
X37120585Y-33309838D01*
X37120584Y-33309837D01*
X36989392Y-33222178D01*
X36877822Y-33110608D01*
X36790163Y-32979416D01*
X36781222Y-32957831D01*
X36729781Y-32833642D01*
X36699000Y-32678893D01*
X36699000Y-32521107D01*
X36729781Y-32366358D01*
X36790162Y-32220586D01*
X36862932Y-32111677D01*
X36877822Y-32089392D01*
X36989392Y-31977822D01*
X37120584Y-31890163D01*
X37152350Y-31877005D01*
X37266358Y-31829781D01*
X37421107Y-31799000D01*
X37578893Y-31799000D01*
X37733642Y-31829781D01*
X37733642Y-31829781D01*
G37*
G36*
X66301000Y-33101000D02*
G01*
X55499000Y-33101000D01*
X55499000Y-31399000D01*
X66301000Y-31399000D01*
X66301000Y-33101000D01*
X66301000Y-33101000D01*
G37*
G36*
X40241938Y-32231716D02*
G01*
X40262557Y-32237971D01*
X40281553Y-32248124D01*
X40298208Y-32261792D01*
X40311876Y-32278447D01*
X40322029Y-32297443D01*
X40328284Y-32318062D01*
X40331000Y-32345640D01*
X40331000Y-32854360D01*
X40328284Y-32881938D01*
X40322029Y-32902557D01*
X40311876Y-32921553D01*
X40298208Y-32938208D01*
X40281553Y-32951876D01*
X40262557Y-32962029D01*
X40241938Y-32968284D01*
X40214360Y-32971000D01*
X39755640Y-32971000D01*
X39728062Y-32968284D01*
X39707443Y-32962029D01*
X39688447Y-32951876D01*
X39671792Y-32938208D01*
X39658124Y-32921553D01*
X39647971Y-32902557D01*
X39641716Y-32881938D01*
X39639000Y-32854360D01*
X39639000Y-32345640D01*
X39641716Y-32318062D01*
X39647971Y-32297443D01*
X39658124Y-32278447D01*
X39671792Y-32261792D01*
X39688447Y-32248124D01*
X39707443Y-32237971D01*
X39728062Y-32231716D01*
X39755640Y-32229000D01*
X40214360Y-32229000D01*
X40241938Y-32231716D01*
X40241938Y-32231716D01*
G37*
G36*
X41211938Y-32231716D02*
G01*
X41232557Y-32237971D01*
X41251553Y-32248124D01*
X41268208Y-32261792D01*
X41281876Y-32278447D01*
X41292029Y-32297443D01*
X41298284Y-32318062D01*
X41301000Y-32345640D01*
X41301000Y-32854360D01*
X41298284Y-32881938D01*
X41292029Y-32902557D01*
X41281876Y-32921553D01*
X41268208Y-32938208D01*
X41251553Y-32951876D01*
X41232557Y-32962029D01*
X41211938Y-32968284D01*
X41184360Y-32971000D01*
X40725640Y-32971000D01*
X40698062Y-32968284D01*
X40677443Y-32962029D01*
X40658447Y-32951876D01*
X40641792Y-32938208D01*
X40628124Y-32921553D01*
X40617971Y-32902557D01*
X40611716Y-32881938D01*
X40609000Y-32854360D01*
X40609000Y-32345640D01*
X40611716Y-32318062D01*
X40617971Y-32297443D01*
X40628124Y-32278447D01*
X40641792Y-32261792D01*
X40658447Y-32248124D01*
X40677443Y-32237971D01*
X40698062Y-32231716D01*
X40725640Y-32229000D01*
X41184360Y-32229000D01*
X41211938Y-32231716D01*
X41211938Y-32231716D01*
G37*
G36*
X30174928Y-30901764D02*
G01*
X30196009Y-30908160D01*
X30215445Y-30918548D01*
X30232476Y-30932524D01*
X30246452Y-30949555D01*
X30256840Y-30968991D01*
X30263236Y-30990072D01*
X30266000Y-31018140D01*
X30266000Y-32831860D01*
X30263236Y-32859928D01*
X30256840Y-32881009D01*
X30246452Y-32900445D01*
X30232476Y-32917476D01*
X30215445Y-32931452D01*
X30196009Y-32941840D01*
X30174928Y-32948236D01*
X30146860Y-32951000D01*
X29683140Y-32951000D01*
X29655072Y-32948236D01*
X29633991Y-32941840D01*
X29614555Y-32931452D01*
X29597524Y-32917476D01*
X29583548Y-32900445D01*
X29573160Y-32881009D01*
X29566764Y-32859928D01*
X29564000Y-32831860D01*
X29564000Y-31018140D01*
X29566764Y-30990072D01*
X29573160Y-30968991D01*
X29583548Y-30949555D01*
X29597524Y-30932524D01*
X29614555Y-30918548D01*
X29633991Y-30908160D01*
X29655072Y-30901764D01*
X29683140Y-30899000D01*
X30146860Y-30899000D01*
X30174928Y-30901764D01*
X30174928Y-30901764D01*
G37*
G36*
X28904928Y-30901764D02*
G01*
X28926009Y-30908160D01*
X28945445Y-30918548D01*
X28962476Y-30932524D01*
X28976452Y-30949555D01*
X28986840Y-30968991D01*
X28993236Y-30990072D01*
X28996000Y-31018140D01*
X28996000Y-32831860D01*
X28993236Y-32859928D01*
X28986840Y-32881009D01*
X28976452Y-32900445D01*
X28962476Y-32917476D01*
X28945445Y-32931452D01*
X28926009Y-32941840D01*
X28904928Y-32948236D01*
X28876860Y-32951000D01*
X28413140Y-32951000D01*
X28385072Y-32948236D01*
X28363991Y-32941840D01*
X28344555Y-32931452D01*
X28327524Y-32917476D01*
X28313548Y-32900445D01*
X28303160Y-32881009D01*
X28296764Y-32859928D01*
X28294000Y-32831860D01*
X28294000Y-31018140D01*
X28296764Y-30990072D01*
X28303160Y-30968991D01*
X28313548Y-30949555D01*
X28327524Y-30932524D01*
X28344555Y-30918548D01*
X28363991Y-30908160D01*
X28385072Y-30901764D01*
X28413140Y-30899000D01*
X28876860Y-30899000D01*
X28904928Y-30901764D01*
X28904928Y-30901764D01*
G37*
G36*
X32714928Y-30901764D02*
G01*
X32736009Y-30908160D01*
X32755445Y-30918548D01*
X32772476Y-30932524D01*
X32786452Y-30949555D01*
X32796840Y-30968991D01*
X32803236Y-30990072D01*
X32806000Y-31018140D01*
X32806000Y-32831860D01*
X32803236Y-32859928D01*
X32796840Y-32881009D01*
X32786452Y-32900445D01*
X32772476Y-32917476D01*
X32755445Y-32931452D01*
X32736009Y-32941840D01*
X32714928Y-32948236D01*
X32686860Y-32951000D01*
X32223140Y-32951000D01*
X32195072Y-32948236D01*
X32173991Y-32941840D01*
X32154555Y-32931452D01*
X32137524Y-32917476D01*
X32123548Y-32900445D01*
X32113160Y-32881009D01*
X32106764Y-32859928D01*
X32104000Y-32831860D01*
X32104000Y-31018140D01*
X32106764Y-30990072D01*
X32113160Y-30968991D01*
X32123548Y-30949555D01*
X32137524Y-30932524D01*
X32154555Y-30918548D01*
X32173991Y-30908160D01*
X32195072Y-30901764D01*
X32223140Y-30899000D01*
X32686860Y-30899000D01*
X32714928Y-30901764D01*
X32714928Y-30901764D01*
G37*
G36*
X31444928Y-30901764D02*
G01*
X31466009Y-30908160D01*
X31485445Y-30918548D01*
X31502476Y-30932524D01*
X31516452Y-30949555D01*
X31526840Y-30968991D01*
X31533236Y-30990072D01*
X31536000Y-31018140D01*
X31536000Y-32831860D01*
X31533236Y-32859928D01*
X31526840Y-32881009D01*
X31516452Y-32900445D01*
X31502476Y-32917476D01*
X31485445Y-32931452D01*
X31466009Y-32941840D01*
X31444928Y-32948236D01*
X31416860Y-32951000D01*
X30953140Y-32951000D01*
X30925072Y-32948236D01*
X30903991Y-32941840D01*
X30884555Y-32931452D01*
X30867524Y-32917476D01*
X30853548Y-32900445D01*
X30843160Y-32881009D01*
X30836764Y-32859928D01*
X30834000Y-32831860D01*
X30834000Y-31018140D01*
X30836764Y-30990072D01*
X30843160Y-30968991D01*
X30853548Y-30949555D01*
X30867524Y-30932524D01*
X30884555Y-30918548D01*
X30903991Y-30908160D01*
X30925072Y-30901764D01*
X30953140Y-30899000D01*
X31416860Y-30899000D01*
X31444928Y-30901764D01*
X31444928Y-30901764D01*
G37*
G36*
X12627004Y-31111508D02*
G01*
X12749127Y-31148553D01*
X12861676Y-31208712D01*
X12960327Y-31289672D01*
X13041287Y-31388323D01*
X13101446Y-31500872D01*
X13138491Y-31622995D01*
X13151000Y-31749999D01*
X13151000Y-31750001D01*
X13138491Y-31877005D01*
X13101446Y-31999128D01*
X13041287Y-32111677D01*
X12960327Y-32210328D01*
X12861676Y-32291288D01*
X12749127Y-32351447D01*
X12627004Y-32388492D01*
X12500000Y-32401001D01*
X11700000Y-32401001D01*
X11572996Y-32388492D01*
X11450873Y-32351447D01*
X11338324Y-32291288D01*
X11239673Y-32210328D01*
X11158713Y-32111677D01*
X11098554Y-31999128D01*
X11061509Y-31877005D01*
X11049000Y-31750001D01*
X11049000Y-31749999D01*
X11061509Y-31622995D01*
X11098554Y-31500872D01*
X11158713Y-31388323D01*
X11239673Y-31289672D01*
X11338324Y-31208712D01*
X11450873Y-31148553D01*
X11572996Y-31111508D01*
X11700000Y-31098999D01*
X12500000Y-31098999D01*
X12627004Y-31111508D01*
X12627004Y-31111508D01*
G37*
G36*
X55101000Y-32001000D02*
G01*
X53399000Y-32001000D01*
X53399000Y-22899000D01*
X55101000Y-22899000D01*
X55101000Y-32001000D01*
X55101000Y-32001000D01*
G37*
G36*
X42951000Y-31301000D02*
G01*
X42049000Y-31301000D01*
X42049000Y-30299000D01*
X42951000Y-30299000D01*
X42951000Y-31301000D01*
X42951000Y-31301000D01*
G37*
G36*
X39351000Y-31301000D02*
G01*
X38449000Y-31301000D01*
X38449000Y-30299000D01*
X39351000Y-30299000D01*
X39351000Y-31301000D01*
X39351000Y-31301000D01*
G37*
G36*
X65551000Y-31051000D02*
G01*
X64949000Y-31051000D01*
X64949000Y-29749000D01*
X65551000Y-29749000D01*
X65551000Y-31051000D01*
X65551000Y-31051000D01*
G37*
G36*
X64151000Y-31051000D02*
G01*
X63549000Y-31051000D01*
X63549000Y-29749000D01*
X64151000Y-29749000D01*
X64151000Y-31051000D01*
X64151000Y-31051000D01*
G37*
G36*
X23051000Y-30851000D02*
G01*
X21749000Y-30851000D01*
X21749000Y-29049000D01*
X23051000Y-29049000D01*
X23051000Y-30851000D01*
X23051000Y-30851000D01*
G37*
G36*
X25041938Y-28881716D02*
G01*
X25062557Y-28887971D01*
X25081553Y-28898124D01*
X25098208Y-28911792D01*
X25111876Y-28928447D01*
X25122029Y-28947443D01*
X25128284Y-28968062D01*
X25131000Y-28995640D01*
X25131000Y-29504360D01*
X25128284Y-29531938D01*
X25122029Y-29552557D01*
X25111876Y-29571553D01*
X25098208Y-29588208D01*
X25081553Y-29601876D01*
X25062557Y-29612029D01*
X25041938Y-29618284D01*
X25014360Y-29621000D01*
X24555640Y-29621000D01*
X24528062Y-29618284D01*
X24507443Y-29612029D01*
X24488447Y-29601876D01*
X24471792Y-29588208D01*
X24458124Y-29571553D01*
X24447971Y-29552557D01*
X24441716Y-29531938D01*
X24439000Y-29504360D01*
X24439000Y-28995640D01*
X24441716Y-28968062D01*
X24447971Y-28947443D01*
X24458124Y-28928447D01*
X24471792Y-28911792D01*
X24488447Y-28898124D01*
X24507443Y-28887971D01*
X24528062Y-28881716D01*
X24555640Y-28879000D01*
X25014360Y-28879000D01*
X25041938Y-28881716D01*
X25041938Y-28881716D01*
G37*
G36*
X24071938Y-28881716D02*
G01*
X24092557Y-28887971D01*
X24111553Y-28898124D01*
X24128208Y-28911792D01*
X24141876Y-28928447D01*
X24152029Y-28947443D01*
X24158284Y-28968062D01*
X24161000Y-28995640D01*
X24161000Y-29504360D01*
X24158284Y-29531938D01*
X24152029Y-29552557D01*
X24141876Y-29571553D01*
X24128208Y-29588208D01*
X24111553Y-29601876D01*
X24092557Y-29612029D01*
X24071938Y-29618284D01*
X24044360Y-29621000D01*
X23585640Y-29621000D01*
X23558062Y-29618284D01*
X23537443Y-29612029D01*
X23518447Y-29601876D01*
X23501792Y-29588208D01*
X23488124Y-29571553D01*
X23477971Y-29552557D01*
X23471716Y-29531938D01*
X23469000Y-29504360D01*
X23469000Y-28995640D01*
X23471716Y-28968062D01*
X23477971Y-28947443D01*
X23488124Y-28928447D01*
X23501792Y-28911792D01*
X23518447Y-28898124D01*
X23537443Y-28887971D01*
X23558062Y-28881716D01*
X23585640Y-28879000D01*
X24044360Y-28879000D01*
X24071938Y-28881716D01*
X24071938Y-28881716D01*
G37*
G36*
X42001000Y-29301000D02*
G01*
X41099000Y-29301000D01*
X41099000Y-28299000D01*
X42001000Y-28299000D01*
X42001000Y-29301000D01*
X42001000Y-29301000D01*
G37*
G36*
X43901000Y-29301000D02*
G01*
X42999000Y-29301000D01*
X42999000Y-28299000D01*
X43901000Y-28299000D01*
X43901000Y-29301000D01*
X43901000Y-29301000D01*
G37*
G36*
X38401000Y-29301000D02*
G01*
X37499000Y-29301000D01*
X37499000Y-28299000D01*
X38401000Y-28299000D01*
X38401000Y-29301000D01*
X38401000Y-29301000D01*
G37*
G36*
X40301000Y-29301000D02*
G01*
X39399000Y-29301000D01*
X39399000Y-28299000D01*
X40301000Y-28299000D01*
X40301000Y-29301000D01*
X40301000Y-29301000D01*
G37*
G36*
X18324448Y-27361000D02*
G01*
X18389890Y-27374017D01*
X18508364Y-27423091D01*
X18614988Y-27494335D01*
X18705665Y-27585012D01*
X18763650Y-27671792D01*
X18776910Y-27691638D01*
X18825983Y-27810110D01*
X18851000Y-27935881D01*
X18851000Y-28064119D01*
X18825983Y-28189890D01*
X18779315Y-28302557D01*
X18776909Y-28308364D01*
X18705665Y-28414988D01*
X18614988Y-28505665D01*
X18508364Y-28576909D01*
X18508363Y-28576910D01*
X18508362Y-28576910D01*
X18389890Y-28625983D01*
X18264119Y-28651000D01*
X18135881Y-28651000D01*
X18010110Y-28625983D01*
X17891638Y-28576910D01*
X17891637Y-28576910D01*
X17891636Y-28576909D01*
X17785012Y-28505665D01*
X17694335Y-28414988D01*
X17623091Y-28308364D01*
X17620686Y-28302557D01*
X17574017Y-28189890D01*
X17549000Y-28064119D01*
X17549000Y-27935881D01*
X17574017Y-27810110D01*
X17623090Y-27691638D01*
X17636351Y-27671792D01*
X17694335Y-27585012D01*
X17785012Y-27494335D01*
X17891636Y-27423091D01*
X18010110Y-27374017D01*
X18075552Y-27361000D01*
X18135881Y-27349000D01*
X18264119Y-27349000D01*
X18324448Y-27361000D01*
X18324448Y-27361000D01*
G37*
G36*
X12324448Y-27361000D02*
G01*
X12389890Y-27374017D01*
X12508364Y-27423091D01*
X12614988Y-27494335D01*
X12705665Y-27585012D01*
X12763650Y-27671792D01*
X12776910Y-27691638D01*
X12825983Y-27810110D01*
X12851000Y-27935881D01*
X12851000Y-28064119D01*
X12825983Y-28189890D01*
X12779315Y-28302557D01*
X12776909Y-28308364D01*
X12705665Y-28414988D01*
X12614988Y-28505665D01*
X12508364Y-28576909D01*
X12508363Y-28576910D01*
X12508362Y-28576910D01*
X12389890Y-28625983D01*
X12264119Y-28651000D01*
X12135881Y-28651000D01*
X12010110Y-28625983D01*
X11891638Y-28576910D01*
X11891637Y-28576910D01*
X11891636Y-28576909D01*
X11785012Y-28505665D01*
X11694335Y-28414988D01*
X11623091Y-28308364D01*
X11620686Y-28302557D01*
X11574017Y-28189890D01*
X11549000Y-28064119D01*
X11549000Y-27935881D01*
X11574017Y-27810110D01*
X11623090Y-27691638D01*
X11636351Y-27671792D01*
X11694335Y-27585012D01*
X11785012Y-27494335D01*
X11891636Y-27423091D01*
X12010110Y-27374017D01*
X12075552Y-27361000D01*
X12135881Y-27349000D01*
X12264119Y-27349000D01*
X12324448Y-27361000D01*
X12324448Y-27361000D01*
G37*
G36*
X23051000Y-28401000D02*
G01*
X21749000Y-28401000D01*
X21749000Y-27599000D01*
X23051000Y-27599000D01*
X23051000Y-28401000D01*
X23051000Y-28401000D01*
G37*
G36*
X24086938Y-27631716D02*
G01*
X24107557Y-27637971D01*
X24126553Y-27648124D01*
X24143208Y-27661792D01*
X24156876Y-27678447D01*
X24167029Y-27697443D01*
X24173284Y-27718062D01*
X24176000Y-27745640D01*
X24176000Y-28254360D01*
X24173284Y-28281938D01*
X24167029Y-28302557D01*
X24156876Y-28321553D01*
X24143208Y-28338208D01*
X24126553Y-28351876D01*
X24107557Y-28362029D01*
X24086938Y-28368284D01*
X24059360Y-28371000D01*
X23600640Y-28371000D01*
X23573062Y-28368284D01*
X23552443Y-28362029D01*
X23533447Y-28351876D01*
X23516792Y-28338208D01*
X23503124Y-28321553D01*
X23492971Y-28302557D01*
X23486716Y-28281938D01*
X23484000Y-28254360D01*
X23484000Y-27745640D01*
X23486716Y-27718062D01*
X23492971Y-27697443D01*
X23503124Y-27678447D01*
X23516792Y-27661792D01*
X23533447Y-27648124D01*
X23552443Y-27637971D01*
X23573062Y-27631716D01*
X23600640Y-27629000D01*
X24059360Y-27629000D01*
X24086938Y-27631716D01*
X24086938Y-27631716D01*
G37*
G36*
X25056938Y-27631716D02*
G01*
X25077557Y-27637971D01*
X25096553Y-27648124D01*
X25113208Y-27661792D01*
X25126876Y-27678447D01*
X25137029Y-27697443D01*
X25143284Y-27718062D01*
X25146000Y-27745640D01*
X25146000Y-28254360D01*
X25143284Y-28281938D01*
X25137029Y-28302557D01*
X25126876Y-28321553D01*
X25113208Y-28338208D01*
X25096553Y-28351876D01*
X25077557Y-28362029D01*
X25056938Y-28368284D01*
X25029360Y-28371000D01*
X24570640Y-28371000D01*
X24543062Y-28368284D01*
X24522443Y-28362029D01*
X24503447Y-28351876D01*
X24486792Y-28338208D01*
X24473124Y-28321553D01*
X24462971Y-28302557D01*
X24456716Y-28281938D01*
X24454000Y-28254360D01*
X24454000Y-27745640D01*
X24456716Y-27718062D01*
X24462971Y-27697443D01*
X24473124Y-27678447D01*
X24486792Y-27661792D01*
X24503447Y-27648124D01*
X24522443Y-27637971D01*
X24543062Y-27631716D01*
X24570640Y-27629000D01*
X25029360Y-27629000D01*
X25056938Y-27631716D01*
X25056938Y-27631716D01*
G37*
G36*
X27531938Y-27641716D02*
G01*
X27552557Y-27647971D01*
X27571553Y-27658124D01*
X27588208Y-27671792D01*
X27601876Y-27688447D01*
X27612029Y-27707443D01*
X27618284Y-27728062D01*
X27621000Y-27755640D01*
X27621000Y-28214360D01*
X27618284Y-28241938D01*
X27612029Y-28262557D01*
X27601876Y-28281553D01*
X27588208Y-28298208D01*
X27571553Y-28311876D01*
X27552557Y-28322029D01*
X27531938Y-28328284D01*
X27504360Y-28331000D01*
X26995640Y-28331000D01*
X26968062Y-28328284D01*
X26947443Y-28322029D01*
X26928447Y-28311876D01*
X26911792Y-28298208D01*
X26898124Y-28281553D01*
X26887971Y-28262557D01*
X26881716Y-28241938D01*
X26879000Y-28214360D01*
X26879000Y-27755640D01*
X26881716Y-27728062D01*
X26887971Y-27707443D01*
X26898124Y-27688447D01*
X26911792Y-27671792D01*
X26928447Y-27658124D01*
X26947443Y-27647971D01*
X26968062Y-27641716D01*
X26995640Y-27639000D01*
X27504360Y-27639000D01*
X27531938Y-27641716D01*
X27531938Y-27641716D01*
G37*
G36*
X32714928Y-25951764D02*
G01*
X32736009Y-25958160D01*
X32755445Y-25968548D01*
X32772476Y-25982524D01*
X32786452Y-25999555D01*
X32796840Y-26018991D01*
X32803236Y-26040072D01*
X32806000Y-26068140D01*
X32806000Y-27881860D01*
X32803236Y-27909928D01*
X32796840Y-27931009D01*
X32786452Y-27950445D01*
X32772476Y-27967476D01*
X32755445Y-27981452D01*
X32736009Y-27991840D01*
X32714928Y-27998236D01*
X32686860Y-28001000D01*
X32223140Y-28001000D01*
X32195072Y-27998236D01*
X32173991Y-27991840D01*
X32154555Y-27981452D01*
X32137524Y-27967476D01*
X32123548Y-27950445D01*
X32113160Y-27931009D01*
X32106764Y-27909928D01*
X32104000Y-27881860D01*
X32104000Y-26068140D01*
X32106764Y-26040072D01*
X32113160Y-26018991D01*
X32123548Y-25999555D01*
X32137524Y-25982524D01*
X32154555Y-25968548D01*
X32173991Y-25958160D01*
X32195072Y-25951764D01*
X32223140Y-25949000D01*
X32686860Y-25949000D01*
X32714928Y-25951764D01*
X32714928Y-25951764D01*
G37*
G36*
X31444928Y-25951764D02*
G01*
X31466009Y-25958160D01*
X31485445Y-25968548D01*
X31502476Y-25982524D01*
X31516452Y-25999555D01*
X31526840Y-26018991D01*
X31533236Y-26040072D01*
X31536000Y-26068140D01*
X31536000Y-27881860D01*
X31533236Y-27909928D01*
X31526840Y-27931009D01*
X31516452Y-27950445D01*
X31502476Y-27967476D01*
X31485445Y-27981452D01*
X31466009Y-27991840D01*
X31444928Y-27998236D01*
X31416860Y-28001000D01*
X30953140Y-28001000D01*
X30925072Y-27998236D01*
X30903991Y-27991840D01*
X30884555Y-27981452D01*
X30867524Y-27967476D01*
X30853548Y-27950445D01*
X30843160Y-27931009D01*
X30836764Y-27909928D01*
X30834000Y-27881860D01*
X30834000Y-26068140D01*
X30836764Y-26040072D01*
X30843160Y-26018991D01*
X30853548Y-25999555D01*
X30867524Y-25982524D01*
X30884555Y-25968548D01*
X30903991Y-25958160D01*
X30925072Y-25951764D01*
X30953140Y-25949000D01*
X31416860Y-25949000D01*
X31444928Y-25951764D01*
X31444928Y-25951764D01*
G37*
G36*
X28904928Y-25951764D02*
G01*
X28926009Y-25958160D01*
X28945445Y-25968548D01*
X28962476Y-25982524D01*
X28976452Y-25999555D01*
X28986840Y-26018991D01*
X28993236Y-26040072D01*
X28996000Y-26068140D01*
X28996000Y-27881860D01*
X28993236Y-27909928D01*
X28986840Y-27931009D01*
X28976452Y-27950445D01*
X28962476Y-27967476D01*
X28945445Y-27981452D01*
X28926009Y-27991840D01*
X28904928Y-27998236D01*
X28876860Y-28001000D01*
X28413140Y-28001000D01*
X28385072Y-27998236D01*
X28363991Y-27991840D01*
X28344555Y-27981452D01*
X28327524Y-27967476D01*
X28313548Y-27950445D01*
X28303160Y-27931009D01*
X28296764Y-27909928D01*
X28294000Y-27881860D01*
X28294000Y-26068140D01*
X28296764Y-26040072D01*
X28303160Y-26018991D01*
X28313548Y-25999555D01*
X28327524Y-25982524D01*
X28344555Y-25968548D01*
X28363991Y-25958160D01*
X28385072Y-25951764D01*
X28413140Y-25949000D01*
X28876860Y-25949000D01*
X28904928Y-25951764D01*
X28904928Y-25951764D01*
G37*
G36*
X30174928Y-25951764D02*
G01*
X30196009Y-25958160D01*
X30215445Y-25968548D01*
X30232476Y-25982524D01*
X30246452Y-25999555D01*
X30256840Y-26018991D01*
X30263236Y-26040072D01*
X30266000Y-26068140D01*
X30266000Y-27881860D01*
X30263236Y-27909928D01*
X30256840Y-27931009D01*
X30246452Y-27950445D01*
X30232476Y-27967476D01*
X30215445Y-27981452D01*
X30196009Y-27991840D01*
X30174928Y-27998236D01*
X30146860Y-28001000D01*
X29683140Y-28001000D01*
X29655072Y-27998236D01*
X29633991Y-27991840D01*
X29614555Y-27981452D01*
X29597524Y-27967476D01*
X29583548Y-27950445D01*
X29573160Y-27931009D01*
X29566764Y-27909928D01*
X29564000Y-27881860D01*
X29564000Y-26068140D01*
X29566764Y-26040072D01*
X29573160Y-26018991D01*
X29583548Y-25999555D01*
X29597524Y-25982524D01*
X29614555Y-25968548D01*
X29633991Y-25958160D01*
X29655072Y-25951764D01*
X29683140Y-25949000D01*
X30146860Y-25949000D01*
X30174928Y-25951764D01*
X30174928Y-25951764D01*
G37*
G36*
X38671938Y-27081716D02*
G01*
X38692557Y-27087971D01*
X38711553Y-27098124D01*
X38728208Y-27111792D01*
X38741876Y-27128447D01*
X38752029Y-27147443D01*
X38758284Y-27168062D01*
X38761000Y-27195640D01*
X38761000Y-27704360D01*
X38758284Y-27731938D01*
X38752029Y-27752557D01*
X38741876Y-27771553D01*
X38728208Y-27788208D01*
X38711553Y-27801876D01*
X38692557Y-27812029D01*
X38671938Y-27818284D01*
X38644360Y-27821000D01*
X38185640Y-27821000D01*
X38158062Y-27818284D01*
X38137443Y-27812029D01*
X38118447Y-27801876D01*
X38101792Y-27788208D01*
X38088124Y-27771553D01*
X38077971Y-27752557D01*
X38071716Y-27731938D01*
X38069000Y-27704360D01*
X38069000Y-27195640D01*
X38071716Y-27168062D01*
X38077971Y-27147443D01*
X38088124Y-27128447D01*
X38101792Y-27111792D01*
X38118447Y-27098124D01*
X38137443Y-27087971D01*
X38158062Y-27081716D01*
X38185640Y-27079000D01*
X38644360Y-27079000D01*
X38671938Y-27081716D01*
X38671938Y-27081716D01*
G37*
G36*
X43241938Y-27081716D02*
G01*
X43262557Y-27087971D01*
X43281553Y-27098124D01*
X43298208Y-27111792D01*
X43311876Y-27128447D01*
X43322029Y-27147443D01*
X43328284Y-27168062D01*
X43331000Y-27195640D01*
X43331000Y-27704360D01*
X43328284Y-27731938D01*
X43322029Y-27752557D01*
X43311876Y-27771553D01*
X43298208Y-27788208D01*
X43281553Y-27801876D01*
X43262557Y-27812029D01*
X43241938Y-27818284D01*
X43214360Y-27821000D01*
X42755640Y-27821000D01*
X42728062Y-27818284D01*
X42707443Y-27812029D01*
X42688447Y-27801876D01*
X42671792Y-27788208D01*
X42658124Y-27771553D01*
X42647971Y-27752557D01*
X42641716Y-27731938D01*
X42639000Y-27704360D01*
X42639000Y-27195640D01*
X42641716Y-27168062D01*
X42647971Y-27147443D01*
X42658124Y-27128447D01*
X42671792Y-27111792D01*
X42688447Y-27098124D01*
X42707443Y-27087971D01*
X42728062Y-27081716D01*
X42755640Y-27079000D01*
X43214360Y-27079000D01*
X43241938Y-27081716D01*
X43241938Y-27081716D01*
G37*
G36*
X42271938Y-27081716D02*
G01*
X42292557Y-27087971D01*
X42311553Y-27098124D01*
X42328208Y-27111792D01*
X42341876Y-27128447D01*
X42352029Y-27147443D01*
X42358284Y-27168062D01*
X42361000Y-27195640D01*
X42361000Y-27704360D01*
X42358284Y-27731938D01*
X42352029Y-27752557D01*
X42341876Y-27771553D01*
X42328208Y-27788208D01*
X42311553Y-27801876D01*
X42292557Y-27812029D01*
X42271938Y-27818284D01*
X42244360Y-27821000D01*
X41785640Y-27821000D01*
X41758062Y-27818284D01*
X41737443Y-27812029D01*
X41718447Y-27801876D01*
X41701792Y-27788208D01*
X41688124Y-27771553D01*
X41677971Y-27752557D01*
X41671716Y-27731938D01*
X41669000Y-27704360D01*
X41669000Y-27195640D01*
X41671716Y-27168062D01*
X41677971Y-27147443D01*
X41688124Y-27128447D01*
X41701792Y-27111792D01*
X41718447Y-27098124D01*
X41737443Y-27087971D01*
X41758062Y-27081716D01*
X41785640Y-27079000D01*
X42244360Y-27079000D01*
X42271938Y-27081716D01*
X42271938Y-27081716D01*
G37*
G36*
X39641938Y-27081716D02*
G01*
X39662557Y-27087971D01*
X39681553Y-27098124D01*
X39698208Y-27111792D01*
X39711876Y-27128447D01*
X39722029Y-27147443D01*
X39728284Y-27168062D01*
X39731000Y-27195640D01*
X39731000Y-27704360D01*
X39728284Y-27731938D01*
X39722029Y-27752557D01*
X39711876Y-27771553D01*
X39698208Y-27788208D01*
X39681553Y-27801876D01*
X39662557Y-27812029D01*
X39641938Y-27818284D01*
X39614360Y-27821000D01*
X39155640Y-27821000D01*
X39128062Y-27818284D01*
X39107443Y-27812029D01*
X39088447Y-27801876D01*
X39071792Y-27788208D01*
X39058124Y-27771553D01*
X39047971Y-27752557D01*
X39041716Y-27731938D01*
X39039000Y-27704360D01*
X39039000Y-27195640D01*
X39041716Y-27168062D01*
X39047971Y-27147443D01*
X39058124Y-27128447D01*
X39071792Y-27111792D01*
X39088447Y-27098124D01*
X39107443Y-27087971D01*
X39128062Y-27081716D01*
X39155640Y-27079000D01*
X39614360Y-27079000D01*
X39641938Y-27081716D01*
X39641938Y-27081716D01*
G37*
G36*
X27531938Y-26671716D02*
G01*
X27552557Y-26677971D01*
X27571553Y-26688124D01*
X27588208Y-26701792D01*
X27601876Y-26718447D01*
X27612029Y-26737443D01*
X27618284Y-26758062D01*
X27621000Y-26785640D01*
X27621000Y-27244360D01*
X27618284Y-27271938D01*
X27612029Y-27292557D01*
X27601876Y-27311553D01*
X27588208Y-27328208D01*
X27571553Y-27341876D01*
X27552557Y-27352029D01*
X27531938Y-27358284D01*
X27504360Y-27361000D01*
X26995640Y-27361000D01*
X26968062Y-27358284D01*
X26947443Y-27352029D01*
X26928447Y-27341876D01*
X26911792Y-27328208D01*
X26898124Y-27311553D01*
X26887971Y-27292557D01*
X26881716Y-27271938D01*
X26879000Y-27244360D01*
X26879000Y-26785640D01*
X26881716Y-26758062D01*
X26887971Y-26737443D01*
X26898124Y-26718447D01*
X26911792Y-26701792D01*
X26928447Y-26688124D01*
X26947443Y-26677971D01*
X26968062Y-26671716D01*
X26995640Y-26669000D01*
X27504360Y-26669000D01*
X27531938Y-26671716D01*
X27531938Y-26671716D01*
G37*
G36*
X23051000Y-26951000D02*
G01*
X21749000Y-26951000D01*
X21749000Y-25149000D01*
X23051000Y-25149000D01*
X23051000Y-26951000D01*
X23051000Y-26951000D01*
G37*
G36*
X12627004Y-23611508D02*
G01*
X12749127Y-23648553D01*
X12861676Y-23708712D01*
X12960327Y-23789672D01*
X13041287Y-23888323D01*
X13101446Y-24000872D01*
X13138491Y-24122995D01*
X13151000Y-24249999D01*
X13151000Y-24250001D01*
X13138491Y-24377005D01*
X13101446Y-24499128D01*
X13041287Y-24611677D01*
X12960327Y-24710328D01*
X12861676Y-24791288D01*
X12749127Y-24851447D01*
X12627004Y-24888492D01*
X12500000Y-24901001D01*
X11700000Y-24901001D01*
X11572996Y-24888492D01*
X11450873Y-24851447D01*
X11338324Y-24791288D01*
X11239673Y-24710328D01*
X11158713Y-24611677D01*
X11098554Y-24499128D01*
X11061509Y-24377005D01*
X11049000Y-24250001D01*
X11049000Y-24249999D01*
X11061509Y-24122995D01*
X11098554Y-24000872D01*
X11158713Y-23888323D01*
X11239673Y-23789672D01*
X11338324Y-23708712D01*
X11450873Y-23648553D01*
X11572996Y-23611508D01*
X11700000Y-23598999D01*
X12500000Y-23598999D01*
X12627004Y-23611508D01*
X12627004Y-23611508D01*
G37*
G36*
X66301000Y-23601000D02*
G01*
X65299000Y-23601000D01*
X65299000Y-21899000D01*
X66301000Y-21899000D01*
X66301000Y-23601000D01*
X66301000Y-23601000D01*
G37*
G36*
X63101000Y-23601000D02*
G01*
X56199000Y-23601000D01*
X56199000Y-21899000D01*
X63101000Y-21899000D01*
X63101000Y-23601000D01*
X63101000Y-23601000D01*
G37*
G36*
X49081938Y-22856716D02*
G01*
X49102557Y-22862971D01*
X49121553Y-22873124D01*
X49138208Y-22886792D01*
X49151876Y-22903447D01*
X49162029Y-22922443D01*
X49168284Y-22943062D01*
X49171000Y-22970640D01*
X49171000Y-23429360D01*
X49168284Y-23456938D01*
X49162029Y-23477557D01*
X49151876Y-23496553D01*
X49138208Y-23513208D01*
X49121553Y-23526876D01*
X49102557Y-23537029D01*
X49081938Y-23543284D01*
X49054360Y-23546000D01*
X48545640Y-23546000D01*
X48518062Y-23543284D01*
X48497443Y-23537029D01*
X48478447Y-23526876D01*
X48461792Y-23513208D01*
X48448124Y-23496553D01*
X48437971Y-23477557D01*
X48431716Y-23456938D01*
X48429000Y-23429360D01*
X48429000Y-22970640D01*
X48431716Y-22943062D01*
X48437971Y-22922443D01*
X48448124Y-22903447D01*
X48461792Y-22886792D01*
X48478447Y-22873124D01*
X48497443Y-22862971D01*
X48518062Y-22856716D01*
X48545640Y-22854000D01*
X49054360Y-22854000D01*
X49081938Y-22856716D01*
X49081938Y-22856716D01*
G37*
G36*
X51451000Y-23501000D02*
G01*
X49549000Y-23501000D01*
X49549000Y-22399000D01*
X51451000Y-22399000D01*
X51451000Y-23501000D01*
X51451000Y-23501000D01*
G37*
G36*
X49081938Y-21886716D02*
G01*
X49102557Y-21892971D01*
X49121553Y-21903124D01*
X49138208Y-21916792D01*
X49151876Y-21933447D01*
X49162029Y-21952443D01*
X49168284Y-21973062D01*
X49171000Y-22000640D01*
X49171000Y-22459360D01*
X49168284Y-22486938D01*
X49162029Y-22507557D01*
X49151876Y-22526553D01*
X49138208Y-22543208D01*
X49121553Y-22556876D01*
X49102557Y-22567029D01*
X49081938Y-22573284D01*
X49054360Y-22576000D01*
X48545640Y-22576000D01*
X48518062Y-22573284D01*
X48497443Y-22567029D01*
X48478447Y-22556876D01*
X48461792Y-22543208D01*
X48448124Y-22526553D01*
X48437971Y-22507557D01*
X48431716Y-22486938D01*
X48429000Y-22459360D01*
X48429000Y-22000640D01*
X48431716Y-21973062D01*
X48437971Y-21952443D01*
X48448124Y-21933447D01*
X48461792Y-21916792D01*
X48478447Y-21903124D01*
X48497443Y-21892971D01*
X48518062Y-21886716D01*
X48545640Y-21884000D01*
X49054360Y-21884000D01*
X49081938Y-21886716D01*
X49081938Y-21886716D01*
G37*
G36*
X54771938Y-20831716D02*
G01*
X54792557Y-20837971D01*
X54811553Y-20848124D01*
X54828208Y-20861792D01*
X54841876Y-20878447D01*
X54852029Y-20897443D01*
X54858284Y-20918062D01*
X54861000Y-20945640D01*
X54861000Y-21454360D01*
X54858284Y-21481938D01*
X54852029Y-21502557D01*
X54841876Y-21521553D01*
X54828208Y-21538208D01*
X54811553Y-21551876D01*
X54792557Y-21562029D01*
X54771938Y-21568284D01*
X54744360Y-21571000D01*
X54285640Y-21571000D01*
X54258062Y-21568284D01*
X54237443Y-21562029D01*
X54218447Y-21551876D01*
X54201792Y-21538208D01*
X54188124Y-21521553D01*
X54177971Y-21502557D01*
X54171716Y-21481938D01*
X54169000Y-21454360D01*
X54169000Y-20945640D01*
X54171716Y-20918062D01*
X54177971Y-20897443D01*
X54188124Y-20878447D01*
X54201792Y-20861792D01*
X54218447Y-20848124D01*
X54237443Y-20837971D01*
X54258062Y-20831716D01*
X54285640Y-20829000D01*
X54744360Y-20829000D01*
X54771938Y-20831716D01*
X54771938Y-20831716D01*
G37*
G36*
X55741938Y-20831716D02*
G01*
X55762557Y-20837971D01*
X55781553Y-20848124D01*
X55798208Y-20861792D01*
X55811876Y-20878447D01*
X55822029Y-20897443D01*
X55828284Y-20918062D01*
X55831000Y-20945640D01*
X55831000Y-21454360D01*
X55828284Y-21481938D01*
X55822029Y-21502557D01*
X55811876Y-21521553D01*
X55798208Y-21538208D01*
X55781553Y-21551876D01*
X55762557Y-21562029D01*
X55741938Y-21568284D01*
X55714360Y-21571000D01*
X55255640Y-21571000D01*
X55228062Y-21568284D01*
X55207443Y-21562029D01*
X55188447Y-21551876D01*
X55171792Y-21538208D01*
X55158124Y-21521553D01*
X55147971Y-21502557D01*
X55141716Y-21481938D01*
X55139000Y-21454360D01*
X55139000Y-20945640D01*
X55141716Y-20918062D01*
X55147971Y-20897443D01*
X55158124Y-20878447D01*
X55171792Y-20861792D01*
X55188447Y-20848124D01*
X55207443Y-20837971D01*
X55228062Y-20831716D01*
X55255640Y-20829000D01*
X55714360Y-20829000D01*
X55741938Y-20831716D01*
X55741938Y-20831716D01*
G37*
G36*
X49081938Y-20841716D02*
G01*
X49102557Y-20847971D01*
X49121553Y-20858124D01*
X49138208Y-20871792D01*
X49151876Y-20888447D01*
X49162029Y-20907443D01*
X49168284Y-20928062D01*
X49171000Y-20955640D01*
X49171000Y-21414360D01*
X49168284Y-21441938D01*
X49162029Y-21462557D01*
X49151876Y-21481553D01*
X49138208Y-21498208D01*
X49121553Y-21511876D01*
X49102557Y-21522029D01*
X49081938Y-21528284D01*
X49054360Y-21531000D01*
X48545640Y-21531000D01*
X48518062Y-21528284D01*
X48497443Y-21522029D01*
X48478447Y-21511876D01*
X48461792Y-21498208D01*
X48448124Y-21481553D01*
X48437971Y-21462557D01*
X48431716Y-21441938D01*
X48429000Y-21414360D01*
X48429000Y-20955640D01*
X48431716Y-20928062D01*
X48437971Y-20907443D01*
X48448124Y-20888447D01*
X48461792Y-20871792D01*
X48478447Y-20858124D01*
X48497443Y-20847971D01*
X48518062Y-20841716D01*
X48545640Y-20839000D01*
X49054360Y-20839000D01*
X49081938Y-20841716D01*
X49081938Y-20841716D01*
G37*
G36*
X57576000Y-21501000D02*
G01*
X56224000Y-21501000D01*
X56224000Y-20399000D01*
X57576000Y-20399000D01*
X57576000Y-21501000D01*
X57576000Y-21501000D01*
G37*
G36*
X58979591Y-20503085D02*
G01*
X59013569Y-20513393D01*
X59044890Y-20530134D01*
X59072339Y-20552661D01*
X59094866Y-20580110D01*
X59111607Y-20611431D01*
X59121915Y-20645409D01*
X59126000Y-20686890D01*
X59126000Y-21288110D01*
X59121915Y-21329591D01*
X59111607Y-21363569D01*
X59094866Y-21394890D01*
X59072339Y-21422339D01*
X59044890Y-21444866D01*
X59013569Y-21461607D01*
X58979591Y-21471915D01*
X58938110Y-21476000D01*
X58261890Y-21476000D01*
X58220409Y-21471915D01*
X58186431Y-21461607D01*
X58155110Y-21444866D01*
X58127661Y-21422339D01*
X58105134Y-21394890D01*
X58088393Y-21363569D01*
X58078085Y-21329591D01*
X58074000Y-21288110D01*
X58074000Y-20686890D01*
X58078085Y-20645409D01*
X58088393Y-20611431D01*
X58105134Y-20580110D01*
X58127661Y-20552661D01*
X58155110Y-20530134D01*
X58186431Y-20513393D01*
X58220409Y-20503085D01*
X58261890Y-20499000D01*
X58938110Y-20499000D01*
X58979591Y-20503085D01*
X58979591Y-20503085D01*
G37*
G36*
X63453642Y-19549781D02*
G01*
X63599414Y-19610162D01*
X63599416Y-19610163D01*
X63730608Y-19697822D01*
X63842178Y-19809392D01*
X63915863Y-19919671D01*
X63929838Y-19940586D01*
X63990219Y-20086358D01*
X64021000Y-20241107D01*
X64021000Y-20398893D01*
X63990219Y-20553642D01*
X63931418Y-20695599D01*
X63929837Y-20699416D01*
X63842178Y-20830608D01*
X63730608Y-20942178D01*
X63599416Y-21029837D01*
X63599415Y-21029838D01*
X63599414Y-21029838D01*
X63453642Y-21090219D01*
X63298893Y-21121000D01*
X63141107Y-21121000D01*
X62986358Y-21090219D01*
X62840586Y-21029838D01*
X62840585Y-21029838D01*
X62840584Y-21029837D01*
X62709392Y-20942178D01*
X62597822Y-20830608D01*
X62510163Y-20699416D01*
X62508582Y-20695599D01*
X62449781Y-20553642D01*
X62419000Y-20398893D01*
X62419000Y-20241107D01*
X62449781Y-20086358D01*
X62510162Y-19940586D01*
X62524137Y-19919671D01*
X62597822Y-19809392D01*
X62709392Y-19697822D01*
X62840584Y-19610163D01*
X62840586Y-19610162D01*
X62986358Y-19549781D01*
X63141107Y-19519000D01*
X63298893Y-19519000D01*
X63453642Y-19549781D01*
X63453642Y-19549781D01*
G37*
G36*
X51451000Y-21001000D02*
G01*
X49549000Y-21001000D01*
X49549000Y-19899000D01*
X51451000Y-19899000D01*
X51451000Y-21001000D01*
X51451000Y-21001000D01*
G37*
G36*
X49081938Y-19871716D02*
G01*
X49102557Y-19877971D01*
X49121553Y-19888124D01*
X49138208Y-19901792D01*
X49151876Y-19918447D01*
X49162029Y-19937443D01*
X49168284Y-19958062D01*
X49171000Y-19985640D01*
X49171000Y-20444360D01*
X49168284Y-20471938D01*
X49162029Y-20492557D01*
X49151876Y-20511553D01*
X49138208Y-20528208D01*
X49121553Y-20541876D01*
X49102557Y-20552029D01*
X49081938Y-20558284D01*
X49054360Y-20561000D01*
X48545640Y-20561000D01*
X48518062Y-20558284D01*
X48497443Y-20552029D01*
X48478447Y-20541876D01*
X48461792Y-20528208D01*
X48448124Y-20511553D01*
X48437971Y-20492557D01*
X48431716Y-20471938D01*
X48429000Y-20444360D01*
X48429000Y-19985640D01*
X48431716Y-19958062D01*
X48437971Y-19937443D01*
X48448124Y-19918447D01*
X48461792Y-19901792D01*
X48478447Y-19888124D01*
X48497443Y-19877971D01*
X48518062Y-19871716D01*
X48545640Y-19869000D01*
X49054360Y-19869000D01*
X49081938Y-19871716D01*
X49081938Y-19871716D01*
G37*
G36*
X54429591Y-19403085D02*
G01*
X54463569Y-19413393D01*
X54494890Y-19430134D01*
X54522339Y-19452661D01*
X54544866Y-19480110D01*
X54561607Y-19511431D01*
X54571915Y-19545409D01*
X54576000Y-19586890D01*
X54576000Y-20188110D01*
X54571915Y-20229591D01*
X54561607Y-20263569D01*
X54544866Y-20294890D01*
X54522339Y-20322339D01*
X54494890Y-20344866D01*
X54463569Y-20361607D01*
X54429591Y-20371915D01*
X54388110Y-20376000D01*
X53711890Y-20376000D01*
X53670409Y-20371915D01*
X53636431Y-20361607D01*
X53605110Y-20344866D01*
X53577661Y-20322339D01*
X53555134Y-20294890D01*
X53538393Y-20263569D01*
X53528085Y-20229591D01*
X53524000Y-20188110D01*
X53524000Y-19586890D01*
X53528085Y-19545409D01*
X53538393Y-19511431D01*
X53555134Y-19480110D01*
X53577661Y-19452661D01*
X53605110Y-19430134D01*
X53636431Y-19413393D01*
X53670409Y-19403085D01*
X53711890Y-19399000D01*
X54388110Y-19399000D01*
X54429591Y-19403085D01*
X54429591Y-19403085D01*
G37*
G36*
X58979591Y-18928085D02*
G01*
X59013569Y-18938393D01*
X59044890Y-18955134D01*
X59072339Y-18977661D01*
X59094866Y-19005110D01*
X59111607Y-19036431D01*
X59121915Y-19070409D01*
X59126000Y-19111890D01*
X59126000Y-19713110D01*
X59121915Y-19754591D01*
X59111607Y-19788569D01*
X59094866Y-19819890D01*
X59072339Y-19847339D01*
X59044890Y-19869866D01*
X59013569Y-19886607D01*
X58979591Y-19896915D01*
X58938110Y-19901000D01*
X58261890Y-19901000D01*
X58220409Y-19896915D01*
X58186431Y-19886607D01*
X58155110Y-19869866D01*
X58127661Y-19847339D01*
X58105134Y-19819890D01*
X58088393Y-19788569D01*
X58078085Y-19754591D01*
X58074000Y-19713110D01*
X58074000Y-19111890D01*
X58078085Y-19070409D01*
X58088393Y-19036431D01*
X58105134Y-19005110D01*
X58127661Y-18977661D01*
X58155110Y-18955134D01*
X58186431Y-18938393D01*
X58220409Y-18928085D01*
X58261890Y-18924000D01*
X58938110Y-18924000D01*
X58979591Y-18928085D01*
X58979591Y-18928085D01*
G37*
G36*
X57576000Y-19501000D02*
G01*
X56224000Y-19501000D01*
X56224000Y-18399000D01*
X57576000Y-18399000D01*
X57576000Y-19501000D01*
X57576000Y-19501000D01*
G37*
G36*
X54429591Y-17828085D02*
G01*
X54463569Y-17838393D01*
X54494890Y-17855134D01*
X54522339Y-17877661D01*
X54544866Y-17905110D01*
X54561607Y-17936431D01*
X54571915Y-17970409D01*
X54576000Y-18011890D01*
X54576000Y-18613110D01*
X54571915Y-18654591D01*
X54561607Y-18688569D01*
X54544866Y-18719890D01*
X54522339Y-18747339D01*
X54494890Y-18769866D01*
X54463569Y-18786607D01*
X54429591Y-18796915D01*
X54388110Y-18801000D01*
X53711890Y-18801000D01*
X53670409Y-18796915D01*
X53636431Y-18786607D01*
X53605110Y-18769866D01*
X53577661Y-18747339D01*
X53555134Y-18719890D01*
X53538393Y-18688569D01*
X53528085Y-18654591D01*
X53524000Y-18613110D01*
X53524000Y-18011890D01*
X53528085Y-17970409D01*
X53538393Y-17936431D01*
X53555134Y-17905110D01*
X53577661Y-17877661D01*
X53605110Y-17855134D01*
X53636431Y-17838393D01*
X53670409Y-17828085D01*
X53711890Y-17824000D01*
X54388110Y-17824000D01*
X54429591Y-17828085D01*
X54429591Y-17828085D01*
G37*
G36*
X63443642Y-17139781D02*
G01*
X63589414Y-17200162D01*
X63589416Y-17200163D01*
X63720608Y-17287822D01*
X63832178Y-17399392D01*
X63846339Y-17420586D01*
X63919838Y-17530586D01*
X63980219Y-17676358D01*
X64011000Y-17831107D01*
X64011000Y-17988893D01*
X63980219Y-18143642D01*
X63919838Y-18289414D01*
X63919837Y-18289416D01*
X63832178Y-18420608D01*
X63720608Y-18532178D01*
X63589416Y-18619837D01*
X63589415Y-18619838D01*
X63589414Y-18619838D01*
X63443642Y-18680219D01*
X63288893Y-18711000D01*
X63131107Y-18711000D01*
X62976358Y-18680219D01*
X62830586Y-18619838D01*
X62830585Y-18619838D01*
X62830584Y-18619837D01*
X62699392Y-18532178D01*
X62587822Y-18420608D01*
X62500163Y-18289416D01*
X62500162Y-18289414D01*
X62439781Y-18143642D01*
X62409000Y-17988893D01*
X62409000Y-17831107D01*
X62439781Y-17676358D01*
X62500162Y-17530586D01*
X62573661Y-17420586D01*
X62587822Y-17399392D01*
X62699392Y-17287822D01*
X62830584Y-17200163D01*
X62830586Y-17200162D01*
X62976358Y-17139781D01*
X63131107Y-17109000D01*
X63288893Y-17109000D01*
X63443642Y-17139781D01*
X63443642Y-17139781D01*
G37*
G36*
X13733642Y-17029781D02*
G01*
X13879414Y-17090162D01*
X13879416Y-17090163D01*
X14010608Y-17177822D01*
X14122178Y-17289392D01*
X14209837Y-17420584D01*
X14209838Y-17420586D01*
X14270219Y-17566358D01*
X14301000Y-17721107D01*
X14301000Y-17878893D01*
X14270219Y-18033642D01*
X14224655Y-18143642D01*
X14209837Y-18179416D01*
X14122178Y-18310608D01*
X14010608Y-18422178D01*
X13879416Y-18509837D01*
X13879415Y-18509838D01*
X13879414Y-18509838D01*
X13733642Y-18570219D01*
X13578893Y-18601000D01*
X13421107Y-18601000D01*
X13266358Y-18570219D01*
X13120586Y-18509838D01*
X13120585Y-18509838D01*
X13120584Y-18509837D01*
X12989392Y-18422178D01*
X12877822Y-18310608D01*
X12790163Y-18179416D01*
X12775345Y-18143642D01*
X12729781Y-18033642D01*
X12699000Y-17878893D01*
X12699000Y-17721107D01*
X12729781Y-17566358D01*
X12790162Y-17420586D01*
X12790163Y-17420584D01*
X12877822Y-17289392D01*
X12989392Y-17177822D01*
X13120584Y-17090163D01*
X13120586Y-17090162D01*
X13266358Y-17029781D01*
X13421107Y-16999000D01*
X13578893Y-16999000D01*
X13733642Y-17029781D01*
X13733642Y-17029781D01*
G37*
G36*
X58679591Y-16828085D02*
G01*
X58713569Y-16838393D01*
X58744890Y-16855134D01*
X58772339Y-16877661D01*
X58794866Y-16905110D01*
X58811607Y-16936431D01*
X58821915Y-16970409D01*
X58826000Y-17011890D01*
X58826000Y-17688110D01*
X58821915Y-17729591D01*
X58811607Y-17763569D01*
X58794866Y-17794890D01*
X58772339Y-17822339D01*
X58744890Y-17844866D01*
X58713569Y-17861607D01*
X58679591Y-17871915D01*
X58638110Y-17876000D01*
X58036890Y-17876000D01*
X57995409Y-17871915D01*
X57961431Y-17861607D01*
X57930110Y-17844866D01*
X57902661Y-17822339D01*
X57880134Y-17794890D01*
X57863393Y-17763569D01*
X57853085Y-17729591D01*
X57849000Y-17688110D01*
X57849000Y-17011890D01*
X57853085Y-16970409D01*
X57863393Y-16936431D01*
X57880134Y-16905110D01*
X57902661Y-16877661D01*
X57930110Y-16855134D01*
X57961431Y-16838393D01*
X57995409Y-16828085D01*
X58036890Y-16824000D01*
X58638110Y-16824000D01*
X58679591Y-16828085D01*
X58679591Y-16828085D01*
G37*
G36*
X57104591Y-16828085D02*
G01*
X57138569Y-16838393D01*
X57169890Y-16855134D01*
X57197339Y-16877661D01*
X57219866Y-16905110D01*
X57236607Y-16936431D01*
X57246915Y-16970409D01*
X57251000Y-17011890D01*
X57251000Y-17688110D01*
X57246915Y-17729591D01*
X57236607Y-17763569D01*
X57219866Y-17794890D01*
X57197339Y-17822339D01*
X57169890Y-17844866D01*
X57138569Y-17861607D01*
X57104591Y-17871915D01*
X57063110Y-17876000D01*
X56461890Y-17876000D01*
X56420409Y-17871915D01*
X56386431Y-17861607D01*
X56355110Y-17844866D01*
X56327661Y-17822339D01*
X56305134Y-17794890D01*
X56288393Y-17763569D01*
X56278085Y-17729591D01*
X56274000Y-17688110D01*
X56274000Y-17011890D01*
X56278085Y-16970409D01*
X56288393Y-16936431D01*
X56305134Y-16905110D01*
X56327661Y-16877661D01*
X56355110Y-16855134D01*
X56386431Y-16838393D01*
X56420409Y-16828085D01*
X56461890Y-16824000D01*
X57063110Y-16824000D01*
X57104591Y-16828085D01*
X57104591Y-16828085D01*
G37*
G36*
X34169271Y-14760103D02*
G01*
X34225635Y-14765654D01*
X34442600Y-14831470D01*
X34442602Y-14831471D01*
X34642555Y-14938347D01*
X34817818Y-15082182D01*
X34961653Y-15257445D01*
X35031435Y-15388000D01*
X35068530Y-15457400D01*
X35134346Y-15674365D01*
X35156569Y-15900000D01*
X35152059Y-15945796D01*
X35134346Y-16125634D01*
X35068529Y-16342602D01*
X34961653Y-16542555D01*
X34817818Y-16717818D01*
X34642555Y-16861653D01*
X34442602Y-16968529D01*
X34442600Y-16968530D01*
X34225635Y-17034346D01*
X34169271Y-17039897D01*
X34056545Y-17051000D01*
X31943455Y-17051000D01*
X31830729Y-17039897D01*
X31774365Y-17034346D01*
X31557400Y-16968530D01*
X31557398Y-16968529D01*
X31357445Y-16861653D01*
X31182182Y-16717818D01*
X31038347Y-16542555D01*
X30931471Y-16342602D01*
X30865654Y-16125634D01*
X30847942Y-15945796D01*
X30843431Y-15900000D01*
X30865654Y-15674365D01*
X30931470Y-15457400D01*
X30968565Y-15388000D01*
X31038347Y-15257445D01*
X31182182Y-15082182D01*
X31357445Y-14938347D01*
X31557398Y-14831471D01*
X31557400Y-14831470D01*
X31774365Y-14765654D01*
X31830729Y-14760103D01*
X31943455Y-14749000D01*
X34056545Y-14749000D01*
X34169271Y-14760103D01*
X34169271Y-14760103D01*
G37*
G36*
X51681938Y-15841716D02*
G01*
X51702557Y-15847971D01*
X51721553Y-15858124D01*
X51738208Y-15871792D01*
X51751876Y-15888447D01*
X51762029Y-15907443D01*
X51768284Y-15928062D01*
X51771000Y-15955640D01*
X51771000Y-16414360D01*
X51768284Y-16441938D01*
X51762029Y-16462557D01*
X51751876Y-16481553D01*
X51738208Y-16498208D01*
X51721553Y-16511876D01*
X51702557Y-16522029D01*
X51681938Y-16528284D01*
X51654360Y-16531000D01*
X51145640Y-16531000D01*
X51118062Y-16528284D01*
X51097443Y-16522029D01*
X51078447Y-16511876D01*
X51061792Y-16498208D01*
X51048124Y-16481553D01*
X51037971Y-16462557D01*
X51031716Y-16441938D01*
X51029000Y-16414360D01*
X51029000Y-15955640D01*
X51031716Y-15928062D01*
X51037971Y-15907443D01*
X51048124Y-15888447D01*
X51061792Y-15871792D01*
X51078447Y-15858124D01*
X51097443Y-15847971D01*
X51118062Y-15841716D01*
X51145640Y-15839000D01*
X51654360Y-15839000D01*
X51681938Y-15841716D01*
X51681938Y-15841716D01*
G37*
G36*
X47551000Y-15951000D02*
G01*
X45649000Y-15951000D01*
X45649000Y-14049000D01*
X47551000Y-14049000D01*
X47551000Y-15951000D01*
X47551000Y-15951000D01*
G37*
G36*
X40551000Y-15951000D02*
G01*
X38649000Y-15951000D01*
X38649000Y-14049000D01*
X40551000Y-14049000D01*
X40551000Y-15951000D01*
X40551000Y-15951000D01*
G37*
G36*
X51681938Y-14871716D02*
G01*
X51702557Y-14877971D01*
X51721553Y-14888124D01*
X51738208Y-14901792D01*
X51751876Y-14918447D01*
X51762029Y-14937443D01*
X51768284Y-14958062D01*
X51771000Y-14985640D01*
X51771000Y-15444360D01*
X51768284Y-15471938D01*
X51762029Y-15492557D01*
X51751876Y-15511553D01*
X51738208Y-15528208D01*
X51721553Y-15541876D01*
X51702557Y-15552029D01*
X51681938Y-15558284D01*
X51654360Y-15561000D01*
X51145640Y-15561000D01*
X51118062Y-15558284D01*
X51097443Y-15552029D01*
X51078447Y-15541876D01*
X51061792Y-15528208D01*
X51048124Y-15511553D01*
X51037971Y-15492557D01*
X51031716Y-15471938D01*
X51029000Y-15444360D01*
X51029000Y-14985640D01*
X51031716Y-14958062D01*
X51037971Y-14937443D01*
X51048124Y-14918447D01*
X51061792Y-14901792D01*
X51078447Y-14888124D01*
X51097443Y-14877971D01*
X51118062Y-14871716D01*
X51145640Y-14869000D01*
X51654360Y-14869000D01*
X51681938Y-14871716D01*
X51681938Y-14871716D01*
G37*
G36*
X56251000Y-14651000D02*
G01*
X55249000Y-14651000D01*
X55249000Y-13749000D01*
X56251000Y-13749000D01*
X56251000Y-14651000D01*
X56251000Y-14651000D01*
G37*
G36*
X19318433Y-11634893D02*
G01*
X19408657Y-11652839D01*
X19514267Y-11696585D01*
X19663621Y-11758449D01*
X19663622Y-11758450D01*
X19893086Y-11911772D01*
X20088228Y-12106914D01*
X20190675Y-12260237D01*
X20241551Y-12336379D01*
X20289357Y-12451792D01*
X20347161Y-12591343D01*
X20365107Y-12681567D01*
X20401000Y-12862012D01*
X20401000Y-13137988D01*
X20388925Y-13198691D01*
X20348452Y-13402169D01*
X20347161Y-13408656D01*
X20241551Y-13663621D01*
X20241550Y-13663622D01*
X20088228Y-13893086D01*
X19893086Y-14088228D01*
X19739763Y-14190675D01*
X19663621Y-14241551D01*
X19514267Y-14303415D01*
X19408657Y-14347161D01*
X19318433Y-14365107D01*
X19137988Y-14401000D01*
X18862012Y-14401000D01*
X18681567Y-14365107D01*
X18591343Y-14347161D01*
X18485733Y-14303415D01*
X18336379Y-14241551D01*
X18260237Y-14190675D01*
X18106914Y-14088228D01*
X17911772Y-13893086D01*
X17758450Y-13663622D01*
X17758449Y-13663621D01*
X17652839Y-13408656D01*
X17651549Y-13402169D01*
X17611075Y-13198691D01*
X17599000Y-13137988D01*
X17599000Y-12862012D01*
X17634893Y-12681567D01*
X17652839Y-12591343D01*
X17710643Y-12451792D01*
X17758449Y-12336379D01*
X17809325Y-12260237D01*
X17911772Y-12106914D01*
X18106914Y-11911772D01*
X18336378Y-11758450D01*
X18336379Y-11758449D01*
X18485733Y-11696585D01*
X18591343Y-11652839D01*
X18681567Y-11634893D01*
X18862012Y-11599000D01*
X19137988Y-11599000D01*
X19318433Y-11634893D01*
X19318433Y-11634893D01*
G37*
G36*
X63818433Y-11634893D02*
G01*
X63908657Y-11652839D01*
X64014267Y-11696585D01*
X64163621Y-11758449D01*
X64163622Y-11758450D01*
X64393086Y-11911772D01*
X64588228Y-12106914D01*
X64690675Y-12260237D01*
X64741551Y-12336379D01*
X64789357Y-12451792D01*
X64847161Y-12591343D01*
X64865107Y-12681567D01*
X64901000Y-12862012D01*
X64901000Y-13137988D01*
X64888925Y-13198691D01*
X64848452Y-13402169D01*
X64847161Y-13408656D01*
X64741551Y-13663621D01*
X64741550Y-13663622D01*
X64588228Y-13893086D01*
X64393086Y-14088228D01*
X64239763Y-14190675D01*
X64163621Y-14241551D01*
X64014267Y-14303415D01*
X63908657Y-14347161D01*
X63818433Y-14365107D01*
X63637988Y-14401000D01*
X63362012Y-14401000D01*
X63181567Y-14365107D01*
X63091343Y-14347161D01*
X62985733Y-14303415D01*
X62836379Y-14241551D01*
X62760237Y-14190675D01*
X62606914Y-14088228D01*
X62411772Y-13893086D01*
X62258450Y-13663622D01*
X62258449Y-13663621D01*
X62152839Y-13408656D01*
X62151549Y-13402169D01*
X62111075Y-13198691D01*
X62099000Y-13137988D01*
X62099000Y-12862012D01*
X62134893Y-12681567D01*
X62152839Y-12591343D01*
X62210643Y-12451792D01*
X62258449Y-12336379D01*
X62309325Y-12260237D01*
X62411772Y-12106914D01*
X62606914Y-11911772D01*
X62836378Y-11758450D01*
X62836379Y-11758449D01*
X62985733Y-11696585D01*
X63091343Y-11652839D01*
X63181567Y-11634893D01*
X63362012Y-11599000D01*
X63637988Y-11599000D01*
X63818433Y-11634893D01*
X63818433Y-11634893D01*
G37*
G36*
X57781938Y-13391716D02*
G01*
X57802557Y-13397971D01*
X57821553Y-13408124D01*
X57838208Y-13421792D01*
X57851876Y-13438447D01*
X57862029Y-13457443D01*
X57868284Y-13478062D01*
X57871000Y-13505640D01*
X57871000Y-13964360D01*
X57868284Y-13991938D01*
X57862029Y-14012557D01*
X57851876Y-14031553D01*
X57838208Y-14048208D01*
X57821553Y-14061876D01*
X57802557Y-14072029D01*
X57781938Y-14078284D01*
X57754360Y-14081000D01*
X57245640Y-14081000D01*
X57218062Y-14078284D01*
X57197443Y-14072029D01*
X57178447Y-14061876D01*
X57161792Y-14048208D01*
X57148124Y-14031553D01*
X57137971Y-14012557D01*
X57131716Y-13991938D01*
X57129000Y-13964360D01*
X57129000Y-13505640D01*
X57131716Y-13478062D01*
X57137971Y-13457443D01*
X57148124Y-13438447D01*
X57161792Y-13421792D01*
X57178447Y-13408124D01*
X57197443Y-13397971D01*
X57218062Y-13391716D01*
X57245640Y-13389000D01*
X57754360Y-13389000D01*
X57781938Y-13391716D01*
X57781938Y-13391716D01*
G37*
G36*
X51681938Y-13391716D02*
G01*
X51702557Y-13397971D01*
X51721553Y-13408124D01*
X51738208Y-13421792D01*
X51751876Y-13438447D01*
X51762029Y-13457443D01*
X51768284Y-13478062D01*
X51771000Y-13505640D01*
X51771000Y-13964360D01*
X51768284Y-13991938D01*
X51762029Y-14012557D01*
X51751876Y-14031553D01*
X51738208Y-14048208D01*
X51721553Y-14061876D01*
X51702557Y-14072029D01*
X51681938Y-14078284D01*
X51654360Y-14081000D01*
X51145640Y-14081000D01*
X51118062Y-14078284D01*
X51097443Y-14072029D01*
X51078447Y-14061876D01*
X51061792Y-14048208D01*
X51048124Y-14031553D01*
X51037971Y-14012557D01*
X51031716Y-13991938D01*
X51029000Y-13964360D01*
X51029000Y-13505640D01*
X51031716Y-13478062D01*
X51037971Y-13457443D01*
X51048124Y-13438447D01*
X51061792Y-13421792D01*
X51078447Y-13408124D01*
X51097443Y-13397971D01*
X51118062Y-13391716D01*
X51145640Y-13389000D01*
X51654360Y-13389000D01*
X51681938Y-13391716D01*
X51681938Y-13391716D01*
G37*
G36*
X54251000Y-13701000D02*
G01*
X53249000Y-13701000D01*
X53249000Y-12799000D01*
X54251000Y-12799000D01*
X54251000Y-13701000D01*
X54251000Y-13701000D01*
G37*
G36*
X46877395Y-11545546D02*
G01*
X47050466Y-11617234D01*
X47127818Y-11668919D01*
X47206227Y-11721310D01*
X47338690Y-11853773D01*
X47391081Y-11932182D01*
X47442766Y-12009534D01*
X47514454Y-12182605D01*
X47551000Y-12366333D01*
X47551000Y-12553667D01*
X47514454Y-12737395D01*
X47442766Y-12910466D01*
X47442765Y-12910467D01*
X47338690Y-13066227D01*
X47206227Y-13198690D01*
X47127818Y-13251081D01*
X47050466Y-13302766D01*
X46877395Y-13374454D01*
X46693667Y-13411000D01*
X46506333Y-13411000D01*
X46322605Y-13374454D01*
X46149534Y-13302766D01*
X46072182Y-13251081D01*
X45993773Y-13198690D01*
X45861310Y-13066227D01*
X45757235Y-12910467D01*
X45757234Y-12910466D01*
X45685546Y-12737395D01*
X45649000Y-12553667D01*
X45649000Y-12366333D01*
X45685546Y-12182605D01*
X45757234Y-12009534D01*
X45808919Y-11932182D01*
X45861310Y-11853773D01*
X45993773Y-11721310D01*
X46072182Y-11668919D01*
X46149534Y-11617234D01*
X46322605Y-11545546D01*
X46506333Y-11509000D01*
X46693667Y-11509000D01*
X46877395Y-11545546D01*
X46877395Y-11545546D01*
G37*
G36*
X39877395Y-11545546D02*
G01*
X40050466Y-11617234D01*
X40127818Y-11668919D01*
X40206227Y-11721310D01*
X40338690Y-11853773D01*
X40391081Y-11932182D01*
X40442766Y-12009534D01*
X40514454Y-12182605D01*
X40551000Y-12366333D01*
X40551000Y-12553667D01*
X40514454Y-12737395D01*
X40442766Y-12910466D01*
X40442765Y-12910467D01*
X40338690Y-13066227D01*
X40206227Y-13198690D01*
X40127818Y-13251081D01*
X40050466Y-13302766D01*
X39877395Y-13374454D01*
X39693667Y-13411000D01*
X39506333Y-13411000D01*
X39322605Y-13374454D01*
X39149534Y-13302766D01*
X39072182Y-13251081D01*
X38993773Y-13198690D01*
X38861310Y-13066227D01*
X38757235Y-12910467D01*
X38757234Y-12910466D01*
X38685546Y-12737395D01*
X38649000Y-12553667D01*
X38649000Y-12366333D01*
X38685546Y-12182605D01*
X38757234Y-12009534D01*
X38808919Y-11932182D01*
X38861310Y-11853773D01*
X38993773Y-11721310D01*
X39072182Y-11668919D01*
X39149534Y-11617234D01*
X39322605Y-11545546D01*
X39506333Y-11509000D01*
X39693667Y-11509000D01*
X39877395Y-11545546D01*
X39877395Y-11545546D01*
G37*
G36*
X57781938Y-12421716D02*
G01*
X57802557Y-12427971D01*
X57821553Y-12438124D01*
X57838208Y-12451792D01*
X57851876Y-12468447D01*
X57862029Y-12487443D01*
X57868284Y-12508062D01*
X57871000Y-12535640D01*
X57871000Y-12994360D01*
X57868284Y-13021938D01*
X57862029Y-13042557D01*
X57851876Y-13061553D01*
X57838208Y-13078208D01*
X57821553Y-13091876D01*
X57802557Y-13102029D01*
X57781938Y-13108284D01*
X57754360Y-13111000D01*
X57245640Y-13111000D01*
X57218062Y-13108284D01*
X57197443Y-13102029D01*
X57178447Y-13091876D01*
X57161792Y-13078208D01*
X57148124Y-13061553D01*
X57137971Y-13042557D01*
X57131716Y-13021938D01*
X57129000Y-12994360D01*
X57129000Y-12535640D01*
X57131716Y-12508062D01*
X57137971Y-12487443D01*
X57148124Y-12468447D01*
X57161792Y-12451792D01*
X57178447Y-12438124D01*
X57197443Y-12427971D01*
X57218062Y-12421716D01*
X57245640Y-12419000D01*
X57754360Y-12419000D01*
X57781938Y-12421716D01*
X57781938Y-12421716D01*
G37*
G36*
X51681938Y-12421716D02*
G01*
X51702557Y-12427971D01*
X51721553Y-12438124D01*
X51738208Y-12451792D01*
X51751876Y-12468447D01*
X51762029Y-12487443D01*
X51768284Y-12508062D01*
X51771000Y-12535640D01*
X51771000Y-12994360D01*
X51768284Y-13021938D01*
X51762029Y-13042557D01*
X51751876Y-13061553D01*
X51738208Y-13078208D01*
X51721553Y-13091876D01*
X51702557Y-13102029D01*
X51681938Y-13108284D01*
X51654360Y-13111000D01*
X51145640Y-13111000D01*
X51118062Y-13108284D01*
X51097443Y-13102029D01*
X51078447Y-13091876D01*
X51061792Y-13078208D01*
X51048124Y-13061553D01*
X51037971Y-13042557D01*
X51031716Y-13021938D01*
X51029000Y-12994360D01*
X51029000Y-12535640D01*
X51031716Y-12508062D01*
X51037971Y-12487443D01*
X51048124Y-12468447D01*
X51061792Y-12451792D01*
X51078447Y-12438124D01*
X51097443Y-12427971D01*
X51118062Y-12421716D01*
X51145640Y-12419000D01*
X51654360Y-12419000D01*
X51681938Y-12421716D01*
X51681938Y-12421716D01*
G37*
G36*
X56251000Y-12751000D02*
G01*
X55249000Y-12751000D01*
X55249000Y-11849000D01*
X56251000Y-11849000D01*
X56251000Y-12751000D01*
X56251000Y-12751000D01*
G37*
M02*
