M48
;DRILL file {KiCad 5.0.2-bee76a0~70~ubuntu16.04.1} date Thu Feb 21 17:52:01 2019
;FORMAT={-:-/ absolute / metric / decimal}
FMAT,2
METRIC,TZ
T1C0.400
T2C0.500
T3C0.600
T4C0.900
T5C1.000
T6C1.200
T7C1.300
%
G90
G05
T1
X6.586Y-16.358
X8.5Y-19.
X9.319Y-15.037
X15.Y-7.3
X15.Y-18.
X15.7Y-32.15
X19.Y-24.5
X19.Y-26.45
X19.5Y-12.5
X21.45Y-1.
X22.Y-31.
X23.4Y-23.3
X24.5Y-7.3
X25.6Y-23.5
X25.8Y-20.
X27.2Y-17.725
X32.Y-15.5
X33.Y-8.85
X34.15Y-8.85
X35.7Y-25.75
X36.5Y-27.25
X37.Y-20.25
X37.1Y-9.9
X37.1Y-15.5
X38.9Y-12.6
X39.Y-28.
X39.149Y-15.755
X39.95Y-27.25
X41.Y-25.65
X41.75Y-13.25
X41.75Y-26.5
X42.5Y-22.925
X42.8Y-24.3
X43.Y-19.525
X43.Y-20.5
X43.Y-29.5
X43.Y-30.5
X44.Y-19.525
X44.Y-30.5
X44.1Y-13.8
X44.75Y-32.15
X44.75Y-33.25
X46.45Y-27.5
X46.5Y-22.5
X46.65Y-13.1
X47.Y-14.575
X48.5Y-25.
X49.75Y-13.3
X50.5Y-22.5
X50.5Y-27.5
X50.65Y-16.3
X50.8Y-9.9
X50.85Y-17.7
X50.958Y-31.658
X52.Y-25.
X52.075Y-31.5
X53.5Y-22.5
X54.8Y-21.75
X54.8Y-22.85
X55.Y-17.95
X55.Y-18.75
X55.65Y-21.75
X55.65Y-22.85
X55.8Y-17.95
X55.8Y-18.75
X55.8Y-31.
X55.8Y-31.8
T2
X40.Y-20.65
X40.Y-22.55
T4
X52.16Y-3.5
X54.7Y-3.5
X3.15Y-9.2
X5.69Y-9.2
X8.23Y-9.2
X32.76Y-3.5
X35.3Y-3.5
T5
X44.32Y-34.73
X44.32Y-37.27
X46.86Y-34.73
X46.86Y-37.27
X49.4Y-34.73
X49.4Y-37.27
X51.94Y-34.73
X51.94Y-37.27
X54.48Y-34.73
X54.48Y-37.27
T6
X23.46Y-36.
X26.Y-36.
X33.96Y-36.
X36.5Y-36.
T7
X18.5Y-5.
X23.5Y-5.
T3
X3.75Y-31.5G85X4.45Y-31.5
G05
X3.75Y-38.5G85X4.45Y-38.5
G05
X13.05Y-32.9G85X13.75Y-32.9
G05
X13.4Y-35.35G85X13.4Y-34.65
G05
X13.05Y-36.6G85X13.75Y-36.6
G05
X13.05Y-37.9G85X13.75Y-37.9
G05
T0
M30
