G04 #@! TF.GenerationSoftware,KiCad,Pcbnew,5.0.2-bee76a0~70~ubuntu16.04.1*
G04 #@! TF.CreationDate,2019-02-21T16:48:33+05:30*
G04 #@! TF.ProjectId,senseBe_rev2,73656e73-6542-4655-9f72-6576322e6b69,rev?*
G04 #@! TF.SameCoordinates,Original*
G04 #@! TF.FileFunction,Copper,L1,Top*
G04 #@! TF.FilePolarity,Positive*
%FSLAX46Y46*%
G04 Gerber Fmt 4.6, Leading zero omitted, Abs format (unit mm)*
G04 Created by KiCad (PCBNEW 5.0.2-bee76a0~70~ubuntu16.04.1) date Thu Feb 21 16:48:33 2019*
%MOMM*%
%LPD*%
G01*
G04 APERTURE LIST*
G04 #@! TA.AperFunction,ComponentPad*
%ADD10C,2.600000*%
G04 #@! TD*
G04 #@! TA.AperFunction,SMDPad,CuDef*
%ADD11R,1.200000X0.900000*%
G04 #@! TD*
G04 #@! TA.AperFunction,SMDPad,CuDef*
%ADD12R,1.250000X1.500000*%
G04 #@! TD*
G04 #@! TA.AperFunction,Conductor*
%ADD13C,0.100000*%
G04 #@! TD*
G04 #@! TA.AperFunction,ComponentPad*
%ADD14C,1.800000*%
G04 #@! TD*
G04 #@! TA.AperFunction,SMDPad,CuDef*
%ADD15R,0.500000X0.200000*%
G04 #@! TD*
G04 #@! TA.AperFunction,SMDPad,CuDef*
%ADD16R,0.750000X1.200000*%
G04 #@! TD*
G04 #@! TA.AperFunction,SMDPad,CuDef*
%ADD17R,1.200000X0.750000*%
G04 #@! TD*
G04 #@! TA.AperFunction,SMDPad,CuDef*
%ADD18R,1.500000X1.250000*%
G04 #@! TD*
G04 #@! TA.AperFunction,SMDPad,CuDef*
%ADD19R,0.700000X0.500000*%
G04 #@! TD*
G04 #@! TA.AperFunction,ComponentPad*
%ADD20R,1.800000X1.800000*%
G04 #@! TD*
G04 #@! TA.AperFunction,ComponentPad*
%ADD21O,1.700000X1.000000*%
G04 #@! TD*
G04 #@! TA.AperFunction,ComponentPad*
%ADD22O,1.000000X1.700000*%
G04 #@! TD*
G04 #@! TA.AperFunction,SMDPad,CuDef*
%ADD23R,1.300000X0.700000*%
G04 #@! TD*
G04 #@! TA.AperFunction,WasherPad*
%ADD24C,1.600000*%
G04 #@! TD*
G04 #@! TA.AperFunction,ComponentPad*
%ADD25C,1.600000*%
G04 #@! TD*
G04 #@! TA.AperFunction,SMDPad,CuDef*
%ADD26R,0.800000X0.900000*%
G04 #@! TD*
G04 #@! TA.AperFunction,SMDPad,CuDef*
%ADD27R,0.200000X0.500000*%
G04 #@! TD*
G04 #@! TA.AperFunction,SMDPad,CuDef*
%ADD28R,0.900000X1.200000*%
G04 #@! TD*
G04 #@! TA.AperFunction,ComponentPad*
%ADD29R,2.000000X2.600000*%
G04 #@! TD*
G04 #@! TA.AperFunction,ComponentPad*
%ADD30O,2.000000X2.600000*%
G04 #@! TD*
G04 #@! TA.AperFunction,BGAPad,CuDef*
%ADD31C,1.500000*%
G04 #@! TD*
G04 #@! TA.AperFunction,SMDPad,CuDef*
%ADD32R,1.600000X0.500000*%
G04 #@! TD*
G04 #@! TA.AperFunction,SMDPad,CuDef*
%ADD33R,0.500000X1.600000*%
G04 #@! TD*
G04 #@! TA.AperFunction,SMDPad,CuDef*
%ADD34R,0.900000X1.600000*%
G04 #@! TD*
G04 #@! TA.AperFunction,SMDPad,CuDef*
%ADD35R,0.500000X1.200000*%
G04 #@! TD*
G04 #@! TA.AperFunction,SMDPad,CuDef*
%ADD36R,0.600000X1.300000*%
G04 #@! TD*
G04 #@! TA.AperFunction,SMDPad,CuDef*
%ADD37R,0.800000X0.300000*%
G04 #@! TD*
G04 #@! TA.AperFunction,ComponentPad*
%ADD38C,1.000000*%
G04 #@! TD*
G04 #@! TA.AperFunction,ViaPad*
%ADD39C,0.800000*%
G04 #@! TD*
G04 #@! TA.AperFunction,Conductor*
%ADD40C,0.250000*%
G04 #@! TD*
G04 #@! TA.AperFunction,Conductor*
%ADD41C,0.150000*%
G04 #@! TD*
G04 #@! TA.AperFunction,Conductor*
%ADD42C,0.254000*%
G04 #@! TD*
G04 APERTURE END LIST*
D10*
G04 #@! TO.P,L3,1*
G04 #@! TO.N,Net-(L3-Pad1)*
X18500000Y-5000000D03*
G04 #@! TO.P,L3,2*
G04 #@! TO.N,/Sheet5C63BFE7/VLED*
X23500000Y-5000000D03*
G04 #@! TD*
D11*
G04 #@! TO.P,R7,1*
G04 #@! TO.N,/RX_EN*
X37900000Y-29500000D03*
G04 #@! TO.P,R7,2*
G04 #@! TO.N,GND*
X40100000Y-29500000D03*
G04 #@! TD*
D12*
G04 #@! TO.P,C10,2*
G04 #@! TO.N,GND*
X22200000Y-16250000D03*
G04 #@! TO.P,C10,1*
G04 #@! TO.N,VDD*
X22200000Y-13750000D03*
G04 #@! TD*
D13*
G04 #@! TO.N,/RX_OUT*
G04 #@! TO.C,U2*
G36*
X3824324Y-8301205D02*
X3848612Y-8304808D01*
X3872429Y-8310774D01*
X3895547Y-8319045D01*
X3917743Y-8329543D01*
X3938804Y-8342166D01*
X3958525Y-8356793D01*
X3976718Y-8373282D01*
X3993207Y-8391475D01*
X4007834Y-8411196D01*
X4020457Y-8432257D01*
X4030955Y-8454453D01*
X4039226Y-8477571D01*
X4045192Y-8501388D01*
X4048795Y-8525676D01*
X4050000Y-8550200D01*
X4050000Y-9849800D01*
X4048795Y-9874324D01*
X4045192Y-9898612D01*
X4039226Y-9922429D01*
X4030955Y-9945547D01*
X4020457Y-9967743D01*
X4007834Y-9988804D01*
X3993207Y-10008525D01*
X3976718Y-10026718D01*
X3958525Y-10043207D01*
X3938804Y-10057834D01*
X3917743Y-10070457D01*
X3895547Y-10080955D01*
X3872429Y-10089226D01*
X3848612Y-10095192D01*
X3824324Y-10098795D01*
X3799800Y-10100000D01*
X2500200Y-10100000D01*
X2475676Y-10098795D01*
X2451388Y-10095192D01*
X2427571Y-10089226D01*
X2404453Y-10080955D01*
X2382257Y-10070457D01*
X2361196Y-10057834D01*
X2341475Y-10043207D01*
X2323282Y-10026718D01*
X2306793Y-10008525D01*
X2292166Y-9988804D01*
X2279543Y-9967743D01*
X2269045Y-9945547D01*
X2260774Y-9922429D01*
X2254808Y-9898612D01*
X2251205Y-9874324D01*
X2250000Y-9849800D01*
X2250000Y-8550200D01*
X2251205Y-8525676D01*
X2254808Y-8501388D01*
X2260774Y-8477571D01*
X2269045Y-8454453D01*
X2279543Y-8432257D01*
X2292166Y-8411196D01*
X2306793Y-8391475D01*
X2323282Y-8373282D01*
X2341475Y-8356793D01*
X2361196Y-8342166D01*
X2382257Y-8329543D01*
X2404453Y-8319045D01*
X2427571Y-8310774D01*
X2451388Y-8304808D01*
X2475676Y-8301205D01*
X2500200Y-8300000D01*
X3799800Y-8300000D01*
X3824324Y-8301205D01*
X3824324Y-8301205D01*
G37*
D14*
G04 #@! TD*
G04 #@! TO.P,U2,1*
G04 #@! TO.N,/RX_OUT*
X3150000Y-9200000D03*
G04 #@! TO.P,U2,2*
G04 #@! TO.N,Net-(Q3-Pad1)*
X5690000Y-9200000D03*
G04 #@! TO.P,U2,3*
G04 #@! TO.N,VDD*
X8230000Y-9200000D03*
G04 #@! TD*
D15*
G04 #@! TO.P,Q2,1*
G04 #@! TO.N,GND*
X23950000Y-19650000D03*
G04 #@! TO.P,Q2,2*
G04 #@! TO.N,/LED_RED*
X23950000Y-20000000D03*
G04 #@! TO.P,Q2,3*
G04 #@! TO.N,GND*
X23950000Y-20350000D03*
G04 #@! TO.P,Q2,4*
G04 #@! TO.N,Net-(Q2-Pad4)*
X25050000Y-20350000D03*
G04 #@! TO.P,Q2,5*
G04 #@! TO.N,/LED_GREEN*
X25050000Y-20000000D03*
G04 #@! TO.P,Q2,6*
G04 #@! TO.N,Net-(Q2-Pad6)*
X25050000Y-19650000D03*
G04 #@! TD*
D16*
G04 #@! TO.P,C1,1*
G04 #@! TO.N,GND*
X49750000Y-16300000D03*
G04 #@! TO.P,C1,2*
G04 #@! TO.N,/DEC4*
X49750000Y-18200000D03*
G04 #@! TD*
D17*
G04 #@! TO.P,C2,1*
G04 #@! TO.N,GND*
X35550000Y-32000000D03*
G04 #@! TO.P,C2,2*
G04 #@! TO.N,/BUTTON*
X37450000Y-32000000D03*
G04 #@! TD*
D18*
G04 #@! TO.P,C3,2*
G04 #@! TO.N,GND*
X20250000Y-32000000D03*
G04 #@! TO.P,C3,1*
G04 #@! TO.N,VDD*
X17750000Y-32000000D03*
G04 #@! TD*
D17*
G04 #@! TO.P,C4,1*
G04 #@! TO.N,GND*
X38050000Y-19200000D03*
G04 #@! TO.P,C4,2*
G04 #@! TO.N,/LFCLK_XL1*
X39950000Y-19200000D03*
G04 #@! TD*
D16*
G04 #@! TO.P,C5,2*
G04 #@! TO.N,VDD*
X42700000Y-18200000D03*
G04 #@! TO.P,C5,1*
G04 #@! TO.N,GND*
X42700000Y-16300000D03*
G04 #@! TD*
G04 #@! TO.P,C6,2*
G04 #@! TO.N,VDD*
X44200000Y-18200000D03*
G04 #@! TO.P,C6,1*
G04 #@! TO.N,GND*
X44200000Y-16300000D03*
G04 #@! TD*
D17*
G04 #@! TO.P,C7,2*
G04 #@! TO.N,/LFCLK_XL2*
X39950000Y-24000000D03*
G04 #@! TO.P,C7,1*
G04 #@! TO.N,GND*
X38050000Y-24000000D03*
G04 #@! TD*
D16*
G04 #@! TO.P,C8,2*
G04 #@! TO.N,GND*
X8500000Y-16000000D03*
G04 #@! TO.P,C8,1*
G04 #@! TO.N,VDD*
X8500000Y-14100000D03*
G04 #@! TD*
G04 #@! TO.P,C9,2*
G04 #@! TO.N,GND*
X19500000Y-15950000D03*
G04 #@! TO.P,C9,1*
G04 #@! TO.N,/Sheet5C63BFE7/VLED*
X19500000Y-14050000D03*
G04 #@! TD*
D12*
G04 #@! TO.P,C11,1*
G04 #@! TO.N,/Sheet5C63BFE7/VLED*
X15000000Y-13750000D03*
G04 #@! TO.P,C11,2*
G04 #@! TO.N,Net-(C11-Pad2)*
X15000000Y-16250000D03*
G04 #@! TD*
D19*
G04 #@! TO.P,D1,2*
G04 #@! TO.N,Net-(D1-Pad2)*
X33300000Y-20400000D03*
G04 #@! TO.P,D1,1*
G04 #@! TO.N,VDD*
X34700000Y-20400000D03*
G04 #@! TO.P,D1,3*
X34700000Y-19600000D03*
G04 #@! TO.P,D1,4*
G04 #@! TO.N,Net-(D1-Pad4)*
X33300000Y-19600000D03*
G04 #@! TD*
D20*
G04 #@! TO.P,D2,1*
G04 #@! TO.N,/LIGHT_SENSE*
X35300000Y-3500000D03*
D14*
G04 #@! TO.P,D2,2*
G04 #@! TO.N,GND*
X32760000Y-3500000D03*
G04 #@! TD*
G04 #@! TO.P,D3,2*
G04 #@! TO.N,/Sheet5C63BFE7/VLED*
X52160000Y-3500000D03*
D20*
G04 #@! TO.P,D3,1*
G04 #@! TO.N,Net-(D3-Pad1)*
X54700000Y-3500000D03*
G04 #@! TD*
D21*
G04 #@! TO.P,J1,1*
G04 #@! TO.N,GND*
X13400000Y-37900000D03*
D22*
G04 #@! TO.P,J1,2*
G04 #@! TO.N,/TRIGGER*
X13400000Y-35000000D03*
D21*
G04 #@! TO.P,J1,3*
G04 #@! TO.N,/FOCUS*
X13400000Y-36600000D03*
G04 #@! TO.P,J1,4*
G04 #@! TO.N,/TRIGGER*
X13400000Y-32900000D03*
G04 #@! TO.P,J1,*
G04 #@! TO.N,*
X4100000Y-38500000D03*
X4100000Y-31500000D03*
G04 #@! TD*
D23*
G04 #@! TO.P,L1,1*
G04 #@! TO.N,/DEC4*
X47900000Y-18200000D03*
G04 #@! TO.P,L1,2*
G04 #@! TO.N,Net-(L1-Pad2)*
X47900000Y-16300000D03*
G04 #@! TD*
G04 #@! TO.P,L2,2*
G04 #@! TO.N,/DCC*
X46000000Y-18200000D03*
G04 #@! TO.P,L2,1*
G04 #@! TO.N,Net-(L1-Pad2)*
X46000000Y-16300000D03*
G04 #@! TD*
D24*
G04 #@! TO.P,P1,*
G04 #@! TO.N,*
X41780000Y-34730000D03*
X57020000Y-37270000D03*
D25*
G04 #@! TO.P,P1,1*
G04 #@! TO.N,/SWDIO*
X54480000Y-34730000D03*
G04 #@! TO.P,P1,3*
G04 #@! TO.N,/SWDCLK*
X51940000Y-34730000D03*
G04 #@! TO.P,P1,5*
G04 #@! TO.N,/RESET*
X49400000Y-34730000D03*
G04 #@! TO.P,P1,7*
G04 #@! TO.N,/GPIO2*
X46860000Y-34730000D03*
G04 #@! TO.P,P1,9*
G04 #@! TO.N,GND*
X44320000Y-34730000D03*
G04 #@! TO.P,P1,10*
X44320000Y-37270000D03*
G04 #@! TO.P,P1,8*
G04 #@! TO.N,/RX*
X46860000Y-37270000D03*
G04 #@! TO.P,P1,6*
G04 #@! TO.N,/GPIO1*
X49400000Y-37270000D03*
G04 #@! TO.P,P1,4*
G04 #@! TO.N,VDD*
X51940000Y-37270000D03*
G04 #@! TO.P,P1,2*
G04 #@! TO.N,/TX*
X54480000Y-37270000D03*
D24*
G04 #@! TO.P,P1,*
G04 #@! TO.N,*
X57020000Y-34730000D03*
G04 #@! TD*
D26*
G04 #@! TO.P,Q1,1*
G04 #@! TO.N,GND*
X19950000Y-34000000D03*
G04 #@! TO.P,Q1,2*
G04 #@! TO.N,VDD*
X18050000Y-34000000D03*
G04 #@! TO.P,Q1,3*
G04 #@! TO.N,Net-(BT1-Pad1)*
X19000000Y-36000000D03*
G04 #@! TD*
D27*
G04 #@! TO.P,Q3,1*
G04 #@! TO.N,Net-(Q3-Pad1)*
X37650000Y-28050000D03*
G04 #@! TO.P,Q3,2*
G04 #@! TO.N,/RX_EN*
X38000000Y-28050000D03*
G04 #@! TO.P,Q3,3*
G04 #@! TO.N,Net-(D3-Pad1)*
X38350000Y-28050000D03*
G04 #@! TO.P,Q3,4*
G04 #@! TO.N,GND*
X38350000Y-26950000D03*
G04 #@! TO.P,Q3,5*
G04 #@! TO.N,/IR_LED_EN*
X38000000Y-26950000D03*
G04 #@! TO.P,Q3,6*
G04 #@! TO.N,GND*
X37650000Y-26950000D03*
G04 #@! TD*
D15*
G04 #@! TO.P,Q4,6*
G04 #@! TO.N,Net-(Q4-Pad6)*
X46050000Y-13650000D03*
G04 #@! TO.P,Q4,5*
G04 #@! TO.N,/PWR2*
X46050000Y-14000000D03*
G04 #@! TO.P,Q4,4*
G04 #@! TO.N,GND*
X46050000Y-14350000D03*
G04 #@! TO.P,Q4,3*
G04 #@! TO.N,Net-(Q4-Pad3)*
X44950000Y-14350000D03*
G04 #@! TO.P,Q4,2*
G04 #@! TO.N,/PWR1*
X44950000Y-14000000D03*
G04 #@! TO.P,Q4,1*
G04 #@! TO.N,GND*
X44950000Y-13650000D03*
G04 #@! TD*
D11*
G04 #@! TO.P,R1,2*
G04 #@! TO.N,GND*
X25600000Y-18000000D03*
G04 #@! TO.P,R1,1*
G04 #@! TO.N,/LED_RED*
X23400000Y-18000000D03*
G04 #@! TD*
G04 #@! TO.P,R2,2*
G04 #@! TO.N,Net-(D1-Pad2)*
X30100000Y-21000000D03*
G04 #@! TO.P,R2,1*
G04 #@! TO.N,Net-(Q2-Pad4)*
X27900000Y-21000000D03*
G04 #@! TD*
G04 #@! TO.P,R3,1*
G04 #@! TO.N,Net-(Q2-Pad6)*
X27900000Y-19000000D03*
G04 #@! TO.P,R3,2*
G04 #@! TO.N,Net-(D1-Pad4)*
X30100000Y-19000000D03*
G04 #@! TD*
G04 #@! TO.P,R4,1*
G04 #@! TO.N,/LED_GREEN*
X25600000Y-22000000D03*
G04 #@! TO.P,R4,2*
G04 #@! TO.N,GND*
X23400000Y-22000000D03*
G04 #@! TD*
D28*
G04 #@! TO.P,R5,2*
G04 #@! TO.N,/LIGHT_SENSE*
X30000000Y-2450000D03*
G04 #@! TO.P,R5,1*
G04 #@! TO.N,/LIGHT_SENSE_EN*
X30000000Y-4650000D03*
G04 #@! TD*
G04 #@! TO.P,R6,2*
G04 #@! TO.N,GND*
X5700000Y-16150000D03*
G04 #@! TO.P,R6,1*
G04 #@! TO.N,Net-(Q3-Pad1)*
X5700000Y-13950000D03*
G04 #@! TD*
D11*
G04 #@! TO.P,R8,1*
G04 #@! TO.N,/IR_LED_EN*
X36900000Y-25750000D03*
G04 #@! TO.P,R8,2*
G04 #@! TO.N,GND*
X39100000Y-25750000D03*
G04 #@! TD*
G04 #@! TO.P,R9,2*
G04 #@! TO.N,GND*
X39150000Y-16750000D03*
G04 #@! TO.P,R9,1*
G04 #@! TO.N,/REG_EN*
X36950000Y-16750000D03*
G04 #@! TD*
D28*
G04 #@! TO.P,R10,1*
G04 #@! TO.N,/PWR1*
X49750000Y-12100000D03*
G04 #@! TO.P,R10,2*
G04 #@! TO.N,GND*
X49750000Y-9900000D03*
G04 #@! TD*
G04 #@! TO.P,R11,2*
G04 #@! TO.N,Net-(C11-Pad2)*
X17500000Y-16100000D03*
G04 #@! TO.P,R11,1*
G04 #@! TO.N,/Sheet5C63BFE7/VLED*
X17500000Y-13900000D03*
G04 #@! TD*
G04 #@! TO.P,R12,1*
G04 #@! TO.N,Net-(C11-Pad2)*
X45750000Y-9900000D03*
G04 #@! TO.P,R12,2*
G04 #@! TO.N,GND*
X45750000Y-12100000D03*
G04 #@! TD*
G04 #@! TO.P,R13,2*
G04 #@! TO.N,Net-(Q4-Pad6)*
X41750000Y-12100000D03*
G04 #@! TO.P,R13,1*
G04 #@! TO.N,Net-(C11-Pad2)*
X41750000Y-9900000D03*
G04 #@! TD*
G04 #@! TO.P,R14,2*
G04 #@! TO.N,GND*
X47750000Y-9900000D03*
G04 #@! TO.P,R14,1*
G04 #@! TO.N,/PWR2*
X47750000Y-12100000D03*
G04 #@! TD*
G04 #@! TO.P,R15,1*
G04 #@! TO.N,Net-(C11-Pad2)*
X43750000Y-9900000D03*
G04 #@! TO.P,R15,2*
G04 #@! TO.N,Net-(Q4-Pad3)*
X43750000Y-12100000D03*
G04 #@! TD*
D29*
G04 #@! TO.P,SW2,1*
G04 #@! TO.N,GND*
X36500000Y-36000000D03*
D30*
G04 #@! TO.P,SW2,2*
G04 #@! TO.N,/BUTTON*
X33960000Y-36000000D03*
G04 #@! TD*
D31*
G04 #@! TO.P,TP1,1*
G04 #@! TO.N,Net-(C11-Pad2)*
X40000000Y-9900000D03*
G04 #@! TD*
D32*
G04 #@! TO.P,U1,12*
G04 #@! TO.N,GND*
X44250000Y-20700000D03*
D33*
G04 #@! TO.P,U1,2*
G04 #@! TO.N,/PWR1*
X52800000Y-20250000D03*
D34*
G04 #@! TO.P,U1,1*
G04 #@! TO.N,GND*
X55800000Y-20250000D03*
D33*
G04 #@! TO.P,U1,3*
G04 #@! TO.N,/PWR2*
X52100000Y-20250000D03*
G04 #@! TO.P,U1,4*
G04 #@! TO.N,/REG_EN*
X51400000Y-20250000D03*
G04 #@! TO.P,U1,5*
G04 #@! TO.N,/LIGHT_SENSE*
X50700000Y-20250000D03*
G04 #@! TO.P,U1,6*
G04 #@! TO.N,N/C*
X50000000Y-20250000D03*
G04 #@! TO.P,U1,7*
X49300000Y-20250000D03*
G04 #@! TO.P,U1,8*
G04 #@! TO.N,VDD*
X48600000Y-20250000D03*
G04 #@! TO.P,U1,9*
G04 #@! TO.N,/DEC4*
X47900000Y-20250000D03*
G04 #@! TO.P,U1,10*
G04 #@! TO.N,/DCC*
X47200000Y-20250000D03*
G04 #@! TO.P,U1,11*
G04 #@! TO.N,VDD*
X46500000Y-20250000D03*
D32*
G04 #@! TO.P,U1,13*
G04 #@! TO.N,/LFCLK_XL1*
X44250000Y-21500000D03*
G04 #@! TO.P,U1,14*
G04 #@! TO.N,/LFCLK_XL2*
X44250000Y-22200000D03*
G04 #@! TO.P,U1,15*
G04 #@! TO.N,/LIGHT_SENSE_EN*
X44250000Y-22900000D03*
G04 #@! TO.P,U1,16*
G04 #@! TO.N,/LED_RED*
X44250000Y-23600000D03*
G04 #@! TO.P,U1,17*
G04 #@! TO.N,/LED_GREEN*
X44250000Y-24300000D03*
G04 #@! TO.P,U1,18*
G04 #@! TO.N,/IR_LED_EN*
X44250000Y-25000000D03*
G04 #@! TO.P,U1,19*
G04 #@! TO.N,/RX_OUT*
X44250000Y-25700000D03*
G04 #@! TO.P,U1,20*
G04 #@! TO.N,/RX_EN*
X44250000Y-26400000D03*
G04 #@! TO.P,U1,21*
G04 #@! TO.N,/BUTTON*
X44250000Y-27100000D03*
G04 #@! TO.P,U1,22*
G04 #@! TO.N,N/C*
X44250000Y-27800000D03*
G04 #@! TO.P,U1,23*
X44250000Y-28500000D03*
G04 #@! TO.P,U1,24*
G04 #@! TO.N,GND*
X44250000Y-29200000D03*
D33*
G04 #@! TO.P,U1,25*
G04 #@! TO.N,N/C*
X45800000Y-29750000D03*
G04 #@! TO.P,U1,26*
G04 #@! TO.N,/FOCUS*
X46500000Y-29750000D03*
G04 #@! TO.P,U1,27*
G04 #@! TO.N,/TRIGGER*
X47200000Y-29750000D03*
G04 #@! TO.P,U1,28*
G04 #@! TO.N,N/C*
X47900000Y-29750000D03*
G04 #@! TO.P,U1,29*
X48600000Y-29750000D03*
G04 #@! TO.P,U1,30*
X49300000Y-29750000D03*
G04 #@! TO.P,U1,31*
G04 #@! TO.N,/RX*
X50000000Y-29750000D03*
G04 #@! TO.P,U1,32*
G04 #@! TO.N,/GPIO2*
X50700000Y-29750000D03*
G04 #@! TO.P,U1,33*
G04 #@! TO.N,/GPIO1*
X51400000Y-29750000D03*
G04 #@! TO.P,U1,34*
G04 #@! TO.N,/TX*
X52100000Y-29750000D03*
G04 #@! TO.P,U1,35*
G04 #@! TO.N,/RESET*
X52800000Y-29750000D03*
G04 #@! TO.P,U1,36*
G04 #@! TO.N,/SWDCLK*
X53500000Y-29750000D03*
G04 #@! TO.P,U1,37*
G04 #@! TO.N,/SWDIO*
X54200000Y-29750000D03*
G04 #@! TO.P,U1,38*
G04 #@! TO.N,N/C*
X54900000Y-29750000D03*
D34*
G04 #@! TO.P,U1,39*
G04 #@! TO.N,GND*
X55800000Y-29750000D03*
D35*
G04 #@! TO.P,U1,40*
G04 #@! TO.N,N/C*
X55250000Y-27900000D03*
G04 #@! TO.P,U1,41*
X53850000Y-27900000D03*
G04 #@! TD*
D36*
G04 #@! TO.P,U3,EP*
G04 #@! TO.N,N/C*
X38000000Y-14000000D03*
D37*
G04 #@! TO.P,U3,2*
G04 #@! TO.N,GND*
X38900000Y-14000000D03*
G04 #@! TO.P,U3,5*
G04 #@! TO.N,VDD*
X37100000Y-14000000D03*
G04 #@! TO.P,U3,4*
G04 #@! TO.N,Net-(L3-Pad1)*
X37100000Y-13500000D03*
G04 #@! TO.P,U3,6*
G04 #@! TO.N,Net-(C11-Pad2)*
X37100000Y-14500000D03*
G04 #@! TO.P,U3,1*
G04 #@! TO.N,/REG_EN*
X38900000Y-14500000D03*
G04 #@! TO.P,U3,3*
G04 #@! TO.N,GND*
X38900000Y-13500000D03*
G04 #@! TD*
D38*
G04 #@! TO.P,Y1,1*
G04 #@! TO.N,/LFCLK_XL1*
X40000000Y-20650000D03*
G04 #@! TO.P,Y1,2*
G04 #@! TO.N,/LFCLK_XL2*
X40000000Y-22550000D03*
G04 #@! TD*
D29*
G04 #@! TO.P,BT1,1*
G04 #@! TO.N,Net-(BT1-Pad1)*
X26000000Y-36000000D03*
D30*
G04 #@! TO.P,BT1,2*
G04 #@! TO.N,GND*
X23460000Y-36000000D03*
G04 #@! TD*
D39*
G04 #@! TO.N,GND*
X46500000Y-22500000D03*
X50500000Y-27500000D03*
X50500000Y-22500000D03*
X46450000Y-27500000D03*
X23400000Y-23300000D03*
X37000000Y-20250000D03*
X43000000Y-30500000D03*
X44000000Y-30500000D03*
X43000000Y-29500000D03*
X43000000Y-19525000D03*
X44000000Y-19525000D03*
X43000000Y-20500000D03*
X55800000Y-31000000D03*
X55800000Y-31800000D03*
X55800000Y-18750000D03*
X55800000Y-17950000D03*
X55000000Y-17950000D03*
X55000000Y-18750000D03*
X48500000Y-25000000D03*
X52000000Y-25000000D03*
X53500000Y-22500000D03*
X54800000Y-21750000D03*
X55650000Y-21750000D03*
X55650000Y-22850000D03*
X54800000Y-22850000D03*
X22000000Y-31000000D03*
X27200000Y-17725000D03*
X47000000Y-14575000D03*
X50650000Y-16300000D03*
X50800000Y-9900000D03*
X38900000Y-12600000D03*
X39148708Y-15754740D03*
X39950000Y-27250000D03*
X36500000Y-27250000D03*
G04 #@! TO.N,VDD*
X8500000Y-19000000D03*
G04 #@! TO.N,/Sheet5C63BFE7/VLED*
X19500000Y-12500000D03*
G04 #@! TO.N,Net-(C11-Pad2)*
X37100000Y-15500000D03*
X24500000Y-7300000D03*
X15000000Y-7300000D03*
X15000000Y-18000000D03*
X37100000Y-9900000D03*
G04 #@! TO.N,/LIGHT_SENSE*
X50850000Y-17700000D03*
X34150000Y-8850000D03*
G04 #@! TO.N,Net-(D3-Pad1)*
X39000000Y-28000000D03*
X19000000Y-26450000D03*
X19000000Y-24500000D03*
X21450000Y-1000000D03*
G04 #@! TO.N,/TRIGGER*
X44750000Y-33250000D03*
G04 #@! TO.N,/FOCUS*
X44750000Y-32150000D03*
X15700000Y-32150000D03*
G04 #@! TO.N,Net-(L3-Pad1)*
X32000000Y-15500000D03*
G04 #@! TO.N,/GPIO1*
X50957653Y-31657653D03*
G04 #@! TO.N,/TX*
X52075000Y-31500000D03*
G04 #@! TO.N,/LED_GREEN*
X42800000Y-24300000D03*
X25600000Y-23500000D03*
X25800000Y-20000000D03*
G04 #@! TO.N,/IR_LED_EN*
X35700000Y-25750000D03*
X41000000Y-25650000D03*
G04 #@! TO.N,Net-(Q4-Pad6)*
X41750000Y-13250000D03*
X46650000Y-13100000D03*
G04 #@! TO.N,/PWR1*
X44100000Y-13800000D03*
X49750000Y-13300000D03*
G04 #@! TO.N,/LIGHT_SENSE_EN*
X42500000Y-22925000D03*
X33000000Y-8850000D03*
G04 #@! TO.N,/RX_OUT*
X41750000Y-26500000D03*
G04 #@! TD*
D40*
G04 #@! TO.N,GND*
X36200000Y-35700000D02*
X36500000Y-36000000D01*
X38050000Y-24000000D02*
X38050000Y-19200000D01*
X19950000Y-32300000D02*
X20250000Y-32000000D01*
X19950000Y-34000000D02*
X19950000Y-32300000D01*
X23400000Y-22000000D02*
X23400000Y-23300000D01*
X38050000Y-19200000D02*
X37000000Y-20250000D01*
X44250000Y-29250000D02*
X43000000Y-30500000D01*
X44250000Y-29200000D02*
X44250000Y-29250000D01*
X44175000Y-20700000D02*
X43000000Y-19525000D01*
X44250000Y-20700000D02*
X44175000Y-20700000D01*
X55800000Y-29750000D02*
X55800000Y-31000000D01*
X55800000Y-20250000D02*
X55800000Y-18750000D01*
X21000000Y-32000000D02*
X22000000Y-31000000D01*
X20250000Y-32000000D02*
X21000000Y-32000000D01*
D13*
X26925000Y-18000000D02*
X27200000Y-17725000D01*
X25600000Y-18000000D02*
X26925000Y-18000000D01*
D40*
X23460000Y-35700000D02*
X23460000Y-36000000D01*
X21760000Y-34000000D02*
X23460000Y-35700000D01*
X19950000Y-34000000D02*
X21760000Y-34000000D01*
X38900000Y-13500000D02*
X38900000Y-14000000D01*
X44950000Y-12900000D02*
X45750000Y-12100000D01*
X44950000Y-13650000D02*
X44950000Y-12900000D01*
X23400000Y-20900000D02*
X23950000Y-20350000D01*
X23400000Y-22000000D02*
X23400000Y-20900000D01*
X23950000Y-19650000D02*
X25600000Y-18000000D01*
X42250000Y-16750000D02*
X42700000Y-16300000D01*
X39150000Y-16750000D02*
X42250000Y-16750000D01*
X42700000Y-16300000D02*
X44200000Y-16300000D01*
X46775000Y-14350000D02*
X47000000Y-14575000D01*
X46050000Y-14350000D02*
X46775000Y-14350000D01*
X49750000Y-16300000D02*
X50650000Y-16300000D01*
X47750000Y-9950000D02*
X47750000Y-9900000D01*
X45750000Y-11950000D02*
X47750000Y-9950000D01*
X45750000Y-12100000D02*
X45750000Y-11950000D01*
X47750000Y-9900000D02*
X49750000Y-9900000D01*
X49750000Y-9900000D02*
X50800000Y-9900000D01*
X38900000Y-13500000D02*
X38900000Y-12600000D01*
X39150000Y-15756032D02*
X39148708Y-15754740D01*
X39150000Y-16750000D02*
X39150000Y-15756032D01*
X39100000Y-26200000D02*
X38350000Y-26950000D01*
X39100000Y-25750000D02*
X39100000Y-26200000D01*
X39650000Y-26950000D02*
X39950000Y-27250000D01*
X38350000Y-26950000D02*
X39650000Y-26950000D01*
X36800000Y-26950000D02*
X36500000Y-27250000D01*
X37650000Y-26950000D02*
X36800000Y-26950000D01*
G04 #@! TO.N,/DEC4*
X47900000Y-18200000D02*
X47900000Y-20250000D01*
X47900000Y-18200000D02*
X49750000Y-18200000D01*
G04 #@! TO.N,/BUTTON*
X37450000Y-32210000D02*
X37450000Y-32000000D01*
X33960000Y-35700000D02*
X37450000Y-32210000D01*
X33960000Y-36000000D02*
X33960000Y-35700000D01*
X43200000Y-27100000D02*
X42000000Y-28300000D01*
X44250000Y-27100000D02*
X43200000Y-27100000D01*
X42000000Y-28300000D02*
X42000000Y-31150000D01*
X41150000Y-32000000D02*
X37450000Y-32000000D01*
X42000000Y-31150000D02*
X41150000Y-32000000D01*
G04 #@! TO.N,VDD*
X18050000Y-32300000D02*
X17750000Y-32000000D01*
X18050000Y-34000000D02*
X18050000Y-32300000D01*
X46500000Y-21300000D02*
X46850000Y-21650000D01*
X46500000Y-20250000D02*
X46500000Y-21300000D01*
X46850000Y-21650000D02*
X48350000Y-21650000D01*
X48600000Y-21400000D02*
X48600000Y-20250000D01*
X48350000Y-21650000D02*
X48600000Y-21400000D01*
X34700000Y-19600000D02*
X34700000Y-20400000D01*
X46000000Y-20250000D02*
X46500000Y-20250000D01*
X44200000Y-18450000D02*
X46000000Y-20250000D01*
X44200000Y-18200000D02*
X44200000Y-18450000D01*
X42700000Y-18200000D02*
X44200000Y-18200000D01*
X35426998Y-14000000D02*
X34700000Y-14726998D01*
X37100000Y-14000000D02*
X35426998Y-14000000D01*
X26848002Y-16300000D02*
X34700000Y-16300000D01*
X24298002Y-13750000D02*
X26848002Y-16300000D01*
X22200000Y-13750000D02*
X24298002Y-13750000D01*
X34700000Y-16300000D02*
X34700000Y-14726998D01*
X22200000Y-13625000D02*
X22200000Y-13750000D01*
X17775000Y-9200000D02*
X22200000Y-13625000D01*
X8230000Y-9200000D02*
X17775000Y-9200000D01*
X8500000Y-9470000D02*
X8230000Y-9200000D01*
X8500000Y-14100000D02*
X8500000Y-9470000D01*
X42700000Y-18200000D02*
X34700000Y-18200000D01*
X34700000Y-18200000D02*
X34700000Y-16300000D01*
X34700000Y-19600000D02*
X34700000Y-18200000D01*
X50410000Y-38800000D02*
X17800000Y-38800000D01*
X16500000Y-34900000D02*
X17400000Y-34000000D01*
X17800000Y-38800000D02*
X16500000Y-37500000D01*
X17400000Y-34000000D02*
X18050000Y-34000000D01*
X51940000Y-37270000D02*
X50410000Y-38800000D01*
X16500000Y-37500000D02*
X16500000Y-34900000D01*
X8500000Y-22875000D02*
X8500000Y-19000000D01*
X17625000Y-32000000D02*
X8500000Y-22875000D01*
X17750000Y-32000000D02*
X17625000Y-32000000D01*
G04 #@! TO.N,/LFCLK_XL1*
X40850000Y-21500000D02*
X44250000Y-21500000D01*
X40000000Y-20650000D02*
X40850000Y-21500000D01*
X39950000Y-20600000D02*
X40000000Y-20650000D01*
X39950000Y-19200000D02*
X39950000Y-20600000D01*
G04 #@! TO.N,/LFCLK_XL2*
X40350000Y-22200000D02*
X40000000Y-22550000D01*
X44250000Y-22200000D02*
X40350000Y-22200000D01*
X39950000Y-22600000D02*
X40000000Y-22550000D01*
X39950000Y-24000000D02*
X39950000Y-22600000D01*
G04 #@! TO.N,/Sheet5C63BFE7/VLED*
X17350000Y-13750000D02*
X17500000Y-13900000D01*
X15000000Y-13750000D02*
X17350000Y-13750000D01*
X19350000Y-13900000D02*
X19500000Y-14050000D01*
X17500000Y-13900000D02*
X19350000Y-13900000D01*
X19500000Y-14050000D02*
X19500000Y-12500000D01*
G04 #@! TO.N,Net-(C11-Pad2)*
X17350000Y-16250000D02*
X17500000Y-16100000D01*
X15000000Y-16250000D02*
X17350000Y-16250000D01*
X40000000Y-9900000D02*
X41750000Y-9900000D01*
X43750000Y-9900000D02*
X41750000Y-9900000D01*
X43750000Y-9900000D02*
X45750000Y-9900000D01*
X37100000Y-14500000D02*
X37100000Y-15500000D01*
X24500000Y-7300000D02*
X15000000Y-7300000D01*
X15000000Y-18000000D02*
X15000000Y-16250000D01*
X40000000Y-9900000D02*
X37100000Y-9900000D01*
G04 #@! TO.N,Net-(D1-Pad4)*
X30700000Y-19600000D02*
X30100000Y-19000000D01*
X33300000Y-19600000D02*
X30700000Y-19600000D01*
G04 #@! TO.N,Net-(D1-Pad2)*
X30700000Y-20400000D02*
X30100000Y-21000000D01*
X33300000Y-20400000D02*
X30700000Y-20400000D01*
G04 #@! TO.N,/LIGHT_SENSE*
X50850000Y-19050000D02*
X50700000Y-19200000D01*
X50850000Y-17700000D02*
X50850000Y-19050000D01*
X50700000Y-19200000D02*
X50700000Y-20250000D01*
X35300000Y-7700000D02*
X35300000Y-3500000D01*
X34150000Y-8850000D02*
X35300000Y-7700000D01*
X30700000Y-2450000D02*
X30000000Y-2450000D01*
X31550000Y-1600000D02*
X30700000Y-2450000D01*
X34550000Y-1600000D02*
X31550000Y-1600000D01*
X35300000Y-2350000D02*
X34550000Y-1600000D01*
X35300000Y-3500000D02*
X35300000Y-2350000D01*
D41*
G04 #@! TO.N,Net-(D3-Pad1)*
X38950000Y-28050000D02*
X39000000Y-28000000D01*
X38350000Y-28050000D02*
X38950000Y-28050000D01*
X54700000Y-2450000D02*
X54700000Y-3500000D01*
X53250000Y-1000000D02*
X54700000Y-2450000D01*
X21450000Y-1000000D02*
X53250000Y-1000000D01*
X19000000Y-26450000D02*
X19000000Y-24500000D01*
D40*
G04 #@! TO.N,/TRIGGER*
X47200000Y-30800000D02*
X44750000Y-33250000D01*
X47200000Y-29750000D02*
X47200000Y-30800000D01*
G04 #@! TO.N,/FOCUS*
X45150000Y-32150000D02*
X44750000Y-32150000D01*
X46500000Y-30800000D02*
X45150000Y-32150000D01*
X46500000Y-29750000D02*
X46500000Y-30800000D01*
X13750000Y-36600000D02*
X15700000Y-34650000D01*
X15700000Y-32715685D02*
X15700000Y-32150000D01*
X15700000Y-34650000D02*
X15700000Y-32715685D01*
X13400000Y-36600000D02*
X13750000Y-36600000D01*
G04 #@! TO.N,Net-(L1-Pad2)*
X46000000Y-16300000D02*
X47900000Y-16300000D01*
G04 #@! TO.N,/DCC*
X46200000Y-18200000D02*
X46000000Y-18200000D01*
X47200000Y-19200000D02*
X46200000Y-18200000D01*
X47200000Y-20250000D02*
X47200000Y-19200000D01*
G04 #@! TO.N,Net-(L3-Pad1)*
X34000000Y-13500000D02*
X37100000Y-13500000D01*
X32000000Y-15500000D02*
X34000000Y-13500000D01*
G04 #@! TO.N,/SWDIO*
X54200000Y-34450000D02*
X54480000Y-34730000D01*
X54200000Y-29750000D02*
X54200000Y-34450000D01*
G04 #@! TO.N,/SWDCLK*
X53500000Y-33170000D02*
X51940000Y-34730000D01*
X53500000Y-29750000D02*
X53500000Y-33170000D01*
G04 #@! TO.N,/RESET*
X52800000Y-32273002D02*
X51773002Y-33300000D01*
X52800000Y-29750000D02*
X52800000Y-32273002D01*
X50830000Y-33300000D02*
X49400000Y-34730000D01*
X51773002Y-33300000D02*
X50830000Y-33300000D01*
G04 #@! TO.N,/GPIO2*
X50700000Y-30890000D02*
X46860000Y-34730000D01*
X50700000Y-29750000D02*
X50700000Y-30890000D01*
G04 #@! TO.N,/RX*
X50000000Y-30800000D02*
X50000000Y-29750000D01*
X47750000Y-33050000D02*
X50000000Y-30800000D01*
X46250000Y-33050000D02*
X47750000Y-33050000D01*
X45600000Y-33700000D02*
X46250000Y-33050000D01*
X45600000Y-36010000D02*
X45600000Y-33700000D01*
X46860000Y-37270000D02*
X45600000Y-36010000D01*
G04 #@! TO.N,/GPIO1*
X51400000Y-31215306D02*
X51400000Y-29750000D01*
X50957653Y-31657653D02*
X51400000Y-31215306D01*
G04 #@! TO.N,/TX*
X52100000Y-29750000D02*
X52075000Y-31500000D01*
D41*
G04 #@! TO.N,/LED_RED*
X41820002Y-23600000D02*
X40620002Y-24800000D01*
X44250000Y-23600000D02*
X41820002Y-23600000D01*
X40620002Y-24800000D02*
X22550000Y-24800000D01*
X22550000Y-24800000D02*
X21500000Y-23750000D01*
X23400000Y-18600000D02*
X23400000Y-18000000D01*
X21500000Y-20500000D02*
X23400000Y-18600000D01*
X21500000Y-23750000D02*
X21500000Y-20500000D01*
X22000000Y-20000000D02*
X21500000Y-20500000D01*
X23950000Y-20000000D02*
X22000000Y-20000000D01*
G04 #@! TO.N,Net-(Q2-Pad4)*
X25050000Y-20600000D02*
X25050000Y-20350000D01*
X25450000Y-21000000D02*
X25050000Y-20600000D01*
X27900000Y-21000000D02*
X25450000Y-21000000D01*
G04 #@! TO.N,/LED_GREEN*
X44250000Y-24300000D02*
X42800000Y-24300000D01*
X25600000Y-23500000D02*
X25600000Y-22000000D01*
X25050000Y-20000000D02*
X25800000Y-20000000D01*
G04 #@! TO.N,Net-(Q2-Pad6)*
X25050000Y-19400000D02*
X25050000Y-19650000D01*
X25450000Y-19000000D02*
X25050000Y-19400000D01*
X27900000Y-19000000D02*
X25450000Y-19000000D01*
G04 #@! TO.N,Net-(Q3-Pad1)*
X5700000Y-9210000D02*
X5690000Y-9200000D01*
X5700000Y-13950000D02*
X5700000Y-9210000D01*
X37400000Y-28050000D02*
X37650000Y-28050000D01*
X35200000Y-30250000D02*
X37400000Y-28050000D01*
X21250000Y-30250000D02*
X35200000Y-30250000D01*
X5700000Y-14700000D02*
X21250000Y-30250000D01*
X5700000Y-13950000D02*
X5700000Y-14700000D01*
G04 #@! TO.N,/RX_EN*
X38000000Y-29400000D02*
X37900000Y-29500000D01*
X38000000Y-28050000D02*
X38000000Y-29400000D01*
X38650000Y-29500000D02*
X37900000Y-29500000D01*
X38650000Y-29500000D02*
X40150000Y-28000000D01*
X43300000Y-26400000D02*
X44250000Y-26400000D01*
X41700000Y-28000000D02*
X43300000Y-26400000D01*
X40150000Y-28000000D02*
X41700000Y-28000000D01*
G04 #@! TO.N,/IR_LED_EN*
X38000000Y-26550000D02*
X38000000Y-26950000D01*
X37650000Y-25750000D02*
X38000000Y-26100000D01*
X38000000Y-26100000D02*
X38000000Y-26550000D01*
X36900000Y-25750000D02*
X37650000Y-25750000D01*
X36900000Y-25750000D02*
X35700000Y-25750000D01*
X41650000Y-25000000D02*
X44250000Y-25000000D01*
X41000000Y-25650000D02*
X41650000Y-25000000D01*
G04 #@! TO.N,Net-(Q4-Pad6)*
X41750000Y-12100000D02*
X41750000Y-13250000D01*
X46100000Y-13650000D02*
X46650000Y-13100000D01*
X46050000Y-13650000D02*
X46100000Y-13650000D01*
G04 #@! TO.N,/PWR2*
X46450000Y-14000000D02*
X46050000Y-14000000D01*
X52100000Y-15596433D02*
X50503567Y-14000000D01*
X52100000Y-20250000D02*
X52100000Y-15596433D01*
X47750000Y-12100000D02*
X47750000Y-12850000D01*
X47750000Y-14000000D02*
X46450000Y-14000000D01*
X47750000Y-12850000D02*
X47750000Y-14000000D01*
X50503567Y-14000000D02*
X47750000Y-14000000D01*
G04 #@! TO.N,Net-(Q4-Pad3)*
X43150000Y-12100000D02*
X42700000Y-12550000D01*
X43750000Y-12100000D02*
X43150000Y-12100000D01*
X42700000Y-12550000D02*
X42700000Y-14300000D01*
X44800000Y-14350000D02*
X44950000Y-14350000D01*
X44550000Y-14600000D02*
X44800000Y-14350000D01*
X43000000Y-14600000D02*
X44550000Y-14600000D01*
X42700000Y-14300000D02*
X43000000Y-14600000D01*
G04 #@! TO.N,/PWR1*
X50350000Y-12100000D02*
X49750000Y-12100000D01*
X52800000Y-14550000D02*
X50350000Y-12100000D01*
X52800000Y-20250000D02*
X52800000Y-14550000D01*
X44300000Y-14000000D02*
X44100000Y-13800000D01*
X44950000Y-14000000D02*
X44300000Y-14000000D01*
X49750000Y-13300000D02*
X49750000Y-12100000D01*
D40*
G04 #@! TO.N,/LIGHT_SENSE_EN*
X42525000Y-22900000D02*
X42500000Y-22925000D01*
X44250000Y-22900000D02*
X42525000Y-22900000D01*
X30000000Y-5850000D02*
X33000000Y-8850000D01*
X30000000Y-4650000D02*
X30000000Y-5850000D01*
D41*
G04 #@! TO.N,/REG_EN*
X51400000Y-19300000D02*
X51400000Y-20250000D01*
X51525001Y-19174999D02*
X51400000Y-19300000D01*
X51525001Y-16000000D02*
X51525001Y-19174999D01*
X50704740Y-15179739D02*
X51525001Y-16000000D01*
X39550000Y-15179739D02*
X50704740Y-15179739D01*
X38900000Y-14500000D02*
X38900000Y-15179739D01*
X38900000Y-15179739D02*
X39550000Y-15179739D01*
X37100000Y-16750000D02*
X36950000Y-16750000D01*
X38670261Y-15179739D02*
X37100000Y-16750000D01*
X38900000Y-15179739D02*
X38670261Y-15179739D01*
D40*
G04 #@! TO.N,/RX_OUT*
X42550000Y-25700000D02*
X41750000Y-26500000D01*
X44250000Y-25700000D02*
X42550000Y-25700000D01*
G04 #@! TO.N,Net-(BT1-Pad1)*
X19000000Y-36000000D02*
X19000000Y-36700000D01*
X19000000Y-36700000D02*
X20300000Y-38000000D01*
X26000000Y-36300000D02*
X26000000Y-36000000D01*
X24300000Y-38000000D02*
X26000000Y-36300000D01*
X20300000Y-38000000D02*
X24300000Y-38000000D01*
G04 #@! TD*
D42*
G04 #@! TO.N,GND*
G36*
X20415000Y-794126D02*
X20415000Y-1205874D01*
X20572569Y-1586280D01*
X20863720Y-1877431D01*
X21244126Y-2035000D01*
X21655874Y-2035000D01*
X22036280Y-1877431D01*
X22203711Y-1710000D01*
X28930407Y-1710000D01*
X28902560Y-1850000D01*
X28902560Y-3050000D01*
X28951843Y-3297765D01*
X29092191Y-3507809D01*
X29155334Y-3550000D01*
X29092191Y-3592191D01*
X28951843Y-3802235D01*
X28902560Y-4050000D01*
X28902560Y-5250000D01*
X28951843Y-5497765D01*
X29092191Y-5707809D01*
X29234483Y-5802887D01*
X29225112Y-5850000D01*
X29284097Y-6146537D01*
X29363252Y-6265000D01*
X29452072Y-6397929D01*
X29515528Y-6440329D01*
X31965000Y-8889802D01*
X31965000Y-9055874D01*
X32122569Y-9436280D01*
X32413720Y-9727431D01*
X32794126Y-9885000D01*
X33205874Y-9885000D01*
X33575000Y-9732103D01*
X33944126Y-9885000D01*
X34355874Y-9885000D01*
X34736280Y-9727431D01*
X35027431Y-9436280D01*
X35185000Y-9055874D01*
X35185000Y-8889801D01*
X35784473Y-8290329D01*
X35847929Y-8247929D01*
X36015904Y-7996537D01*
X36060000Y-7774852D01*
X36060000Y-7774848D01*
X36074888Y-7700000D01*
X36060000Y-7625152D01*
X36060000Y-5047440D01*
X36200000Y-5047440D01*
X36447765Y-4998157D01*
X36657809Y-4857809D01*
X36798157Y-4647765D01*
X36847440Y-4400000D01*
X36847440Y-2600000D01*
X36798157Y-2352235D01*
X36657809Y-2142191D01*
X36447765Y-2001843D01*
X36200000Y-1952560D01*
X35948483Y-1952560D01*
X35847929Y-1802071D01*
X35784473Y-1759671D01*
X35734802Y-1710000D01*
X52955910Y-1710000D01*
X53369711Y-2123802D01*
X53342191Y-2142191D01*
X53201843Y-2352235D01*
X53198725Y-2367908D01*
X53029507Y-2198690D01*
X52465330Y-1965000D01*
X51854670Y-1965000D01*
X51290493Y-2198690D01*
X50858690Y-2630493D01*
X50625000Y-3194670D01*
X50625000Y-3805330D01*
X50858690Y-4369507D01*
X51290493Y-4801310D01*
X51854670Y-5035000D01*
X52465330Y-5035000D01*
X53029507Y-4801310D01*
X53198725Y-4632092D01*
X53201843Y-4647765D01*
X53342191Y-4857809D01*
X53552235Y-4998157D01*
X53800000Y-5047440D01*
X55600000Y-5047440D01*
X55847765Y-4998157D01*
X56057809Y-4857809D01*
X56198157Y-4647765D01*
X56247440Y-4400000D01*
X56247440Y-2600000D01*
X56198157Y-2352235D01*
X56057809Y-2142191D01*
X55847765Y-2001843D01*
X55600000Y-1952560D01*
X55221529Y-1952560D01*
X55211880Y-1938119D01*
X55152604Y-1898512D01*
X53964090Y-710000D01*
X56323000Y-710000D01*
X56323000Y-18815000D01*
X56085750Y-18815000D01*
X55927000Y-18973750D01*
X55927000Y-20123000D01*
X55947000Y-20123000D01*
X55947000Y-20377000D01*
X55927000Y-20377000D01*
X55927000Y-21526250D01*
X56085750Y-21685000D01*
X56323000Y-21685000D01*
X56323000Y-23373000D01*
X53000000Y-23373000D01*
X52951399Y-23382667D01*
X52910197Y-23410197D01*
X52882667Y-23451399D01*
X52873000Y-23500000D01*
X52873000Y-28302560D01*
X52550000Y-28302560D01*
X52450000Y-28322451D01*
X52350000Y-28302560D01*
X51850000Y-28302560D01*
X51750000Y-28322451D01*
X51650000Y-28302560D01*
X51150000Y-28302560D01*
X51050000Y-28322451D01*
X50950000Y-28302560D01*
X50450000Y-28302560D01*
X50350000Y-28322451D01*
X50250000Y-28302560D01*
X49750000Y-28302560D01*
X49650000Y-28322451D01*
X49550000Y-28302560D01*
X49050000Y-28302560D01*
X48950000Y-28322451D01*
X48850000Y-28302560D01*
X48350000Y-28302560D01*
X48250000Y-28322451D01*
X48150000Y-28302560D01*
X47650000Y-28302560D01*
X47550000Y-28322451D01*
X47450000Y-28302560D01*
X46950000Y-28302560D01*
X46850000Y-28322451D01*
X46750000Y-28302560D01*
X46250000Y-28302560D01*
X46150000Y-28322451D01*
X46050000Y-28302560D01*
X45697440Y-28302560D01*
X45697440Y-28250000D01*
X45677549Y-28150000D01*
X45697440Y-28050000D01*
X45697440Y-27550000D01*
X45677549Y-27450000D01*
X45697440Y-27350000D01*
X45697440Y-26850000D01*
X45677549Y-26750000D01*
X45697440Y-26650000D01*
X45697440Y-26150000D01*
X45677549Y-26050000D01*
X45697440Y-25950000D01*
X45697440Y-25450000D01*
X45677549Y-25350000D01*
X45697440Y-25250000D01*
X45697440Y-24750000D01*
X45677549Y-24650000D01*
X45697440Y-24550000D01*
X45697440Y-24050000D01*
X45677549Y-23950000D01*
X45697440Y-23850000D01*
X45697440Y-23350000D01*
X45677549Y-23250000D01*
X45697440Y-23150000D01*
X45697440Y-22650000D01*
X45677549Y-22550000D01*
X45697440Y-22450000D01*
X45697440Y-21950000D01*
X45677549Y-21850000D01*
X45697440Y-21750000D01*
X45697440Y-21366005D01*
X45755536Y-21452951D01*
X45784097Y-21596537D01*
X45869204Y-21723908D01*
X45952072Y-21847929D01*
X46015528Y-21890329D01*
X46259669Y-22134470D01*
X46302071Y-22197929D01*
X46459718Y-22303266D01*
X46553462Y-22365904D01*
X46601605Y-22375480D01*
X46775148Y-22410000D01*
X46775152Y-22410000D01*
X46850000Y-22424888D01*
X46924848Y-22410000D01*
X48275153Y-22410000D01*
X48350000Y-22424888D01*
X48424847Y-22410000D01*
X48424852Y-22410000D01*
X48646537Y-22365904D01*
X48897929Y-22197929D01*
X48940330Y-22134471D01*
X49084473Y-21990329D01*
X49147929Y-21947929D01*
X49315301Y-21697440D01*
X49550000Y-21697440D01*
X49650000Y-21677549D01*
X49750000Y-21697440D01*
X50250000Y-21697440D01*
X50350000Y-21677549D01*
X50450000Y-21697440D01*
X50950000Y-21697440D01*
X51050000Y-21677549D01*
X51150000Y-21697440D01*
X51650000Y-21697440D01*
X51750000Y-21677549D01*
X51850000Y-21697440D01*
X52350000Y-21697440D01*
X52450000Y-21677549D01*
X52550000Y-21697440D01*
X53050000Y-21697440D01*
X53297765Y-21648157D01*
X53507809Y-21507809D01*
X53648157Y-21297765D01*
X53697440Y-21050000D01*
X53697440Y-20535750D01*
X54715000Y-20535750D01*
X54715000Y-21176309D01*
X54811673Y-21409698D01*
X54990301Y-21588327D01*
X55223690Y-21685000D01*
X55514250Y-21685000D01*
X55673000Y-21526250D01*
X55673000Y-20377000D01*
X54873750Y-20377000D01*
X54715000Y-20535750D01*
X53697440Y-20535750D01*
X53697440Y-19450000D01*
X53672316Y-19323691D01*
X54715000Y-19323691D01*
X54715000Y-19964250D01*
X54873750Y-20123000D01*
X55673000Y-20123000D01*
X55673000Y-18973750D01*
X55514250Y-18815000D01*
X55223690Y-18815000D01*
X54990301Y-18911673D01*
X54811673Y-19090302D01*
X54715000Y-19323691D01*
X53672316Y-19323691D01*
X53648157Y-19202235D01*
X53510000Y-18995470D01*
X53510000Y-14619920D01*
X53523908Y-14549999D01*
X53510000Y-14480078D01*
X53510000Y-14480074D01*
X53468805Y-14272972D01*
X53311881Y-14038119D01*
X53252599Y-13998508D01*
X50901494Y-11647404D01*
X50861881Y-11588119D01*
X50847440Y-11578470D01*
X50847440Y-11500000D01*
X50798157Y-11252235D01*
X50657809Y-11042191D01*
X50596680Y-11001346D01*
X50738327Y-10859698D01*
X50835000Y-10626309D01*
X50835000Y-10185750D01*
X50676250Y-10027000D01*
X49877000Y-10027000D01*
X49877000Y-10047000D01*
X49623000Y-10047000D01*
X49623000Y-10027000D01*
X48823750Y-10027000D01*
X48750000Y-10100750D01*
X48676250Y-10027000D01*
X47877000Y-10027000D01*
X47877000Y-10047000D01*
X47623000Y-10047000D01*
X47623000Y-10027000D01*
X47603000Y-10027000D01*
X47603000Y-9773000D01*
X47623000Y-9773000D01*
X47623000Y-8823750D01*
X47877000Y-8823750D01*
X47877000Y-9773000D01*
X48676250Y-9773000D01*
X48750000Y-9699250D01*
X48823750Y-9773000D01*
X49623000Y-9773000D01*
X49623000Y-8823750D01*
X49877000Y-8823750D01*
X49877000Y-9773000D01*
X50676250Y-9773000D01*
X50835000Y-9614250D01*
X50835000Y-9173691D01*
X50738327Y-8940302D01*
X50559699Y-8761673D01*
X50326310Y-8665000D01*
X50035750Y-8665000D01*
X49877000Y-8823750D01*
X49623000Y-8823750D01*
X49464250Y-8665000D01*
X49173690Y-8665000D01*
X48940301Y-8761673D01*
X48761673Y-8940302D01*
X48750000Y-8968483D01*
X48738327Y-8940302D01*
X48559699Y-8761673D01*
X48326310Y-8665000D01*
X48035750Y-8665000D01*
X47877000Y-8823750D01*
X47623000Y-8823750D01*
X47464250Y-8665000D01*
X47173690Y-8665000D01*
X46940301Y-8761673D01*
X46761673Y-8940302D01*
X46747013Y-8975694D01*
X46657809Y-8842191D01*
X46447765Y-8701843D01*
X46200000Y-8652560D01*
X45300000Y-8652560D01*
X45052235Y-8701843D01*
X44842191Y-8842191D01*
X44750000Y-8980164D01*
X44657809Y-8842191D01*
X44447765Y-8701843D01*
X44200000Y-8652560D01*
X43300000Y-8652560D01*
X43052235Y-8701843D01*
X42842191Y-8842191D01*
X42750000Y-8980164D01*
X42657809Y-8842191D01*
X42447765Y-8701843D01*
X42200000Y-8652560D01*
X41300000Y-8652560D01*
X41052235Y-8701843D01*
X40877371Y-8818684D01*
X40784540Y-8725853D01*
X40275494Y-8515000D01*
X39724506Y-8515000D01*
X39215460Y-8725853D01*
X38825853Y-9115460D01*
X38815688Y-9140000D01*
X37803711Y-9140000D01*
X37686280Y-9022569D01*
X37305874Y-8865000D01*
X36894126Y-8865000D01*
X36513720Y-9022569D01*
X36222569Y-9313720D01*
X36065000Y-9694126D01*
X36065000Y-10105874D01*
X36222569Y-10486280D01*
X36513720Y-10777431D01*
X36894126Y-10935000D01*
X37305874Y-10935000D01*
X37686280Y-10777431D01*
X37803711Y-10660000D01*
X38815688Y-10660000D01*
X38825853Y-10684540D01*
X39215460Y-11074147D01*
X39724506Y-11285000D01*
X40275494Y-11285000D01*
X40784540Y-11074147D01*
X40877371Y-10981316D01*
X40905334Y-11000000D01*
X40842191Y-11042191D01*
X40701843Y-11252235D01*
X40652560Y-11500000D01*
X40652560Y-12700000D01*
X40701843Y-12947765D01*
X40734605Y-12996796D01*
X40715000Y-13044126D01*
X40715000Y-13455874D01*
X40872569Y-13836280D01*
X41163720Y-14127431D01*
X41544126Y-14285000D01*
X41955874Y-14285000D01*
X41981158Y-14274527D01*
X41976091Y-14300000D01*
X42009855Y-14469739D01*
X39947440Y-14469739D01*
X39947440Y-14350000D01*
X39933502Y-14279926D01*
X39935000Y-14276309D01*
X39935000Y-14233750D01*
X39921664Y-14220414D01*
X39898157Y-14102235D01*
X39837127Y-14010898D01*
X39838327Y-14009698D01*
X39935000Y-13776309D01*
X39935000Y-13723691D01*
X39838327Y-13490302D01*
X39773025Y-13425000D01*
X39776250Y-13425000D01*
X39935000Y-13266250D01*
X39935000Y-13223691D01*
X39838327Y-12990302D01*
X39659699Y-12811673D01*
X39426310Y-12715000D01*
X39185750Y-12715000D01*
X39027000Y-12873750D01*
X39027000Y-13215000D01*
X38920587Y-13215000D01*
X38898157Y-13102235D01*
X38773000Y-12914926D01*
X38773000Y-12873750D01*
X38614250Y-12715000D01*
X38373690Y-12715000D01*
X38370073Y-12716498D01*
X38300000Y-12702560D01*
X37700000Y-12702560D01*
X37600000Y-12722451D01*
X37500000Y-12702560D01*
X36700000Y-12702560D01*
X36511774Y-12740000D01*
X34074846Y-12740000D01*
X33999999Y-12725112D01*
X33925152Y-12740000D01*
X33925148Y-12740000D01*
X33703463Y-12784096D01*
X33452071Y-12952071D01*
X33409671Y-13015527D01*
X31960199Y-14465000D01*
X31794126Y-14465000D01*
X31413720Y-14622569D01*
X31122569Y-14913720D01*
X30965000Y-15294126D01*
X30965000Y-15540000D01*
X27162804Y-15540000D01*
X24888333Y-13265530D01*
X24845931Y-13202071D01*
X24594539Y-13034096D01*
X24372854Y-12990000D01*
X24372849Y-12990000D01*
X24298002Y-12975112D01*
X24223155Y-12990000D01*
X23470451Y-12990000D01*
X23423157Y-12752235D01*
X23282809Y-12542191D01*
X23072765Y-12401843D01*
X22825000Y-12352560D01*
X22002362Y-12352560D01*
X20975124Y-11325322D01*
X27865000Y-11325322D01*
X27865000Y-12174678D01*
X28190034Y-12959380D01*
X28790620Y-13559966D01*
X29575322Y-13885000D01*
X30424678Y-13885000D01*
X31209380Y-13559966D01*
X31809966Y-12959380D01*
X32135000Y-12174678D01*
X32135000Y-11325322D01*
X31809966Y-10540620D01*
X31209380Y-9940034D01*
X30424678Y-9615000D01*
X29575322Y-9615000D01*
X28790620Y-9940034D01*
X28190034Y-10540620D01*
X27865000Y-11325322D01*
X20975124Y-11325322D01*
X18365331Y-8715530D01*
X18322929Y-8652071D01*
X18071537Y-8484096D01*
X17849852Y-8440000D01*
X17849847Y-8440000D01*
X17775000Y-8425112D01*
X17700153Y-8440000D01*
X9576669Y-8440000D01*
X9531310Y-8330493D01*
X9099507Y-7898690D01*
X8535330Y-7665000D01*
X7924670Y-7665000D01*
X7360493Y-7898690D01*
X6960000Y-8299183D01*
X6559507Y-7898690D01*
X5995330Y-7665000D01*
X5384670Y-7665000D01*
X4820493Y-7898690D01*
X4582401Y-8136782D01*
X4434527Y-7915473D01*
X4143312Y-7720889D01*
X3799800Y-7652560D01*
X2500200Y-7652560D01*
X2156688Y-7720889D01*
X1865473Y-7915473D01*
X1670889Y-8206688D01*
X1602560Y-8550200D01*
X1602560Y-9849800D01*
X1670889Y-10193312D01*
X1865473Y-10484527D01*
X2156688Y-10679111D01*
X2500200Y-10747440D01*
X3799800Y-10747440D01*
X4143312Y-10679111D01*
X4434527Y-10484527D01*
X4582401Y-10263218D01*
X4820493Y-10501310D01*
X4990001Y-10571522D01*
X4990000Y-12760018D01*
X4792191Y-12892191D01*
X4651843Y-13102235D01*
X4602560Y-13350000D01*
X4602560Y-14550000D01*
X4651843Y-14797765D01*
X4792191Y-15007809D01*
X4853320Y-15048654D01*
X4711673Y-15190302D01*
X4615000Y-15423691D01*
X4615000Y-15864250D01*
X4773750Y-16023000D01*
X5573000Y-16023000D01*
X5573000Y-16003000D01*
X5827000Y-16003000D01*
X5827000Y-16023000D01*
X5847000Y-16023000D01*
X5847000Y-16277000D01*
X5827000Y-16277000D01*
X5827000Y-17226250D01*
X5985750Y-17385000D01*
X6276310Y-17385000D01*
X6509699Y-17288327D01*
X6688327Y-17109698D01*
X6785000Y-16876309D01*
X6785000Y-16789090D01*
X8058506Y-18062597D01*
X7913720Y-18122569D01*
X7622569Y-18413720D01*
X7465000Y-18794126D01*
X7465000Y-19205874D01*
X7622569Y-19586280D01*
X7740001Y-19703712D01*
X7740000Y-22800153D01*
X7725112Y-22875000D01*
X7740000Y-22949847D01*
X7740000Y-22949851D01*
X7784096Y-23171536D01*
X7952071Y-23422929D01*
X8015530Y-23465331D01*
X15665198Y-31115000D01*
X15494126Y-31115000D01*
X15113720Y-31272569D01*
X14822569Y-31563720D01*
X14665000Y-31944126D01*
X14665000Y-32226449D01*
X14568289Y-32081711D01*
X14192855Y-31830854D01*
X13861783Y-31765000D01*
X12938217Y-31765000D01*
X12607145Y-31830854D01*
X12231711Y-32081711D01*
X11980854Y-32457145D01*
X11892765Y-32900000D01*
X11980854Y-33342855D01*
X12231711Y-33718289D01*
X12526075Y-33914977D01*
X12330854Y-34207145D01*
X12265000Y-34538217D01*
X12265000Y-35461782D01*
X12317266Y-35724545D01*
X12231711Y-35781711D01*
X11980854Y-36157145D01*
X11892765Y-36600000D01*
X11980854Y-37042855D01*
X12123616Y-37256514D01*
X11955881Y-37598126D01*
X12082046Y-37773000D01*
X13273000Y-37773000D01*
X13273000Y-37753000D01*
X13527000Y-37753000D01*
X13527000Y-37773000D01*
X14717954Y-37773000D01*
X14844119Y-37598126D01*
X14676384Y-37256514D01*
X14819146Y-37042855D01*
X14907235Y-36600000D01*
X14893558Y-36531243D01*
X15740001Y-35684802D01*
X15740000Y-37425153D01*
X15725112Y-37500000D01*
X15740000Y-37574847D01*
X15740000Y-37574851D01*
X15784096Y-37796536D01*
X15952071Y-38047929D01*
X16015530Y-38090331D01*
X17209671Y-39284473D01*
X17213364Y-39290000D01*
X5287191Y-39290000D01*
X5519146Y-38942855D01*
X5607235Y-38500000D01*
X5547935Y-38201874D01*
X11955881Y-38201874D01*
X12157632Y-38612763D01*
X12498322Y-38900002D01*
X12923000Y-39035000D01*
X13273000Y-39035000D01*
X13273000Y-38027000D01*
X13527000Y-38027000D01*
X13527000Y-39035000D01*
X13877000Y-39035000D01*
X14301678Y-38900002D01*
X14642368Y-38612763D01*
X14844119Y-38201874D01*
X14717954Y-38027000D01*
X13527000Y-38027000D01*
X13273000Y-38027000D01*
X12082046Y-38027000D01*
X11955881Y-38201874D01*
X5547935Y-38201874D01*
X5519146Y-38057145D01*
X5268289Y-37681711D01*
X4892855Y-37430854D01*
X4561783Y-37365000D01*
X3638217Y-37365000D01*
X3307145Y-37430854D01*
X2931711Y-37681711D01*
X2680854Y-38057145D01*
X2592765Y-38500000D01*
X2680854Y-38942855D01*
X2912809Y-39290000D01*
X710000Y-39290000D01*
X710000Y-34764289D01*
X1915000Y-34764289D01*
X1915000Y-35235711D01*
X2095405Y-35671249D01*
X2428751Y-36004595D01*
X2864289Y-36185000D01*
X3335711Y-36185000D01*
X3771249Y-36004595D01*
X4104595Y-35671249D01*
X4285000Y-35235711D01*
X4285000Y-34764289D01*
X8915000Y-34764289D01*
X8915000Y-35235711D01*
X9095405Y-35671249D01*
X9428751Y-36004595D01*
X9864289Y-36185000D01*
X10335711Y-36185000D01*
X10771249Y-36004595D01*
X11104595Y-35671249D01*
X11285000Y-35235711D01*
X11285000Y-34764289D01*
X11104595Y-34328751D01*
X10771249Y-33995405D01*
X10335711Y-33815000D01*
X9864289Y-33815000D01*
X9428751Y-33995405D01*
X9095405Y-34328751D01*
X8915000Y-34764289D01*
X4285000Y-34764289D01*
X4104595Y-34328751D01*
X3771249Y-33995405D01*
X3335711Y-33815000D01*
X2864289Y-33815000D01*
X2428751Y-33995405D01*
X2095405Y-34328751D01*
X1915000Y-34764289D01*
X710000Y-34764289D01*
X710000Y-31500000D01*
X2592765Y-31500000D01*
X2680854Y-31942855D01*
X2931711Y-32318289D01*
X3307145Y-32569146D01*
X3638217Y-32635000D01*
X4561783Y-32635000D01*
X4892855Y-32569146D01*
X5268289Y-32318289D01*
X5519146Y-31942855D01*
X5607235Y-31500000D01*
X5519146Y-31057145D01*
X5268289Y-30681711D01*
X4892855Y-30430854D01*
X4561783Y-30365000D01*
X3638217Y-30365000D01*
X3307145Y-30430854D01*
X2931711Y-30681711D01*
X2680854Y-31057145D01*
X2592765Y-31500000D01*
X710000Y-31500000D01*
X710000Y-16435750D01*
X4615000Y-16435750D01*
X4615000Y-16876309D01*
X4711673Y-17109698D01*
X4890301Y-17288327D01*
X5123690Y-17385000D01*
X5414250Y-17385000D01*
X5573000Y-17226250D01*
X5573000Y-16277000D01*
X4773750Y-16277000D01*
X4615000Y-16435750D01*
X710000Y-16435750D01*
X710000Y-7094126D01*
X13965000Y-7094126D01*
X13965000Y-7505874D01*
X14122569Y-7886280D01*
X14413720Y-8177431D01*
X14794126Y-8335000D01*
X15205874Y-8335000D01*
X15586280Y-8177431D01*
X15703711Y-8060000D01*
X23796289Y-8060000D01*
X23913720Y-8177431D01*
X24294126Y-8335000D01*
X24705874Y-8335000D01*
X25086280Y-8177431D01*
X25377431Y-7886280D01*
X25535000Y-7505874D01*
X25535000Y-7094126D01*
X25377431Y-6713720D01*
X25086280Y-6422569D01*
X24893703Y-6342801D01*
X25140414Y-6096090D01*
X25435000Y-5384895D01*
X25435000Y-4615105D01*
X25140414Y-3903910D01*
X24596090Y-3359586D01*
X23884895Y-3065000D01*
X23115105Y-3065000D01*
X22403910Y-3359586D01*
X21859586Y-3903910D01*
X21565000Y-4615105D01*
X21565000Y-5384895D01*
X21859586Y-6096090D01*
X22303496Y-6540000D01*
X19696504Y-6540000D01*
X20140414Y-6096090D01*
X20435000Y-5384895D01*
X20435000Y-4615105D01*
X20140414Y-3903910D01*
X19596090Y-3359586D01*
X18884895Y-3065000D01*
X18115105Y-3065000D01*
X17403910Y-3359586D01*
X16859586Y-3903910D01*
X16565000Y-4615105D01*
X16565000Y-5384895D01*
X16859586Y-6096090D01*
X17303496Y-6540000D01*
X15703711Y-6540000D01*
X15586280Y-6422569D01*
X15205874Y-6265000D01*
X14794126Y-6265000D01*
X14413720Y-6422569D01*
X14122569Y-6713720D01*
X13965000Y-7094126D01*
X710000Y-7094126D01*
X710000Y-710000D01*
X20449846Y-710000D01*
X20415000Y-794126D01*
X20415000Y-794126D01*
G37*
X20415000Y-794126D02*
X20415000Y-1205874D01*
X20572569Y-1586280D01*
X20863720Y-1877431D01*
X21244126Y-2035000D01*
X21655874Y-2035000D01*
X22036280Y-1877431D01*
X22203711Y-1710000D01*
X28930407Y-1710000D01*
X28902560Y-1850000D01*
X28902560Y-3050000D01*
X28951843Y-3297765D01*
X29092191Y-3507809D01*
X29155334Y-3550000D01*
X29092191Y-3592191D01*
X28951843Y-3802235D01*
X28902560Y-4050000D01*
X28902560Y-5250000D01*
X28951843Y-5497765D01*
X29092191Y-5707809D01*
X29234483Y-5802887D01*
X29225112Y-5850000D01*
X29284097Y-6146537D01*
X29363252Y-6265000D01*
X29452072Y-6397929D01*
X29515528Y-6440329D01*
X31965000Y-8889802D01*
X31965000Y-9055874D01*
X32122569Y-9436280D01*
X32413720Y-9727431D01*
X32794126Y-9885000D01*
X33205874Y-9885000D01*
X33575000Y-9732103D01*
X33944126Y-9885000D01*
X34355874Y-9885000D01*
X34736280Y-9727431D01*
X35027431Y-9436280D01*
X35185000Y-9055874D01*
X35185000Y-8889801D01*
X35784473Y-8290329D01*
X35847929Y-8247929D01*
X36015904Y-7996537D01*
X36060000Y-7774852D01*
X36060000Y-7774848D01*
X36074888Y-7700000D01*
X36060000Y-7625152D01*
X36060000Y-5047440D01*
X36200000Y-5047440D01*
X36447765Y-4998157D01*
X36657809Y-4857809D01*
X36798157Y-4647765D01*
X36847440Y-4400000D01*
X36847440Y-2600000D01*
X36798157Y-2352235D01*
X36657809Y-2142191D01*
X36447765Y-2001843D01*
X36200000Y-1952560D01*
X35948483Y-1952560D01*
X35847929Y-1802071D01*
X35784473Y-1759671D01*
X35734802Y-1710000D01*
X52955910Y-1710000D01*
X53369711Y-2123802D01*
X53342191Y-2142191D01*
X53201843Y-2352235D01*
X53198725Y-2367908D01*
X53029507Y-2198690D01*
X52465330Y-1965000D01*
X51854670Y-1965000D01*
X51290493Y-2198690D01*
X50858690Y-2630493D01*
X50625000Y-3194670D01*
X50625000Y-3805330D01*
X50858690Y-4369507D01*
X51290493Y-4801310D01*
X51854670Y-5035000D01*
X52465330Y-5035000D01*
X53029507Y-4801310D01*
X53198725Y-4632092D01*
X53201843Y-4647765D01*
X53342191Y-4857809D01*
X53552235Y-4998157D01*
X53800000Y-5047440D01*
X55600000Y-5047440D01*
X55847765Y-4998157D01*
X56057809Y-4857809D01*
X56198157Y-4647765D01*
X56247440Y-4400000D01*
X56247440Y-2600000D01*
X56198157Y-2352235D01*
X56057809Y-2142191D01*
X55847765Y-2001843D01*
X55600000Y-1952560D01*
X55221529Y-1952560D01*
X55211880Y-1938119D01*
X55152604Y-1898512D01*
X53964090Y-710000D01*
X56323000Y-710000D01*
X56323000Y-18815000D01*
X56085750Y-18815000D01*
X55927000Y-18973750D01*
X55927000Y-20123000D01*
X55947000Y-20123000D01*
X55947000Y-20377000D01*
X55927000Y-20377000D01*
X55927000Y-21526250D01*
X56085750Y-21685000D01*
X56323000Y-21685000D01*
X56323000Y-23373000D01*
X53000000Y-23373000D01*
X52951399Y-23382667D01*
X52910197Y-23410197D01*
X52882667Y-23451399D01*
X52873000Y-23500000D01*
X52873000Y-28302560D01*
X52550000Y-28302560D01*
X52450000Y-28322451D01*
X52350000Y-28302560D01*
X51850000Y-28302560D01*
X51750000Y-28322451D01*
X51650000Y-28302560D01*
X51150000Y-28302560D01*
X51050000Y-28322451D01*
X50950000Y-28302560D01*
X50450000Y-28302560D01*
X50350000Y-28322451D01*
X50250000Y-28302560D01*
X49750000Y-28302560D01*
X49650000Y-28322451D01*
X49550000Y-28302560D01*
X49050000Y-28302560D01*
X48950000Y-28322451D01*
X48850000Y-28302560D01*
X48350000Y-28302560D01*
X48250000Y-28322451D01*
X48150000Y-28302560D01*
X47650000Y-28302560D01*
X47550000Y-28322451D01*
X47450000Y-28302560D01*
X46950000Y-28302560D01*
X46850000Y-28322451D01*
X46750000Y-28302560D01*
X46250000Y-28302560D01*
X46150000Y-28322451D01*
X46050000Y-28302560D01*
X45697440Y-28302560D01*
X45697440Y-28250000D01*
X45677549Y-28150000D01*
X45697440Y-28050000D01*
X45697440Y-27550000D01*
X45677549Y-27450000D01*
X45697440Y-27350000D01*
X45697440Y-26850000D01*
X45677549Y-26750000D01*
X45697440Y-26650000D01*
X45697440Y-26150000D01*
X45677549Y-26050000D01*
X45697440Y-25950000D01*
X45697440Y-25450000D01*
X45677549Y-25350000D01*
X45697440Y-25250000D01*
X45697440Y-24750000D01*
X45677549Y-24650000D01*
X45697440Y-24550000D01*
X45697440Y-24050000D01*
X45677549Y-23950000D01*
X45697440Y-23850000D01*
X45697440Y-23350000D01*
X45677549Y-23250000D01*
X45697440Y-23150000D01*
X45697440Y-22650000D01*
X45677549Y-22550000D01*
X45697440Y-22450000D01*
X45697440Y-21950000D01*
X45677549Y-21850000D01*
X45697440Y-21750000D01*
X45697440Y-21366005D01*
X45755536Y-21452951D01*
X45784097Y-21596537D01*
X45869204Y-21723908D01*
X45952072Y-21847929D01*
X46015528Y-21890329D01*
X46259669Y-22134470D01*
X46302071Y-22197929D01*
X46459718Y-22303266D01*
X46553462Y-22365904D01*
X46601605Y-22375480D01*
X46775148Y-22410000D01*
X46775152Y-22410000D01*
X46850000Y-22424888D01*
X46924848Y-22410000D01*
X48275153Y-22410000D01*
X48350000Y-22424888D01*
X48424847Y-22410000D01*
X48424852Y-22410000D01*
X48646537Y-22365904D01*
X48897929Y-22197929D01*
X48940330Y-22134471D01*
X49084473Y-21990329D01*
X49147929Y-21947929D01*
X49315301Y-21697440D01*
X49550000Y-21697440D01*
X49650000Y-21677549D01*
X49750000Y-21697440D01*
X50250000Y-21697440D01*
X50350000Y-21677549D01*
X50450000Y-21697440D01*
X50950000Y-21697440D01*
X51050000Y-21677549D01*
X51150000Y-21697440D01*
X51650000Y-21697440D01*
X51750000Y-21677549D01*
X51850000Y-21697440D01*
X52350000Y-21697440D01*
X52450000Y-21677549D01*
X52550000Y-21697440D01*
X53050000Y-21697440D01*
X53297765Y-21648157D01*
X53507809Y-21507809D01*
X53648157Y-21297765D01*
X53697440Y-21050000D01*
X53697440Y-20535750D01*
X54715000Y-20535750D01*
X54715000Y-21176309D01*
X54811673Y-21409698D01*
X54990301Y-21588327D01*
X55223690Y-21685000D01*
X55514250Y-21685000D01*
X55673000Y-21526250D01*
X55673000Y-20377000D01*
X54873750Y-20377000D01*
X54715000Y-20535750D01*
X53697440Y-20535750D01*
X53697440Y-19450000D01*
X53672316Y-19323691D01*
X54715000Y-19323691D01*
X54715000Y-19964250D01*
X54873750Y-20123000D01*
X55673000Y-20123000D01*
X55673000Y-18973750D01*
X55514250Y-18815000D01*
X55223690Y-18815000D01*
X54990301Y-18911673D01*
X54811673Y-19090302D01*
X54715000Y-19323691D01*
X53672316Y-19323691D01*
X53648157Y-19202235D01*
X53510000Y-18995470D01*
X53510000Y-14619920D01*
X53523908Y-14549999D01*
X53510000Y-14480078D01*
X53510000Y-14480074D01*
X53468805Y-14272972D01*
X53311881Y-14038119D01*
X53252599Y-13998508D01*
X50901494Y-11647404D01*
X50861881Y-11588119D01*
X50847440Y-11578470D01*
X50847440Y-11500000D01*
X50798157Y-11252235D01*
X50657809Y-11042191D01*
X50596680Y-11001346D01*
X50738327Y-10859698D01*
X50835000Y-10626309D01*
X50835000Y-10185750D01*
X50676250Y-10027000D01*
X49877000Y-10027000D01*
X49877000Y-10047000D01*
X49623000Y-10047000D01*
X49623000Y-10027000D01*
X48823750Y-10027000D01*
X48750000Y-10100750D01*
X48676250Y-10027000D01*
X47877000Y-10027000D01*
X47877000Y-10047000D01*
X47623000Y-10047000D01*
X47623000Y-10027000D01*
X47603000Y-10027000D01*
X47603000Y-9773000D01*
X47623000Y-9773000D01*
X47623000Y-8823750D01*
X47877000Y-8823750D01*
X47877000Y-9773000D01*
X48676250Y-9773000D01*
X48750000Y-9699250D01*
X48823750Y-9773000D01*
X49623000Y-9773000D01*
X49623000Y-8823750D01*
X49877000Y-8823750D01*
X49877000Y-9773000D01*
X50676250Y-9773000D01*
X50835000Y-9614250D01*
X50835000Y-9173691D01*
X50738327Y-8940302D01*
X50559699Y-8761673D01*
X50326310Y-8665000D01*
X50035750Y-8665000D01*
X49877000Y-8823750D01*
X49623000Y-8823750D01*
X49464250Y-8665000D01*
X49173690Y-8665000D01*
X48940301Y-8761673D01*
X48761673Y-8940302D01*
X48750000Y-8968483D01*
X48738327Y-8940302D01*
X48559699Y-8761673D01*
X48326310Y-8665000D01*
X48035750Y-8665000D01*
X47877000Y-8823750D01*
X47623000Y-8823750D01*
X47464250Y-8665000D01*
X47173690Y-8665000D01*
X46940301Y-8761673D01*
X46761673Y-8940302D01*
X46747013Y-8975694D01*
X46657809Y-8842191D01*
X46447765Y-8701843D01*
X46200000Y-8652560D01*
X45300000Y-8652560D01*
X45052235Y-8701843D01*
X44842191Y-8842191D01*
X44750000Y-8980164D01*
X44657809Y-8842191D01*
X44447765Y-8701843D01*
X44200000Y-8652560D01*
X43300000Y-8652560D01*
X43052235Y-8701843D01*
X42842191Y-8842191D01*
X42750000Y-8980164D01*
X42657809Y-8842191D01*
X42447765Y-8701843D01*
X42200000Y-8652560D01*
X41300000Y-8652560D01*
X41052235Y-8701843D01*
X40877371Y-8818684D01*
X40784540Y-8725853D01*
X40275494Y-8515000D01*
X39724506Y-8515000D01*
X39215460Y-8725853D01*
X38825853Y-9115460D01*
X38815688Y-9140000D01*
X37803711Y-9140000D01*
X37686280Y-9022569D01*
X37305874Y-8865000D01*
X36894126Y-8865000D01*
X36513720Y-9022569D01*
X36222569Y-9313720D01*
X36065000Y-9694126D01*
X36065000Y-10105874D01*
X36222569Y-10486280D01*
X36513720Y-10777431D01*
X36894126Y-10935000D01*
X37305874Y-10935000D01*
X37686280Y-10777431D01*
X37803711Y-10660000D01*
X38815688Y-10660000D01*
X38825853Y-10684540D01*
X39215460Y-11074147D01*
X39724506Y-11285000D01*
X40275494Y-11285000D01*
X40784540Y-11074147D01*
X40877371Y-10981316D01*
X40905334Y-11000000D01*
X40842191Y-11042191D01*
X40701843Y-11252235D01*
X40652560Y-11500000D01*
X40652560Y-12700000D01*
X40701843Y-12947765D01*
X40734605Y-12996796D01*
X40715000Y-13044126D01*
X40715000Y-13455874D01*
X40872569Y-13836280D01*
X41163720Y-14127431D01*
X41544126Y-14285000D01*
X41955874Y-14285000D01*
X41981158Y-14274527D01*
X41976091Y-14300000D01*
X42009855Y-14469739D01*
X39947440Y-14469739D01*
X39947440Y-14350000D01*
X39933502Y-14279926D01*
X39935000Y-14276309D01*
X39935000Y-14233750D01*
X39921664Y-14220414D01*
X39898157Y-14102235D01*
X39837127Y-14010898D01*
X39838327Y-14009698D01*
X39935000Y-13776309D01*
X39935000Y-13723691D01*
X39838327Y-13490302D01*
X39773025Y-13425000D01*
X39776250Y-13425000D01*
X39935000Y-13266250D01*
X39935000Y-13223691D01*
X39838327Y-12990302D01*
X39659699Y-12811673D01*
X39426310Y-12715000D01*
X39185750Y-12715000D01*
X39027000Y-12873750D01*
X39027000Y-13215000D01*
X38920587Y-13215000D01*
X38898157Y-13102235D01*
X38773000Y-12914926D01*
X38773000Y-12873750D01*
X38614250Y-12715000D01*
X38373690Y-12715000D01*
X38370073Y-12716498D01*
X38300000Y-12702560D01*
X37700000Y-12702560D01*
X37600000Y-12722451D01*
X37500000Y-12702560D01*
X36700000Y-12702560D01*
X36511774Y-12740000D01*
X34074846Y-12740000D01*
X33999999Y-12725112D01*
X33925152Y-12740000D01*
X33925148Y-12740000D01*
X33703463Y-12784096D01*
X33452071Y-12952071D01*
X33409671Y-13015527D01*
X31960199Y-14465000D01*
X31794126Y-14465000D01*
X31413720Y-14622569D01*
X31122569Y-14913720D01*
X30965000Y-15294126D01*
X30965000Y-15540000D01*
X27162804Y-15540000D01*
X24888333Y-13265530D01*
X24845931Y-13202071D01*
X24594539Y-13034096D01*
X24372854Y-12990000D01*
X24372849Y-12990000D01*
X24298002Y-12975112D01*
X24223155Y-12990000D01*
X23470451Y-12990000D01*
X23423157Y-12752235D01*
X23282809Y-12542191D01*
X23072765Y-12401843D01*
X22825000Y-12352560D01*
X22002362Y-12352560D01*
X20975124Y-11325322D01*
X27865000Y-11325322D01*
X27865000Y-12174678D01*
X28190034Y-12959380D01*
X28790620Y-13559966D01*
X29575322Y-13885000D01*
X30424678Y-13885000D01*
X31209380Y-13559966D01*
X31809966Y-12959380D01*
X32135000Y-12174678D01*
X32135000Y-11325322D01*
X31809966Y-10540620D01*
X31209380Y-9940034D01*
X30424678Y-9615000D01*
X29575322Y-9615000D01*
X28790620Y-9940034D01*
X28190034Y-10540620D01*
X27865000Y-11325322D01*
X20975124Y-11325322D01*
X18365331Y-8715530D01*
X18322929Y-8652071D01*
X18071537Y-8484096D01*
X17849852Y-8440000D01*
X17849847Y-8440000D01*
X17775000Y-8425112D01*
X17700153Y-8440000D01*
X9576669Y-8440000D01*
X9531310Y-8330493D01*
X9099507Y-7898690D01*
X8535330Y-7665000D01*
X7924670Y-7665000D01*
X7360493Y-7898690D01*
X6960000Y-8299183D01*
X6559507Y-7898690D01*
X5995330Y-7665000D01*
X5384670Y-7665000D01*
X4820493Y-7898690D01*
X4582401Y-8136782D01*
X4434527Y-7915473D01*
X4143312Y-7720889D01*
X3799800Y-7652560D01*
X2500200Y-7652560D01*
X2156688Y-7720889D01*
X1865473Y-7915473D01*
X1670889Y-8206688D01*
X1602560Y-8550200D01*
X1602560Y-9849800D01*
X1670889Y-10193312D01*
X1865473Y-10484527D01*
X2156688Y-10679111D01*
X2500200Y-10747440D01*
X3799800Y-10747440D01*
X4143312Y-10679111D01*
X4434527Y-10484527D01*
X4582401Y-10263218D01*
X4820493Y-10501310D01*
X4990001Y-10571522D01*
X4990000Y-12760018D01*
X4792191Y-12892191D01*
X4651843Y-13102235D01*
X4602560Y-13350000D01*
X4602560Y-14550000D01*
X4651843Y-14797765D01*
X4792191Y-15007809D01*
X4853320Y-15048654D01*
X4711673Y-15190302D01*
X4615000Y-15423691D01*
X4615000Y-15864250D01*
X4773750Y-16023000D01*
X5573000Y-16023000D01*
X5573000Y-16003000D01*
X5827000Y-16003000D01*
X5827000Y-16023000D01*
X5847000Y-16023000D01*
X5847000Y-16277000D01*
X5827000Y-16277000D01*
X5827000Y-17226250D01*
X5985750Y-17385000D01*
X6276310Y-17385000D01*
X6509699Y-17288327D01*
X6688327Y-17109698D01*
X6785000Y-16876309D01*
X6785000Y-16789090D01*
X8058506Y-18062597D01*
X7913720Y-18122569D01*
X7622569Y-18413720D01*
X7465000Y-18794126D01*
X7465000Y-19205874D01*
X7622569Y-19586280D01*
X7740001Y-19703712D01*
X7740000Y-22800153D01*
X7725112Y-22875000D01*
X7740000Y-22949847D01*
X7740000Y-22949851D01*
X7784096Y-23171536D01*
X7952071Y-23422929D01*
X8015530Y-23465331D01*
X15665198Y-31115000D01*
X15494126Y-31115000D01*
X15113720Y-31272569D01*
X14822569Y-31563720D01*
X14665000Y-31944126D01*
X14665000Y-32226449D01*
X14568289Y-32081711D01*
X14192855Y-31830854D01*
X13861783Y-31765000D01*
X12938217Y-31765000D01*
X12607145Y-31830854D01*
X12231711Y-32081711D01*
X11980854Y-32457145D01*
X11892765Y-32900000D01*
X11980854Y-33342855D01*
X12231711Y-33718289D01*
X12526075Y-33914977D01*
X12330854Y-34207145D01*
X12265000Y-34538217D01*
X12265000Y-35461782D01*
X12317266Y-35724545D01*
X12231711Y-35781711D01*
X11980854Y-36157145D01*
X11892765Y-36600000D01*
X11980854Y-37042855D01*
X12123616Y-37256514D01*
X11955881Y-37598126D01*
X12082046Y-37773000D01*
X13273000Y-37773000D01*
X13273000Y-37753000D01*
X13527000Y-37753000D01*
X13527000Y-37773000D01*
X14717954Y-37773000D01*
X14844119Y-37598126D01*
X14676384Y-37256514D01*
X14819146Y-37042855D01*
X14907235Y-36600000D01*
X14893558Y-36531243D01*
X15740001Y-35684802D01*
X15740000Y-37425153D01*
X15725112Y-37500000D01*
X15740000Y-37574847D01*
X15740000Y-37574851D01*
X15784096Y-37796536D01*
X15952071Y-38047929D01*
X16015530Y-38090331D01*
X17209671Y-39284473D01*
X17213364Y-39290000D01*
X5287191Y-39290000D01*
X5519146Y-38942855D01*
X5607235Y-38500000D01*
X5547935Y-38201874D01*
X11955881Y-38201874D01*
X12157632Y-38612763D01*
X12498322Y-38900002D01*
X12923000Y-39035000D01*
X13273000Y-39035000D01*
X13273000Y-38027000D01*
X13527000Y-38027000D01*
X13527000Y-39035000D01*
X13877000Y-39035000D01*
X14301678Y-38900002D01*
X14642368Y-38612763D01*
X14844119Y-38201874D01*
X14717954Y-38027000D01*
X13527000Y-38027000D01*
X13273000Y-38027000D01*
X12082046Y-38027000D01*
X11955881Y-38201874D01*
X5547935Y-38201874D01*
X5519146Y-38057145D01*
X5268289Y-37681711D01*
X4892855Y-37430854D01*
X4561783Y-37365000D01*
X3638217Y-37365000D01*
X3307145Y-37430854D01*
X2931711Y-37681711D01*
X2680854Y-38057145D01*
X2592765Y-38500000D01*
X2680854Y-38942855D01*
X2912809Y-39290000D01*
X710000Y-39290000D01*
X710000Y-34764289D01*
X1915000Y-34764289D01*
X1915000Y-35235711D01*
X2095405Y-35671249D01*
X2428751Y-36004595D01*
X2864289Y-36185000D01*
X3335711Y-36185000D01*
X3771249Y-36004595D01*
X4104595Y-35671249D01*
X4285000Y-35235711D01*
X4285000Y-34764289D01*
X8915000Y-34764289D01*
X8915000Y-35235711D01*
X9095405Y-35671249D01*
X9428751Y-36004595D01*
X9864289Y-36185000D01*
X10335711Y-36185000D01*
X10771249Y-36004595D01*
X11104595Y-35671249D01*
X11285000Y-35235711D01*
X11285000Y-34764289D01*
X11104595Y-34328751D01*
X10771249Y-33995405D01*
X10335711Y-33815000D01*
X9864289Y-33815000D01*
X9428751Y-33995405D01*
X9095405Y-34328751D01*
X8915000Y-34764289D01*
X4285000Y-34764289D01*
X4104595Y-34328751D01*
X3771249Y-33995405D01*
X3335711Y-33815000D01*
X2864289Y-33815000D01*
X2428751Y-33995405D01*
X2095405Y-34328751D01*
X1915000Y-34764289D01*
X710000Y-34764289D01*
X710000Y-31500000D01*
X2592765Y-31500000D01*
X2680854Y-31942855D01*
X2931711Y-32318289D01*
X3307145Y-32569146D01*
X3638217Y-32635000D01*
X4561783Y-32635000D01*
X4892855Y-32569146D01*
X5268289Y-32318289D01*
X5519146Y-31942855D01*
X5607235Y-31500000D01*
X5519146Y-31057145D01*
X5268289Y-30681711D01*
X4892855Y-30430854D01*
X4561783Y-30365000D01*
X3638217Y-30365000D01*
X3307145Y-30430854D01*
X2931711Y-30681711D01*
X2680854Y-31057145D01*
X2592765Y-31500000D01*
X710000Y-31500000D01*
X710000Y-16435750D01*
X4615000Y-16435750D01*
X4615000Y-16876309D01*
X4711673Y-17109698D01*
X4890301Y-17288327D01*
X5123690Y-17385000D01*
X5414250Y-17385000D01*
X5573000Y-17226250D01*
X5573000Y-16277000D01*
X4773750Y-16277000D01*
X4615000Y-16435750D01*
X710000Y-16435750D01*
X710000Y-7094126D01*
X13965000Y-7094126D01*
X13965000Y-7505874D01*
X14122569Y-7886280D01*
X14413720Y-8177431D01*
X14794126Y-8335000D01*
X15205874Y-8335000D01*
X15586280Y-8177431D01*
X15703711Y-8060000D01*
X23796289Y-8060000D01*
X23913720Y-8177431D01*
X24294126Y-8335000D01*
X24705874Y-8335000D01*
X25086280Y-8177431D01*
X25377431Y-7886280D01*
X25535000Y-7505874D01*
X25535000Y-7094126D01*
X25377431Y-6713720D01*
X25086280Y-6422569D01*
X24893703Y-6342801D01*
X25140414Y-6096090D01*
X25435000Y-5384895D01*
X25435000Y-4615105D01*
X25140414Y-3903910D01*
X24596090Y-3359586D01*
X23884895Y-3065000D01*
X23115105Y-3065000D01*
X22403910Y-3359586D01*
X21859586Y-3903910D01*
X21565000Y-4615105D01*
X21565000Y-5384895D01*
X21859586Y-6096090D01*
X22303496Y-6540000D01*
X19696504Y-6540000D01*
X20140414Y-6096090D01*
X20435000Y-5384895D01*
X20435000Y-4615105D01*
X20140414Y-3903910D01*
X19596090Y-3359586D01*
X18884895Y-3065000D01*
X18115105Y-3065000D01*
X17403910Y-3359586D01*
X16859586Y-3903910D01*
X16565000Y-4615105D01*
X16565000Y-5384895D01*
X16859586Y-6096090D01*
X17303496Y-6540000D01*
X15703711Y-6540000D01*
X15586280Y-6422569D01*
X15205874Y-6265000D01*
X14794126Y-6265000D01*
X14413720Y-6422569D01*
X14122569Y-6713720D01*
X13965000Y-7094126D01*
X710000Y-7094126D01*
X710000Y-710000D01*
X20449846Y-710000D01*
X20415000Y-794126D01*
G36*
X20698510Y-30702602D02*
X20723499Y-30740000D01*
X20535750Y-30740000D01*
X20377000Y-30898750D01*
X20377000Y-31873000D01*
X21476250Y-31873000D01*
X21635000Y-31714250D01*
X21635000Y-31498690D01*
X34315000Y-31498690D01*
X34315000Y-31714250D01*
X34473750Y-31873000D01*
X35423000Y-31873000D01*
X35423000Y-31148750D01*
X35264250Y-30990000D01*
X34823691Y-30990000D01*
X34590302Y-31086673D01*
X34411673Y-31265301D01*
X34315000Y-31498690D01*
X21635000Y-31498690D01*
X21635000Y-31248690D01*
X21538327Y-31015301D01*
X21483026Y-30960000D01*
X35130076Y-30960000D01*
X35200000Y-30973909D01*
X35269924Y-30960000D01*
X35269926Y-30960000D01*
X35477028Y-30918805D01*
X35711881Y-30761881D01*
X35751494Y-30702596D01*
X36652560Y-29801531D01*
X36652560Y-29950000D01*
X36701843Y-30197765D01*
X36842191Y-30407809D01*
X37052235Y-30548157D01*
X37300000Y-30597440D01*
X38500000Y-30597440D01*
X38747765Y-30548157D01*
X38957809Y-30407809D01*
X38998654Y-30346680D01*
X39140302Y-30488327D01*
X39373691Y-30585000D01*
X39814250Y-30585000D01*
X39973000Y-30426250D01*
X39973000Y-29627000D01*
X39953000Y-29627000D01*
X39953000Y-29373000D01*
X39973000Y-29373000D01*
X39973000Y-29353000D01*
X40227000Y-29353000D01*
X40227000Y-29373000D01*
X40247000Y-29373000D01*
X40247000Y-29627000D01*
X40227000Y-29627000D01*
X40227000Y-30426250D01*
X40385750Y-30585000D01*
X40826309Y-30585000D01*
X41059698Y-30488327D01*
X41238327Y-30309699D01*
X41240001Y-30305658D01*
X41240001Y-30835197D01*
X40835199Y-31240000D01*
X38556459Y-31240000D01*
X38507809Y-31167191D01*
X38297765Y-31026843D01*
X38050000Y-30977560D01*
X36850000Y-30977560D01*
X36602235Y-31026843D01*
X36510898Y-31087873D01*
X36509698Y-31086673D01*
X36276309Y-30990000D01*
X35835750Y-30990000D01*
X35677000Y-31148750D01*
X35677000Y-31873000D01*
X35697000Y-31873000D01*
X35697000Y-32127000D01*
X35677000Y-32127000D01*
X35677000Y-32851250D01*
X35705474Y-32879724D01*
X34453972Y-34131226D01*
X33960000Y-34032969D01*
X33322056Y-34159864D01*
X32781231Y-34521231D01*
X32419864Y-35062055D01*
X32325000Y-35538969D01*
X32325000Y-36461030D01*
X32419864Y-36937944D01*
X32781231Y-37478769D01*
X33322055Y-37840136D01*
X33960000Y-37967031D01*
X34597944Y-37840136D01*
X34941365Y-37610670D01*
X34961673Y-37659699D01*
X35140302Y-37838327D01*
X35373691Y-37935000D01*
X36214250Y-37935000D01*
X36373000Y-37776250D01*
X36373000Y-36127000D01*
X36627000Y-36127000D01*
X36627000Y-37776250D01*
X36785750Y-37935000D01*
X37626309Y-37935000D01*
X37859698Y-37838327D01*
X38038327Y-37659699D01*
X38135000Y-37426310D01*
X38135000Y-36285750D01*
X37976250Y-36127000D01*
X36627000Y-36127000D01*
X36373000Y-36127000D01*
X36353000Y-36127000D01*
X36353000Y-35873000D01*
X36373000Y-35873000D01*
X36373000Y-35853000D01*
X36627000Y-35853000D01*
X36627000Y-35873000D01*
X37976250Y-35873000D01*
X38135000Y-35714250D01*
X38135000Y-34573690D01*
X38081513Y-34444561D01*
X40345000Y-34444561D01*
X40345000Y-35015439D01*
X40563466Y-35542862D01*
X40967138Y-35946534D01*
X41494561Y-36165000D01*
X42065439Y-36165000D01*
X42592862Y-35946534D01*
X42996534Y-35542862D01*
X43043525Y-35429417D01*
X43066136Y-35484005D01*
X43312255Y-35558139D01*
X44140395Y-34730000D01*
X43312255Y-33901861D01*
X43066136Y-33975995D01*
X43045126Y-34034448D01*
X42996534Y-33917138D01*
X42592862Y-33513466D01*
X42065439Y-33295000D01*
X41494561Y-33295000D01*
X40967138Y-33513466D01*
X40563466Y-33917138D01*
X40345000Y-34444561D01*
X38081513Y-34444561D01*
X38038327Y-34340301D01*
X37859698Y-34161673D01*
X37626309Y-34065000D01*
X36785750Y-34065000D01*
X36627002Y-34223748D01*
X36627002Y-34107800D01*
X37712363Y-33022440D01*
X38050000Y-33022440D01*
X38297765Y-32973157D01*
X38507809Y-32832809D01*
X38556459Y-32760000D01*
X41075153Y-32760000D01*
X41150000Y-32774888D01*
X41224847Y-32760000D01*
X41224852Y-32760000D01*
X41446537Y-32715904D01*
X41697929Y-32547929D01*
X41740331Y-32484470D01*
X42484473Y-31740329D01*
X42547929Y-31697929D01*
X42715904Y-31446537D01*
X42760000Y-31224852D01*
X42760000Y-31224848D01*
X42774888Y-31150000D01*
X42760000Y-31075152D01*
X42760000Y-28614801D01*
X42802560Y-28572241D01*
X42802560Y-28750000D01*
X42816498Y-28820074D01*
X42815000Y-28823691D01*
X42815000Y-28916250D01*
X42840751Y-28942001D01*
X42851843Y-28997765D01*
X42992191Y-29207809D01*
X43167578Y-29325000D01*
X42973750Y-29325000D01*
X42815000Y-29483750D01*
X42815000Y-29576309D01*
X42911673Y-29809698D01*
X43090301Y-29988327D01*
X43323690Y-30085000D01*
X43964250Y-30085000D01*
X44123000Y-29926250D01*
X44123000Y-29397440D01*
X44377000Y-29397440D01*
X44377000Y-29926250D01*
X44535750Y-30085000D01*
X44902560Y-30085000D01*
X44902560Y-30550000D01*
X44951843Y-30797765D01*
X45092191Y-31007809D01*
X45167242Y-31057957D01*
X45064998Y-31160200D01*
X44955874Y-31115000D01*
X44544126Y-31115000D01*
X44163720Y-31272569D01*
X43872569Y-31563720D01*
X43715000Y-31944126D01*
X43715000Y-32355874D01*
X43857541Y-32700000D01*
X43715000Y-33044126D01*
X43715000Y-33414416D01*
X43565995Y-33476136D01*
X43491861Y-33722255D01*
X44320000Y-34550395D01*
X44334143Y-34536253D01*
X44513748Y-34715858D01*
X44499605Y-34730000D01*
X44513748Y-34744143D01*
X44334142Y-34923748D01*
X44320000Y-34909605D01*
X43491861Y-35737745D01*
X43565995Y-35983864D01*
X43607709Y-35998858D01*
X43565995Y-36016136D01*
X43491861Y-36262255D01*
X44320000Y-37090395D01*
X44334142Y-37076252D01*
X44513748Y-37255858D01*
X44499605Y-37270000D01*
X44513748Y-37284142D01*
X44334142Y-37463748D01*
X44320000Y-37449605D01*
X44305858Y-37463748D01*
X44126252Y-37284142D01*
X44140395Y-37270000D01*
X43312255Y-36441861D01*
X43066136Y-36515995D01*
X42873035Y-37053223D01*
X42900222Y-37623454D01*
X43066136Y-38024005D01*
X43119238Y-38040000D01*
X25334801Y-38040000D01*
X25427361Y-37947440D01*
X27000000Y-37947440D01*
X27247765Y-37898157D01*
X27457809Y-37757809D01*
X27598157Y-37547765D01*
X27647440Y-37300000D01*
X27647440Y-34700000D01*
X27598157Y-34452235D01*
X27457809Y-34242191D01*
X27247765Y-34101843D01*
X27000000Y-34052560D01*
X25000000Y-34052560D01*
X24752235Y-34101843D01*
X24542191Y-34242191D01*
X24434901Y-34402760D01*
X23968355Y-34140856D01*
X23840434Y-34109876D01*
X23587000Y-34229223D01*
X23587000Y-35873000D01*
X23607000Y-35873000D01*
X23607000Y-36127000D01*
X23587000Y-36127000D01*
X23587000Y-36147000D01*
X23333000Y-36147000D01*
X23333000Y-36127000D01*
X21825000Y-36127000D01*
X21825000Y-36427000D01*
X21998058Y-37043020D01*
X22153019Y-37240000D01*
X20614802Y-37240000D01*
X20010502Y-36635701D01*
X20047440Y-36450000D01*
X20047440Y-35573000D01*
X21825000Y-35573000D01*
X21825000Y-35873000D01*
X23333000Y-35873000D01*
X23333000Y-34229223D01*
X23079566Y-34109876D01*
X22951645Y-34140856D01*
X22393683Y-34454078D01*
X21998058Y-34956980D01*
X21825000Y-35573000D01*
X20047440Y-35573000D01*
X20047440Y-35550000D01*
X19998157Y-35302235D01*
X19857809Y-35092191D01*
X19737469Y-35011781D01*
X19823000Y-34926250D01*
X19823000Y-34127000D01*
X20077000Y-34127000D01*
X20077000Y-34926250D01*
X20235750Y-35085000D01*
X20476310Y-35085000D01*
X20709699Y-34988327D01*
X20888327Y-34809698D01*
X20985000Y-34576309D01*
X20985000Y-34285750D01*
X20826250Y-34127000D01*
X20077000Y-34127000D01*
X19823000Y-34127000D01*
X19803000Y-34127000D01*
X19803000Y-33873000D01*
X19823000Y-33873000D01*
X19823000Y-33853000D01*
X20077000Y-33853000D01*
X20077000Y-33873000D01*
X20826250Y-33873000D01*
X20985000Y-33714250D01*
X20985000Y-33423691D01*
X20917197Y-33260000D01*
X21126309Y-33260000D01*
X21359698Y-33163327D01*
X21538327Y-32984699D01*
X21635000Y-32751310D01*
X21635000Y-32285750D01*
X34315000Y-32285750D01*
X34315000Y-32501310D01*
X34411673Y-32734699D01*
X34590302Y-32913327D01*
X34823691Y-33010000D01*
X35264250Y-33010000D01*
X35423000Y-32851250D01*
X35423000Y-32127000D01*
X34473750Y-32127000D01*
X34315000Y-32285750D01*
X21635000Y-32285750D01*
X21476250Y-32127000D01*
X20377000Y-32127000D01*
X20377000Y-32147000D01*
X20123000Y-32147000D01*
X20123000Y-32127000D01*
X20103000Y-32127000D01*
X20103000Y-31873000D01*
X20123000Y-31873000D01*
X20123000Y-30898750D01*
X19964250Y-30740000D01*
X19373691Y-30740000D01*
X19140302Y-30836673D01*
X18998654Y-30978320D01*
X18957809Y-30917191D01*
X18747765Y-30776843D01*
X18500000Y-30727560D01*
X17427362Y-30727560D01*
X9260000Y-22560199D01*
X9260000Y-19703711D01*
X9377431Y-19586280D01*
X9437403Y-19441494D01*
X20698510Y-30702602D01*
X20698510Y-30702602D01*
G37*
X20698510Y-30702602D02*
X20723499Y-30740000D01*
X20535750Y-30740000D01*
X20377000Y-30898750D01*
X20377000Y-31873000D01*
X21476250Y-31873000D01*
X21635000Y-31714250D01*
X21635000Y-31498690D01*
X34315000Y-31498690D01*
X34315000Y-31714250D01*
X34473750Y-31873000D01*
X35423000Y-31873000D01*
X35423000Y-31148750D01*
X35264250Y-30990000D01*
X34823691Y-30990000D01*
X34590302Y-31086673D01*
X34411673Y-31265301D01*
X34315000Y-31498690D01*
X21635000Y-31498690D01*
X21635000Y-31248690D01*
X21538327Y-31015301D01*
X21483026Y-30960000D01*
X35130076Y-30960000D01*
X35200000Y-30973909D01*
X35269924Y-30960000D01*
X35269926Y-30960000D01*
X35477028Y-30918805D01*
X35711881Y-30761881D01*
X35751494Y-30702596D01*
X36652560Y-29801531D01*
X36652560Y-29950000D01*
X36701843Y-30197765D01*
X36842191Y-30407809D01*
X37052235Y-30548157D01*
X37300000Y-30597440D01*
X38500000Y-30597440D01*
X38747765Y-30548157D01*
X38957809Y-30407809D01*
X38998654Y-30346680D01*
X39140302Y-30488327D01*
X39373691Y-30585000D01*
X39814250Y-30585000D01*
X39973000Y-30426250D01*
X39973000Y-29627000D01*
X39953000Y-29627000D01*
X39953000Y-29373000D01*
X39973000Y-29373000D01*
X39973000Y-29353000D01*
X40227000Y-29353000D01*
X40227000Y-29373000D01*
X40247000Y-29373000D01*
X40247000Y-29627000D01*
X40227000Y-29627000D01*
X40227000Y-30426250D01*
X40385750Y-30585000D01*
X40826309Y-30585000D01*
X41059698Y-30488327D01*
X41238327Y-30309699D01*
X41240001Y-30305658D01*
X41240001Y-30835197D01*
X40835199Y-31240000D01*
X38556459Y-31240000D01*
X38507809Y-31167191D01*
X38297765Y-31026843D01*
X38050000Y-30977560D01*
X36850000Y-30977560D01*
X36602235Y-31026843D01*
X36510898Y-31087873D01*
X36509698Y-31086673D01*
X36276309Y-30990000D01*
X35835750Y-30990000D01*
X35677000Y-31148750D01*
X35677000Y-31873000D01*
X35697000Y-31873000D01*
X35697000Y-32127000D01*
X35677000Y-32127000D01*
X35677000Y-32851250D01*
X35705474Y-32879724D01*
X34453972Y-34131226D01*
X33960000Y-34032969D01*
X33322056Y-34159864D01*
X32781231Y-34521231D01*
X32419864Y-35062055D01*
X32325000Y-35538969D01*
X32325000Y-36461030D01*
X32419864Y-36937944D01*
X32781231Y-37478769D01*
X33322055Y-37840136D01*
X33960000Y-37967031D01*
X34597944Y-37840136D01*
X34941365Y-37610670D01*
X34961673Y-37659699D01*
X35140302Y-37838327D01*
X35373691Y-37935000D01*
X36214250Y-37935000D01*
X36373000Y-37776250D01*
X36373000Y-36127000D01*
X36627000Y-36127000D01*
X36627000Y-37776250D01*
X36785750Y-37935000D01*
X37626309Y-37935000D01*
X37859698Y-37838327D01*
X38038327Y-37659699D01*
X38135000Y-37426310D01*
X38135000Y-36285750D01*
X37976250Y-36127000D01*
X36627000Y-36127000D01*
X36373000Y-36127000D01*
X36353000Y-36127000D01*
X36353000Y-35873000D01*
X36373000Y-35873000D01*
X36373000Y-35853000D01*
X36627000Y-35853000D01*
X36627000Y-35873000D01*
X37976250Y-35873000D01*
X38135000Y-35714250D01*
X38135000Y-34573690D01*
X38081513Y-34444561D01*
X40345000Y-34444561D01*
X40345000Y-35015439D01*
X40563466Y-35542862D01*
X40967138Y-35946534D01*
X41494561Y-36165000D01*
X42065439Y-36165000D01*
X42592862Y-35946534D01*
X42996534Y-35542862D01*
X43043525Y-35429417D01*
X43066136Y-35484005D01*
X43312255Y-35558139D01*
X44140395Y-34730000D01*
X43312255Y-33901861D01*
X43066136Y-33975995D01*
X43045126Y-34034448D01*
X42996534Y-33917138D01*
X42592862Y-33513466D01*
X42065439Y-33295000D01*
X41494561Y-33295000D01*
X40967138Y-33513466D01*
X40563466Y-33917138D01*
X40345000Y-34444561D01*
X38081513Y-34444561D01*
X38038327Y-34340301D01*
X37859698Y-34161673D01*
X37626309Y-34065000D01*
X36785750Y-34065000D01*
X36627002Y-34223748D01*
X36627002Y-34107800D01*
X37712363Y-33022440D01*
X38050000Y-33022440D01*
X38297765Y-32973157D01*
X38507809Y-32832809D01*
X38556459Y-32760000D01*
X41075153Y-32760000D01*
X41150000Y-32774888D01*
X41224847Y-32760000D01*
X41224852Y-32760000D01*
X41446537Y-32715904D01*
X41697929Y-32547929D01*
X41740331Y-32484470D01*
X42484473Y-31740329D01*
X42547929Y-31697929D01*
X42715904Y-31446537D01*
X42760000Y-31224852D01*
X42760000Y-31224848D01*
X42774888Y-31150000D01*
X42760000Y-31075152D01*
X42760000Y-28614801D01*
X42802560Y-28572241D01*
X42802560Y-28750000D01*
X42816498Y-28820074D01*
X42815000Y-28823691D01*
X42815000Y-28916250D01*
X42840751Y-28942001D01*
X42851843Y-28997765D01*
X42992191Y-29207809D01*
X43167578Y-29325000D01*
X42973750Y-29325000D01*
X42815000Y-29483750D01*
X42815000Y-29576309D01*
X42911673Y-29809698D01*
X43090301Y-29988327D01*
X43323690Y-30085000D01*
X43964250Y-30085000D01*
X44123000Y-29926250D01*
X44123000Y-29397440D01*
X44377000Y-29397440D01*
X44377000Y-29926250D01*
X44535750Y-30085000D01*
X44902560Y-30085000D01*
X44902560Y-30550000D01*
X44951843Y-30797765D01*
X45092191Y-31007809D01*
X45167242Y-31057957D01*
X45064998Y-31160200D01*
X44955874Y-31115000D01*
X44544126Y-31115000D01*
X44163720Y-31272569D01*
X43872569Y-31563720D01*
X43715000Y-31944126D01*
X43715000Y-32355874D01*
X43857541Y-32700000D01*
X43715000Y-33044126D01*
X43715000Y-33414416D01*
X43565995Y-33476136D01*
X43491861Y-33722255D01*
X44320000Y-34550395D01*
X44334143Y-34536253D01*
X44513748Y-34715858D01*
X44499605Y-34730000D01*
X44513748Y-34744143D01*
X44334142Y-34923748D01*
X44320000Y-34909605D01*
X43491861Y-35737745D01*
X43565995Y-35983864D01*
X43607709Y-35998858D01*
X43565995Y-36016136D01*
X43491861Y-36262255D01*
X44320000Y-37090395D01*
X44334142Y-37076252D01*
X44513748Y-37255858D01*
X44499605Y-37270000D01*
X44513748Y-37284142D01*
X44334142Y-37463748D01*
X44320000Y-37449605D01*
X44305858Y-37463748D01*
X44126252Y-37284142D01*
X44140395Y-37270000D01*
X43312255Y-36441861D01*
X43066136Y-36515995D01*
X42873035Y-37053223D01*
X42900222Y-37623454D01*
X43066136Y-38024005D01*
X43119238Y-38040000D01*
X25334801Y-38040000D01*
X25427361Y-37947440D01*
X27000000Y-37947440D01*
X27247765Y-37898157D01*
X27457809Y-37757809D01*
X27598157Y-37547765D01*
X27647440Y-37300000D01*
X27647440Y-34700000D01*
X27598157Y-34452235D01*
X27457809Y-34242191D01*
X27247765Y-34101843D01*
X27000000Y-34052560D01*
X25000000Y-34052560D01*
X24752235Y-34101843D01*
X24542191Y-34242191D01*
X24434901Y-34402760D01*
X23968355Y-34140856D01*
X23840434Y-34109876D01*
X23587000Y-34229223D01*
X23587000Y-35873000D01*
X23607000Y-35873000D01*
X23607000Y-36127000D01*
X23587000Y-36127000D01*
X23587000Y-36147000D01*
X23333000Y-36147000D01*
X23333000Y-36127000D01*
X21825000Y-36127000D01*
X21825000Y-36427000D01*
X21998058Y-37043020D01*
X22153019Y-37240000D01*
X20614802Y-37240000D01*
X20010502Y-36635701D01*
X20047440Y-36450000D01*
X20047440Y-35573000D01*
X21825000Y-35573000D01*
X21825000Y-35873000D01*
X23333000Y-35873000D01*
X23333000Y-34229223D01*
X23079566Y-34109876D01*
X22951645Y-34140856D01*
X22393683Y-34454078D01*
X21998058Y-34956980D01*
X21825000Y-35573000D01*
X20047440Y-35573000D01*
X20047440Y-35550000D01*
X19998157Y-35302235D01*
X19857809Y-35092191D01*
X19737469Y-35011781D01*
X19823000Y-34926250D01*
X19823000Y-34127000D01*
X20077000Y-34127000D01*
X20077000Y-34926250D01*
X20235750Y-35085000D01*
X20476310Y-35085000D01*
X20709699Y-34988327D01*
X20888327Y-34809698D01*
X20985000Y-34576309D01*
X20985000Y-34285750D01*
X20826250Y-34127000D01*
X20077000Y-34127000D01*
X19823000Y-34127000D01*
X19803000Y-34127000D01*
X19803000Y-33873000D01*
X19823000Y-33873000D01*
X19823000Y-33853000D01*
X20077000Y-33853000D01*
X20077000Y-33873000D01*
X20826250Y-33873000D01*
X20985000Y-33714250D01*
X20985000Y-33423691D01*
X20917197Y-33260000D01*
X21126309Y-33260000D01*
X21359698Y-33163327D01*
X21538327Y-32984699D01*
X21635000Y-32751310D01*
X21635000Y-32285750D01*
X34315000Y-32285750D01*
X34315000Y-32501310D01*
X34411673Y-32734699D01*
X34590302Y-32913327D01*
X34823691Y-33010000D01*
X35264250Y-33010000D01*
X35423000Y-32851250D01*
X35423000Y-32127000D01*
X34473750Y-32127000D01*
X34315000Y-32285750D01*
X21635000Y-32285750D01*
X21476250Y-32127000D01*
X20377000Y-32127000D01*
X20377000Y-32147000D01*
X20123000Y-32147000D01*
X20123000Y-32127000D01*
X20103000Y-32127000D01*
X20103000Y-31873000D01*
X20123000Y-31873000D01*
X20123000Y-30898750D01*
X19964250Y-30740000D01*
X19373691Y-30740000D01*
X19140302Y-30836673D01*
X18998654Y-30978320D01*
X18957809Y-30917191D01*
X18747765Y-30776843D01*
X18500000Y-30727560D01*
X17427362Y-30727560D01*
X9260000Y-22560199D01*
X9260000Y-19703711D01*
X9377431Y-19586280D01*
X9437403Y-19441494D01*
X20698510Y-30702602D01*
G36*
X55927000Y-29623000D02*
X55947000Y-29623000D01*
X55947000Y-29877000D01*
X55927000Y-29877000D01*
X55927000Y-31026250D01*
X56085750Y-31185000D01*
X56323000Y-31185000D01*
X56323000Y-33465474D01*
X56207138Y-33513466D01*
X55803466Y-33917138D01*
X55750000Y-34046216D01*
X55696534Y-33917138D01*
X55292862Y-33513466D01*
X54960000Y-33375590D01*
X54960000Y-31197440D01*
X55150000Y-31197440D01*
X55220073Y-31183502D01*
X55223690Y-31185000D01*
X55514250Y-31185000D01*
X55673000Y-31026250D01*
X55673000Y-30910245D01*
X55748157Y-30797765D01*
X55797440Y-30550000D01*
X55797440Y-29603000D01*
X55927000Y-29603000D01*
X55927000Y-29623000D01*
X55927000Y-29623000D01*
G37*
X55927000Y-29623000D02*
X55947000Y-29623000D01*
X55947000Y-29877000D01*
X55927000Y-29877000D01*
X55927000Y-31026250D01*
X56085750Y-31185000D01*
X56323000Y-31185000D01*
X56323000Y-33465474D01*
X56207138Y-33513466D01*
X55803466Y-33917138D01*
X55750000Y-34046216D01*
X55696534Y-33917138D01*
X55292862Y-33513466D01*
X54960000Y-33375590D01*
X54960000Y-31197440D01*
X55150000Y-31197440D01*
X55220073Y-31183502D01*
X55223690Y-31185000D01*
X55514250Y-31185000D01*
X55673000Y-31026250D01*
X55673000Y-30910245D01*
X55748157Y-30797765D01*
X55797440Y-30550000D01*
X55797440Y-29603000D01*
X55927000Y-29603000D01*
X55927000Y-29623000D01*
G36*
X19061539Y-11561340D02*
X18913720Y-11622569D01*
X18622569Y-11913720D01*
X18465000Y-12294126D01*
X18465000Y-12705874D01*
X18615586Y-13069422D01*
X18568427Y-13140000D01*
X18565614Y-13140000D01*
X18548157Y-13052235D01*
X18407809Y-12842191D01*
X18197765Y-12701843D01*
X17950000Y-12652560D01*
X17050000Y-12652560D01*
X16802235Y-12701843D01*
X16592191Y-12842191D01*
X16493427Y-12990000D01*
X16270451Y-12990000D01*
X16223157Y-12752235D01*
X16082809Y-12542191D01*
X15872765Y-12401843D01*
X15625000Y-12352560D01*
X14375000Y-12352560D01*
X14127235Y-12401843D01*
X13917191Y-12542191D01*
X13776843Y-12752235D01*
X13727560Y-13000000D01*
X13727560Y-14500000D01*
X13776843Y-14747765D01*
X13917191Y-14957809D01*
X13980334Y-15000000D01*
X13917191Y-15042191D01*
X13776843Y-15252235D01*
X13727560Y-15500000D01*
X13727560Y-17000000D01*
X13776843Y-17247765D01*
X13917191Y-17457809D01*
X14063745Y-17555734D01*
X13965000Y-17794126D01*
X13965000Y-18205874D01*
X14122569Y-18586280D01*
X14413720Y-18877431D01*
X14794126Y-19035000D01*
X15205874Y-19035000D01*
X15586280Y-18877431D01*
X15877431Y-18586280D01*
X16035000Y-18205874D01*
X16035000Y-17794126D01*
X15936255Y-17555734D01*
X16082809Y-17457809D01*
X16223157Y-17247765D01*
X16270451Y-17010000D01*
X16493427Y-17010000D01*
X16592191Y-17157809D01*
X16802235Y-17298157D01*
X17050000Y-17347440D01*
X17950000Y-17347440D01*
X18197765Y-17298157D01*
X18407809Y-17157809D01*
X18548157Y-16947765D01*
X18565768Y-16859228D01*
X18586673Y-16909698D01*
X18765301Y-17088327D01*
X18998690Y-17185000D01*
X19214250Y-17185000D01*
X19373000Y-17026250D01*
X19373000Y-16077000D01*
X19627000Y-16077000D01*
X19627000Y-17026250D01*
X19785750Y-17185000D01*
X20001310Y-17185000D01*
X20234699Y-17088327D01*
X20413327Y-16909698D01*
X20510000Y-16676309D01*
X20510000Y-16235750D01*
X20351250Y-16077000D01*
X19627000Y-16077000D01*
X19373000Y-16077000D01*
X19353000Y-16077000D01*
X19353000Y-15823000D01*
X19373000Y-15823000D01*
X19373000Y-15803000D01*
X19627000Y-15803000D01*
X19627000Y-15823000D01*
X20351250Y-15823000D01*
X20510000Y-15664250D01*
X20510000Y-15223691D01*
X20413327Y-14990302D01*
X20412127Y-14989102D01*
X20473157Y-14897765D01*
X20522440Y-14650000D01*
X20522440Y-13450000D01*
X20473157Y-13202235D01*
X20384414Y-13069422D01*
X20438659Y-12938461D01*
X20927560Y-13427362D01*
X20927560Y-14500000D01*
X20976843Y-14747765D01*
X21117191Y-14957809D01*
X21178320Y-14998654D01*
X21036673Y-15140302D01*
X20940000Y-15373691D01*
X20940000Y-15964250D01*
X21098750Y-16123000D01*
X22073000Y-16123000D01*
X22073000Y-16103000D01*
X22327000Y-16103000D01*
X22327000Y-16123000D01*
X23301250Y-16123000D01*
X23460000Y-15964250D01*
X23460000Y-15373691D01*
X23363327Y-15140302D01*
X23221680Y-14998654D01*
X23282809Y-14957809D01*
X23423157Y-14747765D01*
X23470451Y-14510000D01*
X23983201Y-14510000D01*
X26257673Y-16784473D01*
X26300073Y-16847929D01*
X26521377Y-16995800D01*
X26326309Y-16915000D01*
X25885750Y-16915000D01*
X25727000Y-17073750D01*
X25727000Y-17873000D01*
X26676250Y-17873000D01*
X26835000Y-17714250D01*
X26835000Y-17423690D01*
X26738327Y-17190301D01*
X26567024Y-17018999D01*
X26773150Y-17060000D01*
X26773154Y-17060000D01*
X26848002Y-17074888D01*
X26922850Y-17060000D01*
X33940001Y-17060000D01*
X33940000Y-18125148D01*
X33925111Y-18200000D01*
X33940001Y-18274856D01*
X33940001Y-18780064D01*
X33897765Y-18751843D01*
X33650000Y-18702560D01*
X32950000Y-18702560D01*
X32702235Y-18751843D01*
X32570300Y-18840000D01*
X31347440Y-18840000D01*
X31347440Y-18550000D01*
X31298157Y-18302235D01*
X31157809Y-18092191D01*
X30947765Y-17951843D01*
X30700000Y-17902560D01*
X29500000Y-17902560D01*
X29252235Y-17951843D01*
X29042191Y-18092191D01*
X29000000Y-18155334D01*
X28957809Y-18092191D01*
X28747765Y-17951843D01*
X28500000Y-17902560D01*
X27300000Y-17902560D01*
X27052235Y-17951843D01*
X26842191Y-18092191D01*
X26761781Y-18212531D01*
X26676250Y-18127000D01*
X25727000Y-18127000D01*
X25727000Y-18147000D01*
X25473000Y-18147000D01*
X25473000Y-18127000D01*
X25453000Y-18127000D01*
X25453000Y-17873000D01*
X25473000Y-17873000D01*
X25473000Y-17073750D01*
X25314250Y-16915000D01*
X24873691Y-16915000D01*
X24640302Y-17011673D01*
X24498654Y-17153320D01*
X24457809Y-17092191D01*
X24247765Y-16951843D01*
X24000000Y-16902560D01*
X23460000Y-16902560D01*
X23460000Y-16535750D01*
X23301250Y-16377000D01*
X22327000Y-16377000D01*
X22327000Y-16397000D01*
X22073000Y-16397000D01*
X22073000Y-16377000D01*
X21098750Y-16377000D01*
X20940000Y-16535750D01*
X20940000Y-17126309D01*
X21036673Y-17359698D01*
X21215301Y-17538327D01*
X21448690Y-17635000D01*
X21914250Y-17635000D01*
X22072998Y-17476252D01*
X22072998Y-17635000D01*
X22152560Y-17635000D01*
X22152560Y-18450000D01*
X22201843Y-18697765D01*
X22240416Y-18755493D01*
X21547402Y-19448507D01*
X21488119Y-19488119D01*
X21448509Y-19547399D01*
X21047401Y-19948509D01*
X20988120Y-19988119D01*
X20872016Y-20161881D01*
X20831196Y-20222972D01*
X20776091Y-20500000D01*
X20790001Y-20569929D01*
X20790000Y-23680075D01*
X20776091Y-23750000D01*
X20790000Y-23819924D01*
X20790000Y-23819925D01*
X20831195Y-24027027D01*
X20988119Y-24261880D01*
X21047402Y-24301492D01*
X21998508Y-25252599D01*
X22038119Y-25311881D01*
X22272972Y-25468805D01*
X22480074Y-25510000D01*
X22480078Y-25510000D01*
X22549999Y-25523908D01*
X22619920Y-25510000D01*
X34679135Y-25510000D01*
X34665000Y-25544126D01*
X34665000Y-25955874D01*
X34822569Y-26336280D01*
X35113720Y-26627431D01*
X35494126Y-26785000D01*
X35905874Y-26785000D01*
X35984070Y-26752610D01*
X36052235Y-26798157D01*
X36300000Y-26847440D01*
X37252560Y-26847440D01*
X37252560Y-27075000D01*
X37073750Y-27075000D01*
X36915000Y-27233750D01*
X36915000Y-27326310D01*
X36977889Y-27478136D01*
X36947399Y-27498509D01*
X36888119Y-27538119D01*
X36848510Y-27597398D01*
X34905910Y-29540000D01*
X31729346Y-29540000D01*
X31809966Y-29459380D01*
X32135000Y-28674678D01*
X32135000Y-27825322D01*
X31809966Y-27040620D01*
X31209380Y-26440034D01*
X30424678Y-26115000D01*
X29575322Y-26115000D01*
X28790620Y-26440034D01*
X28190034Y-27040620D01*
X27865000Y-27825322D01*
X27865000Y-28674678D01*
X28190034Y-29459380D01*
X28270654Y-29540000D01*
X21544092Y-29540000D01*
X19406139Y-27402048D01*
X19586280Y-27327431D01*
X19877431Y-27036280D01*
X20035000Y-26655874D01*
X20035000Y-26244126D01*
X19877431Y-25863720D01*
X19710000Y-25696289D01*
X19710000Y-25253711D01*
X19877431Y-25086280D01*
X20035000Y-24705874D01*
X20035000Y-24294126D01*
X19877431Y-23913720D01*
X19586280Y-23622569D01*
X19205874Y-23465000D01*
X18794126Y-23465000D01*
X18413720Y-23622569D01*
X18122569Y-23913720D01*
X17965000Y-24294126D01*
X17965000Y-24705874D01*
X18122569Y-25086280D01*
X18290001Y-25253712D01*
X18290000Y-25696289D01*
X18122569Y-25863720D01*
X18047952Y-26043861D01*
X9169446Y-17165356D01*
X9234699Y-17138327D01*
X9413327Y-16959698D01*
X9510000Y-16726309D01*
X9510000Y-16285750D01*
X9351250Y-16127000D01*
X8627000Y-16127000D01*
X8627000Y-16147000D01*
X8373000Y-16147000D01*
X8373000Y-16127000D01*
X8353000Y-16127000D01*
X8353000Y-15873000D01*
X8373000Y-15873000D01*
X8373000Y-15853000D01*
X8627000Y-15853000D01*
X8627000Y-15873000D01*
X9351250Y-15873000D01*
X9510000Y-15714250D01*
X9510000Y-15273691D01*
X9413327Y-15040302D01*
X9412127Y-15039102D01*
X9473157Y-14947765D01*
X9522440Y-14700000D01*
X9522440Y-13500000D01*
X9473157Y-13252235D01*
X9332809Y-13042191D01*
X9260000Y-12993541D01*
X9260000Y-10340817D01*
X9531310Y-10069507D01*
X9576669Y-9960000D01*
X17460199Y-9960000D01*
X19061539Y-11561340D01*
X19061539Y-11561340D01*
G37*
X19061539Y-11561340D02*
X18913720Y-11622569D01*
X18622569Y-11913720D01*
X18465000Y-12294126D01*
X18465000Y-12705874D01*
X18615586Y-13069422D01*
X18568427Y-13140000D01*
X18565614Y-13140000D01*
X18548157Y-13052235D01*
X18407809Y-12842191D01*
X18197765Y-12701843D01*
X17950000Y-12652560D01*
X17050000Y-12652560D01*
X16802235Y-12701843D01*
X16592191Y-12842191D01*
X16493427Y-12990000D01*
X16270451Y-12990000D01*
X16223157Y-12752235D01*
X16082809Y-12542191D01*
X15872765Y-12401843D01*
X15625000Y-12352560D01*
X14375000Y-12352560D01*
X14127235Y-12401843D01*
X13917191Y-12542191D01*
X13776843Y-12752235D01*
X13727560Y-13000000D01*
X13727560Y-14500000D01*
X13776843Y-14747765D01*
X13917191Y-14957809D01*
X13980334Y-15000000D01*
X13917191Y-15042191D01*
X13776843Y-15252235D01*
X13727560Y-15500000D01*
X13727560Y-17000000D01*
X13776843Y-17247765D01*
X13917191Y-17457809D01*
X14063745Y-17555734D01*
X13965000Y-17794126D01*
X13965000Y-18205874D01*
X14122569Y-18586280D01*
X14413720Y-18877431D01*
X14794126Y-19035000D01*
X15205874Y-19035000D01*
X15586280Y-18877431D01*
X15877431Y-18586280D01*
X16035000Y-18205874D01*
X16035000Y-17794126D01*
X15936255Y-17555734D01*
X16082809Y-17457809D01*
X16223157Y-17247765D01*
X16270451Y-17010000D01*
X16493427Y-17010000D01*
X16592191Y-17157809D01*
X16802235Y-17298157D01*
X17050000Y-17347440D01*
X17950000Y-17347440D01*
X18197765Y-17298157D01*
X18407809Y-17157809D01*
X18548157Y-16947765D01*
X18565768Y-16859228D01*
X18586673Y-16909698D01*
X18765301Y-17088327D01*
X18998690Y-17185000D01*
X19214250Y-17185000D01*
X19373000Y-17026250D01*
X19373000Y-16077000D01*
X19627000Y-16077000D01*
X19627000Y-17026250D01*
X19785750Y-17185000D01*
X20001310Y-17185000D01*
X20234699Y-17088327D01*
X20413327Y-16909698D01*
X20510000Y-16676309D01*
X20510000Y-16235750D01*
X20351250Y-16077000D01*
X19627000Y-16077000D01*
X19373000Y-16077000D01*
X19353000Y-16077000D01*
X19353000Y-15823000D01*
X19373000Y-15823000D01*
X19373000Y-15803000D01*
X19627000Y-15803000D01*
X19627000Y-15823000D01*
X20351250Y-15823000D01*
X20510000Y-15664250D01*
X20510000Y-15223691D01*
X20413327Y-14990302D01*
X20412127Y-14989102D01*
X20473157Y-14897765D01*
X20522440Y-14650000D01*
X20522440Y-13450000D01*
X20473157Y-13202235D01*
X20384414Y-13069422D01*
X20438659Y-12938461D01*
X20927560Y-13427362D01*
X20927560Y-14500000D01*
X20976843Y-14747765D01*
X21117191Y-14957809D01*
X21178320Y-14998654D01*
X21036673Y-15140302D01*
X20940000Y-15373691D01*
X20940000Y-15964250D01*
X21098750Y-16123000D01*
X22073000Y-16123000D01*
X22073000Y-16103000D01*
X22327000Y-16103000D01*
X22327000Y-16123000D01*
X23301250Y-16123000D01*
X23460000Y-15964250D01*
X23460000Y-15373691D01*
X23363327Y-15140302D01*
X23221680Y-14998654D01*
X23282809Y-14957809D01*
X23423157Y-14747765D01*
X23470451Y-14510000D01*
X23983201Y-14510000D01*
X26257673Y-16784473D01*
X26300073Y-16847929D01*
X26521377Y-16995800D01*
X26326309Y-16915000D01*
X25885750Y-16915000D01*
X25727000Y-17073750D01*
X25727000Y-17873000D01*
X26676250Y-17873000D01*
X26835000Y-17714250D01*
X26835000Y-17423690D01*
X26738327Y-17190301D01*
X26567024Y-17018999D01*
X26773150Y-17060000D01*
X26773154Y-17060000D01*
X26848002Y-17074888D01*
X26922850Y-17060000D01*
X33940001Y-17060000D01*
X33940000Y-18125148D01*
X33925111Y-18200000D01*
X33940001Y-18274856D01*
X33940001Y-18780064D01*
X33897765Y-18751843D01*
X33650000Y-18702560D01*
X32950000Y-18702560D01*
X32702235Y-18751843D01*
X32570300Y-18840000D01*
X31347440Y-18840000D01*
X31347440Y-18550000D01*
X31298157Y-18302235D01*
X31157809Y-18092191D01*
X30947765Y-17951843D01*
X30700000Y-17902560D01*
X29500000Y-17902560D01*
X29252235Y-17951843D01*
X29042191Y-18092191D01*
X29000000Y-18155334D01*
X28957809Y-18092191D01*
X28747765Y-17951843D01*
X28500000Y-17902560D01*
X27300000Y-17902560D01*
X27052235Y-17951843D01*
X26842191Y-18092191D01*
X26761781Y-18212531D01*
X26676250Y-18127000D01*
X25727000Y-18127000D01*
X25727000Y-18147000D01*
X25473000Y-18147000D01*
X25473000Y-18127000D01*
X25453000Y-18127000D01*
X25453000Y-17873000D01*
X25473000Y-17873000D01*
X25473000Y-17073750D01*
X25314250Y-16915000D01*
X24873691Y-16915000D01*
X24640302Y-17011673D01*
X24498654Y-17153320D01*
X24457809Y-17092191D01*
X24247765Y-16951843D01*
X24000000Y-16902560D01*
X23460000Y-16902560D01*
X23460000Y-16535750D01*
X23301250Y-16377000D01*
X22327000Y-16377000D01*
X22327000Y-16397000D01*
X22073000Y-16397000D01*
X22073000Y-16377000D01*
X21098750Y-16377000D01*
X20940000Y-16535750D01*
X20940000Y-17126309D01*
X21036673Y-17359698D01*
X21215301Y-17538327D01*
X21448690Y-17635000D01*
X21914250Y-17635000D01*
X22072998Y-17476252D01*
X22072998Y-17635000D01*
X22152560Y-17635000D01*
X22152560Y-18450000D01*
X22201843Y-18697765D01*
X22240416Y-18755493D01*
X21547402Y-19448507D01*
X21488119Y-19488119D01*
X21448509Y-19547399D01*
X21047401Y-19948509D01*
X20988120Y-19988119D01*
X20872016Y-20161881D01*
X20831196Y-20222972D01*
X20776091Y-20500000D01*
X20790001Y-20569929D01*
X20790000Y-23680075D01*
X20776091Y-23750000D01*
X20790000Y-23819924D01*
X20790000Y-23819925D01*
X20831195Y-24027027D01*
X20988119Y-24261880D01*
X21047402Y-24301492D01*
X21998508Y-25252599D01*
X22038119Y-25311881D01*
X22272972Y-25468805D01*
X22480074Y-25510000D01*
X22480078Y-25510000D01*
X22549999Y-25523908D01*
X22619920Y-25510000D01*
X34679135Y-25510000D01*
X34665000Y-25544126D01*
X34665000Y-25955874D01*
X34822569Y-26336280D01*
X35113720Y-26627431D01*
X35494126Y-26785000D01*
X35905874Y-26785000D01*
X35984070Y-26752610D01*
X36052235Y-26798157D01*
X36300000Y-26847440D01*
X37252560Y-26847440D01*
X37252560Y-27075000D01*
X37073750Y-27075000D01*
X36915000Y-27233750D01*
X36915000Y-27326310D01*
X36977889Y-27478136D01*
X36947399Y-27498509D01*
X36888119Y-27538119D01*
X36848510Y-27597398D01*
X34905910Y-29540000D01*
X31729346Y-29540000D01*
X31809966Y-29459380D01*
X32135000Y-28674678D01*
X32135000Y-27825322D01*
X31809966Y-27040620D01*
X31209380Y-26440034D01*
X30424678Y-26115000D01*
X29575322Y-26115000D01*
X28790620Y-26440034D01*
X28190034Y-27040620D01*
X27865000Y-27825322D01*
X27865000Y-28674678D01*
X28190034Y-29459380D01*
X28270654Y-29540000D01*
X21544092Y-29540000D01*
X19406139Y-27402048D01*
X19586280Y-27327431D01*
X19877431Y-27036280D01*
X20035000Y-26655874D01*
X20035000Y-26244126D01*
X19877431Y-25863720D01*
X19710000Y-25696289D01*
X19710000Y-25253711D01*
X19877431Y-25086280D01*
X20035000Y-24705874D01*
X20035000Y-24294126D01*
X19877431Y-23913720D01*
X19586280Y-23622569D01*
X19205874Y-23465000D01*
X18794126Y-23465000D01*
X18413720Y-23622569D01*
X18122569Y-23913720D01*
X17965000Y-24294126D01*
X17965000Y-24705874D01*
X18122569Y-25086280D01*
X18290001Y-25253712D01*
X18290000Y-25696289D01*
X18122569Y-25863720D01*
X18047952Y-26043861D01*
X9169446Y-17165356D01*
X9234699Y-17138327D01*
X9413327Y-16959698D01*
X9510000Y-16726309D01*
X9510000Y-16285750D01*
X9351250Y-16127000D01*
X8627000Y-16127000D01*
X8627000Y-16147000D01*
X8373000Y-16147000D01*
X8373000Y-16127000D01*
X8353000Y-16127000D01*
X8353000Y-15873000D01*
X8373000Y-15873000D01*
X8373000Y-15853000D01*
X8627000Y-15853000D01*
X8627000Y-15873000D01*
X9351250Y-15873000D01*
X9510000Y-15714250D01*
X9510000Y-15273691D01*
X9413327Y-15040302D01*
X9412127Y-15039102D01*
X9473157Y-14947765D01*
X9522440Y-14700000D01*
X9522440Y-13500000D01*
X9473157Y-13252235D01*
X9332809Y-13042191D01*
X9260000Y-12993541D01*
X9260000Y-10340817D01*
X9531310Y-10069507D01*
X9576669Y-9960000D01*
X17460199Y-9960000D01*
X19061539Y-11561340D01*
G36*
X39227000Y-25623000D02*
X39247000Y-25623000D01*
X39247000Y-25877000D01*
X39227000Y-25877000D01*
X39227000Y-26676250D01*
X39385750Y-26835000D01*
X39826309Y-26835000D01*
X40059698Y-26738327D01*
X40238327Y-26559699D01*
X40299150Y-26412861D01*
X40413720Y-26527431D01*
X40715000Y-26652225D01*
X40715000Y-26705874D01*
X40872569Y-27086280D01*
X41076289Y-27290000D01*
X40219920Y-27290000D01*
X40149999Y-27276092D01*
X40080078Y-27290000D01*
X40080074Y-27290000D01*
X39872972Y-27331195D01*
X39826175Y-27362464D01*
X39586280Y-27122569D01*
X39205874Y-26965000D01*
X38794126Y-26965000D01*
X38747440Y-26984338D01*
X38747440Y-26835000D01*
X38814250Y-26835000D01*
X38824250Y-26825000D01*
X38926250Y-26825000D01*
X39085000Y-26666250D01*
X39085000Y-26573690D01*
X38988327Y-26340301D01*
X38973000Y-26324974D01*
X38973000Y-25877000D01*
X38953000Y-25877000D01*
X38953000Y-25623000D01*
X38973000Y-25623000D01*
X38973000Y-25603000D01*
X39227000Y-25603000D01*
X39227000Y-25623000D01*
X39227000Y-25623000D01*
G37*
X39227000Y-25623000D02*
X39247000Y-25623000D01*
X39247000Y-25877000D01*
X39227000Y-25877000D01*
X39227000Y-26676250D01*
X39385750Y-26835000D01*
X39826309Y-26835000D01*
X40059698Y-26738327D01*
X40238327Y-26559699D01*
X40299150Y-26412861D01*
X40413720Y-26527431D01*
X40715000Y-26652225D01*
X40715000Y-26705874D01*
X40872569Y-27086280D01*
X41076289Y-27290000D01*
X40219920Y-27290000D01*
X40149999Y-27276092D01*
X40080078Y-27290000D01*
X40080074Y-27290000D01*
X39872972Y-27331195D01*
X39826175Y-27362464D01*
X39586280Y-27122569D01*
X39205874Y-26965000D01*
X38794126Y-26965000D01*
X38747440Y-26984338D01*
X38747440Y-26835000D01*
X38814250Y-26835000D01*
X38824250Y-26825000D01*
X38926250Y-26825000D01*
X39085000Y-26666250D01*
X39085000Y-26573690D01*
X38988327Y-26340301D01*
X38973000Y-26324974D01*
X38973000Y-25877000D01*
X38953000Y-25877000D01*
X38953000Y-25623000D01*
X38973000Y-25623000D01*
X38973000Y-25603000D01*
X39227000Y-25603000D01*
X39227000Y-25623000D01*
G36*
X23527000Y-21873000D02*
X23547000Y-21873000D01*
X23547000Y-22127000D01*
X23527000Y-22127000D01*
X23527000Y-22926250D01*
X23685750Y-23085000D01*
X24126309Y-23085000D01*
X24359698Y-22988327D01*
X24501346Y-22846680D01*
X24542191Y-22907809D01*
X24685385Y-23003489D01*
X24565000Y-23294126D01*
X24565000Y-23705874D01*
X24722569Y-24086280D01*
X24726289Y-24090000D01*
X22844091Y-24090000D01*
X22210000Y-23455910D01*
X22210000Y-22684949D01*
X22261673Y-22809699D01*
X22440302Y-22988327D01*
X22673691Y-23085000D01*
X23114250Y-23085000D01*
X23273000Y-22926250D01*
X23273000Y-22127000D01*
X23253000Y-22127000D01*
X23253000Y-21873000D01*
X23273000Y-21873000D01*
X23273000Y-21853000D01*
X23527000Y-21853000D01*
X23527000Y-21873000D01*
X23527000Y-21873000D01*
G37*
X23527000Y-21873000D02*
X23547000Y-21873000D01*
X23547000Y-22127000D01*
X23527000Y-22127000D01*
X23527000Y-22926250D01*
X23685750Y-23085000D01*
X24126309Y-23085000D01*
X24359698Y-22988327D01*
X24501346Y-22846680D01*
X24542191Y-22907809D01*
X24685385Y-23003489D01*
X24565000Y-23294126D01*
X24565000Y-23705874D01*
X24722569Y-24086280D01*
X24726289Y-24090000D01*
X22844091Y-24090000D01*
X22210000Y-23455910D01*
X22210000Y-22684949D01*
X22261673Y-22809699D01*
X22440302Y-22988327D01*
X22673691Y-23085000D01*
X23114250Y-23085000D01*
X23273000Y-22926250D01*
X23273000Y-22127000D01*
X23253000Y-22127000D01*
X23253000Y-21873000D01*
X23273000Y-21873000D01*
X23273000Y-21853000D01*
X23527000Y-21853000D01*
X23527000Y-21873000D01*
G36*
X36973750Y-19073000D02*
X37923000Y-19073000D01*
X37923000Y-19053000D01*
X38177000Y-19053000D01*
X38177000Y-19073000D01*
X38197000Y-19073000D01*
X38197000Y-19327000D01*
X38177000Y-19327000D01*
X38177000Y-20051250D01*
X38335750Y-20210000D01*
X38776309Y-20210000D01*
X38990485Y-20121285D01*
X38865000Y-20424234D01*
X38865000Y-20875766D01*
X39037793Y-21292926D01*
X39344867Y-21600000D01*
X39037793Y-21907074D01*
X38865000Y-22324234D01*
X38865000Y-22775766D01*
X38990485Y-23078715D01*
X38776309Y-22990000D01*
X38335750Y-22990000D01*
X38177000Y-23148750D01*
X38177000Y-23873000D01*
X38197000Y-23873000D01*
X38197000Y-24090000D01*
X26473711Y-24090000D01*
X26477431Y-24086280D01*
X26635000Y-23705874D01*
X26635000Y-23498690D01*
X36815000Y-23498690D01*
X36815000Y-23714250D01*
X36973750Y-23873000D01*
X37923000Y-23873000D01*
X37923000Y-23148750D01*
X37764250Y-22990000D01*
X37323691Y-22990000D01*
X37090302Y-23086673D01*
X36911673Y-23265301D01*
X36815000Y-23498690D01*
X26635000Y-23498690D01*
X26635000Y-23294126D01*
X26514615Y-23003489D01*
X26657809Y-22907809D01*
X26798157Y-22697765D01*
X26847440Y-22450000D01*
X26847440Y-21911316D01*
X27052235Y-22048157D01*
X27300000Y-22097440D01*
X28500000Y-22097440D01*
X28747765Y-22048157D01*
X28957809Y-21907809D01*
X29000000Y-21844666D01*
X29042191Y-21907809D01*
X29252235Y-22048157D01*
X29500000Y-22097440D01*
X30700000Y-22097440D01*
X30947765Y-22048157D01*
X31157809Y-21907809D01*
X31298157Y-21697765D01*
X31347440Y-21450000D01*
X31347440Y-21160000D01*
X32570300Y-21160000D01*
X32702235Y-21248157D01*
X32950000Y-21297440D01*
X33650000Y-21297440D01*
X33897765Y-21248157D01*
X34000000Y-21179845D01*
X34102235Y-21248157D01*
X34350000Y-21297440D01*
X35050000Y-21297440D01*
X35297765Y-21248157D01*
X35507809Y-21107809D01*
X35648157Y-20897765D01*
X35697440Y-20650000D01*
X35697440Y-20150000D01*
X35667603Y-20000000D01*
X35697440Y-19850000D01*
X35697440Y-19485750D01*
X36815000Y-19485750D01*
X36815000Y-19701310D01*
X36911673Y-19934699D01*
X37090302Y-20113327D01*
X37323691Y-20210000D01*
X37764250Y-20210000D01*
X37923000Y-20051250D01*
X37923000Y-19327000D01*
X36973750Y-19327000D01*
X36815000Y-19485750D01*
X35697440Y-19485750D01*
X35697440Y-19350000D01*
X35648157Y-19102235D01*
X35553118Y-18960000D01*
X36860750Y-18960000D01*
X36973750Y-19073000D01*
X36973750Y-19073000D01*
G37*
X36973750Y-19073000D02*
X37923000Y-19073000D01*
X37923000Y-19053000D01*
X38177000Y-19053000D01*
X38177000Y-19073000D01*
X38197000Y-19073000D01*
X38197000Y-19327000D01*
X38177000Y-19327000D01*
X38177000Y-20051250D01*
X38335750Y-20210000D01*
X38776309Y-20210000D01*
X38990485Y-20121285D01*
X38865000Y-20424234D01*
X38865000Y-20875766D01*
X39037793Y-21292926D01*
X39344867Y-21600000D01*
X39037793Y-21907074D01*
X38865000Y-22324234D01*
X38865000Y-22775766D01*
X38990485Y-23078715D01*
X38776309Y-22990000D01*
X38335750Y-22990000D01*
X38177000Y-23148750D01*
X38177000Y-23873000D01*
X38197000Y-23873000D01*
X38197000Y-24090000D01*
X26473711Y-24090000D01*
X26477431Y-24086280D01*
X26635000Y-23705874D01*
X26635000Y-23498690D01*
X36815000Y-23498690D01*
X36815000Y-23714250D01*
X36973750Y-23873000D01*
X37923000Y-23873000D01*
X37923000Y-23148750D01*
X37764250Y-22990000D01*
X37323691Y-22990000D01*
X37090302Y-23086673D01*
X36911673Y-23265301D01*
X36815000Y-23498690D01*
X26635000Y-23498690D01*
X26635000Y-23294126D01*
X26514615Y-23003489D01*
X26657809Y-22907809D01*
X26798157Y-22697765D01*
X26847440Y-22450000D01*
X26847440Y-21911316D01*
X27052235Y-22048157D01*
X27300000Y-22097440D01*
X28500000Y-22097440D01*
X28747765Y-22048157D01*
X28957809Y-21907809D01*
X29000000Y-21844666D01*
X29042191Y-21907809D01*
X29252235Y-22048157D01*
X29500000Y-22097440D01*
X30700000Y-22097440D01*
X30947765Y-22048157D01*
X31157809Y-21907809D01*
X31298157Y-21697765D01*
X31347440Y-21450000D01*
X31347440Y-21160000D01*
X32570300Y-21160000D01*
X32702235Y-21248157D01*
X32950000Y-21297440D01*
X33650000Y-21297440D01*
X33897765Y-21248157D01*
X34000000Y-21179845D01*
X34102235Y-21248157D01*
X34350000Y-21297440D01*
X35050000Y-21297440D01*
X35297765Y-21248157D01*
X35507809Y-21107809D01*
X35648157Y-20897765D01*
X35697440Y-20650000D01*
X35697440Y-20150000D01*
X35667603Y-20000000D01*
X35697440Y-19850000D01*
X35697440Y-19485750D01*
X36815000Y-19485750D01*
X36815000Y-19701310D01*
X36911673Y-19934699D01*
X37090302Y-20113327D01*
X37323691Y-20210000D01*
X37764250Y-20210000D01*
X37923000Y-20051250D01*
X37923000Y-19327000D01*
X36973750Y-19327000D01*
X36815000Y-19485750D01*
X35697440Y-19485750D01*
X35697440Y-19350000D01*
X35648157Y-19102235D01*
X35553118Y-18960000D01*
X36860750Y-18960000D01*
X36973750Y-19073000D01*
G36*
X23161673Y-20809698D02*
X23272998Y-20921024D01*
X23272998Y-21073748D01*
X23114250Y-20915000D01*
X22673691Y-20915000D01*
X22440302Y-21011673D01*
X22261673Y-21190301D01*
X22210000Y-21315051D01*
X22210000Y-20794091D01*
X22294091Y-20710000D01*
X23120377Y-20710000D01*
X23161673Y-20809698D01*
X23161673Y-20809698D01*
G37*
X23161673Y-20809698D02*
X23272998Y-20921024D01*
X23272998Y-21073748D01*
X23114250Y-20915000D01*
X22673691Y-20915000D01*
X22440302Y-21011673D01*
X22261673Y-21190301D01*
X22210000Y-21315051D01*
X22210000Y-20794091D01*
X22294091Y-20710000D01*
X23120377Y-20710000D01*
X23161673Y-20809698D01*
G36*
X23532720Y-21068030D02*
X23527002Y-21073748D01*
X23527002Y-21065662D01*
X23532720Y-21068030D01*
X23532720Y-21068030D01*
G37*
X23532720Y-21068030D02*
X23527002Y-21073748D01*
X23527002Y-21065662D01*
X23532720Y-21068030D01*
G36*
X41726843Y-19047765D02*
X41867191Y-19257809D01*
X42077235Y-19398157D01*
X42325000Y-19447440D01*
X43075000Y-19447440D01*
X43322765Y-19398157D01*
X43450000Y-19313141D01*
X43577235Y-19398157D01*
X43825000Y-19447440D01*
X44122638Y-19447440D01*
X44512974Y-19837776D01*
X44377000Y-19973750D01*
X44377000Y-20575000D01*
X44397000Y-20575000D01*
X44397000Y-20602560D01*
X43450000Y-20602560D01*
X43202235Y-20651843D01*
X43070300Y-20740000D01*
X41164802Y-20740000D01*
X41135000Y-20710198D01*
X41135000Y-20424234D01*
X41093354Y-20323691D01*
X42815000Y-20323691D01*
X42815000Y-20416250D01*
X42973750Y-20575000D01*
X44123000Y-20575000D01*
X44123000Y-19973750D01*
X43964250Y-19815000D01*
X43323690Y-19815000D01*
X43090301Y-19911673D01*
X42911673Y-20090302D01*
X42815000Y-20323691D01*
X41093354Y-20323691D01*
X40980441Y-20051096D01*
X41007809Y-20032809D01*
X41148157Y-19822765D01*
X41197440Y-19575000D01*
X41197440Y-18960000D01*
X41709386Y-18960000D01*
X41726843Y-19047765D01*
X41726843Y-19047765D01*
G37*
X41726843Y-19047765D02*
X41867191Y-19257809D01*
X42077235Y-19398157D01*
X42325000Y-19447440D01*
X43075000Y-19447440D01*
X43322765Y-19398157D01*
X43450000Y-19313141D01*
X43577235Y-19398157D01*
X43825000Y-19447440D01*
X44122638Y-19447440D01*
X44512974Y-19837776D01*
X44377000Y-19973750D01*
X44377000Y-20575000D01*
X44397000Y-20575000D01*
X44397000Y-20602560D01*
X43450000Y-20602560D01*
X43202235Y-20651843D01*
X43070300Y-20740000D01*
X41164802Y-20740000D01*
X41135000Y-20710198D01*
X41135000Y-20424234D01*
X41093354Y-20323691D01*
X42815000Y-20323691D01*
X42815000Y-20416250D01*
X42973750Y-20575000D01*
X44123000Y-20575000D01*
X44123000Y-19973750D01*
X43964250Y-19815000D01*
X43323690Y-19815000D01*
X43090301Y-19911673D01*
X42911673Y-20090302D01*
X42815000Y-20323691D01*
X41093354Y-20323691D01*
X40980441Y-20051096D01*
X41007809Y-20032809D01*
X41148157Y-19822765D01*
X41197440Y-19575000D01*
X41197440Y-18960000D01*
X41709386Y-18960000D01*
X41726843Y-19047765D01*
G36*
X41690000Y-16014250D02*
X41848750Y-16173000D01*
X42573000Y-16173000D01*
X42573000Y-16153000D01*
X42827000Y-16153000D01*
X42827000Y-16173000D01*
X44073000Y-16173000D01*
X44073000Y-16153000D01*
X44327000Y-16153000D01*
X44327000Y-16173000D01*
X44347000Y-16173000D01*
X44347000Y-16427000D01*
X44327000Y-16427000D01*
X44327000Y-16447000D01*
X44073000Y-16447000D01*
X44073000Y-16427000D01*
X42827000Y-16427000D01*
X42827000Y-16447000D01*
X42573000Y-16447000D01*
X42573000Y-16427000D01*
X41848750Y-16427000D01*
X41690000Y-16585750D01*
X41690000Y-17026309D01*
X41786673Y-17259698D01*
X41787873Y-17260898D01*
X41726843Y-17352235D01*
X41709386Y-17440000D01*
X40337908Y-17440000D01*
X40385000Y-17326310D01*
X40385000Y-17035750D01*
X40226250Y-16877000D01*
X39277000Y-16877000D01*
X39277000Y-16897000D01*
X39023000Y-16897000D01*
X39023000Y-16877000D01*
X39003000Y-16877000D01*
X39003000Y-16623000D01*
X39023000Y-16623000D01*
X39023000Y-16603000D01*
X39277000Y-16603000D01*
X39277000Y-16623000D01*
X40226250Y-16623000D01*
X40385000Y-16464250D01*
X40385000Y-16173690D01*
X40288327Y-15940301D01*
X40237765Y-15889739D01*
X41690000Y-15889739D01*
X41690000Y-16014250D01*
X41690000Y-16014250D01*
G37*
X41690000Y-16014250D02*
X41848750Y-16173000D01*
X42573000Y-16173000D01*
X42573000Y-16153000D01*
X42827000Y-16153000D01*
X42827000Y-16173000D01*
X44073000Y-16173000D01*
X44073000Y-16153000D01*
X44327000Y-16153000D01*
X44327000Y-16173000D01*
X44347000Y-16173000D01*
X44347000Y-16427000D01*
X44327000Y-16427000D01*
X44327000Y-16447000D01*
X44073000Y-16447000D01*
X44073000Y-16427000D01*
X42827000Y-16427000D01*
X42827000Y-16447000D01*
X42573000Y-16447000D01*
X42573000Y-16427000D01*
X41848750Y-16427000D01*
X41690000Y-16585750D01*
X41690000Y-17026309D01*
X41786673Y-17259698D01*
X41787873Y-17260898D01*
X41726843Y-17352235D01*
X41709386Y-17440000D01*
X40337908Y-17440000D01*
X40385000Y-17326310D01*
X40385000Y-17035750D01*
X40226250Y-16877000D01*
X39277000Y-16877000D01*
X39277000Y-16897000D01*
X39023000Y-16897000D01*
X39023000Y-16877000D01*
X39003000Y-16877000D01*
X39003000Y-16623000D01*
X39023000Y-16623000D01*
X39023000Y-16603000D01*
X39277000Y-16603000D01*
X39277000Y-16623000D01*
X40226250Y-16623000D01*
X40385000Y-16464250D01*
X40385000Y-16173690D01*
X40288327Y-15940301D01*
X40237765Y-15889739D01*
X41690000Y-15889739D01*
X41690000Y-16014250D01*
G36*
X50815001Y-16294091D02*
X50815001Y-16665000D01*
X50760000Y-16665000D01*
X50760000Y-16585750D01*
X50601250Y-16427000D01*
X49877000Y-16427000D01*
X49877000Y-16447000D01*
X49623000Y-16447000D01*
X49623000Y-16427000D01*
X49603000Y-16427000D01*
X49603000Y-16173000D01*
X49623000Y-16173000D01*
X49623000Y-16153000D01*
X49877000Y-16153000D01*
X49877000Y-16173000D01*
X50601250Y-16173000D01*
X50647580Y-16126670D01*
X50815001Y-16294091D01*
X50815001Y-16294091D01*
G37*
X50815001Y-16294091D02*
X50815001Y-16665000D01*
X50760000Y-16665000D01*
X50760000Y-16585750D01*
X50601250Y-16427000D01*
X49877000Y-16427000D01*
X49877000Y-16447000D01*
X49623000Y-16447000D01*
X49623000Y-16427000D01*
X49603000Y-16427000D01*
X49603000Y-16173000D01*
X49623000Y-16173000D01*
X49623000Y-16153000D01*
X49877000Y-16153000D01*
X49877000Y-16173000D01*
X50601250Y-16173000D01*
X50647580Y-16126670D01*
X50815001Y-16294091D01*
G36*
X45877000Y-11973000D02*
X45897000Y-11973000D01*
X45897000Y-12227000D01*
X45877000Y-12227000D01*
X45877000Y-12247000D01*
X45623000Y-12247000D01*
X45623000Y-12227000D01*
X45603000Y-12227000D01*
X45603000Y-11973000D01*
X45623000Y-11973000D01*
X45623000Y-11953000D01*
X45877000Y-11953000D01*
X45877000Y-11973000D01*
X45877000Y-11973000D01*
G37*
X45877000Y-11973000D02*
X45897000Y-11973000D01*
X45897000Y-12227000D01*
X45877000Y-12227000D01*
X45877000Y-12247000D01*
X45623000Y-12247000D01*
X45623000Y-12227000D01*
X45603000Y-12227000D01*
X45603000Y-11973000D01*
X45623000Y-11973000D01*
X45623000Y-11953000D01*
X45877000Y-11953000D01*
X45877000Y-11973000D01*
G36*
X31213542Y-3259336D02*
X31239161Y-3869460D01*
X31423357Y-4314148D01*
X31679841Y-4400554D01*
X32580395Y-3500000D01*
X32566253Y-3485858D01*
X32745858Y-3306253D01*
X32760000Y-3320395D01*
X32774143Y-3306253D01*
X32953748Y-3485858D01*
X32939605Y-3500000D01*
X32953748Y-3514143D01*
X32774143Y-3693748D01*
X32760000Y-3679605D01*
X31859446Y-4580159D01*
X31945852Y-4836643D01*
X32519336Y-5046458D01*
X33129460Y-5020839D01*
X33574148Y-4836643D01*
X33660553Y-4580161D01*
X33775110Y-4694718D01*
X33809942Y-4659886D01*
X33942191Y-4857809D01*
X34152235Y-4998157D01*
X34400000Y-5047440D01*
X34540001Y-5047440D01*
X34540000Y-7385198D01*
X34110199Y-7815000D01*
X33944126Y-7815000D01*
X33575000Y-7967897D01*
X33205874Y-7815000D01*
X33039802Y-7815000D01*
X30917743Y-5692942D01*
X31048157Y-5497765D01*
X31097440Y-5250000D01*
X31097440Y-4050000D01*
X31048157Y-3802235D01*
X30907809Y-3592191D01*
X30844666Y-3550000D01*
X30907809Y-3507809D01*
X31048157Y-3297765D01*
X31086318Y-3105914D01*
X31247929Y-2997929D01*
X31290331Y-2934470D01*
X31356667Y-2868134D01*
X31213542Y-3259336D01*
X31213542Y-3259336D01*
G37*
X31213542Y-3259336D02*
X31239161Y-3869460D01*
X31423357Y-4314148D01*
X31679841Y-4400554D01*
X32580395Y-3500000D01*
X32566253Y-3485858D01*
X32745858Y-3306253D01*
X32760000Y-3320395D01*
X32774143Y-3306253D01*
X32953748Y-3485858D01*
X32939605Y-3500000D01*
X32953748Y-3514143D01*
X32774143Y-3693748D01*
X32760000Y-3679605D01*
X31859446Y-4580159D01*
X31945852Y-4836643D01*
X32519336Y-5046458D01*
X33129460Y-5020839D01*
X33574148Y-4836643D01*
X33660553Y-4580161D01*
X33775110Y-4694718D01*
X33809942Y-4659886D01*
X33942191Y-4857809D01*
X34152235Y-4998157D01*
X34400000Y-5047440D01*
X34540001Y-5047440D01*
X34540000Y-7385198D01*
X34110199Y-7815000D01*
X33944126Y-7815000D01*
X33575000Y-7967897D01*
X33205874Y-7815000D01*
X33039802Y-7815000D01*
X30917743Y-5692942D01*
X31048157Y-5497765D01*
X31097440Y-5250000D01*
X31097440Y-4050000D01*
X31048157Y-3802235D01*
X30907809Y-3592191D01*
X30844666Y-3550000D01*
X30907809Y-3507809D01*
X31048157Y-3297765D01*
X31086318Y-3105914D01*
X31247929Y-2997929D01*
X31290331Y-2934470D01*
X31356667Y-2868134D01*
X31213542Y-3259336D01*
G04 #@! TD*
M02*
