%TF.GenerationSoftware,KiCad,Pcbnew,no-vcs-found-cd21218~61~ubuntu16.04.1*%
%TF.CreationDate,2017-11-10T15:22:47+05:30*%
%TF.ProjectId,snap_rev3,736E61705F726576332E6B696361645F,rev?*%
%TF.SameCoordinates,Original*%
%TF.FileFunction,Legend,Bot*%
%TF.FilePolarity,Positive*%
%FSLAX46Y46*%
G04 Gerber Fmt 4.6, Leading zero omitted, Abs format (unit mm)*
G04 Created by KiCad (PCBNEW no-vcs-found-cd21218~61~ubuntu16.04.1) date Fri Nov 10 15:22:47 2017*
%MOMM*%
%LPD*%
G01*
G04 APERTURE LIST*
%ADD10C,0.150000*%
%ADD11C,0.254000*%
%ADD12C,0.300000*%
%ADD13C,0.600000*%
%ADD14C,0.100000*%
G04 APERTURE END LIST*
D10*
X108000000Y-88000000D02*
G75*
G02X110000000Y-90000000I0J-2000000D01*
G01*
X52000000Y-110000000D02*
G75*
G02X50000000Y-108000000I0J2000000D01*
G01*
X50000000Y-90000000D02*
G75*
G02X52000000Y-88000000I2000000J0D01*
G01*
X110000000Y-108000000D02*
G75*
G02X108000000Y-110000000I-2000000J0D01*
G01*
X50000000Y-108000000D02*
X50000000Y-90000000D01*
X108000000Y-110000000D02*
X52000000Y-110000000D01*
X110000000Y-90000000D02*
X110000000Y-108000000D01*
X108000000Y-88000000D02*
X52000000Y-88000000D01*
D11*
%TO.C,BT1*%
X52000000Y-105000000D02*
X68500000Y-105000000D01*
X52000000Y-95000000D02*
X52000000Y-105000000D01*
X68500000Y-95000000D02*
X52000000Y-95000000D01*
X68500000Y-105000000D02*
X68500000Y-95000000D01*
X88500000Y-95000000D02*
X88500000Y-105000000D01*
X105000000Y-95000000D02*
X88500000Y-95000000D01*
X105000000Y-105000000D02*
X105000000Y-95000000D01*
X88500000Y-105000000D02*
X105000000Y-105000000D01*
D12*
X103800000Y-92700000D02*
X53200000Y-92700000D01*
X53200000Y-107300000D02*
X103800000Y-107300000D01*
D13*
X69000000Y-100000000D02*
X73000000Y-100000000D01*
X86000000Y-102000000D02*
X86000000Y-98000000D01*
X88000000Y-100000000D02*
X84000000Y-100000000D01*
%TD*%
%TO.C,BT1*%
D14*
X68350000Y-94350000D02*
X68250000Y-94383333D01*
X68216666Y-94416666D01*
X68183333Y-94483333D01*
X68183333Y-94583333D01*
X68216666Y-94650000D01*
X68250000Y-94683333D01*
X68316666Y-94716666D01*
X68583333Y-94716666D01*
X68583333Y-94016666D01*
X68350000Y-94016666D01*
X68283333Y-94050000D01*
X68250000Y-94083333D01*
X68216666Y-94150000D01*
X68216666Y-94216666D01*
X68250000Y-94283333D01*
X68283333Y-94316666D01*
X68350000Y-94350000D01*
X68583333Y-94350000D01*
X67983333Y-94016666D02*
X67583333Y-94016666D01*
X67783333Y-94716666D02*
X67783333Y-94016666D01*
X66983333Y-94716666D02*
X67383333Y-94716666D01*
X67183333Y-94716666D02*
X67183333Y-94016666D01*
X67250000Y-94116666D01*
X67316666Y-94183333D01*
X67383333Y-94216666D01*
%TD*%
M02*
