G04 #@! TF.GenerationSoftware,KiCad,Pcbnew,5.1.4-e60b266~84~ubuntu18.04.1*
G04 #@! TF.CreationDate,2019-09-09T20:57:08+05:30*
G04 #@! TF.ProjectId,SenseCam_rev1,53656e73-6543-4616-9d5f-726576312e6b,rev?*
G04 #@! TF.SameCoordinates,Original*
G04 #@! TF.FileFunction,Soldermask,Bot*
G04 #@! TF.FilePolarity,Negative*
%FSLAX46Y46*%
G04 Gerber Fmt 4.6, Leading zero omitted, Abs format (unit mm)*
G04 Created by KiCad (PCBNEW 5.1.4-e60b266~84~ubuntu18.04.1) date 2019-09-09 20:57:08*
%MOMM*%
%LPD*%
G04 APERTURE LIST*
%ADD10C,0.100000*%
G04 APERTURE END LIST*
D10*
G36*
X98318433Y-186634893D02*
G01*
X98408657Y-186652839D01*
X98514267Y-186696585D01*
X98663621Y-186758449D01*
X98663622Y-186758450D01*
X98893086Y-186911772D01*
X99088228Y-187106914D01*
X99190675Y-187260237D01*
X99241551Y-187336379D01*
X99347161Y-187591344D01*
X99401000Y-187862012D01*
X99401000Y-188137988D01*
X99347161Y-188408656D01*
X99241551Y-188663621D01*
X99241550Y-188663622D01*
X99088228Y-188893086D01*
X98893086Y-189088228D01*
X98739763Y-189190675D01*
X98663621Y-189241551D01*
X98514267Y-189303415D01*
X98408657Y-189347161D01*
X98318433Y-189365107D01*
X98137988Y-189401000D01*
X97862012Y-189401000D01*
X97681567Y-189365107D01*
X97591343Y-189347161D01*
X97485733Y-189303415D01*
X97336379Y-189241551D01*
X97260237Y-189190675D01*
X97106914Y-189088228D01*
X96911772Y-188893086D01*
X96758450Y-188663622D01*
X96758449Y-188663621D01*
X96652839Y-188408656D01*
X96599000Y-188137988D01*
X96599000Y-187862012D01*
X96652839Y-187591344D01*
X96758449Y-187336379D01*
X96809325Y-187260237D01*
X96911772Y-187106914D01*
X97106914Y-186911772D01*
X97336378Y-186758450D01*
X97336379Y-186758449D01*
X97485733Y-186696585D01*
X97591343Y-186652839D01*
X97681567Y-186634893D01*
X97862012Y-186599000D01*
X98137988Y-186599000D01*
X98318433Y-186634893D01*
X98318433Y-186634893D01*
G37*
G36*
X57318433Y-186634893D02*
G01*
X57408657Y-186652839D01*
X57514267Y-186696585D01*
X57663621Y-186758449D01*
X57663622Y-186758450D01*
X57893086Y-186911772D01*
X58088228Y-187106914D01*
X58190675Y-187260237D01*
X58241551Y-187336379D01*
X58347161Y-187591344D01*
X58401000Y-187862012D01*
X58401000Y-188137988D01*
X58347161Y-188408656D01*
X58241551Y-188663621D01*
X58241550Y-188663622D01*
X58088228Y-188893086D01*
X57893086Y-189088228D01*
X57739763Y-189190675D01*
X57663621Y-189241551D01*
X57514267Y-189303415D01*
X57408657Y-189347161D01*
X57318433Y-189365107D01*
X57137988Y-189401000D01*
X56862012Y-189401000D01*
X56681567Y-189365107D01*
X56591343Y-189347161D01*
X56485733Y-189303415D01*
X56336379Y-189241551D01*
X56260237Y-189190675D01*
X56106914Y-189088228D01*
X55911772Y-188893086D01*
X55758450Y-188663622D01*
X55758449Y-188663621D01*
X55652839Y-188408656D01*
X55599000Y-188137988D01*
X55599000Y-187862012D01*
X55652839Y-187591344D01*
X55758449Y-187336379D01*
X55809325Y-187260237D01*
X55911772Y-187106914D01*
X56106914Y-186911772D01*
X56336378Y-186758450D01*
X56336379Y-186758449D01*
X56485733Y-186696585D01*
X56591343Y-186652839D01*
X56681567Y-186634893D01*
X56862012Y-186599000D01*
X57137988Y-186599000D01*
X57318433Y-186634893D01*
X57318433Y-186634893D01*
G37*
G36*
X97110443Y-182305519D02*
G01*
X97176627Y-182312037D01*
X97346466Y-182363557D01*
X97502991Y-182447222D01*
X97538729Y-182476552D01*
X97640186Y-182559814D01*
X97723448Y-182661271D01*
X97752778Y-182697009D01*
X97836443Y-182853534D01*
X97887963Y-183023373D01*
X97905359Y-183200000D01*
X97887963Y-183376627D01*
X97836443Y-183546466D01*
X97752778Y-183702991D01*
X97723448Y-183738729D01*
X97640186Y-183840186D01*
X97538729Y-183923448D01*
X97502991Y-183952778D01*
X97346466Y-184036443D01*
X97176627Y-184087963D01*
X97110443Y-184094481D01*
X97044260Y-184101000D01*
X96955740Y-184101000D01*
X96889557Y-184094481D01*
X96823373Y-184087963D01*
X96653534Y-184036443D01*
X96497009Y-183952778D01*
X96461271Y-183923448D01*
X96359814Y-183840186D01*
X96276552Y-183738729D01*
X96247222Y-183702991D01*
X96163557Y-183546466D01*
X96112037Y-183376627D01*
X96094641Y-183200000D01*
X96112037Y-183023373D01*
X96163557Y-182853534D01*
X96247222Y-182697009D01*
X96276552Y-182661271D01*
X96359814Y-182559814D01*
X96461271Y-182476552D01*
X96497009Y-182447222D01*
X96653534Y-182363557D01*
X96823373Y-182312037D01*
X96889557Y-182305519D01*
X96955740Y-182299000D01*
X97044260Y-182299000D01*
X97110443Y-182305519D01*
X97110443Y-182305519D01*
G37*
G36*
X82851000Y-182551000D02*
G01*
X79949000Y-182551000D01*
X79949000Y-181449000D01*
X82851000Y-181449000D01*
X82851000Y-182551000D01*
X82851000Y-182551000D01*
G37*
G36*
X77051000Y-182551000D02*
G01*
X74149000Y-182551000D01*
X74149000Y-181449000D01*
X77051000Y-181449000D01*
X77051000Y-182551000D01*
X77051000Y-182551000D01*
G37*
G36*
X97110443Y-179765519D02*
G01*
X97176627Y-179772037D01*
X97346466Y-179823557D01*
X97502991Y-179907222D01*
X97538729Y-179936552D01*
X97640186Y-180019814D01*
X97723448Y-180121271D01*
X97752778Y-180157009D01*
X97836443Y-180313534D01*
X97887963Y-180483373D01*
X97905359Y-180660000D01*
X97887963Y-180836627D01*
X97836443Y-181006466D01*
X97752778Y-181162991D01*
X97723448Y-181198729D01*
X97640186Y-181300186D01*
X97538729Y-181383448D01*
X97502991Y-181412778D01*
X97346466Y-181496443D01*
X97176627Y-181547963D01*
X97110443Y-181554481D01*
X97044260Y-181561000D01*
X96955740Y-181561000D01*
X96889557Y-181554481D01*
X96823373Y-181547963D01*
X96653534Y-181496443D01*
X96497009Y-181412778D01*
X96461271Y-181383448D01*
X96359814Y-181300186D01*
X96276552Y-181198729D01*
X96247222Y-181162991D01*
X96163557Y-181006466D01*
X96112037Y-180836627D01*
X96094641Y-180660000D01*
X96112037Y-180483373D01*
X96163557Y-180313534D01*
X96247222Y-180157009D01*
X96276552Y-180121271D01*
X96359814Y-180019814D01*
X96461271Y-179936552D01*
X96497009Y-179907222D01*
X96653534Y-179823557D01*
X96823373Y-179772037D01*
X96889557Y-179765519D01*
X96955740Y-179759000D01*
X97044260Y-179759000D01*
X97110443Y-179765519D01*
X97110443Y-179765519D01*
G37*
G36*
X97110442Y-177225518D02*
G01*
X97176627Y-177232037D01*
X97346466Y-177283557D01*
X97502991Y-177367222D01*
X97538729Y-177396552D01*
X97640186Y-177479814D01*
X97723448Y-177581271D01*
X97752778Y-177617009D01*
X97836443Y-177773534D01*
X97887963Y-177943373D01*
X97905359Y-178120000D01*
X97887963Y-178296627D01*
X97836443Y-178466466D01*
X97752778Y-178622991D01*
X97723448Y-178658729D01*
X97640186Y-178760186D01*
X97538729Y-178843448D01*
X97502991Y-178872778D01*
X97346466Y-178956443D01*
X97176627Y-179007963D01*
X97110442Y-179014482D01*
X97044260Y-179021000D01*
X96955740Y-179021000D01*
X96889558Y-179014482D01*
X96823373Y-179007963D01*
X96653534Y-178956443D01*
X96497009Y-178872778D01*
X96461271Y-178843448D01*
X96359814Y-178760186D01*
X96276552Y-178658729D01*
X96247222Y-178622991D01*
X96163557Y-178466466D01*
X96112037Y-178296627D01*
X96094641Y-178120000D01*
X96112037Y-177943373D01*
X96163557Y-177773534D01*
X96247222Y-177617009D01*
X96276552Y-177581271D01*
X96359814Y-177479814D01*
X96461271Y-177396552D01*
X96497009Y-177367222D01*
X96653534Y-177283557D01*
X96823373Y-177232037D01*
X96889558Y-177225518D01*
X96955740Y-177219000D01*
X97044260Y-177219000D01*
X97110442Y-177225518D01*
X97110442Y-177225518D01*
G37*
G36*
X82851000Y-178551000D02*
G01*
X79949000Y-178551000D01*
X79949000Y-177449000D01*
X82851000Y-177449000D01*
X82851000Y-178551000D01*
X82851000Y-178551000D01*
G37*
G36*
X77051000Y-178551000D02*
G01*
X74149000Y-178551000D01*
X74149000Y-177449000D01*
X77051000Y-177449000D01*
X77051000Y-178551000D01*
X77051000Y-178551000D01*
G37*
G36*
X97110442Y-174685518D02*
G01*
X97176627Y-174692037D01*
X97346466Y-174743557D01*
X97502991Y-174827222D01*
X97538729Y-174856552D01*
X97640186Y-174939814D01*
X97723448Y-175041271D01*
X97752778Y-175077009D01*
X97836443Y-175233534D01*
X97887963Y-175403373D01*
X97905359Y-175580000D01*
X97887963Y-175756627D01*
X97836443Y-175926466D01*
X97752778Y-176082991D01*
X97723448Y-176118729D01*
X97640186Y-176220186D01*
X97538729Y-176303448D01*
X97502991Y-176332778D01*
X97346466Y-176416443D01*
X97176627Y-176467963D01*
X97110443Y-176474481D01*
X97044260Y-176481000D01*
X96955740Y-176481000D01*
X96889557Y-176474481D01*
X96823373Y-176467963D01*
X96653534Y-176416443D01*
X96497009Y-176332778D01*
X96461271Y-176303448D01*
X96359814Y-176220186D01*
X96276552Y-176118729D01*
X96247222Y-176082991D01*
X96163557Y-175926466D01*
X96112037Y-175756627D01*
X96094641Y-175580000D01*
X96112037Y-175403373D01*
X96163557Y-175233534D01*
X96247222Y-175077009D01*
X96276552Y-175041271D01*
X96359814Y-174939814D01*
X96461271Y-174856552D01*
X96497009Y-174827222D01*
X96653534Y-174743557D01*
X96823373Y-174692037D01*
X96889558Y-174685518D01*
X96955740Y-174679000D01*
X97044260Y-174679000D01*
X97110442Y-174685518D01*
X97110442Y-174685518D01*
G37*
G36*
X97110442Y-172145518D02*
G01*
X97176627Y-172152037D01*
X97346466Y-172203557D01*
X97502991Y-172287222D01*
X97538729Y-172316552D01*
X97640186Y-172399814D01*
X97723448Y-172501271D01*
X97752778Y-172537009D01*
X97836443Y-172693534D01*
X97887963Y-172863373D01*
X97905359Y-173040000D01*
X97887963Y-173216627D01*
X97836443Y-173386466D01*
X97752778Y-173542991D01*
X97723448Y-173578729D01*
X97640186Y-173680186D01*
X97538729Y-173763448D01*
X97502991Y-173792778D01*
X97346466Y-173876443D01*
X97176627Y-173927963D01*
X97110442Y-173934482D01*
X97044260Y-173941000D01*
X96955740Y-173941000D01*
X96889558Y-173934482D01*
X96823373Y-173927963D01*
X96653534Y-173876443D01*
X96497009Y-173792778D01*
X96461271Y-173763448D01*
X96359814Y-173680186D01*
X96276552Y-173578729D01*
X96247222Y-173542991D01*
X96163557Y-173386466D01*
X96112037Y-173216627D01*
X96094641Y-173040000D01*
X96112037Y-172863373D01*
X96163557Y-172693534D01*
X96247222Y-172537009D01*
X96276552Y-172501271D01*
X96359814Y-172399814D01*
X96461271Y-172316552D01*
X96497009Y-172287222D01*
X96653534Y-172203557D01*
X96823373Y-172152037D01*
X96889558Y-172145518D01*
X96955740Y-172139000D01*
X97044260Y-172139000D01*
X97110442Y-172145518D01*
X97110442Y-172145518D01*
G37*
G36*
X97901000Y-171401000D02*
G01*
X96099000Y-171401000D01*
X96099000Y-169599000D01*
X97901000Y-169599000D01*
X97901000Y-171401000D01*
X97901000Y-171401000D01*
G37*
G36*
X97110443Y-165725519D02*
G01*
X97176627Y-165732037D01*
X97346466Y-165783557D01*
X97502991Y-165867222D01*
X97538729Y-165896552D01*
X97640186Y-165979814D01*
X97723448Y-166081271D01*
X97752778Y-166117009D01*
X97836443Y-166273534D01*
X97887963Y-166443373D01*
X97905359Y-166620000D01*
X97887963Y-166796627D01*
X97836443Y-166966466D01*
X97752778Y-167122991D01*
X97723448Y-167158729D01*
X97640186Y-167260186D01*
X97538729Y-167343448D01*
X97502991Y-167372778D01*
X97346466Y-167456443D01*
X97176627Y-167507963D01*
X97110442Y-167514482D01*
X97044260Y-167521000D01*
X96955740Y-167521000D01*
X96889558Y-167514482D01*
X96823373Y-167507963D01*
X96653534Y-167456443D01*
X96497009Y-167372778D01*
X96461271Y-167343448D01*
X96359814Y-167260186D01*
X96276552Y-167158729D01*
X96247222Y-167122991D01*
X96163557Y-166966466D01*
X96112037Y-166796627D01*
X96094641Y-166620000D01*
X96112037Y-166443373D01*
X96163557Y-166273534D01*
X96247222Y-166117009D01*
X96276552Y-166081271D01*
X96359814Y-165979814D01*
X96461271Y-165896552D01*
X96497009Y-165867222D01*
X96653534Y-165783557D01*
X96823373Y-165732037D01*
X96889557Y-165725519D01*
X96955740Y-165719000D01*
X97044260Y-165719000D01*
X97110443Y-165725519D01*
X97110443Y-165725519D01*
G37*
G36*
X97110442Y-163185518D02*
G01*
X97176627Y-163192037D01*
X97346466Y-163243557D01*
X97502991Y-163327222D01*
X97538729Y-163356552D01*
X97640186Y-163439814D01*
X97723448Y-163541271D01*
X97752778Y-163577009D01*
X97836443Y-163733534D01*
X97887963Y-163903373D01*
X97905359Y-164080000D01*
X97887963Y-164256627D01*
X97836443Y-164426466D01*
X97752778Y-164582991D01*
X97723448Y-164618729D01*
X97640186Y-164720186D01*
X97538729Y-164803448D01*
X97502991Y-164832778D01*
X97346466Y-164916443D01*
X97176627Y-164967963D01*
X97110443Y-164974481D01*
X97044260Y-164981000D01*
X96955740Y-164981000D01*
X96889557Y-164974481D01*
X96823373Y-164967963D01*
X96653534Y-164916443D01*
X96497009Y-164832778D01*
X96461271Y-164803448D01*
X96359814Y-164720186D01*
X96276552Y-164618729D01*
X96247222Y-164582991D01*
X96163557Y-164426466D01*
X96112037Y-164256627D01*
X96094641Y-164080000D01*
X96112037Y-163903373D01*
X96163557Y-163733534D01*
X96247222Y-163577009D01*
X96276552Y-163541271D01*
X96359814Y-163439814D01*
X96461271Y-163356552D01*
X96497009Y-163327222D01*
X96653534Y-163243557D01*
X96823373Y-163192037D01*
X96889558Y-163185518D01*
X96955740Y-163179000D01*
X97044260Y-163179000D01*
X97110442Y-163185518D01*
X97110442Y-163185518D01*
G37*
G36*
X97110442Y-160645518D02*
G01*
X97176627Y-160652037D01*
X97346466Y-160703557D01*
X97502991Y-160787222D01*
X97538729Y-160816552D01*
X97640186Y-160899814D01*
X97723448Y-161001271D01*
X97752778Y-161037009D01*
X97836443Y-161193534D01*
X97887963Y-161363373D01*
X97905359Y-161540000D01*
X97887963Y-161716627D01*
X97836443Y-161886466D01*
X97752778Y-162042991D01*
X97723448Y-162078729D01*
X97640186Y-162180186D01*
X97538729Y-162263448D01*
X97502991Y-162292778D01*
X97346466Y-162376443D01*
X97176627Y-162427963D01*
X97110443Y-162434481D01*
X97044260Y-162441000D01*
X96955740Y-162441000D01*
X96889557Y-162434481D01*
X96823373Y-162427963D01*
X96653534Y-162376443D01*
X96497009Y-162292778D01*
X96461271Y-162263448D01*
X96359814Y-162180186D01*
X96276552Y-162078729D01*
X96247222Y-162042991D01*
X96163557Y-161886466D01*
X96112037Y-161716627D01*
X96094641Y-161540000D01*
X96112037Y-161363373D01*
X96163557Y-161193534D01*
X96247222Y-161037009D01*
X96276552Y-161001271D01*
X96359814Y-160899814D01*
X96461271Y-160816552D01*
X96497009Y-160787222D01*
X96653534Y-160703557D01*
X96823373Y-160652037D01*
X96889558Y-160645518D01*
X96955740Y-160639000D01*
X97044260Y-160639000D01*
X97110442Y-160645518D01*
X97110442Y-160645518D01*
G37*
G36*
X97901000Y-159901000D02*
G01*
X96099000Y-159901000D01*
X96099000Y-158099000D01*
X97901000Y-158099000D01*
X97901000Y-159901000D01*
X97901000Y-159901000D01*
G37*
G36*
X95110443Y-151645519D02*
G01*
X95176627Y-151652037D01*
X95346466Y-151703557D01*
X95502991Y-151787222D01*
X95538729Y-151816552D01*
X95640186Y-151899814D01*
X95723448Y-152001271D01*
X95752778Y-152037009D01*
X95836443Y-152193534D01*
X95887963Y-152363373D01*
X95905359Y-152540000D01*
X95887963Y-152716627D01*
X95836443Y-152886466D01*
X95752778Y-153042991D01*
X95723448Y-153078729D01*
X95640186Y-153180186D01*
X95538729Y-153263448D01*
X95502991Y-153292778D01*
X95346466Y-153376443D01*
X95176627Y-153427963D01*
X95110443Y-153434481D01*
X95044260Y-153441000D01*
X94955740Y-153441000D01*
X94889557Y-153434481D01*
X94823373Y-153427963D01*
X94653534Y-153376443D01*
X94497009Y-153292778D01*
X94461271Y-153263448D01*
X94359814Y-153180186D01*
X94276552Y-153078729D01*
X94247222Y-153042991D01*
X94163557Y-152886466D01*
X94112037Y-152716627D01*
X94094641Y-152540000D01*
X94112037Y-152363373D01*
X94163557Y-152193534D01*
X94247222Y-152037009D01*
X94276552Y-152001271D01*
X94359814Y-151899814D01*
X94461271Y-151816552D01*
X94497009Y-151787222D01*
X94653534Y-151703557D01*
X94823373Y-151652037D01*
X94889557Y-151645519D01*
X94955740Y-151639000D01*
X95044260Y-151639000D01*
X95110443Y-151645519D01*
X95110443Y-151645519D01*
G37*
G36*
X95901000Y-150901000D02*
G01*
X94099000Y-150901000D01*
X94099000Y-149099000D01*
X95901000Y-149099000D01*
X95901000Y-150901000D01*
X95901000Y-150901000D01*
G37*
G36*
X94700043Y-130931519D02*
G01*
X94766227Y-130938037D01*
X94936066Y-130989557D01*
X95092591Y-131073222D01*
X95128329Y-131102552D01*
X95229786Y-131185814D01*
X95313048Y-131287271D01*
X95342378Y-131323009D01*
X95426043Y-131479534D01*
X95477563Y-131649373D01*
X95494959Y-131826000D01*
X95477563Y-132002627D01*
X95426043Y-132172466D01*
X95342378Y-132328991D01*
X95313048Y-132364729D01*
X95229786Y-132466186D01*
X95128329Y-132549448D01*
X95092591Y-132578778D01*
X94936066Y-132662443D01*
X94766227Y-132713963D01*
X94700043Y-132720481D01*
X94633860Y-132727000D01*
X94545340Y-132727000D01*
X94479157Y-132720481D01*
X94412973Y-132713963D01*
X94243134Y-132662443D01*
X94086609Y-132578778D01*
X94050871Y-132549448D01*
X93949414Y-132466186D01*
X93866152Y-132364729D01*
X93836822Y-132328991D01*
X93753157Y-132172466D01*
X93701637Y-132002627D01*
X93684241Y-131826000D01*
X93701637Y-131649373D01*
X93753157Y-131479534D01*
X93836822Y-131323009D01*
X93866152Y-131287271D01*
X93949414Y-131185814D01*
X94050871Y-131102552D01*
X94086609Y-131073222D01*
X94243134Y-130989557D01*
X94412973Y-130938037D01*
X94479157Y-130931519D01*
X94545340Y-130925000D01*
X94633860Y-130925000D01*
X94700043Y-130931519D01*
X94700043Y-130931519D01*
G37*
G36*
X94700043Y-128391519D02*
G01*
X94766227Y-128398037D01*
X94936066Y-128449557D01*
X95092591Y-128533222D01*
X95128329Y-128562552D01*
X95229786Y-128645814D01*
X95313048Y-128747271D01*
X95342378Y-128783009D01*
X95426043Y-128939534D01*
X95477563Y-129109373D01*
X95494959Y-129286000D01*
X95477563Y-129462627D01*
X95426043Y-129632466D01*
X95342378Y-129788991D01*
X95313048Y-129824729D01*
X95229786Y-129926186D01*
X95128329Y-130009448D01*
X95092591Y-130038778D01*
X94936066Y-130122443D01*
X94766227Y-130173963D01*
X94700043Y-130180481D01*
X94633860Y-130187000D01*
X94545340Y-130187000D01*
X94479157Y-130180481D01*
X94412973Y-130173963D01*
X94243134Y-130122443D01*
X94086609Y-130038778D01*
X94050871Y-130009448D01*
X93949414Y-129926186D01*
X93866152Y-129824729D01*
X93836822Y-129788991D01*
X93753157Y-129632466D01*
X93701637Y-129462627D01*
X93684241Y-129286000D01*
X93701637Y-129109373D01*
X93753157Y-128939534D01*
X93836822Y-128783009D01*
X93866152Y-128747271D01*
X93949414Y-128645814D01*
X94050871Y-128562552D01*
X94086609Y-128533222D01*
X94243134Y-128449557D01*
X94412973Y-128398037D01*
X94479157Y-128391519D01*
X94545340Y-128385000D01*
X94633860Y-128385000D01*
X94700043Y-128391519D01*
X94700043Y-128391519D01*
G37*
G36*
X95490600Y-127647000D02*
G01*
X93688600Y-127647000D01*
X93688600Y-125845000D01*
X95490600Y-125845000D01*
X95490600Y-127647000D01*
X95490600Y-127647000D01*
G37*
G36*
X57318433Y-120634893D02*
G01*
X57408657Y-120652839D01*
X57514267Y-120696585D01*
X57663621Y-120758449D01*
X57663622Y-120758450D01*
X57893086Y-120911772D01*
X58088228Y-121106914D01*
X58190675Y-121260237D01*
X58241551Y-121336379D01*
X58347161Y-121591344D01*
X58401000Y-121862012D01*
X58401000Y-122137988D01*
X58347161Y-122408656D01*
X58241551Y-122663621D01*
X58241550Y-122663622D01*
X58088228Y-122893086D01*
X57893086Y-123088228D01*
X57739763Y-123190675D01*
X57663621Y-123241551D01*
X57514267Y-123303415D01*
X57408657Y-123347161D01*
X57318433Y-123365107D01*
X57137988Y-123401000D01*
X56862012Y-123401000D01*
X56681567Y-123365107D01*
X56591343Y-123347161D01*
X56485733Y-123303415D01*
X56336379Y-123241551D01*
X56260237Y-123190675D01*
X56106914Y-123088228D01*
X55911772Y-122893086D01*
X55758450Y-122663622D01*
X55758449Y-122663621D01*
X55652839Y-122408656D01*
X55599000Y-122137988D01*
X55599000Y-121862012D01*
X55652839Y-121591344D01*
X55758449Y-121336379D01*
X55809325Y-121260237D01*
X55911772Y-121106914D01*
X56106914Y-120911772D01*
X56336378Y-120758450D01*
X56336379Y-120758449D01*
X56485733Y-120696585D01*
X56591343Y-120652839D01*
X56681567Y-120634893D01*
X56862012Y-120599000D01*
X57137988Y-120599000D01*
X57318433Y-120634893D01*
X57318433Y-120634893D01*
G37*
G36*
X98318433Y-120634893D02*
G01*
X98408657Y-120652839D01*
X98514267Y-120696585D01*
X98663621Y-120758449D01*
X98663622Y-120758450D01*
X98893086Y-120911772D01*
X99088228Y-121106914D01*
X99190675Y-121260237D01*
X99241551Y-121336379D01*
X99347161Y-121591344D01*
X99401000Y-121862012D01*
X99401000Y-122137988D01*
X99347161Y-122408656D01*
X99241551Y-122663621D01*
X99241550Y-122663622D01*
X99088228Y-122893086D01*
X98893086Y-123088228D01*
X98739763Y-123190675D01*
X98663621Y-123241551D01*
X98514267Y-123303415D01*
X98408657Y-123347161D01*
X98318433Y-123365107D01*
X98137988Y-123401000D01*
X97862012Y-123401000D01*
X97681567Y-123365107D01*
X97591343Y-123347161D01*
X97485733Y-123303415D01*
X97336379Y-123241551D01*
X97260237Y-123190675D01*
X97106914Y-123088228D01*
X96911772Y-122893086D01*
X96758450Y-122663622D01*
X96758449Y-122663621D01*
X96652839Y-122408656D01*
X96599000Y-122137988D01*
X96599000Y-121862012D01*
X96652839Y-121591344D01*
X96758449Y-121336379D01*
X96809325Y-121260237D01*
X96911772Y-121106914D01*
X97106914Y-120911772D01*
X97336378Y-120758450D01*
X97336379Y-120758449D01*
X97485733Y-120696585D01*
X97591343Y-120652839D01*
X97681567Y-120634893D01*
X97862012Y-120599000D01*
X98137988Y-120599000D01*
X98318433Y-120634893D01*
X98318433Y-120634893D01*
G37*
M02*
