G04 #@! TF.GenerationSoftware,KiCad,Pcbnew,5.1.4-e60b266~84~ubuntu18.04.1*
G04 #@! TF.CreationDate,2019-09-09T20:57:08+05:30*
G04 #@! TF.ProjectId,SenseCam_rev1,53656e73-6543-4616-9d5f-726576312e6b,rev?*
G04 #@! TF.SameCoordinates,Original*
G04 #@! TF.FileFunction,Copper,L2,Bot*
G04 #@! TF.FilePolarity,Positive*
%FSLAX46Y46*%
G04 Gerber Fmt 4.6, Leading zero omitted, Abs format (unit mm)*
G04 Created by KiCad (PCBNEW 5.1.4-e60b266~84~ubuntu18.04.1) date 2019-09-09 20:57:08*
%MOMM*%
%LPD*%
G04 APERTURE LIST*
%ADD10R,1.700000X1.700000*%
%ADD11O,1.700000X1.700000*%
%ADD12R,2.800000X1.000000*%
%ADD13C,0.600000*%
%ADD14C,0.160000*%
%ADD15C,0.300000*%
%ADD16C,0.250000*%
%ADD17C,0.254000*%
G04 APERTURE END LIST*
D10*
X95000000Y-150000000D03*
D11*
X95000000Y-152540000D03*
D10*
X97000000Y-159000000D03*
D11*
X97000000Y-161540000D03*
X97000000Y-164080000D03*
X97000000Y-166620000D03*
D10*
X97000000Y-170500000D03*
D11*
X97000000Y-173040000D03*
X97000000Y-175580000D03*
X97000000Y-178120000D03*
X97000000Y-180660000D03*
X97000000Y-183200000D03*
D10*
X94589600Y-126746000D03*
D11*
X94589600Y-129286000D03*
X94589600Y-131826000D03*
D12*
X75600000Y-182000000D03*
X81400000Y-182000000D03*
X75600000Y-178000000D03*
X81400000Y-178000000D03*
D13*
X72771000Y-133070600D03*
X78511400Y-130352800D03*
X89650000Y-137450000D03*
X91100000Y-136200000D03*
X84800000Y-142600000D03*
X88200000Y-151500000D03*
X74100000Y-161600000D03*
X90900000Y-144400000D03*
X81300000Y-146400000D03*
X83300000Y-163300000D03*
X67500000Y-172000000D03*
X63500000Y-145700000D03*
X66700000Y-153200000D03*
X68900000Y-164400000D03*
X78700000Y-168900000D03*
X93800000Y-159600000D03*
X63760000Y-153660000D03*
X67398289Y-148899715D03*
X69200000Y-150300000D03*
X84400000Y-140600000D03*
X88900000Y-154100000D03*
X75624006Y-156740010D03*
X94518246Y-156251766D03*
X73200000Y-167900000D03*
X77500000Y-167700000D03*
X85200000Y-165800000D03*
X83300000Y-165800000D03*
X83275000Y-167675000D03*
X89500000Y-162600000D03*
X83300000Y-159300000D03*
X88300000Y-159500000D03*
X75600000Y-154600000D03*
X80400000Y-150300000D03*
X80400000Y-152800000D03*
X84500000Y-154100000D03*
X94800000Y-157900000D03*
X89700000Y-156900000D03*
X74150000Y-136400000D03*
X76500000Y-138300000D03*
X76809990Y-135665000D03*
X66676787Y-133225226D03*
X80859990Y-138300000D03*
X84150000Y-137500000D03*
X68886335Y-148486335D03*
X87700000Y-148300000D03*
X69000000Y-160400000D03*
X61700000Y-159500000D03*
X58200000Y-159500000D03*
X92700000Y-168200000D03*
X66446400Y-164998400D03*
X60500000Y-165000000D03*
X91300000Y-168200000D03*
X74059990Y-168140010D03*
X72089998Y-165689998D03*
X73973367Y-165762147D03*
X78181200Y-168240010D03*
X94100000Y-167000000D03*
X72100000Y-167800000D03*
X66400000Y-167700000D03*
X68475000Y-170575000D03*
X76458900Y-170541100D03*
X85475000Y-170525000D03*
X76500000Y-154900000D03*
X76600000Y-148100000D03*
X84430140Y-149269860D03*
X90779600Y-148790400D03*
X64600000Y-159400000D03*
X68000000Y-148359705D03*
X71562081Y-159434831D03*
X64600000Y-154000000D03*
X64750000Y-135100000D03*
X64725000Y-140325000D03*
X66050000Y-138547000D03*
X66100000Y-134791190D03*
X70777100Y-134302500D03*
X70759990Y-138811000D03*
X75704700Y-133654800D03*
X74523600Y-130568700D03*
X74581049Y-150540011D03*
X73544878Y-130058321D03*
X73279000Y-152488900D03*
X79603600Y-128384300D03*
X79700000Y-149500000D03*
X83629500Y-149339300D03*
X81508600Y-127673100D03*
X85432900Y-128219200D03*
X86049695Y-146311195D03*
X77901800Y-126555500D03*
X77939900Y-153924000D03*
X86017100Y-127609600D03*
X86271100Y-145567400D03*
X86423500Y-126923800D03*
X86877121Y-144995900D03*
X72152320Y-133512021D03*
X72390010Y-138734800D03*
X68311388Y-133787691D03*
X67750000Y-134300000D03*
X67863933Y-143882789D03*
X67192329Y-133783647D03*
X67500000Y-144550000D03*
X59600000Y-157200000D03*
X76700000Y-141200000D03*
X68021200Y-165100000D03*
X86664800Y-163474400D03*
X66090800Y-158750000D03*
X81159990Y-158851600D03*
X84683600Y-157276800D03*
X86024998Y-157276800D03*
X65430400Y-157937200D03*
X82245200Y-158191200D03*
X77300000Y-153400000D03*
X77700000Y-144100000D03*
X80200000Y-145100000D03*
X74900000Y-157200000D03*
X77759990Y-161145702D03*
X78800000Y-146900000D03*
X97759990Y-154209999D03*
X71400000Y-144900000D03*
X71400000Y-146900000D03*
X96500000Y-155200000D03*
X73600000Y-155500000D03*
X74300000Y-156100000D03*
X98700000Y-156900000D03*
X79500000Y-154000000D03*
X95400000Y-154700000D03*
X77160019Y-152485918D03*
X77108620Y-141859990D03*
X62600000Y-155700000D03*
X68850000Y-155500000D03*
X81700000Y-161950000D03*
X91000000Y-161950000D03*
X83550000Y-135500000D03*
X87450000Y-134850000D03*
X66426456Y-166177546D03*
X77500000Y-165700000D03*
X73947569Y-166521721D03*
X72650000Y-144850000D03*
X71300000Y-136600000D03*
X72950000Y-143650000D03*
X71650000Y-135900000D03*
X78100000Y-164400000D03*
X71100000Y-164400000D03*
X78892400Y-162356800D03*
X70612000Y-162306000D03*
X80213200Y-163779200D03*
X69800000Y-163800000D03*
X64500000Y-161340800D03*
X66090800Y-161442400D03*
X79552800Y-163017200D03*
X65600000Y-163000000D03*
X78700000Y-139450000D03*
X78700000Y-134200000D03*
X77350000Y-138600000D03*
X77350000Y-135050000D03*
X75379265Y-152505185D03*
X74999977Y-149400000D03*
X74999977Y-151718481D03*
X69638403Y-149488927D03*
X86850000Y-146383698D03*
X82423708Y-146923708D03*
X98100000Y-146900000D03*
X69850000Y-129600000D03*
X70300000Y-141800000D03*
D14*
X67098290Y-149199714D02*
X67398289Y-148899715D01*
X66700000Y-149598004D02*
X67098290Y-149199714D01*
X66700000Y-153200000D02*
X66700000Y-149598004D01*
X84400000Y-142200000D02*
X84800000Y-142600000D01*
X84400000Y-140600000D02*
X84400000Y-142200000D01*
X88900000Y-152200000D02*
X88200000Y-151500000D01*
X88900000Y-154100000D02*
X88900000Y-152200000D01*
X76975736Y-167600000D02*
X77075736Y-167700000D01*
X73400000Y-167600000D02*
X76975736Y-167600000D01*
X73200000Y-167900000D02*
X73200000Y-167800000D01*
X77075736Y-167700000D02*
X77500000Y-167700000D01*
X73200000Y-167800000D02*
X73400000Y-167600000D01*
X85200000Y-165800000D02*
X83300000Y-165800000D01*
X77500000Y-167700000D02*
X83250000Y-167700000D01*
X83250000Y-167700000D02*
X83275000Y-167675000D01*
X90900000Y-136200000D02*
X91100000Y-136200000D01*
X89650000Y-137450000D02*
X90900000Y-136200000D01*
X81300000Y-154100000D02*
X80400000Y-153200000D01*
X80400000Y-153200000D02*
X80400000Y-152800000D01*
X80400000Y-152800000D02*
X80400000Y-150300000D01*
X88900000Y-154100000D02*
X84500000Y-154100000D01*
X84500000Y-154100000D02*
X81300000Y-154100000D01*
X76809990Y-136089264D02*
X76809990Y-135665000D01*
X76809990Y-137990010D02*
X76809990Y-136089264D01*
X76500000Y-138300000D02*
X76809990Y-137990010D01*
X83500000Y-159500000D02*
X83300000Y-159300000D01*
X88300000Y-159500000D02*
X83500000Y-159500000D01*
X66699715Y-148899715D02*
X63500000Y-145700000D01*
X67398289Y-148899715D02*
X66699715Y-148899715D01*
X68886335Y-149986335D02*
X68886335Y-148910599D01*
X67700000Y-147300000D02*
X68124264Y-147300000D01*
X68124264Y-147300000D02*
X68886335Y-148062071D01*
X68886335Y-148062071D02*
X68886335Y-148486335D01*
X69200000Y-150300000D02*
X68886335Y-149986335D01*
X67398289Y-148899715D02*
X67398289Y-147601711D01*
X68886335Y-148910599D02*
X68886335Y-148486335D01*
X67398289Y-147601711D02*
X67700000Y-147300000D01*
X74100000Y-161600000D02*
X70200000Y-161600000D01*
X70200000Y-161600000D02*
X69000000Y-160400000D01*
X64641598Y-160400000D02*
X64341598Y-160100000D01*
X69000000Y-160400000D02*
X64641598Y-160400000D01*
X64341598Y-160100000D02*
X62300000Y-160100000D01*
X62300000Y-160100000D02*
X61700000Y-159500000D01*
X61700000Y-159500000D02*
X58200000Y-159500000D01*
X97000000Y-167822081D02*
X96622081Y-168200000D01*
X97000000Y-166620000D02*
X97000000Y-167822081D01*
X96622081Y-168200000D02*
X92700000Y-168200000D01*
D15*
X66446400Y-164998400D02*
X63195200Y-164998400D01*
X63193600Y-165000000D02*
X60500000Y-165000000D01*
D14*
X63195200Y-164998400D02*
X63193600Y-165000000D01*
X91248000Y-168148000D02*
X91300000Y-168200000D01*
D15*
X71676772Y-165720424D02*
X71707198Y-165689998D01*
X67168424Y-165720424D02*
X71676772Y-165720424D01*
X66446400Y-164998400D02*
X67168424Y-165720424D01*
D14*
X74107990Y-168148000D02*
X74100000Y-168140010D01*
X74100000Y-168140010D02*
X74059990Y-168140010D01*
D15*
X71707198Y-165689998D02*
X72089998Y-165689998D01*
X73901218Y-165689998D02*
X73973367Y-165762147D01*
X72089998Y-165689998D02*
X73901218Y-165689998D01*
X74499999Y-168540009D02*
X77881201Y-168540009D01*
X83567802Y-168285002D02*
X78650456Y-168285002D01*
X91248000Y-168148000D02*
X83704804Y-168148000D01*
X78605464Y-168240010D02*
X78181200Y-168240010D01*
X74107990Y-168148000D02*
X74499999Y-168540009D01*
X83704804Y-168148000D02*
X83567802Y-168285002D01*
X77881201Y-168540009D02*
X78181200Y-168240010D01*
X78650456Y-168285002D02*
X78605464Y-168240010D01*
D14*
X94000000Y-167100000D02*
X94100000Y-167000000D01*
X72100000Y-167800000D02*
X72800000Y-167100000D01*
X90200000Y-167100000D02*
X94000000Y-167100000D01*
X72800000Y-167100000D02*
X90200000Y-167100000D01*
X66400000Y-167700000D02*
X72000000Y-167700000D01*
X72000000Y-167700000D02*
X72100000Y-167800000D01*
D15*
X76475000Y-170525000D02*
X76458900Y-170541100D01*
X85475000Y-170525000D02*
X76475000Y-170525000D01*
X68508900Y-170541100D02*
X68475000Y-170575000D01*
X76458900Y-170541100D02*
X68508900Y-170541100D01*
D16*
X76500000Y-154900000D02*
X76500000Y-148200000D01*
X76500000Y-148200000D02*
X76600000Y-148100000D01*
X84430140Y-149269860D02*
X90300140Y-149269860D01*
X90300140Y-149269860D02*
X90779600Y-148790400D01*
D15*
X65024264Y-159400000D02*
X65124264Y-159500000D01*
X64600000Y-159400000D02*
X65024264Y-159400000D01*
X65124264Y-159500000D02*
X71600000Y-159500000D01*
X71600000Y-159500000D02*
X71600000Y-159472750D01*
X71600000Y-159472750D02*
X71562081Y-159434831D01*
X68299999Y-148659704D02*
X68000000Y-148359705D01*
X68299999Y-152900001D02*
X68299999Y-148659704D01*
X67200000Y-154000000D02*
X68299999Y-152900001D01*
X64600000Y-154000000D02*
X67200000Y-154000000D01*
D14*
X64750000Y-135100000D02*
X64750000Y-140300000D01*
X64750000Y-140300000D02*
X64725000Y-140325000D01*
X66050000Y-138547000D02*
X66050000Y-134841190D01*
X66050000Y-134841190D02*
X66100000Y-134791190D01*
X70777100Y-136323696D02*
X70759990Y-136340806D01*
X70759990Y-138386736D02*
X70759990Y-138811000D01*
X70777100Y-134302500D02*
X70777100Y-136323696D01*
X70759990Y-136340806D02*
X70759990Y-138386736D01*
X74823599Y-136525603D02*
X74281050Y-137068152D01*
X74281050Y-137068152D02*
X74281050Y-150240012D01*
X74281050Y-150240012D02*
X74581049Y-150540011D01*
X74523600Y-130568700D02*
X74823599Y-130868699D01*
X74823599Y-130868699D02*
X74823599Y-136525603D01*
X73279000Y-152488900D02*
X73578999Y-152188901D01*
X73578999Y-152188901D02*
X73578999Y-132952397D01*
X73578999Y-132952397D02*
X73544878Y-132918276D01*
X73544878Y-132918276D02*
X73544878Y-130482585D01*
X73544878Y-130482585D02*
X73544878Y-130058321D01*
X79603600Y-128384300D02*
X79603600Y-147167290D01*
X79603600Y-147167290D02*
X79603600Y-149403600D01*
X79603600Y-149403600D02*
X79700000Y-149500000D01*
X81808599Y-127973099D02*
X81508600Y-127673100D01*
X81940001Y-128104501D02*
X81808599Y-127973099D01*
X83629500Y-149339300D02*
X81737200Y-147447000D01*
X81737200Y-146762002D02*
X81940001Y-146559201D01*
X81737200Y-147447000D02*
X81737200Y-146762002D01*
X81940001Y-146559201D02*
X81940001Y-128104501D01*
X85432900Y-145694400D02*
X85749696Y-146011196D01*
X85432900Y-128219200D02*
X85432900Y-145694400D01*
X85749696Y-146011196D02*
X86049695Y-146311195D01*
X77901800Y-143502596D02*
X78240002Y-143840798D01*
X78240002Y-143840798D02*
X78240002Y-153623898D01*
X78240002Y-153623898D02*
X78239899Y-153624001D01*
X77901800Y-126555500D02*
X77901800Y-143502596D01*
X78239899Y-153624001D02*
X77939900Y-153924000D01*
X86337111Y-127929611D02*
X86337111Y-145499276D01*
X86017100Y-127609600D02*
X86337111Y-127929611D01*
X86271100Y-145415000D02*
X86337111Y-145348989D01*
X86271100Y-145567400D02*
X86271100Y-145415000D01*
X86423500Y-126923800D02*
X86877121Y-127377421D01*
X86877121Y-144571636D02*
X86877121Y-144995900D01*
X86877121Y-127377421D02*
X86877121Y-144571636D01*
X72152320Y-133936285D02*
X72390010Y-134173975D01*
X72390010Y-134173975D02*
X72390010Y-138310536D01*
X72390010Y-138310536D02*
X72390010Y-138734800D01*
X72152320Y-133512021D02*
X72152320Y-133936285D01*
X67750000Y-143768856D02*
X67863933Y-143882789D01*
X67750000Y-134300000D02*
X67750000Y-143768856D01*
X67192329Y-133783647D02*
X67192329Y-144242329D01*
X67192329Y-144242329D02*
X67500000Y-144550000D01*
X86715600Y-163626800D02*
X85242400Y-165100000D01*
X85242400Y-165100000D02*
X68021200Y-165100000D01*
X81058390Y-158750000D02*
X81159990Y-158851600D01*
X66090800Y-158750000D02*
X81058390Y-158750000D01*
X84683600Y-157276800D02*
X86024998Y-157276800D01*
X65430400Y-157937200D02*
X81991200Y-157937200D01*
X81991200Y-157937200D02*
X82245200Y-158191200D01*
X77300000Y-153400000D02*
X77700020Y-152999980D01*
X77700020Y-152999980D02*
X77700020Y-146384274D01*
X77700020Y-144100020D02*
X77700000Y-144100000D01*
X77700020Y-146384274D02*
X77700020Y-144100020D01*
X95000000Y-150000000D02*
X82300000Y-150000000D01*
X82300000Y-150000000D02*
X80200000Y-147900000D01*
X80200000Y-147900000D02*
X80200000Y-145100000D01*
X89637726Y-159000000D02*
X95990000Y-159000000D01*
X89597724Y-158959998D02*
X89637726Y-159000000D01*
X84999976Y-158959998D02*
X89597724Y-158959998D01*
X74900000Y-157200000D02*
X75199999Y-157499999D01*
X83539977Y-157499999D02*
X84999976Y-158959998D01*
X75199999Y-157499999D02*
X83539977Y-157499999D01*
X95990000Y-159000000D02*
X97000000Y-159000000D01*
X95403621Y-161145702D02*
X78184254Y-161145702D01*
X95797919Y-161540000D02*
X95403621Y-161145702D01*
X78184254Y-161145702D02*
X77759990Y-161145702D01*
X97000000Y-161540000D02*
X95797919Y-161540000D01*
X95659202Y-155240002D02*
X96689205Y-154209999D01*
X94820807Y-155020011D02*
X95040798Y-155240002D01*
X78800000Y-146900000D02*
X78800000Y-154099202D01*
X79720809Y-155020011D02*
X94820807Y-155020011D01*
X95040798Y-155240002D02*
X95659202Y-155240002D01*
X78800000Y-154099202D02*
X79720809Y-155020011D01*
X96689205Y-154209999D02*
X97335726Y-154209999D01*
X97335726Y-154209999D02*
X97759990Y-154209999D01*
X71400000Y-144900000D02*
X71400000Y-145324264D01*
X71400000Y-145324264D02*
X71400000Y-146900000D01*
X96500000Y-155200000D02*
X96118501Y-155581499D01*
X94151747Y-155500000D02*
X74024264Y-155500000D01*
X96118501Y-155581499D02*
X94233246Y-155581499D01*
X74024264Y-155500000D02*
X73600000Y-155500000D01*
X94233246Y-155581499D02*
X94151747Y-155500000D01*
X74724264Y-156100000D02*
X74824264Y-156200000D01*
X74300000Y-156100000D02*
X74724264Y-156100000D01*
X74824264Y-156200000D02*
X93200000Y-156200000D01*
X93200000Y-156200000D02*
X94100000Y-157100000D01*
X98500000Y-157100000D02*
X98700000Y-156900000D01*
X94100000Y-157100000D02*
X98500000Y-157100000D01*
X79500000Y-154000000D02*
X80200000Y-154700000D01*
X80200000Y-154700000D02*
X95400000Y-154700000D01*
X62600000Y-155700000D02*
X68650000Y-155700000D01*
X68650000Y-155700000D02*
X68850000Y-155500000D01*
X81700000Y-161950000D02*
X91000000Y-161950000D01*
X66426456Y-166177546D02*
X66770631Y-166521721D01*
X74371833Y-166521721D02*
X73947569Y-166521721D01*
X73523305Y-166521721D02*
X73947569Y-166521721D01*
X76678279Y-166521721D02*
X74371833Y-166521721D01*
X66770631Y-166521721D02*
X73523305Y-166521721D01*
X77500000Y-165700000D02*
X76678279Y-166521721D01*
X72650000Y-144850000D02*
X71900000Y-144100000D01*
X71900000Y-144100000D02*
X71900000Y-140300000D01*
X71900000Y-140300000D02*
X71900000Y-140150000D01*
X71900000Y-140150000D02*
X71300000Y-139550000D01*
X71300000Y-139550000D02*
X71300000Y-136600000D01*
X72650001Y-143350001D02*
X72650001Y-140150001D01*
X72950000Y-143650000D02*
X72650001Y-143350001D01*
X72650001Y-140150001D02*
X71850000Y-139350000D01*
X71850000Y-139350000D02*
X71850000Y-138250000D01*
X71850000Y-138250000D02*
X71850000Y-136100000D01*
X71850000Y-136100000D02*
X71650000Y-135900000D01*
X71400000Y-164400000D02*
X78100000Y-164400000D01*
X71400000Y-164400000D02*
X71100000Y-164400000D01*
X78892400Y-162356800D02*
X70662800Y-162356800D01*
X80213200Y-163779200D02*
X69951600Y-163779200D01*
X64312800Y-161340800D02*
X65989200Y-161340800D01*
X79552800Y-163017200D02*
X65582800Y-163017200D01*
X78700000Y-139450000D02*
X78700000Y-134200000D01*
X77350000Y-138600000D02*
X77350000Y-135050000D01*
X75704700Y-133654800D02*
X75704700Y-147643533D01*
X75539987Y-152438487D02*
X75704700Y-152603200D01*
X75539987Y-147808246D02*
X75539987Y-152438487D01*
X75704700Y-147643533D02*
X75539987Y-147808246D01*
X75219976Y-151074218D02*
X75219976Y-150044263D01*
X74999977Y-149824264D02*
X74999977Y-149400000D01*
X74999977Y-151294217D02*
X75219976Y-151074218D01*
X75219976Y-150044263D02*
X74999977Y-149824264D01*
X74999977Y-151718481D02*
X74999977Y-151294217D01*
X69638403Y-149064663D02*
X69638403Y-149488927D01*
X69638403Y-135114706D02*
X69638403Y-149064663D01*
X68311388Y-133787691D02*
X69638403Y-135114706D01*
X76279989Y-147520807D02*
X76279989Y-141620011D01*
X75635511Y-153200000D02*
X76134989Y-152700522D01*
X59600000Y-157200000D02*
X70950000Y-157200000D01*
X75959998Y-147840798D02*
X76279989Y-147520807D01*
X74950000Y-153200000D02*
X75635511Y-153200000D01*
X76400001Y-141499999D02*
X76700000Y-141200000D01*
X70950000Y-157200000D02*
X74950000Y-153200000D01*
X76279989Y-141620011D02*
X76400001Y-141499999D01*
X76134989Y-152700522D02*
X76134989Y-149634193D01*
X75959998Y-149459202D02*
X75959998Y-147840798D01*
X76134989Y-149634193D02*
X75959998Y-149459202D01*
X77108620Y-142284254D02*
X77108620Y-141859990D01*
X77160019Y-152485918D02*
X77160019Y-147860815D01*
X77160019Y-147860815D02*
X77108620Y-147809416D01*
X77108620Y-147809416D02*
X77108620Y-142284254D01*
X87450000Y-145783698D02*
X87149999Y-146083699D01*
X87450000Y-134850000D02*
X87450000Y-145783698D01*
X87149999Y-146083699D02*
X86850000Y-146383698D01*
X77160000Y-182000000D02*
X81400000Y-182000000D01*
X75600000Y-182000000D02*
X77160000Y-182000000D01*
X98076292Y-146923708D02*
X98100000Y-146900000D01*
X82423708Y-146923708D02*
X98076292Y-146923708D01*
X82300000Y-182000000D02*
X83500000Y-180800000D01*
X81400000Y-182000000D02*
X82300000Y-182000000D01*
X83500000Y-180800000D02*
X83500000Y-171500000D01*
X83500000Y-171500000D02*
X83700000Y-171300000D01*
X95190000Y-171300000D02*
X95990000Y-170500000D01*
X95990000Y-170500000D02*
X97000000Y-170500000D01*
X83700000Y-171300000D02*
X95190000Y-171300000D01*
X69850000Y-130024264D02*
X70200000Y-130374264D01*
X69850000Y-129600000D02*
X69850000Y-130024264D01*
X70200000Y-130374264D02*
X70200000Y-141700000D01*
X70200000Y-141700000D02*
X70300000Y-141800000D01*
D17*
G36*
X96091282Y-121420997D02*
G01*
X96015000Y-121804495D01*
X96015000Y-122195505D01*
X96091282Y-122579003D01*
X96240915Y-122940250D01*
X96458149Y-123265364D01*
X96734636Y-123541851D01*
X97059750Y-123759085D01*
X97420997Y-123908718D01*
X97804495Y-123985000D01*
X98195505Y-123985000D01*
X98579003Y-123908718D01*
X98873000Y-123786941D01*
X98873000Y-146373921D01*
X98826262Y-146303972D01*
X98696028Y-146173738D01*
X98542889Y-146071414D01*
X98372729Y-146000932D01*
X98192089Y-145965000D01*
X98007911Y-145965000D01*
X97827271Y-146000932D01*
X97657111Y-146071414D01*
X97503972Y-146173738D01*
X97469002Y-146208708D01*
X88026157Y-146208708D01*
X88047377Y-146182852D01*
X88113770Y-146058640D01*
X88154654Y-145923862D01*
X88165000Y-145818818D01*
X88165000Y-145818809D01*
X88168458Y-145783699D01*
X88165000Y-145748589D01*
X88165000Y-135457290D01*
X88176262Y-135446028D01*
X88278586Y-135292889D01*
X88349068Y-135122729D01*
X88385000Y-134942089D01*
X88385000Y-134757911D01*
X88349068Y-134577271D01*
X88278586Y-134407111D01*
X88176262Y-134253972D01*
X88046028Y-134123738D01*
X87892889Y-134021414D01*
X87722729Y-133950932D01*
X87592121Y-133924952D01*
X87592121Y-131826000D01*
X93097415Y-131826000D01*
X93126087Y-132117111D01*
X93211001Y-132397034D01*
X93348894Y-132655014D01*
X93534466Y-132881134D01*
X93760586Y-133066706D01*
X94018566Y-133204599D01*
X94298489Y-133289513D01*
X94516650Y-133311000D01*
X94662550Y-133311000D01*
X94880711Y-133289513D01*
X95160634Y-133204599D01*
X95418614Y-133066706D01*
X95644734Y-132881134D01*
X95830306Y-132655014D01*
X95968199Y-132397034D01*
X96053113Y-132117111D01*
X96081785Y-131826000D01*
X96053113Y-131534889D01*
X95968199Y-131254966D01*
X95830306Y-130996986D01*
X95644734Y-130770866D01*
X95418614Y-130585294D01*
X95354077Y-130550799D01*
X95470955Y-130481178D01*
X95687188Y-130286269D01*
X95861241Y-130052920D01*
X95986425Y-129790099D01*
X96031076Y-129642890D01*
X95909755Y-129413000D01*
X94716600Y-129413000D01*
X94716600Y-129433000D01*
X94462600Y-129433000D01*
X94462600Y-129413000D01*
X93269445Y-129413000D01*
X93148124Y-129642890D01*
X93192775Y-129790099D01*
X93317959Y-130052920D01*
X93492012Y-130286269D01*
X93708245Y-130481178D01*
X93825123Y-130550799D01*
X93760586Y-130585294D01*
X93534466Y-130770866D01*
X93348894Y-130996986D01*
X93211001Y-131254966D01*
X93126087Y-131534889D01*
X93097415Y-131826000D01*
X87592121Y-131826000D01*
X87592121Y-127412531D01*
X87595579Y-127377421D01*
X87592121Y-127342311D01*
X87592121Y-127342301D01*
X87581775Y-127237257D01*
X87540891Y-127102479D01*
X87474498Y-126978267D01*
X87385147Y-126869394D01*
X87358500Y-126847525D01*
X87358500Y-126831711D01*
X87322568Y-126651071D01*
X87252086Y-126480911D01*
X87149762Y-126327772D01*
X87019528Y-126197538D01*
X86866389Y-126095214D01*
X86696229Y-126024732D01*
X86515589Y-125988800D01*
X86331411Y-125988800D01*
X86150771Y-126024732D01*
X85980611Y-126095214D01*
X85827472Y-126197538D01*
X85697238Y-126327772D01*
X85594914Y-126480911D01*
X85524432Y-126651071D01*
X85488500Y-126831711D01*
X85488500Y-126838284D01*
X85421072Y-126883338D01*
X85290838Y-127013572D01*
X85188514Y-127166711D01*
X85118032Y-127336871D01*
X85117877Y-127337651D01*
X84990011Y-127390614D01*
X84836872Y-127492938D01*
X84706638Y-127623172D01*
X84604314Y-127776311D01*
X84533832Y-127946471D01*
X84497900Y-128127111D01*
X84497900Y-128311289D01*
X84533832Y-128491929D01*
X84604314Y-128662089D01*
X84706638Y-128815228D01*
X84717900Y-128826490D01*
X84717901Y-145659280D01*
X84714442Y-145694400D01*
X84717901Y-145729520D01*
X84728247Y-145834564D01*
X84769131Y-145969342D01*
X84835524Y-146093554D01*
X84924874Y-146202427D01*
X84932527Y-146208708D01*
X83030998Y-146208708D01*
X83019736Y-146197446D01*
X82866597Y-146095122D01*
X82696437Y-146024640D01*
X82655001Y-146016398D01*
X82655001Y-135782553D01*
X82721414Y-135942889D01*
X82823738Y-136096028D01*
X82953972Y-136226262D01*
X83107111Y-136328586D01*
X83277271Y-136399068D01*
X83457911Y-136435000D01*
X83642089Y-136435000D01*
X83822729Y-136399068D01*
X83992889Y-136328586D01*
X84146028Y-136226262D01*
X84276262Y-136096028D01*
X84378586Y-135942889D01*
X84449068Y-135772729D01*
X84485000Y-135592089D01*
X84485000Y-135407911D01*
X84449068Y-135227271D01*
X84378586Y-135057111D01*
X84276262Y-134903972D01*
X84146028Y-134773738D01*
X83992889Y-134671414D01*
X83822729Y-134600932D01*
X83642089Y-134565000D01*
X83457911Y-134565000D01*
X83277271Y-134600932D01*
X83107111Y-134671414D01*
X82953972Y-134773738D01*
X82823738Y-134903972D01*
X82721414Y-135057111D01*
X82655001Y-135217447D01*
X82655001Y-128139610D01*
X82658459Y-128104500D01*
X82655001Y-128069390D01*
X82655001Y-128069381D01*
X82644655Y-127964337D01*
X82603771Y-127829559D01*
X82537378Y-127705347D01*
X82448028Y-127596474D01*
X82443600Y-127592840D01*
X82443600Y-127581011D01*
X82407668Y-127400371D01*
X82337186Y-127230211D01*
X82234862Y-127077072D01*
X82104628Y-126946838D01*
X81951489Y-126844514D01*
X81781329Y-126774032D01*
X81600689Y-126738100D01*
X81416511Y-126738100D01*
X81235871Y-126774032D01*
X81065711Y-126844514D01*
X80912572Y-126946838D01*
X80782338Y-127077072D01*
X80680014Y-127230211D01*
X80609532Y-127400371D01*
X80573600Y-127581011D01*
X80573600Y-127765189D01*
X80609532Y-127945829D01*
X80680014Y-128115989D01*
X80782338Y-128269128D01*
X80912572Y-128399362D01*
X81065711Y-128501686D01*
X81225002Y-128567666D01*
X81225001Y-146259060D01*
X81139824Y-146362848D01*
X81073431Y-146487060D01*
X81032546Y-146621838D01*
X81022200Y-146726882D01*
X81022200Y-146726892D01*
X81018742Y-146762002D01*
X81022200Y-146797112D01*
X81022200Y-147411890D01*
X81018742Y-147447000D01*
X81022200Y-147482110D01*
X81022200Y-147482119D01*
X81032546Y-147587163D01*
X81073430Y-147721941D01*
X81119738Y-147808576D01*
X80915000Y-147603839D01*
X80915000Y-145707290D01*
X80926262Y-145696028D01*
X81028586Y-145542889D01*
X81099068Y-145372729D01*
X81135000Y-145192089D01*
X81135000Y-145007911D01*
X81099068Y-144827271D01*
X81028586Y-144657111D01*
X80926262Y-144503972D01*
X80796028Y-144373738D01*
X80642889Y-144271414D01*
X80472729Y-144200932D01*
X80318600Y-144170273D01*
X80318600Y-128991590D01*
X80329862Y-128980328D01*
X80432186Y-128827189D01*
X80502668Y-128657029D01*
X80538600Y-128476389D01*
X80538600Y-128292211D01*
X80502668Y-128111571D01*
X80432186Y-127941411D01*
X80329862Y-127788272D01*
X80199628Y-127658038D01*
X80046489Y-127555714D01*
X79876329Y-127485232D01*
X79695689Y-127449300D01*
X79511511Y-127449300D01*
X79330871Y-127485232D01*
X79160711Y-127555714D01*
X79007572Y-127658038D01*
X78877338Y-127788272D01*
X78775014Y-127941411D01*
X78704532Y-128111571D01*
X78668600Y-128292211D01*
X78668600Y-128476389D01*
X78704532Y-128657029D01*
X78775014Y-128827189D01*
X78877338Y-128980328D01*
X78888600Y-128991590D01*
X78888600Y-133284198D01*
X78792089Y-133265000D01*
X78616800Y-133265000D01*
X78616800Y-127162790D01*
X78628062Y-127151528D01*
X78730386Y-126998389D01*
X78800868Y-126828229D01*
X78836800Y-126647589D01*
X78836800Y-126463411D01*
X78800868Y-126282771D01*
X78730386Y-126112611D01*
X78628062Y-125959472D01*
X78564590Y-125896000D01*
X93101528Y-125896000D01*
X93101528Y-127596000D01*
X93113788Y-127720482D01*
X93150098Y-127840180D01*
X93209063Y-127950494D01*
X93288415Y-128047185D01*
X93385106Y-128126537D01*
X93495420Y-128185502D01*
X93576066Y-128209966D01*
X93492012Y-128285731D01*
X93317959Y-128519080D01*
X93192775Y-128781901D01*
X93148124Y-128929110D01*
X93269445Y-129159000D01*
X94462600Y-129159000D01*
X94462600Y-129139000D01*
X94716600Y-129139000D01*
X94716600Y-129159000D01*
X95909755Y-129159000D01*
X96031076Y-128929110D01*
X95986425Y-128781901D01*
X95861241Y-128519080D01*
X95687188Y-128285731D01*
X95603134Y-128209966D01*
X95683780Y-128185502D01*
X95794094Y-128126537D01*
X95890785Y-128047185D01*
X95970137Y-127950494D01*
X96029102Y-127840180D01*
X96065412Y-127720482D01*
X96077672Y-127596000D01*
X96077672Y-125896000D01*
X96065412Y-125771518D01*
X96029102Y-125651820D01*
X95970137Y-125541506D01*
X95890785Y-125444815D01*
X95794094Y-125365463D01*
X95683780Y-125306498D01*
X95564082Y-125270188D01*
X95439600Y-125257928D01*
X93739600Y-125257928D01*
X93615118Y-125270188D01*
X93495420Y-125306498D01*
X93385106Y-125365463D01*
X93288415Y-125444815D01*
X93209063Y-125541506D01*
X93150098Y-125651820D01*
X93113788Y-125771518D01*
X93101528Y-125896000D01*
X78564590Y-125896000D01*
X78497828Y-125829238D01*
X78344689Y-125726914D01*
X78174529Y-125656432D01*
X77993889Y-125620500D01*
X77809711Y-125620500D01*
X77629071Y-125656432D01*
X77458911Y-125726914D01*
X77305772Y-125829238D01*
X77175538Y-125959472D01*
X77073214Y-126112611D01*
X77002732Y-126282771D01*
X76966800Y-126463411D01*
X76966800Y-126647589D01*
X77002732Y-126828229D01*
X77073214Y-126998389D01*
X77175538Y-127151528D01*
X77186800Y-127162790D01*
X77186800Y-134129145D01*
X77077271Y-134150932D01*
X76907111Y-134221414D01*
X76753972Y-134323738D01*
X76623738Y-134453972D01*
X76521414Y-134607111D01*
X76450932Y-134777271D01*
X76419700Y-134934283D01*
X76419700Y-134262090D01*
X76430962Y-134250828D01*
X76533286Y-134097689D01*
X76603768Y-133927529D01*
X76639700Y-133746889D01*
X76639700Y-133562711D01*
X76603768Y-133382071D01*
X76533286Y-133211911D01*
X76430962Y-133058772D01*
X76300728Y-132928538D01*
X76147589Y-132826214D01*
X75977429Y-132755732D01*
X75796789Y-132719800D01*
X75612611Y-132719800D01*
X75538599Y-132734522D01*
X75538599Y-130903811D01*
X75542057Y-130868699D01*
X75538599Y-130833587D01*
X75538599Y-130833579D01*
X75528253Y-130728535D01*
X75527934Y-130727481D01*
X75504189Y-130649207D01*
X75487369Y-130593757D01*
X75458600Y-130539934D01*
X75458600Y-130476611D01*
X75422668Y-130295971D01*
X75352186Y-130125811D01*
X75249862Y-129972672D01*
X75119628Y-129842438D01*
X74966489Y-129740114D01*
X74796329Y-129669632D01*
X74615689Y-129633700D01*
X74431511Y-129633700D01*
X74384873Y-129642977D01*
X74373464Y-129615432D01*
X74271140Y-129462293D01*
X74140906Y-129332059D01*
X73987767Y-129229735D01*
X73817607Y-129159253D01*
X73636967Y-129123321D01*
X73452789Y-129123321D01*
X73272149Y-129159253D01*
X73101989Y-129229735D01*
X72948850Y-129332059D01*
X72818616Y-129462293D01*
X72716292Y-129615432D01*
X72645810Y-129785592D01*
X72609878Y-129966232D01*
X72609878Y-130150410D01*
X72645810Y-130331050D01*
X72716292Y-130501210D01*
X72818616Y-130654349D01*
X72829879Y-130665612D01*
X72829878Y-132867289D01*
X72748348Y-132785759D01*
X72595209Y-132683435D01*
X72425049Y-132612953D01*
X72244409Y-132577021D01*
X72060231Y-132577021D01*
X71879591Y-132612953D01*
X71709431Y-132683435D01*
X71556292Y-132785759D01*
X71426058Y-132915993D01*
X71323734Y-133069132D01*
X71253252Y-133239292D01*
X71217320Y-133419932D01*
X71217320Y-133472808D01*
X71049829Y-133403432D01*
X70915000Y-133376612D01*
X70915000Y-130409376D01*
X70918458Y-130374264D01*
X70915000Y-130339152D01*
X70915000Y-130339144D01*
X70904654Y-130234100D01*
X70896629Y-130207643D01*
X70879267Y-130150410D01*
X70863770Y-130099322D01*
X70797377Y-129975110D01*
X70739782Y-129904931D01*
X70737089Y-129901649D01*
X70749068Y-129872729D01*
X70785000Y-129692089D01*
X70785000Y-129507911D01*
X70749068Y-129327271D01*
X70678586Y-129157111D01*
X70576262Y-129003972D01*
X70446028Y-128873738D01*
X70292889Y-128771414D01*
X70122729Y-128700932D01*
X69942089Y-128665000D01*
X69757911Y-128665000D01*
X69577271Y-128700932D01*
X69407111Y-128771414D01*
X69253972Y-128873738D01*
X69123738Y-129003972D01*
X69021414Y-129157111D01*
X68950932Y-129327271D01*
X68915000Y-129507911D01*
X68915000Y-129692089D01*
X68950932Y-129872729D01*
X69021414Y-130042889D01*
X69123738Y-130196028D01*
X69168514Y-130240804D01*
X69186230Y-130299206D01*
X69252623Y-130423418D01*
X69341974Y-130532291D01*
X69369254Y-130554679D01*
X69485000Y-130670425D01*
X69485000Y-133950141D01*
X69246388Y-133711529D01*
X69246388Y-133695602D01*
X69210456Y-133514962D01*
X69139974Y-133344802D01*
X69037650Y-133191663D01*
X68907416Y-133061429D01*
X68754277Y-132959105D01*
X68584117Y-132888623D01*
X68403477Y-132852691D01*
X68219299Y-132852691D01*
X68038659Y-132888623D01*
X67868499Y-132959105D01*
X67754885Y-133035020D01*
X67635218Y-132955061D01*
X67465058Y-132884579D01*
X67284418Y-132848647D01*
X67100240Y-132848647D01*
X66919600Y-132884579D01*
X66749440Y-132955061D01*
X66596301Y-133057385D01*
X66466067Y-133187619D01*
X66363743Y-133340758D01*
X66293261Y-133510918D01*
X66257329Y-133691558D01*
X66257329Y-133869167D01*
X66192089Y-133856190D01*
X66007911Y-133856190D01*
X65827271Y-133892122D01*
X65657111Y-133962604D01*
X65503972Y-134064928D01*
X65373738Y-134195162D01*
X65282694Y-134331420D01*
X65192889Y-134271414D01*
X65022729Y-134200932D01*
X64842089Y-134165000D01*
X64657911Y-134165000D01*
X64477271Y-134200932D01*
X64307111Y-134271414D01*
X64153972Y-134373738D01*
X64023738Y-134503972D01*
X63921414Y-134657111D01*
X63850932Y-134827271D01*
X63815000Y-135007911D01*
X63815000Y-135192089D01*
X63850932Y-135372729D01*
X63921414Y-135542889D01*
X64023738Y-135696028D01*
X64035000Y-135707290D01*
X64035001Y-139692709D01*
X63998738Y-139728972D01*
X63896414Y-139882111D01*
X63825932Y-140052271D01*
X63790000Y-140232911D01*
X63790000Y-140417089D01*
X63825932Y-140597729D01*
X63896414Y-140767889D01*
X63998738Y-140921028D01*
X64128972Y-141051262D01*
X64282111Y-141153586D01*
X64452271Y-141224068D01*
X64632911Y-141260000D01*
X64817089Y-141260000D01*
X64997729Y-141224068D01*
X65167889Y-141153586D01*
X65321028Y-141051262D01*
X65451262Y-140921028D01*
X65553586Y-140767889D01*
X65624068Y-140597729D01*
X65660000Y-140417089D01*
X65660000Y-140232911D01*
X65624068Y-140052271D01*
X65553586Y-139882111D01*
X65465000Y-139749532D01*
X65465000Y-139280631D01*
X65607111Y-139375586D01*
X65777271Y-139446068D01*
X65957911Y-139482000D01*
X66142089Y-139482000D01*
X66322729Y-139446068D01*
X66477330Y-139382031D01*
X66477330Y-144207209D01*
X66473871Y-144242329D01*
X66477330Y-144277449D01*
X66487676Y-144382493D01*
X66528560Y-144517271D01*
X66565000Y-144585445D01*
X66565000Y-144642089D01*
X66600932Y-144822729D01*
X66671414Y-144992889D01*
X66773738Y-145146028D01*
X66903972Y-145276262D01*
X67057111Y-145378586D01*
X67227271Y-145449068D01*
X67407911Y-145485000D01*
X67592089Y-145485000D01*
X67772729Y-145449068D01*
X67942889Y-145378586D01*
X68096028Y-145276262D01*
X68226262Y-145146028D01*
X68328586Y-144992889D01*
X68399068Y-144822729D01*
X68435000Y-144642089D01*
X68435000Y-144625729D01*
X68459961Y-144609051D01*
X68590195Y-144478817D01*
X68692519Y-144325678D01*
X68763001Y-144155518D01*
X68798933Y-143974878D01*
X68798933Y-143790700D01*
X68763001Y-143610060D01*
X68692519Y-143439900D01*
X68590195Y-143286761D01*
X68465000Y-143161566D01*
X68465000Y-134952465D01*
X68923403Y-135410869D01*
X68923404Y-148181923D01*
X68916211Y-148173158D01*
X68899068Y-148086976D01*
X68828586Y-147916816D01*
X68726262Y-147763677D01*
X68596028Y-147633443D01*
X68442889Y-147531119D01*
X68272729Y-147460637D01*
X68092089Y-147424705D01*
X67907911Y-147424705D01*
X67727271Y-147460637D01*
X67557111Y-147531119D01*
X67403972Y-147633443D01*
X67273738Y-147763677D01*
X67171414Y-147916816D01*
X67100932Y-148086976D01*
X67065000Y-148267616D01*
X67065000Y-148451794D01*
X67100932Y-148632434D01*
X67171414Y-148802594D01*
X67273738Y-148955733D01*
X67403972Y-149085967D01*
X67515000Y-149160153D01*
X67514999Y-152574844D01*
X66874843Y-153215000D01*
X65108120Y-153215000D01*
X65042889Y-153171414D01*
X64872729Y-153100932D01*
X64692089Y-153065000D01*
X64507911Y-153065000D01*
X64327271Y-153100932D01*
X64157111Y-153171414D01*
X64003972Y-153273738D01*
X63873738Y-153403972D01*
X63771414Y-153557111D01*
X63700932Y-153727271D01*
X63665000Y-153907911D01*
X63665000Y-154092089D01*
X63700932Y-154272729D01*
X63771414Y-154442889D01*
X63873738Y-154596028D01*
X64003972Y-154726262D01*
X64157111Y-154828586D01*
X64327271Y-154899068D01*
X64507911Y-154935000D01*
X64692089Y-154935000D01*
X64872729Y-154899068D01*
X65042889Y-154828586D01*
X65108120Y-154785000D01*
X67161447Y-154785000D01*
X67200000Y-154788797D01*
X67238553Y-154785000D01*
X67238561Y-154785000D01*
X67353887Y-154773641D01*
X67501860Y-154728754D01*
X67638233Y-154655862D01*
X67757764Y-154557764D01*
X67782347Y-154527810D01*
X68827810Y-153482347D01*
X68857763Y-153457765D01*
X68955861Y-153338234D01*
X69028753Y-153201861D01*
X69031273Y-153193553D01*
X69073641Y-153053888D01*
X69081364Y-152975463D01*
X69084999Y-152938562D01*
X69084999Y-152938557D01*
X69088796Y-152900001D01*
X69084999Y-152861445D01*
X69084999Y-150243669D01*
X69195514Y-150317513D01*
X69365674Y-150387995D01*
X69546314Y-150423927D01*
X69730492Y-150423927D01*
X69911132Y-150387995D01*
X70081292Y-150317513D01*
X70234431Y-150215189D01*
X70364665Y-150084955D01*
X70466989Y-149931816D01*
X70537471Y-149761656D01*
X70573403Y-149581016D01*
X70573403Y-149396838D01*
X70537471Y-149216198D01*
X70466989Y-149046038D01*
X70364665Y-148892899D01*
X70353403Y-148881637D01*
X70353403Y-142735000D01*
X70392089Y-142735000D01*
X70572729Y-142699068D01*
X70742889Y-142628586D01*
X70896028Y-142526262D01*
X71026262Y-142396028D01*
X71128586Y-142242889D01*
X71185001Y-142106691D01*
X71185000Y-143989449D01*
X71127271Y-144000932D01*
X70957111Y-144071414D01*
X70803972Y-144173738D01*
X70673738Y-144303972D01*
X70571414Y-144457111D01*
X70500932Y-144627271D01*
X70465000Y-144807911D01*
X70465000Y-144992089D01*
X70500932Y-145172729D01*
X70571414Y-145342889D01*
X70673738Y-145496028D01*
X70685000Y-145507290D01*
X70685001Y-146292709D01*
X70673738Y-146303972D01*
X70571414Y-146457111D01*
X70500932Y-146627271D01*
X70465000Y-146807911D01*
X70465000Y-146992089D01*
X70500932Y-147172729D01*
X70571414Y-147342889D01*
X70673738Y-147496028D01*
X70803972Y-147626262D01*
X70957111Y-147728586D01*
X71127271Y-147799068D01*
X71307911Y-147835000D01*
X71492089Y-147835000D01*
X71672729Y-147799068D01*
X71842889Y-147728586D01*
X71996028Y-147626262D01*
X72126262Y-147496028D01*
X72228586Y-147342889D01*
X72299068Y-147172729D01*
X72335000Y-146992089D01*
X72335000Y-146807911D01*
X72299068Y-146627271D01*
X72228586Y-146457111D01*
X72126262Y-146303972D01*
X72115000Y-146292710D01*
X72115000Y-145617040D01*
X72207111Y-145678586D01*
X72377271Y-145749068D01*
X72557911Y-145785000D01*
X72742089Y-145785000D01*
X72863999Y-145760750D01*
X72863999Y-151648762D01*
X72836111Y-151660314D01*
X72682972Y-151762638D01*
X72552738Y-151892872D01*
X72450414Y-152046011D01*
X72379932Y-152216171D01*
X72344000Y-152396811D01*
X72344000Y-152580989D01*
X72379932Y-152761629D01*
X72450414Y-152931789D01*
X72552738Y-153084928D01*
X72682972Y-153215162D01*
X72836111Y-153317486D01*
X73006271Y-153387968D01*
X73186911Y-153423900D01*
X73371089Y-153423900D01*
X73551729Y-153387968D01*
X73721889Y-153317486D01*
X73875028Y-153215162D01*
X74005262Y-153084928D01*
X74107586Y-152931789D01*
X74178068Y-152761629D01*
X74214000Y-152580989D01*
X74214000Y-152517666D01*
X74242769Y-152463843D01*
X74277686Y-152348736D01*
X74283653Y-152329066D01*
X74284067Y-152324861D01*
X74403949Y-152444743D01*
X74444265Y-152471681D01*
X74444265Y-152597274D01*
X74460137Y-152677066D01*
X74441973Y-152691973D01*
X74419585Y-152719253D01*
X70653839Y-156485000D01*
X63108120Y-156485000D01*
X63196028Y-156426262D01*
X63207290Y-156415000D01*
X68614890Y-156415000D01*
X68650000Y-156418458D01*
X68666553Y-156416828D01*
X68757911Y-156435000D01*
X68942089Y-156435000D01*
X69122729Y-156399068D01*
X69292889Y-156328586D01*
X69446028Y-156226262D01*
X69576262Y-156096028D01*
X69678586Y-155942889D01*
X69749068Y-155772729D01*
X69785000Y-155592089D01*
X69785000Y-155407911D01*
X69749068Y-155227271D01*
X69678586Y-155057111D01*
X69576262Y-154903972D01*
X69446028Y-154773738D01*
X69292889Y-154671414D01*
X69122729Y-154600932D01*
X68942089Y-154565000D01*
X68757911Y-154565000D01*
X68577271Y-154600932D01*
X68407111Y-154671414D01*
X68253972Y-154773738D01*
X68123738Y-154903972D01*
X68069597Y-154985000D01*
X63207290Y-154985000D01*
X63196028Y-154973738D01*
X63042889Y-154871414D01*
X62872729Y-154800932D01*
X62692089Y-154765000D01*
X62507911Y-154765000D01*
X62327271Y-154800932D01*
X62157111Y-154871414D01*
X62003972Y-154973738D01*
X61873738Y-155103972D01*
X61771414Y-155257111D01*
X61700932Y-155427271D01*
X61665000Y-155607911D01*
X61665000Y-155792089D01*
X61700932Y-155972729D01*
X61771414Y-156142889D01*
X61873738Y-156296028D01*
X62003972Y-156426262D01*
X62091880Y-156485000D01*
X60207290Y-156485000D01*
X60196028Y-156473738D01*
X60042889Y-156371414D01*
X59872729Y-156300932D01*
X59692089Y-156265000D01*
X59507911Y-156265000D01*
X59327271Y-156300932D01*
X59157111Y-156371414D01*
X59003972Y-156473738D01*
X58873738Y-156603972D01*
X58771414Y-156757111D01*
X58700932Y-156927271D01*
X58665000Y-157107911D01*
X58665000Y-157292089D01*
X58700932Y-157472729D01*
X58771414Y-157642889D01*
X58873738Y-157796028D01*
X59003972Y-157926262D01*
X59157111Y-158028586D01*
X59327271Y-158099068D01*
X59507911Y-158135000D01*
X59692089Y-158135000D01*
X59872729Y-158099068D01*
X60042889Y-158028586D01*
X60196028Y-157926262D01*
X60207290Y-157915000D01*
X64495400Y-157915000D01*
X64495400Y-158029289D01*
X64531332Y-158209929D01*
X64601814Y-158380089D01*
X64658550Y-158465000D01*
X64507911Y-158465000D01*
X64327271Y-158500932D01*
X64157111Y-158571414D01*
X64003972Y-158673738D01*
X63873738Y-158803972D01*
X63771414Y-158957111D01*
X63700932Y-159127271D01*
X63665000Y-159307911D01*
X63665000Y-159492089D01*
X63700932Y-159672729D01*
X63771414Y-159842889D01*
X63873738Y-159996028D01*
X64003972Y-160126262D01*
X64157111Y-160228586D01*
X64327271Y-160299068D01*
X64507911Y-160335000D01*
X64692089Y-160335000D01*
X64872729Y-160299068D01*
X64949445Y-160267291D01*
X64970377Y-160273641D01*
X65085703Y-160285000D01*
X65085710Y-160285000D01*
X65124263Y-160288797D01*
X65162816Y-160285000D01*
X71171298Y-160285000D01*
X71289352Y-160333899D01*
X71469992Y-160369831D01*
X71654170Y-160369831D01*
X71834810Y-160333899D01*
X72004970Y-160263417D01*
X72158109Y-160161093D01*
X72288343Y-160030859D01*
X72390667Y-159877720D01*
X72461149Y-159707560D01*
X72497081Y-159526920D01*
X72497081Y-159465000D01*
X80451100Y-159465000D01*
X80563962Y-159577862D01*
X80717101Y-159680186D01*
X80887261Y-159750668D01*
X81067901Y-159786600D01*
X81252079Y-159786600D01*
X81432719Y-159750668D01*
X81602879Y-159680186D01*
X81756018Y-159577862D01*
X81886252Y-159447628D01*
X81988576Y-159294489D01*
X82059058Y-159124329D01*
X82062280Y-159108132D01*
X82153111Y-159126200D01*
X82337289Y-159126200D01*
X82517929Y-159090268D01*
X82688089Y-159019786D01*
X82841228Y-158917462D01*
X82971462Y-158787228D01*
X83073786Y-158634089D01*
X83144268Y-158463929D01*
X83180200Y-158283289D01*
X83180200Y-158214999D01*
X83243816Y-158214999D01*
X84469564Y-159440749D01*
X84491949Y-159468025D01*
X84519224Y-159490409D01*
X84519227Y-159490412D01*
X84567970Y-159530414D01*
X84600822Y-159557375D01*
X84725034Y-159623768D01*
X84859812Y-159664652D01*
X84964856Y-159674998D01*
X84964865Y-159674998D01*
X84999975Y-159678456D01*
X85035085Y-159674998D01*
X89399798Y-159674998D01*
X89497562Y-159704654D01*
X89602606Y-159715000D01*
X89602615Y-159715000D01*
X89637725Y-159718458D01*
X89672835Y-159715000D01*
X95511928Y-159715000D01*
X95511928Y-159850000D01*
X95524188Y-159974482D01*
X95560498Y-160094180D01*
X95619463Y-160204494D01*
X95698815Y-160301185D01*
X95795506Y-160380537D01*
X95905820Y-160439502D01*
X95974687Y-160460393D01*
X95944866Y-160484866D01*
X95856561Y-160592466D01*
X95802775Y-160548325D01*
X95678563Y-160481932D01*
X95543785Y-160441048D01*
X95438741Y-160430702D01*
X95438731Y-160430702D01*
X95403621Y-160427244D01*
X95368511Y-160430702D01*
X78367280Y-160430702D01*
X78356018Y-160419440D01*
X78202879Y-160317116D01*
X78032719Y-160246634D01*
X77852079Y-160210702D01*
X77667901Y-160210702D01*
X77487261Y-160246634D01*
X77317101Y-160317116D01*
X77163962Y-160419440D01*
X77033728Y-160549674D01*
X76931404Y-160702813D01*
X76860922Y-160872973D01*
X76824990Y-161053613D01*
X76824990Y-161237791D01*
X76860922Y-161418431D01*
X76931404Y-161588591D01*
X76966957Y-161641800D01*
X71270090Y-161641800D01*
X71208028Y-161579738D01*
X71054889Y-161477414D01*
X70884729Y-161406932D01*
X70704089Y-161371000D01*
X70519911Y-161371000D01*
X70339271Y-161406932D01*
X70169111Y-161477414D01*
X70015972Y-161579738D01*
X69885738Y-161709972D01*
X69783414Y-161863111D01*
X69712932Y-162033271D01*
X69677000Y-162213911D01*
X69677000Y-162302200D01*
X66458331Y-162302200D01*
X66533689Y-162270986D01*
X66686828Y-162168662D01*
X66817062Y-162038428D01*
X66919386Y-161885289D01*
X66989868Y-161715129D01*
X67025800Y-161534489D01*
X67025800Y-161350311D01*
X66989868Y-161169671D01*
X66919386Y-160999511D01*
X66817062Y-160846372D01*
X66686828Y-160716138D01*
X66533689Y-160613814D01*
X66363529Y-160543332D01*
X66182889Y-160507400D01*
X65998711Y-160507400D01*
X65818071Y-160543332D01*
X65647911Y-160613814D01*
X65629973Y-160625800D01*
X65107290Y-160625800D01*
X65096028Y-160614538D01*
X64942889Y-160512214D01*
X64772729Y-160441732D01*
X64592089Y-160405800D01*
X64407911Y-160405800D01*
X64227271Y-160441732D01*
X64057111Y-160512214D01*
X63903972Y-160614538D01*
X63773738Y-160744772D01*
X63671414Y-160897911D01*
X63600932Y-161068071D01*
X63565000Y-161248711D01*
X63565000Y-161432889D01*
X63600932Y-161613529D01*
X63671414Y-161783689D01*
X63773738Y-161936828D01*
X63903972Y-162067062D01*
X64057111Y-162169386D01*
X64227271Y-162239868D01*
X64407911Y-162275800D01*
X64592089Y-162275800D01*
X64772729Y-162239868D01*
X64942889Y-162169386D01*
X65096028Y-162067062D01*
X65107290Y-162055800D01*
X65381910Y-162055800D01*
X65410489Y-162084379D01*
X65327271Y-162100932D01*
X65157111Y-162171414D01*
X65003972Y-162273738D01*
X64873738Y-162403972D01*
X64771414Y-162557111D01*
X64700932Y-162727271D01*
X64665000Y-162907911D01*
X64665000Y-163092089D01*
X64700932Y-163272729D01*
X64771414Y-163442889D01*
X64873738Y-163596028D01*
X65003972Y-163726262D01*
X65157111Y-163828586D01*
X65327271Y-163899068D01*
X65507911Y-163935000D01*
X65692089Y-163935000D01*
X65872729Y-163899068D01*
X66042889Y-163828586D01*
X66187141Y-163732200D01*
X68865000Y-163732200D01*
X68865000Y-163892089D01*
X68900932Y-164072729D01*
X68971414Y-164242889D01*
X69066369Y-164385000D01*
X68628490Y-164385000D01*
X68617228Y-164373738D01*
X68464089Y-164271414D01*
X68293929Y-164200932D01*
X68113289Y-164165000D01*
X67929111Y-164165000D01*
X67748471Y-164200932D01*
X67578311Y-164271414D01*
X67425172Y-164373738D01*
X67294938Y-164503972D01*
X67267743Y-164544672D01*
X67172662Y-164402372D01*
X67042428Y-164272138D01*
X66889289Y-164169814D01*
X66719129Y-164099332D01*
X66538489Y-164063400D01*
X66354311Y-164063400D01*
X66173671Y-164099332D01*
X66003511Y-164169814D01*
X65938280Y-164213400D01*
X63156639Y-164213400D01*
X63140394Y-164215000D01*
X61008120Y-164215000D01*
X60942889Y-164171414D01*
X60772729Y-164100932D01*
X60592089Y-164065000D01*
X60407911Y-164065000D01*
X60227271Y-164100932D01*
X60057111Y-164171414D01*
X59903972Y-164273738D01*
X59773738Y-164403972D01*
X59671414Y-164557111D01*
X59600932Y-164727271D01*
X59565000Y-164907911D01*
X59565000Y-165092089D01*
X59600932Y-165272729D01*
X59671414Y-165442889D01*
X59773738Y-165596028D01*
X59903972Y-165726262D01*
X60057111Y-165828586D01*
X60227271Y-165899068D01*
X60407911Y-165935000D01*
X60592089Y-165935000D01*
X60772729Y-165899068D01*
X60942889Y-165828586D01*
X61008120Y-165785000D01*
X63232161Y-165785000D01*
X63248406Y-165783400D01*
X65577680Y-165783400D01*
X65527388Y-165904817D01*
X65491456Y-166085457D01*
X65491456Y-166269635D01*
X65527388Y-166450275D01*
X65597870Y-166620435D01*
X65700194Y-166773574D01*
X65830428Y-166903808D01*
X65869529Y-166929934D01*
X65803972Y-166973738D01*
X65673738Y-167103972D01*
X65571414Y-167257111D01*
X65500932Y-167427271D01*
X65465000Y-167607911D01*
X65465000Y-167792089D01*
X65500932Y-167972729D01*
X65571414Y-168142889D01*
X65673738Y-168296028D01*
X65803972Y-168426262D01*
X65957111Y-168528586D01*
X66127271Y-168599068D01*
X66307911Y-168635000D01*
X66492089Y-168635000D01*
X66672729Y-168599068D01*
X66842889Y-168528586D01*
X66996028Y-168426262D01*
X67007290Y-168415000D01*
X71392710Y-168415000D01*
X71503972Y-168526262D01*
X71657111Y-168628586D01*
X71827271Y-168699068D01*
X72007911Y-168735000D01*
X72192089Y-168735000D01*
X72372729Y-168699068D01*
X72542889Y-168628586D01*
X72696028Y-168526262D01*
X72826262Y-168396028D01*
X72928586Y-168242889D01*
X72999068Y-168072729D01*
X73035000Y-167892089D01*
X73035000Y-167876162D01*
X73096162Y-167815000D01*
X73182577Y-167815000D01*
X73160922Y-167867281D01*
X73124990Y-168047921D01*
X73124990Y-168232099D01*
X73160922Y-168412739D01*
X73231404Y-168582899D01*
X73333728Y-168736038D01*
X73463962Y-168866272D01*
X73617101Y-168968596D01*
X73787261Y-169039078D01*
X73914151Y-169064318D01*
X73917652Y-169067819D01*
X73942235Y-169097773D01*
X74061766Y-169195871D01*
X74198139Y-169268763D01*
X74311671Y-169303203D01*
X74346111Y-169313650D01*
X74360489Y-169315066D01*
X74461438Y-169325009D01*
X74461445Y-169325009D01*
X74499998Y-169328806D01*
X74538551Y-169325009D01*
X77842648Y-169325009D01*
X77881201Y-169328806D01*
X77919754Y-169325009D01*
X77919762Y-169325009D01*
X78035088Y-169313650D01*
X78183061Y-169268763D01*
X78319434Y-169195871D01*
X78367747Y-169156221D01*
X78453929Y-169139078D01*
X78619006Y-169070702D01*
X78650455Y-169073799D01*
X78689008Y-169070002D01*
X83529249Y-169070002D01*
X83567802Y-169073799D01*
X83606355Y-169070002D01*
X83606363Y-169070002D01*
X83721689Y-169058643D01*
X83869662Y-169013756D01*
X84006035Y-168940864D01*
X84015617Y-168933000D01*
X90714056Y-168933000D01*
X90857111Y-169028586D01*
X91027271Y-169099068D01*
X91207911Y-169135000D01*
X91392089Y-169135000D01*
X91572729Y-169099068D01*
X91742889Y-169028586D01*
X91896028Y-168926262D01*
X92026262Y-168796028D01*
X92128586Y-168642889D01*
X92199068Y-168472729D01*
X92235000Y-168292089D01*
X92235000Y-168107911D01*
X92199068Y-167927271D01*
X92152564Y-167815000D01*
X93636778Y-167815000D01*
X93657111Y-167828586D01*
X93827271Y-167899068D01*
X94007911Y-167935000D01*
X94192089Y-167935000D01*
X94372729Y-167899068D01*
X94542889Y-167828586D01*
X94696028Y-167726262D01*
X94826262Y-167596028D01*
X94928586Y-167442889D01*
X94999068Y-167272729D01*
X95035000Y-167092089D01*
X95035000Y-166976890D01*
X95558524Y-166976890D01*
X95603175Y-167124099D01*
X95728359Y-167386920D01*
X95902412Y-167620269D01*
X96118645Y-167815178D01*
X96368748Y-167964157D01*
X96643109Y-168061481D01*
X96873000Y-167940814D01*
X96873000Y-166747000D01*
X97127000Y-166747000D01*
X97127000Y-167940814D01*
X97356891Y-168061481D01*
X97631252Y-167964157D01*
X97881355Y-167815178D01*
X98097588Y-167620269D01*
X98271641Y-167386920D01*
X98396825Y-167124099D01*
X98441476Y-166976890D01*
X98320155Y-166747000D01*
X97127000Y-166747000D01*
X96873000Y-166747000D01*
X95679845Y-166747000D01*
X95558524Y-166976890D01*
X95035000Y-166976890D01*
X95035000Y-166907911D01*
X94999068Y-166727271D01*
X94928586Y-166557111D01*
X94826262Y-166403972D01*
X94696028Y-166273738D01*
X94542889Y-166171414D01*
X94372729Y-166100932D01*
X94192089Y-166065000D01*
X94007911Y-166065000D01*
X93827271Y-166100932D01*
X93657111Y-166171414D01*
X93503972Y-166273738D01*
X93392710Y-166385000D01*
X78137290Y-166385000D01*
X78226262Y-166296028D01*
X78328586Y-166142889D01*
X78399068Y-165972729D01*
X78430443Y-165815000D01*
X85207290Y-165815000D01*
X85242400Y-165818458D01*
X85277510Y-165815000D01*
X85277520Y-165815000D01*
X85382564Y-165804654D01*
X85517342Y-165763770D01*
X85641554Y-165697377D01*
X85750427Y-165608027D01*
X85772820Y-165580741D01*
X87010193Y-164343370D01*
X87107689Y-164302986D01*
X87260828Y-164200662D01*
X87391062Y-164070428D01*
X87493386Y-163917289D01*
X87563868Y-163747129D01*
X87599800Y-163566489D01*
X87599800Y-163382311D01*
X87563868Y-163201671D01*
X87493386Y-163031511D01*
X87391062Y-162878372D01*
X87260828Y-162748138D01*
X87136403Y-162665000D01*
X90392710Y-162665000D01*
X90403972Y-162676262D01*
X90557111Y-162778586D01*
X90727271Y-162849068D01*
X90907911Y-162885000D01*
X91092089Y-162885000D01*
X91272729Y-162849068D01*
X91442889Y-162778586D01*
X91596028Y-162676262D01*
X91726262Y-162546028D01*
X91828586Y-162392889D01*
X91899068Y-162222729D01*
X91935000Y-162042089D01*
X91935000Y-161860702D01*
X95107459Y-161860702D01*
X95267503Y-162020745D01*
X95289892Y-162048027D01*
X95398765Y-162137377D01*
X95522977Y-162203770D01*
X95592773Y-162224942D01*
X95657754Y-162244654D01*
X95669867Y-162245847D01*
X95694771Y-162248300D01*
X95759294Y-162369014D01*
X95944866Y-162595134D01*
X96170986Y-162780706D01*
X96225791Y-162810000D01*
X96170986Y-162839294D01*
X95944866Y-163024866D01*
X95759294Y-163250986D01*
X95621401Y-163508966D01*
X95536487Y-163788889D01*
X95507815Y-164080000D01*
X95536487Y-164371111D01*
X95621401Y-164651034D01*
X95759294Y-164909014D01*
X95944866Y-165135134D01*
X96170986Y-165320706D01*
X96235523Y-165355201D01*
X96118645Y-165424822D01*
X95902412Y-165619731D01*
X95728359Y-165853080D01*
X95603175Y-166115901D01*
X95558524Y-166263110D01*
X95679845Y-166493000D01*
X96873000Y-166493000D01*
X96873000Y-166473000D01*
X97127000Y-166473000D01*
X97127000Y-166493000D01*
X98320155Y-166493000D01*
X98441476Y-166263110D01*
X98396825Y-166115901D01*
X98271641Y-165853080D01*
X98097588Y-165619731D01*
X97881355Y-165424822D01*
X97764477Y-165355201D01*
X97829014Y-165320706D01*
X98055134Y-165135134D01*
X98240706Y-164909014D01*
X98378599Y-164651034D01*
X98463513Y-164371111D01*
X98492185Y-164080000D01*
X98463513Y-163788889D01*
X98378599Y-163508966D01*
X98240706Y-163250986D01*
X98055134Y-163024866D01*
X97829014Y-162839294D01*
X97774209Y-162810000D01*
X97829014Y-162780706D01*
X98055134Y-162595134D01*
X98240706Y-162369014D01*
X98378599Y-162111034D01*
X98463513Y-161831111D01*
X98492185Y-161540000D01*
X98463513Y-161248889D01*
X98378599Y-160968966D01*
X98240706Y-160710986D01*
X98055134Y-160484866D01*
X98025313Y-160460393D01*
X98094180Y-160439502D01*
X98204494Y-160380537D01*
X98301185Y-160301185D01*
X98380537Y-160204494D01*
X98439502Y-160094180D01*
X98475812Y-159974482D01*
X98488072Y-159850000D01*
X98488072Y-158150000D01*
X98475812Y-158025518D01*
X98439502Y-157905820D01*
X98390957Y-157815000D01*
X98464890Y-157815000D01*
X98500000Y-157818458D01*
X98516553Y-157816828D01*
X98607911Y-157835000D01*
X98792089Y-157835000D01*
X98873000Y-157818906D01*
X98873000Y-186213059D01*
X98579003Y-186091282D01*
X98195505Y-186015000D01*
X97804495Y-186015000D01*
X97420997Y-186091282D01*
X97059750Y-186240915D01*
X96734636Y-186458149D01*
X96458149Y-186734636D01*
X96240915Y-187059750D01*
X96091282Y-187420997D01*
X96015000Y-187804495D01*
X96015000Y-188195505D01*
X96091282Y-188579003D01*
X96213059Y-188873000D01*
X58786941Y-188873000D01*
X58908718Y-188579003D01*
X58985000Y-188195505D01*
X58985000Y-187804495D01*
X58908718Y-187420997D01*
X58759085Y-187059750D01*
X58541851Y-186734636D01*
X58265364Y-186458149D01*
X57940250Y-186240915D01*
X57579003Y-186091282D01*
X57195505Y-186015000D01*
X56804495Y-186015000D01*
X56420997Y-186091282D01*
X56127000Y-186213059D01*
X56127000Y-183556890D01*
X95558524Y-183556890D01*
X95603175Y-183704099D01*
X95728359Y-183966920D01*
X95902412Y-184200269D01*
X96118645Y-184395178D01*
X96368748Y-184544157D01*
X96643109Y-184641481D01*
X96873000Y-184520814D01*
X96873000Y-183327000D01*
X97127000Y-183327000D01*
X97127000Y-184520814D01*
X97356891Y-184641481D01*
X97631252Y-184544157D01*
X97881355Y-184395178D01*
X98097588Y-184200269D01*
X98271641Y-183966920D01*
X98396825Y-183704099D01*
X98441476Y-183556890D01*
X98320155Y-183327000D01*
X97127000Y-183327000D01*
X96873000Y-183327000D01*
X95679845Y-183327000D01*
X95558524Y-183556890D01*
X56127000Y-183556890D01*
X56127000Y-178500000D01*
X73561928Y-178500000D01*
X73574188Y-178624482D01*
X73610498Y-178744180D01*
X73669463Y-178854494D01*
X73748815Y-178951185D01*
X73845506Y-179030537D01*
X73955820Y-179089502D01*
X74075518Y-179125812D01*
X74200000Y-179138072D01*
X75314250Y-179135000D01*
X75473000Y-178976250D01*
X75473000Y-178127000D01*
X75727000Y-178127000D01*
X75727000Y-178976250D01*
X75885750Y-179135000D01*
X77000000Y-179138072D01*
X77124482Y-179125812D01*
X77244180Y-179089502D01*
X77354494Y-179030537D01*
X77451185Y-178951185D01*
X77530537Y-178854494D01*
X77589502Y-178744180D01*
X77625812Y-178624482D01*
X77638072Y-178500000D01*
X79361928Y-178500000D01*
X79374188Y-178624482D01*
X79410498Y-178744180D01*
X79469463Y-178854494D01*
X79548815Y-178951185D01*
X79645506Y-179030537D01*
X79755820Y-179089502D01*
X79875518Y-179125812D01*
X80000000Y-179138072D01*
X81114250Y-179135000D01*
X81273000Y-178976250D01*
X81273000Y-178127000D01*
X79523750Y-178127000D01*
X79365000Y-178285750D01*
X79361928Y-178500000D01*
X77638072Y-178500000D01*
X77635000Y-178285750D01*
X77476250Y-178127000D01*
X75727000Y-178127000D01*
X75473000Y-178127000D01*
X73723750Y-178127000D01*
X73565000Y-178285750D01*
X73561928Y-178500000D01*
X56127000Y-178500000D01*
X56127000Y-177500000D01*
X73561928Y-177500000D01*
X73565000Y-177714250D01*
X73723750Y-177873000D01*
X75473000Y-177873000D01*
X75473000Y-177023750D01*
X75727000Y-177023750D01*
X75727000Y-177873000D01*
X77476250Y-177873000D01*
X77635000Y-177714250D01*
X77638072Y-177500000D01*
X79361928Y-177500000D01*
X79365000Y-177714250D01*
X79523750Y-177873000D01*
X81273000Y-177873000D01*
X81273000Y-177023750D01*
X81114250Y-176865000D01*
X80000000Y-176861928D01*
X79875518Y-176874188D01*
X79755820Y-176910498D01*
X79645506Y-176969463D01*
X79548815Y-177048815D01*
X79469463Y-177145506D01*
X79410498Y-177255820D01*
X79374188Y-177375518D01*
X79361928Y-177500000D01*
X77638072Y-177500000D01*
X77625812Y-177375518D01*
X77589502Y-177255820D01*
X77530537Y-177145506D01*
X77451185Y-177048815D01*
X77354494Y-176969463D01*
X77244180Y-176910498D01*
X77124482Y-176874188D01*
X77000000Y-176861928D01*
X75885750Y-176865000D01*
X75727000Y-177023750D01*
X75473000Y-177023750D01*
X75314250Y-176865000D01*
X74200000Y-176861928D01*
X74075518Y-176874188D01*
X73955820Y-176910498D01*
X73845506Y-176969463D01*
X73748815Y-177048815D01*
X73669463Y-177145506D01*
X73610498Y-177255820D01*
X73574188Y-177375518D01*
X73561928Y-177500000D01*
X56127000Y-177500000D01*
X56127000Y-170482911D01*
X67540000Y-170482911D01*
X67540000Y-170667089D01*
X67575932Y-170847729D01*
X67646414Y-171017889D01*
X67748738Y-171171028D01*
X67878972Y-171301262D01*
X68032111Y-171403586D01*
X68202271Y-171474068D01*
X68382911Y-171510000D01*
X68567089Y-171510000D01*
X68747729Y-171474068D01*
X68917889Y-171403586D01*
X69033855Y-171326100D01*
X75950780Y-171326100D01*
X76016011Y-171369686D01*
X76186171Y-171440168D01*
X76366811Y-171476100D01*
X76550989Y-171476100D01*
X76731629Y-171440168D01*
X76901789Y-171369686D01*
X76991116Y-171310000D01*
X82810464Y-171310000D01*
X82795347Y-171359836D01*
X82781542Y-171500000D01*
X82785001Y-171535120D01*
X82785000Y-176861969D01*
X81685750Y-176865000D01*
X81527000Y-177023750D01*
X81527000Y-177873000D01*
X81547000Y-177873000D01*
X81547000Y-178127000D01*
X81527000Y-178127000D01*
X81527000Y-178976250D01*
X81685750Y-179135000D01*
X82785000Y-179138031D01*
X82785000Y-180503838D01*
X82426910Y-180861928D01*
X80000000Y-180861928D01*
X79875518Y-180874188D01*
X79755820Y-180910498D01*
X79645506Y-180969463D01*
X79548815Y-181048815D01*
X79469463Y-181145506D01*
X79410498Y-181255820D01*
X79401646Y-181285000D01*
X77598354Y-181285000D01*
X77589502Y-181255820D01*
X77530537Y-181145506D01*
X77451185Y-181048815D01*
X77354494Y-180969463D01*
X77244180Y-180910498D01*
X77124482Y-180874188D01*
X77000000Y-180861928D01*
X74200000Y-180861928D01*
X74075518Y-180874188D01*
X73955820Y-180910498D01*
X73845506Y-180969463D01*
X73748815Y-181048815D01*
X73669463Y-181145506D01*
X73610498Y-181255820D01*
X73574188Y-181375518D01*
X73561928Y-181500000D01*
X73561928Y-182500000D01*
X73574188Y-182624482D01*
X73610498Y-182744180D01*
X73669463Y-182854494D01*
X73748815Y-182951185D01*
X73845506Y-183030537D01*
X73955820Y-183089502D01*
X74075518Y-183125812D01*
X74200000Y-183138072D01*
X77000000Y-183138072D01*
X77124482Y-183125812D01*
X77244180Y-183089502D01*
X77354494Y-183030537D01*
X77451185Y-182951185D01*
X77530537Y-182854494D01*
X77589502Y-182744180D01*
X77598354Y-182715000D01*
X79401646Y-182715000D01*
X79410498Y-182744180D01*
X79469463Y-182854494D01*
X79548815Y-182951185D01*
X79645506Y-183030537D01*
X79755820Y-183089502D01*
X79875518Y-183125812D01*
X80000000Y-183138072D01*
X82800000Y-183138072D01*
X82924482Y-183125812D01*
X83044180Y-183089502D01*
X83154494Y-183030537D01*
X83251185Y-182951185D01*
X83330537Y-182854494D01*
X83389502Y-182744180D01*
X83425812Y-182624482D01*
X83438072Y-182500000D01*
X83438072Y-181873090D01*
X83980750Y-181330412D01*
X84008026Y-181308027D01*
X84097377Y-181199154D01*
X84163770Y-181074942D01*
X84204654Y-180940164D01*
X84215000Y-180835120D01*
X84215000Y-180835111D01*
X84218458Y-180800001D01*
X84215000Y-180764891D01*
X84215000Y-172015000D01*
X95154890Y-172015000D01*
X95190000Y-172018458D01*
X95225110Y-172015000D01*
X95225120Y-172015000D01*
X95330164Y-172004654D01*
X95464942Y-171963770D01*
X95589154Y-171897377D01*
X95698027Y-171808027D01*
X95701699Y-171803552D01*
X95795506Y-171880537D01*
X95905820Y-171939502D01*
X95974687Y-171960393D01*
X95944866Y-171984866D01*
X95759294Y-172210986D01*
X95621401Y-172468966D01*
X95536487Y-172748889D01*
X95507815Y-173040000D01*
X95536487Y-173331111D01*
X95621401Y-173611034D01*
X95759294Y-173869014D01*
X95944866Y-174095134D01*
X96170986Y-174280706D01*
X96225791Y-174310000D01*
X96170986Y-174339294D01*
X95944866Y-174524866D01*
X95759294Y-174750986D01*
X95621401Y-175008966D01*
X95536487Y-175288889D01*
X95507815Y-175580000D01*
X95536487Y-175871111D01*
X95621401Y-176151034D01*
X95759294Y-176409014D01*
X95944866Y-176635134D01*
X96170986Y-176820706D01*
X96225791Y-176850000D01*
X96170986Y-176879294D01*
X95944866Y-177064866D01*
X95759294Y-177290986D01*
X95621401Y-177548966D01*
X95536487Y-177828889D01*
X95507815Y-178120000D01*
X95536487Y-178411111D01*
X95621401Y-178691034D01*
X95759294Y-178949014D01*
X95944866Y-179175134D01*
X96170986Y-179360706D01*
X96225791Y-179390000D01*
X96170986Y-179419294D01*
X95944866Y-179604866D01*
X95759294Y-179830986D01*
X95621401Y-180088966D01*
X95536487Y-180368889D01*
X95507815Y-180660000D01*
X95536487Y-180951111D01*
X95621401Y-181231034D01*
X95759294Y-181489014D01*
X95944866Y-181715134D01*
X96170986Y-181900706D01*
X96235523Y-181935201D01*
X96118645Y-182004822D01*
X95902412Y-182199731D01*
X95728359Y-182433080D01*
X95603175Y-182695901D01*
X95558524Y-182843110D01*
X95679845Y-183073000D01*
X96873000Y-183073000D01*
X96873000Y-183053000D01*
X97127000Y-183053000D01*
X97127000Y-183073000D01*
X98320155Y-183073000D01*
X98441476Y-182843110D01*
X98396825Y-182695901D01*
X98271641Y-182433080D01*
X98097588Y-182199731D01*
X97881355Y-182004822D01*
X97764477Y-181935201D01*
X97829014Y-181900706D01*
X98055134Y-181715134D01*
X98240706Y-181489014D01*
X98378599Y-181231034D01*
X98463513Y-180951111D01*
X98492185Y-180660000D01*
X98463513Y-180368889D01*
X98378599Y-180088966D01*
X98240706Y-179830986D01*
X98055134Y-179604866D01*
X97829014Y-179419294D01*
X97774209Y-179390000D01*
X97829014Y-179360706D01*
X98055134Y-179175134D01*
X98240706Y-178949014D01*
X98378599Y-178691034D01*
X98463513Y-178411111D01*
X98492185Y-178120000D01*
X98463513Y-177828889D01*
X98378599Y-177548966D01*
X98240706Y-177290986D01*
X98055134Y-177064866D01*
X97829014Y-176879294D01*
X97774209Y-176850000D01*
X97829014Y-176820706D01*
X98055134Y-176635134D01*
X98240706Y-176409014D01*
X98378599Y-176151034D01*
X98463513Y-175871111D01*
X98492185Y-175580000D01*
X98463513Y-175288889D01*
X98378599Y-175008966D01*
X98240706Y-174750986D01*
X98055134Y-174524866D01*
X97829014Y-174339294D01*
X97774209Y-174310000D01*
X97829014Y-174280706D01*
X98055134Y-174095134D01*
X98240706Y-173869014D01*
X98378599Y-173611034D01*
X98463513Y-173331111D01*
X98492185Y-173040000D01*
X98463513Y-172748889D01*
X98378599Y-172468966D01*
X98240706Y-172210986D01*
X98055134Y-171984866D01*
X98025313Y-171960393D01*
X98094180Y-171939502D01*
X98204494Y-171880537D01*
X98301185Y-171801185D01*
X98380537Y-171704494D01*
X98439502Y-171594180D01*
X98475812Y-171474482D01*
X98488072Y-171350000D01*
X98488072Y-169650000D01*
X98475812Y-169525518D01*
X98439502Y-169405820D01*
X98380537Y-169295506D01*
X98301185Y-169198815D01*
X98204494Y-169119463D01*
X98094180Y-169060498D01*
X97974482Y-169024188D01*
X97850000Y-169011928D01*
X96150000Y-169011928D01*
X96025518Y-169024188D01*
X95905820Y-169060498D01*
X95795506Y-169119463D01*
X95698815Y-169198815D01*
X95619463Y-169295506D01*
X95560498Y-169405820D01*
X95524188Y-169525518D01*
X95511928Y-169650000D01*
X95511928Y-169967389D01*
X95509252Y-169969585D01*
X95509248Y-169969589D01*
X95481973Y-169991973D01*
X95459588Y-170019249D01*
X94893838Y-170585000D01*
X86410000Y-170585000D01*
X86410000Y-170432911D01*
X86374068Y-170252271D01*
X86303586Y-170082111D01*
X86201262Y-169928972D01*
X86071028Y-169798738D01*
X85917889Y-169696414D01*
X85747729Y-169625932D01*
X85567089Y-169590000D01*
X85382911Y-169590000D01*
X85202271Y-169625932D01*
X85032111Y-169696414D01*
X84966880Y-169740000D01*
X76942925Y-169740000D01*
X76901789Y-169712514D01*
X76731629Y-169642032D01*
X76550989Y-169606100D01*
X76366811Y-169606100D01*
X76186171Y-169642032D01*
X76016011Y-169712514D01*
X75950780Y-169756100D01*
X68932385Y-169756100D01*
X68917889Y-169746414D01*
X68747729Y-169675932D01*
X68567089Y-169640000D01*
X68382911Y-169640000D01*
X68202271Y-169675932D01*
X68032111Y-169746414D01*
X67878972Y-169848738D01*
X67748738Y-169978972D01*
X67646414Y-170132111D01*
X67575932Y-170302271D01*
X67540000Y-170482911D01*
X56127000Y-170482911D01*
X56127000Y-123786941D01*
X56420997Y-123908718D01*
X56804495Y-123985000D01*
X57195505Y-123985000D01*
X57579003Y-123908718D01*
X57940250Y-123759085D01*
X58265364Y-123541851D01*
X58541851Y-123265364D01*
X58759085Y-122940250D01*
X58908718Y-122579003D01*
X58985000Y-122195505D01*
X58985000Y-121804495D01*
X58908718Y-121420997D01*
X58786941Y-121127000D01*
X96213059Y-121127000D01*
X96091282Y-121420997D01*
X96091282Y-121420997D01*
G37*
X96091282Y-121420997D02*
X96015000Y-121804495D01*
X96015000Y-122195505D01*
X96091282Y-122579003D01*
X96240915Y-122940250D01*
X96458149Y-123265364D01*
X96734636Y-123541851D01*
X97059750Y-123759085D01*
X97420997Y-123908718D01*
X97804495Y-123985000D01*
X98195505Y-123985000D01*
X98579003Y-123908718D01*
X98873000Y-123786941D01*
X98873000Y-146373921D01*
X98826262Y-146303972D01*
X98696028Y-146173738D01*
X98542889Y-146071414D01*
X98372729Y-146000932D01*
X98192089Y-145965000D01*
X98007911Y-145965000D01*
X97827271Y-146000932D01*
X97657111Y-146071414D01*
X97503972Y-146173738D01*
X97469002Y-146208708D01*
X88026157Y-146208708D01*
X88047377Y-146182852D01*
X88113770Y-146058640D01*
X88154654Y-145923862D01*
X88165000Y-145818818D01*
X88165000Y-145818809D01*
X88168458Y-145783699D01*
X88165000Y-145748589D01*
X88165000Y-135457290D01*
X88176262Y-135446028D01*
X88278586Y-135292889D01*
X88349068Y-135122729D01*
X88385000Y-134942089D01*
X88385000Y-134757911D01*
X88349068Y-134577271D01*
X88278586Y-134407111D01*
X88176262Y-134253972D01*
X88046028Y-134123738D01*
X87892889Y-134021414D01*
X87722729Y-133950932D01*
X87592121Y-133924952D01*
X87592121Y-131826000D01*
X93097415Y-131826000D01*
X93126087Y-132117111D01*
X93211001Y-132397034D01*
X93348894Y-132655014D01*
X93534466Y-132881134D01*
X93760586Y-133066706D01*
X94018566Y-133204599D01*
X94298489Y-133289513D01*
X94516650Y-133311000D01*
X94662550Y-133311000D01*
X94880711Y-133289513D01*
X95160634Y-133204599D01*
X95418614Y-133066706D01*
X95644734Y-132881134D01*
X95830306Y-132655014D01*
X95968199Y-132397034D01*
X96053113Y-132117111D01*
X96081785Y-131826000D01*
X96053113Y-131534889D01*
X95968199Y-131254966D01*
X95830306Y-130996986D01*
X95644734Y-130770866D01*
X95418614Y-130585294D01*
X95354077Y-130550799D01*
X95470955Y-130481178D01*
X95687188Y-130286269D01*
X95861241Y-130052920D01*
X95986425Y-129790099D01*
X96031076Y-129642890D01*
X95909755Y-129413000D01*
X94716600Y-129413000D01*
X94716600Y-129433000D01*
X94462600Y-129433000D01*
X94462600Y-129413000D01*
X93269445Y-129413000D01*
X93148124Y-129642890D01*
X93192775Y-129790099D01*
X93317959Y-130052920D01*
X93492012Y-130286269D01*
X93708245Y-130481178D01*
X93825123Y-130550799D01*
X93760586Y-130585294D01*
X93534466Y-130770866D01*
X93348894Y-130996986D01*
X93211001Y-131254966D01*
X93126087Y-131534889D01*
X93097415Y-131826000D01*
X87592121Y-131826000D01*
X87592121Y-127412531D01*
X87595579Y-127377421D01*
X87592121Y-127342311D01*
X87592121Y-127342301D01*
X87581775Y-127237257D01*
X87540891Y-127102479D01*
X87474498Y-126978267D01*
X87385147Y-126869394D01*
X87358500Y-126847525D01*
X87358500Y-126831711D01*
X87322568Y-126651071D01*
X87252086Y-126480911D01*
X87149762Y-126327772D01*
X87019528Y-126197538D01*
X86866389Y-126095214D01*
X86696229Y-126024732D01*
X86515589Y-125988800D01*
X86331411Y-125988800D01*
X86150771Y-126024732D01*
X85980611Y-126095214D01*
X85827472Y-126197538D01*
X85697238Y-126327772D01*
X85594914Y-126480911D01*
X85524432Y-126651071D01*
X85488500Y-126831711D01*
X85488500Y-126838284D01*
X85421072Y-126883338D01*
X85290838Y-127013572D01*
X85188514Y-127166711D01*
X85118032Y-127336871D01*
X85117877Y-127337651D01*
X84990011Y-127390614D01*
X84836872Y-127492938D01*
X84706638Y-127623172D01*
X84604314Y-127776311D01*
X84533832Y-127946471D01*
X84497900Y-128127111D01*
X84497900Y-128311289D01*
X84533832Y-128491929D01*
X84604314Y-128662089D01*
X84706638Y-128815228D01*
X84717900Y-128826490D01*
X84717901Y-145659280D01*
X84714442Y-145694400D01*
X84717901Y-145729520D01*
X84728247Y-145834564D01*
X84769131Y-145969342D01*
X84835524Y-146093554D01*
X84924874Y-146202427D01*
X84932527Y-146208708D01*
X83030998Y-146208708D01*
X83019736Y-146197446D01*
X82866597Y-146095122D01*
X82696437Y-146024640D01*
X82655001Y-146016398D01*
X82655001Y-135782553D01*
X82721414Y-135942889D01*
X82823738Y-136096028D01*
X82953972Y-136226262D01*
X83107111Y-136328586D01*
X83277271Y-136399068D01*
X83457911Y-136435000D01*
X83642089Y-136435000D01*
X83822729Y-136399068D01*
X83992889Y-136328586D01*
X84146028Y-136226262D01*
X84276262Y-136096028D01*
X84378586Y-135942889D01*
X84449068Y-135772729D01*
X84485000Y-135592089D01*
X84485000Y-135407911D01*
X84449068Y-135227271D01*
X84378586Y-135057111D01*
X84276262Y-134903972D01*
X84146028Y-134773738D01*
X83992889Y-134671414D01*
X83822729Y-134600932D01*
X83642089Y-134565000D01*
X83457911Y-134565000D01*
X83277271Y-134600932D01*
X83107111Y-134671414D01*
X82953972Y-134773738D01*
X82823738Y-134903972D01*
X82721414Y-135057111D01*
X82655001Y-135217447D01*
X82655001Y-128139610D01*
X82658459Y-128104500D01*
X82655001Y-128069390D01*
X82655001Y-128069381D01*
X82644655Y-127964337D01*
X82603771Y-127829559D01*
X82537378Y-127705347D01*
X82448028Y-127596474D01*
X82443600Y-127592840D01*
X82443600Y-127581011D01*
X82407668Y-127400371D01*
X82337186Y-127230211D01*
X82234862Y-127077072D01*
X82104628Y-126946838D01*
X81951489Y-126844514D01*
X81781329Y-126774032D01*
X81600689Y-126738100D01*
X81416511Y-126738100D01*
X81235871Y-126774032D01*
X81065711Y-126844514D01*
X80912572Y-126946838D01*
X80782338Y-127077072D01*
X80680014Y-127230211D01*
X80609532Y-127400371D01*
X80573600Y-127581011D01*
X80573600Y-127765189D01*
X80609532Y-127945829D01*
X80680014Y-128115989D01*
X80782338Y-128269128D01*
X80912572Y-128399362D01*
X81065711Y-128501686D01*
X81225002Y-128567666D01*
X81225001Y-146259060D01*
X81139824Y-146362848D01*
X81073431Y-146487060D01*
X81032546Y-146621838D01*
X81022200Y-146726882D01*
X81022200Y-146726892D01*
X81018742Y-146762002D01*
X81022200Y-146797112D01*
X81022200Y-147411890D01*
X81018742Y-147447000D01*
X81022200Y-147482110D01*
X81022200Y-147482119D01*
X81032546Y-147587163D01*
X81073430Y-147721941D01*
X81119738Y-147808576D01*
X80915000Y-147603839D01*
X80915000Y-145707290D01*
X80926262Y-145696028D01*
X81028586Y-145542889D01*
X81099068Y-145372729D01*
X81135000Y-145192089D01*
X81135000Y-145007911D01*
X81099068Y-144827271D01*
X81028586Y-144657111D01*
X80926262Y-144503972D01*
X80796028Y-144373738D01*
X80642889Y-144271414D01*
X80472729Y-144200932D01*
X80318600Y-144170273D01*
X80318600Y-128991590D01*
X80329862Y-128980328D01*
X80432186Y-128827189D01*
X80502668Y-128657029D01*
X80538600Y-128476389D01*
X80538600Y-128292211D01*
X80502668Y-128111571D01*
X80432186Y-127941411D01*
X80329862Y-127788272D01*
X80199628Y-127658038D01*
X80046489Y-127555714D01*
X79876329Y-127485232D01*
X79695689Y-127449300D01*
X79511511Y-127449300D01*
X79330871Y-127485232D01*
X79160711Y-127555714D01*
X79007572Y-127658038D01*
X78877338Y-127788272D01*
X78775014Y-127941411D01*
X78704532Y-128111571D01*
X78668600Y-128292211D01*
X78668600Y-128476389D01*
X78704532Y-128657029D01*
X78775014Y-128827189D01*
X78877338Y-128980328D01*
X78888600Y-128991590D01*
X78888600Y-133284198D01*
X78792089Y-133265000D01*
X78616800Y-133265000D01*
X78616800Y-127162790D01*
X78628062Y-127151528D01*
X78730386Y-126998389D01*
X78800868Y-126828229D01*
X78836800Y-126647589D01*
X78836800Y-126463411D01*
X78800868Y-126282771D01*
X78730386Y-126112611D01*
X78628062Y-125959472D01*
X78564590Y-125896000D01*
X93101528Y-125896000D01*
X93101528Y-127596000D01*
X93113788Y-127720482D01*
X93150098Y-127840180D01*
X93209063Y-127950494D01*
X93288415Y-128047185D01*
X93385106Y-128126537D01*
X93495420Y-128185502D01*
X93576066Y-128209966D01*
X93492012Y-128285731D01*
X93317959Y-128519080D01*
X93192775Y-128781901D01*
X93148124Y-128929110D01*
X93269445Y-129159000D01*
X94462600Y-129159000D01*
X94462600Y-129139000D01*
X94716600Y-129139000D01*
X94716600Y-129159000D01*
X95909755Y-129159000D01*
X96031076Y-128929110D01*
X95986425Y-128781901D01*
X95861241Y-128519080D01*
X95687188Y-128285731D01*
X95603134Y-128209966D01*
X95683780Y-128185502D01*
X95794094Y-128126537D01*
X95890785Y-128047185D01*
X95970137Y-127950494D01*
X96029102Y-127840180D01*
X96065412Y-127720482D01*
X96077672Y-127596000D01*
X96077672Y-125896000D01*
X96065412Y-125771518D01*
X96029102Y-125651820D01*
X95970137Y-125541506D01*
X95890785Y-125444815D01*
X95794094Y-125365463D01*
X95683780Y-125306498D01*
X95564082Y-125270188D01*
X95439600Y-125257928D01*
X93739600Y-125257928D01*
X93615118Y-125270188D01*
X93495420Y-125306498D01*
X93385106Y-125365463D01*
X93288415Y-125444815D01*
X93209063Y-125541506D01*
X93150098Y-125651820D01*
X93113788Y-125771518D01*
X93101528Y-125896000D01*
X78564590Y-125896000D01*
X78497828Y-125829238D01*
X78344689Y-125726914D01*
X78174529Y-125656432D01*
X77993889Y-125620500D01*
X77809711Y-125620500D01*
X77629071Y-125656432D01*
X77458911Y-125726914D01*
X77305772Y-125829238D01*
X77175538Y-125959472D01*
X77073214Y-126112611D01*
X77002732Y-126282771D01*
X76966800Y-126463411D01*
X76966800Y-126647589D01*
X77002732Y-126828229D01*
X77073214Y-126998389D01*
X77175538Y-127151528D01*
X77186800Y-127162790D01*
X77186800Y-134129145D01*
X77077271Y-134150932D01*
X76907111Y-134221414D01*
X76753972Y-134323738D01*
X76623738Y-134453972D01*
X76521414Y-134607111D01*
X76450932Y-134777271D01*
X76419700Y-134934283D01*
X76419700Y-134262090D01*
X76430962Y-134250828D01*
X76533286Y-134097689D01*
X76603768Y-133927529D01*
X76639700Y-133746889D01*
X76639700Y-133562711D01*
X76603768Y-133382071D01*
X76533286Y-133211911D01*
X76430962Y-133058772D01*
X76300728Y-132928538D01*
X76147589Y-132826214D01*
X75977429Y-132755732D01*
X75796789Y-132719800D01*
X75612611Y-132719800D01*
X75538599Y-132734522D01*
X75538599Y-130903811D01*
X75542057Y-130868699D01*
X75538599Y-130833587D01*
X75538599Y-130833579D01*
X75528253Y-130728535D01*
X75527934Y-130727481D01*
X75504189Y-130649207D01*
X75487369Y-130593757D01*
X75458600Y-130539934D01*
X75458600Y-130476611D01*
X75422668Y-130295971D01*
X75352186Y-130125811D01*
X75249862Y-129972672D01*
X75119628Y-129842438D01*
X74966489Y-129740114D01*
X74796329Y-129669632D01*
X74615689Y-129633700D01*
X74431511Y-129633700D01*
X74384873Y-129642977D01*
X74373464Y-129615432D01*
X74271140Y-129462293D01*
X74140906Y-129332059D01*
X73987767Y-129229735D01*
X73817607Y-129159253D01*
X73636967Y-129123321D01*
X73452789Y-129123321D01*
X73272149Y-129159253D01*
X73101989Y-129229735D01*
X72948850Y-129332059D01*
X72818616Y-129462293D01*
X72716292Y-129615432D01*
X72645810Y-129785592D01*
X72609878Y-129966232D01*
X72609878Y-130150410D01*
X72645810Y-130331050D01*
X72716292Y-130501210D01*
X72818616Y-130654349D01*
X72829879Y-130665612D01*
X72829878Y-132867289D01*
X72748348Y-132785759D01*
X72595209Y-132683435D01*
X72425049Y-132612953D01*
X72244409Y-132577021D01*
X72060231Y-132577021D01*
X71879591Y-132612953D01*
X71709431Y-132683435D01*
X71556292Y-132785759D01*
X71426058Y-132915993D01*
X71323734Y-133069132D01*
X71253252Y-133239292D01*
X71217320Y-133419932D01*
X71217320Y-133472808D01*
X71049829Y-133403432D01*
X70915000Y-133376612D01*
X70915000Y-130409376D01*
X70918458Y-130374264D01*
X70915000Y-130339152D01*
X70915000Y-130339144D01*
X70904654Y-130234100D01*
X70896629Y-130207643D01*
X70879267Y-130150410D01*
X70863770Y-130099322D01*
X70797377Y-129975110D01*
X70739782Y-129904931D01*
X70737089Y-129901649D01*
X70749068Y-129872729D01*
X70785000Y-129692089D01*
X70785000Y-129507911D01*
X70749068Y-129327271D01*
X70678586Y-129157111D01*
X70576262Y-129003972D01*
X70446028Y-128873738D01*
X70292889Y-128771414D01*
X70122729Y-128700932D01*
X69942089Y-128665000D01*
X69757911Y-128665000D01*
X69577271Y-128700932D01*
X69407111Y-128771414D01*
X69253972Y-128873738D01*
X69123738Y-129003972D01*
X69021414Y-129157111D01*
X68950932Y-129327271D01*
X68915000Y-129507911D01*
X68915000Y-129692089D01*
X68950932Y-129872729D01*
X69021414Y-130042889D01*
X69123738Y-130196028D01*
X69168514Y-130240804D01*
X69186230Y-130299206D01*
X69252623Y-130423418D01*
X69341974Y-130532291D01*
X69369254Y-130554679D01*
X69485000Y-130670425D01*
X69485000Y-133950141D01*
X69246388Y-133711529D01*
X69246388Y-133695602D01*
X69210456Y-133514962D01*
X69139974Y-133344802D01*
X69037650Y-133191663D01*
X68907416Y-133061429D01*
X68754277Y-132959105D01*
X68584117Y-132888623D01*
X68403477Y-132852691D01*
X68219299Y-132852691D01*
X68038659Y-132888623D01*
X67868499Y-132959105D01*
X67754885Y-133035020D01*
X67635218Y-132955061D01*
X67465058Y-132884579D01*
X67284418Y-132848647D01*
X67100240Y-132848647D01*
X66919600Y-132884579D01*
X66749440Y-132955061D01*
X66596301Y-133057385D01*
X66466067Y-133187619D01*
X66363743Y-133340758D01*
X66293261Y-133510918D01*
X66257329Y-133691558D01*
X66257329Y-133869167D01*
X66192089Y-133856190D01*
X66007911Y-133856190D01*
X65827271Y-133892122D01*
X65657111Y-133962604D01*
X65503972Y-134064928D01*
X65373738Y-134195162D01*
X65282694Y-134331420D01*
X65192889Y-134271414D01*
X65022729Y-134200932D01*
X64842089Y-134165000D01*
X64657911Y-134165000D01*
X64477271Y-134200932D01*
X64307111Y-134271414D01*
X64153972Y-134373738D01*
X64023738Y-134503972D01*
X63921414Y-134657111D01*
X63850932Y-134827271D01*
X63815000Y-135007911D01*
X63815000Y-135192089D01*
X63850932Y-135372729D01*
X63921414Y-135542889D01*
X64023738Y-135696028D01*
X64035000Y-135707290D01*
X64035001Y-139692709D01*
X63998738Y-139728972D01*
X63896414Y-139882111D01*
X63825932Y-140052271D01*
X63790000Y-140232911D01*
X63790000Y-140417089D01*
X63825932Y-140597729D01*
X63896414Y-140767889D01*
X63998738Y-140921028D01*
X64128972Y-141051262D01*
X64282111Y-141153586D01*
X64452271Y-141224068D01*
X64632911Y-141260000D01*
X64817089Y-141260000D01*
X64997729Y-141224068D01*
X65167889Y-141153586D01*
X65321028Y-141051262D01*
X65451262Y-140921028D01*
X65553586Y-140767889D01*
X65624068Y-140597729D01*
X65660000Y-140417089D01*
X65660000Y-140232911D01*
X65624068Y-140052271D01*
X65553586Y-139882111D01*
X65465000Y-139749532D01*
X65465000Y-139280631D01*
X65607111Y-139375586D01*
X65777271Y-139446068D01*
X65957911Y-139482000D01*
X66142089Y-139482000D01*
X66322729Y-139446068D01*
X66477330Y-139382031D01*
X66477330Y-144207209D01*
X66473871Y-144242329D01*
X66477330Y-144277449D01*
X66487676Y-144382493D01*
X66528560Y-144517271D01*
X66565000Y-144585445D01*
X66565000Y-144642089D01*
X66600932Y-144822729D01*
X66671414Y-144992889D01*
X66773738Y-145146028D01*
X66903972Y-145276262D01*
X67057111Y-145378586D01*
X67227271Y-145449068D01*
X67407911Y-145485000D01*
X67592089Y-145485000D01*
X67772729Y-145449068D01*
X67942889Y-145378586D01*
X68096028Y-145276262D01*
X68226262Y-145146028D01*
X68328586Y-144992889D01*
X68399068Y-144822729D01*
X68435000Y-144642089D01*
X68435000Y-144625729D01*
X68459961Y-144609051D01*
X68590195Y-144478817D01*
X68692519Y-144325678D01*
X68763001Y-144155518D01*
X68798933Y-143974878D01*
X68798933Y-143790700D01*
X68763001Y-143610060D01*
X68692519Y-143439900D01*
X68590195Y-143286761D01*
X68465000Y-143161566D01*
X68465000Y-134952465D01*
X68923403Y-135410869D01*
X68923404Y-148181923D01*
X68916211Y-148173158D01*
X68899068Y-148086976D01*
X68828586Y-147916816D01*
X68726262Y-147763677D01*
X68596028Y-147633443D01*
X68442889Y-147531119D01*
X68272729Y-147460637D01*
X68092089Y-147424705D01*
X67907911Y-147424705D01*
X67727271Y-147460637D01*
X67557111Y-147531119D01*
X67403972Y-147633443D01*
X67273738Y-147763677D01*
X67171414Y-147916816D01*
X67100932Y-148086976D01*
X67065000Y-148267616D01*
X67065000Y-148451794D01*
X67100932Y-148632434D01*
X67171414Y-148802594D01*
X67273738Y-148955733D01*
X67403972Y-149085967D01*
X67515000Y-149160153D01*
X67514999Y-152574844D01*
X66874843Y-153215000D01*
X65108120Y-153215000D01*
X65042889Y-153171414D01*
X64872729Y-153100932D01*
X64692089Y-153065000D01*
X64507911Y-153065000D01*
X64327271Y-153100932D01*
X64157111Y-153171414D01*
X64003972Y-153273738D01*
X63873738Y-153403972D01*
X63771414Y-153557111D01*
X63700932Y-153727271D01*
X63665000Y-153907911D01*
X63665000Y-154092089D01*
X63700932Y-154272729D01*
X63771414Y-154442889D01*
X63873738Y-154596028D01*
X64003972Y-154726262D01*
X64157111Y-154828586D01*
X64327271Y-154899068D01*
X64507911Y-154935000D01*
X64692089Y-154935000D01*
X64872729Y-154899068D01*
X65042889Y-154828586D01*
X65108120Y-154785000D01*
X67161447Y-154785000D01*
X67200000Y-154788797D01*
X67238553Y-154785000D01*
X67238561Y-154785000D01*
X67353887Y-154773641D01*
X67501860Y-154728754D01*
X67638233Y-154655862D01*
X67757764Y-154557764D01*
X67782347Y-154527810D01*
X68827810Y-153482347D01*
X68857763Y-153457765D01*
X68955861Y-153338234D01*
X69028753Y-153201861D01*
X69031273Y-153193553D01*
X69073641Y-153053888D01*
X69081364Y-152975463D01*
X69084999Y-152938562D01*
X69084999Y-152938557D01*
X69088796Y-152900001D01*
X69084999Y-152861445D01*
X69084999Y-150243669D01*
X69195514Y-150317513D01*
X69365674Y-150387995D01*
X69546314Y-150423927D01*
X69730492Y-150423927D01*
X69911132Y-150387995D01*
X70081292Y-150317513D01*
X70234431Y-150215189D01*
X70364665Y-150084955D01*
X70466989Y-149931816D01*
X70537471Y-149761656D01*
X70573403Y-149581016D01*
X70573403Y-149396838D01*
X70537471Y-149216198D01*
X70466989Y-149046038D01*
X70364665Y-148892899D01*
X70353403Y-148881637D01*
X70353403Y-142735000D01*
X70392089Y-142735000D01*
X70572729Y-142699068D01*
X70742889Y-142628586D01*
X70896028Y-142526262D01*
X71026262Y-142396028D01*
X71128586Y-142242889D01*
X71185001Y-142106691D01*
X71185000Y-143989449D01*
X71127271Y-144000932D01*
X70957111Y-144071414D01*
X70803972Y-144173738D01*
X70673738Y-144303972D01*
X70571414Y-144457111D01*
X70500932Y-144627271D01*
X70465000Y-144807911D01*
X70465000Y-144992089D01*
X70500932Y-145172729D01*
X70571414Y-145342889D01*
X70673738Y-145496028D01*
X70685000Y-145507290D01*
X70685001Y-146292709D01*
X70673738Y-146303972D01*
X70571414Y-146457111D01*
X70500932Y-146627271D01*
X70465000Y-146807911D01*
X70465000Y-146992089D01*
X70500932Y-147172729D01*
X70571414Y-147342889D01*
X70673738Y-147496028D01*
X70803972Y-147626262D01*
X70957111Y-147728586D01*
X71127271Y-147799068D01*
X71307911Y-147835000D01*
X71492089Y-147835000D01*
X71672729Y-147799068D01*
X71842889Y-147728586D01*
X71996028Y-147626262D01*
X72126262Y-147496028D01*
X72228586Y-147342889D01*
X72299068Y-147172729D01*
X72335000Y-146992089D01*
X72335000Y-146807911D01*
X72299068Y-146627271D01*
X72228586Y-146457111D01*
X72126262Y-146303972D01*
X72115000Y-146292710D01*
X72115000Y-145617040D01*
X72207111Y-145678586D01*
X72377271Y-145749068D01*
X72557911Y-145785000D01*
X72742089Y-145785000D01*
X72863999Y-145760750D01*
X72863999Y-151648762D01*
X72836111Y-151660314D01*
X72682972Y-151762638D01*
X72552738Y-151892872D01*
X72450414Y-152046011D01*
X72379932Y-152216171D01*
X72344000Y-152396811D01*
X72344000Y-152580989D01*
X72379932Y-152761629D01*
X72450414Y-152931789D01*
X72552738Y-153084928D01*
X72682972Y-153215162D01*
X72836111Y-153317486D01*
X73006271Y-153387968D01*
X73186911Y-153423900D01*
X73371089Y-153423900D01*
X73551729Y-153387968D01*
X73721889Y-153317486D01*
X73875028Y-153215162D01*
X74005262Y-153084928D01*
X74107586Y-152931789D01*
X74178068Y-152761629D01*
X74214000Y-152580989D01*
X74214000Y-152517666D01*
X74242769Y-152463843D01*
X74277686Y-152348736D01*
X74283653Y-152329066D01*
X74284067Y-152324861D01*
X74403949Y-152444743D01*
X74444265Y-152471681D01*
X74444265Y-152597274D01*
X74460137Y-152677066D01*
X74441973Y-152691973D01*
X74419585Y-152719253D01*
X70653839Y-156485000D01*
X63108120Y-156485000D01*
X63196028Y-156426262D01*
X63207290Y-156415000D01*
X68614890Y-156415000D01*
X68650000Y-156418458D01*
X68666553Y-156416828D01*
X68757911Y-156435000D01*
X68942089Y-156435000D01*
X69122729Y-156399068D01*
X69292889Y-156328586D01*
X69446028Y-156226262D01*
X69576262Y-156096028D01*
X69678586Y-155942889D01*
X69749068Y-155772729D01*
X69785000Y-155592089D01*
X69785000Y-155407911D01*
X69749068Y-155227271D01*
X69678586Y-155057111D01*
X69576262Y-154903972D01*
X69446028Y-154773738D01*
X69292889Y-154671414D01*
X69122729Y-154600932D01*
X68942089Y-154565000D01*
X68757911Y-154565000D01*
X68577271Y-154600932D01*
X68407111Y-154671414D01*
X68253972Y-154773738D01*
X68123738Y-154903972D01*
X68069597Y-154985000D01*
X63207290Y-154985000D01*
X63196028Y-154973738D01*
X63042889Y-154871414D01*
X62872729Y-154800932D01*
X62692089Y-154765000D01*
X62507911Y-154765000D01*
X62327271Y-154800932D01*
X62157111Y-154871414D01*
X62003972Y-154973738D01*
X61873738Y-155103972D01*
X61771414Y-155257111D01*
X61700932Y-155427271D01*
X61665000Y-155607911D01*
X61665000Y-155792089D01*
X61700932Y-155972729D01*
X61771414Y-156142889D01*
X61873738Y-156296028D01*
X62003972Y-156426262D01*
X62091880Y-156485000D01*
X60207290Y-156485000D01*
X60196028Y-156473738D01*
X60042889Y-156371414D01*
X59872729Y-156300932D01*
X59692089Y-156265000D01*
X59507911Y-156265000D01*
X59327271Y-156300932D01*
X59157111Y-156371414D01*
X59003972Y-156473738D01*
X58873738Y-156603972D01*
X58771414Y-156757111D01*
X58700932Y-156927271D01*
X58665000Y-157107911D01*
X58665000Y-157292089D01*
X58700932Y-157472729D01*
X58771414Y-157642889D01*
X58873738Y-157796028D01*
X59003972Y-157926262D01*
X59157111Y-158028586D01*
X59327271Y-158099068D01*
X59507911Y-158135000D01*
X59692089Y-158135000D01*
X59872729Y-158099068D01*
X60042889Y-158028586D01*
X60196028Y-157926262D01*
X60207290Y-157915000D01*
X64495400Y-157915000D01*
X64495400Y-158029289D01*
X64531332Y-158209929D01*
X64601814Y-158380089D01*
X64658550Y-158465000D01*
X64507911Y-158465000D01*
X64327271Y-158500932D01*
X64157111Y-158571414D01*
X64003972Y-158673738D01*
X63873738Y-158803972D01*
X63771414Y-158957111D01*
X63700932Y-159127271D01*
X63665000Y-159307911D01*
X63665000Y-159492089D01*
X63700932Y-159672729D01*
X63771414Y-159842889D01*
X63873738Y-159996028D01*
X64003972Y-160126262D01*
X64157111Y-160228586D01*
X64327271Y-160299068D01*
X64507911Y-160335000D01*
X64692089Y-160335000D01*
X64872729Y-160299068D01*
X64949445Y-160267291D01*
X64970377Y-160273641D01*
X65085703Y-160285000D01*
X65085710Y-160285000D01*
X65124263Y-160288797D01*
X65162816Y-160285000D01*
X71171298Y-160285000D01*
X71289352Y-160333899D01*
X71469992Y-160369831D01*
X71654170Y-160369831D01*
X71834810Y-160333899D01*
X72004970Y-160263417D01*
X72158109Y-160161093D01*
X72288343Y-160030859D01*
X72390667Y-159877720D01*
X72461149Y-159707560D01*
X72497081Y-159526920D01*
X72497081Y-159465000D01*
X80451100Y-159465000D01*
X80563962Y-159577862D01*
X80717101Y-159680186D01*
X80887261Y-159750668D01*
X81067901Y-159786600D01*
X81252079Y-159786600D01*
X81432719Y-159750668D01*
X81602879Y-159680186D01*
X81756018Y-159577862D01*
X81886252Y-159447628D01*
X81988576Y-159294489D01*
X82059058Y-159124329D01*
X82062280Y-159108132D01*
X82153111Y-159126200D01*
X82337289Y-159126200D01*
X82517929Y-159090268D01*
X82688089Y-159019786D01*
X82841228Y-158917462D01*
X82971462Y-158787228D01*
X83073786Y-158634089D01*
X83144268Y-158463929D01*
X83180200Y-158283289D01*
X83180200Y-158214999D01*
X83243816Y-158214999D01*
X84469564Y-159440749D01*
X84491949Y-159468025D01*
X84519224Y-159490409D01*
X84519227Y-159490412D01*
X84567970Y-159530414D01*
X84600822Y-159557375D01*
X84725034Y-159623768D01*
X84859812Y-159664652D01*
X84964856Y-159674998D01*
X84964865Y-159674998D01*
X84999975Y-159678456D01*
X85035085Y-159674998D01*
X89399798Y-159674998D01*
X89497562Y-159704654D01*
X89602606Y-159715000D01*
X89602615Y-159715000D01*
X89637725Y-159718458D01*
X89672835Y-159715000D01*
X95511928Y-159715000D01*
X95511928Y-159850000D01*
X95524188Y-159974482D01*
X95560498Y-160094180D01*
X95619463Y-160204494D01*
X95698815Y-160301185D01*
X95795506Y-160380537D01*
X95905820Y-160439502D01*
X95974687Y-160460393D01*
X95944866Y-160484866D01*
X95856561Y-160592466D01*
X95802775Y-160548325D01*
X95678563Y-160481932D01*
X95543785Y-160441048D01*
X95438741Y-160430702D01*
X95438731Y-160430702D01*
X95403621Y-160427244D01*
X95368511Y-160430702D01*
X78367280Y-160430702D01*
X78356018Y-160419440D01*
X78202879Y-160317116D01*
X78032719Y-160246634D01*
X77852079Y-160210702D01*
X77667901Y-160210702D01*
X77487261Y-160246634D01*
X77317101Y-160317116D01*
X77163962Y-160419440D01*
X77033728Y-160549674D01*
X76931404Y-160702813D01*
X76860922Y-160872973D01*
X76824990Y-161053613D01*
X76824990Y-161237791D01*
X76860922Y-161418431D01*
X76931404Y-161588591D01*
X76966957Y-161641800D01*
X71270090Y-161641800D01*
X71208028Y-161579738D01*
X71054889Y-161477414D01*
X70884729Y-161406932D01*
X70704089Y-161371000D01*
X70519911Y-161371000D01*
X70339271Y-161406932D01*
X70169111Y-161477414D01*
X70015972Y-161579738D01*
X69885738Y-161709972D01*
X69783414Y-161863111D01*
X69712932Y-162033271D01*
X69677000Y-162213911D01*
X69677000Y-162302200D01*
X66458331Y-162302200D01*
X66533689Y-162270986D01*
X66686828Y-162168662D01*
X66817062Y-162038428D01*
X66919386Y-161885289D01*
X66989868Y-161715129D01*
X67025800Y-161534489D01*
X67025800Y-161350311D01*
X66989868Y-161169671D01*
X66919386Y-160999511D01*
X66817062Y-160846372D01*
X66686828Y-160716138D01*
X66533689Y-160613814D01*
X66363529Y-160543332D01*
X66182889Y-160507400D01*
X65998711Y-160507400D01*
X65818071Y-160543332D01*
X65647911Y-160613814D01*
X65629973Y-160625800D01*
X65107290Y-160625800D01*
X65096028Y-160614538D01*
X64942889Y-160512214D01*
X64772729Y-160441732D01*
X64592089Y-160405800D01*
X64407911Y-160405800D01*
X64227271Y-160441732D01*
X64057111Y-160512214D01*
X63903972Y-160614538D01*
X63773738Y-160744772D01*
X63671414Y-160897911D01*
X63600932Y-161068071D01*
X63565000Y-161248711D01*
X63565000Y-161432889D01*
X63600932Y-161613529D01*
X63671414Y-161783689D01*
X63773738Y-161936828D01*
X63903972Y-162067062D01*
X64057111Y-162169386D01*
X64227271Y-162239868D01*
X64407911Y-162275800D01*
X64592089Y-162275800D01*
X64772729Y-162239868D01*
X64942889Y-162169386D01*
X65096028Y-162067062D01*
X65107290Y-162055800D01*
X65381910Y-162055800D01*
X65410489Y-162084379D01*
X65327271Y-162100932D01*
X65157111Y-162171414D01*
X65003972Y-162273738D01*
X64873738Y-162403972D01*
X64771414Y-162557111D01*
X64700932Y-162727271D01*
X64665000Y-162907911D01*
X64665000Y-163092089D01*
X64700932Y-163272729D01*
X64771414Y-163442889D01*
X64873738Y-163596028D01*
X65003972Y-163726262D01*
X65157111Y-163828586D01*
X65327271Y-163899068D01*
X65507911Y-163935000D01*
X65692089Y-163935000D01*
X65872729Y-163899068D01*
X66042889Y-163828586D01*
X66187141Y-163732200D01*
X68865000Y-163732200D01*
X68865000Y-163892089D01*
X68900932Y-164072729D01*
X68971414Y-164242889D01*
X69066369Y-164385000D01*
X68628490Y-164385000D01*
X68617228Y-164373738D01*
X68464089Y-164271414D01*
X68293929Y-164200932D01*
X68113289Y-164165000D01*
X67929111Y-164165000D01*
X67748471Y-164200932D01*
X67578311Y-164271414D01*
X67425172Y-164373738D01*
X67294938Y-164503972D01*
X67267743Y-164544672D01*
X67172662Y-164402372D01*
X67042428Y-164272138D01*
X66889289Y-164169814D01*
X66719129Y-164099332D01*
X66538489Y-164063400D01*
X66354311Y-164063400D01*
X66173671Y-164099332D01*
X66003511Y-164169814D01*
X65938280Y-164213400D01*
X63156639Y-164213400D01*
X63140394Y-164215000D01*
X61008120Y-164215000D01*
X60942889Y-164171414D01*
X60772729Y-164100932D01*
X60592089Y-164065000D01*
X60407911Y-164065000D01*
X60227271Y-164100932D01*
X60057111Y-164171414D01*
X59903972Y-164273738D01*
X59773738Y-164403972D01*
X59671414Y-164557111D01*
X59600932Y-164727271D01*
X59565000Y-164907911D01*
X59565000Y-165092089D01*
X59600932Y-165272729D01*
X59671414Y-165442889D01*
X59773738Y-165596028D01*
X59903972Y-165726262D01*
X60057111Y-165828586D01*
X60227271Y-165899068D01*
X60407911Y-165935000D01*
X60592089Y-165935000D01*
X60772729Y-165899068D01*
X60942889Y-165828586D01*
X61008120Y-165785000D01*
X63232161Y-165785000D01*
X63248406Y-165783400D01*
X65577680Y-165783400D01*
X65527388Y-165904817D01*
X65491456Y-166085457D01*
X65491456Y-166269635D01*
X65527388Y-166450275D01*
X65597870Y-166620435D01*
X65700194Y-166773574D01*
X65830428Y-166903808D01*
X65869529Y-166929934D01*
X65803972Y-166973738D01*
X65673738Y-167103972D01*
X65571414Y-167257111D01*
X65500932Y-167427271D01*
X65465000Y-167607911D01*
X65465000Y-167792089D01*
X65500932Y-167972729D01*
X65571414Y-168142889D01*
X65673738Y-168296028D01*
X65803972Y-168426262D01*
X65957111Y-168528586D01*
X66127271Y-168599068D01*
X66307911Y-168635000D01*
X66492089Y-168635000D01*
X66672729Y-168599068D01*
X66842889Y-168528586D01*
X66996028Y-168426262D01*
X67007290Y-168415000D01*
X71392710Y-168415000D01*
X71503972Y-168526262D01*
X71657111Y-168628586D01*
X71827271Y-168699068D01*
X72007911Y-168735000D01*
X72192089Y-168735000D01*
X72372729Y-168699068D01*
X72542889Y-168628586D01*
X72696028Y-168526262D01*
X72826262Y-168396028D01*
X72928586Y-168242889D01*
X72999068Y-168072729D01*
X73035000Y-167892089D01*
X73035000Y-167876162D01*
X73096162Y-167815000D01*
X73182577Y-167815000D01*
X73160922Y-167867281D01*
X73124990Y-168047921D01*
X73124990Y-168232099D01*
X73160922Y-168412739D01*
X73231404Y-168582899D01*
X73333728Y-168736038D01*
X73463962Y-168866272D01*
X73617101Y-168968596D01*
X73787261Y-169039078D01*
X73914151Y-169064318D01*
X73917652Y-169067819D01*
X73942235Y-169097773D01*
X74061766Y-169195871D01*
X74198139Y-169268763D01*
X74311671Y-169303203D01*
X74346111Y-169313650D01*
X74360489Y-169315066D01*
X74461438Y-169325009D01*
X74461445Y-169325009D01*
X74499998Y-169328806D01*
X74538551Y-169325009D01*
X77842648Y-169325009D01*
X77881201Y-169328806D01*
X77919754Y-169325009D01*
X77919762Y-169325009D01*
X78035088Y-169313650D01*
X78183061Y-169268763D01*
X78319434Y-169195871D01*
X78367747Y-169156221D01*
X78453929Y-169139078D01*
X78619006Y-169070702D01*
X78650455Y-169073799D01*
X78689008Y-169070002D01*
X83529249Y-169070002D01*
X83567802Y-169073799D01*
X83606355Y-169070002D01*
X83606363Y-169070002D01*
X83721689Y-169058643D01*
X83869662Y-169013756D01*
X84006035Y-168940864D01*
X84015617Y-168933000D01*
X90714056Y-168933000D01*
X90857111Y-169028586D01*
X91027271Y-169099068D01*
X91207911Y-169135000D01*
X91392089Y-169135000D01*
X91572729Y-169099068D01*
X91742889Y-169028586D01*
X91896028Y-168926262D01*
X92026262Y-168796028D01*
X92128586Y-168642889D01*
X92199068Y-168472729D01*
X92235000Y-168292089D01*
X92235000Y-168107911D01*
X92199068Y-167927271D01*
X92152564Y-167815000D01*
X93636778Y-167815000D01*
X93657111Y-167828586D01*
X93827271Y-167899068D01*
X94007911Y-167935000D01*
X94192089Y-167935000D01*
X94372729Y-167899068D01*
X94542889Y-167828586D01*
X94696028Y-167726262D01*
X94826262Y-167596028D01*
X94928586Y-167442889D01*
X94999068Y-167272729D01*
X95035000Y-167092089D01*
X95035000Y-166976890D01*
X95558524Y-166976890D01*
X95603175Y-167124099D01*
X95728359Y-167386920D01*
X95902412Y-167620269D01*
X96118645Y-167815178D01*
X96368748Y-167964157D01*
X96643109Y-168061481D01*
X96873000Y-167940814D01*
X96873000Y-166747000D01*
X97127000Y-166747000D01*
X97127000Y-167940814D01*
X97356891Y-168061481D01*
X97631252Y-167964157D01*
X97881355Y-167815178D01*
X98097588Y-167620269D01*
X98271641Y-167386920D01*
X98396825Y-167124099D01*
X98441476Y-166976890D01*
X98320155Y-166747000D01*
X97127000Y-166747000D01*
X96873000Y-166747000D01*
X95679845Y-166747000D01*
X95558524Y-166976890D01*
X95035000Y-166976890D01*
X95035000Y-166907911D01*
X94999068Y-166727271D01*
X94928586Y-166557111D01*
X94826262Y-166403972D01*
X94696028Y-166273738D01*
X94542889Y-166171414D01*
X94372729Y-166100932D01*
X94192089Y-166065000D01*
X94007911Y-166065000D01*
X93827271Y-166100932D01*
X93657111Y-166171414D01*
X93503972Y-166273738D01*
X93392710Y-166385000D01*
X78137290Y-166385000D01*
X78226262Y-166296028D01*
X78328586Y-166142889D01*
X78399068Y-165972729D01*
X78430443Y-165815000D01*
X85207290Y-165815000D01*
X85242400Y-165818458D01*
X85277510Y-165815000D01*
X85277520Y-165815000D01*
X85382564Y-165804654D01*
X85517342Y-165763770D01*
X85641554Y-165697377D01*
X85750427Y-165608027D01*
X85772820Y-165580741D01*
X87010193Y-164343370D01*
X87107689Y-164302986D01*
X87260828Y-164200662D01*
X87391062Y-164070428D01*
X87493386Y-163917289D01*
X87563868Y-163747129D01*
X87599800Y-163566489D01*
X87599800Y-163382311D01*
X87563868Y-163201671D01*
X87493386Y-163031511D01*
X87391062Y-162878372D01*
X87260828Y-162748138D01*
X87136403Y-162665000D01*
X90392710Y-162665000D01*
X90403972Y-162676262D01*
X90557111Y-162778586D01*
X90727271Y-162849068D01*
X90907911Y-162885000D01*
X91092089Y-162885000D01*
X91272729Y-162849068D01*
X91442889Y-162778586D01*
X91596028Y-162676262D01*
X91726262Y-162546028D01*
X91828586Y-162392889D01*
X91899068Y-162222729D01*
X91935000Y-162042089D01*
X91935000Y-161860702D01*
X95107459Y-161860702D01*
X95267503Y-162020745D01*
X95289892Y-162048027D01*
X95398765Y-162137377D01*
X95522977Y-162203770D01*
X95592773Y-162224942D01*
X95657754Y-162244654D01*
X95669867Y-162245847D01*
X95694771Y-162248300D01*
X95759294Y-162369014D01*
X95944866Y-162595134D01*
X96170986Y-162780706D01*
X96225791Y-162810000D01*
X96170986Y-162839294D01*
X95944866Y-163024866D01*
X95759294Y-163250986D01*
X95621401Y-163508966D01*
X95536487Y-163788889D01*
X95507815Y-164080000D01*
X95536487Y-164371111D01*
X95621401Y-164651034D01*
X95759294Y-164909014D01*
X95944866Y-165135134D01*
X96170986Y-165320706D01*
X96235523Y-165355201D01*
X96118645Y-165424822D01*
X95902412Y-165619731D01*
X95728359Y-165853080D01*
X95603175Y-166115901D01*
X95558524Y-166263110D01*
X95679845Y-166493000D01*
X96873000Y-166493000D01*
X96873000Y-166473000D01*
X97127000Y-166473000D01*
X97127000Y-166493000D01*
X98320155Y-166493000D01*
X98441476Y-166263110D01*
X98396825Y-166115901D01*
X98271641Y-165853080D01*
X98097588Y-165619731D01*
X97881355Y-165424822D01*
X97764477Y-165355201D01*
X97829014Y-165320706D01*
X98055134Y-165135134D01*
X98240706Y-164909014D01*
X98378599Y-164651034D01*
X98463513Y-164371111D01*
X98492185Y-164080000D01*
X98463513Y-163788889D01*
X98378599Y-163508966D01*
X98240706Y-163250986D01*
X98055134Y-163024866D01*
X97829014Y-162839294D01*
X97774209Y-162810000D01*
X97829014Y-162780706D01*
X98055134Y-162595134D01*
X98240706Y-162369014D01*
X98378599Y-162111034D01*
X98463513Y-161831111D01*
X98492185Y-161540000D01*
X98463513Y-161248889D01*
X98378599Y-160968966D01*
X98240706Y-160710986D01*
X98055134Y-160484866D01*
X98025313Y-160460393D01*
X98094180Y-160439502D01*
X98204494Y-160380537D01*
X98301185Y-160301185D01*
X98380537Y-160204494D01*
X98439502Y-160094180D01*
X98475812Y-159974482D01*
X98488072Y-159850000D01*
X98488072Y-158150000D01*
X98475812Y-158025518D01*
X98439502Y-157905820D01*
X98390957Y-157815000D01*
X98464890Y-157815000D01*
X98500000Y-157818458D01*
X98516553Y-157816828D01*
X98607911Y-157835000D01*
X98792089Y-157835000D01*
X98873000Y-157818906D01*
X98873000Y-186213059D01*
X98579003Y-186091282D01*
X98195505Y-186015000D01*
X97804495Y-186015000D01*
X97420997Y-186091282D01*
X97059750Y-186240915D01*
X96734636Y-186458149D01*
X96458149Y-186734636D01*
X96240915Y-187059750D01*
X96091282Y-187420997D01*
X96015000Y-187804495D01*
X96015000Y-188195505D01*
X96091282Y-188579003D01*
X96213059Y-188873000D01*
X58786941Y-188873000D01*
X58908718Y-188579003D01*
X58985000Y-188195505D01*
X58985000Y-187804495D01*
X58908718Y-187420997D01*
X58759085Y-187059750D01*
X58541851Y-186734636D01*
X58265364Y-186458149D01*
X57940250Y-186240915D01*
X57579003Y-186091282D01*
X57195505Y-186015000D01*
X56804495Y-186015000D01*
X56420997Y-186091282D01*
X56127000Y-186213059D01*
X56127000Y-183556890D01*
X95558524Y-183556890D01*
X95603175Y-183704099D01*
X95728359Y-183966920D01*
X95902412Y-184200269D01*
X96118645Y-184395178D01*
X96368748Y-184544157D01*
X96643109Y-184641481D01*
X96873000Y-184520814D01*
X96873000Y-183327000D01*
X97127000Y-183327000D01*
X97127000Y-184520814D01*
X97356891Y-184641481D01*
X97631252Y-184544157D01*
X97881355Y-184395178D01*
X98097588Y-184200269D01*
X98271641Y-183966920D01*
X98396825Y-183704099D01*
X98441476Y-183556890D01*
X98320155Y-183327000D01*
X97127000Y-183327000D01*
X96873000Y-183327000D01*
X95679845Y-183327000D01*
X95558524Y-183556890D01*
X56127000Y-183556890D01*
X56127000Y-178500000D01*
X73561928Y-178500000D01*
X73574188Y-178624482D01*
X73610498Y-178744180D01*
X73669463Y-178854494D01*
X73748815Y-178951185D01*
X73845506Y-179030537D01*
X73955820Y-179089502D01*
X74075518Y-179125812D01*
X74200000Y-179138072D01*
X75314250Y-179135000D01*
X75473000Y-178976250D01*
X75473000Y-178127000D01*
X75727000Y-178127000D01*
X75727000Y-178976250D01*
X75885750Y-179135000D01*
X77000000Y-179138072D01*
X77124482Y-179125812D01*
X77244180Y-179089502D01*
X77354494Y-179030537D01*
X77451185Y-178951185D01*
X77530537Y-178854494D01*
X77589502Y-178744180D01*
X77625812Y-178624482D01*
X77638072Y-178500000D01*
X79361928Y-178500000D01*
X79374188Y-178624482D01*
X79410498Y-178744180D01*
X79469463Y-178854494D01*
X79548815Y-178951185D01*
X79645506Y-179030537D01*
X79755820Y-179089502D01*
X79875518Y-179125812D01*
X80000000Y-179138072D01*
X81114250Y-179135000D01*
X81273000Y-178976250D01*
X81273000Y-178127000D01*
X79523750Y-178127000D01*
X79365000Y-178285750D01*
X79361928Y-178500000D01*
X77638072Y-178500000D01*
X77635000Y-178285750D01*
X77476250Y-178127000D01*
X75727000Y-178127000D01*
X75473000Y-178127000D01*
X73723750Y-178127000D01*
X73565000Y-178285750D01*
X73561928Y-178500000D01*
X56127000Y-178500000D01*
X56127000Y-177500000D01*
X73561928Y-177500000D01*
X73565000Y-177714250D01*
X73723750Y-177873000D01*
X75473000Y-177873000D01*
X75473000Y-177023750D01*
X75727000Y-177023750D01*
X75727000Y-177873000D01*
X77476250Y-177873000D01*
X77635000Y-177714250D01*
X77638072Y-177500000D01*
X79361928Y-177500000D01*
X79365000Y-177714250D01*
X79523750Y-177873000D01*
X81273000Y-177873000D01*
X81273000Y-177023750D01*
X81114250Y-176865000D01*
X80000000Y-176861928D01*
X79875518Y-176874188D01*
X79755820Y-176910498D01*
X79645506Y-176969463D01*
X79548815Y-177048815D01*
X79469463Y-177145506D01*
X79410498Y-177255820D01*
X79374188Y-177375518D01*
X79361928Y-177500000D01*
X77638072Y-177500000D01*
X77625812Y-177375518D01*
X77589502Y-177255820D01*
X77530537Y-177145506D01*
X77451185Y-177048815D01*
X77354494Y-176969463D01*
X77244180Y-176910498D01*
X77124482Y-176874188D01*
X77000000Y-176861928D01*
X75885750Y-176865000D01*
X75727000Y-177023750D01*
X75473000Y-177023750D01*
X75314250Y-176865000D01*
X74200000Y-176861928D01*
X74075518Y-176874188D01*
X73955820Y-176910498D01*
X73845506Y-176969463D01*
X73748815Y-177048815D01*
X73669463Y-177145506D01*
X73610498Y-177255820D01*
X73574188Y-177375518D01*
X73561928Y-177500000D01*
X56127000Y-177500000D01*
X56127000Y-170482911D01*
X67540000Y-170482911D01*
X67540000Y-170667089D01*
X67575932Y-170847729D01*
X67646414Y-171017889D01*
X67748738Y-171171028D01*
X67878972Y-171301262D01*
X68032111Y-171403586D01*
X68202271Y-171474068D01*
X68382911Y-171510000D01*
X68567089Y-171510000D01*
X68747729Y-171474068D01*
X68917889Y-171403586D01*
X69033855Y-171326100D01*
X75950780Y-171326100D01*
X76016011Y-171369686D01*
X76186171Y-171440168D01*
X76366811Y-171476100D01*
X76550989Y-171476100D01*
X76731629Y-171440168D01*
X76901789Y-171369686D01*
X76991116Y-171310000D01*
X82810464Y-171310000D01*
X82795347Y-171359836D01*
X82781542Y-171500000D01*
X82785001Y-171535120D01*
X82785000Y-176861969D01*
X81685750Y-176865000D01*
X81527000Y-177023750D01*
X81527000Y-177873000D01*
X81547000Y-177873000D01*
X81547000Y-178127000D01*
X81527000Y-178127000D01*
X81527000Y-178976250D01*
X81685750Y-179135000D01*
X82785000Y-179138031D01*
X82785000Y-180503838D01*
X82426910Y-180861928D01*
X80000000Y-180861928D01*
X79875518Y-180874188D01*
X79755820Y-180910498D01*
X79645506Y-180969463D01*
X79548815Y-181048815D01*
X79469463Y-181145506D01*
X79410498Y-181255820D01*
X79401646Y-181285000D01*
X77598354Y-181285000D01*
X77589502Y-181255820D01*
X77530537Y-181145506D01*
X77451185Y-181048815D01*
X77354494Y-180969463D01*
X77244180Y-180910498D01*
X77124482Y-180874188D01*
X77000000Y-180861928D01*
X74200000Y-180861928D01*
X74075518Y-180874188D01*
X73955820Y-180910498D01*
X73845506Y-180969463D01*
X73748815Y-181048815D01*
X73669463Y-181145506D01*
X73610498Y-181255820D01*
X73574188Y-181375518D01*
X73561928Y-181500000D01*
X73561928Y-182500000D01*
X73574188Y-182624482D01*
X73610498Y-182744180D01*
X73669463Y-182854494D01*
X73748815Y-182951185D01*
X73845506Y-183030537D01*
X73955820Y-183089502D01*
X74075518Y-183125812D01*
X74200000Y-183138072D01*
X77000000Y-183138072D01*
X77124482Y-183125812D01*
X77244180Y-183089502D01*
X77354494Y-183030537D01*
X77451185Y-182951185D01*
X77530537Y-182854494D01*
X77589502Y-182744180D01*
X77598354Y-182715000D01*
X79401646Y-182715000D01*
X79410498Y-182744180D01*
X79469463Y-182854494D01*
X79548815Y-182951185D01*
X79645506Y-183030537D01*
X79755820Y-183089502D01*
X79875518Y-183125812D01*
X80000000Y-183138072D01*
X82800000Y-183138072D01*
X82924482Y-183125812D01*
X83044180Y-183089502D01*
X83154494Y-183030537D01*
X83251185Y-182951185D01*
X83330537Y-182854494D01*
X83389502Y-182744180D01*
X83425812Y-182624482D01*
X83438072Y-182500000D01*
X83438072Y-181873090D01*
X83980750Y-181330412D01*
X84008026Y-181308027D01*
X84097377Y-181199154D01*
X84163770Y-181074942D01*
X84204654Y-180940164D01*
X84215000Y-180835120D01*
X84215000Y-180835111D01*
X84218458Y-180800001D01*
X84215000Y-180764891D01*
X84215000Y-172015000D01*
X95154890Y-172015000D01*
X95190000Y-172018458D01*
X95225110Y-172015000D01*
X95225120Y-172015000D01*
X95330164Y-172004654D01*
X95464942Y-171963770D01*
X95589154Y-171897377D01*
X95698027Y-171808027D01*
X95701699Y-171803552D01*
X95795506Y-171880537D01*
X95905820Y-171939502D01*
X95974687Y-171960393D01*
X95944866Y-171984866D01*
X95759294Y-172210986D01*
X95621401Y-172468966D01*
X95536487Y-172748889D01*
X95507815Y-173040000D01*
X95536487Y-173331111D01*
X95621401Y-173611034D01*
X95759294Y-173869014D01*
X95944866Y-174095134D01*
X96170986Y-174280706D01*
X96225791Y-174310000D01*
X96170986Y-174339294D01*
X95944866Y-174524866D01*
X95759294Y-174750986D01*
X95621401Y-175008966D01*
X95536487Y-175288889D01*
X95507815Y-175580000D01*
X95536487Y-175871111D01*
X95621401Y-176151034D01*
X95759294Y-176409014D01*
X95944866Y-176635134D01*
X96170986Y-176820706D01*
X96225791Y-176850000D01*
X96170986Y-176879294D01*
X95944866Y-177064866D01*
X95759294Y-177290986D01*
X95621401Y-177548966D01*
X95536487Y-177828889D01*
X95507815Y-178120000D01*
X95536487Y-178411111D01*
X95621401Y-178691034D01*
X95759294Y-178949014D01*
X95944866Y-179175134D01*
X96170986Y-179360706D01*
X96225791Y-179390000D01*
X96170986Y-179419294D01*
X95944866Y-179604866D01*
X95759294Y-179830986D01*
X95621401Y-180088966D01*
X95536487Y-180368889D01*
X95507815Y-180660000D01*
X95536487Y-180951111D01*
X95621401Y-181231034D01*
X95759294Y-181489014D01*
X95944866Y-181715134D01*
X96170986Y-181900706D01*
X96235523Y-181935201D01*
X96118645Y-182004822D01*
X95902412Y-182199731D01*
X95728359Y-182433080D01*
X95603175Y-182695901D01*
X95558524Y-182843110D01*
X95679845Y-183073000D01*
X96873000Y-183073000D01*
X96873000Y-183053000D01*
X97127000Y-183053000D01*
X97127000Y-183073000D01*
X98320155Y-183073000D01*
X98441476Y-182843110D01*
X98396825Y-182695901D01*
X98271641Y-182433080D01*
X98097588Y-182199731D01*
X97881355Y-182004822D01*
X97764477Y-181935201D01*
X97829014Y-181900706D01*
X98055134Y-181715134D01*
X98240706Y-181489014D01*
X98378599Y-181231034D01*
X98463513Y-180951111D01*
X98492185Y-180660000D01*
X98463513Y-180368889D01*
X98378599Y-180088966D01*
X98240706Y-179830986D01*
X98055134Y-179604866D01*
X97829014Y-179419294D01*
X97774209Y-179390000D01*
X97829014Y-179360706D01*
X98055134Y-179175134D01*
X98240706Y-178949014D01*
X98378599Y-178691034D01*
X98463513Y-178411111D01*
X98492185Y-178120000D01*
X98463513Y-177828889D01*
X98378599Y-177548966D01*
X98240706Y-177290986D01*
X98055134Y-177064866D01*
X97829014Y-176879294D01*
X97774209Y-176850000D01*
X97829014Y-176820706D01*
X98055134Y-176635134D01*
X98240706Y-176409014D01*
X98378599Y-176151034D01*
X98463513Y-175871111D01*
X98492185Y-175580000D01*
X98463513Y-175288889D01*
X98378599Y-175008966D01*
X98240706Y-174750986D01*
X98055134Y-174524866D01*
X97829014Y-174339294D01*
X97774209Y-174310000D01*
X97829014Y-174280706D01*
X98055134Y-174095134D01*
X98240706Y-173869014D01*
X98378599Y-173611034D01*
X98463513Y-173331111D01*
X98492185Y-173040000D01*
X98463513Y-172748889D01*
X98378599Y-172468966D01*
X98240706Y-172210986D01*
X98055134Y-171984866D01*
X98025313Y-171960393D01*
X98094180Y-171939502D01*
X98204494Y-171880537D01*
X98301185Y-171801185D01*
X98380537Y-171704494D01*
X98439502Y-171594180D01*
X98475812Y-171474482D01*
X98488072Y-171350000D01*
X98488072Y-169650000D01*
X98475812Y-169525518D01*
X98439502Y-169405820D01*
X98380537Y-169295506D01*
X98301185Y-169198815D01*
X98204494Y-169119463D01*
X98094180Y-169060498D01*
X97974482Y-169024188D01*
X97850000Y-169011928D01*
X96150000Y-169011928D01*
X96025518Y-169024188D01*
X95905820Y-169060498D01*
X95795506Y-169119463D01*
X95698815Y-169198815D01*
X95619463Y-169295506D01*
X95560498Y-169405820D01*
X95524188Y-169525518D01*
X95511928Y-169650000D01*
X95511928Y-169967389D01*
X95509252Y-169969585D01*
X95509248Y-169969589D01*
X95481973Y-169991973D01*
X95459588Y-170019249D01*
X94893838Y-170585000D01*
X86410000Y-170585000D01*
X86410000Y-170432911D01*
X86374068Y-170252271D01*
X86303586Y-170082111D01*
X86201262Y-169928972D01*
X86071028Y-169798738D01*
X85917889Y-169696414D01*
X85747729Y-169625932D01*
X85567089Y-169590000D01*
X85382911Y-169590000D01*
X85202271Y-169625932D01*
X85032111Y-169696414D01*
X84966880Y-169740000D01*
X76942925Y-169740000D01*
X76901789Y-169712514D01*
X76731629Y-169642032D01*
X76550989Y-169606100D01*
X76366811Y-169606100D01*
X76186171Y-169642032D01*
X76016011Y-169712514D01*
X75950780Y-169756100D01*
X68932385Y-169756100D01*
X68917889Y-169746414D01*
X68747729Y-169675932D01*
X68567089Y-169640000D01*
X68382911Y-169640000D01*
X68202271Y-169675932D01*
X68032111Y-169746414D01*
X67878972Y-169848738D01*
X67748738Y-169978972D01*
X67646414Y-170132111D01*
X67575932Y-170302271D01*
X67540000Y-170482911D01*
X56127000Y-170482911D01*
X56127000Y-123786941D01*
X56420997Y-123908718D01*
X56804495Y-123985000D01*
X57195505Y-123985000D01*
X57579003Y-123908718D01*
X57940250Y-123759085D01*
X58265364Y-123541851D01*
X58541851Y-123265364D01*
X58759085Y-122940250D01*
X58908718Y-122579003D01*
X58985000Y-122195505D01*
X58985000Y-121804495D01*
X58908718Y-121420997D01*
X58786941Y-121127000D01*
X96213059Y-121127000D01*
X96091282Y-121420997D01*
G36*
X80765000Y-162042089D02*
G01*
X80800932Y-162222729D01*
X80871414Y-162392889D01*
X80973738Y-162546028D01*
X81103972Y-162676262D01*
X81257111Y-162778586D01*
X81427271Y-162849068D01*
X81607911Y-162885000D01*
X81792089Y-162885000D01*
X81972729Y-162849068D01*
X82142889Y-162778586D01*
X82296028Y-162676262D01*
X82307290Y-162665000D01*
X86193197Y-162665000D01*
X86068772Y-162748138D01*
X85938538Y-162878372D01*
X85836214Y-163031511D01*
X85765732Y-163201671D01*
X85729800Y-163382311D01*
X85729800Y-163566489D01*
X85735598Y-163595639D01*
X84946239Y-164385000D01*
X80929690Y-164385000D01*
X80939462Y-164375228D01*
X81041786Y-164222089D01*
X81112268Y-164051929D01*
X81148200Y-163871289D01*
X81148200Y-163687111D01*
X81112268Y-163506471D01*
X81041786Y-163336311D01*
X80939462Y-163183172D01*
X80809228Y-163052938D01*
X80656089Y-162950614D01*
X80485929Y-162880132D01*
X80478561Y-162878666D01*
X80451868Y-162744471D01*
X80381386Y-162574311D01*
X80279062Y-162421172D01*
X80148828Y-162290938D01*
X79995689Y-162188614D01*
X79825529Y-162118132D01*
X79797119Y-162112481D01*
X79791468Y-162084071D01*
X79720986Y-161913911D01*
X79685433Y-161860702D01*
X80765000Y-161860702D01*
X80765000Y-162042089D01*
X80765000Y-162042089D01*
G37*
X80765000Y-162042089D02*
X80800932Y-162222729D01*
X80871414Y-162392889D01*
X80973738Y-162546028D01*
X81103972Y-162676262D01*
X81257111Y-162778586D01*
X81427271Y-162849068D01*
X81607911Y-162885000D01*
X81792089Y-162885000D01*
X81972729Y-162849068D01*
X82142889Y-162778586D01*
X82296028Y-162676262D01*
X82307290Y-162665000D01*
X86193197Y-162665000D01*
X86068772Y-162748138D01*
X85938538Y-162878372D01*
X85836214Y-163031511D01*
X85765732Y-163201671D01*
X85729800Y-163382311D01*
X85729800Y-163566489D01*
X85735598Y-163595639D01*
X84946239Y-164385000D01*
X80929690Y-164385000D01*
X80939462Y-164375228D01*
X81041786Y-164222089D01*
X81112268Y-164051929D01*
X81148200Y-163871289D01*
X81148200Y-163687111D01*
X81112268Y-163506471D01*
X81041786Y-163336311D01*
X80939462Y-163183172D01*
X80809228Y-163052938D01*
X80656089Y-162950614D01*
X80485929Y-162880132D01*
X80478561Y-162878666D01*
X80451868Y-162744471D01*
X80381386Y-162574311D01*
X80279062Y-162421172D01*
X80148828Y-162290938D01*
X79995689Y-162188614D01*
X79825529Y-162118132D01*
X79797119Y-162112481D01*
X79791468Y-162084071D01*
X79720986Y-161913911D01*
X79685433Y-161860702D01*
X80765000Y-161860702D01*
X80765000Y-162042089D01*
G36*
X93569584Y-157580746D02*
G01*
X93591973Y-157608027D01*
X93700846Y-157697377D01*
X93825058Y-157763770D01*
X93959836Y-157804654D01*
X94064880Y-157815000D01*
X94064889Y-157815000D01*
X94099999Y-157818458D01*
X94135109Y-157815000D01*
X95609043Y-157815000D01*
X95560498Y-157905820D01*
X95524188Y-158025518D01*
X95511928Y-158150000D01*
X95511928Y-158285000D01*
X89835652Y-158285000D01*
X89737888Y-158255344D01*
X89632844Y-158244998D01*
X89632834Y-158244998D01*
X89597724Y-158241540D01*
X89562614Y-158244998D01*
X85296139Y-158244998D01*
X85144495Y-158093355D01*
X85279628Y-158003062D01*
X85290890Y-157991800D01*
X85417708Y-157991800D01*
X85428970Y-158003062D01*
X85582109Y-158105386D01*
X85752269Y-158175868D01*
X85932909Y-158211800D01*
X86117087Y-158211800D01*
X86297727Y-158175868D01*
X86467887Y-158105386D01*
X86621026Y-158003062D01*
X86751260Y-157872828D01*
X86853584Y-157719689D01*
X86924066Y-157549529D01*
X86959998Y-157368889D01*
X86959998Y-157184711D01*
X86924066Y-157004071D01*
X86887172Y-156915000D01*
X92903839Y-156915000D01*
X93569584Y-157580746D01*
X93569584Y-157580746D01*
G37*
X93569584Y-157580746D02*
X93591973Y-157608027D01*
X93700846Y-157697377D01*
X93825058Y-157763770D01*
X93959836Y-157804654D01*
X94064880Y-157815000D01*
X94064889Y-157815000D01*
X94099999Y-157818458D01*
X94135109Y-157815000D01*
X95609043Y-157815000D01*
X95560498Y-157905820D01*
X95524188Y-158025518D01*
X95511928Y-158150000D01*
X95511928Y-158285000D01*
X89835652Y-158285000D01*
X89737888Y-158255344D01*
X89632844Y-158244998D01*
X89632834Y-158244998D01*
X89597724Y-158241540D01*
X89562614Y-158244998D01*
X85296139Y-158244998D01*
X85144495Y-158093355D01*
X85279628Y-158003062D01*
X85290890Y-157991800D01*
X85417708Y-157991800D01*
X85428970Y-158003062D01*
X85582109Y-158105386D01*
X85752269Y-158175868D01*
X85932909Y-158211800D01*
X86117087Y-158211800D01*
X86297727Y-158175868D01*
X86467887Y-158105386D01*
X86621026Y-158003062D01*
X86751260Y-157872828D01*
X86853584Y-157719689D01*
X86924066Y-157549529D01*
X86959998Y-157368889D01*
X86959998Y-157184711D01*
X86924066Y-157004071D01*
X86887172Y-156915000D01*
X92903839Y-156915000D01*
X93569584Y-157580746D01*
G36*
X98873000Y-155981094D02*
G01*
X98792089Y-155965000D01*
X98607911Y-155965000D01*
X98427271Y-156000932D01*
X98257111Y-156071414D01*
X98103972Y-156173738D01*
X97973738Y-156303972D01*
X97919597Y-156385000D01*
X94396162Y-156385000D01*
X94307661Y-156296499D01*
X96083391Y-156296499D01*
X96118501Y-156299957D01*
X96153611Y-156296499D01*
X96153621Y-156296499D01*
X96258665Y-156286153D01*
X96393443Y-156245269D01*
X96517655Y-156178876D01*
X96571118Y-156135000D01*
X96592089Y-156135000D01*
X96772729Y-156099068D01*
X96942889Y-156028586D01*
X97096028Y-155926262D01*
X97226262Y-155796028D01*
X97328586Y-155642889D01*
X97399068Y-155472729D01*
X97435000Y-155292089D01*
X97435000Y-155107911D01*
X97430558Y-155085580D01*
X97487261Y-155109067D01*
X97667901Y-155144999D01*
X97852079Y-155144999D01*
X98032719Y-155109067D01*
X98202879Y-155038585D01*
X98356018Y-154936261D01*
X98486252Y-154806027D01*
X98588576Y-154652888D01*
X98659058Y-154482728D01*
X98694990Y-154302088D01*
X98694990Y-154117910D01*
X98659058Y-153937270D01*
X98588576Y-153767110D01*
X98486252Y-153613971D01*
X98356018Y-153483737D01*
X98202879Y-153381413D01*
X98032719Y-153310931D01*
X97852079Y-153274999D01*
X97667901Y-153274999D01*
X97487261Y-153310931D01*
X97317101Y-153381413D01*
X97163962Y-153483737D01*
X97152700Y-153494999D01*
X96724314Y-153494999D01*
X96689204Y-153491541D01*
X96654094Y-153494999D01*
X96654085Y-153494999D01*
X96549041Y-153505345D01*
X96414263Y-153546229D01*
X96290051Y-153612622D01*
X96181178Y-153701972D01*
X96158789Y-153729253D01*
X95947038Y-153941004D01*
X95842889Y-153871414D01*
X95730675Y-153824934D01*
X95881355Y-153735178D01*
X96097588Y-153540269D01*
X96271641Y-153306920D01*
X96396825Y-153044099D01*
X96441476Y-152896890D01*
X96320155Y-152667000D01*
X95127000Y-152667000D01*
X95127000Y-152687000D01*
X94873000Y-152687000D01*
X94873000Y-152667000D01*
X93679845Y-152667000D01*
X93558524Y-152896890D01*
X93603175Y-153044099D01*
X93728359Y-153306920D01*
X93902412Y-153540269D01*
X94118645Y-153735178D01*
X94368748Y-153884157D01*
X94643109Y-153981481D01*
X94872998Y-153860815D01*
X94872998Y-153927616D01*
X94803972Y-153973738D01*
X94792710Y-153985000D01*
X80496162Y-153985000D01*
X80435000Y-153923838D01*
X80435000Y-153907911D01*
X80399068Y-153727271D01*
X80328586Y-153557111D01*
X80226262Y-153403972D01*
X80096028Y-153273738D01*
X79942889Y-153171414D01*
X79772729Y-153100932D01*
X79592089Y-153065000D01*
X79515000Y-153065000D01*
X79515000Y-150416519D01*
X79607911Y-150435000D01*
X79792089Y-150435000D01*
X79972729Y-150399068D01*
X80142889Y-150328586D01*
X80296028Y-150226262D01*
X80426262Y-150096028D01*
X80528586Y-149942889D01*
X80599068Y-149772729D01*
X80635000Y-149592089D01*
X80635000Y-149407911D01*
X80619667Y-149330829D01*
X81769588Y-150480751D01*
X81791973Y-150508027D01*
X81819248Y-150530411D01*
X81819251Y-150530414D01*
X81900844Y-150597376D01*
X81900846Y-150597377D01*
X82025058Y-150663770D01*
X82159836Y-150704654D01*
X82264880Y-150715000D01*
X82264889Y-150715000D01*
X82299999Y-150718458D01*
X82335109Y-150715000D01*
X93511928Y-150715000D01*
X93511928Y-150850000D01*
X93524188Y-150974482D01*
X93560498Y-151094180D01*
X93619463Y-151204494D01*
X93698815Y-151301185D01*
X93795506Y-151380537D01*
X93905820Y-151439502D01*
X93986466Y-151463966D01*
X93902412Y-151539731D01*
X93728359Y-151773080D01*
X93603175Y-152035901D01*
X93558524Y-152183110D01*
X93679845Y-152413000D01*
X94873000Y-152413000D01*
X94873000Y-152393000D01*
X95127000Y-152393000D01*
X95127000Y-152413000D01*
X96320155Y-152413000D01*
X96441476Y-152183110D01*
X96396825Y-152035901D01*
X96271641Y-151773080D01*
X96097588Y-151539731D01*
X96013534Y-151463966D01*
X96094180Y-151439502D01*
X96204494Y-151380537D01*
X96301185Y-151301185D01*
X96380537Y-151204494D01*
X96439502Y-151094180D01*
X96475812Y-150974482D01*
X96488072Y-150850000D01*
X96488072Y-149150000D01*
X96475812Y-149025518D01*
X96439502Y-148905820D01*
X96380537Y-148795506D01*
X96301185Y-148698815D01*
X96204494Y-148619463D01*
X96094180Y-148560498D01*
X95974482Y-148524188D01*
X95850000Y-148511928D01*
X94150000Y-148511928D01*
X94025518Y-148524188D01*
X93905820Y-148560498D01*
X93795506Y-148619463D01*
X93698815Y-148698815D01*
X93619463Y-148795506D01*
X93560498Y-148905820D01*
X93524188Y-149025518D01*
X93511928Y-149150000D01*
X93511928Y-149285000D01*
X91573634Y-149285000D01*
X91608186Y-149233289D01*
X91678668Y-149063129D01*
X91714600Y-148882489D01*
X91714600Y-148698311D01*
X91678668Y-148517671D01*
X91608186Y-148347511D01*
X91505862Y-148194372D01*
X91375628Y-148064138D01*
X91222489Y-147961814D01*
X91052329Y-147891332D01*
X90871689Y-147855400D01*
X90687511Y-147855400D01*
X90506871Y-147891332D01*
X90336711Y-147961814D01*
X90183572Y-148064138D01*
X90053338Y-148194372D01*
X89951014Y-148347511D01*
X89883767Y-148509860D01*
X84975675Y-148509860D01*
X84873029Y-148441274D01*
X84702869Y-148370792D01*
X84522229Y-148334860D01*
X84338051Y-148334860D01*
X84157411Y-148370792D01*
X83987251Y-148441274D01*
X83955677Y-148462371D01*
X83902229Y-148440232D01*
X83721589Y-148404300D01*
X83705662Y-148404300D01*
X82978730Y-147677369D01*
X83019736Y-147649970D01*
X83030998Y-147638708D01*
X97522599Y-147638708D01*
X97657111Y-147728586D01*
X97827271Y-147799068D01*
X98007911Y-147835000D01*
X98192089Y-147835000D01*
X98372729Y-147799068D01*
X98542889Y-147728586D01*
X98696028Y-147626262D01*
X98826262Y-147496028D01*
X98873000Y-147426079D01*
X98873000Y-155981094D01*
X98873000Y-155981094D01*
G37*
X98873000Y-155981094D02*
X98792089Y-155965000D01*
X98607911Y-155965000D01*
X98427271Y-156000932D01*
X98257111Y-156071414D01*
X98103972Y-156173738D01*
X97973738Y-156303972D01*
X97919597Y-156385000D01*
X94396162Y-156385000D01*
X94307661Y-156296499D01*
X96083391Y-156296499D01*
X96118501Y-156299957D01*
X96153611Y-156296499D01*
X96153621Y-156296499D01*
X96258665Y-156286153D01*
X96393443Y-156245269D01*
X96517655Y-156178876D01*
X96571118Y-156135000D01*
X96592089Y-156135000D01*
X96772729Y-156099068D01*
X96942889Y-156028586D01*
X97096028Y-155926262D01*
X97226262Y-155796028D01*
X97328586Y-155642889D01*
X97399068Y-155472729D01*
X97435000Y-155292089D01*
X97435000Y-155107911D01*
X97430558Y-155085580D01*
X97487261Y-155109067D01*
X97667901Y-155144999D01*
X97852079Y-155144999D01*
X98032719Y-155109067D01*
X98202879Y-155038585D01*
X98356018Y-154936261D01*
X98486252Y-154806027D01*
X98588576Y-154652888D01*
X98659058Y-154482728D01*
X98694990Y-154302088D01*
X98694990Y-154117910D01*
X98659058Y-153937270D01*
X98588576Y-153767110D01*
X98486252Y-153613971D01*
X98356018Y-153483737D01*
X98202879Y-153381413D01*
X98032719Y-153310931D01*
X97852079Y-153274999D01*
X97667901Y-153274999D01*
X97487261Y-153310931D01*
X97317101Y-153381413D01*
X97163962Y-153483737D01*
X97152700Y-153494999D01*
X96724314Y-153494999D01*
X96689204Y-153491541D01*
X96654094Y-153494999D01*
X96654085Y-153494999D01*
X96549041Y-153505345D01*
X96414263Y-153546229D01*
X96290051Y-153612622D01*
X96181178Y-153701972D01*
X96158789Y-153729253D01*
X95947038Y-153941004D01*
X95842889Y-153871414D01*
X95730675Y-153824934D01*
X95881355Y-153735178D01*
X96097588Y-153540269D01*
X96271641Y-153306920D01*
X96396825Y-153044099D01*
X96441476Y-152896890D01*
X96320155Y-152667000D01*
X95127000Y-152667000D01*
X95127000Y-152687000D01*
X94873000Y-152687000D01*
X94873000Y-152667000D01*
X93679845Y-152667000D01*
X93558524Y-152896890D01*
X93603175Y-153044099D01*
X93728359Y-153306920D01*
X93902412Y-153540269D01*
X94118645Y-153735178D01*
X94368748Y-153884157D01*
X94643109Y-153981481D01*
X94872998Y-153860815D01*
X94872998Y-153927616D01*
X94803972Y-153973738D01*
X94792710Y-153985000D01*
X80496162Y-153985000D01*
X80435000Y-153923838D01*
X80435000Y-153907911D01*
X80399068Y-153727271D01*
X80328586Y-153557111D01*
X80226262Y-153403972D01*
X80096028Y-153273738D01*
X79942889Y-153171414D01*
X79772729Y-153100932D01*
X79592089Y-153065000D01*
X79515000Y-153065000D01*
X79515000Y-150416519D01*
X79607911Y-150435000D01*
X79792089Y-150435000D01*
X79972729Y-150399068D01*
X80142889Y-150328586D01*
X80296028Y-150226262D01*
X80426262Y-150096028D01*
X80528586Y-149942889D01*
X80599068Y-149772729D01*
X80635000Y-149592089D01*
X80635000Y-149407911D01*
X80619667Y-149330829D01*
X81769588Y-150480751D01*
X81791973Y-150508027D01*
X81819248Y-150530411D01*
X81819251Y-150530414D01*
X81900844Y-150597376D01*
X81900846Y-150597377D01*
X82025058Y-150663770D01*
X82159836Y-150704654D01*
X82264880Y-150715000D01*
X82264889Y-150715000D01*
X82299999Y-150718458D01*
X82335109Y-150715000D01*
X93511928Y-150715000D01*
X93511928Y-150850000D01*
X93524188Y-150974482D01*
X93560498Y-151094180D01*
X93619463Y-151204494D01*
X93698815Y-151301185D01*
X93795506Y-151380537D01*
X93905820Y-151439502D01*
X93986466Y-151463966D01*
X93902412Y-151539731D01*
X93728359Y-151773080D01*
X93603175Y-152035901D01*
X93558524Y-152183110D01*
X93679845Y-152413000D01*
X94873000Y-152413000D01*
X94873000Y-152393000D01*
X95127000Y-152393000D01*
X95127000Y-152413000D01*
X96320155Y-152413000D01*
X96441476Y-152183110D01*
X96396825Y-152035901D01*
X96271641Y-151773080D01*
X96097588Y-151539731D01*
X96013534Y-151463966D01*
X96094180Y-151439502D01*
X96204494Y-151380537D01*
X96301185Y-151301185D01*
X96380537Y-151204494D01*
X96439502Y-151094180D01*
X96475812Y-150974482D01*
X96488072Y-150850000D01*
X96488072Y-149150000D01*
X96475812Y-149025518D01*
X96439502Y-148905820D01*
X96380537Y-148795506D01*
X96301185Y-148698815D01*
X96204494Y-148619463D01*
X96094180Y-148560498D01*
X95974482Y-148524188D01*
X95850000Y-148511928D01*
X94150000Y-148511928D01*
X94025518Y-148524188D01*
X93905820Y-148560498D01*
X93795506Y-148619463D01*
X93698815Y-148698815D01*
X93619463Y-148795506D01*
X93560498Y-148905820D01*
X93524188Y-149025518D01*
X93511928Y-149150000D01*
X93511928Y-149285000D01*
X91573634Y-149285000D01*
X91608186Y-149233289D01*
X91678668Y-149063129D01*
X91714600Y-148882489D01*
X91714600Y-148698311D01*
X91678668Y-148517671D01*
X91608186Y-148347511D01*
X91505862Y-148194372D01*
X91375628Y-148064138D01*
X91222489Y-147961814D01*
X91052329Y-147891332D01*
X90871689Y-147855400D01*
X90687511Y-147855400D01*
X90506871Y-147891332D01*
X90336711Y-147961814D01*
X90183572Y-148064138D01*
X90053338Y-148194372D01*
X89951014Y-148347511D01*
X89883767Y-148509860D01*
X84975675Y-148509860D01*
X84873029Y-148441274D01*
X84702869Y-148370792D01*
X84522229Y-148334860D01*
X84338051Y-148334860D01*
X84157411Y-148370792D01*
X83987251Y-148441274D01*
X83955677Y-148462371D01*
X83902229Y-148440232D01*
X83721589Y-148404300D01*
X83705662Y-148404300D01*
X82978730Y-147677369D01*
X83019736Y-147649970D01*
X83030998Y-147638708D01*
X97522599Y-147638708D01*
X97657111Y-147728586D01*
X97827271Y-147799068D01*
X98007911Y-147835000D01*
X98192089Y-147835000D01*
X98372729Y-147799068D01*
X98542889Y-147728586D01*
X98696028Y-147626262D01*
X98826262Y-147496028D01*
X98873000Y-147426079D01*
X98873000Y-155981094D01*
G36*
X75740000Y-154354464D02*
G01*
X75671414Y-154457111D01*
X75600932Y-154627271D01*
X75569557Y-154785000D01*
X74376162Y-154785000D01*
X75246162Y-153915000D01*
X75600401Y-153915000D01*
X75635511Y-153918458D01*
X75670621Y-153915000D01*
X75670631Y-153915000D01*
X75740000Y-153908168D01*
X75740000Y-154354464D01*
X75740000Y-154354464D01*
G37*
X75740000Y-154354464D02*
X75671414Y-154457111D01*
X75600932Y-154627271D01*
X75569557Y-154785000D01*
X74376162Y-154785000D01*
X75246162Y-153915000D01*
X75600401Y-153915000D01*
X75635511Y-153918458D01*
X75670621Y-153915000D01*
X75670631Y-153915000D01*
X75740000Y-153908168D01*
X75740000Y-154354464D01*
G36*
X76450932Y-135322729D02*
G01*
X76521414Y-135492889D01*
X76623738Y-135646028D01*
X76635001Y-135657291D01*
X76635000Y-137992710D01*
X76623738Y-138003972D01*
X76521414Y-138157111D01*
X76450932Y-138327271D01*
X76419700Y-138484283D01*
X76419700Y-135165717D01*
X76450932Y-135322729D01*
X76450932Y-135322729D01*
G37*
X76450932Y-135322729D02*
X76521414Y-135492889D01*
X76623738Y-135646028D01*
X76635001Y-135657291D01*
X76635000Y-137992710D01*
X76623738Y-138003972D01*
X76521414Y-138157111D01*
X76450932Y-138327271D01*
X76419700Y-138484283D01*
X76419700Y-135165717D01*
X76450932Y-135322729D01*
M02*
