G04 #@! TF.GenerationSoftware,KiCad,Pcbnew,5.1.4-e60b266~84~ubuntu18.04.1*
G04 #@! TF.CreationDate,2019-09-09T20:57:08+05:30*
G04 #@! TF.ProjectId,SenseCam_rev1,53656e73-6543-4616-9d5f-726576312e6b,rev?*
G04 #@! TF.SameCoordinates,Original*
G04 #@! TF.FileFunction,Soldermask,Top*
G04 #@! TF.FilePolarity,Negative*
%FSLAX46Y46*%
G04 Gerber Fmt 4.6, Leading zero omitted, Abs format (unit mm)*
G04 Created by KiCad (PCBNEW 5.1.4-e60b266~84~ubuntu18.04.1) date 2019-09-09 20:57:08*
%MOMM*%
%LPD*%
G04 APERTURE LIST*
%ADD10C,0.100000*%
G04 APERTURE END LIST*
D10*
G36*
X98318433Y-186634893D02*
G01*
X98408657Y-186652839D01*
X98514267Y-186696585D01*
X98663621Y-186758449D01*
X98663622Y-186758450D01*
X98893086Y-186911772D01*
X99088228Y-187106914D01*
X99190675Y-187260237D01*
X99241551Y-187336379D01*
X99347161Y-187591344D01*
X99401000Y-187862012D01*
X99401000Y-188137988D01*
X99347161Y-188408656D01*
X99241551Y-188663621D01*
X99241550Y-188663622D01*
X99088228Y-188893086D01*
X98893086Y-189088228D01*
X98739763Y-189190675D01*
X98663621Y-189241551D01*
X98514267Y-189303415D01*
X98408657Y-189347161D01*
X98318433Y-189365107D01*
X98137988Y-189401000D01*
X97862012Y-189401000D01*
X97681567Y-189365107D01*
X97591343Y-189347161D01*
X97485733Y-189303415D01*
X97336379Y-189241551D01*
X97260237Y-189190675D01*
X97106914Y-189088228D01*
X96911772Y-188893086D01*
X96758450Y-188663622D01*
X96758449Y-188663621D01*
X96652839Y-188408656D01*
X96599000Y-188137988D01*
X96599000Y-187862012D01*
X96652839Y-187591344D01*
X96758449Y-187336379D01*
X96809325Y-187260237D01*
X96911772Y-187106914D01*
X97106914Y-186911772D01*
X97336378Y-186758450D01*
X97336379Y-186758449D01*
X97485733Y-186696585D01*
X97591343Y-186652839D01*
X97681567Y-186634893D01*
X97862012Y-186599000D01*
X98137988Y-186599000D01*
X98318433Y-186634893D01*
X98318433Y-186634893D01*
G37*
G36*
X57318433Y-186634893D02*
G01*
X57408657Y-186652839D01*
X57514267Y-186696585D01*
X57663621Y-186758449D01*
X57663622Y-186758450D01*
X57893086Y-186911772D01*
X58088228Y-187106914D01*
X58190675Y-187260237D01*
X58241551Y-187336379D01*
X58347161Y-187591344D01*
X58401000Y-187862012D01*
X58401000Y-188137988D01*
X58347161Y-188408656D01*
X58241551Y-188663621D01*
X58241550Y-188663622D01*
X58088228Y-188893086D01*
X57893086Y-189088228D01*
X57739763Y-189190675D01*
X57663621Y-189241551D01*
X57514267Y-189303415D01*
X57408657Y-189347161D01*
X57318433Y-189365107D01*
X57137988Y-189401000D01*
X56862012Y-189401000D01*
X56681567Y-189365107D01*
X56591343Y-189347161D01*
X56485733Y-189303415D01*
X56336379Y-189241551D01*
X56260237Y-189190675D01*
X56106914Y-189088228D01*
X55911772Y-188893086D01*
X55758450Y-188663622D01*
X55758449Y-188663621D01*
X55652839Y-188408656D01*
X55599000Y-188137988D01*
X55599000Y-187862012D01*
X55652839Y-187591344D01*
X55758449Y-187336379D01*
X55809325Y-187260237D01*
X55911772Y-187106914D01*
X56106914Y-186911772D01*
X56336378Y-186758450D01*
X56336379Y-186758449D01*
X56485733Y-186696585D01*
X56591343Y-186652839D01*
X56681567Y-186634893D01*
X56862012Y-186599000D01*
X57137988Y-186599000D01*
X57318433Y-186634893D01*
X57318433Y-186634893D01*
G37*
G36*
X93376000Y-185376000D02*
G01*
X91974000Y-185376000D01*
X91974000Y-183374000D01*
X93376000Y-183374000D01*
X93376000Y-185376000D01*
X93376000Y-185376000D01*
G37*
G36*
X62726000Y-185376000D02*
G01*
X61624000Y-185376000D01*
X61624000Y-182474000D01*
X62726000Y-182474000D01*
X62726000Y-185376000D01*
X62726000Y-185376000D01*
G37*
G36*
X76376000Y-185376000D02*
G01*
X74974000Y-185376000D01*
X74974000Y-183374000D01*
X76376000Y-183374000D01*
X76376000Y-185376000D01*
X76376000Y-185376000D01*
G37*
G36*
X79726000Y-185376000D02*
G01*
X78624000Y-185376000D01*
X78624000Y-182474000D01*
X79726000Y-182474000D01*
X79726000Y-185376000D01*
X79726000Y-185376000D01*
G37*
G36*
X97110443Y-182305519D02*
G01*
X97176627Y-182312037D01*
X97346466Y-182363557D01*
X97502991Y-182447222D01*
X97535620Y-182474000D01*
X97640186Y-182559814D01*
X97723448Y-182661271D01*
X97752778Y-182697009D01*
X97836443Y-182853534D01*
X97887963Y-183023373D01*
X97905359Y-183200000D01*
X97887963Y-183376627D01*
X97836443Y-183546466D01*
X97752778Y-183702991D01*
X97723448Y-183738729D01*
X97640186Y-183840186D01*
X97538729Y-183923448D01*
X97502991Y-183952778D01*
X97346466Y-184036443D01*
X97176627Y-184087963D01*
X97110443Y-184094481D01*
X97044260Y-184101000D01*
X96955740Y-184101000D01*
X96889557Y-184094481D01*
X96823373Y-184087963D01*
X96653534Y-184036443D01*
X96497009Y-183952778D01*
X96461271Y-183923448D01*
X96359814Y-183840186D01*
X96276552Y-183738729D01*
X96247222Y-183702991D01*
X96163557Y-183546466D01*
X96112037Y-183376627D01*
X96094641Y-183200000D01*
X96112037Y-183023373D01*
X96163557Y-182853534D01*
X96247222Y-182697009D01*
X96276552Y-182661271D01*
X96359814Y-182559814D01*
X96464380Y-182474000D01*
X96497009Y-182447222D01*
X96653534Y-182363557D01*
X96823373Y-182312037D01*
X96889557Y-182305519D01*
X96955740Y-182299000D01*
X97044260Y-182299000D01*
X97110443Y-182305519D01*
X97110443Y-182305519D01*
G37*
G36*
X97110443Y-179765519D02*
G01*
X97176627Y-179772037D01*
X97346466Y-179823557D01*
X97502991Y-179907222D01*
X97538729Y-179936552D01*
X97640186Y-180019814D01*
X97723448Y-180121271D01*
X97752778Y-180157009D01*
X97836443Y-180313534D01*
X97887963Y-180483373D01*
X97905359Y-180660000D01*
X97887963Y-180836627D01*
X97836443Y-181006466D01*
X97752778Y-181162991D01*
X97723448Y-181198729D01*
X97640186Y-181300186D01*
X97538729Y-181383448D01*
X97502991Y-181412778D01*
X97346466Y-181496443D01*
X97176627Y-181547963D01*
X97110443Y-181554481D01*
X97044260Y-181561000D01*
X96955740Y-181561000D01*
X96889557Y-181554481D01*
X96823373Y-181547963D01*
X96653534Y-181496443D01*
X96497009Y-181412778D01*
X96461271Y-181383448D01*
X96359814Y-181300186D01*
X96276552Y-181198729D01*
X96247222Y-181162991D01*
X96163557Y-181006466D01*
X96112037Y-180836627D01*
X96094641Y-180660000D01*
X96112037Y-180483373D01*
X96163557Y-180313534D01*
X96247222Y-180157009D01*
X96276552Y-180121271D01*
X96359814Y-180019814D01*
X96461271Y-179936552D01*
X96497009Y-179907222D01*
X96653534Y-179823557D01*
X96823373Y-179772037D01*
X96889557Y-179765519D01*
X96955740Y-179759000D01*
X97044260Y-179759000D01*
X97110443Y-179765519D01*
X97110443Y-179765519D01*
G37*
G36*
X79726000Y-180226000D02*
G01*
X78624000Y-180226000D01*
X78624000Y-179324000D01*
X79726000Y-179324000D01*
X79726000Y-180226000D01*
X79726000Y-180226000D01*
G37*
G36*
X62726000Y-180226000D02*
G01*
X61624000Y-180226000D01*
X61624000Y-179324000D01*
X62726000Y-179324000D01*
X62726000Y-180226000D01*
X62726000Y-180226000D01*
G37*
G36*
X97110442Y-177225518D02*
G01*
X97176627Y-177232037D01*
X97346466Y-177283557D01*
X97502991Y-177367222D01*
X97538729Y-177396552D01*
X97640186Y-177479814D01*
X97723448Y-177581271D01*
X97752778Y-177617009D01*
X97836443Y-177773534D01*
X97887963Y-177943373D01*
X97905359Y-178120000D01*
X97887963Y-178296627D01*
X97836443Y-178466466D01*
X97752778Y-178622991D01*
X97723448Y-178658729D01*
X97640186Y-178760186D01*
X97538729Y-178843448D01*
X97502991Y-178872778D01*
X97346466Y-178956443D01*
X97176627Y-179007963D01*
X97110442Y-179014482D01*
X97044260Y-179021000D01*
X96955740Y-179021000D01*
X96889558Y-179014482D01*
X96823373Y-179007963D01*
X96653534Y-178956443D01*
X96497009Y-178872778D01*
X96461271Y-178843448D01*
X96359814Y-178760186D01*
X96276552Y-178658729D01*
X96247222Y-178622991D01*
X96163557Y-178466466D01*
X96112037Y-178296627D01*
X96094641Y-178120000D01*
X96112037Y-177943373D01*
X96163557Y-177773534D01*
X96247222Y-177617009D01*
X96276552Y-177581271D01*
X96359814Y-177479814D01*
X96461271Y-177396552D01*
X96497009Y-177367222D01*
X96653534Y-177283557D01*
X96823373Y-177232037D01*
X96889558Y-177225518D01*
X96955740Y-177219000D01*
X97044260Y-177219000D01*
X97110442Y-177225518D01*
X97110442Y-177225518D01*
G37*
G36*
X97110442Y-174685518D02*
G01*
X97176627Y-174692037D01*
X97346466Y-174743557D01*
X97502991Y-174827222D01*
X97538729Y-174856552D01*
X97640186Y-174939814D01*
X97723448Y-175041271D01*
X97752778Y-175077009D01*
X97836443Y-175233534D01*
X97887963Y-175403373D01*
X97905359Y-175580000D01*
X97887963Y-175756627D01*
X97836443Y-175926466D01*
X97752778Y-176082991D01*
X97723448Y-176118729D01*
X97640186Y-176220186D01*
X97538729Y-176303448D01*
X97502991Y-176332778D01*
X97346466Y-176416443D01*
X97176627Y-176467963D01*
X97110443Y-176474481D01*
X97044260Y-176481000D01*
X96955740Y-176481000D01*
X96889557Y-176474481D01*
X96823373Y-176467963D01*
X96653534Y-176416443D01*
X96497009Y-176332778D01*
X96461271Y-176303448D01*
X96359814Y-176220186D01*
X96276552Y-176118729D01*
X96247222Y-176082991D01*
X96163557Y-175926466D01*
X96112037Y-175756627D01*
X96094641Y-175580000D01*
X96112037Y-175403373D01*
X96163557Y-175233534D01*
X96247222Y-175077009D01*
X96276552Y-175041271D01*
X96359814Y-174939814D01*
X96461271Y-174856552D01*
X96497009Y-174827222D01*
X96653534Y-174743557D01*
X96823373Y-174692037D01*
X96889558Y-174685518D01*
X96955740Y-174679000D01*
X97044260Y-174679000D01*
X97110442Y-174685518D01*
X97110442Y-174685518D01*
G37*
G36*
X62726000Y-174226000D02*
G01*
X61624000Y-174226000D01*
X61624000Y-172924000D01*
X62726000Y-172924000D01*
X62726000Y-174226000D01*
X62726000Y-174226000D01*
G37*
G36*
X79726000Y-174226000D02*
G01*
X78624000Y-174226000D01*
X78624000Y-172924000D01*
X79726000Y-172924000D01*
X79726000Y-174226000D01*
X79726000Y-174226000D01*
G37*
G36*
X97110442Y-172145518D02*
G01*
X97176627Y-172152037D01*
X97346466Y-172203557D01*
X97502991Y-172287222D01*
X97538729Y-172316552D01*
X97640186Y-172399814D01*
X97723448Y-172501271D01*
X97752778Y-172537009D01*
X97836443Y-172693534D01*
X97887963Y-172863373D01*
X97905359Y-173040000D01*
X97887963Y-173216627D01*
X97836443Y-173386466D01*
X97752778Y-173542991D01*
X97723448Y-173578729D01*
X97640186Y-173680186D01*
X97538729Y-173763448D01*
X97502991Y-173792778D01*
X97346466Y-173876443D01*
X97176627Y-173927963D01*
X97110442Y-173934482D01*
X97044260Y-173941000D01*
X96955740Y-173941000D01*
X96889558Y-173934482D01*
X96823373Y-173927963D01*
X96653534Y-173876443D01*
X96497009Y-173792778D01*
X96461271Y-173763448D01*
X96359814Y-173680186D01*
X96276552Y-173578729D01*
X96247222Y-173542991D01*
X96163557Y-173386466D01*
X96112037Y-173216627D01*
X96094641Y-173040000D01*
X96112037Y-172863373D01*
X96163557Y-172693534D01*
X96247222Y-172537009D01*
X96276552Y-172501271D01*
X96359814Y-172399814D01*
X96461271Y-172316552D01*
X96497009Y-172287222D01*
X96653534Y-172203557D01*
X96823373Y-172152037D01*
X96889558Y-172145518D01*
X96955740Y-172139000D01*
X97044260Y-172139000D01*
X97110442Y-172145518D01*
X97110442Y-172145518D01*
G37*
G36*
X97901000Y-171401000D02*
G01*
X96099000Y-171401000D01*
X96099000Y-169599000D01*
X97901000Y-169599000D01*
X97901000Y-171401000D01*
X97901000Y-171401000D01*
G37*
G36*
X85876000Y-169926000D02*
G01*
X85074000Y-169926000D01*
X85074000Y-168624000D01*
X85876000Y-168624000D01*
X85876000Y-169926000D01*
X85876000Y-169926000D01*
G37*
G36*
X88076000Y-169926000D02*
G01*
X87274000Y-169926000D01*
X87274000Y-168624000D01*
X88076000Y-168624000D01*
X88076000Y-169926000D01*
X88076000Y-169926000D01*
G37*
G36*
X89176000Y-169926000D02*
G01*
X88374000Y-169926000D01*
X88374000Y-168624000D01*
X89176000Y-168624000D01*
X89176000Y-169926000D01*
X89176000Y-169926000D01*
G37*
G36*
X81476000Y-169926000D02*
G01*
X79724000Y-169926000D01*
X79724000Y-168624000D01*
X81476000Y-168624000D01*
X81476000Y-169926000D01*
X81476000Y-169926000D01*
G37*
G36*
X64476000Y-169926000D02*
G01*
X62724000Y-169926000D01*
X62724000Y-168624000D01*
X64476000Y-168624000D01*
X64476000Y-169926000D01*
X64476000Y-169926000D01*
G37*
G36*
X72176000Y-169926000D02*
G01*
X71374000Y-169926000D01*
X71374000Y-168624000D01*
X72176000Y-168624000D01*
X72176000Y-169926000D01*
X72176000Y-169926000D01*
G37*
G36*
X71076000Y-169926000D02*
G01*
X70274000Y-169926000D01*
X70274000Y-168624000D01*
X71076000Y-168624000D01*
X71076000Y-169926000D01*
X71076000Y-169926000D01*
G37*
G36*
X69976000Y-169926000D02*
G01*
X69174000Y-169926000D01*
X69174000Y-168624000D01*
X69976000Y-168624000D01*
X69976000Y-169926000D01*
X69976000Y-169926000D01*
G37*
G36*
X68876000Y-169926000D02*
G01*
X68074000Y-169926000D01*
X68074000Y-168624000D01*
X68876000Y-168624000D01*
X68876000Y-169926000D01*
X68876000Y-169926000D01*
G37*
G36*
X84776000Y-169926000D02*
G01*
X83974000Y-169926000D01*
X83974000Y-168624000D01*
X84776000Y-168624000D01*
X84776000Y-169926000D01*
X84776000Y-169926000D01*
G37*
G36*
X83676000Y-169926000D02*
G01*
X82874000Y-169926000D01*
X82874000Y-168624000D01*
X83676000Y-168624000D01*
X83676000Y-169926000D01*
X83676000Y-169926000D01*
G37*
G36*
X82576000Y-169926000D02*
G01*
X81774000Y-169926000D01*
X81774000Y-168624000D01*
X82576000Y-168624000D01*
X82576000Y-169926000D01*
X82576000Y-169926000D01*
G37*
G36*
X90876000Y-169926000D02*
G01*
X89774000Y-169926000D01*
X89774000Y-168624000D01*
X90876000Y-168624000D01*
X90876000Y-169926000D01*
X90876000Y-169926000D01*
G37*
G36*
X67776000Y-169926000D02*
G01*
X66974000Y-169926000D01*
X66974000Y-168624000D01*
X67776000Y-168624000D01*
X67776000Y-169926000D01*
X67776000Y-169926000D01*
G37*
G36*
X66676000Y-169926000D02*
G01*
X65874000Y-169926000D01*
X65874000Y-168624000D01*
X66676000Y-168624000D01*
X66676000Y-169926000D01*
X66676000Y-169926000D01*
G37*
G36*
X65576000Y-169926000D02*
G01*
X64774000Y-169926000D01*
X64774000Y-168624000D01*
X65576000Y-168624000D01*
X65576000Y-169926000D01*
X65576000Y-169926000D01*
G37*
G36*
X73876000Y-169926000D02*
G01*
X72774000Y-169926000D01*
X72774000Y-168624000D01*
X73876000Y-168624000D01*
X73876000Y-169926000D01*
X73876000Y-169926000D01*
G37*
G36*
X86976000Y-169926000D02*
G01*
X86174000Y-169926000D01*
X86174000Y-168624000D01*
X86976000Y-168624000D01*
X86976000Y-169926000D01*
X86976000Y-169926000D01*
G37*
G36*
X80342738Y-167273716D02*
G01*
X80363357Y-167279971D01*
X80382353Y-167290124D01*
X80399008Y-167303792D01*
X80412676Y-167320447D01*
X80422829Y-167339443D01*
X80429084Y-167360062D01*
X80431800Y-167387640D01*
X80431800Y-167846360D01*
X80429084Y-167873938D01*
X80422829Y-167894557D01*
X80412676Y-167913553D01*
X80399008Y-167930208D01*
X80382353Y-167943876D01*
X80363357Y-167954029D01*
X80342738Y-167960284D01*
X80315160Y-167963000D01*
X79806440Y-167963000D01*
X79778862Y-167960284D01*
X79758243Y-167954029D01*
X79739247Y-167943876D01*
X79722592Y-167930208D01*
X79708924Y-167913553D01*
X79698771Y-167894557D01*
X79692516Y-167873938D01*
X79689800Y-167846360D01*
X79689800Y-167387640D01*
X79692516Y-167360062D01*
X79698771Y-167339443D01*
X79708924Y-167320447D01*
X79722592Y-167303792D01*
X79739247Y-167290124D01*
X79758243Y-167279971D01*
X79778862Y-167273716D01*
X79806440Y-167271000D01*
X80315160Y-167271000D01*
X80342738Y-167273716D01*
X80342738Y-167273716D01*
G37*
G36*
X85752938Y-167258216D02*
G01*
X85773557Y-167264471D01*
X85792553Y-167274624D01*
X85809208Y-167288292D01*
X85822876Y-167304947D01*
X85833029Y-167323943D01*
X85839284Y-167344562D01*
X85842000Y-167372140D01*
X85842000Y-167830860D01*
X85839284Y-167858438D01*
X85833029Y-167879057D01*
X85822876Y-167898053D01*
X85809208Y-167914708D01*
X85792553Y-167928376D01*
X85773557Y-167938529D01*
X85752938Y-167944784D01*
X85725360Y-167947500D01*
X85216640Y-167947500D01*
X85189062Y-167944784D01*
X85168443Y-167938529D01*
X85149447Y-167928376D01*
X85132792Y-167914708D01*
X85119124Y-167898053D01*
X85108971Y-167879057D01*
X85102716Y-167858438D01*
X85100000Y-167830860D01*
X85100000Y-167372140D01*
X85102716Y-167344562D01*
X85108971Y-167323943D01*
X85119124Y-167304947D01*
X85132792Y-167288292D01*
X85149447Y-167274624D01*
X85168443Y-167264471D01*
X85189062Y-167258216D01*
X85216640Y-167255500D01*
X85725360Y-167255500D01*
X85752938Y-167258216D01*
X85752938Y-167258216D01*
G37*
G36*
X79239900Y-167528100D02*
G01*
X78077900Y-167528100D01*
X78077900Y-164876100D01*
X79239900Y-164876100D01*
X79239900Y-167528100D01*
X79239900Y-167528100D01*
G37*
G36*
X77039900Y-167528100D02*
G01*
X75877900Y-167528100D01*
X75877900Y-164876100D01*
X77039900Y-164876100D01*
X77039900Y-167528100D01*
X77039900Y-167528100D01*
G37*
G36*
X97110443Y-165725519D02*
G01*
X97176627Y-165732037D01*
X97346466Y-165783557D01*
X97346468Y-165783558D01*
X97392270Y-165808040D01*
X97502991Y-165867222D01*
X97512473Y-165875004D01*
X97640186Y-165979814D01*
X97723448Y-166081271D01*
X97752778Y-166117009D01*
X97836443Y-166273534D01*
X97887963Y-166443373D01*
X97905359Y-166620000D01*
X97887963Y-166796627D01*
X97836443Y-166966466D01*
X97752778Y-167122991D01*
X97723448Y-167158729D01*
X97640186Y-167260186D01*
X97543610Y-167339443D01*
X97502991Y-167372778D01*
X97493603Y-167377796D01*
X97349271Y-167454944D01*
X97346466Y-167456443D01*
X97176627Y-167507963D01*
X97110442Y-167514482D01*
X97044260Y-167521000D01*
X96955740Y-167521000D01*
X96889558Y-167514482D01*
X96823373Y-167507963D01*
X96653534Y-167456443D01*
X96650730Y-167454944D01*
X96506397Y-167377796D01*
X96497009Y-167372778D01*
X96456390Y-167339443D01*
X96359814Y-167260186D01*
X96276552Y-167158729D01*
X96247222Y-167122991D01*
X96163557Y-166966466D01*
X96112037Y-166796627D01*
X96094641Y-166620000D01*
X96112037Y-166443373D01*
X96163557Y-166273534D01*
X96247222Y-166117009D01*
X96276552Y-166081271D01*
X96359814Y-165979814D01*
X96487527Y-165875004D01*
X96497009Y-165867222D01*
X96607730Y-165808040D01*
X96653532Y-165783558D01*
X96653534Y-165783557D01*
X96823373Y-165732037D01*
X96889557Y-165725519D01*
X96955740Y-165719000D01*
X97044260Y-165719000D01*
X97110443Y-165725519D01*
X97110443Y-165725519D01*
G37*
G36*
X72355638Y-166744816D02*
G01*
X72376257Y-166751071D01*
X72395253Y-166761224D01*
X72411908Y-166774892D01*
X72425576Y-166791547D01*
X72435729Y-166810543D01*
X72441984Y-166831162D01*
X72444700Y-166858740D01*
X72444700Y-167367460D01*
X72441984Y-167395038D01*
X72435729Y-167415657D01*
X72425576Y-167434653D01*
X72411908Y-167451308D01*
X72395253Y-167464976D01*
X72376257Y-167475129D01*
X72355638Y-167481384D01*
X72328060Y-167484100D01*
X71869340Y-167484100D01*
X71841762Y-167481384D01*
X71821143Y-167475129D01*
X71802147Y-167464976D01*
X71785492Y-167451308D01*
X71771824Y-167434653D01*
X71761671Y-167415657D01*
X71755416Y-167395038D01*
X71752700Y-167367460D01*
X71752700Y-166858740D01*
X71755416Y-166831162D01*
X71761671Y-166810543D01*
X71771824Y-166791547D01*
X71785492Y-166774892D01*
X71802147Y-166761224D01*
X71821143Y-166751071D01*
X71841762Y-166744816D01*
X71869340Y-166742100D01*
X72328060Y-166742100D01*
X72355638Y-166744816D01*
X72355638Y-166744816D01*
G37*
G36*
X73325638Y-166744816D02*
G01*
X73346257Y-166751071D01*
X73365253Y-166761224D01*
X73381908Y-166774892D01*
X73395576Y-166791547D01*
X73405729Y-166810543D01*
X73411984Y-166831162D01*
X73414700Y-166858740D01*
X73414700Y-167367460D01*
X73411984Y-167395038D01*
X73405729Y-167415657D01*
X73395576Y-167434653D01*
X73381908Y-167451308D01*
X73365253Y-167464976D01*
X73346257Y-167475129D01*
X73325638Y-167481384D01*
X73298060Y-167484100D01*
X72839340Y-167484100D01*
X72811762Y-167481384D01*
X72791143Y-167475129D01*
X72772147Y-167464976D01*
X72755492Y-167451308D01*
X72741824Y-167434653D01*
X72731671Y-167415657D01*
X72725416Y-167395038D01*
X72722700Y-167367460D01*
X72722700Y-166858740D01*
X72725416Y-166831162D01*
X72731671Y-166810543D01*
X72741824Y-166791547D01*
X72755492Y-166774892D01*
X72772147Y-166761224D01*
X72791143Y-166751071D01*
X72811762Y-166744816D01*
X72839340Y-166742100D01*
X73298060Y-166742100D01*
X73325638Y-166744816D01*
X73325638Y-166744816D01*
G37*
G36*
X65981938Y-164741716D02*
G01*
X66002557Y-164747971D01*
X66021553Y-164758124D01*
X66038208Y-164771792D01*
X66051876Y-164788447D01*
X66062029Y-164807443D01*
X66068284Y-164828062D01*
X66071000Y-164855640D01*
X66071000Y-165314360D01*
X66068284Y-165341938D01*
X66062029Y-165362557D01*
X66051876Y-165381553D01*
X66038208Y-165398208D01*
X66021553Y-165411876D01*
X66002557Y-165422029D01*
X65981938Y-165428284D01*
X65954360Y-165431000D01*
X65769799Y-165431000D01*
X65745413Y-165433402D01*
X65721964Y-165440515D01*
X65700353Y-165452066D01*
X65681411Y-165467611D01*
X65665866Y-165486553D01*
X65654315Y-165508164D01*
X65647202Y-165531613D01*
X65644800Y-165555999D01*
X65644800Y-165869001D01*
X65647202Y-165893387D01*
X65654315Y-165916836D01*
X65665866Y-165938447D01*
X65681411Y-165957389D01*
X65700353Y-165972934D01*
X65721964Y-165984485D01*
X65744800Y-165991412D01*
X65744800Y-166698588D01*
X65721964Y-166705515D01*
X65700353Y-166717066D01*
X65681411Y-166732611D01*
X65665866Y-166751553D01*
X65654315Y-166773164D01*
X65647202Y-166796613D01*
X65644800Y-166820999D01*
X65644800Y-167446000D01*
X63742800Y-167446000D01*
X63742800Y-166820999D01*
X63740398Y-166796613D01*
X63733285Y-166773164D01*
X63721734Y-166751553D01*
X63706189Y-166732611D01*
X63687247Y-166717066D01*
X63665636Y-166705515D01*
X63642800Y-166698588D01*
X63642800Y-166391412D01*
X63665636Y-166384485D01*
X63687247Y-166372934D01*
X63689604Y-166370999D01*
X64244800Y-166370999D01*
X64244800Y-166719001D01*
X64247202Y-166743387D01*
X64254315Y-166766836D01*
X64265866Y-166788447D01*
X64281411Y-166807389D01*
X64300353Y-166822934D01*
X64321964Y-166834485D01*
X64345413Y-166841598D01*
X64369799Y-166844000D01*
X65017801Y-166844000D01*
X65042187Y-166841598D01*
X65065636Y-166834485D01*
X65087247Y-166822934D01*
X65106189Y-166807389D01*
X65121734Y-166788447D01*
X65133285Y-166766836D01*
X65140398Y-166743387D01*
X65142800Y-166719001D01*
X65142800Y-166370999D01*
X65140398Y-166346613D01*
X65133285Y-166323164D01*
X65121734Y-166301553D01*
X65106189Y-166282611D01*
X65087247Y-166267066D01*
X65065636Y-166255515D01*
X65042187Y-166248402D01*
X65017801Y-166246000D01*
X64369799Y-166246000D01*
X64345413Y-166248402D01*
X64321964Y-166255515D01*
X64300353Y-166267066D01*
X64281411Y-166282611D01*
X64265866Y-166301553D01*
X64254315Y-166323164D01*
X64247202Y-166346613D01*
X64244800Y-166370999D01*
X63689604Y-166370999D01*
X63706189Y-166357389D01*
X63721734Y-166338447D01*
X63733285Y-166316836D01*
X63740398Y-166293387D01*
X63742800Y-166269001D01*
X63742800Y-165644000D01*
X65313698Y-165644000D01*
X65338084Y-165641598D01*
X65361533Y-165634485D01*
X65383144Y-165622934D01*
X65402086Y-165607389D01*
X65417631Y-165588447D01*
X65429182Y-165566836D01*
X65436295Y-165543387D01*
X65438697Y-165519001D01*
X65436295Y-165494615D01*
X65429182Y-165471166D01*
X65417631Y-165449555D01*
X65402086Y-165430613D01*
X65387731Y-165419966D01*
X65387962Y-165419684D01*
X65361792Y-165398208D01*
X65348124Y-165381553D01*
X65337971Y-165362557D01*
X65331716Y-165341938D01*
X65329000Y-165314360D01*
X65329000Y-164855640D01*
X65331716Y-164828062D01*
X65337971Y-164807443D01*
X65348124Y-164788447D01*
X65361792Y-164771792D01*
X65378447Y-164758124D01*
X65397443Y-164747971D01*
X65418062Y-164741716D01*
X65445640Y-164739000D01*
X65954360Y-164739000D01*
X65981938Y-164741716D01*
X65981938Y-164741716D01*
G37*
G36*
X71359800Y-165862101D02*
G01*
X71362202Y-165886487D01*
X71369315Y-165909936D01*
X71380866Y-165931547D01*
X71396411Y-165950489D01*
X71415353Y-165966034D01*
X71436964Y-165977585D01*
X71459800Y-165984512D01*
X71459800Y-166691688D01*
X71436964Y-166698615D01*
X71415353Y-166710166D01*
X71396411Y-166725711D01*
X71380866Y-166744653D01*
X71369315Y-166766264D01*
X71362202Y-166789713D01*
X71359800Y-166814099D01*
X71359800Y-167439100D01*
X69457800Y-167439100D01*
X69457800Y-166814099D01*
X69455398Y-166789713D01*
X69448285Y-166766264D01*
X69436734Y-166744653D01*
X69421189Y-166725711D01*
X69402247Y-166710166D01*
X69380636Y-166698615D01*
X69357800Y-166691688D01*
X69357800Y-166384512D01*
X69380636Y-166377585D01*
X69402247Y-166366034D01*
X69404604Y-166364099D01*
X69959800Y-166364099D01*
X69959800Y-166712101D01*
X69962202Y-166736487D01*
X69969315Y-166759936D01*
X69980866Y-166781547D01*
X69996411Y-166800489D01*
X70015353Y-166816034D01*
X70036964Y-166827585D01*
X70060413Y-166834698D01*
X70084799Y-166837100D01*
X70732801Y-166837100D01*
X70757187Y-166834698D01*
X70780636Y-166827585D01*
X70802247Y-166816034D01*
X70821189Y-166800489D01*
X70836734Y-166781547D01*
X70848285Y-166759936D01*
X70855398Y-166736487D01*
X70857800Y-166712101D01*
X70857800Y-166364099D01*
X70855398Y-166339713D01*
X70848285Y-166316264D01*
X70836734Y-166294653D01*
X70821189Y-166275711D01*
X70802247Y-166260166D01*
X70780636Y-166248615D01*
X70757187Y-166241502D01*
X70732801Y-166239100D01*
X70084799Y-166239100D01*
X70060413Y-166241502D01*
X70036964Y-166248615D01*
X70015353Y-166260166D01*
X69996411Y-166275711D01*
X69980866Y-166294653D01*
X69969315Y-166316264D01*
X69962202Y-166339713D01*
X69959800Y-166364099D01*
X69404604Y-166364099D01*
X69421189Y-166350489D01*
X69436734Y-166331547D01*
X69448285Y-166309936D01*
X69455398Y-166286487D01*
X69457800Y-166262101D01*
X69457800Y-165637100D01*
X71359800Y-165637100D01*
X71359800Y-165862101D01*
X71359800Y-165862101D01*
G37*
G36*
X67632138Y-166683716D02*
G01*
X67652757Y-166689971D01*
X67671753Y-166700124D01*
X67688408Y-166713792D01*
X67702076Y-166730447D01*
X67712229Y-166749443D01*
X67718484Y-166770062D01*
X67721200Y-166797640D01*
X67721200Y-167306360D01*
X67718484Y-167333938D01*
X67712229Y-167354557D01*
X67702076Y-167373553D01*
X67688408Y-167390208D01*
X67671753Y-167403876D01*
X67652757Y-167414029D01*
X67632138Y-167420284D01*
X67604560Y-167423000D01*
X67145840Y-167423000D01*
X67118262Y-167420284D01*
X67097643Y-167414029D01*
X67078647Y-167403876D01*
X67061992Y-167390208D01*
X67048324Y-167373553D01*
X67038171Y-167354557D01*
X67031916Y-167333938D01*
X67029200Y-167306360D01*
X67029200Y-166797640D01*
X67031916Y-166770062D01*
X67038171Y-166749443D01*
X67048324Y-166730447D01*
X67061992Y-166713792D01*
X67078647Y-166700124D01*
X67097643Y-166689971D01*
X67118262Y-166683716D01*
X67145840Y-166681000D01*
X67604560Y-166681000D01*
X67632138Y-166683716D01*
X67632138Y-166683716D01*
G37*
G36*
X66662138Y-166683716D02*
G01*
X66682757Y-166689971D01*
X66701753Y-166700124D01*
X66718408Y-166713792D01*
X66732076Y-166730447D01*
X66742229Y-166749443D01*
X66748484Y-166770062D01*
X66751200Y-166797640D01*
X66751200Y-167306360D01*
X66748484Y-167333938D01*
X66742229Y-167354557D01*
X66732076Y-167373553D01*
X66718408Y-167390208D01*
X66701753Y-167403876D01*
X66682757Y-167414029D01*
X66662138Y-167420284D01*
X66634560Y-167423000D01*
X66175840Y-167423000D01*
X66148262Y-167420284D01*
X66127643Y-167414029D01*
X66108647Y-167403876D01*
X66091992Y-167390208D01*
X66078324Y-167373553D01*
X66068171Y-167354557D01*
X66061916Y-167333938D01*
X66059200Y-167306360D01*
X66059200Y-166797640D01*
X66061916Y-166770062D01*
X66068171Y-166749443D01*
X66078324Y-166730447D01*
X66091992Y-166713792D01*
X66108647Y-166700124D01*
X66127643Y-166689971D01*
X66148262Y-166683716D01*
X66175840Y-166681000D01*
X66634560Y-166681000D01*
X66662138Y-166683716D01*
X66662138Y-166683716D01*
G37*
G36*
X69014338Y-166664116D02*
G01*
X69034957Y-166670371D01*
X69053953Y-166680524D01*
X69070608Y-166694192D01*
X69084276Y-166710847D01*
X69094429Y-166729843D01*
X69100684Y-166750462D01*
X69103400Y-166778040D01*
X69103400Y-167236760D01*
X69100684Y-167264338D01*
X69094429Y-167284957D01*
X69084276Y-167303953D01*
X69070608Y-167320608D01*
X69053953Y-167334276D01*
X69034957Y-167344429D01*
X69014338Y-167350684D01*
X68986760Y-167353400D01*
X68478040Y-167353400D01*
X68450462Y-167350684D01*
X68429843Y-167344429D01*
X68410847Y-167334276D01*
X68394192Y-167320608D01*
X68380524Y-167303953D01*
X68370371Y-167284957D01*
X68364116Y-167264338D01*
X68361400Y-167236760D01*
X68361400Y-166778040D01*
X68364116Y-166750462D01*
X68370371Y-166729843D01*
X68380524Y-166710847D01*
X68394192Y-166694192D01*
X68410847Y-166680524D01*
X68429843Y-166670371D01*
X68450462Y-166664116D01*
X68478040Y-166661400D01*
X68986760Y-166661400D01*
X69014338Y-166664116D01*
X69014338Y-166664116D01*
G37*
G36*
X80342738Y-166303716D02*
G01*
X80363357Y-166309971D01*
X80382353Y-166320124D01*
X80399008Y-166333792D01*
X80412676Y-166350447D01*
X80422829Y-166369443D01*
X80429084Y-166390062D01*
X80431800Y-166417640D01*
X80431800Y-166876360D01*
X80429084Y-166903938D01*
X80422829Y-166924557D01*
X80412676Y-166943553D01*
X80399008Y-166960208D01*
X80382353Y-166973876D01*
X80363357Y-166984029D01*
X80342738Y-166990284D01*
X80315160Y-166993000D01*
X79806440Y-166993000D01*
X79778862Y-166990284D01*
X79758243Y-166984029D01*
X79739247Y-166973876D01*
X79722592Y-166960208D01*
X79708924Y-166943553D01*
X79698771Y-166924557D01*
X79692516Y-166903938D01*
X79689800Y-166876360D01*
X79689800Y-166417640D01*
X79692516Y-166390062D01*
X79698771Y-166369443D01*
X79708924Y-166350447D01*
X79722592Y-166333792D01*
X79739247Y-166320124D01*
X79758243Y-166309971D01*
X79778862Y-166303716D01*
X79806440Y-166301000D01*
X80315160Y-166301000D01*
X80342738Y-166303716D01*
X80342738Y-166303716D01*
G37*
G36*
X85752938Y-166288216D02*
G01*
X85773557Y-166294471D01*
X85792553Y-166304624D01*
X85809208Y-166318292D01*
X85822876Y-166334947D01*
X85833029Y-166353943D01*
X85839284Y-166374562D01*
X85842000Y-166402140D01*
X85842000Y-166860860D01*
X85839284Y-166888438D01*
X85833029Y-166909057D01*
X85822876Y-166928053D01*
X85809208Y-166944708D01*
X85792553Y-166958376D01*
X85773557Y-166968529D01*
X85752938Y-166974784D01*
X85725360Y-166977500D01*
X85216640Y-166977500D01*
X85189062Y-166974784D01*
X85168443Y-166968529D01*
X85149447Y-166958376D01*
X85132792Y-166944708D01*
X85119124Y-166928053D01*
X85108971Y-166909057D01*
X85102716Y-166888438D01*
X85100000Y-166860860D01*
X85100000Y-166402140D01*
X85102716Y-166374562D01*
X85108971Y-166353943D01*
X85119124Y-166334947D01*
X85132792Y-166318292D01*
X85149447Y-166304624D01*
X85168443Y-166294471D01*
X85189062Y-166288216D01*
X85216640Y-166285500D01*
X85725360Y-166285500D01*
X85752938Y-166288216D01*
X85752938Y-166288216D01*
G37*
G36*
X69014338Y-165694116D02*
G01*
X69034957Y-165700371D01*
X69053953Y-165710524D01*
X69070608Y-165724192D01*
X69084276Y-165740847D01*
X69094429Y-165759843D01*
X69100684Y-165780462D01*
X69103400Y-165808040D01*
X69103400Y-166266760D01*
X69100684Y-166294338D01*
X69094429Y-166314957D01*
X69084276Y-166333953D01*
X69070608Y-166350608D01*
X69053953Y-166364276D01*
X69034957Y-166374429D01*
X69014338Y-166380684D01*
X68986760Y-166383400D01*
X68478040Y-166383400D01*
X68450462Y-166380684D01*
X68429843Y-166374429D01*
X68410847Y-166364276D01*
X68394192Y-166350608D01*
X68380524Y-166333953D01*
X68370371Y-166314957D01*
X68364116Y-166294338D01*
X68361400Y-166266760D01*
X68361400Y-165808040D01*
X68364116Y-165780462D01*
X68370371Y-165759843D01*
X68380524Y-165740847D01*
X68394192Y-165724192D01*
X68410847Y-165710524D01*
X68429843Y-165700371D01*
X68450462Y-165694116D01*
X68478040Y-165691400D01*
X68986760Y-165691400D01*
X69014338Y-165694116D01*
X69014338Y-165694116D01*
G37*
G36*
X94060721Y-165170174D02*
G01*
X94160995Y-165211709D01*
X94160996Y-165211710D01*
X94251242Y-165272010D01*
X94327990Y-165348758D01*
X94337210Y-165362557D01*
X94388291Y-165439005D01*
X94429826Y-165539279D01*
X94451000Y-165645730D01*
X94451000Y-165754270D01*
X94429826Y-165860721D01*
X94388291Y-165960995D01*
X94375716Y-165979815D01*
X94327990Y-166051242D01*
X94251242Y-166127990D01*
X94205812Y-166158345D01*
X94160995Y-166188291D01*
X94060721Y-166229826D01*
X93954270Y-166251000D01*
X93845730Y-166251000D01*
X93739279Y-166229826D01*
X93639005Y-166188291D01*
X93594188Y-166158345D01*
X93548758Y-166127990D01*
X93472010Y-166051242D01*
X93424284Y-165979815D01*
X93411709Y-165960995D01*
X93370174Y-165860721D01*
X93349000Y-165754270D01*
X93349000Y-165645730D01*
X93370174Y-165539279D01*
X93411709Y-165439005D01*
X93462790Y-165362557D01*
X93472010Y-165348758D01*
X93548758Y-165272010D01*
X93639004Y-165211710D01*
X93639005Y-165211709D01*
X93739279Y-165170174D01*
X93845730Y-165149000D01*
X93954270Y-165149000D01*
X94060721Y-165170174D01*
X94060721Y-165170174D01*
G37*
G36*
X80342738Y-165292516D02*
G01*
X80363357Y-165298771D01*
X80382353Y-165308924D01*
X80399008Y-165322592D01*
X80412676Y-165339247D01*
X80422829Y-165358243D01*
X80429084Y-165378862D01*
X80431800Y-165406440D01*
X80431800Y-165865160D01*
X80429084Y-165892738D01*
X80422829Y-165913357D01*
X80412676Y-165932353D01*
X80399008Y-165949008D01*
X80382353Y-165962676D01*
X80363357Y-165972829D01*
X80342738Y-165979084D01*
X80315160Y-165981800D01*
X79806440Y-165981800D01*
X79778862Y-165979084D01*
X79758243Y-165972829D01*
X79739247Y-165962676D01*
X79722592Y-165949008D01*
X79708924Y-165932353D01*
X79698771Y-165913357D01*
X79692516Y-165892738D01*
X79689800Y-165865160D01*
X79689800Y-165406440D01*
X79692516Y-165378862D01*
X79698771Y-165358243D01*
X79708924Y-165339247D01*
X79722592Y-165322592D01*
X79739247Y-165308924D01*
X79758243Y-165298771D01*
X79778862Y-165292516D01*
X79806440Y-165289800D01*
X80315160Y-165289800D01*
X80342738Y-165292516D01*
X80342738Y-165292516D01*
G37*
G36*
X72181938Y-164641716D02*
G01*
X72202557Y-164647971D01*
X72221553Y-164658124D01*
X72238208Y-164671792D01*
X72251876Y-164688447D01*
X72262029Y-164707443D01*
X72268284Y-164728062D01*
X72271000Y-164755640D01*
X72271000Y-165214360D01*
X72268284Y-165241938D01*
X72262029Y-165262557D01*
X72251876Y-165281553D01*
X72238208Y-165298208D01*
X72221553Y-165311876D01*
X72202557Y-165322029D01*
X72181938Y-165328284D01*
X72154360Y-165331000D01*
X71645640Y-165331000D01*
X71618062Y-165328284D01*
X71597443Y-165322029D01*
X71578447Y-165311876D01*
X71561792Y-165298208D01*
X71548124Y-165281553D01*
X71537971Y-165262557D01*
X71531716Y-165241938D01*
X71529000Y-165214360D01*
X71529000Y-164755640D01*
X71531716Y-164728062D01*
X71537971Y-164707443D01*
X71548124Y-164688447D01*
X71561792Y-164671792D01*
X71578447Y-164658124D01*
X71597443Y-164647971D01*
X71618062Y-164641716D01*
X71645640Y-164639000D01*
X72154360Y-164639000D01*
X72181938Y-164641716D01*
X72181938Y-164641716D01*
G37*
G36*
X80342738Y-164322516D02*
G01*
X80363357Y-164328771D01*
X80382353Y-164338924D01*
X80399008Y-164352592D01*
X80412676Y-164369247D01*
X80422829Y-164388243D01*
X80429084Y-164408862D01*
X80431800Y-164436440D01*
X80431800Y-164895160D01*
X80429084Y-164922738D01*
X80422829Y-164943357D01*
X80412676Y-164962353D01*
X80399008Y-164979008D01*
X80382353Y-164992676D01*
X80363357Y-165002829D01*
X80342738Y-165009084D01*
X80315160Y-165011800D01*
X79806440Y-165011800D01*
X79778862Y-165009084D01*
X79758243Y-165002829D01*
X79739247Y-164992676D01*
X79722592Y-164979008D01*
X79708924Y-164962353D01*
X79698771Y-164943357D01*
X79692516Y-164922738D01*
X79689800Y-164895160D01*
X79689800Y-164436440D01*
X79692516Y-164408862D01*
X79698771Y-164388243D01*
X79708924Y-164369247D01*
X79722592Y-164352592D01*
X79739247Y-164338924D01*
X79758243Y-164328771D01*
X79778862Y-164322516D01*
X79806440Y-164319800D01*
X80315160Y-164319800D01*
X80342738Y-164322516D01*
X80342738Y-164322516D01*
G37*
G36*
X97110442Y-163185518D02*
G01*
X97176627Y-163192037D01*
X97346466Y-163243557D01*
X97502991Y-163327222D01*
X97538729Y-163356552D01*
X97640186Y-163439814D01*
X97723448Y-163541271D01*
X97752778Y-163577009D01*
X97836443Y-163733534D01*
X97887963Y-163903373D01*
X97905359Y-164080000D01*
X97887963Y-164256627D01*
X97836443Y-164426466D01*
X97752778Y-164582991D01*
X97723448Y-164618729D01*
X97640186Y-164720186D01*
X97557008Y-164788447D01*
X97502991Y-164832778D01*
X97346466Y-164916443D01*
X97176627Y-164967963D01*
X97110443Y-164974481D01*
X97044260Y-164981000D01*
X96955740Y-164981000D01*
X96889557Y-164974481D01*
X96823373Y-164967963D01*
X96653534Y-164916443D01*
X96497009Y-164832778D01*
X96442992Y-164788447D01*
X96359814Y-164720186D01*
X96276552Y-164618729D01*
X96247222Y-164582991D01*
X96163557Y-164426466D01*
X96112037Y-164256627D01*
X96094641Y-164080000D01*
X96112037Y-163903373D01*
X96163557Y-163733534D01*
X96247222Y-163577009D01*
X96276552Y-163541271D01*
X96359814Y-163439814D01*
X96461271Y-163356552D01*
X96497009Y-163327222D01*
X96653534Y-163243557D01*
X96823373Y-163192037D01*
X96889558Y-163185518D01*
X96955740Y-163179000D01*
X97044260Y-163179000D01*
X97110442Y-163185518D01*
X97110442Y-163185518D01*
G37*
G36*
X65981938Y-163771716D02*
G01*
X66002557Y-163777971D01*
X66021553Y-163788124D01*
X66038208Y-163801792D01*
X66051876Y-163818447D01*
X66062029Y-163837443D01*
X66068284Y-163858062D01*
X66071000Y-163885640D01*
X66071000Y-164344360D01*
X66068284Y-164371938D01*
X66062029Y-164392557D01*
X66051876Y-164411553D01*
X66038208Y-164428208D01*
X66021553Y-164441876D01*
X66002557Y-164452029D01*
X65981938Y-164458284D01*
X65954360Y-164461000D01*
X65445640Y-164461000D01*
X65418062Y-164458284D01*
X65397443Y-164452029D01*
X65378447Y-164441876D01*
X65361792Y-164428208D01*
X65348124Y-164411553D01*
X65337971Y-164392557D01*
X65331716Y-164371938D01*
X65329000Y-164344360D01*
X65329000Y-163885640D01*
X65331716Y-163858062D01*
X65337971Y-163837443D01*
X65348124Y-163818447D01*
X65361792Y-163801792D01*
X65378447Y-163788124D01*
X65397443Y-163777971D01*
X65418062Y-163771716D01*
X65445640Y-163769000D01*
X65954360Y-163769000D01*
X65981938Y-163771716D01*
X65981938Y-163771716D01*
G37*
G36*
X72181938Y-163671716D02*
G01*
X72202557Y-163677971D01*
X72221553Y-163688124D01*
X72238208Y-163701792D01*
X72251876Y-163718447D01*
X72262029Y-163737443D01*
X72268284Y-163758062D01*
X72271000Y-163785640D01*
X72271000Y-164244360D01*
X72268284Y-164271938D01*
X72262029Y-164292557D01*
X72251876Y-164311553D01*
X72238208Y-164328208D01*
X72221553Y-164341876D01*
X72202557Y-164352029D01*
X72181938Y-164358284D01*
X72154360Y-164361000D01*
X71645640Y-164361000D01*
X71618062Y-164358284D01*
X71597443Y-164352029D01*
X71578447Y-164341876D01*
X71561792Y-164328208D01*
X71548124Y-164311553D01*
X71537971Y-164292557D01*
X71531716Y-164271938D01*
X71529000Y-164244360D01*
X71529000Y-163785640D01*
X71531716Y-163758062D01*
X71537971Y-163737443D01*
X71548124Y-163718447D01*
X71561792Y-163701792D01*
X71578447Y-163688124D01*
X71597443Y-163677971D01*
X71618062Y-163671716D01*
X71645640Y-163669000D01*
X72154360Y-163669000D01*
X72181938Y-163671716D01*
X72181938Y-163671716D01*
G37*
G36*
X97110442Y-160645518D02*
G01*
X97176627Y-160652037D01*
X97346466Y-160703557D01*
X97346468Y-160703558D01*
X97359680Y-160710620D01*
X97502991Y-160787222D01*
X97513549Y-160795887D01*
X97640186Y-160899814D01*
X97718818Y-160995629D01*
X97752778Y-161037009D01*
X97836443Y-161193534D01*
X97887963Y-161363373D01*
X97905359Y-161540000D01*
X97887963Y-161716627D01*
X97836443Y-161886466D01*
X97752778Y-162042991D01*
X97723448Y-162078729D01*
X97640186Y-162180186D01*
X97538729Y-162263448D01*
X97502991Y-162292778D01*
X97346466Y-162376443D01*
X97176627Y-162427963D01*
X97110443Y-162434481D01*
X97044260Y-162441000D01*
X96955740Y-162441000D01*
X96889557Y-162434481D01*
X96823373Y-162427963D01*
X96653534Y-162376443D01*
X96497009Y-162292778D01*
X96461271Y-162263448D01*
X96359814Y-162180186D01*
X96276552Y-162078729D01*
X96247222Y-162042991D01*
X96163557Y-161886466D01*
X96112037Y-161716627D01*
X96094641Y-161540000D01*
X96112037Y-161363373D01*
X96163557Y-161193534D01*
X96247222Y-161037009D01*
X96281182Y-160995629D01*
X96359814Y-160899814D01*
X96486451Y-160795887D01*
X96497009Y-160787222D01*
X96640320Y-160710620D01*
X96653532Y-160703558D01*
X96653534Y-160703557D01*
X96823373Y-160652037D01*
X96889558Y-160645518D01*
X96955740Y-160639000D01*
X97044260Y-160639000D01*
X97110442Y-160645518D01*
X97110442Y-160645518D01*
G37*
G36*
X73167866Y-160477385D02*
G01*
X73188485Y-160483640D01*
X73207481Y-160493793D01*
X73228902Y-160511373D01*
X73588627Y-160871098D01*
X73606207Y-160892519D01*
X73616360Y-160911515D01*
X73622615Y-160932134D01*
X73624726Y-160953572D01*
X73622615Y-160975010D01*
X73616360Y-160995629D01*
X73606207Y-161014625D01*
X73588627Y-161036046D01*
X73264258Y-161360415D01*
X73242837Y-161377995D01*
X73223841Y-161388148D01*
X73203222Y-161394403D01*
X73181784Y-161396514D01*
X73160346Y-161394403D01*
X73139727Y-161388148D01*
X73120731Y-161377995D01*
X73099310Y-161360415D01*
X72739585Y-161000690D01*
X72722005Y-160979269D01*
X72711852Y-160960273D01*
X72705597Y-160939654D01*
X72703486Y-160918216D01*
X72705597Y-160896778D01*
X72711852Y-160876159D01*
X72722005Y-160857163D01*
X72739585Y-160835742D01*
X73063954Y-160511373D01*
X73085375Y-160493793D01*
X73104371Y-160483640D01*
X73124990Y-160477385D01*
X73146428Y-160475274D01*
X73167866Y-160477385D01*
X73167866Y-160477385D01*
G37*
G36*
X73853760Y-159791491D02*
G01*
X73874379Y-159797746D01*
X73893375Y-159807899D01*
X73914796Y-159825479D01*
X74274521Y-160185204D01*
X74292101Y-160206625D01*
X74302254Y-160225621D01*
X74308509Y-160246240D01*
X74310620Y-160267678D01*
X74308509Y-160289116D01*
X74302254Y-160309735D01*
X74292101Y-160328731D01*
X74274521Y-160350152D01*
X73950152Y-160674521D01*
X73928731Y-160692101D01*
X73909735Y-160702254D01*
X73889116Y-160708509D01*
X73867678Y-160710620D01*
X73846240Y-160708509D01*
X73825621Y-160702254D01*
X73806625Y-160692101D01*
X73785204Y-160674521D01*
X73425479Y-160314796D01*
X73407899Y-160293375D01*
X73397746Y-160274379D01*
X73391491Y-160253760D01*
X73389380Y-160232322D01*
X73391491Y-160210884D01*
X73397746Y-160190265D01*
X73407899Y-160171269D01*
X73425479Y-160149848D01*
X73749848Y-159825479D01*
X73771269Y-159807899D01*
X73790265Y-159797746D01*
X73810884Y-159791491D01*
X73832322Y-159789380D01*
X73853760Y-159791491D01*
X73853760Y-159791491D01*
G37*
G36*
X93351000Y-160651000D02*
G01*
X92799000Y-160651000D01*
X92799000Y-160149000D01*
X93351000Y-160149000D01*
X93351000Y-160651000D01*
X93351000Y-160651000D01*
G37*
G36*
X88171938Y-159731716D02*
G01*
X88192557Y-159737971D01*
X88211553Y-159748124D01*
X88228208Y-159761792D01*
X88241876Y-159778447D01*
X88252029Y-159797443D01*
X88258284Y-159818062D01*
X88261000Y-159845640D01*
X88261000Y-160354360D01*
X88258284Y-160381938D01*
X88252029Y-160402557D01*
X88241876Y-160421553D01*
X88228208Y-160438208D01*
X88211553Y-160451876D01*
X88192557Y-160462029D01*
X88171938Y-160468284D01*
X88144360Y-160471000D01*
X87685640Y-160471000D01*
X87658062Y-160468284D01*
X87637443Y-160462029D01*
X87618447Y-160451876D01*
X87601792Y-160438208D01*
X87588124Y-160421553D01*
X87577971Y-160402557D01*
X87571716Y-160381938D01*
X87569000Y-160354360D01*
X87569000Y-159845640D01*
X87571716Y-159818062D01*
X87577971Y-159797443D01*
X87588124Y-159778447D01*
X87601792Y-159761792D01*
X87618447Y-159748124D01*
X87637443Y-159737971D01*
X87658062Y-159731716D01*
X87685640Y-159729000D01*
X88144360Y-159729000D01*
X88171938Y-159731716D01*
X88171938Y-159731716D01*
G37*
G36*
X89141938Y-159731716D02*
G01*
X89162557Y-159737971D01*
X89181553Y-159748124D01*
X89198208Y-159761792D01*
X89211876Y-159778447D01*
X89222029Y-159797443D01*
X89228284Y-159818062D01*
X89231000Y-159845640D01*
X89231000Y-160354360D01*
X89228284Y-160381938D01*
X89222029Y-160402557D01*
X89211876Y-160421553D01*
X89198208Y-160438208D01*
X89181553Y-160451876D01*
X89162557Y-160462029D01*
X89141938Y-160468284D01*
X89114360Y-160471000D01*
X88655640Y-160471000D01*
X88628062Y-160468284D01*
X88607443Y-160462029D01*
X88588447Y-160451876D01*
X88571792Y-160438208D01*
X88558124Y-160421553D01*
X88547971Y-160402557D01*
X88541716Y-160381938D01*
X88539000Y-160354360D01*
X88539000Y-159845640D01*
X88541716Y-159818062D01*
X88547971Y-159797443D01*
X88558124Y-159778447D01*
X88571792Y-159761792D01*
X88588447Y-159748124D01*
X88607443Y-159737971D01*
X88628062Y-159731716D01*
X88655640Y-159729000D01*
X89114360Y-159729000D01*
X89141938Y-159731716D01*
X89141938Y-159731716D01*
G37*
G36*
X90171938Y-159731716D02*
G01*
X90192557Y-159737971D01*
X90211553Y-159748124D01*
X90228208Y-159761792D01*
X90241876Y-159778447D01*
X90252029Y-159797443D01*
X90258284Y-159818062D01*
X90261000Y-159845640D01*
X90261000Y-160354360D01*
X90258284Y-160381938D01*
X90252029Y-160402557D01*
X90241876Y-160421553D01*
X90228208Y-160438208D01*
X90211553Y-160451876D01*
X90192557Y-160462029D01*
X90171938Y-160468284D01*
X90144360Y-160471000D01*
X89685640Y-160471000D01*
X89658062Y-160468284D01*
X89637443Y-160462029D01*
X89618447Y-160451876D01*
X89601792Y-160438208D01*
X89588124Y-160421553D01*
X89577971Y-160402557D01*
X89571716Y-160381938D01*
X89569000Y-160354360D01*
X89569000Y-159845640D01*
X89571716Y-159818062D01*
X89577971Y-159797443D01*
X89588124Y-159778447D01*
X89601792Y-159761792D01*
X89618447Y-159748124D01*
X89637443Y-159737971D01*
X89658062Y-159731716D01*
X89685640Y-159729000D01*
X90144360Y-159729000D01*
X90171938Y-159731716D01*
X90171938Y-159731716D01*
G37*
G36*
X91141938Y-159731716D02*
G01*
X91162557Y-159737971D01*
X91181553Y-159748124D01*
X91198208Y-159761792D01*
X91211876Y-159778447D01*
X91222029Y-159797443D01*
X91228284Y-159818062D01*
X91231000Y-159845640D01*
X91231000Y-160354360D01*
X91228284Y-160381938D01*
X91222029Y-160402557D01*
X91211876Y-160421553D01*
X91198208Y-160438208D01*
X91181553Y-160451876D01*
X91162557Y-160462029D01*
X91141938Y-160468284D01*
X91114360Y-160471000D01*
X90655640Y-160471000D01*
X90628062Y-160468284D01*
X90607443Y-160462029D01*
X90588447Y-160451876D01*
X90571792Y-160438208D01*
X90558124Y-160421553D01*
X90547971Y-160402557D01*
X90541716Y-160381938D01*
X90539000Y-160354360D01*
X90539000Y-159845640D01*
X90541716Y-159818062D01*
X90547971Y-159797443D01*
X90558124Y-159778447D01*
X90571792Y-159761792D01*
X90588447Y-159748124D01*
X90607443Y-159737971D01*
X90628062Y-159731716D01*
X90655640Y-159729000D01*
X91114360Y-159729000D01*
X91141938Y-159731716D01*
X91141938Y-159731716D01*
G37*
G36*
X72160813Y-159484438D02*
G01*
X72181432Y-159490693D01*
X72200428Y-159500846D01*
X72221849Y-159518426D01*
X72581574Y-159878151D01*
X72599154Y-159899572D01*
X72609307Y-159918568D01*
X72615562Y-159939187D01*
X72617673Y-159960625D01*
X72615562Y-159982063D01*
X72609307Y-160002682D01*
X72599154Y-160021678D01*
X72581574Y-160043099D01*
X72257205Y-160367468D01*
X72235784Y-160385048D01*
X72216788Y-160395201D01*
X72196169Y-160401456D01*
X72174731Y-160403567D01*
X72153293Y-160401456D01*
X72132674Y-160395201D01*
X72113678Y-160385048D01*
X72092257Y-160367468D01*
X71732532Y-160007743D01*
X71714952Y-159986322D01*
X71704799Y-159967326D01*
X71698544Y-159946707D01*
X71696433Y-159925269D01*
X71698544Y-159903831D01*
X71704799Y-159883212D01*
X71714952Y-159864216D01*
X71732532Y-159842795D01*
X72056901Y-159518426D01*
X72078322Y-159500846D01*
X72097318Y-159490693D01*
X72117937Y-159484438D01*
X72139375Y-159482327D01*
X72160813Y-159484438D01*
X72160813Y-159484438D01*
G37*
G36*
X92201000Y-160301000D02*
G01*
X91649000Y-160301000D01*
X91649000Y-159699000D01*
X92201000Y-159699000D01*
X92201000Y-160301000D01*
X92201000Y-160301000D01*
G37*
G36*
X97901000Y-159901000D02*
G01*
X96099000Y-159901000D01*
X96099000Y-158099000D01*
X97901000Y-158099000D01*
X97901000Y-159901000D01*
X97901000Y-159901000D01*
G37*
G36*
X93351000Y-159851000D02*
G01*
X92799000Y-159851000D01*
X92799000Y-159349000D01*
X93351000Y-159349000D01*
X93351000Y-159851000D01*
X93351000Y-159851000D01*
G37*
G36*
X72846707Y-158798544D02*
G01*
X72867326Y-158804799D01*
X72886322Y-158814952D01*
X72907743Y-158832532D01*
X73267468Y-159192257D01*
X73285048Y-159213678D01*
X73295201Y-159232674D01*
X73301456Y-159253293D01*
X73303567Y-159274731D01*
X73301456Y-159296169D01*
X73295201Y-159316788D01*
X73285048Y-159335784D01*
X73267468Y-159357205D01*
X72943099Y-159681574D01*
X72921678Y-159699154D01*
X72902682Y-159709307D01*
X72882063Y-159715562D01*
X72860625Y-159717673D01*
X72839187Y-159715562D01*
X72818568Y-159709307D01*
X72799572Y-159699154D01*
X72778151Y-159681574D01*
X72418426Y-159321849D01*
X72400846Y-159300428D01*
X72390693Y-159281432D01*
X72384438Y-159260813D01*
X72382327Y-159239375D01*
X72384438Y-159217937D01*
X72390693Y-159197318D01*
X72400846Y-159178322D01*
X72418426Y-159156901D01*
X72742795Y-158832532D01*
X72764216Y-158814952D01*
X72783212Y-158804799D01*
X72803831Y-158798544D01*
X72825269Y-158796433D01*
X72846707Y-158798544D01*
X72846707Y-158798544D01*
G37*
G36*
X85167361Y-149732591D02*
G01*
X85174376Y-149734719D01*
X85180842Y-149738176D01*
X85191276Y-149746738D01*
X86332351Y-150887813D01*
X86340913Y-150898247D01*
X86344370Y-150904713D01*
X86346498Y-150911728D01*
X86347216Y-150919023D01*
X86346498Y-150926318D01*
X86344370Y-150933333D01*
X86340913Y-150939799D01*
X86332351Y-150950233D01*
X86110514Y-151172070D01*
X86100080Y-151180632D01*
X86093614Y-151184089D01*
X86078677Y-151188620D01*
X86056038Y-151197998D01*
X86035664Y-151211612D01*
X86018337Y-151228939D01*
X86004724Y-151249314D01*
X85995348Y-151271949D01*
X85990817Y-151286886D01*
X85987360Y-151293352D01*
X85978798Y-151303786D01*
X85756961Y-151525623D01*
X85746527Y-151534185D01*
X85740060Y-151537642D01*
X85725124Y-151542173D01*
X85702485Y-151551550D01*
X85682111Y-151565164D01*
X85664784Y-151582491D01*
X85651170Y-151602866D01*
X85641794Y-151625503D01*
X85637263Y-151640439D01*
X85633806Y-151646906D01*
X85625244Y-151657340D01*
X85403407Y-151879177D01*
X85392973Y-151887739D01*
X85386507Y-151891196D01*
X85371570Y-151895727D01*
X85348931Y-151905105D01*
X85328557Y-151918719D01*
X85311230Y-151936046D01*
X85297617Y-151956421D01*
X85288241Y-151979056D01*
X85283710Y-151993993D01*
X85280253Y-152000459D01*
X85271691Y-152010893D01*
X85049854Y-152232730D01*
X85039420Y-152241292D01*
X85032954Y-152244749D01*
X85018017Y-152249280D01*
X84995378Y-152258658D01*
X84975004Y-152272272D01*
X84957677Y-152289599D01*
X84944064Y-152309974D01*
X84934688Y-152332609D01*
X84930157Y-152347546D01*
X84926700Y-152354012D01*
X84918138Y-152364446D01*
X84696301Y-152586283D01*
X84685867Y-152594845D01*
X84679400Y-152598302D01*
X84664464Y-152602833D01*
X84641825Y-152612210D01*
X84621451Y-152625824D01*
X84604124Y-152643151D01*
X84590510Y-152663526D01*
X84581134Y-152686163D01*
X84576603Y-152701099D01*
X84573146Y-152707566D01*
X84564584Y-152718000D01*
X84342747Y-152939837D01*
X84332313Y-152948399D01*
X84325847Y-152951856D01*
X84310910Y-152956387D01*
X84288271Y-152965765D01*
X84267897Y-152979379D01*
X84250570Y-152996706D01*
X84236957Y-153017081D01*
X84227581Y-153039716D01*
X84223050Y-153054653D01*
X84219593Y-153061119D01*
X84211031Y-153071553D01*
X83989194Y-153293390D01*
X83978760Y-153301952D01*
X83972293Y-153305409D01*
X83957357Y-153309940D01*
X83934718Y-153319317D01*
X83914344Y-153332931D01*
X83897017Y-153350258D01*
X83883403Y-153370633D01*
X83874027Y-153393270D01*
X83869496Y-153408206D01*
X83866039Y-153414673D01*
X83857477Y-153425107D01*
X83635640Y-153646944D01*
X83625206Y-153655506D01*
X83618740Y-153658963D01*
X83603803Y-153663494D01*
X83581164Y-153672872D01*
X83560790Y-153686486D01*
X83543463Y-153703813D01*
X83529850Y-153724188D01*
X83520474Y-153746823D01*
X83515943Y-153761760D01*
X83512486Y-153768226D01*
X83503924Y-153778660D01*
X83282087Y-154000497D01*
X83271653Y-154009059D01*
X83265187Y-154012516D01*
X83250250Y-154017047D01*
X83227611Y-154026425D01*
X83207237Y-154040039D01*
X83189910Y-154057366D01*
X83176297Y-154077741D01*
X83166921Y-154100376D01*
X83162390Y-154115313D01*
X83158933Y-154121779D01*
X83150371Y-154132213D01*
X82928534Y-154354050D01*
X82918100Y-154362612D01*
X82911633Y-154366069D01*
X82896697Y-154370600D01*
X82874058Y-154379977D01*
X82853684Y-154393591D01*
X82836357Y-154410918D01*
X82822743Y-154431293D01*
X82813367Y-154453930D01*
X82808836Y-154468866D01*
X82805379Y-154475333D01*
X82796817Y-154485767D01*
X82574980Y-154707604D01*
X82564546Y-154716166D01*
X82558080Y-154719623D01*
X82543143Y-154724154D01*
X82520504Y-154733532D01*
X82500130Y-154747146D01*
X82482803Y-154764473D01*
X82469190Y-154784848D01*
X82459814Y-154807483D01*
X82455283Y-154822420D01*
X82451826Y-154828886D01*
X82443264Y-154839320D01*
X82221427Y-155061157D01*
X82210993Y-155069719D01*
X82204527Y-155073176D01*
X82189590Y-155077707D01*
X82166951Y-155087085D01*
X82146577Y-155100699D01*
X82129250Y-155118026D01*
X82115637Y-155138401D01*
X82106261Y-155161037D01*
X82101730Y-155175973D01*
X82098273Y-155182440D01*
X82089711Y-155192874D01*
X81867874Y-155414711D01*
X81857440Y-155423273D01*
X81850973Y-155426730D01*
X81836037Y-155431261D01*
X81813398Y-155440638D01*
X81793024Y-155454252D01*
X81775697Y-155471579D01*
X81762083Y-155491954D01*
X81752707Y-155514590D01*
X81748176Y-155529527D01*
X81744719Y-155535993D01*
X81736157Y-155546427D01*
X81514320Y-155768264D01*
X81503886Y-155776826D01*
X81497420Y-155780283D01*
X81482483Y-155784814D01*
X81459844Y-155794192D01*
X81439470Y-155807806D01*
X81422143Y-155825133D01*
X81408530Y-155845508D01*
X81399154Y-155868143D01*
X81394623Y-155883080D01*
X81391166Y-155889546D01*
X81382604Y-155899980D01*
X81160767Y-156121817D01*
X81150333Y-156130379D01*
X81143866Y-156133836D01*
X81128930Y-156138367D01*
X81106291Y-156147744D01*
X81085917Y-156161358D01*
X81068590Y-156178685D01*
X81054976Y-156199060D01*
X81045600Y-156221697D01*
X81041069Y-156236633D01*
X81037612Y-156243100D01*
X81029050Y-156253534D01*
X80807213Y-156475371D01*
X80796779Y-156483933D01*
X80790313Y-156487390D01*
X80775376Y-156491921D01*
X80752737Y-156501299D01*
X80732363Y-156514913D01*
X80715036Y-156532240D01*
X80701423Y-156552615D01*
X80692047Y-156575250D01*
X80687516Y-156590187D01*
X80684059Y-156596653D01*
X80675497Y-156607087D01*
X80453660Y-156828924D01*
X80443226Y-156837486D01*
X80436760Y-156840943D01*
X80421823Y-156845474D01*
X80399184Y-156854852D01*
X80378810Y-156868466D01*
X80361483Y-156885793D01*
X80347870Y-156906168D01*
X80338494Y-156928803D01*
X80333963Y-156943740D01*
X80330506Y-156950206D01*
X80321944Y-156960640D01*
X80100107Y-157182477D01*
X80089673Y-157191039D01*
X80083206Y-157194496D01*
X80068270Y-157199027D01*
X80045631Y-157208404D01*
X80025257Y-157222018D01*
X80007930Y-157239345D01*
X79994316Y-157259720D01*
X79984940Y-157282357D01*
X79980409Y-157297293D01*
X79976952Y-157303760D01*
X79968390Y-157314194D01*
X79746553Y-157536031D01*
X79736119Y-157544593D01*
X79729653Y-157548050D01*
X79714716Y-157552581D01*
X79692077Y-157561959D01*
X79671703Y-157575573D01*
X79654376Y-157592900D01*
X79640763Y-157613275D01*
X79631387Y-157635910D01*
X79626856Y-157650847D01*
X79623399Y-157657313D01*
X79614837Y-157667747D01*
X79393000Y-157889584D01*
X79382566Y-157898146D01*
X79376099Y-157901603D01*
X79361163Y-157906134D01*
X79338524Y-157915511D01*
X79318150Y-157929125D01*
X79300823Y-157946452D01*
X79287209Y-157966827D01*
X79277833Y-157989464D01*
X79273302Y-158004400D01*
X79269845Y-158010867D01*
X79261283Y-158021301D01*
X79039446Y-158243138D01*
X79029012Y-158251700D01*
X79022546Y-158255157D01*
X79007609Y-158259688D01*
X78984970Y-158269066D01*
X78964596Y-158282680D01*
X78947269Y-158300007D01*
X78933656Y-158320382D01*
X78924280Y-158343017D01*
X78919749Y-158357954D01*
X78916292Y-158364420D01*
X78907730Y-158374854D01*
X78685893Y-158596691D01*
X78675459Y-158605253D01*
X78668993Y-158608710D01*
X78654056Y-158613241D01*
X78631417Y-158622619D01*
X78611043Y-158636233D01*
X78593716Y-158653560D01*
X78580103Y-158673935D01*
X78570727Y-158696570D01*
X78566196Y-158711507D01*
X78562739Y-158717973D01*
X78554177Y-158728407D01*
X78332340Y-158950244D01*
X78321906Y-158958806D01*
X78315439Y-158962263D01*
X78300503Y-158966794D01*
X78277864Y-158976171D01*
X78257490Y-158989785D01*
X78240163Y-159007112D01*
X78226549Y-159027487D01*
X78217173Y-159050124D01*
X78212642Y-159065060D01*
X78209185Y-159071527D01*
X78200623Y-159081961D01*
X77978786Y-159303798D01*
X77968352Y-159312360D01*
X77961886Y-159315817D01*
X77946949Y-159320348D01*
X77924310Y-159329726D01*
X77903936Y-159343340D01*
X77886609Y-159360667D01*
X77872996Y-159381042D01*
X77863620Y-159403677D01*
X77859089Y-159418614D01*
X77855632Y-159425080D01*
X77847070Y-159435514D01*
X77625233Y-159657351D01*
X77614799Y-159665913D01*
X77608333Y-159669370D01*
X77601318Y-159671498D01*
X77594023Y-159672216D01*
X77586728Y-159671498D01*
X77579713Y-159669370D01*
X77573247Y-159665913D01*
X77562813Y-159657351D01*
X76421738Y-158516276D01*
X76413176Y-158505842D01*
X76409719Y-158499376D01*
X76407591Y-158492361D01*
X76406873Y-158485066D01*
X76407591Y-158477771D01*
X76409719Y-158470756D01*
X76413176Y-158464290D01*
X76421738Y-158453856D01*
X76643575Y-158232019D01*
X76654009Y-158223457D01*
X76660475Y-158220000D01*
X76675412Y-158215469D01*
X76698051Y-158206091D01*
X76718425Y-158192477D01*
X76735752Y-158175150D01*
X76749365Y-158154775D01*
X76758741Y-158132140D01*
X76763272Y-158117203D01*
X76766729Y-158110737D01*
X76775291Y-158100303D01*
X76997128Y-157878466D01*
X77007562Y-157869904D01*
X77014029Y-157866447D01*
X77028965Y-157861916D01*
X77051604Y-157852539D01*
X77071978Y-157838925D01*
X77089305Y-157821598D01*
X77102919Y-157801223D01*
X77112295Y-157778586D01*
X77116826Y-157763650D01*
X77120283Y-157757183D01*
X77128845Y-157746749D01*
X77350682Y-157524912D01*
X77361116Y-157516350D01*
X77367582Y-157512893D01*
X77382519Y-157508362D01*
X77405158Y-157498984D01*
X77425532Y-157485370D01*
X77442859Y-157468043D01*
X77456472Y-157447668D01*
X77465848Y-157425033D01*
X77470379Y-157410096D01*
X77473836Y-157403630D01*
X77482398Y-157393196D01*
X77704235Y-157171359D01*
X77714669Y-157162797D01*
X77721135Y-157159340D01*
X77736072Y-157154809D01*
X77758711Y-157145431D01*
X77779085Y-157131817D01*
X77796412Y-157114490D01*
X77810025Y-157094115D01*
X77819401Y-157071480D01*
X77823932Y-157056543D01*
X77827389Y-157050077D01*
X77835951Y-157039643D01*
X78057788Y-156817806D01*
X78068222Y-156809244D01*
X78074689Y-156805787D01*
X78089625Y-156801256D01*
X78112264Y-156791879D01*
X78132638Y-156778265D01*
X78149965Y-156760938D01*
X78163579Y-156740563D01*
X78172955Y-156717926D01*
X78177486Y-156702990D01*
X78180943Y-156696523D01*
X78189505Y-156686089D01*
X78411342Y-156464252D01*
X78421776Y-156455690D01*
X78428242Y-156452233D01*
X78443179Y-156447702D01*
X78465818Y-156438324D01*
X78486192Y-156424710D01*
X78503519Y-156407383D01*
X78517132Y-156387008D01*
X78526508Y-156364373D01*
X78531039Y-156349436D01*
X78534496Y-156342970D01*
X78543058Y-156332536D01*
X78764895Y-156110699D01*
X78775329Y-156102137D01*
X78781796Y-156098680D01*
X78796732Y-156094149D01*
X78819371Y-156084772D01*
X78839745Y-156071158D01*
X78857072Y-156053831D01*
X78870686Y-156033456D01*
X78880062Y-156010819D01*
X78884593Y-155995883D01*
X78888050Y-155989416D01*
X78896612Y-155978982D01*
X79118449Y-155757145D01*
X79128883Y-155748583D01*
X79135349Y-155745126D01*
X79150286Y-155740595D01*
X79172925Y-155731217D01*
X79193299Y-155717603D01*
X79210626Y-155700276D01*
X79224239Y-155679901D01*
X79233615Y-155657266D01*
X79238146Y-155642329D01*
X79241603Y-155635863D01*
X79250165Y-155625429D01*
X79472002Y-155403592D01*
X79482436Y-155395030D01*
X79488902Y-155391573D01*
X79503839Y-155387042D01*
X79526478Y-155377664D01*
X79546852Y-155364050D01*
X79564179Y-155346723D01*
X79577792Y-155326348D01*
X79587168Y-155303713D01*
X79591699Y-155288776D01*
X79595156Y-155282310D01*
X79603718Y-155271876D01*
X79825555Y-155050039D01*
X79835989Y-155041477D01*
X79842456Y-155038020D01*
X79857392Y-155033489D01*
X79880031Y-155024112D01*
X79900405Y-155010498D01*
X79917732Y-154993171D01*
X79931346Y-154972796D01*
X79940722Y-154950159D01*
X79945253Y-154935223D01*
X79948710Y-154928756D01*
X79957272Y-154918322D01*
X80179109Y-154696485D01*
X80189543Y-154687923D01*
X80196009Y-154684466D01*
X80210946Y-154679935D01*
X80233585Y-154670557D01*
X80253959Y-154656943D01*
X80271286Y-154639616D01*
X80284899Y-154619241D01*
X80294275Y-154596606D01*
X80298806Y-154581669D01*
X80302263Y-154575203D01*
X80310825Y-154564769D01*
X80532662Y-154342932D01*
X80543096Y-154334370D01*
X80549563Y-154330913D01*
X80564499Y-154326382D01*
X80587138Y-154317005D01*
X80607512Y-154303391D01*
X80624839Y-154286064D01*
X80638453Y-154265689D01*
X80647829Y-154243053D01*
X80652360Y-154228116D01*
X80655817Y-154221650D01*
X80664379Y-154211216D01*
X80886216Y-153989379D01*
X80896650Y-153980817D01*
X80903116Y-153977360D01*
X80918053Y-153972829D01*
X80940692Y-153963451D01*
X80961066Y-153949837D01*
X80978393Y-153932510D01*
X80992006Y-153912135D01*
X81001382Y-153889499D01*
X81005913Y-153874563D01*
X81009370Y-153868096D01*
X81017932Y-153857662D01*
X81239769Y-153635825D01*
X81250203Y-153627263D01*
X81256669Y-153623806D01*
X81271606Y-153619275D01*
X81294245Y-153609897D01*
X81314619Y-153596283D01*
X81331946Y-153578956D01*
X81345559Y-153558581D01*
X81354935Y-153535946D01*
X81359466Y-153521009D01*
X81362923Y-153514543D01*
X81371485Y-153504109D01*
X81593322Y-153282272D01*
X81603756Y-153273710D01*
X81610223Y-153270253D01*
X81625159Y-153265722D01*
X81647798Y-153256345D01*
X81668172Y-153242731D01*
X81685499Y-153225404D01*
X81699113Y-153205029D01*
X81708489Y-153182392D01*
X81713020Y-153167456D01*
X81716477Y-153160989D01*
X81725039Y-153150555D01*
X81946876Y-152928718D01*
X81957310Y-152920156D01*
X81963776Y-152916699D01*
X81978713Y-152912168D01*
X82001352Y-152902790D01*
X82021726Y-152889176D01*
X82039053Y-152871849D01*
X82052666Y-152851474D01*
X82062042Y-152828839D01*
X82066573Y-152813902D01*
X82070030Y-152807436D01*
X82078592Y-152797002D01*
X82300429Y-152575165D01*
X82310863Y-152566603D01*
X82317329Y-152563146D01*
X82332266Y-152558615D01*
X82354905Y-152549237D01*
X82375279Y-152535623D01*
X82392606Y-152518296D01*
X82406219Y-152497921D01*
X82415595Y-152475286D01*
X82420126Y-152460349D01*
X82423583Y-152453883D01*
X82432145Y-152443449D01*
X82653982Y-152221612D01*
X82664416Y-152213050D01*
X82670883Y-152209593D01*
X82685819Y-152205062D01*
X82708458Y-152195685D01*
X82728832Y-152182071D01*
X82746159Y-152164744D01*
X82759773Y-152144369D01*
X82769149Y-152121732D01*
X82773680Y-152106796D01*
X82777137Y-152100329D01*
X82785699Y-152089895D01*
X83007536Y-151868058D01*
X83017970Y-151859496D01*
X83024436Y-151856039D01*
X83039373Y-151851508D01*
X83062012Y-151842130D01*
X83082386Y-151828516D01*
X83099713Y-151811189D01*
X83113326Y-151790814D01*
X83122702Y-151768179D01*
X83127233Y-151753242D01*
X83130690Y-151746776D01*
X83139252Y-151736342D01*
X83361089Y-151514505D01*
X83371523Y-151505943D01*
X83377990Y-151502486D01*
X83392926Y-151497955D01*
X83415565Y-151488578D01*
X83435939Y-151474964D01*
X83453266Y-151457637D01*
X83466880Y-151437262D01*
X83476256Y-151414625D01*
X83480787Y-151399689D01*
X83484244Y-151393222D01*
X83492806Y-151382788D01*
X83714643Y-151160951D01*
X83725077Y-151152389D01*
X83731543Y-151148932D01*
X83746480Y-151144401D01*
X83769119Y-151135023D01*
X83789493Y-151121409D01*
X83806820Y-151104082D01*
X83820433Y-151083707D01*
X83829809Y-151061072D01*
X83834340Y-151046135D01*
X83837797Y-151039669D01*
X83846359Y-151029235D01*
X84068196Y-150807398D01*
X84078630Y-150798836D01*
X84085096Y-150795379D01*
X84100033Y-150790848D01*
X84122672Y-150781470D01*
X84143046Y-150767856D01*
X84160373Y-150750529D01*
X84173986Y-150730154D01*
X84183362Y-150707519D01*
X84187893Y-150692582D01*
X84191350Y-150686116D01*
X84199912Y-150675682D01*
X84421749Y-150453845D01*
X84432183Y-150445283D01*
X84438650Y-150441826D01*
X84453586Y-150437295D01*
X84476225Y-150427918D01*
X84496599Y-150414304D01*
X84513926Y-150396977D01*
X84527540Y-150376602D01*
X84536916Y-150353965D01*
X84541447Y-150339029D01*
X84544904Y-150332562D01*
X84553466Y-150322128D01*
X84775303Y-150100291D01*
X84785737Y-150091729D01*
X84792203Y-150088272D01*
X84807140Y-150083741D01*
X84829779Y-150074363D01*
X84850153Y-150060749D01*
X84867480Y-150043422D01*
X84881093Y-150023047D01*
X84890469Y-150000412D01*
X84895000Y-149985475D01*
X84898457Y-149979009D01*
X84907019Y-149968575D01*
X85128856Y-149746738D01*
X85139290Y-149738176D01*
X85145756Y-149734719D01*
X85152771Y-149732591D01*
X85160066Y-149731873D01*
X85167361Y-149732591D01*
X85167361Y-149732591D01*
G37*
G36*
X66747229Y-149732591D02*
G01*
X66754244Y-149734719D01*
X66760710Y-149738176D01*
X66771144Y-149746738D01*
X66992981Y-149968575D01*
X67001543Y-149979009D01*
X67005000Y-149985475D01*
X67009531Y-150000412D01*
X67018909Y-150023051D01*
X67032523Y-150043425D01*
X67049850Y-150060752D01*
X67070225Y-150074365D01*
X67092860Y-150083741D01*
X67107797Y-150088272D01*
X67114263Y-150091729D01*
X67124697Y-150100291D01*
X67346534Y-150322128D01*
X67355096Y-150332562D01*
X67358553Y-150339029D01*
X67363084Y-150353965D01*
X67372461Y-150376604D01*
X67386075Y-150396978D01*
X67403402Y-150414305D01*
X67423777Y-150427919D01*
X67446414Y-150437295D01*
X67461350Y-150441826D01*
X67467817Y-150445283D01*
X67478251Y-150453845D01*
X67700088Y-150675682D01*
X67708650Y-150686116D01*
X67712107Y-150692582D01*
X67716638Y-150707519D01*
X67726016Y-150730158D01*
X67739630Y-150750532D01*
X67756957Y-150767859D01*
X67777332Y-150781472D01*
X67799967Y-150790848D01*
X67814904Y-150795379D01*
X67821370Y-150798836D01*
X67831804Y-150807398D01*
X68053641Y-151029235D01*
X68062203Y-151039669D01*
X68065660Y-151046135D01*
X68070191Y-151061072D01*
X68079569Y-151083711D01*
X68093183Y-151104085D01*
X68110510Y-151121412D01*
X68130885Y-151135025D01*
X68153520Y-151144401D01*
X68168457Y-151148932D01*
X68174923Y-151152389D01*
X68185357Y-151160951D01*
X68407194Y-151382788D01*
X68415756Y-151393222D01*
X68419213Y-151399689D01*
X68423744Y-151414625D01*
X68433121Y-151437264D01*
X68446735Y-151457638D01*
X68464062Y-151474965D01*
X68484437Y-151488579D01*
X68507074Y-151497955D01*
X68522010Y-151502486D01*
X68528477Y-151505943D01*
X68538911Y-151514505D01*
X68760748Y-151736342D01*
X68769310Y-151746776D01*
X68772767Y-151753242D01*
X68777298Y-151768179D01*
X68786676Y-151790818D01*
X68800290Y-151811192D01*
X68817617Y-151828519D01*
X68837992Y-151842132D01*
X68860627Y-151851508D01*
X68875564Y-151856039D01*
X68882030Y-151859496D01*
X68892464Y-151868058D01*
X69114301Y-152089895D01*
X69122863Y-152100329D01*
X69126320Y-152106796D01*
X69130851Y-152121732D01*
X69140228Y-152144371D01*
X69153842Y-152164745D01*
X69171169Y-152182072D01*
X69191544Y-152195686D01*
X69214181Y-152205062D01*
X69229117Y-152209593D01*
X69235584Y-152213050D01*
X69246018Y-152221612D01*
X69467855Y-152443449D01*
X69476417Y-152453883D01*
X69479874Y-152460349D01*
X69484405Y-152475286D01*
X69493783Y-152497925D01*
X69507397Y-152518299D01*
X69524724Y-152535626D01*
X69545099Y-152549239D01*
X69567734Y-152558615D01*
X69582671Y-152563146D01*
X69589137Y-152566603D01*
X69599571Y-152575165D01*
X69821408Y-152797002D01*
X69829970Y-152807436D01*
X69833427Y-152813902D01*
X69837958Y-152828839D01*
X69847336Y-152851478D01*
X69860950Y-152871852D01*
X69878277Y-152889179D01*
X69898652Y-152902792D01*
X69921287Y-152912168D01*
X69936224Y-152916699D01*
X69942690Y-152920156D01*
X69953124Y-152928718D01*
X70174961Y-153150555D01*
X70183523Y-153160989D01*
X70186980Y-153167456D01*
X70191511Y-153182392D01*
X70200888Y-153205031D01*
X70214502Y-153225405D01*
X70231829Y-153242732D01*
X70252204Y-153256346D01*
X70274841Y-153265722D01*
X70289777Y-153270253D01*
X70296244Y-153273710D01*
X70306678Y-153282272D01*
X70528515Y-153504109D01*
X70537077Y-153514543D01*
X70540534Y-153521009D01*
X70545065Y-153535946D01*
X70554443Y-153558585D01*
X70568057Y-153578959D01*
X70585384Y-153596286D01*
X70605759Y-153609899D01*
X70628394Y-153619275D01*
X70643331Y-153623806D01*
X70649797Y-153627263D01*
X70660231Y-153635825D01*
X70882068Y-153857662D01*
X70890630Y-153868096D01*
X70894087Y-153874563D01*
X70898618Y-153889499D01*
X70907995Y-153912138D01*
X70921609Y-153932512D01*
X70938936Y-153949839D01*
X70959311Y-153963453D01*
X70981947Y-153972829D01*
X70996884Y-153977360D01*
X71003350Y-153980817D01*
X71013784Y-153989379D01*
X71235621Y-154211216D01*
X71244183Y-154221650D01*
X71247640Y-154228116D01*
X71252171Y-154243053D01*
X71261549Y-154265692D01*
X71275163Y-154286066D01*
X71292490Y-154303393D01*
X71312865Y-154317006D01*
X71335501Y-154326382D01*
X71350437Y-154330913D01*
X71356904Y-154334370D01*
X71367338Y-154342932D01*
X71589175Y-154564769D01*
X71597737Y-154575203D01*
X71601194Y-154581669D01*
X71605725Y-154596606D01*
X71615103Y-154619245D01*
X71628717Y-154639619D01*
X71646044Y-154656946D01*
X71666419Y-154670559D01*
X71689054Y-154679935D01*
X71703991Y-154684466D01*
X71710457Y-154687923D01*
X71720891Y-154696485D01*
X71942728Y-154918322D01*
X71951290Y-154928756D01*
X71954747Y-154935223D01*
X71959278Y-154950159D01*
X71968655Y-154972798D01*
X71982269Y-154993172D01*
X71999596Y-155010499D01*
X72019971Y-155024113D01*
X72042608Y-155033489D01*
X72057544Y-155038020D01*
X72064011Y-155041477D01*
X72074445Y-155050039D01*
X72296282Y-155271876D01*
X72304844Y-155282310D01*
X72308301Y-155288776D01*
X72312832Y-155303713D01*
X72322210Y-155326352D01*
X72335824Y-155346726D01*
X72353151Y-155364053D01*
X72373526Y-155377666D01*
X72396161Y-155387042D01*
X72411098Y-155391573D01*
X72417564Y-155395030D01*
X72427998Y-155403592D01*
X72649835Y-155625429D01*
X72658397Y-155635863D01*
X72661854Y-155642329D01*
X72666385Y-155657266D01*
X72675763Y-155679905D01*
X72689377Y-155700279D01*
X72706704Y-155717606D01*
X72727079Y-155731219D01*
X72749714Y-155740595D01*
X72764651Y-155745126D01*
X72771117Y-155748583D01*
X72781551Y-155757145D01*
X73003388Y-155978982D01*
X73011950Y-155989416D01*
X73015407Y-155995883D01*
X73019938Y-156010819D01*
X73029315Y-156033458D01*
X73042929Y-156053832D01*
X73060256Y-156071159D01*
X73080631Y-156084773D01*
X73103268Y-156094149D01*
X73118204Y-156098680D01*
X73124671Y-156102137D01*
X73135105Y-156110699D01*
X73356942Y-156332536D01*
X73365504Y-156342970D01*
X73368961Y-156349436D01*
X73373492Y-156364373D01*
X73382870Y-156387012D01*
X73396484Y-156407386D01*
X73413811Y-156424713D01*
X73434186Y-156438326D01*
X73456821Y-156447702D01*
X73471758Y-156452233D01*
X73478224Y-156455690D01*
X73488658Y-156464252D01*
X73710495Y-156686089D01*
X73719057Y-156696523D01*
X73722514Y-156702990D01*
X73727045Y-156717926D01*
X73736422Y-156740565D01*
X73750036Y-156760939D01*
X73767363Y-156778266D01*
X73787738Y-156791880D01*
X73810375Y-156801256D01*
X73825311Y-156805787D01*
X73831778Y-156809244D01*
X73842212Y-156817806D01*
X74064049Y-157039643D01*
X74072611Y-157050077D01*
X74076068Y-157056543D01*
X74080599Y-157071480D01*
X74089977Y-157094119D01*
X74103591Y-157114493D01*
X74120918Y-157131820D01*
X74141293Y-157145433D01*
X74163928Y-157154809D01*
X74178865Y-157159340D01*
X74185331Y-157162797D01*
X74195765Y-157171359D01*
X74417602Y-157393196D01*
X74426164Y-157403630D01*
X74429621Y-157410096D01*
X74434152Y-157425033D01*
X74443530Y-157447672D01*
X74457144Y-157468046D01*
X74474471Y-157485373D01*
X74494846Y-157498986D01*
X74517481Y-157508362D01*
X74532418Y-157512893D01*
X74538884Y-157516350D01*
X74549318Y-157524912D01*
X74771155Y-157746749D01*
X74779717Y-157757183D01*
X74783174Y-157763650D01*
X74787705Y-157778586D01*
X74797082Y-157801225D01*
X74810696Y-157821599D01*
X74828023Y-157838926D01*
X74848398Y-157852540D01*
X74871035Y-157861916D01*
X74885971Y-157866447D01*
X74892438Y-157869904D01*
X74902872Y-157878466D01*
X75124709Y-158100303D01*
X75133271Y-158110737D01*
X75136728Y-158117203D01*
X75141259Y-158132140D01*
X75150637Y-158154779D01*
X75164251Y-158175153D01*
X75181578Y-158192480D01*
X75201953Y-158206093D01*
X75224588Y-158215469D01*
X75239525Y-158220000D01*
X75245991Y-158223457D01*
X75256425Y-158232019D01*
X75478262Y-158453856D01*
X75486824Y-158464290D01*
X75490281Y-158470756D01*
X75492409Y-158477771D01*
X75493127Y-158485066D01*
X75492409Y-158492361D01*
X75490281Y-158499376D01*
X75486824Y-158505842D01*
X75478262Y-158516276D01*
X74337187Y-159657351D01*
X74326753Y-159665913D01*
X74320287Y-159669370D01*
X74313272Y-159671498D01*
X74305977Y-159672216D01*
X74298682Y-159671498D01*
X74291667Y-159669370D01*
X74285201Y-159665913D01*
X74274767Y-159657351D01*
X74052930Y-159435514D01*
X74044368Y-159425080D01*
X74040911Y-159418614D01*
X74036380Y-159403677D01*
X74027002Y-159381038D01*
X74013388Y-159360664D01*
X73996061Y-159343337D01*
X73975686Y-159329724D01*
X73953051Y-159320348D01*
X73938114Y-159315817D01*
X73931648Y-159312360D01*
X73921214Y-159303798D01*
X73699377Y-159081961D01*
X73690815Y-159071527D01*
X73687358Y-159065060D01*
X73682827Y-159050124D01*
X73673450Y-159027485D01*
X73659836Y-159007111D01*
X73642509Y-158989784D01*
X73622134Y-158976170D01*
X73599497Y-158966794D01*
X73584561Y-158962263D01*
X73578094Y-158958806D01*
X73567660Y-158950244D01*
X73345823Y-158728407D01*
X73337261Y-158717973D01*
X73333804Y-158711507D01*
X73329273Y-158696570D01*
X73319895Y-158673931D01*
X73306281Y-158653557D01*
X73288954Y-158636230D01*
X73268579Y-158622617D01*
X73245944Y-158613241D01*
X73231007Y-158608710D01*
X73224541Y-158605253D01*
X73214107Y-158596691D01*
X72992270Y-158374854D01*
X72983708Y-158364420D01*
X72980251Y-158357954D01*
X72975720Y-158343017D01*
X72966342Y-158320378D01*
X72952728Y-158300004D01*
X72935401Y-158282677D01*
X72915026Y-158269064D01*
X72892391Y-158259688D01*
X72877454Y-158255157D01*
X72870988Y-158251700D01*
X72860554Y-158243138D01*
X72638717Y-158021301D01*
X72630155Y-158010867D01*
X72626698Y-158004400D01*
X72622167Y-157989464D01*
X72612790Y-157966825D01*
X72599176Y-157946451D01*
X72581849Y-157929124D01*
X72561474Y-157915510D01*
X72538837Y-157906134D01*
X72523901Y-157901603D01*
X72517434Y-157898146D01*
X72507000Y-157889584D01*
X72285163Y-157667747D01*
X72276601Y-157657313D01*
X72273144Y-157650847D01*
X72268613Y-157635910D01*
X72259235Y-157613271D01*
X72245621Y-157592897D01*
X72228294Y-157575570D01*
X72207919Y-157561957D01*
X72185284Y-157552581D01*
X72170347Y-157548050D01*
X72163881Y-157544593D01*
X72153447Y-157536031D01*
X71931610Y-157314194D01*
X71923048Y-157303760D01*
X71919591Y-157297293D01*
X71915060Y-157282357D01*
X71905683Y-157259718D01*
X71892069Y-157239344D01*
X71874742Y-157222017D01*
X71854367Y-157208403D01*
X71831730Y-157199027D01*
X71816794Y-157194496D01*
X71810327Y-157191039D01*
X71799893Y-157182477D01*
X71578056Y-156960640D01*
X71569494Y-156950206D01*
X71566037Y-156943740D01*
X71561506Y-156928803D01*
X71552128Y-156906164D01*
X71538514Y-156885790D01*
X71521187Y-156868463D01*
X71500812Y-156854850D01*
X71478177Y-156845474D01*
X71463240Y-156840943D01*
X71456774Y-156837486D01*
X71446340Y-156828924D01*
X71224503Y-156607087D01*
X71215941Y-156596653D01*
X71212484Y-156590187D01*
X71207953Y-156575250D01*
X71198575Y-156552611D01*
X71184961Y-156532237D01*
X71167634Y-156514910D01*
X71147259Y-156501297D01*
X71124624Y-156491921D01*
X71109687Y-156487390D01*
X71103221Y-156483933D01*
X71092787Y-156475371D01*
X70870950Y-156253534D01*
X70862388Y-156243100D01*
X70858931Y-156236633D01*
X70854400Y-156221697D01*
X70845023Y-156199058D01*
X70831409Y-156178684D01*
X70814082Y-156161357D01*
X70793707Y-156147743D01*
X70771070Y-156138367D01*
X70756134Y-156133836D01*
X70749667Y-156130379D01*
X70739233Y-156121817D01*
X70517396Y-155899980D01*
X70508834Y-155889546D01*
X70505377Y-155883080D01*
X70500846Y-155868143D01*
X70491468Y-155845504D01*
X70477854Y-155825130D01*
X70460527Y-155807803D01*
X70440152Y-155794190D01*
X70417517Y-155784814D01*
X70402580Y-155780283D01*
X70396114Y-155776826D01*
X70385680Y-155768264D01*
X70163843Y-155546427D01*
X70155281Y-155535993D01*
X70151824Y-155529527D01*
X70147293Y-155514590D01*
X70137915Y-155491951D01*
X70124301Y-155471577D01*
X70106974Y-155454250D01*
X70086599Y-155440637D01*
X70063963Y-155431261D01*
X70049027Y-155426730D01*
X70042560Y-155423273D01*
X70032126Y-155414711D01*
X69810289Y-155192874D01*
X69801727Y-155182440D01*
X69798270Y-155175973D01*
X69793739Y-155161037D01*
X69784362Y-155138398D01*
X69770748Y-155118024D01*
X69753421Y-155100697D01*
X69733046Y-155087083D01*
X69710410Y-155077707D01*
X69695473Y-155073176D01*
X69689007Y-155069719D01*
X69678573Y-155061157D01*
X69456736Y-154839320D01*
X69448174Y-154828886D01*
X69444717Y-154822420D01*
X69440186Y-154807483D01*
X69430808Y-154784844D01*
X69417194Y-154764470D01*
X69399867Y-154747143D01*
X69379492Y-154733530D01*
X69356857Y-154724154D01*
X69341920Y-154719623D01*
X69335454Y-154716166D01*
X69325020Y-154707604D01*
X69103183Y-154485767D01*
X69094621Y-154475333D01*
X69091164Y-154468866D01*
X69086633Y-154453930D01*
X69077256Y-154431291D01*
X69063642Y-154410917D01*
X69046315Y-154393590D01*
X69025940Y-154379976D01*
X69003303Y-154370600D01*
X68988367Y-154366069D01*
X68981900Y-154362612D01*
X68971466Y-154354050D01*
X68749629Y-154132213D01*
X68741067Y-154121779D01*
X68737610Y-154115313D01*
X68733079Y-154100376D01*
X68723701Y-154077737D01*
X68710087Y-154057363D01*
X68692760Y-154040036D01*
X68672385Y-154026423D01*
X68649750Y-154017047D01*
X68634813Y-154012516D01*
X68628347Y-154009059D01*
X68617913Y-154000497D01*
X68396076Y-153778660D01*
X68387514Y-153768226D01*
X68384057Y-153761760D01*
X68379526Y-153746823D01*
X68370148Y-153724184D01*
X68356534Y-153703810D01*
X68339207Y-153686483D01*
X68318832Y-153672870D01*
X68296197Y-153663494D01*
X68281260Y-153658963D01*
X68274794Y-153655506D01*
X68264360Y-153646944D01*
X68042523Y-153425107D01*
X68033961Y-153414673D01*
X68030504Y-153408206D01*
X68025973Y-153393270D01*
X68016596Y-153370631D01*
X68002982Y-153350257D01*
X67985655Y-153332930D01*
X67965280Y-153319316D01*
X67942643Y-153309940D01*
X67927707Y-153305409D01*
X67921240Y-153301952D01*
X67910806Y-153293390D01*
X67688969Y-153071553D01*
X67680407Y-153061119D01*
X67676950Y-153054653D01*
X67672419Y-153039716D01*
X67663041Y-153017077D01*
X67649427Y-152996703D01*
X67632100Y-152979376D01*
X67611725Y-152965763D01*
X67589090Y-152956387D01*
X67574153Y-152951856D01*
X67567687Y-152948399D01*
X67557253Y-152939837D01*
X67335416Y-152718000D01*
X67326854Y-152707566D01*
X67323397Y-152701099D01*
X67318866Y-152686163D01*
X67309489Y-152663524D01*
X67295875Y-152643150D01*
X67278548Y-152625823D01*
X67258173Y-152612209D01*
X67235536Y-152602833D01*
X67220600Y-152598302D01*
X67214133Y-152594845D01*
X67203699Y-152586283D01*
X66981862Y-152364446D01*
X66973300Y-152354012D01*
X66969843Y-152347546D01*
X66965312Y-152332609D01*
X66955934Y-152309970D01*
X66942320Y-152289596D01*
X66924993Y-152272269D01*
X66904618Y-152258656D01*
X66881983Y-152249280D01*
X66867046Y-152244749D01*
X66860580Y-152241292D01*
X66850146Y-152232730D01*
X66628309Y-152010893D01*
X66619747Y-152000459D01*
X66616290Y-151993993D01*
X66611759Y-151979056D01*
X66602381Y-151956417D01*
X66588767Y-151936043D01*
X66571440Y-151918716D01*
X66551065Y-151905103D01*
X66528430Y-151895727D01*
X66513493Y-151891196D01*
X66507027Y-151887739D01*
X66496593Y-151879177D01*
X66274756Y-151657340D01*
X66266194Y-151646906D01*
X66262737Y-151640439D01*
X66258206Y-151625503D01*
X66248829Y-151602864D01*
X66235215Y-151582490D01*
X66217888Y-151565163D01*
X66197513Y-151551549D01*
X66174876Y-151542173D01*
X66159940Y-151537642D01*
X66153473Y-151534185D01*
X66143039Y-151525623D01*
X65921202Y-151303786D01*
X65912640Y-151293352D01*
X65909183Y-151286886D01*
X65904652Y-151271949D01*
X65895274Y-151249310D01*
X65881660Y-151228936D01*
X65864333Y-151211609D01*
X65843958Y-151197996D01*
X65821323Y-151188620D01*
X65806386Y-151184089D01*
X65799920Y-151180632D01*
X65789486Y-151172070D01*
X65567649Y-150950233D01*
X65559087Y-150939799D01*
X65555630Y-150933333D01*
X65553502Y-150926318D01*
X65552784Y-150919023D01*
X65553502Y-150911728D01*
X65555630Y-150904713D01*
X65559087Y-150898247D01*
X65567649Y-150887813D01*
X66708724Y-149746738D01*
X66719158Y-149738176D01*
X66725624Y-149734719D01*
X66732639Y-149732591D01*
X66739934Y-149731873D01*
X66747229Y-149732591D01*
X66747229Y-149732591D01*
G37*
G36*
X91351000Y-159276000D02*
G01*
X90649000Y-159276000D01*
X90649000Y-157424000D01*
X91351000Y-157424000D01*
X91351000Y-159276000D01*
X91351000Y-159276000D01*
G37*
G36*
X90051000Y-159276000D02*
G01*
X89349000Y-159276000D01*
X89349000Y-157424000D01*
X90051000Y-157424000D01*
X90051000Y-159276000D01*
X90051000Y-159276000D01*
G37*
G36*
X93851000Y-158726000D02*
G01*
X91749000Y-158726000D01*
X91749000Y-157924000D01*
X93851000Y-157924000D01*
X93851000Y-158726000D01*
X93851000Y-158726000D01*
G37*
G36*
X88976000Y-158351000D02*
G01*
X87624000Y-158351000D01*
X87624000Y-157249000D01*
X88976000Y-157249000D01*
X88976000Y-158351000D01*
X88976000Y-158351000D01*
G37*
G36*
X93851000Y-157276000D02*
G01*
X91749000Y-157276000D01*
X91749000Y-156474000D01*
X93851000Y-156474000D01*
X93851000Y-157276000D01*
X93851000Y-157276000D01*
G37*
G36*
X88976000Y-156351000D02*
G01*
X87624000Y-156351000D01*
X87624000Y-155249000D01*
X88976000Y-155249000D01*
X88976000Y-156351000D01*
X88976000Y-156351000D01*
G37*
G36*
X60711938Y-155231716D02*
G01*
X60732557Y-155237971D01*
X60751553Y-155248124D01*
X60768208Y-155261792D01*
X60781876Y-155278447D01*
X60792029Y-155297443D01*
X60798284Y-155318062D01*
X60801000Y-155345640D01*
X60801000Y-155854360D01*
X60798284Y-155881938D01*
X60792029Y-155902557D01*
X60781876Y-155921553D01*
X60768208Y-155938208D01*
X60751553Y-155951876D01*
X60732557Y-155962029D01*
X60711938Y-155968284D01*
X60684360Y-155971000D01*
X60225640Y-155971000D01*
X60198062Y-155968284D01*
X60177443Y-155962029D01*
X60158447Y-155951876D01*
X60141792Y-155938208D01*
X60128124Y-155921553D01*
X60117971Y-155902557D01*
X60111716Y-155881938D01*
X60109000Y-155854360D01*
X60109000Y-155345640D01*
X60111716Y-155318062D01*
X60117971Y-155297443D01*
X60128124Y-155278447D01*
X60141792Y-155261792D01*
X60158447Y-155248124D01*
X60177443Y-155237971D01*
X60198062Y-155231716D01*
X60225640Y-155229000D01*
X60684360Y-155229000D01*
X60711938Y-155231716D01*
X60711938Y-155231716D01*
G37*
G36*
X61681938Y-155231716D02*
G01*
X61702557Y-155237971D01*
X61721553Y-155248124D01*
X61738208Y-155261792D01*
X61751876Y-155278447D01*
X61762029Y-155297443D01*
X61768284Y-155318062D01*
X61771000Y-155345640D01*
X61771000Y-155854360D01*
X61768284Y-155881938D01*
X61762029Y-155902557D01*
X61751876Y-155921553D01*
X61738208Y-155938208D01*
X61721553Y-155951876D01*
X61702557Y-155962029D01*
X61681938Y-155968284D01*
X61654360Y-155971000D01*
X61195640Y-155971000D01*
X61168062Y-155968284D01*
X61147443Y-155962029D01*
X61128447Y-155951876D01*
X61111792Y-155938208D01*
X61098124Y-155921553D01*
X61087971Y-155902557D01*
X61081716Y-155881938D01*
X61079000Y-155854360D01*
X61079000Y-155345640D01*
X61081716Y-155318062D01*
X61087971Y-155297443D01*
X61098124Y-155278447D01*
X61111792Y-155261792D01*
X61128447Y-155248124D01*
X61147443Y-155237971D01*
X61168062Y-155231716D01*
X61195640Y-155229000D01*
X61654360Y-155229000D01*
X61681938Y-155231716D01*
X61681938Y-155231716D01*
G37*
G36*
X90651000Y-155876000D02*
G01*
X89549000Y-155876000D01*
X89549000Y-154524000D01*
X90651000Y-154524000D01*
X90651000Y-155876000D01*
X90651000Y-155876000D01*
G37*
G36*
X92651000Y-155876000D02*
G01*
X91549000Y-155876000D01*
X91549000Y-154524000D01*
X92651000Y-154524000D01*
X92651000Y-155876000D01*
X92651000Y-155876000D01*
G37*
G36*
X59201000Y-155826000D02*
G01*
X57849000Y-155826000D01*
X57849000Y-154724000D01*
X59201000Y-154724000D01*
X59201000Y-155826000D01*
X59201000Y-155826000D01*
G37*
G36*
X62851000Y-155051000D02*
G01*
X62349000Y-155051000D01*
X62349000Y-154499000D01*
X62851000Y-154499000D01*
X62851000Y-155051000D01*
X62851000Y-155051000D01*
G37*
G36*
X63651000Y-155051000D02*
G01*
X63149000Y-155051000D01*
X63149000Y-154499000D01*
X63651000Y-154499000D01*
X63651000Y-155051000D01*
X63651000Y-155051000D01*
G37*
G36*
X63301000Y-153901000D02*
G01*
X62699000Y-153901000D01*
X62699000Y-153349000D01*
X63301000Y-153349000D01*
X63301000Y-153901000D01*
X63301000Y-153901000D01*
G37*
G36*
X59201000Y-153826000D02*
G01*
X57849000Y-153826000D01*
X57849000Y-152724000D01*
X59201000Y-152724000D01*
X59201000Y-153826000D01*
X59201000Y-153826000D01*
G37*
G36*
X95110443Y-151645519D02*
G01*
X95176627Y-151652037D01*
X95346466Y-151703557D01*
X95502991Y-151787222D01*
X95532195Y-151811189D01*
X95640186Y-151899814D01*
X95717777Y-151994360D01*
X95752778Y-152037009D01*
X95836443Y-152193534D01*
X95887963Y-152363373D01*
X95905359Y-152540000D01*
X95887963Y-152716627D01*
X95836443Y-152886466D01*
X95836442Y-152886468D01*
X95834993Y-152889179D01*
X95752778Y-153042991D01*
X95728947Y-153072029D01*
X95640186Y-153180186D01*
X95547383Y-153256346D01*
X95502991Y-153292778D01*
X95485828Y-153301952D01*
X95357340Y-153370631D01*
X95346466Y-153376443D01*
X95176627Y-153427963D01*
X95132013Y-153432357D01*
X95044260Y-153441000D01*
X94955740Y-153441000D01*
X94867987Y-153432357D01*
X94823373Y-153427963D01*
X94653534Y-153376443D01*
X94642661Y-153370631D01*
X94514172Y-153301952D01*
X94497009Y-153292778D01*
X94452617Y-153256346D01*
X94359814Y-153180186D01*
X94271053Y-153072029D01*
X94247222Y-153042991D01*
X94165007Y-152889179D01*
X94163558Y-152886468D01*
X94163557Y-152886466D01*
X94112037Y-152716627D01*
X94094641Y-152540000D01*
X94112037Y-152363373D01*
X94163557Y-152193534D01*
X94247222Y-152037009D01*
X94282223Y-151994360D01*
X94359814Y-151899814D01*
X94467805Y-151811189D01*
X94497009Y-151787222D01*
X94653534Y-151703557D01*
X94823373Y-151652037D01*
X94889557Y-151645519D01*
X94955740Y-151639000D01*
X95044260Y-151639000D01*
X95110443Y-151645519D01*
X95110443Y-151645519D01*
G37*
G36*
X61676000Y-153251000D02*
G01*
X59824000Y-153251000D01*
X59824000Y-152549000D01*
X61676000Y-152549000D01*
X61676000Y-153251000D01*
X61676000Y-153251000D01*
G37*
G36*
X63881938Y-152391716D02*
G01*
X63902557Y-152397971D01*
X63921553Y-152408124D01*
X63938208Y-152421792D01*
X63951876Y-152438447D01*
X63962029Y-152457443D01*
X63968284Y-152478062D01*
X63971000Y-152505640D01*
X63971000Y-152964360D01*
X63968284Y-152991938D01*
X63962029Y-153012557D01*
X63951876Y-153031553D01*
X63938208Y-153048208D01*
X63921553Y-153061876D01*
X63902557Y-153072029D01*
X63881938Y-153078284D01*
X63854360Y-153081000D01*
X63345640Y-153081000D01*
X63318062Y-153078284D01*
X63297443Y-153072029D01*
X63278447Y-153061876D01*
X63261792Y-153048208D01*
X63248124Y-153031553D01*
X63237971Y-153012557D01*
X63231716Y-152991938D01*
X63229000Y-152964360D01*
X63229000Y-152505640D01*
X63231716Y-152478062D01*
X63237971Y-152457443D01*
X63248124Y-152438447D01*
X63261792Y-152421792D01*
X63278447Y-152408124D01*
X63297443Y-152397971D01*
X63318062Y-152391716D01*
X63345640Y-152389000D01*
X63854360Y-152389000D01*
X63881938Y-152391716D01*
X63881938Y-152391716D01*
G37*
G36*
X62731938Y-152391716D02*
G01*
X62752557Y-152397971D01*
X62771553Y-152408124D01*
X62788208Y-152421792D01*
X62801876Y-152438447D01*
X62812029Y-152457443D01*
X62818284Y-152478062D01*
X62821000Y-152505640D01*
X62821000Y-152964360D01*
X62818284Y-152991938D01*
X62812029Y-153012557D01*
X62801876Y-153031553D01*
X62788208Y-153048208D01*
X62771553Y-153061876D01*
X62752557Y-153072029D01*
X62731938Y-153078284D01*
X62704360Y-153081000D01*
X62195640Y-153081000D01*
X62168062Y-153078284D01*
X62147443Y-153072029D01*
X62128447Y-153061876D01*
X62111792Y-153048208D01*
X62098124Y-153031553D01*
X62087971Y-153012557D01*
X62081716Y-152991938D01*
X62079000Y-152964360D01*
X62079000Y-152505640D01*
X62081716Y-152478062D01*
X62087971Y-152457443D01*
X62098124Y-152438447D01*
X62111792Y-152421792D01*
X62128447Y-152408124D01*
X62147443Y-152397971D01*
X62168062Y-152391716D01*
X62195640Y-152389000D01*
X62704360Y-152389000D01*
X62731938Y-152391716D01*
X62731938Y-152391716D01*
G37*
G36*
X87582063Y-151684438D02*
G01*
X87602682Y-151690693D01*
X87621678Y-151700846D01*
X87643099Y-151718426D01*
X87967468Y-152042795D01*
X87985048Y-152064216D01*
X87995201Y-152083212D01*
X88001456Y-152103831D01*
X88003567Y-152125269D01*
X88001456Y-152146707D01*
X87995201Y-152167326D01*
X87985048Y-152186322D01*
X87967468Y-152207743D01*
X87607743Y-152567468D01*
X87586322Y-152585048D01*
X87567326Y-152595201D01*
X87546707Y-152601456D01*
X87525269Y-152603567D01*
X87503831Y-152601456D01*
X87483212Y-152595201D01*
X87464216Y-152585048D01*
X87442795Y-152567468D01*
X87118426Y-152243099D01*
X87100846Y-152221678D01*
X87090693Y-152202682D01*
X87084438Y-152182063D01*
X87082327Y-152160625D01*
X87084438Y-152139187D01*
X87090693Y-152118568D01*
X87100846Y-152099572D01*
X87118426Y-152078151D01*
X87478151Y-151718426D01*
X87499572Y-151700846D01*
X87518568Y-151690693D01*
X87539187Y-151684438D01*
X87560625Y-151682327D01*
X87582063Y-151684438D01*
X87582063Y-151684438D01*
G37*
G36*
X58676000Y-152151000D02*
G01*
X57324000Y-152151000D01*
X57324000Y-151049000D01*
X58676000Y-151049000D01*
X58676000Y-152151000D01*
X58676000Y-152151000D01*
G37*
G36*
X63881938Y-151421716D02*
G01*
X63902557Y-151427971D01*
X63921553Y-151438124D01*
X63938208Y-151451792D01*
X63951876Y-151468447D01*
X63962029Y-151487443D01*
X63968284Y-151508062D01*
X63971000Y-151535640D01*
X63971000Y-151994360D01*
X63968284Y-152021938D01*
X63962029Y-152042557D01*
X63951876Y-152061553D01*
X63938208Y-152078208D01*
X63921553Y-152091876D01*
X63902557Y-152102029D01*
X63881938Y-152108284D01*
X63854360Y-152111000D01*
X63345640Y-152111000D01*
X63318062Y-152108284D01*
X63297443Y-152102029D01*
X63278447Y-152091876D01*
X63261792Y-152078208D01*
X63248124Y-152061553D01*
X63237971Y-152042557D01*
X63231716Y-152021938D01*
X63229000Y-151994360D01*
X63229000Y-151535640D01*
X63231716Y-151508062D01*
X63237971Y-151487443D01*
X63248124Y-151468447D01*
X63261792Y-151451792D01*
X63278447Y-151438124D01*
X63297443Y-151427971D01*
X63318062Y-151421716D01*
X63345640Y-151419000D01*
X63854360Y-151419000D01*
X63881938Y-151421716D01*
X63881938Y-151421716D01*
G37*
G36*
X62731938Y-151421716D02*
G01*
X62752557Y-151427971D01*
X62771553Y-151438124D01*
X62788208Y-151451792D01*
X62801876Y-151468447D01*
X62812029Y-151487443D01*
X62818284Y-151508062D01*
X62821000Y-151535640D01*
X62821000Y-151994360D01*
X62818284Y-152021938D01*
X62812029Y-152042557D01*
X62801876Y-152061553D01*
X62788208Y-152078208D01*
X62771553Y-152091876D01*
X62752557Y-152102029D01*
X62731938Y-152108284D01*
X62704360Y-152111000D01*
X62195640Y-152111000D01*
X62168062Y-152108284D01*
X62147443Y-152102029D01*
X62128447Y-152091876D01*
X62111792Y-152078208D01*
X62098124Y-152061553D01*
X62087971Y-152042557D01*
X62081716Y-152021938D01*
X62079000Y-151994360D01*
X62079000Y-151535640D01*
X62081716Y-151508062D01*
X62087971Y-151487443D01*
X62098124Y-151468447D01*
X62111792Y-151451792D01*
X62128447Y-151438124D01*
X62147443Y-151427971D01*
X62168062Y-151421716D01*
X62195640Y-151419000D01*
X62704360Y-151419000D01*
X62731938Y-151421716D01*
X62731938Y-151421716D01*
G37*
G36*
X61676000Y-151951000D02*
G01*
X59824000Y-151951000D01*
X59824000Y-151249000D01*
X61676000Y-151249000D01*
X61676000Y-151951000D01*
X61676000Y-151951000D01*
G37*
G36*
X86896169Y-150998544D02*
G01*
X86916788Y-151004799D01*
X86935784Y-151014952D01*
X86957205Y-151032532D01*
X87281574Y-151356901D01*
X87299154Y-151378322D01*
X87309307Y-151397318D01*
X87315562Y-151417937D01*
X87317673Y-151439375D01*
X87315562Y-151460813D01*
X87309307Y-151481432D01*
X87299154Y-151500428D01*
X87281574Y-151521849D01*
X86921849Y-151881574D01*
X86900428Y-151899154D01*
X86881432Y-151909307D01*
X86860813Y-151915562D01*
X86839375Y-151917673D01*
X86817937Y-151915562D01*
X86797318Y-151909307D01*
X86778322Y-151899154D01*
X86756901Y-151881574D01*
X86432532Y-151557205D01*
X86414952Y-151535784D01*
X86404799Y-151516788D01*
X86398544Y-151496169D01*
X86396433Y-151474731D01*
X86398544Y-151453293D01*
X86404799Y-151432674D01*
X86414952Y-151413678D01*
X86432532Y-151392257D01*
X86792257Y-151032532D01*
X86813678Y-151014952D01*
X86832674Y-151004799D01*
X86853293Y-150998544D01*
X86874731Y-150996433D01*
X86896169Y-150998544D01*
X86896169Y-150998544D01*
G37*
G36*
X91529600Y-150165311D02*
G01*
X91532002Y-150189697D01*
X91539115Y-150213146D01*
X91550666Y-150234757D01*
X91558056Y-150244710D01*
X91565799Y-150254125D01*
X91572181Y-150261884D01*
X91576926Y-150270739D01*
X91576926Y-150270740D01*
X91579842Y-150280315D01*
X91579842Y-150280318D01*
X91579852Y-150280350D01*
X91580847Y-150290400D01*
X91580847Y-150290465D01*
X91581452Y-150296575D01*
X91581452Y-151284260D01*
X91579863Y-151300399D01*
X91576948Y-151310008D01*
X91572210Y-151318872D01*
X91565837Y-151326637D01*
X91558072Y-151333010D01*
X91549208Y-151337748D01*
X91539599Y-151340663D01*
X91523460Y-151342252D01*
X90035740Y-151342252D01*
X90019601Y-151340663D01*
X90009992Y-151337748D01*
X90001128Y-151333010D01*
X89993363Y-151326637D01*
X89986990Y-151318872D01*
X89982252Y-151310008D01*
X89979337Y-151300399D01*
X89977748Y-151284260D01*
X89977748Y-150296540D01*
X89979337Y-150280401D01*
X89982252Y-150270792D01*
X89986990Y-150261928D01*
X90000858Y-150245030D01*
X90000947Y-150244941D01*
X90001023Y-150244829D01*
X90001175Y-150244643D01*
X90001157Y-150244629D01*
X90014633Y-150224614D01*
X90024089Y-150202008D01*
X90028954Y-150177992D01*
X90029600Y-150165303D01*
X90029600Y-149240400D01*
X91529600Y-149240400D01*
X91529600Y-150165311D01*
X91529600Y-150165311D01*
G37*
G36*
X59976000Y-150976000D02*
G01*
X59174000Y-150976000D01*
X59174000Y-148874000D01*
X59976000Y-148874000D01*
X59976000Y-150976000D01*
X59976000Y-150976000D01*
G37*
G36*
X61426000Y-150976000D02*
G01*
X60624000Y-150976000D01*
X60624000Y-148874000D01*
X61426000Y-148874000D01*
X61426000Y-150976000D01*
X61426000Y-150976000D01*
G37*
G36*
X95901000Y-150901000D02*
G01*
X94099000Y-150901000D01*
X94099000Y-149099000D01*
X95901000Y-149099000D01*
X95901000Y-150901000D01*
X95901000Y-150901000D01*
G37*
G36*
X58676000Y-150151000D02*
G01*
X57324000Y-150151000D01*
X57324000Y-149049000D01*
X58676000Y-149049000D01*
X58676000Y-150151000D01*
X58676000Y-150151000D01*
G37*
G36*
X74313272Y-138878502D02*
G01*
X74320287Y-138880630D01*
X74326753Y-138884087D01*
X74337187Y-138892649D01*
X75478262Y-140033724D01*
X75486824Y-140044158D01*
X75490281Y-140050624D01*
X75492409Y-140057639D01*
X75493127Y-140064934D01*
X75492409Y-140072229D01*
X75490281Y-140079244D01*
X75486824Y-140085710D01*
X75478262Y-140096144D01*
X75256425Y-140317981D01*
X75245991Y-140326543D01*
X75239525Y-140330000D01*
X75224588Y-140334531D01*
X75201949Y-140343909D01*
X75181575Y-140357523D01*
X75164248Y-140374850D01*
X75150635Y-140395225D01*
X75141259Y-140417860D01*
X75136728Y-140432797D01*
X75133271Y-140439263D01*
X75124709Y-140449697D01*
X74902872Y-140671534D01*
X74892438Y-140680096D01*
X74885971Y-140683553D01*
X74871035Y-140688084D01*
X74848396Y-140697461D01*
X74828022Y-140711075D01*
X74810695Y-140728402D01*
X74797081Y-140748777D01*
X74787705Y-140771414D01*
X74783174Y-140786350D01*
X74779717Y-140792817D01*
X74771155Y-140803251D01*
X74549318Y-141025088D01*
X74538884Y-141033650D01*
X74532418Y-141037107D01*
X74517481Y-141041638D01*
X74494842Y-141051016D01*
X74474468Y-141064630D01*
X74457141Y-141081957D01*
X74443528Y-141102332D01*
X74434152Y-141124967D01*
X74429621Y-141139904D01*
X74426164Y-141146370D01*
X74417602Y-141156804D01*
X74195765Y-141378641D01*
X74185331Y-141387203D01*
X74178865Y-141390660D01*
X74163928Y-141395191D01*
X74141289Y-141404569D01*
X74120915Y-141418183D01*
X74103588Y-141435510D01*
X74089975Y-141455885D01*
X74080599Y-141478520D01*
X74076068Y-141493457D01*
X74072611Y-141499923D01*
X74064049Y-141510357D01*
X73842212Y-141732194D01*
X73831778Y-141740756D01*
X73825311Y-141744213D01*
X73810375Y-141748744D01*
X73787736Y-141758121D01*
X73767362Y-141771735D01*
X73750035Y-141789062D01*
X73736421Y-141809437D01*
X73727045Y-141832074D01*
X73722514Y-141847010D01*
X73719057Y-141853477D01*
X73710495Y-141863911D01*
X73488658Y-142085748D01*
X73478224Y-142094310D01*
X73471758Y-142097767D01*
X73456821Y-142102298D01*
X73434182Y-142111676D01*
X73413808Y-142125290D01*
X73396481Y-142142617D01*
X73382868Y-142162992D01*
X73373492Y-142185627D01*
X73368961Y-142200564D01*
X73365504Y-142207030D01*
X73356942Y-142217464D01*
X73135105Y-142439301D01*
X73124671Y-142447863D01*
X73118204Y-142451320D01*
X73103268Y-142455851D01*
X73080629Y-142465228D01*
X73060255Y-142478842D01*
X73042928Y-142496169D01*
X73029314Y-142516544D01*
X73019938Y-142539181D01*
X73015407Y-142554117D01*
X73011950Y-142560584D01*
X73003388Y-142571018D01*
X72781551Y-142792855D01*
X72771117Y-142801417D01*
X72764651Y-142804874D01*
X72749714Y-142809405D01*
X72727075Y-142818783D01*
X72706701Y-142832397D01*
X72689374Y-142849724D01*
X72675761Y-142870099D01*
X72666385Y-142892734D01*
X72661854Y-142907671D01*
X72658397Y-142914137D01*
X72649835Y-142924571D01*
X72427998Y-143146408D01*
X72417564Y-143154970D01*
X72411098Y-143158427D01*
X72396161Y-143162958D01*
X72373522Y-143172336D01*
X72353148Y-143185950D01*
X72335821Y-143203277D01*
X72322208Y-143223652D01*
X72312832Y-143246287D01*
X72308301Y-143261224D01*
X72304844Y-143267690D01*
X72296282Y-143278124D01*
X72074445Y-143499961D01*
X72064011Y-143508523D01*
X72057544Y-143511980D01*
X72042608Y-143516511D01*
X72019969Y-143525888D01*
X71999595Y-143539502D01*
X71982268Y-143556829D01*
X71968654Y-143577204D01*
X71959278Y-143599841D01*
X71954747Y-143614777D01*
X71951290Y-143621244D01*
X71942728Y-143631678D01*
X71720891Y-143853515D01*
X71710457Y-143862077D01*
X71703991Y-143865534D01*
X71689054Y-143870065D01*
X71666415Y-143879443D01*
X71646041Y-143893057D01*
X71628714Y-143910384D01*
X71615101Y-143930759D01*
X71605725Y-143953394D01*
X71601194Y-143968331D01*
X71597737Y-143974797D01*
X71589175Y-143985231D01*
X71367338Y-144207068D01*
X71356904Y-144215630D01*
X71350437Y-144219087D01*
X71335501Y-144223618D01*
X71312862Y-144232995D01*
X71292488Y-144246609D01*
X71275161Y-144263936D01*
X71261547Y-144284311D01*
X71252171Y-144306947D01*
X71247640Y-144321884D01*
X71244183Y-144328350D01*
X71235621Y-144338784D01*
X71013784Y-144560621D01*
X71003350Y-144569183D01*
X70996884Y-144572640D01*
X70981947Y-144577171D01*
X70959308Y-144586549D01*
X70938934Y-144600163D01*
X70921607Y-144617490D01*
X70907994Y-144637865D01*
X70898618Y-144660501D01*
X70894087Y-144675437D01*
X70890630Y-144681904D01*
X70882068Y-144692338D01*
X70660231Y-144914175D01*
X70649797Y-144922737D01*
X70643331Y-144926194D01*
X70628394Y-144930725D01*
X70605755Y-144940103D01*
X70585381Y-144953717D01*
X70568054Y-144971044D01*
X70554441Y-144991419D01*
X70545065Y-145014054D01*
X70540534Y-145028991D01*
X70537077Y-145035457D01*
X70528515Y-145045891D01*
X70306678Y-145267728D01*
X70296244Y-145276290D01*
X70289777Y-145279747D01*
X70274841Y-145284278D01*
X70252202Y-145293655D01*
X70231828Y-145307269D01*
X70214501Y-145324596D01*
X70200887Y-145344971D01*
X70191511Y-145367608D01*
X70186980Y-145382544D01*
X70183523Y-145389011D01*
X70174961Y-145399445D01*
X69953124Y-145621282D01*
X69942690Y-145629844D01*
X69936224Y-145633301D01*
X69921287Y-145637832D01*
X69898648Y-145647210D01*
X69878274Y-145660824D01*
X69860947Y-145678151D01*
X69847334Y-145698526D01*
X69837958Y-145721161D01*
X69833427Y-145736098D01*
X69829970Y-145742564D01*
X69821408Y-145752998D01*
X69599571Y-145974835D01*
X69589137Y-145983397D01*
X69582671Y-145986854D01*
X69567734Y-145991385D01*
X69545095Y-146000763D01*
X69524721Y-146014377D01*
X69507394Y-146031704D01*
X69493781Y-146052079D01*
X69484405Y-146074714D01*
X69479874Y-146089651D01*
X69476417Y-146096117D01*
X69467855Y-146106551D01*
X69246018Y-146328388D01*
X69235584Y-146336950D01*
X69229117Y-146340407D01*
X69214181Y-146344938D01*
X69191542Y-146354315D01*
X69171168Y-146367929D01*
X69153841Y-146385256D01*
X69140227Y-146405631D01*
X69130851Y-146428268D01*
X69126320Y-146443204D01*
X69122863Y-146449671D01*
X69114301Y-146460105D01*
X68892464Y-146681942D01*
X68882030Y-146690504D01*
X68875564Y-146693961D01*
X68860627Y-146698492D01*
X68837988Y-146707870D01*
X68817614Y-146721484D01*
X68800287Y-146738811D01*
X68786674Y-146759186D01*
X68777298Y-146781821D01*
X68772767Y-146796758D01*
X68769310Y-146803224D01*
X68760748Y-146813658D01*
X68538911Y-147035495D01*
X68528477Y-147044057D01*
X68522010Y-147047514D01*
X68507074Y-147052045D01*
X68484435Y-147061422D01*
X68464061Y-147075036D01*
X68446734Y-147092363D01*
X68433120Y-147112738D01*
X68423744Y-147135375D01*
X68419213Y-147150311D01*
X68415756Y-147156778D01*
X68407194Y-147167212D01*
X68185357Y-147389049D01*
X68174923Y-147397611D01*
X68168457Y-147401068D01*
X68153520Y-147405599D01*
X68130881Y-147414977D01*
X68110507Y-147428591D01*
X68093180Y-147445918D01*
X68079567Y-147466293D01*
X68070191Y-147488928D01*
X68065660Y-147503865D01*
X68062203Y-147510331D01*
X68053641Y-147520765D01*
X67831804Y-147742602D01*
X67821370Y-147751164D01*
X67814904Y-147754621D01*
X67799967Y-147759152D01*
X67777328Y-147768530D01*
X67756954Y-147782144D01*
X67739627Y-147799471D01*
X67726014Y-147819846D01*
X67716638Y-147842481D01*
X67712107Y-147857418D01*
X67708650Y-147863884D01*
X67700088Y-147874318D01*
X67478251Y-148096155D01*
X67467817Y-148104717D01*
X67461350Y-148108174D01*
X67446414Y-148112705D01*
X67423775Y-148122082D01*
X67403401Y-148135696D01*
X67386074Y-148153023D01*
X67372460Y-148173398D01*
X67363084Y-148196035D01*
X67358553Y-148210971D01*
X67355096Y-148217438D01*
X67346534Y-148227872D01*
X67124697Y-148449709D01*
X67114263Y-148458271D01*
X67107797Y-148461728D01*
X67092860Y-148466259D01*
X67070221Y-148475637D01*
X67049847Y-148489251D01*
X67032520Y-148506578D01*
X67018907Y-148526953D01*
X67009531Y-148549588D01*
X67005000Y-148564525D01*
X67001543Y-148570991D01*
X66992981Y-148581425D01*
X66771144Y-148803262D01*
X66760710Y-148811824D01*
X66754244Y-148815281D01*
X66747229Y-148817409D01*
X66739934Y-148818127D01*
X66732639Y-148817409D01*
X66725624Y-148815281D01*
X66719158Y-148811824D01*
X66708724Y-148803262D01*
X65567649Y-147662187D01*
X65559087Y-147651753D01*
X65555630Y-147645287D01*
X65553502Y-147638272D01*
X65552784Y-147630977D01*
X65553502Y-147623682D01*
X65555630Y-147616667D01*
X65559087Y-147610201D01*
X65567649Y-147599767D01*
X65789486Y-147377930D01*
X65799920Y-147369368D01*
X65806386Y-147365911D01*
X65821323Y-147361380D01*
X65843962Y-147352002D01*
X65864336Y-147338388D01*
X65881663Y-147321061D01*
X65895276Y-147300686D01*
X65904652Y-147278051D01*
X65909183Y-147263114D01*
X65912640Y-147256648D01*
X65921202Y-147246214D01*
X66143039Y-147024377D01*
X66153473Y-147015815D01*
X66159940Y-147012358D01*
X66174876Y-147007827D01*
X66197515Y-146998450D01*
X66217889Y-146984836D01*
X66235216Y-146967509D01*
X66248830Y-146947134D01*
X66258206Y-146924497D01*
X66262737Y-146909561D01*
X66266194Y-146903094D01*
X66274756Y-146892660D01*
X66496593Y-146670823D01*
X66507027Y-146662261D01*
X66513493Y-146658804D01*
X66528430Y-146654273D01*
X66551069Y-146644895D01*
X66571443Y-146631281D01*
X66588770Y-146613954D01*
X66602383Y-146593579D01*
X66611759Y-146570944D01*
X66616290Y-146556007D01*
X66619747Y-146549541D01*
X66628309Y-146539107D01*
X66850146Y-146317270D01*
X66860580Y-146308708D01*
X66867046Y-146305251D01*
X66881983Y-146300720D01*
X66904622Y-146291342D01*
X66924996Y-146277728D01*
X66942323Y-146260401D01*
X66955936Y-146240026D01*
X66965312Y-146217391D01*
X66969843Y-146202454D01*
X66973300Y-146195988D01*
X66981862Y-146185554D01*
X67203699Y-145963717D01*
X67214133Y-145955155D01*
X67220600Y-145951698D01*
X67235536Y-145947167D01*
X67258175Y-145937790D01*
X67278549Y-145924176D01*
X67295876Y-145906849D01*
X67309490Y-145886474D01*
X67318866Y-145863837D01*
X67323397Y-145848901D01*
X67326854Y-145842434D01*
X67335416Y-145832000D01*
X67557253Y-145610163D01*
X67567687Y-145601601D01*
X67574153Y-145598144D01*
X67589090Y-145593613D01*
X67611729Y-145584235D01*
X67632103Y-145570621D01*
X67649430Y-145553294D01*
X67663043Y-145532919D01*
X67672419Y-145510284D01*
X67676950Y-145495347D01*
X67680407Y-145488881D01*
X67688969Y-145478447D01*
X67910806Y-145256610D01*
X67921240Y-145248048D01*
X67927707Y-145244591D01*
X67942643Y-145240060D01*
X67965282Y-145230683D01*
X67985656Y-145217069D01*
X68002983Y-145199742D01*
X68016597Y-145179367D01*
X68025973Y-145156730D01*
X68030504Y-145141794D01*
X68033961Y-145135327D01*
X68042523Y-145124893D01*
X68264360Y-144903056D01*
X68274794Y-144894494D01*
X68281260Y-144891037D01*
X68296197Y-144886506D01*
X68318836Y-144877128D01*
X68339210Y-144863514D01*
X68356537Y-144846187D01*
X68370150Y-144825812D01*
X68379526Y-144803177D01*
X68384057Y-144788240D01*
X68387514Y-144781774D01*
X68396076Y-144771340D01*
X68617913Y-144549503D01*
X68628347Y-144540941D01*
X68634813Y-144537484D01*
X68649750Y-144532953D01*
X68672389Y-144523575D01*
X68692763Y-144509961D01*
X68710090Y-144492634D01*
X68723703Y-144472259D01*
X68733079Y-144449624D01*
X68737610Y-144434687D01*
X68741067Y-144428221D01*
X68749629Y-144417787D01*
X68971466Y-144195950D01*
X68981900Y-144187388D01*
X68988367Y-144183931D01*
X69003303Y-144179400D01*
X69025942Y-144170023D01*
X69046316Y-144156409D01*
X69063643Y-144139082D01*
X69077257Y-144118707D01*
X69086633Y-144096070D01*
X69091164Y-144081134D01*
X69094621Y-144074667D01*
X69103183Y-144064233D01*
X69325020Y-143842396D01*
X69335454Y-143833834D01*
X69341920Y-143830377D01*
X69356857Y-143825846D01*
X69379496Y-143816468D01*
X69399870Y-143802854D01*
X69417197Y-143785527D01*
X69430810Y-143765152D01*
X69440186Y-143742517D01*
X69444717Y-143727580D01*
X69448174Y-143721114D01*
X69456736Y-143710680D01*
X69678573Y-143488843D01*
X69689007Y-143480281D01*
X69695473Y-143476824D01*
X69710410Y-143472293D01*
X69733049Y-143462915D01*
X69753423Y-143449301D01*
X69770750Y-143431974D01*
X69784363Y-143411599D01*
X69793739Y-143388963D01*
X69798270Y-143374027D01*
X69801727Y-143367560D01*
X69810289Y-143357126D01*
X70032126Y-143135289D01*
X70042560Y-143126727D01*
X70049027Y-143123270D01*
X70063963Y-143118739D01*
X70086602Y-143109362D01*
X70106976Y-143095748D01*
X70124303Y-143078421D01*
X70137917Y-143058046D01*
X70147293Y-143035410D01*
X70151824Y-143020473D01*
X70155281Y-143014007D01*
X70163843Y-143003573D01*
X70385680Y-142781736D01*
X70396114Y-142773174D01*
X70402580Y-142769717D01*
X70417517Y-142765186D01*
X70440156Y-142755808D01*
X70460530Y-142742194D01*
X70477857Y-142724867D01*
X70491470Y-142704492D01*
X70500846Y-142681857D01*
X70505377Y-142666920D01*
X70508834Y-142660454D01*
X70517396Y-142650020D01*
X70739233Y-142428183D01*
X70749667Y-142419621D01*
X70756134Y-142416164D01*
X70771070Y-142411633D01*
X70793709Y-142402256D01*
X70814083Y-142388642D01*
X70831410Y-142371315D01*
X70845024Y-142350940D01*
X70854400Y-142328303D01*
X70858931Y-142313367D01*
X70862388Y-142306900D01*
X70870950Y-142296466D01*
X71092787Y-142074629D01*
X71103221Y-142066067D01*
X71109687Y-142062610D01*
X71124624Y-142058079D01*
X71147263Y-142048701D01*
X71167637Y-142035087D01*
X71184964Y-142017760D01*
X71198577Y-141997385D01*
X71207953Y-141974750D01*
X71212484Y-141959813D01*
X71215941Y-141953347D01*
X71224503Y-141942913D01*
X71446340Y-141721076D01*
X71456774Y-141712514D01*
X71463240Y-141709057D01*
X71478177Y-141704526D01*
X71500816Y-141695148D01*
X71521190Y-141681534D01*
X71538517Y-141664207D01*
X71552130Y-141643832D01*
X71561506Y-141621197D01*
X71566037Y-141606260D01*
X71569494Y-141599794D01*
X71578056Y-141589360D01*
X71799893Y-141367523D01*
X71810327Y-141358961D01*
X71816794Y-141355504D01*
X71831730Y-141350973D01*
X71854369Y-141341596D01*
X71874743Y-141327982D01*
X71892070Y-141310655D01*
X71905684Y-141290280D01*
X71915060Y-141267643D01*
X71919591Y-141252707D01*
X71923048Y-141246240D01*
X71931610Y-141235806D01*
X72153447Y-141013969D01*
X72163881Y-141005407D01*
X72170347Y-141001950D01*
X72185284Y-140997419D01*
X72207923Y-140988041D01*
X72228297Y-140974427D01*
X72245624Y-140957100D01*
X72259237Y-140936725D01*
X72268613Y-140914090D01*
X72273144Y-140899153D01*
X72276601Y-140892687D01*
X72285163Y-140882253D01*
X72507000Y-140660416D01*
X72517434Y-140651854D01*
X72523901Y-140648397D01*
X72538837Y-140643866D01*
X72561476Y-140634489D01*
X72581850Y-140620875D01*
X72599177Y-140603548D01*
X72612791Y-140583173D01*
X72622167Y-140560536D01*
X72626698Y-140545600D01*
X72630155Y-140539133D01*
X72638717Y-140528699D01*
X72860554Y-140306862D01*
X72870988Y-140298300D01*
X72877454Y-140294843D01*
X72892391Y-140290312D01*
X72915030Y-140280934D01*
X72935404Y-140267320D01*
X72952731Y-140249993D01*
X72966344Y-140229618D01*
X72975720Y-140206983D01*
X72980251Y-140192046D01*
X72983708Y-140185580D01*
X72992270Y-140175146D01*
X73214107Y-139953309D01*
X73224541Y-139944747D01*
X73231007Y-139941290D01*
X73245944Y-139936759D01*
X73268583Y-139927381D01*
X73288957Y-139913767D01*
X73306284Y-139896440D01*
X73319897Y-139876065D01*
X73329273Y-139853430D01*
X73333804Y-139838493D01*
X73337261Y-139832027D01*
X73345823Y-139821593D01*
X73567660Y-139599756D01*
X73578094Y-139591194D01*
X73584561Y-139587737D01*
X73599497Y-139583206D01*
X73622136Y-139573829D01*
X73642510Y-139560215D01*
X73659837Y-139542888D01*
X73673451Y-139522513D01*
X73682827Y-139499876D01*
X73687358Y-139484940D01*
X73690815Y-139478473D01*
X73699377Y-139468039D01*
X73921214Y-139246202D01*
X73931648Y-139237640D01*
X73938114Y-139234183D01*
X73953051Y-139229652D01*
X73975690Y-139220274D01*
X73996064Y-139206660D01*
X74013391Y-139189333D01*
X74027004Y-139168958D01*
X74036380Y-139146323D01*
X74040911Y-139131386D01*
X74044368Y-139124920D01*
X74052930Y-139114486D01*
X74274767Y-138892649D01*
X74285201Y-138884087D01*
X74291667Y-138880630D01*
X74298682Y-138878502D01*
X74305977Y-138877784D01*
X74313272Y-138878502D01*
X74313272Y-138878502D01*
G37*
G36*
X77601318Y-138878502D02*
G01*
X77608333Y-138880630D01*
X77614799Y-138884087D01*
X77625233Y-138892649D01*
X77847070Y-139114486D01*
X77855632Y-139124920D01*
X77859089Y-139131386D01*
X77863620Y-139146323D01*
X77872998Y-139168962D01*
X77886612Y-139189336D01*
X77903939Y-139206663D01*
X77924314Y-139220276D01*
X77946949Y-139229652D01*
X77961886Y-139234183D01*
X77968352Y-139237640D01*
X77978786Y-139246202D01*
X78200623Y-139468039D01*
X78209185Y-139478473D01*
X78212642Y-139484940D01*
X78217173Y-139499876D01*
X78226550Y-139522515D01*
X78240164Y-139542889D01*
X78257491Y-139560216D01*
X78277866Y-139573830D01*
X78300503Y-139583206D01*
X78315439Y-139587737D01*
X78321906Y-139591194D01*
X78332340Y-139599756D01*
X78554177Y-139821593D01*
X78562739Y-139832027D01*
X78566196Y-139838493D01*
X78570727Y-139853430D01*
X78580105Y-139876069D01*
X78593719Y-139896443D01*
X78611046Y-139913770D01*
X78631421Y-139927383D01*
X78654056Y-139936759D01*
X78668993Y-139941290D01*
X78675459Y-139944747D01*
X78685893Y-139953309D01*
X78907730Y-140175146D01*
X78916292Y-140185580D01*
X78919749Y-140192046D01*
X78924280Y-140206983D01*
X78933658Y-140229622D01*
X78947272Y-140249996D01*
X78964599Y-140267323D01*
X78984974Y-140280936D01*
X79007609Y-140290312D01*
X79022546Y-140294843D01*
X79029012Y-140298300D01*
X79039446Y-140306862D01*
X79261283Y-140528699D01*
X79269845Y-140539133D01*
X79273302Y-140545600D01*
X79277833Y-140560536D01*
X79287210Y-140583175D01*
X79300824Y-140603549D01*
X79318151Y-140620876D01*
X79338526Y-140634490D01*
X79361163Y-140643866D01*
X79376099Y-140648397D01*
X79382566Y-140651854D01*
X79393000Y-140660416D01*
X79614837Y-140882253D01*
X79623399Y-140892687D01*
X79626856Y-140899153D01*
X79631387Y-140914090D01*
X79640765Y-140936729D01*
X79654379Y-140957103D01*
X79671706Y-140974430D01*
X79692081Y-140988043D01*
X79714716Y-140997419D01*
X79729653Y-141001950D01*
X79736119Y-141005407D01*
X79746553Y-141013969D01*
X79968390Y-141235806D01*
X79976952Y-141246240D01*
X79980409Y-141252707D01*
X79984940Y-141267643D01*
X79994317Y-141290282D01*
X80007931Y-141310656D01*
X80025258Y-141327983D01*
X80045633Y-141341597D01*
X80068270Y-141350973D01*
X80083206Y-141355504D01*
X80089673Y-141358961D01*
X80100107Y-141367523D01*
X80321944Y-141589360D01*
X80330506Y-141599794D01*
X80333963Y-141606260D01*
X80338494Y-141621197D01*
X80347872Y-141643836D01*
X80361486Y-141664210D01*
X80378813Y-141681537D01*
X80399188Y-141695150D01*
X80421823Y-141704526D01*
X80436760Y-141709057D01*
X80443226Y-141712514D01*
X80453660Y-141721076D01*
X80675497Y-141942913D01*
X80684059Y-141953347D01*
X80687516Y-141959813D01*
X80692047Y-141974750D01*
X80701425Y-141997389D01*
X80715039Y-142017763D01*
X80732366Y-142035090D01*
X80752741Y-142048703D01*
X80775376Y-142058079D01*
X80790313Y-142062610D01*
X80796779Y-142066067D01*
X80807213Y-142074629D01*
X81029050Y-142296466D01*
X81037612Y-142306900D01*
X81041069Y-142313367D01*
X81045600Y-142328303D01*
X81054977Y-142350942D01*
X81068591Y-142371316D01*
X81085918Y-142388643D01*
X81106293Y-142402257D01*
X81128930Y-142411633D01*
X81143866Y-142416164D01*
X81150333Y-142419621D01*
X81160767Y-142428183D01*
X81382604Y-142650020D01*
X81391166Y-142660454D01*
X81394623Y-142666920D01*
X81399154Y-142681857D01*
X81408532Y-142704496D01*
X81422146Y-142724870D01*
X81439473Y-142742197D01*
X81459848Y-142755810D01*
X81482483Y-142765186D01*
X81497420Y-142769717D01*
X81503886Y-142773174D01*
X81514320Y-142781736D01*
X81736157Y-143003573D01*
X81744719Y-143014007D01*
X81748176Y-143020473D01*
X81752707Y-143035410D01*
X81762085Y-143058049D01*
X81775699Y-143078423D01*
X81793026Y-143095750D01*
X81813401Y-143109363D01*
X81836037Y-143118739D01*
X81850973Y-143123270D01*
X81857440Y-143126727D01*
X81867874Y-143135289D01*
X82089711Y-143357126D01*
X82098273Y-143367560D01*
X82101730Y-143374027D01*
X82106261Y-143388963D01*
X82115638Y-143411602D01*
X82129252Y-143431976D01*
X82146579Y-143449303D01*
X82166954Y-143462917D01*
X82189590Y-143472293D01*
X82204527Y-143476824D01*
X82210993Y-143480281D01*
X82221427Y-143488843D01*
X82443264Y-143710680D01*
X82451826Y-143721114D01*
X82455283Y-143727580D01*
X82459814Y-143742517D01*
X82469192Y-143765156D01*
X82482806Y-143785530D01*
X82500133Y-143802857D01*
X82520508Y-143816470D01*
X82543143Y-143825846D01*
X82558080Y-143830377D01*
X82564546Y-143833834D01*
X82574980Y-143842396D01*
X82796817Y-144064233D01*
X82805379Y-144074667D01*
X82808836Y-144081134D01*
X82813367Y-144096070D01*
X82822744Y-144118709D01*
X82836358Y-144139083D01*
X82853685Y-144156410D01*
X82874060Y-144170024D01*
X82896697Y-144179400D01*
X82911633Y-144183931D01*
X82918100Y-144187388D01*
X82928534Y-144195950D01*
X83150371Y-144417787D01*
X83158933Y-144428221D01*
X83162390Y-144434687D01*
X83166921Y-144449624D01*
X83176299Y-144472263D01*
X83189913Y-144492637D01*
X83207240Y-144509964D01*
X83227615Y-144523577D01*
X83250250Y-144532953D01*
X83265187Y-144537484D01*
X83271653Y-144540941D01*
X83282087Y-144549503D01*
X83503924Y-144771340D01*
X83512486Y-144781774D01*
X83515943Y-144788240D01*
X83520474Y-144803177D01*
X83529852Y-144825816D01*
X83543466Y-144846190D01*
X83560793Y-144863517D01*
X83581168Y-144877130D01*
X83603803Y-144886506D01*
X83618740Y-144891037D01*
X83625206Y-144894494D01*
X83635640Y-144903056D01*
X83857477Y-145124893D01*
X83866039Y-145135327D01*
X83869496Y-145141794D01*
X83874027Y-145156730D01*
X83883404Y-145179369D01*
X83897018Y-145199743D01*
X83914345Y-145217070D01*
X83934720Y-145230684D01*
X83957357Y-145240060D01*
X83972293Y-145244591D01*
X83978760Y-145248048D01*
X83989194Y-145256610D01*
X84211031Y-145478447D01*
X84219593Y-145488881D01*
X84223050Y-145495347D01*
X84227581Y-145510284D01*
X84236959Y-145532923D01*
X84250573Y-145553297D01*
X84267900Y-145570624D01*
X84288275Y-145584237D01*
X84310910Y-145593613D01*
X84325847Y-145598144D01*
X84332313Y-145601601D01*
X84342747Y-145610163D01*
X84564584Y-145832000D01*
X84573146Y-145842434D01*
X84576603Y-145848901D01*
X84581134Y-145863837D01*
X84590511Y-145886476D01*
X84604125Y-145906850D01*
X84621452Y-145924177D01*
X84641827Y-145937791D01*
X84664464Y-145947167D01*
X84679400Y-145951698D01*
X84685867Y-145955155D01*
X84696301Y-145963717D01*
X84918138Y-146185554D01*
X84926700Y-146195988D01*
X84930157Y-146202454D01*
X84934688Y-146217391D01*
X84944066Y-146240030D01*
X84957680Y-146260404D01*
X84975007Y-146277731D01*
X84995382Y-146291344D01*
X85018017Y-146300720D01*
X85032954Y-146305251D01*
X85039420Y-146308708D01*
X85049854Y-146317270D01*
X85271691Y-146539107D01*
X85280253Y-146549541D01*
X85283710Y-146556007D01*
X85288241Y-146570944D01*
X85297619Y-146593583D01*
X85311233Y-146613957D01*
X85328560Y-146631284D01*
X85348935Y-146644897D01*
X85371570Y-146654273D01*
X85386507Y-146658804D01*
X85392973Y-146662261D01*
X85403407Y-146670823D01*
X85625244Y-146892660D01*
X85633806Y-146903094D01*
X85637263Y-146909561D01*
X85641794Y-146924497D01*
X85651171Y-146947136D01*
X85664785Y-146967510D01*
X85682112Y-146984837D01*
X85702487Y-146998451D01*
X85725124Y-147007827D01*
X85740060Y-147012358D01*
X85746527Y-147015815D01*
X85756961Y-147024377D01*
X85978798Y-147246214D01*
X85987360Y-147256648D01*
X85990817Y-147263114D01*
X85995348Y-147278051D01*
X86004726Y-147300690D01*
X86018340Y-147321064D01*
X86035667Y-147338391D01*
X86056042Y-147352004D01*
X86078677Y-147361380D01*
X86093614Y-147365911D01*
X86100080Y-147369368D01*
X86110514Y-147377930D01*
X86332351Y-147599767D01*
X86340913Y-147610201D01*
X86344370Y-147616667D01*
X86346498Y-147623682D01*
X86347216Y-147630977D01*
X86346498Y-147638272D01*
X86344370Y-147645287D01*
X86340913Y-147651753D01*
X86332351Y-147662187D01*
X85191276Y-148803262D01*
X85180842Y-148811824D01*
X85174376Y-148815281D01*
X85167361Y-148817409D01*
X85160066Y-148818127D01*
X85152771Y-148817409D01*
X85145756Y-148815281D01*
X85139290Y-148811824D01*
X85128856Y-148803262D01*
X84907019Y-148581425D01*
X84898457Y-148570991D01*
X84895000Y-148564525D01*
X84890469Y-148549588D01*
X84881091Y-148526949D01*
X84867477Y-148506575D01*
X84850150Y-148489248D01*
X84829775Y-148475635D01*
X84807140Y-148466259D01*
X84792203Y-148461728D01*
X84785737Y-148458271D01*
X84775303Y-148449709D01*
X84553466Y-148227872D01*
X84544904Y-148217438D01*
X84541447Y-148210971D01*
X84536916Y-148196035D01*
X84527539Y-148173396D01*
X84513925Y-148153022D01*
X84496598Y-148135695D01*
X84476223Y-148122081D01*
X84453586Y-148112705D01*
X84438650Y-148108174D01*
X84432183Y-148104717D01*
X84421749Y-148096155D01*
X84199912Y-147874318D01*
X84191350Y-147863884D01*
X84187893Y-147857418D01*
X84183362Y-147842481D01*
X84173984Y-147819842D01*
X84160370Y-147799468D01*
X84143043Y-147782141D01*
X84122668Y-147768528D01*
X84100033Y-147759152D01*
X84085096Y-147754621D01*
X84078630Y-147751164D01*
X84068196Y-147742602D01*
X83846359Y-147520765D01*
X83837797Y-147510331D01*
X83834340Y-147503865D01*
X83829809Y-147488928D01*
X83820431Y-147466289D01*
X83806817Y-147445915D01*
X83789490Y-147428588D01*
X83769115Y-147414975D01*
X83746480Y-147405599D01*
X83731543Y-147401068D01*
X83725077Y-147397611D01*
X83714643Y-147389049D01*
X83492806Y-147167212D01*
X83484244Y-147156778D01*
X83480787Y-147150311D01*
X83476256Y-147135375D01*
X83466879Y-147112736D01*
X83453265Y-147092362D01*
X83435938Y-147075035D01*
X83415563Y-147061421D01*
X83392926Y-147052045D01*
X83377990Y-147047514D01*
X83371523Y-147044057D01*
X83361089Y-147035495D01*
X83139252Y-146813658D01*
X83130690Y-146803224D01*
X83127233Y-146796758D01*
X83122702Y-146781821D01*
X83113324Y-146759182D01*
X83099710Y-146738808D01*
X83082383Y-146721481D01*
X83062008Y-146707868D01*
X83039373Y-146698492D01*
X83024436Y-146693961D01*
X83017970Y-146690504D01*
X83007536Y-146681942D01*
X82785699Y-146460105D01*
X82777137Y-146449671D01*
X82773680Y-146443204D01*
X82769149Y-146428268D01*
X82759772Y-146405629D01*
X82746158Y-146385255D01*
X82728831Y-146367928D01*
X82708456Y-146354314D01*
X82685819Y-146344938D01*
X82670883Y-146340407D01*
X82664416Y-146336950D01*
X82653982Y-146328388D01*
X82432145Y-146106551D01*
X82423583Y-146096117D01*
X82420126Y-146089651D01*
X82415595Y-146074714D01*
X82406217Y-146052075D01*
X82392603Y-146031701D01*
X82375276Y-146014374D01*
X82354901Y-146000761D01*
X82332266Y-145991385D01*
X82317329Y-145986854D01*
X82310863Y-145983397D01*
X82300429Y-145974835D01*
X82078592Y-145752998D01*
X82070030Y-145742564D01*
X82066573Y-145736098D01*
X82062042Y-145721161D01*
X82052664Y-145698522D01*
X82039050Y-145678148D01*
X82021723Y-145660821D01*
X82001348Y-145647208D01*
X81978713Y-145637832D01*
X81963776Y-145633301D01*
X81957310Y-145629844D01*
X81946876Y-145621282D01*
X81725039Y-145399445D01*
X81716477Y-145389011D01*
X81713020Y-145382544D01*
X81708489Y-145367608D01*
X81699112Y-145344969D01*
X81685498Y-145324595D01*
X81668171Y-145307268D01*
X81647796Y-145293654D01*
X81625159Y-145284278D01*
X81610223Y-145279747D01*
X81603756Y-145276290D01*
X81593322Y-145267728D01*
X81371485Y-145045891D01*
X81362923Y-145035457D01*
X81359466Y-145028991D01*
X81354935Y-145014054D01*
X81345557Y-144991415D01*
X81331943Y-144971041D01*
X81314616Y-144953714D01*
X81294241Y-144940101D01*
X81271606Y-144930725D01*
X81256669Y-144926194D01*
X81250203Y-144922737D01*
X81239769Y-144914175D01*
X81017932Y-144692338D01*
X81009370Y-144681904D01*
X81005913Y-144675437D01*
X81001382Y-144660501D01*
X80992005Y-144637862D01*
X80978391Y-144617488D01*
X80961064Y-144600161D01*
X80940689Y-144586547D01*
X80918053Y-144577171D01*
X80903116Y-144572640D01*
X80896650Y-144569183D01*
X80886216Y-144560621D01*
X80664379Y-144338784D01*
X80655817Y-144328350D01*
X80652360Y-144321884D01*
X80647829Y-144306947D01*
X80638451Y-144284308D01*
X80624837Y-144263934D01*
X80607510Y-144246607D01*
X80587135Y-144232994D01*
X80564499Y-144223618D01*
X80549563Y-144219087D01*
X80543096Y-144215630D01*
X80532662Y-144207068D01*
X80310825Y-143985231D01*
X80302263Y-143974797D01*
X80298806Y-143968331D01*
X80294275Y-143953394D01*
X80284897Y-143930755D01*
X80271283Y-143910381D01*
X80253956Y-143893054D01*
X80233581Y-143879441D01*
X80210946Y-143870065D01*
X80196009Y-143865534D01*
X80189543Y-143862077D01*
X80179109Y-143853515D01*
X79957272Y-143631678D01*
X79948710Y-143621244D01*
X79945253Y-143614777D01*
X79940722Y-143599841D01*
X79931345Y-143577202D01*
X79917731Y-143556828D01*
X79900404Y-143539501D01*
X79880029Y-143525887D01*
X79857392Y-143516511D01*
X79842456Y-143511980D01*
X79835989Y-143508523D01*
X79825555Y-143499961D01*
X79603718Y-143278124D01*
X79595156Y-143267690D01*
X79591699Y-143261224D01*
X79587168Y-143246287D01*
X79577790Y-143223648D01*
X79564176Y-143203274D01*
X79546849Y-143185947D01*
X79526474Y-143172334D01*
X79503839Y-143162958D01*
X79488902Y-143158427D01*
X79482436Y-143154970D01*
X79472002Y-143146408D01*
X79250165Y-142924571D01*
X79241603Y-142914137D01*
X79238146Y-142907671D01*
X79233615Y-142892734D01*
X79224237Y-142870095D01*
X79210623Y-142849721D01*
X79193296Y-142832394D01*
X79172921Y-142818781D01*
X79150286Y-142809405D01*
X79135349Y-142804874D01*
X79128883Y-142801417D01*
X79118449Y-142792855D01*
X78896612Y-142571018D01*
X78888050Y-142560584D01*
X78884593Y-142554117D01*
X78880062Y-142539181D01*
X78870685Y-142516542D01*
X78857071Y-142496168D01*
X78839744Y-142478841D01*
X78819369Y-142465227D01*
X78796732Y-142455851D01*
X78781796Y-142451320D01*
X78775329Y-142447863D01*
X78764895Y-142439301D01*
X78543058Y-142217464D01*
X78534496Y-142207030D01*
X78531039Y-142200564D01*
X78526508Y-142185627D01*
X78517130Y-142162988D01*
X78503516Y-142142614D01*
X78486189Y-142125287D01*
X78465814Y-142111674D01*
X78443179Y-142102298D01*
X78428242Y-142097767D01*
X78421776Y-142094310D01*
X78411342Y-142085748D01*
X78189505Y-141863911D01*
X78180943Y-141853477D01*
X78177486Y-141847010D01*
X78172955Y-141832074D01*
X78163578Y-141809435D01*
X78149964Y-141789061D01*
X78132637Y-141771734D01*
X78112262Y-141758120D01*
X78089625Y-141748744D01*
X78074689Y-141744213D01*
X78068222Y-141740756D01*
X78057788Y-141732194D01*
X77835951Y-141510357D01*
X77827389Y-141499923D01*
X77823932Y-141493457D01*
X77819401Y-141478520D01*
X77810023Y-141455881D01*
X77796409Y-141435507D01*
X77779082Y-141418180D01*
X77758707Y-141404567D01*
X77736072Y-141395191D01*
X77721135Y-141390660D01*
X77714669Y-141387203D01*
X77704235Y-141378641D01*
X77482398Y-141156804D01*
X77473836Y-141146370D01*
X77470379Y-141139904D01*
X77465848Y-141124967D01*
X77456470Y-141102328D01*
X77442856Y-141081954D01*
X77425529Y-141064627D01*
X77405154Y-141051014D01*
X77382519Y-141041638D01*
X77367582Y-141037107D01*
X77361116Y-141033650D01*
X77350682Y-141025088D01*
X77128845Y-140803251D01*
X77120283Y-140792817D01*
X77116826Y-140786350D01*
X77112295Y-140771414D01*
X77102918Y-140748775D01*
X77089304Y-140728401D01*
X77071977Y-140711074D01*
X77051602Y-140697460D01*
X77028965Y-140688084D01*
X77014029Y-140683553D01*
X77007562Y-140680096D01*
X76997128Y-140671534D01*
X76775291Y-140449697D01*
X76766729Y-140439263D01*
X76763272Y-140432797D01*
X76758741Y-140417860D01*
X76749363Y-140395221D01*
X76735749Y-140374847D01*
X76718422Y-140357520D01*
X76698047Y-140343907D01*
X76675412Y-140334531D01*
X76660475Y-140330000D01*
X76654009Y-140326543D01*
X76643575Y-140317981D01*
X76421738Y-140096144D01*
X76413176Y-140085710D01*
X76409719Y-140079244D01*
X76407591Y-140072229D01*
X76406873Y-140064934D01*
X76407591Y-140057639D01*
X76409719Y-140050624D01*
X76413176Y-140044158D01*
X76421738Y-140033724D01*
X77562813Y-138892649D01*
X77573247Y-138884087D01*
X77579713Y-138880630D01*
X77586728Y-138878502D01*
X77594023Y-138877784D01*
X77601318Y-138878502D01*
X77601318Y-138878502D01*
G37*
G36*
X91539599Y-146240137D02*
G01*
X91549208Y-146243052D01*
X91558072Y-146247790D01*
X91565837Y-146254163D01*
X91572210Y-146261928D01*
X91576948Y-146270792D01*
X91579863Y-146280401D01*
X91581452Y-146296540D01*
X91581452Y-147284260D01*
X91579863Y-147300399D01*
X91576948Y-147310008D01*
X91572210Y-147318872D01*
X91558342Y-147335770D01*
X91558253Y-147335859D01*
X91558177Y-147335971D01*
X91558025Y-147336157D01*
X91558043Y-147336171D01*
X91544567Y-147356186D01*
X91535111Y-147378792D01*
X91530246Y-147402808D01*
X91529600Y-147415489D01*
X91529600Y-148340400D01*
X90029600Y-148340400D01*
X90029600Y-147415489D01*
X90027198Y-147391103D01*
X90020085Y-147367654D01*
X90008534Y-147346043D01*
X90001144Y-147336090D01*
X89988786Y-147321064D01*
X89987019Y-147318916D01*
X89982274Y-147310061D01*
X89981263Y-147306739D01*
X89979358Y-147300485D01*
X89979358Y-147300482D01*
X89979348Y-147300450D01*
X89978353Y-147290400D01*
X89978353Y-147290335D01*
X89977748Y-147284225D01*
X89977748Y-146296540D01*
X89979337Y-146280401D01*
X89982252Y-146270792D01*
X89986990Y-146261928D01*
X89993363Y-146254163D01*
X90001128Y-146247790D01*
X90009992Y-146243052D01*
X90019601Y-146240137D01*
X90035740Y-146238548D01*
X91523460Y-146238548D01*
X91539599Y-146240137D01*
X91539599Y-146240137D01*
G37*
G36*
X65007063Y-146734438D02*
G01*
X65027682Y-146740693D01*
X65046678Y-146750846D01*
X65068099Y-146768426D01*
X65392468Y-147092795D01*
X65410048Y-147114216D01*
X65420201Y-147133212D01*
X65426456Y-147153831D01*
X65428567Y-147175269D01*
X65426456Y-147196707D01*
X65420201Y-147217326D01*
X65410048Y-147236322D01*
X65392468Y-147257743D01*
X65032743Y-147617468D01*
X65011322Y-147635048D01*
X64992326Y-147645201D01*
X64971707Y-147651456D01*
X64950269Y-147653567D01*
X64928831Y-147651456D01*
X64908212Y-147645201D01*
X64889216Y-147635048D01*
X64867795Y-147617468D01*
X64543426Y-147293099D01*
X64525846Y-147271678D01*
X64515693Y-147252682D01*
X64509438Y-147232063D01*
X64507327Y-147210625D01*
X64509438Y-147189187D01*
X64515693Y-147168568D01*
X64525846Y-147149572D01*
X64543426Y-147128151D01*
X64903151Y-146768426D01*
X64924572Y-146750846D01*
X64943568Y-146740693D01*
X64964187Y-146734438D01*
X64985625Y-146732327D01*
X65007063Y-146734438D01*
X65007063Y-146734438D01*
G37*
G36*
X64321169Y-146048544D02*
G01*
X64341788Y-146054799D01*
X64360784Y-146064952D01*
X64382205Y-146082532D01*
X64706574Y-146406901D01*
X64724154Y-146428322D01*
X64734307Y-146447318D01*
X64740562Y-146467937D01*
X64742673Y-146489375D01*
X64740562Y-146510813D01*
X64734307Y-146531432D01*
X64724154Y-146550428D01*
X64706574Y-146571849D01*
X64346849Y-146931574D01*
X64325428Y-146949154D01*
X64306432Y-146959307D01*
X64285813Y-146965562D01*
X64264375Y-146967673D01*
X64242937Y-146965562D01*
X64222318Y-146959307D01*
X64203322Y-146949154D01*
X64181901Y-146931574D01*
X63857532Y-146607205D01*
X63839952Y-146585784D01*
X63829799Y-146566788D01*
X63823544Y-146546169D01*
X63821433Y-146524731D01*
X63823544Y-146503293D01*
X63829799Y-146482674D01*
X63839952Y-146463678D01*
X63857532Y-146442257D01*
X64217257Y-146082532D01*
X64238678Y-146064952D01*
X64257674Y-146054799D01*
X64278293Y-146048544D01*
X64299731Y-146046433D01*
X64321169Y-146048544D01*
X64321169Y-146048544D01*
G37*
G36*
X65782063Y-145959438D02*
G01*
X65802682Y-145965693D01*
X65821678Y-145975846D01*
X65843099Y-145993426D01*
X66167468Y-146317795D01*
X66185048Y-146339216D01*
X66195201Y-146358212D01*
X66201456Y-146378831D01*
X66203567Y-146400269D01*
X66201456Y-146421707D01*
X66195201Y-146442326D01*
X66185048Y-146461322D01*
X66167468Y-146482743D01*
X65807743Y-146842468D01*
X65786322Y-146860048D01*
X65767326Y-146870201D01*
X65746707Y-146876456D01*
X65725269Y-146878567D01*
X65703831Y-146876456D01*
X65683212Y-146870201D01*
X65664216Y-146860048D01*
X65642795Y-146842468D01*
X65318426Y-146518099D01*
X65300846Y-146496678D01*
X65290693Y-146477682D01*
X65284438Y-146457063D01*
X65282327Y-146435625D01*
X65284438Y-146414187D01*
X65290693Y-146393568D01*
X65300846Y-146374572D01*
X65318426Y-146353151D01*
X65678151Y-145993426D01*
X65699572Y-145975846D01*
X65718568Y-145965693D01*
X65739187Y-145959438D01*
X65760625Y-145957327D01*
X65782063Y-145959438D01*
X65782063Y-145959438D01*
G37*
G36*
X65096169Y-145273544D02*
G01*
X65116788Y-145279799D01*
X65135784Y-145289952D01*
X65157205Y-145307532D01*
X65481574Y-145631901D01*
X65499154Y-145653322D01*
X65509307Y-145672318D01*
X65515562Y-145692937D01*
X65517673Y-145714375D01*
X65515562Y-145735813D01*
X65509307Y-145756432D01*
X65499154Y-145775428D01*
X65481574Y-145796849D01*
X65121849Y-146156574D01*
X65100428Y-146174154D01*
X65081432Y-146184307D01*
X65060813Y-146190562D01*
X65039375Y-146192673D01*
X65017937Y-146190562D01*
X64997318Y-146184307D01*
X64978322Y-146174154D01*
X64956901Y-146156574D01*
X64632532Y-145832205D01*
X64614952Y-145810784D01*
X64604799Y-145791788D01*
X64598544Y-145771169D01*
X64596433Y-145749731D01*
X64598544Y-145728293D01*
X64604799Y-145707674D01*
X64614952Y-145688678D01*
X64632532Y-145667257D01*
X64992257Y-145307532D01*
X65013678Y-145289952D01*
X65032674Y-145279799D01*
X65053293Y-145273544D01*
X65074731Y-145271433D01*
X65096169Y-145273544D01*
X65096169Y-145273544D01*
G37*
G36*
X61260721Y-144870174D02*
G01*
X61360995Y-144911709D01*
X61382673Y-144926194D01*
X61451242Y-144972010D01*
X61527990Y-145048758D01*
X61540093Y-145066872D01*
X61588291Y-145139005D01*
X61629826Y-145239279D01*
X61651000Y-145345730D01*
X61651000Y-145454270D01*
X61629826Y-145560721D01*
X61588291Y-145660995D01*
X61569794Y-145688678D01*
X61527990Y-145751242D01*
X61451242Y-145827990D01*
X61438200Y-145836704D01*
X61360995Y-145888291D01*
X61260721Y-145929826D01*
X61154270Y-145951000D01*
X61045730Y-145951000D01*
X60939279Y-145929826D01*
X60839005Y-145888291D01*
X60761800Y-145836704D01*
X60748758Y-145827990D01*
X60672010Y-145751242D01*
X60630206Y-145688678D01*
X60611709Y-145660995D01*
X60570174Y-145560721D01*
X60549000Y-145454270D01*
X60549000Y-145345730D01*
X60570174Y-145239279D01*
X60611709Y-145139005D01*
X60659907Y-145066872D01*
X60672010Y-145048758D01*
X60748758Y-144972010D01*
X60817327Y-144926194D01*
X60839005Y-144911709D01*
X60939279Y-144870174D01*
X61045730Y-144849000D01*
X61154270Y-144849000D01*
X61260721Y-144870174D01*
X61260721Y-144870174D01*
G37*
G36*
X84890513Y-144651738D02*
G01*
X84911132Y-144657993D01*
X84930128Y-144668146D01*
X84951549Y-144685726D01*
X85311274Y-145045451D01*
X85328854Y-145066872D01*
X85339007Y-145085868D01*
X85345262Y-145106487D01*
X85347373Y-145127925D01*
X85345262Y-145149363D01*
X85339007Y-145169982D01*
X85328854Y-145188978D01*
X85311274Y-145210399D01*
X84986905Y-145534768D01*
X84965484Y-145552348D01*
X84946488Y-145562501D01*
X84925869Y-145568756D01*
X84904431Y-145570867D01*
X84882993Y-145568756D01*
X84862374Y-145562501D01*
X84843378Y-145552348D01*
X84821957Y-145534768D01*
X84462232Y-145175043D01*
X84444652Y-145153622D01*
X84434499Y-145134626D01*
X84428244Y-145114007D01*
X84426133Y-145092569D01*
X84428244Y-145071131D01*
X84434499Y-145050512D01*
X84444652Y-145031516D01*
X84462232Y-145010095D01*
X84786601Y-144685726D01*
X84808022Y-144668146D01*
X84827018Y-144657993D01*
X84847637Y-144651738D01*
X84869075Y-144649627D01*
X84890513Y-144651738D01*
X84890513Y-144651738D01*
G37*
G36*
X85576407Y-143965844D02*
G01*
X85597026Y-143972099D01*
X85616022Y-143982252D01*
X85637443Y-143999832D01*
X85997168Y-144359557D01*
X86014748Y-144380978D01*
X86024901Y-144399974D01*
X86031156Y-144420593D01*
X86033267Y-144442031D01*
X86031156Y-144463469D01*
X86024901Y-144484088D01*
X86014748Y-144503084D01*
X85997168Y-144524505D01*
X85672799Y-144848874D01*
X85651378Y-144866454D01*
X85632382Y-144876607D01*
X85611763Y-144882862D01*
X85590325Y-144884973D01*
X85568887Y-144882862D01*
X85548268Y-144876607D01*
X85529272Y-144866454D01*
X85507851Y-144848874D01*
X85148126Y-144489149D01*
X85130546Y-144467728D01*
X85120393Y-144448732D01*
X85114138Y-144428113D01*
X85112027Y-144406675D01*
X85114138Y-144385237D01*
X85120393Y-144364618D01*
X85130546Y-144345622D01*
X85148126Y-144324201D01*
X85472495Y-143999832D01*
X85493916Y-143982252D01*
X85512912Y-143972099D01*
X85533531Y-143965844D01*
X85554969Y-143963733D01*
X85576407Y-143965844D01*
X85576407Y-143965844D01*
G37*
G36*
X93168604Y-143328347D02*
G01*
X93205144Y-143339432D01*
X93238821Y-143357433D01*
X93268341Y-143381659D01*
X93292567Y-143411179D01*
X93310568Y-143444856D01*
X93321653Y-143481396D01*
X93326000Y-143525538D01*
X93326000Y-144474462D01*
X93321653Y-144518604D01*
X93310568Y-144555144D01*
X93292567Y-144588821D01*
X93268341Y-144618341D01*
X93238821Y-144642567D01*
X93205144Y-144660568D01*
X93168604Y-144671653D01*
X93124462Y-144676000D01*
X91675538Y-144676000D01*
X91631396Y-144671653D01*
X91594856Y-144660568D01*
X91561179Y-144642567D01*
X91531659Y-144618341D01*
X91507433Y-144588821D01*
X91489432Y-144555144D01*
X91478347Y-144518604D01*
X91474000Y-144474462D01*
X91474000Y-143525538D01*
X91478347Y-143481396D01*
X91489432Y-143444856D01*
X91507433Y-143411179D01*
X91531659Y-143381659D01*
X91561179Y-143357433D01*
X91594856Y-143339432D01*
X91631396Y-143328347D01*
X91675538Y-143324000D01*
X93124462Y-143324000D01*
X93168604Y-143328347D01*
X93168604Y-143328347D01*
G37*
G36*
X83341113Y-143165838D02*
G01*
X83361732Y-143172093D01*
X83380728Y-143182246D01*
X83402149Y-143199826D01*
X83761874Y-143559551D01*
X83779454Y-143580972D01*
X83789607Y-143599968D01*
X83795862Y-143620587D01*
X83797973Y-143642025D01*
X83795862Y-143663463D01*
X83789607Y-143684082D01*
X83779454Y-143703078D01*
X83761874Y-143724499D01*
X83437505Y-144048868D01*
X83416084Y-144066448D01*
X83397088Y-144076601D01*
X83376469Y-144082856D01*
X83355031Y-144084967D01*
X83333593Y-144082856D01*
X83312974Y-144076601D01*
X83293978Y-144066448D01*
X83272557Y-144048868D01*
X82912832Y-143689143D01*
X82895252Y-143667722D01*
X82885099Y-143648726D01*
X82878844Y-143628107D01*
X82876733Y-143606669D01*
X82878844Y-143585231D01*
X82885099Y-143564612D01*
X82895252Y-143545616D01*
X82912832Y-143524195D01*
X83237201Y-143199826D01*
X83258622Y-143182246D01*
X83277618Y-143172093D01*
X83298237Y-143165838D01*
X83319675Y-143163727D01*
X83341113Y-143165838D01*
X83341113Y-143165838D01*
G37*
G36*
X84027007Y-142479944D02*
G01*
X84047626Y-142486199D01*
X84066622Y-142496352D01*
X84088043Y-142513932D01*
X84447768Y-142873657D01*
X84465348Y-142895078D01*
X84475501Y-142914074D01*
X84481756Y-142934693D01*
X84483867Y-142956131D01*
X84481756Y-142977569D01*
X84475501Y-142998188D01*
X84465348Y-143017184D01*
X84447768Y-143038605D01*
X84123399Y-143362974D01*
X84101978Y-143380554D01*
X84082982Y-143390707D01*
X84062363Y-143396962D01*
X84040925Y-143399073D01*
X84019487Y-143396962D01*
X83998868Y-143390707D01*
X83979872Y-143380554D01*
X83958451Y-143362974D01*
X83598726Y-143003249D01*
X83581146Y-142981828D01*
X83570993Y-142962832D01*
X83564738Y-142942213D01*
X83562627Y-142920775D01*
X83564738Y-142899337D01*
X83570993Y-142878718D01*
X83581146Y-142859722D01*
X83598726Y-142838301D01*
X83923095Y-142513932D01*
X83944516Y-142496352D01*
X83963512Y-142486199D01*
X83984131Y-142479944D01*
X84005569Y-142477833D01*
X84027007Y-142479944D01*
X84027007Y-142479944D01*
G37*
G36*
X89634200Y-143343400D02*
G01*
X88532200Y-143343400D01*
X88532200Y-141441400D01*
X89634200Y-141441400D01*
X89634200Y-143343400D01*
X89634200Y-143343400D01*
G37*
G36*
X87134200Y-143343400D02*
G01*
X86032200Y-143343400D01*
X86032200Y-141441400D01*
X87134200Y-141441400D01*
X87134200Y-143343400D01*
X87134200Y-143343400D01*
G37*
G36*
X68160721Y-141470174D02*
G01*
X68260995Y-141511709D01*
X68260996Y-141511710D01*
X68351242Y-141572010D01*
X68427990Y-141648758D01*
X68445165Y-141674462D01*
X68488291Y-141739005D01*
X68529826Y-141839279D01*
X68551000Y-141945730D01*
X68551000Y-142054270D01*
X68529826Y-142160721D01*
X68488291Y-142260995D01*
X68488290Y-142260996D01*
X68427990Y-142351242D01*
X68351242Y-142427990D01*
X68332471Y-142440532D01*
X68260995Y-142488291D01*
X68160721Y-142529826D01*
X68054270Y-142551000D01*
X67945730Y-142551000D01*
X67839279Y-142529826D01*
X67739005Y-142488291D01*
X67667529Y-142440532D01*
X67648758Y-142427990D01*
X67572010Y-142351242D01*
X67511710Y-142260996D01*
X67511709Y-142260995D01*
X67470174Y-142160721D01*
X67449000Y-142054270D01*
X67449000Y-141945730D01*
X67470174Y-141839279D01*
X67511709Y-141739005D01*
X67554835Y-141674462D01*
X67572010Y-141648758D01*
X67648758Y-141572010D01*
X67739004Y-141511710D01*
X67739005Y-141511709D01*
X67839279Y-141470174D01*
X67945730Y-141449000D01*
X68054270Y-141449000D01*
X68160721Y-141470174D01*
X68160721Y-141470174D01*
G37*
G36*
X85663300Y-142111700D02*
G01*
X84661300Y-142111700D01*
X84661300Y-141009700D01*
X85663300Y-141009700D01*
X85663300Y-142111700D01*
X85663300Y-142111700D01*
G37*
G36*
X84113300Y-142111700D02*
G01*
X83111300Y-142111700D01*
X83111300Y-141009700D01*
X84113300Y-141009700D01*
X84113300Y-142111700D01*
X84113300Y-142111700D01*
G37*
G36*
X93168604Y-140528347D02*
G01*
X93205144Y-140539432D01*
X93238821Y-140557433D01*
X93268341Y-140581659D01*
X93292567Y-140611179D01*
X93310568Y-140644856D01*
X93321653Y-140681396D01*
X93326000Y-140725538D01*
X93326000Y-141674462D01*
X93321653Y-141718604D01*
X93310568Y-141755144D01*
X93292567Y-141788821D01*
X93268341Y-141818341D01*
X93238821Y-141842567D01*
X93205144Y-141860568D01*
X93168604Y-141871653D01*
X93124462Y-141876000D01*
X91675538Y-141876000D01*
X91631396Y-141871653D01*
X91594856Y-141860568D01*
X91561179Y-141842567D01*
X91531659Y-141818341D01*
X91507433Y-141788821D01*
X91489432Y-141755144D01*
X91478347Y-141718604D01*
X91474000Y-141674462D01*
X91474000Y-140725538D01*
X91478347Y-140681396D01*
X91489432Y-140644856D01*
X91507433Y-140611179D01*
X91531659Y-140581659D01*
X91561179Y-140557433D01*
X91594856Y-140539432D01*
X91631396Y-140528347D01*
X91675538Y-140524000D01*
X93124462Y-140524000D01*
X93168604Y-140528347D01*
X93168604Y-140528347D01*
G37*
G36*
X64660721Y-140770174D02*
G01*
X64760995Y-140811709D01*
X64793621Y-140833509D01*
X64851242Y-140872010D01*
X64927990Y-140948758D01*
X64941714Y-140969298D01*
X64988291Y-141039005D01*
X65029826Y-141139279D01*
X65051000Y-141245730D01*
X65051000Y-141354270D01*
X65029826Y-141460721D01*
X64988291Y-141560995D01*
X64974182Y-141582110D01*
X64927990Y-141651242D01*
X64851242Y-141727990D01*
X64820181Y-141748744D01*
X64760995Y-141788291D01*
X64660721Y-141829826D01*
X64554270Y-141851000D01*
X64445730Y-141851000D01*
X64339279Y-141829826D01*
X64239005Y-141788291D01*
X64179819Y-141748744D01*
X64148758Y-141727990D01*
X64072010Y-141651242D01*
X64025818Y-141582110D01*
X64011709Y-141560995D01*
X63970174Y-141460721D01*
X63949000Y-141354270D01*
X63949000Y-141245730D01*
X63970174Y-141139279D01*
X64011709Y-141039005D01*
X64058286Y-140969298D01*
X64072010Y-140948758D01*
X64148758Y-140872010D01*
X64206379Y-140833509D01*
X64239005Y-140811709D01*
X64339279Y-140770174D01*
X64445730Y-140749000D01*
X64554270Y-140749000D01*
X64660721Y-140770174D01*
X64660721Y-140770174D01*
G37*
G36*
X98171180Y-139568206D02*
G01*
X98352789Y-139623296D01*
X98520152Y-139712754D01*
X98666853Y-139833147D01*
X98787246Y-139979848D01*
X98876704Y-140147211D01*
X98931794Y-140328820D01*
X98951000Y-140523820D01*
X98951000Y-140676180D01*
X98931794Y-140871180D01*
X98876704Y-141052789D01*
X98787246Y-141220152D01*
X98666853Y-141366853D01*
X98520152Y-141487246D01*
X98352789Y-141576704D01*
X98171180Y-141631794D01*
X97976180Y-141651000D01*
X94623820Y-141651000D01*
X94428820Y-141631794D01*
X94247211Y-141576704D01*
X94079848Y-141487246D01*
X93933147Y-141366853D01*
X93812754Y-141220152D01*
X93723296Y-141052789D01*
X93668206Y-140871180D01*
X93649000Y-140676180D01*
X93649000Y-140523820D01*
X93668206Y-140328820D01*
X93723296Y-140147211D01*
X93812754Y-139979848D01*
X93933147Y-139833147D01*
X94079848Y-139712754D01*
X94247211Y-139623296D01*
X94428820Y-139568206D01*
X94623820Y-139549000D01*
X97976180Y-139549000D01*
X98171180Y-139568206D01*
X98171180Y-139568206D01*
G37*
G36*
X90541938Y-140331716D02*
G01*
X90562557Y-140337971D01*
X90581553Y-140348124D01*
X90598208Y-140361792D01*
X90611876Y-140378447D01*
X90622029Y-140397443D01*
X90628284Y-140418062D01*
X90631000Y-140445640D01*
X90631000Y-140954360D01*
X90628284Y-140981938D01*
X90622029Y-141002557D01*
X90611876Y-141021553D01*
X90598208Y-141038208D01*
X90581553Y-141051876D01*
X90562557Y-141062029D01*
X90541938Y-141068284D01*
X90514360Y-141071000D01*
X90055640Y-141071000D01*
X90028062Y-141068284D01*
X90007443Y-141062029D01*
X89988447Y-141051876D01*
X89971792Y-141038208D01*
X89958124Y-141021553D01*
X89947971Y-141002557D01*
X89941716Y-140981938D01*
X89939000Y-140954360D01*
X89939000Y-140445640D01*
X89941716Y-140418062D01*
X89947971Y-140397443D01*
X89958124Y-140378447D01*
X89971792Y-140361792D01*
X89988447Y-140348124D01*
X90007443Y-140337971D01*
X90028062Y-140331716D01*
X90055640Y-140329000D01*
X90514360Y-140329000D01*
X90541938Y-140331716D01*
X90541938Y-140331716D01*
G37*
G36*
X87571938Y-140331716D02*
G01*
X87592557Y-140337971D01*
X87611553Y-140348124D01*
X87628208Y-140361792D01*
X87641876Y-140378447D01*
X87652029Y-140397443D01*
X87658284Y-140418062D01*
X87661000Y-140445640D01*
X87661000Y-140954360D01*
X87658284Y-140981938D01*
X87652029Y-141002557D01*
X87641876Y-141021553D01*
X87628208Y-141038208D01*
X87611553Y-141051876D01*
X87592557Y-141062029D01*
X87571938Y-141068284D01*
X87544360Y-141071000D01*
X87085640Y-141071000D01*
X87058062Y-141068284D01*
X87037443Y-141062029D01*
X87018447Y-141051876D01*
X87001792Y-141038208D01*
X86988124Y-141021553D01*
X86977971Y-141002557D01*
X86971716Y-140981938D01*
X86969000Y-140954360D01*
X86969000Y-140445640D01*
X86971716Y-140418062D01*
X86977971Y-140397443D01*
X86988124Y-140378447D01*
X87001792Y-140361792D01*
X87018447Y-140348124D01*
X87037443Y-140337971D01*
X87058062Y-140331716D01*
X87085640Y-140329000D01*
X87544360Y-140329000D01*
X87571938Y-140331716D01*
X87571938Y-140331716D01*
G37*
G36*
X89571938Y-140331716D02*
G01*
X89592557Y-140337971D01*
X89611553Y-140348124D01*
X89628208Y-140361792D01*
X89641876Y-140378447D01*
X89652029Y-140397443D01*
X89658284Y-140418062D01*
X89661000Y-140445640D01*
X89661000Y-140954360D01*
X89658284Y-140981938D01*
X89652029Y-141002557D01*
X89641876Y-141021553D01*
X89628208Y-141038208D01*
X89611553Y-141051876D01*
X89592557Y-141062029D01*
X89571938Y-141068284D01*
X89544360Y-141071000D01*
X89085640Y-141071000D01*
X89058062Y-141068284D01*
X89037443Y-141062029D01*
X89018447Y-141051876D01*
X89001792Y-141038208D01*
X88988124Y-141021553D01*
X88977971Y-141002557D01*
X88971716Y-140981938D01*
X88969000Y-140954360D01*
X88969000Y-140445640D01*
X88971716Y-140418062D01*
X88977971Y-140397443D01*
X88988124Y-140378447D01*
X89001792Y-140361792D01*
X89018447Y-140348124D01*
X89037443Y-140337971D01*
X89058062Y-140331716D01*
X89085640Y-140329000D01*
X89544360Y-140329000D01*
X89571938Y-140331716D01*
X89571938Y-140331716D01*
G37*
G36*
X88541938Y-140331716D02*
G01*
X88562557Y-140337971D01*
X88581553Y-140348124D01*
X88598208Y-140361792D01*
X88611876Y-140378447D01*
X88622029Y-140397443D01*
X88628284Y-140418062D01*
X88631000Y-140445640D01*
X88631000Y-140954360D01*
X88628284Y-140981938D01*
X88622029Y-141002557D01*
X88611876Y-141021553D01*
X88598208Y-141038208D01*
X88581553Y-141051876D01*
X88562557Y-141062029D01*
X88541938Y-141068284D01*
X88514360Y-141071000D01*
X88055640Y-141071000D01*
X88028062Y-141068284D01*
X88007443Y-141062029D01*
X87988447Y-141051876D01*
X87971792Y-141038208D01*
X87958124Y-141021553D01*
X87947971Y-141002557D01*
X87941716Y-140981938D01*
X87939000Y-140954360D01*
X87939000Y-140445640D01*
X87941716Y-140418062D01*
X87947971Y-140397443D01*
X87958124Y-140378447D01*
X87971792Y-140361792D01*
X87988447Y-140348124D01*
X88007443Y-140337971D01*
X88028062Y-140331716D01*
X88055640Y-140329000D01*
X88514360Y-140329000D01*
X88541938Y-140331716D01*
X88541938Y-140331716D01*
G37*
G36*
X86519238Y-140237416D02*
G01*
X86539857Y-140243671D01*
X86558853Y-140253824D01*
X86575508Y-140267492D01*
X86589176Y-140284147D01*
X86599329Y-140303143D01*
X86605584Y-140323762D01*
X86608300Y-140351340D01*
X86608300Y-140810060D01*
X86605584Y-140837638D01*
X86599329Y-140858257D01*
X86589176Y-140877253D01*
X86575508Y-140893908D01*
X86558853Y-140907576D01*
X86539857Y-140917729D01*
X86519238Y-140923984D01*
X86491660Y-140926700D01*
X85982940Y-140926700D01*
X85955362Y-140923984D01*
X85934743Y-140917729D01*
X85915747Y-140907576D01*
X85899093Y-140893908D01*
X85884926Y-140876645D01*
X85875000Y-140866719D01*
X85872285Y-140848419D01*
X85869017Y-140837644D01*
X85866300Y-140810060D01*
X85866300Y-140386699D01*
X85863898Y-140362313D01*
X85856785Y-140338864D01*
X85845234Y-140317253D01*
X85844564Y-140316436D01*
X85857745Y-140309391D01*
X85876687Y-140293846D01*
X85884926Y-140284755D01*
X85899093Y-140267492D01*
X85915747Y-140253824D01*
X85934743Y-140243671D01*
X85955362Y-140237416D01*
X85982940Y-140234700D01*
X86491660Y-140234700D01*
X86519238Y-140237416D01*
X86519238Y-140237416D01*
G37*
G36*
X80128760Y-139916491D02*
G01*
X80149379Y-139922746D01*
X80168375Y-139932899D01*
X80189796Y-139950479D01*
X80549521Y-140310204D01*
X80567101Y-140331625D01*
X80577254Y-140350621D01*
X80583509Y-140371240D01*
X80585620Y-140392678D01*
X80583509Y-140414116D01*
X80577254Y-140434735D01*
X80567101Y-140453731D01*
X80549521Y-140475152D01*
X80225152Y-140799521D01*
X80203731Y-140817101D01*
X80184735Y-140827254D01*
X80164116Y-140833509D01*
X80142678Y-140835620D01*
X80121240Y-140833509D01*
X80100621Y-140827254D01*
X80081625Y-140817101D01*
X80060204Y-140799521D01*
X79700479Y-140439796D01*
X79682899Y-140418375D01*
X79672746Y-140399379D01*
X79666491Y-140378760D01*
X79664380Y-140357322D01*
X79666491Y-140335884D01*
X79672746Y-140315265D01*
X79682899Y-140296269D01*
X79700479Y-140274848D01*
X80024848Y-139950479D01*
X80046269Y-139932899D01*
X80065265Y-139922746D01*
X80085884Y-139916491D01*
X80107322Y-139914380D01*
X80128760Y-139916491D01*
X80128760Y-139916491D01*
G37*
G36*
X69960721Y-139670174D02*
G01*
X70060995Y-139711709D01*
X70064015Y-139713727D01*
X70151242Y-139772010D01*
X70227990Y-139848758D01*
X70246236Y-139876065D01*
X70288291Y-139939005D01*
X70329826Y-140039279D01*
X70351000Y-140145730D01*
X70351000Y-140254270D01*
X70329826Y-140360721D01*
X70288291Y-140460995D01*
X70269682Y-140488845D01*
X70227990Y-140551242D01*
X70151242Y-140627990D01*
X70115527Y-140651854D01*
X70060995Y-140688291D01*
X69960721Y-140729826D01*
X69854270Y-140751000D01*
X69745730Y-140751000D01*
X69639279Y-140729826D01*
X69539005Y-140688291D01*
X69484473Y-140651854D01*
X69448758Y-140627990D01*
X69372010Y-140551242D01*
X69330318Y-140488845D01*
X69311709Y-140460995D01*
X69270174Y-140360721D01*
X69249000Y-140254270D01*
X69249000Y-140145730D01*
X69270174Y-140039279D01*
X69311709Y-139939005D01*
X69353764Y-139876065D01*
X69372010Y-139848758D01*
X69448758Y-139772010D01*
X69535985Y-139713727D01*
X69539005Y-139711709D01*
X69639279Y-139670174D01*
X69745730Y-139649000D01*
X69854270Y-139649000D01*
X69960721Y-139670174D01*
X69960721Y-139670174D01*
G37*
G36*
X82841938Y-138481716D02*
G01*
X82862557Y-138487971D01*
X82881553Y-138498124D01*
X82898208Y-138511792D01*
X82911876Y-138528447D01*
X82922029Y-138547443D01*
X82928284Y-138568062D01*
X82931000Y-138595640D01*
X82931000Y-139034701D01*
X82933402Y-139059087D01*
X82940515Y-139082536D01*
X82952066Y-139104147D01*
X82967611Y-139123089D01*
X82986553Y-139138634D01*
X83008164Y-139150185D01*
X83031613Y-139157298D01*
X83055999Y-139159700D01*
X84113300Y-139159700D01*
X84113300Y-140261700D01*
X83111300Y-140261700D01*
X83111300Y-139277616D01*
X83108898Y-139253230D01*
X83101785Y-139229781D01*
X83090234Y-139208170D01*
X83074689Y-139189228D01*
X83055747Y-139173683D01*
X83034136Y-139162132D01*
X83010687Y-139155019D01*
X82986301Y-139152617D01*
X82961915Y-139155019D01*
X82938466Y-139162132D01*
X82907004Y-139180989D01*
X82881553Y-139201876D01*
X82862557Y-139212029D01*
X82841938Y-139218284D01*
X82814360Y-139221000D01*
X82355640Y-139221000D01*
X82328062Y-139218284D01*
X82307443Y-139212029D01*
X82288447Y-139201876D01*
X82271792Y-139188208D01*
X82258124Y-139171553D01*
X82247971Y-139152557D01*
X82241716Y-139131938D01*
X82239000Y-139104360D01*
X82239000Y-138595640D01*
X82241716Y-138568062D01*
X82247971Y-138547443D01*
X82258124Y-138528447D01*
X82271792Y-138511792D01*
X82288447Y-138498124D01*
X82307443Y-138487971D01*
X82328062Y-138481716D01*
X82355640Y-138479000D01*
X82814360Y-138479000D01*
X82841938Y-138481716D01*
X82841938Y-138481716D01*
G37*
G36*
X85663300Y-139235458D02*
G01*
X85665702Y-139259844D01*
X85672815Y-139283293D01*
X85684366Y-139304904D01*
X85699911Y-139323846D01*
X85718853Y-139339391D01*
X85740464Y-139350942D01*
X85763913Y-139358055D01*
X85788299Y-139360457D01*
X85812685Y-139358055D01*
X85836134Y-139350942D01*
X85857745Y-139339391D01*
X85876687Y-139323846D01*
X85884926Y-139314755D01*
X85899093Y-139297492D01*
X85915747Y-139283824D01*
X85934743Y-139273671D01*
X85955362Y-139267416D01*
X85982940Y-139264700D01*
X86491660Y-139264700D01*
X86519238Y-139267416D01*
X86539857Y-139273671D01*
X86558853Y-139283824D01*
X86575508Y-139297492D01*
X86589176Y-139314147D01*
X86599329Y-139333143D01*
X86605584Y-139353762D01*
X86608300Y-139381340D01*
X86608300Y-139840060D01*
X86605584Y-139867638D01*
X86599329Y-139888257D01*
X86589176Y-139907253D01*
X86575508Y-139923908D01*
X86558853Y-139937576D01*
X86539857Y-139947729D01*
X86519238Y-139953984D01*
X86491660Y-139956700D01*
X85982940Y-139956700D01*
X85955362Y-139953984D01*
X85934743Y-139947729D01*
X85915747Y-139937576D01*
X85899093Y-139923908D01*
X85884926Y-139906645D01*
X85867599Y-139889318D01*
X85847225Y-139875704D01*
X85824586Y-139866326D01*
X85800553Y-139861545D01*
X85776049Y-139861545D01*
X85752015Y-139866325D01*
X85729376Y-139875702D01*
X85709002Y-139889315D01*
X85691675Y-139906642D01*
X85678061Y-139927016D01*
X85668683Y-139949655D01*
X85663902Y-139973688D01*
X85663300Y-139985942D01*
X85663300Y-140205458D01*
X85665702Y-140229844D01*
X85672815Y-140253293D01*
X85677309Y-140261700D01*
X84661300Y-140261700D01*
X84661300Y-139159700D01*
X85663300Y-139159700D01*
X85663300Y-139235458D01*
X85663300Y-139235458D01*
G37*
G36*
X80814654Y-139230597D02*
G01*
X80835273Y-139236852D01*
X80854269Y-139247005D01*
X80875690Y-139264585D01*
X81235415Y-139624310D01*
X81252995Y-139645731D01*
X81263148Y-139664727D01*
X81269403Y-139685346D01*
X81271514Y-139706784D01*
X81269403Y-139728222D01*
X81263148Y-139748841D01*
X81252995Y-139767837D01*
X81235415Y-139789258D01*
X80911046Y-140113627D01*
X80889625Y-140131207D01*
X80870629Y-140141360D01*
X80850010Y-140147615D01*
X80828572Y-140149726D01*
X80807134Y-140147615D01*
X80786515Y-140141360D01*
X80767519Y-140131207D01*
X80746098Y-140113627D01*
X80386373Y-139753902D01*
X80368793Y-139732481D01*
X80358640Y-139713485D01*
X80352385Y-139692866D01*
X80350274Y-139671428D01*
X80352385Y-139649990D01*
X80358640Y-139629371D01*
X80368793Y-139610375D01*
X80386373Y-139588954D01*
X80710742Y-139264585D01*
X80732163Y-139247005D01*
X80751159Y-139236852D01*
X80771778Y-139230597D01*
X80793216Y-139228486D01*
X80814654Y-139230597D01*
X80814654Y-139230597D01*
G37*
G36*
X66460721Y-138970174D02*
G01*
X66560995Y-139011709D01*
X66560996Y-139011710D01*
X66651242Y-139072010D01*
X66727990Y-139148758D01*
X66733696Y-139157298D01*
X66788291Y-139239005D01*
X66829826Y-139339279D01*
X66851000Y-139445730D01*
X66851000Y-139554270D01*
X66829826Y-139660721D01*
X66788291Y-139760995D01*
X66760292Y-139802898D01*
X66727990Y-139851242D01*
X66651242Y-139927990D01*
X66614063Y-139952832D01*
X66560995Y-139988291D01*
X66460721Y-140029826D01*
X66354270Y-140051000D01*
X66245730Y-140051000D01*
X66139279Y-140029826D01*
X66039005Y-139988291D01*
X65985937Y-139952832D01*
X65948758Y-139927990D01*
X65872010Y-139851242D01*
X65839708Y-139802898D01*
X65811709Y-139760995D01*
X65770174Y-139660721D01*
X65749000Y-139554270D01*
X65749000Y-139445730D01*
X65770174Y-139339279D01*
X65811709Y-139239005D01*
X65866304Y-139157298D01*
X65872010Y-139148758D01*
X65948758Y-139072010D01*
X66039004Y-139011710D01*
X66039005Y-139011709D01*
X66139279Y-138970174D01*
X66245730Y-138949000D01*
X66354270Y-138949000D01*
X66460721Y-138970174D01*
X66460721Y-138970174D01*
G37*
G36*
X80308305Y-139155850D02*
G01*
X79705850Y-139758305D01*
X78785197Y-138837652D01*
X79387652Y-138235197D01*
X80308305Y-139155850D01*
X80308305Y-139155850D01*
G37*
G36*
X81871938Y-138481716D02*
G01*
X81892557Y-138487971D01*
X81911553Y-138498124D01*
X81928208Y-138511792D01*
X81941876Y-138528447D01*
X81952029Y-138547443D01*
X81958284Y-138568062D01*
X81961000Y-138595640D01*
X81961000Y-139104360D01*
X81958284Y-139131938D01*
X81952029Y-139152557D01*
X81941876Y-139171553D01*
X81928208Y-139188208D01*
X81911553Y-139201876D01*
X81892557Y-139212029D01*
X81871938Y-139218284D01*
X81844360Y-139221000D01*
X81385640Y-139221000D01*
X81358062Y-139218284D01*
X81337443Y-139212029D01*
X81318447Y-139201876D01*
X81301792Y-139188208D01*
X81288124Y-139171553D01*
X81277971Y-139152557D01*
X81271716Y-139131938D01*
X81269000Y-139104360D01*
X81269000Y-138595640D01*
X81271716Y-138568062D01*
X81277971Y-138547443D01*
X81288124Y-138528447D01*
X81301792Y-138511792D01*
X81318447Y-138498124D01*
X81337443Y-138487971D01*
X81358062Y-138481716D01*
X81385640Y-138479000D01*
X81844360Y-138479000D01*
X81871938Y-138481716D01*
X81871938Y-138481716D01*
G37*
G36*
X73788063Y-137958838D02*
G01*
X73808682Y-137965093D01*
X73827678Y-137975246D01*
X73849099Y-137992826D01*
X74173468Y-138317195D01*
X74191048Y-138338616D01*
X74201201Y-138357612D01*
X74207456Y-138378231D01*
X74209567Y-138399669D01*
X74207456Y-138421107D01*
X74201201Y-138441726D01*
X74191048Y-138460722D01*
X74173468Y-138482143D01*
X73813743Y-138841868D01*
X73792322Y-138859448D01*
X73773326Y-138869601D01*
X73752707Y-138875856D01*
X73731269Y-138877967D01*
X73709831Y-138875856D01*
X73689212Y-138869601D01*
X73670216Y-138859448D01*
X73648795Y-138841868D01*
X73324426Y-138517499D01*
X73306846Y-138496078D01*
X73296693Y-138477082D01*
X73290438Y-138456463D01*
X73288327Y-138435025D01*
X73290438Y-138413587D01*
X73296693Y-138392968D01*
X73306846Y-138373972D01*
X73324426Y-138352551D01*
X73684151Y-137992826D01*
X73705572Y-137975246D01*
X73724568Y-137965093D01*
X73745187Y-137958838D01*
X73766625Y-137956727D01*
X73788063Y-137958838D01*
X73788063Y-137958838D01*
G37*
G36*
X93216895Y-136125423D02*
G01*
X93223910Y-136127551D01*
X93230376Y-136131008D01*
X93236042Y-136135658D01*
X93240692Y-136141324D01*
X93244149Y-136147790D01*
X93246277Y-136154805D01*
X93247600Y-136168240D01*
X93247600Y-136481960D01*
X93246277Y-136495395D01*
X93244149Y-136502409D01*
X93236790Y-136516177D01*
X93227413Y-136538816D01*
X93222633Y-136562849D01*
X93222633Y-136587353D01*
X93227414Y-136611386D01*
X93236790Y-136634023D01*
X93244149Y-136647791D01*
X93246277Y-136654805D01*
X93247600Y-136668240D01*
X93247600Y-136981960D01*
X93246277Y-136995395D01*
X93244149Y-137002409D01*
X93236790Y-137016177D01*
X93227413Y-137038816D01*
X93222633Y-137062849D01*
X93222633Y-137087353D01*
X93227414Y-137111386D01*
X93236790Y-137134023D01*
X93244149Y-137147791D01*
X93246277Y-137154805D01*
X93247600Y-137168240D01*
X93247600Y-137481960D01*
X93246277Y-137495395D01*
X93244149Y-137502409D01*
X93236790Y-137516177D01*
X93227413Y-137538816D01*
X93222633Y-137562849D01*
X93222633Y-137587353D01*
X93227414Y-137611386D01*
X93236790Y-137634023D01*
X93244149Y-137647791D01*
X93246277Y-137654805D01*
X93247600Y-137668240D01*
X93247600Y-137981960D01*
X93246277Y-137995395D01*
X93244149Y-138002409D01*
X93236790Y-138016177D01*
X93227413Y-138038816D01*
X93222633Y-138062849D01*
X93222633Y-138087353D01*
X93227414Y-138111386D01*
X93236790Y-138134023D01*
X93244149Y-138147791D01*
X93246277Y-138154805D01*
X93247600Y-138168240D01*
X93247600Y-138481960D01*
X93246277Y-138495395D01*
X93244149Y-138502410D01*
X93240692Y-138508876D01*
X93236042Y-138514542D01*
X93230376Y-138519192D01*
X93223910Y-138522649D01*
X93216895Y-138524777D01*
X93203460Y-138526100D01*
X91739740Y-138526100D01*
X91726305Y-138524777D01*
X91719290Y-138522649D01*
X91712824Y-138519192D01*
X91707158Y-138514542D01*
X91702508Y-138508876D01*
X91699051Y-138502410D01*
X91696923Y-138495395D01*
X91695600Y-138481960D01*
X91695600Y-138168240D01*
X91696923Y-138154805D01*
X91699051Y-138147791D01*
X91706410Y-138134023D01*
X91715787Y-138111384D01*
X91720567Y-138087351D01*
X91720567Y-138062847D01*
X91715786Y-138038814D01*
X91706410Y-138016177D01*
X91699051Y-138002409D01*
X91696923Y-137995395D01*
X91695600Y-137981960D01*
X91695600Y-137668240D01*
X91696923Y-137654805D01*
X91699051Y-137647791D01*
X91706410Y-137634023D01*
X91715787Y-137611384D01*
X91720567Y-137587351D01*
X91720567Y-137562847D01*
X91715786Y-137538814D01*
X91706410Y-137516177D01*
X91699051Y-137502409D01*
X91696923Y-137495395D01*
X91695600Y-137481960D01*
X91695600Y-137168240D01*
X91696923Y-137154805D01*
X91699051Y-137147791D01*
X91706410Y-137134023D01*
X91715787Y-137111384D01*
X91720567Y-137087351D01*
X91720567Y-137062847D01*
X91715786Y-137038814D01*
X91706410Y-137016177D01*
X91699051Y-137002409D01*
X91696923Y-136995395D01*
X91695600Y-136981960D01*
X91695600Y-136668240D01*
X91696923Y-136654805D01*
X91699051Y-136647791D01*
X91706410Y-136634023D01*
X91715787Y-136611384D01*
X91720567Y-136587351D01*
X91720567Y-136562847D01*
X91715786Y-136538814D01*
X91706410Y-136516177D01*
X91699051Y-136502409D01*
X91696923Y-136495395D01*
X91695600Y-136481960D01*
X91695600Y-136168240D01*
X91696923Y-136154805D01*
X91699051Y-136147790D01*
X91702508Y-136141324D01*
X91707158Y-136135658D01*
X91712824Y-136131008D01*
X91719290Y-136127551D01*
X91726305Y-136125423D01*
X91739740Y-136124100D01*
X93203460Y-136124100D01*
X93216895Y-136125423D01*
X93216895Y-136125423D01*
G37*
G36*
X88816895Y-136125423D02*
G01*
X88823910Y-136127551D01*
X88830376Y-136131008D01*
X88836042Y-136135658D01*
X88840692Y-136141324D01*
X88844149Y-136147790D01*
X88846277Y-136154805D01*
X88847600Y-136168240D01*
X88847600Y-136481960D01*
X88846277Y-136495395D01*
X88844149Y-136502409D01*
X88836790Y-136516177D01*
X88827413Y-136538816D01*
X88822633Y-136562849D01*
X88822633Y-136587353D01*
X88827414Y-136611386D01*
X88836790Y-136634023D01*
X88844149Y-136647791D01*
X88846277Y-136654805D01*
X88847600Y-136668240D01*
X88847600Y-136981960D01*
X88846277Y-136995395D01*
X88844149Y-137002409D01*
X88836790Y-137016177D01*
X88827413Y-137038816D01*
X88822633Y-137062849D01*
X88822633Y-137087353D01*
X88827414Y-137111386D01*
X88836790Y-137134023D01*
X88844149Y-137147791D01*
X88846277Y-137154805D01*
X88847600Y-137168240D01*
X88847600Y-137481960D01*
X88846277Y-137495395D01*
X88844149Y-137502409D01*
X88836790Y-137516177D01*
X88827413Y-137538816D01*
X88822633Y-137562849D01*
X88822633Y-137587353D01*
X88827414Y-137611386D01*
X88836790Y-137634023D01*
X88844149Y-137647791D01*
X88846277Y-137654805D01*
X88847600Y-137668240D01*
X88847600Y-137981960D01*
X88846277Y-137995395D01*
X88844149Y-138002409D01*
X88836790Y-138016177D01*
X88827413Y-138038816D01*
X88822633Y-138062849D01*
X88822633Y-138087353D01*
X88827414Y-138111386D01*
X88836790Y-138134023D01*
X88844149Y-138147791D01*
X88846277Y-138154805D01*
X88847600Y-138168240D01*
X88847600Y-138481960D01*
X88846277Y-138495395D01*
X88844149Y-138502410D01*
X88840692Y-138508876D01*
X88836042Y-138514542D01*
X88830376Y-138519192D01*
X88823910Y-138522649D01*
X88816895Y-138524777D01*
X88803460Y-138526100D01*
X87339740Y-138526100D01*
X87326305Y-138524777D01*
X87319290Y-138522649D01*
X87312824Y-138519192D01*
X87307158Y-138514542D01*
X87302508Y-138508876D01*
X87299051Y-138502410D01*
X87296923Y-138495395D01*
X87295600Y-138481960D01*
X87295600Y-138168240D01*
X87296923Y-138154805D01*
X87299051Y-138147791D01*
X87306410Y-138134023D01*
X87315787Y-138111384D01*
X87320567Y-138087351D01*
X87320567Y-138062847D01*
X87315786Y-138038814D01*
X87306410Y-138016177D01*
X87299051Y-138002409D01*
X87296923Y-137995395D01*
X87295600Y-137981960D01*
X87295600Y-137668240D01*
X87296923Y-137654805D01*
X87299051Y-137647791D01*
X87306410Y-137634023D01*
X87315787Y-137611384D01*
X87320567Y-137587351D01*
X87320567Y-137562847D01*
X87315786Y-137538814D01*
X87306410Y-137516177D01*
X87299051Y-137502409D01*
X87296923Y-137495395D01*
X87295600Y-137481960D01*
X87295600Y-137168240D01*
X87296923Y-137154805D01*
X87299051Y-137147791D01*
X87306410Y-137134023D01*
X87315787Y-137111384D01*
X87320567Y-137087351D01*
X87320567Y-137062847D01*
X87315786Y-137038814D01*
X87306410Y-137016177D01*
X87299051Y-137002409D01*
X87296923Y-136995395D01*
X87295600Y-136981960D01*
X87295600Y-136668240D01*
X87296923Y-136654805D01*
X87299051Y-136647791D01*
X87306410Y-136634023D01*
X87315787Y-136611384D01*
X87320567Y-136587351D01*
X87320567Y-136562847D01*
X87315786Y-136538814D01*
X87306410Y-136516177D01*
X87299051Y-136502409D01*
X87296923Y-136495395D01*
X87295600Y-136481960D01*
X87295600Y-136168240D01*
X87296923Y-136154805D01*
X87299051Y-136147790D01*
X87302508Y-136141324D01*
X87307158Y-136135658D01*
X87312824Y-136131008D01*
X87319290Y-136127551D01*
X87326305Y-136125423D01*
X87339740Y-136124100D01*
X88803460Y-136124100D01*
X88816895Y-136125423D01*
X88816895Y-136125423D01*
G37*
G36*
X78964803Y-137812348D02*
G01*
X78362348Y-138414803D01*
X77441695Y-137494150D01*
X78044150Y-136891695D01*
X78964803Y-137812348D01*
X78964803Y-137812348D01*
G37*
G36*
X73102169Y-137272944D02*
G01*
X73122788Y-137279199D01*
X73141784Y-137289352D01*
X73163205Y-137306932D01*
X73487574Y-137631301D01*
X73505154Y-137652722D01*
X73515307Y-137671718D01*
X73521562Y-137692337D01*
X73523673Y-137713775D01*
X73521562Y-137735213D01*
X73515307Y-137755832D01*
X73505154Y-137774828D01*
X73487574Y-137796249D01*
X73127849Y-138155974D01*
X73106428Y-138173554D01*
X73087432Y-138183707D01*
X73066813Y-138189962D01*
X73045375Y-138192073D01*
X73023937Y-138189962D01*
X73003318Y-138183707D01*
X72984322Y-138173554D01*
X72962901Y-138155974D01*
X72638532Y-137831605D01*
X72620952Y-137810184D01*
X72610799Y-137791188D01*
X72604544Y-137770569D01*
X72602433Y-137749131D01*
X72604544Y-137727693D01*
X72610799Y-137707074D01*
X72620952Y-137688078D01*
X72638532Y-137666657D01*
X72998257Y-137306932D01*
X73019678Y-137289352D01*
X73038674Y-137279199D01*
X73059293Y-137272944D01*
X73080731Y-137270833D01*
X73102169Y-137272944D01*
X73102169Y-137272944D01*
G37*
G36*
X71839521Y-137087374D02*
G01*
X71939795Y-137128909D01*
X71959294Y-137141938D01*
X72030042Y-137189210D01*
X72106790Y-137265958D01*
X72106791Y-137265960D01*
X72167091Y-137356205D01*
X72208626Y-137456479D01*
X72229800Y-137562930D01*
X72229800Y-137671470D01*
X72208626Y-137777921D01*
X72167091Y-137878195D01*
X72167090Y-137878196D01*
X72106790Y-137968442D01*
X72030042Y-138045190D01*
X72003616Y-138062847D01*
X71939795Y-138105491D01*
X71839521Y-138147026D01*
X71733070Y-138168200D01*
X71624530Y-138168200D01*
X71518079Y-138147026D01*
X71417805Y-138105491D01*
X71353984Y-138062847D01*
X71327558Y-138045190D01*
X71250810Y-137968442D01*
X71190510Y-137878196D01*
X71190509Y-137878195D01*
X71148974Y-137777921D01*
X71127800Y-137671470D01*
X71127800Y-137562930D01*
X71148974Y-137456479D01*
X71190509Y-137356205D01*
X71250809Y-137265960D01*
X71250810Y-137265958D01*
X71327558Y-137189210D01*
X71398306Y-137141938D01*
X71417805Y-137128909D01*
X71518079Y-137087374D01*
X71624530Y-137066200D01*
X71733070Y-137066200D01*
X71839521Y-137087374D01*
X71839521Y-137087374D01*
G37*
G36*
X98171180Y-135568206D02*
G01*
X98352789Y-135623296D01*
X98520152Y-135712754D01*
X98666853Y-135833147D01*
X98787246Y-135979848D01*
X98876704Y-136147211D01*
X98931794Y-136328820D01*
X98951000Y-136523820D01*
X98951000Y-136676180D01*
X98931794Y-136871180D01*
X98876704Y-137052789D01*
X98787246Y-137220152D01*
X98666853Y-137366853D01*
X98520152Y-137487246D01*
X98352789Y-137576704D01*
X98171180Y-137631794D01*
X97976180Y-137651000D01*
X94623820Y-137651000D01*
X94428820Y-137631794D01*
X94247211Y-137576704D01*
X94079848Y-137487246D01*
X93933147Y-137366853D01*
X93812754Y-137220152D01*
X93723296Y-137052789D01*
X93668206Y-136871180D01*
X93649000Y-136676180D01*
X93649000Y-136523820D01*
X93668206Y-136328820D01*
X93723296Y-136147211D01*
X93812754Y-135979848D01*
X93933147Y-135833147D01*
X94079848Y-135712754D01*
X94247211Y-135623296D01*
X94428820Y-135568206D01*
X94623820Y-135549000D01*
X97976180Y-135549000D01*
X98171180Y-135568206D01*
X98171180Y-135568206D01*
G37*
G36*
X60160721Y-136470174D02*
G01*
X60260995Y-136511709D01*
X60283026Y-136526430D01*
X60351242Y-136572010D01*
X60427990Y-136648758D01*
X60432030Y-136654805D01*
X60488291Y-136739005D01*
X60529826Y-136839279D01*
X60551000Y-136945730D01*
X60551000Y-137054270D01*
X60529826Y-137160721D01*
X60488291Y-137260995D01*
X60488290Y-137260996D01*
X60427990Y-137351242D01*
X60351242Y-137427990D01*
X60325475Y-137445207D01*
X60260995Y-137488291D01*
X60160721Y-137529826D01*
X60054270Y-137551000D01*
X59945730Y-137551000D01*
X59839279Y-137529826D01*
X59739005Y-137488291D01*
X59674525Y-137445207D01*
X59648758Y-137427990D01*
X59572010Y-137351242D01*
X59511710Y-137260996D01*
X59511709Y-137260995D01*
X59470174Y-137160721D01*
X59449000Y-137054270D01*
X59449000Y-136945730D01*
X59470174Y-136839279D01*
X59511709Y-136739005D01*
X59567970Y-136654805D01*
X59572010Y-136648758D01*
X59648758Y-136572010D01*
X59716974Y-136526430D01*
X59739005Y-136511709D01*
X59839279Y-136470174D01*
X59945730Y-136449000D01*
X60054270Y-136449000D01*
X60160721Y-136470174D01*
X60160721Y-136470174D01*
G37*
G36*
X85331938Y-136541716D02*
G01*
X85352557Y-136547971D01*
X85371553Y-136558124D01*
X85388208Y-136571792D01*
X85401876Y-136588447D01*
X85412029Y-136607443D01*
X85418284Y-136628062D01*
X85421000Y-136655640D01*
X85421000Y-137114360D01*
X85418284Y-137141938D01*
X85412029Y-137162557D01*
X85401876Y-137181553D01*
X85388208Y-137198208D01*
X85371553Y-137211876D01*
X85352557Y-137222029D01*
X85331938Y-137228284D01*
X85304360Y-137231000D01*
X84795640Y-137231000D01*
X84768062Y-137228284D01*
X84747443Y-137222029D01*
X84728447Y-137211876D01*
X84711792Y-137198208D01*
X84698124Y-137181553D01*
X84687971Y-137162557D01*
X84681716Y-137141938D01*
X84679000Y-137114360D01*
X84679000Y-136655640D01*
X84681716Y-136628062D01*
X84687971Y-136607443D01*
X84698124Y-136588447D01*
X84711792Y-136571792D01*
X84728447Y-136558124D01*
X84747443Y-136547971D01*
X84768062Y-136541716D01*
X84795640Y-136539000D01*
X85304360Y-136539000D01*
X85331938Y-136541716D01*
X85331938Y-136541716D01*
G37*
G36*
X83976000Y-137031000D02*
G01*
X81324000Y-137031000D01*
X81324000Y-135869000D01*
X83976000Y-135869000D01*
X83976000Y-137031000D01*
X83976000Y-137031000D01*
G37*
G36*
X80556938Y-136291716D02*
G01*
X80577557Y-136297971D01*
X80596553Y-136308124D01*
X80613208Y-136321792D01*
X80626876Y-136338447D01*
X80637029Y-136357443D01*
X80643284Y-136378062D01*
X80646000Y-136405640D01*
X80646000Y-136864360D01*
X80643284Y-136891938D01*
X80637029Y-136912557D01*
X80626876Y-136931553D01*
X80613208Y-136948208D01*
X80596553Y-136961876D01*
X80577557Y-136972029D01*
X80556938Y-136978284D01*
X80529360Y-136981000D01*
X80020640Y-136981000D01*
X79993062Y-136978284D01*
X79972443Y-136972029D01*
X79953447Y-136961876D01*
X79936792Y-136948208D01*
X79923124Y-136931553D01*
X79912971Y-136912557D01*
X79906716Y-136891938D01*
X79904000Y-136864360D01*
X79904000Y-136405640D01*
X79906716Y-136378062D01*
X79912971Y-136357443D01*
X79923124Y-136338447D01*
X79936792Y-136321792D01*
X79953447Y-136308124D01*
X79972443Y-136297971D01*
X79993062Y-136291716D01*
X80020640Y-136289000D01*
X80529360Y-136289000D01*
X80556938Y-136291716D01*
X80556938Y-136291716D01*
G37*
G36*
X85331938Y-135571716D02*
G01*
X85352557Y-135577971D01*
X85371553Y-135588124D01*
X85388208Y-135601792D01*
X85401876Y-135618447D01*
X85412029Y-135637443D01*
X85418284Y-135658062D01*
X85421000Y-135685640D01*
X85421000Y-136144360D01*
X85418284Y-136171938D01*
X85412029Y-136192557D01*
X85401876Y-136211553D01*
X85388208Y-136228208D01*
X85371553Y-136241876D01*
X85352557Y-136252029D01*
X85331938Y-136258284D01*
X85304360Y-136261000D01*
X84795640Y-136261000D01*
X84768062Y-136258284D01*
X84747443Y-136252029D01*
X84728447Y-136241876D01*
X84711792Y-136228208D01*
X84698124Y-136211553D01*
X84687971Y-136192557D01*
X84681716Y-136171938D01*
X84679000Y-136144360D01*
X84679000Y-135685640D01*
X84681716Y-135658062D01*
X84687971Y-135637443D01*
X84698124Y-135618447D01*
X84711792Y-135601792D01*
X84728447Y-135588124D01*
X84747443Y-135577971D01*
X84768062Y-135571716D01*
X84795640Y-135569000D01*
X85304360Y-135569000D01*
X85331938Y-135571716D01*
X85331938Y-135571716D01*
G37*
G36*
X80556938Y-135321716D02*
G01*
X80577557Y-135327971D01*
X80596553Y-135338124D01*
X80613208Y-135351792D01*
X80626876Y-135368447D01*
X80637029Y-135387443D01*
X80643284Y-135408062D01*
X80646000Y-135435640D01*
X80646000Y-135894360D01*
X80643284Y-135921938D01*
X80637029Y-135942557D01*
X80626876Y-135961553D01*
X80613208Y-135978208D01*
X80596553Y-135991876D01*
X80577557Y-136002029D01*
X80556938Y-136008284D01*
X80529360Y-136011000D01*
X80020640Y-136011000D01*
X79993062Y-136008284D01*
X79972443Y-136002029D01*
X79953447Y-135991876D01*
X79936792Y-135978208D01*
X79923124Y-135961553D01*
X79912971Y-135942557D01*
X79906716Y-135921938D01*
X79904000Y-135894360D01*
X79904000Y-135435640D01*
X79906716Y-135408062D01*
X79912971Y-135387443D01*
X79923124Y-135368447D01*
X79936792Y-135351792D01*
X79953447Y-135338124D01*
X79972443Y-135327971D01*
X79993062Y-135321716D01*
X80020640Y-135319000D01*
X80529360Y-135319000D01*
X80556938Y-135321716D01*
X80556938Y-135321716D01*
G37*
G36*
X61960721Y-134670174D02*
G01*
X62060995Y-134711709D01*
X62060996Y-134711710D01*
X62151242Y-134772010D01*
X62227990Y-134848758D01*
X62227991Y-134848760D01*
X62288291Y-134939005D01*
X62329826Y-135039279D01*
X62351000Y-135145730D01*
X62351000Y-135254270D01*
X62329826Y-135360721D01*
X62288291Y-135460995D01*
X62288290Y-135460996D01*
X62227990Y-135551242D01*
X62151242Y-135627990D01*
X62106236Y-135658062D01*
X62060995Y-135688291D01*
X61960721Y-135729826D01*
X61854270Y-135751000D01*
X61745730Y-135751000D01*
X61639279Y-135729826D01*
X61539005Y-135688291D01*
X61493764Y-135658062D01*
X61448758Y-135627990D01*
X61372010Y-135551242D01*
X61311710Y-135460996D01*
X61311709Y-135460995D01*
X61270174Y-135360721D01*
X61249000Y-135254270D01*
X61249000Y-135145730D01*
X61270174Y-135039279D01*
X61311709Y-134939005D01*
X61372009Y-134848760D01*
X61372010Y-134848758D01*
X61448758Y-134772010D01*
X61539004Y-134711710D01*
X61539005Y-134711709D01*
X61639279Y-134670174D01*
X61745730Y-134649000D01*
X61854270Y-134649000D01*
X61960721Y-134670174D01*
X61960721Y-134670174D01*
G37*
G36*
X89428304Y-133558647D02*
G01*
X89464844Y-133569732D01*
X89498521Y-133587733D01*
X89528041Y-133611959D01*
X89552267Y-133641479D01*
X89570268Y-133675156D01*
X89581353Y-133711696D01*
X89585700Y-133755838D01*
X89585700Y-135204762D01*
X89581353Y-135248904D01*
X89570268Y-135285444D01*
X89552267Y-135319121D01*
X89528041Y-135348641D01*
X89498521Y-135372867D01*
X89464844Y-135390868D01*
X89428304Y-135401953D01*
X89384162Y-135406300D01*
X88435238Y-135406300D01*
X88391096Y-135401953D01*
X88354556Y-135390868D01*
X88320879Y-135372867D01*
X88291359Y-135348641D01*
X88267133Y-135319121D01*
X88249132Y-135285444D01*
X88238047Y-135248904D01*
X88233700Y-135204762D01*
X88233700Y-133755838D01*
X88238047Y-133711696D01*
X88249132Y-133675156D01*
X88267133Y-133641479D01*
X88291359Y-133611959D01*
X88320879Y-133587733D01*
X88354556Y-133569732D01*
X88391096Y-133558647D01*
X88435238Y-133554300D01*
X89384162Y-133554300D01*
X89428304Y-133558647D01*
X89428304Y-133558647D01*
G37*
G36*
X92228304Y-133558647D02*
G01*
X92264844Y-133569732D01*
X92298521Y-133587733D01*
X92328041Y-133611959D01*
X92352267Y-133641479D01*
X92370268Y-133675156D01*
X92381353Y-133711696D01*
X92385700Y-133755838D01*
X92385700Y-135204762D01*
X92381353Y-135248904D01*
X92370268Y-135285444D01*
X92352267Y-135319121D01*
X92328041Y-135348641D01*
X92298521Y-135372867D01*
X92264844Y-135390868D01*
X92228304Y-135401953D01*
X92184162Y-135406300D01*
X91235238Y-135406300D01*
X91191096Y-135401953D01*
X91154556Y-135390868D01*
X91120879Y-135372867D01*
X91091359Y-135348641D01*
X91067133Y-135319121D01*
X91049132Y-135285444D01*
X91038047Y-135248904D01*
X91033700Y-135204762D01*
X91033700Y-133755838D01*
X91038047Y-133711696D01*
X91049132Y-133675156D01*
X91067133Y-133641479D01*
X91091359Y-133611959D01*
X91120879Y-133587733D01*
X91154556Y-133569732D01*
X91191096Y-133558647D01*
X91235238Y-133554300D01*
X92184162Y-133554300D01*
X92228304Y-133558647D01*
X92228304Y-133558647D01*
G37*
G36*
X83976000Y-134831000D02*
G01*
X81324000Y-134831000D01*
X81324000Y-133669000D01*
X83976000Y-133669000D01*
X83976000Y-134831000D01*
X83976000Y-134831000D01*
G37*
G36*
X92218604Y-131178347D02*
G01*
X92255144Y-131189432D01*
X92288821Y-131207433D01*
X92318341Y-131231659D01*
X92342567Y-131261179D01*
X92360568Y-131294856D01*
X92371653Y-131331396D01*
X92376000Y-131375538D01*
X92376000Y-132824462D01*
X92371653Y-132868604D01*
X92360568Y-132905144D01*
X92342567Y-132938821D01*
X92318341Y-132968341D01*
X92288821Y-132992567D01*
X92255144Y-133010568D01*
X92218604Y-133021653D01*
X92174462Y-133026000D01*
X91225538Y-133026000D01*
X91181396Y-133021653D01*
X91144856Y-133010568D01*
X91111179Y-132992567D01*
X91081659Y-132968341D01*
X91057433Y-132938821D01*
X91039432Y-132905144D01*
X91028347Y-132868604D01*
X91024000Y-132824462D01*
X91024000Y-131375538D01*
X91028347Y-131331396D01*
X91039432Y-131294856D01*
X91057433Y-131261179D01*
X91081659Y-131231659D01*
X91111179Y-131207433D01*
X91144856Y-131189432D01*
X91181396Y-131178347D01*
X91225538Y-131174000D01*
X92174462Y-131174000D01*
X92218604Y-131178347D01*
X92218604Y-131178347D01*
G37*
G36*
X89418604Y-131178347D02*
G01*
X89455144Y-131189432D01*
X89488821Y-131207433D01*
X89518341Y-131231659D01*
X89542567Y-131261179D01*
X89560568Y-131294856D01*
X89571653Y-131331396D01*
X89576000Y-131375538D01*
X89576000Y-132824462D01*
X89571653Y-132868604D01*
X89560568Y-132905144D01*
X89542567Y-132938821D01*
X89518341Y-132968341D01*
X89488821Y-132992567D01*
X89455144Y-133010568D01*
X89418604Y-133021653D01*
X89374462Y-133026000D01*
X88425538Y-133026000D01*
X88381396Y-133021653D01*
X88344856Y-133010568D01*
X88311179Y-132992567D01*
X88281659Y-132968341D01*
X88257433Y-132938821D01*
X88239432Y-132905144D01*
X88228347Y-132868604D01*
X88224000Y-132824462D01*
X88224000Y-131375538D01*
X88228347Y-131331396D01*
X88239432Y-131294856D01*
X88257433Y-131261179D01*
X88281659Y-131231659D01*
X88311179Y-131207433D01*
X88344856Y-131189432D01*
X88381396Y-131178347D01*
X88425538Y-131174000D01*
X89374462Y-131174000D01*
X89418604Y-131178347D01*
X89418604Y-131178347D01*
G37*
G36*
X94700043Y-130931519D02*
G01*
X94766227Y-130938037D01*
X94936066Y-130989557D01*
X95092591Y-131073222D01*
X95128329Y-131102552D01*
X95229786Y-131185814D01*
X95313048Y-131287271D01*
X95342378Y-131323009D01*
X95426043Y-131479534D01*
X95477563Y-131649373D01*
X95494959Y-131826000D01*
X95477563Y-132002627D01*
X95426043Y-132172466D01*
X95342378Y-132328991D01*
X95316113Y-132360995D01*
X95229786Y-132466186D01*
X95154476Y-132527990D01*
X95092591Y-132578778D01*
X94936066Y-132662443D01*
X94766227Y-132713963D01*
X94700043Y-132720481D01*
X94633860Y-132727000D01*
X94545340Y-132727000D01*
X94479157Y-132720481D01*
X94412973Y-132713963D01*
X94243134Y-132662443D01*
X94086609Y-132578778D01*
X94024724Y-132527990D01*
X93949414Y-132466186D01*
X93863087Y-132360995D01*
X93836822Y-132328991D01*
X93753157Y-132172466D01*
X93701637Y-132002627D01*
X93684241Y-131826000D01*
X93701637Y-131649373D01*
X93753157Y-131479534D01*
X93836822Y-131323009D01*
X93866152Y-131287271D01*
X93949414Y-131185814D01*
X94050871Y-131102552D01*
X94086609Y-131073222D01*
X94243134Y-130989557D01*
X94412973Y-130938037D01*
X94479157Y-130931519D01*
X94545340Y-130925000D01*
X94633860Y-130925000D01*
X94700043Y-130931519D01*
X94700043Y-130931519D01*
G37*
G36*
X60060721Y-131570174D02*
G01*
X60160995Y-131611709D01*
X60160996Y-131611710D01*
X60251242Y-131672010D01*
X60327990Y-131748758D01*
X60327991Y-131748760D01*
X60388291Y-131839005D01*
X60429826Y-131939279D01*
X60451000Y-132045730D01*
X60451000Y-132154270D01*
X60429826Y-132260721D01*
X60388291Y-132360995D01*
X60388290Y-132360996D01*
X60327990Y-132451242D01*
X60251242Y-132527990D01*
X60216805Y-132551000D01*
X60160995Y-132588291D01*
X60060721Y-132629826D01*
X59954270Y-132651000D01*
X59845730Y-132651000D01*
X59739279Y-132629826D01*
X59639005Y-132588291D01*
X59583195Y-132551000D01*
X59548758Y-132527990D01*
X59472010Y-132451242D01*
X59411710Y-132360996D01*
X59411709Y-132360995D01*
X59370174Y-132260721D01*
X59349000Y-132154270D01*
X59349000Y-132045730D01*
X59370174Y-131939279D01*
X59411709Y-131839005D01*
X59472009Y-131748760D01*
X59472010Y-131748758D01*
X59548758Y-131672010D01*
X59639004Y-131611710D01*
X59639005Y-131611709D01*
X59739279Y-131570174D01*
X59845730Y-131549000D01*
X59954270Y-131549000D01*
X60060721Y-131570174D01*
X60060721Y-131570174D01*
G37*
G36*
X81451000Y-132551000D02*
G01*
X66549000Y-132551000D01*
X66549000Y-131149000D01*
X81451000Y-131149000D01*
X81451000Y-132551000D01*
X81451000Y-132551000D01*
G37*
G36*
X94700043Y-128391519D02*
G01*
X94766227Y-128398037D01*
X94936066Y-128449557D01*
X95092591Y-128533222D01*
X95128329Y-128562552D01*
X95229786Y-128645814D01*
X95313048Y-128747271D01*
X95342378Y-128783009D01*
X95426043Y-128939534D01*
X95477563Y-129109373D01*
X95494959Y-129286000D01*
X95477563Y-129462627D01*
X95426043Y-129632466D01*
X95342378Y-129788991D01*
X95313048Y-129824729D01*
X95229786Y-129926186D01*
X95133506Y-130005200D01*
X95092591Y-130038778D01*
X94936066Y-130122443D01*
X94766227Y-130173963D01*
X94700043Y-130180481D01*
X94633860Y-130187000D01*
X94545340Y-130187000D01*
X94479157Y-130180481D01*
X94412973Y-130173963D01*
X94243134Y-130122443D01*
X94086609Y-130038778D01*
X94045694Y-130005200D01*
X93949414Y-129926186D01*
X93866152Y-129824729D01*
X93836822Y-129788991D01*
X93753157Y-129632466D01*
X93701637Y-129462627D01*
X93684241Y-129286000D01*
X93701637Y-129109373D01*
X93753157Y-128939534D01*
X93836822Y-128783009D01*
X93866152Y-128747271D01*
X93949414Y-128645814D01*
X94050871Y-128562552D01*
X94086609Y-128533222D01*
X94243134Y-128449557D01*
X94412973Y-128398037D01*
X94479157Y-128391519D01*
X94545340Y-128385000D01*
X94633860Y-128385000D01*
X94700043Y-128391519D01*
X94700043Y-128391519D01*
G37*
G36*
X90728900Y-128155200D02*
G01*
X90203899Y-128155200D01*
X90179513Y-128157602D01*
X90156064Y-128164715D01*
X90134453Y-128176266D01*
X90115511Y-128191811D01*
X90099966Y-128210753D01*
X90088415Y-128232364D01*
X90081302Y-128255813D01*
X90078900Y-128280199D01*
X90078900Y-129428201D01*
X90081302Y-129452587D01*
X90088415Y-129476036D01*
X90099966Y-129497647D01*
X90115511Y-129516589D01*
X90134453Y-129532134D01*
X90156064Y-129543685D01*
X90179513Y-129550798D01*
X90203899Y-129553200D01*
X90728900Y-129553200D01*
X90728900Y-130005200D01*
X89026900Y-130005200D01*
X89026900Y-127703200D01*
X90728900Y-127703200D01*
X90728900Y-128155200D01*
X90728900Y-128155200D01*
G37*
G36*
X65801000Y-129751000D02*
G01*
X63899000Y-129751000D01*
X63899000Y-127449000D01*
X65801000Y-127449000D01*
X65801000Y-129751000D01*
X65801000Y-129751000D01*
G37*
G36*
X84101000Y-129751000D02*
G01*
X82199000Y-129751000D01*
X82199000Y-127449000D01*
X84101000Y-127449000D01*
X84101000Y-129751000D01*
X84101000Y-129751000D01*
G37*
G36*
X95490600Y-127647000D02*
G01*
X93688600Y-127647000D01*
X93688600Y-125845000D01*
X95490600Y-125845000D01*
X95490600Y-127647000D01*
X95490600Y-127647000D01*
G37*
G36*
X98318433Y-120634893D02*
G01*
X98408657Y-120652839D01*
X98514267Y-120696585D01*
X98663621Y-120758449D01*
X98663622Y-120758450D01*
X98893086Y-120911772D01*
X99088228Y-121106914D01*
X99190675Y-121260237D01*
X99241551Y-121336379D01*
X99347161Y-121591344D01*
X99401000Y-121862012D01*
X99401000Y-122137988D01*
X99347161Y-122408656D01*
X99241551Y-122663621D01*
X99241550Y-122663622D01*
X99088228Y-122893086D01*
X98893086Y-123088228D01*
X98739763Y-123190675D01*
X98663621Y-123241551D01*
X98514267Y-123303415D01*
X98408657Y-123347161D01*
X98318433Y-123365107D01*
X98137988Y-123401000D01*
X97862012Y-123401000D01*
X97681567Y-123365107D01*
X97591343Y-123347161D01*
X97485733Y-123303415D01*
X97336379Y-123241551D01*
X97260237Y-123190675D01*
X97106914Y-123088228D01*
X96911772Y-122893086D01*
X96758450Y-122663622D01*
X96758449Y-122663621D01*
X96652839Y-122408656D01*
X96599000Y-122137988D01*
X96599000Y-121862012D01*
X96652839Y-121591344D01*
X96758449Y-121336379D01*
X96809325Y-121260237D01*
X96911772Y-121106914D01*
X97106914Y-120911772D01*
X97336378Y-120758450D01*
X97336379Y-120758449D01*
X97485733Y-120696585D01*
X97591343Y-120652839D01*
X97681567Y-120634893D01*
X97862012Y-120599000D01*
X98137988Y-120599000D01*
X98318433Y-120634893D01*
X98318433Y-120634893D01*
G37*
G36*
X57318433Y-120634893D02*
G01*
X57408657Y-120652839D01*
X57514267Y-120696585D01*
X57663621Y-120758449D01*
X57663622Y-120758450D01*
X57893086Y-120911772D01*
X58088228Y-121106914D01*
X58190675Y-121260237D01*
X58241551Y-121336379D01*
X58347161Y-121591344D01*
X58401000Y-121862012D01*
X58401000Y-122137988D01*
X58347161Y-122408656D01*
X58241551Y-122663621D01*
X58241550Y-122663622D01*
X58088228Y-122893086D01*
X57893086Y-123088228D01*
X57739763Y-123190675D01*
X57663621Y-123241551D01*
X57514267Y-123303415D01*
X57408657Y-123347161D01*
X57318433Y-123365107D01*
X57137988Y-123401000D01*
X56862012Y-123401000D01*
X56681567Y-123365107D01*
X56591343Y-123347161D01*
X56485733Y-123303415D01*
X56336379Y-123241551D01*
X56260237Y-123190675D01*
X56106914Y-123088228D01*
X55911772Y-122893086D01*
X55758450Y-122663622D01*
X55758449Y-122663621D01*
X55652839Y-122408656D01*
X55599000Y-122137988D01*
X55599000Y-121862012D01*
X55652839Y-121591344D01*
X55758449Y-121336379D01*
X55809325Y-121260237D01*
X55911772Y-121106914D01*
X56106914Y-120911772D01*
X56336378Y-120758450D01*
X56336379Y-120758449D01*
X56485733Y-120696585D01*
X56591343Y-120652839D01*
X56681567Y-120634893D01*
X56862012Y-120599000D01*
X57137988Y-120599000D01*
X57318433Y-120634893D01*
X57318433Y-120634893D01*
G37*
M02*
