%TF.GenerationSoftware,KiCad,Pcbnew,no-vcs-found-8182369~60~ubuntu16.04.1*%
%TF.CreationDate,2017-09-13T17:00:57+05:30*%
%TF.ProjectId,snap_rev1,736E61705F726576312E6B696361645F,rev?*%
%TF.SameCoordinates,Original*%
%TF.FileFunction,Soldermask,Top*%
%TF.FilePolarity,Negative*%
%FSLAX46Y46*%
G04 Gerber Fmt 4.6, Leading zero omitted, Abs format (unit mm)*
G04 Created by KiCad (PCBNEW no-vcs-found-8182369~60~ubuntu16.04.1) date Wed Sep 13 17:00:57 2017*
%MOMM*%
%LPD*%
G01*
G04 APERTURE LIST*
%ADD10R,1.150000X2.000000*%
%ADD11C,2.800000*%
%ADD12R,0.680000X1.250000*%
%ADD13R,0.680000X1.150000*%
%ADD14R,1.650000X1.400000*%
%ADD15R,1.100000X1.700000*%
%ADD16C,1.900000*%
%ADD17R,1.250000X1.250000*%
%ADD18C,1.250000*%
%ADD19R,1.200000X1.300000*%
%ADD20R,1.700000X1.950000*%
%ADD21R,0.900000X1.600000*%
%ADD22R,1.300000X2.000000*%
%ADD23R,0.900000X2.000000*%
%ADD24R,2.000000X0.900000*%
%ADD25R,1.700000X2.300000*%
%ADD26R,1.400000X1.650000*%
%ADD27R,2.100000X2.100000*%
%ADD28O,2.100000X2.100000*%
%ADD29R,1.150000X1.200000*%
%ADD30R,1.200000X1.150000*%
%ADD31C,2.600000*%
G04 APERTURE END LIST*
D10*
%TO.C,D2*%
X79401000Y-59055000D03*
X82651000Y-59055000D03*
D11*
X81026000Y-59055000D03*
%TD*%
D12*
%TO.C,U1*%
X76446000Y-60308000D03*
D13*
X75946000Y-60258000D03*
X75446000Y-60258000D03*
X75446000Y-61408000D03*
X75946000Y-61408000D03*
X76446000Y-61408000D03*
%TD*%
D14*
%TO.C,C1*%
X51689000Y-61738000D03*
X51689000Y-63738000D03*
%TD*%
%TO.C,C2*%
X72136000Y-60341000D03*
X72136000Y-62341000D03*
%TD*%
%TO.C,C3*%
X73914000Y-62341000D03*
X73914000Y-60341000D03*
%TD*%
%TO.C,C4*%
X57023000Y-61738000D03*
X57023000Y-63738000D03*
%TD*%
%TO.C,C6*%
X58928000Y-63738000D03*
X58928000Y-61738000D03*
%TD*%
%TO.C,C8*%
X77978000Y-59198000D03*
X77978000Y-61198000D03*
%TD*%
D15*
%TO.C,D1*%
X82253000Y-52171000D03*
X81153000Y-52171000D03*
X80053000Y-52171000D03*
X80053000Y-55271000D03*
X81153000Y-55271000D03*
X82253000Y-55271000D03*
%TD*%
D16*
%TO.C,J1*%
X69342000Y-64643000D03*
%TD*%
D17*
%TO.C,J2*%
X61722000Y-49784000D03*
D18*
X62972000Y-49784000D03*
X64222000Y-49784000D03*
%TD*%
D14*
%TO.C,L2*%
X55245000Y-63738000D03*
X55245000Y-61738000D03*
%TD*%
%TO.C,L3*%
X75946000Y-58912000D03*
X75946000Y-56912000D03*
%TD*%
D19*
%TO.C,Q1*%
X68392000Y-61198000D03*
X70292000Y-61198000D03*
X69342000Y-59198000D03*
%TD*%
D15*
%TO.C,R1*%
X72456000Y-58547000D03*
X74356000Y-58547000D03*
%TD*%
%TO.C,R2*%
X74742000Y-54737000D03*
X76642000Y-54737000D03*
%TD*%
%TO.C,R3*%
X76642000Y-52705000D03*
X74742000Y-52705000D03*
%TD*%
%TO.C,R4*%
X74742000Y-50673000D03*
X76642000Y-50673000D03*
%TD*%
%TO.C,R5*%
X82230000Y-61468000D03*
X80330000Y-61468000D03*
%TD*%
D20*
%TO.C,SW1*%
X72862000Y-48476000D03*
X68362000Y-48476000D03*
X72862000Y-56426000D03*
X68362000Y-56426000D03*
%TD*%
D21*
%TO.C,U2*%
X48720000Y-52100000D03*
X47320000Y-52100000D03*
D22*
X46770000Y-50250000D03*
D23*
X47670000Y-50250000D03*
X48370000Y-50250000D03*
X49070000Y-50250000D03*
X49770000Y-50250000D03*
X50470000Y-50250000D03*
X51170000Y-50250000D03*
X51870000Y-50250000D03*
X52570000Y-50250000D03*
X53270000Y-50250000D03*
X53970000Y-50250000D03*
X54670000Y-50250000D03*
X55370000Y-50250000D03*
X56070000Y-50250000D03*
X56770000Y-50250000D03*
D24*
X58320000Y-50800000D03*
X58320000Y-51500000D03*
X58320000Y-52200000D03*
X58320000Y-52900000D03*
X58320000Y-53600000D03*
X58320000Y-54300000D03*
X58320000Y-55000000D03*
X58320000Y-55700000D03*
X58320000Y-56400000D03*
X58320000Y-57100000D03*
X58320000Y-57800000D03*
X58320000Y-58500000D03*
D23*
X56070000Y-59750000D03*
X55370000Y-59750000D03*
X54670000Y-59750000D03*
X53970000Y-59750000D03*
X53270000Y-59750000D03*
X52570000Y-59750000D03*
X51870000Y-59750000D03*
X51170000Y-59750000D03*
X50470000Y-59750000D03*
D22*
X46770000Y-59750000D03*
D23*
X49770000Y-59750000D03*
D24*
X58320000Y-59300000D03*
%TD*%
D25*
%TO.C,X1*%
X61004000Y-56566000D03*
X61004000Y-59766000D03*
X66504000Y-59766000D03*
X66504000Y-56566000D03*
%TD*%
D26*
%TO.C,C9*%
X75708000Y-64516000D03*
X77708000Y-64516000D03*
%TD*%
D27*
%TO.C,BT1*%
X65913000Y-62738000D03*
D28*
X63373000Y-62738000D03*
%TD*%
D29*
%TO.C,C5*%
X60579000Y-61988000D03*
X60579000Y-63488000D03*
%TD*%
D30*
%TO.C,C7*%
X64504000Y-54864000D03*
X63004000Y-54864000D03*
%TD*%
D29*
%TO.C,L1*%
X53467000Y-63107000D03*
X53467000Y-61607000D03*
%TD*%
D31*
%TO.C,MK1*%
X80899000Y-48641000D03*
%TD*%
%TO.C,MK2*%
X47752000Y-63500000D03*
%TD*%
M02*
