%TF.GenerationSoftware,KiCad,Pcbnew,no-vcs-found-8182369~60~ubuntu16.04.1*%
%TF.CreationDate,2017-09-13T17:00:57+05:30*%
%TF.ProjectId,snap_rev1,736E61705F726576312E6B696361645F,rev?*%
%TF.SameCoordinates,Original*%
%TF.FileFunction,Copper,L2,Bot,Signal*%
%TF.FilePolarity,Positive*%
%FSLAX46Y46*%
G04 Gerber Fmt 4.6, Leading zero omitted, Abs format (unit mm)*
G04 Created by KiCad (PCBNEW no-vcs-found-8182369~60~ubuntu16.04.1) date Wed Sep 13 17:00:57 2017*
%MOMM*%
%LPD*%
G01*
G04 APERTURE LIST*
%TA.AperFunction,NonConductor*%
%ADD10C,0.300000*%
%TD*%
%TA.AperFunction,SMDPad,CuDef*%
%ADD11R,3.000000X1.000000*%
%TD*%
%TA.AperFunction,ComponentPad*%
%ADD12R,0.850000X0.850000*%
%TD*%
%TA.AperFunction,ComponentPad*%
%ADD13C,0.850000*%
%TD*%
%TA.AperFunction,ComponentPad*%
%ADD14R,1.700000X1.700000*%
%TD*%
%TA.AperFunction,ComponentPad*%
%ADD15O,1.700000X1.700000*%
%TD*%
%TA.AperFunction,ViaPad*%
%ADD16C,0.660400*%
%TD*%
%TA.AperFunction,Conductor*%
%ADD17C,0.250000*%
%TD*%
%TA.AperFunction,Conductor*%
%ADD18C,0.254000*%
%TD*%
G04 APERTURE END LIST*
D10*
X74477142Y-49145000D02*
X73762857Y-49145000D01*
X74620000Y-49573571D02*
X74120000Y-48073571D01*
X73620000Y-49573571D01*
X73120000Y-48573571D02*
X73120000Y-50073571D01*
X73120000Y-48645000D02*
X72977142Y-48573571D01*
X72691428Y-48573571D01*
X72548571Y-48645000D01*
X72477142Y-48716428D01*
X72405714Y-48859285D01*
X72405714Y-49287857D01*
X72477142Y-49430714D01*
X72548571Y-49502142D01*
X72691428Y-49573571D01*
X72977142Y-49573571D01*
X73120000Y-49502142D01*
X71762857Y-48573571D02*
X71762857Y-50073571D01*
X71762857Y-48645000D02*
X71620000Y-48573571D01*
X71334285Y-48573571D01*
X71191428Y-48645000D01*
X71120000Y-48716428D01*
X71048571Y-48859285D01*
X71048571Y-49287857D01*
X71120000Y-49430714D01*
X71191428Y-49502142D01*
X71334285Y-49573571D01*
X71620000Y-49573571D01*
X71762857Y-49502142D01*
X70405714Y-49573571D02*
X70405714Y-48573571D01*
X70405714Y-48073571D02*
X70477142Y-48145000D01*
X70405714Y-48216428D01*
X70334285Y-48145000D01*
X70405714Y-48073571D01*
X70405714Y-48216428D01*
X69691428Y-49573571D02*
X69691428Y-48073571D01*
X69548571Y-49002142D02*
X69120000Y-49573571D01*
X69120000Y-48573571D02*
X69691428Y-49145000D01*
X68262857Y-49573571D02*
X68405714Y-49502142D01*
X68477142Y-49430714D01*
X68548571Y-49287857D01*
X68548571Y-48859285D01*
X68477142Y-48716428D01*
X68405714Y-48645000D01*
X68262857Y-48573571D01*
X68048571Y-48573571D01*
X67905714Y-48645000D01*
X67834285Y-48716428D01*
X67762857Y-48859285D01*
X67762857Y-49287857D01*
X67834285Y-49430714D01*
X67905714Y-49502142D01*
X68048571Y-49573571D01*
X68262857Y-49573571D01*
D11*
%TO.P,P1,1*%
%TO.N,/TX*%
X52090000Y-49530000D03*
%TO.P,P1,2*%
%TO.N,/RX*%
X57130000Y-49530000D03*
%TO.P,P1,3*%
%TO.N,/SWDIO*%
X52090000Y-52070000D03*
%TO.P,P1,4*%
%TO.N,/SWDCLK*%
X57130000Y-52070000D03*
%TO.P,P1,5*%
%TO.N,/RESET*%
X52090000Y-54610000D03*
%TO.P,P1,6*%
%TO.N,/GPIO1*%
X57130000Y-54610000D03*
%TO.P,P1,7*%
%TO.N,VDD*%
X52090000Y-57150000D03*
%TO.P,P1,8*%
%TO.N,/GPIO2*%
X57130000Y-57150000D03*
%TO.P,P1,9*%
%TO.N,GND*%
X52090000Y-59690000D03*
%TO.P,P1,10*%
X57130000Y-59690000D03*
%TD*%
D12*
%TO.P,J2,1*%
%TO.N,/FOCUS*%
X61722000Y-49784000D03*
D13*
%TO.P,J2,2*%
%TO.N,/TRIGGER*%
X62972000Y-49784000D03*
%TO.P,J2,3*%
%TO.N,GND*%
X64222000Y-49784000D03*
%TD*%
D14*
%TO.P,BT1,1*%
%TO.N,/VBAT*%
X65913000Y-62738000D03*
D15*
%TO.P,BT1,2*%
%TO.N,GND*%
X63373000Y-62738000D03*
%TD*%
D16*
%TO.N,GND*%
X59309000Y-49911000D03*
X80899000Y-53721000D03*
X79375000Y-63119000D03*
X70612000Y-62484000D03*
X64516000Y-56515000D03*
X69850000Y-55753000D03*
X68072000Y-58928000D03*
X53340000Y-64389000D03*
X58928000Y-60452000D03*
X46736000Y-48641000D03*
X46863000Y-61341000D03*
%TO.N,VDD*%
X54991000Y-58166000D03*
%TO.N,/SWDCLK*%
X49149000Y-48641000D03*
%TO.N,Net-(D2-Pad1)*%
X78105000Y-57785000D03*
X77851000Y-49530000D03*
%TO.N,/TX*%
X52451000Y-48260000D03*
%TO.N,/RX*%
X55372000Y-48514000D03*
%TO.N,/SWDIO*%
X48006000Y-48641000D03*
%TO.N,/RESET*%
X49911000Y-54610000D03*
%TO.N,/GPIO1*%
X54864000Y-54610000D03*
%TO.N,/GPIO2*%
X54864000Y-57023000D03*
%TD*%
D17*
%TO.N,GND*%
X79375000Y-58039000D02*
X79248000Y-58166000D01*
X79248000Y-58166000D02*
X79121000Y-58293000D01*
X79121000Y-58293000D02*
X79121000Y-62865000D01*
X79121000Y-62865000D02*
X79375000Y-63119000D01*
X58928000Y-60452000D02*
X60579000Y-60452000D01*
X60579000Y-60452000D02*
X63373000Y-57658000D01*
X63373000Y-57658000D02*
X63373000Y-57785000D01*
X59309000Y-49911000D02*
X60071000Y-49911000D01*
X63079000Y-50927000D02*
X64222000Y-49784000D01*
X61087000Y-50927000D02*
X63079000Y-50927000D01*
X60071000Y-49911000D02*
X61087000Y-50927000D01*
X64516000Y-56515000D02*
X64516000Y-50078000D01*
X64516000Y-50078000D02*
X64222000Y-49784000D01*
X70612000Y-62484000D02*
X78740000Y-62484000D01*
X78740000Y-62484000D02*
X79375000Y-63119000D01*
X80899000Y-53721000D02*
X80899000Y-56515000D01*
X80899000Y-56515000D02*
X79375000Y-58039000D01*
X70612000Y-62484000D02*
X70612000Y-61468000D01*
X70612000Y-61468000D02*
X68072000Y-58928000D01*
X63373000Y-62738000D02*
X63373000Y-57785000D01*
X63373000Y-57785000D02*
X63373000Y-57658000D01*
X63373000Y-57658000D02*
X64516000Y-56515000D01*
X64516000Y-56515000D02*
X65659000Y-56515000D01*
X65659000Y-56515000D02*
X68072000Y-58928000D01*
X68072000Y-58928000D02*
X68072000Y-57531000D01*
X68072000Y-57531000D02*
X69850000Y-55753000D01*
X68072000Y-58928000D02*
X68072000Y-58801000D01*
X53340000Y-64389000D02*
X50927000Y-64389000D01*
X50927000Y-64389000D02*
X47879000Y-61341000D01*
X58928000Y-60452000D02*
X58166000Y-59690000D01*
X58166000Y-59690000D02*
X57130000Y-59690000D01*
X57130000Y-59690000D02*
X52090000Y-59690000D01*
X52090000Y-59690000D02*
X49530000Y-59690000D01*
X49530000Y-59690000D02*
X47879000Y-61341000D01*
X47879000Y-61341000D02*
X46863000Y-61341000D01*
%TO.N,VDD*%
X54991000Y-58166000D02*
X55118000Y-58166000D01*
X52090000Y-57150000D02*
X53975000Y-57150000D01*
X53975000Y-57150000D02*
X54991000Y-58166000D01*
%TO.N,/SWDCLK*%
X57130000Y-52070000D02*
X55372000Y-52070000D01*
X55372000Y-52070000D02*
X54229000Y-50927000D01*
X49149000Y-50165000D02*
X49149000Y-48641000D01*
X49911000Y-50927000D02*
X49149000Y-50165000D01*
X54229000Y-50927000D02*
X49911000Y-50927000D01*
X58547000Y-52070000D02*
X57130000Y-52070000D01*
%TO.N,Net-(D2-Pad1)*%
X78105000Y-57785000D02*
X77851000Y-57531000D01*
X77851000Y-57531000D02*
X77851000Y-49530000D01*
%TO.N,/TX*%
X52090000Y-49530000D02*
X52090000Y-48621000D01*
X52090000Y-48621000D02*
X52451000Y-48260000D01*
%TO.N,/RX*%
X55372000Y-48514000D02*
X56388000Y-49530000D01*
X56388000Y-49530000D02*
X57130000Y-49530000D01*
%TO.N,/SWDIO*%
X49149000Y-52070000D02*
X48006000Y-50927000D01*
X48006000Y-50927000D02*
X48006000Y-48641000D01*
X49149000Y-52070000D02*
X52090000Y-52070000D01*
%TO.N,/RESET*%
X49911000Y-54610000D02*
X52090000Y-54610000D01*
%TO.N,/GPIO1*%
X54864000Y-54610000D02*
X57130000Y-54610000D01*
%TO.N,/GPIO2*%
X54991000Y-57150000D02*
X57130000Y-57150000D01*
X54864000Y-57023000D02*
X54991000Y-57150000D01*
%TD*%
D18*
%TO.N,GND*%
G36*
X47188221Y-48093544D02*
X47040968Y-48448168D01*
X47040633Y-48832148D01*
X47187266Y-49187027D01*
X47246000Y-49245864D01*
X47246000Y-50927000D01*
X47303852Y-51217839D01*
X47468599Y-51464401D01*
X48611599Y-52607401D01*
X48858161Y-52772148D01*
X49149000Y-52830000D01*
X50000018Y-52830000D01*
X50132191Y-53027809D01*
X50342235Y-53168157D01*
X50590000Y-53217440D01*
X53590000Y-53217440D01*
X53837765Y-53168157D01*
X54047809Y-53027809D01*
X54188157Y-52817765D01*
X54237440Y-52570000D01*
X54237440Y-52010242D01*
X54834599Y-52607401D01*
X55013819Y-52727152D01*
X55031843Y-52817765D01*
X55172191Y-53027809D01*
X55382235Y-53168157D01*
X55630000Y-53217440D01*
X58630000Y-53217440D01*
X58877765Y-53168157D01*
X59087809Y-53027809D01*
X59228157Y-52817765D01*
X59277440Y-52570000D01*
X59277440Y-52218607D01*
X59307000Y-52070000D01*
X59277440Y-51921393D01*
X59277440Y-51570000D01*
X59228157Y-51322235D01*
X59087809Y-51112191D01*
X58877765Y-50971843D01*
X58630000Y-50922560D01*
X55630000Y-50922560D01*
X55382235Y-50971843D01*
X55362099Y-50985297D01*
X54766401Y-50389599D01*
X54519839Y-50224852D01*
X54229000Y-50167000D01*
X54210189Y-50167000D01*
X54237440Y-50030000D01*
X54237440Y-49030000D01*
X54188157Y-48782235D01*
X54047809Y-48572191D01*
X53837765Y-48431843D01*
X53590000Y-48382560D01*
X53416093Y-48382560D01*
X53416367Y-48068852D01*
X53316436Y-47827000D01*
X54694009Y-47827000D01*
X54554221Y-47966544D01*
X54406968Y-48321168D01*
X54406633Y-48705148D01*
X54553266Y-49060027D01*
X54824544Y-49331779D01*
X54982560Y-49397393D01*
X54982560Y-50030000D01*
X55031843Y-50277765D01*
X55172191Y-50487809D01*
X55382235Y-50628157D01*
X55630000Y-50677440D01*
X58630000Y-50677440D01*
X58877765Y-50628157D01*
X59087809Y-50487809D01*
X59228157Y-50277765D01*
X59277440Y-50030000D01*
X59277440Y-49359000D01*
X60649560Y-49359000D01*
X60649560Y-50209000D01*
X60698843Y-50456765D01*
X60839191Y-50666809D01*
X61049235Y-50807157D01*
X61297000Y-50856440D01*
X62147000Y-50856440D01*
X62394765Y-50807157D01*
X62500997Y-50736174D01*
X62760228Y-50843816D01*
X63181922Y-50844184D01*
X63571658Y-50683149D01*
X63674262Y-50580724D01*
X63693887Y-50726950D01*
X64094939Y-50857272D01*
X64515334Y-50824199D01*
X64750113Y-50726950D01*
X64777948Y-50519553D01*
X64222000Y-49963605D01*
X64207858Y-49977748D01*
X64031985Y-49801875D01*
X64031992Y-49794403D01*
X64042395Y-49784000D01*
X64401605Y-49784000D01*
X64957553Y-50339948D01*
X65164950Y-50312113D01*
X65295272Y-49911061D01*
X65262199Y-49490666D01*
X65164950Y-49255887D01*
X64957553Y-49228052D01*
X64401605Y-49784000D01*
X64042395Y-49784000D01*
X64032010Y-49773615D01*
X64032017Y-49766093D01*
X64207858Y-49590253D01*
X64222000Y-49604395D01*
X64777948Y-49048447D01*
X64750113Y-48841050D01*
X64349061Y-48710728D01*
X63928666Y-48743801D01*
X63693887Y-48841050D01*
X63674281Y-48987131D01*
X63573226Y-48885899D01*
X63183772Y-48724184D01*
X62762078Y-48723816D01*
X62500874Y-48831743D01*
X62394765Y-48760843D01*
X62147000Y-48711560D01*
X61297000Y-48711560D01*
X61049235Y-48760843D01*
X60839191Y-48901191D01*
X60698843Y-49111235D01*
X60649560Y-49359000D01*
X59277440Y-49359000D01*
X59277440Y-49030000D01*
X59228157Y-48782235D01*
X59087809Y-48572191D01*
X58877765Y-48431843D01*
X58630000Y-48382560D01*
X56337315Y-48382560D01*
X56337367Y-48322852D01*
X56190734Y-47967973D01*
X56050007Y-47827000D01*
X66692143Y-47827000D01*
X66692143Y-50925000D01*
X75547857Y-50925000D01*
X75547857Y-49721148D01*
X76885633Y-49721148D01*
X77032266Y-50076027D01*
X77091000Y-50134864D01*
X77091000Y-57531000D01*
X77139807Y-57776369D01*
X77139633Y-57976148D01*
X77286266Y-58331027D01*
X77557544Y-58602779D01*
X77912168Y-58750032D01*
X78296148Y-58750367D01*
X78651027Y-58603734D01*
X78922779Y-58332456D01*
X79070032Y-57977832D01*
X79070367Y-57593852D01*
X78923734Y-57238973D01*
X78652456Y-56967221D01*
X78611000Y-56950007D01*
X78611000Y-50135134D01*
X78668779Y-50077456D01*
X78816032Y-49722832D01*
X78816367Y-49338852D01*
X78669734Y-48983973D01*
X78398456Y-48712221D01*
X78043832Y-48564968D01*
X77659852Y-48564633D01*
X77304973Y-48711266D01*
X77033221Y-48982544D01*
X76885968Y-49337168D01*
X76885633Y-49721148D01*
X75547857Y-49721148D01*
X75547857Y-47827000D01*
X79358372Y-47827000D01*
X79164301Y-48294373D01*
X79163699Y-48984599D01*
X79427281Y-49622515D01*
X79914918Y-50111004D01*
X80552373Y-50375699D01*
X81242599Y-50376301D01*
X81880515Y-50112719D01*
X82369004Y-49625082D01*
X82633699Y-48987627D01*
X82634301Y-48297401D01*
X82439935Y-47827000D01*
X82856000Y-47827000D01*
X82856000Y-58678726D01*
X82582545Y-58016914D01*
X82066801Y-57500270D01*
X81392605Y-57220319D01*
X80662597Y-57219682D01*
X79987914Y-57498455D01*
X79471270Y-58014199D01*
X79191319Y-58688395D01*
X79190682Y-59418403D01*
X79469455Y-60093086D01*
X79985199Y-60609730D01*
X80659395Y-60889681D01*
X81389403Y-60890318D01*
X82064086Y-60611545D01*
X82580730Y-60095801D01*
X82856000Y-59432878D01*
X82856000Y-65076000D01*
X48481136Y-65076000D01*
X48733515Y-64971719D01*
X49222004Y-64484082D01*
X49486699Y-63846627D01*
X49487301Y-63156401D01*
X49461886Y-63094892D01*
X61931514Y-63094892D01*
X62177817Y-63619358D01*
X62606076Y-64009645D01*
X63016110Y-64179476D01*
X63246000Y-64058155D01*
X63246000Y-62865000D01*
X62052181Y-62865000D01*
X61931514Y-63094892D01*
X49461886Y-63094892D01*
X49223719Y-62518485D01*
X49086582Y-62381108D01*
X61931514Y-62381108D01*
X62052181Y-62611000D01*
X63246000Y-62611000D01*
X63246000Y-61417845D01*
X63500000Y-61417845D01*
X63500000Y-62611000D01*
X63520000Y-62611000D01*
X63520000Y-62865000D01*
X63500000Y-62865000D01*
X63500000Y-64058155D01*
X63729890Y-64179476D01*
X64139924Y-64009645D01*
X64444261Y-63732292D01*
X64464843Y-63835765D01*
X64605191Y-64045809D01*
X64815235Y-64186157D01*
X65063000Y-64235440D01*
X66763000Y-64235440D01*
X67010765Y-64186157D01*
X67220809Y-64045809D01*
X67361157Y-63835765D01*
X67410440Y-63588000D01*
X67410440Y-61888000D01*
X67361157Y-61640235D01*
X67220809Y-61430191D01*
X67010765Y-61289843D01*
X66763000Y-61240560D01*
X65063000Y-61240560D01*
X64815235Y-61289843D01*
X64605191Y-61430191D01*
X64464843Y-61640235D01*
X64444261Y-61743708D01*
X64139924Y-61466355D01*
X63729890Y-61296524D01*
X63500000Y-61417845D01*
X63246000Y-61417845D01*
X63016110Y-61296524D01*
X62606076Y-61466355D01*
X62177817Y-61856642D01*
X61931514Y-62381108D01*
X49086582Y-62381108D01*
X48736082Y-62029996D01*
X48098627Y-61765301D01*
X47408401Y-61764699D01*
X46770485Y-62028281D01*
X46281996Y-62515918D01*
X46101000Y-62951804D01*
X46101000Y-59975750D01*
X49955000Y-59975750D01*
X49955000Y-60316310D01*
X50051673Y-60549699D01*
X50230302Y-60728327D01*
X50463691Y-60825000D01*
X51804250Y-60825000D01*
X51963000Y-60666250D01*
X51963000Y-59817000D01*
X52217000Y-59817000D01*
X52217000Y-60666250D01*
X52375750Y-60825000D01*
X53716309Y-60825000D01*
X53949698Y-60728327D01*
X54128327Y-60549699D01*
X54225000Y-60316310D01*
X54225000Y-59975750D01*
X54995000Y-59975750D01*
X54995000Y-60316310D01*
X55091673Y-60549699D01*
X55270302Y-60728327D01*
X55503691Y-60825000D01*
X56844250Y-60825000D01*
X57003000Y-60666250D01*
X57003000Y-59817000D01*
X57257000Y-59817000D01*
X57257000Y-60666250D01*
X57415750Y-60825000D01*
X58756309Y-60825000D01*
X58989698Y-60728327D01*
X59168327Y-60549699D01*
X59265000Y-60316310D01*
X59265000Y-59975750D01*
X59106250Y-59817000D01*
X57257000Y-59817000D01*
X57003000Y-59817000D01*
X55153750Y-59817000D01*
X54995000Y-59975750D01*
X54225000Y-59975750D01*
X54066250Y-59817000D01*
X52217000Y-59817000D01*
X51963000Y-59817000D01*
X50113750Y-59817000D01*
X49955000Y-59975750D01*
X46101000Y-59975750D01*
X46101000Y-59063690D01*
X49955000Y-59063690D01*
X49955000Y-59404250D01*
X50113750Y-59563000D01*
X51963000Y-59563000D01*
X51963000Y-58713750D01*
X52217000Y-58713750D01*
X52217000Y-59563000D01*
X54066250Y-59563000D01*
X54225000Y-59404250D01*
X54225000Y-59063690D01*
X54128327Y-58830301D01*
X53949698Y-58651673D01*
X53716309Y-58555000D01*
X52375750Y-58555000D01*
X52217000Y-58713750D01*
X51963000Y-58713750D01*
X51804250Y-58555000D01*
X50463691Y-58555000D01*
X50230302Y-58651673D01*
X50051673Y-58830301D01*
X49955000Y-59063690D01*
X46101000Y-59063690D01*
X46101000Y-56650000D01*
X49942560Y-56650000D01*
X49942560Y-57650000D01*
X49991843Y-57897765D01*
X50132191Y-58107809D01*
X50342235Y-58248157D01*
X50590000Y-58297440D01*
X53590000Y-58297440D01*
X53837765Y-58248157D01*
X53934031Y-58183833D01*
X54025704Y-58275506D01*
X54025633Y-58357148D01*
X54172266Y-58712027D01*
X54443544Y-58983779D01*
X54798168Y-59131032D01*
X54995000Y-59131204D01*
X54995000Y-59404250D01*
X55153750Y-59563000D01*
X57003000Y-59563000D01*
X57003000Y-58713750D01*
X57257000Y-58713750D01*
X57257000Y-59563000D01*
X59106250Y-59563000D01*
X59265000Y-59404250D01*
X59265000Y-59063690D01*
X59168327Y-58830301D01*
X58989698Y-58651673D01*
X58756309Y-58555000D01*
X57415750Y-58555000D01*
X57257000Y-58713750D01*
X57003000Y-58713750D01*
X56844250Y-58555000D01*
X55874576Y-58555000D01*
X55956032Y-58358832D01*
X55956086Y-58297440D01*
X58630000Y-58297440D01*
X58877765Y-58248157D01*
X59087809Y-58107809D01*
X59228157Y-57897765D01*
X59277440Y-57650000D01*
X59277440Y-56650000D01*
X59228157Y-56402235D01*
X59087809Y-56192191D01*
X58877765Y-56051843D01*
X58630000Y-56002560D01*
X55630000Y-56002560D01*
X55382235Y-56051843D01*
X55251866Y-56138953D01*
X55056832Y-56057968D01*
X54672852Y-56057633D01*
X54317973Y-56204266D01*
X54160749Y-56361216D01*
X54047809Y-56192191D01*
X53837765Y-56051843D01*
X53590000Y-56002560D01*
X50590000Y-56002560D01*
X50342235Y-56051843D01*
X50132191Y-56192191D01*
X49991843Y-56402235D01*
X49942560Y-56650000D01*
X46101000Y-56650000D01*
X46101000Y-54801148D01*
X48945633Y-54801148D01*
X49092266Y-55156027D01*
X49363544Y-55427779D01*
X49718168Y-55575032D01*
X50102148Y-55575367D01*
X50129649Y-55564004D01*
X50132191Y-55567809D01*
X50342235Y-55708157D01*
X50590000Y-55757440D01*
X53590000Y-55757440D01*
X53837765Y-55708157D01*
X54047809Y-55567809D01*
X54188157Y-55357765D01*
X54197876Y-55308904D01*
X54316544Y-55427779D01*
X54671168Y-55575032D01*
X55055148Y-55575367D01*
X55150826Y-55535834D01*
X55172191Y-55567809D01*
X55382235Y-55708157D01*
X55630000Y-55757440D01*
X58630000Y-55757440D01*
X58877765Y-55708157D01*
X59087809Y-55567809D01*
X59228157Y-55357765D01*
X59277440Y-55110000D01*
X59277440Y-54110000D01*
X59228157Y-53862235D01*
X59087809Y-53652191D01*
X58877765Y-53511843D01*
X58630000Y-53462560D01*
X55630000Y-53462560D01*
X55382235Y-53511843D01*
X55172191Y-53652191D01*
X55150914Y-53684034D01*
X55056832Y-53644968D01*
X54672852Y-53644633D01*
X54317973Y-53791266D01*
X54197886Y-53911144D01*
X54188157Y-53862235D01*
X54047809Y-53652191D01*
X53837765Y-53511843D01*
X53590000Y-53462560D01*
X50590000Y-53462560D01*
X50342235Y-53511843D01*
X50132191Y-53652191D01*
X50129810Y-53655755D01*
X50103832Y-53644968D01*
X49719852Y-53644633D01*
X49364973Y-53791266D01*
X49093221Y-54062544D01*
X48945968Y-54417168D01*
X48945633Y-54801148D01*
X46101000Y-54801148D01*
X46101000Y-47827000D01*
X47455231Y-47827000D01*
X47188221Y-48093544D01*
X47188221Y-48093544D01*
G37*
X47188221Y-48093544D02*
X47040968Y-48448168D01*
X47040633Y-48832148D01*
X47187266Y-49187027D01*
X47246000Y-49245864D01*
X47246000Y-50927000D01*
X47303852Y-51217839D01*
X47468599Y-51464401D01*
X48611599Y-52607401D01*
X48858161Y-52772148D01*
X49149000Y-52830000D01*
X50000018Y-52830000D01*
X50132191Y-53027809D01*
X50342235Y-53168157D01*
X50590000Y-53217440D01*
X53590000Y-53217440D01*
X53837765Y-53168157D01*
X54047809Y-53027809D01*
X54188157Y-52817765D01*
X54237440Y-52570000D01*
X54237440Y-52010242D01*
X54834599Y-52607401D01*
X55013819Y-52727152D01*
X55031843Y-52817765D01*
X55172191Y-53027809D01*
X55382235Y-53168157D01*
X55630000Y-53217440D01*
X58630000Y-53217440D01*
X58877765Y-53168157D01*
X59087809Y-53027809D01*
X59228157Y-52817765D01*
X59277440Y-52570000D01*
X59277440Y-52218607D01*
X59307000Y-52070000D01*
X59277440Y-51921393D01*
X59277440Y-51570000D01*
X59228157Y-51322235D01*
X59087809Y-51112191D01*
X58877765Y-50971843D01*
X58630000Y-50922560D01*
X55630000Y-50922560D01*
X55382235Y-50971843D01*
X55362099Y-50985297D01*
X54766401Y-50389599D01*
X54519839Y-50224852D01*
X54229000Y-50167000D01*
X54210189Y-50167000D01*
X54237440Y-50030000D01*
X54237440Y-49030000D01*
X54188157Y-48782235D01*
X54047809Y-48572191D01*
X53837765Y-48431843D01*
X53590000Y-48382560D01*
X53416093Y-48382560D01*
X53416367Y-48068852D01*
X53316436Y-47827000D01*
X54694009Y-47827000D01*
X54554221Y-47966544D01*
X54406968Y-48321168D01*
X54406633Y-48705148D01*
X54553266Y-49060027D01*
X54824544Y-49331779D01*
X54982560Y-49397393D01*
X54982560Y-50030000D01*
X55031843Y-50277765D01*
X55172191Y-50487809D01*
X55382235Y-50628157D01*
X55630000Y-50677440D01*
X58630000Y-50677440D01*
X58877765Y-50628157D01*
X59087809Y-50487809D01*
X59228157Y-50277765D01*
X59277440Y-50030000D01*
X59277440Y-49359000D01*
X60649560Y-49359000D01*
X60649560Y-50209000D01*
X60698843Y-50456765D01*
X60839191Y-50666809D01*
X61049235Y-50807157D01*
X61297000Y-50856440D01*
X62147000Y-50856440D01*
X62394765Y-50807157D01*
X62500997Y-50736174D01*
X62760228Y-50843816D01*
X63181922Y-50844184D01*
X63571658Y-50683149D01*
X63674262Y-50580724D01*
X63693887Y-50726950D01*
X64094939Y-50857272D01*
X64515334Y-50824199D01*
X64750113Y-50726950D01*
X64777948Y-50519553D01*
X64222000Y-49963605D01*
X64207858Y-49977748D01*
X64031985Y-49801875D01*
X64031992Y-49794403D01*
X64042395Y-49784000D01*
X64401605Y-49784000D01*
X64957553Y-50339948D01*
X65164950Y-50312113D01*
X65295272Y-49911061D01*
X65262199Y-49490666D01*
X65164950Y-49255887D01*
X64957553Y-49228052D01*
X64401605Y-49784000D01*
X64042395Y-49784000D01*
X64032010Y-49773615D01*
X64032017Y-49766093D01*
X64207858Y-49590253D01*
X64222000Y-49604395D01*
X64777948Y-49048447D01*
X64750113Y-48841050D01*
X64349061Y-48710728D01*
X63928666Y-48743801D01*
X63693887Y-48841050D01*
X63674281Y-48987131D01*
X63573226Y-48885899D01*
X63183772Y-48724184D01*
X62762078Y-48723816D01*
X62500874Y-48831743D01*
X62394765Y-48760843D01*
X62147000Y-48711560D01*
X61297000Y-48711560D01*
X61049235Y-48760843D01*
X60839191Y-48901191D01*
X60698843Y-49111235D01*
X60649560Y-49359000D01*
X59277440Y-49359000D01*
X59277440Y-49030000D01*
X59228157Y-48782235D01*
X59087809Y-48572191D01*
X58877765Y-48431843D01*
X58630000Y-48382560D01*
X56337315Y-48382560D01*
X56337367Y-48322852D01*
X56190734Y-47967973D01*
X56050007Y-47827000D01*
X66692143Y-47827000D01*
X66692143Y-50925000D01*
X75547857Y-50925000D01*
X75547857Y-49721148D01*
X76885633Y-49721148D01*
X77032266Y-50076027D01*
X77091000Y-50134864D01*
X77091000Y-57531000D01*
X77139807Y-57776369D01*
X77139633Y-57976148D01*
X77286266Y-58331027D01*
X77557544Y-58602779D01*
X77912168Y-58750032D01*
X78296148Y-58750367D01*
X78651027Y-58603734D01*
X78922779Y-58332456D01*
X79070032Y-57977832D01*
X79070367Y-57593852D01*
X78923734Y-57238973D01*
X78652456Y-56967221D01*
X78611000Y-56950007D01*
X78611000Y-50135134D01*
X78668779Y-50077456D01*
X78816032Y-49722832D01*
X78816367Y-49338852D01*
X78669734Y-48983973D01*
X78398456Y-48712221D01*
X78043832Y-48564968D01*
X77659852Y-48564633D01*
X77304973Y-48711266D01*
X77033221Y-48982544D01*
X76885968Y-49337168D01*
X76885633Y-49721148D01*
X75547857Y-49721148D01*
X75547857Y-47827000D01*
X79358372Y-47827000D01*
X79164301Y-48294373D01*
X79163699Y-48984599D01*
X79427281Y-49622515D01*
X79914918Y-50111004D01*
X80552373Y-50375699D01*
X81242599Y-50376301D01*
X81880515Y-50112719D01*
X82369004Y-49625082D01*
X82633699Y-48987627D01*
X82634301Y-48297401D01*
X82439935Y-47827000D01*
X82856000Y-47827000D01*
X82856000Y-58678726D01*
X82582545Y-58016914D01*
X82066801Y-57500270D01*
X81392605Y-57220319D01*
X80662597Y-57219682D01*
X79987914Y-57498455D01*
X79471270Y-58014199D01*
X79191319Y-58688395D01*
X79190682Y-59418403D01*
X79469455Y-60093086D01*
X79985199Y-60609730D01*
X80659395Y-60889681D01*
X81389403Y-60890318D01*
X82064086Y-60611545D01*
X82580730Y-60095801D01*
X82856000Y-59432878D01*
X82856000Y-65076000D01*
X48481136Y-65076000D01*
X48733515Y-64971719D01*
X49222004Y-64484082D01*
X49486699Y-63846627D01*
X49487301Y-63156401D01*
X49461886Y-63094892D01*
X61931514Y-63094892D01*
X62177817Y-63619358D01*
X62606076Y-64009645D01*
X63016110Y-64179476D01*
X63246000Y-64058155D01*
X63246000Y-62865000D01*
X62052181Y-62865000D01*
X61931514Y-63094892D01*
X49461886Y-63094892D01*
X49223719Y-62518485D01*
X49086582Y-62381108D01*
X61931514Y-62381108D01*
X62052181Y-62611000D01*
X63246000Y-62611000D01*
X63246000Y-61417845D01*
X63500000Y-61417845D01*
X63500000Y-62611000D01*
X63520000Y-62611000D01*
X63520000Y-62865000D01*
X63500000Y-62865000D01*
X63500000Y-64058155D01*
X63729890Y-64179476D01*
X64139924Y-64009645D01*
X64444261Y-63732292D01*
X64464843Y-63835765D01*
X64605191Y-64045809D01*
X64815235Y-64186157D01*
X65063000Y-64235440D01*
X66763000Y-64235440D01*
X67010765Y-64186157D01*
X67220809Y-64045809D01*
X67361157Y-63835765D01*
X67410440Y-63588000D01*
X67410440Y-61888000D01*
X67361157Y-61640235D01*
X67220809Y-61430191D01*
X67010765Y-61289843D01*
X66763000Y-61240560D01*
X65063000Y-61240560D01*
X64815235Y-61289843D01*
X64605191Y-61430191D01*
X64464843Y-61640235D01*
X64444261Y-61743708D01*
X64139924Y-61466355D01*
X63729890Y-61296524D01*
X63500000Y-61417845D01*
X63246000Y-61417845D01*
X63016110Y-61296524D01*
X62606076Y-61466355D01*
X62177817Y-61856642D01*
X61931514Y-62381108D01*
X49086582Y-62381108D01*
X48736082Y-62029996D01*
X48098627Y-61765301D01*
X47408401Y-61764699D01*
X46770485Y-62028281D01*
X46281996Y-62515918D01*
X46101000Y-62951804D01*
X46101000Y-59975750D01*
X49955000Y-59975750D01*
X49955000Y-60316310D01*
X50051673Y-60549699D01*
X50230302Y-60728327D01*
X50463691Y-60825000D01*
X51804250Y-60825000D01*
X51963000Y-60666250D01*
X51963000Y-59817000D01*
X52217000Y-59817000D01*
X52217000Y-60666250D01*
X52375750Y-60825000D01*
X53716309Y-60825000D01*
X53949698Y-60728327D01*
X54128327Y-60549699D01*
X54225000Y-60316310D01*
X54225000Y-59975750D01*
X54995000Y-59975750D01*
X54995000Y-60316310D01*
X55091673Y-60549699D01*
X55270302Y-60728327D01*
X55503691Y-60825000D01*
X56844250Y-60825000D01*
X57003000Y-60666250D01*
X57003000Y-59817000D01*
X57257000Y-59817000D01*
X57257000Y-60666250D01*
X57415750Y-60825000D01*
X58756309Y-60825000D01*
X58989698Y-60728327D01*
X59168327Y-60549699D01*
X59265000Y-60316310D01*
X59265000Y-59975750D01*
X59106250Y-59817000D01*
X57257000Y-59817000D01*
X57003000Y-59817000D01*
X55153750Y-59817000D01*
X54995000Y-59975750D01*
X54225000Y-59975750D01*
X54066250Y-59817000D01*
X52217000Y-59817000D01*
X51963000Y-59817000D01*
X50113750Y-59817000D01*
X49955000Y-59975750D01*
X46101000Y-59975750D01*
X46101000Y-59063690D01*
X49955000Y-59063690D01*
X49955000Y-59404250D01*
X50113750Y-59563000D01*
X51963000Y-59563000D01*
X51963000Y-58713750D01*
X52217000Y-58713750D01*
X52217000Y-59563000D01*
X54066250Y-59563000D01*
X54225000Y-59404250D01*
X54225000Y-59063690D01*
X54128327Y-58830301D01*
X53949698Y-58651673D01*
X53716309Y-58555000D01*
X52375750Y-58555000D01*
X52217000Y-58713750D01*
X51963000Y-58713750D01*
X51804250Y-58555000D01*
X50463691Y-58555000D01*
X50230302Y-58651673D01*
X50051673Y-58830301D01*
X49955000Y-59063690D01*
X46101000Y-59063690D01*
X46101000Y-56650000D01*
X49942560Y-56650000D01*
X49942560Y-57650000D01*
X49991843Y-57897765D01*
X50132191Y-58107809D01*
X50342235Y-58248157D01*
X50590000Y-58297440D01*
X53590000Y-58297440D01*
X53837765Y-58248157D01*
X53934031Y-58183833D01*
X54025704Y-58275506D01*
X54025633Y-58357148D01*
X54172266Y-58712027D01*
X54443544Y-58983779D01*
X54798168Y-59131032D01*
X54995000Y-59131204D01*
X54995000Y-59404250D01*
X55153750Y-59563000D01*
X57003000Y-59563000D01*
X57003000Y-58713750D01*
X57257000Y-58713750D01*
X57257000Y-59563000D01*
X59106250Y-59563000D01*
X59265000Y-59404250D01*
X59265000Y-59063690D01*
X59168327Y-58830301D01*
X58989698Y-58651673D01*
X58756309Y-58555000D01*
X57415750Y-58555000D01*
X57257000Y-58713750D01*
X57003000Y-58713750D01*
X56844250Y-58555000D01*
X55874576Y-58555000D01*
X55956032Y-58358832D01*
X55956086Y-58297440D01*
X58630000Y-58297440D01*
X58877765Y-58248157D01*
X59087809Y-58107809D01*
X59228157Y-57897765D01*
X59277440Y-57650000D01*
X59277440Y-56650000D01*
X59228157Y-56402235D01*
X59087809Y-56192191D01*
X58877765Y-56051843D01*
X58630000Y-56002560D01*
X55630000Y-56002560D01*
X55382235Y-56051843D01*
X55251866Y-56138953D01*
X55056832Y-56057968D01*
X54672852Y-56057633D01*
X54317973Y-56204266D01*
X54160749Y-56361216D01*
X54047809Y-56192191D01*
X53837765Y-56051843D01*
X53590000Y-56002560D01*
X50590000Y-56002560D01*
X50342235Y-56051843D01*
X50132191Y-56192191D01*
X49991843Y-56402235D01*
X49942560Y-56650000D01*
X46101000Y-56650000D01*
X46101000Y-54801148D01*
X48945633Y-54801148D01*
X49092266Y-55156027D01*
X49363544Y-55427779D01*
X49718168Y-55575032D01*
X50102148Y-55575367D01*
X50129649Y-55564004D01*
X50132191Y-55567809D01*
X50342235Y-55708157D01*
X50590000Y-55757440D01*
X53590000Y-55757440D01*
X53837765Y-55708157D01*
X54047809Y-55567809D01*
X54188157Y-55357765D01*
X54197876Y-55308904D01*
X54316544Y-55427779D01*
X54671168Y-55575032D01*
X55055148Y-55575367D01*
X55150826Y-55535834D01*
X55172191Y-55567809D01*
X55382235Y-55708157D01*
X55630000Y-55757440D01*
X58630000Y-55757440D01*
X58877765Y-55708157D01*
X59087809Y-55567809D01*
X59228157Y-55357765D01*
X59277440Y-55110000D01*
X59277440Y-54110000D01*
X59228157Y-53862235D01*
X59087809Y-53652191D01*
X58877765Y-53511843D01*
X58630000Y-53462560D01*
X55630000Y-53462560D01*
X55382235Y-53511843D01*
X55172191Y-53652191D01*
X55150914Y-53684034D01*
X55056832Y-53644968D01*
X54672852Y-53644633D01*
X54317973Y-53791266D01*
X54197886Y-53911144D01*
X54188157Y-53862235D01*
X54047809Y-53652191D01*
X53837765Y-53511843D01*
X53590000Y-53462560D01*
X50590000Y-53462560D01*
X50342235Y-53511843D01*
X50132191Y-53652191D01*
X50129810Y-53655755D01*
X50103832Y-53644968D01*
X49719852Y-53644633D01*
X49364973Y-53791266D01*
X49093221Y-54062544D01*
X48945968Y-54417168D01*
X48945633Y-54801148D01*
X46101000Y-54801148D01*
X46101000Y-47827000D01*
X47455231Y-47827000D01*
X47188221Y-48093544D01*
%TD*%
M02*
