%TF.GenerationSoftware,KiCad,Pcbnew,no-vcs-found-8182369~60~ubuntu16.04.1*%
%TF.CreationDate,2017-09-13T17:00:57+05:30*%
%TF.ProjectId,snap_rev1,736E61705F726576312E6B696361645F,rev?*%
%TF.SameCoordinates,Original*%
%TF.FileFunction,Copper,L1,Top,Signal*%
%TF.FilePolarity,Positive*%
%FSLAX46Y46*%
G04 Gerber Fmt 4.6, Leading zero omitted, Abs format (unit mm)*
G04 Created by KiCad (PCBNEW no-vcs-found-8182369~60~ubuntu16.04.1) date Wed Sep 13 17:00:57 2017*
%MOMM*%
%LPD*%
G01*
G04 APERTURE LIST*
%TA.AperFunction,SMDPad,CuDef*%
%ADD10R,0.750000X1.600000*%
%TD*%
%TA.AperFunction,SMDPad,CuDef*%
%ADD11R,0.280000X0.850000*%
%TD*%
%TA.AperFunction,SMDPad,CuDef*%
%ADD12R,0.280000X0.750000*%
%TD*%
%TA.AperFunction,SMDPad,CuDef*%
%ADD13R,1.250000X1.000000*%
%TD*%
%TA.AperFunction,SMDPad,CuDef*%
%ADD14R,0.700000X1.300000*%
%TD*%
%TA.AperFunction,BGAPad,CuDef*%
%ADD15C,1.500000*%
%TD*%
%TA.AperFunction,ComponentPad*%
%ADD16R,0.850000X0.850000*%
%TD*%
%TA.AperFunction,ComponentPad*%
%ADD17C,0.850000*%
%TD*%
%TA.AperFunction,SMDPad,CuDef*%
%ADD18R,0.800000X0.900000*%
%TD*%
%TA.AperFunction,SMDPad,CuDef*%
%ADD19R,1.300000X1.550000*%
%TD*%
%TA.AperFunction,SMDPad,CuDef*%
%ADD20R,0.500000X1.200000*%
%TD*%
%TA.AperFunction,SMDPad,CuDef*%
%ADD21R,0.900000X1.600000*%
%TD*%
%TA.AperFunction,SMDPad,CuDef*%
%ADD22R,0.500000X1.600000*%
%TD*%
%TA.AperFunction,SMDPad,CuDef*%
%ADD23R,1.600000X0.500000*%
%TD*%
%TA.AperFunction,SMDPad,CuDef*%
%ADD24R,1.300000X1.900000*%
%TD*%
%TA.AperFunction,SMDPad,CuDef*%
%ADD25R,1.000000X1.250000*%
%TD*%
%TA.AperFunction,ComponentPad*%
%ADD26R,1.700000X1.700000*%
%TD*%
%TA.AperFunction,ComponentPad*%
%ADD27O,1.700000X1.700000*%
%TD*%
%TA.AperFunction,SMDPad,CuDef*%
%ADD28R,0.750000X0.800000*%
%TD*%
%TA.AperFunction,SMDPad,CuDef*%
%ADD29R,0.800000X0.750000*%
%TD*%
%TA.AperFunction,ViaPad*%
%ADD30C,0.660400*%
%TD*%
%TA.AperFunction,Conductor*%
%ADD31C,0.250000*%
%TD*%
%TA.AperFunction,Conductor*%
%ADD32C,0.500000*%
%TD*%
%TA.AperFunction,Conductor*%
%ADD33C,0.254000*%
%TD*%
G04 APERTURE END LIST*
D10*
%TO.P,D2,1*%
%TO.N,Net-(D2-Pad1)*%
X79401000Y-59055000D03*
%TO.P,D2,2*%
%TO.N,Net-(D2-Pad2)*%
X82651000Y-59055000D03*
%TD*%
D11*
%TO.P,U1,1*%
%TO.N,VDD*%
X76446000Y-60308000D03*
D12*
%TO.P,U1,2*%
%TO.N,Net-(L3-Pad2)*%
X75946000Y-60258000D03*
%TO.P,U1,3*%
%TO.N,Net-(C3-Pad1)*%
X75446000Y-60258000D03*
%TO.P,U1,4*%
%TO.N,/REG_MODE*%
X75446000Y-61408000D03*
%TO.P,U1,5*%
%TO.N,/VSUB*%
X75946000Y-61408000D03*
%TO.P,U1,6*%
%TO.N,GND*%
X76446000Y-61408000D03*
%TD*%
D13*
%TO.P,C1,1*%
%TO.N,/DEC4*%
X51689000Y-61738000D03*
%TO.P,C1,2*%
%TO.N,GND*%
X51689000Y-63738000D03*
%TD*%
%TO.P,C2,1*%
%TO.N,Net-(C2-Pad1)*%
X72136000Y-60341000D03*
%TO.P,C2,2*%
%TO.N,GND*%
X72136000Y-62341000D03*
%TD*%
%TO.P,C3,2*%
%TO.N,GND*%
X73914000Y-62341000D03*
%TO.P,C3,1*%
%TO.N,Net-(C3-Pad1)*%
X73914000Y-60341000D03*
%TD*%
%TO.P,C4,1*%
%TO.N,VDD*%
X57023000Y-61738000D03*
%TO.P,C4,2*%
%TO.N,GND*%
X57023000Y-63738000D03*
%TD*%
%TO.P,C6,2*%
%TO.N,GND*%
X58928000Y-63738000D03*
%TO.P,C6,1*%
%TO.N,VDD*%
X58928000Y-61738000D03*
%TD*%
%TO.P,C8,1*%
%TO.N,VDD*%
X77978000Y-59198000D03*
%TO.P,C8,2*%
%TO.N,GND*%
X77978000Y-61198000D03*
%TD*%
D14*
%TO.P,D1,1*%
%TO.N,GND*%
X82253000Y-52171000D03*
%TO.P,D1,2*%
X81153000Y-52171000D03*
%TO.P,D1,3*%
X80053000Y-52171000D03*
%TO.P,D1,4*%
%TO.N,Net-(D1-Pad4)*%
X80053000Y-55271000D03*
%TO.P,D1,5*%
%TO.N,/LED_SENSE*%
X81153000Y-55271000D03*
%TO.P,D1,6*%
%TO.N,Net-(D1-Pad6)*%
X82253000Y-55271000D03*
%TD*%
D15*
%TO.P,J1,1*%
%TO.N,/VSUB*%
X69342000Y-64643000D03*
%TD*%
D16*
%TO.P,J2,1*%
%TO.N,/FOCUS*%
X61722000Y-49784000D03*
D17*
%TO.P,J2,2*%
%TO.N,/TRIGGER*%
X62972000Y-49784000D03*
%TO.P,J2,3*%
%TO.N,GND*%
X64222000Y-49784000D03*
%TD*%
D13*
%TO.P,L2,1*%
%TO.N,Net-(L1-Pad2)*%
X55245000Y-63738000D03*
%TO.P,L2,2*%
%TO.N,/DCC*%
X55245000Y-61738000D03*
%TD*%
%TO.P,L3,2*%
%TO.N,Net-(L3-Pad2)*%
X75946000Y-58912000D03*
%TO.P,L3,1*%
%TO.N,Net-(C2-Pad1)*%
X75946000Y-56912000D03*
%TD*%
D18*
%TO.P,Q1,2*%
%TO.N,GND*%
X68392000Y-61198000D03*
%TO.P,Q1,3*%
%TO.N,Net-(C2-Pad1)*%
X70292000Y-61198000D03*
%TO.P,Q1,1*%
%TO.N,/VBAT*%
X69342000Y-59198000D03*
%TD*%
D14*
%TO.P,R1,1*%
%TO.N,Net-(C2-Pad1)*%
X72456000Y-58547000D03*
%TO.P,R1,2*%
%TO.N,Net-(C3-Pad1)*%
X74356000Y-58547000D03*
%TD*%
%TO.P,R2,1*%
%TO.N,/LED_RED*%
X74742000Y-54737000D03*
%TO.P,R2,2*%
%TO.N,Net-(D1-Pad6)*%
X76642000Y-54737000D03*
%TD*%
%TO.P,R3,2*%
%TO.N,/LED_SENSE*%
X76642000Y-52705000D03*
%TO.P,R3,1*%
%TO.N,/LED_GREEN*%
X74742000Y-52705000D03*
%TD*%
%TO.P,R4,1*%
%TO.N,/LED_BLUE*%
X74742000Y-50673000D03*
%TO.P,R4,2*%
%TO.N,Net-(D1-Pad4)*%
X76642000Y-50673000D03*
%TD*%
%TO.P,R5,2*%
%TO.N,Net-(D2-Pad2)*%
X82230000Y-61468000D03*
%TO.P,R5,1*%
%TO.N,VDD*%
X80330000Y-61468000D03*
%TD*%
D19*
%TO.P,SW1,4*%
%TO.N,Net-(SW1-Pad4)*%
X72862000Y-48476000D03*
%TO.P,SW1,2*%
%TO.N,/BUTTON*%
X68362000Y-48476000D03*
%TO.P,SW1,3*%
%TO.N,Net-(SW1-Pad3)*%
X72862000Y-56426000D03*
%TO.P,SW1,1*%
%TO.N,GND*%
X68362000Y-56426000D03*
%TD*%
D20*
%TO.P,U2,41*%
%TO.N,Net-(U2-Pad41)*%
X48720000Y-52100000D03*
%TO.P,U2,40*%
%TO.N,Net-(U2-Pad40)*%
X47320000Y-52100000D03*
D21*
%TO.P,U2,39*%
%TO.N,GND*%
X46770000Y-50250000D03*
D22*
%TO.P,U2,38*%
%TO.N,Net-(U2-Pad38)*%
X47670000Y-50250000D03*
%TO.P,U2,37*%
%TO.N,/SWDIO*%
X48370000Y-50250000D03*
%TO.P,U2,36*%
%TO.N,/SWDCLK*%
X49070000Y-50250000D03*
%TO.P,U2,35*%
%TO.N,/RESET*%
X49770000Y-50250000D03*
%TO.P,U2,34*%
%TO.N,/GPIO2*%
X50470000Y-50250000D03*
%TO.P,U2,33*%
%TO.N,Net-(U2-Pad33)*%
X51170000Y-50250000D03*
%TO.P,U2,32*%
%TO.N,/GPIO1*%
X51870000Y-50250000D03*
%TO.P,U2,31*%
%TO.N,/TX*%
X52570000Y-50250000D03*
%TO.P,U2,30*%
%TO.N,Net-(U2-Pad30)*%
X53270000Y-50250000D03*
%TO.P,U2,29*%
%TO.N,Net-(U2-Pad29)*%
X53970000Y-50250000D03*
%TO.P,U2,28*%
%TO.N,Net-(U2-Pad28)*%
X54670000Y-50250000D03*
%TO.P,U2,27*%
%TO.N,/RX*%
X55370000Y-50250000D03*
%TO.P,U2,26*%
%TO.N,/BUTTON*%
X56070000Y-50250000D03*
%TO.P,U2,25*%
%TO.N,Net-(D2-Pad1)*%
X56770000Y-50250000D03*
D23*
%TO.P,U2,24*%
%TO.N,GND*%
X58320000Y-50800000D03*
%TO.P,U2,23*%
%TO.N,Net-(U2-Pad23)*%
X58320000Y-51500000D03*
%TO.P,U2,22*%
%TO.N,/FOCUS*%
X58320000Y-52200000D03*
%TO.P,U2,21*%
%TO.N,/TRIGGER*%
X58320000Y-52900000D03*
%TO.P,U2,20*%
%TO.N,/LED_BLUE*%
X58320000Y-53600000D03*
%TO.P,U2,19*%
%TO.N,/LED_GREEN*%
X58320000Y-54300000D03*
%TO.P,U2,18*%
%TO.N,/LED_SENSE*%
X58320000Y-55000000D03*
%TO.P,U2,17*%
%TO.N,/LED_RED*%
X58320000Y-55700000D03*
%TO.P,U2,16*%
%TO.N,Net-(U2-Pad16)*%
X58320000Y-56400000D03*
%TO.P,U2,15*%
%TO.N,Net-(U2-Pad15)*%
X58320000Y-57100000D03*
%TO.P,U2,14*%
%TO.N,/LFCLK_XL2*%
X58320000Y-57800000D03*
%TO.P,U2,13*%
%TO.N,/LFCLK_XL1*%
X58320000Y-58500000D03*
D22*
%TO.P,U2,11*%
%TO.N,VDD*%
X56070000Y-59750000D03*
%TO.P,U2,10*%
%TO.N,/DCC*%
X55370000Y-59750000D03*
%TO.P,U2,9*%
%TO.N,/DEC4*%
X54670000Y-59750000D03*
%TO.P,U2,8*%
%TO.N,Net-(U2-Pad8)*%
X53970000Y-59750000D03*
%TO.P,U2,7*%
%TO.N,Net-(U2-Pad7)*%
X53270000Y-59750000D03*
%TO.P,U2,6*%
%TO.N,Net-(U2-Pad6)*%
X52570000Y-59750000D03*
%TO.P,U2,5*%
%TO.N,Net-(U2-Pad5)*%
X51870000Y-59750000D03*
%TO.P,U2,4*%
%TO.N,Net-(U2-Pad4)*%
X51170000Y-59750000D03*
%TO.P,U2,3*%
%TO.N,/REG_MODE*%
X50470000Y-59750000D03*
D21*
%TO.P,U2,1*%
%TO.N,GND*%
X46770000Y-59750000D03*
D22*
%TO.P,U2,2*%
%TO.N,Net-(U2-Pad2)*%
X49770000Y-59750000D03*
D23*
%TO.P,U2,12*%
%TO.N,GND*%
X58320000Y-59300000D03*
%TD*%
D24*
%TO.P,X1,2*%
%TO.N,/LFCLK_XL2*%
X61004000Y-56566000D03*
%TO.P,X1,1*%
%TO.N,/LFCLK_XL1*%
X61004000Y-59766000D03*
%TO.P,X1,3*%
%TO.N,Net-(X1-Pad3)*%
X66504000Y-59766000D03*
%TO.P,X1,*%
%TO.N,*%
X66504000Y-56566000D03*
%TD*%
D25*
%TO.P,C9,1*%
%TO.N,/VSUB*%
X75708000Y-64516000D03*
%TO.P,C9,2*%
%TO.N,GND*%
X77708000Y-64516000D03*
%TD*%
D26*
%TO.P,BT1,1*%
%TO.N,/VBAT*%
X65913000Y-62738000D03*
D27*
%TO.P,BT1,2*%
%TO.N,GND*%
X63373000Y-62738000D03*
%TD*%
D28*
%TO.P,C5,1*%
%TO.N,/LFCLK_XL1*%
X60579000Y-61988000D03*
%TO.P,C5,2*%
%TO.N,GND*%
X60579000Y-63488000D03*
%TD*%
D29*
%TO.P,C7,2*%
%TO.N,GND*%
X64504000Y-54864000D03*
%TO.P,C7,1*%
%TO.N,/LFCLK_XL2*%
X63004000Y-54864000D03*
%TD*%
D28*
%TO.P,L1,2*%
%TO.N,Net-(L1-Pad2)*%
X53467000Y-63107000D03*
%TO.P,L1,1*%
%TO.N,/DEC4*%
X53467000Y-61607000D03*
%TD*%
D30*
%TO.N,GND*%
X59309000Y-49911000D03*
X80899000Y-53721000D03*
X79375000Y-63119000D03*
X70612000Y-62484000D03*
X64516000Y-56515000D03*
X69850000Y-55753000D03*
X68072000Y-58928000D03*
X53340000Y-64389000D03*
X58928000Y-60452000D03*
X46736000Y-48641000D03*
X46863000Y-61341000D03*
%TO.N,VDD*%
X54991000Y-58166000D03*
%TO.N,/SWDCLK*%
X49149000Y-48641000D03*
%TO.N,Net-(D2-Pad1)*%
X78105000Y-57785000D03*
X77851000Y-49530000D03*
%TO.N,/TX*%
X52451000Y-48260000D03*
%TO.N,/RX*%
X55372000Y-48514000D03*
%TO.N,/SWDIO*%
X48006000Y-48641000D03*
%TO.N,/RESET*%
X49911000Y-54610000D03*
%TO.N,/GPIO1*%
X54864000Y-54610000D03*
%TO.N,/GPIO2*%
X54864000Y-57023000D03*
%TD*%
D31*
%TO.N,GND*%
X58420000Y-50800000D02*
X59309000Y-49911000D01*
X80053000Y-52171000D02*
X80053000Y-52875000D01*
X80053000Y-52875000D02*
X80899000Y-53721000D01*
X79375000Y-63119000D02*
X77978000Y-64516000D01*
X77978000Y-64516000D02*
X77708000Y-64516000D01*
X80053000Y-52171000D02*
X81153000Y-52171000D01*
X81153000Y-52171000D02*
X82253000Y-52171000D01*
X77708000Y-64516000D02*
X77708000Y-61468000D01*
X77708000Y-61468000D02*
X77978000Y-61198000D01*
X76446000Y-61408000D02*
X77768000Y-61408000D01*
X77768000Y-61408000D02*
X77978000Y-61198000D01*
X71993000Y-62484000D02*
X70612000Y-62484000D01*
X73914000Y-62341000D02*
X72136000Y-62341000D01*
X72136000Y-62341000D02*
X71993000Y-62484000D01*
X64504000Y-56503000D02*
X64516000Y-56515000D01*
X64504000Y-54864000D02*
X64504000Y-56503000D01*
X69177000Y-56426000D02*
X68362000Y-56426000D01*
X69177000Y-56426000D02*
X69850000Y-55753000D01*
X68392000Y-61198000D02*
X68392000Y-59248000D01*
X68392000Y-59248000D02*
X68072000Y-58928000D01*
X52689000Y-63738000D02*
X53340000Y-64389000D01*
X51689000Y-63738000D02*
X52689000Y-63738000D01*
X58320000Y-59300000D02*
X58320000Y-59844000D01*
X58320000Y-59844000D02*
X58928000Y-60452000D01*
X46770000Y-59750000D02*
X46770000Y-54009000D01*
X46482000Y-53721000D02*
X46482000Y-50538000D01*
X46770000Y-54009000D02*
X46482000Y-53721000D01*
X46482000Y-50538000D02*
X46770000Y-50250000D01*
X60579000Y-63488000D02*
X62623000Y-63488000D01*
X62623000Y-63488000D02*
X63373000Y-62738000D01*
X57023000Y-63738000D02*
X58928000Y-63738000D01*
X58928000Y-63738000D02*
X59178000Y-63488000D01*
X59178000Y-63488000D02*
X60579000Y-63488000D01*
X46770000Y-50250000D02*
X46770000Y-48675000D01*
X46770000Y-48675000D02*
X46736000Y-48641000D01*
X58320000Y-50800000D02*
X58420000Y-50800000D01*
X46770000Y-59750000D02*
X46770000Y-61248000D01*
X46770000Y-61248000D02*
X46863000Y-61341000D01*
%TO.N,/DEC4*%
X51689000Y-61738000D02*
X53336000Y-61738000D01*
X53336000Y-61738000D02*
X53467000Y-61607000D01*
X54670000Y-59750000D02*
X54670000Y-60646000D01*
X54670000Y-60646000D02*
X53709000Y-61607000D01*
X53709000Y-61607000D02*
X53467000Y-61607000D01*
X53578000Y-61738000D02*
X53467000Y-61738000D01*
%TO.N,Net-(C2-Pad1)*%
X72136000Y-60341000D02*
X71149000Y-60341000D01*
X71149000Y-60341000D02*
X70292000Y-61198000D01*
X75946000Y-56912000D02*
X74406000Y-56912000D01*
X74406000Y-56912000D02*
X72771000Y-58547000D01*
X72771000Y-58547000D02*
X72456000Y-58547000D01*
D32*
X72456000Y-58547000D02*
X72456000Y-60021000D01*
X72456000Y-60021000D02*
X72136000Y-60341000D01*
X72041000Y-60436000D02*
X72136000Y-60341000D01*
D31*
%TO.N,Net-(C3-Pad1)*%
X75446000Y-60258000D02*
X73997000Y-60258000D01*
X73997000Y-60258000D02*
X73914000Y-60341000D01*
D32*
X74356000Y-58547000D02*
X74356000Y-59899000D01*
X74356000Y-59899000D02*
X73914000Y-60341000D01*
D31*
%TO.N,VDD*%
X80330000Y-61468000D02*
X80010000Y-61468000D01*
X80010000Y-61468000D02*
X77978000Y-59436000D01*
X77978000Y-59436000D02*
X77978000Y-59198000D01*
X56070000Y-59750000D02*
X56070000Y-58356000D01*
X55880000Y-58166000D02*
X54991000Y-58166000D01*
X56070000Y-58356000D02*
X55880000Y-58166000D01*
%TO.N,/LFCLK_XL2*%
X63004000Y-54864000D02*
X62706000Y-54864000D01*
X62706000Y-54864000D02*
X61004000Y-56566000D01*
%TO.N,Net-(D2-Pad2)*%
X82778000Y-59055000D02*
X82778000Y-60920000D01*
X82778000Y-60920000D02*
X82230000Y-61468000D01*
%TO.N,/SWDCLK*%
X49070000Y-48720000D02*
X49070000Y-50250000D01*
X49149000Y-48641000D02*
X49070000Y-48720000D01*
%TO.N,VDD*%
X66294000Y-58166000D02*
X68775802Y-58166000D01*
X59690000Y-62738000D02*
X61341000Y-62738000D01*
X61341000Y-62738000D02*
X65913000Y-58166000D01*
X65913000Y-58166000D02*
X66294000Y-58166000D01*
X58928000Y-61976000D02*
X59690000Y-62738000D01*
X77343000Y-58563000D02*
X77978000Y-59198000D01*
X77343000Y-56388000D02*
X77343000Y-58563000D01*
X76835000Y-55880000D02*
X77343000Y-56388000D01*
X74295000Y-55880000D02*
X76835000Y-55880000D01*
X73601802Y-55186802D02*
X74295000Y-55880000D01*
X71755000Y-55186802D02*
X73601802Y-55186802D01*
X68775802Y-58166000D02*
X71755000Y-55186802D01*
X58928000Y-61738000D02*
X58928000Y-61976000D01*
X57023000Y-61738000D02*
X58928000Y-61738000D01*
X56070000Y-59750000D02*
X56070000Y-60515000D01*
X56070000Y-60515000D02*
X57023000Y-61468000D01*
X57023000Y-61468000D02*
X57023000Y-61738000D01*
X76446000Y-60308000D02*
X76868000Y-60308000D01*
X76868000Y-60308000D02*
X77978000Y-59198000D01*
%TO.N,/LFCLK_XL1*%
X60579000Y-61738000D02*
X60579000Y-60191000D01*
X60579000Y-60191000D02*
X61004000Y-59766000D01*
X58320000Y-58500000D02*
X59738000Y-58500000D01*
X59738000Y-58500000D02*
X61004000Y-59766000D01*
%TO.N,/LFCLK_XL2*%
X58320000Y-57800000D02*
X59770000Y-57800000D01*
X59770000Y-57800000D02*
X61004000Y-56566000D01*
%TO.N,Net-(D1-Pad4)*%
X76642000Y-50673000D02*
X76708000Y-50673000D01*
X76708000Y-50673000D02*
X80053000Y-54272000D01*
X80053000Y-54272000D02*
X80053000Y-55271000D01*
%TO.N,/LED_SENSE*%
X76642000Y-52705000D02*
X77089000Y-52705000D01*
X80518000Y-56388000D02*
X81153000Y-55753000D01*
X79375000Y-56388000D02*
X80518000Y-56388000D01*
X78994000Y-56007000D02*
X79375000Y-56388000D01*
X78994000Y-54610000D02*
X78994000Y-56007000D01*
X77089000Y-52705000D02*
X78994000Y-54610000D01*
X81153000Y-55753000D02*
X81153000Y-55271000D01*
X58320000Y-55000000D02*
X59552884Y-55000000D01*
X66040000Y-53721000D02*
X65913000Y-53594000D01*
X65913000Y-53594000D02*
X62288198Y-53594000D01*
X62288198Y-53594000D02*
X61214000Y-54668198D01*
X61214000Y-54668198D02*
X60579000Y-54668198D01*
X75438000Y-53721000D02*
X76642000Y-52771000D01*
X75438000Y-53721000D02*
X73279000Y-53721000D01*
X73279000Y-53721000D02*
X66040000Y-53721000D01*
X59884686Y-54668198D02*
X60579000Y-54668198D01*
X59552884Y-55000000D02*
X59884686Y-54668198D01*
X76642000Y-52705000D02*
X76642000Y-52771000D01*
%TO.N,Net-(D1-Pad6)*%
X82253000Y-55271000D02*
X82253000Y-55796000D01*
X82253000Y-55796000D02*
X81153000Y-56896000D01*
X81153000Y-56896000D02*
X79121000Y-56896000D01*
X79121000Y-56896000D02*
X76962000Y-54737000D01*
X76962000Y-54737000D02*
X76642000Y-54737000D01*
%TO.N,Net-(D2-Pad1)*%
X79528000Y-59055000D02*
X79528000Y-58827000D01*
X79528000Y-58827000D02*
X78486000Y-57785000D01*
X78486000Y-57785000D02*
X78105000Y-57785000D01*
X77851000Y-49530000D02*
X77343000Y-49022000D01*
X77343000Y-49022000D02*
X75311000Y-49022000D01*
X56770000Y-50250000D02*
X56770000Y-49783000D01*
X56770000Y-49783000D02*
X57912000Y-48641000D01*
X57912000Y-48641000D02*
X65786000Y-48641000D01*
X65786000Y-48641000D02*
X67183000Y-50038000D01*
X67183000Y-50038000D02*
X73406000Y-50038000D01*
X73406000Y-50038000D02*
X74422000Y-49022000D01*
X74422000Y-49022000D02*
X75311000Y-49022000D01*
%TO.N,/FOCUS*%
X58320000Y-52200000D02*
X59306000Y-52200000D01*
X59306000Y-52200000D02*
X61722000Y-49784000D01*
%TO.N,/TRIGGER*%
X62972000Y-49784000D02*
X62972000Y-50312000D01*
X60384000Y-52900000D02*
X62484000Y-50800000D01*
X60384000Y-52900000D02*
X58320000Y-52900000D01*
X62972000Y-50312000D02*
X62484000Y-50800000D01*
%TO.N,Net-(L1-Pad2)*%
X55245000Y-63738000D02*
X54098000Y-63738000D01*
X54098000Y-63738000D02*
X53467000Y-63107000D01*
%TO.N,/DCC*%
X55370000Y-59750000D02*
X55370000Y-61613000D01*
X55370000Y-61613000D02*
X55245000Y-61738000D01*
%TO.N,Net-(L3-Pad2)*%
X75946000Y-60258000D02*
X75946000Y-58912000D01*
%TO.N,/TX*%
X52570000Y-48379000D02*
X52570000Y-50250000D01*
X52451000Y-48260000D02*
X52570000Y-48379000D01*
%TO.N,/RX*%
X55370000Y-50250000D02*
X55370000Y-48516000D01*
X55370000Y-48516000D02*
X55372000Y-48514000D01*
%TO.N,/SWDIO*%
X48370000Y-50250000D02*
X48370000Y-49005000D01*
X48370000Y-49005000D02*
X48006000Y-48641000D01*
%TO.N,/RESET*%
X49770000Y-50250000D02*
X49770000Y-54469000D01*
X49770000Y-54469000D02*
X49911000Y-54610000D01*
%TO.N,/GPIO1*%
X51870000Y-50250000D02*
X51870000Y-51616000D01*
X51870000Y-51616000D02*
X54864000Y-54610000D01*
%TO.N,/GPIO2*%
X50470000Y-50250000D02*
X50470000Y-52629000D01*
X50470000Y-52629000D02*
X54864000Y-57023000D01*
%TO.N,/LED_RED*%
X74742000Y-54737000D02*
X66294000Y-54737000D01*
X59489000Y-55700000D02*
X58320000Y-55700000D01*
X60071000Y-55118000D02*
X61468000Y-55118000D01*
X59489000Y-55700000D02*
X60071000Y-55118000D01*
X62484000Y-54102000D02*
X61468000Y-55118000D01*
X65659000Y-54102000D02*
X62484000Y-54102000D01*
X66294000Y-54737000D02*
X65659000Y-54102000D01*
%TO.N,/LED_GREEN*%
X62484000Y-53144198D02*
X74048802Y-53144198D01*
X59516488Y-54300000D02*
X59598092Y-54218396D01*
X59598092Y-54218396D02*
X61027686Y-54218396D01*
X61027686Y-54218396D02*
X62101884Y-53144198D01*
X62101884Y-53144198D02*
X62484000Y-53144198D01*
X58320000Y-54300000D02*
X59516488Y-54300000D01*
X74048802Y-53144198D02*
X74742000Y-52705000D01*
%TO.N,/LED_BLUE*%
X58320000Y-53600000D02*
X60827000Y-53600000D01*
X72583000Y-52578000D02*
X74742000Y-50673000D01*
X61849000Y-52578000D02*
X72583000Y-52578000D01*
X60827000Y-53600000D02*
X61849000Y-52578000D01*
X74550942Y-50864058D02*
X74742000Y-50673000D01*
%TO.N,/REG_MODE*%
X66421000Y-64897000D02*
X66167000Y-65151000D01*
X74803000Y-63373000D02*
X75446000Y-62730000D01*
X75446000Y-61408000D02*
X75446000Y-62730000D01*
X50470000Y-64440000D02*
X50470000Y-59750000D01*
X67945000Y-63373000D02*
X71882000Y-63373000D01*
X66421000Y-64897000D02*
X67945000Y-63373000D01*
X50470000Y-64440000D02*
X50927000Y-64897000D01*
X71882000Y-63373000D02*
X74803000Y-63373000D01*
X51181000Y-65151000D02*
X50927000Y-64897000D01*
X66167000Y-65151000D02*
X51181000Y-65151000D01*
%TO.N,/VSUB*%
X69342000Y-64643000D02*
X75581000Y-64643000D01*
X75581000Y-64643000D02*
X75708000Y-64516000D01*
X75946000Y-61408000D02*
X75946000Y-64278000D01*
X75946000Y-64278000D02*
X75708000Y-64516000D01*
D32*
%TO.N,/VBAT*%
X65913000Y-62738000D02*
X68707000Y-62738000D01*
X69342000Y-62103000D02*
X69342000Y-59198000D01*
X68707000Y-62738000D02*
X69342000Y-62103000D01*
D31*
%TO.N,/BUTTON*%
X56070000Y-50250000D02*
X56070000Y-48832000D01*
X56896000Y-48006000D02*
X67892000Y-48006000D01*
X56070000Y-48832000D02*
X56896000Y-48006000D01*
X67892000Y-48006000D02*
X68362000Y-48476000D01*
%TD*%
D33*
%TO.N,GND*%
G36*
X46193690Y-51685000D02*
X46422560Y-51685000D01*
X46422560Y-52700000D01*
X46471843Y-52947765D01*
X46612191Y-53157809D01*
X46822235Y-53298157D01*
X47070000Y-53347440D01*
X47570000Y-53347440D01*
X47817765Y-53298157D01*
X48020000Y-53163027D01*
X48222235Y-53298157D01*
X48470000Y-53347440D01*
X48970000Y-53347440D01*
X49010000Y-53339484D01*
X49010000Y-54262962D01*
X48945968Y-54417168D01*
X48945633Y-54801148D01*
X49092266Y-55156027D01*
X49363544Y-55427779D01*
X49718168Y-55575032D01*
X50102148Y-55575367D01*
X50457027Y-55428734D01*
X50728779Y-55157456D01*
X50876032Y-54802832D01*
X50876367Y-54418852D01*
X50729734Y-54063973D01*
X50530000Y-53863890D01*
X50530000Y-53763802D01*
X53898704Y-57132506D01*
X53898633Y-57214148D01*
X54045266Y-57569027D01*
X54150153Y-57674097D01*
X54025968Y-57973168D01*
X54025681Y-58302560D01*
X53720000Y-58302560D01*
X53620000Y-58322451D01*
X53520000Y-58302560D01*
X53020000Y-58302560D01*
X52920000Y-58322451D01*
X52820000Y-58302560D01*
X52320000Y-58302560D01*
X52220000Y-58322451D01*
X52120000Y-58302560D01*
X51620000Y-58302560D01*
X51520000Y-58322451D01*
X51420000Y-58302560D01*
X50920000Y-58302560D01*
X50820000Y-58322451D01*
X50720000Y-58302560D01*
X50220000Y-58302560D01*
X50120000Y-58322451D01*
X50020000Y-58302560D01*
X49520000Y-58302560D01*
X49272235Y-58351843D01*
X49062191Y-58492191D01*
X48921843Y-58702235D01*
X48872560Y-58950000D01*
X48872560Y-60550000D01*
X48921843Y-60797765D01*
X49062191Y-61007809D01*
X49272235Y-61148157D01*
X49520000Y-61197440D01*
X49710000Y-61197440D01*
X49710000Y-64440000D01*
X49767852Y-64730839D01*
X49932599Y-64977401D01*
X50031198Y-65076000D01*
X48481136Y-65076000D01*
X48733515Y-64971719D01*
X49222004Y-64484082D01*
X49486699Y-63846627D01*
X49487301Y-63156401D01*
X49223719Y-62518485D01*
X48736082Y-62029996D01*
X48098627Y-61765301D01*
X47408401Y-61764699D01*
X46770485Y-62028281D01*
X46281996Y-62515918D01*
X46101000Y-62951804D01*
X46101000Y-61146607D01*
X46193690Y-61185000D01*
X46484250Y-61185000D01*
X46643000Y-61026250D01*
X46643000Y-59877000D01*
X46897000Y-59877000D01*
X46897000Y-61026250D01*
X47055750Y-61185000D01*
X47346310Y-61185000D01*
X47579699Y-61088327D01*
X47758327Y-60909698D01*
X47855000Y-60676309D01*
X47855000Y-60035750D01*
X47696250Y-59877000D01*
X46897000Y-59877000D01*
X46643000Y-59877000D01*
X46623000Y-59877000D01*
X46623000Y-59623000D01*
X46643000Y-59623000D01*
X46643000Y-58473750D01*
X46897000Y-58473750D01*
X46897000Y-59623000D01*
X47696250Y-59623000D01*
X47855000Y-59464250D01*
X47855000Y-58823691D01*
X47758327Y-58590302D01*
X47579699Y-58411673D01*
X47346310Y-58315000D01*
X47055750Y-58315000D01*
X46897000Y-58473750D01*
X46643000Y-58473750D01*
X46484250Y-58315000D01*
X46193690Y-58315000D01*
X46101000Y-58353393D01*
X46101000Y-51646607D01*
X46193690Y-51685000D01*
X46193690Y-51685000D01*
G37*
X46193690Y-51685000D02*
X46422560Y-51685000D01*
X46422560Y-52700000D01*
X46471843Y-52947765D01*
X46612191Y-53157809D01*
X46822235Y-53298157D01*
X47070000Y-53347440D01*
X47570000Y-53347440D01*
X47817765Y-53298157D01*
X48020000Y-53163027D01*
X48222235Y-53298157D01*
X48470000Y-53347440D01*
X48970000Y-53347440D01*
X49010000Y-53339484D01*
X49010000Y-54262962D01*
X48945968Y-54417168D01*
X48945633Y-54801148D01*
X49092266Y-55156027D01*
X49363544Y-55427779D01*
X49718168Y-55575032D01*
X50102148Y-55575367D01*
X50457027Y-55428734D01*
X50728779Y-55157456D01*
X50876032Y-54802832D01*
X50876367Y-54418852D01*
X50729734Y-54063973D01*
X50530000Y-53863890D01*
X50530000Y-53763802D01*
X53898704Y-57132506D01*
X53898633Y-57214148D01*
X54045266Y-57569027D01*
X54150153Y-57674097D01*
X54025968Y-57973168D01*
X54025681Y-58302560D01*
X53720000Y-58302560D01*
X53620000Y-58322451D01*
X53520000Y-58302560D01*
X53020000Y-58302560D01*
X52920000Y-58322451D01*
X52820000Y-58302560D01*
X52320000Y-58302560D01*
X52220000Y-58322451D01*
X52120000Y-58302560D01*
X51620000Y-58302560D01*
X51520000Y-58322451D01*
X51420000Y-58302560D01*
X50920000Y-58302560D01*
X50820000Y-58322451D01*
X50720000Y-58302560D01*
X50220000Y-58302560D01*
X50120000Y-58322451D01*
X50020000Y-58302560D01*
X49520000Y-58302560D01*
X49272235Y-58351843D01*
X49062191Y-58492191D01*
X48921843Y-58702235D01*
X48872560Y-58950000D01*
X48872560Y-60550000D01*
X48921843Y-60797765D01*
X49062191Y-61007809D01*
X49272235Y-61148157D01*
X49520000Y-61197440D01*
X49710000Y-61197440D01*
X49710000Y-64440000D01*
X49767852Y-64730839D01*
X49932599Y-64977401D01*
X50031198Y-65076000D01*
X48481136Y-65076000D01*
X48733515Y-64971719D01*
X49222004Y-64484082D01*
X49486699Y-63846627D01*
X49487301Y-63156401D01*
X49223719Y-62518485D01*
X48736082Y-62029996D01*
X48098627Y-61765301D01*
X47408401Y-61764699D01*
X46770485Y-62028281D01*
X46281996Y-62515918D01*
X46101000Y-62951804D01*
X46101000Y-61146607D01*
X46193690Y-61185000D01*
X46484250Y-61185000D01*
X46643000Y-61026250D01*
X46643000Y-59877000D01*
X46897000Y-59877000D01*
X46897000Y-61026250D01*
X47055750Y-61185000D01*
X47346310Y-61185000D01*
X47579699Y-61088327D01*
X47758327Y-60909698D01*
X47855000Y-60676309D01*
X47855000Y-60035750D01*
X47696250Y-59877000D01*
X46897000Y-59877000D01*
X46643000Y-59877000D01*
X46623000Y-59877000D01*
X46623000Y-59623000D01*
X46643000Y-59623000D01*
X46643000Y-58473750D01*
X46897000Y-58473750D01*
X46897000Y-59623000D01*
X47696250Y-59623000D01*
X47855000Y-59464250D01*
X47855000Y-58823691D01*
X47758327Y-58590302D01*
X47579699Y-58411673D01*
X47346310Y-58315000D01*
X47055750Y-58315000D01*
X46897000Y-58473750D01*
X46643000Y-58473750D01*
X46484250Y-58315000D01*
X46193690Y-58315000D01*
X46101000Y-58353393D01*
X46101000Y-51646607D01*
X46193690Y-51685000D01*
G36*
X78105000Y-61071000D02*
X78125000Y-61071000D01*
X78125000Y-61325000D01*
X78105000Y-61325000D01*
X78105000Y-62174250D01*
X78263750Y-62333000D01*
X78729310Y-62333000D01*
X78962699Y-62236327D01*
X79141327Y-62057698D01*
X79238000Y-61824309D01*
X79238000Y-61770802D01*
X79332560Y-61865362D01*
X79332560Y-62118000D01*
X79381843Y-62365765D01*
X79522191Y-62575809D01*
X79732235Y-62716157D01*
X79980000Y-62765440D01*
X80680000Y-62765440D01*
X80927765Y-62716157D01*
X81137809Y-62575809D01*
X81278157Y-62365765D01*
X81280000Y-62356500D01*
X81281843Y-62365765D01*
X81422191Y-62575809D01*
X81632235Y-62716157D01*
X81880000Y-62765440D01*
X82580000Y-62765440D01*
X82827765Y-62716157D01*
X82856000Y-62697291D01*
X82856000Y-65076000D01*
X78843000Y-65076000D01*
X78843000Y-64801750D01*
X78684250Y-64643000D01*
X77835000Y-64643000D01*
X77835000Y-64663000D01*
X77581000Y-64663000D01*
X77581000Y-64643000D01*
X77561000Y-64643000D01*
X77561000Y-64389000D01*
X77581000Y-64389000D01*
X77581000Y-63414750D01*
X77835000Y-63414750D01*
X77835000Y-64389000D01*
X78684250Y-64389000D01*
X78843000Y-64230250D01*
X78843000Y-63764690D01*
X78746327Y-63531301D01*
X78567698Y-63352673D01*
X78334309Y-63256000D01*
X77993750Y-63256000D01*
X77835000Y-63414750D01*
X77581000Y-63414750D01*
X77422250Y-63256000D01*
X77081691Y-63256000D01*
X76848302Y-63352673D01*
X76706654Y-63494320D01*
X76706000Y-63493341D01*
X76706000Y-62418000D01*
X76712309Y-62418000D01*
X76945698Y-62321327D01*
X77019745Y-62247280D01*
X77226690Y-62333000D01*
X77692250Y-62333000D01*
X77851000Y-62174250D01*
X77851000Y-61325000D01*
X77831000Y-61325000D01*
X77831000Y-61071000D01*
X77851000Y-61071000D01*
X77851000Y-61051000D01*
X78105000Y-61051000D01*
X78105000Y-61071000D01*
X78105000Y-61071000D01*
G37*
X78105000Y-61071000D02*
X78125000Y-61071000D01*
X78125000Y-61325000D01*
X78105000Y-61325000D01*
X78105000Y-62174250D01*
X78263750Y-62333000D01*
X78729310Y-62333000D01*
X78962699Y-62236327D01*
X79141327Y-62057698D01*
X79238000Y-61824309D01*
X79238000Y-61770802D01*
X79332560Y-61865362D01*
X79332560Y-62118000D01*
X79381843Y-62365765D01*
X79522191Y-62575809D01*
X79732235Y-62716157D01*
X79980000Y-62765440D01*
X80680000Y-62765440D01*
X80927765Y-62716157D01*
X81137809Y-62575809D01*
X81278157Y-62365765D01*
X81280000Y-62356500D01*
X81281843Y-62365765D01*
X81422191Y-62575809D01*
X81632235Y-62716157D01*
X81880000Y-62765440D01*
X82580000Y-62765440D01*
X82827765Y-62716157D01*
X82856000Y-62697291D01*
X82856000Y-65076000D01*
X78843000Y-65076000D01*
X78843000Y-64801750D01*
X78684250Y-64643000D01*
X77835000Y-64643000D01*
X77835000Y-64663000D01*
X77581000Y-64663000D01*
X77581000Y-64643000D01*
X77561000Y-64643000D01*
X77561000Y-64389000D01*
X77581000Y-64389000D01*
X77581000Y-63414750D01*
X77835000Y-63414750D01*
X77835000Y-64389000D01*
X78684250Y-64389000D01*
X78843000Y-64230250D01*
X78843000Y-63764690D01*
X78746327Y-63531301D01*
X78567698Y-63352673D01*
X78334309Y-63256000D01*
X77993750Y-63256000D01*
X77835000Y-63414750D01*
X77581000Y-63414750D01*
X77422250Y-63256000D01*
X77081691Y-63256000D01*
X76848302Y-63352673D01*
X76706654Y-63494320D01*
X76706000Y-63493341D01*
X76706000Y-62418000D01*
X76712309Y-62418000D01*
X76945698Y-62321327D01*
X77019745Y-62247280D01*
X77226690Y-62333000D01*
X77692250Y-62333000D01*
X77851000Y-62174250D01*
X77851000Y-61325000D01*
X77831000Y-61325000D01*
X77831000Y-61071000D01*
X77851000Y-61071000D01*
X77851000Y-61051000D01*
X78105000Y-61051000D01*
X78105000Y-61071000D01*
G36*
X53092000Y-64154440D02*
X53439638Y-64154440D01*
X53560599Y-64275401D01*
X53733606Y-64391000D01*
X52937944Y-64391000D01*
X52949000Y-64364309D01*
X52949000Y-64125996D01*
X53092000Y-64154440D01*
X53092000Y-64154440D01*
G37*
X53092000Y-64154440D02*
X53439638Y-64154440D01*
X53560599Y-64275401D01*
X53733606Y-64391000D01*
X52937944Y-64391000D01*
X52949000Y-64364309D01*
X52949000Y-64125996D01*
X53092000Y-64154440D01*
G36*
X63500000Y-62611000D02*
X63520000Y-62611000D01*
X63520000Y-62865000D01*
X63500000Y-62865000D01*
X63500000Y-64058155D01*
X63729890Y-64179476D01*
X64139924Y-64009645D01*
X64444261Y-63732292D01*
X64464843Y-63835765D01*
X64605191Y-64045809D01*
X64815235Y-64186157D01*
X65063000Y-64235440D01*
X66007758Y-64235440D01*
X65852198Y-64391000D01*
X61349026Y-64391000D01*
X61492327Y-64247698D01*
X61589000Y-64014309D01*
X61589000Y-63773750D01*
X61430250Y-63615000D01*
X60706000Y-63615000D01*
X60706000Y-63635000D01*
X60452000Y-63635000D01*
X60452000Y-63615000D01*
X60432000Y-63615000D01*
X60432000Y-63498000D01*
X61341000Y-63498000D01*
X61631839Y-63440148D01*
X61878401Y-63275401D01*
X61972224Y-63181578D01*
X62177817Y-63619358D01*
X62606076Y-64009645D01*
X63016110Y-64179476D01*
X63246000Y-64058155D01*
X63246000Y-62865000D01*
X63226000Y-62865000D01*
X63226000Y-62611000D01*
X63246000Y-62611000D01*
X63246000Y-62591000D01*
X63500000Y-62591000D01*
X63500000Y-62611000D01*
X63500000Y-62611000D01*
G37*
X63500000Y-62611000D02*
X63520000Y-62611000D01*
X63520000Y-62865000D01*
X63500000Y-62865000D01*
X63500000Y-64058155D01*
X63729890Y-64179476D01*
X64139924Y-64009645D01*
X64444261Y-63732292D01*
X64464843Y-63835765D01*
X64605191Y-64045809D01*
X64815235Y-64186157D01*
X65063000Y-64235440D01*
X66007758Y-64235440D01*
X65852198Y-64391000D01*
X61349026Y-64391000D01*
X61492327Y-64247698D01*
X61589000Y-64014309D01*
X61589000Y-63773750D01*
X61430250Y-63615000D01*
X60706000Y-63615000D01*
X60706000Y-63635000D01*
X60452000Y-63635000D01*
X60452000Y-63615000D01*
X60432000Y-63615000D01*
X60432000Y-63498000D01*
X61341000Y-63498000D01*
X61631839Y-63440148D01*
X61878401Y-63275401D01*
X61972224Y-63181578D01*
X62177817Y-63619358D01*
X62606076Y-64009645D01*
X63016110Y-64179476D01*
X63246000Y-64058155D01*
X63246000Y-62865000D01*
X63226000Y-62865000D01*
X63226000Y-62611000D01*
X63246000Y-62611000D01*
X63246000Y-62591000D01*
X63500000Y-62591000D01*
X63500000Y-62611000D01*
G36*
X51816000Y-63611000D02*
X51836000Y-63611000D01*
X51836000Y-63865000D01*
X51816000Y-63865000D01*
X51816000Y-63885000D01*
X51562000Y-63885000D01*
X51562000Y-63865000D01*
X51542000Y-63865000D01*
X51542000Y-63611000D01*
X51562000Y-63611000D01*
X51562000Y-63591000D01*
X51816000Y-63591000D01*
X51816000Y-63611000D01*
X51816000Y-63611000D01*
G37*
X51816000Y-63611000D02*
X51836000Y-63611000D01*
X51836000Y-63865000D01*
X51816000Y-63865000D01*
X51816000Y-63885000D01*
X51562000Y-63885000D01*
X51562000Y-63865000D01*
X51542000Y-63865000D01*
X51542000Y-63611000D01*
X51562000Y-63611000D01*
X51562000Y-63591000D01*
X51816000Y-63591000D01*
X51816000Y-63611000D01*
G36*
X57150000Y-63611000D02*
X58801000Y-63611000D01*
X58801000Y-63591000D01*
X59055000Y-63591000D01*
X59055000Y-63611000D01*
X59075000Y-63611000D01*
X59075000Y-63865000D01*
X59055000Y-63865000D01*
X59055000Y-63885000D01*
X58801000Y-63885000D01*
X58801000Y-63865000D01*
X57150000Y-63865000D01*
X57150000Y-63885000D01*
X56896000Y-63885000D01*
X56896000Y-63865000D01*
X56876000Y-63865000D01*
X56876000Y-63611000D01*
X56896000Y-63611000D01*
X56896000Y-63591000D01*
X57150000Y-63591000D01*
X57150000Y-63611000D01*
X57150000Y-63611000D01*
G37*
X57150000Y-63611000D02*
X58801000Y-63611000D01*
X58801000Y-63591000D01*
X59055000Y-63591000D01*
X59055000Y-63611000D01*
X59075000Y-63611000D01*
X59075000Y-63865000D01*
X59055000Y-63865000D01*
X59055000Y-63885000D01*
X58801000Y-63885000D01*
X58801000Y-63865000D01*
X57150000Y-63865000D01*
X57150000Y-63885000D01*
X56896000Y-63885000D01*
X56896000Y-63865000D01*
X56876000Y-63865000D01*
X56876000Y-63611000D01*
X56896000Y-63611000D01*
X56896000Y-63591000D01*
X57150000Y-63591000D01*
X57150000Y-63611000D01*
G36*
X72263000Y-62214000D02*
X73787000Y-62214000D01*
X73787000Y-62194000D01*
X74041000Y-62194000D01*
X74041000Y-62214000D01*
X74061000Y-62214000D01*
X74061000Y-62468000D01*
X74041000Y-62468000D01*
X74041000Y-62488000D01*
X73787000Y-62488000D01*
X73787000Y-62468000D01*
X72263000Y-62468000D01*
X72263000Y-62488000D01*
X72009000Y-62488000D01*
X72009000Y-62468000D01*
X71034750Y-62468000D01*
X70889750Y-62613000D01*
X70045158Y-62613000D01*
X70095975Y-62536946D01*
X70159634Y-62441674D01*
X70188722Y-62295440D01*
X70692000Y-62295440D01*
X70939765Y-62246157D01*
X71015981Y-62195231D01*
X71034750Y-62214000D01*
X72009000Y-62214000D01*
X72009000Y-62194000D01*
X72263000Y-62194000D01*
X72263000Y-62214000D01*
X72263000Y-62214000D01*
G37*
X72263000Y-62214000D02*
X73787000Y-62214000D01*
X73787000Y-62194000D01*
X74041000Y-62194000D01*
X74041000Y-62214000D01*
X74061000Y-62214000D01*
X74061000Y-62468000D01*
X74041000Y-62468000D01*
X74041000Y-62488000D01*
X73787000Y-62488000D01*
X73787000Y-62468000D01*
X72263000Y-62468000D01*
X72263000Y-62488000D01*
X72009000Y-62488000D01*
X72009000Y-62468000D01*
X71034750Y-62468000D01*
X70889750Y-62613000D01*
X70045158Y-62613000D01*
X70095975Y-62536946D01*
X70159634Y-62441674D01*
X70188722Y-62295440D01*
X70692000Y-62295440D01*
X70939765Y-62246157D01*
X71015981Y-62195231D01*
X71034750Y-62214000D01*
X72009000Y-62214000D01*
X72009000Y-62194000D01*
X72263000Y-62194000D01*
X72263000Y-62214000D01*
G36*
X68294560Y-59648000D02*
X68343843Y-59895765D01*
X68457000Y-60065115D01*
X68457000Y-61345000D01*
X68265000Y-61345000D01*
X68265000Y-61325000D01*
X68245000Y-61325000D01*
X68245000Y-61071000D01*
X68265000Y-61071000D01*
X68265000Y-60271750D01*
X68106250Y-60113000D01*
X67865690Y-60113000D01*
X67801440Y-60139613D01*
X67801440Y-58926000D01*
X68294560Y-58926000D01*
X68294560Y-59648000D01*
X68294560Y-59648000D01*
G37*
X68294560Y-59648000D02*
X68343843Y-59895765D01*
X68457000Y-60065115D01*
X68457000Y-61345000D01*
X68265000Y-61345000D01*
X68265000Y-61325000D01*
X68245000Y-61325000D01*
X68245000Y-61071000D01*
X68265000Y-61071000D01*
X68265000Y-60271750D01*
X68106250Y-60113000D01*
X67865690Y-60113000D01*
X67801440Y-60139613D01*
X67801440Y-58926000D01*
X68294560Y-58926000D01*
X68294560Y-59648000D01*
G36*
X64651000Y-54991000D02*
X64631000Y-54991000D01*
X64631000Y-55715250D01*
X64789750Y-55874000D01*
X65030309Y-55874000D01*
X65206560Y-55800994D01*
X65206560Y-57516000D01*
X65253286Y-57750912D01*
X62301440Y-60702758D01*
X62301440Y-58816000D01*
X62252157Y-58568235D01*
X62111809Y-58358191D01*
X61901765Y-58217843D01*
X61654000Y-58168560D01*
X60481362Y-58168560D01*
X60478802Y-58166000D01*
X60481362Y-58163440D01*
X61654000Y-58163440D01*
X61901765Y-58114157D01*
X62111809Y-57973809D01*
X62252157Y-57763765D01*
X62301440Y-57516000D01*
X62301440Y-56343362D01*
X62758362Y-55886440D01*
X63404000Y-55886440D01*
X63651765Y-55837157D01*
X63743102Y-55776127D01*
X63744302Y-55777327D01*
X63977691Y-55874000D01*
X64218250Y-55874000D01*
X64377000Y-55715250D01*
X64377000Y-54991000D01*
X64357000Y-54991000D01*
X64357000Y-54862000D01*
X64651000Y-54862000D01*
X64651000Y-54991000D01*
X64651000Y-54991000D01*
G37*
X64651000Y-54991000D02*
X64631000Y-54991000D01*
X64631000Y-55715250D01*
X64789750Y-55874000D01*
X65030309Y-55874000D01*
X65206560Y-55800994D01*
X65206560Y-57516000D01*
X65253286Y-57750912D01*
X62301440Y-60702758D01*
X62301440Y-58816000D01*
X62252157Y-58568235D01*
X62111809Y-58358191D01*
X61901765Y-58217843D01*
X61654000Y-58168560D01*
X60481362Y-58168560D01*
X60478802Y-58166000D01*
X60481362Y-58163440D01*
X61654000Y-58163440D01*
X61901765Y-58114157D01*
X62111809Y-57973809D01*
X62252157Y-57763765D01*
X62301440Y-57516000D01*
X62301440Y-56343362D01*
X62758362Y-55886440D01*
X63404000Y-55886440D01*
X63651765Y-55837157D01*
X63743102Y-55776127D01*
X63744302Y-55777327D01*
X63977691Y-55874000D01*
X64218250Y-55874000D01*
X64377000Y-55715250D01*
X64377000Y-54991000D01*
X64357000Y-54991000D01*
X64357000Y-54862000D01*
X64651000Y-54862000D01*
X64651000Y-54991000D01*
G36*
X58467000Y-59425000D02*
X58447000Y-59425000D01*
X58447000Y-60026250D01*
X58605750Y-60185000D01*
X59246310Y-60185000D01*
X59479699Y-60088327D01*
X59658327Y-59909698D01*
X59706560Y-59793253D01*
X59706560Y-60621105D01*
X59553000Y-60590560D01*
X58303000Y-60590560D01*
X58055235Y-60639843D01*
X57975500Y-60693121D01*
X57895765Y-60639843D01*
X57648000Y-60590560D01*
X57220362Y-60590560D01*
X56967440Y-60337638D01*
X56967440Y-59875337D01*
X56981673Y-59909698D01*
X57160301Y-60088327D01*
X57393690Y-60185000D01*
X58034250Y-60185000D01*
X58193000Y-60026250D01*
X58193000Y-59425000D01*
X58173000Y-59425000D01*
X58173000Y-59397440D01*
X58467000Y-59397440D01*
X58467000Y-59425000D01*
X58467000Y-59425000D01*
G37*
X58467000Y-59425000D02*
X58447000Y-59425000D01*
X58447000Y-60026250D01*
X58605750Y-60185000D01*
X59246310Y-60185000D01*
X59479699Y-60088327D01*
X59658327Y-59909698D01*
X59706560Y-59793253D01*
X59706560Y-60621105D01*
X59553000Y-60590560D01*
X58303000Y-60590560D01*
X58055235Y-60639843D01*
X57975500Y-60693121D01*
X57895765Y-60639843D01*
X57648000Y-60590560D01*
X57220362Y-60590560D01*
X56967440Y-60337638D01*
X56967440Y-59875337D01*
X56981673Y-59909698D01*
X57160301Y-60088327D01*
X57393690Y-60185000D01*
X58034250Y-60185000D01*
X58193000Y-60026250D01*
X58193000Y-59425000D01*
X58173000Y-59425000D01*
X58173000Y-59397440D01*
X58467000Y-59397440D01*
X58467000Y-59425000D01*
G36*
X68489000Y-56299000D02*
X68509000Y-56299000D01*
X68509000Y-56553000D01*
X68489000Y-56553000D01*
X68489000Y-56573000D01*
X68235000Y-56573000D01*
X68235000Y-56553000D01*
X68215000Y-56553000D01*
X68215000Y-56299000D01*
X68235000Y-56299000D01*
X68235000Y-56279000D01*
X68489000Y-56279000D01*
X68489000Y-56299000D01*
X68489000Y-56299000D01*
G37*
X68489000Y-56299000D02*
X68509000Y-56299000D01*
X68509000Y-56553000D01*
X68489000Y-56553000D01*
X68489000Y-56573000D01*
X68235000Y-56573000D01*
X68235000Y-56553000D01*
X68215000Y-56553000D01*
X68215000Y-56299000D01*
X68235000Y-56299000D01*
X68235000Y-56279000D01*
X68489000Y-56279000D01*
X68489000Y-56299000D01*
G36*
X69568002Y-56298998D02*
X69488252Y-56298998D01*
X69647000Y-56140250D01*
X69647000Y-55524691D01*
X69635530Y-55497000D01*
X70370000Y-55497000D01*
X69568002Y-56298998D01*
X69568002Y-56298998D01*
G37*
X69568002Y-56298998D02*
X69488252Y-56298998D01*
X69647000Y-56140250D01*
X69647000Y-55524691D01*
X69635530Y-55497000D01*
X70370000Y-55497000D01*
X69568002Y-56298998D01*
G36*
X79164301Y-48294373D02*
X79163699Y-48984599D01*
X79427281Y-49622515D01*
X79914918Y-50111004D01*
X80552373Y-50375699D01*
X81242599Y-50376301D01*
X81880515Y-50112719D01*
X82369004Y-49625082D01*
X82633699Y-48987627D01*
X82634301Y-48297401D01*
X82439935Y-47827000D01*
X82856000Y-47827000D01*
X82856000Y-50938477D01*
X82729309Y-50886000D01*
X82538750Y-50886000D01*
X82380000Y-51044750D01*
X82380000Y-52044000D01*
X82400000Y-52044000D01*
X82400000Y-52298000D01*
X82380000Y-52298000D01*
X82380000Y-53297250D01*
X82538750Y-53456000D01*
X82729309Y-53456000D01*
X82856000Y-53403523D01*
X82856000Y-54026341D01*
X82850765Y-54022843D01*
X82603000Y-53973560D01*
X81903000Y-53973560D01*
X81703000Y-54013342D01*
X81503000Y-53973560D01*
X80803000Y-53973560D01*
X80755515Y-53983005D01*
X80755148Y-53981161D01*
X80680350Y-53869217D01*
X80609686Y-53754602D01*
X80245344Y-53362594D01*
X80338750Y-53456000D01*
X80529309Y-53456000D01*
X80603000Y-53425476D01*
X80676691Y-53456000D01*
X80867250Y-53456000D01*
X81026000Y-53297250D01*
X81026000Y-52976281D01*
X81038000Y-52947310D01*
X81038000Y-52456750D01*
X81268000Y-52456750D01*
X81268000Y-52947310D01*
X81280000Y-52976281D01*
X81280000Y-53297250D01*
X81438750Y-53456000D01*
X81629309Y-53456000D01*
X81703000Y-53425476D01*
X81776691Y-53456000D01*
X81967250Y-53456000D01*
X82126000Y-53297250D01*
X82126000Y-52976281D01*
X82138000Y-52947310D01*
X82138000Y-52456750D01*
X82126000Y-52444750D01*
X82126000Y-52298000D01*
X81280000Y-52298000D01*
X81280000Y-52444750D01*
X81268000Y-52456750D01*
X81038000Y-52456750D01*
X81026000Y-52444750D01*
X81026000Y-52298000D01*
X80180000Y-52298000D01*
X80180000Y-52318000D01*
X79926000Y-52318000D01*
X79926000Y-52298000D01*
X79906000Y-52298000D01*
X79906000Y-52044000D01*
X79926000Y-52044000D01*
X79926000Y-51394690D01*
X80168000Y-51394690D01*
X80168000Y-51885250D01*
X80180000Y-51897250D01*
X80180000Y-52044000D01*
X81026000Y-52044000D01*
X81026000Y-51897250D01*
X81038000Y-51885250D01*
X81038000Y-51394690D01*
X81268000Y-51394690D01*
X81268000Y-51885250D01*
X81280000Y-51897250D01*
X81280000Y-52044000D01*
X82126000Y-52044000D01*
X82126000Y-51897250D01*
X82138000Y-51885250D01*
X82138000Y-51394690D01*
X82126000Y-51365719D01*
X82126000Y-51044750D01*
X81967250Y-50886000D01*
X81776691Y-50886000D01*
X81703000Y-50916524D01*
X81629309Y-50886000D01*
X81438750Y-50886000D01*
X81280000Y-51044750D01*
X81280000Y-51365719D01*
X81268000Y-51394690D01*
X81038000Y-51394690D01*
X81026000Y-51365719D01*
X81026000Y-51044750D01*
X80867250Y-50886000D01*
X80676691Y-50886000D01*
X80603000Y-50916524D01*
X80529309Y-50886000D01*
X80338750Y-50886000D01*
X80180000Y-51044750D01*
X80180000Y-51365719D01*
X80168000Y-51394690D01*
X79926000Y-51394690D01*
X79926000Y-51044750D01*
X79767250Y-50886000D01*
X79576691Y-50886000D01*
X79343302Y-50982673D01*
X79164673Y-51161301D01*
X79068000Y-51394690D01*
X79068000Y-51885250D01*
X79226748Y-52043998D01*
X79068000Y-52043998D01*
X79068000Y-52095849D01*
X77639440Y-50558813D01*
X77639440Y-50487255D01*
X77658168Y-50495032D01*
X78042148Y-50495367D01*
X78397027Y-50348734D01*
X78668779Y-50077456D01*
X78816032Y-49722832D01*
X78816367Y-49338852D01*
X78669734Y-48983973D01*
X78398456Y-48712221D01*
X78043832Y-48564968D01*
X77960697Y-48564895D01*
X77880401Y-48484599D01*
X77633839Y-48319852D01*
X77343000Y-48262000D01*
X74422000Y-48262000D01*
X74159440Y-48314227D01*
X74159440Y-47827000D01*
X79358372Y-47827000D01*
X79164301Y-48294373D01*
X79164301Y-48294373D01*
G37*
X79164301Y-48294373D02*
X79163699Y-48984599D01*
X79427281Y-49622515D01*
X79914918Y-50111004D01*
X80552373Y-50375699D01*
X81242599Y-50376301D01*
X81880515Y-50112719D01*
X82369004Y-49625082D01*
X82633699Y-48987627D01*
X82634301Y-48297401D01*
X82439935Y-47827000D01*
X82856000Y-47827000D01*
X82856000Y-50938477D01*
X82729309Y-50886000D01*
X82538750Y-50886000D01*
X82380000Y-51044750D01*
X82380000Y-52044000D01*
X82400000Y-52044000D01*
X82400000Y-52298000D01*
X82380000Y-52298000D01*
X82380000Y-53297250D01*
X82538750Y-53456000D01*
X82729309Y-53456000D01*
X82856000Y-53403523D01*
X82856000Y-54026341D01*
X82850765Y-54022843D01*
X82603000Y-53973560D01*
X81903000Y-53973560D01*
X81703000Y-54013342D01*
X81503000Y-53973560D01*
X80803000Y-53973560D01*
X80755515Y-53983005D01*
X80755148Y-53981161D01*
X80680350Y-53869217D01*
X80609686Y-53754602D01*
X80245344Y-53362594D01*
X80338750Y-53456000D01*
X80529309Y-53456000D01*
X80603000Y-53425476D01*
X80676691Y-53456000D01*
X80867250Y-53456000D01*
X81026000Y-53297250D01*
X81026000Y-52976281D01*
X81038000Y-52947310D01*
X81038000Y-52456750D01*
X81268000Y-52456750D01*
X81268000Y-52947310D01*
X81280000Y-52976281D01*
X81280000Y-53297250D01*
X81438750Y-53456000D01*
X81629309Y-53456000D01*
X81703000Y-53425476D01*
X81776691Y-53456000D01*
X81967250Y-53456000D01*
X82126000Y-53297250D01*
X82126000Y-52976281D01*
X82138000Y-52947310D01*
X82138000Y-52456750D01*
X82126000Y-52444750D01*
X82126000Y-52298000D01*
X81280000Y-52298000D01*
X81280000Y-52444750D01*
X81268000Y-52456750D01*
X81038000Y-52456750D01*
X81026000Y-52444750D01*
X81026000Y-52298000D01*
X80180000Y-52298000D01*
X80180000Y-52318000D01*
X79926000Y-52318000D01*
X79926000Y-52298000D01*
X79906000Y-52298000D01*
X79906000Y-52044000D01*
X79926000Y-52044000D01*
X79926000Y-51394690D01*
X80168000Y-51394690D01*
X80168000Y-51885250D01*
X80180000Y-51897250D01*
X80180000Y-52044000D01*
X81026000Y-52044000D01*
X81026000Y-51897250D01*
X81038000Y-51885250D01*
X81038000Y-51394690D01*
X81268000Y-51394690D01*
X81268000Y-51885250D01*
X81280000Y-51897250D01*
X81280000Y-52044000D01*
X82126000Y-52044000D01*
X82126000Y-51897250D01*
X82138000Y-51885250D01*
X82138000Y-51394690D01*
X82126000Y-51365719D01*
X82126000Y-51044750D01*
X81967250Y-50886000D01*
X81776691Y-50886000D01*
X81703000Y-50916524D01*
X81629309Y-50886000D01*
X81438750Y-50886000D01*
X81280000Y-51044750D01*
X81280000Y-51365719D01*
X81268000Y-51394690D01*
X81038000Y-51394690D01*
X81026000Y-51365719D01*
X81026000Y-51044750D01*
X80867250Y-50886000D01*
X80676691Y-50886000D01*
X80603000Y-50916524D01*
X80529309Y-50886000D01*
X80338750Y-50886000D01*
X80180000Y-51044750D01*
X80180000Y-51365719D01*
X80168000Y-51394690D01*
X79926000Y-51394690D01*
X79926000Y-51044750D01*
X79767250Y-50886000D01*
X79576691Y-50886000D01*
X79343302Y-50982673D01*
X79164673Y-51161301D01*
X79068000Y-51394690D01*
X79068000Y-51885250D01*
X79226748Y-52043998D01*
X79068000Y-52043998D01*
X79068000Y-52095849D01*
X77639440Y-50558813D01*
X77639440Y-50487255D01*
X77658168Y-50495032D01*
X78042148Y-50495367D01*
X78397027Y-50348734D01*
X78668779Y-50077456D01*
X78816032Y-49722832D01*
X78816367Y-49338852D01*
X78669734Y-48983973D01*
X78398456Y-48712221D01*
X78043832Y-48564968D01*
X77960697Y-48564895D01*
X77880401Y-48484599D01*
X77633839Y-48319852D01*
X77343000Y-48262000D01*
X74422000Y-48262000D01*
X74159440Y-48314227D01*
X74159440Y-47827000D01*
X79358372Y-47827000D01*
X79164301Y-48294373D01*
G36*
X66645599Y-50575401D02*
X66892160Y-50740148D01*
X67183000Y-50798000D01*
X73406000Y-50798000D01*
X73464924Y-50786279D01*
X72295641Y-51818000D01*
X62540802Y-51818000D01*
X63509401Y-50849401D01*
X63674148Y-50602840D01*
X63675988Y-50593588D01*
X63693887Y-50726950D01*
X64094939Y-50857272D01*
X64515334Y-50824199D01*
X64750113Y-50726950D01*
X64777948Y-50519553D01*
X64222000Y-49963605D01*
X64207858Y-49977748D01*
X64031985Y-49801875D01*
X64031992Y-49794403D01*
X64042395Y-49784000D01*
X64032010Y-49773615D01*
X64032017Y-49766093D01*
X64207858Y-49590253D01*
X64222000Y-49604395D01*
X64236143Y-49590253D01*
X64415748Y-49769858D01*
X64401605Y-49784000D01*
X64957553Y-50339948D01*
X65164950Y-50312113D01*
X65295272Y-49911061D01*
X65262199Y-49490666D01*
X65225058Y-49401000D01*
X65471198Y-49401000D01*
X66645599Y-50575401D01*
X66645599Y-50575401D01*
G37*
X66645599Y-50575401D02*
X66892160Y-50740148D01*
X67183000Y-50798000D01*
X73406000Y-50798000D01*
X73464924Y-50786279D01*
X72295641Y-51818000D01*
X62540802Y-51818000D01*
X63509401Y-50849401D01*
X63674148Y-50602840D01*
X63675988Y-50593588D01*
X63693887Y-50726950D01*
X64094939Y-50857272D01*
X64515334Y-50824199D01*
X64750113Y-50726950D01*
X64777948Y-50519553D01*
X64222000Y-49963605D01*
X64207858Y-49977748D01*
X64031985Y-49801875D01*
X64031992Y-49794403D01*
X64042395Y-49784000D01*
X64032010Y-49773615D01*
X64032017Y-49766093D01*
X64207858Y-49590253D01*
X64222000Y-49604395D01*
X64236143Y-49590253D01*
X64415748Y-49769858D01*
X64401605Y-49784000D01*
X64957553Y-50339948D01*
X65164950Y-50312113D01*
X65295272Y-49911061D01*
X65262199Y-49490666D01*
X65225058Y-49401000D01*
X65471198Y-49401000D01*
X66645599Y-50575401D01*
G36*
X60649560Y-49781638D02*
X59755000Y-50676198D01*
X59755000Y-50672998D01*
X59598252Y-50672998D01*
X59755000Y-50516250D01*
X59755000Y-50423691D01*
X59658327Y-50190302D01*
X59479699Y-50011673D01*
X59246310Y-49915000D01*
X58605750Y-49915000D01*
X58447000Y-50073750D01*
X58447000Y-50602560D01*
X58193000Y-50602560D01*
X58193000Y-50073750D01*
X58034250Y-49915000D01*
X57712802Y-49915000D01*
X58226802Y-49401000D01*
X60649560Y-49401000D01*
X60649560Y-49781638D01*
X60649560Y-49781638D01*
G37*
X60649560Y-49781638D02*
X59755000Y-50676198D01*
X59755000Y-50672998D01*
X59598252Y-50672998D01*
X59755000Y-50516250D01*
X59755000Y-50423691D01*
X59658327Y-50190302D01*
X59479699Y-50011673D01*
X59246310Y-49915000D01*
X58605750Y-49915000D01*
X58447000Y-50073750D01*
X58447000Y-50602560D01*
X58193000Y-50602560D01*
X58193000Y-50073750D01*
X58034250Y-49915000D01*
X57712802Y-49915000D01*
X58226802Y-49401000D01*
X60649560Y-49401000D01*
X60649560Y-49781638D01*
G36*
X47188221Y-48093544D02*
X47040968Y-48448168D01*
X47040635Y-48830115D01*
X46897000Y-48973750D01*
X46897000Y-49089755D01*
X46821843Y-49202235D01*
X46772560Y-49450000D01*
X46772560Y-50397000D01*
X46643000Y-50397000D01*
X46643000Y-50377000D01*
X46623000Y-50377000D01*
X46623000Y-50123000D01*
X46643000Y-50123000D01*
X46643000Y-48973750D01*
X46484250Y-48815000D01*
X46193690Y-48815000D01*
X46101000Y-48853393D01*
X46101000Y-47827000D01*
X47455231Y-47827000D01*
X47188221Y-48093544D01*
X47188221Y-48093544D01*
G37*
X47188221Y-48093544D02*
X47040968Y-48448168D01*
X47040635Y-48830115D01*
X46897000Y-48973750D01*
X46897000Y-49089755D01*
X46821843Y-49202235D01*
X46772560Y-49450000D01*
X46772560Y-50397000D01*
X46643000Y-50397000D01*
X46643000Y-50377000D01*
X46623000Y-50377000D01*
X46623000Y-50123000D01*
X46643000Y-50123000D01*
X46643000Y-48973750D01*
X46484250Y-48815000D01*
X46193690Y-48815000D01*
X46101000Y-48853393D01*
X46101000Y-47827000D01*
X47455231Y-47827000D01*
X47188221Y-48093544D01*
%TD*%
M02*
