M48
;DRILL file {KiCad no-vcs-found-8182369~60~ubuntu16.04.1} date Wed Sep 13 17:01:00 2017
;FORMAT={-:-/ absolute / inch / decimal}
FMAT,2
INCH,TZ
T1C0.010
T2C0.020
T3C0.039
%
G90
G05
M72
T1
X1.84Y-1.915
X1.845Y-2.415
X1.89Y-1.915
X1.935Y-1.915
X1.965Y-2.15
X2.065Y-1.9
X2.1Y-2.535
X2.16Y-2.15
X2.16Y-2.245
X2.165Y-2.29
X2.18Y-1.91
X2.32Y-2.38
X2.335Y-1.965
X2.54Y-2.225
X2.68Y-2.32
X2.75Y-2.195
X2.78Y-2.46
X3.065Y-1.95
X3.075Y-2.275
X3.125Y-2.485
X3.185Y-2.115
T2
X2.43Y-1.96
X2.4792Y-1.96
X2.5284Y-1.96
T3
X2.495Y-2.47
X2.595Y-2.47
T0
M30
