G04 #@! TF.GenerationSoftware,KiCad,Pcbnew,5.1.5-52549c5~84~ubuntu18.04.1*
G04 #@! TF.CreationDate,2020-02-14T16:30:54+05:30*
G04 #@! TF.ProjectId,SenseEle_GPS_adapter,53656e73-6545-46c6-955f-4750535f6164,rev?*
G04 #@! TF.SameCoordinates,Original*
G04 #@! TF.FileFunction,Soldermask,Top*
G04 #@! TF.FilePolarity,Negative*
%FSLAX46Y46*%
G04 Gerber Fmt 4.6, Leading zero omitted, Abs format (unit mm)*
G04 Created by KiCad (PCBNEW 5.1.5-52549c5~84~ubuntu18.04.1) date 2020-02-14 16:30:54*
%MOMM*%
%LPD*%
G04 APERTURE LIST*
%ADD10C,0.100000*%
G04 APERTURE END LIST*
D10*
G36*
X141801000Y-115701000D02*
G01*
X140899000Y-115701000D01*
X140899000Y-113699000D01*
X141801000Y-113699000D01*
X141801000Y-115701000D01*
G37*
G36*
X155053512Y-113403927D02*
G01*
X155202812Y-113433624D01*
X155366784Y-113501544D01*
X155514354Y-113600147D01*
X155639853Y-113725646D01*
X155738456Y-113873216D01*
X155806376Y-114037188D01*
X155841000Y-114211259D01*
X155841000Y-114388741D01*
X155806376Y-114562812D01*
X155738456Y-114726784D01*
X155639853Y-114874354D01*
X155514354Y-114999853D01*
X155366784Y-115098456D01*
X155202812Y-115166376D01*
X155053512Y-115196073D01*
X155028742Y-115201000D01*
X154851258Y-115201000D01*
X154826488Y-115196073D01*
X154677188Y-115166376D01*
X154513216Y-115098456D01*
X154365646Y-114999853D01*
X154240147Y-114874354D01*
X154141544Y-114726784D01*
X154073624Y-114562812D01*
X154039000Y-114388741D01*
X154039000Y-114211259D01*
X154073624Y-114037188D01*
X154141544Y-113873216D01*
X154240147Y-113725646D01*
X154365646Y-113600147D01*
X154513216Y-113501544D01*
X154677188Y-113433624D01*
X154826488Y-113403927D01*
X154851258Y-113399000D01*
X155028742Y-113399000D01*
X155053512Y-113403927D01*
G37*
G36*
X152513512Y-113403927D02*
G01*
X152662812Y-113433624D01*
X152826784Y-113501544D01*
X152974354Y-113600147D01*
X153099853Y-113725646D01*
X153198456Y-113873216D01*
X153266376Y-114037188D01*
X153301000Y-114211259D01*
X153301000Y-114388741D01*
X153266376Y-114562812D01*
X153198456Y-114726784D01*
X153099853Y-114874354D01*
X152974354Y-114999853D01*
X152826784Y-115098456D01*
X152662812Y-115166376D01*
X152513512Y-115196073D01*
X152488742Y-115201000D01*
X152311258Y-115201000D01*
X152286488Y-115196073D01*
X152137188Y-115166376D01*
X151973216Y-115098456D01*
X151825646Y-114999853D01*
X151700147Y-114874354D01*
X151601544Y-114726784D01*
X151533624Y-114562812D01*
X151499000Y-114388741D01*
X151499000Y-114211259D01*
X151533624Y-114037188D01*
X151601544Y-113873216D01*
X151700147Y-113725646D01*
X151825646Y-113600147D01*
X151973216Y-113501544D01*
X152137188Y-113433624D01*
X152286488Y-113403927D01*
X152311258Y-113399000D01*
X152488742Y-113399000D01*
X152513512Y-113403927D01*
G37*
G36*
X149973512Y-113403927D02*
G01*
X150122812Y-113433624D01*
X150286784Y-113501544D01*
X150434354Y-113600147D01*
X150559853Y-113725646D01*
X150658456Y-113873216D01*
X150726376Y-114037188D01*
X150761000Y-114211259D01*
X150761000Y-114388741D01*
X150726376Y-114562812D01*
X150658456Y-114726784D01*
X150559853Y-114874354D01*
X150434354Y-114999853D01*
X150286784Y-115098456D01*
X150122812Y-115166376D01*
X149973512Y-115196073D01*
X149948742Y-115201000D01*
X149771258Y-115201000D01*
X149746488Y-115196073D01*
X149597188Y-115166376D01*
X149433216Y-115098456D01*
X149285646Y-114999853D01*
X149160147Y-114874354D01*
X149061544Y-114726784D01*
X148993624Y-114562812D01*
X148959000Y-114388741D01*
X148959000Y-114211259D01*
X148993624Y-114037188D01*
X149061544Y-113873216D01*
X149160147Y-113725646D01*
X149285646Y-113600147D01*
X149433216Y-113501544D01*
X149597188Y-113433624D01*
X149746488Y-113403927D01*
X149771258Y-113399000D01*
X149948742Y-113399000D01*
X149973512Y-113403927D01*
G37*
G36*
X148221000Y-115201000D02*
G01*
X146419000Y-115201000D01*
X146419000Y-113399000D01*
X148221000Y-113399000D01*
X148221000Y-115201000D01*
G37*
G36*
X144726000Y-114451000D02*
G01*
X143874000Y-114451000D01*
X143874000Y-113149000D01*
X144726000Y-113149000D01*
X144726000Y-114451000D01*
G37*
G36*
X142751000Y-112701000D02*
G01*
X141849000Y-112701000D01*
X141849000Y-110699000D01*
X142751000Y-110699000D01*
X142751000Y-112701000D01*
G37*
G36*
X140851000Y-112701000D02*
G01*
X139949000Y-112701000D01*
X139949000Y-110699000D01*
X140851000Y-110699000D01*
X140851000Y-112701000D01*
G37*
G36*
X144726000Y-112551000D02*
G01*
X143874000Y-112551000D01*
X143874000Y-111249000D01*
X144726000Y-111249000D01*
X144726000Y-112551000D01*
G37*
G36*
X161403512Y-90543927D02*
G01*
X161552812Y-90573624D01*
X161716784Y-90641544D01*
X161864354Y-90740147D01*
X161989853Y-90865646D01*
X162088456Y-91013216D01*
X162156376Y-91177188D01*
X162191000Y-91351259D01*
X162191000Y-91528741D01*
X162156376Y-91702812D01*
X162088456Y-91866784D01*
X161989853Y-92014354D01*
X161864354Y-92139853D01*
X161716784Y-92238456D01*
X161552812Y-92306376D01*
X161403512Y-92336073D01*
X161378742Y-92341000D01*
X161201258Y-92341000D01*
X161176488Y-92336073D01*
X161027188Y-92306376D01*
X160863216Y-92238456D01*
X160715646Y-92139853D01*
X160590147Y-92014354D01*
X160491544Y-91866784D01*
X160423624Y-91702812D01*
X160389000Y-91528741D01*
X160389000Y-91351259D01*
X160423624Y-91177188D01*
X160491544Y-91013216D01*
X160590147Y-90865646D01*
X160715646Y-90740147D01*
X160863216Y-90641544D01*
X161027188Y-90573624D01*
X161176488Y-90543927D01*
X161201258Y-90539000D01*
X161378742Y-90539000D01*
X161403512Y-90543927D01*
G37*
G36*
X161403512Y-88003927D02*
G01*
X161552812Y-88033624D01*
X161716784Y-88101544D01*
X161864354Y-88200147D01*
X161989853Y-88325646D01*
X162088456Y-88473216D01*
X162156376Y-88637188D01*
X162191000Y-88811259D01*
X162191000Y-88988741D01*
X162156376Y-89162812D01*
X162088456Y-89326784D01*
X161989853Y-89474354D01*
X161864354Y-89599853D01*
X161716784Y-89698456D01*
X161552812Y-89766376D01*
X161403512Y-89796073D01*
X161378742Y-89801000D01*
X161201258Y-89801000D01*
X161176488Y-89796073D01*
X161027188Y-89766376D01*
X160863216Y-89698456D01*
X160715646Y-89599853D01*
X160590147Y-89474354D01*
X160491544Y-89326784D01*
X160423624Y-89162812D01*
X160389000Y-88988741D01*
X160389000Y-88811259D01*
X160423624Y-88637188D01*
X160491544Y-88473216D01*
X160590147Y-88325646D01*
X160715646Y-88200147D01*
X160863216Y-88101544D01*
X161027188Y-88033624D01*
X161176488Y-88003927D01*
X161201258Y-87999000D01*
X161378742Y-87999000D01*
X161403512Y-88003927D01*
G37*
G36*
X161403512Y-85463927D02*
G01*
X161552812Y-85493624D01*
X161716784Y-85561544D01*
X161864354Y-85660147D01*
X161989853Y-85785646D01*
X162088456Y-85933216D01*
X162156376Y-86097188D01*
X162191000Y-86271259D01*
X162191000Y-86448741D01*
X162156376Y-86622812D01*
X162088456Y-86786784D01*
X161989853Y-86934354D01*
X161864354Y-87059853D01*
X161716784Y-87158456D01*
X161552812Y-87226376D01*
X161403512Y-87256073D01*
X161378742Y-87261000D01*
X161201258Y-87261000D01*
X161176488Y-87256073D01*
X161027188Y-87226376D01*
X160863216Y-87158456D01*
X160715646Y-87059853D01*
X160590147Y-86934354D01*
X160491544Y-86786784D01*
X160423624Y-86622812D01*
X160389000Y-86448741D01*
X160389000Y-86271259D01*
X160423624Y-86097188D01*
X160491544Y-85933216D01*
X160590147Y-85785646D01*
X160715646Y-85660147D01*
X160863216Y-85561544D01*
X161027188Y-85493624D01*
X161176488Y-85463927D01*
X161201258Y-85459000D01*
X161378742Y-85459000D01*
X161403512Y-85463927D01*
G37*
G36*
X162191000Y-84721000D02*
G01*
X160389000Y-84721000D01*
X160389000Y-82919000D01*
X162191000Y-82919000D01*
X162191000Y-84721000D01*
G37*
G36*
X141083512Y-82923927D02*
G01*
X141232812Y-82953624D01*
X141396784Y-83021544D01*
X141544354Y-83120147D01*
X141669853Y-83245646D01*
X141768456Y-83393216D01*
X141836376Y-83557188D01*
X141871000Y-83731259D01*
X141871000Y-83908741D01*
X141836376Y-84082812D01*
X141768456Y-84246784D01*
X141669853Y-84394354D01*
X141544354Y-84519853D01*
X141396784Y-84618456D01*
X141232812Y-84686376D01*
X141083512Y-84716073D01*
X141058742Y-84721000D01*
X140881258Y-84721000D01*
X140856488Y-84716073D01*
X140707188Y-84686376D01*
X140543216Y-84618456D01*
X140395646Y-84519853D01*
X140270147Y-84394354D01*
X140171544Y-84246784D01*
X140103624Y-84082812D01*
X140069000Y-83908741D01*
X140069000Y-83731259D01*
X140103624Y-83557188D01*
X140171544Y-83393216D01*
X140270147Y-83245646D01*
X140395646Y-83120147D01*
X140543216Y-83021544D01*
X140707188Y-82953624D01*
X140856488Y-82923927D01*
X140881258Y-82919000D01*
X141058742Y-82919000D01*
X141083512Y-82923927D01*
G37*
G36*
X141871000Y-82181000D02*
G01*
X140069000Y-82181000D01*
X140069000Y-80379000D01*
X141871000Y-80379000D01*
X141871000Y-82181000D01*
G37*
M02*
