G04 #@! TF.GenerationSoftware,KiCad,Pcbnew,(5.1.0)-1*
G04 #@! TF.CreationDate,2019-04-11T16:46:24+05:30*
G04 #@! TF.ProjectId,senseBe_rev3_main,73656e73-6542-4655-9f72-6576335f6d61,rev?*
G04 #@! TF.SameCoordinates,Original*
G04 #@! TF.FileFunction,Paste,Top*
G04 #@! TF.FilePolarity,Positive*
%FSLAX46Y46*%
G04 Gerber Fmt 4.6, Leading zero omitted, Abs format (unit mm)*
G04 Created by KiCad (PCBNEW (5.1.0)-1) date 2019-04-11 16:46:24*
%MOMM*%
%LPD*%
G04 APERTURE LIST*
%ADD10R,1.200000X0.900000*%
%ADD11R,2.100000X0.600000*%
%ADD12R,0.900000X0.800000*%
%ADD13R,0.800000X0.900000*%
%ADD14R,0.750000X1.200000*%
%ADD15R,1.200000X0.750000*%
%ADD16R,1.250000X1.500000*%
%ADD17R,0.700000X0.500000*%
%ADD18R,1.300000X0.700000*%
%ADD19R,0.900000X1.200000*%
%ADD20R,1.600000X0.500000*%
%ADD21R,0.500000X1.600000*%
%ADD22R,0.900000X1.600000*%
%ADD23R,0.500000X1.200000*%
%ADD24C,0.100000*%
%ADD25C,2.150000*%
%ADD26R,1.800000X1.000000*%
%ADD27R,0.350000X0.500000*%
G04 APERTURE END LIST*
D10*
X30400000Y-48500000D03*
X32600000Y-48500000D03*
D11*
X32600000Y-39300000D03*
X25400000Y-39300000D03*
X25400000Y-40200000D03*
X32600000Y-40200000D03*
D12*
X21000000Y-41500000D03*
X19000000Y-42450000D03*
X19000000Y-40550000D03*
X19000000Y-44050000D03*
X19000000Y-45950000D03*
X21000000Y-45000000D03*
X42500000Y-28450000D03*
X42500000Y-26550000D03*
X40500000Y-27500000D03*
X23500000Y-18500000D03*
X21500000Y-19450000D03*
X21500000Y-17550000D03*
D13*
X16250000Y-32300000D03*
X18150000Y-32300000D03*
X17200000Y-30300000D03*
X13400000Y-30300000D03*
X14350000Y-32300000D03*
X12450000Y-32300000D03*
D14*
X45000000Y-34950000D03*
X45000000Y-33050000D03*
D15*
X34450000Y-41500000D03*
X32550000Y-41500000D03*
X33800000Y-38000000D03*
X35700000Y-38000000D03*
D14*
X37000000Y-34950000D03*
X37000000Y-33050000D03*
X38600000Y-33050000D03*
X38600000Y-34950000D03*
D15*
X40500000Y-22750000D03*
X42400000Y-22750000D03*
D14*
X22000000Y-14950000D03*
X22000000Y-13050000D03*
D16*
X19500000Y-19750000D03*
X19500000Y-22250000D03*
X20000000Y-15250000D03*
X20000000Y-12750000D03*
D17*
X29300000Y-42600000D03*
X30700000Y-42600000D03*
X30700000Y-43400000D03*
X29300000Y-43400000D03*
D18*
X43000000Y-34950000D03*
X43000000Y-33050000D03*
X40600000Y-34950000D03*
X40600000Y-33050000D03*
D19*
X40000000Y-14700000D03*
X40000000Y-16900000D03*
D10*
X13900000Y-41500000D03*
X16100000Y-41500000D03*
X26600000Y-44500000D03*
X24400000Y-44500000D03*
X24400000Y-42600000D03*
X26600000Y-42600000D03*
X16100000Y-45000000D03*
X13900000Y-45000000D03*
X42600000Y-24750000D03*
X40400000Y-24750000D03*
D19*
X44250000Y-28600000D03*
X44250000Y-26400000D03*
X24000000Y-12900000D03*
X24000000Y-15100000D03*
X12200000Y-19900000D03*
X12200000Y-22100000D03*
D10*
X18400000Y-33800000D03*
X16200000Y-33800000D03*
D19*
X18000000Y-15100000D03*
X18000000Y-12900000D03*
X16000000Y-15100000D03*
X16000000Y-12900000D03*
X14000000Y-12900000D03*
X14000000Y-15100000D03*
D10*
X14400000Y-33800000D03*
X12200000Y-33800000D03*
D19*
X12000000Y-15100000D03*
X12000000Y-12900000D03*
D20*
X37750000Y-39700000D03*
D21*
X46300000Y-39250000D03*
D22*
X49300000Y-39250000D03*
D21*
X45600000Y-39250000D03*
X44900000Y-39250000D03*
X44200000Y-39250000D03*
X43500000Y-39250000D03*
X42800000Y-39250000D03*
X42100000Y-39250000D03*
X41400000Y-39250000D03*
X40700000Y-39250000D03*
X40000000Y-39250000D03*
D20*
X37750000Y-40500000D03*
X37750000Y-41200000D03*
X37750000Y-41900000D03*
X37750000Y-42600000D03*
X37750000Y-43300000D03*
X37750000Y-44000000D03*
X37750000Y-44700000D03*
X37750000Y-45400000D03*
X37750000Y-46100000D03*
X37750000Y-46800000D03*
X37750000Y-47500000D03*
X37750000Y-48200000D03*
D21*
X39300000Y-48750000D03*
X40000000Y-48750000D03*
X40700000Y-48750000D03*
X41400000Y-48750000D03*
X42100000Y-48750000D03*
X42800000Y-48750000D03*
X43500000Y-48750000D03*
X44200000Y-48750000D03*
X44900000Y-48750000D03*
X45600000Y-48750000D03*
X46300000Y-48750000D03*
X47000000Y-48750000D03*
X47700000Y-48750000D03*
X48400000Y-48750000D03*
D22*
X49300000Y-48750000D03*
D23*
X48750000Y-46900000D03*
X47350000Y-46900000D03*
D24*
G36*
X13673243Y-23254814D02*
G01*
X13770292Y-23269210D01*
X13865462Y-23293049D01*
X13957838Y-23326101D01*
X14046529Y-23368049D01*
X14130681Y-23418488D01*
X14209485Y-23476933D01*
X14282180Y-23542820D01*
X14348067Y-23615515D01*
X14406512Y-23694319D01*
X14456951Y-23778471D01*
X14498899Y-23867162D01*
X14531951Y-23959538D01*
X14555790Y-24054708D01*
X14570186Y-24151757D01*
X14575000Y-24249750D01*
X14575000Y-27750250D01*
X14570186Y-27848243D01*
X14555790Y-27945292D01*
X14531951Y-28040462D01*
X14498899Y-28132838D01*
X14456951Y-28221529D01*
X14406512Y-28305681D01*
X14348067Y-28384485D01*
X14282180Y-28457180D01*
X14209485Y-28523067D01*
X14130681Y-28581512D01*
X14046529Y-28631951D01*
X13957838Y-28673899D01*
X13865462Y-28706951D01*
X13770292Y-28730790D01*
X13673243Y-28745186D01*
X13575250Y-28750000D01*
X13424750Y-28750000D01*
X13326757Y-28745186D01*
X13229708Y-28730790D01*
X13134538Y-28706951D01*
X13042162Y-28673899D01*
X12953471Y-28631951D01*
X12869319Y-28581512D01*
X12790515Y-28523067D01*
X12717820Y-28457180D01*
X12651933Y-28384485D01*
X12593488Y-28305681D01*
X12543049Y-28221529D01*
X12501101Y-28132838D01*
X12468049Y-28040462D01*
X12444210Y-27945292D01*
X12429814Y-27848243D01*
X12425000Y-27750250D01*
X12425000Y-24249750D01*
X12429814Y-24151757D01*
X12444210Y-24054708D01*
X12468049Y-23959538D01*
X12501101Y-23867162D01*
X12543049Y-23778471D01*
X12593488Y-23694319D01*
X12651933Y-23615515D01*
X12717820Y-23542820D01*
X12790515Y-23476933D01*
X12869319Y-23418488D01*
X12953471Y-23368049D01*
X13042162Y-23326101D01*
X13134538Y-23293049D01*
X13229708Y-23269210D01*
X13326757Y-23254814D01*
X13424750Y-23250000D01*
X13575250Y-23250000D01*
X13673243Y-23254814D01*
X13673243Y-23254814D01*
G37*
D25*
X13500000Y-26000000D03*
D24*
G36*
X17673243Y-23254814D02*
G01*
X17770292Y-23269210D01*
X17865462Y-23293049D01*
X17957838Y-23326101D01*
X18046529Y-23368049D01*
X18130681Y-23418488D01*
X18209485Y-23476933D01*
X18282180Y-23542820D01*
X18348067Y-23615515D01*
X18406512Y-23694319D01*
X18456951Y-23778471D01*
X18498899Y-23867162D01*
X18531951Y-23959538D01*
X18555790Y-24054708D01*
X18570186Y-24151757D01*
X18575000Y-24249750D01*
X18575000Y-27750250D01*
X18570186Y-27848243D01*
X18555790Y-27945292D01*
X18531951Y-28040462D01*
X18498899Y-28132838D01*
X18456951Y-28221529D01*
X18406512Y-28305681D01*
X18348067Y-28384485D01*
X18282180Y-28457180D01*
X18209485Y-28523067D01*
X18130681Y-28581512D01*
X18046529Y-28631951D01*
X17957838Y-28673899D01*
X17865462Y-28706951D01*
X17770292Y-28730790D01*
X17673243Y-28745186D01*
X17575250Y-28750000D01*
X17424750Y-28750000D01*
X17326757Y-28745186D01*
X17229708Y-28730790D01*
X17134538Y-28706951D01*
X17042162Y-28673899D01*
X16953471Y-28631951D01*
X16869319Y-28581512D01*
X16790515Y-28523067D01*
X16717820Y-28457180D01*
X16651933Y-28384485D01*
X16593488Y-28305681D01*
X16543049Y-28221529D01*
X16501101Y-28132838D01*
X16468049Y-28040462D01*
X16444210Y-27945292D01*
X16429814Y-27848243D01*
X16425000Y-27750250D01*
X16425000Y-24249750D01*
X16429814Y-24151757D01*
X16444210Y-24054708D01*
X16468049Y-23959538D01*
X16501101Y-23867162D01*
X16543049Y-23778471D01*
X16593488Y-23694319D01*
X16651933Y-23615515D01*
X16717820Y-23542820D01*
X16790515Y-23476933D01*
X16869319Y-23418488D01*
X16953471Y-23368049D01*
X17042162Y-23326101D01*
X17134538Y-23293049D01*
X17229708Y-23269210D01*
X17326757Y-23254814D01*
X17424750Y-23250000D01*
X17575250Y-23250000D01*
X17673243Y-23254814D01*
X17673243Y-23254814D01*
G37*
D25*
X17500000Y-26000000D03*
D10*
X32600000Y-50000000D03*
X30400000Y-50000000D03*
D26*
X15500000Y-21000000D03*
D27*
X14750000Y-21900000D03*
X15250000Y-21900000D03*
X15750000Y-21900000D03*
X16250000Y-21900000D03*
X16250000Y-20100000D03*
X15750000Y-20100000D03*
X15250000Y-20100000D03*
X14750000Y-20100000D03*
M02*
