G04 #@! TF.GenerationSoftware,KiCad,Pcbnew,(5.1.0)-1*
G04 #@! TF.CreationDate,2019-04-11T16:46:24+05:30*
G04 #@! TF.ProjectId,senseBe_rev3_main,73656e73-6542-4655-9f72-6576335f6d61,rev?*
G04 #@! TF.SameCoordinates,Original*
G04 #@! TF.FileFunction,Legend,Top*
G04 #@! TF.FilePolarity,Positive*
%FSLAX46Y46*%
G04 Gerber Fmt 4.6, Leading zero omitted, Abs format (unit mm)*
G04 Created by KiCad (PCBNEW (5.1.0)-1) date 2019-04-11 16:46:24*
%MOMM*%
%LPD*%
G04 APERTURE LIST*
%ADD10C,0.250000*%
%ADD11C,0.300000*%
%ADD12C,0.200000*%
%ADD13C,0.120000*%
%ADD14C,0.150000*%
%ADD15C,0.050000*%
G04 APERTURE END LIST*
D10*
X29409523Y-50452380D02*
X29076190Y-49976190D01*
X28838095Y-50452380D02*
X28838095Y-49452380D01*
X29219047Y-49452380D01*
X29314285Y-49500000D01*
X29361904Y-49547619D01*
X29409523Y-49642857D01*
X29409523Y-49785714D01*
X29361904Y-49880952D01*
X29314285Y-49928571D01*
X29219047Y-49976190D01*
X28838095Y-49976190D01*
X28814285Y-47952380D02*
X29385714Y-47952380D01*
X29100000Y-48952380D02*
X29100000Y-47952380D01*
D11*
X20964285Y-25978571D02*
X21821428Y-25978571D01*
X21392857Y-27478571D02*
X21392857Y-25978571D01*
X22178571Y-27478571D02*
X22964285Y-26478571D01*
X22178571Y-26478571D02*
X22964285Y-27478571D01*
D12*
X25100000Y-21400000D02*
X25100000Y-10400000D01*
X24000000Y-22400000D02*
X25100000Y-21400000D01*
X20700000Y-25700000D02*
X24000000Y-22400000D01*
X20700000Y-35500000D02*
X20700000Y-25700000D01*
X10400000Y-35500000D02*
X20700000Y-35500000D01*
D11*
X45557142Y-23178571D02*
X45057142Y-22464285D01*
X44700000Y-23178571D02*
X44700000Y-21678571D01*
X45271428Y-21678571D01*
X45414285Y-21750000D01*
X45485714Y-21821428D01*
X45557142Y-21964285D01*
X45557142Y-22178571D01*
X45485714Y-22321428D01*
X45414285Y-22392857D01*
X45271428Y-22464285D01*
X44700000Y-22464285D01*
X46057142Y-23178571D02*
X46842857Y-22178571D01*
X46057142Y-22178571D02*
X46842857Y-23178571D01*
D12*
X35700000Y-21800000D02*
X35800000Y-21800000D01*
X35700000Y-25500000D02*
X35700000Y-21800000D01*
X38500000Y-29700000D02*
X35700000Y-25500000D01*
X45700000Y-29700000D02*
X38500000Y-29700000D01*
X46800000Y-27000000D02*
X45700000Y-29700000D01*
X45200000Y-24400000D02*
X46800000Y-27000000D01*
X43400000Y-21800000D02*
X45200000Y-24400000D01*
X35800000Y-21800000D02*
X43400000Y-21800000D01*
D13*
X32000000Y-49180000D02*
X31000000Y-49180000D01*
X31000000Y-47820000D02*
X32000000Y-47820000D01*
D14*
X35350000Y-29700000D02*
X35350000Y-22300000D01*
X35350000Y-22300000D02*
X25350000Y-22300000D01*
X25350000Y-22300000D02*
X25350000Y-28550000D01*
X26550000Y-29700000D02*
X35350000Y-29700000D01*
X26550000Y-29700000D02*
X25350000Y-28550000D01*
D13*
X32960000Y-26000462D02*
G75*
G03X27410000Y-24455170I-2990000J462D01*
G01*
X32960000Y-25999538D02*
G75*
G02X27410000Y-27544830I-2990000J-462D01*
G01*
X32470000Y-26000000D02*
G75*
G03X32470000Y-26000000I-2500000J0D01*
G01*
X27410000Y-24455000D02*
X27410000Y-27545000D01*
X33850000Y-40700000D02*
X33850000Y-38800000D01*
X33850000Y-38800000D02*
X24150000Y-38800000D01*
X42955000Y-18440000D02*
X46045000Y-18440000D01*
X47000000Y-15880000D02*
G75*
G03X47000000Y-15880000I-2500000J0D01*
G01*
X44499538Y-12890000D02*
G75*
G02X46044830Y-18440000I462J-2990000D01*
G01*
X44500462Y-12890000D02*
G75*
G03X42955170Y-18440000I-462J-2990000D01*
G01*
X20760000Y-43080000D02*
X19300000Y-43080000D01*
X20760000Y-39920000D02*
X18600000Y-39920000D01*
X20760000Y-39920000D02*
X20760000Y-40850000D01*
X20760000Y-43080000D02*
X20760000Y-42150000D01*
X20760000Y-46580000D02*
X20760000Y-45650000D01*
X20760000Y-43420000D02*
X20760000Y-44350000D01*
X20760000Y-43420000D02*
X18600000Y-43420000D01*
X20760000Y-46580000D02*
X19300000Y-46580000D01*
X40740000Y-25920000D02*
X40740000Y-26850000D01*
X40740000Y-29080000D02*
X40740000Y-28150000D01*
X40740000Y-29080000D02*
X42900000Y-29080000D01*
X40740000Y-25920000D02*
X42200000Y-25920000D01*
X23260000Y-20080000D02*
X21800000Y-20080000D01*
X23260000Y-16920000D02*
X21100000Y-16920000D01*
X23260000Y-16920000D02*
X23260000Y-17850000D01*
X23260000Y-20080000D02*
X23260000Y-19150000D01*
X18780000Y-30540000D02*
X17850000Y-30540000D01*
X15620000Y-30540000D02*
X16550000Y-30540000D01*
X15620000Y-30540000D02*
X15620000Y-32700000D01*
X18780000Y-30540000D02*
X18780000Y-32000000D01*
X14980000Y-30540000D02*
X14980000Y-32000000D01*
X11820000Y-30540000D02*
X11820000Y-32700000D01*
X11820000Y-30540000D02*
X12750000Y-30540000D01*
X14980000Y-30540000D02*
X14050000Y-30540000D01*
X44400000Y-34350000D02*
X44400000Y-33650000D01*
X45600000Y-33650000D02*
X45600000Y-34350000D01*
X33850000Y-42100000D02*
X33150000Y-42100000D01*
X33150000Y-40900000D02*
X33850000Y-40900000D01*
X34400000Y-37400000D02*
X35100000Y-37400000D01*
X35100000Y-38600000D02*
X34400000Y-38600000D01*
X36400000Y-34350000D02*
X36400000Y-33650000D01*
X37600000Y-33650000D02*
X37600000Y-34350000D01*
X39200000Y-33650000D02*
X39200000Y-34350000D01*
X38000000Y-34350000D02*
X38000000Y-33650000D01*
X41100000Y-22150000D02*
X41800000Y-22150000D01*
X41800000Y-23350000D02*
X41100000Y-23350000D01*
X21400000Y-14350000D02*
X21400000Y-13650000D01*
X22600000Y-13650000D02*
X22600000Y-14350000D01*
X20350000Y-21500000D02*
X20350000Y-20500000D01*
X18650000Y-20500000D02*
X18650000Y-21500000D01*
X19150000Y-13500000D02*
X19150000Y-14500000D01*
X20850000Y-14500000D02*
X20850000Y-13500000D01*
D14*
X28500000Y-43400000D02*
X29300000Y-44200000D01*
X29300000Y-44200000D02*
X31500000Y-44200000D01*
X31500000Y-44200000D02*
X31500000Y-41800000D01*
X31500000Y-41800000D02*
X28500000Y-41800000D01*
X28500000Y-41800000D02*
X28500000Y-43400000D01*
D13*
X43880000Y-33400000D02*
X43880000Y-34600000D01*
X42120000Y-34600000D02*
X42120000Y-33400000D01*
X41480000Y-33400000D02*
X41480000Y-34600000D01*
X39720000Y-34600000D02*
X39720000Y-33400000D01*
X39320000Y-16300000D02*
X39320000Y-15300000D01*
X40680000Y-15300000D02*
X40680000Y-16300000D01*
X15500000Y-42180000D02*
X14500000Y-42180000D01*
X14500000Y-40820000D02*
X15500000Y-40820000D01*
X25000000Y-43820000D02*
X26000000Y-43820000D01*
X26000000Y-45180000D02*
X25000000Y-45180000D01*
X26000000Y-43280000D02*
X25000000Y-43280000D01*
X25000000Y-41920000D02*
X26000000Y-41920000D01*
X14500000Y-44320000D02*
X15500000Y-44320000D01*
X15500000Y-45680000D02*
X14500000Y-45680000D01*
X41000000Y-24070000D02*
X42000000Y-24070000D01*
X42000000Y-25430000D02*
X41000000Y-25430000D01*
X44930000Y-27000000D02*
X44930000Y-28000000D01*
X43570000Y-28000000D02*
X43570000Y-27000000D01*
X23320000Y-14500000D02*
X23320000Y-13500000D01*
X24680000Y-13500000D02*
X24680000Y-14500000D01*
X11520000Y-21500000D02*
X11520000Y-20500000D01*
X12880000Y-20500000D02*
X12880000Y-21500000D01*
X16800000Y-33120000D02*
X17800000Y-33120000D01*
X17800000Y-34480000D02*
X16800000Y-34480000D01*
X18680000Y-13500000D02*
X18680000Y-14500000D01*
X17320000Y-14500000D02*
X17320000Y-13500000D01*
X16680000Y-13500000D02*
X16680000Y-14500000D01*
X15320000Y-14500000D02*
X15320000Y-13500000D01*
X13320000Y-14500000D02*
X13320000Y-13500000D01*
X14680000Y-13500000D02*
X14680000Y-14500000D01*
X12800000Y-33120000D02*
X13800000Y-33120000D01*
X13800000Y-34480000D02*
X12800000Y-34480000D01*
X12680000Y-13500000D02*
X12680000Y-14500000D01*
X11320000Y-14500000D02*
X11320000Y-13500000D01*
D14*
X53499600Y-49003800D02*
X50248400Y-49003800D01*
X37497600Y-49003800D02*
X38767600Y-49003800D01*
X37523000Y-38996200D02*
X39453400Y-38996200D01*
X53499600Y-38996200D02*
X50248400Y-38996200D01*
X46819400Y-38996200D02*
X48572000Y-38996200D01*
X53500000Y-39000000D02*
X53500000Y-49000000D01*
X50250000Y-49000000D02*
X50250000Y-39000000D01*
D13*
X13400000Y-28750000D02*
X17600000Y-28750000D01*
X18620000Y-27750000D02*
X18620000Y-24250000D01*
X17600000Y-23250000D02*
X13380000Y-23250000D01*
X12380000Y-24250000D02*
X12380000Y-27750000D01*
X13380000Y-28750000D02*
G75*
G02X12380000Y-27750000I0J1000000D01*
G01*
X12380000Y-24250000D02*
G75*
G02X13380000Y-23250000I1000000J0D01*
G01*
X18620000Y-27750000D02*
G75*
G02X17620000Y-28750000I-1000000J0D01*
G01*
X17620000Y-23250000D02*
G75*
G02X18620000Y-24250000I0J-1000000D01*
G01*
X31000000Y-49320000D02*
X32000000Y-49320000D01*
X32000000Y-50680000D02*
X31000000Y-50680000D01*
X16750000Y-22500000D02*
X14750000Y-22500000D01*
X14750000Y-22500000D02*
X14250000Y-21900000D01*
X14250000Y-21900000D02*
X14250000Y-19500000D01*
X14250000Y-19500000D02*
X16750000Y-19500000D01*
X16750000Y-19500000D02*
X16750000Y-22500000D01*
D14*
X34382925Y-48683742D02*
X34025782Y-48933742D01*
X34382925Y-49112314D02*
X33632925Y-49112314D01*
X33632925Y-48826600D01*
X33668640Y-48755171D01*
X33704354Y-48719457D01*
X33775782Y-48683742D01*
X33882925Y-48683742D01*
X33954354Y-48719457D01*
X33990068Y-48755171D01*
X34025782Y-48826600D01*
X34025782Y-49112314D01*
X34382925Y-47969457D02*
X34382925Y-48398028D01*
X34382925Y-48183742D02*
X33632925Y-48183742D01*
X33740068Y-48255171D01*
X33811497Y-48326600D01*
X33847211Y-48398028D01*
X33632925Y-47326600D02*
X33632925Y-47469457D01*
X33668640Y-47540885D01*
X33704354Y-47576600D01*
X33811497Y-47648028D01*
X33954354Y-47683742D01*
X34240068Y-47683742D01*
X34311497Y-47648028D01*
X34347211Y-47612314D01*
X34382925Y-47540885D01*
X34382925Y-47398028D01*
X34347211Y-47326600D01*
X34311497Y-47290885D01*
X34240068Y-47255171D01*
X34061497Y-47255171D01*
X33990068Y-47290885D01*
X33954354Y-47326600D01*
X33918640Y-47398028D01*
X33918640Y-47540885D01*
X33954354Y-47612314D01*
X33990068Y-47648028D01*
X34061497Y-47683742D01*
X36028095Y-24302380D02*
X36028095Y-25111904D01*
X36075714Y-25207142D01*
X36123333Y-25254761D01*
X36218571Y-25302380D01*
X36409047Y-25302380D01*
X36504285Y-25254761D01*
X36551904Y-25207142D01*
X36599523Y-25111904D01*
X36599523Y-24302380D01*
X37028095Y-24397619D02*
X37075714Y-24350000D01*
X37170952Y-24302380D01*
X37409047Y-24302380D01*
X37504285Y-24350000D01*
X37551904Y-24397619D01*
X37599523Y-24492857D01*
X37599523Y-24588095D01*
X37551904Y-24730952D01*
X36980476Y-25302380D01*
X37599523Y-25302380D01*
X27211300Y-26783275D02*
X26211300Y-26783275D01*
X26211300Y-26545180D01*
X26258920Y-26402322D01*
X26354158Y-26307084D01*
X26449396Y-26259465D01*
X26639872Y-26211846D01*
X26782729Y-26211846D01*
X26973205Y-26259465D01*
X27068443Y-26307084D01*
X27163681Y-26402322D01*
X27211300Y-26545180D01*
X27211300Y-26783275D01*
X26211300Y-25878513D02*
X26211300Y-25259465D01*
X26592253Y-25592799D01*
X26592253Y-25449941D01*
X26639872Y-25354703D01*
X26687491Y-25307084D01*
X26782729Y-25259465D01*
X27020824Y-25259465D01*
X27116062Y-25307084D01*
X27163681Y-25354703D01*
X27211300Y-25449941D01*
X27211300Y-25735656D01*
X27163681Y-25830894D01*
X27116062Y-25878513D01*
X23514390Y-40255150D02*
X23990580Y-40255150D01*
X22990580Y-40588483D02*
X23514390Y-40255150D01*
X22990580Y-39921817D01*
X23990580Y-39064674D02*
X23990580Y-39636102D01*
X23990580Y-39350388D02*
X22990580Y-39350388D01*
X23133438Y-39445626D01*
X23228676Y-39540864D01*
X23276295Y-39636102D01*
X48952380Y-16588095D02*
X47952380Y-16588095D01*
X47952380Y-16350000D01*
X48000000Y-16207142D01*
X48095238Y-16111904D01*
X48190476Y-16064285D01*
X48380952Y-16016666D01*
X48523809Y-16016666D01*
X48714285Y-16064285D01*
X48809523Y-16111904D01*
X48904761Y-16207142D01*
X48952380Y-16350000D01*
X48952380Y-16588095D01*
X48952380Y-15064285D02*
X48952380Y-15635714D01*
X48952380Y-15350000D02*
X47952380Y-15350000D01*
X48095238Y-15445238D01*
X48190476Y-15540476D01*
X48238095Y-15635714D01*
X22053819Y-40062158D02*
X22006200Y-40157396D01*
X21910961Y-40252634D01*
X21768104Y-40395491D01*
X21720485Y-40490729D01*
X21720485Y-40585967D01*
X21958580Y-40538348D02*
X21910961Y-40633586D01*
X21815723Y-40728824D01*
X21625247Y-40776443D01*
X21291914Y-40776443D01*
X21101438Y-40728824D01*
X21006200Y-40633586D01*
X20958580Y-40538348D01*
X20958580Y-40347872D01*
X21006200Y-40252634D01*
X21101438Y-40157396D01*
X21291914Y-40109777D01*
X21625247Y-40109777D01*
X21815723Y-40157396D01*
X21910961Y-40252634D01*
X21958580Y-40347872D01*
X21958580Y-40538348D01*
X21958580Y-39157396D02*
X21958580Y-39728824D01*
X21958580Y-39443110D02*
X20958580Y-39443110D01*
X21101438Y-39538348D01*
X21196676Y-39633586D01*
X21244295Y-39728824D01*
X22053819Y-46605198D02*
X22006200Y-46700436D01*
X21910961Y-46795674D01*
X21768104Y-46938531D01*
X21720485Y-47033769D01*
X21720485Y-47129007D01*
X21958580Y-47081388D02*
X21910961Y-47176626D01*
X21815723Y-47271864D01*
X21625247Y-47319483D01*
X21291914Y-47319483D01*
X21101438Y-47271864D01*
X21006200Y-47176626D01*
X20958580Y-47081388D01*
X20958580Y-46890912D01*
X21006200Y-46795674D01*
X21101438Y-46700436D01*
X21291914Y-46652817D01*
X21625247Y-46652817D01*
X21815723Y-46700436D01*
X21910961Y-46795674D01*
X21958580Y-46890912D01*
X21958580Y-47081388D01*
X21053819Y-46271864D02*
X21006200Y-46224245D01*
X20958580Y-46129007D01*
X20958580Y-45890912D01*
X21006200Y-45795674D01*
X21053819Y-45748055D01*
X21149057Y-45700436D01*
X21244295Y-45700436D01*
X21387152Y-45748055D01*
X21958580Y-46319483D01*
X21958580Y-45700436D01*
X38704761Y-28047619D02*
X38609523Y-28000000D01*
X38514285Y-27904761D01*
X38371428Y-27761904D01*
X38276190Y-27714285D01*
X38180952Y-27714285D01*
X38228571Y-27952380D02*
X38133333Y-27904761D01*
X38038095Y-27809523D01*
X37990476Y-27619047D01*
X37990476Y-27285714D01*
X38038095Y-27095238D01*
X38133333Y-27000000D01*
X38228571Y-26952380D01*
X38419047Y-26952380D01*
X38514285Y-27000000D01*
X38609523Y-27095238D01*
X38657142Y-27285714D01*
X38657142Y-27619047D01*
X38609523Y-27809523D01*
X38514285Y-27904761D01*
X38419047Y-27952380D01*
X38228571Y-27952380D01*
X38990476Y-26952380D02*
X39609523Y-26952380D01*
X39276190Y-27333333D01*
X39419047Y-27333333D01*
X39514285Y-27380952D01*
X39561904Y-27428571D01*
X39609523Y-27523809D01*
X39609523Y-27761904D01*
X39561904Y-27857142D01*
X39514285Y-27904761D01*
X39419047Y-27952380D01*
X39133333Y-27952380D01*
X39038095Y-27904761D01*
X38990476Y-27857142D01*
X23347619Y-21195238D02*
X23300000Y-21290476D01*
X23204761Y-21385714D01*
X23061904Y-21528571D01*
X23014285Y-21623809D01*
X23014285Y-21719047D01*
X23252380Y-21671428D02*
X23204761Y-21766666D01*
X23109523Y-21861904D01*
X22919047Y-21909523D01*
X22585714Y-21909523D01*
X22395238Y-21861904D01*
X22300000Y-21766666D01*
X22252380Y-21671428D01*
X22252380Y-21480952D01*
X22300000Y-21385714D01*
X22395238Y-21290476D01*
X22585714Y-21242857D01*
X22919047Y-21242857D01*
X23109523Y-21290476D01*
X23204761Y-21385714D01*
X23252380Y-21480952D01*
X23252380Y-21671428D01*
X22585714Y-20385714D02*
X23252380Y-20385714D01*
X22204761Y-20623809D02*
X22919047Y-20861904D01*
X22919047Y-20242857D01*
X20047619Y-31095238D02*
X20000000Y-31190476D01*
X19904761Y-31285714D01*
X19761904Y-31428571D01*
X19714285Y-31523809D01*
X19714285Y-31619047D01*
X19952380Y-31571428D02*
X19904761Y-31666666D01*
X19809523Y-31761904D01*
X19619047Y-31809523D01*
X19285714Y-31809523D01*
X19095238Y-31761904D01*
X19000000Y-31666666D01*
X18952380Y-31571428D01*
X18952380Y-31380952D01*
X19000000Y-31285714D01*
X19095238Y-31190476D01*
X19285714Y-31142857D01*
X19619047Y-31142857D01*
X19809523Y-31190476D01*
X19904761Y-31285714D01*
X19952380Y-31380952D01*
X19952380Y-31571428D01*
X18952380Y-30238095D02*
X18952380Y-30714285D01*
X19428571Y-30761904D01*
X19380952Y-30714285D01*
X19333333Y-30619047D01*
X19333333Y-30380952D01*
X19380952Y-30285714D01*
X19428571Y-30238095D01*
X19523809Y-30190476D01*
X19761904Y-30190476D01*
X19857142Y-30238095D01*
X19904761Y-30285714D01*
X19952380Y-30380952D01*
X19952380Y-30619047D01*
X19904761Y-30714285D01*
X19857142Y-30761904D01*
X11647619Y-31595238D02*
X11600000Y-31690476D01*
X11504761Y-31785714D01*
X11361904Y-31928571D01*
X11314285Y-32023809D01*
X11314285Y-32119047D01*
X11552380Y-32071428D02*
X11504761Y-32166666D01*
X11409523Y-32261904D01*
X11219047Y-32309523D01*
X10885714Y-32309523D01*
X10695238Y-32261904D01*
X10600000Y-32166666D01*
X10552380Y-32071428D01*
X10552380Y-31880952D01*
X10600000Y-31785714D01*
X10695238Y-31690476D01*
X10885714Y-31642857D01*
X11219047Y-31642857D01*
X11409523Y-31690476D01*
X11504761Y-31785714D01*
X11552380Y-31880952D01*
X11552380Y-32071428D01*
X10552380Y-30785714D02*
X10552380Y-30976190D01*
X10600000Y-31071428D01*
X10647619Y-31119047D01*
X10790476Y-31214285D01*
X10980952Y-31261904D01*
X11361904Y-31261904D01*
X11457142Y-31214285D01*
X11504761Y-31166666D01*
X11552380Y-31071428D01*
X11552380Y-30880952D01*
X11504761Y-30785714D01*
X11457142Y-30738095D01*
X11361904Y-30690476D01*
X11123809Y-30690476D01*
X11028571Y-30738095D01*
X10980952Y-30785714D01*
X10933333Y-30880952D01*
X10933333Y-31071428D01*
X10980952Y-31166666D01*
X11028571Y-31214285D01*
X11123809Y-31261904D01*
X10839285Y-18446428D02*
X10839285Y-18017857D01*
X11589285Y-18232142D02*
X10839285Y-18232142D01*
X11589285Y-17767857D02*
X10839285Y-17767857D01*
X10839285Y-17482142D01*
X10875000Y-17410714D01*
X10910714Y-17375000D01*
X10982142Y-17339285D01*
X11089285Y-17339285D01*
X11160714Y-17375000D01*
X11196428Y-17410714D01*
X11232142Y-17482142D01*
X11232142Y-17767857D01*
X11589285Y-16625000D02*
X11589285Y-17053571D01*
X11589285Y-16839285D02*
X10839285Y-16839285D01*
X10946428Y-16910714D01*
X11017857Y-16982142D01*
X11053571Y-17053571D01*
X45287857Y-31225000D02*
X45323571Y-31260714D01*
X45359285Y-31367857D01*
X45359285Y-31439285D01*
X45323571Y-31546428D01*
X45252142Y-31617857D01*
X45180714Y-31653571D01*
X45037857Y-31689285D01*
X44930714Y-31689285D01*
X44787857Y-31653571D01*
X44716428Y-31617857D01*
X44645000Y-31546428D01*
X44609285Y-31439285D01*
X44609285Y-31367857D01*
X44645000Y-31260714D01*
X44680714Y-31225000D01*
X45359285Y-30510714D02*
X45359285Y-30939285D01*
X45359285Y-30725000D02*
X44609285Y-30725000D01*
X44716428Y-30796428D01*
X44787857Y-30867857D01*
X44823571Y-30939285D01*
X36267857Y-41625000D02*
X36303571Y-41660714D01*
X36339285Y-41767857D01*
X36339285Y-41839285D01*
X36303571Y-41946428D01*
X36232142Y-42017857D01*
X36160714Y-42053571D01*
X36017857Y-42089285D01*
X35910714Y-42089285D01*
X35767857Y-42053571D01*
X35696428Y-42017857D01*
X35625000Y-41946428D01*
X35589285Y-41839285D01*
X35589285Y-41767857D01*
X35625000Y-41660714D01*
X35660714Y-41625000D01*
X35660714Y-41339285D02*
X35625000Y-41303571D01*
X35589285Y-41232142D01*
X35589285Y-41053571D01*
X35625000Y-40982142D01*
X35660714Y-40946428D01*
X35732142Y-40910714D01*
X35803571Y-40910714D01*
X35910714Y-40946428D01*
X36339285Y-41375000D01*
X36339285Y-40910714D01*
X37125000Y-38267857D02*
X37089285Y-38303571D01*
X36982142Y-38339285D01*
X36910714Y-38339285D01*
X36803571Y-38303571D01*
X36732142Y-38232142D01*
X36696428Y-38160714D01*
X36660714Y-38017857D01*
X36660714Y-37910714D01*
X36696428Y-37767857D01*
X36732142Y-37696428D01*
X36803571Y-37625000D01*
X36910714Y-37589285D01*
X36982142Y-37589285D01*
X37089285Y-37625000D01*
X37125000Y-37660714D01*
X37375000Y-37589285D02*
X37839285Y-37589285D01*
X37589285Y-37875000D01*
X37696428Y-37875000D01*
X37767857Y-37910714D01*
X37803571Y-37946428D01*
X37839285Y-38017857D01*
X37839285Y-38196428D01*
X37803571Y-38267857D01*
X37767857Y-38303571D01*
X37696428Y-38339285D01*
X37482142Y-38339285D01*
X37410714Y-38303571D01*
X37375000Y-38267857D01*
X37287857Y-31225000D02*
X37323571Y-31260714D01*
X37359285Y-31367857D01*
X37359285Y-31439285D01*
X37323571Y-31546428D01*
X37252142Y-31617857D01*
X37180714Y-31653571D01*
X37037857Y-31689285D01*
X36930714Y-31689285D01*
X36787857Y-31653571D01*
X36716428Y-31617857D01*
X36645000Y-31546428D01*
X36609285Y-31439285D01*
X36609285Y-31367857D01*
X36645000Y-31260714D01*
X36680714Y-31225000D01*
X36859285Y-30582142D02*
X37359285Y-30582142D01*
X36573571Y-30760714D02*
X37109285Y-30939285D01*
X37109285Y-30475000D01*
X38887857Y-31225000D02*
X38923571Y-31260714D01*
X38959285Y-31367857D01*
X38959285Y-31439285D01*
X38923571Y-31546428D01*
X38852142Y-31617857D01*
X38780714Y-31653571D01*
X38637857Y-31689285D01*
X38530714Y-31689285D01*
X38387857Y-31653571D01*
X38316428Y-31617857D01*
X38245000Y-31546428D01*
X38209285Y-31439285D01*
X38209285Y-31367857D01*
X38245000Y-31260714D01*
X38280714Y-31225000D01*
X38209285Y-30546428D02*
X38209285Y-30903571D01*
X38566428Y-30939285D01*
X38530714Y-30903571D01*
X38495000Y-30832142D01*
X38495000Y-30653571D01*
X38530714Y-30582142D01*
X38566428Y-30546428D01*
X38637857Y-30510714D01*
X38816428Y-30510714D01*
X38887857Y-30546428D01*
X38923571Y-30582142D01*
X38959285Y-30653571D01*
X38959285Y-30832142D01*
X38923571Y-30903571D01*
X38887857Y-30939285D01*
X38775000Y-23017857D02*
X38739285Y-23053571D01*
X38632142Y-23089285D01*
X38560714Y-23089285D01*
X38453571Y-23053571D01*
X38382142Y-22982142D01*
X38346428Y-22910714D01*
X38310714Y-22767857D01*
X38310714Y-22660714D01*
X38346428Y-22517857D01*
X38382142Y-22446428D01*
X38453571Y-22375000D01*
X38560714Y-22339285D01*
X38632142Y-22339285D01*
X38739285Y-22375000D01*
X38775000Y-22410714D01*
X39417857Y-22339285D02*
X39275000Y-22339285D01*
X39203571Y-22375000D01*
X39167857Y-22410714D01*
X39096428Y-22517857D01*
X39060714Y-22660714D01*
X39060714Y-22946428D01*
X39096428Y-23017857D01*
X39132142Y-23053571D01*
X39203571Y-23089285D01*
X39346428Y-23089285D01*
X39417857Y-23053571D01*
X39453571Y-23017857D01*
X39489285Y-22946428D01*
X39489285Y-22767857D01*
X39453571Y-22696428D01*
X39417857Y-22660714D01*
X39346428Y-22625000D01*
X39203571Y-22625000D01*
X39132142Y-22660714D01*
X39096428Y-22696428D01*
X39060714Y-22767857D01*
X22267857Y-11125000D02*
X22303571Y-11160714D01*
X22339285Y-11267857D01*
X22339285Y-11339285D01*
X22303571Y-11446428D01*
X22232142Y-11517857D01*
X22160714Y-11553571D01*
X22017857Y-11589285D01*
X21910714Y-11589285D01*
X21767857Y-11553571D01*
X21696428Y-11517857D01*
X21625000Y-11446428D01*
X21589285Y-11339285D01*
X21589285Y-11267857D01*
X21625000Y-11160714D01*
X21660714Y-11125000D01*
X21589285Y-10875000D02*
X21589285Y-10375000D01*
X22339285Y-10696428D01*
X18367857Y-21125000D02*
X18403571Y-21160714D01*
X18439285Y-21267857D01*
X18439285Y-21339285D01*
X18403571Y-21446428D01*
X18332142Y-21517857D01*
X18260714Y-21553571D01*
X18117857Y-21589285D01*
X18010714Y-21589285D01*
X17867857Y-21553571D01*
X17796428Y-21517857D01*
X17725000Y-21446428D01*
X17689285Y-21339285D01*
X17689285Y-21267857D01*
X17725000Y-21160714D01*
X17760714Y-21125000D01*
X18010714Y-20696428D02*
X17975000Y-20767857D01*
X17939285Y-20803571D01*
X17867857Y-20839285D01*
X17832142Y-20839285D01*
X17760714Y-20803571D01*
X17725000Y-20767857D01*
X17689285Y-20696428D01*
X17689285Y-20553571D01*
X17725000Y-20482142D01*
X17760714Y-20446428D01*
X17832142Y-20410714D01*
X17867857Y-20410714D01*
X17939285Y-20446428D01*
X17975000Y-20482142D01*
X18010714Y-20553571D01*
X18010714Y-20696428D01*
X18046428Y-20767857D01*
X18082142Y-20803571D01*
X18153571Y-20839285D01*
X18296428Y-20839285D01*
X18367857Y-20803571D01*
X18403571Y-20767857D01*
X18439285Y-20696428D01*
X18439285Y-20553571D01*
X18403571Y-20482142D01*
X18367857Y-20446428D01*
X18296428Y-20410714D01*
X18153571Y-20410714D01*
X18082142Y-20446428D01*
X18046428Y-20482142D01*
X18010714Y-20553571D01*
X20267857Y-11175000D02*
X20303571Y-11210714D01*
X20339285Y-11317857D01*
X20339285Y-11389285D01*
X20303571Y-11496428D01*
X20232142Y-11567857D01*
X20160714Y-11603571D01*
X20017857Y-11639285D01*
X19910714Y-11639285D01*
X19767857Y-11603571D01*
X19696428Y-11567857D01*
X19625000Y-11496428D01*
X19589285Y-11389285D01*
X19589285Y-11317857D01*
X19625000Y-11210714D01*
X19660714Y-11175000D01*
X20339285Y-10817857D02*
X20339285Y-10675000D01*
X20303571Y-10603571D01*
X20267857Y-10567857D01*
X20160714Y-10496428D01*
X20017857Y-10460714D01*
X19732142Y-10460714D01*
X19660714Y-10496428D01*
X19625000Y-10532142D01*
X19589285Y-10603571D01*
X19589285Y-10746428D01*
X19625000Y-10817857D01*
X19660714Y-10853571D01*
X19732142Y-10889285D01*
X19910714Y-10889285D01*
X19982142Y-10853571D01*
X20017857Y-10817857D01*
X20053571Y-10746428D01*
X20053571Y-10603571D01*
X20017857Y-10532142D01*
X19982142Y-10496428D01*
X19910714Y-10460714D01*
X32748500Y-43880015D02*
X31748500Y-43880015D01*
X31748500Y-43641920D01*
X31796120Y-43499062D01*
X31891358Y-43403824D01*
X31986596Y-43356205D01*
X32177072Y-43308586D01*
X32319929Y-43308586D01*
X32510405Y-43356205D01*
X32605643Y-43403824D01*
X32700881Y-43499062D01*
X32748500Y-43641920D01*
X32748500Y-43880015D01*
X31843739Y-42927634D02*
X31796120Y-42880015D01*
X31748500Y-42784777D01*
X31748500Y-42546681D01*
X31796120Y-42451443D01*
X31843739Y-42403824D01*
X31938977Y-42356205D01*
X32034215Y-42356205D01*
X32177072Y-42403824D01*
X32748500Y-42975253D01*
X32748500Y-42356205D01*
X42633333Y-31852380D02*
X42157142Y-31852380D01*
X42157142Y-30852380D01*
X43490476Y-31852380D02*
X42919047Y-31852380D01*
X43204761Y-31852380D02*
X43204761Y-30852380D01*
X43109523Y-30995238D01*
X43014285Y-31090476D01*
X42919047Y-31138095D01*
X40433333Y-31852380D02*
X39957142Y-31852380D01*
X39957142Y-30852380D01*
X40719047Y-30947619D02*
X40766666Y-30900000D01*
X40861904Y-30852380D01*
X41100000Y-30852380D01*
X41195238Y-30900000D01*
X41242857Y-30947619D01*
X41290476Y-31042857D01*
X41290476Y-31138095D01*
X41242857Y-31280952D01*
X40671428Y-31852380D01*
X41290476Y-31852380D01*
X39089545Y-15951760D02*
X38732402Y-16201760D01*
X39089545Y-16380331D02*
X38339545Y-16380331D01*
X38339545Y-16094617D01*
X38375260Y-16023188D01*
X38410974Y-15987474D01*
X38482402Y-15951760D01*
X38589545Y-15951760D01*
X38660974Y-15987474D01*
X38696688Y-16023188D01*
X38732402Y-16094617D01*
X38732402Y-16380331D01*
X39089545Y-15237474D02*
X39089545Y-15666045D01*
X39089545Y-15451760D02*
X38339545Y-15451760D01*
X38446688Y-15523188D01*
X38518117Y-15594617D01*
X38553831Y-15666045D01*
X12839285Y-41625000D02*
X12482142Y-41875000D01*
X12839285Y-42053571D02*
X12089285Y-42053571D01*
X12089285Y-41767857D01*
X12125000Y-41696428D01*
X12160714Y-41660714D01*
X12232142Y-41625000D01*
X12339285Y-41625000D01*
X12410714Y-41660714D01*
X12446428Y-41696428D01*
X12482142Y-41767857D01*
X12482142Y-42053571D01*
X12160714Y-41339285D02*
X12125000Y-41303571D01*
X12089285Y-41232142D01*
X12089285Y-41053571D01*
X12125000Y-40982142D01*
X12160714Y-40946428D01*
X12232142Y-40910714D01*
X12303571Y-40910714D01*
X12410714Y-40946428D01*
X12839285Y-41375000D01*
X12839285Y-40910714D01*
X23389805Y-44618200D02*
X23032662Y-44868200D01*
X23389805Y-45046771D02*
X22639805Y-45046771D01*
X22639805Y-44761057D01*
X22675520Y-44689628D01*
X22711234Y-44653914D01*
X22782662Y-44618200D01*
X22889805Y-44618200D01*
X22961234Y-44653914D01*
X22996948Y-44689628D01*
X23032662Y-44761057D01*
X23032662Y-45046771D01*
X22639805Y-44368200D02*
X22639805Y-43903914D01*
X22925520Y-44153914D01*
X22925520Y-44046771D01*
X22961234Y-43975342D01*
X22996948Y-43939628D01*
X23068377Y-43903914D01*
X23246948Y-43903914D01*
X23318377Y-43939628D01*
X23354091Y-43975342D01*
X23389805Y-44046771D01*
X23389805Y-44261057D01*
X23354091Y-44332485D01*
X23318377Y-44368200D01*
X23354245Y-42784320D02*
X22997102Y-43034320D01*
X23354245Y-43212891D02*
X22604245Y-43212891D01*
X22604245Y-42927177D01*
X22639960Y-42855748D01*
X22675674Y-42820034D01*
X22747102Y-42784320D01*
X22854245Y-42784320D01*
X22925674Y-42820034D01*
X22961388Y-42855748D01*
X22997102Y-42927177D01*
X22997102Y-43212891D01*
X22854245Y-42141462D02*
X23354245Y-42141462D01*
X22568531Y-42320034D02*
X23104245Y-42498605D01*
X23104245Y-42034320D01*
X12889285Y-45125000D02*
X12532142Y-45375000D01*
X12889285Y-45553571D02*
X12139285Y-45553571D01*
X12139285Y-45267857D01*
X12175000Y-45196428D01*
X12210714Y-45160714D01*
X12282142Y-45125000D01*
X12389285Y-45125000D01*
X12460714Y-45160714D01*
X12496428Y-45196428D01*
X12532142Y-45267857D01*
X12532142Y-45553571D01*
X12139285Y-44446428D02*
X12139285Y-44803571D01*
X12496428Y-44839285D01*
X12460714Y-44803571D01*
X12425000Y-44732142D01*
X12425000Y-44553571D01*
X12460714Y-44482142D01*
X12496428Y-44446428D01*
X12567857Y-44410714D01*
X12746428Y-44410714D01*
X12817857Y-44446428D01*
X12853571Y-44482142D01*
X12889285Y-44553571D01*
X12889285Y-44732142D01*
X12853571Y-44803571D01*
X12817857Y-44839285D01*
X44125000Y-25089285D02*
X43875000Y-24732142D01*
X43696428Y-25089285D02*
X43696428Y-24339285D01*
X43982142Y-24339285D01*
X44053571Y-24375000D01*
X44089285Y-24410714D01*
X44125000Y-24482142D01*
X44125000Y-24589285D01*
X44089285Y-24660714D01*
X44053571Y-24696428D01*
X43982142Y-24732142D01*
X43696428Y-24732142D01*
X44767857Y-24339285D02*
X44625000Y-24339285D01*
X44553571Y-24375000D01*
X44517857Y-24410714D01*
X44446428Y-24517857D01*
X44410714Y-24660714D01*
X44410714Y-24946428D01*
X44446428Y-25017857D01*
X44482142Y-25053571D01*
X44553571Y-25089285D01*
X44696428Y-25089285D01*
X44767857Y-25053571D01*
X44803571Y-25017857D01*
X44839285Y-24946428D01*
X44839285Y-24767857D01*
X44803571Y-24696428D01*
X44767857Y-24660714D01*
X44696428Y-24625000D01*
X44553571Y-24625000D01*
X44482142Y-24660714D01*
X44446428Y-24696428D01*
X44410714Y-24767857D01*
X45625000Y-27839285D02*
X45375000Y-27482142D01*
X45196428Y-27839285D02*
X45196428Y-27089285D01*
X45482142Y-27089285D01*
X45553571Y-27125000D01*
X45589285Y-27160714D01*
X45625000Y-27232142D01*
X45625000Y-27339285D01*
X45589285Y-27410714D01*
X45553571Y-27446428D01*
X45482142Y-27482142D01*
X45196428Y-27482142D01*
X45875000Y-27089285D02*
X46375000Y-27089285D01*
X46053571Y-27839285D01*
X24339285Y-11075000D02*
X23982142Y-11325000D01*
X24339285Y-11503571D02*
X23589285Y-11503571D01*
X23589285Y-11217857D01*
X23625000Y-11146428D01*
X23660714Y-11110714D01*
X23732142Y-11075000D01*
X23839285Y-11075000D01*
X23910714Y-11110714D01*
X23946428Y-11146428D01*
X23982142Y-11217857D01*
X23982142Y-11503571D01*
X23910714Y-10646428D02*
X23875000Y-10717857D01*
X23839285Y-10753571D01*
X23767857Y-10789285D01*
X23732142Y-10789285D01*
X23660714Y-10753571D01*
X23625000Y-10717857D01*
X23589285Y-10646428D01*
X23589285Y-10503571D01*
X23625000Y-10432142D01*
X23660714Y-10396428D01*
X23732142Y-10360714D01*
X23767857Y-10360714D01*
X23839285Y-10396428D01*
X23875000Y-10432142D01*
X23910714Y-10503571D01*
X23910714Y-10646428D01*
X23946428Y-10717857D01*
X23982142Y-10753571D01*
X24053571Y-10789285D01*
X24196428Y-10789285D01*
X24267857Y-10753571D01*
X24303571Y-10717857D01*
X24339285Y-10646428D01*
X24339285Y-10503571D01*
X24303571Y-10432142D01*
X24267857Y-10396428D01*
X24196428Y-10360714D01*
X24053571Y-10360714D01*
X23982142Y-10396428D01*
X23946428Y-10432142D01*
X23910714Y-10503571D01*
X11339285Y-21025000D02*
X10982142Y-21275000D01*
X11339285Y-21453571D02*
X10589285Y-21453571D01*
X10589285Y-21167857D01*
X10625000Y-21096428D01*
X10660714Y-21060714D01*
X10732142Y-21025000D01*
X10839285Y-21025000D01*
X10910714Y-21060714D01*
X10946428Y-21096428D01*
X10982142Y-21167857D01*
X10982142Y-21453571D01*
X11339285Y-20667857D02*
X11339285Y-20525000D01*
X11303571Y-20453571D01*
X11267857Y-20417857D01*
X11160714Y-20346428D01*
X11017857Y-20310714D01*
X10732142Y-20310714D01*
X10660714Y-20346428D01*
X10625000Y-20382142D01*
X10589285Y-20453571D01*
X10589285Y-20596428D01*
X10625000Y-20667857D01*
X10660714Y-20703571D01*
X10732142Y-20739285D01*
X10910714Y-20739285D01*
X10982142Y-20703571D01*
X11017857Y-20667857D01*
X11053571Y-20596428D01*
X11053571Y-20453571D01*
X11017857Y-20382142D01*
X10982142Y-20346428D01*
X10910714Y-20310714D01*
X20039285Y-34282142D02*
X19682142Y-34532142D01*
X20039285Y-34710714D02*
X19289285Y-34710714D01*
X19289285Y-34425000D01*
X19325000Y-34353571D01*
X19360714Y-34317857D01*
X19432142Y-34282142D01*
X19539285Y-34282142D01*
X19610714Y-34317857D01*
X19646428Y-34353571D01*
X19682142Y-34425000D01*
X19682142Y-34710714D01*
X20039285Y-33567857D02*
X20039285Y-33996428D01*
X20039285Y-33782142D02*
X19289285Y-33782142D01*
X19396428Y-33853571D01*
X19467857Y-33925000D01*
X19503571Y-33996428D01*
X19289285Y-33103571D02*
X19289285Y-33032142D01*
X19325000Y-32960714D01*
X19360714Y-32925000D01*
X19432142Y-32889285D01*
X19575000Y-32853571D01*
X19753571Y-32853571D01*
X19896428Y-32889285D01*
X19967857Y-32925000D01*
X20003571Y-32960714D01*
X20039285Y-33032142D01*
X20039285Y-33103571D01*
X20003571Y-33175000D01*
X19967857Y-33210714D01*
X19896428Y-33246428D01*
X19753571Y-33282142D01*
X19575000Y-33282142D01*
X19432142Y-33246428D01*
X19360714Y-33210714D01*
X19325000Y-33175000D01*
X19289285Y-33103571D01*
X18339285Y-11532142D02*
X17982142Y-11782142D01*
X18339285Y-11960714D02*
X17589285Y-11960714D01*
X17589285Y-11675000D01*
X17625000Y-11603571D01*
X17660714Y-11567857D01*
X17732142Y-11532142D01*
X17839285Y-11532142D01*
X17910714Y-11567857D01*
X17946428Y-11603571D01*
X17982142Y-11675000D01*
X17982142Y-11960714D01*
X18339285Y-10817857D02*
X18339285Y-11246428D01*
X18339285Y-11032142D02*
X17589285Y-11032142D01*
X17696428Y-11103571D01*
X17767857Y-11175000D01*
X17803571Y-11246428D01*
X18339285Y-10103571D02*
X18339285Y-10532142D01*
X18339285Y-10317857D02*
X17589285Y-10317857D01*
X17696428Y-10389285D01*
X17767857Y-10460714D01*
X17803571Y-10532142D01*
X16339285Y-11582142D02*
X15982142Y-11832142D01*
X16339285Y-12010714D02*
X15589285Y-12010714D01*
X15589285Y-11725000D01*
X15625000Y-11653571D01*
X15660714Y-11617857D01*
X15732142Y-11582142D01*
X15839285Y-11582142D01*
X15910714Y-11617857D01*
X15946428Y-11653571D01*
X15982142Y-11725000D01*
X15982142Y-12010714D01*
X16339285Y-10867857D02*
X16339285Y-11296428D01*
X16339285Y-11082142D02*
X15589285Y-11082142D01*
X15696428Y-11153571D01*
X15767857Y-11225000D01*
X15803571Y-11296428D01*
X15660714Y-10582142D02*
X15625000Y-10546428D01*
X15589285Y-10475000D01*
X15589285Y-10296428D01*
X15625000Y-10225000D01*
X15660714Y-10189285D01*
X15732142Y-10153571D01*
X15803571Y-10153571D01*
X15910714Y-10189285D01*
X16339285Y-10617857D01*
X16339285Y-10153571D01*
X14339285Y-11582142D02*
X13982142Y-11832142D01*
X14339285Y-12010714D02*
X13589285Y-12010714D01*
X13589285Y-11725000D01*
X13625000Y-11653571D01*
X13660714Y-11617857D01*
X13732142Y-11582142D01*
X13839285Y-11582142D01*
X13910714Y-11617857D01*
X13946428Y-11653571D01*
X13982142Y-11725000D01*
X13982142Y-12010714D01*
X14339285Y-10867857D02*
X14339285Y-11296428D01*
X14339285Y-11082142D02*
X13589285Y-11082142D01*
X13696428Y-11153571D01*
X13767857Y-11225000D01*
X13803571Y-11296428D01*
X13589285Y-10617857D02*
X13589285Y-10153571D01*
X13875000Y-10403571D01*
X13875000Y-10296428D01*
X13910714Y-10225000D01*
X13946428Y-10189285D01*
X14017857Y-10153571D01*
X14196428Y-10153571D01*
X14267857Y-10189285D01*
X14303571Y-10225000D01*
X14339285Y-10296428D01*
X14339285Y-10510714D01*
X14303571Y-10582142D01*
X14267857Y-10617857D01*
X11339285Y-34282142D02*
X10982142Y-34532142D01*
X11339285Y-34710714D02*
X10589285Y-34710714D01*
X10589285Y-34425000D01*
X10625000Y-34353571D01*
X10660714Y-34317857D01*
X10732142Y-34282142D01*
X10839285Y-34282142D01*
X10910714Y-34317857D01*
X10946428Y-34353571D01*
X10982142Y-34425000D01*
X10982142Y-34710714D01*
X11339285Y-33567857D02*
X11339285Y-33996428D01*
X11339285Y-33782142D02*
X10589285Y-33782142D01*
X10696428Y-33853571D01*
X10767857Y-33925000D01*
X10803571Y-33996428D01*
X10839285Y-32925000D02*
X11339285Y-32925000D01*
X10553571Y-33103571D02*
X11089285Y-33282142D01*
X11089285Y-32817857D01*
X12339285Y-11582142D02*
X11982142Y-11832142D01*
X12339285Y-12010714D02*
X11589285Y-12010714D01*
X11589285Y-11725000D01*
X11625000Y-11653571D01*
X11660714Y-11617857D01*
X11732142Y-11582142D01*
X11839285Y-11582142D01*
X11910714Y-11617857D01*
X11946428Y-11653571D01*
X11982142Y-11725000D01*
X11982142Y-12010714D01*
X12339285Y-10867857D02*
X12339285Y-11296428D01*
X12339285Y-11082142D02*
X11589285Y-11082142D01*
X11696428Y-11153571D01*
X11767857Y-11225000D01*
X11803571Y-11296428D01*
X11589285Y-10189285D02*
X11589285Y-10546428D01*
X11946428Y-10582142D01*
X11910714Y-10546428D01*
X11875000Y-10475000D01*
X11875000Y-10296428D01*
X11910714Y-10225000D01*
X11946428Y-10189285D01*
X12017857Y-10153571D01*
X12196428Y-10153571D01*
X12267857Y-10189285D01*
X12303571Y-10225000D01*
X12339285Y-10296428D01*
X12339285Y-10475000D01*
X12303571Y-10546428D01*
X12267857Y-10582142D01*
D15*
X47081970Y-38770532D02*
X47486732Y-38770532D01*
X47534351Y-38746722D01*
X47558160Y-38722913D01*
X47581970Y-38675294D01*
X47581970Y-38580056D01*
X47558160Y-38532437D01*
X47534351Y-38508627D01*
X47486732Y-38484818D01*
X47081970Y-38484818D01*
X47581970Y-37984818D02*
X47581970Y-38270532D01*
X47581970Y-38127675D02*
X47081970Y-38127675D01*
X47153399Y-38175294D01*
X47201018Y-38222913D01*
X47224827Y-38270532D01*
D14*
X51616666Y-45192857D02*
X51616666Y-44716666D01*
X51902380Y-45288095D02*
X50902380Y-44954761D01*
X51902380Y-44621428D01*
X51902380Y-44288095D02*
X50902380Y-44288095D01*
X51902380Y-43716666D01*
X50902380Y-43716666D01*
X50902380Y-43383333D02*
X50902380Y-42811904D01*
X51902380Y-43097619D02*
X50902380Y-43097619D01*
X11802380Y-26166666D02*
X11802380Y-26642857D01*
X10802380Y-26642857D01*
X10802380Y-25928571D02*
X10802380Y-25309523D01*
X11183333Y-25642857D01*
X11183333Y-25500000D01*
X11230952Y-25404761D01*
X11278571Y-25357142D01*
X11373809Y-25309523D01*
X11611904Y-25309523D01*
X11707142Y-25357142D01*
X11754761Y-25404761D01*
X11802380Y-25500000D01*
X11802380Y-25785714D01*
X11754761Y-25880952D01*
X11707142Y-25928571D01*
X34337205Y-50802102D02*
X33980062Y-51052102D01*
X34337205Y-51230674D02*
X33587205Y-51230674D01*
X33587205Y-50944960D01*
X33622920Y-50873531D01*
X33658634Y-50837817D01*
X33730062Y-50802102D01*
X33837205Y-50802102D01*
X33908634Y-50837817D01*
X33944348Y-50873531D01*
X33980062Y-50944960D01*
X33980062Y-51230674D01*
X34337205Y-50087817D02*
X34337205Y-50516388D01*
X34337205Y-50302102D02*
X33587205Y-50302102D01*
X33694348Y-50373531D01*
X33765777Y-50444960D01*
X33801491Y-50516388D01*
X33587205Y-49837817D02*
X33587205Y-49337817D01*
X34337205Y-49659245D01*
X15152380Y-19261904D02*
X15961904Y-19261904D01*
X16057142Y-19214285D01*
X16104761Y-19166666D01*
X16152380Y-19071428D01*
X16152380Y-18880952D01*
X16104761Y-18785714D01*
X16057142Y-18738095D01*
X15961904Y-18690476D01*
X15152380Y-18690476D01*
X15152380Y-18309523D02*
X15152380Y-17690476D01*
X15533333Y-18023809D01*
X15533333Y-17880952D01*
X15580952Y-17785714D01*
X15628571Y-17738095D01*
X15723809Y-17690476D01*
X15961904Y-17690476D01*
X16057142Y-17738095D01*
X16104761Y-17785714D01*
X16152380Y-17880952D01*
X16152380Y-18166666D01*
X16104761Y-18261904D01*
X16057142Y-18309523D01*
M02*
