G04 #@! TF.GenerationSoftware,KiCad,Pcbnew,5.1.4-e60b266~84~ubuntu18.04.1*
G04 #@! TF.CreationDate,2019-09-11T16:52:19+05:30*
G04 #@! TF.ProjectId,SenseCam_STCS2A_rev1,53656e73-6543-4616-9d5f-535443533241,rev?*
G04 #@! TF.SameCoordinates,Original*
G04 #@! TF.FileFunction,Copper,L1,Top*
G04 #@! TF.FilePolarity,Positive*
%FSLAX46Y46*%
G04 Gerber Fmt 4.6, Leading zero omitted, Abs format (unit mm)*
G04 Created by KiCad (PCBNEW 5.1.4-e60b266~84~ubuntu18.04.1) date 2019-09-11 16:52:19*
%MOMM*%
%LPD*%
G04 APERTURE LIST*
%ADD10C,0.100000*%
%ADD11C,2.500000*%
%ADD12R,9.000000X10.000000*%
%ADD13C,0.750000*%
%ADD14R,8.000000X10.000000*%
%ADD15R,2.450000X0.500000*%
%ADD16C,1.525000*%
%ADD17R,1.700000X1.700000*%
%ADD18O,1.700000X1.700000*%
%ADD19R,1.250000X1.000000*%
%ADD20C,6.451600*%
%ADD21R,0.405000X0.760000*%
%ADD22R,2.235000X1.725000*%
%ADD23R,0.405000X0.990000*%
%ADD24C,0.800000*%
%ADD25C,0.250000*%
%ADD26C,1.000000*%
%ADD27C,0.500000*%
%ADD28C,0.254000*%
G04 APERTURE END LIST*
D10*
G36*
X107024504Y-104101204D02*
G01*
X107048773Y-104104804D01*
X107072571Y-104110765D01*
X107095671Y-104119030D01*
X107117849Y-104129520D01*
X107138893Y-104142133D01*
X107158598Y-104156747D01*
X107176777Y-104173223D01*
X107193253Y-104191402D01*
X107207867Y-104211107D01*
X107220480Y-104232151D01*
X107230970Y-104254329D01*
X107239235Y-104277429D01*
X107245196Y-104301227D01*
X107248796Y-104325496D01*
X107250000Y-104350000D01*
X107250000Y-108250000D01*
X107248796Y-108274504D01*
X107245196Y-108298773D01*
X107239235Y-108322571D01*
X107230970Y-108345671D01*
X107220480Y-108367849D01*
X107207867Y-108388893D01*
X107193253Y-108408598D01*
X107176777Y-108426777D01*
X107158598Y-108443253D01*
X107138893Y-108457867D01*
X107117849Y-108470480D01*
X107095671Y-108480970D01*
X107072571Y-108489235D01*
X107048773Y-108495196D01*
X107024504Y-108498796D01*
X107000000Y-108500000D01*
X105000000Y-108500000D01*
X104975496Y-108498796D01*
X104951227Y-108495196D01*
X104927429Y-108489235D01*
X104904329Y-108480970D01*
X104882151Y-108470480D01*
X104861107Y-108457867D01*
X104841402Y-108443253D01*
X104823223Y-108426777D01*
X104806747Y-108408598D01*
X104792133Y-108388893D01*
X104779520Y-108367849D01*
X104769030Y-108345671D01*
X104760765Y-108322571D01*
X104754804Y-108298773D01*
X104751204Y-108274504D01*
X104750000Y-108250000D01*
X104750000Y-104350000D01*
X104751204Y-104325496D01*
X104754804Y-104301227D01*
X104760765Y-104277429D01*
X104769030Y-104254329D01*
X104779520Y-104232151D01*
X104792133Y-104211107D01*
X104806747Y-104191402D01*
X104823223Y-104173223D01*
X104841402Y-104156747D01*
X104861107Y-104142133D01*
X104882151Y-104129520D01*
X104904329Y-104119030D01*
X104927429Y-104110765D01*
X104951227Y-104104804D01*
X104975496Y-104101204D01*
X105000000Y-104100000D01*
X107000000Y-104100000D01*
X107024504Y-104101204D01*
X107024504Y-104101204D01*
G37*
D11*
X106000000Y-106300000D03*
D10*
G36*
X107024504Y-111501204D02*
G01*
X107048773Y-111504804D01*
X107072571Y-111510765D01*
X107095671Y-111519030D01*
X107117849Y-111529520D01*
X107138893Y-111542133D01*
X107158598Y-111556747D01*
X107176777Y-111573223D01*
X107193253Y-111591402D01*
X107207867Y-111611107D01*
X107220480Y-111632151D01*
X107230970Y-111654329D01*
X107239235Y-111677429D01*
X107245196Y-111701227D01*
X107248796Y-111725496D01*
X107250000Y-111750000D01*
X107250000Y-115650000D01*
X107248796Y-115674504D01*
X107245196Y-115698773D01*
X107239235Y-115722571D01*
X107230970Y-115745671D01*
X107220480Y-115767849D01*
X107207867Y-115788893D01*
X107193253Y-115808598D01*
X107176777Y-115826777D01*
X107158598Y-115843253D01*
X107138893Y-115857867D01*
X107117849Y-115870480D01*
X107095671Y-115880970D01*
X107072571Y-115889235D01*
X107048773Y-115895196D01*
X107024504Y-115898796D01*
X107000000Y-115900000D01*
X105000000Y-115900000D01*
X104975496Y-115898796D01*
X104951227Y-115895196D01*
X104927429Y-115889235D01*
X104904329Y-115880970D01*
X104882151Y-115870480D01*
X104861107Y-115857867D01*
X104841402Y-115843253D01*
X104823223Y-115826777D01*
X104806747Y-115808598D01*
X104792133Y-115788893D01*
X104779520Y-115767849D01*
X104769030Y-115745671D01*
X104760765Y-115722571D01*
X104754804Y-115698773D01*
X104751204Y-115674504D01*
X104750000Y-115650000D01*
X104750000Y-111750000D01*
X104751204Y-111725496D01*
X104754804Y-111701227D01*
X104760765Y-111677429D01*
X104769030Y-111654329D01*
X104779520Y-111632151D01*
X104792133Y-111611107D01*
X104806747Y-111591402D01*
X104823223Y-111573223D01*
X104841402Y-111556747D01*
X104861107Y-111542133D01*
X104882151Y-111529520D01*
X104904329Y-111519030D01*
X104927429Y-111510765D01*
X104951227Y-111504804D01*
X104975496Y-111501204D01*
X105000000Y-111500000D01*
X107000000Y-111500000D01*
X107024504Y-111501204D01*
X107024504Y-111501204D01*
G37*
D11*
X106000000Y-113700000D03*
D12*
X150000000Y-113000000D03*
D13*
X153000000Y-109000000D03*
X151000000Y-109000000D03*
X149000000Y-109000000D03*
X147000000Y-109000000D03*
X153000000Y-111000000D03*
X151000000Y-111000000D03*
X149000000Y-111000000D03*
X147000000Y-111000000D03*
X153000000Y-113000000D03*
X151000000Y-113000000D03*
X149000000Y-113000000D03*
X147000000Y-113000000D03*
X153000000Y-115000000D03*
X151000000Y-115000000D03*
X149000000Y-115000000D03*
X147000000Y-115000000D03*
X153000000Y-117000000D03*
X151000000Y-117000000D03*
X149000000Y-117000000D03*
X147000000Y-117000000D03*
X153000000Y-117000000D03*
X151000000Y-117000000D03*
X149000000Y-117000000D03*
X147000000Y-117000000D03*
X153000000Y-115000000D03*
X151000000Y-115000000D03*
X149000000Y-115000000D03*
X147000000Y-115000000D03*
X153000000Y-113000000D03*
X151000000Y-113000000D03*
X149000000Y-113000000D03*
X147000000Y-113000000D03*
X153000000Y-111000000D03*
X151000000Y-111000000D03*
X149000000Y-111000000D03*
X147000000Y-111000000D03*
X153000000Y-109000000D03*
X151000000Y-109000000D03*
X149000000Y-109000000D03*
X147000000Y-109000000D03*
D14*
X150000000Y-113000000D03*
D15*
X157100000Y-110460000D03*
X157100000Y-111730000D03*
X157100000Y-113000000D03*
X157100000Y-114270000D03*
X157100000Y-115540000D03*
X142900000Y-115540000D03*
X142900000Y-114270000D03*
X142900000Y-113000000D03*
X142900000Y-111730000D03*
X142900000Y-110460000D03*
D12*
X129000000Y-113000000D03*
D13*
X132000000Y-109000000D03*
X130000000Y-109000000D03*
X128000000Y-109000000D03*
X126000000Y-109000000D03*
X132000000Y-111000000D03*
X130000000Y-111000000D03*
X128000000Y-111000000D03*
X126000000Y-111000000D03*
X132000000Y-113000000D03*
X130000000Y-113000000D03*
X128000000Y-113000000D03*
X126000000Y-113000000D03*
X132000000Y-115000000D03*
X130000000Y-115000000D03*
X128000000Y-115000000D03*
X126000000Y-115000000D03*
X132000000Y-117000000D03*
X130000000Y-117000000D03*
X128000000Y-117000000D03*
X126000000Y-117000000D03*
X132000000Y-117000000D03*
X130000000Y-117000000D03*
X128000000Y-117000000D03*
X126000000Y-117000000D03*
X132000000Y-115000000D03*
X130000000Y-115000000D03*
X128000000Y-115000000D03*
X126000000Y-115000000D03*
X132000000Y-113000000D03*
X130000000Y-113000000D03*
X128000000Y-113000000D03*
X126000000Y-113000000D03*
X132000000Y-111000000D03*
X130000000Y-111000000D03*
X128000000Y-111000000D03*
X126000000Y-111000000D03*
X132000000Y-109000000D03*
X130000000Y-109000000D03*
X128000000Y-109000000D03*
X126000000Y-109000000D03*
D14*
X129000000Y-113000000D03*
D15*
X136100000Y-110460000D03*
X136100000Y-111730000D03*
X136100000Y-113000000D03*
X136100000Y-114270000D03*
X136100000Y-115540000D03*
X121900000Y-115540000D03*
X121900000Y-114270000D03*
X121900000Y-113000000D03*
X121900000Y-111730000D03*
X121900000Y-110460000D03*
D10*
G36*
X159199505Y-122226204D02*
G01*
X159223773Y-122229804D01*
X159247572Y-122235765D01*
X159270671Y-122244030D01*
X159292850Y-122254520D01*
X159313893Y-122267132D01*
X159333599Y-122281747D01*
X159351777Y-122298223D01*
X159368253Y-122316401D01*
X159382868Y-122336107D01*
X159395480Y-122357150D01*
X159405970Y-122379329D01*
X159414235Y-122402428D01*
X159420196Y-122426227D01*
X159423796Y-122450495D01*
X159425000Y-122474999D01*
X159425000Y-123500001D01*
X159423796Y-123524505D01*
X159420196Y-123548773D01*
X159414235Y-123572572D01*
X159405970Y-123595671D01*
X159395480Y-123617850D01*
X159382868Y-123638893D01*
X159368253Y-123658599D01*
X159351777Y-123676777D01*
X159333599Y-123693253D01*
X159313893Y-123707868D01*
X159292850Y-123720480D01*
X159270671Y-123730970D01*
X159247572Y-123739235D01*
X159223773Y-123745196D01*
X159199505Y-123748796D01*
X159175001Y-123750000D01*
X156324999Y-123750000D01*
X156300495Y-123748796D01*
X156276227Y-123745196D01*
X156252428Y-123739235D01*
X156229329Y-123730970D01*
X156207150Y-123720480D01*
X156186107Y-123707868D01*
X156166401Y-123693253D01*
X156148223Y-123676777D01*
X156131747Y-123658599D01*
X156117132Y-123638893D01*
X156104520Y-123617850D01*
X156094030Y-123595671D01*
X156085765Y-123572572D01*
X156079804Y-123548773D01*
X156076204Y-123524505D01*
X156075000Y-123500001D01*
X156075000Y-122474999D01*
X156076204Y-122450495D01*
X156079804Y-122426227D01*
X156085765Y-122402428D01*
X156094030Y-122379329D01*
X156104520Y-122357150D01*
X156117132Y-122336107D01*
X156131747Y-122316401D01*
X156148223Y-122298223D01*
X156166401Y-122281747D01*
X156186107Y-122267132D01*
X156207150Y-122254520D01*
X156229329Y-122244030D01*
X156252428Y-122235765D01*
X156276227Y-122229804D01*
X156300495Y-122226204D01*
X156324999Y-122225000D01*
X159175001Y-122225000D01*
X159199505Y-122226204D01*
X159199505Y-122226204D01*
G37*
D16*
X157750000Y-122987500D03*
D10*
G36*
X159199505Y-116251204D02*
G01*
X159223773Y-116254804D01*
X159247572Y-116260765D01*
X159270671Y-116269030D01*
X159292850Y-116279520D01*
X159313893Y-116292132D01*
X159333599Y-116306747D01*
X159351777Y-116323223D01*
X159368253Y-116341401D01*
X159382868Y-116361107D01*
X159395480Y-116382150D01*
X159405970Y-116404329D01*
X159414235Y-116427428D01*
X159420196Y-116451227D01*
X159423796Y-116475495D01*
X159425000Y-116499999D01*
X159425000Y-117525001D01*
X159423796Y-117549505D01*
X159420196Y-117573773D01*
X159414235Y-117597572D01*
X159405970Y-117620671D01*
X159395480Y-117642850D01*
X159382868Y-117663893D01*
X159368253Y-117683599D01*
X159351777Y-117701777D01*
X159333599Y-117718253D01*
X159313893Y-117732868D01*
X159292850Y-117745480D01*
X159270671Y-117755970D01*
X159247572Y-117764235D01*
X159223773Y-117770196D01*
X159199505Y-117773796D01*
X159175001Y-117775000D01*
X156324999Y-117775000D01*
X156300495Y-117773796D01*
X156276227Y-117770196D01*
X156252428Y-117764235D01*
X156229329Y-117755970D01*
X156207150Y-117745480D01*
X156186107Y-117732868D01*
X156166401Y-117718253D01*
X156148223Y-117701777D01*
X156131747Y-117683599D01*
X156117132Y-117663893D01*
X156104520Y-117642850D01*
X156094030Y-117620671D01*
X156085765Y-117597572D01*
X156079804Y-117573773D01*
X156076204Y-117549505D01*
X156075000Y-117525001D01*
X156075000Y-116499999D01*
X156076204Y-116475495D01*
X156079804Y-116451227D01*
X156085765Y-116427428D01*
X156094030Y-116404329D01*
X156104520Y-116382150D01*
X156117132Y-116361107D01*
X156131747Y-116341401D01*
X156148223Y-116323223D01*
X156166401Y-116306747D01*
X156186107Y-116292132D01*
X156207150Y-116279520D01*
X156229329Y-116269030D01*
X156252428Y-116260765D01*
X156276227Y-116254804D01*
X156300495Y-116251204D01*
X156324999Y-116250000D01*
X159175001Y-116250000D01*
X159199505Y-116251204D01*
X159199505Y-116251204D01*
G37*
D16*
X157750000Y-117012500D03*
D10*
G36*
X138199505Y-122226204D02*
G01*
X138223773Y-122229804D01*
X138247572Y-122235765D01*
X138270671Y-122244030D01*
X138292850Y-122254520D01*
X138313893Y-122267132D01*
X138333599Y-122281747D01*
X138351777Y-122298223D01*
X138368253Y-122316401D01*
X138382868Y-122336107D01*
X138395480Y-122357150D01*
X138405970Y-122379329D01*
X138414235Y-122402428D01*
X138420196Y-122426227D01*
X138423796Y-122450495D01*
X138425000Y-122474999D01*
X138425000Y-123500001D01*
X138423796Y-123524505D01*
X138420196Y-123548773D01*
X138414235Y-123572572D01*
X138405970Y-123595671D01*
X138395480Y-123617850D01*
X138382868Y-123638893D01*
X138368253Y-123658599D01*
X138351777Y-123676777D01*
X138333599Y-123693253D01*
X138313893Y-123707868D01*
X138292850Y-123720480D01*
X138270671Y-123730970D01*
X138247572Y-123739235D01*
X138223773Y-123745196D01*
X138199505Y-123748796D01*
X138175001Y-123750000D01*
X135324999Y-123750000D01*
X135300495Y-123748796D01*
X135276227Y-123745196D01*
X135252428Y-123739235D01*
X135229329Y-123730970D01*
X135207150Y-123720480D01*
X135186107Y-123707868D01*
X135166401Y-123693253D01*
X135148223Y-123676777D01*
X135131747Y-123658599D01*
X135117132Y-123638893D01*
X135104520Y-123617850D01*
X135094030Y-123595671D01*
X135085765Y-123572572D01*
X135079804Y-123548773D01*
X135076204Y-123524505D01*
X135075000Y-123500001D01*
X135075000Y-122474999D01*
X135076204Y-122450495D01*
X135079804Y-122426227D01*
X135085765Y-122402428D01*
X135094030Y-122379329D01*
X135104520Y-122357150D01*
X135117132Y-122336107D01*
X135131747Y-122316401D01*
X135148223Y-122298223D01*
X135166401Y-122281747D01*
X135186107Y-122267132D01*
X135207150Y-122254520D01*
X135229329Y-122244030D01*
X135252428Y-122235765D01*
X135276227Y-122229804D01*
X135300495Y-122226204D01*
X135324999Y-122225000D01*
X138175001Y-122225000D01*
X138199505Y-122226204D01*
X138199505Y-122226204D01*
G37*
D16*
X136750000Y-122987500D03*
D10*
G36*
X138199505Y-116251204D02*
G01*
X138223773Y-116254804D01*
X138247572Y-116260765D01*
X138270671Y-116269030D01*
X138292850Y-116279520D01*
X138313893Y-116292132D01*
X138333599Y-116306747D01*
X138351777Y-116323223D01*
X138368253Y-116341401D01*
X138382868Y-116361107D01*
X138395480Y-116382150D01*
X138405970Y-116404329D01*
X138414235Y-116427428D01*
X138420196Y-116451227D01*
X138423796Y-116475495D01*
X138425000Y-116499999D01*
X138425000Y-117525001D01*
X138423796Y-117549505D01*
X138420196Y-117573773D01*
X138414235Y-117597572D01*
X138405970Y-117620671D01*
X138395480Y-117642850D01*
X138382868Y-117663893D01*
X138368253Y-117683599D01*
X138351777Y-117701777D01*
X138333599Y-117718253D01*
X138313893Y-117732868D01*
X138292850Y-117745480D01*
X138270671Y-117755970D01*
X138247572Y-117764235D01*
X138223773Y-117770196D01*
X138199505Y-117773796D01*
X138175001Y-117775000D01*
X135324999Y-117775000D01*
X135300495Y-117773796D01*
X135276227Y-117770196D01*
X135252428Y-117764235D01*
X135229329Y-117755970D01*
X135207150Y-117745480D01*
X135186107Y-117732868D01*
X135166401Y-117718253D01*
X135148223Y-117701777D01*
X135131747Y-117683599D01*
X135117132Y-117663893D01*
X135104520Y-117642850D01*
X135094030Y-117620671D01*
X135085765Y-117597572D01*
X135079804Y-117573773D01*
X135076204Y-117549505D01*
X135075000Y-117525001D01*
X135075000Y-116499999D01*
X135076204Y-116475495D01*
X135079804Y-116451227D01*
X135085765Y-116427428D01*
X135094030Y-116404329D01*
X135104520Y-116382150D01*
X135117132Y-116361107D01*
X135131747Y-116341401D01*
X135148223Y-116323223D01*
X135166401Y-116306747D01*
X135186107Y-116292132D01*
X135207150Y-116279520D01*
X135229329Y-116269030D01*
X135252428Y-116260765D01*
X135276227Y-116254804D01*
X135300495Y-116251204D01*
X135324999Y-116250000D01*
X138175001Y-116250000D01*
X138199505Y-116251204D01*
X138199505Y-116251204D01*
G37*
D16*
X136750000Y-117012500D03*
D17*
X132500000Y-103000000D03*
D18*
X129960000Y-103000000D03*
X127420000Y-103000000D03*
X127420000Y-123000000D03*
X129960000Y-123000000D03*
D17*
X132500000Y-123000000D03*
D18*
X108460000Y-101500000D03*
X111000000Y-101500000D03*
D17*
X113540000Y-101500000D03*
D19*
X157250000Y-109000000D03*
X157250000Y-107000000D03*
X143000000Y-119000000D03*
X143000000Y-117000000D03*
X143000000Y-107000000D03*
X143000000Y-109000000D03*
X136000000Y-109000000D03*
X136000000Y-107000000D03*
X122000000Y-117000000D03*
X122000000Y-119000000D03*
X122000000Y-107000000D03*
X122000000Y-109000000D03*
D20*
X115540000Y-120575820D03*
X108428000Y-121000000D03*
D21*
X102010000Y-120050000D03*
X102670000Y-120050000D03*
X103330000Y-120050000D03*
D22*
X103000000Y-119060000D03*
D21*
X103990000Y-120050000D03*
D23*
X102010000Y-117065000D03*
X102670000Y-117065000D03*
X103330000Y-117065000D03*
X103990000Y-117065000D03*
D10*
G36*
X116524504Y-111501204D02*
G01*
X116548773Y-111504804D01*
X116572571Y-111510765D01*
X116595671Y-111519030D01*
X116617849Y-111529520D01*
X116638893Y-111542133D01*
X116658598Y-111556747D01*
X116676777Y-111573223D01*
X116693253Y-111591402D01*
X116707867Y-111611107D01*
X116720480Y-111632151D01*
X116730970Y-111654329D01*
X116739235Y-111677429D01*
X116745196Y-111701227D01*
X116748796Y-111725496D01*
X116750000Y-111750000D01*
X116750000Y-115650000D01*
X116748796Y-115674504D01*
X116745196Y-115698773D01*
X116739235Y-115722571D01*
X116730970Y-115745671D01*
X116720480Y-115767849D01*
X116707867Y-115788893D01*
X116693253Y-115808598D01*
X116676777Y-115826777D01*
X116658598Y-115843253D01*
X116638893Y-115857867D01*
X116617849Y-115870480D01*
X116595671Y-115880970D01*
X116572571Y-115889235D01*
X116548773Y-115895196D01*
X116524504Y-115898796D01*
X116500000Y-115900000D01*
X114500000Y-115900000D01*
X114475496Y-115898796D01*
X114451227Y-115895196D01*
X114427429Y-115889235D01*
X114404329Y-115880970D01*
X114382151Y-115870480D01*
X114361107Y-115857867D01*
X114341402Y-115843253D01*
X114323223Y-115826777D01*
X114306747Y-115808598D01*
X114292133Y-115788893D01*
X114279520Y-115767849D01*
X114269030Y-115745671D01*
X114260765Y-115722571D01*
X114254804Y-115698773D01*
X114251204Y-115674504D01*
X114250000Y-115650000D01*
X114250000Y-111750000D01*
X114251204Y-111725496D01*
X114254804Y-111701227D01*
X114260765Y-111677429D01*
X114269030Y-111654329D01*
X114279520Y-111632151D01*
X114292133Y-111611107D01*
X114306747Y-111591402D01*
X114323223Y-111573223D01*
X114341402Y-111556747D01*
X114361107Y-111542133D01*
X114382151Y-111529520D01*
X114404329Y-111519030D01*
X114427429Y-111510765D01*
X114451227Y-111504804D01*
X114475496Y-111501204D01*
X114500000Y-111500000D01*
X116500000Y-111500000D01*
X116524504Y-111501204D01*
X116524504Y-111501204D01*
G37*
D11*
X115500000Y-113700000D03*
D10*
G36*
X116524504Y-104101204D02*
G01*
X116548773Y-104104804D01*
X116572571Y-104110765D01*
X116595671Y-104119030D01*
X116617849Y-104129520D01*
X116638893Y-104142133D01*
X116658598Y-104156747D01*
X116676777Y-104173223D01*
X116693253Y-104191402D01*
X116707867Y-104211107D01*
X116720480Y-104232151D01*
X116730970Y-104254329D01*
X116739235Y-104277429D01*
X116745196Y-104301227D01*
X116748796Y-104325496D01*
X116750000Y-104350000D01*
X116750000Y-108250000D01*
X116748796Y-108274504D01*
X116745196Y-108298773D01*
X116739235Y-108322571D01*
X116730970Y-108345671D01*
X116720480Y-108367849D01*
X116707867Y-108388893D01*
X116693253Y-108408598D01*
X116676777Y-108426777D01*
X116658598Y-108443253D01*
X116638893Y-108457867D01*
X116617849Y-108470480D01*
X116595671Y-108480970D01*
X116572571Y-108489235D01*
X116548773Y-108495196D01*
X116524504Y-108498796D01*
X116500000Y-108500000D01*
X114500000Y-108500000D01*
X114475496Y-108498796D01*
X114451227Y-108495196D01*
X114427429Y-108489235D01*
X114404329Y-108480970D01*
X114382151Y-108470480D01*
X114361107Y-108457867D01*
X114341402Y-108443253D01*
X114323223Y-108426777D01*
X114306747Y-108408598D01*
X114292133Y-108388893D01*
X114279520Y-108367849D01*
X114269030Y-108345671D01*
X114260765Y-108322571D01*
X114254804Y-108298773D01*
X114251204Y-108274504D01*
X114250000Y-108250000D01*
X114250000Y-104350000D01*
X114251204Y-104325496D01*
X114254804Y-104301227D01*
X114260765Y-104277429D01*
X114269030Y-104254329D01*
X114279520Y-104232151D01*
X114292133Y-104211107D01*
X114306747Y-104191402D01*
X114323223Y-104173223D01*
X114341402Y-104156747D01*
X114361107Y-104142133D01*
X114382151Y-104129520D01*
X114404329Y-104119030D01*
X114427429Y-104110765D01*
X114451227Y-104104804D01*
X114475496Y-104101204D01*
X114500000Y-104100000D01*
X116500000Y-104100000D01*
X116524504Y-104101204D01*
X116524504Y-104101204D01*
G37*
D11*
X115500000Y-106300000D03*
D24*
X112000000Y-110000000D03*
X115500000Y-109500000D03*
X102500000Y-109000000D03*
X118770710Y-115520710D03*
X118770710Y-109229290D03*
X120000000Y-112500000D03*
X141225002Y-112500000D03*
D25*
X115500000Y-106800000D02*
X115500000Y-109500000D01*
D26*
X106988000Y-119560000D02*
X108428000Y-121000000D01*
X102500000Y-119560000D02*
X106988000Y-119560000D01*
X103490000Y-116710000D02*
X106000000Y-114200000D01*
X116820710Y-115520710D02*
X115500000Y-114200000D01*
X118770710Y-115520710D02*
X116820710Y-115520710D01*
D27*
X102670000Y-117065000D02*
X103330000Y-117065000D01*
X103330000Y-117065000D02*
X103990000Y-117065000D01*
D25*
X108460000Y-113960000D02*
X108700000Y-114200000D01*
D27*
X108460000Y-101500000D02*
X108460000Y-113960000D01*
D26*
X106000000Y-114200000D02*
X108700000Y-114200000D01*
X108700000Y-114200000D02*
X115500000Y-114200000D01*
D25*
X121900000Y-109100000D02*
X122000000Y-109000000D01*
X121900000Y-110460000D02*
X121900000Y-109100000D01*
X119000000Y-109000000D02*
X118770710Y-109229290D01*
X122000000Y-109000000D02*
X119000000Y-109000000D01*
X143000000Y-110360000D02*
X142900000Y-110460000D01*
X143000000Y-109000000D02*
X143000000Y-110360000D01*
X141500000Y-109000000D02*
X141000000Y-108500000D01*
X143000000Y-109000000D02*
X141500000Y-109000000D01*
X141000000Y-108500000D02*
X141000000Y-107500000D01*
X141000000Y-107500000D02*
X138500000Y-105000000D01*
X129420000Y-105000000D02*
X138500000Y-105000000D01*
X127420000Y-103000000D02*
X129420000Y-105000000D01*
D26*
X122125000Y-117000000D02*
X122000000Y-117000000D01*
X122000000Y-117000000D02*
X122000000Y-116000000D01*
X121500000Y-117000000D02*
X120674999Y-117825001D01*
X129960000Y-121460000D02*
X129960000Y-123000000D01*
X122000000Y-117000000D02*
X121500000Y-117000000D01*
X121000000Y-120500000D02*
X129000000Y-120500000D01*
X129000000Y-120500000D02*
X129960000Y-121460000D01*
X120674999Y-117825001D02*
X120674999Y-120174999D01*
X120674999Y-120174999D02*
X121000000Y-120500000D01*
D25*
X137575000Y-111730000D02*
X138000000Y-111305000D01*
X136100000Y-111730000D02*
X137575000Y-111730000D01*
X138000000Y-111305000D02*
X138000000Y-110000000D01*
X137000000Y-109000000D02*
X136000000Y-109000000D01*
X138000000Y-110000000D02*
X137000000Y-109000000D01*
X136000000Y-109000000D02*
X136500000Y-109000000D01*
D26*
X142250000Y-117000000D02*
X143000000Y-117000000D01*
X141000000Y-124750000D02*
X141500000Y-124250000D01*
X141500000Y-117750000D02*
X142250000Y-117000000D01*
X132500000Y-123000000D02*
X134250000Y-124750000D01*
X141500000Y-124250000D02*
X141500000Y-117750000D01*
X134250000Y-124750000D02*
X141000000Y-124750000D01*
X143000000Y-117000000D02*
X143000000Y-116000000D01*
D25*
X159000000Y-110000000D02*
X159000000Y-111305000D01*
X157250000Y-109000000D02*
X158000000Y-109000000D01*
X158575000Y-111730000D02*
X157100000Y-111730000D01*
X159000000Y-111305000D02*
X158575000Y-111730000D01*
X158000000Y-109000000D02*
X159000000Y-110000000D01*
X121900000Y-113000000D02*
X121900000Y-111730000D01*
X142900000Y-113000000D02*
X142900000Y-111730000D01*
X120500000Y-113000000D02*
X120000000Y-112500000D01*
X121900000Y-113000000D02*
X120500000Y-113000000D01*
X119500000Y-112500000D02*
X120000000Y-112500000D01*
X117500000Y-110500000D02*
X119500000Y-112500000D01*
X114500000Y-110500000D02*
X117500000Y-110500000D01*
X113540000Y-109540000D02*
X114500000Y-110500000D01*
X113540000Y-101500000D02*
X113540000Y-103540000D01*
X113540000Y-103540000D02*
X113540000Y-109540000D01*
X141725002Y-113000000D02*
X141225002Y-112500000D01*
X142900000Y-113000000D02*
X141725002Y-113000000D01*
X123325011Y-105825011D02*
X121040000Y-103540000D01*
X121040000Y-103540000D02*
X113540000Y-103540000D01*
X138325011Y-105825011D02*
X123325011Y-105825011D01*
X140500000Y-108000000D02*
X138325011Y-105825011D01*
X140500000Y-111774998D02*
X140500000Y-108000000D01*
X141225002Y-112500000D02*
X140500000Y-111774998D01*
D26*
X136750000Y-116150000D02*
X136600000Y-116000000D01*
X136750000Y-117012500D02*
X136750000Y-116150000D01*
X136600000Y-116000000D02*
X136000000Y-116000000D01*
X136100000Y-115540000D02*
X136100000Y-115400000D01*
X136100000Y-114270000D02*
X136100000Y-115400000D01*
X136100000Y-114270000D02*
X136770000Y-114270000D01*
X136770000Y-114270000D02*
X137000000Y-114500000D01*
X137000000Y-114500000D02*
X137000000Y-115000000D01*
X157750000Y-116150000D02*
X157600000Y-116000000D01*
X157750000Y-117012500D02*
X157750000Y-116150000D01*
X157600000Y-116000000D02*
X157000000Y-116000000D01*
X157100000Y-115540000D02*
X157100000Y-114270000D01*
X157100000Y-114270000D02*
X157770000Y-114270000D01*
X157770000Y-114270000D02*
X158000000Y-114500000D01*
X158000000Y-114500000D02*
X158000000Y-115000000D01*
D28*
G36*
X161458149Y-100734636D02*
G01*
X161240915Y-101059750D01*
X161091282Y-101420997D01*
X161015000Y-101804495D01*
X161015000Y-102195505D01*
X161091282Y-102579003D01*
X161240915Y-102940250D01*
X161458149Y-103265364D01*
X161734636Y-103541851D01*
X162059750Y-103759085D01*
X162420997Y-103908718D01*
X162804495Y-103985000D01*
X163195505Y-103985000D01*
X163579003Y-103908718D01*
X163940250Y-103759085D01*
X164265364Y-103541851D01*
X164340001Y-103467214D01*
X164340000Y-122532785D01*
X164265364Y-122458149D01*
X163940250Y-122240915D01*
X163579003Y-122091282D01*
X163195505Y-122015000D01*
X162804495Y-122015000D01*
X162420997Y-122091282D01*
X162059750Y-122240915D01*
X161734636Y-122458149D01*
X161458149Y-122734636D01*
X161240915Y-123059750D01*
X161091282Y-123420997D01*
X161015000Y-123804495D01*
X161015000Y-124195505D01*
X161091282Y-124579003D01*
X161240915Y-124940250D01*
X161458149Y-125265364D01*
X161532785Y-125340000D01*
X142015131Y-125340000D01*
X142263135Y-125091996D01*
X142306449Y-125056449D01*
X142448284Y-124883623D01*
X142553676Y-124686447D01*
X142618577Y-124472499D01*
X142635000Y-124305752D01*
X142635000Y-124305751D01*
X142640491Y-124250000D01*
X142635000Y-124194248D01*
X142635000Y-118220131D01*
X142717059Y-118138072D01*
X142975439Y-118138072D01*
X143000000Y-118140491D01*
X143024561Y-118138072D01*
X143625000Y-118138072D01*
X143749482Y-118125812D01*
X143869180Y-118089502D01*
X143979494Y-118030537D01*
X144076185Y-117951185D01*
X144155537Y-117854494D01*
X144214502Y-117744180D01*
X144231396Y-117688485D01*
X146491120Y-117688485D01*
X146510899Y-117889255D01*
X146693782Y-117967587D01*
X146888433Y-118008735D01*
X147087372Y-118011118D01*
X147282952Y-117974644D01*
X147467659Y-117900715D01*
X147489101Y-117889255D01*
X147508880Y-117688485D01*
X148491120Y-117688485D01*
X148510899Y-117889255D01*
X148693782Y-117967587D01*
X148888433Y-118008735D01*
X149087372Y-118011118D01*
X149282952Y-117974644D01*
X149467659Y-117900715D01*
X149489101Y-117889255D01*
X149508880Y-117688485D01*
X150491120Y-117688485D01*
X150510899Y-117889255D01*
X150693782Y-117967587D01*
X150888433Y-118008735D01*
X151087372Y-118011118D01*
X151282952Y-117974644D01*
X151467659Y-117900715D01*
X151489101Y-117889255D01*
X151508880Y-117688485D01*
X152491120Y-117688485D01*
X152510899Y-117889255D01*
X152693782Y-117967587D01*
X152888433Y-118008735D01*
X153087372Y-118011118D01*
X153282952Y-117974644D01*
X153467659Y-117900715D01*
X153489101Y-117889255D01*
X153508880Y-117688485D01*
X153000000Y-117179605D01*
X152491120Y-117688485D01*
X151508880Y-117688485D01*
X151000000Y-117179605D01*
X150491120Y-117688485D01*
X149508880Y-117688485D01*
X149000000Y-117179605D01*
X148491120Y-117688485D01*
X147508880Y-117688485D01*
X147000000Y-117179605D01*
X146491120Y-117688485D01*
X144231396Y-117688485D01*
X144250812Y-117624482D01*
X144263072Y-117500000D01*
X144263072Y-117087372D01*
X145988882Y-117087372D01*
X146025356Y-117282952D01*
X146099285Y-117467659D01*
X146110745Y-117489101D01*
X146311515Y-117508880D01*
X146820395Y-117000000D01*
X147179605Y-117000000D01*
X147688485Y-117508880D01*
X147889255Y-117489101D01*
X147967587Y-117306218D01*
X148000585Y-117150123D01*
X148025356Y-117282952D01*
X148099285Y-117467659D01*
X148110745Y-117489101D01*
X148311515Y-117508880D01*
X148820395Y-117000000D01*
X149179605Y-117000000D01*
X149688485Y-117508880D01*
X149889255Y-117489101D01*
X149967587Y-117306218D01*
X150000585Y-117150123D01*
X150025356Y-117282952D01*
X150099285Y-117467659D01*
X150110745Y-117489101D01*
X150311515Y-117508880D01*
X150820395Y-117000000D01*
X151179605Y-117000000D01*
X151688485Y-117508880D01*
X151889255Y-117489101D01*
X151967587Y-117306218D01*
X152000585Y-117150123D01*
X152025356Y-117282952D01*
X152099285Y-117467659D01*
X152110745Y-117489101D01*
X152311515Y-117508880D01*
X152820395Y-117000000D01*
X153179605Y-117000000D01*
X153688485Y-117508880D01*
X153889255Y-117489101D01*
X153967587Y-117306218D01*
X154008735Y-117111567D01*
X154011118Y-116912628D01*
X153974644Y-116717048D01*
X153900715Y-116532341D01*
X153889255Y-116510899D01*
X153688485Y-116491120D01*
X153179605Y-117000000D01*
X152820395Y-117000000D01*
X152311515Y-116491120D01*
X152110745Y-116510899D01*
X152032413Y-116693782D01*
X151999415Y-116849877D01*
X151974644Y-116717048D01*
X151900715Y-116532341D01*
X151889255Y-116510899D01*
X151688485Y-116491120D01*
X151179605Y-117000000D01*
X150820395Y-117000000D01*
X150311515Y-116491120D01*
X150110745Y-116510899D01*
X150032413Y-116693782D01*
X149999415Y-116849877D01*
X149974644Y-116717048D01*
X149900715Y-116532341D01*
X149889255Y-116510899D01*
X149688485Y-116491120D01*
X149179605Y-117000000D01*
X148820395Y-117000000D01*
X148311515Y-116491120D01*
X148110745Y-116510899D01*
X148032413Y-116693782D01*
X147999415Y-116849877D01*
X147974644Y-116717048D01*
X147900715Y-116532341D01*
X147889255Y-116510899D01*
X147688485Y-116491120D01*
X147179605Y-117000000D01*
X146820395Y-117000000D01*
X146311515Y-116491120D01*
X146110745Y-116510899D01*
X146032413Y-116693782D01*
X145991265Y-116888433D01*
X145988882Y-117087372D01*
X144263072Y-117087372D01*
X144263072Y-116500000D01*
X144254627Y-116414251D01*
X144369180Y-116379502D01*
X144479494Y-116320537D01*
X144576185Y-116241185D01*
X144655537Y-116144494D01*
X144714502Y-116034180D01*
X144750812Y-115914482D01*
X144763072Y-115790000D01*
X144763072Y-115688485D01*
X146491120Y-115688485D01*
X146510899Y-115889255D01*
X146693782Y-115967587D01*
X146849877Y-116000585D01*
X146717048Y-116025356D01*
X146532341Y-116099285D01*
X146510899Y-116110745D01*
X146491120Y-116311515D01*
X147000000Y-116820395D01*
X147508880Y-116311515D01*
X147489101Y-116110745D01*
X147306218Y-116032413D01*
X147150123Y-115999415D01*
X147282952Y-115974644D01*
X147467659Y-115900715D01*
X147489101Y-115889255D01*
X147508880Y-115688485D01*
X148491120Y-115688485D01*
X148510899Y-115889255D01*
X148693782Y-115967587D01*
X148849877Y-116000585D01*
X148717048Y-116025356D01*
X148532341Y-116099285D01*
X148510899Y-116110745D01*
X148491120Y-116311515D01*
X149000000Y-116820395D01*
X149508880Y-116311515D01*
X149489101Y-116110745D01*
X149306218Y-116032413D01*
X149150123Y-115999415D01*
X149282952Y-115974644D01*
X149467659Y-115900715D01*
X149489101Y-115889255D01*
X149508880Y-115688485D01*
X150491120Y-115688485D01*
X150510899Y-115889255D01*
X150693782Y-115967587D01*
X150849877Y-116000585D01*
X150717048Y-116025356D01*
X150532341Y-116099285D01*
X150510899Y-116110745D01*
X150491120Y-116311515D01*
X151000000Y-116820395D01*
X151508880Y-116311515D01*
X151489101Y-116110745D01*
X151306218Y-116032413D01*
X151150123Y-115999415D01*
X151282952Y-115974644D01*
X151467659Y-115900715D01*
X151489101Y-115889255D01*
X151508880Y-115688485D01*
X152491120Y-115688485D01*
X152510899Y-115889255D01*
X152693782Y-115967587D01*
X152849877Y-116000585D01*
X152717048Y-116025356D01*
X152532341Y-116099285D01*
X152510899Y-116110745D01*
X152491120Y-116311515D01*
X153000000Y-116820395D01*
X153508880Y-116311515D01*
X153489101Y-116110745D01*
X153306218Y-116032413D01*
X153150123Y-115999415D01*
X153282952Y-115974644D01*
X153467659Y-115900715D01*
X153489101Y-115889255D01*
X153508880Y-115688485D01*
X153000000Y-115179605D01*
X152491120Y-115688485D01*
X151508880Y-115688485D01*
X151000000Y-115179605D01*
X150491120Y-115688485D01*
X149508880Y-115688485D01*
X149000000Y-115179605D01*
X148491120Y-115688485D01*
X147508880Y-115688485D01*
X147000000Y-115179605D01*
X146491120Y-115688485D01*
X144763072Y-115688485D01*
X144763072Y-115290000D01*
X144750812Y-115165518D01*
X144727107Y-115087372D01*
X145988882Y-115087372D01*
X146025356Y-115282952D01*
X146099285Y-115467659D01*
X146110745Y-115489101D01*
X146311515Y-115508880D01*
X146820395Y-115000000D01*
X147179605Y-115000000D01*
X147688485Y-115508880D01*
X147889255Y-115489101D01*
X147967587Y-115306218D01*
X148000585Y-115150123D01*
X148025356Y-115282952D01*
X148099285Y-115467659D01*
X148110745Y-115489101D01*
X148311515Y-115508880D01*
X148820395Y-115000000D01*
X149179605Y-115000000D01*
X149688485Y-115508880D01*
X149889255Y-115489101D01*
X149967587Y-115306218D01*
X150000585Y-115150123D01*
X150025356Y-115282952D01*
X150099285Y-115467659D01*
X150110745Y-115489101D01*
X150311515Y-115508880D01*
X150820395Y-115000000D01*
X151179605Y-115000000D01*
X151688485Y-115508880D01*
X151889255Y-115489101D01*
X151967587Y-115306218D01*
X152000585Y-115150123D01*
X152025356Y-115282952D01*
X152099285Y-115467659D01*
X152110745Y-115489101D01*
X152311515Y-115508880D01*
X152820395Y-115000000D01*
X153179605Y-115000000D01*
X153688485Y-115508880D01*
X153889255Y-115489101D01*
X153967587Y-115306218D01*
X154008735Y-115111567D01*
X154011118Y-114912628D01*
X153974644Y-114717048D01*
X153900715Y-114532341D01*
X153889255Y-114510899D01*
X153688485Y-114491120D01*
X153179605Y-115000000D01*
X152820395Y-115000000D01*
X152311515Y-114491120D01*
X152110745Y-114510899D01*
X152032413Y-114693782D01*
X151999415Y-114849877D01*
X151974644Y-114717048D01*
X151900715Y-114532341D01*
X151889255Y-114510899D01*
X151688485Y-114491120D01*
X151179605Y-115000000D01*
X150820395Y-115000000D01*
X150311515Y-114491120D01*
X150110745Y-114510899D01*
X150032413Y-114693782D01*
X149999415Y-114849877D01*
X149974644Y-114717048D01*
X149900715Y-114532341D01*
X149889255Y-114510899D01*
X149688485Y-114491120D01*
X149179605Y-115000000D01*
X148820395Y-115000000D01*
X148311515Y-114491120D01*
X148110745Y-114510899D01*
X148032413Y-114693782D01*
X147999415Y-114849877D01*
X147974644Y-114717048D01*
X147900715Y-114532341D01*
X147889255Y-114510899D01*
X147688485Y-114491120D01*
X147179605Y-115000000D01*
X146820395Y-115000000D01*
X146311515Y-114491120D01*
X146110745Y-114510899D01*
X146032413Y-114693782D01*
X145991265Y-114888433D01*
X145988882Y-115087372D01*
X144727107Y-115087372D01*
X144714502Y-115045820D01*
X144655537Y-114935506D01*
X144630501Y-114905000D01*
X144655537Y-114874494D01*
X144714502Y-114764180D01*
X144750812Y-114644482D01*
X144763072Y-114520000D01*
X144763072Y-114020000D01*
X144750812Y-113895518D01*
X144714502Y-113775820D01*
X144667820Y-113688485D01*
X146491120Y-113688485D01*
X146510899Y-113889255D01*
X146693782Y-113967587D01*
X146849877Y-114000585D01*
X146717048Y-114025356D01*
X146532341Y-114099285D01*
X146510899Y-114110745D01*
X146491120Y-114311515D01*
X147000000Y-114820395D01*
X147508880Y-114311515D01*
X147489101Y-114110745D01*
X147306218Y-114032413D01*
X147150123Y-113999415D01*
X147282952Y-113974644D01*
X147467659Y-113900715D01*
X147489101Y-113889255D01*
X147508880Y-113688485D01*
X148491120Y-113688485D01*
X148510899Y-113889255D01*
X148693782Y-113967587D01*
X148849877Y-114000585D01*
X148717048Y-114025356D01*
X148532341Y-114099285D01*
X148510899Y-114110745D01*
X148491120Y-114311515D01*
X149000000Y-114820395D01*
X149508880Y-114311515D01*
X149489101Y-114110745D01*
X149306218Y-114032413D01*
X149150123Y-113999415D01*
X149282952Y-113974644D01*
X149467659Y-113900715D01*
X149489101Y-113889255D01*
X149508880Y-113688485D01*
X150491120Y-113688485D01*
X150510899Y-113889255D01*
X150693782Y-113967587D01*
X150849877Y-114000585D01*
X150717048Y-114025356D01*
X150532341Y-114099285D01*
X150510899Y-114110745D01*
X150491120Y-114311515D01*
X151000000Y-114820395D01*
X151508880Y-114311515D01*
X151489101Y-114110745D01*
X151306218Y-114032413D01*
X151150123Y-113999415D01*
X151282952Y-113974644D01*
X151467659Y-113900715D01*
X151489101Y-113889255D01*
X151508880Y-113688485D01*
X152491120Y-113688485D01*
X152510899Y-113889255D01*
X152693782Y-113967587D01*
X152849877Y-114000585D01*
X152717048Y-114025356D01*
X152532341Y-114099285D01*
X152510899Y-114110745D01*
X152491120Y-114311515D01*
X153000000Y-114820395D01*
X153508880Y-114311515D01*
X153489101Y-114110745D01*
X153306218Y-114032413D01*
X153247500Y-114020000D01*
X155236928Y-114020000D01*
X155236928Y-114520000D01*
X155249188Y-114644482D01*
X155285498Y-114764180D01*
X155344463Y-114874494D01*
X155369499Y-114905000D01*
X155344463Y-114935506D01*
X155285498Y-115045820D01*
X155249188Y-115165518D01*
X155236928Y-115290000D01*
X155236928Y-115790000D01*
X155249188Y-115914482D01*
X155285498Y-116034180D01*
X155344463Y-116144494D01*
X155423815Y-116241185D01*
X155468758Y-116278068D01*
X155453992Y-116326745D01*
X155436928Y-116499999D01*
X155436928Y-117525001D01*
X155453992Y-117698255D01*
X155504528Y-117864851D01*
X155586595Y-118018387D01*
X155697038Y-118152962D01*
X155831613Y-118263405D01*
X155985149Y-118345472D01*
X156151745Y-118396008D01*
X156324999Y-118413072D01*
X159175001Y-118413072D01*
X159348255Y-118396008D01*
X159514851Y-118345472D01*
X159668387Y-118263405D01*
X159802962Y-118152962D01*
X159913405Y-118018387D01*
X159995472Y-117864851D01*
X160046008Y-117698255D01*
X160063072Y-117525001D01*
X160063072Y-116499999D01*
X160046008Y-116326745D01*
X159995472Y-116160149D01*
X159913405Y-116006613D01*
X159802962Y-115872038D01*
X159668387Y-115761595D01*
X159514851Y-115679528D01*
X159348255Y-115628992D01*
X159175001Y-115611928D01*
X158963072Y-115611928D01*
X158963072Y-115605956D01*
X159053676Y-115436446D01*
X159118577Y-115222498D01*
X159135000Y-115055751D01*
X159135000Y-114555751D01*
X159140491Y-114499999D01*
X159118577Y-114277500D01*
X159106323Y-114237106D01*
X159053676Y-114063553D01*
X158948284Y-113866377D01*
X158938271Y-113854176D01*
X158914502Y-113775820D01*
X158855537Y-113665506D01*
X158776185Y-113568815D01*
X158679494Y-113489463D01*
X158569180Y-113430498D01*
X158516820Y-113414615D01*
X158403623Y-113321716D01*
X158206447Y-113216324D01*
X157992499Y-113151423D01*
X157825752Y-113135000D01*
X157825751Y-113135000D01*
X157770000Y-113129509D01*
X157714249Y-113135000D01*
X157155752Y-113135000D01*
X157100000Y-113129509D01*
X157044249Y-113135000D01*
X157044248Y-113135000D01*
X156877501Y-113151423D01*
X156663553Y-113216324D01*
X156466377Y-113321716D01*
X156393009Y-113381928D01*
X155875000Y-113381928D01*
X155750518Y-113394188D01*
X155630820Y-113430498D01*
X155520506Y-113489463D01*
X155423815Y-113568815D01*
X155344463Y-113665506D01*
X155285498Y-113775820D01*
X155249188Y-113895518D01*
X155236928Y-114020000D01*
X153247500Y-114020000D01*
X153150123Y-113999415D01*
X153282952Y-113974644D01*
X153467659Y-113900715D01*
X153489101Y-113889255D01*
X153508880Y-113688485D01*
X153000000Y-113179605D01*
X152491120Y-113688485D01*
X151508880Y-113688485D01*
X151000000Y-113179605D01*
X150491120Y-113688485D01*
X149508880Y-113688485D01*
X149000000Y-113179605D01*
X148491120Y-113688485D01*
X147508880Y-113688485D01*
X147000000Y-113179605D01*
X146491120Y-113688485D01*
X144667820Y-113688485D01*
X144655537Y-113665506D01*
X144630501Y-113635000D01*
X144655537Y-113604494D01*
X144714502Y-113494180D01*
X144750812Y-113374482D01*
X144763072Y-113250000D01*
X144763072Y-113087372D01*
X145988882Y-113087372D01*
X146025356Y-113282952D01*
X146099285Y-113467659D01*
X146110745Y-113489101D01*
X146311515Y-113508880D01*
X146820395Y-113000000D01*
X147179605Y-113000000D01*
X147688485Y-113508880D01*
X147889255Y-113489101D01*
X147967587Y-113306218D01*
X148000585Y-113150123D01*
X148025356Y-113282952D01*
X148099285Y-113467659D01*
X148110745Y-113489101D01*
X148311515Y-113508880D01*
X148820395Y-113000000D01*
X149179605Y-113000000D01*
X149688485Y-113508880D01*
X149889255Y-113489101D01*
X149967587Y-113306218D01*
X150000585Y-113150123D01*
X150025356Y-113282952D01*
X150099285Y-113467659D01*
X150110745Y-113489101D01*
X150311515Y-113508880D01*
X150820395Y-113000000D01*
X151179605Y-113000000D01*
X151688485Y-113508880D01*
X151889255Y-113489101D01*
X151967587Y-113306218D01*
X152000585Y-113150123D01*
X152025356Y-113282952D01*
X152099285Y-113467659D01*
X152110745Y-113489101D01*
X152311515Y-113508880D01*
X152820395Y-113000000D01*
X153179605Y-113000000D01*
X153688485Y-113508880D01*
X153889255Y-113489101D01*
X153967587Y-113306218D01*
X154008735Y-113111567D01*
X154011118Y-112912628D01*
X153974644Y-112717048D01*
X153900715Y-112532341D01*
X153889255Y-112510899D01*
X153688485Y-112491120D01*
X153179605Y-113000000D01*
X152820395Y-113000000D01*
X152311515Y-112491120D01*
X152110745Y-112510899D01*
X152032413Y-112693782D01*
X151999415Y-112849877D01*
X151974644Y-112717048D01*
X151900715Y-112532341D01*
X151889255Y-112510899D01*
X151688485Y-112491120D01*
X151179605Y-113000000D01*
X150820395Y-113000000D01*
X150311515Y-112491120D01*
X150110745Y-112510899D01*
X150032413Y-112693782D01*
X149999415Y-112849877D01*
X149974644Y-112717048D01*
X149900715Y-112532341D01*
X149889255Y-112510899D01*
X149688485Y-112491120D01*
X149179605Y-113000000D01*
X148820395Y-113000000D01*
X148311515Y-112491120D01*
X148110745Y-112510899D01*
X148032413Y-112693782D01*
X147999415Y-112849877D01*
X147974644Y-112717048D01*
X147900715Y-112532341D01*
X147889255Y-112510899D01*
X147688485Y-112491120D01*
X147179605Y-113000000D01*
X146820395Y-113000000D01*
X146311515Y-112491120D01*
X146110745Y-112510899D01*
X146032413Y-112693782D01*
X145991265Y-112888433D01*
X145988882Y-113087372D01*
X144763072Y-113087372D01*
X144763072Y-112750000D01*
X144750812Y-112625518D01*
X144714502Y-112505820D01*
X144655537Y-112395506D01*
X144630501Y-112365000D01*
X144655537Y-112334494D01*
X144714502Y-112224180D01*
X144750812Y-112104482D01*
X144763072Y-111980000D01*
X144763072Y-111688485D01*
X146491120Y-111688485D01*
X146510899Y-111889255D01*
X146693782Y-111967587D01*
X146849877Y-112000585D01*
X146717048Y-112025356D01*
X146532341Y-112099285D01*
X146510899Y-112110745D01*
X146491120Y-112311515D01*
X147000000Y-112820395D01*
X147508880Y-112311515D01*
X147489101Y-112110745D01*
X147306218Y-112032413D01*
X147150123Y-111999415D01*
X147282952Y-111974644D01*
X147467659Y-111900715D01*
X147489101Y-111889255D01*
X147508880Y-111688485D01*
X148491120Y-111688485D01*
X148510899Y-111889255D01*
X148693782Y-111967587D01*
X148849877Y-112000585D01*
X148717048Y-112025356D01*
X148532341Y-112099285D01*
X148510899Y-112110745D01*
X148491120Y-112311515D01*
X149000000Y-112820395D01*
X149508880Y-112311515D01*
X149489101Y-112110745D01*
X149306218Y-112032413D01*
X149150123Y-111999415D01*
X149282952Y-111974644D01*
X149467659Y-111900715D01*
X149489101Y-111889255D01*
X149508880Y-111688485D01*
X150491120Y-111688485D01*
X150510899Y-111889255D01*
X150693782Y-111967587D01*
X150849877Y-112000585D01*
X150717048Y-112025356D01*
X150532341Y-112099285D01*
X150510899Y-112110745D01*
X150491120Y-112311515D01*
X151000000Y-112820395D01*
X151508880Y-112311515D01*
X151489101Y-112110745D01*
X151306218Y-112032413D01*
X151150123Y-111999415D01*
X151282952Y-111974644D01*
X151467659Y-111900715D01*
X151489101Y-111889255D01*
X151508880Y-111688485D01*
X152491120Y-111688485D01*
X152510899Y-111889255D01*
X152693782Y-111967587D01*
X152849877Y-112000585D01*
X152717048Y-112025356D01*
X152532341Y-112099285D01*
X152510899Y-112110745D01*
X152491120Y-112311515D01*
X153000000Y-112820395D01*
X153508880Y-112311515D01*
X153489101Y-112110745D01*
X153306218Y-112032413D01*
X153150123Y-111999415D01*
X153282952Y-111974644D01*
X153467659Y-111900715D01*
X153489101Y-111889255D01*
X153508880Y-111688485D01*
X153000000Y-111179605D01*
X152491120Y-111688485D01*
X151508880Y-111688485D01*
X151000000Y-111179605D01*
X150491120Y-111688485D01*
X149508880Y-111688485D01*
X149000000Y-111179605D01*
X148491120Y-111688485D01*
X147508880Y-111688485D01*
X147000000Y-111179605D01*
X146491120Y-111688485D01*
X144763072Y-111688485D01*
X144763072Y-111480000D01*
X144750812Y-111355518D01*
X144714502Y-111235820D01*
X144655537Y-111125506D01*
X144630501Y-111095000D01*
X144636761Y-111087372D01*
X145988882Y-111087372D01*
X146025356Y-111282952D01*
X146099285Y-111467659D01*
X146110745Y-111489101D01*
X146311515Y-111508880D01*
X146820395Y-111000000D01*
X147179605Y-111000000D01*
X147688485Y-111508880D01*
X147889255Y-111489101D01*
X147967587Y-111306218D01*
X148000585Y-111150123D01*
X148025356Y-111282952D01*
X148099285Y-111467659D01*
X148110745Y-111489101D01*
X148311515Y-111508880D01*
X148820395Y-111000000D01*
X149179605Y-111000000D01*
X149688485Y-111508880D01*
X149889255Y-111489101D01*
X149967587Y-111306218D01*
X150000585Y-111150123D01*
X150025356Y-111282952D01*
X150099285Y-111467659D01*
X150110745Y-111489101D01*
X150311515Y-111508880D01*
X150820395Y-111000000D01*
X151179605Y-111000000D01*
X151688485Y-111508880D01*
X151889255Y-111489101D01*
X151967587Y-111306218D01*
X152000585Y-111150123D01*
X152025356Y-111282952D01*
X152099285Y-111467659D01*
X152110745Y-111489101D01*
X152311515Y-111508880D01*
X152820395Y-111000000D01*
X153179605Y-111000000D01*
X153688485Y-111508880D01*
X153889255Y-111489101D01*
X153967587Y-111306218D01*
X154008735Y-111111567D01*
X154011118Y-110912628D01*
X153974644Y-110717048D01*
X153900715Y-110532341D01*
X153889255Y-110510899D01*
X153688485Y-110491120D01*
X153179605Y-111000000D01*
X152820395Y-111000000D01*
X152311515Y-110491120D01*
X152110745Y-110510899D01*
X152032413Y-110693782D01*
X151999415Y-110849877D01*
X151974644Y-110717048D01*
X151900715Y-110532341D01*
X151889255Y-110510899D01*
X151688485Y-110491120D01*
X151179605Y-111000000D01*
X150820395Y-111000000D01*
X150311515Y-110491120D01*
X150110745Y-110510899D01*
X150032413Y-110693782D01*
X149999415Y-110849877D01*
X149974644Y-110717048D01*
X149900715Y-110532341D01*
X149889255Y-110510899D01*
X149688485Y-110491120D01*
X149179605Y-111000000D01*
X148820395Y-111000000D01*
X148311515Y-110491120D01*
X148110745Y-110510899D01*
X148032413Y-110693782D01*
X147999415Y-110849877D01*
X147974644Y-110717048D01*
X147900715Y-110532341D01*
X147889255Y-110510899D01*
X147688485Y-110491120D01*
X147179605Y-111000000D01*
X146820395Y-111000000D01*
X146311515Y-110491120D01*
X146110745Y-110510899D01*
X146032413Y-110693782D01*
X145991265Y-110888433D01*
X145988882Y-111087372D01*
X144636761Y-111087372D01*
X144655537Y-111064494D01*
X144714502Y-110954180D01*
X144750812Y-110834482D01*
X144763072Y-110710000D01*
X144763072Y-110210000D01*
X144750812Y-110085518D01*
X144714502Y-109965820D01*
X144655537Y-109855506D01*
X144576185Y-109758815D01*
X144490488Y-109688485D01*
X146491120Y-109688485D01*
X146510899Y-109889255D01*
X146693782Y-109967587D01*
X146849877Y-110000585D01*
X146717048Y-110025356D01*
X146532341Y-110099285D01*
X146510899Y-110110745D01*
X146491120Y-110311515D01*
X147000000Y-110820395D01*
X147508880Y-110311515D01*
X147489101Y-110110745D01*
X147306218Y-110032413D01*
X147150123Y-109999415D01*
X147282952Y-109974644D01*
X147467659Y-109900715D01*
X147489101Y-109889255D01*
X147508880Y-109688485D01*
X148491120Y-109688485D01*
X148510899Y-109889255D01*
X148693782Y-109967587D01*
X148849877Y-110000585D01*
X148717048Y-110025356D01*
X148532341Y-110099285D01*
X148510899Y-110110745D01*
X148491120Y-110311515D01*
X149000000Y-110820395D01*
X149508880Y-110311515D01*
X149489101Y-110110745D01*
X149306218Y-110032413D01*
X149150123Y-109999415D01*
X149282952Y-109974644D01*
X149467659Y-109900715D01*
X149489101Y-109889255D01*
X149508880Y-109688485D01*
X150491120Y-109688485D01*
X150510899Y-109889255D01*
X150693782Y-109967587D01*
X150849877Y-110000585D01*
X150717048Y-110025356D01*
X150532341Y-110099285D01*
X150510899Y-110110745D01*
X150491120Y-110311515D01*
X151000000Y-110820395D01*
X151508880Y-110311515D01*
X151489101Y-110110745D01*
X151306218Y-110032413D01*
X151150123Y-109999415D01*
X151282952Y-109974644D01*
X151467659Y-109900715D01*
X151489101Y-109889255D01*
X151508880Y-109688485D01*
X152491120Y-109688485D01*
X152510899Y-109889255D01*
X152693782Y-109967587D01*
X152849877Y-110000585D01*
X152717048Y-110025356D01*
X152532341Y-110099285D01*
X152510899Y-110110745D01*
X152491120Y-110311515D01*
X153000000Y-110820395D01*
X153508880Y-110311515D01*
X153498880Y-110210000D01*
X155236928Y-110210000D01*
X155236928Y-110710000D01*
X155249188Y-110834482D01*
X155285498Y-110954180D01*
X155344463Y-111064494D01*
X155369499Y-111095000D01*
X155344463Y-111125506D01*
X155285498Y-111235820D01*
X155249188Y-111355518D01*
X155236928Y-111480000D01*
X155236928Y-111980000D01*
X155249188Y-112104482D01*
X155285498Y-112224180D01*
X155344463Y-112334494D01*
X155423815Y-112431185D01*
X155520506Y-112510537D01*
X155630820Y-112569502D01*
X155750518Y-112605812D01*
X155875000Y-112618072D01*
X158325000Y-112618072D01*
X158449482Y-112605812D01*
X158569180Y-112569502D01*
X158679494Y-112510537D01*
X158717091Y-112479682D01*
X158723986Y-112479003D01*
X158867247Y-112435546D01*
X158999276Y-112364974D01*
X159115001Y-112270001D01*
X159138804Y-112240997D01*
X159510997Y-111868804D01*
X159540001Y-111845001D01*
X159634974Y-111729276D01*
X159705546Y-111597247D01*
X159749003Y-111453986D01*
X159760000Y-111342333D01*
X159760000Y-111342325D01*
X159763676Y-111305000D01*
X159760000Y-111267675D01*
X159760000Y-110037333D01*
X159763677Y-110000000D01*
X159749003Y-109851014D01*
X159705546Y-109707753D01*
X159634974Y-109575724D01*
X159563799Y-109488997D01*
X159540001Y-109459999D01*
X159511004Y-109436202D01*
X158563804Y-108489002D01*
X158540001Y-108459999D01*
X158506418Y-108432438D01*
X158500812Y-108375518D01*
X158464502Y-108255820D01*
X158405537Y-108145506D01*
X158326185Y-108048815D01*
X158229494Y-107969463D01*
X158119180Y-107910498D01*
X157999482Y-107874188D01*
X157875000Y-107861928D01*
X156625000Y-107861928D01*
X156500518Y-107874188D01*
X156380820Y-107910498D01*
X156270506Y-107969463D01*
X156173815Y-108048815D01*
X156094463Y-108145506D01*
X156035498Y-108255820D01*
X155999188Y-108375518D01*
X155986928Y-108500000D01*
X155986928Y-109500000D01*
X155994012Y-109571928D01*
X155875000Y-109571928D01*
X155750518Y-109584188D01*
X155630820Y-109620498D01*
X155520506Y-109679463D01*
X155423815Y-109758815D01*
X155344463Y-109855506D01*
X155285498Y-109965820D01*
X155249188Y-110085518D01*
X155236928Y-110210000D01*
X153498880Y-110210000D01*
X153489101Y-110110745D01*
X153306218Y-110032413D01*
X153150123Y-109999415D01*
X153282952Y-109974644D01*
X153467659Y-109900715D01*
X153489101Y-109889255D01*
X153508880Y-109688485D01*
X153000000Y-109179605D01*
X152491120Y-109688485D01*
X151508880Y-109688485D01*
X151000000Y-109179605D01*
X150491120Y-109688485D01*
X149508880Y-109688485D01*
X149000000Y-109179605D01*
X148491120Y-109688485D01*
X147508880Y-109688485D01*
X147000000Y-109179605D01*
X146491120Y-109688485D01*
X144490488Y-109688485D01*
X144479494Y-109679463D01*
X144369180Y-109620498D01*
X144254627Y-109585749D01*
X144263072Y-109500000D01*
X144263072Y-109087372D01*
X145988882Y-109087372D01*
X146025356Y-109282952D01*
X146099285Y-109467659D01*
X146110745Y-109489101D01*
X146311515Y-109508880D01*
X146820395Y-109000000D01*
X147179605Y-109000000D01*
X147688485Y-109508880D01*
X147889255Y-109489101D01*
X147967587Y-109306218D01*
X148000585Y-109150123D01*
X148025356Y-109282952D01*
X148099285Y-109467659D01*
X148110745Y-109489101D01*
X148311515Y-109508880D01*
X148820395Y-109000000D01*
X149179605Y-109000000D01*
X149688485Y-109508880D01*
X149889255Y-109489101D01*
X149967587Y-109306218D01*
X150000585Y-109150123D01*
X150025356Y-109282952D01*
X150099285Y-109467659D01*
X150110745Y-109489101D01*
X150311515Y-109508880D01*
X150820395Y-109000000D01*
X151179605Y-109000000D01*
X151688485Y-109508880D01*
X151889255Y-109489101D01*
X151967587Y-109306218D01*
X152000585Y-109150123D01*
X152025356Y-109282952D01*
X152099285Y-109467659D01*
X152110745Y-109489101D01*
X152311515Y-109508880D01*
X152820395Y-109000000D01*
X153179605Y-109000000D01*
X153688485Y-109508880D01*
X153889255Y-109489101D01*
X153967587Y-109306218D01*
X154008735Y-109111567D01*
X154011118Y-108912628D01*
X153974644Y-108717048D01*
X153900715Y-108532341D01*
X153889255Y-108510899D01*
X153688485Y-108491120D01*
X153179605Y-109000000D01*
X152820395Y-109000000D01*
X152311515Y-108491120D01*
X152110745Y-108510899D01*
X152032413Y-108693782D01*
X151999415Y-108849877D01*
X151974644Y-108717048D01*
X151900715Y-108532341D01*
X151889255Y-108510899D01*
X151688485Y-108491120D01*
X151179605Y-109000000D01*
X150820395Y-109000000D01*
X150311515Y-108491120D01*
X150110745Y-108510899D01*
X150032413Y-108693782D01*
X149999415Y-108849877D01*
X149974644Y-108717048D01*
X149900715Y-108532341D01*
X149889255Y-108510899D01*
X149688485Y-108491120D01*
X149179605Y-109000000D01*
X148820395Y-109000000D01*
X148311515Y-108491120D01*
X148110745Y-108510899D01*
X148032413Y-108693782D01*
X147999415Y-108849877D01*
X147974644Y-108717048D01*
X147900715Y-108532341D01*
X147889255Y-108510899D01*
X147688485Y-108491120D01*
X147179605Y-109000000D01*
X146820395Y-109000000D01*
X146311515Y-108491120D01*
X146110745Y-108510899D01*
X146032413Y-108693782D01*
X145991265Y-108888433D01*
X145988882Y-109087372D01*
X144263072Y-109087372D01*
X144263072Y-108500000D01*
X144250812Y-108375518D01*
X144231397Y-108311515D01*
X146491120Y-108311515D01*
X147000000Y-108820395D01*
X147508880Y-108311515D01*
X148491120Y-108311515D01*
X149000000Y-108820395D01*
X149508880Y-108311515D01*
X150491120Y-108311515D01*
X151000000Y-108820395D01*
X151508880Y-108311515D01*
X152491120Y-108311515D01*
X153000000Y-108820395D01*
X153508880Y-108311515D01*
X153489101Y-108110745D01*
X153306218Y-108032413D01*
X153111567Y-107991265D01*
X152912628Y-107988882D01*
X152717048Y-108025356D01*
X152532341Y-108099285D01*
X152510899Y-108110745D01*
X152491120Y-108311515D01*
X151508880Y-108311515D01*
X151489101Y-108110745D01*
X151306218Y-108032413D01*
X151111567Y-107991265D01*
X150912628Y-107988882D01*
X150717048Y-108025356D01*
X150532341Y-108099285D01*
X150510899Y-108110745D01*
X150491120Y-108311515D01*
X149508880Y-108311515D01*
X149489101Y-108110745D01*
X149306218Y-108032413D01*
X149111567Y-107991265D01*
X148912628Y-107988882D01*
X148717048Y-108025356D01*
X148532341Y-108099285D01*
X148510899Y-108110745D01*
X148491120Y-108311515D01*
X147508880Y-108311515D01*
X147489101Y-108110745D01*
X147306218Y-108032413D01*
X147111567Y-107991265D01*
X146912628Y-107988882D01*
X146717048Y-108025356D01*
X146532341Y-108099285D01*
X146510899Y-108110745D01*
X146491120Y-108311515D01*
X144231397Y-108311515D01*
X144214502Y-108255820D01*
X144155537Y-108145506D01*
X144076185Y-108048815D01*
X143979494Y-107969463D01*
X143869180Y-107910498D01*
X143749482Y-107874188D01*
X143625000Y-107861928D01*
X142375000Y-107861928D01*
X142250518Y-107874188D01*
X142130820Y-107910498D01*
X142020506Y-107969463D01*
X141923815Y-108048815D01*
X141844463Y-108145506D01*
X141801216Y-108226415D01*
X141760000Y-108185199D01*
X141760000Y-107537323D01*
X141763676Y-107500000D01*
X141760000Y-107462677D01*
X141760000Y-107462667D01*
X141749003Y-107351014D01*
X141705546Y-107207753D01*
X141634974Y-107075723D01*
X141563799Y-106988997D01*
X141540001Y-106959999D01*
X141511003Y-106936201D01*
X139063804Y-104489003D01*
X139040001Y-104459999D01*
X138924276Y-104365026D01*
X138792247Y-104294454D01*
X138648986Y-104250997D01*
X138537333Y-104240000D01*
X138537322Y-104240000D01*
X138500000Y-104236324D01*
X138462678Y-104240000D01*
X133851398Y-104240000D01*
X133880537Y-104204494D01*
X133939502Y-104094180D01*
X133975812Y-103974482D01*
X133988072Y-103850000D01*
X133988072Y-102150000D01*
X133975812Y-102025518D01*
X133939502Y-101905820D01*
X133880537Y-101795506D01*
X133801185Y-101698815D01*
X133704494Y-101619463D01*
X133594180Y-101560498D01*
X133474482Y-101524188D01*
X133350000Y-101511928D01*
X131650000Y-101511928D01*
X131525518Y-101524188D01*
X131405820Y-101560498D01*
X131295506Y-101619463D01*
X131198815Y-101698815D01*
X131119463Y-101795506D01*
X131060498Y-101905820D01*
X131039607Y-101974687D01*
X131015134Y-101944866D01*
X130789014Y-101759294D01*
X130531034Y-101621401D01*
X130251111Y-101536487D01*
X130032950Y-101515000D01*
X129887050Y-101515000D01*
X129668889Y-101536487D01*
X129388966Y-101621401D01*
X129130986Y-101759294D01*
X128904866Y-101944866D01*
X128719294Y-102170986D01*
X128690000Y-102225791D01*
X128660706Y-102170986D01*
X128475134Y-101944866D01*
X128249014Y-101759294D01*
X127991034Y-101621401D01*
X127711111Y-101536487D01*
X127492950Y-101515000D01*
X127347050Y-101515000D01*
X127128889Y-101536487D01*
X126848966Y-101621401D01*
X126590986Y-101759294D01*
X126364866Y-101944866D01*
X126179294Y-102170986D01*
X126041401Y-102428966D01*
X125956487Y-102708889D01*
X125927815Y-103000000D01*
X125956487Y-103291111D01*
X126041401Y-103571034D01*
X126179294Y-103829014D01*
X126364866Y-104055134D01*
X126590986Y-104240706D01*
X126848966Y-104378599D01*
X127128889Y-104463513D01*
X127347050Y-104485000D01*
X127492950Y-104485000D01*
X127711111Y-104463513D01*
X127785996Y-104440797D01*
X128410209Y-105065011D01*
X123639813Y-105065011D01*
X121603804Y-103029003D01*
X121580001Y-102999999D01*
X121464276Y-102905026D01*
X121332247Y-102834454D01*
X121188986Y-102790997D01*
X121077333Y-102780000D01*
X121077322Y-102780000D01*
X121040000Y-102776324D01*
X121002678Y-102780000D01*
X114858571Y-102780000D01*
X114920537Y-102704494D01*
X114979502Y-102594180D01*
X115015812Y-102474482D01*
X115028072Y-102350000D01*
X115028072Y-100660000D01*
X161532785Y-100660000D01*
X161458149Y-100734636D01*
X161458149Y-100734636D01*
G37*
X161458149Y-100734636D02*
X161240915Y-101059750D01*
X161091282Y-101420997D01*
X161015000Y-101804495D01*
X161015000Y-102195505D01*
X161091282Y-102579003D01*
X161240915Y-102940250D01*
X161458149Y-103265364D01*
X161734636Y-103541851D01*
X162059750Y-103759085D01*
X162420997Y-103908718D01*
X162804495Y-103985000D01*
X163195505Y-103985000D01*
X163579003Y-103908718D01*
X163940250Y-103759085D01*
X164265364Y-103541851D01*
X164340001Y-103467214D01*
X164340000Y-122532785D01*
X164265364Y-122458149D01*
X163940250Y-122240915D01*
X163579003Y-122091282D01*
X163195505Y-122015000D01*
X162804495Y-122015000D01*
X162420997Y-122091282D01*
X162059750Y-122240915D01*
X161734636Y-122458149D01*
X161458149Y-122734636D01*
X161240915Y-123059750D01*
X161091282Y-123420997D01*
X161015000Y-123804495D01*
X161015000Y-124195505D01*
X161091282Y-124579003D01*
X161240915Y-124940250D01*
X161458149Y-125265364D01*
X161532785Y-125340000D01*
X142015131Y-125340000D01*
X142263135Y-125091996D01*
X142306449Y-125056449D01*
X142448284Y-124883623D01*
X142553676Y-124686447D01*
X142618577Y-124472499D01*
X142635000Y-124305752D01*
X142635000Y-124305751D01*
X142640491Y-124250000D01*
X142635000Y-124194248D01*
X142635000Y-118220131D01*
X142717059Y-118138072D01*
X142975439Y-118138072D01*
X143000000Y-118140491D01*
X143024561Y-118138072D01*
X143625000Y-118138072D01*
X143749482Y-118125812D01*
X143869180Y-118089502D01*
X143979494Y-118030537D01*
X144076185Y-117951185D01*
X144155537Y-117854494D01*
X144214502Y-117744180D01*
X144231396Y-117688485D01*
X146491120Y-117688485D01*
X146510899Y-117889255D01*
X146693782Y-117967587D01*
X146888433Y-118008735D01*
X147087372Y-118011118D01*
X147282952Y-117974644D01*
X147467659Y-117900715D01*
X147489101Y-117889255D01*
X147508880Y-117688485D01*
X148491120Y-117688485D01*
X148510899Y-117889255D01*
X148693782Y-117967587D01*
X148888433Y-118008735D01*
X149087372Y-118011118D01*
X149282952Y-117974644D01*
X149467659Y-117900715D01*
X149489101Y-117889255D01*
X149508880Y-117688485D01*
X150491120Y-117688485D01*
X150510899Y-117889255D01*
X150693782Y-117967587D01*
X150888433Y-118008735D01*
X151087372Y-118011118D01*
X151282952Y-117974644D01*
X151467659Y-117900715D01*
X151489101Y-117889255D01*
X151508880Y-117688485D01*
X152491120Y-117688485D01*
X152510899Y-117889255D01*
X152693782Y-117967587D01*
X152888433Y-118008735D01*
X153087372Y-118011118D01*
X153282952Y-117974644D01*
X153467659Y-117900715D01*
X153489101Y-117889255D01*
X153508880Y-117688485D01*
X153000000Y-117179605D01*
X152491120Y-117688485D01*
X151508880Y-117688485D01*
X151000000Y-117179605D01*
X150491120Y-117688485D01*
X149508880Y-117688485D01*
X149000000Y-117179605D01*
X148491120Y-117688485D01*
X147508880Y-117688485D01*
X147000000Y-117179605D01*
X146491120Y-117688485D01*
X144231396Y-117688485D01*
X144250812Y-117624482D01*
X144263072Y-117500000D01*
X144263072Y-117087372D01*
X145988882Y-117087372D01*
X146025356Y-117282952D01*
X146099285Y-117467659D01*
X146110745Y-117489101D01*
X146311515Y-117508880D01*
X146820395Y-117000000D01*
X147179605Y-117000000D01*
X147688485Y-117508880D01*
X147889255Y-117489101D01*
X147967587Y-117306218D01*
X148000585Y-117150123D01*
X148025356Y-117282952D01*
X148099285Y-117467659D01*
X148110745Y-117489101D01*
X148311515Y-117508880D01*
X148820395Y-117000000D01*
X149179605Y-117000000D01*
X149688485Y-117508880D01*
X149889255Y-117489101D01*
X149967587Y-117306218D01*
X150000585Y-117150123D01*
X150025356Y-117282952D01*
X150099285Y-117467659D01*
X150110745Y-117489101D01*
X150311515Y-117508880D01*
X150820395Y-117000000D01*
X151179605Y-117000000D01*
X151688485Y-117508880D01*
X151889255Y-117489101D01*
X151967587Y-117306218D01*
X152000585Y-117150123D01*
X152025356Y-117282952D01*
X152099285Y-117467659D01*
X152110745Y-117489101D01*
X152311515Y-117508880D01*
X152820395Y-117000000D01*
X153179605Y-117000000D01*
X153688485Y-117508880D01*
X153889255Y-117489101D01*
X153967587Y-117306218D01*
X154008735Y-117111567D01*
X154011118Y-116912628D01*
X153974644Y-116717048D01*
X153900715Y-116532341D01*
X153889255Y-116510899D01*
X153688485Y-116491120D01*
X153179605Y-117000000D01*
X152820395Y-117000000D01*
X152311515Y-116491120D01*
X152110745Y-116510899D01*
X152032413Y-116693782D01*
X151999415Y-116849877D01*
X151974644Y-116717048D01*
X151900715Y-116532341D01*
X151889255Y-116510899D01*
X151688485Y-116491120D01*
X151179605Y-117000000D01*
X150820395Y-117000000D01*
X150311515Y-116491120D01*
X150110745Y-116510899D01*
X150032413Y-116693782D01*
X149999415Y-116849877D01*
X149974644Y-116717048D01*
X149900715Y-116532341D01*
X149889255Y-116510899D01*
X149688485Y-116491120D01*
X149179605Y-117000000D01*
X148820395Y-117000000D01*
X148311515Y-116491120D01*
X148110745Y-116510899D01*
X148032413Y-116693782D01*
X147999415Y-116849877D01*
X147974644Y-116717048D01*
X147900715Y-116532341D01*
X147889255Y-116510899D01*
X147688485Y-116491120D01*
X147179605Y-117000000D01*
X146820395Y-117000000D01*
X146311515Y-116491120D01*
X146110745Y-116510899D01*
X146032413Y-116693782D01*
X145991265Y-116888433D01*
X145988882Y-117087372D01*
X144263072Y-117087372D01*
X144263072Y-116500000D01*
X144254627Y-116414251D01*
X144369180Y-116379502D01*
X144479494Y-116320537D01*
X144576185Y-116241185D01*
X144655537Y-116144494D01*
X144714502Y-116034180D01*
X144750812Y-115914482D01*
X144763072Y-115790000D01*
X144763072Y-115688485D01*
X146491120Y-115688485D01*
X146510899Y-115889255D01*
X146693782Y-115967587D01*
X146849877Y-116000585D01*
X146717048Y-116025356D01*
X146532341Y-116099285D01*
X146510899Y-116110745D01*
X146491120Y-116311515D01*
X147000000Y-116820395D01*
X147508880Y-116311515D01*
X147489101Y-116110745D01*
X147306218Y-116032413D01*
X147150123Y-115999415D01*
X147282952Y-115974644D01*
X147467659Y-115900715D01*
X147489101Y-115889255D01*
X147508880Y-115688485D01*
X148491120Y-115688485D01*
X148510899Y-115889255D01*
X148693782Y-115967587D01*
X148849877Y-116000585D01*
X148717048Y-116025356D01*
X148532341Y-116099285D01*
X148510899Y-116110745D01*
X148491120Y-116311515D01*
X149000000Y-116820395D01*
X149508880Y-116311515D01*
X149489101Y-116110745D01*
X149306218Y-116032413D01*
X149150123Y-115999415D01*
X149282952Y-115974644D01*
X149467659Y-115900715D01*
X149489101Y-115889255D01*
X149508880Y-115688485D01*
X150491120Y-115688485D01*
X150510899Y-115889255D01*
X150693782Y-115967587D01*
X150849877Y-116000585D01*
X150717048Y-116025356D01*
X150532341Y-116099285D01*
X150510899Y-116110745D01*
X150491120Y-116311515D01*
X151000000Y-116820395D01*
X151508880Y-116311515D01*
X151489101Y-116110745D01*
X151306218Y-116032413D01*
X151150123Y-115999415D01*
X151282952Y-115974644D01*
X151467659Y-115900715D01*
X151489101Y-115889255D01*
X151508880Y-115688485D01*
X152491120Y-115688485D01*
X152510899Y-115889255D01*
X152693782Y-115967587D01*
X152849877Y-116000585D01*
X152717048Y-116025356D01*
X152532341Y-116099285D01*
X152510899Y-116110745D01*
X152491120Y-116311515D01*
X153000000Y-116820395D01*
X153508880Y-116311515D01*
X153489101Y-116110745D01*
X153306218Y-116032413D01*
X153150123Y-115999415D01*
X153282952Y-115974644D01*
X153467659Y-115900715D01*
X153489101Y-115889255D01*
X153508880Y-115688485D01*
X153000000Y-115179605D01*
X152491120Y-115688485D01*
X151508880Y-115688485D01*
X151000000Y-115179605D01*
X150491120Y-115688485D01*
X149508880Y-115688485D01*
X149000000Y-115179605D01*
X148491120Y-115688485D01*
X147508880Y-115688485D01*
X147000000Y-115179605D01*
X146491120Y-115688485D01*
X144763072Y-115688485D01*
X144763072Y-115290000D01*
X144750812Y-115165518D01*
X144727107Y-115087372D01*
X145988882Y-115087372D01*
X146025356Y-115282952D01*
X146099285Y-115467659D01*
X146110745Y-115489101D01*
X146311515Y-115508880D01*
X146820395Y-115000000D01*
X147179605Y-115000000D01*
X147688485Y-115508880D01*
X147889255Y-115489101D01*
X147967587Y-115306218D01*
X148000585Y-115150123D01*
X148025356Y-115282952D01*
X148099285Y-115467659D01*
X148110745Y-115489101D01*
X148311515Y-115508880D01*
X148820395Y-115000000D01*
X149179605Y-115000000D01*
X149688485Y-115508880D01*
X149889255Y-115489101D01*
X149967587Y-115306218D01*
X150000585Y-115150123D01*
X150025356Y-115282952D01*
X150099285Y-115467659D01*
X150110745Y-115489101D01*
X150311515Y-115508880D01*
X150820395Y-115000000D01*
X151179605Y-115000000D01*
X151688485Y-115508880D01*
X151889255Y-115489101D01*
X151967587Y-115306218D01*
X152000585Y-115150123D01*
X152025356Y-115282952D01*
X152099285Y-115467659D01*
X152110745Y-115489101D01*
X152311515Y-115508880D01*
X152820395Y-115000000D01*
X153179605Y-115000000D01*
X153688485Y-115508880D01*
X153889255Y-115489101D01*
X153967587Y-115306218D01*
X154008735Y-115111567D01*
X154011118Y-114912628D01*
X153974644Y-114717048D01*
X153900715Y-114532341D01*
X153889255Y-114510899D01*
X153688485Y-114491120D01*
X153179605Y-115000000D01*
X152820395Y-115000000D01*
X152311515Y-114491120D01*
X152110745Y-114510899D01*
X152032413Y-114693782D01*
X151999415Y-114849877D01*
X151974644Y-114717048D01*
X151900715Y-114532341D01*
X151889255Y-114510899D01*
X151688485Y-114491120D01*
X151179605Y-115000000D01*
X150820395Y-115000000D01*
X150311515Y-114491120D01*
X150110745Y-114510899D01*
X150032413Y-114693782D01*
X149999415Y-114849877D01*
X149974644Y-114717048D01*
X149900715Y-114532341D01*
X149889255Y-114510899D01*
X149688485Y-114491120D01*
X149179605Y-115000000D01*
X148820395Y-115000000D01*
X148311515Y-114491120D01*
X148110745Y-114510899D01*
X148032413Y-114693782D01*
X147999415Y-114849877D01*
X147974644Y-114717048D01*
X147900715Y-114532341D01*
X147889255Y-114510899D01*
X147688485Y-114491120D01*
X147179605Y-115000000D01*
X146820395Y-115000000D01*
X146311515Y-114491120D01*
X146110745Y-114510899D01*
X146032413Y-114693782D01*
X145991265Y-114888433D01*
X145988882Y-115087372D01*
X144727107Y-115087372D01*
X144714502Y-115045820D01*
X144655537Y-114935506D01*
X144630501Y-114905000D01*
X144655537Y-114874494D01*
X144714502Y-114764180D01*
X144750812Y-114644482D01*
X144763072Y-114520000D01*
X144763072Y-114020000D01*
X144750812Y-113895518D01*
X144714502Y-113775820D01*
X144667820Y-113688485D01*
X146491120Y-113688485D01*
X146510899Y-113889255D01*
X146693782Y-113967587D01*
X146849877Y-114000585D01*
X146717048Y-114025356D01*
X146532341Y-114099285D01*
X146510899Y-114110745D01*
X146491120Y-114311515D01*
X147000000Y-114820395D01*
X147508880Y-114311515D01*
X147489101Y-114110745D01*
X147306218Y-114032413D01*
X147150123Y-113999415D01*
X147282952Y-113974644D01*
X147467659Y-113900715D01*
X147489101Y-113889255D01*
X147508880Y-113688485D01*
X148491120Y-113688485D01*
X148510899Y-113889255D01*
X148693782Y-113967587D01*
X148849877Y-114000585D01*
X148717048Y-114025356D01*
X148532341Y-114099285D01*
X148510899Y-114110745D01*
X148491120Y-114311515D01*
X149000000Y-114820395D01*
X149508880Y-114311515D01*
X149489101Y-114110745D01*
X149306218Y-114032413D01*
X149150123Y-113999415D01*
X149282952Y-113974644D01*
X149467659Y-113900715D01*
X149489101Y-113889255D01*
X149508880Y-113688485D01*
X150491120Y-113688485D01*
X150510899Y-113889255D01*
X150693782Y-113967587D01*
X150849877Y-114000585D01*
X150717048Y-114025356D01*
X150532341Y-114099285D01*
X150510899Y-114110745D01*
X150491120Y-114311515D01*
X151000000Y-114820395D01*
X151508880Y-114311515D01*
X151489101Y-114110745D01*
X151306218Y-114032413D01*
X151150123Y-113999415D01*
X151282952Y-113974644D01*
X151467659Y-113900715D01*
X151489101Y-113889255D01*
X151508880Y-113688485D01*
X152491120Y-113688485D01*
X152510899Y-113889255D01*
X152693782Y-113967587D01*
X152849877Y-114000585D01*
X152717048Y-114025356D01*
X152532341Y-114099285D01*
X152510899Y-114110745D01*
X152491120Y-114311515D01*
X153000000Y-114820395D01*
X153508880Y-114311515D01*
X153489101Y-114110745D01*
X153306218Y-114032413D01*
X153247500Y-114020000D01*
X155236928Y-114020000D01*
X155236928Y-114520000D01*
X155249188Y-114644482D01*
X155285498Y-114764180D01*
X155344463Y-114874494D01*
X155369499Y-114905000D01*
X155344463Y-114935506D01*
X155285498Y-115045820D01*
X155249188Y-115165518D01*
X155236928Y-115290000D01*
X155236928Y-115790000D01*
X155249188Y-115914482D01*
X155285498Y-116034180D01*
X155344463Y-116144494D01*
X155423815Y-116241185D01*
X155468758Y-116278068D01*
X155453992Y-116326745D01*
X155436928Y-116499999D01*
X155436928Y-117525001D01*
X155453992Y-117698255D01*
X155504528Y-117864851D01*
X155586595Y-118018387D01*
X155697038Y-118152962D01*
X155831613Y-118263405D01*
X155985149Y-118345472D01*
X156151745Y-118396008D01*
X156324999Y-118413072D01*
X159175001Y-118413072D01*
X159348255Y-118396008D01*
X159514851Y-118345472D01*
X159668387Y-118263405D01*
X159802962Y-118152962D01*
X159913405Y-118018387D01*
X159995472Y-117864851D01*
X160046008Y-117698255D01*
X160063072Y-117525001D01*
X160063072Y-116499999D01*
X160046008Y-116326745D01*
X159995472Y-116160149D01*
X159913405Y-116006613D01*
X159802962Y-115872038D01*
X159668387Y-115761595D01*
X159514851Y-115679528D01*
X159348255Y-115628992D01*
X159175001Y-115611928D01*
X158963072Y-115611928D01*
X158963072Y-115605956D01*
X159053676Y-115436446D01*
X159118577Y-115222498D01*
X159135000Y-115055751D01*
X159135000Y-114555751D01*
X159140491Y-114499999D01*
X159118577Y-114277500D01*
X159106323Y-114237106D01*
X159053676Y-114063553D01*
X158948284Y-113866377D01*
X158938271Y-113854176D01*
X158914502Y-113775820D01*
X158855537Y-113665506D01*
X158776185Y-113568815D01*
X158679494Y-113489463D01*
X158569180Y-113430498D01*
X158516820Y-113414615D01*
X158403623Y-113321716D01*
X158206447Y-113216324D01*
X157992499Y-113151423D01*
X157825752Y-113135000D01*
X157825751Y-113135000D01*
X157770000Y-113129509D01*
X157714249Y-113135000D01*
X157155752Y-113135000D01*
X157100000Y-113129509D01*
X157044249Y-113135000D01*
X157044248Y-113135000D01*
X156877501Y-113151423D01*
X156663553Y-113216324D01*
X156466377Y-113321716D01*
X156393009Y-113381928D01*
X155875000Y-113381928D01*
X155750518Y-113394188D01*
X155630820Y-113430498D01*
X155520506Y-113489463D01*
X155423815Y-113568815D01*
X155344463Y-113665506D01*
X155285498Y-113775820D01*
X155249188Y-113895518D01*
X155236928Y-114020000D01*
X153247500Y-114020000D01*
X153150123Y-113999415D01*
X153282952Y-113974644D01*
X153467659Y-113900715D01*
X153489101Y-113889255D01*
X153508880Y-113688485D01*
X153000000Y-113179605D01*
X152491120Y-113688485D01*
X151508880Y-113688485D01*
X151000000Y-113179605D01*
X150491120Y-113688485D01*
X149508880Y-113688485D01*
X149000000Y-113179605D01*
X148491120Y-113688485D01*
X147508880Y-113688485D01*
X147000000Y-113179605D01*
X146491120Y-113688485D01*
X144667820Y-113688485D01*
X144655537Y-113665506D01*
X144630501Y-113635000D01*
X144655537Y-113604494D01*
X144714502Y-113494180D01*
X144750812Y-113374482D01*
X144763072Y-113250000D01*
X144763072Y-113087372D01*
X145988882Y-113087372D01*
X146025356Y-113282952D01*
X146099285Y-113467659D01*
X146110745Y-113489101D01*
X146311515Y-113508880D01*
X146820395Y-113000000D01*
X147179605Y-113000000D01*
X147688485Y-113508880D01*
X147889255Y-113489101D01*
X147967587Y-113306218D01*
X148000585Y-113150123D01*
X148025356Y-113282952D01*
X148099285Y-113467659D01*
X148110745Y-113489101D01*
X148311515Y-113508880D01*
X148820395Y-113000000D01*
X149179605Y-113000000D01*
X149688485Y-113508880D01*
X149889255Y-113489101D01*
X149967587Y-113306218D01*
X150000585Y-113150123D01*
X150025356Y-113282952D01*
X150099285Y-113467659D01*
X150110745Y-113489101D01*
X150311515Y-113508880D01*
X150820395Y-113000000D01*
X151179605Y-113000000D01*
X151688485Y-113508880D01*
X151889255Y-113489101D01*
X151967587Y-113306218D01*
X152000585Y-113150123D01*
X152025356Y-113282952D01*
X152099285Y-113467659D01*
X152110745Y-113489101D01*
X152311515Y-113508880D01*
X152820395Y-113000000D01*
X153179605Y-113000000D01*
X153688485Y-113508880D01*
X153889255Y-113489101D01*
X153967587Y-113306218D01*
X154008735Y-113111567D01*
X154011118Y-112912628D01*
X153974644Y-112717048D01*
X153900715Y-112532341D01*
X153889255Y-112510899D01*
X153688485Y-112491120D01*
X153179605Y-113000000D01*
X152820395Y-113000000D01*
X152311515Y-112491120D01*
X152110745Y-112510899D01*
X152032413Y-112693782D01*
X151999415Y-112849877D01*
X151974644Y-112717048D01*
X151900715Y-112532341D01*
X151889255Y-112510899D01*
X151688485Y-112491120D01*
X151179605Y-113000000D01*
X150820395Y-113000000D01*
X150311515Y-112491120D01*
X150110745Y-112510899D01*
X150032413Y-112693782D01*
X149999415Y-112849877D01*
X149974644Y-112717048D01*
X149900715Y-112532341D01*
X149889255Y-112510899D01*
X149688485Y-112491120D01*
X149179605Y-113000000D01*
X148820395Y-113000000D01*
X148311515Y-112491120D01*
X148110745Y-112510899D01*
X148032413Y-112693782D01*
X147999415Y-112849877D01*
X147974644Y-112717048D01*
X147900715Y-112532341D01*
X147889255Y-112510899D01*
X147688485Y-112491120D01*
X147179605Y-113000000D01*
X146820395Y-113000000D01*
X146311515Y-112491120D01*
X146110745Y-112510899D01*
X146032413Y-112693782D01*
X145991265Y-112888433D01*
X145988882Y-113087372D01*
X144763072Y-113087372D01*
X144763072Y-112750000D01*
X144750812Y-112625518D01*
X144714502Y-112505820D01*
X144655537Y-112395506D01*
X144630501Y-112365000D01*
X144655537Y-112334494D01*
X144714502Y-112224180D01*
X144750812Y-112104482D01*
X144763072Y-111980000D01*
X144763072Y-111688485D01*
X146491120Y-111688485D01*
X146510899Y-111889255D01*
X146693782Y-111967587D01*
X146849877Y-112000585D01*
X146717048Y-112025356D01*
X146532341Y-112099285D01*
X146510899Y-112110745D01*
X146491120Y-112311515D01*
X147000000Y-112820395D01*
X147508880Y-112311515D01*
X147489101Y-112110745D01*
X147306218Y-112032413D01*
X147150123Y-111999415D01*
X147282952Y-111974644D01*
X147467659Y-111900715D01*
X147489101Y-111889255D01*
X147508880Y-111688485D01*
X148491120Y-111688485D01*
X148510899Y-111889255D01*
X148693782Y-111967587D01*
X148849877Y-112000585D01*
X148717048Y-112025356D01*
X148532341Y-112099285D01*
X148510899Y-112110745D01*
X148491120Y-112311515D01*
X149000000Y-112820395D01*
X149508880Y-112311515D01*
X149489101Y-112110745D01*
X149306218Y-112032413D01*
X149150123Y-111999415D01*
X149282952Y-111974644D01*
X149467659Y-111900715D01*
X149489101Y-111889255D01*
X149508880Y-111688485D01*
X150491120Y-111688485D01*
X150510899Y-111889255D01*
X150693782Y-111967587D01*
X150849877Y-112000585D01*
X150717048Y-112025356D01*
X150532341Y-112099285D01*
X150510899Y-112110745D01*
X150491120Y-112311515D01*
X151000000Y-112820395D01*
X151508880Y-112311515D01*
X151489101Y-112110745D01*
X151306218Y-112032413D01*
X151150123Y-111999415D01*
X151282952Y-111974644D01*
X151467659Y-111900715D01*
X151489101Y-111889255D01*
X151508880Y-111688485D01*
X152491120Y-111688485D01*
X152510899Y-111889255D01*
X152693782Y-111967587D01*
X152849877Y-112000585D01*
X152717048Y-112025356D01*
X152532341Y-112099285D01*
X152510899Y-112110745D01*
X152491120Y-112311515D01*
X153000000Y-112820395D01*
X153508880Y-112311515D01*
X153489101Y-112110745D01*
X153306218Y-112032413D01*
X153150123Y-111999415D01*
X153282952Y-111974644D01*
X153467659Y-111900715D01*
X153489101Y-111889255D01*
X153508880Y-111688485D01*
X153000000Y-111179605D01*
X152491120Y-111688485D01*
X151508880Y-111688485D01*
X151000000Y-111179605D01*
X150491120Y-111688485D01*
X149508880Y-111688485D01*
X149000000Y-111179605D01*
X148491120Y-111688485D01*
X147508880Y-111688485D01*
X147000000Y-111179605D01*
X146491120Y-111688485D01*
X144763072Y-111688485D01*
X144763072Y-111480000D01*
X144750812Y-111355518D01*
X144714502Y-111235820D01*
X144655537Y-111125506D01*
X144630501Y-111095000D01*
X144636761Y-111087372D01*
X145988882Y-111087372D01*
X146025356Y-111282952D01*
X146099285Y-111467659D01*
X146110745Y-111489101D01*
X146311515Y-111508880D01*
X146820395Y-111000000D01*
X147179605Y-111000000D01*
X147688485Y-111508880D01*
X147889255Y-111489101D01*
X147967587Y-111306218D01*
X148000585Y-111150123D01*
X148025356Y-111282952D01*
X148099285Y-111467659D01*
X148110745Y-111489101D01*
X148311515Y-111508880D01*
X148820395Y-111000000D01*
X149179605Y-111000000D01*
X149688485Y-111508880D01*
X149889255Y-111489101D01*
X149967587Y-111306218D01*
X150000585Y-111150123D01*
X150025356Y-111282952D01*
X150099285Y-111467659D01*
X150110745Y-111489101D01*
X150311515Y-111508880D01*
X150820395Y-111000000D01*
X151179605Y-111000000D01*
X151688485Y-111508880D01*
X151889255Y-111489101D01*
X151967587Y-111306218D01*
X152000585Y-111150123D01*
X152025356Y-111282952D01*
X152099285Y-111467659D01*
X152110745Y-111489101D01*
X152311515Y-111508880D01*
X152820395Y-111000000D01*
X153179605Y-111000000D01*
X153688485Y-111508880D01*
X153889255Y-111489101D01*
X153967587Y-111306218D01*
X154008735Y-111111567D01*
X154011118Y-110912628D01*
X153974644Y-110717048D01*
X153900715Y-110532341D01*
X153889255Y-110510899D01*
X153688485Y-110491120D01*
X153179605Y-111000000D01*
X152820395Y-111000000D01*
X152311515Y-110491120D01*
X152110745Y-110510899D01*
X152032413Y-110693782D01*
X151999415Y-110849877D01*
X151974644Y-110717048D01*
X151900715Y-110532341D01*
X151889255Y-110510899D01*
X151688485Y-110491120D01*
X151179605Y-111000000D01*
X150820395Y-111000000D01*
X150311515Y-110491120D01*
X150110745Y-110510899D01*
X150032413Y-110693782D01*
X149999415Y-110849877D01*
X149974644Y-110717048D01*
X149900715Y-110532341D01*
X149889255Y-110510899D01*
X149688485Y-110491120D01*
X149179605Y-111000000D01*
X148820395Y-111000000D01*
X148311515Y-110491120D01*
X148110745Y-110510899D01*
X148032413Y-110693782D01*
X147999415Y-110849877D01*
X147974644Y-110717048D01*
X147900715Y-110532341D01*
X147889255Y-110510899D01*
X147688485Y-110491120D01*
X147179605Y-111000000D01*
X146820395Y-111000000D01*
X146311515Y-110491120D01*
X146110745Y-110510899D01*
X146032413Y-110693782D01*
X145991265Y-110888433D01*
X145988882Y-111087372D01*
X144636761Y-111087372D01*
X144655537Y-111064494D01*
X144714502Y-110954180D01*
X144750812Y-110834482D01*
X144763072Y-110710000D01*
X144763072Y-110210000D01*
X144750812Y-110085518D01*
X144714502Y-109965820D01*
X144655537Y-109855506D01*
X144576185Y-109758815D01*
X144490488Y-109688485D01*
X146491120Y-109688485D01*
X146510899Y-109889255D01*
X146693782Y-109967587D01*
X146849877Y-110000585D01*
X146717048Y-110025356D01*
X146532341Y-110099285D01*
X146510899Y-110110745D01*
X146491120Y-110311515D01*
X147000000Y-110820395D01*
X147508880Y-110311515D01*
X147489101Y-110110745D01*
X147306218Y-110032413D01*
X147150123Y-109999415D01*
X147282952Y-109974644D01*
X147467659Y-109900715D01*
X147489101Y-109889255D01*
X147508880Y-109688485D01*
X148491120Y-109688485D01*
X148510899Y-109889255D01*
X148693782Y-109967587D01*
X148849877Y-110000585D01*
X148717048Y-110025356D01*
X148532341Y-110099285D01*
X148510899Y-110110745D01*
X148491120Y-110311515D01*
X149000000Y-110820395D01*
X149508880Y-110311515D01*
X149489101Y-110110745D01*
X149306218Y-110032413D01*
X149150123Y-109999415D01*
X149282952Y-109974644D01*
X149467659Y-109900715D01*
X149489101Y-109889255D01*
X149508880Y-109688485D01*
X150491120Y-109688485D01*
X150510899Y-109889255D01*
X150693782Y-109967587D01*
X150849877Y-110000585D01*
X150717048Y-110025356D01*
X150532341Y-110099285D01*
X150510899Y-110110745D01*
X150491120Y-110311515D01*
X151000000Y-110820395D01*
X151508880Y-110311515D01*
X151489101Y-110110745D01*
X151306218Y-110032413D01*
X151150123Y-109999415D01*
X151282952Y-109974644D01*
X151467659Y-109900715D01*
X151489101Y-109889255D01*
X151508880Y-109688485D01*
X152491120Y-109688485D01*
X152510899Y-109889255D01*
X152693782Y-109967587D01*
X152849877Y-110000585D01*
X152717048Y-110025356D01*
X152532341Y-110099285D01*
X152510899Y-110110745D01*
X152491120Y-110311515D01*
X153000000Y-110820395D01*
X153508880Y-110311515D01*
X153498880Y-110210000D01*
X155236928Y-110210000D01*
X155236928Y-110710000D01*
X155249188Y-110834482D01*
X155285498Y-110954180D01*
X155344463Y-111064494D01*
X155369499Y-111095000D01*
X155344463Y-111125506D01*
X155285498Y-111235820D01*
X155249188Y-111355518D01*
X155236928Y-111480000D01*
X155236928Y-111980000D01*
X155249188Y-112104482D01*
X155285498Y-112224180D01*
X155344463Y-112334494D01*
X155423815Y-112431185D01*
X155520506Y-112510537D01*
X155630820Y-112569502D01*
X155750518Y-112605812D01*
X155875000Y-112618072D01*
X158325000Y-112618072D01*
X158449482Y-112605812D01*
X158569180Y-112569502D01*
X158679494Y-112510537D01*
X158717091Y-112479682D01*
X158723986Y-112479003D01*
X158867247Y-112435546D01*
X158999276Y-112364974D01*
X159115001Y-112270001D01*
X159138804Y-112240997D01*
X159510997Y-111868804D01*
X159540001Y-111845001D01*
X159634974Y-111729276D01*
X159705546Y-111597247D01*
X159749003Y-111453986D01*
X159760000Y-111342333D01*
X159760000Y-111342325D01*
X159763676Y-111305000D01*
X159760000Y-111267675D01*
X159760000Y-110037333D01*
X159763677Y-110000000D01*
X159749003Y-109851014D01*
X159705546Y-109707753D01*
X159634974Y-109575724D01*
X159563799Y-109488997D01*
X159540001Y-109459999D01*
X159511004Y-109436202D01*
X158563804Y-108489002D01*
X158540001Y-108459999D01*
X158506418Y-108432438D01*
X158500812Y-108375518D01*
X158464502Y-108255820D01*
X158405537Y-108145506D01*
X158326185Y-108048815D01*
X158229494Y-107969463D01*
X158119180Y-107910498D01*
X157999482Y-107874188D01*
X157875000Y-107861928D01*
X156625000Y-107861928D01*
X156500518Y-107874188D01*
X156380820Y-107910498D01*
X156270506Y-107969463D01*
X156173815Y-108048815D01*
X156094463Y-108145506D01*
X156035498Y-108255820D01*
X155999188Y-108375518D01*
X155986928Y-108500000D01*
X155986928Y-109500000D01*
X155994012Y-109571928D01*
X155875000Y-109571928D01*
X155750518Y-109584188D01*
X155630820Y-109620498D01*
X155520506Y-109679463D01*
X155423815Y-109758815D01*
X155344463Y-109855506D01*
X155285498Y-109965820D01*
X155249188Y-110085518D01*
X155236928Y-110210000D01*
X153498880Y-110210000D01*
X153489101Y-110110745D01*
X153306218Y-110032413D01*
X153150123Y-109999415D01*
X153282952Y-109974644D01*
X153467659Y-109900715D01*
X153489101Y-109889255D01*
X153508880Y-109688485D01*
X153000000Y-109179605D01*
X152491120Y-109688485D01*
X151508880Y-109688485D01*
X151000000Y-109179605D01*
X150491120Y-109688485D01*
X149508880Y-109688485D01*
X149000000Y-109179605D01*
X148491120Y-109688485D01*
X147508880Y-109688485D01*
X147000000Y-109179605D01*
X146491120Y-109688485D01*
X144490488Y-109688485D01*
X144479494Y-109679463D01*
X144369180Y-109620498D01*
X144254627Y-109585749D01*
X144263072Y-109500000D01*
X144263072Y-109087372D01*
X145988882Y-109087372D01*
X146025356Y-109282952D01*
X146099285Y-109467659D01*
X146110745Y-109489101D01*
X146311515Y-109508880D01*
X146820395Y-109000000D01*
X147179605Y-109000000D01*
X147688485Y-109508880D01*
X147889255Y-109489101D01*
X147967587Y-109306218D01*
X148000585Y-109150123D01*
X148025356Y-109282952D01*
X148099285Y-109467659D01*
X148110745Y-109489101D01*
X148311515Y-109508880D01*
X148820395Y-109000000D01*
X149179605Y-109000000D01*
X149688485Y-109508880D01*
X149889255Y-109489101D01*
X149967587Y-109306218D01*
X150000585Y-109150123D01*
X150025356Y-109282952D01*
X150099285Y-109467659D01*
X150110745Y-109489101D01*
X150311515Y-109508880D01*
X150820395Y-109000000D01*
X151179605Y-109000000D01*
X151688485Y-109508880D01*
X151889255Y-109489101D01*
X151967587Y-109306218D01*
X152000585Y-109150123D01*
X152025356Y-109282952D01*
X152099285Y-109467659D01*
X152110745Y-109489101D01*
X152311515Y-109508880D01*
X152820395Y-109000000D01*
X153179605Y-109000000D01*
X153688485Y-109508880D01*
X153889255Y-109489101D01*
X153967587Y-109306218D01*
X154008735Y-109111567D01*
X154011118Y-108912628D01*
X153974644Y-108717048D01*
X153900715Y-108532341D01*
X153889255Y-108510899D01*
X153688485Y-108491120D01*
X153179605Y-109000000D01*
X152820395Y-109000000D01*
X152311515Y-108491120D01*
X152110745Y-108510899D01*
X152032413Y-108693782D01*
X151999415Y-108849877D01*
X151974644Y-108717048D01*
X151900715Y-108532341D01*
X151889255Y-108510899D01*
X151688485Y-108491120D01*
X151179605Y-109000000D01*
X150820395Y-109000000D01*
X150311515Y-108491120D01*
X150110745Y-108510899D01*
X150032413Y-108693782D01*
X149999415Y-108849877D01*
X149974644Y-108717048D01*
X149900715Y-108532341D01*
X149889255Y-108510899D01*
X149688485Y-108491120D01*
X149179605Y-109000000D01*
X148820395Y-109000000D01*
X148311515Y-108491120D01*
X148110745Y-108510899D01*
X148032413Y-108693782D01*
X147999415Y-108849877D01*
X147974644Y-108717048D01*
X147900715Y-108532341D01*
X147889255Y-108510899D01*
X147688485Y-108491120D01*
X147179605Y-109000000D01*
X146820395Y-109000000D01*
X146311515Y-108491120D01*
X146110745Y-108510899D01*
X146032413Y-108693782D01*
X145991265Y-108888433D01*
X145988882Y-109087372D01*
X144263072Y-109087372D01*
X144263072Y-108500000D01*
X144250812Y-108375518D01*
X144231397Y-108311515D01*
X146491120Y-108311515D01*
X147000000Y-108820395D01*
X147508880Y-108311515D01*
X148491120Y-108311515D01*
X149000000Y-108820395D01*
X149508880Y-108311515D01*
X150491120Y-108311515D01*
X151000000Y-108820395D01*
X151508880Y-108311515D01*
X152491120Y-108311515D01*
X153000000Y-108820395D01*
X153508880Y-108311515D01*
X153489101Y-108110745D01*
X153306218Y-108032413D01*
X153111567Y-107991265D01*
X152912628Y-107988882D01*
X152717048Y-108025356D01*
X152532341Y-108099285D01*
X152510899Y-108110745D01*
X152491120Y-108311515D01*
X151508880Y-108311515D01*
X151489101Y-108110745D01*
X151306218Y-108032413D01*
X151111567Y-107991265D01*
X150912628Y-107988882D01*
X150717048Y-108025356D01*
X150532341Y-108099285D01*
X150510899Y-108110745D01*
X150491120Y-108311515D01*
X149508880Y-108311515D01*
X149489101Y-108110745D01*
X149306218Y-108032413D01*
X149111567Y-107991265D01*
X148912628Y-107988882D01*
X148717048Y-108025356D01*
X148532341Y-108099285D01*
X148510899Y-108110745D01*
X148491120Y-108311515D01*
X147508880Y-108311515D01*
X147489101Y-108110745D01*
X147306218Y-108032413D01*
X147111567Y-107991265D01*
X146912628Y-107988882D01*
X146717048Y-108025356D01*
X146532341Y-108099285D01*
X146510899Y-108110745D01*
X146491120Y-108311515D01*
X144231397Y-108311515D01*
X144214502Y-108255820D01*
X144155537Y-108145506D01*
X144076185Y-108048815D01*
X143979494Y-107969463D01*
X143869180Y-107910498D01*
X143749482Y-107874188D01*
X143625000Y-107861928D01*
X142375000Y-107861928D01*
X142250518Y-107874188D01*
X142130820Y-107910498D01*
X142020506Y-107969463D01*
X141923815Y-108048815D01*
X141844463Y-108145506D01*
X141801216Y-108226415D01*
X141760000Y-108185199D01*
X141760000Y-107537323D01*
X141763676Y-107500000D01*
X141760000Y-107462677D01*
X141760000Y-107462667D01*
X141749003Y-107351014D01*
X141705546Y-107207753D01*
X141634974Y-107075723D01*
X141563799Y-106988997D01*
X141540001Y-106959999D01*
X141511003Y-106936201D01*
X139063804Y-104489003D01*
X139040001Y-104459999D01*
X138924276Y-104365026D01*
X138792247Y-104294454D01*
X138648986Y-104250997D01*
X138537333Y-104240000D01*
X138537322Y-104240000D01*
X138500000Y-104236324D01*
X138462678Y-104240000D01*
X133851398Y-104240000D01*
X133880537Y-104204494D01*
X133939502Y-104094180D01*
X133975812Y-103974482D01*
X133988072Y-103850000D01*
X133988072Y-102150000D01*
X133975812Y-102025518D01*
X133939502Y-101905820D01*
X133880537Y-101795506D01*
X133801185Y-101698815D01*
X133704494Y-101619463D01*
X133594180Y-101560498D01*
X133474482Y-101524188D01*
X133350000Y-101511928D01*
X131650000Y-101511928D01*
X131525518Y-101524188D01*
X131405820Y-101560498D01*
X131295506Y-101619463D01*
X131198815Y-101698815D01*
X131119463Y-101795506D01*
X131060498Y-101905820D01*
X131039607Y-101974687D01*
X131015134Y-101944866D01*
X130789014Y-101759294D01*
X130531034Y-101621401D01*
X130251111Y-101536487D01*
X130032950Y-101515000D01*
X129887050Y-101515000D01*
X129668889Y-101536487D01*
X129388966Y-101621401D01*
X129130986Y-101759294D01*
X128904866Y-101944866D01*
X128719294Y-102170986D01*
X128690000Y-102225791D01*
X128660706Y-102170986D01*
X128475134Y-101944866D01*
X128249014Y-101759294D01*
X127991034Y-101621401D01*
X127711111Y-101536487D01*
X127492950Y-101515000D01*
X127347050Y-101515000D01*
X127128889Y-101536487D01*
X126848966Y-101621401D01*
X126590986Y-101759294D01*
X126364866Y-101944866D01*
X126179294Y-102170986D01*
X126041401Y-102428966D01*
X125956487Y-102708889D01*
X125927815Y-103000000D01*
X125956487Y-103291111D01*
X126041401Y-103571034D01*
X126179294Y-103829014D01*
X126364866Y-104055134D01*
X126590986Y-104240706D01*
X126848966Y-104378599D01*
X127128889Y-104463513D01*
X127347050Y-104485000D01*
X127492950Y-104485000D01*
X127711111Y-104463513D01*
X127785996Y-104440797D01*
X128410209Y-105065011D01*
X123639813Y-105065011D01*
X121603804Y-103029003D01*
X121580001Y-102999999D01*
X121464276Y-102905026D01*
X121332247Y-102834454D01*
X121188986Y-102790997D01*
X121077333Y-102780000D01*
X121077322Y-102780000D01*
X121040000Y-102776324D01*
X121002678Y-102780000D01*
X114858571Y-102780000D01*
X114920537Y-102704494D01*
X114979502Y-102594180D01*
X115015812Y-102474482D01*
X115028072Y-102350000D01*
X115028072Y-100660000D01*
X161532785Y-100660000D01*
X161458149Y-100734636D01*
G36*
X107219294Y-100670986D02*
G01*
X107081401Y-100928966D01*
X106996487Y-101208889D01*
X106967815Y-101500000D01*
X106996487Y-101791111D01*
X107081401Y-102071034D01*
X107219294Y-102329014D01*
X107404866Y-102555134D01*
X107575000Y-102694760D01*
X107575001Y-111078574D01*
X107493386Y-111011595D01*
X107339850Y-110929528D01*
X107173254Y-110878992D01*
X107000000Y-110861928D01*
X105000000Y-110861928D01*
X104826746Y-110878992D01*
X104660150Y-110929528D01*
X104506614Y-111011595D01*
X104372038Y-111122038D01*
X104261595Y-111256614D01*
X104179528Y-111410150D01*
X104128992Y-111576746D01*
X104111928Y-111750000D01*
X104111928Y-114482940D01*
X102662941Y-115931928D01*
X102467500Y-115931928D01*
X102343018Y-115944188D01*
X102223320Y-115980498D01*
X102113006Y-116039463D01*
X102016315Y-116118815D01*
X101936963Y-116215506D01*
X101877998Y-116325820D01*
X101841688Y-116445518D01*
X101829428Y-116570000D01*
X101829428Y-116787265D01*
X101797805Y-116891510D01*
X101780718Y-117065000D01*
X101797805Y-117238490D01*
X101829428Y-117342735D01*
X101829428Y-117560000D01*
X101829882Y-117564610D01*
X101758018Y-117571688D01*
X101638320Y-117607998D01*
X101528006Y-117666963D01*
X101431315Y-117746315D01*
X101351963Y-117843006D01*
X101292998Y-117953320D01*
X101256688Y-118073018D01*
X101244428Y-118197500D01*
X101244428Y-119376374D01*
X101217998Y-119425820D01*
X101181688Y-119545518D01*
X101169428Y-119670000D01*
X101169428Y-120430000D01*
X101181688Y-120554482D01*
X101217998Y-120674180D01*
X101276963Y-120784494D01*
X101356315Y-120881185D01*
X101453006Y-120960537D01*
X101563320Y-121019502D01*
X101683018Y-121055812D01*
X101807500Y-121068072D01*
X102212500Y-121068072D01*
X102336982Y-121055812D01*
X102340000Y-121054896D01*
X102343018Y-121055812D01*
X102467500Y-121068072D01*
X102872500Y-121068072D01*
X102996982Y-121055812D01*
X103000000Y-121054896D01*
X103003018Y-121055812D01*
X103127500Y-121068072D01*
X103532500Y-121068072D01*
X103656982Y-121055812D01*
X103660000Y-121054896D01*
X103663018Y-121055812D01*
X103787500Y-121068072D01*
X104192500Y-121068072D01*
X104316982Y-121055812D01*
X104436680Y-121019502D01*
X104546994Y-120960537D01*
X104567200Y-120943954D01*
X104567200Y-121380256D01*
X104715568Y-122126154D01*
X105006603Y-122828775D01*
X105429121Y-123461117D01*
X105966883Y-123998879D01*
X106599225Y-124421397D01*
X107301846Y-124712432D01*
X108047744Y-124860800D01*
X108808256Y-124860800D01*
X109554154Y-124712432D01*
X110256775Y-124421397D01*
X110889117Y-123998879D01*
X111426879Y-123461117D01*
X111537845Y-123295044D01*
X113000381Y-123295044D01*
X113363665Y-123787353D01*
X114032023Y-124150226D01*
X114758330Y-124375737D01*
X115514677Y-124455219D01*
X116271996Y-124385617D01*
X117001186Y-124169607D01*
X117674223Y-123815491D01*
X117716335Y-123787353D01*
X118079619Y-123295044D01*
X115540000Y-120755425D01*
X113000381Y-123295044D01*
X111537845Y-123295044D01*
X111849397Y-122828775D01*
X112075543Y-122282811D01*
X112300329Y-122710043D01*
X112328467Y-122752155D01*
X112820776Y-123115439D01*
X115360395Y-120575820D01*
X115719605Y-120575820D01*
X118259224Y-123115439D01*
X118751533Y-122752155D01*
X119114406Y-122083797D01*
X119339917Y-121357490D01*
X119419399Y-120601143D01*
X119349797Y-119843824D01*
X119133787Y-119114634D01*
X118779671Y-118441597D01*
X118751533Y-118399485D01*
X118259224Y-118036201D01*
X115719605Y-120575820D01*
X115360395Y-120575820D01*
X112820776Y-118036201D01*
X112328467Y-118399485D01*
X111965594Y-119067843D01*
X111897464Y-119287270D01*
X111849397Y-119171225D01*
X111426879Y-118538883D01*
X110889117Y-118001121D01*
X110672821Y-117856596D01*
X113000381Y-117856596D01*
X115540000Y-120396215D01*
X118079619Y-117856596D01*
X117716335Y-117364287D01*
X117047977Y-117001414D01*
X116321670Y-116775903D01*
X115565323Y-116696421D01*
X114808004Y-116766023D01*
X114078814Y-116982033D01*
X113405777Y-117336149D01*
X113363665Y-117364287D01*
X113000381Y-117856596D01*
X110672821Y-117856596D01*
X110256775Y-117578603D01*
X109554154Y-117287568D01*
X108808256Y-117139200D01*
X108047744Y-117139200D01*
X107301846Y-117287568D01*
X106599225Y-117578603D01*
X105966883Y-118001121D01*
X105543004Y-118425000D01*
X104755572Y-118425000D01*
X104755572Y-118197500D01*
X104743312Y-118073018D01*
X104707002Y-117953320D01*
X104700759Y-117941640D01*
X104723037Y-117914494D01*
X104782002Y-117804180D01*
X104818312Y-117684482D01*
X104830572Y-117560000D01*
X104830572Y-117342735D01*
X104862195Y-117238490D01*
X104879282Y-117065000D01*
X104866806Y-116938325D01*
X105267059Y-116538072D01*
X107000000Y-116538072D01*
X107173254Y-116521008D01*
X107339850Y-116470472D01*
X107493386Y-116388405D01*
X107627962Y-116277962D01*
X107738405Y-116143386D01*
X107820472Y-115989850D01*
X107871008Y-115823254D01*
X107888072Y-115650000D01*
X107888072Y-115335000D01*
X113611928Y-115335000D01*
X113611928Y-115650000D01*
X113628992Y-115823254D01*
X113679528Y-115989850D01*
X113761595Y-116143386D01*
X113872038Y-116277962D01*
X114006614Y-116388405D01*
X114160150Y-116470472D01*
X114326746Y-116521008D01*
X114500000Y-116538072D01*
X116316324Y-116538072D01*
X116363996Y-116563553D01*
X116384263Y-116574386D01*
X116598211Y-116639287D01*
X116820710Y-116661201D01*
X116876461Y-116655710D01*
X118826462Y-116655710D01*
X118993209Y-116639287D01*
X119207157Y-116574386D01*
X119404333Y-116468994D01*
X119577159Y-116327159D01*
X119718994Y-116154333D01*
X119824386Y-115957157D01*
X119889287Y-115743209D01*
X119911201Y-115520710D01*
X119889287Y-115298211D01*
X119824386Y-115084263D01*
X119718994Y-114887087D01*
X119577159Y-114714261D01*
X119404333Y-114572426D01*
X119207157Y-114467034D01*
X118993209Y-114402133D01*
X118826462Y-114385710D01*
X117388072Y-114385710D01*
X117388072Y-111750000D01*
X117371008Y-111576746D01*
X117320472Y-111410150D01*
X117303389Y-111378190D01*
X118936200Y-113011002D01*
X118959999Y-113040001D01*
X118988997Y-113063799D01*
X119075723Y-113134974D01*
X119190500Y-113196324D01*
X119207753Y-113205546D01*
X119256675Y-113220386D01*
X119340226Y-113303937D01*
X119509744Y-113417205D01*
X119698102Y-113495226D01*
X119898061Y-113535000D01*
X119955895Y-113535000D01*
X119959999Y-113540001D01*
X120075724Y-113634974D01*
X120141881Y-113670336D01*
X120085498Y-113775820D01*
X120049188Y-113895518D01*
X120036928Y-114020000D01*
X120036928Y-114520000D01*
X120049188Y-114644482D01*
X120085498Y-114764180D01*
X120144463Y-114874494D01*
X120169499Y-114905000D01*
X120144463Y-114935506D01*
X120085498Y-115045820D01*
X120049188Y-115165518D01*
X120036928Y-115290000D01*
X120036928Y-115790000D01*
X120049188Y-115914482D01*
X120085498Y-116034180D01*
X120144463Y-116144494D01*
X120223815Y-116241185D01*
X120320506Y-116320537D01*
X120430820Y-116379502D01*
X120495688Y-116399180D01*
X119911863Y-116983006D01*
X119868550Y-117018552D01*
X119726715Y-117191378D01*
X119621324Y-117388554D01*
X119621323Y-117388555D01*
X119556422Y-117602503D01*
X119534508Y-117825001D01*
X119539999Y-117880753D01*
X119540000Y-120119238D01*
X119534508Y-120174999D01*
X119556422Y-120397497D01*
X119621323Y-120611445D01*
X119625759Y-120619744D01*
X119726716Y-120808622D01*
X119868551Y-120981448D01*
X119911859Y-121016990D01*
X120158004Y-121263135D01*
X120193551Y-121306449D01*
X120366377Y-121448284D01*
X120563553Y-121553676D01*
X120777501Y-121618577D01*
X121000000Y-121640491D01*
X121055752Y-121635000D01*
X126823524Y-121635000D01*
X126590986Y-121759294D01*
X126364866Y-121944866D01*
X126179294Y-122170986D01*
X126041401Y-122428966D01*
X125956487Y-122708889D01*
X125927815Y-123000000D01*
X125956487Y-123291111D01*
X126041401Y-123571034D01*
X126179294Y-123829014D01*
X126364866Y-124055134D01*
X126590986Y-124240706D01*
X126848966Y-124378599D01*
X127128889Y-124463513D01*
X127347050Y-124485000D01*
X127492950Y-124485000D01*
X127711111Y-124463513D01*
X127991034Y-124378599D01*
X128249014Y-124240706D01*
X128475134Y-124055134D01*
X128660706Y-123829014D01*
X128690000Y-123774209D01*
X128719294Y-123829014D01*
X128904866Y-124055134D01*
X129130986Y-124240706D01*
X129388966Y-124378599D01*
X129668889Y-124463513D01*
X129887050Y-124485000D01*
X130032950Y-124485000D01*
X130251111Y-124463513D01*
X130531034Y-124378599D01*
X130789014Y-124240706D01*
X131015134Y-124055134D01*
X131039607Y-124025313D01*
X131060498Y-124094180D01*
X131119463Y-124204494D01*
X131198815Y-124301185D01*
X131295506Y-124380537D01*
X131405820Y-124439502D01*
X131525518Y-124475812D01*
X131650000Y-124488072D01*
X132382940Y-124488072D01*
X133234867Y-125340000D01*
X103467215Y-125340000D01*
X103541851Y-125265364D01*
X103759085Y-124940250D01*
X103908718Y-124579003D01*
X103985000Y-124195505D01*
X103985000Y-123804495D01*
X103908718Y-123420997D01*
X103759085Y-123059750D01*
X103541851Y-122734636D01*
X103265364Y-122458149D01*
X102940250Y-122240915D01*
X102579003Y-122091282D01*
X102195505Y-122015000D01*
X101804495Y-122015000D01*
X101420997Y-122091282D01*
X101059750Y-122240915D01*
X100734636Y-122458149D01*
X100660000Y-122532785D01*
X100660000Y-103467215D01*
X100734636Y-103541851D01*
X101059750Y-103759085D01*
X101420997Y-103908718D01*
X101804495Y-103985000D01*
X102195505Y-103985000D01*
X102579003Y-103908718D01*
X102940250Y-103759085D01*
X103265364Y-103541851D01*
X103541851Y-103265364D01*
X103759085Y-102940250D01*
X103908718Y-102579003D01*
X103985000Y-102195505D01*
X103985000Y-101804495D01*
X103908718Y-101420997D01*
X103759085Y-101059750D01*
X103541851Y-100734636D01*
X103467215Y-100660000D01*
X107228310Y-100660000D01*
X107219294Y-100670986D01*
X107219294Y-100670986D01*
G37*
X107219294Y-100670986D02*
X107081401Y-100928966D01*
X106996487Y-101208889D01*
X106967815Y-101500000D01*
X106996487Y-101791111D01*
X107081401Y-102071034D01*
X107219294Y-102329014D01*
X107404866Y-102555134D01*
X107575000Y-102694760D01*
X107575001Y-111078574D01*
X107493386Y-111011595D01*
X107339850Y-110929528D01*
X107173254Y-110878992D01*
X107000000Y-110861928D01*
X105000000Y-110861928D01*
X104826746Y-110878992D01*
X104660150Y-110929528D01*
X104506614Y-111011595D01*
X104372038Y-111122038D01*
X104261595Y-111256614D01*
X104179528Y-111410150D01*
X104128992Y-111576746D01*
X104111928Y-111750000D01*
X104111928Y-114482940D01*
X102662941Y-115931928D01*
X102467500Y-115931928D01*
X102343018Y-115944188D01*
X102223320Y-115980498D01*
X102113006Y-116039463D01*
X102016315Y-116118815D01*
X101936963Y-116215506D01*
X101877998Y-116325820D01*
X101841688Y-116445518D01*
X101829428Y-116570000D01*
X101829428Y-116787265D01*
X101797805Y-116891510D01*
X101780718Y-117065000D01*
X101797805Y-117238490D01*
X101829428Y-117342735D01*
X101829428Y-117560000D01*
X101829882Y-117564610D01*
X101758018Y-117571688D01*
X101638320Y-117607998D01*
X101528006Y-117666963D01*
X101431315Y-117746315D01*
X101351963Y-117843006D01*
X101292998Y-117953320D01*
X101256688Y-118073018D01*
X101244428Y-118197500D01*
X101244428Y-119376374D01*
X101217998Y-119425820D01*
X101181688Y-119545518D01*
X101169428Y-119670000D01*
X101169428Y-120430000D01*
X101181688Y-120554482D01*
X101217998Y-120674180D01*
X101276963Y-120784494D01*
X101356315Y-120881185D01*
X101453006Y-120960537D01*
X101563320Y-121019502D01*
X101683018Y-121055812D01*
X101807500Y-121068072D01*
X102212500Y-121068072D01*
X102336982Y-121055812D01*
X102340000Y-121054896D01*
X102343018Y-121055812D01*
X102467500Y-121068072D01*
X102872500Y-121068072D01*
X102996982Y-121055812D01*
X103000000Y-121054896D01*
X103003018Y-121055812D01*
X103127500Y-121068072D01*
X103532500Y-121068072D01*
X103656982Y-121055812D01*
X103660000Y-121054896D01*
X103663018Y-121055812D01*
X103787500Y-121068072D01*
X104192500Y-121068072D01*
X104316982Y-121055812D01*
X104436680Y-121019502D01*
X104546994Y-120960537D01*
X104567200Y-120943954D01*
X104567200Y-121380256D01*
X104715568Y-122126154D01*
X105006603Y-122828775D01*
X105429121Y-123461117D01*
X105966883Y-123998879D01*
X106599225Y-124421397D01*
X107301846Y-124712432D01*
X108047744Y-124860800D01*
X108808256Y-124860800D01*
X109554154Y-124712432D01*
X110256775Y-124421397D01*
X110889117Y-123998879D01*
X111426879Y-123461117D01*
X111537845Y-123295044D01*
X113000381Y-123295044D01*
X113363665Y-123787353D01*
X114032023Y-124150226D01*
X114758330Y-124375737D01*
X115514677Y-124455219D01*
X116271996Y-124385617D01*
X117001186Y-124169607D01*
X117674223Y-123815491D01*
X117716335Y-123787353D01*
X118079619Y-123295044D01*
X115540000Y-120755425D01*
X113000381Y-123295044D01*
X111537845Y-123295044D01*
X111849397Y-122828775D01*
X112075543Y-122282811D01*
X112300329Y-122710043D01*
X112328467Y-122752155D01*
X112820776Y-123115439D01*
X115360395Y-120575820D01*
X115719605Y-120575820D01*
X118259224Y-123115439D01*
X118751533Y-122752155D01*
X119114406Y-122083797D01*
X119339917Y-121357490D01*
X119419399Y-120601143D01*
X119349797Y-119843824D01*
X119133787Y-119114634D01*
X118779671Y-118441597D01*
X118751533Y-118399485D01*
X118259224Y-118036201D01*
X115719605Y-120575820D01*
X115360395Y-120575820D01*
X112820776Y-118036201D01*
X112328467Y-118399485D01*
X111965594Y-119067843D01*
X111897464Y-119287270D01*
X111849397Y-119171225D01*
X111426879Y-118538883D01*
X110889117Y-118001121D01*
X110672821Y-117856596D01*
X113000381Y-117856596D01*
X115540000Y-120396215D01*
X118079619Y-117856596D01*
X117716335Y-117364287D01*
X117047977Y-117001414D01*
X116321670Y-116775903D01*
X115565323Y-116696421D01*
X114808004Y-116766023D01*
X114078814Y-116982033D01*
X113405777Y-117336149D01*
X113363665Y-117364287D01*
X113000381Y-117856596D01*
X110672821Y-117856596D01*
X110256775Y-117578603D01*
X109554154Y-117287568D01*
X108808256Y-117139200D01*
X108047744Y-117139200D01*
X107301846Y-117287568D01*
X106599225Y-117578603D01*
X105966883Y-118001121D01*
X105543004Y-118425000D01*
X104755572Y-118425000D01*
X104755572Y-118197500D01*
X104743312Y-118073018D01*
X104707002Y-117953320D01*
X104700759Y-117941640D01*
X104723037Y-117914494D01*
X104782002Y-117804180D01*
X104818312Y-117684482D01*
X104830572Y-117560000D01*
X104830572Y-117342735D01*
X104862195Y-117238490D01*
X104879282Y-117065000D01*
X104866806Y-116938325D01*
X105267059Y-116538072D01*
X107000000Y-116538072D01*
X107173254Y-116521008D01*
X107339850Y-116470472D01*
X107493386Y-116388405D01*
X107627962Y-116277962D01*
X107738405Y-116143386D01*
X107820472Y-115989850D01*
X107871008Y-115823254D01*
X107888072Y-115650000D01*
X107888072Y-115335000D01*
X113611928Y-115335000D01*
X113611928Y-115650000D01*
X113628992Y-115823254D01*
X113679528Y-115989850D01*
X113761595Y-116143386D01*
X113872038Y-116277962D01*
X114006614Y-116388405D01*
X114160150Y-116470472D01*
X114326746Y-116521008D01*
X114500000Y-116538072D01*
X116316324Y-116538072D01*
X116363996Y-116563553D01*
X116384263Y-116574386D01*
X116598211Y-116639287D01*
X116820710Y-116661201D01*
X116876461Y-116655710D01*
X118826462Y-116655710D01*
X118993209Y-116639287D01*
X119207157Y-116574386D01*
X119404333Y-116468994D01*
X119577159Y-116327159D01*
X119718994Y-116154333D01*
X119824386Y-115957157D01*
X119889287Y-115743209D01*
X119911201Y-115520710D01*
X119889287Y-115298211D01*
X119824386Y-115084263D01*
X119718994Y-114887087D01*
X119577159Y-114714261D01*
X119404333Y-114572426D01*
X119207157Y-114467034D01*
X118993209Y-114402133D01*
X118826462Y-114385710D01*
X117388072Y-114385710D01*
X117388072Y-111750000D01*
X117371008Y-111576746D01*
X117320472Y-111410150D01*
X117303389Y-111378190D01*
X118936200Y-113011002D01*
X118959999Y-113040001D01*
X118988997Y-113063799D01*
X119075723Y-113134974D01*
X119190500Y-113196324D01*
X119207753Y-113205546D01*
X119256675Y-113220386D01*
X119340226Y-113303937D01*
X119509744Y-113417205D01*
X119698102Y-113495226D01*
X119898061Y-113535000D01*
X119955895Y-113535000D01*
X119959999Y-113540001D01*
X120075724Y-113634974D01*
X120141881Y-113670336D01*
X120085498Y-113775820D01*
X120049188Y-113895518D01*
X120036928Y-114020000D01*
X120036928Y-114520000D01*
X120049188Y-114644482D01*
X120085498Y-114764180D01*
X120144463Y-114874494D01*
X120169499Y-114905000D01*
X120144463Y-114935506D01*
X120085498Y-115045820D01*
X120049188Y-115165518D01*
X120036928Y-115290000D01*
X120036928Y-115790000D01*
X120049188Y-115914482D01*
X120085498Y-116034180D01*
X120144463Y-116144494D01*
X120223815Y-116241185D01*
X120320506Y-116320537D01*
X120430820Y-116379502D01*
X120495688Y-116399180D01*
X119911863Y-116983006D01*
X119868550Y-117018552D01*
X119726715Y-117191378D01*
X119621324Y-117388554D01*
X119621323Y-117388555D01*
X119556422Y-117602503D01*
X119534508Y-117825001D01*
X119539999Y-117880753D01*
X119540000Y-120119238D01*
X119534508Y-120174999D01*
X119556422Y-120397497D01*
X119621323Y-120611445D01*
X119625759Y-120619744D01*
X119726716Y-120808622D01*
X119868551Y-120981448D01*
X119911859Y-121016990D01*
X120158004Y-121263135D01*
X120193551Y-121306449D01*
X120366377Y-121448284D01*
X120563553Y-121553676D01*
X120777501Y-121618577D01*
X121000000Y-121640491D01*
X121055752Y-121635000D01*
X126823524Y-121635000D01*
X126590986Y-121759294D01*
X126364866Y-121944866D01*
X126179294Y-122170986D01*
X126041401Y-122428966D01*
X125956487Y-122708889D01*
X125927815Y-123000000D01*
X125956487Y-123291111D01*
X126041401Y-123571034D01*
X126179294Y-123829014D01*
X126364866Y-124055134D01*
X126590986Y-124240706D01*
X126848966Y-124378599D01*
X127128889Y-124463513D01*
X127347050Y-124485000D01*
X127492950Y-124485000D01*
X127711111Y-124463513D01*
X127991034Y-124378599D01*
X128249014Y-124240706D01*
X128475134Y-124055134D01*
X128660706Y-123829014D01*
X128690000Y-123774209D01*
X128719294Y-123829014D01*
X128904866Y-124055134D01*
X129130986Y-124240706D01*
X129388966Y-124378599D01*
X129668889Y-124463513D01*
X129887050Y-124485000D01*
X130032950Y-124485000D01*
X130251111Y-124463513D01*
X130531034Y-124378599D01*
X130789014Y-124240706D01*
X131015134Y-124055134D01*
X131039607Y-124025313D01*
X131060498Y-124094180D01*
X131119463Y-124204494D01*
X131198815Y-124301185D01*
X131295506Y-124380537D01*
X131405820Y-124439502D01*
X131525518Y-124475812D01*
X131650000Y-124488072D01*
X132382940Y-124488072D01*
X133234867Y-125340000D01*
X103467215Y-125340000D01*
X103541851Y-125265364D01*
X103759085Y-124940250D01*
X103908718Y-124579003D01*
X103985000Y-124195505D01*
X103985000Y-123804495D01*
X103908718Y-123420997D01*
X103759085Y-123059750D01*
X103541851Y-122734636D01*
X103265364Y-122458149D01*
X102940250Y-122240915D01*
X102579003Y-122091282D01*
X102195505Y-122015000D01*
X101804495Y-122015000D01*
X101420997Y-122091282D01*
X101059750Y-122240915D01*
X100734636Y-122458149D01*
X100660000Y-122532785D01*
X100660000Y-103467215D01*
X100734636Y-103541851D01*
X101059750Y-103759085D01*
X101420997Y-103908718D01*
X101804495Y-103985000D01*
X102195505Y-103985000D01*
X102579003Y-103908718D01*
X102940250Y-103759085D01*
X103265364Y-103541851D01*
X103541851Y-103265364D01*
X103759085Y-102940250D01*
X103908718Y-102579003D01*
X103985000Y-102195505D01*
X103985000Y-101804495D01*
X103908718Y-101420997D01*
X103759085Y-101059750D01*
X103541851Y-100734636D01*
X103467215Y-100660000D01*
X107228310Y-100660000D01*
X107219294Y-100670986D01*
G36*
X122761211Y-106336013D02*
G01*
X122785010Y-106365012D01*
X122814008Y-106388810D01*
X122900735Y-106459985D01*
X123032764Y-106530557D01*
X123176025Y-106574014D01*
X123325011Y-106588688D01*
X123362344Y-106585011D01*
X138010210Y-106585011D01*
X139740001Y-108314803D01*
X139740000Y-111737675D01*
X139736324Y-111774998D01*
X139740000Y-111812320D01*
X139740000Y-111812330D01*
X139750997Y-111923983D01*
X139794454Y-112067244D01*
X139865026Y-112199274D01*
X139881595Y-112219463D01*
X139959999Y-112314999D01*
X139989002Y-112338801D01*
X140190002Y-112539801D01*
X140190002Y-112601939D01*
X140229776Y-112801898D01*
X140307797Y-112990256D01*
X140421065Y-113159774D01*
X140565228Y-113303937D01*
X140734746Y-113417205D01*
X140923104Y-113495226D01*
X141105444Y-113531495D01*
X141144463Y-113604494D01*
X141169499Y-113635000D01*
X141144463Y-113665506D01*
X141085498Y-113775820D01*
X141049188Y-113895518D01*
X141036928Y-114020000D01*
X141036928Y-114520000D01*
X141049188Y-114644482D01*
X141085498Y-114764180D01*
X141144463Y-114874494D01*
X141169499Y-114905000D01*
X141144463Y-114935506D01*
X141085498Y-115045820D01*
X141049188Y-115165518D01*
X141036928Y-115290000D01*
X141036928Y-115790000D01*
X141049188Y-115914482D01*
X141085498Y-116034180D01*
X141144463Y-116144494D01*
X141223815Y-116241185D01*
X141320506Y-116320537D01*
X141322999Y-116321870D01*
X140736860Y-116908009D01*
X140693552Y-116943551D01*
X140551717Y-117116377D01*
X140511628Y-117191379D01*
X140446324Y-117313554D01*
X140381423Y-117527502D01*
X140359509Y-117750000D01*
X140365001Y-117805761D01*
X140365000Y-123615000D01*
X134720133Y-123615000D01*
X133988072Y-122882940D01*
X133988072Y-122150000D01*
X133975812Y-122025518D01*
X133939502Y-121905820D01*
X133880537Y-121795506D01*
X133801185Y-121698815D01*
X133704494Y-121619463D01*
X133594180Y-121560498D01*
X133474482Y-121524188D01*
X133350000Y-121511928D01*
X131650000Y-121511928D01*
X131525518Y-121524188D01*
X131405820Y-121560498D01*
X131295506Y-121619463D01*
X131198815Y-121698815D01*
X131119463Y-121795506D01*
X131095000Y-121841272D01*
X131095000Y-121515751D01*
X131100491Y-121459999D01*
X131078577Y-121237501D01*
X131013676Y-121023553D01*
X131001087Y-121000000D01*
X130908284Y-120826377D01*
X130766449Y-120653551D01*
X130723140Y-120618008D01*
X129841996Y-119736864D01*
X129806449Y-119693551D01*
X129633623Y-119551716D01*
X129436447Y-119446324D01*
X129222499Y-119381423D01*
X129055752Y-119365000D01*
X129055751Y-119365000D01*
X129000000Y-119359509D01*
X128944249Y-119365000D01*
X121809999Y-119365000D01*
X121809999Y-118295133D01*
X121967060Y-118138072D01*
X121975439Y-118138072D01*
X122000000Y-118140491D01*
X122024561Y-118138072D01*
X122625000Y-118138072D01*
X122749482Y-118125812D01*
X122869180Y-118089502D01*
X122979494Y-118030537D01*
X123076185Y-117951185D01*
X123155537Y-117854494D01*
X123214502Y-117744180D01*
X123231396Y-117688485D01*
X125491120Y-117688485D01*
X125510899Y-117889255D01*
X125693782Y-117967587D01*
X125888433Y-118008735D01*
X126087372Y-118011118D01*
X126282952Y-117974644D01*
X126467659Y-117900715D01*
X126489101Y-117889255D01*
X126508880Y-117688485D01*
X127491120Y-117688485D01*
X127510899Y-117889255D01*
X127693782Y-117967587D01*
X127888433Y-118008735D01*
X128087372Y-118011118D01*
X128282952Y-117974644D01*
X128467659Y-117900715D01*
X128489101Y-117889255D01*
X128508880Y-117688485D01*
X129491120Y-117688485D01*
X129510899Y-117889255D01*
X129693782Y-117967587D01*
X129888433Y-118008735D01*
X130087372Y-118011118D01*
X130282952Y-117974644D01*
X130467659Y-117900715D01*
X130489101Y-117889255D01*
X130508880Y-117688485D01*
X131491120Y-117688485D01*
X131510899Y-117889255D01*
X131693782Y-117967587D01*
X131888433Y-118008735D01*
X132087372Y-118011118D01*
X132282952Y-117974644D01*
X132467659Y-117900715D01*
X132489101Y-117889255D01*
X132508880Y-117688485D01*
X132000000Y-117179605D01*
X131491120Y-117688485D01*
X130508880Y-117688485D01*
X130000000Y-117179605D01*
X129491120Y-117688485D01*
X128508880Y-117688485D01*
X128000000Y-117179605D01*
X127491120Y-117688485D01*
X126508880Y-117688485D01*
X126000000Y-117179605D01*
X125491120Y-117688485D01*
X123231396Y-117688485D01*
X123250812Y-117624482D01*
X123263072Y-117500000D01*
X123263072Y-117087372D01*
X124988882Y-117087372D01*
X125025356Y-117282952D01*
X125099285Y-117467659D01*
X125110745Y-117489101D01*
X125311515Y-117508880D01*
X125820395Y-117000000D01*
X126179605Y-117000000D01*
X126688485Y-117508880D01*
X126889255Y-117489101D01*
X126967587Y-117306218D01*
X127000585Y-117150123D01*
X127025356Y-117282952D01*
X127099285Y-117467659D01*
X127110745Y-117489101D01*
X127311515Y-117508880D01*
X127820395Y-117000000D01*
X128179605Y-117000000D01*
X128688485Y-117508880D01*
X128889255Y-117489101D01*
X128967587Y-117306218D01*
X129000585Y-117150123D01*
X129025356Y-117282952D01*
X129099285Y-117467659D01*
X129110745Y-117489101D01*
X129311515Y-117508880D01*
X129820395Y-117000000D01*
X130179605Y-117000000D01*
X130688485Y-117508880D01*
X130889255Y-117489101D01*
X130967587Y-117306218D01*
X131000585Y-117150123D01*
X131025356Y-117282952D01*
X131099285Y-117467659D01*
X131110745Y-117489101D01*
X131311515Y-117508880D01*
X131820395Y-117000000D01*
X132179605Y-117000000D01*
X132688485Y-117508880D01*
X132889255Y-117489101D01*
X132967587Y-117306218D01*
X133008735Y-117111567D01*
X133011118Y-116912628D01*
X132974644Y-116717048D01*
X132900715Y-116532341D01*
X132889255Y-116510899D01*
X132688485Y-116491120D01*
X132179605Y-117000000D01*
X131820395Y-117000000D01*
X131311515Y-116491120D01*
X131110745Y-116510899D01*
X131032413Y-116693782D01*
X130999415Y-116849877D01*
X130974644Y-116717048D01*
X130900715Y-116532341D01*
X130889255Y-116510899D01*
X130688485Y-116491120D01*
X130179605Y-117000000D01*
X129820395Y-117000000D01*
X129311515Y-116491120D01*
X129110745Y-116510899D01*
X129032413Y-116693782D01*
X128999415Y-116849877D01*
X128974644Y-116717048D01*
X128900715Y-116532341D01*
X128889255Y-116510899D01*
X128688485Y-116491120D01*
X128179605Y-117000000D01*
X127820395Y-117000000D01*
X127311515Y-116491120D01*
X127110745Y-116510899D01*
X127032413Y-116693782D01*
X126999415Y-116849877D01*
X126974644Y-116717048D01*
X126900715Y-116532341D01*
X126889255Y-116510899D01*
X126688485Y-116491120D01*
X126179605Y-117000000D01*
X125820395Y-117000000D01*
X125311515Y-116491120D01*
X125110745Y-116510899D01*
X125032413Y-116693782D01*
X124991265Y-116888433D01*
X124988882Y-117087372D01*
X123263072Y-117087372D01*
X123263072Y-117024561D01*
X123265491Y-117000000D01*
X123263072Y-116975439D01*
X123263072Y-116500000D01*
X123254627Y-116414251D01*
X123369180Y-116379502D01*
X123479494Y-116320537D01*
X123576185Y-116241185D01*
X123655537Y-116144494D01*
X123714502Y-116034180D01*
X123750812Y-115914482D01*
X123763072Y-115790000D01*
X123763072Y-115688485D01*
X125491120Y-115688485D01*
X125510899Y-115889255D01*
X125693782Y-115967587D01*
X125849877Y-116000585D01*
X125717048Y-116025356D01*
X125532341Y-116099285D01*
X125510899Y-116110745D01*
X125491120Y-116311515D01*
X126000000Y-116820395D01*
X126508880Y-116311515D01*
X126489101Y-116110745D01*
X126306218Y-116032413D01*
X126150123Y-115999415D01*
X126282952Y-115974644D01*
X126467659Y-115900715D01*
X126489101Y-115889255D01*
X126508880Y-115688485D01*
X127491120Y-115688485D01*
X127510899Y-115889255D01*
X127693782Y-115967587D01*
X127849877Y-116000585D01*
X127717048Y-116025356D01*
X127532341Y-116099285D01*
X127510899Y-116110745D01*
X127491120Y-116311515D01*
X128000000Y-116820395D01*
X128508880Y-116311515D01*
X128489101Y-116110745D01*
X128306218Y-116032413D01*
X128150123Y-115999415D01*
X128282952Y-115974644D01*
X128467659Y-115900715D01*
X128489101Y-115889255D01*
X128508880Y-115688485D01*
X129491120Y-115688485D01*
X129510899Y-115889255D01*
X129693782Y-115967587D01*
X129849877Y-116000585D01*
X129717048Y-116025356D01*
X129532341Y-116099285D01*
X129510899Y-116110745D01*
X129491120Y-116311515D01*
X130000000Y-116820395D01*
X130508880Y-116311515D01*
X130489101Y-116110745D01*
X130306218Y-116032413D01*
X130150123Y-115999415D01*
X130282952Y-115974644D01*
X130467659Y-115900715D01*
X130489101Y-115889255D01*
X130508880Y-115688485D01*
X131491120Y-115688485D01*
X131510899Y-115889255D01*
X131693782Y-115967587D01*
X131849877Y-116000585D01*
X131717048Y-116025356D01*
X131532341Y-116099285D01*
X131510899Y-116110745D01*
X131491120Y-116311515D01*
X132000000Y-116820395D01*
X132508880Y-116311515D01*
X132489101Y-116110745D01*
X132306218Y-116032413D01*
X132150123Y-115999415D01*
X132282952Y-115974644D01*
X132467659Y-115900715D01*
X132489101Y-115889255D01*
X132508880Y-115688485D01*
X132000000Y-115179605D01*
X131491120Y-115688485D01*
X130508880Y-115688485D01*
X130000000Y-115179605D01*
X129491120Y-115688485D01*
X128508880Y-115688485D01*
X128000000Y-115179605D01*
X127491120Y-115688485D01*
X126508880Y-115688485D01*
X126000000Y-115179605D01*
X125491120Y-115688485D01*
X123763072Y-115688485D01*
X123763072Y-115290000D01*
X123750812Y-115165518D01*
X123727107Y-115087372D01*
X124988882Y-115087372D01*
X125025356Y-115282952D01*
X125099285Y-115467659D01*
X125110745Y-115489101D01*
X125311515Y-115508880D01*
X125820395Y-115000000D01*
X126179605Y-115000000D01*
X126688485Y-115508880D01*
X126889255Y-115489101D01*
X126967587Y-115306218D01*
X127000585Y-115150123D01*
X127025356Y-115282952D01*
X127099285Y-115467659D01*
X127110745Y-115489101D01*
X127311515Y-115508880D01*
X127820395Y-115000000D01*
X128179605Y-115000000D01*
X128688485Y-115508880D01*
X128889255Y-115489101D01*
X128967587Y-115306218D01*
X129000585Y-115150123D01*
X129025356Y-115282952D01*
X129099285Y-115467659D01*
X129110745Y-115489101D01*
X129311515Y-115508880D01*
X129820395Y-115000000D01*
X130179605Y-115000000D01*
X130688485Y-115508880D01*
X130889255Y-115489101D01*
X130967587Y-115306218D01*
X131000585Y-115150123D01*
X131025356Y-115282952D01*
X131099285Y-115467659D01*
X131110745Y-115489101D01*
X131311515Y-115508880D01*
X131820395Y-115000000D01*
X132179605Y-115000000D01*
X132688485Y-115508880D01*
X132889255Y-115489101D01*
X132967587Y-115306218D01*
X133008735Y-115111567D01*
X133011118Y-114912628D01*
X132974644Y-114717048D01*
X132900715Y-114532341D01*
X132889255Y-114510899D01*
X132688485Y-114491120D01*
X132179605Y-115000000D01*
X131820395Y-115000000D01*
X131311515Y-114491120D01*
X131110745Y-114510899D01*
X131032413Y-114693782D01*
X130999415Y-114849877D01*
X130974644Y-114717048D01*
X130900715Y-114532341D01*
X130889255Y-114510899D01*
X130688485Y-114491120D01*
X130179605Y-115000000D01*
X129820395Y-115000000D01*
X129311515Y-114491120D01*
X129110745Y-114510899D01*
X129032413Y-114693782D01*
X128999415Y-114849877D01*
X128974644Y-114717048D01*
X128900715Y-114532341D01*
X128889255Y-114510899D01*
X128688485Y-114491120D01*
X128179605Y-115000000D01*
X127820395Y-115000000D01*
X127311515Y-114491120D01*
X127110745Y-114510899D01*
X127032413Y-114693782D01*
X126999415Y-114849877D01*
X126974644Y-114717048D01*
X126900715Y-114532341D01*
X126889255Y-114510899D01*
X126688485Y-114491120D01*
X126179605Y-115000000D01*
X125820395Y-115000000D01*
X125311515Y-114491120D01*
X125110745Y-114510899D01*
X125032413Y-114693782D01*
X124991265Y-114888433D01*
X124988882Y-115087372D01*
X123727107Y-115087372D01*
X123714502Y-115045820D01*
X123655537Y-114935506D01*
X123630501Y-114905000D01*
X123655537Y-114874494D01*
X123714502Y-114764180D01*
X123750812Y-114644482D01*
X123763072Y-114520000D01*
X123763072Y-114020000D01*
X123750812Y-113895518D01*
X123714502Y-113775820D01*
X123667820Y-113688485D01*
X125491120Y-113688485D01*
X125510899Y-113889255D01*
X125693782Y-113967587D01*
X125849877Y-114000585D01*
X125717048Y-114025356D01*
X125532341Y-114099285D01*
X125510899Y-114110745D01*
X125491120Y-114311515D01*
X126000000Y-114820395D01*
X126508880Y-114311515D01*
X126489101Y-114110745D01*
X126306218Y-114032413D01*
X126150123Y-113999415D01*
X126282952Y-113974644D01*
X126467659Y-113900715D01*
X126489101Y-113889255D01*
X126508880Y-113688485D01*
X127491120Y-113688485D01*
X127510899Y-113889255D01*
X127693782Y-113967587D01*
X127849877Y-114000585D01*
X127717048Y-114025356D01*
X127532341Y-114099285D01*
X127510899Y-114110745D01*
X127491120Y-114311515D01*
X128000000Y-114820395D01*
X128508880Y-114311515D01*
X128489101Y-114110745D01*
X128306218Y-114032413D01*
X128150123Y-113999415D01*
X128282952Y-113974644D01*
X128467659Y-113900715D01*
X128489101Y-113889255D01*
X128508880Y-113688485D01*
X129491120Y-113688485D01*
X129510899Y-113889255D01*
X129693782Y-113967587D01*
X129849877Y-114000585D01*
X129717048Y-114025356D01*
X129532341Y-114099285D01*
X129510899Y-114110745D01*
X129491120Y-114311515D01*
X130000000Y-114820395D01*
X130508880Y-114311515D01*
X130489101Y-114110745D01*
X130306218Y-114032413D01*
X130150123Y-113999415D01*
X130282952Y-113974644D01*
X130467659Y-113900715D01*
X130489101Y-113889255D01*
X130508880Y-113688485D01*
X131491120Y-113688485D01*
X131510899Y-113889255D01*
X131693782Y-113967587D01*
X131849877Y-114000585D01*
X131717048Y-114025356D01*
X131532341Y-114099285D01*
X131510899Y-114110745D01*
X131491120Y-114311515D01*
X132000000Y-114820395D01*
X132508880Y-114311515D01*
X132489101Y-114110745D01*
X132306218Y-114032413D01*
X132247500Y-114020000D01*
X134236928Y-114020000D01*
X134236928Y-114520000D01*
X134249188Y-114644482D01*
X134285498Y-114764180D01*
X134344463Y-114874494D01*
X134369499Y-114905000D01*
X134344463Y-114935506D01*
X134285498Y-115045820D01*
X134249188Y-115165518D01*
X134236928Y-115290000D01*
X134236928Y-115790000D01*
X134249188Y-115914482D01*
X134285498Y-116034180D01*
X134344463Y-116144494D01*
X134423815Y-116241185D01*
X134468758Y-116278068D01*
X134453992Y-116326745D01*
X134436928Y-116499999D01*
X134436928Y-117525001D01*
X134453992Y-117698255D01*
X134504528Y-117864851D01*
X134586595Y-118018387D01*
X134697038Y-118152962D01*
X134831613Y-118263405D01*
X134985149Y-118345472D01*
X135151745Y-118396008D01*
X135324999Y-118413072D01*
X138175001Y-118413072D01*
X138348255Y-118396008D01*
X138514851Y-118345472D01*
X138668387Y-118263405D01*
X138802962Y-118152962D01*
X138913405Y-118018387D01*
X138995472Y-117864851D01*
X139046008Y-117698255D01*
X139063072Y-117525001D01*
X139063072Y-116499999D01*
X139046008Y-116326745D01*
X138995472Y-116160149D01*
X138913405Y-116006613D01*
X138802962Y-115872038D01*
X138668387Y-115761595D01*
X138514851Y-115679528D01*
X138348255Y-115628992D01*
X138175001Y-115611928D01*
X137963072Y-115611928D01*
X137963072Y-115605956D01*
X138053676Y-115436446D01*
X138118577Y-115222498D01*
X138135000Y-115055751D01*
X138135000Y-114555751D01*
X138140491Y-114499999D01*
X138118577Y-114277500D01*
X138106323Y-114237106D01*
X138053676Y-114063553D01*
X137948284Y-113866377D01*
X137938271Y-113854176D01*
X137914502Y-113775820D01*
X137855537Y-113665506D01*
X137776185Y-113568815D01*
X137679494Y-113489463D01*
X137569180Y-113430498D01*
X137516820Y-113414615D01*
X137403623Y-113321716D01*
X137206447Y-113216324D01*
X136992499Y-113151423D01*
X136825752Y-113135000D01*
X136825751Y-113135000D01*
X136770000Y-113129509D01*
X136714249Y-113135000D01*
X136155751Y-113135000D01*
X136100000Y-113129509D01*
X136044248Y-113135000D01*
X135877501Y-113151423D01*
X135663553Y-113216324D01*
X135466377Y-113321716D01*
X135393009Y-113381928D01*
X134875000Y-113381928D01*
X134750518Y-113394188D01*
X134630820Y-113430498D01*
X134520506Y-113489463D01*
X134423815Y-113568815D01*
X134344463Y-113665506D01*
X134285498Y-113775820D01*
X134249188Y-113895518D01*
X134236928Y-114020000D01*
X132247500Y-114020000D01*
X132150123Y-113999415D01*
X132282952Y-113974644D01*
X132467659Y-113900715D01*
X132489101Y-113889255D01*
X132508880Y-113688485D01*
X132000000Y-113179605D01*
X131491120Y-113688485D01*
X130508880Y-113688485D01*
X130000000Y-113179605D01*
X129491120Y-113688485D01*
X128508880Y-113688485D01*
X128000000Y-113179605D01*
X127491120Y-113688485D01*
X126508880Y-113688485D01*
X126000000Y-113179605D01*
X125491120Y-113688485D01*
X123667820Y-113688485D01*
X123655537Y-113665506D01*
X123630501Y-113635000D01*
X123655537Y-113604494D01*
X123714502Y-113494180D01*
X123750812Y-113374482D01*
X123763072Y-113250000D01*
X123763072Y-113087372D01*
X124988882Y-113087372D01*
X125025356Y-113282952D01*
X125099285Y-113467659D01*
X125110745Y-113489101D01*
X125311515Y-113508880D01*
X125820395Y-113000000D01*
X126179605Y-113000000D01*
X126688485Y-113508880D01*
X126889255Y-113489101D01*
X126967587Y-113306218D01*
X127000585Y-113150123D01*
X127025356Y-113282952D01*
X127099285Y-113467659D01*
X127110745Y-113489101D01*
X127311515Y-113508880D01*
X127820395Y-113000000D01*
X128179605Y-113000000D01*
X128688485Y-113508880D01*
X128889255Y-113489101D01*
X128967587Y-113306218D01*
X129000585Y-113150123D01*
X129025356Y-113282952D01*
X129099285Y-113467659D01*
X129110745Y-113489101D01*
X129311515Y-113508880D01*
X129820395Y-113000000D01*
X130179605Y-113000000D01*
X130688485Y-113508880D01*
X130889255Y-113489101D01*
X130967587Y-113306218D01*
X131000585Y-113150123D01*
X131025356Y-113282952D01*
X131099285Y-113467659D01*
X131110745Y-113489101D01*
X131311515Y-113508880D01*
X131820395Y-113000000D01*
X132179605Y-113000000D01*
X132688485Y-113508880D01*
X132889255Y-113489101D01*
X132967587Y-113306218D01*
X133008735Y-113111567D01*
X133011118Y-112912628D01*
X132974644Y-112717048D01*
X132900715Y-112532341D01*
X132889255Y-112510899D01*
X132688485Y-112491120D01*
X132179605Y-113000000D01*
X131820395Y-113000000D01*
X131311515Y-112491120D01*
X131110745Y-112510899D01*
X131032413Y-112693782D01*
X130999415Y-112849877D01*
X130974644Y-112717048D01*
X130900715Y-112532341D01*
X130889255Y-112510899D01*
X130688485Y-112491120D01*
X130179605Y-113000000D01*
X129820395Y-113000000D01*
X129311515Y-112491120D01*
X129110745Y-112510899D01*
X129032413Y-112693782D01*
X128999415Y-112849877D01*
X128974644Y-112717048D01*
X128900715Y-112532341D01*
X128889255Y-112510899D01*
X128688485Y-112491120D01*
X128179605Y-113000000D01*
X127820395Y-113000000D01*
X127311515Y-112491120D01*
X127110745Y-112510899D01*
X127032413Y-112693782D01*
X126999415Y-112849877D01*
X126974644Y-112717048D01*
X126900715Y-112532341D01*
X126889255Y-112510899D01*
X126688485Y-112491120D01*
X126179605Y-113000000D01*
X125820395Y-113000000D01*
X125311515Y-112491120D01*
X125110745Y-112510899D01*
X125032413Y-112693782D01*
X124991265Y-112888433D01*
X124988882Y-113087372D01*
X123763072Y-113087372D01*
X123763072Y-112750000D01*
X123750812Y-112625518D01*
X123714502Y-112505820D01*
X123655537Y-112395506D01*
X123630501Y-112365000D01*
X123655537Y-112334494D01*
X123714502Y-112224180D01*
X123750812Y-112104482D01*
X123763072Y-111980000D01*
X123763072Y-111688485D01*
X125491120Y-111688485D01*
X125510899Y-111889255D01*
X125693782Y-111967587D01*
X125849877Y-112000585D01*
X125717048Y-112025356D01*
X125532341Y-112099285D01*
X125510899Y-112110745D01*
X125491120Y-112311515D01*
X126000000Y-112820395D01*
X126508880Y-112311515D01*
X126489101Y-112110745D01*
X126306218Y-112032413D01*
X126150123Y-111999415D01*
X126282952Y-111974644D01*
X126467659Y-111900715D01*
X126489101Y-111889255D01*
X126508880Y-111688485D01*
X127491120Y-111688485D01*
X127510899Y-111889255D01*
X127693782Y-111967587D01*
X127849877Y-112000585D01*
X127717048Y-112025356D01*
X127532341Y-112099285D01*
X127510899Y-112110745D01*
X127491120Y-112311515D01*
X128000000Y-112820395D01*
X128508880Y-112311515D01*
X128489101Y-112110745D01*
X128306218Y-112032413D01*
X128150123Y-111999415D01*
X128282952Y-111974644D01*
X128467659Y-111900715D01*
X128489101Y-111889255D01*
X128508880Y-111688485D01*
X129491120Y-111688485D01*
X129510899Y-111889255D01*
X129693782Y-111967587D01*
X129849877Y-112000585D01*
X129717048Y-112025356D01*
X129532341Y-112099285D01*
X129510899Y-112110745D01*
X129491120Y-112311515D01*
X130000000Y-112820395D01*
X130508880Y-112311515D01*
X130489101Y-112110745D01*
X130306218Y-112032413D01*
X130150123Y-111999415D01*
X130282952Y-111974644D01*
X130467659Y-111900715D01*
X130489101Y-111889255D01*
X130508880Y-111688485D01*
X131491120Y-111688485D01*
X131510899Y-111889255D01*
X131693782Y-111967587D01*
X131849877Y-112000585D01*
X131717048Y-112025356D01*
X131532341Y-112099285D01*
X131510899Y-112110745D01*
X131491120Y-112311515D01*
X132000000Y-112820395D01*
X132508880Y-112311515D01*
X132489101Y-112110745D01*
X132306218Y-112032413D01*
X132150123Y-111999415D01*
X132282952Y-111974644D01*
X132467659Y-111900715D01*
X132489101Y-111889255D01*
X132508880Y-111688485D01*
X132000000Y-111179605D01*
X131491120Y-111688485D01*
X130508880Y-111688485D01*
X130000000Y-111179605D01*
X129491120Y-111688485D01*
X128508880Y-111688485D01*
X128000000Y-111179605D01*
X127491120Y-111688485D01*
X126508880Y-111688485D01*
X126000000Y-111179605D01*
X125491120Y-111688485D01*
X123763072Y-111688485D01*
X123763072Y-111480000D01*
X123750812Y-111355518D01*
X123714502Y-111235820D01*
X123655537Y-111125506D01*
X123630501Y-111095000D01*
X123636761Y-111087372D01*
X124988882Y-111087372D01*
X125025356Y-111282952D01*
X125099285Y-111467659D01*
X125110745Y-111489101D01*
X125311515Y-111508880D01*
X125820395Y-111000000D01*
X126179605Y-111000000D01*
X126688485Y-111508880D01*
X126889255Y-111489101D01*
X126967587Y-111306218D01*
X127000585Y-111150123D01*
X127025356Y-111282952D01*
X127099285Y-111467659D01*
X127110745Y-111489101D01*
X127311515Y-111508880D01*
X127820395Y-111000000D01*
X128179605Y-111000000D01*
X128688485Y-111508880D01*
X128889255Y-111489101D01*
X128967587Y-111306218D01*
X129000585Y-111150123D01*
X129025356Y-111282952D01*
X129099285Y-111467659D01*
X129110745Y-111489101D01*
X129311515Y-111508880D01*
X129820395Y-111000000D01*
X130179605Y-111000000D01*
X130688485Y-111508880D01*
X130889255Y-111489101D01*
X130967587Y-111306218D01*
X131000585Y-111150123D01*
X131025356Y-111282952D01*
X131099285Y-111467659D01*
X131110745Y-111489101D01*
X131311515Y-111508880D01*
X131820395Y-111000000D01*
X132179605Y-111000000D01*
X132688485Y-111508880D01*
X132889255Y-111489101D01*
X132967587Y-111306218D01*
X133008735Y-111111567D01*
X133011118Y-110912628D01*
X132974644Y-110717048D01*
X132900715Y-110532341D01*
X132889255Y-110510899D01*
X132688485Y-110491120D01*
X132179605Y-111000000D01*
X131820395Y-111000000D01*
X131311515Y-110491120D01*
X131110745Y-110510899D01*
X131032413Y-110693782D01*
X130999415Y-110849877D01*
X130974644Y-110717048D01*
X130900715Y-110532341D01*
X130889255Y-110510899D01*
X130688485Y-110491120D01*
X130179605Y-111000000D01*
X129820395Y-111000000D01*
X129311515Y-110491120D01*
X129110745Y-110510899D01*
X129032413Y-110693782D01*
X128999415Y-110849877D01*
X128974644Y-110717048D01*
X128900715Y-110532341D01*
X128889255Y-110510899D01*
X128688485Y-110491120D01*
X128179605Y-111000000D01*
X127820395Y-111000000D01*
X127311515Y-110491120D01*
X127110745Y-110510899D01*
X127032413Y-110693782D01*
X126999415Y-110849877D01*
X126974644Y-110717048D01*
X126900715Y-110532341D01*
X126889255Y-110510899D01*
X126688485Y-110491120D01*
X126179605Y-111000000D01*
X125820395Y-111000000D01*
X125311515Y-110491120D01*
X125110745Y-110510899D01*
X125032413Y-110693782D01*
X124991265Y-110888433D01*
X124988882Y-111087372D01*
X123636761Y-111087372D01*
X123655537Y-111064494D01*
X123714502Y-110954180D01*
X123750812Y-110834482D01*
X123763072Y-110710000D01*
X123763072Y-110210000D01*
X123750812Y-110085518D01*
X123714502Y-109965820D01*
X123655537Y-109855506D01*
X123576185Y-109758815D01*
X123490488Y-109688485D01*
X125491120Y-109688485D01*
X125510899Y-109889255D01*
X125693782Y-109967587D01*
X125849877Y-110000585D01*
X125717048Y-110025356D01*
X125532341Y-110099285D01*
X125510899Y-110110745D01*
X125491120Y-110311515D01*
X126000000Y-110820395D01*
X126508880Y-110311515D01*
X126489101Y-110110745D01*
X126306218Y-110032413D01*
X126150123Y-109999415D01*
X126282952Y-109974644D01*
X126467659Y-109900715D01*
X126489101Y-109889255D01*
X126508880Y-109688485D01*
X127491120Y-109688485D01*
X127510899Y-109889255D01*
X127693782Y-109967587D01*
X127849877Y-110000585D01*
X127717048Y-110025356D01*
X127532341Y-110099285D01*
X127510899Y-110110745D01*
X127491120Y-110311515D01*
X128000000Y-110820395D01*
X128508880Y-110311515D01*
X128489101Y-110110745D01*
X128306218Y-110032413D01*
X128150123Y-109999415D01*
X128282952Y-109974644D01*
X128467659Y-109900715D01*
X128489101Y-109889255D01*
X128508880Y-109688485D01*
X129491120Y-109688485D01*
X129510899Y-109889255D01*
X129693782Y-109967587D01*
X129849877Y-110000585D01*
X129717048Y-110025356D01*
X129532341Y-110099285D01*
X129510899Y-110110745D01*
X129491120Y-110311515D01*
X130000000Y-110820395D01*
X130508880Y-110311515D01*
X130489101Y-110110745D01*
X130306218Y-110032413D01*
X130150123Y-109999415D01*
X130282952Y-109974644D01*
X130467659Y-109900715D01*
X130489101Y-109889255D01*
X130508880Y-109688485D01*
X131491120Y-109688485D01*
X131510899Y-109889255D01*
X131693782Y-109967587D01*
X131849877Y-110000585D01*
X131717048Y-110025356D01*
X131532341Y-110099285D01*
X131510899Y-110110745D01*
X131491120Y-110311515D01*
X132000000Y-110820395D01*
X132508880Y-110311515D01*
X132498880Y-110210000D01*
X134236928Y-110210000D01*
X134236928Y-110710000D01*
X134249188Y-110834482D01*
X134285498Y-110954180D01*
X134344463Y-111064494D01*
X134369499Y-111095000D01*
X134344463Y-111125506D01*
X134285498Y-111235820D01*
X134249188Y-111355518D01*
X134236928Y-111480000D01*
X134236928Y-111980000D01*
X134249188Y-112104482D01*
X134285498Y-112224180D01*
X134344463Y-112334494D01*
X134423815Y-112431185D01*
X134520506Y-112510537D01*
X134630820Y-112569502D01*
X134750518Y-112605812D01*
X134875000Y-112618072D01*
X137325000Y-112618072D01*
X137449482Y-112605812D01*
X137569180Y-112569502D01*
X137679494Y-112510537D01*
X137717091Y-112479682D01*
X137723986Y-112479003D01*
X137867247Y-112435546D01*
X137999276Y-112364974D01*
X138115001Y-112270001D01*
X138138804Y-112240997D01*
X138510998Y-111868803D01*
X138540001Y-111845001D01*
X138634974Y-111729276D01*
X138705546Y-111597247D01*
X138749003Y-111453986D01*
X138760000Y-111342333D01*
X138760000Y-111342325D01*
X138763676Y-111305000D01*
X138760000Y-111267675D01*
X138760000Y-110037333D01*
X138763677Y-110000000D01*
X138749003Y-109851014D01*
X138705546Y-109707753D01*
X138634974Y-109575724D01*
X138563799Y-109488997D01*
X138540001Y-109459999D01*
X138511003Y-109436201D01*
X137563804Y-108489002D01*
X137540001Y-108459999D01*
X137424276Y-108365026D01*
X137292247Y-108294454D01*
X137219530Y-108272396D01*
X137214502Y-108255820D01*
X137155537Y-108145506D01*
X137076185Y-108048815D01*
X136979494Y-107969463D01*
X136869180Y-107910498D01*
X136749482Y-107874188D01*
X136625000Y-107861928D01*
X135375000Y-107861928D01*
X135250518Y-107874188D01*
X135130820Y-107910498D01*
X135020506Y-107969463D01*
X134923815Y-108048815D01*
X134844463Y-108145506D01*
X134785498Y-108255820D01*
X134749188Y-108375518D01*
X134736928Y-108500000D01*
X134736928Y-109500000D01*
X134745373Y-109585749D01*
X134630820Y-109620498D01*
X134520506Y-109679463D01*
X134423815Y-109758815D01*
X134344463Y-109855506D01*
X134285498Y-109965820D01*
X134249188Y-110085518D01*
X134236928Y-110210000D01*
X132498880Y-110210000D01*
X132489101Y-110110745D01*
X132306218Y-110032413D01*
X132150123Y-109999415D01*
X132282952Y-109974644D01*
X132467659Y-109900715D01*
X132489101Y-109889255D01*
X132508880Y-109688485D01*
X132000000Y-109179605D01*
X131491120Y-109688485D01*
X130508880Y-109688485D01*
X130000000Y-109179605D01*
X129491120Y-109688485D01*
X128508880Y-109688485D01*
X128000000Y-109179605D01*
X127491120Y-109688485D01*
X126508880Y-109688485D01*
X126000000Y-109179605D01*
X125491120Y-109688485D01*
X123490488Y-109688485D01*
X123479494Y-109679463D01*
X123369180Y-109620498D01*
X123254627Y-109585749D01*
X123263072Y-109500000D01*
X123263072Y-109087372D01*
X124988882Y-109087372D01*
X125025356Y-109282952D01*
X125099285Y-109467659D01*
X125110745Y-109489101D01*
X125311515Y-109508880D01*
X125820395Y-109000000D01*
X126179605Y-109000000D01*
X126688485Y-109508880D01*
X126889255Y-109489101D01*
X126967587Y-109306218D01*
X127000585Y-109150123D01*
X127025356Y-109282952D01*
X127099285Y-109467659D01*
X127110745Y-109489101D01*
X127311515Y-109508880D01*
X127820395Y-109000000D01*
X128179605Y-109000000D01*
X128688485Y-109508880D01*
X128889255Y-109489101D01*
X128967587Y-109306218D01*
X129000585Y-109150123D01*
X129025356Y-109282952D01*
X129099285Y-109467659D01*
X129110745Y-109489101D01*
X129311515Y-109508880D01*
X129820395Y-109000000D01*
X130179605Y-109000000D01*
X130688485Y-109508880D01*
X130889255Y-109489101D01*
X130967587Y-109306218D01*
X131000585Y-109150123D01*
X131025356Y-109282952D01*
X131099285Y-109467659D01*
X131110745Y-109489101D01*
X131311515Y-109508880D01*
X131820395Y-109000000D01*
X132179605Y-109000000D01*
X132688485Y-109508880D01*
X132889255Y-109489101D01*
X132967587Y-109306218D01*
X133008735Y-109111567D01*
X133011118Y-108912628D01*
X132974644Y-108717048D01*
X132900715Y-108532341D01*
X132889255Y-108510899D01*
X132688485Y-108491120D01*
X132179605Y-109000000D01*
X131820395Y-109000000D01*
X131311515Y-108491120D01*
X131110745Y-108510899D01*
X131032413Y-108693782D01*
X130999415Y-108849877D01*
X130974644Y-108717048D01*
X130900715Y-108532341D01*
X130889255Y-108510899D01*
X130688485Y-108491120D01*
X130179605Y-109000000D01*
X129820395Y-109000000D01*
X129311515Y-108491120D01*
X129110745Y-108510899D01*
X129032413Y-108693782D01*
X128999415Y-108849877D01*
X128974644Y-108717048D01*
X128900715Y-108532341D01*
X128889255Y-108510899D01*
X128688485Y-108491120D01*
X128179605Y-109000000D01*
X127820395Y-109000000D01*
X127311515Y-108491120D01*
X127110745Y-108510899D01*
X127032413Y-108693782D01*
X126999415Y-108849877D01*
X126974644Y-108717048D01*
X126900715Y-108532341D01*
X126889255Y-108510899D01*
X126688485Y-108491120D01*
X126179605Y-109000000D01*
X125820395Y-109000000D01*
X125311515Y-108491120D01*
X125110745Y-108510899D01*
X125032413Y-108693782D01*
X124991265Y-108888433D01*
X124988882Y-109087372D01*
X123263072Y-109087372D01*
X123263072Y-108500000D01*
X123250812Y-108375518D01*
X123231397Y-108311515D01*
X125491120Y-108311515D01*
X126000000Y-108820395D01*
X126508880Y-108311515D01*
X127491120Y-108311515D01*
X128000000Y-108820395D01*
X128508880Y-108311515D01*
X129491120Y-108311515D01*
X130000000Y-108820395D01*
X130508880Y-108311515D01*
X131491120Y-108311515D01*
X132000000Y-108820395D01*
X132508880Y-108311515D01*
X132489101Y-108110745D01*
X132306218Y-108032413D01*
X132111567Y-107991265D01*
X131912628Y-107988882D01*
X131717048Y-108025356D01*
X131532341Y-108099285D01*
X131510899Y-108110745D01*
X131491120Y-108311515D01*
X130508880Y-108311515D01*
X130489101Y-108110745D01*
X130306218Y-108032413D01*
X130111567Y-107991265D01*
X129912628Y-107988882D01*
X129717048Y-108025356D01*
X129532341Y-108099285D01*
X129510899Y-108110745D01*
X129491120Y-108311515D01*
X128508880Y-108311515D01*
X128489101Y-108110745D01*
X128306218Y-108032413D01*
X128111567Y-107991265D01*
X127912628Y-107988882D01*
X127717048Y-108025356D01*
X127532341Y-108099285D01*
X127510899Y-108110745D01*
X127491120Y-108311515D01*
X126508880Y-108311515D01*
X126489101Y-108110745D01*
X126306218Y-108032413D01*
X126111567Y-107991265D01*
X125912628Y-107988882D01*
X125717048Y-108025356D01*
X125532341Y-108099285D01*
X125510899Y-108110745D01*
X125491120Y-108311515D01*
X123231397Y-108311515D01*
X123214502Y-108255820D01*
X123155537Y-108145506D01*
X123076185Y-108048815D01*
X122979494Y-107969463D01*
X122869180Y-107910498D01*
X122749482Y-107874188D01*
X122625000Y-107861928D01*
X121375000Y-107861928D01*
X121250518Y-107874188D01*
X121130820Y-107910498D01*
X121020506Y-107969463D01*
X120923815Y-108048815D01*
X120844463Y-108145506D01*
X120793954Y-108240000D01*
X119086939Y-108240000D01*
X119072608Y-108234064D01*
X118872649Y-108194290D01*
X118668771Y-108194290D01*
X118468812Y-108234064D01*
X118280454Y-108312085D01*
X118110936Y-108425353D01*
X117966773Y-108569516D01*
X117853505Y-108739034D01*
X117775484Y-108927392D01*
X117735710Y-109127351D01*
X117735710Y-109331229D01*
X117775484Y-109531188D01*
X117853505Y-109719546D01*
X117966773Y-109889064D01*
X118027214Y-109949505D01*
X117924276Y-109865026D01*
X117792247Y-109794454D01*
X117648986Y-109750997D01*
X117537333Y-109740000D01*
X117537322Y-109740000D01*
X117500000Y-109736324D01*
X117462678Y-109740000D01*
X114814802Y-109740000D01*
X114300000Y-109225199D01*
X114300000Y-104300000D01*
X120725199Y-104300000D01*
X122761211Y-106336013D01*
X122761211Y-106336013D01*
G37*
X122761211Y-106336013D02*
X122785010Y-106365012D01*
X122814008Y-106388810D01*
X122900735Y-106459985D01*
X123032764Y-106530557D01*
X123176025Y-106574014D01*
X123325011Y-106588688D01*
X123362344Y-106585011D01*
X138010210Y-106585011D01*
X139740001Y-108314803D01*
X139740000Y-111737675D01*
X139736324Y-111774998D01*
X139740000Y-111812320D01*
X139740000Y-111812330D01*
X139750997Y-111923983D01*
X139794454Y-112067244D01*
X139865026Y-112199274D01*
X139881595Y-112219463D01*
X139959999Y-112314999D01*
X139989002Y-112338801D01*
X140190002Y-112539801D01*
X140190002Y-112601939D01*
X140229776Y-112801898D01*
X140307797Y-112990256D01*
X140421065Y-113159774D01*
X140565228Y-113303937D01*
X140734746Y-113417205D01*
X140923104Y-113495226D01*
X141105444Y-113531495D01*
X141144463Y-113604494D01*
X141169499Y-113635000D01*
X141144463Y-113665506D01*
X141085498Y-113775820D01*
X141049188Y-113895518D01*
X141036928Y-114020000D01*
X141036928Y-114520000D01*
X141049188Y-114644482D01*
X141085498Y-114764180D01*
X141144463Y-114874494D01*
X141169499Y-114905000D01*
X141144463Y-114935506D01*
X141085498Y-115045820D01*
X141049188Y-115165518D01*
X141036928Y-115290000D01*
X141036928Y-115790000D01*
X141049188Y-115914482D01*
X141085498Y-116034180D01*
X141144463Y-116144494D01*
X141223815Y-116241185D01*
X141320506Y-116320537D01*
X141322999Y-116321870D01*
X140736860Y-116908009D01*
X140693552Y-116943551D01*
X140551717Y-117116377D01*
X140511628Y-117191379D01*
X140446324Y-117313554D01*
X140381423Y-117527502D01*
X140359509Y-117750000D01*
X140365001Y-117805761D01*
X140365000Y-123615000D01*
X134720133Y-123615000D01*
X133988072Y-122882940D01*
X133988072Y-122150000D01*
X133975812Y-122025518D01*
X133939502Y-121905820D01*
X133880537Y-121795506D01*
X133801185Y-121698815D01*
X133704494Y-121619463D01*
X133594180Y-121560498D01*
X133474482Y-121524188D01*
X133350000Y-121511928D01*
X131650000Y-121511928D01*
X131525518Y-121524188D01*
X131405820Y-121560498D01*
X131295506Y-121619463D01*
X131198815Y-121698815D01*
X131119463Y-121795506D01*
X131095000Y-121841272D01*
X131095000Y-121515751D01*
X131100491Y-121459999D01*
X131078577Y-121237501D01*
X131013676Y-121023553D01*
X131001087Y-121000000D01*
X130908284Y-120826377D01*
X130766449Y-120653551D01*
X130723140Y-120618008D01*
X129841996Y-119736864D01*
X129806449Y-119693551D01*
X129633623Y-119551716D01*
X129436447Y-119446324D01*
X129222499Y-119381423D01*
X129055752Y-119365000D01*
X129055751Y-119365000D01*
X129000000Y-119359509D01*
X128944249Y-119365000D01*
X121809999Y-119365000D01*
X121809999Y-118295133D01*
X121967060Y-118138072D01*
X121975439Y-118138072D01*
X122000000Y-118140491D01*
X122024561Y-118138072D01*
X122625000Y-118138072D01*
X122749482Y-118125812D01*
X122869180Y-118089502D01*
X122979494Y-118030537D01*
X123076185Y-117951185D01*
X123155537Y-117854494D01*
X123214502Y-117744180D01*
X123231396Y-117688485D01*
X125491120Y-117688485D01*
X125510899Y-117889255D01*
X125693782Y-117967587D01*
X125888433Y-118008735D01*
X126087372Y-118011118D01*
X126282952Y-117974644D01*
X126467659Y-117900715D01*
X126489101Y-117889255D01*
X126508880Y-117688485D01*
X127491120Y-117688485D01*
X127510899Y-117889255D01*
X127693782Y-117967587D01*
X127888433Y-118008735D01*
X128087372Y-118011118D01*
X128282952Y-117974644D01*
X128467659Y-117900715D01*
X128489101Y-117889255D01*
X128508880Y-117688485D01*
X129491120Y-117688485D01*
X129510899Y-117889255D01*
X129693782Y-117967587D01*
X129888433Y-118008735D01*
X130087372Y-118011118D01*
X130282952Y-117974644D01*
X130467659Y-117900715D01*
X130489101Y-117889255D01*
X130508880Y-117688485D01*
X131491120Y-117688485D01*
X131510899Y-117889255D01*
X131693782Y-117967587D01*
X131888433Y-118008735D01*
X132087372Y-118011118D01*
X132282952Y-117974644D01*
X132467659Y-117900715D01*
X132489101Y-117889255D01*
X132508880Y-117688485D01*
X132000000Y-117179605D01*
X131491120Y-117688485D01*
X130508880Y-117688485D01*
X130000000Y-117179605D01*
X129491120Y-117688485D01*
X128508880Y-117688485D01*
X128000000Y-117179605D01*
X127491120Y-117688485D01*
X126508880Y-117688485D01*
X126000000Y-117179605D01*
X125491120Y-117688485D01*
X123231396Y-117688485D01*
X123250812Y-117624482D01*
X123263072Y-117500000D01*
X123263072Y-117087372D01*
X124988882Y-117087372D01*
X125025356Y-117282952D01*
X125099285Y-117467659D01*
X125110745Y-117489101D01*
X125311515Y-117508880D01*
X125820395Y-117000000D01*
X126179605Y-117000000D01*
X126688485Y-117508880D01*
X126889255Y-117489101D01*
X126967587Y-117306218D01*
X127000585Y-117150123D01*
X127025356Y-117282952D01*
X127099285Y-117467659D01*
X127110745Y-117489101D01*
X127311515Y-117508880D01*
X127820395Y-117000000D01*
X128179605Y-117000000D01*
X128688485Y-117508880D01*
X128889255Y-117489101D01*
X128967587Y-117306218D01*
X129000585Y-117150123D01*
X129025356Y-117282952D01*
X129099285Y-117467659D01*
X129110745Y-117489101D01*
X129311515Y-117508880D01*
X129820395Y-117000000D01*
X130179605Y-117000000D01*
X130688485Y-117508880D01*
X130889255Y-117489101D01*
X130967587Y-117306218D01*
X131000585Y-117150123D01*
X131025356Y-117282952D01*
X131099285Y-117467659D01*
X131110745Y-117489101D01*
X131311515Y-117508880D01*
X131820395Y-117000000D01*
X132179605Y-117000000D01*
X132688485Y-117508880D01*
X132889255Y-117489101D01*
X132967587Y-117306218D01*
X133008735Y-117111567D01*
X133011118Y-116912628D01*
X132974644Y-116717048D01*
X132900715Y-116532341D01*
X132889255Y-116510899D01*
X132688485Y-116491120D01*
X132179605Y-117000000D01*
X131820395Y-117000000D01*
X131311515Y-116491120D01*
X131110745Y-116510899D01*
X131032413Y-116693782D01*
X130999415Y-116849877D01*
X130974644Y-116717048D01*
X130900715Y-116532341D01*
X130889255Y-116510899D01*
X130688485Y-116491120D01*
X130179605Y-117000000D01*
X129820395Y-117000000D01*
X129311515Y-116491120D01*
X129110745Y-116510899D01*
X129032413Y-116693782D01*
X128999415Y-116849877D01*
X128974644Y-116717048D01*
X128900715Y-116532341D01*
X128889255Y-116510899D01*
X128688485Y-116491120D01*
X128179605Y-117000000D01*
X127820395Y-117000000D01*
X127311515Y-116491120D01*
X127110745Y-116510899D01*
X127032413Y-116693782D01*
X126999415Y-116849877D01*
X126974644Y-116717048D01*
X126900715Y-116532341D01*
X126889255Y-116510899D01*
X126688485Y-116491120D01*
X126179605Y-117000000D01*
X125820395Y-117000000D01*
X125311515Y-116491120D01*
X125110745Y-116510899D01*
X125032413Y-116693782D01*
X124991265Y-116888433D01*
X124988882Y-117087372D01*
X123263072Y-117087372D01*
X123263072Y-117024561D01*
X123265491Y-117000000D01*
X123263072Y-116975439D01*
X123263072Y-116500000D01*
X123254627Y-116414251D01*
X123369180Y-116379502D01*
X123479494Y-116320537D01*
X123576185Y-116241185D01*
X123655537Y-116144494D01*
X123714502Y-116034180D01*
X123750812Y-115914482D01*
X123763072Y-115790000D01*
X123763072Y-115688485D01*
X125491120Y-115688485D01*
X125510899Y-115889255D01*
X125693782Y-115967587D01*
X125849877Y-116000585D01*
X125717048Y-116025356D01*
X125532341Y-116099285D01*
X125510899Y-116110745D01*
X125491120Y-116311515D01*
X126000000Y-116820395D01*
X126508880Y-116311515D01*
X126489101Y-116110745D01*
X126306218Y-116032413D01*
X126150123Y-115999415D01*
X126282952Y-115974644D01*
X126467659Y-115900715D01*
X126489101Y-115889255D01*
X126508880Y-115688485D01*
X127491120Y-115688485D01*
X127510899Y-115889255D01*
X127693782Y-115967587D01*
X127849877Y-116000585D01*
X127717048Y-116025356D01*
X127532341Y-116099285D01*
X127510899Y-116110745D01*
X127491120Y-116311515D01*
X128000000Y-116820395D01*
X128508880Y-116311515D01*
X128489101Y-116110745D01*
X128306218Y-116032413D01*
X128150123Y-115999415D01*
X128282952Y-115974644D01*
X128467659Y-115900715D01*
X128489101Y-115889255D01*
X128508880Y-115688485D01*
X129491120Y-115688485D01*
X129510899Y-115889255D01*
X129693782Y-115967587D01*
X129849877Y-116000585D01*
X129717048Y-116025356D01*
X129532341Y-116099285D01*
X129510899Y-116110745D01*
X129491120Y-116311515D01*
X130000000Y-116820395D01*
X130508880Y-116311515D01*
X130489101Y-116110745D01*
X130306218Y-116032413D01*
X130150123Y-115999415D01*
X130282952Y-115974644D01*
X130467659Y-115900715D01*
X130489101Y-115889255D01*
X130508880Y-115688485D01*
X131491120Y-115688485D01*
X131510899Y-115889255D01*
X131693782Y-115967587D01*
X131849877Y-116000585D01*
X131717048Y-116025356D01*
X131532341Y-116099285D01*
X131510899Y-116110745D01*
X131491120Y-116311515D01*
X132000000Y-116820395D01*
X132508880Y-116311515D01*
X132489101Y-116110745D01*
X132306218Y-116032413D01*
X132150123Y-115999415D01*
X132282952Y-115974644D01*
X132467659Y-115900715D01*
X132489101Y-115889255D01*
X132508880Y-115688485D01*
X132000000Y-115179605D01*
X131491120Y-115688485D01*
X130508880Y-115688485D01*
X130000000Y-115179605D01*
X129491120Y-115688485D01*
X128508880Y-115688485D01*
X128000000Y-115179605D01*
X127491120Y-115688485D01*
X126508880Y-115688485D01*
X126000000Y-115179605D01*
X125491120Y-115688485D01*
X123763072Y-115688485D01*
X123763072Y-115290000D01*
X123750812Y-115165518D01*
X123727107Y-115087372D01*
X124988882Y-115087372D01*
X125025356Y-115282952D01*
X125099285Y-115467659D01*
X125110745Y-115489101D01*
X125311515Y-115508880D01*
X125820395Y-115000000D01*
X126179605Y-115000000D01*
X126688485Y-115508880D01*
X126889255Y-115489101D01*
X126967587Y-115306218D01*
X127000585Y-115150123D01*
X127025356Y-115282952D01*
X127099285Y-115467659D01*
X127110745Y-115489101D01*
X127311515Y-115508880D01*
X127820395Y-115000000D01*
X128179605Y-115000000D01*
X128688485Y-115508880D01*
X128889255Y-115489101D01*
X128967587Y-115306218D01*
X129000585Y-115150123D01*
X129025356Y-115282952D01*
X129099285Y-115467659D01*
X129110745Y-115489101D01*
X129311515Y-115508880D01*
X129820395Y-115000000D01*
X130179605Y-115000000D01*
X130688485Y-115508880D01*
X130889255Y-115489101D01*
X130967587Y-115306218D01*
X131000585Y-115150123D01*
X131025356Y-115282952D01*
X131099285Y-115467659D01*
X131110745Y-115489101D01*
X131311515Y-115508880D01*
X131820395Y-115000000D01*
X132179605Y-115000000D01*
X132688485Y-115508880D01*
X132889255Y-115489101D01*
X132967587Y-115306218D01*
X133008735Y-115111567D01*
X133011118Y-114912628D01*
X132974644Y-114717048D01*
X132900715Y-114532341D01*
X132889255Y-114510899D01*
X132688485Y-114491120D01*
X132179605Y-115000000D01*
X131820395Y-115000000D01*
X131311515Y-114491120D01*
X131110745Y-114510899D01*
X131032413Y-114693782D01*
X130999415Y-114849877D01*
X130974644Y-114717048D01*
X130900715Y-114532341D01*
X130889255Y-114510899D01*
X130688485Y-114491120D01*
X130179605Y-115000000D01*
X129820395Y-115000000D01*
X129311515Y-114491120D01*
X129110745Y-114510899D01*
X129032413Y-114693782D01*
X128999415Y-114849877D01*
X128974644Y-114717048D01*
X128900715Y-114532341D01*
X128889255Y-114510899D01*
X128688485Y-114491120D01*
X128179605Y-115000000D01*
X127820395Y-115000000D01*
X127311515Y-114491120D01*
X127110745Y-114510899D01*
X127032413Y-114693782D01*
X126999415Y-114849877D01*
X126974644Y-114717048D01*
X126900715Y-114532341D01*
X126889255Y-114510899D01*
X126688485Y-114491120D01*
X126179605Y-115000000D01*
X125820395Y-115000000D01*
X125311515Y-114491120D01*
X125110745Y-114510899D01*
X125032413Y-114693782D01*
X124991265Y-114888433D01*
X124988882Y-115087372D01*
X123727107Y-115087372D01*
X123714502Y-115045820D01*
X123655537Y-114935506D01*
X123630501Y-114905000D01*
X123655537Y-114874494D01*
X123714502Y-114764180D01*
X123750812Y-114644482D01*
X123763072Y-114520000D01*
X123763072Y-114020000D01*
X123750812Y-113895518D01*
X123714502Y-113775820D01*
X123667820Y-113688485D01*
X125491120Y-113688485D01*
X125510899Y-113889255D01*
X125693782Y-113967587D01*
X125849877Y-114000585D01*
X125717048Y-114025356D01*
X125532341Y-114099285D01*
X125510899Y-114110745D01*
X125491120Y-114311515D01*
X126000000Y-114820395D01*
X126508880Y-114311515D01*
X126489101Y-114110745D01*
X126306218Y-114032413D01*
X126150123Y-113999415D01*
X126282952Y-113974644D01*
X126467659Y-113900715D01*
X126489101Y-113889255D01*
X126508880Y-113688485D01*
X127491120Y-113688485D01*
X127510899Y-113889255D01*
X127693782Y-113967587D01*
X127849877Y-114000585D01*
X127717048Y-114025356D01*
X127532341Y-114099285D01*
X127510899Y-114110745D01*
X127491120Y-114311515D01*
X128000000Y-114820395D01*
X128508880Y-114311515D01*
X128489101Y-114110745D01*
X128306218Y-114032413D01*
X128150123Y-113999415D01*
X128282952Y-113974644D01*
X128467659Y-113900715D01*
X128489101Y-113889255D01*
X128508880Y-113688485D01*
X129491120Y-113688485D01*
X129510899Y-113889255D01*
X129693782Y-113967587D01*
X129849877Y-114000585D01*
X129717048Y-114025356D01*
X129532341Y-114099285D01*
X129510899Y-114110745D01*
X129491120Y-114311515D01*
X130000000Y-114820395D01*
X130508880Y-114311515D01*
X130489101Y-114110745D01*
X130306218Y-114032413D01*
X130150123Y-113999415D01*
X130282952Y-113974644D01*
X130467659Y-113900715D01*
X130489101Y-113889255D01*
X130508880Y-113688485D01*
X131491120Y-113688485D01*
X131510899Y-113889255D01*
X131693782Y-113967587D01*
X131849877Y-114000585D01*
X131717048Y-114025356D01*
X131532341Y-114099285D01*
X131510899Y-114110745D01*
X131491120Y-114311515D01*
X132000000Y-114820395D01*
X132508880Y-114311515D01*
X132489101Y-114110745D01*
X132306218Y-114032413D01*
X132247500Y-114020000D01*
X134236928Y-114020000D01*
X134236928Y-114520000D01*
X134249188Y-114644482D01*
X134285498Y-114764180D01*
X134344463Y-114874494D01*
X134369499Y-114905000D01*
X134344463Y-114935506D01*
X134285498Y-115045820D01*
X134249188Y-115165518D01*
X134236928Y-115290000D01*
X134236928Y-115790000D01*
X134249188Y-115914482D01*
X134285498Y-116034180D01*
X134344463Y-116144494D01*
X134423815Y-116241185D01*
X134468758Y-116278068D01*
X134453992Y-116326745D01*
X134436928Y-116499999D01*
X134436928Y-117525001D01*
X134453992Y-117698255D01*
X134504528Y-117864851D01*
X134586595Y-118018387D01*
X134697038Y-118152962D01*
X134831613Y-118263405D01*
X134985149Y-118345472D01*
X135151745Y-118396008D01*
X135324999Y-118413072D01*
X138175001Y-118413072D01*
X138348255Y-118396008D01*
X138514851Y-118345472D01*
X138668387Y-118263405D01*
X138802962Y-118152962D01*
X138913405Y-118018387D01*
X138995472Y-117864851D01*
X139046008Y-117698255D01*
X139063072Y-117525001D01*
X139063072Y-116499999D01*
X139046008Y-116326745D01*
X138995472Y-116160149D01*
X138913405Y-116006613D01*
X138802962Y-115872038D01*
X138668387Y-115761595D01*
X138514851Y-115679528D01*
X138348255Y-115628992D01*
X138175001Y-115611928D01*
X137963072Y-115611928D01*
X137963072Y-115605956D01*
X138053676Y-115436446D01*
X138118577Y-115222498D01*
X138135000Y-115055751D01*
X138135000Y-114555751D01*
X138140491Y-114499999D01*
X138118577Y-114277500D01*
X138106323Y-114237106D01*
X138053676Y-114063553D01*
X137948284Y-113866377D01*
X137938271Y-113854176D01*
X137914502Y-113775820D01*
X137855537Y-113665506D01*
X137776185Y-113568815D01*
X137679494Y-113489463D01*
X137569180Y-113430498D01*
X137516820Y-113414615D01*
X137403623Y-113321716D01*
X137206447Y-113216324D01*
X136992499Y-113151423D01*
X136825752Y-113135000D01*
X136825751Y-113135000D01*
X136770000Y-113129509D01*
X136714249Y-113135000D01*
X136155751Y-113135000D01*
X136100000Y-113129509D01*
X136044248Y-113135000D01*
X135877501Y-113151423D01*
X135663553Y-113216324D01*
X135466377Y-113321716D01*
X135393009Y-113381928D01*
X134875000Y-113381928D01*
X134750518Y-113394188D01*
X134630820Y-113430498D01*
X134520506Y-113489463D01*
X134423815Y-113568815D01*
X134344463Y-113665506D01*
X134285498Y-113775820D01*
X134249188Y-113895518D01*
X134236928Y-114020000D01*
X132247500Y-114020000D01*
X132150123Y-113999415D01*
X132282952Y-113974644D01*
X132467659Y-113900715D01*
X132489101Y-113889255D01*
X132508880Y-113688485D01*
X132000000Y-113179605D01*
X131491120Y-113688485D01*
X130508880Y-113688485D01*
X130000000Y-113179605D01*
X129491120Y-113688485D01*
X128508880Y-113688485D01*
X128000000Y-113179605D01*
X127491120Y-113688485D01*
X126508880Y-113688485D01*
X126000000Y-113179605D01*
X125491120Y-113688485D01*
X123667820Y-113688485D01*
X123655537Y-113665506D01*
X123630501Y-113635000D01*
X123655537Y-113604494D01*
X123714502Y-113494180D01*
X123750812Y-113374482D01*
X123763072Y-113250000D01*
X123763072Y-113087372D01*
X124988882Y-113087372D01*
X125025356Y-113282952D01*
X125099285Y-113467659D01*
X125110745Y-113489101D01*
X125311515Y-113508880D01*
X125820395Y-113000000D01*
X126179605Y-113000000D01*
X126688485Y-113508880D01*
X126889255Y-113489101D01*
X126967587Y-113306218D01*
X127000585Y-113150123D01*
X127025356Y-113282952D01*
X127099285Y-113467659D01*
X127110745Y-113489101D01*
X127311515Y-113508880D01*
X127820395Y-113000000D01*
X128179605Y-113000000D01*
X128688485Y-113508880D01*
X128889255Y-113489101D01*
X128967587Y-113306218D01*
X129000585Y-113150123D01*
X129025356Y-113282952D01*
X129099285Y-113467659D01*
X129110745Y-113489101D01*
X129311515Y-113508880D01*
X129820395Y-113000000D01*
X130179605Y-113000000D01*
X130688485Y-113508880D01*
X130889255Y-113489101D01*
X130967587Y-113306218D01*
X131000585Y-113150123D01*
X131025356Y-113282952D01*
X131099285Y-113467659D01*
X131110745Y-113489101D01*
X131311515Y-113508880D01*
X131820395Y-113000000D01*
X132179605Y-113000000D01*
X132688485Y-113508880D01*
X132889255Y-113489101D01*
X132967587Y-113306218D01*
X133008735Y-113111567D01*
X133011118Y-112912628D01*
X132974644Y-112717048D01*
X132900715Y-112532341D01*
X132889255Y-112510899D01*
X132688485Y-112491120D01*
X132179605Y-113000000D01*
X131820395Y-113000000D01*
X131311515Y-112491120D01*
X131110745Y-112510899D01*
X131032413Y-112693782D01*
X130999415Y-112849877D01*
X130974644Y-112717048D01*
X130900715Y-112532341D01*
X130889255Y-112510899D01*
X130688485Y-112491120D01*
X130179605Y-113000000D01*
X129820395Y-113000000D01*
X129311515Y-112491120D01*
X129110745Y-112510899D01*
X129032413Y-112693782D01*
X128999415Y-112849877D01*
X128974644Y-112717048D01*
X128900715Y-112532341D01*
X128889255Y-112510899D01*
X128688485Y-112491120D01*
X128179605Y-113000000D01*
X127820395Y-113000000D01*
X127311515Y-112491120D01*
X127110745Y-112510899D01*
X127032413Y-112693782D01*
X126999415Y-112849877D01*
X126974644Y-112717048D01*
X126900715Y-112532341D01*
X126889255Y-112510899D01*
X126688485Y-112491120D01*
X126179605Y-113000000D01*
X125820395Y-113000000D01*
X125311515Y-112491120D01*
X125110745Y-112510899D01*
X125032413Y-112693782D01*
X124991265Y-112888433D01*
X124988882Y-113087372D01*
X123763072Y-113087372D01*
X123763072Y-112750000D01*
X123750812Y-112625518D01*
X123714502Y-112505820D01*
X123655537Y-112395506D01*
X123630501Y-112365000D01*
X123655537Y-112334494D01*
X123714502Y-112224180D01*
X123750812Y-112104482D01*
X123763072Y-111980000D01*
X123763072Y-111688485D01*
X125491120Y-111688485D01*
X125510899Y-111889255D01*
X125693782Y-111967587D01*
X125849877Y-112000585D01*
X125717048Y-112025356D01*
X125532341Y-112099285D01*
X125510899Y-112110745D01*
X125491120Y-112311515D01*
X126000000Y-112820395D01*
X126508880Y-112311515D01*
X126489101Y-112110745D01*
X126306218Y-112032413D01*
X126150123Y-111999415D01*
X126282952Y-111974644D01*
X126467659Y-111900715D01*
X126489101Y-111889255D01*
X126508880Y-111688485D01*
X127491120Y-111688485D01*
X127510899Y-111889255D01*
X127693782Y-111967587D01*
X127849877Y-112000585D01*
X127717048Y-112025356D01*
X127532341Y-112099285D01*
X127510899Y-112110745D01*
X127491120Y-112311515D01*
X128000000Y-112820395D01*
X128508880Y-112311515D01*
X128489101Y-112110745D01*
X128306218Y-112032413D01*
X128150123Y-111999415D01*
X128282952Y-111974644D01*
X128467659Y-111900715D01*
X128489101Y-111889255D01*
X128508880Y-111688485D01*
X129491120Y-111688485D01*
X129510899Y-111889255D01*
X129693782Y-111967587D01*
X129849877Y-112000585D01*
X129717048Y-112025356D01*
X129532341Y-112099285D01*
X129510899Y-112110745D01*
X129491120Y-112311515D01*
X130000000Y-112820395D01*
X130508880Y-112311515D01*
X130489101Y-112110745D01*
X130306218Y-112032413D01*
X130150123Y-111999415D01*
X130282952Y-111974644D01*
X130467659Y-111900715D01*
X130489101Y-111889255D01*
X130508880Y-111688485D01*
X131491120Y-111688485D01*
X131510899Y-111889255D01*
X131693782Y-111967587D01*
X131849877Y-112000585D01*
X131717048Y-112025356D01*
X131532341Y-112099285D01*
X131510899Y-112110745D01*
X131491120Y-112311515D01*
X132000000Y-112820395D01*
X132508880Y-112311515D01*
X132489101Y-112110745D01*
X132306218Y-112032413D01*
X132150123Y-111999415D01*
X132282952Y-111974644D01*
X132467659Y-111900715D01*
X132489101Y-111889255D01*
X132508880Y-111688485D01*
X132000000Y-111179605D01*
X131491120Y-111688485D01*
X130508880Y-111688485D01*
X130000000Y-111179605D01*
X129491120Y-111688485D01*
X128508880Y-111688485D01*
X128000000Y-111179605D01*
X127491120Y-111688485D01*
X126508880Y-111688485D01*
X126000000Y-111179605D01*
X125491120Y-111688485D01*
X123763072Y-111688485D01*
X123763072Y-111480000D01*
X123750812Y-111355518D01*
X123714502Y-111235820D01*
X123655537Y-111125506D01*
X123630501Y-111095000D01*
X123636761Y-111087372D01*
X124988882Y-111087372D01*
X125025356Y-111282952D01*
X125099285Y-111467659D01*
X125110745Y-111489101D01*
X125311515Y-111508880D01*
X125820395Y-111000000D01*
X126179605Y-111000000D01*
X126688485Y-111508880D01*
X126889255Y-111489101D01*
X126967587Y-111306218D01*
X127000585Y-111150123D01*
X127025356Y-111282952D01*
X127099285Y-111467659D01*
X127110745Y-111489101D01*
X127311515Y-111508880D01*
X127820395Y-111000000D01*
X128179605Y-111000000D01*
X128688485Y-111508880D01*
X128889255Y-111489101D01*
X128967587Y-111306218D01*
X129000585Y-111150123D01*
X129025356Y-111282952D01*
X129099285Y-111467659D01*
X129110745Y-111489101D01*
X129311515Y-111508880D01*
X129820395Y-111000000D01*
X130179605Y-111000000D01*
X130688485Y-111508880D01*
X130889255Y-111489101D01*
X130967587Y-111306218D01*
X131000585Y-111150123D01*
X131025356Y-111282952D01*
X131099285Y-111467659D01*
X131110745Y-111489101D01*
X131311515Y-111508880D01*
X131820395Y-111000000D01*
X132179605Y-111000000D01*
X132688485Y-111508880D01*
X132889255Y-111489101D01*
X132967587Y-111306218D01*
X133008735Y-111111567D01*
X133011118Y-110912628D01*
X132974644Y-110717048D01*
X132900715Y-110532341D01*
X132889255Y-110510899D01*
X132688485Y-110491120D01*
X132179605Y-111000000D01*
X131820395Y-111000000D01*
X131311515Y-110491120D01*
X131110745Y-110510899D01*
X131032413Y-110693782D01*
X130999415Y-110849877D01*
X130974644Y-110717048D01*
X130900715Y-110532341D01*
X130889255Y-110510899D01*
X130688485Y-110491120D01*
X130179605Y-111000000D01*
X129820395Y-111000000D01*
X129311515Y-110491120D01*
X129110745Y-110510899D01*
X129032413Y-110693782D01*
X128999415Y-110849877D01*
X128974644Y-110717048D01*
X128900715Y-110532341D01*
X128889255Y-110510899D01*
X128688485Y-110491120D01*
X128179605Y-111000000D01*
X127820395Y-111000000D01*
X127311515Y-110491120D01*
X127110745Y-110510899D01*
X127032413Y-110693782D01*
X126999415Y-110849877D01*
X126974644Y-110717048D01*
X126900715Y-110532341D01*
X126889255Y-110510899D01*
X126688485Y-110491120D01*
X126179605Y-111000000D01*
X125820395Y-111000000D01*
X125311515Y-110491120D01*
X125110745Y-110510899D01*
X125032413Y-110693782D01*
X124991265Y-110888433D01*
X124988882Y-111087372D01*
X123636761Y-111087372D01*
X123655537Y-111064494D01*
X123714502Y-110954180D01*
X123750812Y-110834482D01*
X123763072Y-110710000D01*
X123763072Y-110210000D01*
X123750812Y-110085518D01*
X123714502Y-109965820D01*
X123655537Y-109855506D01*
X123576185Y-109758815D01*
X123490488Y-109688485D01*
X125491120Y-109688485D01*
X125510899Y-109889255D01*
X125693782Y-109967587D01*
X125849877Y-110000585D01*
X125717048Y-110025356D01*
X125532341Y-110099285D01*
X125510899Y-110110745D01*
X125491120Y-110311515D01*
X126000000Y-110820395D01*
X126508880Y-110311515D01*
X126489101Y-110110745D01*
X126306218Y-110032413D01*
X126150123Y-109999415D01*
X126282952Y-109974644D01*
X126467659Y-109900715D01*
X126489101Y-109889255D01*
X126508880Y-109688485D01*
X127491120Y-109688485D01*
X127510899Y-109889255D01*
X127693782Y-109967587D01*
X127849877Y-110000585D01*
X127717048Y-110025356D01*
X127532341Y-110099285D01*
X127510899Y-110110745D01*
X127491120Y-110311515D01*
X128000000Y-110820395D01*
X128508880Y-110311515D01*
X128489101Y-110110745D01*
X128306218Y-110032413D01*
X128150123Y-109999415D01*
X128282952Y-109974644D01*
X128467659Y-109900715D01*
X128489101Y-109889255D01*
X128508880Y-109688485D01*
X129491120Y-109688485D01*
X129510899Y-109889255D01*
X129693782Y-109967587D01*
X129849877Y-110000585D01*
X129717048Y-110025356D01*
X129532341Y-110099285D01*
X129510899Y-110110745D01*
X129491120Y-110311515D01*
X130000000Y-110820395D01*
X130508880Y-110311515D01*
X130489101Y-110110745D01*
X130306218Y-110032413D01*
X130150123Y-109999415D01*
X130282952Y-109974644D01*
X130467659Y-109900715D01*
X130489101Y-109889255D01*
X130508880Y-109688485D01*
X131491120Y-109688485D01*
X131510899Y-109889255D01*
X131693782Y-109967587D01*
X131849877Y-110000585D01*
X131717048Y-110025356D01*
X131532341Y-110099285D01*
X131510899Y-110110745D01*
X131491120Y-110311515D01*
X132000000Y-110820395D01*
X132508880Y-110311515D01*
X132498880Y-110210000D01*
X134236928Y-110210000D01*
X134236928Y-110710000D01*
X134249188Y-110834482D01*
X134285498Y-110954180D01*
X134344463Y-111064494D01*
X134369499Y-111095000D01*
X134344463Y-111125506D01*
X134285498Y-111235820D01*
X134249188Y-111355518D01*
X134236928Y-111480000D01*
X134236928Y-111980000D01*
X134249188Y-112104482D01*
X134285498Y-112224180D01*
X134344463Y-112334494D01*
X134423815Y-112431185D01*
X134520506Y-112510537D01*
X134630820Y-112569502D01*
X134750518Y-112605812D01*
X134875000Y-112618072D01*
X137325000Y-112618072D01*
X137449482Y-112605812D01*
X137569180Y-112569502D01*
X137679494Y-112510537D01*
X137717091Y-112479682D01*
X137723986Y-112479003D01*
X137867247Y-112435546D01*
X137999276Y-112364974D01*
X138115001Y-112270001D01*
X138138804Y-112240997D01*
X138510998Y-111868803D01*
X138540001Y-111845001D01*
X138634974Y-111729276D01*
X138705546Y-111597247D01*
X138749003Y-111453986D01*
X138760000Y-111342333D01*
X138760000Y-111342325D01*
X138763676Y-111305000D01*
X138760000Y-111267675D01*
X138760000Y-110037333D01*
X138763677Y-110000000D01*
X138749003Y-109851014D01*
X138705546Y-109707753D01*
X138634974Y-109575724D01*
X138563799Y-109488997D01*
X138540001Y-109459999D01*
X138511003Y-109436201D01*
X137563804Y-108489002D01*
X137540001Y-108459999D01*
X137424276Y-108365026D01*
X137292247Y-108294454D01*
X137219530Y-108272396D01*
X137214502Y-108255820D01*
X137155537Y-108145506D01*
X137076185Y-108048815D01*
X136979494Y-107969463D01*
X136869180Y-107910498D01*
X136749482Y-107874188D01*
X136625000Y-107861928D01*
X135375000Y-107861928D01*
X135250518Y-107874188D01*
X135130820Y-107910498D01*
X135020506Y-107969463D01*
X134923815Y-108048815D01*
X134844463Y-108145506D01*
X134785498Y-108255820D01*
X134749188Y-108375518D01*
X134736928Y-108500000D01*
X134736928Y-109500000D01*
X134745373Y-109585749D01*
X134630820Y-109620498D01*
X134520506Y-109679463D01*
X134423815Y-109758815D01*
X134344463Y-109855506D01*
X134285498Y-109965820D01*
X134249188Y-110085518D01*
X134236928Y-110210000D01*
X132498880Y-110210000D01*
X132489101Y-110110745D01*
X132306218Y-110032413D01*
X132150123Y-109999415D01*
X132282952Y-109974644D01*
X132467659Y-109900715D01*
X132489101Y-109889255D01*
X132508880Y-109688485D01*
X132000000Y-109179605D01*
X131491120Y-109688485D01*
X130508880Y-109688485D01*
X130000000Y-109179605D01*
X129491120Y-109688485D01*
X128508880Y-109688485D01*
X128000000Y-109179605D01*
X127491120Y-109688485D01*
X126508880Y-109688485D01*
X126000000Y-109179605D01*
X125491120Y-109688485D01*
X123490488Y-109688485D01*
X123479494Y-109679463D01*
X123369180Y-109620498D01*
X123254627Y-109585749D01*
X123263072Y-109500000D01*
X123263072Y-109087372D01*
X124988882Y-109087372D01*
X125025356Y-109282952D01*
X125099285Y-109467659D01*
X125110745Y-109489101D01*
X125311515Y-109508880D01*
X125820395Y-109000000D01*
X126179605Y-109000000D01*
X126688485Y-109508880D01*
X126889255Y-109489101D01*
X126967587Y-109306218D01*
X127000585Y-109150123D01*
X127025356Y-109282952D01*
X127099285Y-109467659D01*
X127110745Y-109489101D01*
X127311515Y-109508880D01*
X127820395Y-109000000D01*
X128179605Y-109000000D01*
X128688485Y-109508880D01*
X128889255Y-109489101D01*
X128967587Y-109306218D01*
X129000585Y-109150123D01*
X129025356Y-109282952D01*
X129099285Y-109467659D01*
X129110745Y-109489101D01*
X129311515Y-109508880D01*
X129820395Y-109000000D01*
X130179605Y-109000000D01*
X130688485Y-109508880D01*
X130889255Y-109489101D01*
X130967587Y-109306218D01*
X131000585Y-109150123D01*
X131025356Y-109282952D01*
X131099285Y-109467659D01*
X131110745Y-109489101D01*
X131311515Y-109508880D01*
X131820395Y-109000000D01*
X132179605Y-109000000D01*
X132688485Y-109508880D01*
X132889255Y-109489101D01*
X132967587Y-109306218D01*
X133008735Y-109111567D01*
X133011118Y-108912628D01*
X132974644Y-108717048D01*
X132900715Y-108532341D01*
X132889255Y-108510899D01*
X132688485Y-108491120D01*
X132179605Y-109000000D01*
X131820395Y-109000000D01*
X131311515Y-108491120D01*
X131110745Y-108510899D01*
X131032413Y-108693782D01*
X130999415Y-108849877D01*
X130974644Y-108717048D01*
X130900715Y-108532341D01*
X130889255Y-108510899D01*
X130688485Y-108491120D01*
X130179605Y-109000000D01*
X129820395Y-109000000D01*
X129311515Y-108491120D01*
X129110745Y-108510899D01*
X129032413Y-108693782D01*
X128999415Y-108849877D01*
X128974644Y-108717048D01*
X128900715Y-108532341D01*
X128889255Y-108510899D01*
X128688485Y-108491120D01*
X128179605Y-109000000D01*
X127820395Y-109000000D01*
X127311515Y-108491120D01*
X127110745Y-108510899D01*
X127032413Y-108693782D01*
X126999415Y-108849877D01*
X126974644Y-108717048D01*
X126900715Y-108532341D01*
X126889255Y-108510899D01*
X126688485Y-108491120D01*
X126179605Y-109000000D01*
X125820395Y-109000000D01*
X125311515Y-108491120D01*
X125110745Y-108510899D01*
X125032413Y-108693782D01*
X124991265Y-108888433D01*
X124988882Y-109087372D01*
X123263072Y-109087372D01*
X123263072Y-108500000D01*
X123250812Y-108375518D01*
X123231397Y-108311515D01*
X125491120Y-108311515D01*
X126000000Y-108820395D01*
X126508880Y-108311515D01*
X127491120Y-108311515D01*
X128000000Y-108820395D01*
X128508880Y-108311515D01*
X129491120Y-108311515D01*
X130000000Y-108820395D01*
X130508880Y-108311515D01*
X131491120Y-108311515D01*
X132000000Y-108820395D01*
X132508880Y-108311515D01*
X132489101Y-108110745D01*
X132306218Y-108032413D01*
X132111567Y-107991265D01*
X131912628Y-107988882D01*
X131717048Y-108025356D01*
X131532341Y-108099285D01*
X131510899Y-108110745D01*
X131491120Y-108311515D01*
X130508880Y-108311515D01*
X130489101Y-108110745D01*
X130306218Y-108032413D01*
X130111567Y-107991265D01*
X129912628Y-107988882D01*
X129717048Y-108025356D01*
X129532341Y-108099285D01*
X129510899Y-108110745D01*
X129491120Y-108311515D01*
X128508880Y-108311515D01*
X128489101Y-108110745D01*
X128306218Y-108032413D01*
X128111567Y-107991265D01*
X127912628Y-107988882D01*
X127717048Y-108025356D01*
X127532341Y-108099285D01*
X127510899Y-108110745D01*
X127491120Y-108311515D01*
X126508880Y-108311515D01*
X126489101Y-108110745D01*
X126306218Y-108032413D01*
X126111567Y-107991265D01*
X125912628Y-107988882D01*
X125717048Y-108025356D01*
X125532341Y-108099285D01*
X125510899Y-108110745D01*
X125491120Y-108311515D01*
X123231397Y-108311515D01*
X123214502Y-108255820D01*
X123155537Y-108145506D01*
X123076185Y-108048815D01*
X122979494Y-107969463D01*
X122869180Y-107910498D01*
X122749482Y-107874188D01*
X122625000Y-107861928D01*
X121375000Y-107861928D01*
X121250518Y-107874188D01*
X121130820Y-107910498D01*
X121020506Y-107969463D01*
X120923815Y-108048815D01*
X120844463Y-108145506D01*
X120793954Y-108240000D01*
X119086939Y-108240000D01*
X119072608Y-108234064D01*
X118872649Y-108194290D01*
X118668771Y-108194290D01*
X118468812Y-108234064D01*
X118280454Y-108312085D01*
X118110936Y-108425353D01*
X117966773Y-108569516D01*
X117853505Y-108739034D01*
X117775484Y-108927392D01*
X117735710Y-109127351D01*
X117735710Y-109331229D01*
X117775484Y-109531188D01*
X117853505Y-109719546D01*
X117966773Y-109889064D01*
X118027214Y-109949505D01*
X117924276Y-109865026D01*
X117792247Y-109794454D01*
X117648986Y-109750997D01*
X117537333Y-109740000D01*
X117537322Y-109740000D01*
X117500000Y-109736324D01*
X117462678Y-109740000D01*
X114814802Y-109740000D01*
X114300000Y-109225199D01*
X114300000Y-104300000D01*
X120725199Y-104300000D01*
X122761211Y-106336013D01*
G36*
X111127000Y-101373000D02*
G01*
X111147000Y-101373000D01*
X111147000Y-101627000D01*
X111127000Y-101627000D01*
X111127000Y-102820155D01*
X111356890Y-102941476D01*
X111504099Y-102896825D01*
X111766920Y-102771641D01*
X112000269Y-102597588D01*
X112076034Y-102513534D01*
X112100498Y-102594180D01*
X112159463Y-102704494D01*
X112238815Y-102801185D01*
X112335506Y-102880537D01*
X112445820Y-102939502D01*
X112565518Y-102975812D01*
X112690000Y-102988072D01*
X112780001Y-102988072D01*
X112780001Y-103502657D01*
X112776323Y-103540000D01*
X112780000Y-103577333D01*
X112780001Y-109502668D01*
X112776324Y-109540000D01*
X112780001Y-109577333D01*
X112790998Y-109688986D01*
X112796691Y-109707753D01*
X112834454Y-109832246D01*
X112905026Y-109964276D01*
X112963663Y-110035724D01*
X113000000Y-110080001D01*
X113028998Y-110103799D01*
X113936200Y-111011002D01*
X113959999Y-111040001D01*
X113966000Y-111044926D01*
X113872038Y-111122038D01*
X113761595Y-111256614D01*
X113679528Y-111410150D01*
X113628992Y-111576746D01*
X113611928Y-111750000D01*
X113611928Y-113065000D01*
X109345000Y-113065000D01*
X109345000Y-102694759D01*
X109515134Y-102555134D01*
X109700706Y-102329014D01*
X109735201Y-102264477D01*
X109804822Y-102381355D01*
X109999731Y-102597588D01*
X110233080Y-102771641D01*
X110495901Y-102896825D01*
X110643110Y-102941476D01*
X110873000Y-102820155D01*
X110873000Y-101627000D01*
X110853000Y-101627000D01*
X110853000Y-101373000D01*
X110873000Y-101373000D01*
X110873000Y-101353000D01*
X111127000Y-101353000D01*
X111127000Y-101373000D01*
X111127000Y-101373000D01*
G37*
X111127000Y-101373000D02*
X111147000Y-101373000D01*
X111147000Y-101627000D01*
X111127000Y-101627000D01*
X111127000Y-102820155D01*
X111356890Y-102941476D01*
X111504099Y-102896825D01*
X111766920Y-102771641D01*
X112000269Y-102597588D01*
X112076034Y-102513534D01*
X112100498Y-102594180D01*
X112159463Y-102704494D01*
X112238815Y-102801185D01*
X112335506Y-102880537D01*
X112445820Y-102939502D01*
X112565518Y-102975812D01*
X112690000Y-102988072D01*
X112780001Y-102988072D01*
X112780001Y-103502657D01*
X112776323Y-103540000D01*
X112780000Y-103577333D01*
X112780001Y-109502668D01*
X112776324Y-109540000D01*
X112780001Y-109577333D01*
X112790998Y-109688986D01*
X112796691Y-109707753D01*
X112834454Y-109832246D01*
X112905026Y-109964276D01*
X112963663Y-110035724D01*
X113000000Y-110080001D01*
X113028998Y-110103799D01*
X113936200Y-111011002D01*
X113959999Y-111040001D01*
X113966000Y-111044926D01*
X113872038Y-111122038D01*
X113761595Y-111256614D01*
X113679528Y-111410150D01*
X113628992Y-111576746D01*
X113611928Y-111750000D01*
X113611928Y-113065000D01*
X109345000Y-113065000D01*
X109345000Y-102694759D01*
X109515134Y-102555134D01*
X109700706Y-102329014D01*
X109735201Y-102264477D01*
X109804822Y-102381355D01*
X109999731Y-102597588D01*
X110233080Y-102771641D01*
X110495901Y-102896825D01*
X110643110Y-102941476D01*
X110873000Y-102820155D01*
X110873000Y-101627000D01*
X110853000Y-101627000D01*
X110853000Y-101373000D01*
X110873000Y-101373000D01*
X110873000Y-101353000D01*
X111127000Y-101353000D01*
X111127000Y-101373000D01*
M02*
