G04 #@! TF.GenerationSoftware,KiCad,Pcbnew,(5.1.0)-1*
G04 #@! TF.CreationDate,2019-08-01T13:02:20+05:30*
G04 #@! TF.ProjectId,AR0135_STM32F746G-DISCO_adapter_rev1,41523031-3335-45f5-9354-4d3332463734,rev?*
G04 #@! TF.SameCoordinates,Original*
G04 #@! TF.FileFunction,Copper,L2,Bot*
G04 #@! TF.FilePolarity,Positive*
%FSLAX46Y46*%
G04 Gerber Fmt 4.6, Leading zero omitted, Abs format (unit mm)*
G04 Created by KiCad (PCBNEW (5.1.0)-1) date 2019-08-01 13:02:20*
%MOMM*%
%LPD*%
G04 APERTURE LIST*
%ADD10R,1.700000X1.700000*%
%ADD11O,1.700000X1.700000*%
%ADD12C,0.800000*%
%ADD13C,0.250000*%
%ADD14C,0.254000*%
G04 APERTURE END LIST*
D10*
X15000000Y-18500000D03*
D11*
X15000000Y-21040000D03*
X15000000Y-23580000D03*
X15000000Y-26120000D03*
X15000000Y-28660000D03*
X15000000Y-31200000D03*
X15000000Y-33740000D03*
X15000000Y-36280000D03*
X15000000Y-38820000D03*
X15000000Y-41360000D03*
X45000000Y-18640000D03*
X45000000Y-21180000D03*
X45000000Y-23720000D03*
X45000000Y-26260000D03*
X45000000Y-28800000D03*
X45000000Y-31340000D03*
X45000000Y-33880000D03*
X45000000Y-36420000D03*
X45000000Y-38960000D03*
D10*
X45000000Y-41500000D03*
D12*
X26200000Y-45000000D03*
X42000000Y-44000000D03*
X19500000Y-17000000D03*
X34800000Y-15000000D03*
X27975000Y-38000000D03*
X28975000Y-38900000D03*
X31000000Y-38000000D03*
X32012653Y-37987347D03*
X33031672Y-37981061D03*
X34031482Y-38000615D03*
X34563523Y-39058802D03*
X35000000Y-40000000D03*
X28987347Y-20012653D03*
X40600000Y-38200000D03*
X30000000Y-20000000D03*
X28512347Y-31800000D03*
X36487347Y-29012653D03*
X26500000Y-33899994D03*
X35500000Y-27000000D03*
X29237347Y-30900000D03*
X26500000Y-34899997D03*
X34500000Y-26000000D03*
X29962347Y-30019761D03*
X26500000Y-35900000D03*
X33500000Y-25000000D03*
X30687347Y-29312653D03*
X26500000Y-37000000D03*
X27800000Y-47000000D03*
D13*
X24980000Y-23580000D02*
X15000000Y-23580000D01*
X25774999Y-24374999D02*
X24980000Y-23580000D01*
X25774999Y-37348001D02*
X25774999Y-24374999D01*
X26426998Y-38000000D02*
X25774999Y-37348001D01*
X27975000Y-38000000D02*
X26426998Y-38000000D01*
X26690588Y-38900000D02*
X25324989Y-37534401D01*
X28975000Y-38900000D02*
X26690588Y-38900000D01*
X25324989Y-37534401D02*
X25324989Y-26924989D01*
X24520000Y-26120000D02*
X15000000Y-26120000D01*
X25324989Y-26924989D02*
X24520000Y-26120000D01*
X26779179Y-39625001D02*
X24800000Y-37645822D01*
X29940684Y-39625001D02*
X26779179Y-39625001D01*
X31000000Y-38000000D02*
X31000000Y-38565685D01*
X31000000Y-38565685D02*
X29940684Y-39625001D01*
X24800000Y-37645822D02*
X24800000Y-29600000D01*
X23860000Y-28660000D02*
X15000000Y-28660000D01*
X24800000Y-29600000D02*
X23860000Y-28660000D01*
X26592778Y-40075010D02*
X24349990Y-37832222D01*
X30490675Y-40075010D02*
X26592778Y-40075010D01*
X32012653Y-37987347D02*
X32012653Y-38553032D01*
X32012653Y-38553032D02*
X30490675Y-40075010D01*
X24349990Y-37832222D02*
X24349990Y-32449990D01*
X23100000Y-31200000D02*
X15000000Y-31200000D01*
X24349990Y-32449990D02*
X23100000Y-31200000D01*
X33031672Y-38546746D02*
X31053398Y-40525020D01*
X33031672Y-37981061D02*
X33031672Y-38546746D01*
X31053398Y-40525020D02*
X26406377Y-40525019D01*
X26406377Y-40525019D02*
X23800000Y-37918642D01*
X22940000Y-33740000D02*
X23800000Y-34600000D01*
X15000000Y-33740000D02*
X22940000Y-33740000D01*
X23800000Y-37918642D02*
X23800000Y-34600000D01*
X34031482Y-38000615D02*
X34031482Y-38566300D01*
X34031482Y-38566300D02*
X31622754Y-40975028D01*
X15000000Y-36280000D02*
X20180000Y-36280000D01*
X20180000Y-36280000D02*
X24875028Y-40975028D01*
X24875028Y-40975028D02*
X31622754Y-40975028D01*
X32197287Y-41425038D02*
X24425038Y-41425038D01*
X34563523Y-39058802D02*
X32197287Y-41425038D01*
X24425038Y-41425038D02*
X21800000Y-38800000D01*
X21780000Y-38820000D02*
X15000000Y-38820000D01*
X21800000Y-38800000D02*
X21780000Y-38820000D01*
X32790001Y-42209999D02*
X35000000Y-40000000D01*
X15000000Y-41360000D02*
X15849999Y-42209999D01*
X15849999Y-42209999D02*
X32790001Y-42209999D01*
X43900000Y-41500000D02*
X45000000Y-41500000D01*
X28987347Y-20012653D02*
X28987347Y-26587347D01*
X28987347Y-26587347D02*
X40600000Y-38200000D01*
X40600000Y-38200000D02*
X43900000Y-41500000D01*
X30000000Y-23960000D02*
X45000000Y-38960000D01*
X30000000Y-20000000D02*
X30000000Y-23960000D01*
X28512347Y-33487653D02*
X28512347Y-31800000D01*
X38814694Y-31340000D02*
X45000000Y-31340000D01*
X36487347Y-29012653D02*
X38814694Y-31340000D01*
X28100006Y-33899994D02*
X28512347Y-33487653D01*
X26500000Y-33899994D02*
X28100006Y-33899994D01*
X37300000Y-28800000D02*
X45000000Y-28800000D01*
X35500000Y-27000000D02*
X37300000Y-28800000D01*
X29237347Y-34262653D02*
X29237347Y-30900000D01*
X28600003Y-34899997D02*
X29237347Y-34262653D01*
X26500000Y-34899997D02*
X28600003Y-34899997D01*
X44740000Y-26000000D02*
X45000000Y-26260000D01*
X34500000Y-26000000D02*
X44740000Y-26000000D01*
X29962347Y-35037653D02*
X29962347Y-30019761D01*
X29100000Y-35900000D02*
X29962347Y-35037653D01*
X26500000Y-35900000D02*
X29100000Y-35900000D01*
X37320000Y-21180000D02*
X45000000Y-21180000D01*
X33500000Y-25000000D02*
X37320000Y-21180000D01*
X30687347Y-36312653D02*
X30687347Y-29312653D01*
X30000000Y-37000000D02*
X30687347Y-36312653D01*
X26500000Y-37000000D02*
X30000000Y-37000000D01*
X45000000Y-18640000D02*
X48000000Y-21640000D01*
X48000000Y-21640000D02*
X48000000Y-42000000D01*
X48000000Y-42000000D02*
X43000000Y-47000000D01*
X43000000Y-47000000D02*
X27800000Y-47000000D01*
D14*
G36*
X49340000Y-49340000D02*
G01*
X10660000Y-49340000D01*
X10660000Y-46854042D01*
X11295000Y-46854042D01*
X11295000Y-47185958D01*
X11359754Y-47511496D01*
X11486772Y-47818147D01*
X11671175Y-48094125D01*
X11905875Y-48328825D01*
X12181853Y-48513228D01*
X12488504Y-48640246D01*
X12814042Y-48705000D01*
X13145958Y-48705000D01*
X13471496Y-48640246D01*
X13778147Y-48513228D01*
X14054125Y-48328825D01*
X14288825Y-48094125D01*
X14473228Y-47818147D01*
X14600246Y-47511496D01*
X14665000Y-47185958D01*
X14665000Y-46854042D01*
X14600246Y-46528504D01*
X14473228Y-46221853D01*
X14288825Y-45945875D01*
X14054125Y-45711175D01*
X13778147Y-45526772D01*
X13471496Y-45399754D01*
X13145958Y-45335000D01*
X12814042Y-45335000D01*
X12488504Y-45399754D01*
X12181853Y-45526772D01*
X11905875Y-45711175D01*
X11671175Y-45945875D01*
X11486772Y-46221853D01*
X11359754Y-46528504D01*
X11295000Y-46854042D01*
X10660000Y-46854042D01*
X10660000Y-21040000D01*
X13507815Y-21040000D01*
X13536487Y-21331111D01*
X13621401Y-21611034D01*
X13759294Y-21869014D01*
X13944866Y-22095134D01*
X14170986Y-22280706D01*
X14225791Y-22310000D01*
X14170986Y-22339294D01*
X13944866Y-22524866D01*
X13759294Y-22750986D01*
X13621401Y-23008966D01*
X13536487Y-23288889D01*
X13507815Y-23580000D01*
X13536487Y-23871111D01*
X13621401Y-24151034D01*
X13759294Y-24409014D01*
X13944866Y-24635134D01*
X14170986Y-24820706D01*
X14225791Y-24850000D01*
X14170986Y-24879294D01*
X13944866Y-25064866D01*
X13759294Y-25290986D01*
X13621401Y-25548966D01*
X13536487Y-25828889D01*
X13507815Y-26120000D01*
X13536487Y-26411111D01*
X13621401Y-26691034D01*
X13759294Y-26949014D01*
X13944866Y-27175134D01*
X14170986Y-27360706D01*
X14225791Y-27390000D01*
X14170986Y-27419294D01*
X13944866Y-27604866D01*
X13759294Y-27830986D01*
X13621401Y-28088966D01*
X13536487Y-28368889D01*
X13507815Y-28660000D01*
X13536487Y-28951111D01*
X13621401Y-29231034D01*
X13759294Y-29489014D01*
X13944866Y-29715134D01*
X14170986Y-29900706D01*
X14225791Y-29930000D01*
X14170986Y-29959294D01*
X13944866Y-30144866D01*
X13759294Y-30370986D01*
X13621401Y-30628966D01*
X13536487Y-30908889D01*
X13507815Y-31200000D01*
X13536487Y-31491111D01*
X13621401Y-31771034D01*
X13759294Y-32029014D01*
X13944866Y-32255134D01*
X14170986Y-32440706D01*
X14225791Y-32470000D01*
X14170986Y-32499294D01*
X13944866Y-32684866D01*
X13759294Y-32910986D01*
X13621401Y-33168966D01*
X13536487Y-33448889D01*
X13507815Y-33740000D01*
X13536487Y-34031111D01*
X13621401Y-34311034D01*
X13759294Y-34569014D01*
X13944866Y-34795134D01*
X14170986Y-34980706D01*
X14225791Y-35010000D01*
X14170986Y-35039294D01*
X13944866Y-35224866D01*
X13759294Y-35450986D01*
X13621401Y-35708966D01*
X13536487Y-35988889D01*
X13507815Y-36280000D01*
X13536487Y-36571111D01*
X13621401Y-36851034D01*
X13759294Y-37109014D01*
X13944866Y-37335134D01*
X14170986Y-37520706D01*
X14225791Y-37550000D01*
X14170986Y-37579294D01*
X13944866Y-37764866D01*
X13759294Y-37990986D01*
X13621401Y-38248966D01*
X13536487Y-38528889D01*
X13507815Y-38820000D01*
X13536487Y-39111111D01*
X13621401Y-39391034D01*
X13759294Y-39649014D01*
X13944866Y-39875134D01*
X14170986Y-40060706D01*
X14225791Y-40090000D01*
X14170986Y-40119294D01*
X13944866Y-40304866D01*
X13759294Y-40530986D01*
X13621401Y-40788966D01*
X13536487Y-41068889D01*
X13507815Y-41360000D01*
X13536487Y-41651111D01*
X13621401Y-41931034D01*
X13759294Y-42189014D01*
X13944866Y-42415134D01*
X14170986Y-42600706D01*
X14428966Y-42738599D01*
X14708889Y-42823513D01*
X14927050Y-42845000D01*
X15072950Y-42845000D01*
X15291111Y-42823513D01*
X15370302Y-42799491D01*
X15425722Y-42844973D01*
X15557752Y-42915545D01*
X15701013Y-42959002D01*
X15812666Y-42969999D01*
X15812675Y-42969999D01*
X15849998Y-42973675D01*
X15887321Y-42969999D01*
X32752679Y-42969999D01*
X32790001Y-42973675D01*
X32827323Y-42969999D01*
X32827334Y-42969999D01*
X32938987Y-42959002D01*
X33082248Y-42915545D01*
X33214277Y-42844973D01*
X33330002Y-42750000D01*
X33353805Y-42720996D01*
X35039802Y-41035000D01*
X35101939Y-41035000D01*
X35301898Y-40995226D01*
X35490256Y-40917205D01*
X35659774Y-40803937D01*
X35803937Y-40659774D01*
X35917205Y-40490256D01*
X35995226Y-40301898D01*
X36035000Y-40101939D01*
X36035000Y-39898061D01*
X35995226Y-39698102D01*
X35917205Y-39509744D01*
X35803937Y-39340226D01*
X35659774Y-39196063D01*
X35598523Y-39155137D01*
X35598523Y-38956863D01*
X35558749Y-38756904D01*
X35480728Y-38568546D01*
X35367460Y-38399028D01*
X35223297Y-38254865D01*
X35058137Y-38144509D01*
X35066482Y-38102554D01*
X35066482Y-37898676D01*
X35026708Y-37698717D01*
X34948687Y-37510359D01*
X34835419Y-37340841D01*
X34691256Y-37196678D01*
X34521738Y-37083410D01*
X34333380Y-37005389D01*
X34133421Y-36965615D01*
X33929543Y-36965615D01*
X33729584Y-37005389D01*
X33547379Y-37080861D01*
X33521928Y-37063856D01*
X33333570Y-36985835D01*
X33133611Y-36946061D01*
X32929733Y-36946061D01*
X32729774Y-36985835D01*
X32541416Y-37063856D01*
X32517459Y-37079864D01*
X32502909Y-37070142D01*
X32314551Y-36992121D01*
X32114592Y-36952347D01*
X31910714Y-36952347D01*
X31710755Y-36992121D01*
X31522397Y-37070142D01*
X31496858Y-37087206D01*
X31490256Y-37082795D01*
X31301898Y-37004774D01*
X31108498Y-36966305D01*
X31198356Y-36876447D01*
X31227348Y-36852654D01*
X31251142Y-36823661D01*
X31251146Y-36823657D01*
X31322320Y-36736930D01*
X31322321Y-36736929D01*
X31392893Y-36604900D01*
X31436350Y-36461639D01*
X31447347Y-36349986D01*
X31447347Y-36349977D01*
X31451023Y-36312654D01*
X31447347Y-36275331D01*
X31447347Y-30122148D01*
X39565000Y-38239802D01*
X39565000Y-38301939D01*
X39604774Y-38501898D01*
X39682795Y-38690256D01*
X39796063Y-38859774D01*
X39940226Y-39003937D01*
X40109744Y-39117205D01*
X40298102Y-39195226D01*
X40498061Y-39235000D01*
X40560199Y-39235000D01*
X43336201Y-42011003D01*
X43359999Y-42040001D01*
X43475724Y-42134974D01*
X43511928Y-42154326D01*
X43511928Y-42350000D01*
X43524188Y-42474482D01*
X43560498Y-42594180D01*
X43619463Y-42704494D01*
X43698815Y-42801185D01*
X43795506Y-42880537D01*
X43905820Y-42939502D01*
X44025518Y-42975812D01*
X44150000Y-42988072D01*
X45850000Y-42988072D01*
X45946645Y-42978554D01*
X42685199Y-46240000D01*
X28503711Y-46240000D01*
X28459774Y-46196063D01*
X28290256Y-46082795D01*
X28101898Y-46004774D01*
X27901939Y-45965000D01*
X27698061Y-45965000D01*
X27498102Y-46004774D01*
X27309744Y-46082795D01*
X27140226Y-46196063D01*
X26996063Y-46340226D01*
X26882795Y-46509744D01*
X26804774Y-46698102D01*
X26765000Y-46898061D01*
X26765000Y-47101939D01*
X26804774Y-47301898D01*
X26882795Y-47490256D01*
X26996063Y-47659774D01*
X27140226Y-47803937D01*
X27309744Y-47917205D01*
X27498102Y-47995226D01*
X27698061Y-48035000D01*
X27901939Y-48035000D01*
X28101898Y-47995226D01*
X28290256Y-47917205D01*
X28459774Y-47803937D01*
X28503711Y-47760000D01*
X42962678Y-47760000D01*
X43000000Y-47763676D01*
X43037322Y-47760000D01*
X43037333Y-47760000D01*
X43148986Y-47749003D01*
X43292247Y-47705546D01*
X43424276Y-47634974D01*
X43540001Y-47540001D01*
X43563804Y-47510997D01*
X44220759Y-46854042D01*
X45335000Y-46854042D01*
X45335000Y-47185958D01*
X45399754Y-47511496D01*
X45526772Y-47818147D01*
X45711175Y-48094125D01*
X45945875Y-48328825D01*
X46221853Y-48513228D01*
X46528504Y-48640246D01*
X46854042Y-48705000D01*
X47185958Y-48705000D01*
X47511496Y-48640246D01*
X47818147Y-48513228D01*
X48094125Y-48328825D01*
X48328825Y-48094125D01*
X48513228Y-47818147D01*
X48640246Y-47511496D01*
X48705000Y-47185958D01*
X48705000Y-46854042D01*
X48640246Y-46528504D01*
X48513228Y-46221853D01*
X48328825Y-45945875D01*
X48094125Y-45711175D01*
X47818147Y-45526772D01*
X47511496Y-45399754D01*
X47185958Y-45335000D01*
X46854042Y-45335000D01*
X46528504Y-45399754D01*
X46221853Y-45526772D01*
X45945875Y-45711175D01*
X45711175Y-45945875D01*
X45526772Y-46221853D01*
X45399754Y-46528504D01*
X45335000Y-46854042D01*
X44220759Y-46854042D01*
X48511003Y-42563799D01*
X48540001Y-42540001D01*
X48634974Y-42424276D01*
X48705546Y-42292247D01*
X48749003Y-42148986D01*
X48760000Y-42037333D01*
X48760000Y-42037323D01*
X48763676Y-42000000D01*
X48760000Y-41962677D01*
X48760000Y-21677325D01*
X48763676Y-21640000D01*
X48760000Y-21602675D01*
X48760000Y-21602667D01*
X48749003Y-21491014D01*
X48705546Y-21347753D01*
X48634974Y-21215724D01*
X48540001Y-21099999D01*
X48511004Y-21076202D01*
X46440797Y-19005996D01*
X46463513Y-18931111D01*
X46492185Y-18640000D01*
X46463513Y-18348889D01*
X46378599Y-18068966D01*
X46240706Y-17810986D01*
X46055134Y-17584866D01*
X45829014Y-17399294D01*
X45571034Y-17261401D01*
X45291111Y-17176487D01*
X45072950Y-17155000D01*
X44927050Y-17155000D01*
X44708889Y-17176487D01*
X44428966Y-17261401D01*
X44170986Y-17399294D01*
X43944866Y-17584866D01*
X43759294Y-17810986D01*
X43621401Y-18068966D01*
X43536487Y-18348889D01*
X43507815Y-18640000D01*
X43536487Y-18931111D01*
X43621401Y-19211034D01*
X43759294Y-19469014D01*
X43944866Y-19695134D01*
X44170986Y-19880706D01*
X44225791Y-19910000D01*
X44170986Y-19939294D01*
X43944866Y-20124866D01*
X43759294Y-20350986D01*
X43722405Y-20420000D01*
X37357323Y-20420000D01*
X37320000Y-20416324D01*
X37282677Y-20420000D01*
X37282667Y-20420000D01*
X37171014Y-20430997D01*
X37027753Y-20474454D01*
X36895724Y-20545026D01*
X36779999Y-20639999D01*
X36756201Y-20668997D01*
X33460199Y-23965000D01*
X33398061Y-23965000D01*
X33198102Y-24004774D01*
X33009744Y-24082795D01*
X32840226Y-24196063D01*
X32696063Y-24340226D01*
X32582795Y-24509744D01*
X32504774Y-24698102D01*
X32465000Y-24898061D01*
X32465000Y-25101939D01*
X32504774Y-25301898D01*
X32567053Y-25452252D01*
X30760000Y-23645199D01*
X30760000Y-20703711D01*
X30803937Y-20659774D01*
X30917205Y-20490256D01*
X30995226Y-20301898D01*
X31035000Y-20101939D01*
X31035000Y-19898061D01*
X30995226Y-19698102D01*
X30917205Y-19509744D01*
X30803937Y-19340226D01*
X30659774Y-19196063D01*
X30490256Y-19082795D01*
X30301898Y-19004774D01*
X30101939Y-18965000D01*
X29898061Y-18965000D01*
X29698102Y-19004774D01*
X29509744Y-19082795D01*
X29484205Y-19099859D01*
X29477603Y-19095448D01*
X29289245Y-19017427D01*
X29089286Y-18977653D01*
X28885408Y-18977653D01*
X28685449Y-19017427D01*
X28497091Y-19095448D01*
X28327573Y-19208716D01*
X28183410Y-19352879D01*
X28070142Y-19522397D01*
X27992121Y-19710755D01*
X27952347Y-19910714D01*
X27952347Y-20114592D01*
X27992121Y-20314551D01*
X28070142Y-20502909D01*
X28183410Y-20672427D01*
X28227347Y-20716364D01*
X28227348Y-26550015D01*
X28223671Y-26587347D01*
X28227348Y-26624680D01*
X28238345Y-26736333D01*
X28244000Y-26754974D01*
X28281801Y-26879593D01*
X28352373Y-27011623D01*
X28403544Y-27073974D01*
X28447347Y-27127348D01*
X28476345Y-27151146D01*
X29930744Y-28605545D01*
X29883410Y-28652879D01*
X29770142Y-28822397D01*
X29692121Y-29010755D01*
X29690572Y-29018543D01*
X29660449Y-29024535D01*
X29472091Y-29102556D01*
X29302573Y-29215824D01*
X29158410Y-29359987D01*
X29045142Y-29529505D01*
X28967121Y-29717863D01*
X28929448Y-29907260D01*
X28747091Y-29982795D01*
X28577573Y-30096063D01*
X28433410Y-30240226D01*
X28320142Y-30409744D01*
X28242121Y-30598102D01*
X28202347Y-30798061D01*
X28202347Y-30808130D01*
X28022091Y-30882795D01*
X27852573Y-30996063D01*
X27708410Y-31140226D01*
X27595142Y-31309744D01*
X27517121Y-31498102D01*
X27477347Y-31698061D01*
X27477347Y-31901939D01*
X27517121Y-32101898D01*
X27595142Y-32290256D01*
X27708410Y-32459774D01*
X27752348Y-32503712D01*
X27752347Y-33139994D01*
X27203711Y-33139994D01*
X27159774Y-33096057D01*
X26990256Y-32982789D01*
X26801898Y-32904768D01*
X26601939Y-32864994D01*
X26534999Y-32864994D01*
X26534999Y-24412321D01*
X26538675Y-24374998D01*
X26534999Y-24337675D01*
X26534999Y-24337666D01*
X26524002Y-24226013D01*
X26480545Y-24082752D01*
X26409973Y-23950723D01*
X26315000Y-23834998D01*
X26286001Y-23811200D01*
X25543803Y-23069002D01*
X25520001Y-23039999D01*
X25404276Y-22945026D01*
X25272247Y-22874454D01*
X25128986Y-22830997D01*
X25017333Y-22820000D01*
X25017322Y-22820000D01*
X24980000Y-22816324D01*
X24942678Y-22820000D01*
X16277595Y-22820000D01*
X16240706Y-22750986D01*
X16055134Y-22524866D01*
X15829014Y-22339294D01*
X15774209Y-22310000D01*
X15829014Y-22280706D01*
X16055134Y-22095134D01*
X16240706Y-21869014D01*
X16378599Y-21611034D01*
X16463513Y-21331111D01*
X16492185Y-21040000D01*
X16463513Y-20748889D01*
X16378599Y-20468966D01*
X16240706Y-20210986D01*
X16055134Y-19984866D01*
X16025313Y-19960393D01*
X16094180Y-19939502D01*
X16204494Y-19880537D01*
X16301185Y-19801185D01*
X16380537Y-19704494D01*
X16439502Y-19594180D01*
X16475812Y-19474482D01*
X16488072Y-19350000D01*
X16488072Y-17650000D01*
X16475812Y-17525518D01*
X16439502Y-17405820D01*
X16380537Y-17295506D01*
X16301185Y-17198815D01*
X16204494Y-17119463D01*
X16094180Y-17060498D01*
X15974482Y-17024188D01*
X15850000Y-17011928D01*
X14150000Y-17011928D01*
X14025518Y-17024188D01*
X13905820Y-17060498D01*
X13795506Y-17119463D01*
X13698815Y-17198815D01*
X13619463Y-17295506D01*
X13560498Y-17405820D01*
X13524188Y-17525518D01*
X13511928Y-17650000D01*
X13511928Y-19350000D01*
X13524188Y-19474482D01*
X13560498Y-19594180D01*
X13619463Y-19704494D01*
X13698815Y-19801185D01*
X13795506Y-19880537D01*
X13905820Y-19939502D01*
X13974687Y-19960393D01*
X13944866Y-19984866D01*
X13759294Y-20210986D01*
X13621401Y-20468966D01*
X13536487Y-20748889D01*
X13507815Y-21040000D01*
X10660000Y-21040000D01*
X10660000Y-12814042D01*
X11295000Y-12814042D01*
X11295000Y-13145958D01*
X11359754Y-13471496D01*
X11486772Y-13778147D01*
X11671175Y-14054125D01*
X11905875Y-14288825D01*
X12181853Y-14473228D01*
X12488504Y-14600246D01*
X12814042Y-14665000D01*
X13145958Y-14665000D01*
X13471496Y-14600246D01*
X13778147Y-14473228D01*
X14054125Y-14288825D01*
X14288825Y-14054125D01*
X14473228Y-13778147D01*
X14600246Y-13471496D01*
X14665000Y-13145958D01*
X14665000Y-12814042D01*
X45335000Y-12814042D01*
X45335000Y-13145958D01*
X45399754Y-13471496D01*
X45526772Y-13778147D01*
X45711175Y-14054125D01*
X45945875Y-14288825D01*
X46221853Y-14473228D01*
X46528504Y-14600246D01*
X46854042Y-14665000D01*
X47185958Y-14665000D01*
X47511496Y-14600246D01*
X47818147Y-14473228D01*
X48094125Y-14288825D01*
X48328825Y-14054125D01*
X48513228Y-13778147D01*
X48640246Y-13471496D01*
X48705000Y-13145958D01*
X48705000Y-12814042D01*
X48640246Y-12488504D01*
X48513228Y-12181853D01*
X48328825Y-11905875D01*
X48094125Y-11671175D01*
X47818147Y-11486772D01*
X47511496Y-11359754D01*
X47185958Y-11295000D01*
X46854042Y-11295000D01*
X46528504Y-11359754D01*
X46221853Y-11486772D01*
X45945875Y-11671175D01*
X45711175Y-11905875D01*
X45526772Y-12181853D01*
X45399754Y-12488504D01*
X45335000Y-12814042D01*
X14665000Y-12814042D01*
X14600246Y-12488504D01*
X14473228Y-12181853D01*
X14288825Y-11905875D01*
X14054125Y-11671175D01*
X13778147Y-11486772D01*
X13471496Y-11359754D01*
X13145958Y-11295000D01*
X12814042Y-11295000D01*
X12488504Y-11359754D01*
X12181853Y-11486772D01*
X11905875Y-11671175D01*
X11671175Y-11905875D01*
X11486772Y-12181853D01*
X11359754Y-12488504D01*
X11295000Y-12814042D01*
X10660000Y-12814042D01*
X10660000Y-10660000D01*
X49340001Y-10660000D01*
X49340000Y-49340000D01*
X49340000Y-49340000D01*
G37*
X49340000Y-49340000D02*
X10660000Y-49340000D01*
X10660000Y-46854042D01*
X11295000Y-46854042D01*
X11295000Y-47185958D01*
X11359754Y-47511496D01*
X11486772Y-47818147D01*
X11671175Y-48094125D01*
X11905875Y-48328825D01*
X12181853Y-48513228D01*
X12488504Y-48640246D01*
X12814042Y-48705000D01*
X13145958Y-48705000D01*
X13471496Y-48640246D01*
X13778147Y-48513228D01*
X14054125Y-48328825D01*
X14288825Y-48094125D01*
X14473228Y-47818147D01*
X14600246Y-47511496D01*
X14665000Y-47185958D01*
X14665000Y-46854042D01*
X14600246Y-46528504D01*
X14473228Y-46221853D01*
X14288825Y-45945875D01*
X14054125Y-45711175D01*
X13778147Y-45526772D01*
X13471496Y-45399754D01*
X13145958Y-45335000D01*
X12814042Y-45335000D01*
X12488504Y-45399754D01*
X12181853Y-45526772D01*
X11905875Y-45711175D01*
X11671175Y-45945875D01*
X11486772Y-46221853D01*
X11359754Y-46528504D01*
X11295000Y-46854042D01*
X10660000Y-46854042D01*
X10660000Y-21040000D01*
X13507815Y-21040000D01*
X13536487Y-21331111D01*
X13621401Y-21611034D01*
X13759294Y-21869014D01*
X13944866Y-22095134D01*
X14170986Y-22280706D01*
X14225791Y-22310000D01*
X14170986Y-22339294D01*
X13944866Y-22524866D01*
X13759294Y-22750986D01*
X13621401Y-23008966D01*
X13536487Y-23288889D01*
X13507815Y-23580000D01*
X13536487Y-23871111D01*
X13621401Y-24151034D01*
X13759294Y-24409014D01*
X13944866Y-24635134D01*
X14170986Y-24820706D01*
X14225791Y-24850000D01*
X14170986Y-24879294D01*
X13944866Y-25064866D01*
X13759294Y-25290986D01*
X13621401Y-25548966D01*
X13536487Y-25828889D01*
X13507815Y-26120000D01*
X13536487Y-26411111D01*
X13621401Y-26691034D01*
X13759294Y-26949014D01*
X13944866Y-27175134D01*
X14170986Y-27360706D01*
X14225791Y-27390000D01*
X14170986Y-27419294D01*
X13944866Y-27604866D01*
X13759294Y-27830986D01*
X13621401Y-28088966D01*
X13536487Y-28368889D01*
X13507815Y-28660000D01*
X13536487Y-28951111D01*
X13621401Y-29231034D01*
X13759294Y-29489014D01*
X13944866Y-29715134D01*
X14170986Y-29900706D01*
X14225791Y-29930000D01*
X14170986Y-29959294D01*
X13944866Y-30144866D01*
X13759294Y-30370986D01*
X13621401Y-30628966D01*
X13536487Y-30908889D01*
X13507815Y-31200000D01*
X13536487Y-31491111D01*
X13621401Y-31771034D01*
X13759294Y-32029014D01*
X13944866Y-32255134D01*
X14170986Y-32440706D01*
X14225791Y-32470000D01*
X14170986Y-32499294D01*
X13944866Y-32684866D01*
X13759294Y-32910986D01*
X13621401Y-33168966D01*
X13536487Y-33448889D01*
X13507815Y-33740000D01*
X13536487Y-34031111D01*
X13621401Y-34311034D01*
X13759294Y-34569014D01*
X13944866Y-34795134D01*
X14170986Y-34980706D01*
X14225791Y-35010000D01*
X14170986Y-35039294D01*
X13944866Y-35224866D01*
X13759294Y-35450986D01*
X13621401Y-35708966D01*
X13536487Y-35988889D01*
X13507815Y-36280000D01*
X13536487Y-36571111D01*
X13621401Y-36851034D01*
X13759294Y-37109014D01*
X13944866Y-37335134D01*
X14170986Y-37520706D01*
X14225791Y-37550000D01*
X14170986Y-37579294D01*
X13944866Y-37764866D01*
X13759294Y-37990986D01*
X13621401Y-38248966D01*
X13536487Y-38528889D01*
X13507815Y-38820000D01*
X13536487Y-39111111D01*
X13621401Y-39391034D01*
X13759294Y-39649014D01*
X13944866Y-39875134D01*
X14170986Y-40060706D01*
X14225791Y-40090000D01*
X14170986Y-40119294D01*
X13944866Y-40304866D01*
X13759294Y-40530986D01*
X13621401Y-40788966D01*
X13536487Y-41068889D01*
X13507815Y-41360000D01*
X13536487Y-41651111D01*
X13621401Y-41931034D01*
X13759294Y-42189014D01*
X13944866Y-42415134D01*
X14170986Y-42600706D01*
X14428966Y-42738599D01*
X14708889Y-42823513D01*
X14927050Y-42845000D01*
X15072950Y-42845000D01*
X15291111Y-42823513D01*
X15370302Y-42799491D01*
X15425722Y-42844973D01*
X15557752Y-42915545D01*
X15701013Y-42959002D01*
X15812666Y-42969999D01*
X15812675Y-42969999D01*
X15849998Y-42973675D01*
X15887321Y-42969999D01*
X32752679Y-42969999D01*
X32790001Y-42973675D01*
X32827323Y-42969999D01*
X32827334Y-42969999D01*
X32938987Y-42959002D01*
X33082248Y-42915545D01*
X33214277Y-42844973D01*
X33330002Y-42750000D01*
X33353805Y-42720996D01*
X35039802Y-41035000D01*
X35101939Y-41035000D01*
X35301898Y-40995226D01*
X35490256Y-40917205D01*
X35659774Y-40803937D01*
X35803937Y-40659774D01*
X35917205Y-40490256D01*
X35995226Y-40301898D01*
X36035000Y-40101939D01*
X36035000Y-39898061D01*
X35995226Y-39698102D01*
X35917205Y-39509744D01*
X35803937Y-39340226D01*
X35659774Y-39196063D01*
X35598523Y-39155137D01*
X35598523Y-38956863D01*
X35558749Y-38756904D01*
X35480728Y-38568546D01*
X35367460Y-38399028D01*
X35223297Y-38254865D01*
X35058137Y-38144509D01*
X35066482Y-38102554D01*
X35066482Y-37898676D01*
X35026708Y-37698717D01*
X34948687Y-37510359D01*
X34835419Y-37340841D01*
X34691256Y-37196678D01*
X34521738Y-37083410D01*
X34333380Y-37005389D01*
X34133421Y-36965615D01*
X33929543Y-36965615D01*
X33729584Y-37005389D01*
X33547379Y-37080861D01*
X33521928Y-37063856D01*
X33333570Y-36985835D01*
X33133611Y-36946061D01*
X32929733Y-36946061D01*
X32729774Y-36985835D01*
X32541416Y-37063856D01*
X32517459Y-37079864D01*
X32502909Y-37070142D01*
X32314551Y-36992121D01*
X32114592Y-36952347D01*
X31910714Y-36952347D01*
X31710755Y-36992121D01*
X31522397Y-37070142D01*
X31496858Y-37087206D01*
X31490256Y-37082795D01*
X31301898Y-37004774D01*
X31108498Y-36966305D01*
X31198356Y-36876447D01*
X31227348Y-36852654D01*
X31251142Y-36823661D01*
X31251146Y-36823657D01*
X31322320Y-36736930D01*
X31322321Y-36736929D01*
X31392893Y-36604900D01*
X31436350Y-36461639D01*
X31447347Y-36349986D01*
X31447347Y-36349977D01*
X31451023Y-36312654D01*
X31447347Y-36275331D01*
X31447347Y-30122148D01*
X39565000Y-38239802D01*
X39565000Y-38301939D01*
X39604774Y-38501898D01*
X39682795Y-38690256D01*
X39796063Y-38859774D01*
X39940226Y-39003937D01*
X40109744Y-39117205D01*
X40298102Y-39195226D01*
X40498061Y-39235000D01*
X40560199Y-39235000D01*
X43336201Y-42011003D01*
X43359999Y-42040001D01*
X43475724Y-42134974D01*
X43511928Y-42154326D01*
X43511928Y-42350000D01*
X43524188Y-42474482D01*
X43560498Y-42594180D01*
X43619463Y-42704494D01*
X43698815Y-42801185D01*
X43795506Y-42880537D01*
X43905820Y-42939502D01*
X44025518Y-42975812D01*
X44150000Y-42988072D01*
X45850000Y-42988072D01*
X45946645Y-42978554D01*
X42685199Y-46240000D01*
X28503711Y-46240000D01*
X28459774Y-46196063D01*
X28290256Y-46082795D01*
X28101898Y-46004774D01*
X27901939Y-45965000D01*
X27698061Y-45965000D01*
X27498102Y-46004774D01*
X27309744Y-46082795D01*
X27140226Y-46196063D01*
X26996063Y-46340226D01*
X26882795Y-46509744D01*
X26804774Y-46698102D01*
X26765000Y-46898061D01*
X26765000Y-47101939D01*
X26804774Y-47301898D01*
X26882795Y-47490256D01*
X26996063Y-47659774D01*
X27140226Y-47803937D01*
X27309744Y-47917205D01*
X27498102Y-47995226D01*
X27698061Y-48035000D01*
X27901939Y-48035000D01*
X28101898Y-47995226D01*
X28290256Y-47917205D01*
X28459774Y-47803937D01*
X28503711Y-47760000D01*
X42962678Y-47760000D01*
X43000000Y-47763676D01*
X43037322Y-47760000D01*
X43037333Y-47760000D01*
X43148986Y-47749003D01*
X43292247Y-47705546D01*
X43424276Y-47634974D01*
X43540001Y-47540001D01*
X43563804Y-47510997D01*
X44220759Y-46854042D01*
X45335000Y-46854042D01*
X45335000Y-47185958D01*
X45399754Y-47511496D01*
X45526772Y-47818147D01*
X45711175Y-48094125D01*
X45945875Y-48328825D01*
X46221853Y-48513228D01*
X46528504Y-48640246D01*
X46854042Y-48705000D01*
X47185958Y-48705000D01*
X47511496Y-48640246D01*
X47818147Y-48513228D01*
X48094125Y-48328825D01*
X48328825Y-48094125D01*
X48513228Y-47818147D01*
X48640246Y-47511496D01*
X48705000Y-47185958D01*
X48705000Y-46854042D01*
X48640246Y-46528504D01*
X48513228Y-46221853D01*
X48328825Y-45945875D01*
X48094125Y-45711175D01*
X47818147Y-45526772D01*
X47511496Y-45399754D01*
X47185958Y-45335000D01*
X46854042Y-45335000D01*
X46528504Y-45399754D01*
X46221853Y-45526772D01*
X45945875Y-45711175D01*
X45711175Y-45945875D01*
X45526772Y-46221853D01*
X45399754Y-46528504D01*
X45335000Y-46854042D01*
X44220759Y-46854042D01*
X48511003Y-42563799D01*
X48540001Y-42540001D01*
X48634974Y-42424276D01*
X48705546Y-42292247D01*
X48749003Y-42148986D01*
X48760000Y-42037333D01*
X48760000Y-42037323D01*
X48763676Y-42000000D01*
X48760000Y-41962677D01*
X48760000Y-21677325D01*
X48763676Y-21640000D01*
X48760000Y-21602675D01*
X48760000Y-21602667D01*
X48749003Y-21491014D01*
X48705546Y-21347753D01*
X48634974Y-21215724D01*
X48540001Y-21099999D01*
X48511004Y-21076202D01*
X46440797Y-19005996D01*
X46463513Y-18931111D01*
X46492185Y-18640000D01*
X46463513Y-18348889D01*
X46378599Y-18068966D01*
X46240706Y-17810986D01*
X46055134Y-17584866D01*
X45829014Y-17399294D01*
X45571034Y-17261401D01*
X45291111Y-17176487D01*
X45072950Y-17155000D01*
X44927050Y-17155000D01*
X44708889Y-17176487D01*
X44428966Y-17261401D01*
X44170986Y-17399294D01*
X43944866Y-17584866D01*
X43759294Y-17810986D01*
X43621401Y-18068966D01*
X43536487Y-18348889D01*
X43507815Y-18640000D01*
X43536487Y-18931111D01*
X43621401Y-19211034D01*
X43759294Y-19469014D01*
X43944866Y-19695134D01*
X44170986Y-19880706D01*
X44225791Y-19910000D01*
X44170986Y-19939294D01*
X43944866Y-20124866D01*
X43759294Y-20350986D01*
X43722405Y-20420000D01*
X37357323Y-20420000D01*
X37320000Y-20416324D01*
X37282677Y-20420000D01*
X37282667Y-20420000D01*
X37171014Y-20430997D01*
X37027753Y-20474454D01*
X36895724Y-20545026D01*
X36779999Y-20639999D01*
X36756201Y-20668997D01*
X33460199Y-23965000D01*
X33398061Y-23965000D01*
X33198102Y-24004774D01*
X33009744Y-24082795D01*
X32840226Y-24196063D01*
X32696063Y-24340226D01*
X32582795Y-24509744D01*
X32504774Y-24698102D01*
X32465000Y-24898061D01*
X32465000Y-25101939D01*
X32504774Y-25301898D01*
X32567053Y-25452252D01*
X30760000Y-23645199D01*
X30760000Y-20703711D01*
X30803937Y-20659774D01*
X30917205Y-20490256D01*
X30995226Y-20301898D01*
X31035000Y-20101939D01*
X31035000Y-19898061D01*
X30995226Y-19698102D01*
X30917205Y-19509744D01*
X30803937Y-19340226D01*
X30659774Y-19196063D01*
X30490256Y-19082795D01*
X30301898Y-19004774D01*
X30101939Y-18965000D01*
X29898061Y-18965000D01*
X29698102Y-19004774D01*
X29509744Y-19082795D01*
X29484205Y-19099859D01*
X29477603Y-19095448D01*
X29289245Y-19017427D01*
X29089286Y-18977653D01*
X28885408Y-18977653D01*
X28685449Y-19017427D01*
X28497091Y-19095448D01*
X28327573Y-19208716D01*
X28183410Y-19352879D01*
X28070142Y-19522397D01*
X27992121Y-19710755D01*
X27952347Y-19910714D01*
X27952347Y-20114592D01*
X27992121Y-20314551D01*
X28070142Y-20502909D01*
X28183410Y-20672427D01*
X28227347Y-20716364D01*
X28227348Y-26550015D01*
X28223671Y-26587347D01*
X28227348Y-26624680D01*
X28238345Y-26736333D01*
X28244000Y-26754974D01*
X28281801Y-26879593D01*
X28352373Y-27011623D01*
X28403544Y-27073974D01*
X28447347Y-27127348D01*
X28476345Y-27151146D01*
X29930744Y-28605545D01*
X29883410Y-28652879D01*
X29770142Y-28822397D01*
X29692121Y-29010755D01*
X29690572Y-29018543D01*
X29660449Y-29024535D01*
X29472091Y-29102556D01*
X29302573Y-29215824D01*
X29158410Y-29359987D01*
X29045142Y-29529505D01*
X28967121Y-29717863D01*
X28929448Y-29907260D01*
X28747091Y-29982795D01*
X28577573Y-30096063D01*
X28433410Y-30240226D01*
X28320142Y-30409744D01*
X28242121Y-30598102D01*
X28202347Y-30798061D01*
X28202347Y-30808130D01*
X28022091Y-30882795D01*
X27852573Y-30996063D01*
X27708410Y-31140226D01*
X27595142Y-31309744D01*
X27517121Y-31498102D01*
X27477347Y-31698061D01*
X27477347Y-31901939D01*
X27517121Y-32101898D01*
X27595142Y-32290256D01*
X27708410Y-32459774D01*
X27752348Y-32503712D01*
X27752347Y-33139994D01*
X27203711Y-33139994D01*
X27159774Y-33096057D01*
X26990256Y-32982789D01*
X26801898Y-32904768D01*
X26601939Y-32864994D01*
X26534999Y-32864994D01*
X26534999Y-24412321D01*
X26538675Y-24374998D01*
X26534999Y-24337675D01*
X26534999Y-24337666D01*
X26524002Y-24226013D01*
X26480545Y-24082752D01*
X26409973Y-23950723D01*
X26315000Y-23834998D01*
X26286001Y-23811200D01*
X25543803Y-23069002D01*
X25520001Y-23039999D01*
X25404276Y-22945026D01*
X25272247Y-22874454D01*
X25128986Y-22830997D01*
X25017333Y-22820000D01*
X25017322Y-22820000D01*
X24980000Y-22816324D01*
X24942678Y-22820000D01*
X16277595Y-22820000D01*
X16240706Y-22750986D01*
X16055134Y-22524866D01*
X15829014Y-22339294D01*
X15774209Y-22310000D01*
X15829014Y-22280706D01*
X16055134Y-22095134D01*
X16240706Y-21869014D01*
X16378599Y-21611034D01*
X16463513Y-21331111D01*
X16492185Y-21040000D01*
X16463513Y-20748889D01*
X16378599Y-20468966D01*
X16240706Y-20210986D01*
X16055134Y-19984866D01*
X16025313Y-19960393D01*
X16094180Y-19939502D01*
X16204494Y-19880537D01*
X16301185Y-19801185D01*
X16380537Y-19704494D01*
X16439502Y-19594180D01*
X16475812Y-19474482D01*
X16488072Y-19350000D01*
X16488072Y-17650000D01*
X16475812Y-17525518D01*
X16439502Y-17405820D01*
X16380537Y-17295506D01*
X16301185Y-17198815D01*
X16204494Y-17119463D01*
X16094180Y-17060498D01*
X15974482Y-17024188D01*
X15850000Y-17011928D01*
X14150000Y-17011928D01*
X14025518Y-17024188D01*
X13905820Y-17060498D01*
X13795506Y-17119463D01*
X13698815Y-17198815D01*
X13619463Y-17295506D01*
X13560498Y-17405820D01*
X13524188Y-17525518D01*
X13511928Y-17650000D01*
X13511928Y-19350000D01*
X13524188Y-19474482D01*
X13560498Y-19594180D01*
X13619463Y-19704494D01*
X13698815Y-19801185D01*
X13795506Y-19880537D01*
X13905820Y-19939502D01*
X13974687Y-19960393D01*
X13944866Y-19984866D01*
X13759294Y-20210986D01*
X13621401Y-20468966D01*
X13536487Y-20748889D01*
X13507815Y-21040000D01*
X10660000Y-21040000D01*
X10660000Y-12814042D01*
X11295000Y-12814042D01*
X11295000Y-13145958D01*
X11359754Y-13471496D01*
X11486772Y-13778147D01*
X11671175Y-14054125D01*
X11905875Y-14288825D01*
X12181853Y-14473228D01*
X12488504Y-14600246D01*
X12814042Y-14665000D01*
X13145958Y-14665000D01*
X13471496Y-14600246D01*
X13778147Y-14473228D01*
X14054125Y-14288825D01*
X14288825Y-14054125D01*
X14473228Y-13778147D01*
X14600246Y-13471496D01*
X14665000Y-13145958D01*
X14665000Y-12814042D01*
X45335000Y-12814042D01*
X45335000Y-13145958D01*
X45399754Y-13471496D01*
X45526772Y-13778147D01*
X45711175Y-14054125D01*
X45945875Y-14288825D01*
X46221853Y-14473228D01*
X46528504Y-14600246D01*
X46854042Y-14665000D01*
X47185958Y-14665000D01*
X47511496Y-14600246D01*
X47818147Y-14473228D01*
X48094125Y-14288825D01*
X48328825Y-14054125D01*
X48513228Y-13778147D01*
X48640246Y-13471496D01*
X48705000Y-13145958D01*
X48705000Y-12814042D01*
X48640246Y-12488504D01*
X48513228Y-12181853D01*
X48328825Y-11905875D01*
X48094125Y-11671175D01*
X47818147Y-11486772D01*
X47511496Y-11359754D01*
X47185958Y-11295000D01*
X46854042Y-11295000D01*
X46528504Y-11359754D01*
X46221853Y-11486772D01*
X45945875Y-11671175D01*
X45711175Y-11905875D01*
X45526772Y-12181853D01*
X45399754Y-12488504D01*
X45335000Y-12814042D01*
X14665000Y-12814042D01*
X14600246Y-12488504D01*
X14473228Y-12181853D01*
X14288825Y-11905875D01*
X14054125Y-11671175D01*
X13778147Y-11486772D01*
X13471496Y-11359754D01*
X13145958Y-11295000D01*
X12814042Y-11295000D01*
X12488504Y-11359754D01*
X12181853Y-11486772D01*
X11905875Y-11671175D01*
X11671175Y-11905875D01*
X11486772Y-12181853D01*
X11359754Y-12488504D01*
X11295000Y-12814042D01*
X10660000Y-12814042D01*
X10660000Y-10660000D01*
X49340001Y-10660000D01*
X49340000Y-49340000D01*
G36*
X47240000Y-21954802D02*
G01*
X47240001Y-41685197D01*
X46478554Y-42446645D01*
X46488072Y-42350000D01*
X46488072Y-40650000D01*
X46475812Y-40525518D01*
X46439502Y-40405820D01*
X46380537Y-40295506D01*
X46301185Y-40198815D01*
X46204494Y-40119463D01*
X46094180Y-40060498D01*
X46025313Y-40039607D01*
X46055134Y-40015134D01*
X46240706Y-39789014D01*
X46378599Y-39531034D01*
X46463513Y-39251111D01*
X46492185Y-38960000D01*
X46463513Y-38668889D01*
X46378599Y-38388966D01*
X46240706Y-38130986D01*
X46055134Y-37904866D01*
X45829014Y-37719294D01*
X45774209Y-37690000D01*
X45829014Y-37660706D01*
X46055134Y-37475134D01*
X46240706Y-37249014D01*
X46378599Y-36991034D01*
X46463513Y-36711111D01*
X46492185Y-36420000D01*
X46463513Y-36128889D01*
X46378599Y-35848966D01*
X46240706Y-35590986D01*
X46055134Y-35364866D01*
X45829014Y-35179294D01*
X45774209Y-35150000D01*
X45829014Y-35120706D01*
X46055134Y-34935134D01*
X46240706Y-34709014D01*
X46378599Y-34451034D01*
X46463513Y-34171111D01*
X46492185Y-33880000D01*
X46463513Y-33588889D01*
X46378599Y-33308966D01*
X46240706Y-33050986D01*
X46055134Y-32824866D01*
X45829014Y-32639294D01*
X45774209Y-32610000D01*
X45829014Y-32580706D01*
X46055134Y-32395134D01*
X46240706Y-32169014D01*
X46378599Y-31911034D01*
X46463513Y-31631111D01*
X46492185Y-31340000D01*
X46463513Y-31048889D01*
X46378599Y-30768966D01*
X46240706Y-30510986D01*
X46055134Y-30284866D01*
X45829014Y-30099294D01*
X45774209Y-30070000D01*
X45829014Y-30040706D01*
X46055134Y-29855134D01*
X46240706Y-29629014D01*
X46378599Y-29371034D01*
X46463513Y-29091111D01*
X46492185Y-28800000D01*
X46463513Y-28508889D01*
X46378599Y-28228966D01*
X46240706Y-27970986D01*
X46055134Y-27744866D01*
X45829014Y-27559294D01*
X45774209Y-27530000D01*
X45829014Y-27500706D01*
X46055134Y-27315134D01*
X46240706Y-27089014D01*
X46378599Y-26831034D01*
X46463513Y-26551111D01*
X46492185Y-26260000D01*
X46463513Y-25968889D01*
X46378599Y-25688966D01*
X46240706Y-25430986D01*
X46055134Y-25204866D01*
X45829014Y-25019294D01*
X45764477Y-24984799D01*
X45881355Y-24915178D01*
X46097588Y-24720269D01*
X46271641Y-24486920D01*
X46396825Y-24224099D01*
X46441476Y-24076890D01*
X46320155Y-23847000D01*
X45127000Y-23847000D01*
X45127000Y-23867000D01*
X44873000Y-23867000D01*
X44873000Y-23847000D01*
X43679845Y-23847000D01*
X43558524Y-24076890D01*
X43603175Y-24224099D01*
X43728359Y-24486920D01*
X43902412Y-24720269D01*
X44118645Y-24915178D01*
X44235523Y-24984799D01*
X44170986Y-25019294D01*
X43944866Y-25204866D01*
X43916032Y-25240000D01*
X35203711Y-25240000D01*
X35159774Y-25196063D01*
X34990256Y-25082795D01*
X34801898Y-25004774D01*
X34608497Y-24966304D01*
X37634802Y-21940000D01*
X43722405Y-21940000D01*
X43759294Y-22009014D01*
X43944866Y-22235134D01*
X44170986Y-22420706D01*
X44235523Y-22455201D01*
X44118645Y-22524822D01*
X43902412Y-22719731D01*
X43728359Y-22953080D01*
X43603175Y-23215901D01*
X43558524Y-23363110D01*
X43679845Y-23593000D01*
X44873000Y-23593000D01*
X44873000Y-23573000D01*
X45127000Y-23573000D01*
X45127000Y-23593000D01*
X46320155Y-23593000D01*
X46441476Y-23363110D01*
X46396825Y-23215901D01*
X46271641Y-22953080D01*
X46097588Y-22719731D01*
X45881355Y-22524822D01*
X45764477Y-22455201D01*
X45829014Y-22420706D01*
X46055134Y-22235134D01*
X46240706Y-22009014D01*
X46378599Y-21751034D01*
X46463513Y-21471111D01*
X46489765Y-21204567D01*
X47240000Y-21954802D01*
X47240000Y-21954802D01*
G37*
X47240000Y-21954802D02*
X47240001Y-41685197D01*
X46478554Y-42446645D01*
X46488072Y-42350000D01*
X46488072Y-40650000D01*
X46475812Y-40525518D01*
X46439502Y-40405820D01*
X46380537Y-40295506D01*
X46301185Y-40198815D01*
X46204494Y-40119463D01*
X46094180Y-40060498D01*
X46025313Y-40039607D01*
X46055134Y-40015134D01*
X46240706Y-39789014D01*
X46378599Y-39531034D01*
X46463513Y-39251111D01*
X46492185Y-38960000D01*
X46463513Y-38668889D01*
X46378599Y-38388966D01*
X46240706Y-38130986D01*
X46055134Y-37904866D01*
X45829014Y-37719294D01*
X45774209Y-37690000D01*
X45829014Y-37660706D01*
X46055134Y-37475134D01*
X46240706Y-37249014D01*
X46378599Y-36991034D01*
X46463513Y-36711111D01*
X46492185Y-36420000D01*
X46463513Y-36128889D01*
X46378599Y-35848966D01*
X46240706Y-35590986D01*
X46055134Y-35364866D01*
X45829014Y-35179294D01*
X45774209Y-35150000D01*
X45829014Y-35120706D01*
X46055134Y-34935134D01*
X46240706Y-34709014D01*
X46378599Y-34451034D01*
X46463513Y-34171111D01*
X46492185Y-33880000D01*
X46463513Y-33588889D01*
X46378599Y-33308966D01*
X46240706Y-33050986D01*
X46055134Y-32824866D01*
X45829014Y-32639294D01*
X45774209Y-32610000D01*
X45829014Y-32580706D01*
X46055134Y-32395134D01*
X46240706Y-32169014D01*
X46378599Y-31911034D01*
X46463513Y-31631111D01*
X46492185Y-31340000D01*
X46463513Y-31048889D01*
X46378599Y-30768966D01*
X46240706Y-30510986D01*
X46055134Y-30284866D01*
X45829014Y-30099294D01*
X45774209Y-30070000D01*
X45829014Y-30040706D01*
X46055134Y-29855134D01*
X46240706Y-29629014D01*
X46378599Y-29371034D01*
X46463513Y-29091111D01*
X46492185Y-28800000D01*
X46463513Y-28508889D01*
X46378599Y-28228966D01*
X46240706Y-27970986D01*
X46055134Y-27744866D01*
X45829014Y-27559294D01*
X45774209Y-27530000D01*
X45829014Y-27500706D01*
X46055134Y-27315134D01*
X46240706Y-27089014D01*
X46378599Y-26831034D01*
X46463513Y-26551111D01*
X46492185Y-26260000D01*
X46463513Y-25968889D01*
X46378599Y-25688966D01*
X46240706Y-25430986D01*
X46055134Y-25204866D01*
X45829014Y-25019294D01*
X45764477Y-24984799D01*
X45881355Y-24915178D01*
X46097588Y-24720269D01*
X46271641Y-24486920D01*
X46396825Y-24224099D01*
X46441476Y-24076890D01*
X46320155Y-23847000D01*
X45127000Y-23847000D01*
X45127000Y-23867000D01*
X44873000Y-23867000D01*
X44873000Y-23847000D01*
X43679845Y-23847000D01*
X43558524Y-24076890D01*
X43603175Y-24224099D01*
X43728359Y-24486920D01*
X43902412Y-24720269D01*
X44118645Y-24915178D01*
X44235523Y-24984799D01*
X44170986Y-25019294D01*
X43944866Y-25204866D01*
X43916032Y-25240000D01*
X35203711Y-25240000D01*
X35159774Y-25196063D01*
X34990256Y-25082795D01*
X34801898Y-25004774D01*
X34608497Y-24966304D01*
X37634802Y-21940000D01*
X43722405Y-21940000D01*
X43759294Y-22009014D01*
X43944866Y-22235134D01*
X44170986Y-22420706D01*
X44235523Y-22455201D01*
X44118645Y-22524822D01*
X43902412Y-22719731D01*
X43728359Y-22953080D01*
X43603175Y-23215901D01*
X43558524Y-23363110D01*
X43679845Y-23593000D01*
X44873000Y-23593000D01*
X44873000Y-23573000D01*
X45127000Y-23573000D01*
X45127000Y-23593000D01*
X46320155Y-23593000D01*
X46441476Y-23363110D01*
X46396825Y-23215901D01*
X46271641Y-22953080D01*
X46097588Y-22719731D01*
X45881355Y-22524822D01*
X45764477Y-22455201D01*
X45829014Y-22420706D01*
X46055134Y-22235134D01*
X46240706Y-22009014D01*
X46378599Y-21751034D01*
X46463513Y-21471111D01*
X46489765Y-21204567D01*
X47240000Y-21954802D01*
M02*
