G04 #@! TF.GenerationSoftware,KiCad,Pcbnew,5.0.2-bee76a0~70~ubuntu16.04.1*
G04 #@! TF.CreationDate,2019-08-01T02:01:20+05:30*
G04 #@! TF.ProjectId,AR0135_STM32F746G-DISCO_adapter_rev1,41523031-3335-45f5-9354-4d3332463734,rev?*
G04 #@! TF.SameCoordinates,Original*
G04 #@! TF.FileFunction,Paste,Top*
G04 #@! TF.FilePolarity,Positive*
%FSLAX46Y46*%
G04 Gerber Fmt 4.6, Leading zero omitted, Abs format (unit mm)*
G04 Created by KiCad (PCBNEW 5.0.2-bee76a0~70~ubuntu16.04.1) date Thu Aug  1 02:01:20 2019*
%MOMM*%
%LPD*%
G01*
G04 APERTURE LIST*
%ADD10R,0.300000X1.300000*%
%ADD11R,1.800000X2.200000*%
G04 APERTURE END LIST*
D10*
G04 #@! TO.C,J2*
X37250000Y-43150000D03*
X36750000Y-43150000D03*
X36250000Y-43150000D03*
X35750000Y-43150000D03*
X35250000Y-43150000D03*
X34750000Y-43150000D03*
X34250000Y-43150000D03*
X33750000Y-43150000D03*
X33250000Y-43150000D03*
X32750000Y-43150000D03*
X32250000Y-43150000D03*
X31750000Y-43150000D03*
X31250000Y-43150000D03*
X30750000Y-43150000D03*
X30250000Y-43150000D03*
X29750000Y-43150000D03*
X29250000Y-43150000D03*
X28750000Y-43150000D03*
X28250000Y-43150000D03*
X27750000Y-43150000D03*
X27250000Y-43150000D03*
X26750000Y-43150000D03*
X26250000Y-43150000D03*
X25750000Y-43150000D03*
X25250000Y-43150000D03*
X24750000Y-43150000D03*
X24250000Y-43150000D03*
X23750000Y-43150000D03*
X23250000Y-43150000D03*
X22750000Y-43150000D03*
D11*
X20850000Y-46400000D03*
X39150000Y-46400000D03*
G04 #@! TD*
G04 #@! TO.C,J1*
X20850000Y-13600000D03*
X39150000Y-13600000D03*
D10*
X37250000Y-16850000D03*
X36750000Y-16850000D03*
X36250000Y-16850000D03*
X35750000Y-16850000D03*
X35250000Y-16850000D03*
X34750000Y-16850000D03*
X34250000Y-16850000D03*
X33750000Y-16850000D03*
X33250000Y-16850000D03*
X32750000Y-16850000D03*
X32250000Y-16850000D03*
X31750000Y-16850000D03*
X31250000Y-16850000D03*
X30750000Y-16850000D03*
X30250000Y-16850000D03*
X29750000Y-16850000D03*
X29250000Y-16850000D03*
X28750000Y-16850000D03*
X28250000Y-16850000D03*
X27750000Y-16850000D03*
X27250000Y-16850000D03*
X26750000Y-16850000D03*
X26250000Y-16850000D03*
X25750000Y-16850000D03*
X25250000Y-16850000D03*
X24750000Y-16850000D03*
X24250000Y-16850000D03*
X23750000Y-16850000D03*
X23250000Y-16850000D03*
X22750000Y-16850000D03*
G04 #@! TD*
M02*
