G04 #@! TF.GenerationSoftware,KiCad,Pcbnew,5.1.4-e60b266~84~ubuntu18.04.1*
G04 #@! TF.CreationDate,2019-08-27T12:53:06+05:30*
G04 #@! TF.ProjectId,senseCam_Adapter_rev1,73656e73-6543-4616-9d5f-416461707465,rev?*
G04 #@! TF.SameCoordinates,Original*
G04 #@! TF.FileFunction,Legend,Top*
G04 #@! TF.FilePolarity,Positive*
%FSLAX46Y46*%
G04 Gerber Fmt 4.6, Leading zero omitted, Abs format (unit mm)*
G04 Created by KiCad (PCBNEW 5.1.4-e60b266~84~ubuntu18.04.1) date 2019-08-27 12:53:06*
%MOMM*%
%LPD*%
G04 APERTURE LIST*
%ADD10C,0.300000*%
%ADD11C,0.120000*%
%ADD12C,0.010000*%
%ADD13C,0.150000*%
G04 APERTURE END LIST*
D10*
X53042857Y-28650000D02*
X53757142Y-28650000D01*
X52900000Y-29078571D02*
X53400000Y-27578571D01*
X53900000Y-29078571D01*
X54400000Y-28078571D02*
X54400000Y-29578571D01*
X54400000Y-28150000D02*
X54542857Y-28078571D01*
X54828571Y-28078571D01*
X54971428Y-28150000D01*
X55042857Y-28221428D01*
X55114285Y-28364285D01*
X55114285Y-28792857D01*
X55042857Y-28935714D01*
X54971428Y-29007142D01*
X54828571Y-29078571D01*
X54542857Y-29078571D01*
X54400000Y-29007142D01*
X55757142Y-28078571D02*
X55757142Y-29578571D01*
X55757142Y-28150000D02*
X55900000Y-28078571D01*
X56185714Y-28078571D01*
X56328571Y-28150000D01*
X56400000Y-28221428D01*
X56471428Y-28364285D01*
X56471428Y-28792857D01*
X56400000Y-28935714D01*
X56328571Y-29007142D01*
X56185714Y-29078571D01*
X55900000Y-29078571D01*
X55757142Y-29007142D01*
X57114285Y-29078571D02*
X57114285Y-28078571D01*
X57114285Y-27578571D02*
X57042857Y-27650000D01*
X57114285Y-27721428D01*
X57185714Y-27650000D01*
X57114285Y-27578571D01*
X57114285Y-27721428D01*
X57828571Y-29078571D02*
X57828571Y-27578571D01*
X57971428Y-28507142D02*
X58400000Y-29078571D01*
X58400000Y-28078571D02*
X57828571Y-28650000D01*
X59257142Y-29078571D02*
X59114285Y-29007142D01*
X59042857Y-28935714D01*
X58971428Y-28792857D01*
X58971428Y-28364285D01*
X59042857Y-28221428D01*
X59114285Y-28150000D01*
X59257142Y-28078571D01*
X59471428Y-28078571D01*
X59614285Y-28150000D01*
X59685714Y-28221428D01*
X59757142Y-28364285D01*
X59757142Y-28792857D01*
X59685714Y-28935714D01*
X59614285Y-29007142D01*
X59471428Y-29078571D01*
X59257142Y-29078571D01*
X17721428Y-43607142D02*
X17935714Y-43678571D01*
X18292857Y-43678571D01*
X18435714Y-43607142D01*
X18507142Y-43535714D01*
X18578571Y-43392857D01*
X18578571Y-43250000D01*
X18507142Y-43107142D01*
X18435714Y-43035714D01*
X18292857Y-42964285D01*
X18007142Y-42892857D01*
X17864285Y-42821428D01*
X17792857Y-42750000D01*
X17721428Y-42607142D01*
X17721428Y-42464285D01*
X17792857Y-42321428D01*
X17864285Y-42250000D01*
X18007142Y-42178571D01*
X18364285Y-42178571D01*
X18578571Y-42250000D01*
X19792857Y-43607142D02*
X19649999Y-43678571D01*
X19364285Y-43678571D01*
X19221428Y-43607142D01*
X19149999Y-43464285D01*
X19149999Y-42892857D01*
X19221428Y-42750000D01*
X19364285Y-42678571D01*
X19649999Y-42678571D01*
X19792857Y-42750000D01*
X19864285Y-42892857D01*
X19864285Y-43035714D01*
X19149999Y-43178571D01*
X20507142Y-42678571D02*
X20507142Y-43678571D01*
X20507142Y-42821428D02*
X20578571Y-42750000D01*
X20721428Y-42678571D01*
X20935714Y-42678571D01*
X21078571Y-42750000D01*
X21149999Y-42892857D01*
X21149999Y-43678571D01*
X21792857Y-43607142D02*
X21935714Y-43678571D01*
X22221428Y-43678571D01*
X22364285Y-43607142D01*
X22435714Y-43464285D01*
X22435714Y-43392857D01*
X22364285Y-43250000D01*
X22221428Y-43178571D01*
X22007142Y-43178571D01*
X21864285Y-43107142D01*
X21792857Y-42964285D01*
X21792857Y-42892857D01*
X21864285Y-42750000D01*
X22007142Y-42678571D01*
X22221428Y-42678571D01*
X22364285Y-42750000D01*
X23650000Y-43607142D02*
X23507142Y-43678571D01*
X23221428Y-43678571D01*
X23078571Y-43607142D01*
X23007142Y-43464285D01*
X23007142Y-42892857D01*
X23078571Y-42750000D01*
X23221428Y-42678571D01*
X23507142Y-42678571D01*
X23650000Y-42750000D01*
X23721428Y-42892857D01*
X23721428Y-43035714D01*
X23007142Y-43178571D01*
X25221428Y-43535714D02*
X25149999Y-43607142D01*
X24935714Y-43678571D01*
X24792857Y-43678571D01*
X24578571Y-43607142D01*
X24435714Y-43464285D01*
X24364285Y-43321428D01*
X24292857Y-43035714D01*
X24292857Y-42821428D01*
X24364285Y-42535714D01*
X24435714Y-42392857D01*
X24578571Y-42250000D01*
X24792857Y-42178571D01*
X24935714Y-42178571D01*
X25149999Y-42250000D01*
X25221428Y-42321428D01*
X26507142Y-43678571D02*
X26507142Y-42892857D01*
X26435714Y-42750000D01*
X26292857Y-42678571D01*
X26007142Y-42678571D01*
X25864285Y-42750000D01*
X26507142Y-43607142D02*
X26364285Y-43678571D01*
X26007142Y-43678571D01*
X25864285Y-43607142D01*
X25792857Y-43464285D01*
X25792857Y-43321428D01*
X25864285Y-43178571D01*
X26007142Y-43107142D01*
X26364285Y-43107142D01*
X26507142Y-43035714D01*
X27221428Y-43678571D02*
X27221428Y-42678571D01*
X27221428Y-42821428D02*
X27292857Y-42750000D01*
X27435714Y-42678571D01*
X27649999Y-42678571D01*
X27792857Y-42750000D01*
X27864285Y-42892857D01*
X27864285Y-43678571D01*
X27864285Y-42892857D02*
X27935714Y-42750000D01*
X28078571Y-42678571D01*
X28292857Y-42678571D01*
X28435714Y-42750000D01*
X28507142Y-42892857D01*
X28507142Y-43678571D01*
X30364285Y-43678571D02*
X30364285Y-42178571D01*
X30721428Y-42178571D01*
X30935714Y-42250000D01*
X31078571Y-42392857D01*
X31149999Y-42535714D01*
X31221428Y-42821428D01*
X31221428Y-43035714D01*
X31149999Y-43321428D01*
X31078571Y-43464285D01*
X30935714Y-43607142D01*
X30721428Y-43678571D01*
X30364285Y-43678571D01*
X31864285Y-43678571D02*
X31864285Y-42678571D01*
X31864285Y-42178571D02*
X31792857Y-42250000D01*
X31864285Y-42321428D01*
X31935714Y-42250000D01*
X31864285Y-42178571D01*
X31864285Y-42321428D01*
X32507142Y-43607142D02*
X32650000Y-43678571D01*
X32935714Y-43678571D01*
X33078571Y-43607142D01*
X33150000Y-43464285D01*
X33150000Y-43392857D01*
X33078571Y-43250000D01*
X32935714Y-43178571D01*
X32721428Y-43178571D01*
X32578571Y-43107142D01*
X32507142Y-42964285D01*
X32507142Y-42892857D01*
X32578571Y-42750000D01*
X32721428Y-42678571D01*
X32935714Y-42678571D01*
X33078571Y-42750000D01*
X34435714Y-43607142D02*
X34292857Y-43678571D01*
X34007142Y-43678571D01*
X33864285Y-43607142D01*
X33792857Y-43535714D01*
X33721428Y-43392857D01*
X33721428Y-42964285D01*
X33792857Y-42821428D01*
X33864285Y-42750000D01*
X34007142Y-42678571D01*
X34292857Y-42678571D01*
X34435714Y-42750000D01*
X35292857Y-43678571D02*
X35150000Y-43607142D01*
X35078571Y-43535714D01*
X35007142Y-43392857D01*
X35007142Y-42964285D01*
X35078571Y-42821428D01*
X35150000Y-42750000D01*
X35292857Y-42678571D01*
X35507142Y-42678571D01*
X35650000Y-42750000D01*
X35721428Y-42821428D01*
X35792857Y-42964285D01*
X35792857Y-43392857D01*
X35721428Y-43535714D01*
X35650000Y-43607142D01*
X35507142Y-43678571D01*
X35292857Y-43678571D01*
X37507142Y-43250000D02*
X38221428Y-43250000D01*
X37364285Y-43678571D02*
X37864285Y-42178571D01*
X38364285Y-43678571D01*
X39507142Y-43678571D02*
X39507142Y-42178571D01*
X39507142Y-43607142D02*
X39364285Y-43678571D01*
X39078571Y-43678571D01*
X38935714Y-43607142D01*
X38864285Y-43535714D01*
X38792857Y-43392857D01*
X38792857Y-42964285D01*
X38864285Y-42821428D01*
X38935714Y-42750000D01*
X39078571Y-42678571D01*
X39364285Y-42678571D01*
X39507142Y-42750000D01*
X40864285Y-43678571D02*
X40864285Y-42892857D01*
X40792857Y-42750000D01*
X40650000Y-42678571D01*
X40364285Y-42678571D01*
X40221428Y-42750000D01*
X40864285Y-43607142D02*
X40721428Y-43678571D01*
X40364285Y-43678571D01*
X40221428Y-43607142D01*
X40150000Y-43464285D01*
X40150000Y-43321428D01*
X40221428Y-43178571D01*
X40364285Y-43107142D01*
X40721428Y-43107142D01*
X40864285Y-43035714D01*
X41578571Y-42678571D02*
X41578571Y-44178571D01*
X41578571Y-42750000D02*
X41721428Y-42678571D01*
X42007142Y-42678571D01*
X42150000Y-42750000D01*
X42221428Y-42821428D01*
X42292857Y-42964285D01*
X42292857Y-43392857D01*
X42221428Y-43535714D01*
X42150000Y-43607142D01*
X42007142Y-43678571D01*
X41721428Y-43678571D01*
X41578571Y-43607142D01*
X42721428Y-42678571D02*
X43292857Y-42678571D01*
X42935714Y-42178571D02*
X42935714Y-43464285D01*
X43007142Y-43607142D01*
X43150000Y-43678571D01*
X43292857Y-43678571D01*
X44364285Y-43607142D02*
X44221428Y-43678571D01*
X43935714Y-43678571D01*
X43792857Y-43607142D01*
X43721428Y-43464285D01*
X43721428Y-42892857D01*
X43792857Y-42750000D01*
X43935714Y-42678571D01*
X44221428Y-42678571D01*
X44364285Y-42750000D01*
X44435714Y-42892857D01*
X44435714Y-43035714D01*
X43721428Y-43178571D01*
X45078571Y-43678571D02*
X45078571Y-42678571D01*
X45078571Y-42964285D02*
X45150000Y-42821428D01*
X45221428Y-42750000D01*
X45364285Y-42678571D01*
X45507142Y-42678571D01*
X47007142Y-42678571D02*
X47364285Y-43678571D01*
X47721428Y-42678571D01*
X49078571Y-43678571D02*
X48221428Y-43678571D01*
X48650000Y-43678571D02*
X48650000Y-42178571D01*
X48507142Y-42392857D01*
X48364285Y-42535714D01*
X48221428Y-42607142D01*
D11*
X21500000Y-33500000D02*
X21500000Y-22500000D01*
X31500000Y-33500000D02*
X21500000Y-33500000D01*
X31500000Y-22500000D02*
X31500000Y-33500000D01*
X21500000Y-22500000D02*
X31500000Y-22500000D01*
X76500000Y-33500000D02*
X76500000Y-22500000D01*
X86500000Y-33500000D02*
X76500000Y-33500000D01*
X86500000Y-22500000D02*
X86500000Y-33500000D01*
X76500000Y-22500000D02*
X86500000Y-22500000D01*
X34500000Y-33500000D02*
X34500000Y-22500000D01*
X44500000Y-33500000D02*
X34500000Y-33500000D01*
X44500000Y-22500000D02*
X44500000Y-33500000D01*
X34500000Y-22500000D02*
X44500000Y-22500000D01*
X89000000Y-33500000D02*
X89000000Y-22500000D01*
X99000000Y-33500000D02*
X89000000Y-33500000D01*
X99000000Y-22500000D02*
X99000000Y-33500000D01*
X89000000Y-22500000D02*
X99000000Y-22500000D01*
D12*
G36*
X61273348Y-22096466D02*
G01*
X61346362Y-22113616D01*
X61355715Y-22123806D01*
X61397979Y-22137710D01*
X61512429Y-22148991D01*
X61680547Y-22156331D01*
X61843304Y-22158484D01*
X62273730Y-22179364D01*
X62729996Y-22237289D01*
X63183289Y-22326592D01*
X63604796Y-22441601D01*
X63963444Y-22575641D01*
X64390790Y-22802828D01*
X64785341Y-23084719D01*
X65123935Y-23403689D01*
X65254606Y-23558125D01*
X65396427Y-23748131D01*
X65502953Y-23914901D01*
X65592050Y-24090244D01*
X65681583Y-24305973D01*
X65696858Y-24345619D01*
X65744028Y-24477158D01*
X65776530Y-24595599D01*
X65797020Y-24721019D01*
X65808152Y-24873497D01*
X65812580Y-25073112D01*
X65813124Y-25225000D01*
X65811451Y-25462942D01*
X65804668Y-25641593D01*
X65790130Y-25781010D01*
X65765192Y-25901248D01*
X65727209Y-26022362D01*
X65697306Y-26103145D01*
X65593153Y-26355429D01*
X65487050Y-26561142D01*
X65360175Y-26751702D01*
X65193703Y-26958529D01*
X65164424Y-26992585D01*
X65061434Y-27114388D01*
X64985742Y-27209204D01*
X64949249Y-27261904D01*
X64948046Y-27267686D01*
X64993191Y-27287527D01*
X65097790Y-27330233D01*
X65228166Y-27382188D01*
X65587096Y-27553850D01*
X65952805Y-27782572D01*
X66301626Y-28050645D01*
X66609895Y-28340357D01*
X66795579Y-28555147D01*
X67077185Y-28965429D01*
X67285718Y-29382756D01*
X67435259Y-29836197D01*
X67455502Y-29917599D01*
X67476351Y-30050805D01*
X67493676Y-30256211D01*
X67507404Y-30526701D01*
X67517465Y-30855159D01*
X67523784Y-31234467D01*
X67526289Y-31657508D01*
X67524909Y-32117167D01*
X67519571Y-32606326D01*
X67510202Y-33117868D01*
X67496731Y-33644678D01*
X67494246Y-33728046D01*
X67464403Y-34710312D01*
X66949169Y-34710312D01*
X66919326Y-33728046D01*
X66910446Y-33404944D01*
X66902609Y-33060789D01*
X66896233Y-32718838D01*
X66891735Y-32402343D01*
X66889535Y-32134560D01*
X66889384Y-32063603D01*
X66889286Y-31381426D01*
X66696518Y-31360940D01*
X66558399Y-31346303D01*
X66469209Y-31336875D01*
X66980000Y-31336875D01*
X66980000Y-33360937D01*
X67433572Y-33360937D01*
X67433572Y-31336875D01*
X66980000Y-31336875D01*
X66469209Y-31336875D01*
X66367096Y-31326081D01*
X66159488Y-31304171D01*
X66118215Y-31299820D01*
X65927959Y-31278101D01*
X65762222Y-31256202D01*
X65649594Y-31237990D01*
X65630625Y-31233870D01*
X65576211Y-31224814D01*
X65545659Y-31242346D01*
X65532098Y-31302443D01*
X65528658Y-31421080D01*
X65528572Y-31471152D01*
X65522265Y-31607776D01*
X65505510Y-31701522D01*
X65483215Y-31733750D01*
X65459864Y-31697090D01*
X65443758Y-31599044D01*
X65437858Y-31459819D01*
X65436157Y-31315402D01*
X65424979Y-31230102D01*
X65395210Y-31183661D01*
X65337737Y-31155822D01*
X65295018Y-31142319D01*
X65193567Y-31112678D01*
X65137906Y-31098877D01*
X65136268Y-31098750D01*
X65128879Y-31135304D01*
X65123315Y-31232446D01*
X65120517Y-31371390D01*
X65120358Y-31416250D01*
X65117153Y-31579156D01*
X65105526Y-31676922D01*
X65082457Y-31723642D01*
X65052322Y-31733750D01*
X65018225Y-31719297D01*
X64997394Y-31666705D01*
X64987018Y-31562118D01*
X64984286Y-31398315D01*
X64984286Y-31062880D01*
X64598149Y-30904549D01*
X64408912Y-30823693D01*
X64234782Y-30743587D01*
X64103972Y-30677412D01*
X64070091Y-30657793D01*
X63975211Y-30605537D01*
X63893655Y-30589354D01*
X63784559Y-30604857D01*
X63719175Y-30620132D01*
X63562846Y-30646478D01*
X63342297Y-30668691D01*
X63083954Y-30685629D01*
X62814246Y-30696149D01*
X62559602Y-30699109D01*
X62346450Y-30693367D01*
X62239920Y-30684071D01*
X62024295Y-30655778D01*
X62054523Y-30397614D01*
X62086038Y-30220725D01*
X62135087Y-30039298D01*
X62147273Y-30006133D01*
X62462090Y-30006133D01*
X62468501Y-30175749D01*
X62479050Y-30282574D01*
X62498954Y-30343183D01*
X62533429Y-30374154D01*
X62583160Y-30390894D01*
X62706416Y-30405736D01*
X62849840Y-30401503D01*
X62852500Y-30401199D01*
X62949112Y-30393945D01*
X63118148Y-30385338D01*
X63341352Y-30376141D01*
X63600466Y-30367119D01*
X63827679Y-30360368D01*
X64121378Y-30351741D01*
X64340088Y-30342997D01*
X64499510Y-30332211D01*
X64615348Y-30317461D01*
X64703301Y-30296821D01*
X64779073Y-30268367D01*
X64848215Y-30235301D01*
X65360132Y-29935917D01*
X65801495Y-29587553D01*
X66175886Y-29186964D01*
X66459399Y-28777665D01*
X66672444Y-28421112D01*
X66521423Y-28367192D01*
X66331453Y-28332312D01*
X66194703Y-28337855D01*
X66019004Y-28362439D01*
X66113967Y-28256804D01*
X66197854Y-28140660D01*
X66211450Y-28050352D01*
X66149950Y-27981188D01*
X66008547Y-27928474D01*
X65782435Y-27887517D01*
X65728718Y-27880580D01*
X65210883Y-27856367D01*
X64695548Y-27909811D01*
X64190119Y-28039310D01*
X63701996Y-28243263D01*
X63473664Y-28368533D01*
X63118936Y-28604703D01*
X62847939Y-28846529D01*
X62653892Y-29104989D01*
X62530015Y-29391058D01*
X62469529Y-29715713D01*
X62462090Y-30006133D01*
X62147273Y-30006133D01*
X62172728Y-29936856D01*
X62225889Y-29797442D01*
X62234238Y-29723371D01*
X62197018Y-29710603D01*
X62135950Y-29740547D01*
X61762762Y-29927488D01*
X61331757Y-30065449D01*
X60859852Y-30150438D01*
X60363966Y-30178466D01*
X60283857Y-30177406D01*
X59790893Y-30166093D01*
X59801400Y-29921481D01*
X59834311Y-29731209D01*
X60231589Y-29731209D01*
X60243977Y-29810777D01*
X60317452Y-29852101D01*
X60463904Y-29866397D01*
X60549202Y-29867043D01*
X60761843Y-29856759D01*
X60991159Y-29832025D01*
X61106250Y-29813414D01*
X61290521Y-29772339D01*
X61470079Y-29723233D01*
X61559822Y-29693488D01*
X61798222Y-29641746D01*
X62034883Y-29634993D01*
X62328515Y-29644190D01*
X62395225Y-29456232D01*
X62432488Y-29337620D01*
X62436774Y-29260899D01*
X62406935Y-29193630D01*
X62384795Y-29161559D01*
X62302275Y-29034900D01*
X62200913Y-28861389D01*
X62095550Y-28667872D01*
X62001027Y-28481199D01*
X61959510Y-28392227D01*
X61876138Y-28205861D01*
X61673881Y-28285096D01*
X61550938Y-28337258D01*
X61466537Y-28380488D01*
X61447687Y-28394706D01*
X61399322Y-28432426D01*
X61300296Y-28497218D01*
X61215566Y-28548982D01*
X60896416Y-28774740D01*
X60620200Y-29041067D01*
X60402928Y-29330158D01*
X60268402Y-29602183D01*
X60231589Y-29731209D01*
X59834311Y-29731209D01*
X59857461Y-29597373D01*
X59993646Y-29266046D01*
X60202662Y-28941486D01*
X60464634Y-28649673D01*
X60668853Y-28478291D01*
X60916134Y-28308065D01*
X61178970Y-28155448D01*
X61429850Y-28036898D01*
X61575083Y-27985436D01*
X61793492Y-27921961D01*
X61730752Y-27674808D01*
X61660760Y-27275045D01*
X61637947Y-26834236D01*
X61660289Y-26376186D01*
X61725762Y-25924699D01*
X61832343Y-25503579D01*
X61939555Y-25218570D01*
X62023319Y-25029077D01*
X62085644Y-24903500D01*
X62142185Y-24833321D01*
X62208600Y-24810021D01*
X62300543Y-24825082D01*
X62433671Y-24869985D01*
X62522211Y-24901541D01*
X62758886Y-24984716D01*
X62921746Y-24741573D01*
X63120243Y-24383254D01*
X63265078Y-23990441D01*
X63302137Y-23818274D01*
X63542856Y-23818274D01*
X63558420Y-23945952D01*
X63659794Y-24059292D01*
X63736965Y-24105502D01*
X63811971Y-24140263D01*
X63868103Y-24145108D01*
X63941420Y-24116092D01*
X64020447Y-24074497D01*
X64136189Y-23974735D01*
X64169855Y-23851253D01*
X64119199Y-23718027D01*
X64084572Y-23675359D01*
X63965676Y-23602964D01*
X63819838Y-23588577D01*
X63681198Y-23631519D01*
X63615530Y-23684680D01*
X63542856Y-23818274D01*
X63302137Y-23818274D01*
X63353001Y-23581979D01*
X63380768Y-23176711D01*
X63345132Y-22793481D01*
X63293192Y-22585781D01*
X63250471Y-22479092D01*
X63206162Y-22407708D01*
X63194887Y-22397873D01*
X63094858Y-22369052D01*
X62990687Y-22381371D01*
X62925781Y-22429465D01*
X62924966Y-22431240D01*
X62864501Y-22472551D01*
X62753026Y-22463300D01*
X62606512Y-22406461D01*
X62515088Y-22354939D01*
X62446513Y-22317630D01*
X62369985Y-22292815D01*
X62266021Y-22278035D01*
X62115136Y-22270830D01*
X61897845Y-22268742D01*
X61831965Y-22268730D01*
X61596213Y-22270209D01*
X61430275Y-22276092D01*
X61313268Y-22289233D01*
X61224310Y-22312488D01*
X61142516Y-22348711D01*
X61106250Y-22367949D01*
X60924822Y-22466718D01*
X61265000Y-22475498D01*
X61519766Y-22487426D01*
X61799896Y-22509441D01*
X62087349Y-22539164D01*
X62364083Y-22574217D01*
X62612056Y-22612221D01*
X62813229Y-22650799D01*
X62949559Y-22687572D01*
X62983341Y-22702014D01*
X63007255Y-22759545D01*
X62987961Y-22825311D01*
X62967389Y-22897342D01*
X62978355Y-22924331D01*
X62973392Y-22941143D01*
X62932422Y-22965723D01*
X62845228Y-22982501D01*
X62693449Y-22972665D01*
X62512133Y-22944194D01*
X61890286Y-22867534D01*
X61244276Y-22859012D01*
X60566668Y-22918857D01*
X59968172Y-23022012D01*
X59710425Y-23081157D01*
X59474707Y-23145710D01*
X59274505Y-23210875D01*
X59123307Y-23271854D01*
X59034600Y-23323847D01*
X59019642Y-23359433D01*
X59068576Y-23386257D01*
X59082339Y-23382515D01*
X59169181Y-23359202D01*
X59331299Y-23337359D01*
X59553257Y-23317651D01*
X59819622Y-23300742D01*
X60114959Y-23287295D01*
X60423833Y-23277975D01*
X60730811Y-23273446D01*
X61020458Y-23274372D01*
X61277340Y-23281418D01*
X61348686Y-23284992D01*
X61569313Y-23300744D01*
X61816955Y-23323624D01*
X62074699Y-23351455D01*
X62325634Y-23382058D01*
X62552850Y-23413257D01*
X62739434Y-23442875D01*
X62868475Y-23468733D01*
X62922096Y-23487573D01*
X62940274Y-23529163D01*
X62971165Y-23619084D01*
X62980995Y-23650030D01*
X63008227Y-23746724D01*
X63000368Y-23785884D01*
X62946488Y-23786483D01*
X62906364Y-23779595D01*
X62531816Y-23714289D01*
X62217530Y-23665146D01*
X61938269Y-23629962D01*
X61668799Y-23606532D01*
X61383883Y-23592653D01*
X61058287Y-23586119D01*
X60675358Y-23584719D01*
X60288454Y-23586718D01*
X59970441Y-23593180D01*
X59699543Y-23605956D01*
X59453987Y-23626893D01*
X59211996Y-23657842D01*
X58951796Y-23700651D01*
X58656965Y-23756124D01*
X58345720Y-23825193D01*
X58006153Y-23914229D01*
X57675090Y-24012798D01*
X57389361Y-24110470D01*
X57341608Y-24128701D01*
X57024108Y-24252656D01*
X57182858Y-24274574D01*
X57302902Y-24281067D01*
X57385759Y-24267871D01*
X57391138Y-24264997D01*
X57449722Y-24247559D01*
X57462363Y-24252483D01*
X57513075Y-24253276D01*
X57633310Y-24240613D01*
X57803698Y-24216844D01*
X57957118Y-24192415D01*
X58646592Y-24097685D01*
X59271353Y-24054608D01*
X59829635Y-24063292D01*
X59945583Y-24072361D01*
X60341802Y-24113789D01*
X60724776Y-24163979D01*
X61070938Y-24219418D01*
X61356720Y-24276593D01*
X61423750Y-24292697D01*
X61603406Y-24336660D01*
X61785980Y-24379306D01*
X61843881Y-24392243D01*
X61961754Y-24422954D01*
X62007350Y-24453970D01*
X61997889Y-24498560D01*
X61992888Y-24507072D01*
X61966188Y-24573826D01*
X61970728Y-24598970D01*
X61961241Y-24636281D01*
X61935114Y-24659944D01*
X61871383Y-24674283D01*
X61746411Y-24664111D01*
X61550123Y-24628330D01*
X61453781Y-24607578D01*
X60627628Y-24454148D01*
X59804913Y-24359425D01*
X59003319Y-24324860D01*
X58292761Y-24347943D01*
X57786827Y-24390870D01*
X57349428Y-24442030D01*
X56958590Y-24504368D01*
X56644824Y-24568738D01*
X56489343Y-24600135D01*
X56366299Y-24617967D01*
X56306314Y-24618768D01*
X56311431Y-24586506D01*
X56375007Y-24511816D01*
X56486321Y-24403616D01*
X56634656Y-24270824D01*
X56809291Y-24122359D01*
X56999507Y-23967138D01*
X57194585Y-23814081D01*
X57383806Y-23672106D01*
X57556451Y-23550131D01*
X57701801Y-23457074D01*
X57704465Y-23455506D01*
X58032432Y-23276151D01*
X58389964Y-23103563D01*
X58752676Y-22948115D01*
X59096181Y-22820179D01*
X59396093Y-22730129D01*
X59428036Y-22722352D01*
X59777295Y-22643897D01*
X60064580Y-22588931D01*
X60312940Y-22553274D01*
X60422385Y-22542032D01*
X60665234Y-22505154D01*
X60828464Y-22442512D01*
X60919926Y-22349377D01*
X60947500Y-22225713D01*
X60952045Y-22142130D01*
X60982138Y-22102550D01*
X61062462Y-22090523D01*
X61151608Y-22089687D01*
X61273348Y-22096466D01*
X61273348Y-22096466D01*
G37*
X61273348Y-22096466D02*
X61346362Y-22113616D01*
X61355715Y-22123806D01*
X61397979Y-22137710D01*
X61512429Y-22148991D01*
X61680547Y-22156331D01*
X61843304Y-22158484D01*
X62273730Y-22179364D01*
X62729996Y-22237289D01*
X63183289Y-22326592D01*
X63604796Y-22441601D01*
X63963444Y-22575641D01*
X64390790Y-22802828D01*
X64785341Y-23084719D01*
X65123935Y-23403689D01*
X65254606Y-23558125D01*
X65396427Y-23748131D01*
X65502953Y-23914901D01*
X65592050Y-24090244D01*
X65681583Y-24305973D01*
X65696858Y-24345619D01*
X65744028Y-24477158D01*
X65776530Y-24595599D01*
X65797020Y-24721019D01*
X65808152Y-24873497D01*
X65812580Y-25073112D01*
X65813124Y-25225000D01*
X65811451Y-25462942D01*
X65804668Y-25641593D01*
X65790130Y-25781010D01*
X65765192Y-25901248D01*
X65727209Y-26022362D01*
X65697306Y-26103145D01*
X65593153Y-26355429D01*
X65487050Y-26561142D01*
X65360175Y-26751702D01*
X65193703Y-26958529D01*
X65164424Y-26992585D01*
X65061434Y-27114388D01*
X64985742Y-27209204D01*
X64949249Y-27261904D01*
X64948046Y-27267686D01*
X64993191Y-27287527D01*
X65097790Y-27330233D01*
X65228166Y-27382188D01*
X65587096Y-27553850D01*
X65952805Y-27782572D01*
X66301626Y-28050645D01*
X66609895Y-28340357D01*
X66795579Y-28555147D01*
X67077185Y-28965429D01*
X67285718Y-29382756D01*
X67435259Y-29836197D01*
X67455502Y-29917599D01*
X67476351Y-30050805D01*
X67493676Y-30256211D01*
X67507404Y-30526701D01*
X67517465Y-30855159D01*
X67523784Y-31234467D01*
X67526289Y-31657508D01*
X67524909Y-32117167D01*
X67519571Y-32606326D01*
X67510202Y-33117868D01*
X67496731Y-33644678D01*
X67494246Y-33728046D01*
X67464403Y-34710312D01*
X66949169Y-34710312D01*
X66919326Y-33728046D01*
X66910446Y-33404944D01*
X66902609Y-33060789D01*
X66896233Y-32718838D01*
X66891735Y-32402343D01*
X66889535Y-32134560D01*
X66889384Y-32063603D01*
X66889286Y-31381426D01*
X66696518Y-31360940D01*
X66558399Y-31346303D01*
X66469209Y-31336875D01*
X66980000Y-31336875D01*
X66980000Y-33360937D01*
X67433572Y-33360937D01*
X67433572Y-31336875D01*
X66980000Y-31336875D01*
X66469209Y-31336875D01*
X66367096Y-31326081D01*
X66159488Y-31304171D01*
X66118215Y-31299820D01*
X65927959Y-31278101D01*
X65762222Y-31256202D01*
X65649594Y-31237990D01*
X65630625Y-31233870D01*
X65576211Y-31224814D01*
X65545659Y-31242346D01*
X65532098Y-31302443D01*
X65528658Y-31421080D01*
X65528572Y-31471152D01*
X65522265Y-31607776D01*
X65505510Y-31701522D01*
X65483215Y-31733750D01*
X65459864Y-31697090D01*
X65443758Y-31599044D01*
X65437858Y-31459819D01*
X65436157Y-31315402D01*
X65424979Y-31230102D01*
X65395210Y-31183661D01*
X65337737Y-31155822D01*
X65295018Y-31142319D01*
X65193567Y-31112678D01*
X65137906Y-31098877D01*
X65136268Y-31098750D01*
X65128879Y-31135304D01*
X65123315Y-31232446D01*
X65120517Y-31371390D01*
X65120358Y-31416250D01*
X65117153Y-31579156D01*
X65105526Y-31676922D01*
X65082457Y-31723642D01*
X65052322Y-31733750D01*
X65018225Y-31719297D01*
X64997394Y-31666705D01*
X64987018Y-31562118D01*
X64984286Y-31398315D01*
X64984286Y-31062880D01*
X64598149Y-30904549D01*
X64408912Y-30823693D01*
X64234782Y-30743587D01*
X64103972Y-30677412D01*
X64070091Y-30657793D01*
X63975211Y-30605537D01*
X63893655Y-30589354D01*
X63784559Y-30604857D01*
X63719175Y-30620132D01*
X63562846Y-30646478D01*
X63342297Y-30668691D01*
X63083954Y-30685629D01*
X62814246Y-30696149D01*
X62559602Y-30699109D01*
X62346450Y-30693367D01*
X62239920Y-30684071D01*
X62024295Y-30655778D01*
X62054523Y-30397614D01*
X62086038Y-30220725D01*
X62135087Y-30039298D01*
X62147273Y-30006133D01*
X62462090Y-30006133D01*
X62468501Y-30175749D01*
X62479050Y-30282574D01*
X62498954Y-30343183D01*
X62533429Y-30374154D01*
X62583160Y-30390894D01*
X62706416Y-30405736D01*
X62849840Y-30401503D01*
X62852500Y-30401199D01*
X62949112Y-30393945D01*
X63118148Y-30385338D01*
X63341352Y-30376141D01*
X63600466Y-30367119D01*
X63827679Y-30360368D01*
X64121378Y-30351741D01*
X64340088Y-30342997D01*
X64499510Y-30332211D01*
X64615348Y-30317461D01*
X64703301Y-30296821D01*
X64779073Y-30268367D01*
X64848215Y-30235301D01*
X65360132Y-29935917D01*
X65801495Y-29587553D01*
X66175886Y-29186964D01*
X66459399Y-28777665D01*
X66672444Y-28421112D01*
X66521423Y-28367192D01*
X66331453Y-28332312D01*
X66194703Y-28337855D01*
X66019004Y-28362439D01*
X66113967Y-28256804D01*
X66197854Y-28140660D01*
X66211450Y-28050352D01*
X66149950Y-27981188D01*
X66008547Y-27928474D01*
X65782435Y-27887517D01*
X65728718Y-27880580D01*
X65210883Y-27856367D01*
X64695548Y-27909811D01*
X64190119Y-28039310D01*
X63701996Y-28243263D01*
X63473664Y-28368533D01*
X63118936Y-28604703D01*
X62847939Y-28846529D01*
X62653892Y-29104989D01*
X62530015Y-29391058D01*
X62469529Y-29715713D01*
X62462090Y-30006133D01*
X62147273Y-30006133D01*
X62172728Y-29936856D01*
X62225889Y-29797442D01*
X62234238Y-29723371D01*
X62197018Y-29710603D01*
X62135950Y-29740547D01*
X61762762Y-29927488D01*
X61331757Y-30065449D01*
X60859852Y-30150438D01*
X60363966Y-30178466D01*
X60283857Y-30177406D01*
X59790893Y-30166093D01*
X59801400Y-29921481D01*
X59834311Y-29731209D01*
X60231589Y-29731209D01*
X60243977Y-29810777D01*
X60317452Y-29852101D01*
X60463904Y-29866397D01*
X60549202Y-29867043D01*
X60761843Y-29856759D01*
X60991159Y-29832025D01*
X61106250Y-29813414D01*
X61290521Y-29772339D01*
X61470079Y-29723233D01*
X61559822Y-29693488D01*
X61798222Y-29641746D01*
X62034883Y-29634993D01*
X62328515Y-29644190D01*
X62395225Y-29456232D01*
X62432488Y-29337620D01*
X62436774Y-29260899D01*
X62406935Y-29193630D01*
X62384795Y-29161559D01*
X62302275Y-29034900D01*
X62200913Y-28861389D01*
X62095550Y-28667872D01*
X62001027Y-28481199D01*
X61959510Y-28392227D01*
X61876138Y-28205861D01*
X61673881Y-28285096D01*
X61550938Y-28337258D01*
X61466537Y-28380488D01*
X61447687Y-28394706D01*
X61399322Y-28432426D01*
X61300296Y-28497218D01*
X61215566Y-28548982D01*
X60896416Y-28774740D01*
X60620200Y-29041067D01*
X60402928Y-29330158D01*
X60268402Y-29602183D01*
X60231589Y-29731209D01*
X59834311Y-29731209D01*
X59857461Y-29597373D01*
X59993646Y-29266046D01*
X60202662Y-28941486D01*
X60464634Y-28649673D01*
X60668853Y-28478291D01*
X60916134Y-28308065D01*
X61178970Y-28155448D01*
X61429850Y-28036898D01*
X61575083Y-27985436D01*
X61793492Y-27921961D01*
X61730752Y-27674808D01*
X61660760Y-27275045D01*
X61637947Y-26834236D01*
X61660289Y-26376186D01*
X61725762Y-25924699D01*
X61832343Y-25503579D01*
X61939555Y-25218570D01*
X62023319Y-25029077D01*
X62085644Y-24903500D01*
X62142185Y-24833321D01*
X62208600Y-24810021D01*
X62300543Y-24825082D01*
X62433671Y-24869985D01*
X62522211Y-24901541D01*
X62758886Y-24984716D01*
X62921746Y-24741573D01*
X63120243Y-24383254D01*
X63265078Y-23990441D01*
X63302137Y-23818274D01*
X63542856Y-23818274D01*
X63558420Y-23945952D01*
X63659794Y-24059292D01*
X63736965Y-24105502D01*
X63811971Y-24140263D01*
X63868103Y-24145108D01*
X63941420Y-24116092D01*
X64020447Y-24074497D01*
X64136189Y-23974735D01*
X64169855Y-23851253D01*
X64119199Y-23718027D01*
X64084572Y-23675359D01*
X63965676Y-23602964D01*
X63819838Y-23588577D01*
X63681198Y-23631519D01*
X63615530Y-23684680D01*
X63542856Y-23818274D01*
X63302137Y-23818274D01*
X63353001Y-23581979D01*
X63380768Y-23176711D01*
X63345132Y-22793481D01*
X63293192Y-22585781D01*
X63250471Y-22479092D01*
X63206162Y-22407708D01*
X63194887Y-22397873D01*
X63094858Y-22369052D01*
X62990687Y-22381371D01*
X62925781Y-22429465D01*
X62924966Y-22431240D01*
X62864501Y-22472551D01*
X62753026Y-22463300D01*
X62606512Y-22406461D01*
X62515088Y-22354939D01*
X62446513Y-22317630D01*
X62369985Y-22292815D01*
X62266021Y-22278035D01*
X62115136Y-22270830D01*
X61897845Y-22268742D01*
X61831965Y-22268730D01*
X61596213Y-22270209D01*
X61430275Y-22276092D01*
X61313268Y-22289233D01*
X61224310Y-22312488D01*
X61142516Y-22348711D01*
X61106250Y-22367949D01*
X60924822Y-22466718D01*
X61265000Y-22475498D01*
X61519766Y-22487426D01*
X61799896Y-22509441D01*
X62087349Y-22539164D01*
X62364083Y-22574217D01*
X62612056Y-22612221D01*
X62813229Y-22650799D01*
X62949559Y-22687572D01*
X62983341Y-22702014D01*
X63007255Y-22759545D01*
X62987961Y-22825311D01*
X62967389Y-22897342D01*
X62978355Y-22924331D01*
X62973392Y-22941143D01*
X62932422Y-22965723D01*
X62845228Y-22982501D01*
X62693449Y-22972665D01*
X62512133Y-22944194D01*
X61890286Y-22867534D01*
X61244276Y-22859012D01*
X60566668Y-22918857D01*
X59968172Y-23022012D01*
X59710425Y-23081157D01*
X59474707Y-23145710D01*
X59274505Y-23210875D01*
X59123307Y-23271854D01*
X59034600Y-23323847D01*
X59019642Y-23359433D01*
X59068576Y-23386257D01*
X59082339Y-23382515D01*
X59169181Y-23359202D01*
X59331299Y-23337359D01*
X59553257Y-23317651D01*
X59819622Y-23300742D01*
X60114959Y-23287295D01*
X60423833Y-23277975D01*
X60730811Y-23273446D01*
X61020458Y-23274372D01*
X61277340Y-23281418D01*
X61348686Y-23284992D01*
X61569313Y-23300744D01*
X61816955Y-23323624D01*
X62074699Y-23351455D01*
X62325634Y-23382058D01*
X62552850Y-23413257D01*
X62739434Y-23442875D01*
X62868475Y-23468733D01*
X62922096Y-23487573D01*
X62940274Y-23529163D01*
X62971165Y-23619084D01*
X62980995Y-23650030D01*
X63008227Y-23746724D01*
X63000368Y-23785884D01*
X62946488Y-23786483D01*
X62906364Y-23779595D01*
X62531816Y-23714289D01*
X62217530Y-23665146D01*
X61938269Y-23629962D01*
X61668799Y-23606532D01*
X61383883Y-23592653D01*
X61058287Y-23586119D01*
X60675358Y-23584719D01*
X60288454Y-23586718D01*
X59970441Y-23593180D01*
X59699543Y-23605956D01*
X59453987Y-23626893D01*
X59211996Y-23657842D01*
X58951796Y-23700651D01*
X58656965Y-23756124D01*
X58345720Y-23825193D01*
X58006153Y-23914229D01*
X57675090Y-24012798D01*
X57389361Y-24110470D01*
X57341608Y-24128701D01*
X57024108Y-24252656D01*
X57182858Y-24274574D01*
X57302902Y-24281067D01*
X57385759Y-24267871D01*
X57391138Y-24264997D01*
X57449722Y-24247559D01*
X57462363Y-24252483D01*
X57513075Y-24253276D01*
X57633310Y-24240613D01*
X57803698Y-24216844D01*
X57957118Y-24192415D01*
X58646592Y-24097685D01*
X59271353Y-24054608D01*
X59829635Y-24063292D01*
X59945583Y-24072361D01*
X60341802Y-24113789D01*
X60724776Y-24163979D01*
X61070938Y-24219418D01*
X61356720Y-24276593D01*
X61423750Y-24292697D01*
X61603406Y-24336660D01*
X61785980Y-24379306D01*
X61843881Y-24392243D01*
X61961754Y-24422954D01*
X62007350Y-24453970D01*
X61997889Y-24498560D01*
X61992888Y-24507072D01*
X61966188Y-24573826D01*
X61970728Y-24598970D01*
X61961241Y-24636281D01*
X61935114Y-24659944D01*
X61871383Y-24674283D01*
X61746411Y-24664111D01*
X61550123Y-24628330D01*
X61453781Y-24607578D01*
X60627628Y-24454148D01*
X59804913Y-24359425D01*
X59003319Y-24324860D01*
X58292761Y-24347943D01*
X57786827Y-24390870D01*
X57349428Y-24442030D01*
X56958590Y-24504368D01*
X56644824Y-24568738D01*
X56489343Y-24600135D01*
X56366299Y-24617967D01*
X56306314Y-24618768D01*
X56311431Y-24586506D01*
X56375007Y-24511816D01*
X56486321Y-24403616D01*
X56634656Y-24270824D01*
X56809291Y-24122359D01*
X56999507Y-23967138D01*
X57194585Y-23814081D01*
X57383806Y-23672106D01*
X57556451Y-23550131D01*
X57701801Y-23457074D01*
X57704465Y-23455506D01*
X58032432Y-23276151D01*
X58389964Y-23103563D01*
X58752676Y-22948115D01*
X59096181Y-22820179D01*
X59396093Y-22730129D01*
X59428036Y-22722352D01*
X59777295Y-22643897D01*
X60064580Y-22588931D01*
X60312940Y-22553274D01*
X60422385Y-22542032D01*
X60665234Y-22505154D01*
X60828464Y-22442512D01*
X60919926Y-22349377D01*
X60947500Y-22225713D01*
X60952045Y-22142130D01*
X60982138Y-22102550D01*
X61062462Y-22090523D01*
X61151608Y-22089687D01*
X61273348Y-22096466D01*
G36*
X63977785Y-23818336D02*
G01*
X64029959Y-23880013D01*
X64031786Y-23893619D01*
X63999457Y-24002889D01*
X63919371Y-24066575D01*
X63816882Y-24074813D01*
X63717340Y-24017740D01*
X63716092Y-24016435D01*
X63683881Y-23929300D01*
X63713982Y-23836551D01*
X63787334Y-23780214D01*
X63883463Y-23778832D01*
X63977785Y-23818336D01*
X63977785Y-23818336D01*
G37*
X63977785Y-23818336D02*
X64029959Y-23880013D01*
X64031786Y-23893619D01*
X63999457Y-24002889D01*
X63919371Y-24066575D01*
X63816882Y-24074813D01*
X63717340Y-24017740D01*
X63716092Y-24016435D01*
X63683881Y-23929300D01*
X63713982Y-23836551D01*
X63787334Y-23780214D01*
X63883463Y-23778832D01*
X63977785Y-23818336D01*
D11*
X84709000Y-48570000D02*
X84709000Y-47060000D01*
X88410000Y-48570000D02*
X88410000Y-47060000D01*
X91680000Y-47060000D02*
X81440000Y-47060000D01*
X81440000Y-48570000D02*
X81440000Y-43929000D01*
X91680000Y-48570000D02*
X91680000Y-43929000D01*
X91680000Y-43929000D02*
X81440000Y-43929000D01*
X91680000Y-48570000D02*
X81440000Y-48570000D01*
X99810000Y-53040000D02*
X99810000Y-42880000D01*
X92190000Y-53040000D02*
X99810000Y-53040000D01*
X92190000Y-42880000D02*
X92190000Y-53040000D01*
X99810000Y-42880000D02*
X92190000Y-42880000D01*
X98540000Y-42880000D02*
X98540000Y-53040000D01*
X21447936Y-40210000D02*
X25552064Y-40210000D01*
X21447936Y-36790000D02*
X25552064Y-36790000D01*
X76447936Y-40210000D02*
X80552064Y-40210000D01*
X76447936Y-36790000D02*
X80552064Y-36790000D01*
X34447936Y-40210000D02*
X38552064Y-40210000D01*
X34447936Y-36790000D02*
X38552064Y-36790000D01*
X88947936Y-40210000D02*
X93052064Y-40210000D01*
X88947936Y-36790000D02*
X93052064Y-36790000D01*
X19400000Y-48620000D02*
X20600000Y-48620000D01*
X20600000Y-50380000D02*
X19400000Y-50380000D01*
X25460000Y-18310000D02*
X40700000Y-18310000D01*
X25460000Y-10690000D02*
X40700000Y-10690000D01*
X25460000Y-17040000D02*
X40700000Y-17040000D01*
X40700000Y-18310000D02*
X40700000Y-10690000D01*
X25460000Y-18310000D02*
X25460000Y-10690000D01*
X81460000Y-18310000D02*
X96700000Y-18310000D01*
X81460000Y-10690000D02*
X96700000Y-10690000D01*
X81460000Y-17040000D02*
X96700000Y-17040000D01*
X96700000Y-18310000D02*
X96700000Y-10690000D01*
X81460000Y-18310000D02*
X81460000Y-10690000D01*
X17130000Y-50670000D02*
X17130000Y-53330000D01*
X19730000Y-50670000D02*
X17130000Y-50670000D01*
X19730000Y-53330000D02*
X17130000Y-53330000D01*
X19730000Y-50670000D02*
X19730000Y-53330000D01*
X21000000Y-50670000D02*
X22330000Y-50670000D01*
X22330000Y-50670000D02*
X22330000Y-52000000D01*
X84650000Y-20000000D02*
X84650000Y-21000000D01*
X86350000Y-21000000D02*
X86350000Y-20000000D01*
X29650000Y-20000000D02*
X29650000Y-21000000D01*
X31350000Y-21000000D02*
X31350000Y-20000000D01*
X42650000Y-20000000D02*
X42650000Y-21000000D01*
X44350000Y-21000000D02*
X44350000Y-20000000D01*
X97150000Y-20000000D02*
X97150000Y-21000000D01*
X98850000Y-21000000D02*
X98850000Y-20000000D01*
X29350000Y-39000000D02*
X29350000Y-38000000D01*
X27650000Y-38000000D02*
X27650000Y-39000000D01*
X84350000Y-39000000D02*
X84350000Y-38000000D01*
X82650000Y-38000000D02*
X82650000Y-39000000D01*
X21000000Y-21850000D02*
X22000000Y-21850000D01*
X22000000Y-20150000D02*
X21000000Y-20150000D01*
X77000000Y-20150000D02*
X76000000Y-20150000D01*
X76000000Y-21850000D02*
X77000000Y-21850000D01*
X42350000Y-39000000D02*
X42350000Y-38000000D01*
X40650000Y-38000000D02*
X40650000Y-39000000D01*
X96850000Y-39000000D02*
X96850000Y-38000000D01*
X95150000Y-38000000D02*
X95150000Y-39000000D01*
X34000000Y-21850000D02*
X35000000Y-21850000D01*
X35000000Y-20150000D02*
X34000000Y-20150000D01*
X88500000Y-21850000D02*
X89500000Y-21850000D01*
X89500000Y-20150000D02*
X88500000Y-20150000D01*
X48000000Y-46150000D02*
X47000000Y-46150000D01*
X47000000Y-47850000D02*
X48000000Y-47850000D01*
X73640000Y-54600000D02*
X74640000Y-54600000D01*
X74140000Y-55100000D02*
X74140000Y-54100000D01*
X79945563Y-53860000D02*
X81010000Y-52795563D01*
X73354437Y-53860000D02*
X72290000Y-52795563D01*
X73354437Y-53860000D02*
X75140000Y-53860000D01*
X79945563Y-53860000D02*
X78160000Y-53860000D01*
X81010000Y-52795563D02*
X81010000Y-45140000D01*
X72290000Y-52795563D02*
X72290000Y-45140000D01*
X72290000Y-45140000D02*
X75140000Y-45140000D01*
X81010000Y-45140000D02*
X78160000Y-45140000D01*
X69110000Y-16300000D02*
X70600000Y-16300000D01*
X70600000Y-16300000D02*
X70600000Y-14960000D01*
X53790000Y-16300000D02*
X52300000Y-16300000D01*
X52300000Y-16300000D02*
X52300000Y-14960000D01*
X70600000Y-12240000D02*
X70600000Y-10500000D01*
X70600000Y-10500000D02*
X52300000Y-10500000D01*
X52300000Y-10500000D02*
X52300000Y-12240000D01*
X53800000Y-16300000D02*
X53800000Y-17500000D01*
X89020000Y-55120000D02*
X89020000Y-49120000D01*
X89020000Y-49120000D02*
X83740000Y-49120000D01*
X83740000Y-49120000D02*
X83740000Y-55120000D01*
X83740000Y-55120000D02*
X89020000Y-55120000D01*
X87650000Y-49120000D02*
X87650000Y-50120000D01*
X87650000Y-50120000D02*
X85110000Y-50120000D01*
X85110000Y-50120000D02*
X85110000Y-49120000D01*
X87650000Y-50120000D02*
X87400000Y-50550000D01*
X87400000Y-50550000D02*
X85360000Y-50550000D01*
X85360000Y-50550000D02*
X85110000Y-50120000D01*
X87400000Y-49120000D02*
X87400000Y-50120000D01*
X85360000Y-49120000D02*
X85360000Y-50120000D01*
X88450000Y-55120000D02*
X88450000Y-54500000D01*
X88450000Y-54500000D02*
X86850000Y-54500000D01*
X86850000Y-54500000D02*
X86850000Y-55120000D01*
X85910000Y-55120000D02*
X85910000Y-54500000D01*
X85910000Y-54500000D02*
X84310000Y-54500000D01*
X84310000Y-54500000D02*
X84310000Y-55120000D01*
X45160000Y-53900000D02*
X45160000Y-54520000D01*
X46760000Y-53900000D02*
X45160000Y-53900000D01*
X46760000Y-54520000D02*
X46760000Y-53900000D01*
X47700000Y-53900000D02*
X47700000Y-54520000D01*
X49300000Y-53900000D02*
X47700000Y-53900000D01*
X49300000Y-54520000D02*
X49300000Y-53900000D01*
X46210000Y-48520000D02*
X46210000Y-49520000D01*
X48250000Y-48520000D02*
X48250000Y-49520000D01*
X46210000Y-49950000D02*
X45960000Y-49520000D01*
X48250000Y-49950000D02*
X46210000Y-49950000D01*
X48500000Y-49520000D02*
X48250000Y-49950000D01*
X45960000Y-49520000D02*
X45960000Y-48520000D01*
X48500000Y-49520000D02*
X45960000Y-49520000D01*
X48500000Y-48520000D02*
X48500000Y-49520000D01*
X44590000Y-54520000D02*
X49870000Y-54520000D01*
X44590000Y-48520000D02*
X44590000Y-54520000D01*
X49870000Y-48520000D02*
X44590000Y-48520000D01*
X49870000Y-54520000D02*
X49870000Y-48520000D01*
X53790000Y-40700000D02*
X52300000Y-40700000D01*
X52300000Y-40700000D02*
X52300000Y-42040000D01*
X69110000Y-40700000D02*
X70600000Y-40700000D01*
X70600000Y-40700000D02*
X70600000Y-42040000D01*
X52300000Y-44760000D02*
X52300000Y-46500000D01*
X52300000Y-46500000D02*
X70600000Y-46500000D01*
X70600000Y-46500000D02*
X70600000Y-44760000D01*
X53790000Y-40700000D02*
X53790000Y-39500000D01*
X13670000Y-35490000D02*
X16330000Y-35490000D01*
X13670000Y-17650000D02*
X13670000Y-35490000D01*
X16330000Y-17650000D02*
X16330000Y-35490000D01*
X13670000Y-17650000D02*
X16330000Y-17650000D01*
X13670000Y-16380000D02*
X13670000Y-15050000D01*
X13670000Y-15050000D02*
X15000000Y-15050000D01*
X13670000Y-53260000D02*
X16330000Y-53260000D01*
X13670000Y-40500000D02*
X13670000Y-53260000D01*
X16330000Y-40500000D02*
X16330000Y-53260000D01*
X13670000Y-40500000D02*
X16330000Y-40500000D01*
X13670000Y-39230000D02*
X13670000Y-37900000D01*
X13670000Y-37900000D02*
X15000000Y-37900000D01*
X64590000Y-48060000D02*
X61930000Y-48060000D01*
X64590000Y-50660000D02*
X64590000Y-48060000D01*
X61930000Y-50660000D02*
X61930000Y-48060000D01*
X64590000Y-50660000D02*
X61930000Y-50660000D01*
X64590000Y-51930000D02*
X64590000Y-53260000D01*
X64590000Y-53260000D02*
X63260000Y-53260000D01*
D13*
X19638095Y-27552380D02*
X19638095Y-28361904D01*
X19685714Y-28457142D01*
X19733333Y-28504761D01*
X19828571Y-28552380D01*
X20019047Y-28552380D01*
X20114285Y-28504761D01*
X20161904Y-28457142D01*
X20209523Y-28361904D01*
X20209523Y-27552380D01*
X21114285Y-27885714D02*
X21114285Y-28552380D01*
X20876190Y-27504761D02*
X20638095Y-28219047D01*
X21257142Y-28219047D01*
X74738095Y-27852380D02*
X74738095Y-28661904D01*
X74785714Y-28757142D01*
X74833333Y-28804761D01*
X74928571Y-28852380D01*
X75119047Y-28852380D01*
X75214285Y-28804761D01*
X75261904Y-28757142D01*
X75309523Y-28661904D01*
X75309523Y-27852380D01*
X75690476Y-27852380D02*
X76309523Y-27852380D01*
X75976190Y-28233333D01*
X76119047Y-28233333D01*
X76214285Y-28280952D01*
X76261904Y-28328571D01*
X76309523Y-28423809D01*
X76309523Y-28661904D01*
X76261904Y-28757142D01*
X76214285Y-28804761D01*
X76119047Y-28852380D01*
X75833333Y-28852380D01*
X75738095Y-28804761D01*
X75690476Y-28757142D01*
X32738095Y-27452380D02*
X32738095Y-28261904D01*
X32785714Y-28357142D01*
X32833333Y-28404761D01*
X32928571Y-28452380D01*
X33119047Y-28452380D01*
X33214285Y-28404761D01*
X33261904Y-28357142D01*
X33309523Y-28261904D01*
X33309523Y-27452380D01*
X33738095Y-27547619D02*
X33785714Y-27500000D01*
X33880952Y-27452380D01*
X34119047Y-27452380D01*
X34214285Y-27500000D01*
X34261904Y-27547619D01*
X34309523Y-27642857D01*
X34309523Y-27738095D01*
X34261904Y-27880952D01*
X33690476Y-28452380D01*
X34309523Y-28452380D01*
X87338095Y-27452380D02*
X87338095Y-28261904D01*
X87385714Y-28357142D01*
X87433333Y-28404761D01*
X87528571Y-28452380D01*
X87719047Y-28452380D01*
X87814285Y-28404761D01*
X87861904Y-28357142D01*
X87909523Y-28261904D01*
X87909523Y-27452380D01*
X88909523Y-28452380D02*
X88338095Y-28452380D01*
X88623809Y-28452380D02*
X88623809Y-27452380D01*
X88528571Y-27595238D01*
X88433333Y-27690476D01*
X88338095Y-27738095D01*
X89004761Y-43647619D02*
X88909523Y-43600000D01*
X88814285Y-43504761D01*
X88671428Y-43361904D01*
X88576190Y-43314285D01*
X88480952Y-43314285D01*
X88528571Y-43552380D02*
X88433333Y-43504761D01*
X88338095Y-43409523D01*
X88290476Y-43219047D01*
X88290476Y-42885714D01*
X88338095Y-42695238D01*
X88433333Y-42600000D01*
X88528571Y-42552380D01*
X88719047Y-42552380D01*
X88814285Y-42600000D01*
X88909523Y-42695238D01*
X88957142Y-42885714D01*
X88957142Y-43219047D01*
X88909523Y-43409523D01*
X88814285Y-43504761D01*
X88719047Y-43552380D01*
X88528571Y-43552380D01*
X89909523Y-43552380D02*
X89338095Y-43552380D01*
X89623809Y-43552380D02*
X89623809Y-42552380D01*
X89528571Y-42695238D01*
X89433333Y-42790476D01*
X89338095Y-42838095D01*
X95214285Y-41928571D02*
X95357142Y-41976190D01*
X95404761Y-42023809D01*
X95452380Y-42119047D01*
X95452380Y-42261904D01*
X95404761Y-42357142D01*
X95357142Y-42404761D01*
X95261904Y-42452380D01*
X94880952Y-42452380D01*
X94880952Y-41452380D01*
X95214285Y-41452380D01*
X95309523Y-41500000D01*
X95357142Y-41547619D01*
X95404761Y-41642857D01*
X95404761Y-41738095D01*
X95357142Y-41833333D01*
X95309523Y-41880952D01*
X95214285Y-41928571D01*
X94880952Y-41928571D01*
X95738095Y-41452380D02*
X96309523Y-41452380D01*
X96023809Y-42452380D02*
X96023809Y-41452380D01*
X97166666Y-42452380D02*
X96595238Y-42452380D01*
X96880952Y-42452380D02*
X96880952Y-41452380D01*
X96785714Y-41595238D01*
X96690476Y-41690476D01*
X96595238Y-41738095D01*
X20333333Y-36452380D02*
X20000000Y-35976190D01*
X19761904Y-36452380D02*
X19761904Y-35452380D01*
X20142857Y-35452380D01*
X20238095Y-35500000D01*
X20285714Y-35547619D01*
X20333333Y-35642857D01*
X20333333Y-35785714D01*
X20285714Y-35880952D01*
X20238095Y-35928571D01*
X20142857Y-35976190D01*
X19761904Y-35976190D01*
X21238095Y-35452380D02*
X20761904Y-35452380D01*
X20714285Y-35928571D01*
X20761904Y-35880952D01*
X20857142Y-35833333D01*
X21095238Y-35833333D01*
X21190476Y-35880952D01*
X21238095Y-35928571D01*
X21285714Y-36023809D01*
X21285714Y-36261904D01*
X21238095Y-36357142D01*
X21190476Y-36404761D01*
X21095238Y-36452380D01*
X20857142Y-36452380D01*
X20761904Y-36404761D01*
X20714285Y-36357142D01*
X75533333Y-36452380D02*
X75200000Y-35976190D01*
X74961904Y-36452380D02*
X74961904Y-35452380D01*
X75342857Y-35452380D01*
X75438095Y-35500000D01*
X75485714Y-35547619D01*
X75533333Y-35642857D01*
X75533333Y-35785714D01*
X75485714Y-35880952D01*
X75438095Y-35928571D01*
X75342857Y-35976190D01*
X74961904Y-35976190D01*
X76390476Y-35785714D02*
X76390476Y-36452380D01*
X76152380Y-35404761D02*
X75914285Y-36119047D01*
X76533333Y-36119047D01*
X33633333Y-36452380D02*
X33300000Y-35976190D01*
X33061904Y-36452380D02*
X33061904Y-35452380D01*
X33442857Y-35452380D01*
X33538095Y-35500000D01*
X33585714Y-35547619D01*
X33633333Y-35642857D01*
X33633333Y-35785714D01*
X33585714Y-35880952D01*
X33538095Y-35928571D01*
X33442857Y-35976190D01*
X33061904Y-35976190D01*
X33966666Y-35452380D02*
X34585714Y-35452380D01*
X34252380Y-35833333D01*
X34395238Y-35833333D01*
X34490476Y-35880952D01*
X34538095Y-35928571D01*
X34585714Y-36023809D01*
X34585714Y-36261904D01*
X34538095Y-36357142D01*
X34490476Y-36404761D01*
X34395238Y-36452380D01*
X34109523Y-36452380D01*
X34014285Y-36404761D01*
X33966666Y-36357142D01*
X87933333Y-36452380D02*
X87600000Y-35976190D01*
X87361904Y-36452380D02*
X87361904Y-35452380D01*
X87742857Y-35452380D01*
X87838095Y-35500000D01*
X87885714Y-35547619D01*
X87933333Y-35642857D01*
X87933333Y-35785714D01*
X87885714Y-35880952D01*
X87838095Y-35928571D01*
X87742857Y-35976190D01*
X87361904Y-35976190D01*
X88314285Y-35547619D02*
X88361904Y-35500000D01*
X88457142Y-35452380D01*
X88695238Y-35452380D01*
X88790476Y-35500000D01*
X88838095Y-35547619D01*
X88885714Y-35642857D01*
X88885714Y-35738095D01*
X88838095Y-35880952D01*
X88266666Y-36452380D01*
X88885714Y-36452380D01*
X19833333Y-48302380D02*
X19500000Y-47826190D01*
X19261904Y-48302380D02*
X19261904Y-47302380D01*
X19642857Y-47302380D01*
X19738095Y-47350000D01*
X19785714Y-47397619D01*
X19833333Y-47492857D01*
X19833333Y-47635714D01*
X19785714Y-47730952D01*
X19738095Y-47778571D01*
X19642857Y-47826190D01*
X19261904Y-47826190D01*
X20785714Y-48302380D02*
X20214285Y-48302380D01*
X20500000Y-48302380D02*
X20500000Y-47302380D01*
X20404761Y-47445238D01*
X20309523Y-47540476D01*
X20214285Y-47588095D01*
X24166666Y-13152380D02*
X24166666Y-13866666D01*
X24119047Y-14009523D01*
X24023809Y-14104761D01*
X23880952Y-14152380D01*
X23785714Y-14152380D01*
X24547619Y-13152380D02*
X25214285Y-13152380D01*
X24785714Y-14152380D01*
X80166666Y-12952380D02*
X80166666Y-13666666D01*
X80119047Y-13809523D01*
X80023809Y-13904761D01*
X79880952Y-13952380D01*
X79785714Y-13952380D01*
X81071428Y-12952380D02*
X80880952Y-12952380D01*
X80785714Y-13000000D01*
X80738095Y-13047619D01*
X80642857Y-13190476D01*
X80595238Y-13380952D01*
X80595238Y-13761904D01*
X80642857Y-13857142D01*
X80690476Y-13904761D01*
X80785714Y-13952380D01*
X80976190Y-13952380D01*
X81071428Y-13904761D01*
X81119047Y-13857142D01*
X81166666Y-13761904D01*
X81166666Y-13523809D01*
X81119047Y-13428571D01*
X81071428Y-13380952D01*
X80976190Y-13333333D01*
X80785714Y-13333333D01*
X80690476Y-13380952D01*
X80642857Y-13428571D01*
X80595238Y-13523809D01*
X23250000Y-51589285D02*
X23250000Y-52125000D01*
X23214285Y-52232142D01*
X23142857Y-52303571D01*
X23035714Y-52339285D01*
X22964285Y-52339285D01*
X23964285Y-51589285D02*
X23607142Y-51589285D01*
X23571428Y-51946428D01*
X23607142Y-51910714D01*
X23678571Y-51875000D01*
X23857142Y-51875000D01*
X23928571Y-51910714D01*
X23964285Y-51946428D01*
X24000000Y-52017857D01*
X24000000Y-52196428D01*
X23964285Y-52267857D01*
X23928571Y-52303571D01*
X23857142Y-52339285D01*
X23678571Y-52339285D01*
X23607142Y-52303571D01*
X23571428Y-52267857D01*
X87057142Y-19557142D02*
X87009523Y-19604761D01*
X86866666Y-19652380D01*
X86771428Y-19652380D01*
X86628571Y-19604761D01*
X86533333Y-19509523D01*
X86485714Y-19414285D01*
X86438095Y-19223809D01*
X86438095Y-19080952D01*
X86485714Y-18890476D01*
X86533333Y-18795238D01*
X86628571Y-18700000D01*
X86771428Y-18652380D01*
X86866666Y-18652380D01*
X87009523Y-18700000D01*
X87057142Y-18747619D01*
X88009523Y-19652380D02*
X87438095Y-19652380D01*
X87723809Y-19652380D02*
X87723809Y-18652380D01*
X87628571Y-18795238D01*
X87533333Y-18890476D01*
X87438095Y-18938095D01*
X88914285Y-18652380D02*
X88438095Y-18652380D01*
X88390476Y-19128571D01*
X88438095Y-19080952D01*
X88533333Y-19033333D01*
X88771428Y-19033333D01*
X88866666Y-19080952D01*
X88914285Y-19128571D01*
X88961904Y-19223809D01*
X88961904Y-19461904D01*
X88914285Y-19557142D01*
X88866666Y-19604761D01*
X88771428Y-19652380D01*
X88533333Y-19652380D01*
X88438095Y-19604761D01*
X88390476Y-19557142D01*
X32057142Y-19557142D02*
X32009523Y-19604761D01*
X31866666Y-19652380D01*
X31771428Y-19652380D01*
X31628571Y-19604761D01*
X31533333Y-19509523D01*
X31485714Y-19414285D01*
X31438095Y-19223809D01*
X31438095Y-19080952D01*
X31485714Y-18890476D01*
X31533333Y-18795238D01*
X31628571Y-18700000D01*
X31771428Y-18652380D01*
X31866666Y-18652380D01*
X32009523Y-18700000D01*
X32057142Y-18747619D01*
X33009523Y-19652380D02*
X32438095Y-19652380D01*
X32723809Y-19652380D02*
X32723809Y-18652380D01*
X32628571Y-18795238D01*
X32533333Y-18890476D01*
X32438095Y-18938095D01*
X33866666Y-18985714D02*
X33866666Y-19652380D01*
X33628571Y-18604761D02*
X33390476Y-19319047D01*
X34009523Y-19319047D01*
X42857142Y-18457142D02*
X42809523Y-18504761D01*
X42666666Y-18552380D01*
X42571428Y-18552380D01*
X42428571Y-18504761D01*
X42333333Y-18409523D01*
X42285714Y-18314285D01*
X42238095Y-18123809D01*
X42238095Y-17980952D01*
X42285714Y-17790476D01*
X42333333Y-17695238D01*
X42428571Y-17600000D01*
X42571428Y-17552380D01*
X42666666Y-17552380D01*
X42809523Y-17600000D01*
X42857142Y-17647619D01*
X43809523Y-18552380D02*
X43238095Y-18552380D01*
X43523809Y-18552380D02*
X43523809Y-17552380D01*
X43428571Y-17695238D01*
X43333333Y-17790476D01*
X43238095Y-17838095D01*
X44142857Y-17552380D02*
X44761904Y-17552380D01*
X44428571Y-17933333D01*
X44571428Y-17933333D01*
X44666666Y-17980952D01*
X44714285Y-18028571D01*
X44761904Y-18123809D01*
X44761904Y-18361904D01*
X44714285Y-18457142D01*
X44666666Y-18504761D01*
X44571428Y-18552380D01*
X44285714Y-18552380D01*
X44190476Y-18504761D01*
X44142857Y-18457142D01*
X97557142Y-18557142D02*
X97509523Y-18604761D01*
X97366666Y-18652380D01*
X97271428Y-18652380D01*
X97128571Y-18604761D01*
X97033333Y-18509523D01*
X96985714Y-18414285D01*
X96938095Y-18223809D01*
X96938095Y-18080952D01*
X96985714Y-17890476D01*
X97033333Y-17795238D01*
X97128571Y-17700000D01*
X97271428Y-17652380D01*
X97366666Y-17652380D01*
X97509523Y-17700000D01*
X97557142Y-17747619D01*
X98509523Y-18652380D02*
X97938095Y-18652380D01*
X98223809Y-18652380D02*
X98223809Y-17652380D01*
X98128571Y-17795238D01*
X98033333Y-17890476D01*
X97938095Y-17938095D01*
X98890476Y-17747619D02*
X98938095Y-17700000D01*
X99033333Y-17652380D01*
X99271428Y-17652380D01*
X99366666Y-17700000D01*
X99414285Y-17747619D01*
X99461904Y-17842857D01*
X99461904Y-17938095D01*
X99414285Y-18080952D01*
X98842857Y-18652380D01*
X99461904Y-18652380D01*
X30057142Y-37757142D02*
X30009523Y-37804761D01*
X29866666Y-37852380D01*
X29771428Y-37852380D01*
X29628571Y-37804761D01*
X29533333Y-37709523D01*
X29485714Y-37614285D01*
X29438095Y-37423809D01*
X29438095Y-37280952D01*
X29485714Y-37090476D01*
X29533333Y-36995238D01*
X29628571Y-36900000D01*
X29771428Y-36852380D01*
X29866666Y-36852380D01*
X30009523Y-36900000D01*
X30057142Y-36947619D01*
X31009523Y-37852380D02*
X30438095Y-37852380D01*
X30723809Y-37852380D02*
X30723809Y-36852380D01*
X30628571Y-36995238D01*
X30533333Y-37090476D01*
X30438095Y-37138095D01*
X31628571Y-36852380D02*
X31723809Y-36852380D01*
X31819047Y-36900000D01*
X31866666Y-36947619D01*
X31914285Y-37042857D01*
X31961904Y-37233333D01*
X31961904Y-37471428D01*
X31914285Y-37661904D01*
X31866666Y-37757142D01*
X31819047Y-37804761D01*
X31723809Y-37852380D01*
X31628571Y-37852380D01*
X31533333Y-37804761D01*
X31485714Y-37757142D01*
X31438095Y-37661904D01*
X31390476Y-37471428D01*
X31390476Y-37233333D01*
X31438095Y-37042857D01*
X31485714Y-36947619D01*
X31533333Y-36900000D01*
X31628571Y-36852380D01*
X82357142Y-38666666D02*
X82404761Y-38714285D01*
X82452380Y-38857142D01*
X82452380Y-38952380D01*
X82404761Y-39095238D01*
X82309523Y-39190476D01*
X82214285Y-39238095D01*
X82023809Y-39285714D01*
X81880952Y-39285714D01*
X81690476Y-39238095D01*
X81595238Y-39190476D01*
X81500000Y-39095238D01*
X81452380Y-38952380D01*
X81452380Y-38857142D01*
X81500000Y-38714285D01*
X81547619Y-38666666D01*
X82452380Y-38190476D02*
X82452380Y-38000000D01*
X82404761Y-37904761D01*
X82357142Y-37857142D01*
X82214285Y-37761904D01*
X82023809Y-37714285D01*
X81642857Y-37714285D01*
X81547619Y-37761904D01*
X81500000Y-37809523D01*
X81452380Y-37904761D01*
X81452380Y-38095238D01*
X81500000Y-38190476D01*
X81547619Y-38238095D01*
X81642857Y-38285714D01*
X81880952Y-38285714D01*
X81976190Y-38238095D01*
X82023809Y-38190476D01*
X82071428Y-38095238D01*
X82071428Y-37904761D01*
X82023809Y-37809523D01*
X81976190Y-37761904D01*
X81880952Y-37714285D01*
X18633333Y-21457142D02*
X18585714Y-21504761D01*
X18442857Y-21552380D01*
X18347619Y-21552380D01*
X18204761Y-21504761D01*
X18109523Y-21409523D01*
X18061904Y-21314285D01*
X18014285Y-21123809D01*
X18014285Y-20980952D01*
X18061904Y-20790476D01*
X18109523Y-20695238D01*
X18204761Y-20600000D01*
X18347619Y-20552380D01*
X18442857Y-20552380D01*
X18585714Y-20600000D01*
X18633333Y-20647619D01*
X19204761Y-20980952D02*
X19109523Y-20933333D01*
X19061904Y-20885714D01*
X19014285Y-20790476D01*
X19014285Y-20742857D01*
X19061904Y-20647619D01*
X19109523Y-20600000D01*
X19204761Y-20552380D01*
X19395238Y-20552380D01*
X19490476Y-20600000D01*
X19538095Y-20647619D01*
X19585714Y-20742857D01*
X19585714Y-20790476D01*
X19538095Y-20885714D01*
X19490476Y-20933333D01*
X19395238Y-20980952D01*
X19204761Y-20980952D01*
X19109523Y-21028571D01*
X19061904Y-21076190D01*
X19014285Y-21171428D01*
X19014285Y-21361904D01*
X19061904Y-21457142D01*
X19109523Y-21504761D01*
X19204761Y-21552380D01*
X19395238Y-21552380D01*
X19490476Y-21504761D01*
X19538095Y-21457142D01*
X19585714Y-21361904D01*
X19585714Y-21171428D01*
X19538095Y-21076190D01*
X19490476Y-21028571D01*
X19395238Y-20980952D01*
X76333333Y-19857142D02*
X76285714Y-19904761D01*
X76142857Y-19952380D01*
X76047619Y-19952380D01*
X75904761Y-19904761D01*
X75809523Y-19809523D01*
X75761904Y-19714285D01*
X75714285Y-19523809D01*
X75714285Y-19380952D01*
X75761904Y-19190476D01*
X75809523Y-19095238D01*
X75904761Y-19000000D01*
X76047619Y-18952380D01*
X76142857Y-18952380D01*
X76285714Y-19000000D01*
X76333333Y-19047619D01*
X76666666Y-18952380D02*
X77333333Y-18952380D01*
X76904761Y-19952380D01*
X43133333Y-37757142D02*
X43085714Y-37804761D01*
X42942857Y-37852380D01*
X42847619Y-37852380D01*
X42704761Y-37804761D01*
X42609523Y-37709523D01*
X42561904Y-37614285D01*
X42514285Y-37423809D01*
X42514285Y-37280952D01*
X42561904Y-37090476D01*
X42609523Y-36995238D01*
X42704761Y-36900000D01*
X42847619Y-36852380D01*
X42942857Y-36852380D01*
X43085714Y-36900000D01*
X43133333Y-36947619D01*
X43990476Y-36852380D02*
X43800000Y-36852380D01*
X43704761Y-36900000D01*
X43657142Y-36947619D01*
X43561904Y-37090476D01*
X43514285Y-37280952D01*
X43514285Y-37661904D01*
X43561904Y-37757142D01*
X43609523Y-37804761D01*
X43704761Y-37852380D01*
X43895238Y-37852380D01*
X43990476Y-37804761D01*
X44038095Y-37757142D01*
X44085714Y-37661904D01*
X44085714Y-37423809D01*
X44038095Y-37328571D01*
X43990476Y-37280952D01*
X43895238Y-37233333D01*
X43704761Y-37233333D01*
X43609523Y-37280952D01*
X43561904Y-37328571D01*
X43514285Y-37423809D01*
X97533333Y-37557142D02*
X97485714Y-37604761D01*
X97342857Y-37652380D01*
X97247619Y-37652380D01*
X97104761Y-37604761D01*
X97009523Y-37509523D01*
X96961904Y-37414285D01*
X96914285Y-37223809D01*
X96914285Y-37080952D01*
X96961904Y-36890476D01*
X97009523Y-36795238D01*
X97104761Y-36700000D01*
X97247619Y-36652380D01*
X97342857Y-36652380D01*
X97485714Y-36700000D01*
X97533333Y-36747619D01*
X98438095Y-36652380D02*
X97961904Y-36652380D01*
X97914285Y-37128571D01*
X97961904Y-37080952D01*
X98057142Y-37033333D01*
X98295238Y-37033333D01*
X98390476Y-37080952D01*
X98438095Y-37128571D01*
X98485714Y-37223809D01*
X98485714Y-37461904D01*
X98438095Y-37557142D01*
X98390476Y-37604761D01*
X98295238Y-37652380D01*
X98057142Y-37652380D01*
X97961904Y-37604761D01*
X97914285Y-37557142D01*
X33233333Y-22957142D02*
X33185714Y-23004761D01*
X33042857Y-23052380D01*
X32947619Y-23052380D01*
X32804761Y-23004761D01*
X32709523Y-22909523D01*
X32661904Y-22814285D01*
X32614285Y-22623809D01*
X32614285Y-22480952D01*
X32661904Y-22290476D01*
X32709523Y-22195238D01*
X32804761Y-22100000D01*
X32947619Y-22052380D01*
X33042857Y-22052380D01*
X33185714Y-22100000D01*
X33233333Y-22147619D01*
X34090476Y-22385714D02*
X34090476Y-23052380D01*
X33852380Y-22004761D02*
X33614285Y-22719047D01*
X34233333Y-22719047D01*
X87833333Y-22957142D02*
X87785714Y-23004761D01*
X87642857Y-23052380D01*
X87547619Y-23052380D01*
X87404761Y-23004761D01*
X87309523Y-22909523D01*
X87261904Y-22814285D01*
X87214285Y-22623809D01*
X87214285Y-22480952D01*
X87261904Y-22290476D01*
X87309523Y-22195238D01*
X87404761Y-22100000D01*
X87547619Y-22052380D01*
X87642857Y-22052380D01*
X87785714Y-22100000D01*
X87833333Y-22147619D01*
X88166666Y-22052380D02*
X88785714Y-22052380D01*
X88452380Y-22433333D01*
X88595238Y-22433333D01*
X88690476Y-22480952D01*
X88738095Y-22528571D01*
X88785714Y-22623809D01*
X88785714Y-22861904D01*
X88738095Y-22957142D01*
X88690476Y-23004761D01*
X88595238Y-23052380D01*
X88309523Y-23052380D01*
X88214285Y-23004761D01*
X88166666Y-22957142D01*
X47333333Y-45857142D02*
X47285714Y-45904761D01*
X47142857Y-45952380D01*
X47047619Y-45952380D01*
X46904761Y-45904761D01*
X46809523Y-45809523D01*
X46761904Y-45714285D01*
X46714285Y-45523809D01*
X46714285Y-45380952D01*
X46761904Y-45190476D01*
X46809523Y-45095238D01*
X46904761Y-45000000D01*
X47047619Y-44952380D01*
X47142857Y-44952380D01*
X47285714Y-45000000D01*
X47333333Y-45047619D01*
X47714285Y-45047619D02*
X47761904Y-45000000D01*
X47857142Y-44952380D01*
X48095238Y-44952380D01*
X48190476Y-45000000D01*
X48238095Y-45047619D01*
X48285714Y-45142857D01*
X48285714Y-45238095D01*
X48238095Y-45380952D01*
X47666666Y-45952380D01*
X48285714Y-45952380D01*
X71183333Y-49857142D02*
X71135714Y-49904761D01*
X70992857Y-49952380D01*
X70897619Y-49952380D01*
X70754761Y-49904761D01*
X70659523Y-49809523D01*
X70611904Y-49714285D01*
X70564285Y-49523809D01*
X70564285Y-49380952D01*
X70611904Y-49190476D01*
X70659523Y-49095238D01*
X70754761Y-49000000D01*
X70897619Y-48952380D01*
X70992857Y-48952380D01*
X71135714Y-49000000D01*
X71183333Y-49047619D01*
X72135714Y-49952380D02*
X71564285Y-49952380D01*
X71850000Y-49952380D02*
X71850000Y-48952380D01*
X71754761Y-49095238D01*
X71659523Y-49190476D01*
X71564285Y-49238095D01*
X61116666Y-18152380D02*
X61116666Y-18866666D01*
X61069047Y-19009523D01*
X60973809Y-19104761D01*
X60830952Y-19152380D01*
X60735714Y-19152380D01*
X62116666Y-19152380D02*
X61545238Y-19152380D01*
X61830952Y-19152380D02*
X61830952Y-18152380D01*
X61735714Y-18295238D01*
X61640476Y-18390476D01*
X61545238Y-18438095D01*
X40889904Y-52452380D02*
X40889904Y-51452380D01*
X41270857Y-51452380D01*
X41366095Y-51500000D01*
X41413714Y-51547619D01*
X41461333Y-51642857D01*
X41461333Y-51785714D01*
X41413714Y-51880952D01*
X41366095Y-51928571D01*
X41270857Y-51976190D01*
X40889904Y-51976190D01*
X42413714Y-52452380D02*
X41842285Y-52452380D01*
X42128000Y-52452380D02*
X42128000Y-51452380D01*
X42032761Y-51595238D01*
X41937523Y-51690476D01*
X41842285Y-51738095D01*
X89300000Y-54303571D02*
X89407142Y-54339285D01*
X89585714Y-54339285D01*
X89657142Y-54303571D01*
X89692857Y-54267857D01*
X89728571Y-54196428D01*
X89728571Y-54125000D01*
X89692857Y-54053571D01*
X89657142Y-54017857D01*
X89585714Y-53982142D01*
X89442857Y-53946428D01*
X89371428Y-53910714D01*
X89335714Y-53875000D01*
X89300000Y-53803571D01*
X89300000Y-53732142D01*
X89335714Y-53660714D01*
X89371428Y-53625000D01*
X89442857Y-53589285D01*
X89621428Y-53589285D01*
X89728571Y-53625000D01*
X89978571Y-53589285D02*
X90157142Y-54339285D01*
X90300000Y-53803571D01*
X90442857Y-54339285D01*
X90621428Y-53589285D01*
X91300000Y-54339285D02*
X90871428Y-54339285D01*
X91085714Y-54339285D02*
X91085714Y-53589285D01*
X91014285Y-53696428D01*
X90942857Y-53767857D01*
X90871428Y-53803571D01*
X50100000Y-51803571D02*
X50207142Y-51839285D01*
X50385714Y-51839285D01*
X50457142Y-51803571D01*
X50492857Y-51767857D01*
X50528571Y-51696428D01*
X50528571Y-51625000D01*
X50492857Y-51553571D01*
X50457142Y-51517857D01*
X50385714Y-51482142D01*
X50242857Y-51446428D01*
X50171428Y-51410714D01*
X50135714Y-51375000D01*
X50100000Y-51303571D01*
X50100000Y-51232142D01*
X50135714Y-51160714D01*
X50171428Y-51125000D01*
X50242857Y-51089285D01*
X50421428Y-51089285D01*
X50528571Y-51125000D01*
X50778571Y-51089285D02*
X50957142Y-51839285D01*
X51100000Y-51303571D01*
X51242857Y-51839285D01*
X51421428Y-51089285D01*
X51671428Y-51160714D02*
X51707142Y-51125000D01*
X51778571Y-51089285D01*
X51957142Y-51089285D01*
X52028571Y-51125000D01*
X52064285Y-51160714D01*
X52100000Y-51232142D01*
X52100000Y-51303571D01*
X52064285Y-51410714D01*
X51635714Y-51839285D01*
X52100000Y-51839285D01*
X61116666Y-37752380D02*
X61116666Y-38466666D01*
X61069047Y-38609523D01*
X60973809Y-38704761D01*
X60830952Y-38752380D01*
X60735714Y-38752380D01*
X61545238Y-37847619D02*
X61592857Y-37800000D01*
X61688095Y-37752380D01*
X61926190Y-37752380D01*
X62021428Y-37800000D01*
X62069047Y-37847619D01*
X62116666Y-37942857D01*
X62116666Y-38038095D01*
X62069047Y-38180952D01*
X61497619Y-38752380D01*
X62116666Y-38752380D01*
X14666666Y-13502380D02*
X14666666Y-14216666D01*
X14619047Y-14359523D01*
X14523809Y-14454761D01*
X14380952Y-14502380D01*
X14285714Y-14502380D01*
X15047619Y-13502380D02*
X15666666Y-13502380D01*
X15333333Y-13883333D01*
X15476190Y-13883333D01*
X15571428Y-13930952D01*
X15619047Y-13978571D01*
X15666666Y-14073809D01*
X15666666Y-14311904D01*
X15619047Y-14407142D01*
X15571428Y-14454761D01*
X15476190Y-14502380D01*
X15190476Y-14502380D01*
X15095238Y-14454761D01*
X15047619Y-14407142D01*
X14666666Y-36352380D02*
X14666666Y-37066666D01*
X14619047Y-37209523D01*
X14523809Y-37304761D01*
X14380952Y-37352380D01*
X14285714Y-37352380D01*
X15571428Y-36685714D02*
X15571428Y-37352380D01*
X15333333Y-36304761D02*
X15095238Y-37019047D01*
X15714285Y-37019047D01*
X62926666Y-53712380D02*
X62926666Y-54426666D01*
X62879047Y-54569523D01*
X62783809Y-54664761D01*
X62640952Y-54712380D01*
X62545714Y-54712380D01*
X63545714Y-54140952D02*
X63450476Y-54093333D01*
X63402857Y-54045714D01*
X63355238Y-53950476D01*
X63355238Y-53902857D01*
X63402857Y-53807619D01*
X63450476Y-53760000D01*
X63545714Y-53712380D01*
X63736190Y-53712380D01*
X63831428Y-53760000D01*
X63879047Y-53807619D01*
X63926666Y-53902857D01*
X63926666Y-53950476D01*
X63879047Y-54045714D01*
X63831428Y-54093333D01*
X63736190Y-54140952D01*
X63545714Y-54140952D01*
X63450476Y-54188571D01*
X63402857Y-54236190D01*
X63355238Y-54331428D01*
X63355238Y-54521904D01*
X63402857Y-54617142D01*
X63450476Y-54664761D01*
X63545714Y-54712380D01*
X63736190Y-54712380D01*
X63831428Y-54664761D01*
X63879047Y-54617142D01*
X63926666Y-54521904D01*
X63926666Y-54331428D01*
X63879047Y-54236190D01*
X63831428Y-54188571D01*
X63736190Y-54140952D01*
M02*
