M48
; DRILL file {KiCad (5.1.4)-1} date 11/19/19 12:21:53
; FORMAT={-:-/ absolute / inch / decimal}
; #@! TF.CreationDate,2019-11-19T12:21:53+05:30
; #@! TF.GenerationSoftware,Kicad,Pcbnew,(5.1.4)-1
; #@! TF.FileFunction,Plated,1,2,PTH
FMAT,2
INCH
T1C0.0157
T2C0.0276
T3C0.0354
T4C0.0394
T5C0.0433
T6C0.0453
T7C0.0472
%
G90
G05
T1
X0.9646Y-1.0079
X1.3228Y-1.3465
X1.5177Y-1.2638
X1.5276Y-1.5472
X1.6063Y-1.2283
X1.7323Y-1.4646
X1.7835Y-1.248
X1.8071Y-1.4646
X1.8189Y-1.2913
X1.8287Y-1.1378
X1.8661Y-0.9049
X1.9252Y-1.1457
X1.9257Y-1.5527
X1.9646Y-0.7697
X1.9882Y-0.5039
X1.9882Y-1.2657
X2.0866Y-0.8563
X2.0866Y-0.8858
X2.1004Y-1.2835
X2.126Y-0.8563
X2.2047Y-0.9843
X2.2047Y-1.1811
X2.2205Y-0.5079
X2.2835Y-1.0827
X2.3622Y-0.9843
X2.3622Y-1.1811
X2.4213Y-1.0827
X2.4803Y-0.9803
X2.5492Y-0.7913
X2.5492Y-0.8268
X2.5492Y-0.9646
X2.5492Y-0.9961
X2.5787Y-0.7913
X2.5787Y-0.8268
X2.5787Y-0.9646
X2.5787Y-0.9961
X2.5906Y-1.3583
T2
X1.6261Y-1.6242
X1.6261Y-1.7656
X1.7676Y-1.6242
T3
X1.8346Y-0.4906
X1.8346Y-0.5906
X1.5591Y-0.4906
X1.5591Y-0.5906
T4
X2.4157Y-1.4339
X2.4157Y-1.5339
X2.4157Y-1.6339
X2.5157Y-1.4339
X2.5157Y-1.5339
X2.5157Y-1.6339
X0.8268Y-1.4173
X0.8268Y-1.5157
T5
X2.0866Y-1.5669
X2.0866Y-1.8228
X2.2638Y-1.5669
X2.2638Y-1.8228
T6
X0.4803Y-1.1024
X0.7165Y-1.1024
T2
G00X0.4606Y-0.9547
M15
G01X0.4921Y-0.9547
M16
G05
G00X0.4606Y-1.25
M15
G01X0.4921Y-1.25
M16
G05
T4
G00X0.9173Y-1.6614
M15
G01X0.9173Y-1.7244
M16
G05
G00X1.1024Y-1.6614
M15
G01X1.1024Y-1.7244
M16
G05
G00X1.2874Y-1.6614
M15
G01X1.2874Y-1.7244
M16
G05
T7
G00X1.2087Y-0.6417
M15
G01X1.311Y-0.6417
M16
G05
G00X1.2087Y-1.4685
M15
G01X1.311Y-1.4685
M16
G05
T0
M30
