G04 #@! TF.GenerationSoftware,KiCad,Pcbnew,5.1.4-e60b266~84~ubuntu18.04.1*
G04 #@! TF.CreationDate,2019-11-14T22:40:41+05:30*
G04 #@! TF.ProjectId,SensePi_rev5_main,53656e73-6550-4695-9f72-6576355f6d61,rev?*
G04 #@! TF.SameCoordinates,Original*
G04 #@! TF.FileFunction,Soldermask,Bot*
G04 #@! TF.FilePolarity,Negative*
%FSLAX46Y46*%
G04 Gerber Fmt 4.6, Leading zero omitted, Abs format (unit mm)*
G04 Created by KiCad (PCBNEW 5.1.4-e60b266~84~ubuntu18.04.1) date 2019-11-14 22:40:41*
%MOMM*%
%LPD*%
G04 APERTURE LIST*
%ADD10C,0.100000*%
G04 APERTURE END LIST*
D10*
G36*
X63793972Y-45630027D02*
G01*
X63908657Y-45652839D01*
X64014267Y-45696585D01*
X64163621Y-45758449D01*
X64163622Y-45758450D01*
X64393086Y-45911772D01*
X64588228Y-46106914D01*
X64690675Y-46260237D01*
X64741551Y-46336379D01*
X64769359Y-46403514D01*
X64847161Y-46591343D01*
X64901000Y-46862014D01*
X64901000Y-47137986D01*
X64858630Y-47351000D01*
X64847161Y-47408656D01*
X64741551Y-47663621D01*
X64741550Y-47663622D01*
X64588228Y-47893086D01*
X64393086Y-48088228D01*
X64239763Y-48190675D01*
X64163621Y-48241551D01*
X64014267Y-48303415D01*
X63908657Y-48347161D01*
X63818433Y-48365107D01*
X63637988Y-48401000D01*
X63362012Y-48401000D01*
X63181567Y-48365107D01*
X63091343Y-48347161D01*
X62985733Y-48303415D01*
X62836379Y-48241551D01*
X62760237Y-48190675D01*
X62606914Y-48088228D01*
X62411772Y-47893086D01*
X62258450Y-47663622D01*
X62258449Y-47663621D01*
X62152839Y-47408656D01*
X62141371Y-47351000D01*
X62099000Y-47137986D01*
X62099000Y-46862014D01*
X62152839Y-46591343D01*
X62230641Y-46403514D01*
X62258449Y-46336379D01*
X62309325Y-46260237D01*
X62411772Y-46106914D01*
X62606914Y-45911772D01*
X62836378Y-45758450D01*
X62836379Y-45758449D01*
X62985733Y-45696585D01*
X63091343Y-45652839D01*
X63206028Y-45630027D01*
X63362012Y-45599000D01*
X63637988Y-45599000D01*
X63793972Y-45630027D01*
X63793972Y-45630027D01*
G37*
G36*
X13293972Y-45630027D02*
G01*
X13408657Y-45652839D01*
X13514267Y-45696585D01*
X13663621Y-45758449D01*
X13663622Y-45758450D01*
X13893086Y-45911772D01*
X14088228Y-46106914D01*
X14190675Y-46260237D01*
X14241551Y-46336379D01*
X14269359Y-46403514D01*
X14347161Y-46591343D01*
X14401000Y-46862014D01*
X14401000Y-47137986D01*
X14358630Y-47351000D01*
X14347161Y-47408656D01*
X14241551Y-47663621D01*
X14241550Y-47663622D01*
X14088228Y-47893086D01*
X13893086Y-48088228D01*
X13739763Y-48190675D01*
X13663621Y-48241551D01*
X13514267Y-48303415D01*
X13408657Y-48347161D01*
X13318433Y-48365107D01*
X13137988Y-48401000D01*
X12862012Y-48401000D01*
X12681567Y-48365107D01*
X12591343Y-48347161D01*
X12485733Y-48303415D01*
X12336379Y-48241551D01*
X12260237Y-48190675D01*
X12106914Y-48088228D01*
X11911772Y-47893086D01*
X11758450Y-47663622D01*
X11758449Y-47663621D01*
X11652839Y-47408656D01*
X11641371Y-47351000D01*
X11599000Y-47137986D01*
X11599000Y-46862014D01*
X11652839Y-46591343D01*
X11730641Y-46403514D01*
X11758449Y-46336379D01*
X11809325Y-46260237D01*
X11911772Y-46106914D01*
X12106914Y-45911772D01*
X12336378Y-45758450D01*
X12336379Y-45758449D01*
X12485733Y-45696585D01*
X12591343Y-45652839D01*
X12706028Y-45630027D01*
X12862012Y-45599000D01*
X13137988Y-45599000D01*
X13293972Y-45630027D01*
X13293972Y-45630027D01*
G37*
G36*
X57806564Y-45289389D02*
G01*
X57997833Y-45368615D01*
X57997835Y-45368616D01*
X58169973Y-45483635D01*
X58316365Y-45630027D01*
X58402175Y-45758450D01*
X58431385Y-45802167D01*
X58510611Y-45993436D01*
X58551000Y-46196484D01*
X58551000Y-46403516D01*
X58510611Y-46606564D01*
X58431385Y-46797833D01*
X58431384Y-46797835D01*
X58316365Y-46969973D01*
X58169973Y-47116365D01*
X57997835Y-47231384D01*
X57997834Y-47231385D01*
X57997833Y-47231385D01*
X57806564Y-47310611D01*
X57603516Y-47351000D01*
X57396484Y-47351000D01*
X57193436Y-47310611D01*
X57002167Y-47231385D01*
X57002166Y-47231385D01*
X57002165Y-47231384D01*
X56830027Y-47116365D01*
X56683635Y-46969973D01*
X56568616Y-46797835D01*
X56568615Y-46797833D01*
X56489389Y-46606564D01*
X56449000Y-46403516D01*
X56449000Y-46196484D01*
X56489389Y-45993436D01*
X56568615Y-45802167D01*
X56597826Y-45758450D01*
X56683635Y-45630027D01*
X56830027Y-45483635D01*
X57002165Y-45368616D01*
X57002167Y-45368615D01*
X57193436Y-45289389D01*
X57396484Y-45249000D01*
X57603516Y-45249000D01*
X57806564Y-45289389D01*
X57806564Y-45289389D01*
G37*
G36*
X53306564Y-45289389D02*
G01*
X53497833Y-45368615D01*
X53497835Y-45368616D01*
X53669973Y-45483635D01*
X53816365Y-45630027D01*
X53902175Y-45758450D01*
X53931385Y-45802167D01*
X54010611Y-45993436D01*
X54051000Y-46196484D01*
X54051000Y-46403516D01*
X54010611Y-46606564D01*
X53931385Y-46797833D01*
X53931384Y-46797835D01*
X53816365Y-46969973D01*
X53669973Y-47116365D01*
X53497835Y-47231384D01*
X53497834Y-47231385D01*
X53497833Y-47231385D01*
X53306564Y-47310611D01*
X53103516Y-47351000D01*
X52896484Y-47351000D01*
X52693436Y-47310611D01*
X52502167Y-47231385D01*
X52502166Y-47231385D01*
X52502165Y-47231384D01*
X52330027Y-47116365D01*
X52183635Y-46969973D01*
X52068616Y-46797835D01*
X52068615Y-46797833D01*
X51989389Y-46606564D01*
X51949000Y-46403516D01*
X51949000Y-46196484D01*
X51989389Y-45993436D01*
X52068615Y-45802167D01*
X52097826Y-45758450D01*
X52183635Y-45630027D01*
X52330027Y-45483635D01*
X52502165Y-45368616D01*
X52502167Y-45368615D01*
X52693436Y-45289389D01*
X52896484Y-45249000D01*
X53103516Y-45249000D01*
X53306564Y-45289389D01*
X53306564Y-45289389D01*
G37*
G36*
X41508473Y-44171938D02*
G01*
X41636049Y-44224782D01*
X41750859Y-44301495D01*
X41848505Y-44399141D01*
X41925218Y-44513951D01*
X41978062Y-44641527D01*
X42005000Y-44776956D01*
X42005000Y-44915044D01*
X41978062Y-45050473D01*
X41925218Y-45178049D01*
X41848505Y-45292859D01*
X41750859Y-45390505D01*
X41636049Y-45467218D01*
X41508473Y-45520062D01*
X41373044Y-45547000D01*
X41234956Y-45547000D01*
X41099527Y-45520062D01*
X40971951Y-45467218D01*
X40857141Y-45390505D01*
X40759495Y-45292859D01*
X40682782Y-45178049D01*
X40629938Y-45050473D01*
X40603000Y-44915044D01*
X40603000Y-44776956D01*
X40629938Y-44641527D01*
X40682782Y-44513951D01*
X40759495Y-44399141D01*
X40857141Y-44301495D01*
X40971951Y-44224782D01*
X41099527Y-44171938D01*
X41234956Y-44145000D01*
X41373044Y-44145000D01*
X41508473Y-44171938D01*
X41508473Y-44171938D01*
G37*
G36*
X32886424Y-41562760D02*
G01*
X32886427Y-41562761D01*
X32886428Y-41562761D01*
X33065692Y-41617140D01*
X33065695Y-41617142D01*
X33065696Y-41617142D01*
X33230903Y-41705446D01*
X33375712Y-41824288D01*
X33494554Y-41969097D01*
X33582858Y-42134303D01*
X33582860Y-42134307D01*
X33618798Y-42252779D01*
X33637240Y-42313575D01*
X33651000Y-42453282D01*
X33651000Y-43546718D01*
X33637240Y-43686425D01*
X33637239Y-43686428D01*
X33637239Y-43686429D01*
X33582860Y-43865693D01*
X33582858Y-43865696D01*
X33582858Y-43865697D01*
X33494554Y-44030903D01*
X33375712Y-44175712D01*
X33230903Y-44294554D01*
X33065697Y-44382858D01*
X33065693Y-44382860D01*
X32886429Y-44437239D01*
X32886428Y-44437239D01*
X32886425Y-44437240D01*
X32700000Y-44455601D01*
X32513576Y-44437240D01*
X32513573Y-44437239D01*
X32513572Y-44437239D01*
X32334308Y-44382860D01*
X32334304Y-44382858D01*
X32169098Y-44294554D01*
X32024289Y-44175712D01*
X31905447Y-44030903D01*
X31817140Y-43865692D01*
X31762760Y-43686430D01*
X31749000Y-43546718D01*
X31749000Y-42453283D01*
X31762760Y-42313576D01*
X31762761Y-42313572D01*
X31817140Y-42134308D01*
X31817143Y-42134303D01*
X31905446Y-41969097D01*
X32024288Y-41824288D01*
X32169097Y-41705446D01*
X32334303Y-41617142D01*
X32334304Y-41617142D01*
X32334307Y-41617140D01*
X32513571Y-41562761D01*
X32513572Y-41562761D01*
X32513575Y-41562760D01*
X32700000Y-41544399D01*
X32886424Y-41562760D01*
X32886424Y-41562760D01*
G37*
G36*
X23486424Y-41562760D02*
G01*
X23486427Y-41562761D01*
X23486428Y-41562761D01*
X23665692Y-41617140D01*
X23665695Y-41617142D01*
X23665696Y-41617142D01*
X23830903Y-41705446D01*
X23975712Y-41824288D01*
X24094554Y-41969097D01*
X24182858Y-42134303D01*
X24182860Y-42134307D01*
X24218798Y-42252779D01*
X24237240Y-42313575D01*
X24251000Y-42453282D01*
X24251000Y-43546718D01*
X24237240Y-43686425D01*
X24237239Y-43686428D01*
X24237239Y-43686429D01*
X24182860Y-43865693D01*
X24182858Y-43865696D01*
X24182858Y-43865697D01*
X24094554Y-44030903D01*
X23975712Y-44175712D01*
X23830903Y-44294554D01*
X23665697Y-44382858D01*
X23665693Y-44382860D01*
X23486429Y-44437239D01*
X23486428Y-44437239D01*
X23486425Y-44437240D01*
X23300000Y-44455601D01*
X23113576Y-44437240D01*
X23113573Y-44437239D01*
X23113572Y-44437239D01*
X22934308Y-44382860D01*
X22934304Y-44382858D01*
X22769098Y-44294554D01*
X22624289Y-44175712D01*
X22505447Y-44030903D01*
X22417140Y-43865692D01*
X22362760Y-43686430D01*
X22349000Y-43546718D01*
X22349000Y-42453283D01*
X22362760Y-42313576D01*
X22362761Y-42313572D01*
X22417140Y-42134308D01*
X22417143Y-42134303D01*
X22505446Y-41969097D01*
X22624288Y-41824288D01*
X22769097Y-41705446D01*
X22934303Y-41617142D01*
X22934304Y-41617142D01*
X22934307Y-41617140D01*
X23113571Y-41562761D01*
X23113572Y-41562761D01*
X23113575Y-41562760D01*
X23300000Y-41544399D01*
X23486424Y-41562760D01*
X23486424Y-41562760D01*
G37*
G36*
X28186424Y-41562760D02*
G01*
X28186427Y-41562761D01*
X28186428Y-41562761D01*
X28365692Y-41617140D01*
X28365695Y-41617142D01*
X28365696Y-41617142D01*
X28530903Y-41705446D01*
X28675712Y-41824288D01*
X28794554Y-41969097D01*
X28882858Y-42134303D01*
X28882860Y-42134307D01*
X28918798Y-42252779D01*
X28937240Y-42313575D01*
X28951000Y-42453282D01*
X28951000Y-43546718D01*
X28937240Y-43686425D01*
X28937239Y-43686428D01*
X28937239Y-43686429D01*
X28882860Y-43865693D01*
X28882858Y-43865696D01*
X28882858Y-43865697D01*
X28794554Y-44030903D01*
X28675712Y-44175712D01*
X28530903Y-44294554D01*
X28365697Y-44382858D01*
X28365693Y-44382860D01*
X28186429Y-44437239D01*
X28186428Y-44437239D01*
X28186425Y-44437240D01*
X28000000Y-44455601D01*
X27813576Y-44437240D01*
X27813573Y-44437239D01*
X27813572Y-44437239D01*
X27634308Y-44382860D01*
X27634304Y-44382858D01*
X27469098Y-44294554D01*
X27324289Y-44175712D01*
X27205447Y-44030903D01*
X27117140Y-43865692D01*
X27062760Y-43686430D01*
X27049000Y-43546718D01*
X27049000Y-42453283D01*
X27062760Y-42313576D01*
X27062761Y-42313572D01*
X27117140Y-42134308D01*
X27117143Y-42134303D01*
X27205446Y-41969097D01*
X27324288Y-41824288D01*
X27469097Y-41705446D01*
X27634303Y-41617142D01*
X27634304Y-41617142D01*
X27634307Y-41617140D01*
X27813571Y-41562761D01*
X27813572Y-41562761D01*
X27813575Y-41562760D01*
X28000000Y-41544399D01*
X28186424Y-41562760D01*
X28186424Y-41562760D01*
G37*
G36*
X64801000Y-42401000D02*
G01*
X62999000Y-42401000D01*
X62999000Y-40599000D01*
X64801000Y-40599000D01*
X64801000Y-42401000D01*
X64801000Y-42401000D01*
G37*
G36*
X61470443Y-40605519D02*
G01*
X61536627Y-40612037D01*
X61706466Y-40663557D01*
X61862991Y-40747222D01*
X61898729Y-40776552D01*
X62000186Y-40859814D01*
X62083448Y-40961271D01*
X62112778Y-40997009D01*
X62196443Y-41153534D01*
X62247963Y-41323373D01*
X62265359Y-41500000D01*
X62247963Y-41676627D01*
X62196443Y-41846466D01*
X62112778Y-42002991D01*
X62083448Y-42038729D01*
X62000186Y-42140186D01*
X61898729Y-42223448D01*
X61862991Y-42252778D01*
X61706466Y-42336443D01*
X61536627Y-42387963D01*
X61470443Y-42394481D01*
X61404260Y-42401000D01*
X61315740Y-42401000D01*
X61249557Y-42394481D01*
X61183373Y-42387963D01*
X61013534Y-42336443D01*
X60857009Y-42252778D01*
X60821271Y-42223448D01*
X60719814Y-42140186D01*
X60636552Y-42038729D01*
X60607222Y-42002991D01*
X60523557Y-41846466D01*
X60472037Y-41676627D01*
X60454641Y-41500000D01*
X60472037Y-41323373D01*
X60523557Y-41153534D01*
X60607222Y-40997009D01*
X60636552Y-40961271D01*
X60719814Y-40859814D01*
X60821271Y-40776552D01*
X60857009Y-40747222D01*
X61013534Y-40663557D01*
X61183373Y-40612037D01*
X61249557Y-40605519D01*
X61315740Y-40599000D01*
X61404260Y-40599000D01*
X61470443Y-40605519D01*
X61470443Y-40605519D01*
G37*
G36*
X41508473Y-40579938D02*
G01*
X41636049Y-40632782D01*
X41750859Y-40709495D01*
X41848505Y-40807141D01*
X41925218Y-40921951D01*
X41978062Y-41049527D01*
X42005000Y-41184956D01*
X42005000Y-41323044D01*
X41978062Y-41458473D01*
X41925218Y-41586049D01*
X41848505Y-41700859D01*
X41750859Y-41798505D01*
X41636049Y-41875218D01*
X41508473Y-41928062D01*
X41373044Y-41955000D01*
X41234956Y-41955000D01*
X41099527Y-41928062D01*
X40971951Y-41875218D01*
X40857141Y-41798505D01*
X40759495Y-41700859D01*
X40682782Y-41586049D01*
X40629938Y-41458473D01*
X40603000Y-41323044D01*
X40603000Y-41184956D01*
X40629938Y-41049527D01*
X40682782Y-40921951D01*
X40759495Y-40807141D01*
X40857141Y-40709495D01*
X40971951Y-40632782D01*
X41099527Y-40579938D01*
X41234956Y-40553000D01*
X41373044Y-40553000D01*
X41508473Y-40579938D01*
X41508473Y-40579938D01*
G37*
G36*
X45100473Y-40579938D02*
G01*
X45228049Y-40632782D01*
X45342859Y-40709495D01*
X45440505Y-40807141D01*
X45517218Y-40921951D01*
X45570062Y-41049527D01*
X45597000Y-41184956D01*
X45597000Y-41323044D01*
X45570062Y-41458473D01*
X45517218Y-41586049D01*
X45440505Y-41700859D01*
X45342859Y-41798505D01*
X45228049Y-41875218D01*
X45100473Y-41928062D01*
X44965044Y-41955000D01*
X44826956Y-41955000D01*
X44691527Y-41928062D01*
X44563951Y-41875218D01*
X44449141Y-41798505D01*
X44351495Y-41700859D01*
X44274782Y-41586049D01*
X44221938Y-41458473D01*
X44195000Y-41323044D01*
X44195000Y-41184956D01*
X44221938Y-41049527D01*
X44274782Y-40921951D01*
X44351495Y-40807141D01*
X44449141Y-40709495D01*
X44563951Y-40632782D01*
X44691527Y-40579938D01*
X44826956Y-40553000D01*
X44965044Y-40553000D01*
X45100473Y-40579938D01*
X45100473Y-40579938D01*
G37*
G36*
X57806564Y-38789389D02*
G01*
X57997833Y-38868615D01*
X57997835Y-38868616D01*
X58169973Y-38983635D01*
X58316365Y-39130027D01*
X58375212Y-39218097D01*
X58431385Y-39302167D01*
X58510611Y-39493436D01*
X58551000Y-39696484D01*
X58551000Y-39903516D01*
X58510611Y-40106564D01*
X58431385Y-40297833D01*
X58431384Y-40297835D01*
X58316365Y-40469973D01*
X58169973Y-40616365D01*
X57997835Y-40731384D01*
X57997834Y-40731385D01*
X57997833Y-40731385D01*
X57806564Y-40810611D01*
X57603516Y-40851000D01*
X57396484Y-40851000D01*
X57193436Y-40810611D01*
X57002167Y-40731385D01*
X57002166Y-40731385D01*
X57002165Y-40731384D01*
X56830027Y-40616365D01*
X56683635Y-40469973D01*
X56568616Y-40297835D01*
X56568615Y-40297833D01*
X56489389Y-40106564D01*
X56449000Y-39903516D01*
X56449000Y-39696484D01*
X56489389Y-39493436D01*
X56568615Y-39302167D01*
X56624789Y-39218097D01*
X56683635Y-39130027D01*
X56830027Y-38983635D01*
X57002165Y-38868616D01*
X57002167Y-38868615D01*
X57193436Y-38789389D01*
X57396484Y-38749000D01*
X57603516Y-38749000D01*
X57806564Y-38789389D01*
X57806564Y-38789389D01*
G37*
G36*
X53306564Y-38789389D02*
G01*
X53497833Y-38868615D01*
X53497835Y-38868616D01*
X53669973Y-38983635D01*
X53816365Y-39130027D01*
X53875212Y-39218097D01*
X53931385Y-39302167D01*
X54010611Y-39493436D01*
X54051000Y-39696484D01*
X54051000Y-39903516D01*
X54010611Y-40106564D01*
X53931385Y-40297833D01*
X53931384Y-40297835D01*
X53816365Y-40469973D01*
X53669973Y-40616365D01*
X53497835Y-40731384D01*
X53497834Y-40731385D01*
X53497833Y-40731385D01*
X53306564Y-40810611D01*
X53103516Y-40851000D01*
X52896484Y-40851000D01*
X52693436Y-40810611D01*
X52502167Y-40731385D01*
X52502166Y-40731385D01*
X52502165Y-40731384D01*
X52330027Y-40616365D01*
X52183635Y-40469973D01*
X52068616Y-40297835D01*
X52068615Y-40297833D01*
X51989389Y-40106564D01*
X51949000Y-39903516D01*
X51949000Y-39696484D01*
X51989389Y-39493436D01*
X52068615Y-39302167D01*
X52124789Y-39218097D01*
X52183635Y-39130027D01*
X52330027Y-38983635D01*
X52502165Y-38868616D01*
X52502167Y-38868615D01*
X52693436Y-38789389D01*
X52896484Y-38749000D01*
X53103516Y-38749000D01*
X53306564Y-38789389D01*
X53306564Y-38789389D01*
G37*
G36*
X61470442Y-38065518D02*
G01*
X61536627Y-38072037D01*
X61706466Y-38123557D01*
X61862991Y-38207222D01*
X61898729Y-38236552D01*
X62000186Y-38319814D01*
X62083448Y-38421271D01*
X62112778Y-38457009D01*
X62196443Y-38613534D01*
X62247963Y-38783373D01*
X62265359Y-38960000D01*
X62247963Y-39136627D01*
X62196443Y-39306466D01*
X62112778Y-39462991D01*
X62087793Y-39493435D01*
X62000186Y-39600186D01*
X61898729Y-39683448D01*
X61862991Y-39712778D01*
X61706466Y-39796443D01*
X61536627Y-39847963D01*
X61470442Y-39854482D01*
X61404260Y-39861000D01*
X61315740Y-39861000D01*
X61249558Y-39854482D01*
X61183373Y-39847963D01*
X61013534Y-39796443D01*
X60857009Y-39712778D01*
X60821271Y-39683448D01*
X60719814Y-39600186D01*
X60632207Y-39493435D01*
X60607222Y-39462991D01*
X60523557Y-39306466D01*
X60472037Y-39136627D01*
X60454641Y-38960000D01*
X60472037Y-38783373D01*
X60523557Y-38613534D01*
X60607222Y-38457009D01*
X60636552Y-38421271D01*
X60719814Y-38319814D01*
X60821271Y-38236552D01*
X60857009Y-38207222D01*
X61013534Y-38123557D01*
X61183373Y-38072037D01*
X61249558Y-38065518D01*
X61315740Y-38059000D01*
X61404260Y-38059000D01*
X61470442Y-38065518D01*
X61470442Y-38065518D01*
G37*
G36*
X64010442Y-38065518D02*
G01*
X64076627Y-38072037D01*
X64246466Y-38123557D01*
X64402991Y-38207222D01*
X64438729Y-38236552D01*
X64540186Y-38319814D01*
X64623448Y-38421271D01*
X64652778Y-38457009D01*
X64736443Y-38613534D01*
X64787963Y-38783373D01*
X64805359Y-38960000D01*
X64787963Y-39136627D01*
X64736443Y-39306466D01*
X64652778Y-39462991D01*
X64627793Y-39493435D01*
X64540186Y-39600186D01*
X64438729Y-39683448D01*
X64402991Y-39712778D01*
X64246466Y-39796443D01*
X64076627Y-39847963D01*
X64010442Y-39854482D01*
X63944260Y-39861000D01*
X63855740Y-39861000D01*
X63789558Y-39854482D01*
X63723373Y-39847963D01*
X63553534Y-39796443D01*
X63397009Y-39712778D01*
X63361271Y-39683448D01*
X63259814Y-39600186D01*
X63172207Y-39493435D01*
X63147222Y-39462991D01*
X63063557Y-39306466D01*
X63012037Y-39136627D01*
X62994641Y-38960000D01*
X63012037Y-38783373D01*
X63063557Y-38613534D01*
X63147222Y-38457009D01*
X63176552Y-38421271D01*
X63259814Y-38319814D01*
X63361271Y-38236552D01*
X63397009Y-38207222D01*
X63553534Y-38123557D01*
X63723373Y-38072037D01*
X63789558Y-38065518D01*
X63855740Y-38059000D01*
X63944260Y-38059000D01*
X64010442Y-38065518D01*
X64010442Y-38065518D01*
G37*
G36*
X21908600Y-37602989D02*
G01*
X21941652Y-37613015D01*
X21972103Y-37629292D01*
X21998799Y-37651201D01*
X22020708Y-37677897D01*
X22036985Y-37708348D01*
X22047011Y-37741400D01*
X22051000Y-37781903D01*
X22051000Y-39218097D01*
X22047011Y-39258600D01*
X22036985Y-39291652D01*
X22020708Y-39322103D01*
X21998799Y-39348799D01*
X21972103Y-39370708D01*
X21941652Y-39386985D01*
X21908600Y-39397011D01*
X21868097Y-39401000D01*
X20131903Y-39401000D01*
X20091400Y-39397011D01*
X20058348Y-39386985D01*
X20027897Y-39370708D01*
X20001201Y-39348799D01*
X19979292Y-39322103D01*
X19963015Y-39291652D01*
X19952989Y-39258600D01*
X19949000Y-39218097D01*
X19949000Y-37781903D01*
X19952989Y-37741400D01*
X19963015Y-37708348D01*
X19979292Y-37677897D01*
X20001201Y-37651201D01*
X20027897Y-37629292D01*
X20058348Y-37613015D01*
X20091400Y-37602989D01*
X20131903Y-37599000D01*
X21868097Y-37599000D01*
X21908600Y-37602989D01*
X21908600Y-37602989D01*
G37*
G36*
X33169271Y-36160103D02*
G01*
X33225635Y-36165654D01*
X33442600Y-36231470D01*
X33442602Y-36231471D01*
X33642555Y-36338347D01*
X33817818Y-36482182D01*
X33961653Y-36657445D01*
X34019925Y-36766466D01*
X34068530Y-36857400D01*
X34134346Y-37074365D01*
X34156569Y-37300000D01*
X34134346Y-37525635D01*
X34088158Y-37677897D01*
X34068529Y-37742602D01*
X33961653Y-37942555D01*
X33817818Y-38117818D01*
X33642555Y-38261653D01*
X33533740Y-38319815D01*
X33442600Y-38368530D01*
X33225635Y-38434346D01*
X33169271Y-38439897D01*
X33056545Y-38451000D01*
X30943455Y-38451000D01*
X30830729Y-38439897D01*
X30774365Y-38434346D01*
X30557400Y-38368530D01*
X30466260Y-38319815D01*
X30357445Y-38261653D01*
X30182182Y-38117818D01*
X30038347Y-37942555D01*
X29931471Y-37742602D01*
X29911843Y-37677897D01*
X29865654Y-37525635D01*
X29843431Y-37300000D01*
X29865654Y-37074365D01*
X29931470Y-36857400D01*
X29980075Y-36766466D01*
X30038347Y-36657445D01*
X30182182Y-36482182D01*
X30357445Y-36338347D01*
X30557398Y-36231471D01*
X30557400Y-36231470D01*
X30774365Y-36165654D01*
X30830729Y-36160103D01*
X30943455Y-36149000D01*
X33056545Y-36149000D01*
X33169271Y-36160103D01*
X33169271Y-36160103D01*
G37*
G36*
X61470443Y-35525519D02*
G01*
X61536627Y-35532037D01*
X61706466Y-35583557D01*
X61862991Y-35667222D01*
X61898729Y-35696552D01*
X62000186Y-35779814D01*
X62083448Y-35881271D01*
X62112778Y-35917009D01*
X62196443Y-36073534D01*
X62247963Y-36243373D01*
X62265359Y-36420000D01*
X62247963Y-36596627D01*
X62196443Y-36766466D01*
X62112778Y-36922991D01*
X62083448Y-36958729D01*
X62000186Y-37060186D01*
X61898729Y-37143448D01*
X61862991Y-37172778D01*
X61706466Y-37256443D01*
X61536627Y-37307963D01*
X61470442Y-37314482D01*
X61404260Y-37321000D01*
X61315740Y-37321000D01*
X61249558Y-37314482D01*
X61183373Y-37307963D01*
X61013534Y-37256443D01*
X60857009Y-37172778D01*
X60821271Y-37143448D01*
X60719814Y-37060186D01*
X60636552Y-36958729D01*
X60607222Y-36922991D01*
X60523557Y-36766466D01*
X60472037Y-36596627D01*
X60454641Y-36420000D01*
X60472037Y-36243373D01*
X60523557Y-36073534D01*
X60607222Y-35917009D01*
X60636552Y-35881271D01*
X60719814Y-35779814D01*
X60821271Y-35696552D01*
X60857009Y-35667222D01*
X61013534Y-35583557D01*
X61183373Y-35532037D01*
X61249557Y-35525519D01*
X61315740Y-35519000D01*
X61404260Y-35519000D01*
X61470443Y-35525519D01*
X61470443Y-35525519D01*
G37*
G36*
X64010443Y-35525519D02*
G01*
X64076627Y-35532037D01*
X64246466Y-35583557D01*
X64402991Y-35667222D01*
X64438729Y-35696552D01*
X64540186Y-35779814D01*
X64623448Y-35881271D01*
X64652778Y-35917009D01*
X64736443Y-36073534D01*
X64787963Y-36243373D01*
X64805359Y-36420000D01*
X64787963Y-36596627D01*
X64736443Y-36766466D01*
X64652778Y-36922991D01*
X64623448Y-36958729D01*
X64540186Y-37060186D01*
X64438729Y-37143448D01*
X64402991Y-37172778D01*
X64246466Y-37256443D01*
X64076627Y-37307963D01*
X64010442Y-37314482D01*
X63944260Y-37321000D01*
X63855740Y-37321000D01*
X63789558Y-37314482D01*
X63723373Y-37307963D01*
X63553534Y-37256443D01*
X63397009Y-37172778D01*
X63361271Y-37143448D01*
X63259814Y-37060186D01*
X63176552Y-36958729D01*
X63147222Y-36922991D01*
X63063557Y-36766466D01*
X63012037Y-36596627D01*
X62994641Y-36420000D01*
X63012037Y-36243373D01*
X63063557Y-36073534D01*
X63147222Y-35917009D01*
X63176552Y-35881271D01*
X63259814Y-35779814D01*
X63361271Y-35696552D01*
X63397009Y-35667222D01*
X63553534Y-35583557D01*
X63723373Y-35532037D01*
X63789557Y-35525519D01*
X63855740Y-35519000D01*
X63944260Y-35519000D01*
X64010443Y-35525519D01*
X64010443Y-35525519D01*
G37*
G36*
X21260442Y-35105518D02*
G01*
X21326627Y-35112037D01*
X21496466Y-35163557D01*
X21652991Y-35247222D01*
X21688729Y-35276552D01*
X21790186Y-35359814D01*
X21873448Y-35461271D01*
X21902778Y-35497009D01*
X21986443Y-35653534D01*
X22037963Y-35823373D01*
X22055359Y-36000000D01*
X22037963Y-36176627D01*
X21986443Y-36346466D01*
X21902778Y-36502991D01*
X21873448Y-36538729D01*
X21790186Y-36640186D01*
X21688729Y-36723448D01*
X21652991Y-36752778D01*
X21496466Y-36836443D01*
X21326627Y-36887963D01*
X21260443Y-36894481D01*
X21194260Y-36901000D01*
X20805740Y-36901000D01*
X20739557Y-36894481D01*
X20673373Y-36887963D01*
X20503534Y-36836443D01*
X20347009Y-36752778D01*
X20311271Y-36723448D01*
X20209814Y-36640186D01*
X20126552Y-36538729D01*
X20097222Y-36502991D01*
X20013557Y-36346466D01*
X19962037Y-36176627D01*
X19944641Y-36000000D01*
X19962037Y-35823373D01*
X20013557Y-35653534D01*
X20097222Y-35497009D01*
X20126552Y-35461271D01*
X20209814Y-35359814D01*
X20311271Y-35276552D01*
X20347009Y-35247222D01*
X20503534Y-35163557D01*
X20673373Y-35112037D01*
X20739558Y-35105518D01*
X20805740Y-35099000D01*
X21194260Y-35099000D01*
X21260442Y-35105518D01*
X21260442Y-35105518D01*
G37*
G36*
X12627004Y-31111508D02*
G01*
X12749127Y-31148553D01*
X12861676Y-31208712D01*
X12960327Y-31289672D01*
X13041287Y-31388323D01*
X13101446Y-31500872D01*
X13138491Y-31622995D01*
X13151000Y-31749999D01*
X13151000Y-31750001D01*
X13138491Y-31877005D01*
X13101446Y-31999128D01*
X13041287Y-32111677D01*
X12960327Y-32210328D01*
X12861676Y-32291288D01*
X12749127Y-32351447D01*
X12627004Y-32388492D01*
X12500000Y-32401001D01*
X11700000Y-32401001D01*
X11572996Y-32388492D01*
X11450873Y-32351447D01*
X11338324Y-32291288D01*
X11239673Y-32210328D01*
X11158713Y-32111677D01*
X11098554Y-31999128D01*
X11061509Y-31877005D01*
X11049000Y-31750001D01*
X11049000Y-31749999D01*
X11061509Y-31622995D01*
X11098554Y-31500872D01*
X11158713Y-31388323D01*
X11239673Y-31289672D01*
X11338324Y-31208712D01*
X11450873Y-31148553D01*
X11572996Y-31111508D01*
X11700000Y-31098999D01*
X12500000Y-31098999D01*
X12627004Y-31111508D01*
X12627004Y-31111508D01*
G37*
G36*
X36051000Y-30851000D02*
G01*
X27949000Y-30851000D01*
X27949000Y-22749000D01*
X36051000Y-22749000D01*
X36051000Y-30851000D01*
X36051000Y-30851000D01*
G37*
G36*
X18389890Y-27374017D02*
G01*
X18508364Y-27423091D01*
X18614988Y-27494335D01*
X18705665Y-27585012D01*
X18776909Y-27691636D01*
X18825983Y-27810110D01*
X18851000Y-27935882D01*
X18851000Y-28064118D01*
X18825983Y-28189890D01*
X18776909Y-28308364D01*
X18705665Y-28414988D01*
X18614988Y-28505665D01*
X18508364Y-28576909D01*
X18508363Y-28576910D01*
X18508362Y-28576910D01*
X18389890Y-28625983D01*
X18264119Y-28651000D01*
X18135881Y-28651000D01*
X18010110Y-28625983D01*
X17891638Y-28576910D01*
X17891637Y-28576910D01*
X17891636Y-28576909D01*
X17785012Y-28505665D01*
X17694335Y-28414988D01*
X17623091Y-28308364D01*
X17574017Y-28189890D01*
X17549000Y-28064118D01*
X17549000Y-27935882D01*
X17574017Y-27810110D01*
X17623091Y-27691636D01*
X17694335Y-27585012D01*
X17785012Y-27494335D01*
X17891636Y-27423091D01*
X18010110Y-27374017D01*
X18135881Y-27349000D01*
X18264119Y-27349000D01*
X18389890Y-27374017D01*
X18389890Y-27374017D01*
G37*
G36*
X12389890Y-27374017D02*
G01*
X12508364Y-27423091D01*
X12614988Y-27494335D01*
X12705665Y-27585012D01*
X12776909Y-27691636D01*
X12825983Y-27810110D01*
X12851000Y-27935882D01*
X12851000Y-28064118D01*
X12825983Y-28189890D01*
X12776909Y-28308364D01*
X12705665Y-28414988D01*
X12614988Y-28505665D01*
X12508364Y-28576909D01*
X12508363Y-28576910D01*
X12508362Y-28576910D01*
X12389890Y-28625983D01*
X12264119Y-28651000D01*
X12135881Y-28651000D01*
X12010110Y-28625983D01*
X11891638Y-28576910D01*
X11891637Y-28576910D01*
X11891636Y-28576909D01*
X11785012Y-28505665D01*
X11694335Y-28414988D01*
X11623091Y-28308364D01*
X11574017Y-28189890D01*
X11549000Y-28064118D01*
X11549000Y-27935882D01*
X11574017Y-27810110D01*
X11623091Y-27691636D01*
X11694335Y-27585012D01*
X11785012Y-27494335D01*
X11891636Y-27423091D01*
X12010110Y-27374017D01*
X12135881Y-27349000D01*
X12264119Y-27349000D01*
X12389890Y-27374017D01*
X12389890Y-27374017D01*
G37*
G36*
X12627004Y-23611508D02*
G01*
X12749127Y-23648553D01*
X12861676Y-23708712D01*
X12960327Y-23789672D01*
X13041287Y-23888323D01*
X13101446Y-24000872D01*
X13138491Y-24122995D01*
X13151000Y-24249999D01*
X13151000Y-24250001D01*
X13138491Y-24377005D01*
X13101446Y-24499128D01*
X13041287Y-24611677D01*
X12960327Y-24710328D01*
X12861676Y-24791288D01*
X12749127Y-24851447D01*
X12627004Y-24888492D01*
X12500000Y-24901001D01*
X11700000Y-24901001D01*
X11572996Y-24888492D01*
X11450873Y-24851447D01*
X11338324Y-24791288D01*
X11239673Y-24710328D01*
X11158713Y-24611677D01*
X11098554Y-24499128D01*
X11061509Y-24377005D01*
X11049000Y-24250001D01*
X11049000Y-24249999D01*
X11061509Y-24122995D01*
X11098554Y-24000872D01*
X11158713Y-23888323D01*
X11239673Y-23789672D01*
X11338324Y-23708712D01*
X11450873Y-23648553D01*
X11572996Y-23611508D01*
X11700000Y-23598999D01*
X12500000Y-23598999D01*
X12627004Y-23611508D01*
X12627004Y-23611508D01*
G37*
G36*
X33169271Y-15160103D02*
G01*
X33225635Y-15165654D01*
X33442600Y-15231470D01*
X33442602Y-15231471D01*
X33642555Y-15338347D01*
X33817818Y-15482182D01*
X33961653Y-15657445D01*
X34068529Y-15857398D01*
X34134346Y-16074366D01*
X34156569Y-16300000D01*
X34134346Y-16525634D01*
X34068529Y-16742602D01*
X33961653Y-16942555D01*
X33817818Y-17117818D01*
X33642555Y-17261653D01*
X33442602Y-17368529D01*
X33442600Y-17368530D01*
X33225635Y-17434346D01*
X33169271Y-17439897D01*
X33056545Y-17451000D01*
X30943455Y-17451000D01*
X30830729Y-17439897D01*
X30774365Y-17434346D01*
X30557400Y-17368530D01*
X30557398Y-17368529D01*
X30357445Y-17261653D01*
X30182182Y-17117818D01*
X30038347Y-16942555D01*
X29931471Y-16742602D01*
X29865654Y-16525634D01*
X29843431Y-16300000D01*
X29865654Y-16074366D01*
X29931471Y-15857398D01*
X30038347Y-15657445D01*
X30182182Y-15482182D01*
X30357445Y-15338347D01*
X30557398Y-15231471D01*
X30557400Y-15231470D01*
X30774365Y-15165654D01*
X30830729Y-15160103D01*
X30943455Y-15149000D01*
X33056545Y-15149000D01*
X33169271Y-15160103D01*
X33169271Y-15160103D01*
G37*
G36*
X40551000Y-15951000D02*
G01*
X38649000Y-15951000D01*
X38649000Y-14049000D01*
X40551000Y-14049000D01*
X40551000Y-15951000D01*
X40551000Y-15951000D01*
G37*
G36*
X47551000Y-15951000D02*
G01*
X45649000Y-15951000D01*
X45649000Y-14049000D01*
X47551000Y-14049000D01*
X47551000Y-15951000D01*
X47551000Y-15951000D01*
G37*
G36*
X63818433Y-11634893D02*
G01*
X63908657Y-11652839D01*
X64014267Y-11696585D01*
X64163621Y-11758449D01*
X64163622Y-11758450D01*
X64393086Y-11911772D01*
X64588228Y-12106914D01*
X64690675Y-12260237D01*
X64741551Y-12336379D01*
X64847161Y-12591344D01*
X64901000Y-12862012D01*
X64901000Y-13137988D01*
X64847161Y-13408656D01*
X64741551Y-13663621D01*
X64741550Y-13663622D01*
X64588228Y-13893086D01*
X64393086Y-14088228D01*
X64239763Y-14190675D01*
X64163621Y-14241551D01*
X64014267Y-14303415D01*
X63908657Y-14347161D01*
X63818433Y-14365107D01*
X63637988Y-14401000D01*
X63362012Y-14401000D01*
X63181567Y-14365107D01*
X63091343Y-14347161D01*
X62985733Y-14303415D01*
X62836379Y-14241551D01*
X62760237Y-14190675D01*
X62606914Y-14088228D01*
X62411772Y-13893086D01*
X62258450Y-13663622D01*
X62258449Y-13663621D01*
X62152839Y-13408656D01*
X62099000Y-13137988D01*
X62099000Y-12862012D01*
X62152839Y-12591344D01*
X62258449Y-12336379D01*
X62309325Y-12260237D01*
X62411772Y-12106914D01*
X62606914Y-11911772D01*
X62836378Y-11758450D01*
X62836379Y-11758449D01*
X62985733Y-11696585D01*
X63091343Y-11652839D01*
X63181567Y-11634893D01*
X63362012Y-11599000D01*
X63637988Y-11599000D01*
X63818433Y-11634893D01*
X63818433Y-11634893D01*
G37*
G36*
X19318433Y-11634893D02*
G01*
X19408657Y-11652839D01*
X19514267Y-11696585D01*
X19663621Y-11758449D01*
X19663622Y-11758450D01*
X19893086Y-11911772D01*
X20088228Y-12106914D01*
X20190675Y-12260237D01*
X20241551Y-12336379D01*
X20347161Y-12591344D01*
X20401000Y-12862012D01*
X20401000Y-13137988D01*
X20347161Y-13408656D01*
X20241551Y-13663621D01*
X20241550Y-13663622D01*
X20088228Y-13893086D01*
X19893086Y-14088228D01*
X19739763Y-14190675D01*
X19663621Y-14241551D01*
X19514267Y-14303415D01*
X19408657Y-14347161D01*
X19318433Y-14365107D01*
X19137988Y-14401000D01*
X18862012Y-14401000D01*
X18681567Y-14365107D01*
X18591343Y-14347161D01*
X18485733Y-14303415D01*
X18336379Y-14241551D01*
X18260237Y-14190675D01*
X18106914Y-14088228D01*
X17911772Y-13893086D01*
X17758450Y-13663622D01*
X17758449Y-13663621D01*
X17652839Y-13408656D01*
X17599000Y-13137988D01*
X17599000Y-12862012D01*
X17652839Y-12591344D01*
X17758449Y-12336379D01*
X17809325Y-12260237D01*
X17911772Y-12106914D01*
X18106914Y-11911772D01*
X18336378Y-11758450D01*
X18336379Y-11758449D01*
X18485733Y-11696585D01*
X18591343Y-11652839D01*
X18681567Y-11634893D01*
X18862012Y-11599000D01*
X19137988Y-11599000D01*
X19318433Y-11634893D01*
X19318433Y-11634893D01*
G37*
G36*
X39877395Y-11545546D02*
G01*
X40050466Y-11617234D01*
X40127818Y-11668919D01*
X40206227Y-11721310D01*
X40338690Y-11853773D01*
X40391081Y-11932182D01*
X40442766Y-12009534D01*
X40514454Y-12182605D01*
X40551000Y-12366333D01*
X40551000Y-12553667D01*
X40514454Y-12737395D01*
X40442766Y-12910466D01*
X40442765Y-12910467D01*
X40338690Y-13066227D01*
X40206227Y-13198690D01*
X40127818Y-13251081D01*
X40050466Y-13302766D01*
X39877395Y-13374454D01*
X39693667Y-13411000D01*
X39506333Y-13411000D01*
X39322605Y-13374454D01*
X39149534Y-13302766D01*
X39072182Y-13251081D01*
X38993773Y-13198690D01*
X38861310Y-13066227D01*
X38757235Y-12910467D01*
X38757234Y-12910466D01*
X38685546Y-12737395D01*
X38649000Y-12553667D01*
X38649000Y-12366333D01*
X38685546Y-12182605D01*
X38757234Y-12009534D01*
X38808919Y-11932182D01*
X38861310Y-11853773D01*
X38993773Y-11721310D01*
X39072182Y-11668919D01*
X39149534Y-11617234D01*
X39322605Y-11545546D01*
X39506333Y-11509000D01*
X39693667Y-11509000D01*
X39877395Y-11545546D01*
X39877395Y-11545546D01*
G37*
G36*
X46877395Y-11545546D02*
G01*
X47050466Y-11617234D01*
X47127818Y-11668919D01*
X47206227Y-11721310D01*
X47338690Y-11853773D01*
X47391081Y-11932182D01*
X47442766Y-12009534D01*
X47514454Y-12182605D01*
X47551000Y-12366333D01*
X47551000Y-12553667D01*
X47514454Y-12737395D01*
X47442766Y-12910466D01*
X47442765Y-12910467D01*
X47338690Y-13066227D01*
X47206227Y-13198690D01*
X47127818Y-13251081D01*
X47050466Y-13302766D01*
X46877395Y-13374454D01*
X46693667Y-13411000D01*
X46506333Y-13411000D01*
X46322605Y-13374454D01*
X46149534Y-13302766D01*
X46072182Y-13251081D01*
X45993773Y-13198690D01*
X45861310Y-13066227D01*
X45757235Y-12910467D01*
X45757234Y-12910466D01*
X45685546Y-12737395D01*
X45649000Y-12553667D01*
X45649000Y-12366333D01*
X45685546Y-12182605D01*
X45757234Y-12009534D01*
X45808919Y-11932182D01*
X45861310Y-11853773D01*
X45993773Y-11721310D01*
X46072182Y-11668919D01*
X46149534Y-11617234D01*
X46322605Y-11545546D01*
X46506333Y-11509000D01*
X46693667Y-11509000D01*
X46877395Y-11545546D01*
X46877395Y-11545546D01*
G37*
M02*
