G04 #@! TF.GenerationSoftware,KiCad,Pcbnew,5.1.4-e60b266~84~ubuntu18.04.1*
G04 #@! TF.CreationDate,2019-10-05T11:36:13+05:30*
G04 #@! TF.ProjectId,SensePi_rev5_main,53656e73-6550-4695-9f72-6576355f6d61,rev?*
G04 #@! TF.SameCoordinates,Original*
G04 #@! TF.FileFunction,Soldermask,Top*
G04 #@! TF.FilePolarity,Negative*
%FSLAX46Y46*%
G04 Gerber Fmt 4.6, Leading zero omitted, Abs format (unit mm)*
G04 Created by KiCad (PCBNEW 5.1.4-e60b266~84~ubuntu18.04.1) date 2019-10-05 11:36:13*
%MOMM*%
%LPD*%
G04 APERTURE LIST*
%ADD10C,0.100000*%
G04 APERTURE END LIST*
D10*
G36*
X63793972Y-45630027D02*
G01*
X63908657Y-45652839D01*
X64014267Y-45696585D01*
X64163621Y-45758449D01*
X64163622Y-45758450D01*
X64393086Y-45911772D01*
X64588228Y-46106914D01*
X64690675Y-46260237D01*
X64741551Y-46336379D01*
X64769359Y-46403514D01*
X64847161Y-46591343D01*
X64901000Y-46862014D01*
X64901000Y-47137986D01*
X64858630Y-47351000D01*
X64847161Y-47408656D01*
X64741551Y-47663621D01*
X64741550Y-47663622D01*
X64588228Y-47893086D01*
X64393086Y-48088228D01*
X64239763Y-48190675D01*
X64163621Y-48241551D01*
X64014267Y-48303415D01*
X63908657Y-48347161D01*
X63818433Y-48365107D01*
X63637988Y-48401000D01*
X63362012Y-48401000D01*
X63181567Y-48365107D01*
X63091343Y-48347161D01*
X62985733Y-48303415D01*
X62836379Y-48241551D01*
X62760237Y-48190675D01*
X62606914Y-48088228D01*
X62411772Y-47893086D01*
X62258450Y-47663622D01*
X62258449Y-47663621D01*
X62152839Y-47408656D01*
X62141371Y-47351000D01*
X62099000Y-47137986D01*
X62099000Y-46862014D01*
X62152839Y-46591343D01*
X62230641Y-46403514D01*
X62258449Y-46336379D01*
X62309325Y-46260237D01*
X62411772Y-46106914D01*
X62606914Y-45911772D01*
X62836378Y-45758450D01*
X62836379Y-45758449D01*
X62985733Y-45696585D01*
X63091343Y-45652839D01*
X63206028Y-45630027D01*
X63362012Y-45599000D01*
X63637988Y-45599000D01*
X63793972Y-45630027D01*
X63793972Y-45630027D01*
G37*
G36*
X13293972Y-45630027D02*
G01*
X13408657Y-45652839D01*
X13514267Y-45696585D01*
X13663621Y-45758449D01*
X13663622Y-45758450D01*
X13893086Y-45911772D01*
X14088228Y-46106914D01*
X14190675Y-46260237D01*
X14241551Y-46336379D01*
X14269359Y-46403514D01*
X14347161Y-46591343D01*
X14401000Y-46862014D01*
X14401000Y-47137986D01*
X14358630Y-47351000D01*
X14347161Y-47408656D01*
X14241551Y-47663621D01*
X14241550Y-47663622D01*
X14088228Y-47893086D01*
X13893086Y-48088228D01*
X13739763Y-48190675D01*
X13663621Y-48241551D01*
X13514267Y-48303415D01*
X13408657Y-48347161D01*
X13318433Y-48365107D01*
X13137988Y-48401000D01*
X12862012Y-48401000D01*
X12681567Y-48365107D01*
X12591343Y-48347161D01*
X12485733Y-48303415D01*
X12336379Y-48241551D01*
X12260237Y-48190675D01*
X12106914Y-48088228D01*
X11911772Y-47893086D01*
X11758450Y-47663622D01*
X11758449Y-47663621D01*
X11652839Y-47408656D01*
X11641371Y-47351000D01*
X11599000Y-47137986D01*
X11599000Y-46862014D01*
X11652839Y-46591343D01*
X11730641Y-46403514D01*
X11758449Y-46336379D01*
X11809325Y-46260237D01*
X11911772Y-46106914D01*
X12106914Y-45911772D01*
X12336378Y-45758450D01*
X12336379Y-45758449D01*
X12485733Y-45696585D01*
X12591343Y-45652839D01*
X12706028Y-45630027D01*
X12862012Y-45599000D01*
X13137988Y-45599000D01*
X13293972Y-45630027D01*
X13293972Y-45630027D01*
G37*
G36*
X53306564Y-45289389D02*
G01*
X53497833Y-45368615D01*
X53497835Y-45368616D01*
X53669973Y-45483635D01*
X53816365Y-45630027D01*
X53902175Y-45758450D01*
X53931385Y-45802167D01*
X54010611Y-45993436D01*
X54051000Y-46196484D01*
X54051000Y-46403516D01*
X54010611Y-46606564D01*
X53931385Y-46797833D01*
X53931384Y-46797835D01*
X53816365Y-46969973D01*
X53669973Y-47116365D01*
X53497835Y-47231384D01*
X53497834Y-47231385D01*
X53497833Y-47231385D01*
X53306564Y-47310611D01*
X53103516Y-47351000D01*
X52896484Y-47351000D01*
X52693436Y-47310611D01*
X52502167Y-47231385D01*
X52502166Y-47231385D01*
X52502165Y-47231384D01*
X52330027Y-47116365D01*
X52183635Y-46969973D01*
X52068616Y-46797835D01*
X52068615Y-46797833D01*
X51989389Y-46606564D01*
X51949000Y-46403516D01*
X51949000Y-46196484D01*
X51989389Y-45993436D01*
X52068615Y-45802167D01*
X52097826Y-45758450D01*
X52183635Y-45630027D01*
X52330027Y-45483635D01*
X52502165Y-45368616D01*
X52502167Y-45368615D01*
X52693436Y-45289389D01*
X52896484Y-45249000D01*
X53103516Y-45249000D01*
X53306564Y-45289389D01*
X53306564Y-45289389D01*
G37*
G36*
X57806564Y-45289389D02*
G01*
X57997833Y-45368615D01*
X57997835Y-45368616D01*
X58169973Y-45483635D01*
X58316365Y-45630027D01*
X58402175Y-45758450D01*
X58431385Y-45802167D01*
X58510611Y-45993436D01*
X58551000Y-46196484D01*
X58551000Y-46403516D01*
X58510611Y-46606564D01*
X58431385Y-46797833D01*
X58431384Y-46797835D01*
X58316365Y-46969973D01*
X58169973Y-47116365D01*
X57997835Y-47231384D01*
X57997834Y-47231385D01*
X57997833Y-47231385D01*
X57806564Y-47310611D01*
X57603516Y-47351000D01*
X57396484Y-47351000D01*
X57193436Y-47310611D01*
X57002167Y-47231385D01*
X57002166Y-47231385D01*
X57002165Y-47231384D01*
X56830027Y-47116365D01*
X56683635Y-46969973D01*
X56568616Y-46797835D01*
X56568615Y-46797833D01*
X56489389Y-46606564D01*
X56449000Y-46403516D01*
X56449000Y-46196484D01*
X56489389Y-45993436D01*
X56568615Y-45802167D01*
X56597826Y-45758450D01*
X56683635Y-45630027D01*
X56830027Y-45483635D01*
X57002165Y-45368616D01*
X57002167Y-45368615D01*
X57193436Y-45289389D01*
X57396484Y-45249000D01*
X57603516Y-45249000D01*
X57806564Y-45289389D01*
X57806564Y-45289389D01*
G37*
G36*
X41508473Y-44171938D02*
G01*
X41636049Y-44224782D01*
X41750859Y-44301495D01*
X41848505Y-44399141D01*
X41925218Y-44513951D01*
X41978062Y-44641527D01*
X42005000Y-44776956D01*
X42005000Y-44915044D01*
X41978062Y-45050473D01*
X41925218Y-45178049D01*
X41848505Y-45292859D01*
X41750859Y-45390505D01*
X41636049Y-45467218D01*
X41508473Y-45520062D01*
X41373044Y-45547000D01*
X41234956Y-45547000D01*
X41099527Y-45520062D01*
X40971951Y-45467218D01*
X40857141Y-45390505D01*
X40759495Y-45292859D01*
X40682782Y-45178049D01*
X40629938Y-45050473D01*
X40603000Y-44915044D01*
X40603000Y-44776956D01*
X40629938Y-44641527D01*
X40682782Y-44513951D01*
X40759495Y-44399141D01*
X40857141Y-44301495D01*
X40971951Y-44224782D01*
X41099527Y-44171938D01*
X41234956Y-44145000D01*
X41373044Y-44145000D01*
X41508473Y-44171938D01*
X41508473Y-44171938D01*
G37*
G36*
X37901000Y-45201000D02*
G01*
X36899000Y-45201000D01*
X36899000Y-44299000D01*
X37901000Y-44299000D01*
X37901000Y-45201000D01*
X37901000Y-45201000D01*
G37*
G36*
X28379487Y-41748996D02*
G01*
X28614804Y-41846468D01*
X28616255Y-41847069D01*
X28658383Y-41875218D01*
X28829339Y-41989447D01*
X29010553Y-42170661D01*
X29152932Y-42383747D01*
X29251004Y-42620513D01*
X29301000Y-42871861D01*
X29301000Y-43128139D01*
X29251004Y-43379487D01*
X29152932Y-43616253D01*
X29152931Y-43616255D01*
X29010553Y-43829339D01*
X28829339Y-44010553D01*
X28616255Y-44152931D01*
X28616254Y-44152932D01*
X28616253Y-44152932D01*
X28379487Y-44251004D01*
X28128139Y-44301000D01*
X27871861Y-44301000D01*
X27620513Y-44251004D01*
X27383747Y-44152932D01*
X27383746Y-44152932D01*
X27383745Y-44152931D01*
X27170661Y-44010553D01*
X26989447Y-43829339D01*
X26847069Y-43616255D01*
X26847068Y-43616253D01*
X26748996Y-43379487D01*
X26699000Y-43128139D01*
X26699000Y-42871861D01*
X26748996Y-42620513D01*
X26847068Y-42383747D01*
X26989447Y-42170661D01*
X27170661Y-41989447D01*
X27341617Y-41875218D01*
X27383745Y-41847069D01*
X27385196Y-41846468D01*
X27620513Y-41748996D01*
X27871861Y-41699000D01*
X28128139Y-41699000D01*
X28379487Y-41748996D01*
X28379487Y-41748996D01*
G37*
G36*
X33079487Y-41748996D02*
G01*
X33314804Y-41846468D01*
X33316255Y-41847069D01*
X33358383Y-41875218D01*
X33529339Y-41989447D01*
X33710553Y-42170661D01*
X33852932Y-42383747D01*
X33951004Y-42620513D01*
X34001000Y-42871861D01*
X34001000Y-43128139D01*
X33951004Y-43379487D01*
X33852932Y-43616253D01*
X33852931Y-43616255D01*
X33710553Y-43829339D01*
X33529339Y-44010553D01*
X33316255Y-44152931D01*
X33316254Y-44152932D01*
X33316253Y-44152932D01*
X33079487Y-44251004D01*
X32828139Y-44301000D01*
X32571861Y-44301000D01*
X32320513Y-44251004D01*
X32083747Y-44152932D01*
X32083746Y-44152932D01*
X32083745Y-44152931D01*
X31870661Y-44010553D01*
X31689447Y-43829339D01*
X31547069Y-43616255D01*
X31547068Y-43616253D01*
X31448996Y-43379487D01*
X31399000Y-43128139D01*
X31399000Y-42871861D01*
X31448996Y-42620513D01*
X31547068Y-42383747D01*
X31689447Y-42170661D01*
X31870661Y-41989447D01*
X32041617Y-41875218D01*
X32083745Y-41847069D01*
X32085196Y-41846468D01*
X32320513Y-41748996D01*
X32571861Y-41699000D01*
X32828139Y-41699000D01*
X33079487Y-41748996D01*
X33079487Y-41748996D01*
G37*
G36*
X23679487Y-41748996D02*
G01*
X23914804Y-41846468D01*
X23916255Y-41847069D01*
X23958383Y-41875218D01*
X24129339Y-41989447D01*
X24310553Y-42170661D01*
X24452932Y-42383747D01*
X24551004Y-42620513D01*
X24601000Y-42871861D01*
X24601000Y-43128139D01*
X24551004Y-43379487D01*
X24452932Y-43616253D01*
X24452931Y-43616255D01*
X24310553Y-43829339D01*
X24129339Y-44010553D01*
X23916255Y-44152931D01*
X23916254Y-44152932D01*
X23916253Y-44152932D01*
X23679487Y-44251004D01*
X23428139Y-44301000D01*
X23171861Y-44301000D01*
X22920513Y-44251004D01*
X22683747Y-44152932D01*
X22683746Y-44152932D01*
X22683745Y-44152931D01*
X22470661Y-44010553D01*
X22289447Y-43829339D01*
X22147069Y-43616255D01*
X22147068Y-43616253D01*
X22048996Y-43379487D01*
X21999000Y-43128139D01*
X21999000Y-42871861D01*
X22048996Y-42620513D01*
X22147068Y-42383747D01*
X22289447Y-42170661D01*
X22470661Y-41989447D01*
X22641617Y-41875218D01*
X22683745Y-41847069D01*
X22685196Y-41846468D01*
X22920513Y-41748996D01*
X23171861Y-41699000D01*
X23428139Y-41699000D01*
X23679487Y-41748996D01*
X23679487Y-41748996D01*
G37*
G36*
X35901000Y-44251000D02*
G01*
X34899000Y-44251000D01*
X34899000Y-43349000D01*
X35901000Y-43349000D01*
X35901000Y-44251000D01*
X35901000Y-44251000D01*
G37*
G36*
X37901000Y-43301000D02*
G01*
X36899000Y-43301000D01*
X36899000Y-42399000D01*
X37901000Y-42399000D01*
X37901000Y-43301000D01*
X37901000Y-43301000D01*
G37*
G36*
X64801000Y-42401000D02*
G01*
X62999000Y-42401000D01*
X62999000Y-40599000D01*
X64801000Y-40599000D01*
X64801000Y-42401000D01*
X64801000Y-42401000D01*
G37*
G36*
X61470443Y-40605519D02*
G01*
X61536627Y-40612037D01*
X61706466Y-40663557D01*
X61862991Y-40747222D01*
X61898729Y-40776552D01*
X62000186Y-40859814D01*
X62067582Y-40941938D01*
X62112778Y-40997009D01*
X62196443Y-41153534D01*
X62247963Y-41323373D01*
X62265359Y-41500000D01*
X62247963Y-41676627D01*
X62196443Y-41846466D01*
X62112778Y-42002991D01*
X62083448Y-42038729D01*
X62000186Y-42140186D01*
X61898729Y-42223448D01*
X61862991Y-42252778D01*
X61706466Y-42336443D01*
X61536627Y-42387963D01*
X61470443Y-42394481D01*
X61404260Y-42401000D01*
X61315740Y-42401000D01*
X61249557Y-42394481D01*
X61183373Y-42387963D01*
X61013534Y-42336443D01*
X60857009Y-42252778D01*
X60821271Y-42223448D01*
X60719814Y-42140186D01*
X60636552Y-42038729D01*
X60607222Y-42002991D01*
X60523557Y-41846466D01*
X60472037Y-41676627D01*
X60454641Y-41500000D01*
X60472037Y-41323373D01*
X60523557Y-41153534D01*
X60607222Y-40997009D01*
X60652418Y-40941938D01*
X60719814Y-40859814D01*
X60821271Y-40776552D01*
X60857009Y-40747222D01*
X61013534Y-40663557D01*
X61183373Y-40612037D01*
X61249557Y-40605519D01*
X61315740Y-40599000D01*
X61404260Y-40599000D01*
X61470443Y-40605519D01*
X61470443Y-40605519D01*
G37*
G36*
X41508473Y-40579938D02*
G01*
X41636049Y-40632782D01*
X41750859Y-40709495D01*
X41848505Y-40807141D01*
X41925218Y-40921951D01*
X41978062Y-41049527D01*
X42005000Y-41184956D01*
X42005000Y-41323044D01*
X41978062Y-41458473D01*
X41925218Y-41586049D01*
X41848505Y-41700859D01*
X41750859Y-41798505D01*
X41636049Y-41875218D01*
X41508473Y-41928062D01*
X41373044Y-41955000D01*
X41234956Y-41955000D01*
X41099527Y-41928062D01*
X40971951Y-41875218D01*
X40857141Y-41798505D01*
X40759495Y-41700859D01*
X40682782Y-41586049D01*
X40629938Y-41458473D01*
X40603000Y-41323044D01*
X40603000Y-41184956D01*
X40629938Y-41049527D01*
X40682782Y-40921951D01*
X40759495Y-40807141D01*
X40857141Y-40709495D01*
X40971951Y-40632782D01*
X41099527Y-40579938D01*
X41234956Y-40553000D01*
X41373044Y-40553000D01*
X41508473Y-40579938D01*
X41508473Y-40579938D01*
G37*
G36*
X45100473Y-40579938D02*
G01*
X45228049Y-40632782D01*
X45342859Y-40709495D01*
X45440505Y-40807141D01*
X45517218Y-40921951D01*
X45570062Y-41049527D01*
X45597000Y-41184956D01*
X45597000Y-41323044D01*
X45570062Y-41458473D01*
X45517218Y-41586049D01*
X45440505Y-41700859D01*
X45342859Y-41798505D01*
X45228049Y-41875218D01*
X45100473Y-41928062D01*
X44965044Y-41955000D01*
X44826956Y-41955000D01*
X44691527Y-41928062D01*
X44563951Y-41875218D01*
X44449141Y-41798505D01*
X44351495Y-41700859D01*
X44274782Y-41586049D01*
X44221938Y-41458473D01*
X44195000Y-41323044D01*
X44195000Y-41184956D01*
X44221938Y-41049527D01*
X44274782Y-40921951D01*
X44351495Y-40807141D01*
X44449141Y-40709495D01*
X44563951Y-40632782D01*
X44691527Y-40579938D01*
X44826956Y-40553000D01*
X44965044Y-40553000D01*
X45100473Y-40579938D01*
X45100473Y-40579938D01*
G37*
G36*
X51181938Y-40341716D02*
G01*
X51202557Y-40347971D01*
X51221553Y-40358124D01*
X51238208Y-40371792D01*
X51251876Y-40388447D01*
X51262029Y-40407443D01*
X51268284Y-40428062D01*
X51271000Y-40455640D01*
X51271000Y-40914360D01*
X51268284Y-40941938D01*
X51262029Y-40962557D01*
X51251876Y-40981553D01*
X51238208Y-40998208D01*
X51221553Y-41011876D01*
X51202557Y-41022029D01*
X51181938Y-41028284D01*
X51154360Y-41031000D01*
X50645640Y-41031000D01*
X50618062Y-41028284D01*
X50597443Y-41022029D01*
X50578447Y-41011876D01*
X50561792Y-40998208D01*
X50548124Y-40981553D01*
X50537971Y-40962557D01*
X50531716Y-40941938D01*
X50529000Y-40914360D01*
X50529000Y-40455640D01*
X50531716Y-40428062D01*
X50537971Y-40407443D01*
X50548124Y-40388447D01*
X50561792Y-40371792D01*
X50578447Y-40358124D01*
X50597443Y-40347971D01*
X50618062Y-40341716D01*
X50645640Y-40339000D01*
X51154360Y-40339000D01*
X51181938Y-40341716D01*
X51181938Y-40341716D01*
G37*
G36*
X53306564Y-38789389D02*
G01*
X53497833Y-38868615D01*
X53497835Y-38868616D01*
X53669973Y-38983635D01*
X53816365Y-39130027D01*
X53875212Y-39218097D01*
X53931385Y-39302167D01*
X54010611Y-39493436D01*
X54051000Y-39696484D01*
X54051000Y-39903516D01*
X54010611Y-40106564D01*
X53931385Y-40297833D01*
X53931384Y-40297835D01*
X53816365Y-40469973D01*
X53669973Y-40616365D01*
X53497835Y-40731384D01*
X53497834Y-40731385D01*
X53497833Y-40731385D01*
X53306564Y-40810611D01*
X53103516Y-40851000D01*
X52896484Y-40851000D01*
X52693436Y-40810611D01*
X52502167Y-40731385D01*
X52502166Y-40731385D01*
X52502165Y-40731384D01*
X52330027Y-40616365D01*
X52183635Y-40469973D01*
X52068616Y-40297835D01*
X52068615Y-40297833D01*
X51989389Y-40106564D01*
X51949000Y-39903516D01*
X51949000Y-39696484D01*
X51989389Y-39493436D01*
X52068615Y-39302167D01*
X52124789Y-39218097D01*
X52183635Y-39130027D01*
X52330027Y-38983635D01*
X52502165Y-38868616D01*
X52502167Y-38868615D01*
X52693436Y-38789389D01*
X52896484Y-38749000D01*
X53103516Y-38749000D01*
X53306564Y-38789389D01*
X53306564Y-38789389D01*
G37*
G36*
X57806564Y-38789389D02*
G01*
X57997833Y-38868615D01*
X57997835Y-38868616D01*
X58169973Y-38983635D01*
X58316365Y-39130027D01*
X58375212Y-39218097D01*
X58431385Y-39302167D01*
X58510611Y-39493436D01*
X58551000Y-39696484D01*
X58551000Y-39903516D01*
X58510611Y-40106564D01*
X58431385Y-40297833D01*
X58431384Y-40297835D01*
X58316365Y-40469973D01*
X58169973Y-40616365D01*
X57997835Y-40731384D01*
X57997834Y-40731385D01*
X57997833Y-40731385D01*
X57806564Y-40810611D01*
X57603516Y-40851000D01*
X57396484Y-40851000D01*
X57193436Y-40810611D01*
X57002167Y-40731385D01*
X57002166Y-40731385D01*
X57002165Y-40731384D01*
X56830027Y-40616365D01*
X56683635Y-40469973D01*
X56568616Y-40297835D01*
X56568615Y-40297833D01*
X56489389Y-40106564D01*
X56449000Y-39903516D01*
X56449000Y-39696484D01*
X56489389Y-39493436D01*
X56568615Y-39302167D01*
X56624789Y-39218097D01*
X56683635Y-39130027D01*
X56830027Y-38983635D01*
X57002165Y-38868616D01*
X57002167Y-38868615D01*
X57193436Y-38789389D01*
X57396484Y-38749000D01*
X57603516Y-38749000D01*
X57806564Y-38789389D01*
X57806564Y-38789389D01*
G37*
G36*
X51181938Y-39371716D02*
G01*
X51202557Y-39377971D01*
X51221553Y-39388124D01*
X51238208Y-39401792D01*
X51251876Y-39418447D01*
X51262029Y-39437443D01*
X51268284Y-39458062D01*
X51271000Y-39485640D01*
X51271000Y-39944360D01*
X51268284Y-39971938D01*
X51262029Y-39992557D01*
X51251876Y-40011553D01*
X51238208Y-40028208D01*
X51221553Y-40041876D01*
X51202557Y-40052029D01*
X51181938Y-40058284D01*
X51154360Y-40061000D01*
X50645640Y-40061000D01*
X50618062Y-40058284D01*
X50597443Y-40052029D01*
X50578447Y-40041876D01*
X50561792Y-40028208D01*
X50548124Y-40011553D01*
X50537971Y-39992557D01*
X50531716Y-39971938D01*
X50529000Y-39944360D01*
X50529000Y-39485640D01*
X50531716Y-39458062D01*
X50537971Y-39437443D01*
X50548124Y-39418447D01*
X50561792Y-39401792D01*
X50578447Y-39388124D01*
X50597443Y-39377971D01*
X50618062Y-39371716D01*
X50645640Y-39369000D01*
X51154360Y-39369000D01*
X51181938Y-39371716D01*
X51181938Y-39371716D01*
G37*
G36*
X61457096Y-38064204D02*
G01*
X61536627Y-38072037D01*
X61706466Y-38123557D01*
X61706468Y-38123558D01*
X61784729Y-38165390D01*
X61862991Y-38207222D01*
X61876199Y-38218062D01*
X62000186Y-38319814D01*
X62083448Y-38421271D01*
X62112778Y-38457009D01*
X62141015Y-38509837D01*
X62173291Y-38570219D01*
X62196443Y-38613534D01*
X62247963Y-38783373D01*
X62265359Y-38960000D01*
X62247963Y-39136627D01*
X62196443Y-39306466D01*
X62112778Y-39462991D01*
X62102269Y-39475796D01*
X62000186Y-39600186D01*
X61898729Y-39683448D01*
X61862991Y-39712778D01*
X61706466Y-39796443D01*
X61536627Y-39847963D01*
X61470442Y-39854482D01*
X61404260Y-39861000D01*
X61315740Y-39861000D01*
X61249558Y-39854482D01*
X61183373Y-39847963D01*
X61013534Y-39796443D01*
X60857009Y-39712778D01*
X60821271Y-39683448D01*
X60719814Y-39600186D01*
X60617731Y-39475796D01*
X60607222Y-39462991D01*
X60523557Y-39306466D01*
X60472037Y-39136627D01*
X60454641Y-38960000D01*
X60472037Y-38783373D01*
X60523557Y-38613534D01*
X60546710Y-38570219D01*
X60578985Y-38509837D01*
X60607222Y-38457009D01*
X60636552Y-38421271D01*
X60719814Y-38319814D01*
X60843801Y-38218062D01*
X60857009Y-38207222D01*
X60935271Y-38165390D01*
X61013532Y-38123558D01*
X61013534Y-38123557D01*
X61183373Y-38072037D01*
X61262904Y-38064204D01*
X61315740Y-38059000D01*
X61404260Y-38059000D01*
X61457096Y-38064204D01*
X61457096Y-38064204D01*
G37*
G36*
X63997096Y-38064204D02*
G01*
X64076627Y-38072037D01*
X64246466Y-38123557D01*
X64246468Y-38123558D01*
X64324729Y-38165390D01*
X64402991Y-38207222D01*
X64416199Y-38218062D01*
X64540186Y-38319814D01*
X64623448Y-38421271D01*
X64652778Y-38457009D01*
X64681015Y-38509837D01*
X64713291Y-38570219D01*
X64736443Y-38613534D01*
X64787963Y-38783373D01*
X64805359Y-38960000D01*
X64787963Y-39136627D01*
X64736443Y-39306466D01*
X64652778Y-39462991D01*
X64642269Y-39475796D01*
X64540186Y-39600186D01*
X64438729Y-39683448D01*
X64402991Y-39712778D01*
X64246466Y-39796443D01*
X64076627Y-39847963D01*
X64010442Y-39854482D01*
X63944260Y-39861000D01*
X63855740Y-39861000D01*
X63789558Y-39854482D01*
X63723373Y-39847963D01*
X63553534Y-39796443D01*
X63397009Y-39712778D01*
X63361271Y-39683448D01*
X63259814Y-39600186D01*
X63157731Y-39475796D01*
X63147222Y-39462991D01*
X63063557Y-39306466D01*
X63012037Y-39136627D01*
X62994641Y-38960000D01*
X63012037Y-38783373D01*
X63063557Y-38613534D01*
X63086710Y-38570219D01*
X63118985Y-38509837D01*
X63147222Y-38457009D01*
X63176552Y-38421271D01*
X63259814Y-38319814D01*
X63383801Y-38218062D01*
X63397009Y-38207222D01*
X63475271Y-38165390D01*
X63553532Y-38123558D01*
X63553534Y-38123557D01*
X63723373Y-38072037D01*
X63802904Y-38064204D01*
X63855740Y-38059000D01*
X63944260Y-38059000D01*
X63997096Y-38064204D01*
X63997096Y-38064204D01*
G37*
G36*
X19908600Y-37602989D02*
G01*
X19941652Y-37613015D01*
X19972103Y-37629292D01*
X19998799Y-37651201D01*
X20020708Y-37677897D01*
X20036985Y-37708348D01*
X20047011Y-37741400D01*
X20051000Y-37781903D01*
X20051000Y-39218097D01*
X20047011Y-39258600D01*
X20036985Y-39291652D01*
X20020708Y-39322103D01*
X19998799Y-39348799D01*
X19972103Y-39370708D01*
X19941652Y-39386985D01*
X19908600Y-39397011D01*
X19868097Y-39401000D01*
X18131903Y-39401000D01*
X18091400Y-39397011D01*
X18058348Y-39386985D01*
X18027897Y-39370708D01*
X18001201Y-39348799D01*
X17979292Y-39322103D01*
X17963015Y-39291652D01*
X17952989Y-39258600D01*
X17949000Y-39218097D01*
X17949000Y-37781903D01*
X17952989Y-37741400D01*
X17963015Y-37708348D01*
X17979292Y-37677897D01*
X18001201Y-37651201D01*
X18027897Y-37629292D01*
X18058348Y-37613015D01*
X18091400Y-37602989D01*
X18131903Y-37599000D01*
X19868097Y-37599000D01*
X19908600Y-37602989D01*
X19908600Y-37602989D01*
G37*
G36*
X30748254Y-35327818D02*
G01*
X31121511Y-35482426D01*
X31121513Y-35482427D01*
X31457436Y-35706884D01*
X31743116Y-35992564D01*
X31945150Y-36294928D01*
X31967574Y-36328489D01*
X32122182Y-36701746D01*
X32201000Y-37097993D01*
X32201000Y-37502007D01*
X32122182Y-37898254D01*
X31978290Y-38245640D01*
X31967573Y-38271513D01*
X31743116Y-38607436D01*
X31457436Y-38893116D01*
X31121513Y-39117573D01*
X31121512Y-39117574D01*
X31121511Y-39117574D01*
X30748254Y-39272182D01*
X30352007Y-39351000D01*
X29947993Y-39351000D01*
X29551746Y-39272182D01*
X29178489Y-39117574D01*
X29178488Y-39117574D01*
X29178487Y-39117573D01*
X28842564Y-38893116D01*
X28556884Y-38607436D01*
X28332427Y-38271513D01*
X28321710Y-38245640D01*
X28177818Y-37898254D01*
X28099000Y-37502007D01*
X28099000Y-37097993D01*
X28177818Y-36701746D01*
X28332426Y-36328489D01*
X28354851Y-36294928D01*
X28556884Y-35992564D01*
X28842564Y-35706884D01*
X29178487Y-35482427D01*
X29178489Y-35482426D01*
X29551746Y-35327818D01*
X29947993Y-35249000D01*
X30352007Y-35249000D01*
X30748254Y-35327818D01*
X30748254Y-35327818D01*
G37*
G36*
X48741938Y-38431716D02*
G01*
X48762557Y-38437971D01*
X48781553Y-38448124D01*
X48798208Y-38461792D01*
X48811876Y-38478447D01*
X48822029Y-38497443D01*
X48828284Y-38518062D01*
X48831000Y-38545640D01*
X48831000Y-39054360D01*
X48828284Y-39081938D01*
X48822029Y-39102557D01*
X48811876Y-39121553D01*
X48798208Y-39138208D01*
X48781553Y-39151876D01*
X48762557Y-39162029D01*
X48741938Y-39168284D01*
X48714360Y-39171000D01*
X48255640Y-39171000D01*
X48228062Y-39168284D01*
X48207443Y-39162029D01*
X48188447Y-39151876D01*
X48171792Y-39138208D01*
X48158124Y-39121553D01*
X48147971Y-39102557D01*
X48141716Y-39081938D01*
X48139000Y-39054360D01*
X48139000Y-38545640D01*
X48141716Y-38518062D01*
X48147971Y-38497443D01*
X48158124Y-38478447D01*
X48171792Y-38461792D01*
X48188447Y-38448124D01*
X48207443Y-38437971D01*
X48228062Y-38431716D01*
X48255640Y-38429000D01*
X48714360Y-38429000D01*
X48741938Y-38431716D01*
X48741938Y-38431716D01*
G37*
G36*
X47771938Y-38431716D02*
G01*
X47792557Y-38437971D01*
X47811553Y-38448124D01*
X47828208Y-38461792D01*
X47841876Y-38478447D01*
X47852029Y-38497443D01*
X47858284Y-38518062D01*
X47861000Y-38545640D01*
X47861000Y-39054360D01*
X47858284Y-39081938D01*
X47852029Y-39102557D01*
X47841876Y-39121553D01*
X47828208Y-39138208D01*
X47811553Y-39151876D01*
X47792557Y-39162029D01*
X47771938Y-39168284D01*
X47744360Y-39171000D01*
X47285640Y-39171000D01*
X47258062Y-39168284D01*
X47237443Y-39162029D01*
X47218447Y-39151876D01*
X47201792Y-39138208D01*
X47188124Y-39121553D01*
X47177971Y-39102557D01*
X47171716Y-39081938D01*
X47169000Y-39054360D01*
X47169000Y-38545640D01*
X47171716Y-38518062D01*
X47177971Y-38497443D01*
X47188124Y-38478447D01*
X47201792Y-38461792D01*
X47218447Y-38448124D01*
X47237443Y-38437971D01*
X47258062Y-38431716D01*
X47285640Y-38429000D01*
X47744360Y-38429000D01*
X47771938Y-38431716D01*
X47771938Y-38431716D01*
G37*
G36*
X39571938Y-38131716D02*
G01*
X39592557Y-38137971D01*
X39611553Y-38148124D01*
X39628208Y-38161792D01*
X39641876Y-38178447D01*
X39652029Y-38197443D01*
X39658284Y-38218062D01*
X39661000Y-38245640D01*
X39661000Y-38754360D01*
X39658284Y-38781938D01*
X39652029Y-38802557D01*
X39641876Y-38821553D01*
X39628208Y-38838208D01*
X39611553Y-38851876D01*
X39592557Y-38862029D01*
X39571938Y-38868284D01*
X39544360Y-38871000D01*
X39085640Y-38871000D01*
X39058062Y-38868284D01*
X39037443Y-38862029D01*
X39018447Y-38851876D01*
X39001792Y-38838208D01*
X38988124Y-38821553D01*
X38977971Y-38802557D01*
X38971716Y-38781938D01*
X38969000Y-38754360D01*
X38969000Y-38245640D01*
X38971716Y-38218062D01*
X38977971Y-38197443D01*
X38988124Y-38178447D01*
X39001792Y-38161792D01*
X39018447Y-38148124D01*
X39037443Y-38137971D01*
X39058062Y-38131716D01*
X39085640Y-38129000D01*
X39544360Y-38129000D01*
X39571938Y-38131716D01*
X39571938Y-38131716D01*
G37*
G36*
X40541938Y-38131716D02*
G01*
X40562557Y-38137971D01*
X40581553Y-38148124D01*
X40598208Y-38161792D01*
X40611876Y-38178447D01*
X40622029Y-38197443D01*
X40628284Y-38218062D01*
X40631000Y-38245640D01*
X40631000Y-38754360D01*
X40628284Y-38781938D01*
X40622029Y-38802557D01*
X40611876Y-38821553D01*
X40598208Y-38838208D01*
X40581553Y-38851876D01*
X40562557Y-38862029D01*
X40541938Y-38868284D01*
X40514360Y-38871000D01*
X40055640Y-38871000D01*
X40028062Y-38868284D01*
X40007443Y-38862029D01*
X39988447Y-38851876D01*
X39971792Y-38838208D01*
X39958124Y-38821553D01*
X39947971Y-38802557D01*
X39941716Y-38781938D01*
X39939000Y-38754360D01*
X39939000Y-38245640D01*
X39941716Y-38218062D01*
X39947971Y-38197443D01*
X39958124Y-38178447D01*
X39971792Y-38161792D01*
X39988447Y-38148124D01*
X40007443Y-38137971D01*
X40028062Y-38131716D01*
X40055640Y-38129000D01*
X40514360Y-38129000D01*
X40541938Y-38131716D01*
X40541938Y-38131716D01*
G37*
G36*
X35133642Y-37029781D02*
G01*
X35238319Y-37073140D01*
X35279416Y-37090163D01*
X35410608Y-37177822D01*
X35522178Y-37289392D01*
X35609837Y-37420584D01*
X35609838Y-37420586D01*
X35670219Y-37566358D01*
X35701000Y-37721107D01*
X35701000Y-37878893D01*
X35670219Y-38033642D01*
X35609838Y-38179414D01*
X35609837Y-38179416D01*
X35522178Y-38310608D01*
X35410608Y-38422178D01*
X35279416Y-38509837D01*
X35279415Y-38509838D01*
X35279414Y-38509838D01*
X35133642Y-38570219D01*
X34978893Y-38601000D01*
X34821107Y-38601000D01*
X34666358Y-38570219D01*
X34520586Y-38509838D01*
X34520585Y-38509838D01*
X34520584Y-38509837D01*
X34389392Y-38422178D01*
X34277822Y-38310608D01*
X34190163Y-38179416D01*
X34190162Y-38179414D01*
X34129781Y-38033642D01*
X34099000Y-37878893D01*
X34099000Y-37721107D01*
X34129781Y-37566358D01*
X34190162Y-37420586D01*
X34190163Y-37420584D01*
X34277822Y-37289392D01*
X34389392Y-37177822D01*
X34520584Y-37090163D01*
X34561681Y-37073140D01*
X34666358Y-37029781D01*
X34821107Y-36999000D01*
X34978893Y-36999000D01*
X35133642Y-37029781D01*
X35133642Y-37029781D01*
G37*
G36*
X42541938Y-37431716D02*
G01*
X42562557Y-37437971D01*
X42581553Y-37448124D01*
X42598208Y-37461792D01*
X42611876Y-37478447D01*
X42622029Y-37497443D01*
X42628284Y-37518062D01*
X42631000Y-37545640D01*
X42631000Y-38054360D01*
X42628284Y-38081938D01*
X42622029Y-38102557D01*
X42611876Y-38121553D01*
X42598208Y-38138208D01*
X42581553Y-38151876D01*
X42562557Y-38162029D01*
X42541938Y-38168284D01*
X42514360Y-38171000D01*
X42055640Y-38171000D01*
X42028062Y-38168284D01*
X42007443Y-38162029D01*
X41988447Y-38151876D01*
X41971792Y-38138208D01*
X41958124Y-38121553D01*
X41947971Y-38102557D01*
X41941716Y-38081938D01*
X41939000Y-38054360D01*
X41939000Y-37545640D01*
X41941716Y-37518062D01*
X41947971Y-37497443D01*
X41958124Y-37478447D01*
X41971792Y-37461792D01*
X41988447Y-37448124D01*
X42007443Y-37437971D01*
X42028062Y-37431716D01*
X42055640Y-37429000D01*
X42514360Y-37429000D01*
X42541938Y-37431716D01*
X42541938Y-37431716D01*
G37*
G36*
X41571938Y-37431716D02*
G01*
X41592557Y-37437971D01*
X41611553Y-37448124D01*
X41628208Y-37461792D01*
X41641876Y-37478447D01*
X41652029Y-37497443D01*
X41658284Y-37518062D01*
X41661000Y-37545640D01*
X41661000Y-38054360D01*
X41658284Y-38081938D01*
X41652029Y-38102557D01*
X41641876Y-38121553D01*
X41628208Y-38138208D01*
X41611553Y-38151876D01*
X41592557Y-38162029D01*
X41571938Y-38168284D01*
X41544360Y-38171000D01*
X41085640Y-38171000D01*
X41058062Y-38168284D01*
X41037443Y-38162029D01*
X41018447Y-38151876D01*
X41001792Y-38138208D01*
X40988124Y-38121553D01*
X40977971Y-38102557D01*
X40971716Y-38081938D01*
X40969000Y-38054360D01*
X40969000Y-37545640D01*
X40971716Y-37518062D01*
X40977971Y-37497443D01*
X40988124Y-37478447D01*
X41001792Y-37461792D01*
X41018447Y-37448124D01*
X41037443Y-37437971D01*
X41058062Y-37431716D01*
X41085640Y-37429000D01*
X41544360Y-37429000D01*
X41571938Y-37431716D01*
X41571938Y-37431716D01*
G37*
G36*
X56151000Y-37901000D02*
G01*
X54249000Y-37901000D01*
X54249000Y-36799000D01*
X56151000Y-36799000D01*
X56151000Y-37901000D01*
X56151000Y-37901000D01*
G37*
G36*
X53609928Y-36956764D02*
G01*
X53631009Y-36963160D01*
X53650445Y-36973548D01*
X53667476Y-36987524D01*
X53681452Y-37004555D01*
X53691840Y-37023991D01*
X53698236Y-37045072D01*
X53701000Y-37073140D01*
X53701000Y-37536860D01*
X53698236Y-37564928D01*
X53691840Y-37586009D01*
X53681452Y-37605445D01*
X53667476Y-37622476D01*
X53650445Y-37636452D01*
X53631009Y-37646840D01*
X53609928Y-37653236D01*
X53581860Y-37656000D01*
X51768140Y-37656000D01*
X51740072Y-37653236D01*
X51718991Y-37646840D01*
X51699555Y-37636452D01*
X51682524Y-37622476D01*
X51668548Y-37605445D01*
X51658160Y-37586009D01*
X51651764Y-37564928D01*
X51649000Y-37536860D01*
X51649000Y-37073140D01*
X51651764Y-37045072D01*
X51658160Y-37023991D01*
X51668548Y-37004555D01*
X51682524Y-36987524D01*
X51699555Y-36973548D01*
X51718991Y-36963160D01*
X51740072Y-36956764D01*
X51768140Y-36954000D01*
X53581860Y-36954000D01*
X53609928Y-36956764D01*
X53609928Y-36956764D01*
G37*
G36*
X48659928Y-36956764D02*
G01*
X48681009Y-36963160D01*
X48700445Y-36973548D01*
X48717476Y-36987524D01*
X48731452Y-37004555D01*
X48741840Y-37023991D01*
X48748236Y-37045072D01*
X48751000Y-37073140D01*
X48751000Y-37536860D01*
X48748236Y-37564928D01*
X48741840Y-37586009D01*
X48731452Y-37605445D01*
X48717476Y-37622476D01*
X48700445Y-37636452D01*
X48681009Y-37646840D01*
X48659928Y-37653236D01*
X48631860Y-37656000D01*
X46818140Y-37656000D01*
X46790072Y-37653236D01*
X46768991Y-37646840D01*
X46749555Y-37636452D01*
X46732524Y-37622476D01*
X46718548Y-37605445D01*
X46708160Y-37586009D01*
X46701764Y-37564928D01*
X46699000Y-37536860D01*
X46699000Y-37073140D01*
X46701764Y-37045072D01*
X46708160Y-37023991D01*
X46718548Y-37004555D01*
X46732524Y-36987524D01*
X46749555Y-36973548D01*
X46768991Y-36963160D01*
X46790072Y-36956764D01*
X46818140Y-36954000D01*
X48631860Y-36954000D01*
X48659928Y-36956764D01*
X48659928Y-36956764D01*
G37*
G36*
X61470443Y-35525519D02*
G01*
X61536627Y-35532037D01*
X61706466Y-35583557D01*
X61862991Y-35667222D01*
X61894596Y-35693160D01*
X62000186Y-35779814D01*
X62072685Y-35868156D01*
X62112778Y-35917009D01*
X62196443Y-36073534D01*
X62247963Y-36243373D01*
X62265359Y-36420000D01*
X62247963Y-36596627D01*
X62196443Y-36766466D01*
X62112778Y-36922991D01*
X62087329Y-36954000D01*
X62000186Y-37060186D01*
X61915725Y-37129500D01*
X61862991Y-37172778D01*
X61706466Y-37256443D01*
X61536627Y-37307963D01*
X61470442Y-37314482D01*
X61404260Y-37321000D01*
X61315740Y-37321000D01*
X61249558Y-37314482D01*
X61183373Y-37307963D01*
X61013534Y-37256443D01*
X60857009Y-37172778D01*
X60804275Y-37129500D01*
X60719814Y-37060186D01*
X60632671Y-36954000D01*
X60607222Y-36922991D01*
X60523557Y-36766466D01*
X60472037Y-36596627D01*
X60454641Y-36420000D01*
X60472037Y-36243373D01*
X60523557Y-36073534D01*
X60607222Y-35917009D01*
X60647315Y-35868156D01*
X60719814Y-35779814D01*
X60825404Y-35693160D01*
X60857009Y-35667222D01*
X61013534Y-35583557D01*
X61183373Y-35532037D01*
X61249557Y-35525519D01*
X61315740Y-35519000D01*
X61404260Y-35519000D01*
X61470443Y-35525519D01*
X61470443Y-35525519D01*
G37*
G36*
X64010443Y-35525519D02*
G01*
X64076627Y-35532037D01*
X64246466Y-35583557D01*
X64402991Y-35667222D01*
X64434596Y-35693160D01*
X64540186Y-35779814D01*
X64612685Y-35868156D01*
X64652778Y-35917009D01*
X64736443Y-36073534D01*
X64787963Y-36243373D01*
X64805359Y-36420000D01*
X64787963Y-36596627D01*
X64736443Y-36766466D01*
X64652778Y-36922991D01*
X64627329Y-36954000D01*
X64540186Y-37060186D01*
X64455725Y-37129500D01*
X64402991Y-37172778D01*
X64246466Y-37256443D01*
X64076627Y-37307963D01*
X64010442Y-37314482D01*
X63944260Y-37321000D01*
X63855740Y-37321000D01*
X63789558Y-37314482D01*
X63723373Y-37307963D01*
X63553534Y-37256443D01*
X63397009Y-37172778D01*
X63344275Y-37129500D01*
X63259814Y-37060186D01*
X63172671Y-36954000D01*
X63147222Y-36922991D01*
X63063557Y-36766466D01*
X63012037Y-36596627D01*
X62994641Y-36420000D01*
X63012037Y-36243373D01*
X63063557Y-36073534D01*
X63147222Y-35917009D01*
X63187315Y-35868156D01*
X63259814Y-35779814D01*
X63365404Y-35693160D01*
X63397009Y-35667222D01*
X63553534Y-35583557D01*
X63723373Y-35532037D01*
X63789557Y-35525519D01*
X63855740Y-35519000D01*
X63944260Y-35519000D01*
X64010443Y-35525519D01*
X64010443Y-35525519D01*
G37*
G36*
X42176000Y-37051000D02*
G01*
X39824000Y-37051000D01*
X39824000Y-35349000D01*
X42176000Y-35349000D01*
X42176000Y-37051000D01*
X42176000Y-37051000D01*
G37*
G36*
X19260442Y-35105518D02*
G01*
X19326627Y-35112037D01*
X19496466Y-35163557D01*
X19652991Y-35247222D01*
X19655157Y-35249000D01*
X19790186Y-35359814D01*
X19859570Y-35444360D01*
X19902778Y-35497009D01*
X19986443Y-35653534D01*
X20037963Y-35823373D01*
X20055359Y-36000000D01*
X20037963Y-36176627D01*
X19991896Y-36328489D01*
X19986442Y-36346468D01*
X19950153Y-36414360D01*
X19902778Y-36502991D01*
X19895486Y-36511876D01*
X19790186Y-36640186D01*
X19688729Y-36723448D01*
X19652991Y-36752778D01*
X19496466Y-36836443D01*
X19326627Y-36887963D01*
X19260443Y-36894481D01*
X19194260Y-36901000D01*
X18805740Y-36901000D01*
X18739557Y-36894481D01*
X18673373Y-36887963D01*
X18503534Y-36836443D01*
X18347009Y-36752778D01*
X18311271Y-36723448D01*
X18209814Y-36640186D01*
X18104514Y-36511876D01*
X18097222Y-36502991D01*
X18049847Y-36414360D01*
X18013558Y-36346468D01*
X18008104Y-36328489D01*
X17962037Y-36176627D01*
X17944641Y-36000000D01*
X17962037Y-35823373D01*
X18013557Y-35653534D01*
X18097222Y-35497009D01*
X18140430Y-35444360D01*
X18209814Y-35359814D01*
X18344843Y-35249000D01*
X18347009Y-35247222D01*
X18503534Y-35163557D01*
X18673373Y-35112037D01*
X18739558Y-35105518D01*
X18805740Y-35099000D01*
X19194260Y-35099000D01*
X19260442Y-35105518D01*
X19260442Y-35105518D01*
G37*
G36*
X37781938Y-35841716D02*
G01*
X37802557Y-35847971D01*
X37821553Y-35858124D01*
X37838208Y-35871792D01*
X37851876Y-35888447D01*
X37862029Y-35907443D01*
X37868284Y-35928062D01*
X37871000Y-35955640D01*
X37871000Y-36414360D01*
X37868284Y-36441938D01*
X37862029Y-36462557D01*
X37851876Y-36481553D01*
X37838208Y-36498208D01*
X37821553Y-36511876D01*
X37802557Y-36522029D01*
X37781938Y-36528284D01*
X37754360Y-36531000D01*
X37245640Y-36531000D01*
X37218062Y-36528284D01*
X37197443Y-36522029D01*
X37178447Y-36511876D01*
X37161792Y-36498208D01*
X37148124Y-36481553D01*
X37137971Y-36462557D01*
X37131716Y-36441938D01*
X37129000Y-36414360D01*
X37129000Y-35955640D01*
X37131716Y-35928062D01*
X37137971Y-35907443D01*
X37148124Y-35888447D01*
X37161792Y-35871792D01*
X37178447Y-35858124D01*
X37197443Y-35847971D01*
X37218062Y-35841716D01*
X37245640Y-35839000D01*
X37754360Y-35839000D01*
X37781938Y-35841716D01*
X37781938Y-35841716D01*
G37*
G36*
X38981938Y-35841716D02*
G01*
X39002557Y-35847971D01*
X39021553Y-35858124D01*
X39038208Y-35871792D01*
X39051876Y-35888447D01*
X39062029Y-35907443D01*
X39068284Y-35928062D01*
X39071000Y-35955640D01*
X39071000Y-36414360D01*
X39068284Y-36441938D01*
X39062029Y-36462557D01*
X39051876Y-36481553D01*
X39038208Y-36498208D01*
X39021553Y-36511876D01*
X39002557Y-36522029D01*
X38981938Y-36528284D01*
X38954360Y-36531000D01*
X38445640Y-36531000D01*
X38418062Y-36528284D01*
X38397443Y-36522029D01*
X38378447Y-36511876D01*
X38361792Y-36498208D01*
X38348124Y-36481553D01*
X38337971Y-36462557D01*
X38331716Y-36441938D01*
X38329000Y-36414360D01*
X38329000Y-35955640D01*
X38331716Y-35928062D01*
X38337971Y-35907443D01*
X38348124Y-35888447D01*
X38361792Y-35871792D01*
X38378447Y-35858124D01*
X38397443Y-35847971D01*
X38418062Y-35841716D01*
X38445640Y-35839000D01*
X38954360Y-35839000D01*
X38981938Y-35841716D01*
X38981938Y-35841716D01*
G37*
G36*
X36076000Y-36501000D02*
G01*
X35524000Y-36501000D01*
X35524000Y-35799000D01*
X36076000Y-35799000D01*
X36076000Y-36501000D01*
X36076000Y-36501000D01*
G37*
G36*
X53609928Y-35686764D02*
G01*
X53631009Y-35693160D01*
X53650445Y-35703548D01*
X53667476Y-35717524D01*
X53681452Y-35734555D01*
X53691840Y-35753991D01*
X53698236Y-35775072D01*
X53701000Y-35803140D01*
X53701000Y-36266860D01*
X53698236Y-36294928D01*
X53691840Y-36316009D01*
X53681452Y-36335445D01*
X53667476Y-36352476D01*
X53650445Y-36366452D01*
X53631009Y-36376840D01*
X53609928Y-36383236D01*
X53581860Y-36386000D01*
X51768140Y-36386000D01*
X51740072Y-36383236D01*
X51718991Y-36376840D01*
X51699555Y-36366452D01*
X51682524Y-36352476D01*
X51668548Y-36335445D01*
X51658160Y-36316009D01*
X51651764Y-36294928D01*
X51649000Y-36266860D01*
X51649000Y-35803140D01*
X51651764Y-35775072D01*
X51658160Y-35753991D01*
X51668548Y-35734555D01*
X51682524Y-35717524D01*
X51699555Y-35703548D01*
X51718991Y-35693160D01*
X51740072Y-35686764D01*
X51768140Y-35684000D01*
X53581860Y-35684000D01*
X53609928Y-35686764D01*
X53609928Y-35686764D01*
G37*
G36*
X48659928Y-35686764D02*
G01*
X48681009Y-35693160D01*
X48700445Y-35703548D01*
X48717476Y-35717524D01*
X48731452Y-35734555D01*
X48741840Y-35753991D01*
X48748236Y-35775072D01*
X48751000Y-35803140D01*
X48751000Y-36266860D01*
X48748236Y-36294928D01*
X48741840Y-36316009D01*
X48731452Y-36335445D01*
X48717476Y-36352476D01*
X48700445Y-36366452D01*
X48681009Y-36376840D01*
X48659928Y-36383236D01*
X48631860Y-36386000D01*
X46818140Y-36386000D01*
X46790072Y-36383236D01*
X46768991Y-36376840D01*
X46749555Y-36366452D01*
X46732524Y-36352476D01*
X46718548Y-36335445D01*
X46708160Y-36316009D01*
X46701764Y-36294928D01*
X46699000Y-36266860D01*
X46699000Y-35803140D01*
X46701764Y-35775072D01*
X46708160Y-35753991D01*
X46718548Y-35734555D01*
X46732524Y-35717524D01*
X46749555Y-35703548D01*
X46768991Y-35693160D01*
X46790072Y-35686764D01*
X46818140Y-35684000D01*
X48631860Y-35684000D01*
X48659928Y-35686764D01*
X48659928Y-35686764D01*
G37*
G36*
X44581938Y-35041716D02*
G01*
X44602557Y-35047971D01*
X44621553Y-35058124D01*
X44638208Y-35071792D01*
X44651876Y-35088447D01*
X44662029Y-35107443D01*
X44668284Y-35128062D01*
X44671000Y-35155640D01*
X44671000Y-35614360D01*
X44668284Y-35641938D01*
X44662029Y-35662557D01*
X44651876Y-35681553D01*
X44638208Y-35698208D01*
X44621553Y-35711876D01*
X44602557Y-35722029D01*
X44581938Y-35728284D01*
X44554360Y-35731000D01*
X44045640Y-35731000D01*
X44018062Y-35728284D01*
X43997443Y-35722029D01*
X43978447Y-35711876D01*
X43961792Y-35698208D01*
X43948124Y-35681553D01*
X43937971Y-35662557D01*
X43931716Y-35641938D01*
X43929000Y-35614360D01*
X43929000Y-35155640D01*
X43931716Y-35128062D01*
X43937971Y-35107443D01*
X43948124Y-35088447D01*
X43961792Y-35071792D01*
X43978447Y-35058124D01*
X43997443Y-35047971D01*
X44018062Y-35041716D01*
X44045640Y-35039000D01*
X44554360Y-35039000D01*
X44581938Y-35041716D01*
X44581938Y-35041716D01*
G37*
G36*
X43481938Y-35041716D02*
G01*
X43502557Y-35047971D01*
X43521553Y-35058124D01*
X43538208Y-35071792D01*
X43551876Y-35088447D01*
X43562029Y-35107443D01*
X43568284Y-35128062D01*
X43571000Y-35155640D01*
X43571000Y-35614360D01*
X43568284Y-35641938D01*
X43562029Y-35662557D01*
X43551876Y-35681553D01*
X43538208Y-35698208D01*
X43521553Y-35711876D01*
X43502557Y-35722029D01*
X43481938Y-35728284D01*
X43454360Y-35731000D01*
X42945640Y-35731000D01*
X42918062Y-35728284D01*
X42897443Y-35722029D01*
X42878447Y-35711876D01*
X42861792Y-35698208D01*
X42848124Y-35681553D01*
X42837971Y-35662557D01*
X42831716Y-35641938D01*
X42829000Y-35614360D01*
X42829000Y-35155640D01*
X42831716Y-35128062D01*
X42837971Y-35107443D01*
X42848124Y-35088447D01*
X42861792Y-35071792D01*
X42878447Y-35058124D01*
X42897443Y-35047971D01*
X42918062Y-35041716D01*
X42945640Y-35039000D01*
X43454360Y-35039000D01*
X43481938Y-35041716D01*
X43481938Y-35041716D01*
G37*
G36*
X37781938Y-34871716D02*
G01*
X37802557Y-34877971D01*
X37821553Y-34888124D01*
X37838208Y-34901792D01*
X37851876Y-34918447D01*
X37862029Y-34937443D01*
X37868284Y-34958062D01*
X37871000Y-34985640D01*
X37871000Y-35444360D01*
X37868284Y-35471938D01*
X37862029Y-35492557D01*
X37851876Y-35511553D01*
X37838208Y-35528208D01*
X37821553Y-35541876D01*
X37802557Y-35552029D01*
X37781938Y-35558284D01*
X37754360Y-35561000D01*
X37245640Y-35561000D01*
X37218062Y-35558284D01*
X37197443Y-35552029D01*
X37178447Y-35541876D01*
X37161792Y-35528208D01*
X37148124Y-35511553D01*
X37137971Y-35492557D01*
X37131716Y-35471938D01*
X37129000Y-35444360D01*
X37129000Y-34985640D01*
X37131716Y-34958062D01*
X37137971Y-34937443D01*
X37148124Y-34918447D01*
X37161792Y-34901792D01*
X37178447Y-34888124D01*
X37197443Y-34877971D01*
X37218062Y-34871716D01*
X37245640Y-34869000D01*
X37754360Y-34869000D01*
X37781938Y-34871716D01*
X37781938Y-34871716D01*
G37*
G36*
X38981938Y-34871716D02*
G01*
X39002557Y-34877971D01*
X39021553Y-34888124D01*
X39038208Y-34901792D01*
X39051876Y-34918447D01*
X39062029Y-34937443D01*
X39068284Y-34958062D01*
X39071000Y-34985640D01*
X39071000Y-35444360D01*
X39068284Y-35471938D01*
X39062029Y-35492557D01*
X39051876Y-35511553D01*
X39038208Y-35528208D01*
X39021553Y-35541876D01*
X39002557Y-35552029D01*
X38981938Y-35558284D01*
X38954360Y-35561000D01*
X38445640Y-35561000D01*
X38418062Y-35558284D01*
X38397443Y-35552029D01*
X38378447Y-35541876D01*
X38361792Y-35528208D01*
X38348124Y-35511553D01*
X38337971Y-35492557D01*
X38331716Y-35471938D01*
X38329000Y-35444360D01*
X38329000Y-34985640D01*
X38331716Y-34958062D01*
X38337971Y-34937443D01*
X38348124Y-34918447D01*
X38361792Y-34901792D01*
X38378447Y-34888124D01*
X38397443Y-34877971D01*
X38418062Y-34871716D01*
X38445640Y-34869000D01*
X38954360Y-34869000D01*
X38981938Y-34871716D01*
X38981938Y-34871716D01*
G37*
G36*
X56151000Y-35401000D02*
G01*
X54249000Y-35401000D01*
X54249000Y-34299000D01*
X56151000Y-34299000D01*
X56151000Y-35401000D01*
X56151000Y-35401000D01*
G37*
G36*
X48659928Y-34416764D02*
G01*
X48681009Y-34423160D01*
X48700445Y-34433548D01*
X48717476Y-34447524D01*
X48731452Y-34464555D01*
X48741840Y-34483991D01*
X48748236Y-34505072D01*
X48751000Y-34533140D01*
X48751000Y-34996860D01*
X48748236Y-35024928D01*
X48741840Y-35046009D01*
X48731452Y-35065445D01*
X48717476Y-35082476D01*
X48700445Y-35096452D01*
X48681009Y-35106840D01*
X48659928Y-35113236D01*
X48631860Y-35116000D01*
X46818140Y-35116000D01*
X46790072Y-35113236D01*
X46768991Y-35106840D01*
X46749555Y-35096452D01*
X46732524Y-35082476D01*
X46718548Y-35065445D01*
X46708160Y-35046009D01*
X46701764Y-35024928D01*
X46699000Y-34996860D01*
X46699000Y-34533140D01*
X46701764Y-34505072D01*
X46708160Y-34483991D01*
X46718548Y-34464555D01*
X46732524Y-34447524D01*
X46749555Y-34433548D01*
X46768991Y-34423160D01*
X46790072Y-34416764D01*
X46818140Y-34414000D01*
X48631860Y-34414000D01*
X48659928Y-34416764D01*
X48659928Y-34416764D01*
G37*
G36*
X53609928Y-34416764D02*
G01*
X53631009Y-34423160D01*
X53650445Y-34433548D01*
X53667476Y-34447524D01*
X53681452Y-34464555D01*
X53691840Y-34483991D01*
X53698236Y-34505072D01*
X53701000Y-34533140D01*
X53701000Y-34996860D01*
X53698236Y-35024928D01*
X53691840Y-35046009D01*
X53681452Y-35065445D01*
X53667476Y-35082476D01*
X53650445Y-35096452D01*
X53631009Y-35106840D01*
X53609928Y-35113236D01*
X53581860Y-35116000D01*
X51768140Y-35116000D01*
X51740072Y-35113236D01*
X51718991Y-35106840D01*
X51699555Y-35096452D01*
X51682524Y-35082476D01*
X51668548Y-35065445D01*
X51658160Y-35046009D01*
X51651764Y-35024928D01*
X51649000Y-34996860D01*
X51649000Y-34533140D01*
X51651764Y-34505072D01*
X51658160Y-34483991D01*
X51668548Y-34464555D01*
X51682524Y-34447524D01*
X51699555Y-34433548D01*
X51718991Y-34423160D01*
X51740072Y-34416764D01*
X51768140Y-34414000D01*
X53581860Y-34414000D01*
X53609928Y-34416764D01*
X53609928Y-34416764D01*
G37*
G36*
X43481938Y-34071716D02*
G01*
X43502557Y-34077971D01*
X43521553Y-34088124D01*
X43538208Y-34101792D01*
X43551876Y-34118447D01*
X43562029Y-34137443D01*
X43568284Y-34158062D01*
X43571000Y-34185640D01*
X43571000Y-34644360D01*
X43568284Y-34671938D01*
X43562029Y-34692557D01*
X43551876Y-34711553D01*
X43538208Y-34728208D01*
X43521553Y-34741876D01*
X43502557Y-34752029D01*
X43481938Y-34758284D01*
X43454360Y-34761000D01*
X42945640Y-34761000D01*
X42918062Y-34758284D01*
X42897443Y-34752029D01*
X42878447Y-34741876D01*
X42861792Y-34728208D01*
X42848124Y-34711553D01*
X42837971Y-34692557D01*
X42831716Y-34671938D01*
X42829000Y-34644360D01*
X42829000Y-34185640D01*
X42831716Y-34158062D01*
X42837971Y-34137443D01*
X42848124Y-34118447D01*
X42861792Y-34101792D01*
X42878447Y-34088124D01*
X42897443Y-34077971D01*
X42918062Y-34071716D01*
X42945640Y-34069000D01*
X43454360Y-34069000D01*
X43481938Y-34071716D01*
X43481938Y-34071716D01*
G37*
G36*
X44581938Y-34071716D02*
G01*
X44602557Y-34077971D01*
X44621553Y-34088124D01*
X44638208Y-34101792D01*
X44651876Y-34118447D01*
X44662029Y-34137443D01*
X44668284Y-34158062D01*
X44671000Y-34185640D01*
X44671000Y-34644360D01*
X44668284Y-34671938D01*
X44662029Y-34692557D01*
X44651876Y-34711553D01*
X44638208Y-34728208D01*
X44621553Y-34741876D01*
X44602557Y-34752029D01*
X44581938Y-34758284D01*
X44554360Y-34761000D01*
X44045640Y-34761000D01*
X44018062Y-34758284D01*
X43997443Y-34752029D01*
X43978447Y-34741876D01*
X43961792Y-34728208D01*
X43948124Y-34711553D01*
X43937971Y-34692557D01*
X43931716Y-34671938D01*
X43929000Y-34644360D01*
X43929000Y-34185640D01*
X43931716Y-34158062D01*
X43937971Y-34137443D01*
X43948124Y-34118447D01*
X43961792Y-34101792D01*
X43978447Y-34088124D01*
X43997443Y-34077971D01*
X44018062Y-34071716D01*
X44045640Y-34069000D01*
X44554360Y-34069000D01*
X44581938Y-34071716D01*
X44581938Y-34071716D01*
G37*
G36*
X38941938Y-33731716D02*
G01*
X38962557Y-33737971D01*
X38981553Y-33748124D01*
X38998208Y-33761792D01*
X39011876Y-33778447D01*
X39022029Y-33797443D01*
X39028284Y-33818062D01*
X39031000Y-33845640D01*
X39031000Y-34354360D01*
X39028284Y-34381938D01*
X39022029Y-34402557D01*
X39011876Y-34421553D01*
X38998208Y-34438208D01*
X38981553Y-34451876D01*
X38962557Y-34462029D01*
X38941938Y-34468284D01*
X38914360Y-34471000D01*
X38455640Y-34471000D01*
X38428062Y-34468284D01*
X38407443Y-34462029D01*
X38388447Y-34451876D01*
X38371792Y-34438208D01*
X38358124Y-34421553D01*
X38347971Y-34402557D01*
X38341716Y-34381938D01*
X38339000Y-34354360D01*
X38339000Y-33845640D01*
X38341716Y-33818062D01*
X38347971Y-33797443D01*
X38358124Y-33778447D01*
X38371792Y-33761792D01*
X38388447Y-33748124D01*
X38407443Y-33737971D01*
X38428062Y-33731716D01*
X38455640Y-33729000D01*
X38914360Y-33729000D01*
X38941938Y-33731716D01*
X38941938Y-33731716D01*
G37*
G36*
X37971938Y-33731716D02*
G01*
X37992557Y-33737971D01*
X38011553Y-33748124D01*
X38028208Y-33761792D01*
X38041876Y-33778447D01*
X38052029Y-33797443D01*
X38058284Y-33818062D01*
X38061000Y-33845640D01*
X38061000Y-34354360D01*
X38058284Y-34381938D01*
X38052029Y-34402557D01*
X38041876Y-34421553D01*
X38028208Y-34438208D01*
X38011553Y-34451876D01*
X37992557Y-34462029D01*
X37971938Y-34468284D01*
X37944360Y-34471000D01*
X37485640Y-34471000D01*
X37458062Y-34468284D01*
X37437443Y-34462029D01*
X37418447Y-34451876D01*
X37401792Y-34438208D01*
X37388124Y-34421553D01*
X37377971Y-34402557D01*
X37371716Y-34381938D01*
X37369000Y-34354360D01*
X37369000Y-33845640D01*
X37371716Y-33818062D01*
X37377971Y-33797443D01*
X37388124Y-33778447D01*
X37401792Y-33761792D01*
X37418447Y-33748124D01*
X37437443Y-33737971D01*
X37458062Y-33731716D01*
X37485640Y-33729000D01*
X37944360Y-33729000D01*
X37971938Y-33731716D01*
X37971938Y-33731716D01*
G37*
G36*
X36076000Y-34401000D02*
G01*
X35524000Y-34401000D01*
X35524000Y-33699000D01*
X36076000Y-33699000D01*
X36076000Y-34401000D01*
X36076000Y-34401000D01*
G37*
G36*
X48659928Y-33146764D02*
G01*
X48681009Y-33153160D01*
X48700445Y-33163548D01*
X48717476Y-33177524D01*
X48731452Y-33194555D01*
X48741840Y-33213991D01*
X48748236Y-33235072D01*
X48751000Y-33263140D01*
X48751000Y-33726860D01*
X48748236Y-33754928D01*
X48741840Y-33776009D01*
X48731452Y-33795445D01*
X48717476Y-33812476D01*
X48700445Y-33826452D01*
X48681009Y-33836840D01*
X48659928Y-33843236D01*
X48631860Y-33846000D01*
X46818140Y-33846000D01*
X46790072Y-33843236D01*
X46768991Y-33836840D01*
X46749555Y-33826452D01*
X46732524Y-33812476D01*
X46718548Y-33795445D01*
X46708160Y-33776009D01*
X46701764Y-33754928D01*
X46699000Y-33726860D01*
X46699000Y-33263140D01*
X46701764Y-33235072D01*
X46708160Y-33213991D01*
X46718548Y-33194555D01*
X46732524Y-33177524D01*
X46749555Y-33163548D01*
X46768991Y-33153160D01*
X46790072Y-33146764D01*
X46818140Y-33144000D01*
X48631860Y-33144000D01*
X48659928Y-33146764D01*
X48659928Y-33146764D01*
G37*
G36*
X53609928Y-33146764D02*
G01*
X53631009Y-33153160D01*
X53650445Y-33163548D01*
X53667476Y-33177524D01*
X53681452Y-33194555D01*
X53691840Y-33213991D01*
X53698236Y-33235072D01*
X53701000Y-33263140D01*
X53701000Y-33726860D01*
X53698236Y-33754928D01*
X53691840Y-33776009D01*
X53681452Y-33795445D01*
X53667476Y-33812476D01*
X53650445Y-33826452D01*
X53631009Y-33836840D01*
X53609928Y-33843236D01*
X53581860Y-33846000D01*
X51768140Y-33846000D01*
X51740072Y-33843236D01*
X51718991Y-33836840D01*
X51699555Y-33826452D01*
X51682524Y-33812476D01*
X51668548Y-33795445D01*
X51658160Y-33776009D01*
X51651764Y-33754928D01*
X51649000Y-33726860D01*
X51649000Y-33263140D01*
X51651764Y-33235072D01*
X51658160Y-33213991D01*
X51668548Y-33194555D01*
X51682524Y-33177524D01*
X51699555Y-33163548D01*
X51718991Y-33153160D01*
X51740072Y-33146764D01*
X51768140Y-33144000D01*
X53581860Y-33144000D01*
X53609928Y-33146764D01*
X53609928Y-33146764D01*
G37*
G36*
X43471938Y-32931716D02*
G01*
X43492557Y-32937971D01*
X43511553Y-32948124D01*
X43528208Y-32961792D01*
X43541876Y-32978447D01*
X43552029Y-32997443D01*
X43558284Y-33018062D01*
X43561000Y-33045640D01*
X43561000Y-33554360D01*
X43558284Y-33581938D01*
X43552029Y-33602557D01*
X43541876Y-33621553D01*
X43528208Y-33638208D01*
X43511553Y-33651876D01*
X43492557Y-33662029D01*
X43471938Y-33668284D01*
X43444360Y-33671000D01*
X42985640Y-33671000D01*
X42958062Y-33668284D01*
X42937443Y-33662029D01*
X42918447Y-33651876D01*
X42901792Y-33638208D01*
X42888124Y-33621553D01*
X42877971Y-33602557D01*
X42871716Y-33581938D01*
X42869000Y-33554360D01*
X42869000Y-33045640D01*
X42871716Y-33018062D01*
X42877971Y-32997443D01*
X42888124Y-32978447D01*
X42901792Y-32961792D01*
X42918447Y-32948124D01*
X42937443Y-32937971D01*
X42958062Y-32931716D01*
X42985640Y-32929000D01*
X43444360Y-32929000D01*
X43471938Y-32931716D01*
X43471938Y-32931716D01*
G37*
G36*
X44441938Y-32931716D02*
G01*
X44462557Y-32937971D01*
X44481553Y-32948124D01*
X44498208Y-32961792D01*
X44511876Y-32978447D01*
X44522029Y-32997443D01*
X44528284Y-33018062D01*
X44531000Y-33045640D01*
X44531000Y-33554360D01*
X44528284Y-33581938D01*
X44522029Y-33602557D01*
X44511876Y-33621553D01*
X44498208Y-33638208D01*
X44481553Y-33651876D01*
X44462557Y-33662029D01*
X44441938Y-33668284D01*
X44414360Y-33671000D01*
X43955640Y-33671000D01*
X43928062Y-33668284D01*
X43907443Y-33662029D01*
X43888447Y-33651876D01*
X43871792Y-33638208D01*
X43858124Y-33621553D01*
X43847971Y-33602557D01*
X43841716Y-33581938D01*
X43839000Y-33554360D01*
X43839000Y-33045640D01*
X43841716Y-33018062D01*
X43847971Y-32997443D01*
X43858124Y-32978447D01*
X43871792Y-32961792D01*
X43888447Y-32948124D01*
X43907443Y-32937971D01*
X43928062Y-32931716D01*
X43955640Y-32929000D01*
X44414360Y-32929000D01*
X44441938Y-32931716D01*
X44441938Y-32931716D01*
G37*
G36*
X42176000Y-33651000D02*
G01*
X39824000Y-33651000D01*
X39824000Y-31949000D01*
X42176000Y-31949000D01*
X42176000Y-33651000D01*
X42176000Y-33651000D01*
G37*
G36*
X34818604Y-31378347D02*
G01*
X34855144Y-31389432D01*
X34888821Y-31407433D01*
X34918341Y-31431659D01*
X34942567Y-31461179D01*
X34960568Y-31494856D01*
X34971653Y-31531396D01*
X34976000Y-31575538D01*
X34976000Y-33024462D01*
X34971653Y-33068604D01*
X34960568Y-33105144D01*
X34942567Y-33138821D01*
X34918341Y-33168341D01*
X34888821Y-33192567D01*
X34855144Y-33210568D01*
X34818604Y-33221653D01*
X34774462Y-33226000D01*
X33825538Y-33226000D01*
X33781396Y-33221653D01*
X33744856Y-33210568D01*
X33711179Y-33192567D01*
X33681659Y-33168341D01*
X33657433Y-33138821D01*
X33639432Y-33105144D01*
X33628347Y-33068604D01*
X33624000Y-33024462D01*
X33624000Y-31575538D01*
X33628347Y-31531396D01*
X33639432Y-31494856D01*
X33657433Y-31461179D01*
X33681659Y-31431659D01*
X33711179Y-31407433D01*
X33744856Y-31389432D01*
X33781396Y-31378347D01*
X33825538Y-31374000D01*
X34774462Y-31374000D01*
X34818604Y-31378347D01*
X34818604Y-31378347D01*
G37*
G36*
X37618604Y-31378347D02*
G01*
X37655144Y-31389432D01*
X37688821Y-31407433D01*
X37718341Y-31431659D01*
X37742567Y-31461179D01*
X37760568Y-31494856D01*
X37771653Y-31531396D01*
X37776000Y-31575538D01*
X37776000Y-33024462D01*
X37771653Y-33068604D01*
X37760568Y-33105144D01*
X37742567Y-33138821D01*
X37718341Y-33168341D01*
X37688821Y-33192567D01*
X37655144Y-33210568D01*
X37618604Y-33221653D01*
X37574462Y-33226000D01*
X36625538Y-33226000D01*
X36581396Y-33221653D01*
X36544856Y-33210568D01*
X36511179Y-33192567D01*
X36481659Y-33168341D01*
X36457433Y-33138821D01*
X36439432Y-33105144D01*
X36428347Y-33068604D01*
X36424000Y-33024462D01*
X36424000Y-31575538D01*
X36428347Y-31531396D01*
X36439432Y-31494856D01*
X36457433Y-31461179D01*
X36481659Y-31431659D01*
X36511179Y-31407433D01*
X36544856Y-31389432D01*
X36581396Y-31378347D01*
X36625538Y-31374000D01*
X37574462Y-31374000D01*
X37618604Y-31378347D01*
X37618604Y-31378347D01*
G37*
G36*
X66301000Y-33101000D02*
G01*
X55499000Y-33101000D01*
X55499000Y-31399000D01*
X66301000Y-31399000D01*
X66301000Y-33101000D01*
X66301000Y-33101000D01*
G37*
G36*
X43471938Y-31931716D02*
G01*
X43492557Y-31937971D01*
X43511553Y-31948124D01*
X43528208Y-31961792D01*
X43541876Y-31978447D01*
X43552029Y-31997443D01*
X43558284Y-32018062D01*
X43561000Y-32045640D01*
X43561000Y-32554360D01*
X43558284Y-32581938D01*
X43552029Y-32602557D01*
X43541876Y-32621553D01*
X43528208Y-32638208D01*
X43511553Y-32651876D01*
X43492557Y-32662029D01*
X43471938Y-32668284D01*
X43444360Y-32671000D01*
X42985640Y-32671000D01*
X42958062Y-32668284D01*
X42937443Y-32662029D01*
X42918447Y-32651876D01*
X42901792Y-32638208D01*
X42888124Y-32621553D01*
X42877971Y-32602557D01*
X42871716Y-32581938D01*
X42869000Y-32554360D01*
X42869000Y-32045640D01*
X42871716Y-32018062D01*
X42877971Y-31997443D01*
X42888124Y-31978447D01*
X42901792Y-31961792D01*
X42918447Y-31948124D01*
X42937443Y-31937971D01*
X42958062Y-31931716D01*
X42985640Y-31929000D01*
X43444360Y-31929000D01*
X43471938Y-31931716D01*
X43471938Y-31931716D01*
G37*
G36*
X44441938Y-31931716D02*
G01*
X44462557Y-31937971D01*
X44481553Y-31948124D01*
X44498208Y-31961792D01*
X44511876Y-31978447D01*
X44522029Y-31997443D01*
X44528284Y-32018062D01*
X44531000Y-32045640D01*
X44531000Y-32554360D01*
X44528284Y-32581938D01*
X44522029Y-32602557D01*
X44511876Y-32621553D01*
X44498208Y-32638208D01*
X44481553Y-32651876D01*
X44462557Y-32662029D01*
X44441938Y-32668284D01*
X44414360Y-32671000D01*
X43955640Y-32671000D01*
X43928062Y-32668284D01*
X43907443Y-32662029D01*
X43888447Y-32651876D01*
X43871792Y-32638208D01*
X43858124Y-32621553D01*
X43847971Y-32602557D01*
X43841716Y-32581938D01*
X43839000Y-32554360D01*
X43839000Y-32045640D01*
X43841716Y-32018062D01*
X43847971Y-31997443D01*
X43858124Y-31978447D01*
X43871792Y-31961792D01*
X43888447Y-31948124D01*
X43907443Y-31937971D01*
X43928062Y-31931716D01*
X43955640Y-31929000D01*
X44414360Y-31929000D01*
X44441938Y-31931716D01*
X44441938Y-31931716D01*
G37*
G36*
X12627004Y-31111508D02*
G01*
X12749127Y-31148553D01*
X12861676Y-31208712D01*
X12960327Y-31289672D01*
X13041287Y-31388323D01*
X13101446Y-31500872D01*
X13138491Y-31622995D01*
X13151000Y-31749999D01*
X13151000Y-31750001D01*
X13138491Y-31877005D01*
X13101446Y-31999128D01*
X13041287Y-32111677D01*
X12960327Y-32210328D01*
X12861676Y-32291288D01*
X12749127Y-32351447D01*
X12627004Y-32388492D01*
X12500000Y-32401001D01*
X11700000Y-32401001D01*
X11572996Y-32388492D01*
X11450873Y-32351447D01*
X11338324Y-32291288D01*
X11239673Y-32210328D01*
X11158713Y-32111677D01*
X11098554Y-31999128D01*
X11061509Y-31877005D01*
X11049000Y-31750001D01*
X11049000Y-31749999D01*
X11061509Y-31622995D01*
X11098554Y-31500872D01*
X11158713Y-31388323D01*
X11239673Y-31289672D01*
X11338324Y-31208712D01*
X11450873Y-31148553D01*
X11572996Y-31111508D01*
X11700000Y-31098999D01*
X12500000Y-31098999D01*
X12627004Y-31111508D01*
X12627004Y-31111508D01*
G37*
G36*
X48141938Y-31631716D02*
G01*
X48162557Y-31637971D01*
X48181553Y-31648124D01*
X48198208Y-31661792D01*
X48211876Y-31678447D01*
X48222029Y-31697443D01*
X48228284Y-31718062D01*
X48231000Y-31745640D01*
X48231000Y-32254360D01*
X48228284Y-32281938D01*
X48222029Y-32302557D01*
X48211876Y-32321553D01*
X48198208Y-32338208D01*
X48181553Y-32351876D01*
X48162557Y-32362029D01*
X48141938Y-32368284D01*
X48114360Y-32371000D01*
X47655640Y-32371000D01*
X47628062Y-32368284D01*
X47607443Y-32362029D01*
X47588447Y-32351876D01*
X47571792Y-32338208D01*
X47558124Y-32321553D01*
X47547971Y-32302557D01*
X47541716Y-32281938D01*
X47539000Y-32254360D01*
X47539000Y-31745640D01*
X47541716Y-31718062D01*
X47547971Y-31697443D01*
X47558124Y-31678447D01*
X47571792Y-31661792D01*
X47588447Y-31648124D01*
X47607443Y-31637971D01*
X47628062Y-31631716D01*
X47655640Y-31629000D01*
X48114360Y-31629000D01*
X48141938Y-31631716D01*
X48141938Y-31631716D01*
G37*
G36*
X47171938Y-31631716D02*
G01*
X47192557Y-31637971D01*
X47211553Y-31648124D01*
X47228208Y-31661792D01*
X47241876Y-31678447D01*
X47252029Y-31697443D01*
X47258284Y-31718062D01*
X47261000Y-31745640D01*
X47261000Y-32254360D01*
X47258284Y-32281938D01*
X47252029Y-32302557D01*
X47241876Y-32321553D01*
X47228208Y-32338208D01*
X47211553Y-32351876D01*
X47192557Y-32362029D01*
X47171938Y-32368284D01*
X47144360Y-32371000D01*
X46685640Y-32371000D01*
X46658062Y-32368284D01*
X46637443Y-32362029D01*
X46618447Y-32351876D01*
X46601792Y-32338208D01*
X46588124Y-32321553D01*
X46577971Y-32302557D01*
X46571716Y-32281938D01*
X46569000Y-32254360D01*
X46569000Y-31745640D01*
X46571716Y-31718062D01*
X46577971Y-31697443D01*
X46588124Y-31678447D01*
X46601792Y-31661792D01*
X46618447Y-31648124D01*
X46637443Y-31637971D01*
X46658062Y-31631716D01*
X46685640Y-31629000D01*
X47144360Y-31629000D01*
X47171938Y-31631716D01*
X47171938Y-31631716D01*
G37*
G36*
X55101000Y-32001000D02*
G01*
X53399000Y-32001000D01*
X53399000Y-22899000D01*
X55101000Y-22899000D01*
X55101000Y-32001000D01*
X55101000Y-32001000D01*
G37*
G36*
X40241938Y-30831716D02*
G01*
X40262557Y-30837971D01*
X40281553Y-30848124D01*
X40298208Y-30861792D01*
X40311876Y-30878447D01*
X40322029Y-30897443D01*
X40328284Y-30918062D01*
X40331000Y-30945640D01*
X40331000Y-31454360D01*
X40328284Y-31481938D01*
X40322029Y-31502557D01*
X40311876Y-31521553D01*
X40298208Y-31538208D01*
X40281553Y-31551876D01*
X40262557Y-31562029D01*
X40241938Y-31568284D01*
X40214360Y-31571000D01*
X39755640Y-31571000D01*
X39728062Y-31568284D01*
X39707443Y-31562029D01*
X39688447Y-31551876D01*
X39671792Y-31538208D01*
X39658124Y-31521553D01*
X39647971Y-31502557D01*
X39641716Y-31481938D01*
X39639000Y-31454360D01*
X39639000Y-30945640D01*
X39641716Y-30918062D01*
X39647971Y-30897443D01*
X39658124Y-30878447D01*
X39671792Y-30861792D01*
X39688447Y-30848124D01*
X39707443Y-30837971D01*
X39728062Y-30831716D01*
X39755640Y-30829000D01*
X40214360Y-30829000D01*
X40241938Y-30831716D01*
X40241938Y-30831716D01*
G37*
G36*
X39271938Y-30831716D02*
G01*
X39292557Y-30837971D01*
X39311553Y-30848124D01*
X39328208Y-30861792D01*
X39341876Y-30878447D01*
X39352029Y-30897443D01*
X39358284Y-30918062D01*
X39361000Y-30945640D01*
X39361000Y-31454360D01*
X39358284Y-31481938D01*
X39352029Y-31502557D01*
X39341876Y-31521553D01*
X39328208Y-31538208D01*
X39311553Y-31551876D01*
X39292557Y-31562029D01*
X39271938Y-31568284D01*
X39244360Y-31571000D01*
X38785640Y-31571000D01*
X38758062Y-31568284D01*
X38737443Y-31562029D01*
X38718447Y-31551876D01*
X38701792Y-31538208D01*
X38688124Y-31521553D01*
X38677971Y-31502557D01*
X38671716Y-31481938D01*
X38669000Y-31454360D01*
X38669000Y-30945640D01*
X38671716Y-30918062D01*
X38677971Y-30897443D01*
X38688124Y-30878447D01*
X38701792Y-30861792D01*
X38718447Y-30848124D01*
X38737443Y-30837971D01*
X38758062Y-30831716D01*
X38785640Y-30829000D01*
X39244360Y-30829000D01*
X39271938Y-30831716D01*
X39271938Y-30831716D01*
G37*
G36*
X52068604Y-30128347D02*
G01*
X52105144Y-30139432D01*
X52138821Y-30157433D01*
X52168341Y-30181659D01*
X52192567Y-30211179D01*
X52210568Y-30244856D01*
X52221653Y-30281396D01*
X52226000Y-30325538D01*
X52226000Y-31274462D01*
X52221653Y-31318604D01*
X52210568Y-31355144D01*
X52192567Y-31388821D01*
X52168341Y-31418341D01*
X52138821Y-31442567D01*
X52105144Y-31460568D01*
X52068604Y-31471653D01*
X52024462Y-31476000D01*
X50575538Y-31476000D01*
X50531396Y-31471653D01*
X50494856Y-31460568D01*
X50461179Y-31442567D01*
X50431659Y-31418341D01*
X50407433Y-31388821D01*
X50389432Y-31355144D01*
X50378347Y-31318604D01*
X50374000Y-31274462D01*
X50374000Y-30325538D01*
X50378347Y-30281396D01*
X50389432Y-30244856D01*
X50407433Y-30211179D01*
X50431659Y-30181659D01*
X50461179Y-30157433D01*
X50494856Y-30139432D01*
X50531396Y-30128347D01*
X50575538Y-30124000D01*
X52024462Y-30124000D01*
X52068604Y-30128347D01*
X52068604Y-30128347D01*
G37*
G36*
X64151000Y-31051000D02*
G01*
X63549000Y-31051000D01*
X63549000Y-29749000D01*
X64151000Y-29749000D01*
X64151000Y-31051000D01*
X64151000Y-31051000D01*
G37*
G36*
X65551000Y-31051000D02*
G01*
X64949000Y-31051000D01*
X64949000Y-29749000D01*
X65551000Y-29749000D01*
X65551000Y-31051000D01*
X65551000Y-31051000D01*
G37*
G36*
X46981938Y-30341716D02*
G01*
X47002557Y-30347971D01*
X47021553Y-30358124D01*
X47038208Y-30371792D01*
X47051876Y-30388447D01*
X47062029Y-30407443D01*
X47068284Y-30428062D01*
X47071000Y-30455640D01*
X47071000Y-30914360D01*
X47068284Y-30941938D01*
X47062029Y-30962557D01*
X47051876Y-30981553D01*
X47038208Y-30998208D01*
X47021553Y-31011876D01*
X47002557Y-31022029D01*
X46981938Y-31028284D01*
X46954360Y-31031000D01*
X46445640Y-31031000D01*
X46418062Y-31028284D01*
X46397443Y-31022029D01*
X46378447Y-31011876D01*
X46361792Y-30998208D01*
X46348124Y-30981553D01*
X46337971Y-30962557D01*
X46331716Y-30941938D01*
X46329000Y-30914360D01*
X46329000Y-30455640D01*
X46331716Y-30428062D01*
X46337971Y-30407443D01*
X46348124Y-30388447D01*
X46361792Y-30371792D01*
X46378447Y-30358124D01*
X46397443Y-30347971D01*
X46418062Y-30341716D01*
X46445640Y-30339000D01*
X46954360Y-30339000D01*
X46981938Y-30341716D01*
X46981938Y-30341716D01*
G37*
G36*
X43681000Y-30926000D02*
G01*
X42519000Y-30926000D01*
X42519000Y-28274000D01*
X43681000Y-28274000D01*
X43681000Y-30926000D01*
X43681000Y-30926000D01*
G37*
G36*
X45881000Y-30926000D02*
G01*
X44719000Y-30926000D01*
X44719000Y-28274000D01*
X45881000Y-28274000D01*
X45881000Y-30926000D01*
X45881000Y-30926000D01*
G37*
G36*
X23051000Y-30851000D02*
G01*
X21749000Y-30851000D01*
X21749000Y-29049000D01*
X23051000Y-29049000D01*
X23051000Y-30851000D01*
X23051000Y-30851000D01*
G37*
G36*
X40581938Y-29641716D02*
G01*
X40602557Y-29647971D01*
X40621553Y-29658124D01*
X40638208Y-29671792D01*
X40651876Y-29688447D01*
X40662029Y-29707443D01*
X40668284Y-29728062D01*
X40671000Y-29755640D01*
X40671000Y-30214360D01*
X40668284Y-30241938D01*
X40662029Y-30262557D01*
X40651876Y-30281553D01*
X40638208Y-30298208D01*
X40621553Y-30311876D01*
X40602557Y-30322029D01*
X40581938Y-30328284D01*
X40554360Y-30331000D01*
X40045640Y-30331000D01*
X40018062Y-30328284D01*
X39997443Y-30322029D01*
X39978447Y-30311876D01*
X39961792Y-30298208D01*
X39948124Y-30281553D01*
X39937971Y-30262557D01*
X39931716Y-30241938D01*
X39929000Y-30214360D01*
X39929000Y-29755640D01*
X39931716Y-29728062D01*
X39937971Y-29707443D01*
X39948124Y-29688447D01*
X39961792Y-29671792D01*
X39978447Y-29658124D01*
X39997443Y-29647971D01*
X40018062Y-29641716D01*
X40045640Y-29639000D01*
X40554360Y-29639000D01*
X40581938Y-29641716D01*
X40581938Y-29641716D01*
G37*
G36*
X41681938Y-29626716D02*
G01*
X41702557Y-29632971D01*
X41721553Y-29643124D01*
X41738208Y-29656792D01*
X41751876Y-29673447D01*
X41762029Y-29692443D01*
X41768284Y-29713062D01*
X41771000Y-29740640D01*
X41771000Y-30199360D01*
X41768284Y-30226938D01*
X41762029Y-30247557D01*
X41751876Y-30266553D01*
X41738208Y-30283208D01*
X41721553Y-30296876D01*
X41702557Y-30307029D01*
X41681938Y-30313284D01*
X41654360Y-30316000D01*
X41145640Y-30316000D01*
X41118062Y-30313284D01*
X41097443Y-30307029D01*
X41078447Y-30296876D01*
X41061792Y-30283208D01*
X41048124Y-30266553D01*
X41037971Y-30247557D01*
X41031716Y-30226938D01*
X41029000Y-30199360D01*
X41029000Y-29740640D01*
X41031716Y-29713062D01*
X41037971Y-29692443D01*
X41048124Y-29673447D01*
X41061792Y-29656792D01*
X41078447Y-29643124D01*
X41097443Y-29632971D01*
X41118062Y-29626716D01*
X41145640Y-29624000D01*
X41654360Y-29624000D01*
X41681938Y-29626716D01*
X41681938Y-29626716D01*
G37*
G36*
X39318604Y-28278347D02*
G01*
X39355144Y-28289432D01*
X39388821Y-28307433D01*
X39418341Y-28331659D01*
X39442567Y-28361179D01*
X39460568Y-28394856D01*
X39471653Y-28431396D01*
X39476000Y-28475538D01*
X39476000Y-29924462D01*
X39471653Y-29968604D01*
X39460568Y-30005144D01*
X39442567Y-30038821D01*
X39418341Y-30068341D01*
X39388821Y-30092567D01*
X39355144Y-30110568D01*
X39318604Y-30121653D01*
X39274462Y-30126000D01*
X38325538Y-30126000D01*
X38281396Y-30121653D01*
X38244856Y-30110568D01*
X38211179Y-30092567D01*
X38181659Y-30068341D01*
X38157433Y-30038821D01*
X38139432Y-30005144D01*
X38128347Y-29968604D01*
X38124000Y-29924462D01*
X38124000Y-28475538D01*
X38128347Y-28431396D01*
X38139432Y-28394856D01*
X38157433Y-28361179D01*
X38181659Y-28331659D01*
X38211179Y-28307433D01*
X38244856Y-28289432D01*
X38281396Y-28278347D01*
X38325538Y-28274000D01*
X39274462Y-28274000D01*
X39318604Y-28278347D01*
X39318604Y-28278347D01*
G37*
G36*
X36518604Y-28278347D02*
G01*
X36555144Y-28289432D01*
X36588821Y-28307433D01*
X36618341Y-28331659D01*
X36642567Y-28361179D01*
X36660568Y-28394856D01*
X36671653Y-28431396D01*
X36676000Y-28475538D01*
X36676000Y-29924462D01*
X36671653Y-29968604D01*
X36660568Y-30005144D01*
X36642567Y-30038821D01*
X36618341Y-30068341D01*
X36588821Y-30092567D01*
X36555144Y-30110568D01*
X36518604Y-30121653D01*
X36474462Y-30126000D01*
X35525538Y-30126000D01*
X35481396Y-30121653D01*
X35444856Y-30110568D01*
X35411179Y-30092567D01*
X35381659Y-30068341D01*
X35357433Y-30038821D01*
X35339432Y-30005144D01*
X35328347Y-29968604D01*
X35324000Y-29924462D01*
X35324000Y-28475538D01*
X35328347Y-28431396D01*
X35339432Y-28394856D01*
X35357433Y-28361179D01*
X35381659Y-28331659D01*
X35411179Y-28307433D01*
X35444856Y-28289432D01*
X35481396Y-28278347D01*
X35525538Y-28274000D01*
X36474462Y-28274000D01*
X36518604Y-28278347D01*
X36518604Y-28278347D01*
G37*
G36*
X46981938Y-29371716D02*
G01*
X47002557Y-29377971D01*
X47021553Y-29388124D01*
X47038208Y-29401792D01*
X47051876Y-29418447D01*
X47062029Y-29437443D01*
X47068284Y-29458062D01*
X47071000Y-29485640D01*
X47071000Y-29944360D01*
X47068284Y-29971938D01*
X47062029Y-29992557D01*
X47051876Y-30011553D01*
X47038208Y-30028208D01*
X47021553Y-30041876D01*
X47002557Y-30052029D01*
X46981938Y-30058284D01*
X46954360Y-30061000D01*
X46445640Y-30061000D01*
X46418062Y-30058284D01*
X46397443Y-30052029D01*
X46378447Y-30041876D01*
X46361792Y-30028208D01*
X46348124Y-30011553D01*
X46337971Y-29992557D01*
X46331716Y-29971938D01*
X46329000Y-29944360D01*
X46329000Y-29485640D01*
X46331716Y-29458062D01*
X46337971Y-29437443D01*
X46348124Y-29418447D01*
X46361792Y-29401792D01*
X46378447Y-29388124D01*
X46397443Y-29377971D01*
X46418062Y-29371716D01*
X46445640Y-29369000D01*
X46954360Y-29369000D01*
X46981938Y-29371716D01*
X46981938Y-29371716D01*
G37*
G36*
X40581938Y-28671716D02*
G01*
X40602557Y-28677971D01*
X40621553Y-28688124D01*
X40638208Y-28701792D01*
X40651876Y-28718447D01*
X40662029Y-28737443D01*
X40668284Y-28758062D01*
X40671000Y-28785640D01*
X40671000Y-29244360D01*
X40668284Y-29271938D01*
X40662029Y-29292557D01*
X40651876Y-29311553D01*
X40638208Y-29328208D01*
X40621553Y-29341876D01*
X40602557Y-29352029D01*
X40581938Y-29358284D01*
X40554360Y-29361000D01*
X40045640Y-29361000D01*
X40018062Y-29358284D01*
X39997443Y-29352029D01*
X39978447Y-29341876D01*
X39961792Y-29328208D01*
X39948124Y-29311553D01*
X39937971Y-29292557D01*
X39931716Y-29271938D01*
X39929000Y-29244360D01*
X39929000Y-28785640D01*
X39931716Y-28758062D01*
X39937971Y-28737443D01*
X39948124Y-28718447D01*
X39961792Y-28701792D01*
X39978447Y-28688124D01*
X39997443Y-28677971D01*
X40018062Y-28671716D01*
X40045640Y-28669000D01*
X40554360Y-28669000D01*
X40581938Y-28671716D01*
X40581938Y-28671716D01*
G37*
G36*
X41681938Y-28656716D02*
G01*
X41702557Y-28662971D01*
X41721553Y-28673124D01*
X41738208Y-28686792D01*
X41751876Y-28703447D01*
X41762029Y-28722443D01*
X41768284Y-28743062D01*
X41771000Y-28770640D01*
X41771000Y-29229360D01*
X41768284Y-29256938D01*
X41762029Y-29277557D01*
X41751876Y-29296553D01*
X41738208Y-29313208D01*
X41721553Y-29326876D01*
X41702557Y-29337029D01*
X41681938Y-29343284D01*
X41654360Y-29346000D01*
X41145640Y-29346000D01*
X41118062Y-29343284D01*
X41097443Y-29337029D01*
X41078447Y-29326876D01*
X41061792Y-29313208D01*
X41048124Y-29296553D01*
X41037971Y-29277557D01*
X41031716Y-29256938D01*
X41029000Y-29229360D01*
X41029000Y-28770640D01*
X41031716Y-28743062D01*
X41037971Y-28722443D01*
X41048124Y-28703447D01*
X41061792Y-28686792D01*
X41078447Y-28673124D01*
X41097443Y-28662971D01*
X41118062Y-28656716D01*
X41145640Y-28654000D01*
X41654360Y-28654000D01*
X41681938Y-28656716D01*
X41681938Y-28656716D01*
G37*
G36*
X49581938Y-28341716D02*
G01*
X49602557Y-28347971D01*
X49621553Y-28358124D01*
X49638208Y-28371792D01*
X49651876Y-28388447D01*
X49662029Y-28407443D01*
X49668284Y-28428062D01*
X49671000Y-28455640D01*
X49671000Y-28914360D01*
X49668284Y-28941938D01*
X49662029Y-28962557D01*
X49651876Y-28981553D01*
X49638208Y-28998208D01*
X49621553Y-29011876D01*
X49602557Y-29022029D01*
X49581938Y-29028284D01*
X49554360Y-29031000D01*
X49045640Y-29031000D01*
X49018062Y-29028284D01*
X48997443Y-29022029D01*
X48978447Y-29011876D01*
X48961792Y-28998208D01*
X48948124Y-28981553D01*
X48937971Y-28962557D01*
X48931716Y-28941938D01*
X48929000Y-28914360D01*
X48929000Y-28455640D01*
X48931716Y-28428062D01*
X48937971Y-28407443D01*
X48948124Y-28388447D01*
X48961792Y-28371792D01*
X48978447Y-28358124D01*
X48997443Y-28347971D01*
X49018062Y-28341716D01*
X49045640Y-28339000D01*
X49554360Y-28339000D01*
X49581938Y-28341716D01*
X49581938Y-28341716D01*
G37*
G36*
X48281938Y-28341716D02*
G01*
X48302557Y-28347971D01*
X48321553Y-28358124D01*
X48338208Y-28371792D01*
X48351876Y-28388447D01*
X48362029Y-28407443D01*
X48368284Y-28428062D01*
X48371000Y-28455640D01*
X48371000Y-28914360D01*
X48368284Y-28941938D01*
X48362029Y-28962557D01*
X48351876Y-28981553D01*
X48338208Y-28998208D01*
X48321553Y-29011876D01*
X48302557Y-29022029D01*
X48281938Y-29028284D01*
X48254360Y-29031000D01*
X47745640Y-29031000D01*
X47718062Y-29028284D01*
X47697443Y-29022029D01*
X47678447Y-29011876D01*
X47661792Y-28998208D01*
X47648124Y-28981553D01*
X47637971Y-28962557D01*
X47631716Y-28941938D01*
X47629000Y-28914360D01*
X47629000Y-28455640D01*
X47631716Y-28428062D01*
X47637971Y-28407443D01*
X47648124Y-28388447D01*
X47661792Y-28371792D01*
X47678447Y-28358124D01*
X47697443Y-28347971D01*
X47718062Y-28341716D01*
X47745640Y-28339000D01*
X48254360Y-28339000D01*
X48281938Y-28341716D01*
X48281938Y-28341716D01*
G37*
G36*
X52068604Y-27328347D02*
G01*
X52105144Y-27339432D01*
X52138821Y-27357433D01*
X52168341Y-27381659D01*
X52192567Y-27411179D01*
X52210568Y-27444856D01*
X52221653Y-27481396D01*
X52226000Y-27525538D01*
X52226000Y-28474462D01*
X52221653Y-28518604D01*
X52210568Y-28555144D01*
X52192567Y-28588821D01*
X52168341Y-28618341D01*
X52138821Y-28642567D01*
X52105144Y-28660568D01*
X52068604Y-28671653D01*
X52024462Y-28676000D01*
X50575538Y-28676000D01*
X50531396Y-28671653D01*
X50494856Y-28660568D01*
X50461179Y-28642567D01*
X50431659Y-28618341D01*
X50407433Y-28588821D01*
X50389432Y-28555144D01*
X50378347Y-28518604D01*
X50374000Y-28474462D01*
X50374000Y-27525538D01*
X50378347Y-27481396D01*
X50389432Y-27444856D01*
X50407433Y-27411179D01*
X50431659Y-27381659D01*
X50461179Y-27357433D01*
X50494856Y-27339432D01*
X50531396Y-27328347D01*
X50575538Y-27324000D01*
X52024462Y-27324000D01*
X52068604Y-27328347D01*
X52068604Y-27328347D01*
G37*
G36*
X12389890Y-27374017D02*
G01*
X12500108Y-27419671D01*
X12508364Y-27423091D01*
X12614988Y-27494335D01*
X12705665Y-27585012D01*
X12730499Y-27622178D01*
X12776910Y-27691638D01*
X12822209Y-27801000D01*
X12825983Y-27810110D01*
X12851000Y-27935882D01*
X12851000Y-28064118D01*
X12825983Y-28189890D01*
X12776909Y-28308364D01*
X12705665Y-28414988D01*
X12614988Y-28505665D01*
X12508364Y-28576909D01*
X12508363Y-28576910D01*
X12508362Y-28576910D01*
X12389890Y-28625983D01*
X12264119Y-28651000D01*
X12135881Y-28651000D01*
X12010110Y-28625983D01*
X11891638Y-28576910D01*
X11891637Y-28576910D01*
X11891636Y-28576909D01*
X11785012Y-28505665D01*
X11694335Y-28414988D01*
X11623091Y-28308364D01*
X11574017Y-28189890D01*
X11549000Y-28064118D01*
X11549000Y-27935882D01*
X11574017Y-27810110D01*
X11577791Y-27801000D01*
X11623090Y-27691638D01*
X11669502Y-27622178D01*
X11694335Y-27585012D01*
X11785012Y-27494335D01*
X11891636Y-27423091D01*
X11899893Y-27419671D01*
X12010110Y-27374017D01*
X12135881Y-27349000D01*
X12264119Y-27349000D01*
X12389890Y-27374017D01*
X12389890Y-27374017D01*
G37*
G36*
X18389890Y-27374017D02*
G01*
X18500108Y-27419671D01*
X18508364Y-27423091D01*
X18614988Y-27494335D01*
X18705665Y-27585012D01*
X18730499Y-27622178D01*
X18776910Y-27691638D01*
X18822209Y-27801000D01*
X18825983Y-27810110D01*
X18851000Y-27935882D01*
X18851000Y-28064118D01*
X18825983Y-28189890D01*
X18776909Y-28308364D01*
X18705665Y-28414988D01*
X18614988Y-28505665D01*
X18508364Y-28576909D01*
X18508363Y-28576910D01*
X18508362Y-28576910D01*
X18389890Y-28625983D01*
X18264119Y-28651000D01*
X18135881Y-28651000D01*
X18010110Y-28625983D01*
X17891638Y-28576910D01*
X17891637Y-28576910D01*
X17891636Y-28576909D01*
X17785012Y-28505665D01*
X17694335Y-28414988D01*
X17623091Y-28308364D01*
X17574017Y-28189890D01*
X17549000Y-28064118D01*
X17549000Y-27935882D01*
X17574017Y-27810110D01*
X17577791Y-27801000D01*
X17623090Y-27691638D01*
X17669502Y-27622178D01*
X17694335Y-27585012D01*
X17785012Y-27494335D01*
X17891636Y-27423091D01*
X17899893Y-27419671D01*
X18010110Y-27374017D01*
X18135881Y-27349000D01*
X18264119Y-27349000D01*
X18389890Y-27374017D01*
X18389890Y-27374017D01*
G37*
G36*
X23051000Y-28401000D02*
G01*
X21749000Y-28401000D01*
X21749000Y-27599000D01*
X23051000Y-27599000D01*
X23051000Y-28401000D01*
X23051000Y-28401000D01*
G37*
G36*
X49581938Y-27371716D02*
G01*
X49602557Y-27377971D01*
X49621553Y-27388124D01*
X49638208Y-27401792D01*
X49651876Y-27418447D01*
X49662029Y-27437443D01*
X49668284Y-27458062D01*
X49671000Y-27485640D01*
X49671000Y-27944360D01*
X49668284Y-27971938D01*
X49662029Y-27992557D01*
X49651876Y-28011553D01*
X49638208Y-28028208D01*
X49621553Y-28041876D01*
X49602557Y-28052029D01*
X49581938Y-28058284D01*
X49554360Y-28061000D01*
X49045640Y-28061000D01*
X49018062Y-28058284D01*
X48997443Y-28052029D01*
X48978447Y-28041876D01*
X48961792Y-28028208D01*
X48948124Y-28011553D01*
X48937971Y-27992557D01*
X48931716Y-27971938D01*
X48929000Y-27944360D01*
X48929000Y-27485640D01*
X48931716Y-27458062D01*
X48937971Y-27437443D01*
X48948124Y-27418447D01*
X48961792Y-27401792D01*
X48978447Y-27388124D01*
X48997443Y-27377971D01*
X49018062Y-27371716D01*
X49045640Y-27369000D01*
X49554360Y-27369000D01*
X49581938Y-27371716D01*
X49581938Y-27371716D01*
G37*
G36*
X48281938Y-27371716D02*
G01*
X48302557Y-27377971D01*
X48321553Y-27388124D01*
X48338208Y-27401792D01*
X48351876Y-27418447D01*
X48362029Y-27437443D01*
X48368284Y-27458062D01*
X48371000Y-27485640D01*
X48371000Y-27944360D01*
X48368284Y-27971938D01*
X48362029Y-27992557D01*
X48351876Y-28011553D01*
X48338208Y-28028208D01*
X48321553Y-28041876D01*
X48302557Y-28052029D01*
X48281938Y-28058284D01*
X48254360Y-28061000D01*
X47745640Y-28061000D01*
X47718062Y-28058284D01*
X47697443Y-28052029D01*
X47678447Y-28041876D01*
X47661792Y-28028208D01*
X47648124Y-28011553D01*
X47637971Y-27992557D01*
X47631716Y-27971938D01*
X47629000Y-27944360D01*
X47629000Y-27485640D01*
X47631716Y-27458062D01*
X47637971Y-27437443D01*
X47648124Y-27418447D01*
X47661792Y-27401792D01*
X47678447Y-27388124D01*
X47697443Y-27377971D01*
X47718062Y-27371716D01*
X47745640Y-27369000D01*
X48254360Y-27369000D01*
X48281938Y-27371716D01*
X48281938Y-27371716D01*
G37*
G36*
X46733642Y-26229781D02*
G01*
X46879414Y-26290162D01*
X46879416Y-26290163D01*
X47010608Y-26377822D01*
X47122178Y-26489392D01*
X47209837Y-26620584D01*
X47209838Y-26620586D01*
X47270219Y-26766358D01*
X47301000Y-26921107D01*
X47301000Y-27078893D01*
X47270219Y-27233642D01*
X47211252Y-27376000D01*
X47209837Y-27379416D01*
X47122178Y-27510608D01*
X47010608Y-27622178D01*
X46879416Y-27709837D01*
X46879415Y-27709838D01*
X46879414Y-27709838D01*
X46733642Y-27770219D01*
X46578893Y-27801000D01*
X46421107Y-27801000D01*
X46266358Y-27770219D01*
X46120586Y-27709838D01*
X46120585Y-27709838D01*
X46120584Y-27709837D01*
X45989392Y-27622178D01*
X45877822Y-27510608D01*
X45790163Y-27379416D01*
X45788748Y-27376000D01*
X45729781Y-27233642D01*
X45699000Y-27078893D01*
X45699000Y-26921107D01*
X45729781Y-26766358D01*
X45790162Y-26620586D01*
X45790163Y-26620584D01*
X45877822Y-26489392D01*
X45989392Y-26377822D01*
X46120584Y-26290163D01*
X46120586Y-26290162D01*
X46266358Y-26229781D01*
X46421107Y-26199000D01*
X46578893Y-26199000D01*
X46733642Y-26229781D01*
X46733642Y-26229781D01*
G37*
G36*
X36318604Y-26028347D02*
G01*
X36355144Y-26039432D01*
X36388821Y-26057433D01*
X36418341Y-26081659D01*
X36442567Y-26111179D01*
X36460568Y-26144856D01*
X36471653Y-26181396D01*
X36476000Y-26225538D01*
X36476000Y-27174462D01*
X36471653Y-27218604D01*
X36460568Y-27255144D01*
X36442567Y-27288821D01*
X36418341Y-27318341D01*
X36388821Y-27342567D01*
X36355144Y-27360568D01*
X36318604Y-27371653D01*
X36274462Y-27376000D01*
X34825538Y-27376000D01*
X34781396Y-27371653D01*
X34744856Y-27360568D01*
X34711179Y-27342567D01*
X34681659Y-27318341D01*
X34657433Y-27288821D01*
X34639432Y-27255144D01*
X34628347Y-27218604D01*
X34624000Y-27174462D01*
X34624000Y-26225538D01*
X34628347Y-26181396D01*
X34639432Y-26144856D01*
X34657433Y-26111179D01*
X34681659Y-26081659D01*
X34711179Y-26057433D01*
X34744856Y-26039432D01*
X34781396Y-26028347D01*
X34825538Y-26024000D01*
X36274462Y-26024000D01*
X36318604Y-26028347D01*
X36318604Y-26028347D01*
G37*
G36*
X23051000Y-26951000D02*
G01*
X21749000Y-26951000D01*
X21749000Y-25149000D01*
X23051000Y-25149000D01*
X23051000Y-26951000D01*
X23051000Y-26951000D01*
G37*
G36*
X12627004Y-23611508D02*
G01*
X12749127Y-23648553D01*
X12861676Y-23708712D01*
X12960327Y-23789672D01*
X13041287Y-23888323D01*
X13101446Y-24000872D01*
X13138491Y-24122995D01*
X13151000Y-24249999D01*
X13151000Y-24250001D01*
X13138491Y-24377005D01*
X13101446Y-24499128D01*
X13041287Y-24611677D01*
X12960327Y-24710328D01*
X12861676Y-24791288D01*
X12749127Y-24851447D01*
X12627004Y-24888492D01*
X12500000Y-24901001D01*
X11700000Y-24901001D01*
X11572996Y-24888492D01*
X11450873Y-24851447D01*
X11338324Y-24791288D01*
X11239673Y-24710328D01*
X11158713Y-24611677D01*
X11098554Y-24499128D01*
X11061509Y-24377005D01*
X11049000Y-24250001D01*
X11049000Y-24249999D01*
X11061509Y-24122995D01*
X11098554Y-24000872D01*
X11158713Y-23888323D01*
X11239673Y-23789672D01*
X11338324Y-23708712D01*
X11450873Y-23648553D01*
X11572996Y-23611508D01*
X11700000Y-23598999D01*
X12500000Y-23598999D01*
X12627004Y-23611508D01*
X12627004Y-23611508D01*
G37*
G36*
X52151000Y-24901000D02*
G01*
X50249000Y-24901000D01*
X50249000Y-23799000D01*
X52151000Y-23799000D01*
X52151000Y-24901000D01*
X52151000Y-24901000D01*
G37*
G36*
X49841938Y-24031716D02*
G01*
X49862557Y-24037971D01*
X49881553Y-24048124D01*
X49898208Y-24061792D01*
X49911876Y-24078447D01*
X49922029Y-24097443D01*
X49928284Y-24118062D01*
X49931000Y-24145640D01*
X49931000Y-24654360D01*
X49928284Y-24681938D01*
X49922029Y-24702557D01*
X49911876Y-24721553D01*
X49898208Y-24738208D01*
X49881553Y-24751876D01*
X49862557Y-24762029D01*
X49841938Y-24768284D01*
X49814360Y-24771000D01*
X49355640Y-24771000D01*
X49328062Y-24768284D01*
X49307443Y-24762029D01*
X49288447Y-24751876D01*
X49271792Y-24738208D01*
X49258124Y-24721553D01*
X49247971Y-24702557D01*
X49241716Y-24681938D01*
X49239000Y-24654360D01*
X49239000Y-24145640D01*
X49241716Y-24118062D01*
X49247971Y-24097443D01*
X49258124Y-24078447D01*
X49271792Y-24061792D01*
X49288447Y-24048124D01*
X49307443Y-24037971D01*
X49328062Y-24031716D01*
X49355640Y-24029000D01*
X49814360Y-24029000D01*
X49841938Y-24031716D01*
X49841938Y-24031716D01*
G37*
G36*
X48871938Y-24031716D02*
G01*
X48892557Y-24037971D01*
X48911553Y-24048124D01*
X48928208Y-24061792D01*
X48941876Y-24078447D01*
X48952029Y-24097443D01*
X48958284Y-24118062D01*
X48961000Y-24145640D01*
X48961000Y-24654360D01*
X48958284Y-24681938D01*
X48952029Y-24702557D01*
X48941876Y-24721553D01*
X48928208Y-24738208D01*
X48911553Y-24751876D01*
X48892557Y-24762029D01*
X48871938Y-24768284D01*
X48844360Y-24771000D01*
X48385640Y-24771000D01*
X48358062Y-24768284D01*
X48337443Y-24762029D01*
X48318447Y-24751876D01*
X48301792Y-24738208D01*
X48288124Y-24721553D01*
X48277971Y-24702557D01*
X48271716Y-24681938D01*
X48269000Y-24654360D01*
X48269000Y-24145640D01*
X48271716Y-24118062D01*
X48277971Y-24097443D01*
X48288124Y-24078447D01*
X48301792Y-24061792D01*
X48318447Y-24048124D01*
X48337443Y-24037971D01*
X48358062Y-24031716D01*
X48385640Y-24029000D01*
X48844360Y-24029000D01*
X48871938Y-24031716D01*
X48871938Y-24031716D01*
G37*
G36*
X36318604Y-23228347D02*
G01*
X36355144Y-23239432D01*
X36388821Y-23257433D01*
X36418341Y-23281659D01*
X36442567Y-23311179D01*
X36460568Y-23344856D01*
X36471653Y-23381396D01*
X36476000Y-23425538D01*
X36476000Y-24374462D01*
X36471653Y-24418604D01*
X36460568Y-24455144D01*
X36442567Y-24488821D01*
X36418341Y-24518341D01*
X36388821Y-24542567D01*
X36355144Y-24560568D01*
X36318604Y-24571653D01*
X36274462Y-24576000D01*
X34825538Y-24576000D01*
X34781396Y-24571653D01*
X34744856Y-24560568D01*
X34711179Y-24542567D01*
X34681659Y-24518341D01*
X34657433Y-24488821D01*
X34639432Y-24455144D01*
X34628347Y-24418604D01*
X34624000Y-24374462D01*
X34624000Y-23425538D01*
X34628347Y-23381396D01*
X34639432Y-23344856D01*
X34657433Y-23311179D01*
X34681659Y-23281659D01*
X34711179Y-23257433D01*
X34744856Y-23239432D01*
X34781396Y-23228347D01*
X34825538Y-23224000D01*
X36274462Y-23224000D01*
X36318604Y-23228347D01*
X36318604Y-23228347D01*
G37*
G36*
X66301000Y-23601000D02*
G01*
X65299000Y-23601000D01*
X65299000Y-21899000D01*
X66301000Y-21899000D01*
X66301000Y-23601000D01*
X66301000Y-23601000D01*
G37*
G36*
X63101000Y-23601000D02*
G01*
X56199000Y-23601000D01*
X56199000Y-21899000D01*
X63101000Y-21899000D01*
X63101000Y-23601000D01*
X63101000Y-23601000D01*
G37*
G36*
X52151000Y-22401000D02*
G01*
X50249000Y-22401000D01*
X50249000Y-21299000D01*
X52151000Y-21299000D01*
X52151000Y-22401000D01*
X52151000Y-22401000D01*
G37*
G36*
X48871938Y-21431716D02*
G01*
X48892557Y-21437971D01*
X48911553Y-21448124D01*
X48928208Y-21461792D01*
X48941876Y-21478447D01*
X48952029Y-21497443D01*
X48958284Y-21518062D01*
X48961000Y-21545640D01*
X48961000Y-22054360D01*
X48958284Y-22081938D01*
X48952029Y-22102557D01*
X48941876Y-22121553D01*
X48928208Y-22138208D01*
X48911553Y-22151876D01*
X48892557Y-22162029D01*
X48871938Y-22168284D01*
X48844360Y-22171000D01*
X48385640Y-22171000D01*
X48358062Y-22168284D01*
X48337443Y-22162029D01*
X48318447Y-22151876D01*
X48301792Y-22138208D01*
X48288124Y-22121553D01*
X48277971Y-22102557D01*
X48271716Y-22081938D01*
X48269000Y-22054360D01*
X48269000Y-21545640D01*
X48271716Y-21518062D01*
X48277971Y-21497443D01*
X48288124Y-21478447D01*
X48301792Y-21461792D01*
X48318447Y-21448124D01*
X48337443Y-21437971D01*
X48358062Y-21431716D01*
X48385640Y-21429000D01*
X48844360Y-21429000D01*
X48871938Y-21431716D01*
X48871938Y-21431716D01*
G37*
G36*
X49841938Y-21431716D02*
G01*
X49862557Y-21437971D01*
X49881553Y-21448124D01*
X49898208Y-21461792D01*
X49911876Y-21478447D01*
X49922029Y-21497443D01*
X49928284Y-21518062D01*
X49931000Y-21545640D01*
X49931000Y-22054360D01*
X49928284Y-22081938D01*
X49922029Y-22102557D01*
X49911876Y-22121553D01*
X49898208Y-22138208D01*
X49881553Y-22151876D01*
X49862557Y-22162029D01*
X49841938Y-22168284D01*
X49814360Y-22171000D01*
X49355640Y-22171000D01*
X49328062Y-22168284D01*
X49307443Y-22162029D01*
X49288447Y-22151876D01*
X49271792Y-22138208D01*
X49258124Y-22121553D01*
X49247971Y-22102557D01*
X49241716Y-22081938D01*
X49239000Y-22054360D01*
X49239000Y-21545640D01*
X49241716Y-21518062D01*
X49247971Y-21497443D01*
X49258124Y-21478447D01*
X49271792Y-21461792D01*
X49288447Y-21448124D01*
X49307443Y-21437971D01*
X49328062Y-21431716D01*
X49355640Y-21429000D01*
X49814360Y-21429000D01*
X49841938Y-21431716D01*
X49841938Y-21431716D01*
G37*
G36*
X57701000Y-21351000D02*
G01*
X56299000Y-21351000D01*
X56299000Y-20549000D01*
X57701000Y-20549000D01*
X57701000Y-21351000D01*
X57701000Y-21351000D01*
G37*
G36*
X60779591Y-20303085D02*
G01*
X60813569Y-20313393D01*
X60844890Y-20330134D01*
X60872339Y-20352661D01*
X60894866Y-20380110D01*
X60911607Y-20411431D01*
X60921915Y-20445409D01*
X60926000Y-20486890D01*
X60926000Y-21088110D01*
X60921915Y-21129591D01*
X60911607Y-21163569D01*
X60894866Y-21194890D01*
X60872339Y-21222339D01*
X60844890Y-21244866D01*
X60813569Y-21261607D01*
X60779591Y-21271915D01*
X60738110Y-21276000D01*
X60061890Y-21276000D01*
X60020409Y-21271915D01*
X59986431Y-21261607D01*
X59955110Y-21244866D01*
X59927661Y-21222339D01*
X59905134Y-21194890D01*
X59888393Y-21163569D01*
X59878085Y-21129591D01*
X59874000Y-21088110D01*
X59874000Y-20486890D01*
X59878085Y-20445409D01*
X59888393Y-20411431D01*
X59905134Y-20380110D01*
X59927661Y-20352661D01*
X59955110Y-20330134D01*
X59986431Y-20313393D01*
X60020409Y-20303085D01*
X60061890Y-20299000D01*
X60738110Y-20299000D01*
X60779591Y-20303085D01*
X60779591Y-20303085D01*
G37*
G36*
X59179591Y-20303085D02*
G01*
X59213569Y-20313393D01*
X59244890Y-20330134D01*
X59272339Y-20352661D01*
X59294866Y-20380110D01*
X59311607Y-20411431D01*
X59321915Y-20445409D01*
X59326000Y-20486890D01*
X59326000Y-21088110D01*
X59321915Y-21129591D01*
X59311607Y-21163569D01*
X59294866Y-21194890D01*
X59272339Y-21222339D01*
X59244890Y-21244866D01*
X59213569Y-21261607D01*
X59179591Y-21271915D01*
X59138110Y-21276000D01*
X58461890Y-21276000D01*
X58420409Y-21271915D01*
X58386431Y-21261607D01*
X58355110Y-21244866D01*
X58327661Y-21222339D01*
X58305134Y-21194890D01*
X58288393Y-21163569D01*
X58278085Y-21129591D01*
X58274000Y-21088110D01*
X58274000Y-20486890D01*
X58278085Y-20445409D01*
X58288393Y-20411431D01*
X58305134Y-20380110D01*
X58327661Y-20352661D01*
X58355110Y-20330134D01*
X58386431Y-20313393D01*
X58420409Y-20303085D01*
X58461890Y-20299000D01*
X59138110Y-20299000D01*
X59179591Y-20303085D01*
X59179591Y-20303085D01*
G37*
G36*
X55579591Y-20303085D02*
G01*
X55613569Y-20313393D01*
X55644890Y-20330134D01*
X55672339Y-20352661D01*
X55694866Y-20380110D01*
X55711607Y-20411431D01*
X55721915Y-20445409D01*
X55726000Y-20486890D01*
X55726000Y-21088110D01*
X55721915Y-21129591D01*
X55711607Y-21163569D01*
X55694866Y-21194890D01*
X55672339Y-21222339D01*
X55644890Y-21244866D01*
X55613569Y-21261607D01*
X55579591Y-21271915D01*
X55538110Y-21276000D01*
X54861890Y-21276000D01*
X54820409Y-21271915D01*
X54786431Y-21261607D01*
X54755110Y-21244866D01*
X54727661Y-21222339D01*
X54705134Y-21194890D01*
X54688393Y-21163569D01*
X54678085Y-21129591D01*
X54674000Y-21088110D01*
X54674000Y-20486890D01*
X54678085Y-20445409D01*
X54688393Y-20411431D01*
X54705134Y-20380110D01*
X54727661Y-20352661D01*
X54755110Y-20330134D01*
X54786431Y-20313393D01*
X54820409Y-20303085D01*
X54861890Y-20299000D01*
X55538110Y-20299000D01*
X55579591Y-20303085D01*
X55579591Y-20303085D01*
G37*
G36*
X54081938Y-20141716D02*
G01*
X54102557Y-20147971D01*
X54121553Y-20158124D01*
X54138208Y-20171792D01*
X54151876Y-20188447D01*
X54162029Y-20207443D01*
X54168284Y-20228062D01*
X54171000Y-20255640D01*
X54171000Y-20714360D01*
X54168284Y-20741938D01*
X54162029Y-20762557D01*
X54151876Y-20781553D01*
X54138208Y-20798208D01*
X54121553Y-20811876D01*
X54102557Y-20822029D01*
X54081938Y-20828284D01*
X54054360Y-20831000D01*
X53545640Y-20831000D01*
X53518062Y-20828284D01*
X53497443Y-20822029D01*
X53478447Y-20811876D01*
X53461792Y-20798208D01*
X53448124Y-20781553D01*
X53437971Y-20762557D01*
X53431716Y-20741938D01*
X53429000Y-20714360D01*
X53429000Y-20255640D01*
X53431716Y-20228062D01*
X53437971Y-20207443D01*
X53448124Y-20188447D01*
X53461792Y-20171792D01*
X53478447Y-20158124D01*
X53497443Y-20147971D01*
X53518062Y-20141716D01*
X53545640Y-20139000D01*
X54054360Y-20139000D01*
X54081938Y-20141716D01*
X54081938Y-20141716D01*
G37*
G36*
X54081938Y-19171716D02*
G01*
X54102557Y-19177971D01*
X54121553Y-19188124D01*
X54138208Y-19201792D01*
X54151876Y-19218447D01*
X54162029Y-19237443D01*
X54168284Y-19258062D01*
X54171000Y-19285640D01*
X54171000Y-19744360D01*
X54168284Y-19771938D01*
X54162029Y-19792557D01*
X54151876Y-19811553D01*
X54138208Y-19828208D01*
X54121553Y-19841876D01*
X54102557Y-19852029D01*
X54081938Y-19858284D01*
X54054360Y-19861000D01*
X53545640Y-19861000D01*
X53518062Y-19858284D01*
X53497443Y-19852029D01*
X53478447Y-19841876D01*
X53461792Y-19828208D01*
X53448124Y-19811553D01*
X53437971Y-19792557D01*
X53431716Y-19771938D01*
X53429000Y-19744360D01*
X53429000Y-19285640D01*
X53431716Y-19258062D01*
X53437971Y-19237443D01*
X53448124Y-19218447D01*
X53461792Y-19201792D01*
X53478447Y-19188124D01*
X53497443Y-19177971D01*
X53518062Y-19171716D01*
X53545640Y-19169000D01*
X54054360Y-19169000D01*
X54081938Y-19171716D01*
X54081938Y-19171716D01*
G37*
G36*
X55579591Y-18728085D02*
G01*
X55613569Y-18738393D01*
X55644890Y-18755134D01*
X55672339Y-18777661D01*
X55694866Y-18805110D01*
X55711607Y-18836431D01*
X55721915Y-18870409D01*
X55726000Y-18911890D01*
X55726000Y-19513110D01*
X55721915Y-19554591D01*
X55711607Y-19588569D01*
X55694866Y-19619890D01*
X55672339Y-19647339D01*
X55644890Y-19669866D01*
X55613569Y-19686607D01*
X55579591Y-19696915D01*
X55538110Y-19701000D01*
X54861890Y-19701000D01*
X54820409Y-19696915D01*
X54786431Y-19686607D01*
X54755110Y-19669866D01*
X54727661Y-19647339D01*
X54705134Y-19619890D01*
X54688393Y-19588569D01*
X54678085Y-19554591D01*
X54674000Y-19513110D01*
X54674000Y-18911890D01*
X54678085Y-18870409D01*
X54688393Y-18836431D01*
X54705134Y-18805110D01*
X54727661Y-18777661D01*
X54755110Y-18755134D01*
X54786431Y-18738393D01*
X54820409Y-18728085D01*
X54861890Y-18724000D01*
X55538110Y-18724000D01*
X55579591Y-18728085D01*
X55579591Y-18728085D01*
G37*
G36*
X59179591Y-18728085D02*
G01*
X59213569Y-18738393D01*
X59244890Y-18755134D01*
X59272339Y-18777661D01*
X59294866Y-18805110D01*
X59311607Y-18836431D01*
X59321915Y-18870409D01*
X59326000Y-18911890D01*
X59326000Y-19513110D01*
X59321915Y-19554591D01*
X59311607Y-19588569D01*
X59294866Y-19619890D01*
X59272339Y-19647339D01*
X59244890Y-19669866D01*
X59213569Y-19686607D01*
X59179591Y-19696915D01*
X59138110Y-19701000D01*
X58461890Y-19701000D01*
X58420409Y-19696915D01*
X58386431Y-19686607D01*
X58355110Y-19669866D01*
X58327661Y-19647339D01*
X58305134Y-19619890D01*
X58288393Y-19588569D01*
X58278085Y-19554591D01*
X58274000Y-19513110D01*
X58274000Y-18911890D01*
X58278085Y-18870409D01*
X58288393Y-18836431D01*
X58305134Y-18805110D01*
X58327661Y-18777661D01*
X58355110Y-18755134D01*
X58386431Y-18738393D01*
X58420409Y-18728085D01*
X58461890Y-18724000D01*
X59138110Y-18724000D01*
X59179591Y-18728085D01*
X59179591Y-18728085D01*
G37*
G36*
X60779591Y-18728085D02*
G01*
X60813569Y-18738393D01*
X60844890Y-18755134D01*
X60872339Y-18777661D01*
X60894866Y-18805110D01*
X60911607Y-18836431D01*
X60921915Y-18870409D01*
X60926000Y-18911890D01*
X60926000Y-19513110D01*
X60921915Y-19554591D01*
X60911607Y-19588569D01*
X60894866Y-19619890D01*
X60872339Y-19647339D01*
X60844890Y-19669866D01*
X60813569Y-19686607D01*
X60779591Y-19696915D01*
X60738110Y-19701000D01*
X60061890Y-19701000D01*
X60020409Y-19696915D01*
X59986431Y-19686607D01*
X59955110Y-19669866D01*
X59927661Y-19647339D01*
X59905134Y-19619890D01*
X59888393Y-19588569D01*
X59878085Y-19554591D01*
X59874000Y-19513110D01*
X59874000Y-18911890D01*
X59878085Y-18870409D01*
X59888393Y-18836431D01*
X59905134Y-18805110D01*
X59927661Y-18777661D01*
X59955110Y-18755134D01*
X59986431Y-18738393D01*
X60020409Y-18728085D01*
X60061890Y-18724000D01*
X60738110Y-18724000D01*
X60779591Y-18728085D01*
X60779591Y-18728085D01*
G37*
G36*
X57701000Y-19451000D02*
G01*
X56299000Y-19451000D01*
X56299000Y-18649000D01*
X57701000Y-18649000D01*
X57701000Y-19451000D01*
X57701000Y-19451000D01*
G37*
G36*
X14133642Y-17529781D02*
G01*
X14279414Y-17590162D01*
X14279416Y-17590163D01*
X14410608Y-17677822D01*
X14522178Y-17789392D01*
X14609837Y-17920584D01*
X14609838Y-17920586D01*
X14670219Y-18066358D01*
X14701000Y-18221107D01*
X14701000Y-18378893D01*
X14670219Y-18533642D01*
X14622436Y-18649000D01*
X14609837Y-18679416D01*
X14522178Y-18810608D01*
X14410608Y-18922178D01*
X14279416Y-19009837D01*
X14279415Y-19009838D01*
X14279414Y-19009838D01*
X14133642Y-19070219D01*
X13978893Y-19101000D01*
X13821107Y-19101000D01*
X13666358Y-19070219D01*
X13520586Y-19009838D01*
X13520585Y-19009838D01*
X13520584Y-19009837D01*
X13389392Y-18922178D01*
X13277822Y-18810608D01*
X13190163Y-18679416D01*
X13177564Y-18649000D01*
X13129781Y-18533642D01*
X13099000Y-18378893D01*
X13099000Y-18221107D01*
X13129781Y-18066358D01*
X13190162Y-17920586D01*
X13190163Y-17920584D01*
X13277822Y-17789392D01*
X13389392Y-17677822D01*
X13520584Y-17590163D01*
X13520586Y-17590162D01*
X13666358Y-17529781D01*
X13821107Y-17499000D01*
X13978893Y-17499000D01*
X14133642Y-17529781D01*
X14133642Y-17529781D01*
G37*
G36*
X30748254Y-14327818D02*
G01*
X31121511Y-14482426D01*
X31121513Y-14482427D01*
X31457436Y-14706884D01*
X31743116Y-14992564D01*
X31967574Y-15328489D01*
X32122182Y-15701746D01*
X32201000Y-16097993D01*
X32201000Y-16502007D01*
X32122182Y-16898254D01*
X31967574Y-17271511D01*
X31967573Y-17271513D01*
X31743116Y-17607436D01*
X31457436Y-17893116D01*
X31121513Y-18117573D01*
X31121512Y-18117574D01*
X31121511Y-18117574D01*
X30748254Y-18272182D01*
X30352007Y-18351000D01*
X29947993Y-18351000D01*
X29551746Y-18272182D01*
X29178489Y-18117574D01*
X29178488Y-18117574D01*
X29178487Y-18117573D01*
X28842564Y-17893116D01*
X28556884Y-17607436D01*
X28332427Y-17271513D01*
X28332426Y-17271511D01*
X28177818Y-16898254D01*
X28099000Y-16502007D01*
X28099000Y-16097993D01*
X28177818Y-15701746D01*
X28332426Y-15328489D01*
X28556884Y-14992564D01*
X28842564Y-14706884D01*
X29178487Y-14482427D01*
X29178489Y-14482426D01*
X29551746Y-14327818D01*
X29947993Y-14249000D01*
X30352007Y-14249000D01*
X30748254Y-14327818D01*
X30748254Y-14327818D01*
G37*
G36*
X58351000Y-16801000D02*
G01*
X57449000Y-16801000D01*
X57449000Y-15799000D01*
X58351000Y-15799000D01*
X58351000Y-16801000D01*
X58351000Y-16801000D01*
G37*
G36*
X54871938Y-16031716D02*
G01*
X54892557Y-16037971D01*
X54911553Y-16048124D01*
X54928208Y-16061792D01*
X54941876Y-16078447D01*
X54952029Y-16097443D01*
X54958284Y-16118062D01*
X54961000Y-16145640D01*
X54961000Y-16654360D01*
X54958284Y-16681938D01*
X54952029Y-16702557D01*
X54941876Y-16721553D01*
X54928208Y-16738208D01*
X54911553Y-16751876D01*
X54892557Y-16762029D01*
X54871938Y-16768284D01*
X54844360Y-16771000D01*
X54385640Y-16771000D01*
X54358062Y-16768284D01*
X54337443Y-16762029D01*
X54318447Y-16751876D01*
X54301792Y-16738208D01*
X54288124Y-16721553D01*
X54277971Y-16702557D01*
X54271716Y-16681938D01*
X54269000Y-16654360D01*
X54269000Y-16145640D01*
X54271716Y-16118062D01*
X54277971Y-16097443D01*
X54288124Y-16078447D01*
X54301792Y-16061792D01*
X54318447Y-16048124D01*
X54337443Y-16037971D01*
X54358062Y-16031716D01*
X54385640Y-16029000D01*
X54844360Y-16029000D01*
X54871938Y-16031716D01*
X54871938Y-16031716D01*
G37*
G36*
X55841938Y-16031716D02*
G01*
X55862557Y-16037971D01*
X55881553Y-16048124D01*
X55898208Y-16061792D01*
X55911876Y-16078447D01*
X55922029Y-16097443D01*
X55928284Y-16118062D01*
X55931000Y-16145640D01*
X55931000Y-16654360D01*
X55928284Y-16681938D01*
X55922029Y-16702557D01*
X55911876Y-16721553D01*
X55898208Y-16738208D01*
X55881553Y-16751876D01*
X55862557Y-16762029D01*
X55841938Y-16768284D01*
X55814360Y-16771000D01*
X55355640Y-16771000D01*
X55328062Y-16768284D01*
X55307443Y-16762029D01*
X55288447Y-16751876D01*
X55271792Y-16738208D01*
X55258124Y-16721553D01*
X55247971Y-16702557D01*
X55241716Y-16681938D01*
X55239000Y-16654360D01*
X55239000Y-16145640D01*
X55241716Y-16118062D01*
X55247971Y-16097443D01*
X55258124Y-16078447D01*
X55271792Y-16061792D01*
X55288447Y-16048124D01*
X55307443Y-16037971D01*
X55328062Y-16031716D01*
X55355640Y-16029000D01*
X55814360Y-16029000D01*
X55841938Y-16031716D01*
X55841938Y-16031716D01*
G37*
G36*
X47551000Y-15951000D02*
G01*
X45649000Y-15951000D01*
X45649000Y-14049000D01*
X47551000Y-14049000D01*
X47551000Y-15951000D01*
X47551000Y-15951000D01*
G37*
G36*
X40551000Y-15951000D02*
G01*
X38649000Y-15951000D01*
X38649000Y-14049000D01*
X40551000Y-14049000D01*
X40551000Y-15951000D01*
X40551000Y-15951000D01*
G37*
G36*
X59301000Y-14801000D02*
G01*
X58399000Y-14801000D01*
X58399000Y-13799000D01*
X59301000Y-13799000D01*
X59301000Y-14801000D01*
X59301000Y-14801000D01*
G37*
G36*
X57401000Y-14801000D02*
G01*
X56499000Y-14801000D01*
X56499000Y-13799000D01*
X57401000Y-13799000D01*
X57401000Y-14801000D01*
X57401000Y-14801000D01*
G37*
G36*
X19318433Y-11634893D02*
G01*
X19408657Y-11652839D01*
X19514267Y-11696585D01*
X19663621Y-11758449D01*
X19663622Y-11758450D01*
X19893086Y-11911772D01*
X20088228Y-12106914D01*
X20189221Y-12258062D01*
X20241551Y-12336379D01*
X20347161Y-12591344D01*
X20401000Y-12862012D01*
X20401000Y-13137988D01*
X20347161Y-13408656D01*
X20241551Y-13663621D01*
X20241550Y-13663622D01*
X20088228Y-13893086D01*
X19893086Y-14088228D01*
X19739763Y-14190675D01*
X19663621Y-14241551D01*
X19514267Y-14303415D01*
X19408657Y-14347161D01*
X19318433Y-14365107D01*
X19137988Y-14401000D01*
X18862012Y-14401000D01*
X18681567Y-14365107D01*
X18591343Y-14347161D01*
X18485733Y-14303415D01*
X18336379Y-14241551D01*
X18260237Y-14190675D01*
X18106914Y-14088228D01*
X17911772Y-13893086D01*
X17758450Y-13663622D01*
X17758449Y-13663621D01*
X17652839Y-13408656D01*
X17599000Y-13137988D01*
X17599000Y-12862012D01*
X17652839Y-12591344D01*
X17758449Y-12336379D01*
X17810779Y-12258062D01*
X17911772Y-12106914D01*
X18106914Y-11911772D01*
X18336378Y-11758450D01*
X18336379Y-11758449D01*
X18485733Y-11696585D01*
X18591343Y-11652839D01*
X18681567Y-11634893D01*
X18862012Y-11599000D01*
X19137988Y-11599000D01*
X19318433Y-11634893D01*
X19318433Y-11634893D01*
G37*
G36*
X63818433Y-11634893D02*
G01*
X63908657Y-11652839D01*
X64014267Y-11696585D01*
X64163621Y-11758449D01*
X64163622Y-11758450D01*
X64393086Y-11911772D01*
X64588228Y-12106914D01*
X64689221Y-12258062D01*
X64741551Y-12336379D01*
X64847161Y-12591344D01*
X64901000Y-12862012D01*
X64901000Y-13137988D01*
X64847161Y-13408656D01*
X64741551Y-13663621D01*
X64741550Y-13663622D01*
X64588228Y-13893086D01*
X64393086Y-14088228D01*
X64239763Y-14190675D01*
X64163621Y-14241551D01*
X64014267Y-14303415D01*
X63908657Y-14347161D01*
X63818433Y-14365107D01*
X63637988Y-14401000D01*
X63362012Y-14401000D01*
X63181567Y-14365107D01*
X63091343Y-14347161D01*
X62985733Y-14303415D01*
X62836379Y-14241551D01*
X62760237Y-14190675D01*
X62606914Y-14088228D01*
X62411772Y-13893086D01*
X62258450Y-13663622D01*
X62258449Y-13663621D01*
X62152839Y-13408656D01*
X62099000Y-13137988D01*
X62099000Y-12862012D01*
X62152839Y-12591344D01*
X62258449Y-12336379D01*
X62310779Y-12258062D01*
X62411772Y-12106914D01*
X62606914Y-11911772D01*
X62836378Y-11758450D01*
X62836379Y-11758449D01*
X62985733Y-11696585D01*
X63091343Y-11652839D01*
X63181567Y-11634893D01*
X63362012Y-11599000D01*
X63637988Y-11599000D01*
X63818433Y-11634893D01*
X63818433Y-11634893D01*
G37*
G36*
X51481938Y-13141716D02*
G01*
X51502557Y-13147971D01*
X51521553Y-13158124D01*
X51538208Y-13171792D01*
X51551876Y-13188447D01*
X51562029Y-13207443D01*
X51568284Y-13228062D01*
X51571000Y-13255640D01*
X51571000Y-13714360D01*
X51568284Y-13741938D01*
X51562029Y-13762557D01*
X51551876Y-13781553D01*
X51538208Y-13798208D01*
X51521553Y-13811876D01*
X51502557Y-13822029D01*
X51481938Y-13828284D01*
X51454360Y-13831000D01*
X50945640Y-13831000D01*
X50918062Y-13828284D01*
X50897443Y-13822029D01*
X50878447Y-13811876D01*
X50861792Y-13798208D01*
X50848124Y-13781553D01*
X50837971Y-13762557D01*
X50831716Y-13741938D01*
X50829000Y-13714360D01*
X50829000Y-13255640D01*
X50831716Y-13228062D01*
X50837971Y-13207443D01*
X50848124Y-13188447D01*
X50861792Y-13171792D01*
X50878447Y-13158124D01*
X50897443Y-13147971D01*
X50918062Y-13141716D01*
X50945640Y-13139000D01*
X51454360Y-13139000D01*
X51481938Y-13141716D01*
X51481938Y-13141716D01*
G37*
G36*
X39877395Y-11545546D02*
G01*
X40050466Y-11617234D01*
X40127818Y-11668919D01*
X40206227Y-11721310D01*
X40338690Y-11853773D01*
X40391081Y-11932182D01*
X40442766Y-12009534D01*
X40514454Y-12182605D01*
X40551000Y-12366333D01*
X40551000Y-12553667D01*
X40514454Y-12737395D01*
X40442766Y-12910466D01*
X40442765Y-12910467D01*
X40338690Y-13066227D01*
X40206227Y-13198690D01*
X40127818Y-13251081D01*
X40050466Y-13302766D01*
X39877395Y-13374454D01*
X39693667Y-13411000D01*
X39506333Y-13411000D01*
X39322605Y-13374454D01*
X39149534Y-13302766D01*
X39072182Y-13251081D01*
X38993773Y-13198690D01*
X38861310Y-13066227D01*
X38757235Y-12910467D01*
X38757234Y-12910466D01*
X38685546Y-12737395D01*
X38649000Y-12553667D01*
X38649000Y-12366333D01*
X38685546Y-12182605D01*
X38757234Y-12009534D01*
X38808919Y-11932182D01*
X38861310Y-11853773D01*
X38993773Y-11721310D01*
X39072182Y-11668919D01*
X39149534Y-11617234D01*
X39322605Y-11545546D01*
X39506333Y-11509000D01*
X39693667Y-11509000D01*
X39877395Y-11545546D01*
X39877395Y-11545546D01*
G37*
G36*
X46877395Y-11545546D02*
G01*
X47050466Y-11617234D01*
X47127818Y-11668919D01*
X47206227Y-11721310D01*
X47338690Y-11853773D01*
X47391081Y-11932182D01*
X47442766Y-12009534D01*
X47514454Y-12182605D01*
X47551000Y-12366333D01*
X47551000Y-12553667D01*
X47514454Y-12737395D01*
X47442766Y-12910466D01*
X47442765Y-12910467D01*
X47338690Y-13066227D01*
X47206227Y-13198690D01*
X47127818Y-13251081D01*
X47050466Y-13302766D01*
X46877395Y-13374454D01*
X46693667Y-13411000D01*
X46506333Y-13411000D01*
X46322605Y-13374454D01*
X46149534Y-13302766D01*
X46072182Y-13251081D01*
X45993773Y-13198690D01*
X45861310Y-13066227D01*
X45757235Y-12910467D01*
X45757234Y-12910466D01*
X45685546Y-12737395D01*
X45649000Y-12553667D01*
X45649000Y-12366333D01*
X45685546Y-12182605D01*
X45757234Y-12009534D01*
X45808919Y-11932182D01*
X45861310Y-11853773D01*
X45993773Y-11721310D01*
X46072182Y-11668919D01*
X46149534Y-11617234D01*
X46322605Y-11545546D01*
X46506333Y-11509000D01*
X46693667Y-11509000D01*
X46877395Y-11545546D01*
X46877395Y-11545546D01*
G37*
G36*
X57671938Y-12531716D02*
G01*
X57692557Y-12537971D01*
X57711553Y-12548124D01*
X57728208Y-12561792D01*
X57741876Y-12578447D01*
X57752029Y-12597443D01*
X57758284Y-12618062D01*
X57761000Y-12645640D01*
X57761000Y-13154360D01*
X57758284Y-13181938D01*
X57752029Y-13202557D01*
X57741876Y-13221553D01*
X57728208Y-13238208D01*
X57711553Y-13251876D01*
X57692557Y-13262029D01*
X57671938Y-13268284D01*
X57644360Y-13271000D01*
X57185640Y-13271000D01*
X57158062Y-13268284D01*
X57137443Y-13262029D01*
X57118447Y-13251876D01*
X57101792Y-13238208D01*
X57088124Y-13221553D01*
X57077971Y-13202557D01*
X57071716Y-13181938D01*
X57069000Y-13154360D01*
X57069000Y-12645640D01*
X57071716Y-12618062D01*
X57077971Y-12597443D01*
X57088124Y-12578447D01*
X57101792Y-12561792D01*
X57118447Y-12548124D01*
X57137443Y-12537971D01*
X57158062Y-12531716D01*
X57185640Y-12529000D01*
X57644360Y-12529000D01*
X57671938Y-12531716D01*
X57671938Y-12531716D01*
G37*
G36*
X58641938Y-12531716D02*
G01*
X58662557Y-12537971D01*
X58681553Y-12548124D01*
X58698208Y-12561792D01*
X58711876Y-12578447D01*
X58722029Y-12597443D01*
X58728284Y-12618062D01*
X58731000Y-12645640D01*
X58731000Y-13154360D01*
X58728284Y-13181938D01*
X58722029Y-13202557D01*
X58711876Y-13221553D01*
X58698208Y-13238208D01*
X58681553Y-13251876D01*
X58662557Y-13262029D01*
X58641938Y-13268284D01*
X58614360Y-13271000D01*
X58155640Y-13271000D01*
X58128062Y-13268284D01*
X58107443Y-13262029D01*
X58088447Y-13251876D01*
X58071792Y-13238208D01*
X58058124Y-13221553D01*
X58047971Y-13202557D01*
X58041716Y-13181938D01*
X58039000Y-13154360D01*
X58039000Y-12645640D01*
X58041716Y-12618062D01*
X58047971Y-12597443D01*
X58058124Y-12578447D01*
X58071792Y-12561792D01*
X58088447Y-12548124D01*
X58107443Y-12537971D01*
X58128062Y-12531716D01*
X58155640Y-12529000D01*
X58614360Y-12529000D01*
X58641938Y-12531716D01*
X58641938Y-12531716D01*
G37*
G36*
X51481938Y-12171716D02*
G01*
X51502557Y-12177971D01*
X51521553Y-12188124D01*
X51538208Y-12201792D01*
X51551876Y-12218447D01*
X51562029Y-12237443D01*
X51568284Y-12258062D01*
X51571000Y-12285640D01*
X51571000Y-12744360D01*
X51568284Y-12771938D01*
X51562029Y-12792557D01*
X51551876Y-12811553D01*
X51538208Y-12828208D01*
X51521553Y-12841876D01*
X51502557Y-12852029D01*
X51481938Y-12858284D01*
X51454360Y-12861000D01*
X50945640Y-12861000D01*
X50918062Y-12858284D01*
X50897443Y-12852029D01*
X50878447Y-12841876D01*
X50861792Y-12828208D01*
X50848124Y-12811553D01*
X50837971Y-12792557D01*
X50831716Y-12771938D01*
X50829000Y-12744360D01*
X50829000Y-12285640D01*
X50831716Y-12258062D01*
X50837971Y-12237443D01*
X50848124Y-12218447D01*
X50861792Y-12201792D01*
X50878447Y-12188124D01*
X50897443Y-12177971D01*
X50918062Y-12171716D01*
X50945640Y-12169000D01*
X51454360Y-12169000D01*
X51481938Y-12171716D01*
X51481938Y-12171716D01*
G37*
M02*
