G04 #@! TF.GenerationSoftware,KiCad,Pcbnew,(5.1.4)-1*
G04 #@! TF.CreationDate,2019-11-19T12:21:55+05:30*
G04 #@! TF.ProjectId,SensePi_rev5_main,53656e73-6550-4695-9f72-6576355f6d61,rev?*
G04 #@! TF.SameCoordinates,Original*
G04 #@! TF.FileFunction,Legend,Top*
G04 #@! TF.FilePolarity,Positive*
%FSLAX46Y46*%
G04 Gerber Fmt 4.6, Leading zero omitted, Abs format (unit mm)*
G04 Created by KiCad (PCBNEW (5.1.4)-1) date 2019-11-19 12:21:55*
%MOMM*%
%LPD*%
G04 APERTURE LIST*
%ADD10C,0.300000*%
%ADD11C,0.120000*%
%ADD12C,0.150000*%
G04 APERTURE END LIST*
D10*
X20728571Y-49057142D02*
X20942857Y-49128571D01*
X21300000Y-49128571D01*
X21442857Y-49057142D01*
X21514285Y-48985714D01*
X21585714Y-48842857D01*
X21585714Y-48700000D01*
X21514285Y-48557142D01*
X21442857Y-48485714D01*
X21300000Y-48414285D01*
X21014285Y-48342857D01*
X20871428Y-48271428D01*
X20800000Y-48200000D01*
X20728571Y-48057142D01*
X20728571Y-47914285D01*
X20800000Y-47771428D01*
X20871428Y-47700000D01*
X21014285Y-47628571D01*
X21371428Y-47628571D01*
X21585714Y-47700000D01*
X22800000Y-49057142D02*
X22657142Y-49128571D01*
X22371428Y-49128571D01*
X22228571Y-49057142D01*
X22157142Y-48914285D01*
X22157142Y-48342857D01*
X22228571Y-48200000D01*
X22371428Y-48128571D01*
X22657142Y-48128571D01*
X22800000Y-48200000D01*
X22871428Y-48342857D01*
X22871428Y-48485714D01*
X22157142Y-48628571D01*
X23514285Y-48128571D02*
X23514285Y-49128571D01*
X23514285Y-48271428D02*
X23585714Y-48200000D01*
X23728571Y-48128571D01*
X23942857Y-48128571D01*
X24085714Y-48200000D01*
X24157142Y-48342857D01*
X24157142Y-49128571D01*
X24800000Y-49057142D02*
X24942857Y-49128571D01*
X25228571Y-49128571D01*
X25371428Y-49057142D01*
X25442857Y-48914285D01*
X25442857Y-48842857D01*
X25371428Y-48700000D01*
X25228571Y-48628571D01*
X25014285Y-48628571D01*
X24871428Y-48557142D01*
X24800000Y-48414285D01*
X24800000Y-48342857D01*
X24871428Y-48200000D01*
X25014285Y-48128571D01*
X25228571Y-48128571D01*
X25371428Y-48200000D01*
X26657142Y-49057142D02*
X26514285Y-49128571D01*
X26228571Y-49128571D01*
X26085714Y-49057142D01*
X26014285Y-48914285D01*
X26014285Y-48342857D01*
X26085714Y-48200000D01*
X26228571Y-48128571D01*
X26514285Y-48128571D01*
X26657142Y-48200000D01*
X26728571Y-48342857D01*
X26728571Y-48485714D01*
X26014285Y-48628571D01*
X27371428Y-49128571D02*
X27371428Y-47628571D01*
X27942857Y-47628571D01*
X28085714Y-47700000D01*
X28157142Y-47771428D01*
X28228571Y-47914285D01*
X28228571Y-48128571D01*
X28157142Y-48271428D01*
X28085714Y-48342857D01*
X27942857Y-48414285D01*
X27371428Y-48414285D01*
X28871428Y-49128571D02*
X28871428Y-48128571D01*
X28871428Y-47628571D02*
X28800000Y-47700000D01*
X28871428Y-47771428D01*
X28942857Y-47700000D01*
X28871428Y-47628571D01*
X28871428Y-47771428D01*
X30728571Y-49128571D02*
X30728571Y-48128571D01*
X30728571Y-48414285D02*
X30800000Y-48271428D01*
X30871428Y-48200000D01*
X31014285Y-48128571D01*
X31157142Y-48128571D01*
X32228571Y-49057142D02*
X32085714Y-49128571D01*
X31800000Y-49128571D01*
X31657142Y-49057142D01*
X31585714Y-48914285D01*
X31585714Y-48342857D01*
X31657142Y-48200000D01*
X31800000Y-48128571D01*
X32085714Y-48128571D01*
X32228571Y-48200000D01*
X32300000Y-48342857D01*
X32300000Y-48485714D01*
X31585714Y-48628571D01*
X32800000Y-48128571D02*
X33157142Y-49128571D01*
X33514285Y-48128571D01*
X34800000Y-47628571D02*
X34085714Y-47628571D01*
X34014285Y-48342857D01*
X34085714Y-48271428D01*
X34228571Y-48200000D01*
X34585714Y-48200000D01*
X34728571Y-48271428D01*
X34800000Y-48342857D01*
X34871428Y-48485714D01*
X34871428Y-48842857D01*
X34800000Y-48985714D01*
X34728571Y-49057142D01*
X34585714Y-49128571D01*
X34228571Y-49128571D01*
X34085714Y-49057142D01*
X34014285Y-48985714D01*
D11*
X21400000Y-40000000D02*
X21400000Y-43000000D01*
X34400000Y-40000000D02*
X21400000Y-40000000D01*
X34400000Y-46500000D02*
X34400000Y-40000000D01*
X21400000Y-46500000D02*
X34400000Y-46500000D01*
X21400000Y-43000000D02*
X21400000Y-46500000D01*
X22825000Y-38200000D02*
X22225000Y-38500000D01*
X22825000Y-38800000D02*
X22825000Y-38200000D01*
X22225000Y-38500000D02*
X22825000Y-38800000D01*
X19410000Y-35680000D02*
X19410000Y-36000000D01*
X15990000Y-35680000D02*
X19410000Y-35680000D01*
X15910000Y-36000000D02*
X15990000Y-35680000D01*
X15990000Y-36320000D02*
X15910000Y-36000000D01*
X19410000Y-36320000D02*
X15990000Y-36320000D01*
X19410000Y-36000000D02*
X19410000Y-36320000D01*
X20410000Y-37330000D02*
X20410000Y-37170000D01*
X19410000Y-38180000D02*
X19410000Y-38500000D01*
X15990000Y-38180000D02*
X19410000Y-38180000D01*
X15910000Y-38500000D02*
X15990000Y-38180000D01*
X15990000Y-38820000D02*
X15910000Y-38500000D01*
X19410000Y-38820000D02*
X15990000Y-38820000D01*
X19410000Y-38500000D02*
X19410000Y-38820000D01*
X19410000Y-39890000D02*
X19410000Y-34610000D01*
X20410000Y-34610000D02*
X20410000Y-33390000D01*
X15410000Y-34610000D02*
X20410000Y-34610000D01*
X15410000Y-33390000D02*
X15410000Y-34610000D01*
X20410000Y-39890000D02*
X20410000Y-41110000D01*
X15410000Y-39890000D02*
X20410000Y-39890000D01*
X15410000Y-41110000D02*
X15410000Y-39890000D01*
X14190000Y-33390000D02*
X21000000Y-33390000D01*
X14190000Y-41110000D02*
X14190000Y-33390000D01*
X21000000Y-41110000D02*
X14190000Y-41110000D01*
X36710000Y-40202064D02*
X36710000Y-38997936D01*
X34890000Y-40202064D02*
X34890000Y-38997936D01*
X38002064Y-30110000D02*
X36797936Y-30110000D01*
X38002064Y-28290000D02*
X36797936Y-28290000D01*
X36302064Y-31390000D02*
X35097936Y-31390000D01*
X36302064Y-33210000D02*
X35097936Y-33210000D01*
X52210000Y-30002064D02*
X52210000Y-28797936D01*
X50390000Y-30002064D02*
X50390000Y-28797936D01*
X39600462Y-10740000D02*
G75*
G03X38055170Y-16290000I-462J-2990000D01*
G01*
X39599538Y-10740000D02*
G75*
G02X41144830Y-16290000I462J-2990000D01*
G01*
X42100000Y-13730000D02*
G75*
G03X42100000Y-13730000I-2500000J0D01*
G01*
X38055000Y-16290000D02*
X41145000Y-16290000D01*
X13100000Y-24250000D02*
X21850000Y-24250000D01*
X21900000Y-24250000D02*
X21900000Y-31750000D01*
X21900000Y-31750000D02*
X13100000Y-31750000D01*
X9750000Y-28000000D02*
X9750000Y-24250000D01*
X9750000Y-24250000D02*
X11100000Y-24250000D01*
X9750000Y-28000000D02*
X9750000Y-31750000D01*
X9750000Y-31750000D02*
X11100000Y-31750000D01*
X65230000Y-35090000D02*
X60030000Y-35090000D01*
X65230000Y-40230000D02*
X65230000Y-35090000D01*
X60030000Y-42830000D02*
X60030000Y-35090000D01*
X65230000Y-40230000D02*
X62630000Y-40230000D01*
X62630000Y-40230000D02*
X62630000Y-42830000D01*
X62630000Y-42830000D02*
X60030000Y-42830000D01*
X65230000Y-41500000D02*
X65230000Y-42830000D01*
X65230000Y-42830000D02*
X63900000Y-42830000D01*
X56120000Y-20600000D02*
X56120000Y-19400000D01*
X57880000Y-19400000D02*
X57880000Y-20600000D01*
X35640000Y-42220000D02*
X37100000Y-42220000D01*
X35640000Y-45380000D02*
X37800000Y-45380000D01*
X35640000Y-45380000D02*
X35640000Y-44450000D01*
X35640000Y-42220000D02*
X35640000Y-43150000D01*
X56320000Y-16060000D02*
X56320000Y-14600000D01*
X59480000Y-16060000D02*
X59480000Y-13900000D01*
X59480000Y-16060000D02*
X58550000Y-16060000D01*
X56320000Y-16060000D02*
X57250000Y-16060000D01*
X45055000Y-16290000D02*
X48145000Y-16290000D01*
X49100000Y-13730000D02*
G75*
G03X49100000Y-13730000I-2500000J0D01*
G01*
X46599538Y-10740000D02*
G75*
G02X48144830Y-16290000I462J-2990000D01*
G01*
X46600462Y-10740000D02*
G75*
G03X45055170Y-16290000I-462J-2990000D01*
G01*
D12*
X66750000Y-32500000D02*
X66750000Y-22500000D01*
X70000000Y-22500000D02*
X70000000Y-32500000D01*
X63319400Y-22496200D02*
X65072000Y-22496200D01*
X69999600Y-22496200D02*
X66748400Y-22496200D01*
X54023000Y-22496200D02*
X55953400Y-22496200D01*
X53997600Y-32503800D02*
X55267600Y-32503800D01*
X69999600Y-32503800D02*
X66748400Y-32503800D01*
D11*
X45100000Y-27990000D02*
X43300000Y-27990000D01*
X43300000Y-31210000D02*
X45750000Y-31210000D01*
X39500000Y-33000000D02*
X39500000Y-37000000D01*
X42500000Y-33000000D02*
X42500000Y-36000000D01*
D12*
X48814000Y-43623000D02*
X48814000Y-42477000D01*
X47664000Y-42477000D02*
X48814000Y-42477000D01*
X47664000Y-43623000D02*
X48814000Y-43623000D01*
X47663113Y-42469977D02*
G75*
G03X47664000Y-43623000I-4563113J-580023D01*
G01*
D11*
X50200000Y-32840000D02*
X48250000Y-32840000D01*
X50200000Y-32840000D02*
X52150000Y-32840000D01*
X50200000Y-37960000D02*
X48250000Y-37960000D01*
X50200000Y-37960000D02*
X53650000Y-37960000D01*
X50200000Y-21100000D02*
X50200000Y-25100000D01*
X50200000Y-25100000D02*
X52200000Y-25100000D01*
X52200000Y-25100000D02*
X52200000Y-21100000D01*
X52200000Y-21100000D02*
X50200000Y-21100000D01*
X54200000Y-38100000D02*
X56200000Y-38100000D01*
X54200000Y-34100000D02*
X54200000Y-38100000D01*
X56200000Y-34100000D02*
X54200000Y-34100000D01*
X56200000Y-38100000D02*
X56200000Y-34100000D01*
X59890000Y-19837221D02*
X59890000Y-20162779D01*
X60910000Y-19837221D02*
X60910000Y-20162779D01*
X55710000Y-19837221D02*
X55710000Y-20162779D01*
X54690000Y-19837221D02*
X54690000Y-20162779D01*
X58290000Y-20162779D02*
X58290000Y-19837221D01*
X59310000Y-20162779D02*
X59310000Y-19837221D01*
X52000000Y-40800000D02*
X52000000Y-45300000D01*
X56000000Y-39550000D02*
X54500000Y-39550000D01*
X58500000Y-45300000D02*
X58500000Y-40800000D01*
X54500000Y-46550000D02*
X56000000Y-46550000D01*
X34950000Y-36600000D02*
X36650000Y-36600000D01*
X36650000Y-36600000D02*
X36650000Y-34050000D01*
X34950000Y-36600000D02*
X34950000Y-34050000D01*
D12*
X27200000Y-39542857D02*
X27285714Y-39571428D01*
X27428571Y-39571428D01*
X27485714Y-39542857D01*
X27514285Y-39514285D01*
X27542857Y-39457142D01*
X27542857Y-39400000D01*
X27514285Y-39342857D01*
X27485714Y-39314285D01*
X27428571Y-39285714D01*
X27314285Y-39257142D01*
X27257142Y-39228571D01*
X27228571Y-39200000D01*
X27200000Y-39142857D01*
X27200000Y-39085714D01*
X27228571Y-39028571D01*
X27257142Y-39000000D01*
X27314285Y-38971428D01*
X27457142Y-38971428D01*
X27542857Y-39000000D01*
X27742857Y-38971428D02*
X27885714Y-39571428D01*
X28000000Y-39142857D01*
X28114285Y-39571428D01*
X28257142Y-38971428D01*
X28457142Y-39028571D02*
X28485714Y-39000000D01*
X28542857Y-38971428D01*
X28685714Y-38971428D01*
X28742857Y-39000000D01*
X28771428Y-39028571D01*
X28800000Y-39085714D01*
X28800000Y-39142857D01*
X28771428Y-39228571D01*
X28428571Y-39571428D01*
X28800000Y-39571428D01*
X18578571Y-41907142D02*
X18664285Y-41935714D01*
X18692857Y-41964285D01*
X18721428Y-42021428D01*
X18721428Y-42107142D01*
X18692857Y-42164285D01*
X18664285Y-42192857D01*
X18607142Y-42221428D01*
X18378571Y-42221428D01*
X18378571Y-41621428D01*
X18578571Y-41621428D01*
X18635714Y-41650000D01*
X18664285Y-41678571D01*
X18692857Y-41735714D01*
X18692857Y-41792857D01*
X18664285Y-41850000D01*
X18635714Y-41878571D01*
X18578571Y-41907142D01*
X18378571Y-41907142D01*
X18892857Y-41621428D02*
X19235714Y-41621428D01*
X19064285Y-42221428D02*
X19064285Y-41621428D01*
X19750000Y-42221428D02*
X19407142Y-42221428D01*
X19578571Y-42221428D02*
X19578571Y-41621428D01*
X19521428Y-41707142D01*
X19464285Y-41764285D01*
X19407142Y-41792857D01*
X37342857Y-25271428D02*
X37685714Y-25271428D01*
X37514285Y-25871428D02*
X37514285Y-25271428D01*
X37885714Y-25871428D02*
X37885714Y-25271428D01*
X38114285Y-25271428D01*
X38171428Y-25300000D01*
X38200000Y-25328571D01*
X38228571Y-25385714D01*
X38228571Y-25471428D01*
X38200000Y-25528571D01*
X38171428Y-25557142D01*
X38114285Y-25585714D01*
X37885714Y-25585714D01*
X38800000Y-25871428D02*
X38457142Y-25871428D01*
X38628571Y-25871428D02*
X38628571Y-25271428D01*
X38571428Y-25357142D01*
X38514285Y-25414285D01*
X38457142Y-25442857D01*
X49453571Y-45689285D02*
X49882142Y-45689285D01*
X49667857Y-46439285D02*
X49667857Y-45689285D01*
X50132142Y-46439285D02*
X50132142Y-45689285D01*
X50417857Y-45689285D01*
X50489285Y-45725000D01*
X50525000Y-45760714D01*
X50560714Y-45832142D01*
X50560714Y-45939285D01*
X50525000Y-46010714D01*
X50489285Y-46046428D01*
X50417857Y-46082142D01*
X50132142Y-46082142D01*
X51203571Y-45689285D02*
X51060714Y-45689285D01*
X50989285Y-45725000D01*
X50953571Y-45760714D01*
X50882142Y-45867857D01*
X50846428Y-46010714D01*
X50846428Y-46296428D01*
X50882142Y-46367857D01*
X50917857Y-46403571D01*
X50989285Y-46439285D01*
X51132142Y-46439285D01*
X51203571Y-46403571D01*
X51239285Y-46367857D01*
X51275000Y-46296428D01*
X51275000Y-46117857D01*
X51239285Y-46046428D01*
X51203571Y-46010714D01*
X51132142Y-45975000D01*
X50989285Y-45975000D01*
X50917857Y-46010714D01*
X50882142Y-46046428D01*
X50846428Y-46117857D01*
X63173571Y-16069285D02*
X63602142Y-16069285D01*
X63387857Y-16819285D02*
X63387857Y-16069285D01*
X63852142Y-16819285D02*
X63852142Y-16069285D01*
X64137857Y-16069285D01*
X64209285Y-16105000D01*
X64245000Y-16140714D01*
X64280714Y-16212142D01*
X64280714Y-16319285D01*
X64245000Y-16390714D01*
X64209285Y-16426428D01*
X64137857Y-16462142D01*
X63852142Y-16462142D01*
X64923571Y-16319285D02*
X64923571Y-16819285D01*
X64745000Y-16033571D02*
X64566428Y-16569285D01*
X65030714Y-16569285D01*
X26114285Y-31171428D02*
X25914285Y-30885714D01*
X25771428Y-31171428D02*
X25771428Y-30571428D01*
X26000000Y-30571428D01*
X26057142Y-30600000D01*
X26085714Y-30628571D01*
X26114285Y-30685714D01*
X26114285Y-30771428D01*
X26085714Y-30828571D01*
X26057142Y-30857142D01*
X26000000Y-30885714D01*
X25771428Y-30885714D01*
X26685714Y-31171428D02*
X26342857Y-31171428D01*
X26514285Y-31171428D02*
X26514285Y-30571428D01*
X26457142Y-30657142D01*
X26400000Y-30714285D01*
X26342857Y-30742857D01*
X27200000Y-30571428D02*
X27085714Y-30571428D01*
X27028571Y-30600000D01*
X27000000Y-30628571D01*
X26942857Y-30714285D01*
X26914285Y-30828571D01*
X26914285Y-31057142D01*
X26942857Y-31114285D01*
X26971428Y-31142857D01*
X27028571Y-31171428D01*
X27142857Y-31171428D01*
X27200000Y-31142857D01*
X27228571Y-31114285D01*
X27257142Y-31057142D01*
X27257142Y-30914285D01*
X27228571Y-30857142D01*
X27200000Y-30828571D01*
X27142857Y-30800000D01*
X27028571Y-30800000D01*
X26971428Y-30828571D01*
X26942857Y-30857142D01*
X26914285Y-30914285D01*
X52514285Y-12171428D02*
X52314285Y-11885714D01*
X52171428Y-12171428D02*
X52171428Y-11571428D01*
X52400000Y-11571428D01*
X52457142Y-11600000D01*
X52485714Y-11628571D01*
X52514285Y-11685714D01*
X52514285Y-11771428D01*
X52485714Y-11828571D01*
X52457142Y-11857142D01*
X52400000Y-11885714D01*
X52171428Y-11885714D01*
X53085714Y-12171428D02*
X52742857Y-12171428D01*
X52914285Y-12171428D02*
X52914285Y-11571428D01*
X52857142Y-11657142D01*
X52800000Y-11714285D01*
X52742857Y-11742857D01*
X53628571Y-11571428D02*
X53342857Y-11571428D01*
X53314285Y-11857142D01*
X53342857Y-11828571D01*
X53400000Y-11800000D01*
X53542857Y-11800000D01*
X53600000Y-11828571D01*
X53628571Y-11857142D01*
X53657142Y-11914285D01*
X53657142Y-12057142D01*
X53628571Y-12114285D01*
X53600000Y-12142857D01*
X53542857Y-12171428D01*
X53400000Y-12171428D01*
X53342857Y-12142857D01*
X53314285Y-12114285D01*
X23414285Y-32571428D02*
X23214285Y-32285714D01*
X23071428Y-32571428D02*
X23071428Y-31971428D01*
X23300000Y-31971428D01*
X23357142Y-32000000D01*
X23385714Y-32028571D01*
X23414285Y-32085714D01*
X23414285Y-32171428D01*
X23385714Y-32228571D01*
X23357142Y-32257142D01*
X23300000Y-32285714D01*
X23071428Y-32285714D01*
X23985714Y-32571428D02*
X23642857Y-32571428D01*
X23814285Y-32571428D02*
X23814285Y-31971428D01*
X23757142Y-32057142D01*
X23700000Y-32114285D01*
X23642857Y-32142857D01*
X24500000Y-32171428D02*
X24500000Y-32571428D01*
X24357142Y-31942857D02*
X24214285Y-32371428D01*
X24585714Y-32371428D01*
X45642857Y-25171428D02*
X45985714Y-25171428D01*
X45814285Y-25771428D02*
X45814285Y-25171428D01*
X46185714Y-25771428D02*
X46185714Y-25171428D01*
X46414285Y-25171428D01*
X46471428Y-25200000D01*
X46500000Y-25228571D01*
X46528571Y-25285714D01*
X46528571Y-25371428D01*
X46500000Y-25428571D01*
X46471428Y-25457142D01*
X46414285Y-25485714D01*
X46185714Y-25485714D01*
X46757142Y-25228571D02*
X46785714Y-25200000D01*
X46842857Y-25171428D01*
X46985714Y-25171428D01*
X47042857Y-25200000D01*
X47071428Y-25228571D01*
X47100000Y-25285714D01*
X47100000Y-25342857D01*
X47071428Y-25428571D01*
X46728571Y-25771428D01*
X47100000Y-25771428D01*
X41400000Y-28371428D02*
X41200000Y-28085714D01*
X41057142Y-28371428D02*
X41057142Y-27771428D01*
X41285714Y-27771428D01*
X41342857Y-27800000D01*
X41371428Y-27828571D01*
X41400000Y-27885714D01*
X41400000Y-27971428D01*
X41371428Y-28028571D01*
X41342857Y-28057142D01*
X41285714Y-28085714D01*
X41057142Y-28085714D01*
X41914285Y-27771428D02*
X41800000Y-27771428D01*
X41742857Y-27800000D01*
X41714285Y-27828571D01*
X41657142Y-27914285D01*
X41628571Y-28028571D01*
X41628571Y-28257142D01*
X41657142Y-28314285D01*
X41685714Y-28342857D01*
X41742857Y-28371428D01*
X41857142Y-28371428D01*
X41914285Y-28342857D01*
X41942857Y-28314285D01*
X41971428Y-28257142D01*
X41971428Y-28114285D01*
X41942857Y-28057142D01*
X41914285Y-28028571D01*
X41857142Y-28000000D01*
X41742857Y-28000000D01*
X41685714Y-28028571D01*
X41657142Y-28057142D01*
X41628571Y-28114285D01*
X34100000Y-39514285D02*
X34071428Y-39542857D01*
X33985714Y-39571428D01*
X33928571Y-39571428D01*
X33842857Y-39542857D01*
X33785714Y-39485714D01*
X33757142Y-39428571D01*
X33728571Y-39314285D01*
X33728571Y-39228571D01*
X33757142Y-39114285D01*
X33785714Y-39057142D01*
X33842857Y-39000000D01*
X33928571Y-38971428D01*
X33985714Y-38971428D01*
X34071428Y-39000000D01*
X34100000Y-39028571D01*
X34328571Y-39028571D02*
X34357142Y-39000000D01*
X34414285Y-38971428D01*
X34557142Y-38971428D01*
X34614285Y-39000000D01*
X34642857Y-39028571D01*
X34671428Y-39085714D01*
X34671428Y-39142857D01*
X34642857Y-39228571D01*
X34300000Y-39571428D01*
X34671428Y-39571428D01*
X49000000Y-21014285D02*
X48971428Y-21042857D01*
X48885714Y-21071428D01*
X48828571Y-21071428D01*
X48742857Y-21042857D01*
X48685714Y-20985714D01*
X48657142Y-20928571D01*
X48628571Y-20814285D01*
X48628571Y-20728571D01*
X48657142Y-20614285D01*
X48685714Y-20557142D01*
X48742857Y-20500000D01*
X48828571Y-20471428D01*
X48885714Y-20471428D01*
X48971428Y-20500000D01*
X49000000Y-20528571D01*
X49514285Y-20671428D02*
X49514285Y-21071428D01*
X49371428Y-20442857D02*
X49228571Y-20871428D01*
X49600000Y-20871428D01*
X53700000Y-18914285D02*
X53671428Y-18942857D01*
X53585714Y-18971428D01*
X53528571Y-18971428D01*
X53442857Y-18942857D01*
X53385714Y-18885714D01*
X53357142Y-18828571D01*
X53328571Y-18714285D01*
X53328571Y-18628571D01*
X53357142Y-18514285D01*
X53385714Y-18457142D01*
X53442857Y-18400000D01*
X53528571Y-18371428D01*
X53585714Y-18371428D01*
X53671428Y-18400000D01*
X53700000Y-18428571D01*
X54242857Y-18371428D02*
X53957142Y-18371428D01*
X53928571Y-18657142D01*
X53957142Y-18628571D01*
X54014285Y-18600000D01*
X54157142Y-18600000D01*
X54214285Y-18628571D01*
X54242857Y-18657142D01*
X54271428Y-18714285D01*
X54271428Y-18857142D01*
X54242857Y-18914285D01*
X54214285Y-18942857D01*
X54157142Y-18971428D01*
X54014285Y-18971428D01*
X53957142Y-18942857D01*
X53928571Y-18914285D01*
X49000000Y-25614285D02*
X48971428Y-25642857D01*
X48885714Y-25671428D01*
X48828571Y-25671428D01*
X48742857Y-25642857D01*
X48685714Y-25585714D01*
X48657142Y-25528571D01*
X48628571Y-25414285D01*
X48628571Y-25328571D01*
X48657142Y-25214285D01*
X48685714Y-25157142D01*
X48742857Y-25100000D01*
X48828571Y-25071428D01*
X48885714Y-25071428D01*
X48971428Y-25100000D01*
X49000000Y-25128571D01*
X49514285Y-25071428D02*
X49400000Y-25071428D01*
X49342857Y-25100000D01*
X49314285Y-25128571D01*
X49257142Y-25214285D01*
X49228571Y-25328571D01*
X49228571Y-25557142D01*
X49257142Y-25614285D01*
X49285714Y-25642857D01*
X49342857Y-25671428D01*
X49457142Y-25671428D01*
X49514285Y-25642857D01*
X49542857Y-25614285D01*
X49571428Y-25557142D01*
X49571428Y-25414285D01*
X49542857Y-25357142D01*
X49514285Y-25328571D01*
X49457142Y-25300000D01*
X49342857Y-25300000D01*
X49285714Y-25328571D01*
X49257142Y-25357142D01*
X49228571Y-25414285D01*
X46600000Y-29114285D02*
X46571428Y-29142857D01*
X46485714Y-29171428D01*
X46428571Y-29171428D01*
X46342857Y-29142857D01*
X46285714Y-29085714D01*
X46257142Y-29028571D01*
X46228571Y-28914285D01*
X46228571Y-28828571D01*
X46257142Y-28714285D01*
X46285714Y-28657142D01*
X46342857Y-28600000D01*
X46428571Y-28571428D01*
X46485714Y-28571428D01*
X46571428Y-28600000D01*
X46600000Y-28628571D01*
X46800000Y-28571428D02*
X47200000Y-28571428D01*
X46942857Y-29171428D01*
X34400000Y-29414285D02*
X34371428Y-29442857D01*
X34285714Y-29471428D01*
X34228571Y-29471428D01*
X34142857Y-29442857D01*
X34085714Y-29385714D01*
X34057142Y-29328571D01*
X34028571Y-29214285D01*
X34028571Y-29128571D01*
X34057142Y-29014285D01*
X34085714Y-28957142D01*
X34142857Y-28900000D01*
X34228571Y-28871428D01*
X34285714Y-28871428D01*
X34371428Y-28900000D01*
X34400000Y-28928571D01*
X34742857Y-29128571D02*
X34685714Y-29100000D01*
X34657142Y-29071428D01*
X34628571Y-29014285D01*
X34628571Y-28985714D01*
X34657142Y-28928571D01*
X34685714Y-28900000D01*
X34742857Y-28871428D01*
X34857142Y-28871428D01*
X34914285Y-28900000D01*
X34942857Y-28928571D01*
X34971428Y-28985714D01*
X34971428Y-29014285D01*
X34942857Y-29071428D01*
X34914285Y-29100000D01*
X34857142Y-29128571D01*
X34742857Y-29128571D01*
X34685714Y-29157142D01*
X34657142Y-29185714D01*
X34628571Y-29242857D01*
X34628571Y-29357142D01*
X34657142Y-29414285D01*
X34685714Y-29442857D01*
X34742857Y-29471428D01*
X34857142Y-29471428D01*
X34914285Y-29442857D01*
X34942857Y-29414285D01*
X34971428Y-29357142D01*
X34971428Y-29242857D01*
X34942857Y-29185714D01*
X34914285Y-29157142D01*
X34857142Y-29128571D01*
X32700000Y-32614285D02*
X32671428Y-32642857D01*
X32585714Y-32671428D01*
X32528571Y-32671428D01*
X32442857Y-32642857D01*
X32385714Y-32585714D01*
X32357142Y-32528571D01*
X32328571Y-32414285D01*
X32328571Y-32328571D01*
X32357142Y-32214285D01*
X32385714Y-32157142D01*
X32442857Y-32100000D01*
X32528571Y-32071428D01*
X32585714Y-32071428D01*
X32671428Y-32100000D01*
X32700000Y-32128571D01*
X32985714Y-32671428D02*
X33100000Y-32671428D01*
X33157142Y-32642857D01*
X33185714Y-32614285D01*
X33242857Y-32528571D01*
X33271428Y-32414285D01*
X33271428Y-32185714D01*
X33242857Y-32128571D01*
X33214285Y-32100000D01*
X33157142Y-32071428D01*
X33042857Y-32071428D01*
X32985714Y-32100000D01*
X32957142Y-32128571D01*
X32928571Y-32185714D01*
X32928571Y-32328571D01*
X32957142Y-32385714D01*
X32985714Y-32414285D01*
X33042857Y-32442857D01*
X33157142Y-32442857D01*
X33214285Y-32414285D01*
X33242857Y-32385714D01*
X33271428Y-32328571D01*
X36914285Y-37314285D02*
X36885714Y-37342857D01*
X36800000Y-37371428D01*
X36742857Y-37371428D01*
X36657142Y-37342857D01*
X36600000Y-37285714D01*
X36571428Y-37228571D01*
X36542857Y-37114285D01*
X36542857Y-37028571D01*
X36571428Y-36914285D01*
X36600000Y-36857142D01*
X36657142Y-36800000D01*
X36742857Y-36771428D01*
X36800000Y-36771428D01*
X36885714Y-36800000D01*
X36914285Y-36828571D01*
X37485714Y-37371428D02*
X37142857Y-37371428D01*
X37314285Y-37371428D02*
X37314285Y-36771428D01*
X37257142Y-36857142D01*
X37200000Y-36914285D01*
X37142857Y-36942857D01*
X37857142Y-36771428D02*
X37914285Y-36771428D01*
X37971428Y-36800000D01*
X38000000Y-36828571D01*
X38028571Y-36885714D01*
X38057142Y-37000000D01*
X38057142Y-37142857D01*
X38028571Y-37257142D01*
X38000000Y-37314285D01*
X37971428Y-37342857D01*
X37914285Y-37371428D01*
X37857142Y-37371428D01*
X37800000Y-37342857D01*
X37771428Y-37314285D01*
X37742857Y-37257142D01*
X37714285Y-37142857D01*
X37714285Y-37000000D01*
X37742857Y-36885714D01*
X37771428Y-36828571D01*
X37800000Y-36800000D01*
X37857142Y-36771428D01*
X43114285Y-36514285D02*
X43085714Y-36542857D01*
X43000000Y-36571428D01*
X42942857Y-36571428D01*
X42857142Y-36542857D01*
X42800000Y-36485714D01*
X42771428Y-36428571D01*
X42742857Y-36314285D01*
X42742857Y-36228571D01*
X42771428Y-36114285D01*
X42800000Y-36057142D01*
X42857142Y-36000000D01*
X42942857Y-35971428D01*
X43000000Y-35971428D01*
X43085714Y-36000000D01*
X43114285Y-36028571D01*
X43685714Y-36571428D02*
X43342857Y-36571428D01*
X43514285Y-36571428D02*
X43514285Y-35971428D01*
X43457142Y-36057142D01*
X43400000Y-36114285D01*
X43342857Y-36142857D01*
X44257142Y-36571428D02*
X43914285Y-36571428D01*
X44085714Y-36571428D02*
X44085714Y-35971428D01*
X44028571Y-36057142D01*
X43971428Y-36114285D01*
X43914285Y-36142857D01*
X40914285Y-31414285D02*
X40885714Y-31442857D01*
X40800000Y-31471428D01*
X40742857Y-31471428D01*
X40657142Y-31442857D01*
X40600000Y-31385714D01*
X40571428Y-31328571D01*
X40542857Y-31214285D01*
X40542857Y-31128571D01*
X40571428Y-31014285D01*
X40600000Y-30957142D01*
X40657142Y-30900000D01*
X40742857Y-30871428D01*
X40800000Y-30871428D01*
X40885714Y-30900000D01*
X40914285Y-30928571D01*
X41485714Y-31471428D02*
X41142857Y-31471428D01*
X41314285Y-31471428D02*
X41314285Y-30871428D01*
X41257142Y-30957142D01*
X41200000Y-31014285D01*
X41142857Y-31042857D01*
X41714285Y-30928571D02*
X41742857Y-30900000D01*
X41800000Y-30871428D01*
X41942857Y-30871428D01*
X42000000Y-30900000D01*
X42028571Y-30928571D01*
X42057142Y-30985714D01*
X42057142Y-31042857D01*
X42028571Y-31128571D01*
X41685714Y-31471428D01*
X42057142Y-31471428D01*
X43214285Y-38114285D02*
X43185714Y-38142857D01*
X43100000Y-38171428D01*
X43042857Y-38171428D01*
X42957142Y-38142857D01*
X42900000Y-38085714D01*
X42871428Y-38028571D01*
X42842857Y-37914285D01*
X42842857Y-37828571D01*
X42871428Y-37714285D01*
X42900000Y-37657142D01*
X42957142Y-37600000D01*
X43042857Y-37571428D01*
X43100000Y-37571428D01*
X43185714Y-37600000D01*
X43214285Y-37628571D01*
X43785714Y-38171428D02*
X43442857Y-38171428D01*
X43614285Y-38171428D02*
X43614285Y-37571428D01*
X43557142Y-37657142D01*
X43500000Y-37714285D01*
X43442857Y-37742857D01*
X43985714Y-37571428D02*
X44357142Y-37571428D01*
X44157142Y-37800000D01*
X44242857Y-37800000D01*
X44300000Y-37828571D01*
X44328571Y-37857142D01*
X44357142Y-37914285D01*
X44357142Y-38057142D01*
X44328571Y-38114285D01*
X44300000Y-38142857D01*
X44242857Y-38171428D01*
X44071428Y-38171428D01*
X44014285Y-38142857D01*
X43985714Y-38114285D01*
X48914285Y-27099285D02*
X48885714Y-27127857D01*
X48800000Y-27156428D01*
X48742857Y-27156428D01*
X48657142Y-27127857D01*
X48600000Y-27070714D01*
X48571428Y-27013571D01*
X48542857Y-26899285D01*
X48542857Y-26813571D01*
X48571428Y-26699285D01*
X48600000Y-26642142D01*
X48657142Y-26585000D01*
X48742857Y-26556428D01*
X48800000Y-26556428D01*
X48885714Y-26585000D01*
X48914285Y-26613571D01*
X49485714Y-27156428D02*
X49142857Y-27156428D01*
X49314285Y-27156428D02*
X49314285Y-26556428D01*
X49257142Y-26642142D01*
X49200000Y-26699285D01*
X49142857Y-26727857D01*
X50000000Y-26756428D02*
X50000000Y-27156428D01*
X49857142Y-26527857D02*
X49714285Y-26956428D01*
X50085714Y-26956428D01*
X50914285Y-26914285D02*
X50885714Y-26942857D01*
X50800000Y-26971428D01*
X50742857Y-26971428D01*
X50657142Y-26942857D01*
X50600000Y-26885714D01*
X50571428Y-26828571D01*
X50542857Y-26714285D01*
X50542857Y-26628571D01*
X50571428Y-26514285D01*
X50600000Y-26457142D01*
X50657142Y-26400000D01*
X50742857Y-26371428D01*
X50800000Y-26371428D01*
X50885714Y-26400000D01*
X50914285Y-26428571D01*
X51485714Y-26971428D02*
X51142857Y-26971428D01*
X51314285Y-26971428D02*
X51314285Y-26371428D01*
X51257142Y-26457142D01*
X51200000Y-26514285D01*
X51142857Y-26542857D01*
X52028571Y-26371428D02*
X51742857Y-26371428D01*
X51714285Y-26657142D01*
X51742857Y-26628571D01*
X51800000Y-26600000D01*
X51942857Y-26600000D01*
X52000000Y-26628571D01*
X52028571Y-26657142D01*
X52057142Y-26714285D01*
X52057142Y-26857142D01*
X52028571Y-26914285D01*
X52000000Y-26942857D01*
X51942857Y-26971428D01*
X51800000Y-26971428D01*
X51742857Y-26942857D01*
X51714285Y-26914285D01*
X50164285Y-41814285D02*
X50135714Y-41842857D01*
X50050000Y-41871428D01*
X49992857Y-41871428D01*
X49907142Y-41842857D01*
X49850000Y-41785714D01*
X49821428Y-41728571D01*
X49792857Y-41614285D01*
X49792857Y-41528571D01*
X49821428Y-41414285D01*
X49850000Y-41357142D01*
X49907142Y-41300000D01*
X49992857Y-41271428D01*
X50050000Y-41271428D01*
X50135714Y-41300000D01*
X50164285Y-41328571D01*
X50735714Y-41871428D02*
X50392857Y-41871428D01*
X50564285Y-41871428D02*
X50564285Y-41271428D01*
X50507142Y-41357142D01*
X50450000Y-41414285D01*
X50392857Y-41442857D01*
X51250000Y-41271428D02*
X51135714Y-41271428D01*
X51078571Y-41300000D01*
X51050000Y-41328571D01*
X50992857Y-41414285D01*
X50964285Y-41528571D01*
X50964285Y-41757142D01*
X50992857Y-41814285D01*
X51021428Y-41842857D01*
X51078571Y-41871428D01*
X51192857Y-41871428D01*
X51250000Y-41842857D01*
X51278571Y-41814285D01*
X51307142Y-41757142D01*
X51307142Y-41614285D01*
X51278571Y-41557142D01*
X51250000Y-41528571D01*
X51192857Y-41500000D01*
X51078571Y-41500000D01*
X51021428Y-41528571D01*
X50992857Y-41557142D01*
X50964285Y-41614285D01*
X47564285Y-40014285D02*
X47535714Y-40042857D01*
X47450000Y-40071428D01*
X47392857Y-40071428D01*
X47307142Y-40042857D01*
X47250000Y-39985714D01*
X47221428Y-39928571D01*
X47192857Y-39814285D01*
X47192857Y-39728571D01*
X47221428Y-39614285D01*
X47250000Y-39557142D01*
X47307142Y-39500000D01*
X47392857Y-39471428D01*
X47450000Y-39471428D01*
X47535714Y-39500000D01*
X47564285Y-39528571D01*
X48135714Y-40071428D02*
X47792857Y-40071428D01*
X47964285Y-40071428D02*
X47964285Y-39471428D01*
X47907142Y-39557142D01*
X47850000Y-39614285D01*
X47792857Y-39642857D01*
X48421428Y-40071428D02*
X48535714Y-40071428D01*
X48592857Y-40042857D01*
X48621428Y-40014285D01*
X48678571Y-39928571D01*
X48707142Y-39814285D01*
X48707142Y-39585714D01*
X48678571Y-39528571D01*
X48650000Y-39500000D01*
X48592857Y-39471428D01*
X48478571Y-39471428D01*
X48421428Y-39500000D01*
X48392857Y-39528571D01*
X48364285Y-39585714D01*
X48364285Y-39728571D01*
X48392857Y-39785714D01*
X48421428Y-39814285D01*
X48478571Y-39842857D01*
X48592857Y-39842857D01*
X48650000Y-39814285D01*
X48678571Y-39785714D01*
X48707142Y-39728571D01*
X35307142Y-13971428D02*
X35307142Y-13371428D01*
X35450000Y-13371428D01*
X35535714Y-13400000D01*
X35592857Y-13457142D01*
X35621428Y-13514285D01*
X35650000Y-13628571D01*
X35650000Y-13714285D01*
X35621428Y-13828571D01*
X35592857Y-13885714D01*
X35535714Y-13942857D01*
X35450000Y-13971428D01*
X35307142Y-13971428D01*
X36221428Y-13971428D02*
X35878571Y-13971428D01*
X36050000Y-13971428D02*
X36050000Y-13371428D01*
X35992857Y-13457142D01*
X35935714Y-13514285D01*
X35878571Y-13542857D01*
X15800000Y-23171428D02*
X15800000Y-23600000D01*
X15771428Y-23685714D01*
X15714285Y-23742857D01*
X15628571Y-23771428D01*
X15571428Y-23771428D01*
X16400000Y-23771428D02*
X16057142Y-23771428D01*
X16228571Y-23771428D02*
X16228571Y-23171428D01*
X16171428Y-23257142D01*
X16114285Y-23314285D01*
X16057142Y-23342857D01*
X61250000Y-43221428D02*
X61250000Y-43650000D01*
X61221428Y-43735714D01*
X61164285Y-43792857D01*
X61078571Y-43821428D01*
X61021428Y-43821428D01*
X61507142Y-43278571D02*
X61535714Y-43250000D01*
X61592857Y-43221428D01*
X61735714Y-43221428D01*
X61792857Y-43250000D01*
X61821428Y-43278571D01*
X61850000Y-43335714D01*
X61850000Y-43392857D01*
X61821428Y-43478571D01*
X61478571Y-43821428D01*
X61850000Y-43821428D01*
X56900000Y-18271428D02*
X56614285Y-18271428D01*
X56614285Y-17671428D01*
X57071428Y-17728571D02*
X57100000Y-17700000D01*
X57157142Y-17671428D01*
X57300000Y-17671428D01*
X57357142Y-17700000D01*
X57385714Y-17728571D01*
X57414285Y-17785714D01*
X57414285Y-17842857D01*
X57385714Y-17928571D01*
X57042857Y-18271428D01*
X57414285Y-18271428D01*
X36342857Y-46328571D02*
X36285714Y-46300000D01*
X36228571Y-46242857D01*
X36142857Y-46157142D01*
X36085714Y-46128571D01*
X36028571Y-46128571D01*
X36057142Y-46271428D02*
X36000000Y-46242857D01*
X35942857Y-46185714D01*
X35914285Y-46071428D01*
X35914285Y-45871428D01*
X35942857Y-45757142D01*
X36000000Y-45700000D01*
X36057142Y-45671428D01*
X36171428Y-45671428D01*
X36228571Y-45700000D01*
X36285714Y-45757142D01*
X36314285Y-45871428D01*
X36314285Y-46071428D01*
X36285714Y-46185714D01*
X36228571Y-46242857D01*
X36171428Y-46271428D01*
X36057142Y-46271428D01*
X36885714Y-46271428D02*
X36542857Y-46271428D01*
X36714285Y-46271428D02*
X36714285Y-45671428D01*
X36657142Y-45757142D01*
X36600000Y-45814285D01*
X36542857Y-45842857D01*
X60142857Y-15628571D02*
X60085714Y-15600000D01*
X60028571Y-15542857D01*
X59942857Y-15457142D01*
X59885714Y-15428571D01*
X59828571Y-15428571D01*
X59857142Y-15571428D02*
X59800000Y-15542857D01*
X59742857Y-15485714D01*
X59714285Y-15371428D01*
X59714285Y-15171428D01*
X59742857Y-15057142D01*
X59800000Y-15000000D01*
X59857142Y-14971428D01*
X59971428Y-14971428D01*
X60028571Y-15000000D01*
X60085714Y-15057142D01*
X60114285Y-15171428D01*
X60114285Y-15371428D01*
X60085714Y-15485714D01*
X60028571Y-15542857D01*
X59971428Y-15571428D01*
X59857142Y-15571428D01*
X60342857Y-15028571D02*
X60371428Y-15000000D01*
X60428571Y-14971428D01*
X60571428Y-14971428D01*
X60628571Y-15000000D01*
X60657142Y-15028571D01*
X60685714Y-15085714D01*
X60685714Y-15142857D01*
X60657142Y-15228571D01*
X60314285Y-15571428D01*
X60685714Y-15571428D01*
X53400000Y-16671428D02*
X53200000Y-16385714D01*
X53057142Y-16671428D02*
X53057142Y-16071428D01*
X53285714Y-16071428D01*
X53342857Y-16100000D01*
X53371428Y-16128571D01*
X53400000Y-16185714D01*
X53400000Y-16271428D01*
X53371428Y-16328571D01*
X53342857Y-16357142D01*
X53285714Y-16385714D01*
X53057142Y-16385714D01*
X53971428Y-16671428D02*
X53628571Y-16671428D01*
X53800000Y-16671428D02*
X53800000Y-16071428D01*
X53742857Y-16157142D01*
X53685714Y-16214285D01*
X53628571Y-16242857D01*
X50300000Y-15021428D02*
X50100000Y-14735714D01*
X49957142Y-15021428D02*
X49957142Y-14421428D01*
X50185714Y-14421428D01*
X50242857Y-14450000D01*
X50271428Y-14478571D01*
X50300000Y-14535714D01*
X50300000Y-14621428D01*
X50271428Y-14678571D01*
X50242857Y-14707142D01*
X50185714Y-14735714D01*
X49957142Y-14735714D01*
X50528571Y-14478571D02*
X50557142Y-14450000D01*
X50614285Y-14421428D01*
X50757142Y-14421428D01*
X50814285Y-14450000D01*
X50842857Y-14478571D01*
X50871428Y-14535714D01*
X50871428Y-14592857D01*
X50842857Y-14678571D01*
X50500000Y-15021428D01*
X50871428Y-15021428D01*
X45200000Y-33571428D02*
X45000000Y-33285714D01*
X44857142Y-33571428D02*
X44857142Y-32971428D01*
X45085714Y-32971428D01*
X45142857Y-33000000D01*
X45171428Y-33028571D01*
X45200000Y-33085714D01*
X45200000Y-33171428D01*
X45171428Y-33228571D01*
X45142857Y-33257142D01*
X45085714Y-33285714D01*
X44857142Y-33285714D01*
X45400000Y-32971428D02*
X45771428Y-32971428D01*
X45571428Y-33200000D01*
X45657142Y-33200000D01*
X45714285Y-33228571D01*
X45742857Y-33257142D01*
X45771428Y-33314285D01*
X45771428Y-33457142D01*
X45742857Y-33514285D01*
X45714285Y-33542857D01*
X45657142Y-33571428D01*
X45485714Y-33571428D01*
X45428571Y-33542857D01*
X45400000Y-33514285D01*
X45200000Y-32671428D02*
X45000000Y-32385714D01*
X44857142Y-32671428D02*
X44857142Y-32071428D01*
X45085714Y-32071428D01*
X45142857Y-32100000D01*
X45171428Y-32128571D01*
X45200000Y-32185714D01*
X45200000Y-32271428D01*
X45171428Y-32328571D01*
X45142857Y-32357142D01*
X45085714Y-32385714D01*
X44857142Y-32385714D01*
X45714285Y-32271428D02*
X45714285Y-32671428D01*
X45571428Y-32042857D02*
X45428571Y-32471428D01*
X45800000Y-32471428D01*
X40200000Y-28386428D02*
X40000000Y-28100714D01*
X39857142Y-28386428D02*
X39857142Y-27786428D01*
X40085714Y-27786428D01*
X40142857Y-27815000D01*
X40171428Y-27843571D01*
X40200000Y-27900714D01*
X40200000Y-27986428D01*
X40171428Y-28043571D01*
X40142857Y-28072142D01*
X40085714Y-28100714D01*
X39857142Y-28100714D01*
X40742857Y-27786428D02*
X40457142Y-27786428D01*
X40428571Y-28072142D01*
X40457142Y-28043571D01*
X40514285Y-28015000D01*
X40657142Y-28015000D01*
X40714285Y-28043571D01*
X40742857Y-28072142D01*
X40771428Y-28129285D01*
X40771428Y-28272142D01*
X40742857Y-28329285D01*
X40714285Y-28357857D01*
X40657142Y-28386428D01*
X40514285Y-28386428D01*
X40457142Y-28357857D01*
X40428571Y-28329285D01*
X38600000Y-33471428D02*
X38400000Y-33185714D01*
X38257142Y-33471428D02*
X38257142Y-32871428D01*
X38485714Y-32871428D01*
X38542857Y-32900000D01*
X38571428Y-32928571D01*
X38600000Y-32985714D01*
X38600000Y-33071428D01*
X38571428Y-33128571D01*
X38542857Y-33157142D01*
X38485714Y-33185714D01*
X38257142Y-33185714D01*
X38800000Y-32871428D02*
X39200000Y-32871428D01*
X38942857Y-33471428D01*
X38600000Y-37371428D02*
X38400000Y-37085714D01*
X38257142Y-37371428D02*
X38257142Y-36771428D01*
X38485714Y-36771428D01*
X38542857Y-36800000D01*
X38571428Y-36828571D01*
X38600000Y-36885714D01*
X38600000Y-36971428D01*
X38571428Y-37028571D01*
X38542857Y-37057142D01*
X38485714Y-37085714D01*
X38257142Y-37085714D01*
X38942857Y-37028571D02*
X38885714Y-37000000D01*
X38857142Y-36971428D01*
X38828571Y-36914285D01*
X38828571Y-36885714D01*
X38857142Y-36828571D01*
X38885714Y-36800000D01*
X38942857Y-36771428D01*
X39057142Y-36771428D01*
X39114285Y-36800000D01*
X39142857Y-36828571D01*
X39171428Y-36885714D01*
X39171428Y-36914285D01*
X39142857Y-36971428D01*
X39114285Y-37000000D01*
X39057142Y-37028571D01*
X38942857Y-37028571D01*
X38885714Y-37057142D01*
X38857142Y-37085714D01*
X38828571Y-37142857D01*
X38828571Y-37257142D01*
X38857142Y-37314285D01*
X38885714Y-37342857D01*
X38942857Y-37371428D01*
X39057142Y-37371428D01*
X39114285Y-37342857D01*
X39142857Y-37314285D01*
X39171428Y-37257142D01*
X39171428Y-37142857D01*
X39142857Y-37085714D01*
X39114285Y-37057142D01*
X39057142Y-37028571D01*
X45300000Y-35271428D02*
X45100000Y-34985714D01*
X44957142Y-35271428D02*
X44957142Y-34671428D01*
X45185714Y-34671428D01*
X45242857Y-34700000D01*
X45271428Y-34728571D01*
X45300000Y-34785714D01*
X45300000Y-34871428D01*
X45271428Y-34928571D01*
X45242857Y-34957142D01*
X45185714Y-34985714D01*
X44957142Y-34985714D01*
X45585714Y-35271428D02*
X45700000Y-35271428D01*
X45757142Y-35242857D01*
X45785714Y-35214285D01*
X45842857Y-35128571D01*
X45871428Y-35014285D01*
X45871428Y-34785714D01*
X45842857Y-34728571D01*
X45814285Y-34700000D01*
X45757142Y-34671428D01*
X45642857Y-34671428D01*
X45585714Y-34700000D01*
X45557142Y-34728571D01*
X45528571Y-34785714D01*
X45528571Y-34928571D01*
X45557142Y-34985714D01*
X45585714Y-35014285D01*
X45642857Y-35042857D01*
X45757142Y-35042857D01*
X45814285Y-35014285D01*
X45842857Y-34985714D01*
X45871428Y-34928571D01*
X47814285Y-29871428D02*
X47614285Y-29585714D01*
X47471428Y-29871428D02*
X47471428Y-29271428D01*
X47700000Y-29271428D01*
X47757142Y-29300000D01*
X47785714Y-29328571D01*
X47814285Y-29385714D01*
X47814285Y-29471428D01*
X47785714Y-29528571D01*
X47757142Y-29557142D01*
X47700000Y-29585714D01*
X47471428Y-29585714D01*
X48385714Y-29871428D02*
X48042857Y-29871428D01*
X48214285Y-29871428D02*
X48214285Y-29271428D01*
X48157142Y-29357142D01*
X48100000Y-29414285D01*
X48042857Y-29442857D01*
X48757142Y-29271428D02*
X48814285Y-29271428D01*
X48871428Y-29300000D01*
X48900000Y-29328571D01*
X48928571Y-29385714D01*
X48957142Y-29500000D01*
X48957142Y-29642857D01*
X48928571Y-29757142D01*
X48900000Y-29814285D01*
X48871428Y-29842857D01*
X48814285Y-29871428D01*
X48757142Y-29871428D01*
X48700000Y-29842857D01*
X48671428Y-29814285D01*
X48642857Y-29757142D01*
X48614285Y-29642857D01*
X48614285Y-29500000D01*
X48642857Y-29385714D01*
X48671428Y-29328571D01*
X48700000Y-29300000D01*
X48757142Y-29271428D01*
X48814285Y-32271428D02*
X48614285Y-31985714D01*
X48471428Y-32271428D02*
X48471428Y-31671428D01*
X48700000Y-31671428D01*
X48757142Y-31700000D01*
X48785714Y-31728571D01*
X48814285Y-31785714D01*
X48814285Y-31871428D01*
X48785714Y-31928571D01*
X48757142Y-31957142D01*
X48700000Y-31985714D01*
X48471428Y-31985714D01*
X49385714Y-32271428D02*
X49042857Y-32271428D01*
X49214285Y-32271428D02*
X49214285Y-31671428D01*
X49157142Y-31757142D01*
X49100000Y-31814285D01*
X49042857Y-31842857D01*
X49957142Y-32271428D02*
X49614285Y-32271428D01*
X49785714Y-32271428D02*
X49785714Y-31671428D01*
X49728571Y-31757142D01*
X49671428Y-31814285D01*
X49614285Y-31842857D01*
X37614285Y-38771428D02*
X37414285Y-38485714D01*
X37271428Y-38771428D02*
X37271428Y-38171428D01*
X37500000Y-38171428D01*
X37557142Y-38200000D01*
X37585714Y-38228571D01*
X37614285Y-38285714D01*
X37614285Y-38371428D01*
X37585714Y-38428571D01*
X37557142Y-38457142D01*
X37500000Y-38485714D01*
X37271428Y-38485714D01*
X38185714Y-38771428D02*
X37842857Y-38771428D01*
X38014285Y-38771428D02*
X38014285Y-38171428D01*
X37957142Y-38257142D01*
X37900000Y-38314285D01*
X37842857Y-38342857D01*
X38414285Y-38228571D02*
X38442857Y-38200000D01*
X38500000Y-38171428D01*
X38642857Y-38171428D01*
X38700000Y-38200000D01*
X38728571Y-38228571D01*
X38757142Y-38285714D01*
X38757142Y-38342857D01*
X38728571Y-38428571D01*
X38385714Y-38771428D01*
X38757142Y-38771428D01*
X57514285Y-12271428D02*
X57314285Y-11985714D01*
X57171428Y-12271428D02*
X57171428Y-11671428D01*
X57400000Y-11671428D01*
X57457142Y-11700000D01*
X57485714Y-11728571D01*
X57514285Y-11785714D01*
X57514285Y-11871428D01*
X57485714Y-11928571D01*
X57457142Y-11957142D01*
X57400000Y-11985714D01*
X57171428Y-11985714D01*
X58085714Y-12271428D02*
X57742857Y-12271428D01*
X57914285Y-12271428D02*
X57914285Y-11671428D01*
X57857142Y-11757142D01*
X57800000Y-11814285D01*
X57742857Y-11842857D01*
X58285714Y-11671428D02*
X58657142Y-11671428D01*
X58457142Y-11900000D01*
X58542857Y-11900000D01*
X58600000Y-11928571D01*
X58628571Y-11957142D01*
X58657142Y-12014285D01*
X58657142Y-12157142D01*
X58628571Y-12214285D01*
X58600000Y-12242857D01*
X58542857Y-12271428D01*
X58371428Y-12271428D01*
X58314285Y-12242857D01*
X58285714Y-12214285D01*
X13092857Y-19571428D02*
X13435714Y-19571428D01*
X13264285Y-20171428D02*
X13264285Y-19571428D01*
X13635714Y-20171428D02*
X13635714Y-19571428D01*
X13864285Y-19571428D01*
X13921428Y-19600000D01*
X13950000Y-19628571D01*
X13978571Y-19685714D01*
X13978571Y-19771428D01*
X13950000Y-19828571D01*
X13921428Y-19857142D01*
X13864285Y-19885714D01*
X13635714Y-19885714D01*
X14178571Y-19571428D02*
X14550000Y-19571428D01*
X14350000Y-19800000D01*
X14435714Y-19800000D01*
X14492857Y-19828571D01*
X14521428Y-19857142D01*
X14550000Y-19914285D01*
X14550000Y-20057142D01*
X14521428Y-20114285D01*
X14492857Y-20142857D01*
X14435714Y-20171428D01*
X14264285Y-20171428D01*
X14207142Y-20142857D01*
X14178571Y-20114285D01*
X63742857Y-21571428D02*
X63742857Y-22057142D01*
X63771428Y-22114285D01*
X63800000Y-22142857D01*
X63857142Y-22171428D01*
X63971428Y-22171428D01*
X64028571Y-22142857D01*
X64057142Y-22114285D01*
X64085714Y-22057142D01*
X64085714Y-21571428D01*
X64685714Y-22171428D02*
X64342857Y-22171428D01*
X64514285Y-22171428D02*
X64514285Y-21571428D01*
X64457142Y-21657142D01*
X64400000Y-21714285D01*
X64342857Y-21742857D01*
X68116666Y-28692857D02*
X68116666Y-28216666D01*
X68402380Y-28788095D02*
X67402380Y-28454761D01*
X68402380Y-28121428D01*
X68402380Y-27788095D02*
X67402380Y-27788095D01*
X68402380Y-27216666D01*
X67402380Y-27216666D01*
X67402380Y-26883333D02*
X67402380Y-26311904D01*
X68402380Y-26597619D02*
X67402380Y-26597619D01*
X43842857Y-27171428D02*
X43842857Y-27657142D01*
X43871428Y-27714285D01*
X43900000Y-27742857D01*
X43957142Y-27771428D01*
X44071428Y-27771428D01*
X44128571Y-27742857D01*
X44157142Y-27714285D01*
X44185714Y-27657142D01*
X44185714Y-27171428D01*
X44442857Y-27228571D02*
X44471428Y-27200000D01*
X44528571Y-27171428D01*
X44671428Y-27171428D01*
X44728571Y-27200000D01*
X44757142Y-27228571D01*
X44785714Y-27285714D01*
X44785714Y-27342857D01*
X44757142Y-27428571D01*
X44414285Y-27771428D01*
X44785714Y-27771428D01*
X39642857Y-37371428D02*
X39642857Y-37857142D01*
X39671428Y-37914285D01*
X39700000Y-37942857D01*
X39757142Y-37971428D01*
X39871428Y-37971428D01*
X39928571Y-37942857D01*
X39957142Y-37914285D01*
X39985714Y-37857142D01*
X39985714Y-37371428D01*
X40214285Y-37371428D02*
X40585714Y-37371428D01*
X40385714Y-37600000D01*
X40471428Y-37600000D01*
X40528571Y-37628571D01*
X40557142Y-37657142D01*
X40585714Y-37714285D01*
X40585714Y-37857142D01*
X40557142Y-37914285D01*
X40528571Y-37942857D01*
X40471428Y-37971428D01*
X40300000Y-37971428D01*
X40242857Y-37942857D01*
X40214285Y-37914285D01*
X42642857Y-48221428D02*
X42642857Y-48707142D01*
X42671428Y-48764285D01*
X42700000Y-48792857D01*
X42757142Y-48821428D01*
X42871428Y-48821428D01*
X42928571Y-48792857D01*
X42957142Y-48764285D01*
X42985714Y-48707142D01*
X42985714Y-48221428D01*
X43528571Y-48421428D02*
X43528571Y-48821428D01*
X43385714Y-48192857D02*
X43242857Y-48621428D01*
X43614285Y-48621428D01*
X49892857Y-38271428D02*
X49892857Y-38757142D01*
X49921428Y-38814285D01*
X49950000Y-38842857D01*
X50007142Y-38871428D01*
X50121428Y-38871428D01*
X50178571Y-38842857D01*
X50207142Y-38814285D01*
X50235714Y-38757142D01*
X50235714Y-38271428D01*
X50807142Y-38271428D02*
X50521428Y-38271428D01*
X50492857Y-38557142D01*
X50521428Y-38528571D01*
X50578571Y-38500000D01*
X50721428Y-38500000D01*
X50778571Y-38528571D01*
X50807142Y-38557142D01*
X50835714Y-38614285D01*
X50835714Y-38757142D01*
X50807142Y-38814285D01*
X50778571Y-38842857D01*
X50721428Y-38871428D01*
X50578571Y-38871428D01*
X50521428Y-38842857D01*
X50492857Y-38814285D01*
X50914285Y-20585714D02*
X50914285Y-20871428D01*
X50714285Y-20271428D02*
X50914285Y-20585714D01*
X51114285Y-20271428D01*
X51628571Y-20871428D02*
X51285714Y-20871428D01*
X51457142Y-20871428D02*
X51457142Y-20271428D01*
X51400000Y-20357142D01*
X51342857Y-20414285D01*
X51285714Y-20442857D01*
X54514285Y-33635714D02*
X54514285Y-33921428D01*
X54314285Y-33321428D02*
X54514285Y-33635714D01*
X54714285Y-33321428D01*
X54885714Y-33378571D02*
X54914285Y-33350000D01*
X54971428Y-33321428D01*
X55114285Y-33321428D01*
X55171428Y-33350000D01*
X55200000Y-33378571D01*
X55228571Y-33435714D01*
X55228571Y-33492857D01*
X55200000Y-33578571D01*
X54857142Y-33921428D01*
X55228571Y-33921428D01*
X60300000Y-18314285D02*
X60271428Y-18342857D01*
X60185714Y-18371428D01*
X60128571Y-18371428D01*
X60042857Y-18342857D01*
X59985714Y-18285714D01*
X59957142Y-18228571D01*
X59928571Y-18114285D01*
X59928571Y-18028571D01*
X59957142Y-17914285D01*
X59985714Y-17857142D01*
X60042857Y-17800000D01*
X60128571Y-17771428D01*
X60185714Y-17771428D01*
X60271428Y-17800000D01*
X60300000Y-17828571D01*
X60871428Y-18371428D02*
X60528571Y-18371428D01*
X60700000Y-18371428D02*
X60700000Y-17771428D01*
X60642857Y-17857142D01*
X60585714Y-17914285D01*
X60528571Y-17942857D01*
X55100000Y-18314285D02*
X55071428Y-18342857D01*
X54985714Y-18371428D01*
X54928571Y-18371428D01*
X54842857Y-18342857D01*
X54785714Y-18285714D01*
X54757142Y-18228571D01*
X54728571Y-18114285D01*
X54728571Y-18028571D01*
X54757142Y-17914285D01*
X54785714Y-17857142D01*
X54842857Y-17800000D01*
X54928571Y-17771428D01*
X54985714Y-17771428D01*
X55071428Y-17800000D01*
X55100000Y-17828571D01*
X55300000Y-17771428D02*
X55671428Y-17771428D01*
X55471428Y-18000000D01*
X55557142Y-18000000D01*
X55614285Y-18028571D01*
X55642857Y-18057142D01*
X55671428Y-18114285D01*
X55671428Y-18257142D01*
X55642857Y-18314285D01*
X55614285Y-18342857D01*
X55557142Y-18371428D01*
X55385714Y-18371428D01*
X55328571Y-18342857D01*
X55300000Y-18314285D01*
X58700000Y-18371428D02*
X58414285Y-18371428D01*
X58414285Y-17771428D01*
X59214285Y-18371428D02*
X58871428Y-18371428D01*
X59042857Y-18371428D02*
X59042857Y-17771428D01*
X58985714Y-17857142D01*
X58928571Y-17914285D01*
X58871428Y-17942857D01*
X54500000Y-48092857D02*
X54585714Y-48121428D01*
X54728571Y-48121428D01*
X54785714Y-48092857D01*
X54814285Y-48064285D01*
X54842857Y-48007142D01*
X54842857Y-47950000D01*
X54814285Y-47892857D01*
X54785714Y-47864285D01*
X54728571Y-47835714D01*
X54614285Y-47807142D01*
X54557142Y-47778571D01*
X54528571Y-47750000D01*
X54500000Y-47692857D01*
X54500000Y-47635714D01*
X54528571Y-47578571D01*
X54557142Y-47550000D01*
X54614285Y-47521428D01*
X54757142Y-47521428D01*
X54842857Y-47550000D01*
X55042857Y-47521428D02*
X55185714Y-48121428D01*
X55300000Y-47692857D01*
X55414285Y-48121428D01*
X55557142Y-47521428D01*
X56100000Y-48121428D02*
X55757142Y-48121428D01*
X55928571Y-48121428D02*
X55928571Y-47521428D01*
X55871428Y-47607142D01*
X55814285Y-47664285D01*
X55757142Y-47692857D01*
X33757142Y-35471428D02*
X33757142Y-34871428D01*
X33900000Y-34871428D01*
X33985714Y-34900000D01*
X34042857Y-34957142D01*
X34071428Y-35014285D01*
X34100000Y-35128571D01*
X34100000Y-35214285D01*
X34071428Y-35328571D01*
X34042857Y-35385714D01*
X33985714Y-35442857D01*
X33900000Y-35471428D01*
X33757142Y-35471428D01*
X34328571Y-34928571D02*
X34357142Y-34900000D01*
X34414285Y-34871428D01*
X34557142Y-34871428D01*
X34614285Y-34900000D01*
X34642857Y-34928571D01*
X34671428Y-34985714D01*
X34671428Y-35042857D01*
X34642857Y-35128571D01*
X34300000Y-35471428D01*
X34671428Y-35471428D01*
X45214285Y-37414285D02*
X45185714Y-37442857D01*
X45100000Y-37471428D01*
X45042857Y-37471428D01*
X44957142Y-37442857D01*
X44900000Y-37385714D01*
X44871428Y-37328571D01*
X44842857Y-37214285D01*
X44842857Y-37128571D01*
X44871428Y-37014285D01*
X44900000Y-36957142D01*
X44957142Y-36900000D01*
X45042857Y-36871428D01*
X45100000Y-36871428D01*
X45185714Y-36900000D01*
X45214285Y-36928571D01*
X45785714Y-37471428D02*
X45442857Y-37471428D01*
X45614285Y-37471428D02*
X45614285Y-36871428D01*
X45557142Y-36957142D01*
X45500000Y-37014285D01*
X45442857Y-37042857D01*
X45985714Y-36871428D02*
X46385714Y-36871428D01*
X46128571Y-37471428D01*
M02*
