G04 #@! TF.GenerationSoftware,KiCad,Pcbnew,5.0.2-bee76a0~70~ubuntu16.04.1*
G04 #@! TF.CreationDate,2019-01-02T15:35:10+05:30*
G04 #@! TF.ProjectId,Ap3403_LED_test,41703334-3033-45f4-9c45-445f74657374,rev?*
G04 #@! TF.SameCoordinates,Original*
G04 #@! TF.FileFunction,Soldermask,Top*
G04 #@! TF.FilePolarity,Negative*
%FSLAX46Y46*%
G04 Gerber Fmt 4.6, Leading zero omitted, Abs format (unit mm)*
G04 Created by KiCad (PCBNEW 5.0.2-bee76a0~70~ubuntu16.04.1) date Wed Jan  2 15:35:10 2019*
%MOMM*%
%LPD*%
G01*
G04 APERTURE LIST*
%ADD10C,0.100000*%
G04 APERTURE END LIST*
D10*
G36*
X31833643Y-192929781D02*
X31979415Y-192990162D01*
X32110611Y-193077824D01*
X32222176Y-193189389D01*
X32309838Y-193320585D01*
X32370219Y-193466357D01*
X32401000Y-193621107D01*
X32401000Y-193778893D01*
X32370219Y-193933643D01*
X32309838Y-194079415D01*
X32222176Y-194210611D01*
X32110611Y-194322176D01*
X31979415Y-194409838D01*
X31833643Y-194470219D01*
X31678893Y-194501000D01*
X31521107Y-194501000D01*
X31366357Y-194470219D01*
X31220585Y-194409838D01*
X31089389Y-194322176D01*
X30977824Y-194210611D01*
X30890162Y-194079415D01*
X30829781Y-193933643D01*
X30799000Y-193778893D01*
X30799000Y-193621107D01*
X30829781Y-193466357D01*
X30890162Y-193320585D01*
X30977824Y-193189389D01*
X31089389Y-193077824D01*
X31220585Y-192990162D01*
X31366357Y-192929781D01*
X31521107Y-192899000D01*
X31678893Y-192899000D01*
X31833643Y-192929781D01*
X31833643Y-192929781D01*
G37*
G36*
X48201000Y-192551000D02*
X47199000Y-192551000D01*
X47199000Y-191249000D01*
X48201000Y-191249000D01*
X48201000Y-192551000D01*
X48201000Y-192551000D01*
G37*
G36*
X32251000Y-192301000D02*
X30949000Y-192301000D01*
X30949000Y-191299000D01*
X32251000Y-191299000D01*
X32251000Y-192301000D01*
X32251000Y-192301000D01*
G37*
G36*
X34451000Y-192301000D02*
X33149000Y-192301000D01*
X33149000Y-191299000D01*
X34451000Y-191299000D01*
X34451000Y-192301000D01*
X34451000Y-192301000D01*
G37*
G36*
X44201000Y-192201000D02*
X42199000Y-192201000D01*
X42199000Y-191299000D01*
X44201000Y-191299000D01*
X44201000Y-192201000D01*
X44201000Y-192201000D01*
G37*
G36*
X52901000Y-191501000D02*
X51099000Y-191501000D01*
X51099000Y-189699000D01*
X52901000Y-189699000D01*
X52901000Y-191501000D01*
X52901000Y-191501000D01*
G37*
G36*
X41201000Y-191251000D02*
X39199000Y-191251000D01*
X39199000Y-190349000D01*
X41201000Y-190349000D01*
X41201000Y-191251000D01*
X41201000Y-191251000D01*
G37*
G36*
X48201000Y-190351000D02*
X47199000Y-190351000D01*
X47199000Y-189049000D01*
X48201000Y-189049000D01*
X48201000Y-190351000D01*
X48201000Y-190351000D01*
G37*
G36*
X32251000Y-190301000D02*
X30949000Y-190301000D01*
X30949000Y-189299000D01*
X32251000Y-189299000D01*
X32251000Y-190301000D01*
X32251000Y-190301000D01*
G37*
G36*
X34451000Y-190301000D02*
X33149000Y-190301000D01*
X33149000Y-189299000D01*
X34451000Y-189299000D01*
X34451000Y-190301000D01*
X34451000Y-190301000D01*
G37*
G36*
X44201000Y-190301000D02*
X42199000Y-190301000D01*
X42199000Y-189399000D01*
X44201000Y-189399000D01*
X44201000Y-190301000D01*
X44201000Y-190301000D01*
G37*
G36*
X25551000Y-190301000D02*
X24249000Y-190301000D01*
X24249000Y-189299000D01*
X25551000Y-189299000D01*
X25551000Y-190301000D01*
X25551000Y-190301000D01*
G37*
G36*
X27751000Y-190301000D02*
X26449000Y-190301000D01*
X26449000Y-189299000D01*
X27751000Y-189299000D01*
X27751000Y-190301000D01*
X27751000Y-190301000D01*
G37*
G36*
X17882510Y-187292041D02*
X18006032Y-187304207D01*
X18204146Y-187364305D01*
X18386729Y-187461897D01*
X18546765Y-187593235D01*
X18678103Y-187753271D01*
X18775695Y-187935854D01*
X18835793Y-188133968D01*
X18856085Y-188340000D01*
X18835793Y-188546032D01*
X18775695Y-188744146D01*
X18678103Y-188926729D01*
X18546765Y-189086765D01*
X18386729Y-189218103D01*
X18204146Y-189315695D01*
X18006032Y-189375793D01*
X17882510Y-189387959D01*
X17851631Y-189391000D01*
X17148369Y-189391000D01*
X17117490Y-189387959D01*
X16993968Y-189375793D01*
X16795854Y-189315695D01*
X16613271Y-189218103D01*
X16453235Y-189086765D01*
X16321897Y-188926729D01*
X16224305Y-188744146D01*
X16164207Y-188546032D01*
X16143915Y-188340000D01*
X16164207Y-188133968D01*
X16224305Y-187935854D01*
X16321897Y-187753271D01*
X16453235Y-187593235D01*
X16613271Y-187461897D01*
X16795854Y-187364305D01*
X16993968Y-187304207D01*
X17117490Y-187292041D01*
X17148369Y-187289000D01*
X17851631Y-187289000D01*
X17882510Y-187292041D01*
X17882510Y-187292041D01*
G37*
G36*
X52110442Y-187165518D02*
X52176627Y-187172037D01*
X52289853Y-187206384D01*
X52346467Y-187223557D01*
X52468900Y-187289000D01*
X52502991Y-187307222D01*
X52538729Y-187336552D01*
X52640186Y-187419814D01*
X52723448Y-187521271D01*
X52752778Y-187557009D01*
X52752779Y-187557011D01*
X52836443Y-187713533D01*
X52848497Y-187753271D01*
X52887963Y-187883373D01*
X52905359Y-188060000D01*
X52887963Y-188236627D01*
X52856605Y-188340000D01*
X52836443Y-188406467D01*
X52762348Y-188545087D01*
X52752778Y-188562991D01*
X52723448Y-188598729D01*
X52640186Y-188700186D01*
X52538729Y-188783448D01*
X52502991Y-188812778D01*
X52502989Y-188812779D01*
X52346467Y-188896443D01*
X52289853Y-188913616D01*
X52176627Y-188947963D01*
X52110442Y-188954482D01*
X52044260Y-188961000D01*
X51955740Y-188961000D01*
X51889558Y-188954482D01*
X51823373Y-188947963D01*
X51710147Y-188913616D01*
X51653533Y-188896443D01*
X51497011Y-188812779D01*
X51497009Y-188812778D01*
X51461271Y-188783448D01*
X51359814Y-188700186D01*
X51276552Y-188598729D01*
X51247222Y-188562991D01*
X51237652Y-188545087D01*
X51163557Y-188406467D01*
X51143395Y-188340000D01*
X51112037Y-188236627D01*
X51094641Y-188060000D01*
X51112037Y-187883373D01*
X51151503Y-187753271D01*
X51163557Y-187713533D01*
X51247221Y-187557011D01*
X51247222Y-187557009D01*
X51276552Y-187521271D01*
X51359814Y-187419814D01*
X51461271Y-187336552D01*
X51497009Y-187307222D01*
X51531100Y-187289000D01*
X51653533Y-187223557D01*
X51710147Y-187206384D01*
X51823373Y-187172037D01*
X51889558Y-187165518D01*
X51955740Y-187159000D01*
X52044260Y-187159000D01*
X52110442Y-187165518D01*
X52110442Y-187165518D01*
G37*
G36*
X34451000Y-188301000D02*
X33149000Y-188301000D01*
X33149000Y-187299000D01*
X34451000Y-187299000D01*
X34451000Y-188301000D01*
X34451000Y-188301000D01*
G37*
G36*
X32251000Y-188301000D02*
X30949000Y-188301000D01*
X30949000Y-187299000D01*
X32251000Y-187299000D01*
X32251000Y-188301000D01*
X32251000Y-188301000D01*
G37*
G36*
X26701000Y-187951000D02*
X25299000Y-187951000D01*
X25299000Y-185649000D01*
X26701000Y-185649000D01*
X26701000Y-187951000D01*
X26701000Y-187951000D01*
G37*
G36*
X48201000Y-187051000D02*
X47199000Y-187051000D01*
X47199000Y-185749000D01*
X48201000Y-185749000D01*
X48201000Y-187051000D01*
X48201000Y-187051000D01*
G37*
G36*
X18851000Y-186851000D02*
X16149000Y-186851000D01*
X16149000Y-184749000D01*
X18851000Y-184749000D01*
X18851000Y-186851000D01*
X18851000Y-186851000D01*
G37*
G36*
X44201000Y-186701000D02*
X42199000Y-186701000D01*
X42199000Y-185799000D01*
X44201000Y-185799000D01*
X44201000Y-186701000D01*
X44201000Y-186701000D01*
G37*
G36*
X52110443Y-184625519D02*
X52176627Y-184632037D01*
X52289853Y-184666384D01*
X52346467Y-184683557D01*
X52468900Y-184749000D01*
X52502991Y-184767222D01*
X52538729Y-184796552D01*
X52640186Y-184879814D01*
X52723448Y-184981271D01*
X52752778Y-185017009D01*
X52752779Y-185017011D01*
X52836443Y-185173533D01*
X52836443Y-185173534D01*
X52887963Y-185343373D01*
X52905359Y-185520000D01*
X52887963Y-185696627D01*
X52853616Y-185809853D01*
X52836443Y-185866467D01*
X52762348Y-186005087D01*
X52752778Y-186022991D01*
X52723448Y-186058729D01*
X52640186Y-186160186D01*
X52538729Y-186243448D01*
X52502991Y-186272778D01*
X52502989Y-186272779D01*
X52346467Y-186356443D01*
X52289853Y-186373616D01*
X52176627Y-186407963D01*
X52110443Y-186414481D01*
X52044260Y-186421000D01*
X51955740Y-186421000D01*
X51889557Y-186414481D01*
X51823373Y-186407963D01*
X51710147Y-186373616D01*
X51653533Y-186356443D01*
X51497011Y-186272779D01*
X51497009Y-186272778D01*
X51461271Y-186243448D01*
X51359814Y-186160186D01*
X51276552Y-186058729D01*
X51247222Y-186022991D01*
X51237652Y-186005087D01*
X51163557Y-185866467D01*
X51146384Y-185809853D01*
X51112037Y-185696627D01*
X51094641Y-185520000D01*
X51112037Y-185343373D01*
X51163557Y-185173534D01*
X51163557Y-185173533D01*
X51247221Y-185017011D01*
X51247222Y-185017009D01*
X51276552Y-184981271D01*
X51359814Y-184879814D01*
X51461271Y-184796552D01*
X51497009Y-184767222D01*
X51531100Y-184749000D01*
X51653533Y-184683557D01*
X51710147Y-184666384D01*
X51823373Y-184632037D01*
X51889557Y-184625519D01*
X51955740Y-184619000D01*
X52044260Y-184619000D01*
X52110443Y-184625519D01*
X52110443Y-184625519D01*
G37*
G36*
X32251000Y-186301000D02*
X30949000Y-186301000D01*
X30949000Y-185299000D01*
X32251000Y-185299000D01*
X32251000Y-186301000D01*
X32251000Y-186301000D01*
G37*
G36*
X34451000Y-186301000D02*
X33149000Y-186301000D01*
X33149000Y-185299000D01*
X34451000Y-185299000D01*
X34451000Y-186301000D01*
X34451000Y-186301000D01*
G37*
G36*
X41201000Y-185751000D02*
X39199000Y-185751000D01*
X39199000Y-184849000D01*
X41201000Y-184849000D01*
X41201000Y-185751000D01*
X41201000Y-185751000D01*
G37*
G36*
X48201000Y-184851000D02*
X47199000Y-184851000D01*
X47199000Y-183549000D01*
X48201000Y-183549000D01*
X48201000Y-184851000D01*
X48201000Y-184851000D01*
G37*
G36*
X44201000Y-184801000D02*
X42199000Y-184801000D01*
X42199000Y-183899000D01*
X44201000Y-183899000D01*
X44201000Y-184801000D01*
X44201000Y-184801000D01*
G37*
G36*
X25551000Y-184476000D02*
X23949000Y-184476000D01*
X23949000Y-183124000D01*
X25551000Y-183124000D01*
X25551000Y-184476000D01*
X25551000Y-184476000D01*
G37*
G36*
X28051000Y-184476000D02*
X26449000Y-184476000D01*
X26449000Y-183124000D01*
X28051000Y-183124000D01*
X28051000Y-184476000D01*
X28051000Y-184476000D01*
G37*
G36*
X34301000Y-184426000D02*
X32999000Y-184426000D01*
X32999000Y-183574000D01*
X34301000Y-183574000D01*
X34301000Y-184426000D01*
X34301000Y-184426000D01*
G37*
G36*
X32401000Y-184426000D02*
X31099000Y-184426000D01*
X31099000Y-183574000D01*
X32401000Y-183574000D01*
X32401000Y-184426000D01*
X32401000Y-184426000D01*
G37*
G36*
X52110442Y-182085518D02*
X52176627Y-182092037D01*
X52289853Y-182126384D01*
X52346467Y-182143557D01*
X52485087Y-182217652D01*
X52502991Y-182227222D01*
X52538729Y-182256552D01*
X52640186Y-182339814D01*
X52723448Y-182441271D01*
X52752778Y-182477009D01*
X52752779Y-182477011D01*
X52836443Y-182633533D01*
X52836443Y-182633534D01*
X52887963Y-182803373D01*
X52905359Y-182980000D01*
X52887963Y-183156627D01*
X52853616Y-183269853D01*
X52836443Y-183326467D01*
X52762348Y-183465087D01*
X52752778Y-183482991D01*
X52723448Y-183518729D01*
X52640186Y-183620186D01*
X52538729Y-183703448D01*
X52502991Y-183732778D01*
X52502989Y-183732779D01*
X52346467Y-183816443D01*
X52289853Y-183833616D01*
X52176627Y-183867963D01*
X52110443Y-183874481D01*
X52044260Y-183881000D01*
X51955740Y-183881000D01*
X51889557Y-183874481D01*
X51823373Y-183867963D01*
X51710147Y-183833616D01*
X51653533Y-183816443D01*
X51497011Y-183732779D01*
X51497009Y-183732778D01*
X51461271Y-183703448D01*
X51359814Y-183620186D01*
X51276552Y-183518729D01*
X51247222Y-183482991D01*
X51237652Y-183465087D01*
X51163557Y-183326467D01*
X51146384Y-183269853D01*
X51112037Y-183156627D01*
X51094641Y-182980000D01*
X51112037Y-182803373D01*
X51163557Y-182633534D01*
X51163557Y-182633533D01*
X51247221Y-182477011D01*
X51247222Y-182477009D01*
X51276552Y-182441271D01*
X51359814Y-182339814D01*
X51461271Y-182256552D01*
X51497009Y-182227222D01*
X51514913Y-182217652D01*
X51653533Y-182143557D01*
X51710147Y-182126384D01*
X51823373Y-182092037D01*
X51889558Y-182085518D01*
X51955740Y-182079000D01*
X52044260Y-182079000D01*
X52110442Y-182085518D01*
X52110442Y-182085518D01*
G37*
G36*
X34188677Y-181253465D02*
X34226364Y-181264898D01*
X34261103Y-181283466D01*
X34291548Y-181308452D01*
X34316534Y-181338897D01*
X34335102Y-181373636D01*
X34346535Y-181411323D01*
X34351000Y-181456661D01*
X34351000Y-182543339D01*
X34346535Y-182588677D01*
X34335102Y-182626364D01*
X34316534Y-182661103D01*
X34291548Y-182691548D01*
X34261103Y-182716534D01*
X34226364Y-182735102D01*
X34188677Y-182746535D01*
X34143339Y-182751000D01*
X33306661Y-182751000D01*
X33261323Y-182746535D01*
X33223636Y-182735102D01*
X33188897Y-182716534D01*
X33158452Y-182691548D01*
X33133466Y-182661103D01*
X33114898Y-182626364D01*
X33103465Y-182588677D01*
X33099000Y-182543339D01*
X33099000Y-181456661D01*
X33103465Y-181411323D01*
X33114898Y-181373636D01*
X33133466Y-181338897D01*
X33158452Y-181308452D01*
X33188897Y-181283466D01*
X33223636Y-181264898D01*
X33261323Y-181253465D01*
X33306661Y-181249000D01*
X34143339Y-181249000D01*
X34188677Y-181253465D01*
X34188677Y-181253465D01*
G37*
G36*
X32138677Y-181253465D02*
X32176364Y-181264898D01*
X32211103Y-181283466D01*
X32241548Y-181308452D01*
X32266534Y-181338897D01*
X32285102Y-181373636D01*
X32296535Y-181411323D01*
X32301000Y-181456661D01*
X32301000Y-182543339D01*
X32296535Y-182588677D01*
X32285102Y-182626364D01*
X32266534Y-182661103D01*
X32241548Y-182691548D01*
X32211103Y-182716534D01*
X32176364Y-182735102D01*
X32138677Y-182746535D01*
X32093339Y-182751000D01*
X31256661Y-182751000D01*
X31211323Y-182746535D01*
X31173636Y-182735102D01*
X31138897Y-182716534D01*
X31108452Y-182691548D01*
X31083466Y-182661103D01*
X31064898Y-182626364D01*
X31053465Y-182588677D01*
X31049000Y-182543339D01*
X31049000Y-181456661D01*
X31053465Y-181411323D01*
X31064898Y-181373636D01*
X31083466Y-181338897D01*
X31108452Y-181308452D01*
X31138897Y-181283466D01*
X31173636Y-181264898D01*
X31211323Y-181253465D01*
X31256661Y-181249000D01*
X32093339Y-181249000D01*
X32138677Y-181253465D01*
X32138677Y-181253465D01*
G37*
G36*
X18401000Y-182701000D02*
X16599000Y-182701000D01*
X16599000Y-180899000D01*
X18401000Y-180899000D01*
X18401000Y-182701000D01*
X18401000Y-182701000D01*
G37*
G36*
X48201000Y-181551000D02*
X47199000Y-181551000D01*
X47199000Y-180249000D01*
X48201000Y-180249000D01*
X48201000Y-181551000D01*
X48201000Y-181551000D01*
G37*
G36*
X44201000Y-181201000D02*
X42199000Y-181201000D01*
X42199000Y-180299000D01*
X44201000Y-180299000D01*
X44201000Y-181201000D01*
X44201000Y-181201000D01*
G37*
G36*
X34751000Y-180476000D02*
X33149000Y-180476000D01*
X33149000Y-179124000D01*
X34751000Y-179124000D01*
X34751000Y-180476000D01*
X34751000Y-180476000D01*
G37*
G36*
X32251000Y-180476000D02*
X30649000Y-180476000D01*
X30649000Y-179124000D01*
X32251000Y-179124000D01*
X32251000Y-180476000D01*
X32251000Y-180476000D01*
G37*
G36*
X26617396Y-178385546D02*
X26790466Y-178457234D01*
X26946230Y-178561312D01*
X27078688Y-178693770D01*
X27182766Y-178849534D01*
X27254454Y-179022604D01*
X27291000Y-179206333D01*
X27291000Y-179393667D01*
X27254454Y-179577396D01*
X27182766Y-179750466D01*
X27078688Y-179906230D01*
X26946230Y-180038688D01*
X26790466Y-180142766D01*
X26617396Y-180214454D01*
X26433667Y-180251000D01*
X26246333Y-180251000D01*
X26062604Y-180214454D01*
X25889534Y-180142766D01*
X25733770Y-180038688D01*
X25601312Y-179906230D01*
X25497234Y-179750466D01*
X25425546Y-179577396D01*
X25389000Y-179393667D01*
X25389000Y-179206333D01*
X25425546Y-179022604D01*
X25497234Y-178849534D01*
X25601312Y-178693770D01*
X25733770Y-178561312D01*
X25889534Y-178457234D01*
X26062604Y-178385546D01*
X26246333Y-178349000D01*
X26433667Y-178349000D01*
X26617396Y-178385546D01*
X26617396Y-178385546D01*
G37*
G36*
X24751000Y-180251000D02*
X22849000Y-180251000D01*
X22849000Y-178349000D01*
X24751000Y-178349000D01*
X24751000Y-180251000D01*
X24751000Y-180251000D01*
G37*
G36*
X41201000Y-180251000D02*
X39199000Y-180251000D01*
X39199000Y-179349000D01*
X41201000Y-179349000D01*
X41201000Y-180251000D01*
X41201000Y-180251000D01*
G37*
G36*
X17610442Y-178365518D02*
X17676627Y-178372037D01*
X17765512Y-178399000D01*
X17846467Y-178423557D01*
X17909471Y-178457234D01*
X18002991Y-178507222D01*
X18038729Y-178536552D01*
X18140186Y-178619814D01*
X18223448Y-178721271D01*
X18252778Y-178757009D01*
X18252779Y-178757011D01*
X18336443Y-178913533D01*
X18336443Y-178913534D01*
X18387963Y-179083373D01*
X18405359Y-179260000D01*
X18387963Y-179436627D01*
X18353616Y-179549853D01*
X18336443Y-179606467D01*
X18262348Y-179745087D01*
X18252778Y-179762991D01*
X18223448Y-179798729D01*
X18140186Y-179900186D01*
X18038729Y-179983448D01*
X18002991Y-180012778D01*
X18002989Y-180012779D01*
X17846467Y-180096443D01*
X17789853Y-180113616D01*
X17676627Y-180147963D01*
X17610442Y-180154482D01*
X17544260Y-180161000D01*
X17455740Y-180161000D01*
X17389558Y-180154482D01*
X17323373Y-180147963D01*
X17210147Y-180113616D01*
X17153533Y-180096443D01*
X16997011Y-180012779D01*
X16997009Y-180012778D01*
X16961271Y-179983448D01*
X16859814Y-179900186D01*
X16776552Y-179798729D01*
X16747222Y-179762991D01*
X16737652Y-179745087D01*
X16663557Y-179606467D01*
X16646384Y-179549853D01*
X16612037Y-179436627D01*
X16594641Y-179260000D01*
X16612037Y-179083373D01*
X16663557Y-178913534D01*
X16663557Y-178913533D01*
X16747221Y-178757011D01*
X16747222Y-178757009D01*
X16776552Y-178721271D01*
X16859814Y-178619814D01*
X16961271Y-178536552D01*
X16997009Y-178507222D01*
X17090529Y-178457234D01*
X17153533Y-178423557D01*
X17234488Y-178399000D01*
X17323373Y-178372037D01*
X17389558Y-178365518D01*
X17455740Y-178359000D01*
X17544260Y-178359000D01*
X17610442Y-178365518D01*
X17610442Y-178365518D01*
G37*
G36*
X48201000Y-179351000D02*
X47199000Y-179351000D01*
X47199000Y-178049000D01*
X48201000Y-178049000D01*
X48201000Y-179351000D01*
X48201000Y-179351000D01*
G37*
G36*
X44201000Y-179301000D02*
X42199000Y-179301000D01*
X42199000Y-178399000D01*
X44201000Y-178399000D01*
X44201000Y-179301000D01*
X44201000Y-179301000D01*
G37*
M02*
