G04 #@! TF.GenerationSoftware,KiCad,Pcbnew,5.1.5-52549c5~84~ubuntu18.04.1*
G04 #@! TF.CreationDate,2020-03-19T13:28:06+05:30*
G04 #@! TF.ProjectId,senseRx_rev1,73656e73-6552-4785-9f72-6576312e6b69,rev?*
G04 #@! TF.SameCoordinates,Original*
G04 #@! TF.FileFunction,Soldermask,Bot*
G04 #@! TF.FilePolarity,Negative*
%FSLAX46Y46*%
G04 Gerber Fmt 4.6, Leading zero omitted, Abs format (unit mm)*
G04 Created by KiCad (PCBNEW 5.1.5-52549c5~84~ubuntu18.04.1) date 2020-03-19 13:28:06*
%MOMM*%
%LPD*%
G04 APERTURE LIST*
%ADD10C,0.100000*%
G04 APERTURE END LIST*
D10*
G36*
X125006564Y-163189389D02*
G01*
X125191964Y-163266184D01*
X125197835Y-163268616D01*
X125369973Y-163383635D01*
X125516365Y-163530027D01*
X125605630Y-163663621D01*
X125631385Y-163702167D01*
X125710611Y-163893436D01*
X125751000Y-164096484D01*
X125751000Y-164303516D01*
X125710611Y-164506564D01*
X125631385Y-164697833D01*
X125631384Y-164697835D01*
X125516365Y-164869973D01*
X125369973Y-165016365D01*
X125197835Y-165131384D01*
X125197834Y-165131385D01*
X125197833Y-165131385D01*
X125006564Y-165210611D01*
X124803516Y-165251000D01*
X124596484Y-165251000D01*
X124393436Y-165210611D01*
X124202167Y-165131385D01*
X124202166Y-165131385D01*
X124202165Y-165131384D01*
X124030027Y-165016365D01*
X123883635Y-164869973D01*
X123768616Y-164697835D01*
X123768615Y-164697833D01*
X123689389Y-164506564D01*
X123649000Y-164303516D01*
X123649000Y-164096484D01*
X123689389Y-163893436D01*
X123768615Y-163702167D01*
X123794371Y-163663621D01*
X123883635Y-163530027D01*
X124030027Y-163383635D01*
X124202165Y-163268616D01*
X124208036Y-163266184D01*
X124393436Y-163189389D01*
X124596484Y-163149000D01*
X124803516Y-163149000D01*
X125006564Y-163189389D01*
G37*
G36*
X118506564Y-163189389D02*
G01*
X118691964Y-163266184D01*
X118697835Y-163268616D01*
X118869973Y-163383635D01*
X119016365Y-163530027D01*
X119105630Y-163663621D01*
X119131385Y-163702167D01*
X119210611Y-163893436D01*
X119251000Y-164096484D01*
X119251000Y-164303516D01*
X119210611Y-164506564D01*
X119131385Y-164697833D01*
X119131384Y-164697835D01*
X119016365Y-164869973D01*
X118869973Y-165016365D01*
X118697835Y-165131384D01*
X118697834Y-165131385D01*
X118697833Y-165131385D01*
X118506564Y-165210611D01*
X118303516Y-165251000D01*
X118096484Y-165251000D01*
X117893436Y-165210611D01*
X117702167Y-165131385D01*
X117702166Y-165131385D01*
X117702165Y-165131384D01*
X117530027Y-165016365D01*
X117383635Y-164869973D01*
X117268616Y-164697835D01*
X117268615Y-164697833D01*
X117189389Y-164506564D01*
X117149000Y-164303516D01*
X117149000Y-164096484D01*
X117189389Y-163893436D01*
X117268615Y-163702167D01*
X117294371Y-163663621D01*
X117383635Y-163530027D01*
X117530027Y-163383635D01*
X117702165Y-163268616D01*
X117708036Y-163266184D01*
X117893436Y-163189389D01*
X118096484Y-163149000D01*
X118303516Y-163149000D01*
X118506564Y-163189389D01*
G37*
G36*
X190318433Y-161634893D02*
G01*
X190408657Y-161652839D01*
X190514267Y-161696585D01*
X190663621Y-161758449D01*
X190663622Y-161758450D01*
X190893086Y-161911772D01*
X191088228Y-162106914D01*
X191190675Y-162260237D01*
X191241551Y-162336379D01*
X191347161Y-162591344D01*
X191401000Y-162862012D01*
X191401000Y-163137988D01*
X191365107Y-163318433D01*
X191347161Y-163408657D01*
X191303415Y-163514267D01*
X191241551Y-163663621D01*
X191241550Y-163663622D01*
X191088228Y-163893086D01*
X190893086Y-164088228D01*
X190739763Y-164190675D01*
X190663621Y-164241551D01*
X190514267Y-164303415D01*
X190408657Y-164347161D01*
X190318433Y-164365107D01*
X190137988Y-164401000D01*
X189862012Y-164401000D01*
X189681567Y-164365107D01*
X189591343Y-164347161D01*
X189485733Y-164303415D01*
X189336379Y-164241551D01*
X189260237Y-164190675D01*
X189106914Y-164088228D01*
X188911772Y-163893086D01*
X188758450Y-163663622D01*
X188758449Y-163663621D01*
X188696585Y-163514267D01*
X188652839Y-163408657D01*
X188634893Y-163318433D01*
X188599000Y-163137988D01*
X188599000Y-162862012D01*
X188652839Y-162591344D01*
X188758449Y-162336379D01*
X188809325Y-162260237D01*
X188911772Y-162106914D01*
X189106914Y-161911772D01*
X189336378Y-161758450D01*
X189336379Y-161758449D01*
X189485733Y-161696585D01*
X189591343Y-161652839D01*
X189681567Y-161634893D01*
X189862012Y-161599000D01*
X190137988Y-161599000D01*
X190318433Y-161634893D01*
G37*
G36*
X100318433Y-161634893D02*
G01*
X100408657Y-161652839D01*
X100514267Y-161696585D01*
X100663621Y-161758449D01*
X100663622Y-161758450D01*
X100893086Y-161911772D01*
X101088228Y-162106914D01*
X101190675Y-162260237D01*
X101241551Y-162336379D01*
X101347161Y-162591344D01*
X101401000Y-162862012D01*
X101401000Y-163137988D01*
X101365107Y-163318433D01*
X101347161Y-163408657D01*
X101303415Y-163514267D01*
X101241551Y-163663621D01*
X101241550Y-163663622D01*
X101088228Y-163893086D01*
X100893086Y-164088228D01*
X100739763Y-164190675D01*
X100663621Y-164241551D01*
X100514267Y-164303415D01*
X100408657Y-164347161D01*
X100318433Y-164365107D01*
X100137988Y-164401000D01*
X99862012Y-164401000D01*
X99681567Y-164365107D01*
X99591343Y-164347161D01*
X99485733Y-164303415D01*
X99336379Y-164241551D01*
X99260237Y-164190675D01*
X99106914Y-164088228D01*
X98911772Y-163893086D01*
X98758450Y-163663622D01*
X98758449Y-163663621D01*
X98696585Y-163514267D01*
X98652839Y-163408657D01*
X98634893Y-163318433D01*
X98599000Y-163137988D01*
X98599000Y-162862012D01*
X98652839Y-162591344D01*
X98758449Y-162336379D01*
X98809325Y-162260237D01*
X98911772Y-162106914D01*
X99106914Y-161911772D01*
X99336378Y-161758450D01*
X99336379Y-161758449D01*
X99485733Y-161696585D01*
X99591343Y-161652839D01*
X99681567Y-161634893D01*
X99862012Y-161599000D01*
X100137988Y-161599000D01*
X100318433Y-161634893D01*
G37*
G36*
X179248228Y-162531703D02*
G01*
X179403100Y-162595853D01*
X179542481Y-162688985D01*
X179661015Y-162807519D01*
X179754147Y-162946900D01*
X179818297Y-163101772D01*
X179851000Y-163266184D01*
X179851000Y-163433816D01*
X179818297Y-163598228D01*
X179754147Y-163753100D01*
X179661015Y-163892481D01*
X179542481Y-164011015D01*
X179403100Y-164104147D01*
X179248228Y-164168297D01*
X179083816Y-164201000D01*
X178916184Y-164201000D01*
X178751772Y-164168297D01*
X178596900Y-164104147D01*
X178457519Y-164011015D01*
X178338985Y-163892481D01*
X178245853Y-163753100D01*
X178181703Y-163598228D01*
X178149000Y-163433816D01*
X178149000Y-163266184D01*
X178181703Y-163101772D01*
X178245853Y-162946900D01*
X178338985Y-162807519D01*
X178457519Y-162688985D01*
X178596900Y-162595853D01*
X178751772Y-162531703D01*
X178916184Y-162499000D01*
X179083816Y-162499000D01*
X179248228Y-162531703D01*
G37*
G36*
X176708228Y-162531703D02*
G01*
X176863100Y-162595853D01*
X177002481Y-162688985D01*
X177121015Y-162807519D01*
X177214147Y-162946900D01*
X177278297Y-163101772D01*
X177311000Y-163266184D01*
X177311000Y-163433816D01*
X177278297Y-163598228D01*
X177214147Y-163753100D01*
X177121015Y-163892481D01*
X177002481Y-164011015D01*
X176863100Y-164104147D01*
X176708228Y-164168297D01*
X176543816Y-164201000D01*
X176376184Y-164201000D01*
X176211772Y-164168297D01*
X176056900Y-164104147D01*
X175917519Y-164011015D01*
X175798985Y-163892481D01*
X175705853Y-163753100D01*
X175641703Y-163598228D01*
X175609000Y-163433816D01*
X175609000Y-163266184D01*
X175641703Y-163101772D01*
X175705853Y-162946900D01*
X175798985Y-162807519D01*
X175917519Y-162688985D01*
X176056900Y-162595853D01*
X176211772Y-162531703D01*
X176376184Y-162499000D01*
X176543816Y-162499000D01*
X176708228Y-162531703D01*
G37*
G36*
X174168228Y-162531703D02*
G01*
X174323100Y-162595853D01*
X174462481Y-162688985D01*
X174581015Y-162807519D01*
X174674147Y-162946900D01*
X174738297Y-163101772D01*
X174771000Y-163266184D01*
X174771000Y-163433816D01*
X174738297Y-163598228D01*
X174674147Y-163753100D01*
X174581015Y-163892481D01*
X174462481Y-164011015D01*
X174323100Y-164104147D01*
X174168228Y-164168297D01*
X174003816Y-164201000D01*
X173836184Y-164201000D01*
X173671772Y-164168297D01*
X173516900Y-164104147D01*
X173377519Y-164011015D01*
X173258985Y-163892481D01*
X173165853Y-163753100D01*
X173101703Y-163598228D01*
X173069000Y-163433816D01*
X173069000Y-163266184D01*
X173101703Y-163101772D01*
X173165853Y-162946900D01*
X173258985Y-162807519D01*
X173377519Y-162688985D01*
X173516900Y-162595853D01*
X173671772Y-162531703D01*
X173836184Y-162499000D01*
X174003816Y-162499000D01*
X174168228Y-162531703D01*
G37*
G36*
X169088228Y-162531703D02*
G01*
X169243100Y-162595853D01*
X169382481Y-162688985D01*
X169501015Y-162807519D01*
X169594147Y-162946900D01*
X169658297Y-163101772D01*
X169691000Y-163266184D01*
X169691000Y-163433816D01*
X169658297Y-163598228D01*
X169594147Y-163753100D01*
X169501015Y-163892481D01*
X169382481Y-164011015D01*
X169243100Y-164104147D01*
X169088228Y-164168297D01*
X168923816Y-164201000D01*
X168756184Y-164201000D01*
X168591772Y-164168297D01*
X168436900Y-164104147D01*
X168297519Y-164011015D01*
X168178985Y-163892481D01*
X168085853Y-163753100D01*
X168021703Y-163598228D01*
X167989000Y-163433816D01*
X167989000Y-163266184D01*
X168021703Y-163101772D01*
X168085853Y-162946900D01*
X168178985Y-162807519D01*
X168297519Y-162688985D01*
X168436900Y-162595853D01*
X168591772Y-162531703D01*
X168756184Y-162499000D01*
X168923816Y-162499000D01*
X169088228Y-162531703D01*
G37*
G36*
X166548228Y-162531703D02*
G01*
X166703100Y-162595853D01*
X166842481Y-162688985D01*
X166961015Y-162807519D01*
X167054147Y-162946900D01*
X167118297Y-163101772D01*
X167151000Y-163266184D01*
X167151000Y-163433816D01*
X167118297Y-163598228D01*
X167054147Y-163753100D01*
X166961015Y-163892481D01*
X166842481Y-164011015D01*
X166703100Y-164104147D01*
X166548228Y-164168297D01*
X166383816Y-164201000D01*
X166216184Y-164201000D01*
X166051772Y-164168297D01*
X165896900Y-164104147D01*
X165757519Y-164011015D01*
X165638985Y-163892481D01*
X165545853Y-163753100D01*
X165481703Y-163598228D01*
X165449000Y-163433816D01*
X165449000Y-163266184D01*
X165481703Y-163101772D01*
X165545853Y-162946900D01*
X165638985Y-162807519D01*
X165757519Y-162688985D01*
X165896900Y-162595853D01*
X166051772Y-162531703D01*
X166216184Y-162499000D01*
X166383816Y-162499000D01*
X166548228Y-162531703D01*
G37*
G36*
X164008228Y-162531703D02*
G01*
X164163100Y-162595853D01*
X164302481Y-162688985D01*
X164421015Y-162807519D01*
X164514147Y-162946900D01*
X164578297Y-163101772D01*
X164611000Y-163266184D01*
X164611000Y-163433816D01*
X164578297Y-163598228D01*
X164514147Y-163753100D01*
X164421015Y-163892481D01*
X164302481Y-164011015D01*
X164163100Y-164104147D01*
X164008228Y-164168297D01*
X163843816Y-164201000D01*
X163676184Y-164201000D01*
X163511772Y-164168297D01*
X163356900Y-164104147D01*
X163217519Y-164011015D01*
X163098985Y-163892481D01*
X163005853Y-163753100D01*
X162941703Y-163598228D01*
X162909000Y-163433816D01*
X162909000Y-163266184D01*
X162941703Y-163101772D01*
X163005853Y-162946900D01*
X163098985Y-162807519D01*
X163217519Y-162688985D01*
X163356900Y-162595853D01*
X163511772Y-162531703D01*
X163676184Y-162499000D01*
X163843816Y-162499000D01*
X164008228Y-162531703D01*
G37*
G36*
X161468228Y-162531703D02*
G01*
X161623100Y-162595853D01*
X161762481Y-162688985D01*
X161881015Y-162807519D01*
X161974147Y-162946900D01*
X162038297Y-163101772D01*
X162071000Y-163266184D01*
X162071000Y-163433816D01*
X162038297Y-163598228D01*
X161974147Y-163753100D01*
X161881015Y-163892481D01*
X161762481Y-164011015D01*
X161623100Y-164104147D01*
X161468228Y-164168297D01*
X161303816Y-164201000D01*
X161136184Y-164201000D01*
X160971772Y-164168297D01*
X160816900Y-164104147D01*
X160677519Y-164011015D01*
X160558985Y-163892481D01*
X160465853Y-163753100D01*
X160401703Y-163598228D01*
X160369000Y-163433816D01*
X160369000Y-163266184D01*
X160401703Y-163101772D01*
X160465853Y-162946900D01*
X160558985Y-162807519D01*
X160677519Y-162688985D01*
X160816900Y-162595853D01*
X160971772Y-162531703D01*
X161136184Y-162499000D01*
X161303816Y-162499000D01*
X161468228Y-162531703D01*
G37*
G36*
X156388228Y-162531703D02*
G01*
X156543100Y-162595853D01*
X156682481Y-162688985D01*
X156801015Y-162807519D01*
X156894147Y-162946900D01*
X156958297Y-163101772D01*
X156991000Y-163266184D01*
X156991000Y-163433816D01*
X156958297Y-163598228D01*
X156894147Y-163753100D01*
X156801015Y-163892481D01*
X156682481Y-164011015D01*
X156543100Y-164104147D01*
X156388228Y-164168297D01*
X156223816Y-164201000D01*
X156056184Y-164201000D01*
X155891772Y-164168297D01*
X155736900Y-164104147D01*
X155597519Y-164011015D01*
X155478985Y-163892481D01*
X155385853Y-163753100D01*
X155321703Y-163598228D01*
X155289000Y-163433816D01*
X155289000Y-163266184D01*
X155321703Y-163101772D01*
X155385853Y-162946900D01*
X155478985Y-162807519D01*
X155597519Y-162688985D01*
X155736900Y-162595853D01*
X155891772Y-162531703D01*
X156056184Y-162499000D01*
X156223816Y-162499000D01*
X156388228Y-162531703D01*
G37*
G36*
X153848228Y-162531703D02*
G01*
X154003100Y-162595853D01*
X154142481Y-162688985D01*
X154261015Y-162807519D01*
X154354147Y-162946900D01*
X154418297Y-163101772D01*
X154451000Y-163266184D01*
X154451000Y-163433816D01*
X154418297Y-163598228D01*
X154354147Y-163753100D01*
X154261015Y-163892481D01*
X154142481Y-164011015D01*
X154003100Y-164104147D01*
X153848228Y-164168297D01*
X153683816Y-164201000D01*
X153516184Y-164201000D01*
X153351772Y-164168297D01*
X153196900Y-164104147D01*
X153057519Y-164011015D01*
X152938985Y-163892481D01*
X152845853Y-163753100D01*
X152781703Y-163598228D01*
X152749000Y-163433816D01*
X152749000Y-163266184D01*
X152781703Y-163101772D01*
X152845853Y-162946900D01*
X152938985Y-162807519D01*
X153057519Y-162688985D01*
X153196900Y-162595853D01*
X153351772Y-162531703D01*
X153516184Y-162499000D01*
X153683816Y-162499000D01*
X153848228Y-162531703D01*
G37*
G36*
X151308228Y-162531703D02*
G01*
X151463100Y-162595853D01*
X151602481Y-162688985D01*
X151721015Y-162807519D01*
X151814147Y-162946900D01*
X151878297Y-163101772D01*
X151911000Y-163266184D01*
X151911000Y-163433816D01*
X151878297Y-163598228D01*
X151814147Y-163753100D01*
X151721015Y-163892481D01*
X151602481Y-164011015D01*
X151463100Y-164104147D01*
X151308228Y-164168297D01*
X151143816Y-164201000D01*
X150976184Y-164201000D01*
X150811772Y-164168297D01*
X150656900Y-164104147D01*
X150517519Y-164011015D01*
X150398985Y-163892481D01*
X150305853Y-163753100D01*
X150241703Y-163598228D01*
X150209000Y-163433816D01*
X150209000Y-163266184D01*
X150241703Y-163101772D01*
X150305853Y-162946900D01*
X150398985Y-162807519D01*
X150517519Y-162688985D01*
X150656900Y-162595853D01*
X150811772Y-162531703D01*
X150976184Y-162499000D01*
X151143816Y-162499000D01*
X151308228Y-162531703D01*
G37*
G36*
X148768228Y-162531703D02*
G01*
X148923100Y-162595853D01*
X149062481Y-162688985D01*
X149181015Y-162807519D01*
X149274147Y-162946900D01*
X149338297Y-163101772D01*
X149371000Y-163266184D01*
X149371000Y-163433816D01*
X149338297Y-163598228D01*
X149274147Y-163753100D01*
X149181015Y-163892481D01*
X149062481Y-164011015D01*
X148923100Y-164104147D01*
X148768228Y-164168297D01*
X148603816Y-164201000D01*
X148436184Y-164201000D01*
X148271772Y-164168297D01*
X148116900Y-164104147D01*
X147977519Y-164011015D01*
X147858985Y-163892481D01*
X147765853Y-163753100D01*
X147701703Y-163598228D01*
X147669000Y-163433816D01*
X147669000Y-163266184D01*
X147701703Y-163101772D01*
X147765853Y-162946900D01*
X147858985Y-162807519D01*
X147977519Y-162688985D01*
X148116900Y-162595853D01*
X148271772Y-162531703D01*
X148436184Y-162499000D01*
X148603816Y-162499000D01*
X148768228Y-162531703D01*
G37*
G36*
X171628228Y-162531703D02*
G01*
X171783100Y-162595853D01*
X171922481Y-162688985D01*
X172041015Y-162807519D01*
X172134147Y-162946900D01*
X172198297Y-163101772D01*
X172231000Y-163266184D01*
X172231000Y-163433816D01*
X172198297Y-163598228D01*
X172134147Y-163753100D01*
X172041015Y-163892481D01*
X171922481Y-164011015D01*
X171783100Y-164104147D01*
X171628228Y-164168297D01*
X171463816Y-164201000D01*
X171296184Y-164201000D01*
X171131772Y-164168297D01*
X170976900Y-164104147D01*
X170837519Y-164011015D01*
X170718985Y-163892481D01*
X170625853Y-163753100D01*
X170561703Y-163598228D01*
X170529000Y-163433816D01*
X170529000Y-163266184D01*
X170561703Y-163101772D01*
X170625853Y-162946900D01*
X170718985Y-162807519D01*
X170837519Y-162688985D01*
X170976900Y-162595853D01*
X171131772Y-162531703D01*
X171296184Y-162499000D01*
X171463816Y-162499000D01*
X171628228Y-162531703D01*
G37*
G36*
X146228228Y-162531703D02*
G01*
X146383100Y-162595853D01*
X146522481Y-162688985D01*
X146641015Y-162807519D01*
X146734147Y-162946900D01*
X146798297Y-163101772D01*
X146831000Y-163266184D01*
X146831000Y-163433816D01*
X146798297Y-163598228D01*
X146734147Y-163753100D01*
X146641015Y-163892481D01*
X146522481Y-164011015D01*
X146383100Y-164104147D01*
X146228228Y-164168297D01*
X146063816Y-164201000D01*
X145896184Y-164201000D01*
X145731772Y-164168297D01*
X145576900Y-164104147D01*
X145437519Y-164011015D01*
X145318985Y-163892481D01*
X145225853Y-163753100D01*
X145161703Y-163598228D01*
X145129000Y-163433816D01*
X145129000Y-163266184D01*
X145161703Y-163101772D01*
X145225853Y-162946900D01*
X145318985Y-162807519D01*
X145437519Y-162688985D01*
X145576900Y-162595853D01*
X145731772Y-162531703D01*
X145896184Y-162499000D01*
X146063816Y-162499000D01*
X146228228Y-162531703D01*
G37*
G36*
X158928228Y-162531703D02*
G01*
X159083100Y-162595853D01*
X159222481Y-162688985D01*
X159341015Y-162807519D01*
X159434147Y-162946900D01*
X159498297Y-163101772D01*
X159531000Y-163266184D01*
X159531000Y-163433816D01*
X159498297Y-163598228D01*
X159434147Y-163753100D01*
X159341015Y-163892481D01*
X159222481Y-164011015D01*
X159083100Y-164104147D01*
X158928228Y-164168297D01*
X158763816Y-164201000D01*
X158596184Y-164201000D01*
X158431772Y-164168297D01*
X158276900Y-164104147D01*
X158137519Y-164011015D01*
X158018985Y-163892481D01*
X157925853Y-163753100D01*
X157861703Y-163598228D01*
X157829000Y-163433816D01*
X157829000Y-163266184D01*
X157861703Y-163101772D01*
X157925853Y-162946900D01*
X158018985Y-162807519D01*
X158137519Y-162688985D01*
X158276900Y-162595853D01*
X158431772Y-162531703D01*
X158596184Y-162499000D01*
X158763816Y-162499000D01*
X158928228Y-162531703D01*
G37*
G36*
X171628228Y-159991703D02*
G01*
X171783100Y-160055853D01*
X171922481Y-160148985D01*
X172041015Y-160267519D01*
X172134147Y-160406900D01*
X172198297Y-160561772D01*
X172231000Y-160726184D01*
X172231000Y-160893816D01*
X172198297Y-161058228D01*
X172134147Y-161213100D01*
X172041015Y-161352481D01*
X171922481Y-161471015D01*
X171783100Y-161564147D01*
X171628228Y-161628297D01*
X171463816Y-161661000D01*
X171296184Y-161661000D01*
X171131772Y-161628297D01*
X170976900Y-161564147D01*
X170837519Y-161471015D01*
X170718985Y-161352481D01*
X170625853Y-161213100D01*
X170561703Y-161058228D01*
X170529000Y-160893816D01*
X170529000Y-160726184D01*
X170561703Y-160561772D01*
X170625853Y-160406900D01*
X170718985Y-160267519D01*
X170837519Y-160148985D01*
X170976900Y-160055853D01*
X171131772Y-159991703D01*
X171296184Y-159959000D01*
X171463816Y-159959000D01*
X171628228Y-159991703D01*
G37*
G36*
X176708228Y-159991703D02*
G01*
X176863100Y-160055853D01*
X177002481Y-160148985D01*
X177121015Y-160267519D01*
X177214147Y-160406900D01*
X177278297Y-160561772D01*
X177311000Y-160726184D01*
X177311000Y-160893816D01*
X177278297Y-161058228D01*
X177214147Y-161213100D01*
X177121015Y-161352481D01*
X177002481Y-161471015D01*
X176863100Y-161564147D01*
X176708228Y-161628297D01*
X176543816Y-161661000D01*
X176376184Y-161661000D01*
X176211772Y-161628297D01*
X176056900Y-161564147D01*
X175917519Y-161471015D01*
X175798985Y-161352481D01*
X175705853Y-161213100D01*
X175641703Y-161058228D01*
X175609000Y-160893816D01*
X175609000Y-160726184D01*
X175641703Y-160561772D01*
X175705853Y-160406900D01*
X175798985Y-160267519D01*
X175917519Y-160148985D01*
X176056900Y-160055853D01*
X176211772Y-159991703D01*
X176376184Y-159959000D01*
X176543816Y-159959000D01*
X176708228Y-159991703D01*
G37*
G36*
X169088228Y-159991703D02*
G01*
X169243100Y-160055853D01*
X169382481Y-160148985D01*
X169501015Y-160267519D01*
X169594147Y-160406900D01*
X169658297Y-160561772D01*
X169691000Y-160726184D01*
X169691000Y-160893816D01*
X169658297Y-161058228D01*
X169594147Y-161213100D01*
X169501015Y-161352481D01*
X169382481Y-161471015D01*
X169243100Y-161564147D01*
X169088228Y-161628297D01*
X168923816Y-161661000D01*
X168756184Y-161661000D01*
X168591772Y-161628297D01*
X168436900Y-161564147D01*
X168297519Y-161471015D01*
X168178985Y-161352481D01*
X168085853Y-161213100D01*
X168021703Y-161058228D01*
X167989000Y-160893816D01*
X167989000Y-160726184D01*
X168021703Y-160561772D01*
X168085853Y-160406900D01*
X168178985Y-160267519D01*
X168297519Y-160148985D01*
X168436900Y-160055853D01*
X168591772Y-159991703D01*
X168756184Y-159959000D01*
X168923816Y-159959000D01*
X169088228Y-159991703D01*
G37*
G36*
X166548228Y-159991703D02*
G01*
X166703100Y-160055853D01*
X166842481Y-160148985D01*
X166961015Y-160267519D01*
X167054147Y-160406900D01*
X167118297Y-160561772D01*
X167151000Y-160726184D01*
X167151000Y-160893816D01*
X167118297Y-161058228D01*
X167054147Y-161213100D01*
X166961015Y-161352481D01*
X166842481Y-161471015D01*
X166703100Y-161564147D01*
X166548228Y-161628297D01*
X166383816Y-161661000D01*
X166216184Y-161661000D01*
X166051772Y-161628297D01*
X165896900Y-161564147D01*
X165757519Y-161471015D01*
X165638985Y-161352481D01*
X165545853Y-161213100D01*
X165481703Y-161058228D01*
X165449000Y-160893816D01*
X165449000Y-160726184D01*
X165481703Y-160561772D01*
X165545853Y-160406900D01*
X165638985Y-160267519D01*
X165757519Y-160148985D01*
X165896900Y-160055853D01*
X166051772Y-159991703D01*
X166216184Y-159959000D01*
X166383816Y-159959000D01*
X166548228Y-159991703D01*
G37*
G36*
X146228228Y-159991703D02*
G01*
X146383100Y-160055853D01*
X146522481Y-160148985D01*
X146641015Y-160267519D01*
X146734147Y-160406900D01*
X146798297Y-160561772D01*
X146831000Y-160726184D01*
X146831000Y-160893816D01*
X146798297Y-161058228D01*
X146734147Y-161213100D01*
X146641015Y-161352481D01*
X146522481Y-161471015D01*
X146383100Y-161564147D01*
X146228228Y-161628297D01*
X146063816Y-161661000D01*
X145896184Y-161661000D01*
X145731772Y-161628297D01*
X145576900Y-161564147D01*
X145437519Y-161471015D01*
X145318985Y-161352481D01*
X145225853Y-161213100D01*
X145161703Y-161058228D01*
X145129000Y-160893816D01*
X145129000Y-160726184D01*
X145161703Y-160561772D01*
X145225853Y-160406900D01*
X145318985Y-160267519D01*
X145437519Y-160148985D01*
X145576900Y-160055853D01*
X145731772Y-159991703D01*
X145896184Y-159959000D01*
X146063816Y-159959000D01*
X146228228Y-159991703D01*
G37*
G36*
X118506564Y-158689389D02*
G01*
X118697833Y-158768615D01*
X118697835Y-158768616D01*
X118869973Y-158883635D01*
X119016365Y-159030027D01*
X119131385Y-159202167D01*
X119210611Y-159393436D01*
X119251000Y-159596484D01*
X119251000Y-159803516D01*
X119210611Y-160006564D01*
X119151618Y-160148985D01*
X119131384Y-160197835D01*
X119016365Y-160369973D01*
X118869973Y-160516365D01*
X118697835Y-160631384D01*
X118697834Y-160631385D01*
X118697833Y-160631385D01*
X118506564Y-160710611D01*
X118303516Y-160751000D01*
X118096484Y-160751000D01*
X117893436Y-160710611D01*
X117702167Y-160631385D01*
X117702166Y-160631385D01*
X117702165Y-160631384D01*
X117530027Y-160516365D01*
X117383635Y-160369973D01*
X117268616Y-160197835D01*
X117248382Y-160148985D01*
X117189389Y-160006564D01*
X117149000Y-159803516D01*
X117149000Y-159596484D01*
X117189389Y-159393436D01*
X117268615Y-159202167D01*
X117383635Y-159030027D01*
X117530027Y-158883635D01*
X117702165Y-158768616D01*
X117702167Y-158768615D01*
X117893436Y-158689389D01*
X118096484Y-158649000D01*
X118303516Y-158649000D01*
X118506564Y-158689389D01*
G37*
G36*
X125006564Y-158689389D02*
G01*
X125197833Y-158768615D01*
X125197835Y-158768616D01*
X125369973Y-158883635D01*
X125516365Y-159030027D01*
X125631385Y-159202167D01*
X125710611Y-159393436D01*
X125751000Y-159596484D01*
X125751000Y-159803516D01*
X125710611Y-160006564D01*
X125651618Y-160148985D01*
X125631384Y-160197835D01*
X125516365Y-160369973D01*
X125369973Y-160516365D01*
X125197835Y-160631384D01*
X125197834Y-160631385D01*
X125197833Y-160631385D01*
X125006564Y-160710611D01*
X124803516Y-160751000D01*
X124596484Y-160751000D01*
X124393436Y-160710611D01*
X124202167Y-160631385D01*
X124202166Y-160631385D01*
X124202165Y-160631384D01*
X124030027Y-160516365D01*
X123883635Y-160369973D01*
X123768616Y-160197835D01*
X123748382Y-160148985D01*
X123689389Y-160006564D01*
X123649000Y-159803516D01*
X123649000Y-159596484D01*
X123689389Y-159393436D01*
X123768615Y-159202167D01*
X123883635Y-159030027D01*
X124030027Y-158883635D01*
X124202165Y-158768616D01*
X124202167Y-158768615D01*
X124393436Y-158689389D01*
X124596484Y-158649000D01*
X124803516Y-158649000D01*
X125006564Y-158689389D01*
G37*
G36*
X146228228Y-157451703D02*
G01*
X146383100Y-157515853D01*
X146522481Y-157608985D01*
X146641015Y-157727519D01*
X146734147Y-157866900D01*
X146798297Y-158021772D01*
X146831000Y-158186184D01*
X146831000Y-158353816D01*
X146798297Y-158518228D01*
X146734147Y-158673100D01*
X146641015Y-158812481D01*
X146522481Y-158931015D01*
X146383100Y-159024147D01*
X146228228Y-159088297D01*
X146063816Y-159121000D01*
X145896184Y-159121000D01*
X145731772Y-159088297D01*
X145576900Y-159024147D01*
X145437519Y-158931015D01*
X145318985Y-158812481D01*
X145225853Y-158673100D01*
X145161703Y-158518228D01*
X145129000Y-158353816D01*
X145129000Y-158186184D01*
X145161703Y-158021772D01*
X145225853Y-157866900D01*
X145318985Y-157727519D01*
X145437519Y-157608985D01*
X145576900Y-157515853D01*
X145731772Y-157451703D01*
X145896184Y-157419000D01*
X146063816Y-157419000D01*
X146228228Y-157451703D01*
G37*
G36*
X172845285Y-154748234D02*
G01*
X172941981Y-154767468D01*
X173124151Y-154842926D01*
X173288100Y-154952473D01*
X173427527Y-155091900D01*
X173537074Y-155255849D01*
X173612532Y-155438019D01*
X173651000Y-155631410D01*
X173651000Y-155828590D01*
X173612532Y-156021981D01*
X173537074Y-156204151D01*
X173427527Y-156368100D01*
X173288100Y-156507527D01*
X173124151Y-156617074D01*
X172941981Y-156692532D01*
X172748591Y-156731000D01*
X172551409Y-156731000D01*
X172358019Y-156692532D01*
X172175849Y-156617074D01*
X172011900Y-156507527D01*
X171872473Y-156368100D01*
X171762926Y-156204151D01*
X171687468Y-156021981D01*
X171649000Y-155828590D01*
X171649000Y-155631410D01*
X171687468Y-155438019D01*
X171762926Y-155255849D01*
X171872473Y-155091900D01*
X172011900Y-154952473D01*
X172175849Y-154842926D01*
X172358019Y-154767468D01*
X172454715Y-154748234D01*
X172551409Y-154729000D01*
X172748591Y-154729000D01*
X172845285Y-154748234D01*
G37*
G36*
X169035285Y-154748234D02*
G01*
X169131981Y-154767468D01*
X169314151Y-154842926D01*
X169478100Y-154952473D01*
X169617527Y-155091900D01*
X169727074Y-155255849D01*
X169802532Y-155438019D01*
X169841000Y-155631410D01*
X169841000Y-155828590D01*
X169802532Y-156021981D01*
X169727074Y-156204151D01*
X169617527Y-156368100D01*
X169478100Y-156507527D01*
X169314151Y-156617074D01*
X169131981Y-156692532D01*
X168938591Y-156731000D01*
X168741409Y-156731000D01*
X168548019Y-156692532D01*
X168365849Y-156617074D01*
X168201900Y-156507527D01*
X168062473Y-156368100D01*
X167952926Y-156204151D01*
X167877468Y-156021981D01*
X167839000Y-155828590D01*
X167839000Y-155631410D01*
X167877468Y-155438019D01*
X167952926Y-155255849D01*
X168062473Y-155091900D01*
X168201900Y-154952473D01*
X168365849Y-154842926D01*
X168548019Y-154767468D01*
X168644715Y-154748234D01*
X168741409Y-154729000D01*
X168938591Y-154729000D01*
X169035285Y-154748234D01*
G37*
G36*
X146228228Y-154911703D02*
G01*
X146383100Y-154975853D01*
X146522481Y-155068985D01*
X146641015Y-155187519D01*
X146734147Y-155326900D01*
X146798297Y-155481772D01*
X146831000Y-155646184D01*
X146831000Y-155813816D01*
X146798297Y-155978228D01*
X146734147Y-156133100D01*
X146641015Y-156272481D01*
X146522481Y-156391015D01*
X146383100Y-156484147D01*
X146228228Y-156548297D01*
X146063816Y-156581000D01*
X145896184Y-156581000D01*
X145731772Y-156548297D01*
X145576900Y-156484147D01*
X145437519Y-156391015D01*
X145318985Y-156272481D01*
X145225853Y-156133100D01*
X145161703Y-155978228D01*
X145129000Y-155813816D01*
X145129000Y-155646184D01*
X145161703Y-155481772D01*
X145225853Y-155326900D01*
X145318985Y-155187519D01*
X145437519Y-155068985D01*
X145576900Y-154975853D01*
X145731772Y-154911703D01*
X145896184Y-154879000D01*
X146063816Y-154879000D01*
X146228228Y-154911703D01*
G37*
G36*
X138090721Y-141870174D02*
G01*
X138190995Y-141911709D01*
X138190996Y-141911710D01*
X138281242Y-141972010D01*
X138357990Y-142048758D01*
X138357991Y-142048760D01*
X138420068Y-142141664D01*
X138435614Y-142160606D01*
X138454556Y-142176151D01*
X138476167Y-142187702D01*
X138499615Y-142194815D01*
X138524002Y-142197217D01*
X138548388Y-142194815D01*
X138571837Y-142187702D01*
X138593447Y-142176151D01*
X138612389Y-142160605D01*
X138627934Y-142141663D01*
X138639485Y-142120052D01*
X138646598Y-142096604D01*
X138649000Y-142072218D01*
X138649000Y-141849000D01*
X139751000Y-141849000D01*
X139751000Y-142951000D01*
X139527782Y-142951000D01*
X139503396Y-142953402D01*
X139479947Y-142960515D01*
X139458336Y-142972066D01*
X139439394Y-142987611D01*
X139423849Y-143006553D01*
X139412298Y-143028164D01*
X139405185Y-143051613D01*
X139402783Y-143075999D01*
X139405185Y-143100385D01*
X139412298Y-143123834D01*
X139423849Y-143145445D01*
X139439394Y-143164387D01*
X139458336Y-143179932D01*
X139519816Y-143221012D01*
X139551242Y-143242010D01*
X139627990Y-143318758D01*
X139627991Y-143318760D01*
X139688291Y-143409005D01*
X139729826Y-143509279D01*
X139751000Y-143615730D01*
X139751000Y-143724270D01*
X139729826Y-143830721D01*
X139688291Y-143930995D01*
X139688290Y-143930996D01*
X139627990Y-144021242D01*
X139551242Y-144097990D01*
X139546737Y-144101000D01*
X139460995Y-144158291D01*
X139385611Y-144189516D01*
X139364000Y-144201067D01*
X139345059Y-144216612D01*
X139329513Y-144235554D01*
X139317962Y-144257165D01*
X139310849Y-144280614D01*
X139308447Y-144305000D01*
X139310849Y-144329386D01*
X139317962Y-144352835D01*
X139329513Y-144374446D01*
X139345058Y-144393387D01*
X139364000Y-144408933D01*
X139385611Y-144420484D01*
X139460995Y-144451709D01*
X139460996Y-144451710D01*
X139551242Y-144512010D01*
X139627990Y-144588758D01*
X139627991Y-144588760D01*
X139688291Y-144679005D01*
X139729826Y-144779279D01*
X139751000Y-144885730D01*
X139751000Y-144994270D01*
X139729826Y-145100721D01*
X139688291Y-145200995D01*
X139688290Y-145200996D01*
X139627990Y-145291242D01*
X139551242Y-145367990D01*
X139505812Y-145398345D01*
X139460995Y-145428291D01*
X139385611Y-145459516D01*
X139364000Y-145471067D01*
X139345059Y-145486612D01*
X139329513Y-145505554D01*
X139317962Y-145527165D01*
X139310849Y-145550614D01*
X139308447Y-145575000D01*
X139310849Y-145599386D01*
X139317962Y-145622835D01*
X139329513Y-145644446D01*
X139345058Y-145663387D01*
X139364000Y-145678933D01*
X139385611Y-145690484D01*
X139460995Y-145721709D01*
X139460996Y-145721710D01*
X139551242Y-145782010D01*
X139627990Y-145858758D01*
X139627991Y-145858760D01*
X139688291Y-145949005D01*
X139729826Y-146049279D01*
X139751000Y-146155730D01*
X139751000Y-146264270D01*
X139729826Y-146370721D01*
X139688291Y-146470995D01*
X139688290Y-146470996D01*
X139627990Y-146561242D01*
X139551242Y-146637990D01*
X139505812Y-146668345D01*
X139460995Y-146698291D01*
X139385611Y-146729516D01*
X139364000Y-146741067D01*
X139345059Y-146756612D01*
X139329513Y-146775554D01*
X139317962Y-146797165D01*
X139310849Y-146820614D01*
X139308447Y-146845000D01*
X139310849Y-146869386D01*
X139317962Y-146892835D01*
X139329513Y-146914446D01*
X139345058Y-146933387D01*
X139364000Y-146948933D01*
X139385611Y-146960484D01*
X139460995Y-146991709D01*
X139460996Y-146991710D01*
X139551242Y-147052010D01*
X139627990Y-147128758D01*
X139627991Y-147128760D01*
X139688291Y-147219005D01*
X139729826Y-147319279D01*
X139751000Y-147425730D01*
X139751000Y-147534270D01*
X139729826Y-147640721D01*
X139688291Y-147740995D01*
X139688290Y-147740996D01*
X139627990Y-147831242D01*
X139551242Y-147907990D01*
X139505812Y-147938345D01*
X139460995Y-147968291D01*
X139385611Y-147999516D01*
X139364000Y-148011067D01*
X139345059Y-148026612D01*
X139329513Y-148045554D01*
X139317962Y-148067165D01*
X139310849Y-148090614D01*
X139308447Y-148115000D01*
X139310849Y-148139386D01*
X139317962Y-148162835D01*
X139329513Y-148184446D01*
X139345058Y-148203387D01*
X139364000Y-148218933D01*
X139385611Y-148230484D01*
X139460995Y-148261709D01*
X139460996Y-148261710D01*
X139551242Y-148322010D01*
X139627990Y-148398758D01*
X139627991Y-148398760D01*
X139688291Y-148489005D01*
X139729826Y-148589279D01*
X139751000Y-148695730D01*
X139751000Y-148804270D01*
X139729826Y-148910721D01*
X139688291Y-149010995D01*
X139688290Y-149010996D01*
X139627990Y-149101242D01*
X139551242Y-149177990D01*
X139505812Y-149208345D01*
X139460995Y-149238291D01*
X139385611Y-149269516D01*
X139364000Y-149281067D01*
X139345059Y-149296612D01*
X139329513Y-149315554D01*
X139317962Y-149337165D01*
X139310849Y-149360614D01*
X139308447Y-149385000D01*
X139310849Y-149409386D01*
X139317962Y-149432835D01*
X139329513Y-149454446D01*
X139345058Y-149473387D01*
X139364000Y-149488933D01*
X139385611Y-149500484D01*
X139460995Y-149531709D01*
X139460996Y-149531710D01*
X139551242Y-149592010D01*
X139627990Y-149668758D01*
X139627991Y-149668760D01*
X139688291Y-149759005D01*
X139729826Y-149859279D01*
X139751000Y-149965730D01*
X139751000Y-150074270D01*
X139729826Y-150180721D01*
X139688291Y-150280995D01*
X139688290Y-150280996D01*
X139627990Y-150371242D01*
X139551242Y-150447990D01*
X139505812Y-150478345D01*
X139460995Y-150508291D01*
X139385611Y-150539516D01*
X139364000Y-150551067D01*
X139345059Y-150566612D01*
X139329513Y-150585554D01*
X139317962Y-150607165D01*
X139310849Y-150630614D01*
X139308447Y-150655000D01*
X139310849Y-150679386D01*
X139317962Y-150702835D01*
X139329513Y-150724446D01*
X139345058Y-150743387D01*
X139364000Y-150758933D01*
X139385611Y-150770484D01*
X139460995Y-150801709D01*
X139460996Y-150801710D01*
X139551242Y-150862010D01*
X139627990Y-150938758D01*
X139627991Y-150938760D01*
X139688291Y-151029005D01*
X139729826Y-151129279D01*
X139751000Y-151235730D01*
X139751000Y-151344270D01*
X139729826Y-151450721D01*
X139688291Y-151550995D01*
X139688290Y-151550996D01*
X139627990Y-151641242D01*
X139551242Y-151717990D01*
X139505812Y-151748345D01*
X139460995Y-151778291D01*
X139385611Y-151809516D01*
X139364000Y-151821067D01*
X139345059Y-151836612D01*
X139329513Y-151855554D01*
X139317962Y-151877165D01*
X139310849Y-151900614D01*
X139308447Y-151925000D01*
X139310849Y-151949386D01*
X139317962Y-151972835D01*
X139329513Y-151994446D01*
X139345058Y-152013387D01*
X139364000Y-152028933D01*
X139385611Y-152040484D01*
X139460995Y-152071709D01*
X139460996Y-152071710D01*
X139551242Y-152132010D01*
X139627990Y-152208758D01*
X139627991Y-152208760D01*
X139688291Y-152299005D01*
X139729826Y-152399279D01*
X139751000Y-152505730D01*
X139751000Y-152614270D01*
X139729826Y-152720721D01*
X139688291Y-152820995D01*
X139688290Y-152820996D01*
X139627990Y-152911242D01*
X139551242Y-152987990D01*
X139505812Y-153018345D01*
X139460995Y-153048291D01*
X139385611Y-153079516D01*
X139364000Y-153091067D01*
X139345059Y-153106612D01*
X139329513Y-153125554D01*
X139317962Y-153147165D01*
X139310849Y-153170614D01*
X139308447Y-153195000D01*
X139310849Y-153219386D01*
X139317962Y-153242835D01*
X139329513Y-153264446D01*
X139345058Y-153283387D01*
X139364000Y-153298933D01*
X139385611Y-153310484D01*
X139460995Y-153341709D01*
X139460996Y-153341710D01*
X139551242Y-153402010D01*
X139627990Y-153478758D01*
X139627991Y-153478760D01*
X139688291Y-153569005D01*
X139729826Y-153669279D01*
X139751000Y-153775730D01*
X139751000Y-153884270D01*
X139729826Y-153990721D01*
X139688291Y-154090995D01*
X139688290Y-154090996D01*
X139627990Y-154181242D01*
X139551242Y-154257990D01*
X139505812Y-154288345D01*
X139460995Y-154318291D01*
X139360721Y-154359826D01*
X139254270Y-154381000D01*
X139145730Y-154381000D01*
X139039279Y-154359826D01*
X138939005Y-154318291D01*
X138894188Y-154288345D01*
X138848758Y-154257990D01*
X138772010Y-154181242D01*
X138711710Y-154090996D01*
X138711709Y-154090995D01*
X138680484Y-154015611D01*
X138668933Y-153994000D01*
X138653388Y-153975059D01*
X138634446Y-153959513D01*
X138612835Y-153947962D01*
X138589386Y-153940849D01*
X138565000Y-153938447D01*
X138540614Y-153940849D01*
X138517165Y-153947962D01*
X138495554Y-153959513D01*
X138476613Y-153975058D01*
X138461067Y-153994000D01*
X138449516Y-154015611D01*
X138418291Y-154090995D01*
X138418290Y-154090996D01*
X138357990Y-154181242D01*
X138281242Y-154257990D01*
X138235812Y-154288345D01*
X138190995Y-154318291D01*
X138090721Y-154359826D01*
X137984270Y-154381000D01*
X137875730Y-154381000D01*
X137769279Y-154359826D01*
X137669005Y-154318291D01*
X137624188Y-154288345D01*
X137578758Y-154257990D01*
X137502010Y-154181242D01*
X137441710Y-154090996D01*
X137441709Y-154090995D01*
X137400174Y-153990721D01*
X137379000Y-153884270D01*
X137379000Y-153775730D01*
X137400174Y-153669279D01*
X137441709Y-153569005D01*
X137502009Y-153478760D01*
X137502010Y-153478758D01*
X137578758Y-153402010D01*
X137669004Y-153341710D01*
X137669005Y-153341709D01*
X137744389Y-153310484D01*
X137766000Y-153298933D01*
X137784941Y-153283388D01*
X137800487Y-153264446D01*
X137812038Y-153242835D01*
X137819151Y-153219386D01*
X137821553Y-153195000D01*
X138038447Y-153195000D01*
X138040849Y-153219386D01*
X138047962Y-153242835D01*
X138059513Y-153264446D01*
X138075058Y-153283387D01*
X138094000Y-153298933D01*
X138115611Y-153310484D01*
X138190995Y-153341709D01*
X138190996Y-153341710D01*
X138281242Y-153402010D01*
X138357990Y-153478758D01*
X138357991Y-153478760D01*
X138418291Y-153569005D01*
X138449516Y-153644389D01*
X138461067Y-153666000D01*
X138476612Y-153684941D01*
X138495554Y-153700487D01*
X138517165Y-153712038D01*
X138540614Y-153719151D01*
X138565000Y-153721553D01*
X138589386Y-153719151D01*
X138612835Y-153712038D01*
X138634446Y-153700487D01*
X138653387Y-153684942D01*
X138668933Y-153666000D01*
X138680484Y-153644389D01*
X138711709Y-153569005D01*
X138772009Y-153478760D01*
X138772010Y-153478758D01*
X138848758Y-153402010D01*
X138939004Y-153341710D01*
X138939005Y-153341709D01*
X139014389Y-153310484D01*
X139036000Y-153298933D01*
X139054941Y-153283388D01*
X139070487Y-153264446D01*
X139082038Y-153242835D01*
X139089151Y-153219386D01*
X139091553Y-153195000D01*
X139089151Y-153170614D01*
X139082038Y-153147165D01*
X139070487Y-153125554D01*
X139054942Y-153106613D01*
X139036000Y-153091067D01*
X139014389Y-153079516D01*
X138939005Y-153048291D01*
X138894188Y-153018345D01*
X138848758Y-152987990D01*
X138772010Y-152911242D01*
X138711710Y-152820996D01*
X138711709Y-152820995D01*
X138680484Y-152745611D01*
X138668933Y-152724000D01*
X138653388Y-152705059D01*
X138634446Y-152689513D01*
X138612835Y-152677962D01*
X138589386Y-152670849D01*
X138565000Y-152668447D01*
X138540614Y-152670849D01*
X138517165Y-152677962D01*
X138495554Y-152689513D01*
X138476613Y-152705058D01*
X138461067Y-152724000D01*
X138449516Y-152745611D01*
X138418291Y-152820995D01*
X138418290Y-152820996D01*
X138357990Y-152911242D01*
X138281242Y-152987990D01*
X138235812Y-153018345D01*
X138190995Y-153048291D01*
X138115611Y-153079516D01*
X138094000Y-153091067D01*
X138075059Y-153106612D01*
X138059513Y-153125554D01*
X138047962Y-153147165D01*
X138040849Y-153170614D01*
X138038447Y-153195000D01*
X137821553Y-153195000D01*
X137819151Y-153170614D01*
X137812038Y-153147165D01*
X137800487Y-153125554D01*
X137784942Y-153106613D01*
X137766000Y-153091067D01*
X137744389Y-153079516D01*
X137669005Y-153048291D01*
X137624188Y-153018345D01*
X137578758Y-152987990D01*
X137502010Y-152911242D01*
X137441710Y-152820996D01*
X137441709Y-152820995D01*
X137400174Y-152720721D01*
X137379000Y-152614270D01*
X137379000Y-152505730D01*
X137400174Y-152399279D01*
X137441709Y-152299005D01*
X137502009Y-152208760D01*
X137502010Y-152208758D01*
X137578758Y-152132010D01*
X137669004Y-152071710D01*
X137669005Y-152071709D01*
X137744389Y-152040484D01*
X137766000Y-152028933D01*
X137784941Y-152013388D01*
X137800487Y-151994446D01*
X137812038Y-151972835D01*
X137819151Y-151949386D01*
X137821553Y-151925000D01*
X138038447Y-151925000D01*
X138040849Y-151949386D01*
X138047962Y-151972835D01*
X138059513Y-151994446D01*
X138075058Y-152013387D01*
X138094000Y-152028933D01*
X138115611Y-152040484D01*
X138190995Y-152071709D01*
X138190996Y-152071710D01*
X138281242Y-152132010D01*
X138357990Y-152208758D01*
X138357991Y-152208760D01*
X138418291Y-152299005D01*
X138449516Y-152374389D01*
X138461067Y-152396000D01*
X138476612Y-152414941D01*
X138495554Y-152430487D01*
X138517165Y-152442038D01*
X138540614Y-152449151D01*
X138565000Y-152451553D01*
X138589386Y-152449151D01*
X138612835Y-152442038D01*
X138634446Y-152430487D01*
X138653387Y-152414942D01*
X138668933Y-152396000D01*
X138680484Y-152374389D01*
X138711709Y-152299005D01*
X138772009Y-152208760D01*
X138772010Y-152208758D01*
X138848758Y-152132010D01*
X138939004Y-152071710D01*
X138939005Y-152071709D01*
X139014389Y-152040484D01*
X139036000Y-152028933D01*
X139054941Y-152013388D01*
X139070487Y-151994446D01*
X139082038Y-151972835D01*
X139089151Y-151949386D01*
X139091553Y-151925000D01*
X139089151Y-151900614D01*
X139082038Y-151877165D01*
X139070487Y-151855554D01*
X139054942Y-151836613D01*
X139036000Y-151821067D01*
X139014389Y-151809516D01*
X138939005Y-151778291D01*
X138894188Y-151748345D01*
X138848758Y-151717990D01*
X138772010Y-151641242D01*
X138711710Y-151550996D01*
X138711709Y-151550995D01*
X138680484Y-151475611D01*
X138668933Y-151454000D01*
X138653388Y-151435059D01*
X138634446Y-151419513D01*
X138612835Y-151407962D01*
X138589386Y-151400849D01*
X138565000Y-151398447D01*
X138540614Y-151400849D01*
X138517165Y-151407962D01*
X138495554Y-151419513D01*
X138476613Y-151435058D01*
X138461067Y-151454000D01*
X138449516Y-151475611D01*
X138418291Y-151550995D01*
X138418290Y-151550996D01*
X138357990Y-151641242D01*
X138281242Y-151717990D01*
X138235812Y-151748345D01*
X138190995Y-151778291D01*
X138115611Y-151809516D01*
X138094000Y-151821067D01*
X138075059Y-151836612D01*
X138059513Y-151855554D01*
X138047962Y-151877165D01*
X138040849Y-151900614D01*
X138038447Y-151925000D01*
X137821553Y-151925000D01*
X137819151Y-151900614D01*
X137812038Y-151877165D01*
X137800487Y-151855554D01*
X137784942Y-151836613D01*
X137766000Y-151821067D01*
X137744389Y-151809516D01*
X137669005Y-151778291D01*
X137624188Y-151748345D01*
X137578758Y-151717990D01*
X137502010Y-151641242D01*
X137441710Y-151550996D01*
X137441709Y-151550995D01*
X137400174Y-151450721D01*
X137379000Y-151344270D01*
X137379000Y-151235730D01*
X137400174Y-151129279D01*
X137441709Y-151029005D01*
X137502009Y-150938760D01*
X137502010Y-150938758D01*
X137578758Y-150862010D01*
X137669004Y-150801710D01*
X137669005Y-150801709D01*
X137744389Y-150770484D01*
X137766000Y-150758933D01*
X137784941Y-150743388D01*
X137800487Y-150724446D01*
X137812038Y-150702835D01*
X137819151Y-150679386D01*
X137821553Y-150655000D01*
X138038447Y-150655000D01*
X138040849Y-150679386D01*
X138047962Y-150702835D01*
X138059513Y-150724446D01*
X138075058Y-150743387D01*
X138094000Y-150758933D01*
X138115611Y-150770484D01*
X138190995Y-150801709D01*
X138190996Y-150801710D01*
X138281242Y-150862010D01*
X138357990Y-150938758D01*
X138357991Y-150938760D01*
X138418291Y-151029005D01*
X138449516Y-151104389D01*
X138461067Y-151126000D01*
X138476612Y-151144941D01*
X138495554Y-151160487D01*
X138517165Y-151172038D01*
X138540614Y-151179151D01*
X138565000Y-151181553D01*
X138589386Y-151179151D01*
X138612835Y-151172038D01*
X138634446Y-151160487D01*
X138653387Y-151144942D01*
X138668933Y-151126000D01*
X138680484Y-151104389D01*
X138711709Y-151029005D01*
X138772009Y-150938760D01*
X138772010Y-150938758D01*
X138848758Y-150862010D01*
X138939004Y-150801710D01*
X138939005Y-150801709D01*
X139014389Y-150770484D01*
X139036000Y-150758933D01*
X139054941Y-150743388D01*
X139070487Y-150724446D01*
X139082038Y-150702835D01*
X139089151Y-150679386D01*
X139091553Y-150655000D01*
X139089151Y-150630614D01*
X139082038Y-150607165D01*
X139070487Y-150585554D01*
X139054942Y-150566613D01*
X139036000Y-150551067D01*
X139014389Y-150539516D01*
X138939005Y-150508291D01*
X138894188Y-150478345D01*
X138848758Y-150447990D01*
X138772010Y-150371242D01*
X138711710Y-150280996D01*
X138711709Y-150280995D01*
X138680484Y-150205611D01*
X138668933Y-150184000D01*
X138653388Y-150165059D01*
X138634446Y-150149513D01*
X138612835Y-150137962D01*
X138589386Y-150130849D01*
X138565000Y-150128447D01*
X138540614Y-150130849D01*
X138517165Y-150137962D01*
X138495554Y-150149513D01*
X138476613Y-150165058D01*
X138461067Y-150184000D01*
X138449516Y-150205611D01*
X138418291Y-150280995D01*
X138418290Y-150280996D01*
X138357990Y-150371242D01*
X138281242Y-150447990D01*
X138235812Y-150478345D01*
X138190995Y-150508291D01*
X138115611Y-150539516D01*
X138094000Y-150551067D01*
X138075059Y-150566612D01*
X138059513Y-150585554D01*
X138047962Y-150607165D01*
X138040849Y-150630614D01*
X138038447Y-150655000D01*
X137821553Y-150655000D01*
X137819151Y-150630614D01*
X137812038Y-150607165D01*
X137800487Y-150585554D01*
X137784942Y-150566613D01*
X137766000Y-150551067D01*
X137744389Y-150539516D01*
X137669005Y-150508291D01*
X137624188Y-150478345D01*
X137578758Y-150447990D01*
X137502010Y-150371242D01*
X137441710Y-150280996D01*
X137441709Y-150280995D01*
X137400174Y-150180721D01*
X137379000Y-150074270D01*
X137379000Y-149965730D01*
X137400174Y-149859279D01*
X137441709Y-149759005D01*
X137502009Y-149668760D01*
X137502010Y-149668758D01*
X137578758Y-149592010D01*
X137669004Y-149531710D01*
X137669005Y-149531709D01*
X137744389Y-149500484D01*
X137766000Y-149488933D01*
X137784941Y-149473388D01*
X137800487Y-149454446D01*
X137812038Y-149432835D01*
X137819151Y-149409386D01*
X137821553Y-149385000D01*
X138038447Y-149385000D01*
X138040849Y-149409386D01*
X138047962Y-149432835D01*
X138059513Y-149454446D01*
X138075058Y-149473387D01*
X138094000Y-149488933D01*
X138115611Y-149500484D01*
X138190995Y-149531709D01*
X138190996Y-149531710D01*
X138281242Y-149592010D01*
X138357990Y-149668758D01*
X138357991Y-149668760D01*
X138418291Y-149759005D01*
X138449516Y-149834389D01*
X138461067Y-149856000D01*
X138476612Y-149874941D01*
X138495554Y-149890487D01*
X138517165Y-149902038D01*
X138540614Y-149909151D01*
X138565000Y-149911553D01*
X138589386Y-149909151D01*
X138612835Y-149902038D01*
X138634446Y-149890487D01*
X138653387Y-149874942D01*
X138668933Y-149856000D01*
X138680484Y-149834389D01*
X138711709Y-149759005D01*
X138772009Y-149668760D01*
X138772010Y-149668758D01*
X138848758Y-149592010D01*
X138939004Y-149531710D01*
X138939005Y-149531709D01*
X139014389Y-149500484D01*
X139036000Y-149488933D01*
X139054941Y-149473388D01*
X139070487Y-149454446D01*
X139082038Y-149432835D01*
X139089151Y-149409386D01*
X139091553Y-149385000D01*
X139089151Y-149360614D01*
X139082038Y-149337165D01*
X139070487Y-149315554D01*
X139054942Y-149296613D01*
X139036000Y-149281067D01*
X139014389Y-149269516D01*
X138939005Y-149238291D01*
X138894188Y-149208345D01*
X138848758Y-149177990D01*
X138772010Y-149101242D01*
X138711710Y-149010996D01*
X138711709Y-149010995D01*
X138680484Y-148935611D01*
X138668933Y-148914000D01*
X138653388Y-148895059D01*
X138634446Y-148879513D01*
X138612835Y-148867962D01*
X138589386Y-148860849D01*
X138565000Y-148858447D01*
X138540614Y-148860849D01*
X138517165Y-148867962D01*
X138495554Y-148879513D01*
X138476613Y-148895058D01*
X138461067Y-148914000D01*
X138449516Y-148935611D01*
X138418291Y-149010995D01*
X138418290Y-149010996D01*
X138357990Y-149101242D01*
X138281242Y-149177990D01*
X138235812Y-149208345D01*
X138190995Y-149238291D01*
X138115611Y-149269516D01*
X138094000Y-149281067D01*
X138075059Y-149296612D01*
X138059513Y-149315554D01*
X138047962Y-149337165D01*
X138040849Y-149360614D01*
X138038447Y-149385000D01*
X137821553Y-149385000D01*
X137819151Y-149360614D01*
X137812038Y-149337165D01*
X137800487Y-149315554D01*
X137784942Y-149296613D01*
X137766000Y-149281067D01*
X137744389Y-149269516D01*
X137669005Y-149238291D01*
X137624188Y-149208345D01*
X137578758Y-149177990D01*
X137502010Y-149101242D01*
X137441710Y-149010996D01*
X137441709Y-149010995D01*
X137400174Y-148910721D01*
X137379000Y-148804270D01*
X137379000Y-148695730D01*
X137400174Y-148589279D01*
X137441709Y-148489005D01*
X137502009Y-148398760D01*
X137502010Y-148398758D01*
X137578758Y-148322010D01*
X137669004Y-148261710D01*
X137669005Y-148261709D01*
X137744389Y-148230484D01*
X137766000Y-148218933D01*
X137784941Y-148203388D01*
X137800487Y-148184446D01*
X137812038Y-148162835D01*
X137819151Y-148139386D01*
X137821553Y-148115000D01*
X138038447Y-148115000D01*
X138040849Y-148139386D01*
X138047962Y-148162835D01*
X138059513Y-148184446D01*
X138075058Y-148203387D01*
X138094000Y-148218933D01*
X138115611Y-148230484D01*
X138190995Y-148261709D01*
X138190996Y-148261710D01*
X138281242Y-148322010D01*
X138357990Y-148398758D01*
X138357991Y-148398760D01*
X138418291Y-148489005D01*
X138449516Y-148564389D01*
X138461067Y-148586000D01*
X138476612Y-148604941D01*
X138495554Y-148620487D01*
X138517165Y-148632038D01*
X138540614Y-148639151D01*
X138565000Y-148641553D01*
X138589386Y-148639151D01*
X138612835Y-148632038D01*
X138634446Y-148620487D01*
X138653387Y-148604942D01*
X138668933Y-148586000D01*
X138680484Y-148564389D01*
X138711709Y-148489005D01*
X138772009Y-148398760D01*
X138772010Y-148398758D01*
X138848758Y-148322010D01*
X138939004Y-148261710D01*
X138939005Y-148261709D01*
X139014389Y-148230484D01*
X139036000Y-148218933D01*
X139054941Y-148203388D01*
X139070487Y-148184446D01*
X139082038Y-148162835D01*
X139089151Y-148139386D01*
X139091553Y-148115000D01*
X139089151Y-148090614D01*
X139082038Y-148067165D01*
X139070487Y-148045554D01*
X139054942Y-148026613D01*
X139036000Y-148011067D01*
X139014389Y-147999516D01*
X138939005Y-147968291D01*
X138894188Y-147938345D01*
X138848758Y-147907990D01*
X138772010Y-147831242D01*
X138711710Y-147740996D01*
X138711709Y-147740995D01*
X138680484Y-147665611D01*
X138668933Y-147644000D01*
X138653388Y-147625059D01*
X138634446Y-147609513D01*
X138612835Y-147597962D01*
X138589386Y-147590849D01*
X138565000Y-147588447D01*
X138540614Y-147590849D01*
X138517165Y-147597962D01*
X138495554Y-147609513D01*
X138476613Y-147625058D01*
X138461067Y-147644000D01*
X138449516Y-147665611D01*
X138418291Y-147740995D01*
X138418290Y-147740996D01*
X138357990Y-147831242D01*
X138281242Y-147907990D01*
X138235812Y-147938345D01*
X138190995Y-147968291D01*
X138115611Y-147999516D01*
X138094000Y-148011067D01*
X138075059Y-148026612D01*
X138059513Y-148045554D01*
X138047962Y-148067165D01*
X138040849Y-148090614D01*
X138038447Y-148115000D01*
X137821553Y-148115000D01*
X137819151Y-148090614D01*
X137812038Y-148067165D01*
X137800487Y-148045554D01*
X137784942Y-148026613D01*
X137766000Y-148011067D01*
X137744389Y-147999516D01*
X137669005Y-147968291D01*
X137624188Y-147938345D01*
X137578758Y-147907990D01*
X137502010Y-147831242D01*
X137441710Y-147740996D01*
X137441709Y-147740995D01*
X137400174Y-147640721D01*
X137379000Y-147534270D01*
X137379000Y-147425730D01*
X137400174Y-147319279D01*
X137441709Y-147219005D01*
X137502009Y-147128760D01*
X137502010Y-147128758D01*
X137578758Y-147052010D01*
X137669004Y-146991710D01*
X137669005Y-146991709D01*
X137744389Y-146960484D01*
X137766000Y-146948933D01*
X137784941Y-146933388D01*
X137800487Y-146914446D01*
X137812038Y-146892835D01*
X137819151Y-146869386D01*
X137821553Y-146845000D01*
X138038447Y-146845000D01*
X138040849Y-146869386D01*
X138047962Y-146892835D01*
X138059513Y-146914446D01*
X138075058Y-146933387D01*
X138094000Y-146948933D01*
X138115611Y-146960484D01*
X138190995Y-146991709D01*
X138190996Y-146991710D01*
X138281242Y-147052010D01*
X138357990Y-147128758D01*
X138357991Y-147128760D01*
X138418291Y-147219005D01*
X138449516Y-147294389D01*
X138461067Y-147316000D01*
X138476612Y-147334941D01*
X138495554Y-147350487D01*
X138517165Y-147362038D01*
X138540614Y-147369151D01*
X138565000Y-147371553D01*
X138589386Y-147369151D01*
X138612835Y-147362038D01*
X138634446Y-147350487D01*
X138653387Y-147334942D01*
X138668933Y-147316000D01*
X138680484Y-147294389D01*
X138711709Y-147219005D01*
X138772009Y-147128760D01*
X138772010Y-147128758D01*
X138848758Y-147052010D01*
X138939004Y-146991710D01*
X138939005Y-146991709D01*
X139014389Y-146960484D01*
X139036000Y-146948933D01*
X139054941Y-146933388D01*
X139070487Y-146914446D01*
X139082038Y-146892835D01*
X139089151Y-146869386D01*
X139091553Y-146845000D01*
X139089151Y-146820614D01*
X139082038Y-146797165D01*
X139070487Y-146775554D01*
X139054942Y-146756613D01*
X139036000Y-146741067D01*
X139014389Y-146729516D01*
X138939005Y-146698291D01*
X138894188Y-146668345D01*
X138848758Y-146637990D01*
X138772010Y-146561242D01*
X138711710Y-146470996D01*
X138711709Y-146470995D01*
X138680484Y-146395611D01*
X138668933Y-146374000D01*
X138653388Y-146355059D01*
X138634446Y-146339513D01*
X138612835Y-146327962D01*
X138589386Y-146320849D01*
X138565000Y-146318447D01*
X138540614Y-146320849D01*
X138517165Y-146327962D01*
X138495554Y-146339513D01*
X138476613Y-146355058D01*
X138461067Y-146374000D01*
X138449516Y-146395611D01*
X138418291Y-146470995D01*
X138418290Y-146470996D01*
X138357990Y-146561242D01*
X138281242Y-146637990D01*
X138235812Y-146668345D01*
X138190995Y-146698291D01*
X138115611Y-146729516D01*
X138094000Y-146741067D01*
X138075059Y-146756612D01*
X138059513Y-146775554D01*
X138047962Y-146797165D01*
X138040849Y-146820614D01*
X138038447Y-146845000D01*
X137821553Y-146845000D01*
X137819151Y-146820614D01*
X137812038Y-146797165D01*
X137800487Y-146775554D01*
X137784942Y-146756613D01*
X137766000Y-146741067D01*
X137744389Y-146729516D01*
X137669005Y-146698291D01*
X137624188Y-146668345D01*
X137578758Y-146637990D01*
X137502010Y-146561242D01*
X137441710Y-146470996D01*
X137441709Y-146470995D01*
X137400174Y-146370721D01*
X137379000Y-146264270D01*
X137379000Y-146155730D01*
X137400174Y-146049279D01*
X137441709Y-145949005D01*
X137502009Y-145858760D01*
X137502010Y-145858758D01*
X137578758Y-145782010D01*
X137669004Y-145721710D01*
X137669005Y-145721709D01*
X137744389Y-145690484D01*
X137766000Y-145678933D01*
X137784941Y-145663388D01*
X137800487Y-145644446D01*
X137812038Y-145622835D01*
X137819151Y-145599386D01*
X137821553Y-145575000D01*
X138038447Y-145575000D01*
X138040849Y-145599386D01*
X138047962Y-145622835D01*
X138059513Y-145644446D01*
X138075058Y-145663387D01*
X138094000Y-145678933D01*
X138115611Y-145690484D01*
X138190995Y-145721709D01*
X138190996Y-145721710D01*
X138281242Y-145782010D01*
X138357990Y-145858758D01*
X138357991Y-145858760D01*
X138418291Y-145949005D01*
X138449516Y-146024389D01*
X138461067Y-146046000D01*
X138476612Y-146064941D01*
X138495554Y-146080487D01*
X138517165Y-146092038D01*
X138540614Y-146099151D01*
X138565000Y-146101553D01*
X138589386Y-146099151D01*
X138612835Y-146092038D01*
X138634446Y-146080487D01*
X138653387Y-146064942D01*
X138668933Y-146046000D01*
X138680484Y-146024389D01*
X138711709Y-145949005D01*
X138772009Y-145858760D01*
X138772010Y-145858758D01*
X138848758Y-145782010D01*
X138939004Y-145721710D01*
X138939005Y-145721709D01*
X139014389Y-145690484D01*
X139036000Y-145678933D01*
X139054941Y-145663388D01*
X139070487Y-145644446D01*
X139082038Y-145622835D01*
X139089151Y-145599386D01*
X139091553Y-145575000D01*
X139089151Y-145550614D01*
X139082038Y-145527165D01*
X139070487Y-145505554D01*
X139054942Y-145486613D01*
X139036000Y-145471067D01*
X139014389Y-145459516D01*
X138939005Y-145428291D01*
X138894188Y-145398345D01*
X138848758Y-145367990D01*
X138772010Y-145291242D01*
X138711710Y-145200996D01*
X138711709Y-145200995D01*
X138680484Y-145125611D01*
X138668933Y-145104000D01*
X138653388Y-145085059D01*
X138634446Y-145069513D01*
X138612835Y-145057962D01*
X138589386Y-145050849D01*
X138565000Y-145048447D01*
X138540614Y-145050849D01*
X138517165Y-145057962D01*
X138495554Y-145069513D01*
X138476613Y-145085058D01*
X138461067Y-145104000D01*
X138449516Y-145125611D01*
X138418291Y-145200995D01*
X138418290Y-145200996D01*
X138357990Y-145291242D01*
X138281242Y-145367990D01*
X138235812Y-145398345D01*
X138190995Y-145428291D01*
X138115611Y-145459516D01*
X138094000Y-145471067D01*
X138075059Y-145486612D01*
X138059513Y-145505554D01*
X138047962Y-145527165D01*
X138040849Y-145550614D01*
X138038447Y-145575000D01*
X137821553Y-145575000D01*
X137819151Y-145550614D01*
X137812038Y-145527165D01*
X137800487Y-145505554D01*
X137784942Y-145486613D01*
X137766000Y-145471067D01*
X137744389Y-145459516D01*
X137669005Y-145428291D01*
X137624188Y-145398345D01*
X137578758Y-145367990D01*
X137502010Y-145291242D01*
X137441710Y-145200996D01*
X137441709Y-145200995D01*
X137400174Y-145100721D01*
X137379000Y-144994270D01*
X137379000Y-144885730D01*
X137400174Y-144779279D01*
X137441709Y-144679005D01*
X137502009Y-144588760D01*
X137502010Y-144588758D01*
X137578758Y-144512010D01*
X137669004Y-144451710D01*
X137669005Y-144451709D01*
X137744389Y-144420484D01*
X137766000Y-144408933D01*
X137784941Y-144393388D01*
X137800487Y-144374446D01*
X137812038Y-144352835D01*
X137819151Y-144329386D01*
X137821553Y-144305000D01*
X138038447Y-144305000D01*
X138040849Y-144329386D01*
X138047962Y-144352835D01*
X138059513Y-144374446D01*
X138075058Y-144393387D01*
X138094000Y-144408933D01*
X138115611Y-144420484D01*
X138190995Y-144451709D01*
X138190996Y-144451710D01*
X138281242Y-144512010D01*
X138357990Y-144588758D01*
X138357991Y-144588760D01*
X138418291Y-144679005D01*
X138449516Y-144754389D01*
X138461067Y-144776000D01*
X138476612Y-144794941D01*
X138495554Y-144810487D01*
X138517165Y-144822038D01*
X138540614Y-144829151D01*
X138565000Y-144831553D01*
X138589386Y-144829151D01*
X138612835Y-144822038D01*
X138634446Y-144810487D01*
X138653387Y-144794942D01*
X138668933Y-144776000D01*
X138680484Y-144754389D01*
X138711709Y-144679005D01*
X138772009Y-144588760D01*
X138772010Y-144588758D01*
X138848758Y-144512010D01*
X138939004Y-144451710D01*
X138939005Y-144451709D01*
X139014389Y-144420484D01*
X139036000Y-144408933D01*
X139054941Y-144393388D01*
X139070487Y-144374446D01*
X139082038Y-144352835D01*
X139089151Y-144329386D01*
X139091553Y-144305000D01*
X139089151Y-144280614D01*
X139082038Y-144257165D01*
X139070487Y-144235554D01*
X139054942Y-144216613D01*
X139036000Y-144201067D01*
X139014389Y-144189516D01*
X138939005Y-144158291D01*
X138853263Y-144101000D01*
X138848758Y-144097990D01*
X138772010Y-144021242D01*
X138711710Y-143930996D01*
X138711709Y-143930995D01*
X138680484Y-143855611D01*
X138668933Y-143834000D01*
X138653388Y-143815059D01*
X138634446Y-143799513D01*
X138612835Y-143787962D01*
X138589386Y-143780849D01*
X138565000Y-143778447D01*
X138540614Y-143780849D01*
X138517165Y-143787962D01*
X138495554Y-143799513D01*
X138476613Y-143815058D01*
X138461067Y-143834000D01*
X138449516Y-143855611D01*
X138418291Y-143930995D01*
X138418290Y-143930996D01*
X138357990Y-144021242D01*
X138281242Y-144097990D01*
X138276737Y-144101000D01*
X138190995Y-144158291D01*
X138115611Y-144189516D01*
X138094000Y-144201067D01*
X138075059Y-144216612D01*
X138059513Y-144235554D01*
X138047962Y-144257165D01*
X138040849Y-144280614D01*
X138038447Y-144305000D01*
X137821553Y-144305000D01*
X137819151Y-144280614D01*
X137812038Y-144257165D01*
X137800487Y-144235554D01*
X137784942Y-144216613D01*
X137766000Y-144201067D01*
X137744389Y-144189516D01*
X137669005Y-144158291D01*
X137583263Y-144101000D01*
X137578758Y-144097990D01*
X137502010Y-144021242D01*
X137441710Y-143930996D01*
X137441709Y-143930995D01*
X137400174Y-143830721D01*
X137379000Y-143724270D01*
X137379000Y-143615730D01*
X137400174Y-143509279D01*
X137441709Y-143409005D01*
X137502009Y-143318760D01*
X137502010Y-143318758D01*
X137578758Y-143242010D01*
X137669004Y-143181710D01*
X137669005Y-143181709D01*
X137744389Y-143150484D01*
X137766000Y-143138933D01*
X137784941Y-143123388D01*
X137800487Y-143104446D01*
X137812038Y-143082835D01*
X137819151Y-143059386D01*
X137821553Y-143035000D01*
X138038447Y-143035000D01*
X138040849Y-143059386D01*
X138047962Y-143082835D01*
X138059513Y-143104446D01*
X138075058Y-143123387D01*
X138094000Y-143138933D01*
X138115611Y-143150484D01*
X138190995Y-143181709D01*
X138190996Y-143181710D01*
X138281242Y-143242010D01*
X138357990Y-143318758D01*
X138357991Y-143318760D01*
X138418291Y-143409005D01*
X138449516Y-143484389D01*
X138461067Y-143506000D01*
X138476612Y-143524941D01*
X138495554Y-143540487D01*
X138517165Y-143552038D01*
X138540614Y-143559151D01*
X138565000Y-143561553D01*
X138589386Y-143559151D01*
X138612835Y-143552038D01*
X138634446Y-143540487D01*
X138653387Y-143524942D01*
X138668933Y-143506000D01*
X138680484Y-143484389D01*
X138711709Y-143409005D01*
X138772009Y-143318760D01*
X138772010Y-143318758D01*
X138848758Y-143242010D01*
X138880184Y-143221012D01*
X138941664Y-143179932D01*
X138960606Y-143164386D01*
X138976151Y-143145444D01*
X138987702Y-143123833D01*
X138994815Y-143100385D01*
X138997217Y-143075998D01*
X138994815Y-143051612D01*
X138987702Y-143028163D01*
X138976151Y-143006553D01*
X138960605Y-142987611D01*
X138941663Y-142972066D01*
X138920052Y-142960515D01*
X138896604Y-142953402D01*
X138872218Y-142951000D01*
X138649000Y-142951000D01*
X138649000Y-142727782D01*
X138646598Y-142703396D01*
X138639485Y-142679947D01*
X138627934Y-142658336D01*
X138612389Y-142639394D01*
X138593447Y-142623849D01*
X138571836Y-142612298D01*
X138548387Y-142605185D01*
X138524001Y-142602783D01*
X138499615Y-142605185D01*
X138476166Y-142612298D01*
X138454555Y-142623849D01*
X138435613Y-142639394D01*
X138420068Y-142658336D01*
X138378988Y-142719816D01*
X138357990Y-142751242D01*
X138281242Y-142827990D01*
X138235812Y-142858345D01*
X138190995Y-142888291D01*
X138115611Y-142919516D01*
X138094000Y-142931067D01*
X138075059Y-142946612D01*
X138059513Y-142965554D01*
X138047962Y-142987165D01*
X138040849Y-143010614D01*
X138038447Y-143035000D01*
X137821553Y-143035000D01*
X137819151Y-143010614D01*
X137812038Y-142987165D01*
X137800487Y-142965554D01*
X137784942Y-142946613D01*
X137766000Y-142931067D01*
X137744389Y-142919516D01*
X137669005Y-142888291D01*
X137624188Y-142858345D01*
X137578758Y-142827990D01*
X137502010Y-142751242D01*
X137470041Y-142703396D01*
X137441709Y-142660995D01*
X137400174Y-142560721D01*
X137379000Y-142454270D01*
X137379000Y-142345730D01*
X137400174Y-142239279D01*
X137441709Y-142139005D01*
X137502009Y-142048760D01*
X137502010Y-142048758D01*
X137578758Y-141972010D01*
X137669004Y-141911710D01*
X137669005Y-141911709D01*
X137769279Y-141870174D01*
X137875730Y-141849000D01*
X137984270Y-141849000D01*
X138090721Y-141870174D01*
G37*
G36*
X107590721Y-141870174D02*
G01*
X107690995Y-141911709D01*
X107690996Y-141911710D01*
X107781242Y-141972010D01*
X107857990Y-142048758D01*
X107857991Y-142048760D01*
X107920068Y-142141664D01*
X107935614Y-142160606D01*
X107954556Y-142176151D01*
X107976167Y-142187702D01*
X107999615Y-142194815D01*
X108024002Y-142197217D01*
X108048388Y-142194815D01*
X108071837Y-142187702D01*
X108093447Y-142176151D01*
X108112389Y-142160605D01*
X108127934Y-142141663D01*
X108139485Y-142120052D01*
X108146598Y-142096604D01*
X108149000Y-142072218D01*
X108149000Y-141849000D01*
X109251000Y-141849000D01*
X109251000Y-142951000D01*
X109027782Y-142951000D01*
X109003396Y-142953402D01*
X108979947Y-142960515D01*
X108958336Y-142972066D01*
X108939394Y-142987611D01*
X108923849Y-143006553D01*
X108912298Y-143028164D01*
X108905185Y-143051613D01*
X108902783Y-143075999D01*
X108905185Y-143100385D01*
X108912298Y-143123834D01*
X108923849Y-143145445D01*
X108939394Y-143164387D01*
X108958336Y-143179932D01*
X109019816Y-143221012D01*
X109051242Y-143242010D01*
X109127990Y-143318758D01*
X109127991Y-143318760D01*
X109188291Y-143409005D01*
X109229826Y-143509279D01*
X109251000Y-143615730D01*
X109251000Y-143724270D01*
X109229826Y-143830721D01*
X109188291Y-143930995D01*
X109188290Y-143930996D01*
X109127990Y-144021242D01*
X109051242Y-144097990D01*
X109046737Y-144101000D01*
X108960995Y-144158291D01*
X108885611Y-144189516D01*
X108864000Y-144201067D01*
X108845059Y-144216612D01*
X108829513Y-144235554D01*
X108817962Y-144257165D01*
X108810849Y-144280614D01*
X108808447Y-144305000D01*
X108810849Y-144329386D01*
X108817962Y-144352835D01*
X108829513Y-144374446D01*
X108845058Y-144393387D01*
X108864000Y-144408933D01*
X108885611Y-144420484D01*
X108960995Y-144451709D01*
X108960996Y-144451710D01*
X109051242Y-144512010D01*
X109127990Y-144588758D01*
X109127991Y-144588760D01*
X109188291Y-144679005D01*
X109229826Y-144779279D01*
X109251000Y-144885730D01*
X109251000Y-144994270D01*
X109229826Y-145100721D01*
X109188291Y-145200995D01*
X109188290Y-145200996D01*
X109127990Y-145291242D01*
X109051242Y-145367990D01*
X109005812Y-145398345D01*
X108960995Y-145428291D01*
X108885611Y-145459516D01*
X108864000Y-145471067D01*
X108845059Y-145486612D01*
X108829513Y-145505554D01*
X108817962Y-145527165D01*
X108810849Y-145550614D01*
X108808447Y-145575000D01*
X108810849Y-145599386D01*
X108817962Y-145622835D01*
X108829513Y-145644446D01*
X108845058Y-145663387D01*
X108864000Y-145678933D01*
X108885611Y-145690484D01*
X108960995Y-145721709D01*
X108960996Y-145721710D01*
X109051242Y-145782010D01*
X109127990Y-145858758D01*
X109127991Y-145858760D01*
X109188291Y-145949005D01*
X109229826Y-146049279D01*
X109251000Y-146155730D01*
X109251000Y-146264270D01*
X109229826Y-146370721D01*
X109188291Y-146470995D01*
X109188290Y-146470996D01*
X109127990Y-146561242D01*
X109051242Y-146637990D01*
X109005812Y-146668345D01*
X108960995Y-146698291D01*
X108885611Y-146729516D01*
X108864000Y-146741067D01*
X108845059Y-146756612D01*
X108829513Y-146775554D01*
X108817962Y-146797165D01*
X108810849Y-146820614D01*
X108808447Y-146845000D01*
X108810849Y-146869386D01*
X108817962Y-146892835D01*
X108829513Y-146914446D01*
X108845058Y-146933387D01*
X108864000Y-146948933D01*
X108885611Y-146960484D01*
X108960995Y-146991709D01*
X108960996Y-146991710D01*
X109051242Y-147052010D01*
X109127990Y-147128758D01*
X109127991Y-147128760D01*
X109188291Y-147219005D01*
X109229826Y-147319279D01*
X109251000Y-147425730D01*
X109251000Y-147534270D01*
X109229826Y-147640721D01*
X109188291Y-147740995D01*
X109188290Y-147740996D01*
X109127990Y-147831242D01*
X109051242Y-147907990D01*
X109005812Y-147938345D01*
X108960995Y-147968291D01*
X108885611Y-147999516D01*
X108864000Y-148011067D01*
X108845059Y-148026612D01*
X108829513Y-148045554D01*
X108817962Y-148067165D01*
X108810849Y-148090614D01*
X108808447Y-148115000D01*
X108810849Y-148139386D01*
X108817962Y-148162835D01*
X108829513Y-148184446D01*
X108845058Y-148203387D01*
X108864000Y-148218933D01*
X108885611Y-148230484D01*
X108960995Y-148261709D01*
X108960996Y-148261710D01*
X109051242Y-148322010D01*
X109127990Y-148398758D01*
X109127991Y-148398760D01*
X109188291Y-148489005D01*
X109229826Y-148589279D01*
X109251000Y-148695730D01*
X109251000Y-148804270D01*
X109229826Y-148910721D01*
X109188291Y-149010995D01*
X109188290Y-149010996D01*
X109127990Y-149101242D01*
X109051242Y-149177990D01*
X109005812Y-149208345D01*
X108960995Y-149238291D01*
X108885611Y-149269516D01*
X108864000Y-149281067D01*
X108845059Y-149296612D01*
X108829513Y-149315554D01*
X108817962Y-149337165D01*
X108810849Y-149360614D01*
X108808447Y-149385000D01*
X108810849Y-149409386D01*
X108817962Y-149432835D01*
X108829513Y-149454446D01*
X108845058Y-149473387D01*
X108864000Y-149488933D01*
X108885611Y-149500484D01*
X108960995Y-149531709D01*
X108960996Y-149531710D01*
X109051242Y-149592010D01*
X109127990Y-149668758D01*
X109127991Y-149668760D01*
X109188291Y-149759005D01*
X109229826Y-149859279D01*
X109251000Y-149965730D01*
X109251000Y-150074270D01*
X109229826Y-150180721D01*
X109188291Y-150280995D01*
X109188290Y-150280996D01*
X109127990Y-150371242D01*
X109051242Y-150447990D01*
X109005812Y-150478345D01*
X108960995Y-150508291D01*
X108885611Y-150539516D01*
X108864000Y-150551067D01*
X108845059Y-150566612D01*
X108829513Y-150585554D01*
X108817962Y-150607165D01*
X108810849Y-150630614D01*
X108808447Y-150655000D01*
X108810849Y-150679386D01*
X108817962Y-150702835D01*
X108829513Y-150724446D01*
X108845058Y-150743387D01*
X108864000Y-150758933D01*
X108885611Y-150770484D01*
X108960995Y-150801709D01*
X108960996Y-150801710D01*
X109051242Y-150862010D01*
X109127990Y-150938758D01*
X109127991Y-150938760D01*
X109188291Y-151029005D01*
X109229826Y-151129279D01*
X109251000Y-151235730D01*
X109251000Y-151344270D01*
X109229826Y-151450721D01*
X109188291Y-151550995D01*
X109188290Y-151550996D01*
X109127990Y-151641242D01*
X109051242Y-151717990D01*
X109005812Y-151748345D01*
X108960995Y-151778291D01*
X108885611Y-151809516D01*
X108864000Y-151821067D01*
X108845059Y-151836612D01*
X108829513Y-151855554D01*
X108817962Y-151877165D01*
X108810849Y-151900614D01*
X108808447Y-151925000D01*
X108810849Y-151949386D01*
X108817962Y-151972835D01*
X108829513Y-151994446D01*
X108845058Y-152013387D01*
X108864000Y-152028933D01*
X108885611Y-152040484D01*
X108960995Y-152071709D01*
X108960996Y-152071710D01*
X109051242Y-152132010D01*
X109127990Y-152208758D01*
X109127991Y-152208760D01*
X109188291Y-152299005D01*
X109229826Y-152399279D01*
X109251000Y-152505730D01*
X109251000Y-152614270D01*
X109229826Y-152720721D01*
X109188291Y-152820995D01*
X109188290Y-152820996D01*
X109127990Y-152911242D01*
X109051242Y-152987990D01*
X109005812Y-153018345D01*
X108960995Y-153048291D01*
X108885611Y-153079516D01*
X108864000Y-153091067D01*
X108845059Y-153106612D01*
X108829513Y-153125554D01*
X108817962Y-153147165D01*
X108810849Y-153170614D01*
X108808447Y-153195000D01*
X108810849Y-153219386D01*
X108817962Y-153242835D01*
X108829513Y-153264446D01*
X108845058Y-153283387D01*
X108864000Y-153298933D01*
X108885611Y-153310484D01*
X108960995Y-153341709D01*
X108960996Y-153341710D01*
X109051242Y-153402010D01*
X109127990Y-153478758D01*
X109127991Y-153478760D01*
X109188291Y-153569005D01*
X109229826Y-153669279D01*
X109251000Y-153775730D01*
X109251000Y-153884270D01*
X109229826Y-153990721D01*
X109188291Y-154090995D01*
X109188290Y-154090996D01*
X109127990Y-154181242D01*
X109051242Y-154257990D01*
X109005812Y-154288345D01*
X108960995Y-154318291D01*
X108860721Y-154359826D01*
X108754270Y-154381000D01*
X108645730Y-154381000D01*
X108539279Y-154359826D01*
X108439005Y-154318291D01*
X108394188Y-154288345D01*
X108348758Y-154257990D01*
X108272010Y-154181242D01*
X108211710Y-154090996D01*
X108211709Y-154090995D01*
X108180484Y-154015611D01*
X108168933Y-153994000D01*
X108153388Y-153975059D01*
X108134446Y-153959513D01*
X108112835Y-153947962D01*
X108089386Y-153940849D01*
X108065000Y-153938447D01*
X108040614Y-153940849D01*
X108017165Y-153947962D01*
X107995554Y-153959513D01*
X107976613Y-153975058D01*
X107961067Y-153994000D01*
X107949516Y-154015611D01*
X107918291Y-154090995D01*
X107918290Y-154090996D01*
X107857990Y-154181242D01*
X107781242Y-154257990D01*
X107735812Y-154288345D01*
X107690995Y-154318291D01*
X107590721Y-154359826D01*
X107484270Y-154381000D01*
X107375730Y-154381000D01*
X107269279Y-154359826D01*
X107169005Y-154318291D01*
X107124188Y-154288345D01*
X107078758Y-154257990D01*
X107002010Y-154181242D01*
X106941710Y-154090996D01*
X106941709Y-154090995D01*
X106900174Y-153990721D01*
X106879000Y-153884270D01*
X106879000Y-153775730D01*
X106900174Y-153669279D01*
X106941709Y-153569005D01*
X107002009Y-153478760D01*
X107002010Y-153478758D01*
X107078758Y-153402010D01*
X107169004Y-153341710D01*
X107169005Y-153341709D01*
X107244389Y-153310484D01*
X107266000Y-153298933D01*
X107284941Y-153283388D01*
X107300487Y-153264446D01*
X107312038Y-153242835D01*
X107319151Y-153219386D01*
X107321553Y-153195000D01*
X107538447Y-153195000D01*
X107540849Y-153219386D01*
X107547962Y-153242835D01*
X107559513Y-153264446D01*
X107575058Y-153283387D01*
X107594000Y-153298933D01*
X107615611Y-153310484D01*
X107690995Y-153341709D01*
X107690996Y-153341710D01*
X107781242Y-153402010D01*
X107857990Y-153478758D01*
X107857991Y-153478760D01*
X107918291Y-153569005D01*
X107949516Y-153644389D01*
X107961067Y-153666000D01*
X107976612Y-153684941D01*
X107995554Y-153700487D01*
X108017165Y-153712038D01*
X108040614Y-153719151D01*
X108065000Y-153721553D01*
X108089386Y-153719151D01*
X108112835Y-153712038D01*
X108134446Y-153700487D01*
X108153387Y-153684942D01*
X108168933Y-153666000D01*
X108180484Y-153644389D01*
X108211709Y-153569005D01*
X108272009Y-153478760D01*
X108272010Y-153478758D01*
X108348758Y-153402010D01*
X108439004Y-153341710D01*
X108439005Y-153341709D01*
X108514389Y-153310484D01*
X108536000Y-153298933D01*
X108554941Y-153283388D01*
X108570487Y-153264446D01*
X108582038Y-153242835D01*
X108589151Y-153219386D01*
X108591553Y-153195000D01*
X108589151Y-153170614D01*
X108582038Y-153147165D01*
X108570487Y-153125554D01*
X108554942Y-153106613D01*
X108536000Y-153091067D01*
X108514389Y-153079516D01*
X108439005Y-153048291D01*
X108394188Y-153018345D01*
X108348758Y-152987990D01*
X108272010Y-152911242D01*
X108211710Y-152820996D01*
X108211709Y-152820995D01*
X108180484Y-152745611D01*
X108168933Y-152724000D01*
X108153388Y-152705059D01*
X108134446Y-152689513D01*
X108112835Y-152677962D01*
X108089386Y-152670849D01*
X108065000Y-152668447D01*
X108040614Y-152670849D01*
X108017165Y-152677962D01*
X107995554Y-152689513D01*
X107976613Y-152705058D01*
X107961067Y-152724000D01*
X107949516Y-152745611D01*
X107918291Y-152820995D01*
X107918290Y-152820996D01*
X107857990Y-152911242D01*
X107781242Y-152987990D01*
X107735812Y-153018345D01*
X107690995Y-153048291D01*
X107615611Y-153079516D01*
X107594000Y-153091067D01*
X107575059Y-153106612D01*
X107559513Y-153125554D01*
X107547962Y-153147165D01*
X107540849Y-153170614D01*
X107538447Y-153195000D01*
X107321553Y-153195000D01*
X107319151Y-153170614D01*
X107312038Y-153147165D01*
X107300487Y-153125554D01*
X107284942Y-153106613D01*
X107266000Y-153091067D01*
X107244389Y-153079516D01*
X107169005Y-153048291D01*
X107124188Y-153018345D01*
X107078758Y-152987990D01*
X107002010Y-152911242D01*
X106941710Y-152820996D01*
X106941709Y-152820995D01*
X106900174Y-152720721D01*
X106879000Y-152614270D01*
X106879000Y-152505730D01*
X106900174Y-152399279D01*
X106941709Y-152299005D01*
X107002009Y-152208760D01*
X107002010Y-152208758D01*
X107078758Y-152132010D01*
X107169004Y-152071710D01*
X107169005Y-152071709D01*
X107244389Y-152040484D01*
X107266000Y-152028933D01*
X107284941Y-152013388D01*
X107300487Y-151994446D01*
X107312038Y-151972835D01*
X107319151Y-151949386D01*
X107321553Y-151925000D01*
X107538447Y-151925000D01*
X107540849Y-151949386D01*
X107547962Y-151972835D01*
X107559513Y-151994446D01*
X107575058Y-152013387D01*
X107594000Y-152028933D01*
X107615611Y-152040484D01*
X107690995Y-152071709D01*
X107690996Y-152071710D01*
X107781242Y-152132010D01*
X107857990Y-152208758D01*
X107857991Y-152208760D01*
X107918291Y-152299005D01*
X107949516Y-152374389D01*
X107961067Y-152396000D01*
X107976612Y-152414941D01*
X107995554Y-152430487D01*
X108017165Y-152442038D01*
X108040614Y-152449151D01*
X108065000Y-152451553D01*
X108089386Y-152449151D01*
X108112835Y-152442038D01*
X108134446Y-152430487D01*
X108153387Y-152414942D01*
X108168933Y-152396000D01*
X108180484Y-152374389D01*
X108211709Y-152299005D01*
X108272009Y-152208760D01*
X108272010Y-152208758D01*
X108348758Y-152132010D01*
X108439004Y-152071710D01*
X108439005Y-152071709D01*
X108514389Y-152040484D01*
X108536000Y-152028933D01*
X108554941Y-152013388D01*
X108570487Y-151994446D01*
X108582038Y-151972835D01*
X108589151Y-151949386D01*
X108591553Y-151925000D01*
X108589151Y-151900614D01*
X108582038Y-151877165D01*
X108570487Y-151855554D01*
X108554942Y-151836613D01*
X108536000Y-151821067D01*
X108514389Y-151809516D01*
X108439005Y-151778291D01*
X108394188Y-151748345D01*
X108348758Y-151717990D01*
X108272010Y-151641242D01*
X108211710Y-151550996D01*
X108211709Y-151550995D01*
X108180484Y-151475611D01*
X108168933Y-151454000D01*
X108153388Y-151435059D01*
X108134446Y-151419513D01*
X108112835Y-151407962D01*
X108089386Y-151400849D01*
X108065000Y-151398447D01*
X108040614Y-151400849D01*
X108017165Y-151407962D01*
X107995554Y-151419513D01*
X107976613Y-151435058D01*
X107961067Y-151454000D01*
X107949516Y-151475611D01*
X107918291Y-151550995D01*
X107918290Y-151550996D01*
X107857990Y-151641242D01*
X107781242Y-151717990D01*
X107735812Y-151748345D01*
X107690995Y-151778291D01*
X107615611Y-151809516D01*
X107594000Y-151821067D01*
X107575059Y-151836612D01*
X107559513Y-151855554D01*
X107547962Y-151877165D01*
X107540849Y-151900614D01*
X107538447Y-151925000D01*
X107321553Y-151925000D01*
X107319151Y-151900614D01*
X107312038Y-151877165D01*
X107300487Y-151855554D01*
X107284942Y-151836613D01*
X107266000Y-151821067D01*
X107244389Y-151809516D01*
X107169005Y-151778291D01*
X107124188Y-151748345D01*
X107078758Y-151717990D01*
X107002010Y-151641242D01*
X106941710Y-151550996D01*
X106941709Y-151550995D01*
X106900174Y-151450721D01*
X106879000Y-151344270D01*
X106879000Y-151235730D01*
X106900174Y-151129279D01*
X106941709Y-151029005D01*
X107002009Y-150938760D01*
X107002010Y-150938758D01*
X107078758Y-150862010D01*
X107169004Y-150801710D01*
X107169005Y-150801709D01*
X107244389Y-150770484D01*
X107266000Y-150758933D01*
X107284941Y-150743388D01*
X107300487Y-150724446D01*
X107312038Y-150702835D01*
X107319151Y-150679386D01*
X107321553Y-150655000D01*
X107538447Y-150655000D01*
X107540849Y-150679386D01*
X107547962Y-150702835D01*
X107559513Y-150724446D01*
X107575058Y-150743387D01*
X107594000Y-150758933D01*
X107615611Y-150770484D01*
X107690995Y-150801709D01*
X107690996Y-150801710D01*
X107781242Y-150862010D01*
X107857990Y-150938758D01*
X107857991Y-150938760D01*
X107918291Y-151029005D01*
X107949516Y-151104389D01*
X107961067Y-151126000D01*
X107976612Y-151144941D01*
X107995554Y-151160487D01*
X108017165Y-151172038D01*
X108040614Y-151179151D01*
X108065000Y-151181553D01*
X108089386Y-151179151D01*
X108112835Y-151172038D01*
X108134446Y-151160487D01*
X108153387Y-151144942D01*
X108168933Y-151126000D01*
X108180484Y-151104389D01*
X108211709Y-151029005D01*
X108272009Y-150938760D01*
X108272010Y-150938758D01*
X108348758Y-150862010D01*
X108439004Y-150801710D01*
X108439005Y-150801709D01*
X108514389Y-150770484D01*
X108536000Y-150758933D01*
X108554941Y-150743388D01*
X108570487Y-150724446D01*
X108582038Y-150702835D01*
X108589151Y-150679386D01*
X108591553Y-150655000D01*
X108589151Y-150630614D01*
X108582038Y-150607165D01*
X108570487Y-150585554D01*
X108554942Y-150566613D01*
X108536000Y-150551067D01*
X108514389Y-150539516D01*
X108439005Y-150508291D01*
X108394188Y-150478345D01*
X108348758Y-150447990D01*
X108272010Y-150371242D01*
X108211710Y-150280996D01*
X108211709Y-150280995D01*
X108180484Y-150205611D01*
X108168933Y-150184000D01*
X108153388Y-150165059D01*
X108134446Y-150149513D01*
X108112835Y-150137962D01*
X108089386Y-150130849D01*
X108065000Y-150128447D01*
X108040614Y-150130849D01*
X108017165Y-150137962D01*
X107995554Y-150149513D01*
X107976613Y-150165058D01*
X107961067Y-150184000D01*
X107949516Y-150205611D01*
X107918291Y-150280995D01*
X107918290Y-150280996D01*
X107857990Y-150371242D01*
X107781242Y-150447990D01*
X107735812Y-150478345D01*
X107690995Y-150508291D01*
X107615611Y-150539516D01*
X107594000Y-150551067D01*
X107575059Y-150566612D01*
X107559513Y-150585554D01*
X107547962Y-150607165D01*
X107540849Y-150630614D01*
X107538447Y-150655000D01*
X107321553Y-150655000D01*
X107319151Y-150630614D01*
X107312038Y-150607165D01*
X107300487Y-150585554D01*
X107284942Y-150566613D01*
X107266000Y-150551067D01*
X107244389Y-150539516D01*
X107169005Y-150508291D01*
X107124188Y-150478345D01*
X107078758Y-150447990D01*
X107002010Y-150371242D01*
X106941710Y-150280996D01*
X106941709Y-150280995D01*
X106900174Y-150180721D01*
X106879000Y-150074270D01*
X106879000Y-149965730D01*
X106900174Y-149859279D01*
X106941709Y-149759005D01*
X107002009Y-149668760D01*
X107002010Y-149668758D01*
X107078758Y-149592010D01*
X107169004Y-149531710D01*
X107169005Y-149531709D01*
X107244389Y-149500484D01*
X107266000Y-149488933D01*
X107284941Y-149473388D01*
X107300487Y-149454446D01*
X107312038Y-149432835D01*
X107319151Y-149409386D01*
X107321553Y-149385000D01*
X107538447Y-149385000D01*
X107540849Y-149409386D01*
X107547962Y-149432835D01*
X107559513Y-149454446D01*
X107575058Y-149473387D01*
X107594000Y-149488933D01*
X107615611Y-149500484D01*
X107690995Y-149531709D01*
X107690996Y-149531710D01*
X107781242Y-149592010D01*
X107857990Y-149668758D01*
X107857991Y-149668760D01*
X107918291Y-149759005D01*
X107949516Y-149834389D01*
X107961067Y-149856000D01*
X107976612Y-149874941D01*
X107995554Y-149890487D01*
X108017165Y-149902038D01*
X108040614Y-149909151D01*
X108065000Y-149911553D01*
X108089386Y-149909151D01*
X108112835Y-149902038D01*
X108134446Y-149890487D01*
X108153387Y-149874942D01*
X108168933Y-149856000D01*
X108180484Y-149834389D01*
X108211709Y-149759005D01*
X108272009Y-149668760D01*
X108272010Y-149668758D01*
X108348758Y-149592010D01*
X108439004Y-149531710D01*
X108439005Y-149531709D01*
X108514389Y-149500484D01*
X108536000Y-149488933D01*
X108554941Y-149473388D01*
X108570487Y-149454446D01*
X108582038Y-149432835D01*
X108589151Y-149409386D01*
X108591553Y-149385000D01*
X108589151Y-149360614D01*
X108582038Y-149337165D01*
X108570487Y-149315554D01*
X108554942Y-149296613D01*
X108536000Y-149281067D01*
X108514389Y-149269516D01*
X108439005Y-149238291D01*
X108394188Y-149208345D01*
X108348758Y-149177990D01*
X108272010Y-149101242D01*
X108211710Y-149010996D01*
X108211709Y-149010995D01*
X108180484Y-148935611D01*
X108168933Y-148914000D01*
X108153388Y-148895059D01*
X108134446Y-148879513D01*
X108112835Y-148867962D01*
X108089386Y-148860849D01*
X108065000Y-148858447D01*
X108040614Y-148860849D01*
X108017165Y-148867962D01*
X107995554Y-148879513D01*
X107976613Y-148895058D01*
X107961067Y-148914000D01*
X107949516Y-148935611D01*
X107918291Y-149010995D01*
X107918290Y-149010996D01*
X107857990Y-149101242D01*
X107781242Y-149177990D01*
X107735812Y-149208345D01*
X107690995Y-149238291D01*
X107615611Y-149269516D01*
X107594000Y-149281067D01*
X107575059Y-149296612D01*
X107559513Y-149315554D01*
X107547962Y-149337165D01*
X107540849Y-149360614D01*
X107538447Y-149385000D01*
X107321553Y-149385000D01*
X107319151Y-149360614D01*
X107312038Y-149337165D01*
X107300487Y-149315554D01*
X107284942Y-149296613D01*
X107266000Y-149281067D01*
X107244389Y-149269516D01*
X107169005Y-149238291D01*
X107124188Y-149208345D01*
X107078758Y-149177990D01*
X107002010Y-149101242D01*
X106941710Y-149010996D01*
X106941709Y-149010995D01*
X106900174Y-148910721D01*
X106879000Y-148804270D01*
X106879000Y-148695730D01*
X106900174Y-148589279D01*
X106941709Y-148489005D01*
X107002009Y-148398760D01*
X107002010Y-148398758D01*
X107078758Y-148322010D01*
X107169004Y-148261710D01*
X107169005Y-148261709D01*
X107244389Y-148230484D01*
X107266000Y-148218933D01*
X107284941Y-148203388D01*
X107300487Y-148184446D01*
X107312038Y-148162835D01*
X107319151Y-148139386D01*
X107321553Y-148115000D01*
X107538447Y-148115000D01*
X107540849Y-148139386D01*
X107547962Y-148162835D01*
X107559513Y-148184446D01*
X107575058Y-148203387D01*
X107594000Y-148218933D01*
X107615611Y-148230484D01*
X107690995Y-148261709D01*
X107690996Y-148261710D01*
X107781242Y-148322010D01*
X107857990Y-148398758D01*
X107857991Y-148398760D01*
X107918291Y-148489005D01*
X107949516Y-148564389D01*
X107961067Y-148586000D01*
X107976612Y-148604941D01*
X107995554Y-148620487D01*
X108017165Y-148632038D01*
X108040614Y-148639151D01*
X108065000Y-148641553D01*
X108089386Y-148639151D01*
X108112835Y-148632038D01*
X108134446Y-148620487D01*
X108153387Y-148604942D01*
X108168933Y-148586000D01*
X108180484Y-148564389D01*
X108211709Y-148489005D01*
X108272009Y-148398760D01*
X108272010Y-148398758D01*
X108348758Y-148322010D01*
X108439004Y-148261710D01*
X108439005Y-148261709D01*
X108514389Y-148230484D01*
X108536000Y-148218933D01*
X108554941Y-148203388D01*
X108570487Y-148184446D01*
X108582038Y-148162835D01*
X108589151Y-148139386D01*
X108591553Y-148115000D01*
X108589151Y-148090614D01*
X108582038Y-148067165D01*
X108570487Y-148045554D01*
X108554942Y-148026613D01*
X108536000Y-148011067D01*
X108514389Y-147999516D01*
X108439005Y-147968291D01*
X108394188Y-147938345D01*
X108348758Y-147907990D01*
X108272010Y-147831242D01*
X108211710Y-147740996D01*
X108211709Y-147740995D01*
X108180484Y-147665611D01*
X108168933Y-147644000D01*
X108153388Y-147625059D01*
X108134446Y-147609513D01*
X108112835Y-147597962D01*
X108089386Y-147590849D01*
X108065000Y-147588447D01*
X108040614Y-147590849D01*
X108017165Y-147597962D01*
X107995554Y-147609513D01*
X107976613Y-147625058D01*
X107961067Y-147644000D01*
X107949516Y-147665611D01*
X107918291Y-147740995D01*
X107918290Y-147740996D01*
X107857990Y-147831242D01*
X107781242Y-147907990D01*
X107735812Y-147938345D01*
X107690995Y-147968291D01*
X107615611Y-147999516D01*
X107594000Y-148011067D01*
X107575059Y-148026612D01*
X107559513Y-148045554D01*
X107547962Y-148067165D01*
X107540849Y-148090614D01*
X107538447Y-148115000D01*
X107321553Y-148115000D01*
X107319151Y-148090614D01*
X107312038Y-148067165D01*
X107300487Y-148045554D01*
X107284942Y-148026613D01*
X107266000Y-148011067D01*
X107244389Y-147999516D01*
X107169005Y-147968291D01*
X107124188Y-147938345D01*
X107078758Y-147907990D01*
X107002010Y-147831242D01*
X106941710Y-147740996D01*
X106941709Y-147740995D01*
X106900174Y-147640721D01*
X106879000Y-147534270D01*
X106879000Y-147425730D01*
X106900174Y-147319279D01*
X106941709Y-147219005D01*
X107002009Y-147128760D01*
X107002010Y-147128758D01*
X107078758Y-147052010D01*
X107169004Y-146991710D01*
X107169005Y-146991709D01*
X107244389Y-146960484D01*
X107266000Y-146948933D01*
X107284941Y-146933388D01*
X107300487Y-146914446D01*
X107312038Y-146892835D01*
X107319151Y-146869386D01*
X107321553Y-146845000D01*
X107538447Y-146845000D01*
X107540849Y-146869386D01*
X107547962Y-146892835D01*
X107559513Y-146914446D01*
X107575058Y-146933387D01*
X107594000Y-146948933D01*
X107615611Y-146960484D01*
X107690995Y-146991709D01*
X107690996Y-146991710D01*
X107781242Y-147052010D01*
X107857990Y-147128758D01*
X107857991Y-147128760D01*
X107918291Y-147219005D01*
X107949516Y-147294389D01*
X107961067Y-147316000D01*
X107976612Y-147334941D01*
X107995554Y-147350487D01*
X108017165Y-147362038D01*
X108040614Y-147369151D01*
X108065000Y-147371553D01*
X108089386Y-147369151D01*
X108112835Y-147362038D01*
X108134446Y-147350487D01*
X108153387Y-147334942D01*
X108168933Y-147316000D01*
X108180484Y-147294389D01*
X108211709Y-147219005D01*
X108272009Y-147128760D01*
X108272010Y-147128758D01*
X108348758Y-147052010D01*
X108439004Y-146991710D01*
X108439005Y-146991709D01*
X108514389Y-146960484D01*
X108536000Y-146948933D01*
X108554941Y-146933388D01*
X108570487Y-146914446D01*
X108582038Y-146892835D01*
X108589151Y-146869386D01*
X108591553Y-146845000D01*
X108589151Y-146820614D01*
X108582038Y-146797165D01*
X108570487Y-146775554D01*
X108554942Y-146756613D01*
X108536000Y-146741067D01*
X108514389Y-146729516D01*
X108439005Y-146698291D01*
X108394188Y-146668345D01*
X108348758Y-146637990D01*
X108272010Y-146561242D01*
X108211710Y-146470996D01*
X108211709Y-146470995D01*
X108180484Y-146395611D01*
X108168933Y-146374000D01*
X108153388Y-146355059D01*
X108134446Y-146339513D01*
X108112835Y-146327962D01*
X108089386Y-146320849D01*
X108065000Y-146318447D01*
X108040614Y-146320849D01*
X108017165Y-146327962D01*
X107995554Y-146339513D01*
X107976613Y-146355058D01*
X107961067Y-146374000D01*
X107949516Y-146395611D01*
X107918291Y-146470995D01*
X107918290Y-146470996D01*
X107857990Y-146561242D01*
X107781242Y-146637990D01*
X107735812Y-146668345D01*
X107690995Y-146698291D01*
X107615611Y-146729516D01*
X107594000Y-146741067D01*
X107575059Y-146756612D01*
X107559513Y-146775554D01*
X107547962Y-146797165D01*
X107540849Y-146820614D01*
X107538447Y-146845000D01*
X107321553Y-146845000D01*
X107319151Y-146820614D01*
X107312038Y-146797165D01*
X107300487Y-146775554D01*
X107284942Y-146756613D01*
X107266000Y-146741067D01*
X107244389Y-146729516D01*
X107169005Y-146698291D01*
X107124188Y-146668345D01*
X107078758Y-146637990D01*
X107002010Y-146561242D01*
X106941710Y-146470996D01*
X106941709Y-146470995D01*
X106900174Y-146370721D01*
X106879000Y-146264270D01*
X106879000Y-146155730D01*
X106900174Y-146049279D01*
X106941709Y-145949005D01*
X107002009Y-145858760D01*
X107002010Y-145858758D01*
X107078758Y-145782010D01*
X107169004Y-145721710D01*
X107169005Y-145721709D01*
X107244389Y-145690484D01*
X107266000Y-145678933D01*
X107284941Y-145663388D01*
X107300487Y-145644446D01*
X107312038Y-145622835D01*
X107319151Y-145599386D01*
X107321553Y-145575000D01*
X107538447Y-145575000D01*
X107540849Y-145599386D01*
X107547962Y-145622835D01*
X107559513Y-145644446D01*
X107575058Y-145663387D01*
X107594000Y-145678933D01*
X107615611Y-145690484D01*
X107690995Y-145721709D01*
X107690996Y-145721710D01*
X107781242Y-145782010D01*
X107857990Y-145858758D01*
X107857991Y-145858760D01*
X107918291Y-145949005D01*
X107949516Y-146024389D01*
X107961067Y-146046000D01*
X107976612Y-146064941D01*
X107995554Y-146080487D01*
X108017165Y-146092038D01*
X108040614Y-146099151D01*
X108065000Y-146101553D01*
X108089386Y-146099151D01*
X108112835Y-146092038D01*
X108134446Y-146080487D01*
X108153387Y-146064942D01*
X108168933Y-146046000D01*
X108180484Y-146024389D01*
X108211709Y-145949005D01*
X108272009Y-145858760D01*
X108272010Y-145858758D01*
X108348758Y-145782010D01*
X108439004Y-145721710D01*
X108439005Y-145721709D01*
X108514389Y-145690484D01*
X108536000Y-145678933D01*
X108554941Y-145663388D01*
X108570487Y-145644446D01*
X108582038Y-145622835D01*
X108589151Y-145599386D01*
X108591553Y-145575000D01*
X108589151Y-145550614D01*
X108582038Y-145527165D01*
X108570487Y-145505554D01*
X108554942Y-145486613D01*
X108536000Y-145471067D01*
X108514389Y-145459516D01*
X108439005Y-145428291D01*
X108394188Y-145398345D01*
X108348758Y-145367990D01*
X108272010Y-145291242D01*
X108211710Y-145200996D01*
X108211709Y-145200995D01*
X108180484Y-145125611D01*
X108168933Y-145104000D01*
X108153388Y-145085059D01*
X108134446Y-145069513D01*
X108112835Y-145057962D01*
X108089386Y-145050849D01*
X108065000Y-145048447D01*
X108040614Y-145050849D01*
X108017165Y-145057962D01*
X107995554Y-145069513D01*
X107976613Y-145085058D01*
X107961067Y-145104000D01*
X107949516Y-145125611D01*
X107918291Y-145200995D01*
X107918290Y-145200996D01*
X107857990Y-145291242D01*
X107781242Y-145367990D01*
X107735812Y-145398345D01*
X107690995Y-145428291D01*
X107615611Y-145459516D01*
X107594000Y-145471067D01*
X107575059Y-145486612D01*
X107559513Y-145505554D01*
X107547962Y-145527165D01*
X107540849Y-145550614D01*
X107538447Y-145575000D01*
X107321553Y-145575000D01*
X107319151Y-145550614D01*
X107312038Y-145527165D01*
X107300487Y-145505554D01*
X107284942Y-145486613D01*
X107266000Y-145471067D01*
X107244389Y-145459516D01*
X107169005Y-145428291D01*
X107124188Y-145398345D01*
X107078758Y-145367990D01*
X107002010Y-145291242D01*
X106941710Y-145200996D01*
X106941709Y-145200995D01*
X106900174Y-145100721D01*
X106879000Y-144994270D01*
X106879000Y-144885730D01*
X106900174Y-144779279D01*
X106941709Y-144679005D01*
X107002009Y-144588760D01*
X107002010Y-144588758D01*
X107078758Y-144512010D01*
X107169004Y-144451710D01*
X107169005Y-144451709D01*
X107244389Y-144420484D01*
X107266000Y-144408933D01*
X107284941Y-144393388D01*
X107300487Y-144374446D01*
X107312038Y-144352835D01*
X107319151Y-144329386D01*
X107321553Y-144305000D01*
X107538447Y-144305000D01*
X107540849Y-144329386D01*
X107547962Y-144352835D01*
X107559513Y-144374446D01*
X107575058Y-144393387D01*
X107594000Y-144408933D01*
X107615611Y-144420484D01*
X107690995Y-144451709D01*
X107690996Y-144451710D01*
X107781242Y-144512010D01*
X107857990Y-144588758D01*
X107857991Y-144588760D01*
X107918291Y-144679005D01*
X107949516Y-144754389D01*
X107961067Y-144776000D01*
X107976612Y-144794941D01*
X107995554Y-144810487D01*
X108017165Y-144822038D01*
X108040614Y-144829151D01*
X108065000Y-144831553D01*
X108089386Y-144829151D01*
X108112835Y-144822038D01*
X108134446Y-144810487D01*
X108153387Y-144794942D01*
X108168933Y-144776000D01*
X108180484Y-144754389D01*
X108211709Y-144679005D01*
X108272009Y-144588760D01*
X108272010Y-144588758D01*
X108348758Y-144512010D01*
X108439004Y-144451710D01*
X108439005Y-144451709D01*
X108514389Y-144420484D01*
X108536000Y-144408933D01*
X108554941Y-144393388D01*
X108570487Y-144374446D01*
X108582038Y-144352835D01*
X108589151Y-144329386D01*
X108591553Y-144305000D01*
X108589151Y-144280614D01*
X108582038Y-144257165D01*
X108570487Y-144235554D01*
X108554942Y-144216613D01*
X108536000Y-144201067D01*
X108514389Y-144189516D01*
X108439005Y-144158291D01*
X108353263Y-144101000D01*
X108348758Y-144097990D01*
X108272010Y-144021242D01*
X108211710Y-143930996D01*
X108211709Y-143930995D01*
X108180484Y-143855611D01*
X108168933Y-143834000D01*
X108153388Y-143815059D01*
X108134446Y-143799513D01*
X108112835Y-143787962D01*
X108089386Y-143780849D01*
X108065000Y-143778447D01*
X108040614Y-143780849D01*
X108017165Y-143787962D01*
X107995554Y-143799513D01*
X107976613Y-143815058D01*
X107961067Y-143834000D01*
X107949516Y-143855611D01*
X107918291Y-143930995D01*
X107918290Y-143930996D01*
X107857990Y-144021242D01*
X107781242Y-144097990D01*
X107776737Y-144101000D01*
X107690995Y-144158291D01*
X107615611Y-144189516D01*
X107594000Y-144201067D01*
X107575059Y-144216612D01*
X107559513Y-144235554D01*
X107547962Y-144257165D01*
X107540849Y-144280614D01*
X107538447Y-144305000D01*
X107321553Y-144305000D01*
X107319151Y-144280614D01*
X107312038Y-144257165D01*
X107300487Y-144235554D01*
X107284942Y-144216613D01*
X107266000Y-144201067D01*
X107244389Y-144189516D01*
X107169005Y-144158291D01*
X107083263Y-144101000D01*
X107078758Y-144097990D01*
X107002010Y-144021242D01*
X106941710Y-143930996D01*
X106941709Y-143930995D01*
X106900174Y-143830721D01*
X106879000Y-143724270D01*
X106879000Y-143615730D01*
X106900174Y-143509279D01*
X106941709Y-143409005D01*
X107002009Y-143318760D01*
X107002010Y-143318758D01*
X107078758Y-143242010D01*
X107169004Y-143181710D01*
X107169005Y-143181709D01*
X107244389Y-143150484D01*
X107266000Y-143138933D01*
X107284941Y-143123388D01*
X107300487Y-143104446D01*
X107312038Y-143082835D01*
X107319151Y-143059386D01*
X107321553Y-143035000D01*
X107538447Y-143035000D01*
X107540849Y-143059386D01*
X107547962Y-143082835D01*
X107559513Y-143104446D01*
X107575058Y-143123387D01*
X107594000Y-143138933D01*
X107615611Y-143150484D01*
X107690995Y-143181709D01*
X107690996Y-143181710D01*
X107781242Y-143242010D01*
X107857990Y-143318758D01*
X107857991Y-143318760D01*
X107918291Y-143409005D01*
X107949516Y-143484389D01*
X107961067Y-143506000D01*
X107976612Y-143524941D01*
X107995554Y-143540487D01*
X108017165Y-143552038D01*
X108040614Y-143559151D01*
X108065000Y-143561553D01*
X108089386Y-143559151D01*
X108112835Y-143552038D01*
X108134446Y-143540487D01*
X108153387Y-143524942D01*
X108168933Y-143506000D01*
X108180484Y-143484389D01*
X108211709Y-143409005D01*
X108272009Y-143318760D01*
X108272010Y-143318758D01*
X108348758Y-143242010D01*
X108380184Y-143221012D01*
X108441664Y-143179932D01*
X108460606Y-143164386D01*
X108476151Y-143145444D01*
X108487702Y-143123833D01*
X108494815Y-143100385D01*
X108497217Y-143075998D01*
X108494815Y-143051612D01*
X108487702Y-143028163D01*
X108476151Y-143006553D01*
X108460605Y-142987611D01*
X108441663Y-142972066D01*
X108420052Y-142960515D01*
X108396604Y-142953402D01*
X108372218Y-142951000D01*
X108149000Y-142951000D01*
X108149000Y-142727782D01*
X108146598Y-142703396D01*
X108139485Y-142679947D01*
X108127934Y-142658336D01*
X108112389Y-142639394D01*
X108093447Y-142623849D01*
X108071836Y-142612298D01*
X108048387Y-142605185D01*
X108024001Y-142602783D01*
X107999615Y-142605185D01*
X107976166Y-142612298D01*
X107954555Y-142623849D01*
X107935613Y-142639394D01*
X107920068Y-142658336D01*
X107878988Y-142719816D01*
X107857990Y-142751242D01*
X107781242Y-142827990D01*
X107735812Y-142858345D01*
X107690995Y-142888291D01*
X107615611Y-142919516D01*
X107594000Y-142931067D01*
X107575059Y-142946612D01*
X107559513Y-142965554D01*
X107547962Y-142987165D01*
X107540849Y-143010614D01*
X107538447Y-143035000D01*
X107321553Y-143035000D01*
X107319151Y-143010614D01*
X107312038Y-142987165D01*
X107300487Y-142965554D01*
X107284942Y-142946613D01*
X107266000Y-142931067D01*
X107244389Y-142919516D01*
X107169005Y-142888291D01*
X107124188Y-142858345D01*
X107078758Y-142827990D01*
X107002010Y-142751242D01*
X106970041Y-142703396D01*
X106941709Y-142660995D01*
X106900174Y-142560721D01*
X106879000Y-142454270D01*
X106879000Y-142345730D01*
X106900174Y-142239279D01*
X106941709Y-142139005D01*
X107002009Y-142048760D01*
X107002010Y-142048758D01*
X107078758Y-141972010D01*
X107169004Y-141911710D01*
X107169005Y-141911709D01*
X107269279Y-141870174D01*
X107375730Y-141849000D01*
X107484270Y-141849000D01*
X107590721Y-141870174D01*
G37*
G36*
X146228228Y-152371703D02*
G01*
X146383100Y-152435853D01*
X146522481Y-152528985D01*
X146641015Y-152647519D01*
X146734147Y-152786900D01*
X146798297Y-152941772D01*
X146831000Y-153106184D01*
X146831000Y-153273816D01*
X146798297Y-153438228D01*
X146734147Y-153593100D01*
X146641015Y-153732481D01*
X146522481Y-153851015D01*
X146383100Y-153944147D01*
X146228228Y-154008297D01*
X146063816Y-154041000D01*
X145896184Y-154041000D01*
X145731772Y-154008297D01*
X145576900Y-153944147D01*
X145437519Y-153851015D01*
X145318985Y-153732481D01*
X145225853Y-153593100D01*
X145161703Y-153438228D01*
X145129000Y-153273816D01*
X145129000Y-153106184D01*
X145161703Y-152941772D01*
X145225853Y-152786900D01*
X145318985Y-152647519D01*
X145437519Y-152528985D01*
X145576900Y-152435853D01*
X145731772Y-152371703D01*
X145896184Y-152339000D01*
X146063816Y-152339000D01*
X146228228Y-152371703D01*
G37*
G36*
X154953512Y-151503927D02*
G01*
X155102812Y-151533624D01*
X155266784Y-151601544D01*
X155414354Y-151700147D01*
X155539853Y-151825646D01*
X155638456Y-151973216D01*
X155706376Y-152137188D01*
X155741000Y-152311259D01*
X155741000Y-152488741D01*
X155706376Y-152662812D01*
X155638456Y-152826784D01*
X155539853Y-152974354D01*
X155414354Y-153099853D01*
X155266784Y-153198456D01*
X155102812Y-153266376D01*
X154953512Y-153296073D01*
X154928742Y-153301000D01*
X154751258Y-153301000D01*
X154726488Y-153296073D01*
X154577188Y-153266376D01*
X154413216Y-153198456D01*
X154265646Y-153099853D01*
X154140147Y-152974354D01*
X154041544Y-152826784D01*
X153973624Y-152662812D01*
X153939000Y-152488741D01*
X153939000Y-152311259D01*
X153973624Y-152137188D01*
X154041544Y-151973216D01*
X154140147Y-151825646D01*
X154265646Y-151700147D01*
X154413216Y-151601544D01*
X154577188Y-151533624D01*
X154726488Y-151503927D01*
X154751258Y-151499000D01*
X154928742Y-151499000D01*
X154953512Y-151503927D01*
G37*
G36*
X153201000Y-153301000D02*
G01*
X151399000Y-153301000D01*
X151399000Y-151499000D01*
X153201000Y-151499000D01*
X153201000Y-153301000D01*
G37*
G36*
X146228228Y-149831703D02*
G01*
X146383100Y-149895853D01*
X146522481Y-149988985D01*
X146641015Y-150107519D01*
X146734147Y-150246900D01*
X146798297Y-150401772D01*
X146831000Y-150566184D01*
X146831000Y-150733816D01*
X146798297Y-150898228D01*
X146734147Y-151053100D01*
X146641015Y-151192481D01*
X146522481Y-151311015D01*
X146383100Y-151404147D01*
X146228228Y-151468297D01*
X146063816Y-151501000D01*
X145896184Y-151501000D01*
X145731772Y-151468297D01*
X145576900Y-151404147D01*
X145437519Y-151311015D01*
X145318985Y-151192481D01*
X145225853Y-151053100D01*
X145161703Y-150898228D01*
X145129000Y-150733816D01*
X145129000Y-150566184D01*
X145161703Y-150401772D01*
X145225853Y-150246900D01*
X145318985Y-150107519D01*
X145437519Y-149988985D01*
X145576900Y-149895853D01*
X145731772Y-149831703D01*
X145896184Y-149799000D01*
X146063816Y-149799000D01*
X146228228Y-149831703D01*
G37*
G36*
X153848228Y-147291703D02*
G01*
X154003100Y-147355853D01*
X154142481Y-147448985D01*
X154261015Y-147567519D01*
X154354147Y-147706900D01*
X154418297Y-147861772D01*
X154451000Y-148026184D01*
X154451000Y-148193816D01*
X154418297Y-148358228D01*
X154354147Y-148513100D01*
X154261015Y-148652481D01*
X154142481Y-148771015D01*
X154003100Y-148864147D01*
X153848228Y-148928297D01*
X153683816Y-148961000D01*
X153516184Y-148961000D01*
X153351772Y-148928297D01*
X153196900Y-148864147D01*
X153057519Y-148771015D01*
X152938985Y-148652481D01*
X152845853Y-148513100D01*
X152781703Y-148358228D01*
X152749000Y-148193816D01*
X152749000Y-148026184D01*
X152781703Y-147861772D01*
X152845853Y-147706900D01*
X152938985Y-147567519D01*
X153057519Y-147448985D01*
X153196900Y-147355853D01*
X153351772Y-147291703D01*
X153516184Y-147259000D01*
X153683816Y-147259000D01*
X153848228Y-147291703D01*
G37*
G36*
X166548228Y-147291703D02*
G01*
X166703100Y-147355853D01*
X166842481Y-147448985D01*
X166961015Y-147567519D01*
X167054147Y-147706900D01*
X167118297Y-147861772D01*
X167151000Y-148026184D01*
X167151000Y-148193816D01*
X167118297Y-148358228D01*
X167054147Y-148513100D01*
X166961015Y-148652481D01*
X166842481Y-148771015D01*
X166703100Y-148864147D01*
X166548228Y-148928297D01*
X166383816Y-148961000D01*
X166216184Y-148961000D01*
X166051772Y-148928297D01*
X165896900Y-148864147D01*
X165757519Y-148771015D01*
X165638985Y-148652481D01*
X165545853Y-148513100D01*
X165481703Y-148358228D01*
X165449000Y-148193816D01*
X165449000Y-148026184D01*
X165481703Y-147861772D01*
X165545853Y-147706900D01*
X165638985Y-147567519D01*
X165757519Y-147448985D01*
X165896900Y-147355853D01*
X166051772Y-147291703D01*
X166216184Y-147259000D01*
X166383816Y-147259000D01*
X166548228Y-147291703D01*
G37*
G36*
X179851000Y-148961000D02*
G01*
X178149000Y-148961000D01*
X178149000Y-147259000D01*
X179851000Y-147259000D01*
X179851000Y-148961000D01*
G37*
G36*
X169088228Y-147291703D02*
G01*
X169243100Y-147355853D01*
X169382481Y-147448985D01*
X169501015Y-147567519D01*
X169594147Y-147706900D01*
X169658297Y-147861772D01*
X169691000Y-148026184D01*
X169691000Y-148193816D01*
X169658297Y-148358228D01*
X169594147Y-148513100D01*
X169501015Y-148652481D01*
X169382481Y-148771015D01*
X169243100Y-148864147D01*
X169088228Y-148928297D01*
X168923816Y-148961000D01*
X168756184Y-148961000D01*
X168591772Y-148928297D01*
X168436900Y-148864147D01*
X168297519Y-148771015D01*
X168178985Y-148652481D01*
X168085853Y-148513100D01*
X168021703Y-148358228D01*
X167989000Y-148193816D01*
X167989000Y-148026184D01*
X168021703Y-147861772D01*
X168085853Y-147706900D01*
X168178985Y-147567519D01*
X168297519Y-147448985D01*
X168436900Y-147355853D01*
X168591772Y-147291703D01*
X168756184Y-147259000D01*
X168923816Y-147259000D01*
X169088228Y-147291703D01*
G37*
G36*
X148768228Y-147291703D02*
G01*
X148923100Y-147355853D01*
X149062481Y-147448985D01*
X149181015Y-147567519D01*
X149274147Y-147706900D01*
X149338297Y-147861772D01*
X149371000Y-148026184D01*
X149371000Y-148193816D01*
X149338297Y-148358228D01*
X149274147Y-148513100D01*
X149181015Y-148652481D01*
X149062481Y-148771015D01*
X148923100Y-148864147D01*
X148768228Y-148928297D01*
X148603816Y-148961000D01*
X148436184Y-148961000D01*
X148271772Y-148928297D01*
X148116900Y-148864147D01*
X147977519Y-148771015D01*
X147858985Y-148652481D01*
X147765853Y-148513100D01*
X147701703Y-148358228D01*
X147669000Y-148193816D01*
X147669000Y-148026184D01*
X147701703Y-147861772D01*
X147765853Y-147706900D01*
X147858985Y-147567519D01*
X147977519Y-147448985D01*
X148116900Y-147355853D01*
X148271772Y-147291703D01*
X148436184Y-147259000D01*
X148603816Y-147259000D01*
X148768228Y-147291703D01*
G37*
G36*
X151308228Y-147291703D02*
G01*
X151463100Y-147355853D01*
X151602481Y-147448985D01*
X151721015Y-147567519D01*
X151814147Y-147706900D01*
X151878297Y-147861772D01*
X151911000Y-148026184D01*
X151911000Y-148193816D01*
X151878297Y-148358228D01*
X151814147Y-148513100D01*
X151721015Y-148652481D01*
X151602481Y-148771015D01*
X151463100Y-148864147D01*
X151308228Y-148928297D01*
X151143816Y-148961000D01*
X150976184Y-148961000D01*
X150811772Y-148928297D01*
X150656900Y-148864147D01*
X150517519Y-148771015D01*
X150398985Y-148652481D01*
X150305853Y-148513100D01*
X150241703Y-148358228D01*
X150209000Y-148193816D01*
X150209000Y-148026184D01*
X150241703Y-147861772D01*
X150305853Y-147706900D01*
X150398985Y-147567519D01*
X150517519Y-147448985D01*
X150656900Y-147355853D01*
X150811772Y-147291703D01*
X150976184Y-147259000D01*
X151143816Y-147259000D01*
X151308228Y-147291703D01*
G37*
G36*
X161468228Y-147291703D02*
G01*
X161623100Y-147355853D01*
X161762481Y-147448985D01*
X161881015Y-147567519D01*
X161974147Y-147706900D01*
X162038297Y-147861772D01*
X162071000Y-148026184D01*
X162071000Y-148193816D01*
X162038297Y-148358228D01*
X161974147Y-148513100D01*
X161881015Y-148652481D01*
X161762481Y-148771015D01*
X161623100Y-148864147D01*
X161468228Y-148928297D01*
X161303816Y-148961000D01*
X161136184Y-148961000D01*
X160971772Y-148928297D01*
X160816900Y-148864147D01*
X160677519Y-148771015D01*
X160558985Y-148652481D01*
X160465853Y-148513100D01*
X160401703Y-148358228D01*
X160369000Y-148193816D01*
X160369000Y-148026184D01*
X160401703Y-147861772D01*
X160465853Y-147706900D01*
X160558985Y-147567519D01*
X160677519Y-147448985D01*
X160816900Y-147355853D01*
X160971772Y-147291703D01*
X161136184Y-147259000D01*
X161303816Y-147259000D01*
X161468228Y-147291703D01*
G37*
G36*
X156388228Y-147291703D02*
G01*
X156543100Y-147355853D01*
X156682481Y-147448985D01*
X156801015Y-147567519D01*
X156894147Y-147706900D01*
X156958297Y-147861772D01*
X156991000Y-148026184D01*
X156991000Y-148193816D01*
X156958297Y-148358228D01*
X156894147Y-148513100D01*
X156801015Y-148652481D01*
X156682481Y-148771015D01*
X156543100Y-148864147D01*
X156388228Y-148928297D01*
X156223816Y-148961000D01*
X156056184Y-148961000D01*
X155891772Y-148928297D01*
X155736900Y-148864147D01*
X155597519Y-148771015D01*
X155478985Y-148652481D01*
X155385853Y-148513100D01*
X155321703Y-148358228D01*
X155289000Y-148193816D01*
X155289000Y-148026184D01*
X155321703Y-147861772D01*
X155385853Y-147706900D01*
X155478985Y-147567519D01*
X155597519Y-147448985D01*
X155736900Y-147355853D01*
X155891772Y-147291703D01*
X156056184Y-147259000D01*
X156223816Y-147259000D01*
X156388228Y-147291703D01*
G37*
G36*
X176708228Y-147291703D02*
G01*
X176863100Y-147355853D01*
X177002481Y-147448985D01*
X177121015Y-147567519D01*
X177214147Y-147706900D01*
X177278297Y-147861772D01*
X177311000Y-148026184D01*
X177311000Y-148193816D01*
X177278297Y-148358228D01*
X177214147Y-148513100D01*
X177121015Y-148652481D01*
X177002481Y-148771015D01*
X176863100Y-148864147D01*
X176708228Y-148928297D01*
X176543816Y-148961000D01*
X176376184Y-148961000D01*
X176211772Y-148928297D01*
X176056900Y-148864147D01*
X175917519Y-148771015D01*
X175798985Y-148652481D01*
X175705853Y-148513100D01*
X175641703Y-148358228D01*
X175609000Y-148193816D01*
X175609000Y-148026184D01*
X175641703Y-147861772D01*
X175705853Y-147706900D01*
X175798985Y-147567519D01*
X175917519Y-147448985D01*
X176056900Y-147355853D01*
X176211772Y-147291703D01*
X176376184Y-147259000D01*
X176543816Y-147259000D01*
X176708228Y-147291703D01*
G37*
G36*
X174168228Y-147291703D02*
G01*
X174323100Y-147355853D01*
X174462481Y-147448985D01*
X174581015Y-147567519D01*
X174674147Y-147706900D01*
X174738297Y-147861772D01*
X174771000Y-148026184D01*
X174771000Y-148193816D01*
X174738297Y-148358228D01*
X174674147Y-148513100D01*
X174581015Y-148652481D01*
X174462481Y-148771015D01*
X174323100Y-148864147D01*
X174168228Y-148928297D01*
X174003816Y-148961000D01*
X173836184Y-148961000D01*
X173671772Y-148928297D01*
X173516900Y-148864147D01*
X173377519Y-148771015D01*
X173258985Y-148652481D01*
X173165853Y-148513100D01*
X173101703Y-148358228D01*
X173069000Y-148193816D01*
X173069000Y-148026184D01*
X173101703Y-147861772D01*
X173165853Y-147706900D01*
X173258985Y-147567519D01*
X173377519Y-147448985D01*
X173516900Y-147355853D01*
X173671772Y-147291703D01*
X173836184Y-147259000D01*
X174003816Y-147259000D01*
X174168228Y-147291703D01*
G37*
G36*
X158928228Y-147291703D02*
G01*
X159083100Y-147355853D01*
X159222481Y-147448985D01*
X159341015Y-147567519D01*
X159434147Y-147706900D01*
X159498297Y-147861772D01*
X159531000Y-148026184D01*
X159531000Y-148193816D01*
X159498297Y-148358228D01*
X159434147Y-148513100D01*
X159341015Y-148652481D01*
X159222481Y-148771015D01*
X159083100Y-148864147D01*
X158928228Y-148928297D01*
X158763816Y-148961000D01*
X158596184Y-148961000D01*
X158431772Y-148928297D01*
X158276900Y-148864147D01*
X158137519Y-148771015D01*
X158018985Y-148652481D01*
X157925853Y-148513100D01*
X157861703Y-148358228D01*
X157829000Y-148193816D01*
X157829000Y-148026184D01*
X157861703Y-147861772D01*
X157925853Y-147706900D01*
X158018985Y-147567519D01*
X158137519Y-147448985D01*
X158276900Y-147355853D01*
X158431772Y-147291703D01*
X158596184Y-147259000D01*
X158763816Y-147259000D01*
X158928228Y-147291703D01*
G37*
G36*
X171628228Y-147291703D02*
G01*
X171783100Y-147355853D01*
X171922481Y-147448985D01*
X172041015Y-147567519D01*
X172134147Y-147706900D01*
X172198297Y-147861772D01*
X172231000Y-148026184D01*
X172231000Y-148193816D01*
X172198297Y-148358228D01*
X172134147Y-148513100D01*
X172041015Y-148652481D01*
X171922481Y-148771015D01*
X171783100Y-148864147D01*
X171628228Y-148928297D01*
X171463816Y-148961000D01*
X171296184Y-148961000D01*
X171131772Y-148928297D01*
X170976900Y-148864147D01*
X170837519Y-148771015D01*
X170718985Y-148652481D01*
X170625853Y-148513100D01*
X170561703Y-148358228D01*
X170529000Y-148193816D01*
X170529000Y-148026184D01*
X170561703Y-147861772D01*
X170625853Y-147706900D01*
X170718985Y-147567519D01*
X170837519Y-147448985D01*
X170976900Y-147355853D01*
X171131772Y-147291703D01*
X171296184Y-147259000D01*
X171463816Y-147259000D01*
X171628228Y-147291703D01*
G37*
G36*
X146228228Y-147291703D02*
G01*
X146383100Y-147355853D01*
X146522481Y-147448985D01*
X146641015Y-147567519D01*
X146734147Y-147706900D01*
X146798297Y-147861772D01*
X146831000Y-148026184D01*
X146831000Y-148193816D01*
X146798297Y-148358228D01*
X146734147Y-148513100D01*
X146641015Y-148652481D01*
X146522481Y-148771015D01*
X146383100Y-148864147D01*
X146228228Y-148928297D01*
X146063816Y-148961000D01*
X145896184Y-148961000D01*
X145731772Y-148928297D01*
X145576900Y-148864147D01*
X145437519Y-148771015D01*
X145318985Y-148652481D01*
X145225853Y-148513100D01*
X145161703Y-148358228D01*
X145129000Y-148193816D01*
X145129000Y-148026184D01*
X145161703Y-147861772D01*
X145225853Y-147706900D01*
X145318985Y-147567519D01*
X145437519Y-147448985D01*
X145576900Y-147355853D01*
X145731772Y-147291703D01*
X145896184Y-147259000D01*
X146063816Y-147259000D01*
X146228228Y-147291703D01*
G37*
G36*
X164008228Y-147291703D02*
G01*
X164163100Y-147355853D01*
X164302481Y-147448985D01*
X164421015Y-147567519D01*
X164514147Y-147706900D01*
X164578297Y-147861772D01*
X164611000Y-148026184D01*
X164611000Y-148193816D01*
X164578297Y-148358228D01*
X164514147Y-148513100D01*
X164421015Y-148652481D01*
X164302481Y-148771015D01*
X164163100Y-148864147D01*
X164008228Y-148928297D01*
X163843816Y-148961000D01*
X163676184Y-148961000D01*
X163511772Y-148928297D01*
X163356900Y-148864147D01*
X163217519Y-148771015D01*
X163098985Y-148652481D01*
X163005853Y-148513100D01*
X162941703Y-148358228D01*
X162909000Y-148193816D01*
X162909000Y-148026184D01*
X162941703Y-147861772D01*
X163005853Y-147706900D01*
X163098985Y-147567519D01*
X163217519Y-147448985D01*
X163356900Y-147355853D01*
X163511772Y-147291703D01*
X163676184Y-147259000D01*
X163843816Y-147259000D01*
X164008228Y-147291703D01*
G37*
G36*
X174801000Y-144701000D02*
G01*
X172999000Y-144701000D01*
X172999000Y-142899000D01*
X174801000Y-142899000D01*
X174801000Y-144701000D01*
G37*
G36*
X176553512Y-142903927D02*
G01*
X176702812Y-142933624D01*
X176866784Y-143001544D01*
X177014354Y-143100147D01*
X177139853Y-143225646D01*
X177238456Y-143373216D01*
X177306376Y-143537188D01*
X177341000Y-143711259D01*
X177341000Y-143888741D01*
X177306376Y-144062812D01*
X177238456Y-144226784D01*
X177139853Y-144374354D01*
X177014354Y-144499853D01*
X176866784Y-144598456D01*
X176702812Y-144666376D01*
X176553512Y-144696073D01*
X176528742Y-144701000D01*
X176351258Y-144701000D01*
X176326488Y-144696073D01*
X176177188Y-144666376D01*
X176013216Y-144598456D01*
X175865646Y-144499853D01*
X175740147Y-144374354D01*
X175641544Y-144226784D01*
X175573624Y-144062812D01*
X175539000Y-143888741D01*
X175539000Y-143711259D01*
X175573624Y-143537188D01*
X175641544Y-143373216D01*
X175740147Y-143225646D01*
X175865646Y-143100147D01*
X176013216Y-143001544D01*
X176177188Y-142933624D01*
X176326488Y-142903927D01*
X176351258Y-142899000D01*
X176528742Y-142899000D01*
X176553512Y-142903927D01*
G37*
G36*
X179093512Y-142903927D02*
G01*
X179242812Y-142933624D01*
X179406784Y-143001544D01*
X179554354Y-143100147D01*
X179679853Y-143225646D01*
X179778456Y-143373216D01*
X179846376Y-143537188D01*
X179881000Y-143711259D01*
X179881000Y-143888741D01*
X179846376Y-144062812D01*
X179778456Y-144226784D01*
X179679853Y-144374354D01*
X179554354Y-144499853D01*
X179406784Y-144598456D01*
X179242812Y-144666376D01*
X179093512Y-144696073D01*
X179068742Y-144701000D01*
X178891258Y-144701000D01*
X178866488Y-144696073D01*
X178717188Y-144666376D01*
X178553216Y-144598456D01*
X178405646Y-144499853D01*
X178280147Y-144374354D01*
X178181544Y-144226784D01*
X178113624Y-144062812D01*
X178079000Y-143888741D01*
X178079000Y-143711259D01*
X178113624Y-143537188D01*
X178181544Y-143373216D01*
X178280147Y-143225646D01*
X178405646Y-143100147D01*
X178553216Y-143001544D01*
X178717188Y-142933624D01*
X178866488Y-142903927D01*
X178891258Y-142899000D01*
X179068742Y-142899000D01*
X179093512Y-142903927D01*
G37*
G36*
X156253512Y-142303927D02*
G01*
X156402812Y-142333624D01*
X156566784Y-142401544D01*
X156714354Y-142500147D01*
X156839853Y-142625646D01*
X156938456Y-142773216D01*
X157006376Y-142937188D01*
X157041000Y-143111259D01*
X157041000Y-143288741D01*
X157006376Y-143462812D01*
X156938456Y-143626784D01*
X156839853Y-143774354D01*
X156714354Y-143899853D01*
X156566784Y-143998456D01*
X156402812Y-144066376D01*
X156253512Y-144096073D01*
X156228742Y-144101000D01*
X156051258Y-144101000D01*
X156026488Y-144096073D01*
X155877188Y-144066376D01*
X155713216Y-143998456D01*
X155565646Y-143899853D01*
X155440147Y-143774354D01*
X155341544Y-143626784D01*
X155273624Y-143462812D01*
X155239000Y-143288741D01*
X155239000Y-143111259D01*
X155273624Y-142937188D01*
X155341544Y-142773216D01*
X155440147Y-142625646D01*
X155565646Y-142500147D01*
X155713216Y-142401544D01*
X155877188Y-142333624D01*
X156026488Y-142303927D01*
X156051258Y-142299000D01*
X156228742Y-142299000D01*
X156253512Y-142303927D01*
G37*
G36*
X154501000Y-144101000D02*
G01*
X152699000Y-144101000D01*
X152699000Y-142299000D01*
X154501000Y-142299000D01*
X154501000Y-144101000D01*
G37*
G36*
X183237142Y-138518242D02*
G01*
X183385101Y-138579529D01*
X183518255Y-138668499D01*
X183631501Y-138781745D01*
X183720471Y-138914899D01*
X183781758Y-139062858D01*
X183813000Y-139219925D01*
X183813000Y-139380075D01*
X183781758Y-139537142D01*
X183720471Y-139685101D01*
X183631501Y-139818255D01*
X183518255Y-139931501D01*
X183385101Y-140020471D01*
X183237142Y-140081758D01*
X183080075Y-140113000D01*
X182919925Y-140113000D01*
X182762858Y-140081758D01*
X182614899Y-140020471D01*
X182481745Y-139931501D01*
X182368499Y-139818255D01*
X182279529Y-139685101D01*
X182218242Y-139537142D01*
X182187000Y-139380075D01*
X182187000Y-139219925D01*
X182218242Y-139062858D01*
X182279529Y-138914899D01*
X182368499Y-138781745D01*
X182481745Y-138668499D01*
X182614899Y-138579529D01*
X182762858Y-138518242D01*
X182919925Y-138487000D01*
X183080075Y-138487000D01*
X183237142Y-138518242D01*
G37*
G36*
X159637142Y-138518242D02*
G01*
X159785101Y-138579529D01*
X159918255Y-138668499D01*
X160031501Y-138781745D01*
X160120471Y-138914899D01*
X160181758Y-139062858D01*
X160213000Y-139219925D01*
X160213000Y-139380075D01*
X160181758Y-139537142D01*
X160120471Y-139685101D01*
X160031501Y-139818255D01*
X159918255Y-139931501D01*
X159785101Y-140020471D01*
X159637142Y-140081758D01*
X159480075Y-140113000D01*
X159319925Y-140113000D01*
X159162858Y-140081758D01*
X159014899Y-140020471D01*
X158881745Y-139931501D01*
X158768499Y-139818255D01*
X158679529Y-139685101D01*
X158618242Y-139537142D01*
X158587000Y-139380075D01*
X158587000Y-139219925D01*
X158618242Y-139062858D01*
X158679529Y-138914899D01*
X158768499Y-138781745D01*
X158881745Y-138668499D01*
X159014899Y-138579529D01*
X159162858Y-138518242D01*
X159319925Y-138487000D01*
X159480075Y-138487000D01*
X159637142Y-138518242D01*
G37*
G36*
X159587142Y-135978242D02*
G01*
X159735101Y-136039529D01*
X159868255Y-136128499D01*
X159981501Y-136241745D01*
X160070471Y-136374899D01*
X160131758Y-136522858D01*
X160163000Y-136679925D01*
X160163000Y-136840075D01*
X160131758Y-136997142D01*
X160070471Y-137145101D01*
X159981501Y-137278255D01*
X159868255Y-137391501D01*
X159735101Y-137480471D01*
X159587142Y-137541758D01*
X159430075Y-137573000D01*
X159269925Y-137573000D01*
X159112858Y-137541758D01*
X158964899Y-137480471D01*
X158831745Y-137391501D01*
X158718499Y-137278255D01*
X158629529Y-137145101D01*
X158568242Y-136997142D01*
X158537000Y-136840075D01*
X158537000Y-136679925D01*
X158568242Y-136522858D01*
X158629529Y-136374899D01*
X158718499Y-136241745D01*
X158831745Y-136128499D01*
X158964899Y-136039529D01*
X159112858Y-135978242D01*
X159269925Y-135947000D01*
X159430075Y-135947000D01*
X159587142Y-135978242D01*
G37*
G36*
X188813512Y-133383927D02*
G01*
X188962812Y-133413624D01*
X189126784Y-133481544D01*
X189274354Y-133580147D01*
X189399853Y-133705646D01*
X189498456Y-133853216D01*
X189566376Y-134017188D01*
X189601000Y-134191259D01*
X189601000Y-134368741D01*
X189566376Y-134542812D01*
X189498456Y-134706784D01*
X189399853Y-134854354D01*
X189274354Y-134979853D01*
X189126784Y-135078456D01*
X188962812Y-135146376D01*
X188813512Y-135176073D01*
X188788742Y-135181000D01*
X188611258Y-135181000D01*
X188586488Y-135176073D01*
X188437188Y-135146376D01*
X188273216Y-135078456D01*
X188125646Y-134979853D01*
X188000147Y-134854354D01*
X187901544Y-134706784D01*
X187833624Y-134542812D01*
X187799000Y-134368741D01*
X187799000Y-134191259D01*
X187833624Y-134017188D01*
X187901544Y-133853216D01*
X188000147Y-133705646D01*
X188125646Y-133580147D01*
X188273216Y-133481544D01*
X188437188Y-133413624D01*
X188586488Y-133383927D01*
X188611258Y-133379000D01*
X188788742Y-133379000D01*
X188813512Y-133383927D01*
G37*
G36*
X103001000Y-134501000D02*
G01*
X101199000Y-134501000D01*
X101199000Y-132699000D01*
X103001000Y-132699000D01*
X103001000Y-134501000D01*
G37*
G36*
X188813512Y-130843927D02*
G01*
X188962812Y-130873624D01*
X189126784Y-130941544D01*
X189274354Y-131040147D01*
X189399853Y-131165646D01*
X189498456Y-131313216D01*
X189566376Y-131477188D01*
X189596073Y-131626488D01*
X189597638Y-131634354D01*
X189601000Y-131651259D01*
X189601000Y-131828741D01*
X189566376Y-132002812D01*
X189498456Y-132166784D01*
X189399853Y-132314354D01*
X189274354Y-132439853D01*
X189126784Y-132538456D01*
X188962812Y-132606376D01*
X188813512Y-132636073D01*
X188788742Y-132641000D01*
X188611258Y-132641000D01*
X188586488Y-132636073D01*
X188437188Y-132606376D01*
X188273216Y-132538456D01*
X188125646Y-132439853D01*
X188000147Y-132314354D01*
X187901544Y-132166784D01*
X187833624Y-132002812D01*
X187799000Y-131828741D01*
X187799000Y-131651259D01*
X187802363Y-131634354D01*
X187803927Y-131626488D01*
X187833624Y-131477188D01*
X187901544Y-131313216D01*
X188000147Y-131165646D01*
X188125646Y-131040147D01*
X188273216Y-130941544D01*
X188437188Y-130873624D01*
X188586488Y-130843927D01*
X188611258Y-130839000D01*
X188788742Y-130839000D01*
X188813512Y-130843927D01*
G37*
G36*
X102213512Y-130163927D02*
G01*
X102362812Y-130193624D01*
X102526784Y-130261544D01*
X102674354Y-130360147D01*
X102799853Y-130485646D01*
X102898456Y-130633216D01*
X102966376Y-130797188D01*
X102995089Y-130941544D01*
X103001000Y-130971258D01*
X103001000Y-131148742D01*
X102997637Y-131165647D01*
X102966376Y-131322812D01*
X102898456Y-131486784D01*
X102799853Y-131634354D01*
X102674354Y-131759853D01*
X102526784Y-131858456D01*
X102362812Y-131926376D01*
X102213512Y-131956073D01*
X102188742Y-131961000D01*
X102011258Y-131961000D01*
X101986488Y-131956073D01*
X101837188Y-131926376D01*
X101673216Y-131858456D01*
X101525646Y-131759853D01*
X101400147Y-131634354D01*
X101301544Y-131486784D01*
X101233624Y-131322812D01*
X101202363Y-131165647D01*
X101199000Y-131148742D01*
X101199000Y-130971258D01*
X101204911Y-130941544D01*
X101233624Y-130797188D01*
X101301544Y-130633216D01*
X101400147Y-130485646D01*
X101525646Y-130360147D01*
X101673216Y-130261544D01*
X101837188Y-130193624D01*
X101986488Y-130163927D01*
X102011258Y-130159000D01*
X102188742Y-130159000D01*
X102213512Y-130163927D01*
G37*
G36*
X189601000Y-130101000D02*
G01*
X187799000Y-130101000D01*
X187799000Y-128299000D01*
X189601000Y-128299000D01*
X189601000Y-130101000D01*
G37*
G36*
X102213512Y-127623927D02*
G01*
X102362812Y-127653624D01*
X102526784Y-127721544D01*
X102674354Y-127820147D01*
X102799853Y-127945646D01*
X102898456Y-128093216D01*
X102966376Y-128257188D01*
X103001000Y-128431259D01*
X103001000Y-128608741D01*
X102966376Y-128782812D01*
X102898456Y-128946784D01*
X102799853Y-129094354D01*
X102674354Y-129219853D01*
X102526784Y-129318456D01*
X102362812Y-129386376D01*
X102213512Y-129416073D01*
X102188742Y-129421000D01*
X102011258Y-129421000D01*
X101986488Y-129416073D01*
X101837188Y-129386376D01*
X101673216Y-129318456D01*
X101525646Y-129219853D01*
X101400147Y-129094354D01*
X101301544Y-128946784D01*
X101233624Y-128782812D01*
X101199000Y-128608741D01*
X101199000Y-128431259D01*
X101233624Y-128257188D01*
X101301544Y-128093216D01*
X101400147Y-127945646D01*
X101525646Y-127820147D01*
X101673216Y-127721544D01*
X101837188Y-127653624D01*
X101986488Y-127623927D01*
X102011258Y-127619000D01*
X102188742Y-127619000D01*
X102213512Y-127623927D01*
G37*
G36*
X159637142Y-126458242D02*
G01*
X159785101Y-126519529D01*
X159918255Y-126608499D01*
X160031501Y-126721745D01*
X160120471Y-126854899D01*
X160181758Y-127002858D01*
X160213000Y-127159925D01*
X160213000Y-127320075D01*
X160181758Y-127477142D01*
X160120471Y-127625101D01*
X160031501Y-127758255D01*
X159918255Y-127871501D01*
X159785101Y-127960471D01*
X159637142Y-128021758D01*
X159480075Y-128053000D01*
X159319925Y-128053000D01*
X159162858Y-128021758D01*
X159014899Y-127960471D01*
X158881745Y-127871501D01*
X158768499Y-127758255D01*
X158679529Y-127625101D01*
X158618242Y-127477142D01*
X158587000Y-127320075D01*
X158587000Y-127159925D01*
X158618242Y-127002858D01*
X158679529Y-126854899D01*
X158768499Y-126721745D01*
X158881745Y-126608499D01*
X159014899Y-126519529D01*
X159162858Y-126458242D01*
X159319925Y-126427000D01*
X159480075Y-126427000D01*
X159637142Y-126458242D01*
G37*
G36*
X102213512Y-125083927D02*
G01*
X102362812Y-125113624D01*
X102526784Y-125181544D01*
X102674354Y-125280147D01*
X102799853Y-125405646D01*
X102898456Y-125553216D01*
X102966376Y-125717188D01*
X103001000Y-125891259D01*
X103001000Y-126068741D01*
X102966376Y-126242812D01*
X102898456Y-126406784D01*
X102799853Y-126554354D01*
X102674354Y-126679853D01*
X102526784Y-126778456D01*
X102362812Y-126846376D01*
X102213512Y-126876073D01*
X102188742Y-126881000D01*
X102011258Y-126881000D01*
X101986488Y-126876073D01*
X101837188Y-126846376D01*
X101673216Y-126778456D01*
X101525646Y-126679853D01*
X101400147Y-126554354D01*
X101301544Y-126406784D01*
X101233624Y-126242812D01*
X101199000Y-126068741D01*
X101199000Y-125891259D01*
X101233624Y-125717188D01*
X101301544Y-125553216D01*
X101400147Y-125405646D01*
X101525646Y-125280147D01*
X101673216Y-125181544D01*
X101837188Y-125113624D01*
X101986488Y-125083927D01*
X102011258Y-125079000D01*
X102188742Y-125079000D01*
X102213512Y-125083927D01*
G37*
G36*
X183237142Y-123918242D02*
G01*
X183385101Y-123979529D01*
X183518255Y-124068499D01*
X183631501Y-124181745D01*
X183720471Y-124314899D01*
X183781758Y-124462858D01*
X183813000Y-124619925D01*
X183813000Y-124780075D01*
X183781758Y-124937142D01*
X183720471Y-125085101D01*
X183631501Y-125218255D01*
X183518255Y-125331501D01*
X183385101Y-125420471D01*
X183237142Y-125481758D01*
X183080075Y-125513000D01*
X182919925Y-125513000D01*
X182762858Y-125481758D01*
X182614899Y-125420471D01*
X182481745Y-125331501D01*
X182368499Y-125218255D01*
X182279529Y-125085101D01*
X182218242Y-124937142D01*
X182187000Y-124780075D01*
X182187000Y-124619925D01*
X182218242Y-124462858D01*
X182279529Y-124314899D01*
X182368499Y-124181745D01*
X182481745Y-124068499D01*
X182614899Y-123979529D01*
X182762858Y-123918242D01*
X182919925Y-123887000D01*
X183080075Y-123887000D01*
X183237142Y-123918242D01*
G37*
G36*
X159637142Y-123918242D02*
G01*
X159785101Y-123979529D01*
X159918255Y-124068499D01*
X160031501Y-124181745D01*
X160120471Y-124314899D01*
X160181758Y-124462858D01*
X160213000Y-124619925D01*
X160213000Y-124780075D01*
X160181758Y-124937142D01*
X160120471Y-125085101D01*
X160031501Y-125218255D01*
X159918255Y-125331501D01*
X159785101Y-125420471D01*
X159637142Y-125481758D01*
X159480075Y-125513000D01*
X159319925Y-125513000D01*
X159162858Y-125481758D01*
X159014899Y-125420471D01*
X158881745Y-125331501D01*
X158768499Y-125218255D01*
X158679529Y-125085101D01*
X158618242Y-124937142D01*
X158587000Y-124780075D01*
X158587000Y-124619925D01*
X158618242Y-124462858D01*
X158679529Y-124314899D01*
X158768499Y-124181745D01*
X158881745Y-124068499D01*
X159014899Y-123979529D01*
X159162858Y-123918242D01*
X159319925Y-123887000D01*
X159480075Y-123887000D01*
X159637142Y-123918242D01*
G37*
G36*
X102213512Y-122543927D02*
G01*
X102362812Y-122573624D01*
X102526784Y-122641544D01*
X102674354Y-122740147D01*
X102799853Y-122865646D01*
X102898456Y-123013216D01*
X102966376Y-123177188D01*
X103001000Y-123351259D01*
X103001000Y-123528741D01*
X102966376Y-123702812D01*
X102898456Y-123866784D01*
X102799853Y-124014354D01*
X102674354Y-124139853D01*
X102526784Y-124238456D01*
X102362812Y-124306376D01*
X102213512Y-124336073D01*
X102188742Y-124341000D01*
X102011258Y-124341000D01*
X101986488Y-124336073D01*
X101837188Y-124306376D01*
X101673216Y-124238456D01*
X101525646Y-124139853D01*
X101400147Y-124014354D01*
X101301544Y-123866784D01*
X101233624Y-123702812D01*
X101199000Y-123528741D01*
X101199000Y-123351259D01*
X101233624Y-123177188D01*
X101301544Y-123013216D01*
X101400147Y-122865646D01*
X101525646Y-122740147D01*
X101673216Y-122641544D01*
X101837188Y-122573624D01*
X101986488Y-122543927D01*
X102011258Y-122539000D01*
X102188742Y-122539000D01*
X102213512Y-122543927D01*
G37*
G36*
X102213512Y-120003927D02*
G01*
X102362812Y-120033624D01*
X102526784Y-120101544D01*
X102674354Y-120200147D01*
X102799853Y-120325646D01*
X102898456Y-120473216D01*
X102966376Y-120637188D01*
X103001000Y-120811259D01*
X103001000Y-120988741D01*
X102966376Y-121162812D01*
X102898456Y-121326784D01*
X102799853Y-121474354D01*
X102674354Y-121599853D01*
X102526784Y-121698456D01*
X102362812Y-121766376D01*
X102213512Y-121796073D01*
X102188742Y-121801000D01*
X102011258Y-121801000D01*
X101986488Y-121796073D01*
X101837188Y-121766376D01*
X101673216Y-121698456D01*
X101525646Y-121599853D01*
X101400147Y-121474354D01*
X101301544Y-121326784D01*
X101233624Y-121162812D01*
X101199000Y-120988741D01*
X101199000Y-120811259D01*
X101233624Y-120637188D01*
X101301544Y-120473216D01*
X101400147Y-120325646D01*
X101525646Y-120200147D01*
X101673216Y-120101544D01*
X101837188Y-120033624D01*
X101986488Y-120003927D01*
X102011258Y-119999000D01*
X102188742Y-119999000D01*
X102213512Y-120003927D01*
G37*
G36*
X161977142Y-120108242D02*
G01*
X162125101Y-120169529D01*
X162258255Y-120258499D01*
X162371501Y-120371745D01*
X162460471Y-120504899D01*
X162521758Y-120652858D01*
X162553000Y-120809925D01*
X162553000Y-120970075D01*
X162521758Y-121127142D01*
X162460471Y-121275101D01*
X162371501Y-121408255D01*
X162258255Y-121521501D01*
X162125101Y-121610471D01*
X161977142Y-121671758D01*
X161820075Y-121703000D01*
X161659925Y-121703000D01*
X161502858Y-121671758D01*
X161354899Y-121610471D01*
X161221745Y-121521501D01*
X161108499Y-121408255D01*
X161019529Y-121275101D01*
X160958242Y-121127142D01*
X160927000Y-120970075D01*
X160927000Y-120809925D01*
X160958242Y-120652858D01*
X161019529Y-120504899D01*
X161108499Y-120371745D01*
X161221745Y-120258499D01*
X161354899Y-120169529D01*
X161502858Y-120108242D01*
X161659925Y-120077000D01*
X161820075Y-120077000D01*
X161977142Y-120108242D01*
G37*
G36*
X164517142Y-120108242D02*
G01*
X164665101Y-120169529D01*
X164798255Y-120258499D01*
X164911501Y-120371745D01*
X165000471Y-120504899D01*
X165061758Y-120652858D01*
X165093000Y-120809925D01*
X165093000Y-120970075D01*
X165061758Y-121127142D01*
X165000471Y-121275101D01*
X164911501Y-121408255D01*
X164798255Y-121521501D01*
X164665101Y-121610471D01*
X164517142Y-121671758D01*
X164360075Y-121703000D01*
X164199925Y-121703000D01*
X164042858Y-121671758D01*
X163894899Y-121610471D01*
X163761745Y-121521501D01*
X163648499Y-121408255D01*
X163559529Y-121275101D01*
X163498242Y-121127142D01*
X163467000Y-120970075D01*
X163467000Y-120809925D01*
X163498242Y-120652858D01*
X163559529Y-120504899D01*
X163648499Y-120371745D01*
X163761745Y-120258499D01*
X163894899Y-120169529D01*
X164042858Y-120108242D01*
X164199925Y-120077000D01*
X164360075Y-120077000D01*
X164517142Y-120108242D01*
G37*
G36*
X167057142Y-120108242D02*
G01*
X167205101Y-120169529D01*
X167338255Y-120258499D01*
X167451501Y-120371745D01*
X167540471Y-120504899D01*
X167601758Y-120652858D01*
X167633000Y-120809925D01*
X167633000Y-120970075D01*
X167601758Y-121127142D01*
X167540471Y-121275101D01*
X167451501Y-121408255D01*
X167338255Y-121521501D01*
X167205101Y-121610471D01*
X167057142Y-121671758D01*
X166900075Y-121703000D01*
X166739925Y-121703000D01*
X166582858Y-121671758D01*
X166434899Y-121610471D01*
X166301745Y-121521501D01*
X166188499Y-121408255D01*
X166099529Y-121275101D01*
X166038242Y-121127142D01*
X166007000Y-120970075D01*
X166007000Y-120809925D01*
X166038242Y-120652858D01*
X166099529Y-120504899D01*
X166188499Y-120371745D01*
X166301745Y-120258499D01*
X166434899Y-120169529D01*
X166582858Y-120108242D01*
X166739925Y-120077000D01*
X166900075Y-120077000D01*
X167057142Y-120108242D01*
G37*
G36*
X154933000Y-121703000D02*
G01*
X153307000Y-121703000D01*
X153307000Y-120077000D01*
X154933000Y-120077000D01*
X154933000Y-121703000D01*
G37*
G36*
X156897142Y-120108242D02*
G01*
X157045101Y-120169529D01*
X157178255Y-120258499D01*
X157291501Y-120371745D01*
X157380471Y-120504899D01*
X157441758Y-120652858D01*
X157473000Y-120809925D01*
X157473000Y-120970075D01*
X157441758Y-121127142D01*
X157380471Y-121275101D01*
X157291501Y-121408255D01*
X157178255Y-121521501D01*
X157045101Y-121610471D01*
X156897142Y-121671758D01*
X156740075Y-121703000D01*
X156579925Y-121703000D01*
X156422858Y-121671758D01*
X156274899Y-121610471D01*
X156141745Y-121521501D01*
X156028499Y-121408255D01*
X155939529Y-121275101D01*
X155878242Y-121127142D01*
X155847000Y-120970075D01*
X155847000Y-120809925D01*
X155878242Y-120652858D01*
X155939529Y-120504899D01*
X156028499Y-120371745D01*
X156141745Y-120258499D01*
X156274899Y-120169529D01*
X156422858Y-120108242D01*
X156579925Y-120077000D01*
X156740075Y-120077000D01*
X156897142Y-120108242D01*
G37*
G36*
X159437142Y-120108242D02*
G01*
X159585101Y-120169529D01*
X159718255Y-120258499D01*
X159831501Y-120371745D01*
X159920471Y-120504899D01*
X159981758Y-120652858D01*
X160013000Y-120809925D01*
X160013000Y-120970075D01*
X159981758Y-121127142D01*
X159920471Y-121275101D01*
X159831501Y-121408255D01*
X159718255Y-121521501D01*
X159585101Y-121610471D01*
X159437142Y-121671758D01*
X159280075Y-121703000D01*
X159119925Y-121703000D01*
X158962858Y-121671758D01*
X158814899Y-121610471D01*
X158681745Y-121521501D01*
X158568499Y-121408255D01*
X158479529Y-121275101D01*
X158418242Y-121127142D01*
X158387000Y-120970075D01*
X158387000Y-120809925D01*
X158418242Y-120652858D01*
X158479529Y-120504899D01*
X158568499Y-120371745D01*
X158681745Y-120258499D01*
X158814899Y-120169529D01*
X158962858Y-120108242D01*
X159119925Y-120077000D01*
X159280075Y-120077000D01*
X159437142Y-120108242D01*
G37*
G36*
X101853512Y-115783927D02*
G01*
X102002812Y-115813624D01*
X102166784Y-115881544D01*
X102314354Y-115980147D01*
X102439853Y-116105646D01*
X102538456Y-116253216D01*
X102606376Y-116417188D01*
X102641000Y-116591259D01*
X102641000Y-116768741D01*
X102606376Y-116942812D01*
X102538456Y-117106784D01*
X102439853Y-117254354D01*
X102314354Y-117379853D01*
X102166784Y-117478456D01*
X102002812Y-117546376D01*
X101853512Y-117576073D01*
X101828742Y-117581000D01*
X101651258Y-117581000D01*
X101626488Y-117576073D01*
X101477188Y-117546376D01*
X101313216Y-117478456D01*
X101165646Y-117379853D01*
X101040147Y-117254354D01*
X100941544Y-117106784D01*
X100873624Y-116942812D01*
X100839000Y-116768741D01*
X100839000Y-116591259D01*
X100873624Y-116417188D01*
X100941544Y-116253216D01*
X101040147Y-116105646D01*
X101165646Y-115980147D01*
X101313216Y-115881544D01*
X101477188Y-115813624D01*
X101626488Y-115783927D01*
X101651258Y-115779000D01*
X101828742Y-115779000D01*
X101853512Y-115783927D01*
G37*
G36*
X99313512Y-115783927D02*
G01*
X99462812Y-115813624D01*
X99626784Y-115881544D01*
X99774354Y-115980147D01*
X99899853Y-116105646D01*
X99998456Y-116253216D01*
X100066376Y-116417188D01*
X100101000Y-116591259D01*
X100101000Y-116768741D01*
X100066376Y-116942812D01*
X99998456Y-117106784D01*
X99899853Y-117254354D01*
X99774354Y-117379853D01*
X99626784Y-117478456D01*
X99462812Y-117546376D01*
X99313512Y-117576073D01*
X99288742Y-117581000D01*
X99111258Y-117581000D01*
X99086488Y-117576073D01*
X98937188Y-117546376D01*
X98773216Y-117478456D01*
X98625646Y-117379853D01*
X98500147Y-117254354D01*
X98401544Y-117106784D01*
X98333624Y-116942812D01*
X98299000Y-116768741D01*
X98299000Y-116591259D01*
X98333624Y-116417188D01*
X98401544Y-116253216D01*
X98500147Y-116105646D01*
X98625646Y-115980147D01*
X98773216Y-115881544D01*
X98937188Y-115813624D01*
X99086488Y-115783927D01*
X99111258Y-115779000D01*
X99288742Y-115779000D01*
X99313512Y-115783927D01*
G37*
G36*
X179509472Y-113808412D02*
G01*
X179605040Y-113817825D01*
X179850280Y-113892218D01*
X180076294Y-114013025D01*
X180085898Y-114020907D01*
X180274397Y-114175603D01*
X180394624Y-114322101D01*
X180436975Y-114373706D01*
X180557782Y-114599720D01*
X180632175Y-114844960D01*
X180657294Y-115100000D01*
X180632175Y-115355040D01*
X180557782Y-115600280D01*
X180436975Y-115826294D01*
X180394624Y-115877899D01*
X180274397Y-116024397D01*
X180127899Y-116144624D01*
X180076294Y-116186975D01*
X179850280Y-116307782D01*
X179605040Y-116382175D01*
X179509473Y-116391587D01*
X179413906Y-116401000D01*
X177986094Y-116401000D01*
X177890527Y-116391587D01*
X177794960Y-116382175D01*
X177549720Y-116307782D01*
X177323706Y-116186975D01*
X177272101Y-116144624D01*
X177125603Y-116024397D01*
X177005376Y-115877899D01*
X176963025Y-115826294D01*
X176842218Y-115600280D01*
X176767825Y-115355040D01*
X176742706Y-115100000D01*
X176767825Y-114844960D01*
X176842218Y-114599720D01*
X176963025Y-114373706D01*
X177005376Y-114322101D01*
X177125603Y-114175603D01*
X177314102Y-114020907D01*
X177323706Y-114013025D01*
X177549720Y-113892218D01*
X177794960Y-113817825D01*
X177890528Y-113808412D01*
X177986094Y-113799000D01*
X179413906Y-113799000D01*
X179509472Y-113808412D01*
G37*
G36*
X101853512Y-113243927D02*
G01*
X102002812Y-113273624D01*
X102166784Y-113341544D01*
X102314354Y-113440147D01*
X102439853Y-113565646D01*
X102538456Y-113713216D01*
X102606376Y-113877188D01*
X102634963Y-114020907D01*
X102640949Y-114051000D01*
X102641000Y-114051259D01*
X102641000Y-114228741D01*
X102606376Y-114402812D01*
X102538456Y-114566784D01*
X102439853Y-114714354D01*
X102314354Y-114839853D01*
X102166784Y-114938456D01*
X102002812Y-115006376D01*
X101853512Y-115036073D01*
X101828742Y-115041000D01*
X101651258Y-115041000D01*
X101626488Y-115036073D01*
X101477188Y-115006376D01*
X101313216Y-114938456D01*
X101165646Y-114839853D01*
X101040147Y-114714354D01*
X100941544Y-114566784D01*
X100873624Y-114402812D01*
X100839000Y-114228741D01*
X100839000Y-114051259D01*
X100839052Y-114051000D01*
X100845037Y-114020907D01*
X100873624Y-113877188D01*
X100941544Y-113713216D01*
X101040147Y-113565646D01*
X101165646Y-113440147D01*
X101313216Y-113341544D01*
X101477188Y-113273624D01*
X101626488Y-113243927D01*
X101651258Y-113239000D01*
X101828742Y-113239000D01*
X101853512Y-113243927D01*
G37*
G36*
X99313512Y-113243927D02*
G01*
X99462812Y-113273624D01*
X99626784Y-113341544D01*
X99774354Y-113440147D01*
X99899853Y-113565646D01*
X99998456Y-113713216D01*
X100066376Y-113877188D01*
X100094963Y-114020907D01*
X100100949Y-114051000D01*
X100101000Y-114051259D01*
X100101000Y-114228741D01*
X100066376Y-114402812D01*
X99998456Y-114566784D01*
X99899853Y-114714354D01*
X99774354Y-114839853D01*
X99626784Y-114938456D01*
X99462812Y-115006376D01*
X99313512Y-115036073D01*
X99288742Y-115041000D01*
X99111258Y-115041000D01*
X99086488Y-115036073D01*
X98937188Y-115006376D01*
X98773216Y-114938456D01*
X98625646Y-114839853D01*
X98500147Y-114714354D01*
X98401544Y-114566784D01*
X98333624Y-114402812D01*
X98299000Y-114228741D01*
X98299000Y-114051259D01*
X98299052Y-114051000D01*
X98305037Y-114020907D01*
X98333624Y-113877188D01*
X98401544Y-113713216D01*
X98500147Y-113565646D01*
X98625646Y-113440147D01*
X98773216Y-113341544D01*
X98937188Y-113273624D01*
X99086488Y-113243927D01*
X99111258Y-113239000D01*
X99288742Y-113239000D01*
X99313512Y-113243927D01*
G37*
G36*
X189238578Y-112257048D02*
G01*
X189311249Y-112279093D01*
X189378225Y-112314892D01*
X189436930Y-112363070D01*
X189485108Y-112421775D01*
X189520907Y-112488751D01*
X189542952Y-112561422D01*
X189551000Y-112643140D01*
X189551000Y-113656860D01*
X189542952Y-113738578D01*
X189520907Y-113811249D01*
X189485108Y-113878225D01*
X189436930Y-113936930D01*
X189378225Y-113985108D01*
X189311249Y-114020907D01*
X189238578Y-114042952D01*
X189156860Y-114051000D01*
X187843140Y-114051000D01*
X187761422Y-114042952D01*
X187688751Y-114020907D01*
X187621775Y-113985108D01*
X187563070Y-113936930D01*
X187514892Y-113878225D01*
X187479093Y-113811249D01*
X187457048Y-113738578D01*
X187449000Y-113656860D01*
X187449000Y-112643140D01*
X187457048Y-112561422D01*
X187479093Y-112488751D01*
X187514892Y-112421775D01*
X187563070Y-112363070D01*
X187621775Y-112314892D01*
X187688751Y-112279093D01*
X187761422Y-112257048D01*
X187843140Y-112249000D01*
X189156860Y-112249000D01*
X189238578Y-112257048D01*
G37*
G36*
X100101000Y-112501000D02*
G01*
X98299000Y-112501000D01*
X98299000Y-110699000D01*
X100101000Y-110699000D01*
X100101000Y-112501000D01*
G37*
G36*
X101853512Y-110703927D02*
G01*
X102002812Y-110733624D01*
X102166784Y-110801544D01*
X102314354Y-110900147D01*
X102439853Y-111025646D01*
X102538456Y-111173216D01*
X102606376Y-111337188D01*
X102641000Y-111511259D01*
X102641000Y-111688741D01*
X102606376Y-111862812D01*
X102538456Y-112026784D01*
X102439853Y-112174354D01*
X102314354Y-112299853D01*
X102166784Y-112398456D01*
X102002812Y-112466376D01*
X101853512Y-112496073D01*
X101828742Y-112501000D01*
X101651258Y-112501000D01*
X101626488Y-112496073D01*
X101477188Y-112466376D01*
X101313216Y-112398456D01*
X101165646Y-112299853D01*
X101040147Y-112174354D01*
X100941544Y-112026784D01*
X100873624Y-111862812D01*
X100839000Y-111688741D01*
X100839000Y-111511259D01*
X100873624Y-111337188D01*
X100941544Y-111173216D01*
X101040147Y-111025646D01*
X101165646Y-110900147D01*
X101313216Y-110801544D01*
X101477188Y-110733624D01*
X101626488Y-110703927D01*
X101651258Y-110699000D01*
X101828742Y-110699000D01*
X101853512Y-110703927D01*
G37*
G36*
X179509473Y-109108413D02*
G01*
X179605040Y-109117825D01*
X179850280Y-109192218D01*
X180076294Y-109313025D01*
X180127899Y-109355376D01*
X180274397Y-109475603D01*
X180394624Y-109622101D01*
X180436975Y-109673706D01*
X180557782Y-109899720D01*
X180632175Y-110144960D01*
X180657294Y-110400000D01*
X180632175Y-110655040D01*
X180557782Y-110900280D01*
X180436975Y-111126294D01*
X180415067Y-111152989D01*
X180274397Y-111324397D01*
X180178887Y-111402779D01*
X180076294Y-111486975D01*
X179850280Y-111607782D01*
X179605040Y-111682175D01*
X179509472Y-111691588D01*
X179413906Y-111701000D01*
X177986094Y-111701000D01*
X177890528Y-111691588D01*
X177794960Y-111682175D01*
X177549720Y-111607782D01*
X177323706Y-111486975D01*
X177221113Y-111402779D01*
X177125603Y-111324397D01*
X176984933Y-111152989D01*
X176963025Y-111126294D01*
X176842218Y-110900280D01*
X176767825Y-110655040D01*
X176742706Y-110400000D01*
X176767825Y-110144960D01*
X176842218Y-109899720D01*
X176963025Y-109673706D01*
X177005376Y-109622101D01*
X177125603Y-109475603D01*
X177272101Y-109355376D01*
X177323706Y-109313025D01*
X177549720Y-109192218D01*
X177794960Y-109117825D01*
X177890527Y-109108413D01*
X177986094Y-109099000D01*
X179413906Y-109099000D01*
X179509473Y-109108413D01*
G37*
G36*
X188760443Y-109755519D02*
G01*
X188826627Y-109762037D01*
X188996466Y-109813557D01*
X189152991Y-109897222D01*
X189188729Y-109926552D01*
X189290186Y-110009814D01*
X189373448Y-110111271D01*
X189402778Y-110147009D01*
X189486443Y-110303534D01*
X189537963Y-110473373D01*
X189555359Y-110650000D01*
X189537963Y-110826627D01*
X189486443Y-110996466D01*
X189402778Y-111152991D01*
X189386178Y-111173218D01*
X189290186Y-111290186D01*
X189188729Y-111373448D01*
X189152991Y-111402778D01*
X188996466Y-111486443D01*
X188826627Y-111537963D01*
X188760443Y-111544481D01*
X188694260Y-111551000D01*
X188305740Y-111551000D01*
X188239557Y-111544481D01*
X188173373Y-111537963D01*
X188003534Y-111486443D01*
X187847009Y-111402778D01*
X187811271Y-111373448D01*
X187709814Y-111290186D01*
X187613822Y-111173218D01*
X187597222Y-111152991D01*
X187513557Y-110996466D01*
X187462037Y-110826627D01*
X187444641Y-110650000D01*
X187462037Y-110473373D01*
X187513557Y-110303534D01*
X187597222Y-110147009D01*
X187626552Y-110111271D01*
X187709814Y-110009814D01*
X187811271Y-109926552D01*
X187847009Y-109897222D01*
X188003534Y-109813557D01*
X188173373Y-109762037D01*
X188239557Y-109755519D01*
X188305740Y-109749000D01*
X188694260Y-109749000D01*
X188760443Y-109755519D01*
G37*
G36*
X179509472Y-104408412D02*
G01*
X179605040Y-104417825D01*
X179850280Y-104492218D01*
X180076294Y-104613025D01*
X180127899Y-104655376D01*
X180274397Y-104775603D01*
X180394624Y-104922101D01*
X180436975Y-104973706D01*
X180557782Y-105199720D01*
X180632175Y-105444960D01*
X180657294Y-105700000D01*
X180632175Y-105955040D01*
X180557782Y-106200280D01*
X180436975Y-106426294D01*
X180394624Y-106477899D01*
X180274397Y-106624397D01*
X180127899Y-106744624D01*
X180076294Y-106786975D01*
X179850280Y-106907782D01*
X179605040Y-106982175D01*
X179509473Y-106991587D01*
X179413906Y-107001000D01*
X177986094Y-107001000D01*
X177890527Y-106991587D01*
X177794960Y-106982175D01*
X177549720Y-106907782D01*
X177323706Y-106786975D01*
X177272101Y-106744624D01*
X177125603Y-106624397D01*
X177005376Y-106477899D01*
X176963025Y-106426294D01*
X176842218Y-106200280D01*
X176767825Y-105955040D01*
X176742706Y-105700000D01*
X176767825Y-105444960D01*
X176842218Y-105199720D01*
X176963025Y-104973706D01*
X177005376Y-104922101D01*
X177125603Y-104775603D01*
X177272101Y-104655376D01*
X177323706Y-104613025D01*
X177549720Y-104492218D01*
X177794960Y-104417825D01*
X177890527Y-104408413D01*
X177986094Y-104399000D01*
X179413906Y-104399000D01*
X179509472Y-104408412D01*
G37*
G36*
X190318433Y-98634893D02*
G01*
X190408657Y-98652839D01*
X190514267Y-98696585D01*
X190663621Y-98758449D01*
X190663622Y-98758450D01*
X190893086Y-98911772D01*
X191088228Y-99106914D01*
X191190675Y-99260237D01*
X191241551Y-99336379D01*
X191347161Y-99591344D01*
X191401000Y-99862012D01*
X191401000Y-100137988D01*
X191347161Y-100408656D01*
X191241551Y-100663621D01*
X191241550Y-100663622D01*
X191088228Y-100893086D01*
X190893086Y-101088228D01*
X190739763Y-101190675D01*
X190663621Y-101241551D01*
X190514267Y-101303415D01*
X190408657Y-101347161D01*
X190318433Y-101365107D01*
X190137988Y-101401000D01*
X189862012Y-101401000D01*
X189681567Y-101365107D01*
X189591343Y-101347161D01*
X189485733Y-101303415D01*
X189336379Y-101241551D01*
X189260237Y-101190675D01*
X189106914Y-101088228D01*
X188911772Y-100893086D01*
X188758450Y-100663622D01*
X188758449Y-100663621D01*
X188652839Y-100408656D01*
X188599000Y-100137988D01*
X188599000Y-99862012D01*
X188652839Y-99591344D01*
X188758449Y-99336379D01*
X188809325Y-99260237D01*
X188911772Y-99106914D01*
X189106914Y-98911772D01*
X189336378Y-98758450D01*
X189336379Y-98758449D01*
X189485733Y-98696585D01*
X189591343Y-98652839D01*
X189681567Y-98634893D01*
X189862012Y-98599000D01*
X190137988Y-98599000D01*
X190318433Y-98634893D01*
G37*
G36*
X100318433Y-98634893D02*
G01*
X100408657Y-98652839D01*
X100514267Y-98696585D01*
X100663621Y-98758449D01*
X100663622Y-98758450D01*
X100893086Y-98911772D01*
X101088228Y-99106914D01*
X101190675Y-99260237D01*
X101241551Y-99336379D01*
X101347161Y-99591344D01*
X101401000Y-99862012D01*
X101401000Y-100137988D01*
X101347161Y-100408656D01*
X101241551Y-100663621D01*
X101241550Y-100663622D01*
X101088228Y-100893086D01*
X100893086Y-101088228D01*
X100739763Y-101190675D01*
X100663621Y-101241551D01*
X100514267Y-101303415D01*
X100408657Y-101347161D01*
X100318433Y-101365107D01*
X100137988Y-101401000D01*
X99862012Y-101401000D01*
X99681567Y-101365107D01*
X99591343Y-101347161D01*
X99485733Y-101303415D01*
X99336379Y-101241551D01*
X99260237Y-101190675D01*
X99106914Y-101088228D01*
X98911772Y-100893086D01*
X98758450Y-100663622D01*
X98758449Y-100663621D01*
X98652839Y-100408656D01*
X98599000Y-100137988D01*
X98599000Y-99862012D01*
X98652839Y-99591344D01*
X98758449Y-99336379D01*
X98809325Y-99260237D01*
X98911772Y-99106914D01*
X99106914Y-98911772D01*
X99336378Y-98758450D01*
X99336379Y-98758449D01*
X99485733Y-98696585D01*
X99591343Y-98652839D01*
X99681567Y-98634893D01*
X99862012Y-98599000D01*
X100137988Y-98599000D01*
X100318433Y-98634893D01*
G37*
G36*
X161977142Y-98408242D02*
G01*
X162125101Y-98469529D01*
X162258255Y-98558499D01*
X162371501Y-98671745D01*
X162460471Y-98804899D01*
X162521758Y-98952858D01*
X162553000Y-99109925D01*
X162553000Y-99270075D01*
X162521758Y-99427142D01*
X162460471Y-99575101D01*
X162371501Y-99708255D01*
X162258255Y-99821501D01*
X162125101Y-99910471D01*
X161977142Y-99971758D01*
X161820075Y-100003000D01*
X161659925Y-100003000D01*
X161502858Y-99971758D01*
X161354899Y-99910471D01*
X161221745Y-99821501D01*
X161108499Y-99708255D01*
X161019529Y-99575101D01*
X160958242Y-99427142D01*
X160927000Y-99270075D01*
X160927000Y-99109925D01*
X160958242Y-98952858D01*
X161019529Y-98804899D01*
X161108499Y-98671745D01*
X161221745Y-98558499D01*
X161354899Y-98469529D01*
X161502858Y-98408242D01*
X161659925Y-98377000D01*
X161820075Y-98377000D01*
X161977142Y-98408242D01*
G37*
G36*
X169597142Y-98408242D02*
G01*
X169745101Y-98469529D01*
X169878255Y-98558499D01*
X169991501Y-98671745D01*
X170080471Y-98804899D01*
X170141758Y-98952858D01*
X170173000Y-99109925D01*
X170173000Y-99270075D01*
X170141758Y-99427142D01*
X170080471Y-99575101D01*
X169991501Y-99708255D01*
X169878255Y-99821501D01*
X169745101Y-99910471D01*
X169597142Y-99971758D01*
X169440075Y-100003000D01*
X169279925Y-100003000D01*
X169122858Y-99971758D01*
X168974899Y-99910471D01*
X168841745Y-99821501D01*
X168728499Y-99708255D01*
X168639529Y-99575101D01*
X168578242Y-99427142D01*
X168547000Y-99270075D01*
X168547000Y-99109925D01*
X168578242Y-98952858D01*
X168639529Y-98804899D01*
X168728499Y-98671745D01*
X168841745Y-98558499D01*
X168974899Y-98469529D01*
X169122858Y-98408242D01*
X169279925Y-98377000D01*
X169440075Y-98377000D01*
X169597142Y-98408242D01*
G37*
G36*
X167057142Y-98408242D02*
G01*
X167205101Y-98469529D01*
X167338255Y-98558499D01*
X167451501Y-98671745D01*
X167540471Y-98804899D01*
X167601758Y-98952858D01*
X167633000Y-99109925D01*
X167633000Y-99270075D01*
X167601758Y-99427142D01*
X167540471Y-99575101D01*
X167451501Y-99708255D01*
X167338255Y-99821501D01*
X167205101Y-99910471D01*
X167057142Y-99971758D01*
X166900075Y-100003000D01*
X166739925Y-100003000D01*
X166582858Y-99971758D01*
X166434899Y-99910471D01*
X166301745Y-99821501D01*
X166188499Y-99708255D01*
X166099529Y-99575101D01*
X166038242Y-99427142D01*
X166007000Y-99270075D01*
X166007000Y-99109925D01*
X166038242Y-98952858D01*
X166099529Y-98804899D01*
X166188499Y-98671745D01*
X166301745Y-98558499D01*
X166434899Y-98469529D01*
X166582858Y-98408242D01*
X166739925Y-98377000D01*
X166900075Y-98377000D01*
X167057142Y-98408242D01*
G37*
G36*
X164517142Y-98408242D02*
G01*
X164665101Y-98469529D01*
X164798255Y-98558499D01*
X164911501Y-98671745D01*
X165000471Y-98804899D01*
X165061758Y-98952858D01*
X165093000Y-99109925D01*
X165093000Y-99270075D01*
X165061758Y-99427142D01*
X165000471Y-99575101D01*
X164911501Y-99708255D01*
X164798255Y-99821501D01*
X164665101Y-99910471D01*
X164517142Y-99971758D01*
X164360075Y-100003000D01*
X164199925Y-100003000D01*
X164042858Y-99971758D01*
X163894899Y-99910471D01*
X163761745Y-99821501D01*
X163648499Y-99708255D01*
X163559529Y-99575101D01*
X163498242Y-99427142D01*
X163467000Y-99270075D01*
X163467000Y-99109925D01*
X163498242Y-98952858D01*
X163559529Y-98804899D01*
X163648499Y-98671745D01*
X163761745Y-98558499D01*
X163894899Y-98469529D01*
X164042858Y-98408242D01*
X164199925Y-98377000D01*
X164360075Y-98377000D01*
X164517142Y-98408242D01*
G37*
G36*
X157473000Y-100003000D02*
G01*
X155847000Y-100003000D01*
X155847000Y-98377000D01*
X157473000Y-98377000D01*
X157473000Y-100003000D01*
G37*
G36*
X159437142Y-98408242D02*
G01*
X159585101Y-98469529D01*
X159718255Y-98558499D01*
X159831501Y-98671745D01*
X159920471Y-98804899D01*
X159981758Y-98952858D01*
X160013000Y-99109925D01*
X160013000Y-99270075D01*
X159981758Y-99427142D01*
X159920471Y-99575101D01*
X159831501Y-99708255D01*
X159718255Y-99821501D01*
X159585101Y-99910471D01*
X159437142Y-99971758D01*
X159280075Y-100003000D01*
X159119925Y-100003000D01*
X158962858Y-99971758D01*
X158814899Y-99910471D01*
X158681745Y-99821501D01*
X158568499Y-99708255D01*
X158479529Y-99575101D01*
X158418242Y-99427142D01*
X158387000Y-99270075D01*
X158387000Y-99109925D01*
X158418242Y-98952858D01*
X158479529Y-98804899D01*
X158568499Y-98671745D01*
X158681745Y-98558499D01*
X158814899Y-98469529D01*
X158962858Y-98408242D01*
X159119925Y-98377000D01*
X159280075Y-98377000D01*
X159437142Y-98408242D01*
G37*
M02*
