G04 #@! TF.GenerationSoftware,KiCad,Pcbnew,5.0.2-bee76a0~70~ubuntu16.04.1*
G04 #@! TF.CreationDate,2018-12-03T18:08:45+05:30*
G04 #@! TF.ProjectId,senseBeRx_rev2,73656e73-6542-4655-9278-5f726576322e,rev?*
G04 #@! TF.SameCoordinates,Original*
G04 #@! TF.FileFunction,Legend,Top*
G04 #@! TF.FilePolarity,Positive*
%FSLAX46Y46*%
G04 Gerber Fmt 4.6, Leading zero omitted, Abs format (unit mm)*
G04 Created by KiCad (PCBNEW 5.0.2-bee76a0~70~ubuntu16.04.1) date Mon Dec  3 18:08:45 2018*
%MOMM*%
%LPD*%
G01*
G04 APERTURE LIST*
%ADD10C,0.300000*%
%ADD11C,0.120000*%
%ADD12C,0.150000*%
%ADD13C,0.010000*%
%ADD14C,0.100000*%
%ADD15C,0.127000*%
G04 APERTURE END LIST*
D10*
X123971428Y-146285714D02*
X124142857Y-146342857D01*
X124428571Y-146342857D01*
X124542857Y-146285714D01*
X124600000Y-146228571D01*
X124657142Y-146114285D01*
X124657142Y-146000000D01*
X124600000Y-145885714D01*
X124542857Y-145828571D01*
X124428571Y-145771428D01*
X124200000Y-145714285D01*
X124085714Y-145657142D01*
X124028571Y-145600000D01*
X123971428Y-145485714D01*
X123971428Y-145371428D01*
X124028571Y-145257142D01*
X124085714Y-145200000D01*
X124200000Y-145142857D01*
X124485714Y-145142857D01*
X124657142Y-145200000D01*
X125628571Y-146285714D02*
X125514285Y-146342857D01*
X125285714Y-146342857D01*
X125171428Y-146285714D01*
X125114285Y-146171428D01*
X125114285Y-145714285D01*
X125171428Y-145600000D01*
X125285714Y-145542857D01*
X125514285Y-145542857D01*
X125628571Y-145600000D01*
X125685714Y-145714285D01*
X125685714Y-145828571D01*
X125114285Y-145942857D01*
X126200000Y-145542857D02*
X126200000Y-146342857D01*
X126200000Y-145657142D02*
X126257142Y-145600000D01*
X126371428Y-145542857D01*
X126542857Y-145542857D01*
X126657142Y-145600000D01*
X126714285Y-145714285D01*
X126714285Y-146342857D01*
X127228571Y-146285714D02*
X127342857Y-146342857D01*
X127571428Y-146342857D01*
X127685714Y-146285714D01*
X127742857Y-146171428D01*
X127742857Y-146114285D01*
X127685714Y-146000000D01*
X127571428Y-145942857D01*
X127400000Y-145942857D01*
X127285714Y-145885714D01*
X127228571Y-145771428D01*
X127228571Y-145714285D01*
X127285714Y-145600000D01*
X127400000Y-145542857D01*
X127571428Y-145542857D01*
X127685714Y-145600000D01*
X128714285Y-146285714D02*
X128600000Y-146342857D01*
X128371428Y-146342857D01*
X128257142Y-146285714D01*
X128200000Y-146171428D01*
X128200000Y-145714285D01*
X128257142Y-145600000D01*
X128371428Y-145542857D01*
X128600000Y-145542857D01*
X128714285Y-145600000D01*
X128771428Y-145714285D01*
X128771428Y-145828571D01*
X128200000Y-145942857D01*
X129685714Y-145714285D02*
X129857142Y-145771428D01*
X129914285Y-145828571D01*
X129971428Y-145942857D01*
X129971428Y-146114285D01*
X129914285Y-146228571D01*
X129857142Y-146285714D01*
X129742857Y-146342857D01*
X129285714Y-146342857D01*
X129285714Y-145142857D01*
X129685714Y-145142857D01*
X129800000Y-145200000D01*
X129857142Y-145257142D01*
X129914285Y-145371428D01*
X129914285Y-145485714D01*
X129857142Y-145600000D01*
X129800000Y-145657142D01*
X129685714Y-145714285D01*
X129285714Y-145714285D01*
X130942857Y-146285714D02*
X130828571Y-146342857D01*
X130600000Y-146342857D01*
X130485714Y-146285714D01*
X130428571Y-146171428D01*
X130428571Y-145714285D01*
X130485714Y-145600000D01*
X130600000Y-145542857D01*
X130828571Y-145542857D01*
X130942857Y-145600000D01*
X131000000Y-145714285D01*
X131000000Y-145828571D01*
X130428571Y-145942857D01*
X131228571Y-146457142D02*
X132142857Y-146457142D01*
X133114285Y-146342857D02*
X132714285Y-145771428D01*
X132428571Y-146342857D02*
X132428571Y-145142857D01*
X132885714Y-145142857D01*
X133000000Y-145200000D01*
X133057142Y-145257142D01*
X133114285Y-145371428D01*
X133114285Y-145542857D01*
X133057142Y-145657142D01*
X133000000Y-145714285D01*
X132885714Y-145771428D01*
X132428571Y-145771428D01*
X133514285Y-146342857D02*
X134142857Y-145542857D01*
X133514285Y-145542857D02*
X134142857Y-146342857D01*
X134314285Y-146457142D02*
X135228571Y-146457142D01*
X135514285Y-146342857D02*
X135514285Y-145542857D01*
X135514285Y-145771428D02*
X135571428Y-145657142D01*
X135628571Y-145600000D01*
X135742857Y-145542857D01*
X135857142Y-145542857D01*
X136714285Y-146285714D02*
X136600000Y-146342857D01*
X136371428Y-146342857D01*
X136257142Y-146285714D01*
X136200000Y-146171428D01*
X136200000Y-145714285D01*
X136257142Y-145600000D01*
X136371428Y-145542857D01*
X136600000Y-145542857D01*
X136714285Y-145600000D01*
X136771428Y-145714285D01*
X136771428Y-145828571D01*
X136200000Y-145942857D01*
X137171428Y-145542857D02*
X137457142Y-146342857D01*
X137742857Y-145542857D01*
X138142857Y-145257142D02*
X138200000Y-145200000D01*
X138314285Y-145142857D01*
X138600000Y-145142857D01*
X138714285Y-145200000D01*
X138771428Y-145257142D01*
X138828571Y-145371428D01*
X138828571Y-145485714D01*
X138771428Y-145657142D01*
X138085714Y-146342857D01*
X138828571Y-146342857D01*
D11*
G04 #@! TO.C,J1*
X109450000Y-120600000D02*
X109450000Y-119200000D01*
X111000000Y-120600000D02*
X111000000Y-119200000D01*
X110550000Y-126800000D02*
X100025000Y-126800000D01*
X111000000Y-120600000D02*
X112125000Y-120600000D01*
X107050000Y-120600000D02*
X109450000Y-120600000D01*
X104050000Y-120600000D02*
X105400000Y-120600000D01*
X100025000Y-120600000D02*
X102400000Y-120600000D01*
X112125000Y-126800000D02*
X112125000Y-120600000D01*
X100025000Y-120600000D02*
X100025000Y-121200000D01*
X100025000Y-126200000D02*
X100025000Y-126800000D01*
G04 #@! TO.C,Y1*
X120500000Y-108650000D02*
G75*
G03X120500000Y-105250000I0J1700000D01*
G01*
X120500000Y-108650000D02*
G75*
G02X120500000Y-105250000I0J1700000D01*
G01*
G04 #@! TO.C,R9*
X111571267Y-99710000D02*
X111228733Y-99710000D01*
X111571267Y-98690000D02*
X111228733Y-98690000D01*
G04 #@! TO.C,D1*
X117500000Y-136200000D02*
X117500000Y-135400000D01*
X117499956Y-135400000D02*
X121950000Y-135400000D01*
X118050000Y-138400000D02*
X121950000Y-138400000D01*
G04 #@! TO.C,D2*
X117040000Y-82499538D02*
G75*
G03X122590000Y-84044830I2990000J-462D01*
G01*
X117040000Y-82500462D02*
G75*
G02X122590000Y-80955170I2990000J462D01*
G01*
X122530000Y-82500000D02*
G75*
G03X122530000Y-82500000I-2500000J0D01*
G01*
X122590000Y-84045000D02*
X122590000Y-80955000D01*
G04 #@! TO.C,Q1*
X134760000Y-84080000D02*
X134760000Y-83150000D01*
X134760000Y-80920000D02*
X134760000Y-81850000D01*
X134760000Y-80920000D02*
X131600000Y-80920000D01*
X134760000Y-84080000D02*
X133300000Y-84080000D01*
G04 #@! TO.C,Q2*
X109760000Y-140880000D02*
X109760000Y-139950000D01*
X109760000Y-137720000D02*
X109760000Y-138650000D01*
X109760000Y-137720000D02*
X106600000Y-137720000D01*
X109760000Y-140880000D02*
X108300000Y-140880000D01*
G04 #@! TO.C,Q3*
X109760000Y-136480000D02*
X108300000Y-136480000D01*
X109760000Y-133320000D02*
X106600000Y-133320000D01*
X109760000Y-133320000D02*
X109760000Y-134250000D01*
X109760000Y-136480000D02*
X109760000Y-135550000D01*
D12*
G04 #@! TO.C,U1*
X136750000Y-115000000D02*
X136750000Y-105000000D01*
X140000000Y-105000000D02*
X140000000Y-115000000D01*
X133319400Y-104996200D02*
X135072000Y-104996200D01*
X139999600Y-104996200D02*
X136748400Y-104996200D01*
X124023000Y-104996200D02*
X125953400Y-104996200D01*
X123997600Y-115003800D02*
X125267600Y-115003800D01*
X139999600Y-115003800D02*
X136748400Y-115003800D01*
D11*
G04 #@! TO.C,C1*
X132210000Y-99928733D02*
X132210000Y-100271267D01*
X131190000Y-99928733D02*
X131190000Y-100271267D01*
G04 #@! TO.C,C4*
X122090000Y-99928733D02*
X122090000Y-100271267D01*
X123110000Y-99928733D02*
X123110000Y-100271267D01*
G04 #@! TO.C,C5*
X117828733Y-104410000D02*
X118171267Y-104410000D01*
X117828733Y-103390000D02*
X118171267Y-103390000D01*
G04 #@! TO.C,C6*
X125410000Y-99928733D02*
X125410000Y-100271267D01*
X124390000Y-99928733D02*
X124390000Y-100271267D01*
G04 #@! TO.C,C7*
X117828733Y-110510000D02*
X118171267Y-110510000D01*
X117828733Y-109490000D02*
X118171267Y-109490000D01*
G04 #@! TO.C,C8*
X128890000Y-82671267D02*
X128890000Y-82328733D01*
X129910000Y-82671267D02*
X129910000Y-82328733D01*
G04 #@! TO.C,R1*
X105410000Y-139128733D02*
X105410000Y-139471267D01*
X104390000Y-139128733D02*
X104390000Y-139471267D01*
G04 #@! TO.C,R2*
X113510000Y-135071267D02*
X113510000Y-134728733D01*
X112490000Y-135071267D02*
X112490000Y-134728733D01*
G04 #@! TO.C,R3*
X112490000Y-139471267D02*
X112490000Y-139128733D01*
X113510000Y-139471267D02*
X113510000Y-139128733D01*
G04 #@! TO.C,R4*
X104390000Y-134728733D02*
X104390000Y-135071267D01*
X105410000Y-134728733D02*
X105410000Y-135071267D01*
G04 #@! TO.C,R6*
X111228733Y-92390000D02*
X111571267Y-92390000D01*
X111228733Y-93410000D02*
X111571267Y-93410000D01*
G04 #@! TO.C,L1*
X130010000Y-100271267D02*
X130010000Y-99928733D01*
X128990000Y-100271267D02*
X128990000Y-99928733D01*
G04 #@! TO.C,L2*
X127710000Y-99928733D02*
X127710000Y-100271267D01*
X126690000Y-99928733D02*
X126690000Y-100271267D01*
G04 #@! TO.C,U2*
X115900000Y-94100000D02*
X116300000Y-93600000D01*
X115900000Y-93100000D02*
X115900000Y-94100000D01*
X116300000Y-93600000D02*
X115900000Y-93100000D01*
X122600000Y-95000000D02*
X122600000Y-94800000D01*
X117400000Y-95000000D02*
X117400000Y-94800000D01*
X122740000Y-94750000D02*
X117340000Y-94750000D01*
X122740000Y-92500000D02*
X117340000Y-92500000D01*
X118020000Y-97150000D02*
X117620000Y-97150000D01*
X118020000Y-97150000D02*
X118020000Y-97550000D01*
X118020000Y-97150000D02*
X117220000Y-97950000D01*
X119020000Y-97550000D02*
X118220000Y-98350000D01*
X119020000Y-97550000D02*
X119020000Y-97950000D01*
X119020000Y-97550000D02*
X118620000Y-97550000D01*
X117400000Y-95000000D02*
G75*
G03X122600000Y-95000000I2600000J0D01*
G01*
G04 #@! TO.C,C2*
X119828733Y-128090000D02*
X120171267Y-128090000D01*
X119828733Y-129110000D02*
X120171267Y-129110000D01*
G04 #@! TO.C,C3*
X125490000Y-82761252D02*
X125490000Y-82238748D01*
X126910000Y-82761252D02*
X126910000Y-82238748D01*
G04 #@! TO.C,Q5*
X110640000Y-94420000D02*
X110640000Y-95350000D01*
X110640000Y-97580000D02*
X110640000Y-96650000D01*
X110640000Y-97580000D02*
X113800000Y-97580000D01*
X110640000Y-94420000D02*
X112100000Y-94420000D01*
G04 #@! TO.C,SW1*
X122200000Y-120400000D02*
X117700000Y-120400000D01*
X123450000Y-124400000D02*
X123450000Y-122900000D01*
X117700000Y-126900000D02*
X122200000Y-126900000D01*
X116450000Y-122900000D02*
X116450000Y-124400000D01*
G04 #@! TO.C,Q4*
X131360000Y-90680000D02*
X131360000Y-89750000D01*
X131360000Y-87520000D02*
X131360000Y-88450000D01*
X131360000Y-87520000D02*
X129200000Y-87520000D01*
X131360000Y-90680000D02*
X129900000Y-90680000D01*
G04 #@! TO.C,R5*
X133490000Y-89271267D02*
X133490000Y-88928733D01*
X134510000Y-89271267D02*
X134510000Y-88928733D01*
G04 #@! TO.C,R7*
X126171267Y-87590000D02*
X125828733Y-87590000D01*
X126171267Y-88610000D02*
X125828733Y-88610000D01*
G04 #@! TO.C,R8*
X126171267Y-90610000D02*
X125828733Y-90610000D01*
X126171267Y-89590000D02*
X125828733Y-89590000D01*
D13*
G04 #@! TO.C,G\002A\002A\002A*
G36*
X106073348Y-75696466D02*
X106146362Y-75713616D01*
X106155715Y-75723806D01*
X106197979Y-75737710D01*
X106312429Y-75748991D01*
X106480547Y-75756331D01*
X106643304Y-75758484D01*
X107073730Y-75779364D01*
X107529996Y-75837289D01*
X107983289Y-75926592D01*
X108404796Y-76041601D01*
X108763444Y-76175641D01*
X109190790Y-76402828D01*
X109585341Y-76684719D01*
X109923935Y-77003689D01*
X110054606Y-77158125D01*
X110196427Y-77348131D01*
X110302953Y-77514901D01*
X110392050Y-77690244D01*
X110481583Y-77905973D01*
X110496858Y-77945619D01*
X110544028Y-78077158D01*
X110576530Y-78195599D01*
X110597020Y-78321019D01*
X110608152Y-78473497D01*
X110612580Y-78673112D01*
X110613124Y-78825000D01*
X110611451Y-79062942D01*
X110604668Y-79241593D01*
X110590130Y-79381010D01*
X110565192Y-79501248D01*
X110527209Y-79622362D01*
X110497306Y-79703145D01*
X110393153Y-79955429D01*
X110287050Y-80161142D01*
X110160175Y-80351702D01*
X109993703Y-80558529D01*
X109964424Y-80592585D01*
X109861434Y-80714388D01*
X109785742Y-80809204D01*
X109749249Y-80861904D01*
X109748046Y-80867686D01*
X109793191Y-80887527D01*
X109897790Y-80930233D01*
X110028166Y-80982188D01*
X110387096Y-81153850D01*
X110752805Y-81382572D01*
X111101626Y-81650645D01*
X111409895Y-81940357D01*
X111595579Y-82155147D01*
X111877185Y-82565429D01*
X112085718Y-82982756D01*
X112235259Y-83436197D01*
X112255502Y-83517599D01*
X112276351Y-83650805D01*
X112293676Y-83856211D01*
X112307404Y-84126701D01*
X112317465Y-84455159D01*
X112323784Y-84834467D01*
X112326289Y-85257508D01*
X112324909Y-85717167D01*
X112319571Y-86206326D01*
X112310202Y-86717868D01*
X112296731Y-87244678D01*
X112294246Y-87328046D01*
X112264403Y-88310312D01*
X111749169Y-88310312D01*
X111719326Y-87328046D01*
X111710446Y-87004944D01*
X111702609Y-86660789D01*
X111696233Y-86318838D01*
X111691735Y-86002343D01*
X111689535Y-85734560D01*
X111689384Y-85663603D01*
X111689286Y-84981426D01*
X111496518Y-84960940D01*
X111358399Y-84946303D01*
X111269209Y-84936875D01*
X111780000Y-84936875D01*
X111780000Y-86960937D01*
X112233572Y-86960937D01*
X112233572Y-84936875D01*
X111780000Y-84936875D01*
X111269209Y-84936875D01*
X111167096Y-84926081D01*
X110959488Y-84904171D01*
X110918215Y-84899820D01*
X110727959Y-84878101D01*
X110562222Y-84856202D01*
X110449594Y-84837990D01*
X110430625Y-84833870D01*
X110376211Y-84824814D01*
X110345659Y-84842346D01*
X110332098Y-84902443D01*
X110328658Y-85021080D01*
X110328572Y-85071152D01*
X110322265Y-85207776D01*
X110305510Y-85301522D01*
X110283215Y-85333750D01*
X110259864Y-85297090D01*
X110243758Y-85199044D01*
X110237858Y-85059819D01*
X110236157Y-84915402D01*
X110224979Y-84830102D01*
X110195210Y-84783661D01*
X110137737Y-84755822D01*
X110095018Y-84742319D01*
X109993567Y-84712678D01*
X109937906Y-84698877D01*
X109936268Y-84698750D01*
X109928879Y-84735304D01*
X109923315Y-84832446D01*
X109920517Y-84971390D01*
X109920358Y-85016250D01*
X109917153Y-85179156D01*
X109905526Y-85276922D01*
X109882457Y-85323642D01*
X109852322Y-85333750D01*
X109818225Y-85319297D01*
X109797394Y-85266705D01*
X109787018Y-85162118D01*
X109784286Y-84998315D01*
X109784286Y-84662880D01*
X109398149Y-84504549D01*
X109208912Y-84423693D01*
X109034782Y-84343587D01*
X108903972Y-84277412D01*
X108870091Y-84257793D01*
X108775211Y-84205537D01*
X108693655Y-84189354D01*
X108584559Y-84204857D01*
X108519175Y-84220132D01*
X108362846Y-84246478D01*
X108142297Y-84268691D01*
X107883954Y-84285629D01*
X107614246Y-84296149D01*
X107359602Y-84299109D01*
X107146450Y-84293367D01*
X107039920Y-84284071D01*
X106824295Y-84255778D01*
X106854523Y-83997614D01*
X106886038Y-83820725D01*
X106935087Y-83639298D01*
X106947273Y-83606133D01*
X107262090Y-83606133D01*
X107268501Y-83775749D01*
X107279050Y-83882574D01*
X107298954Y-83943183D01*
X107333429Y-83974154D01*
X107383160Y-83990894D01*
X107506416Y-84005736D01*
X107649840Y-84001503D01*
X107652500Y-84001199D01*
X107749112Y-83993945D01*
X107918148Y-83985338D01*
X108141352Y-83976141D01*
X108400466Y-83967119D01*
X108627679Y-83960368D01*
X108921378Y-83951741D01*
X109140088Y-83942997D01*
X109299510Y-83932211D01*
X109415348Y-83917461D01*
X109503301Y-83896821D01*
X109579073Y-83868367D01*
X109648215Y-83835301D01*
X110160132Y-83535917D01*
X110601495Y-83187553D01*
X110975886Y-82786964D01*
X111259399Y-82377665D01*
X111472444Y-82021112D01*
X111321423Y-81967192D01*
X111131453Y-81932312D01*
X110994703Y-81937855D01*
X110819004Y-81962439D01*
X110913967Y-81856804D01*
X110997854Y-81740660D01*
X111011450Y-81650352D01*
X110949950Y-81581188D01*
X110808547Y-81528474D01*
X110582435Y-81487517D01*
X110528718Y-81480580D01*
X110010883Y-81456367D01*
X109495548Y-81509811D01*
X108990119Y-81639310D01*
X108501996Y-81843263D01*
X108273664Y-81968533D01*
X107918936Y-82204703D01*
X107647939Y-82446529D01*
X107453892Y-82704989D01*
X107330015Y-82991058D01*
X107269529Y-83315713D01*
X107262090Y-83606133D01*
X106947273Y-83606133D01*
X106972728Y-83536856D01*
X107025889Y-83397442D01*
X107034238Y-83323371D01*
X106997018Y-83310603D01*
X106935950Y-83340547D01*
X106562762Y-83527488D01*
X106131757Y-83665449D01*
X105659852Y-83750438D01*
X105163966Y-83778466D01*
X105083857Y-83777406D01*
X104590893Y-83766093D01*
X104601400Y-83521481D01*
X104634311Y-83331209D01*
X105031589Y-83331209D01*
X105043977Y-83410777D01*
X105117452Y-83452101D01*
X105263904Y-83466397D01*
X105349202Y-83467043D01*
X105561843Y-83456759D01*
X105791159Y-83432025D01*
X105906250Y-83413414D01*
X106090521Y-83372339D01*
X106270079Y-83323233D01*
X106359822Y-83293488D01*
X106598222Y-83241746D01*
X106834883Y-83234993D01*
X107128515Y-83244190D01*
X107195225Y-83056232D01*
X107232488Y-82937620D01*
X107236774Y-82860899D01*
X107206935Y-82793630D01*
X107184795Y-82761559D01*
X107102275Y-82634900D01*
X107000913Y-82461389D01*
X106895550Y-82267872D01*
X106801027Y-82081199D01*
X106759510Y-81992227D01*
X106676138Y-81805861D01*
X106473881Y-81885096D01*
X106350938Y-81937258D01*
X106266537Y-81980488D01*
X106247687Y-81994706D01*
X106199322Y-82032426D01*
X106100296Y-82097218D01*
X106015566Y-82148982D01*
X105696416Y-82374740D01*
X105420200Y-82641067D01*
X105202928Y-82930158D01*
X105068402Y-83202183D01*
X105031589Y-83331209D01*
X104634311Y-83331209D01*
X104657461Y-83197373D01*
X104793646Y-82866046D01*
X105002662Y-82541486D01*
X105264634Y-82249673D01*
X105468853Y-82078291D01*
X105716134Y-81908065D01*
X105978970Y-81755448D01*
X106229850Y-81636898D01*
X106375083Y-81585436D01*
X106593492Y-81521961D01*
X106530752Y-81274808D01*
X106460760Y-80875045D01*
X106437947Y-80434236D01*
X106460289Y-79976186D01*
X106525762Y-79524699D01*
X106632343Y-79103579D01*
X106739555Y-78818570D01*
X106823319Y-78629077D01*
X106885644Y-78503500D01*
X106942185Y-78433321D01*
X107008600Y-78410021D01*
X107100543Y-78425082D01*
X107233671Y-78469985D01*
X107322211Y-78501541D01*
X107558886Y-78584716D01*
X107721746Y-78341573D01*
X107920243Y-77983254D01*
X108065078Y-77590441D01*
X108102137Y-77418274D01*
X108342856Y-77418274D01*
X108358420Y-77545952D01*
X108459794Y-77659292D01*
X108536965Y-77705502D01*
X108611971Y-77740263D01*
X108668103Y-77745108D01*
X108741420Y-77716092D01*
X108820447Y-77674497D01*
X108936189Y-77574735D01*
X108969855Y-77451253D01*
X108919199Y-77318027D01*
X108884572Y-77275359D01*
X108765676Y-77202964D01*
X108619838Y-77188577D01*
X108481198Y-77231519D01*
X108415530Y-77284680D01*
X108342856Y-77418274D01*
X108102137Y-77418274D01*
X108153001Y-77181979D01*
X108180768Y-76776711D01*
X108145132Y-76393481D01*
X108093192Y-76185781D01*
X108050471Y-76079092D01*
X108006162Y-76007708D01*
X107994887Y-75997873D01*
X107894858Y-75969052D01*
X107790687Y-75981371D01*
X107725781Y-76029465D01*
X107724966Y-76031240D01*
X107664501Y-76072551D01*
X107553026Y-76063300D01*
X107406512Y-76006461D01*
X107315088Y-75954939D01*
X107246513Y-75917630D01*
X107169985Y-75892815D01*
X107066021Y-75878035D01*
X106915136Y-75870830D01*
X106697845Y-75868742D01*
X106631965Y-75868730D01*
X106396213Y-75870209D01*
X106230275Y-75876092D01*
X106113268Y-75889233D01*
X106024310Y-75912488D01*
X105942516Y-75948711D01*
X105906250Y-75967949D01*
X105724822Y-76066718D01*
X106065000Y-76075498D01*
X106319766Y-76087426D01*
X106599896Y-76109441D01*
X106887349Y-76139164D01*
X107164083Y-76174217D01*
X107412056Y-76212221D01*
X107613229Y-76250799D01*
X107749559Y-76287572D01*
X107783341Y-76302014D01*
X107807255Y-76359545D01*
X107787961Y-76425311D01*
X107767389Y-76497342D01*
X107778355Y-76524331D01*
X107773392Y-76541143D01*
X107732422Y-76565723D01*
X107645228Y-76582501D01*
X107493449Y-76572665D01*
X107312133Y-76544194D01*
X106690286Y-76467534D01*
X106044276Y-76459012D01*
X105366668Y-76518857D01*
X104768172Y-76622012D01*
X104510425Y-76681157D01*
X104274707Y-76745710D01*
X104074505Y-76810875D01*
X103923307Y-76871854D01*
X103834600Y-76923847D01*
X103819642Y-76959433D01*
X103868576Y-76986257D01*
X103882339Y-76982515D01*
X103969181Y-76959202D01*
X104131299Y-76937359D01*
X104353257Y-76917651D01*
X104619622Y-76900742D01*
X104914959Y-76887295D01*
X105223833Y-76877975D01*
X105530811Y-76873446D01*
X105820458Y-76874372D01*
X106077340Y-76881418D01*
X106148686Y-76884992D01*
X106369313Y-76900744D01*
X106616955Y-76923624D01*
X106874699Y-76951455D01*
X107125634Y-76982058D01*
X107352850Y-77013257D01*
X107539434Y-77042875D01*
X107668475Y-77068733D01*
X107722096Y-77087573D01*
X107740274Y-77129163D01*
X107771165Y-77219084D01*
X107780995Y-77250030D01*
X107808227Y-77346724D01*
X107800368Y-77385884D01*
X107746488Y-77386483D01*
X107706364Y-77379595D01*
X107331816Y-77314289D01*
X107017530Y-77265146D01*
X106738269Y-77229962D01*
X106468799Y-77206532D01*
X106183883Y-77192653D01*
X105858287Y-77186119D01*
X105475358Y-77184719D01*
X105088454Y-77186718D01*
X104770441Y-77193180D01*
X104499543Y-77205956D01*
X104253987Y-77226893D01*
X104011996Y-77257842D01*
X103751796Y-77300651D01*
X103456965Y-77356124D01*
X103145720Y-77425193D01*
X102806153Y-77514229D01*
X102475090Y-77612798D01*
X102189361Y-77710470D01*
X102141608Y-77728701D01*
X101824108Y-77852656D01*
X101982858Y-77874574D01*
X102102902Y-77881067D01*
X102185759Y-77867871D01*
X102191138Y-77864997D01*
X102249722Y-77847559D01*
X102262363Y-77852483D01*
X102313075Y-77853276D01*
X102433310Y-77840613D01*
X102603698Y-77816844D01*
X102757118Y-77792415D01*
X103446592Y-77697685D01*
X104071353Y-77654608D01*
X104629635Y-77663292D01*
X104745583Y-77672361D01*
X105141802Y-77713789D01*
X105524776Y-77763979D01*
X105870938Y-77819418D01*
X106156720Y-77876593D01*
X106223750Y-77892697D01*
X106403406Y-77936660D01*
X106585980Y-77979306D01*
X106643881Y-77992243D01*
X106761754Y-78022954D01*
X106807350Y-78053970D01*
X106797889Y-78098560D01*
X106792888Y-78107072D01*
X106766188Y-78173826D01*
X106770728Y-78198970D01*
X106761241Y-78236281D01*
X106735114Y-78259944D01*
X106671383Y-78274283D01*
X106546411Y-78264111D01*
X106350123Y-78228330D01*
X106253781Y-78207578D01*
X105427628Y-78054148D01*
X104604913Y-77959425D01*
X103803319Y-77924860D01*
X103092761Y-77947943D01*
X102586827Y-77990870D01*
X102149428Y-78042030D01*
X101758590Y-78104368D01*
X101444824Y-78168738D01*
X101289343Y-78200135D01*
X101166299Y-78217967D01*
X101106314Y-78218768D01*
X101111431Y-78186506D01*
X101175007Y-78111816D01*
X101286321Y-78003616D01*
X101434656Y-77870824D01*
X101609291Y-77722359D01*
X101799507Y-77567138D01*
X101994585Y-77414081D01*
X102183806Y-77272106D01*
X102356451Y-77150131D01*
X102501801Y-77057074D01*
X102504465Y-77055506D01*
X102832432Y-76876151D01*
X103189964Y-76703563D01*
X103552676Y-76548115D01*
X103896181Y-76420179D01*
X104196093Y-76330129D01*
X104228036Y-76322352D01*
X104577295Y-76243897D01*
X104864580Y-76188931D01*
X105112940Y-76153274D01*
X105222385Y-76142032D01*
X105465234Y-76105154D01*
X105628464Y-76042512D01*
X105719926Y-75949377D01*
X105747500Y-75825713D01*
X105752045Y-75742130D01*
X105782138Y-75702550D01*
X105862462Y-75690523D01*
X105951608Y-75689687D01*
X106073348Y-75696466D01*
X106073348Y-75696466D01*
G37*
X106073348Y-75696466D02*
X106146362Y-75713616D01*
X106155715Y-75723806D01*
X106197979Y-75737710D01*
X106312429Y-75748991D01*
X106480547Y-75756331D01*
X106643304Y-75758484D01*
X107073730Y-75779364D01*
X107529996Y-75837289D01*
X107983289Y-75926592D01*
X108404796Y-76041601D01*
X108763444Y-76175641D01*
X109190790Y-76402828D01*
X109585341Y-76684719D01*
X109923935Y-77003689D01*
X110054606Y-77158125D01*
X110196427Y-77348131D01*
X110302953Y-77514901D01*
X110392050Y-77690244D01*
X110481583Y-77905973D01*
X110496858Y-77945619D01*
X110544028Y-78077158D01*
X110576530Y-78195599D01*
X110597020Y-78321019D01*
X110608152Y-78473497D01*
X110612580Y-78673112D01*
X110613124Y-78825000D01*
X110611451Y-79062942D01*
X110604668Y-79241593D01*
X110590130Y-79381010D01*
X110565192Y-79501248D01*
X110527209Y-79622362D01*
X110497306Y-79703145D01*
X110393153Y-79955429D01*
X110287050Y-80161142D01*
X110160175Y-80351702D01*
X109993703Y-80558529D01*
X109964424Y-80592585D01*
X109861434Y-80714388D01*
X109785742Y-80809204D01*
X109749249Y-80861904D01*
X109748046Y-80867686D01*
X109793191Y-80887527D01*
X109897790Y-80930233D01*
X110028166Y-80982188D01*
X110387096Y-81153850D01*
X110752805Y-81382572D01*
X111101626Y-81650645D01*
X111409895Y-81940357D01*
X111595579Y-82155147D01*
X111877185Y-82565429D01*
X112085718Y-82982756D01*
X112235259Y-83436197D01*
X112255502Y-83517599D01*
X112276351Y-83650805D01*
X112293676Y-83856211D01*
X112307404Y-84126701D01*
X112317465Y-84455159D01*
X112323784Y-84834467D01*
X112326289Y-85257508D01*
X112324909Y-85717167D01*
X112319571Y-86206326D01*
X112310202Y-86717868D01*
X112296731Y-87244678D01*
X112294246Y-87328046D01*
X112264403Y-88310312D01*
X111749169Y-88310312D01*
X111719326Y-87328046D01*
X111710446Y-87004944D01*
X111702609Y-86660789D01*
X111696233Y-86318838D01*
X111691735Y-86002343D01*
X111689535Y-85734560D01*
X111689384Y-85663603D01*
X111689286Y-84981426D01*
X111496518Y-84960940D01*
X111358399Y-84946303D01*
X111269209Y-84936875D01*
X111780000Y-84936875D01*
X111780000Y-86960937D01*
X112233572Y-86960937D01*
X112233572Y-84936875D01*
X111780000Y-84936875D01*
X111269209Y-84936875D01*
X111167096Y-84926081D01*
X110959488Y-84904171D01*
X110918215Y-84899820D01*
X110727959Y-84878101D01*
X110562222Y-84856202D01*
X110449594Y-84837990D01*
X110430625Y-84833870D01*
X110376211Y-84824814D01*
X110345659Y-84842346D01*
X110332098Y-84902443D01*
X110328658Y-85021080D01*
X110328572Y-85071152D01*
X110322265Y-85207776D01*
X110305510Y-85301522D01*
X110283215Y-85333750D01*
X110259864Y-85297090D01*
X110243758Y-85199044D01*
X110237858Y-85059819D01*
X110236157Y-84915402D01*
X110224979Y-84830102D01*
X110195210Y-84783661D01*
X110137737Y-84755822D01*
X110095018Y-84742319D01*
X109993567Y-84712678D01*
X109937906Y-84698877D01*
X109936268Y-84698750D01*
X109928879Y-84735304D01*
X109923315Y-84832446D01*
X109920517Y-84971390D01*
X109920358Y-85016250D01*
X109917153Y-85179156D01*
X109905526Y-85276922D01*
X109882457Y-85323642D01*
X109852322Y-85333750D01*
X109818225Y-85319297D01*
X109797394Y-85266705D01*
X109787018Y-85162118D01*
X109784286Y-84998315D01*
X109784286Y-84662880D01*
X109398149Y-84504549D01*
X109208912Y-84423693D01*
X109034782Y-84343587D01*
X108903972Y-84277412D01*
X108870091Y-84257793D01*
X108775211Y-84205537D01*
X108693655Y-84189354D01*
X108584559Y-84204857D01*
X108519175Y-84220132D01*
X108362846Y-84246478D01*
X108142297Y-84268691D01*
X107883954Y-84285629D01*
X107614246Y-84296149D01*
X107359602Y-84299109D01*
X107146450Y-84293367D01*
X107039920Y-84284071D01*
X106824295Y-84255778D01*
X106854523Y-83997614D01*
X106886038Y-83820725D01*
X106935087Y-83639298D01*
X106947273Y-83606133D01*
X107262090Y-83606133D01*
X107268501Y-83775749D01*
X107279050Y-83882574D01*
X107298954Y-83943183D01*
X107333429Y-83974154D01*
X107383160Y-83990894D01*
X107506416Y-84005736D01*
X107649840Y-84001503D01*
X107652500Y-84001199D01*
X107749112Y-83993945D01*
X107918148Y-83985338D01*
X108141352Y-83976141D01*
X108400466Y-83967119D01*
X108627679Y-83960368D01*
X108921378Y-83951741D01*
X109140088Y-83942997D01*
X109299510Y-83932211D01*
X109415348Y-83917461D01*
X109503301Y-83896821D01*
X109579073Y-83868367D01*
X109648215Y-83835301D01*
X110160132Y-83535917D01*
X110601495Y-83187553D01*
X110975886Y-82786964D01*
X111259399Y-82377665D01*
X111472444Y-82021112D01*
X111321423Y-81967192D01*
X111131453Y-81932312D01*
X110994703Y-81937855D01*
X110819004Y-81962439D01*
X110913967Y-81856804D01*
X110997854Y-81740660D01*
X111011450Y-81650352D01*
X110949950Y-81581188D01*
X110808547Y-81528474D01*
X110582435Y-81487517D01*
X110528718Y-81480580D01*
X110010883Y-81456367D01*
X109495548Y-81509811D01*
X108990119Y-81639310D01*
X108501996Y-81843263D01*
X108273664Y-81968533D01*
X107918936Y-82204703D01*
X107647939Y-82446529D01*
X107453892Y-82704989D01*
X107330015Y-82991058D01*
X107269529Y-83315713D01*
X107262090Y-83606133D01*
X106947273Y-83606133D01*
X106972728Y-83536856D01*
X107025889Y-83397442D01*
X107034238Y-83323371D01*
X106997018Y-83310603D01*
X106935950Y-83340547D01*
X106562762Y-83527488D01*
X106131757Y-83665449D01*
X105659852Y-83750438D01*
X105163966Y-83778466D01*
X105083857Y-83777406D01*
X104590893Y-83766093D01*
X104601400Y-83521481D01*
X104634311Y-83331209D01*
X105031589Y-83331209D01*
X105043977Y-83410777D01*
X105117452Y-83452101D01*
X105263904Y-83466397D01*
X105349202Y-83467043D01*
X105561843Y-83456759D01*
X105791159Y-83432025D01*
X105906250Y-83413414D01*
X106090521Y-83372339D01*
X106270079Y-83323233D01*
X106359822Y-83293488D01*
X106598222Y-83241746D01*
X106834883Y-83234993D01*
X107128515Y-83244190D01*
X107195225Y-83056232D01*
X107232488Y-82937620D01*
X107236774Y-82860899D01*
X107206935Y-82793630D01*
X107184795Y-82761559D01*
X107102275Y-82634900D01*
X107000913Y-82461389D01*
X106895550Y-82267872D01*
X106801027Y-82081199D01*
X106759510Y-81992227D01*
X106676138Y-81805861D01*
X106473881Y-81885096D01*
X106350938Y-81937258D01*
X106266537Y-81980488D01*
X106247687Y-81994706D01*
X106199322Y-82032426D01*
X106100296Y-82097218D01*
X106015566Y-82148982D01*
X105696416Y-82374740D01*
X105420200Y-82641067D01*
X105202928Y-82930158D01*
X105068402Y-83202183D01*
X105031589Y-83331209D01*
X104634311Y-83331209D01*
X104657461Y-83197373D01*
X104793646Y-82866046D01*
X105002662Y-82541486D01*
X105264634Y-82249673D01*
X105468853Y-82078291D01*
X105716134Y-81908065D01*
X105978970Y-81755448D01*
X106229850Y-81636898D01*
X106375083Y-81585436D01*
X106593492Y-81521961D01*
X106530752Y-81274808D01*
X106460760Y-80875045D01*
X106437947Y-80434236D01*
X106460289Y-79976186D01*
X106525762Y-79524699D01*
X106632343Y-79103579D01*
X106739555Y-78818570D01*
X106823319Y-78629077D01*
X106885644Y-78503500D01*
X106942185Y-78433321D01*
X107008600Y-78410021D01*
X107100543Y-78425082D01*
X107233671Y-78469985D01*
X107322211Y-78501541D01*
X107558886Y-78584716D01*
X107721746Y-78341573D01*
X107920243Y-77983254D01*
X108065078Y-77590441D01*
X108102137Y-77418274D01*
X108342856Y-77418274D01*
X108358420Y-77545952D01*
X108459794Y-77659292D01*
X108536965Y-77705502D01*
X108611971Y-77740263D01*
X108668103Y-77745108D01*
X108741420Y-77716092D01*
X108820447Y-77674497D01*
X108936189Y-77574735D01*
X108969855Y-77451253D01*
X108919199Y-77318027D01*
X108884572Y-77275359D01*
X108765676Y-77202964D01*
X108619838Y-77188577D01*
X108481198Y-77231519D01*
X108415530Y-77284680D01*
X108342856Y-77418274D01*
X108102137Y-77418274D01*
X108153001Y-77181979D01*
X108180768Y-76776711D01*
X108145132Y-76393481D01*
X108093192Y-76185781D01*
X108050471Y-76079092D01*
X108006162Y-76007708D01*
X107994887Y-75997873D01*
X107894858Y-75969052D01*
X107790687Y-75981371D01*
X107725781Y-76029465D01*
X107724966Y-76031240D01*
X107664501Y-76072551D01*
X107553026Y-76063300D01*
X107406512Y-76006461D01*
X107315088Y-75954939D01*
X107246513Y-75917630D01*
X107169985Y-75892815D01*
X107066021Y-75878035D01*
X106915136Y-75870830D01*
X106697845Y-75868742D01*
X106631965Y-75868730D01*
X106396213Y-75870209D01*
X106230275Y-75876092D01*
X106113268Y-75889233D01*
X106024310Y-75912488D01*
X105942516Y-75948711D01*
X105906250Y-75967949D01*
X105724822Y-76066718D01*
X106065000Y-76075498D01*
X106319766Y-76087426D01*
X106599896Y-76109441D01*
X106887349Y-76139164D01*
X107164083Y-76174217D01*
X107412056Y-76212221D01*
X107613229Y-76250799D01*
X107749559Y-76287572D01*
X107783341Y-76302014D01*
X107807255Y-76359545D01*
X107787961Y-76425311D01*
X107767389Y-76497342D01*
X107778355Y-76524331D01*
X107773392Y-76541143D01*
X107732422Y-76565723D01*
X107645228Y-76582501D01*
X107493449Y-76572665D01*
X107312133Y-76544194D01*
X106690286Y-76467534D01*
X106044276Y-76459012D01*
X105366668Y-76518857D01*
X104768172Y-76622012D01*
X104510425Y-76681157D01*
X104274707Y-76745710D01*
X104074505Y-76810875D01*
X103923307Y-76871854D01*
X103834600Y-76923847D01*
X103819642Y-76959433D01*
X103868576Y-76986257D01*
X103882339Y-76982515D01*
X103969181Y-76959202D01*
X104131299Y-76937359D01*
X104353257Y-76917651D01*
X104619622Y-76900742D01*
X104914959Y-76887295D01*
X105223833Y-76877975D01*
X105530811Y-76873446D01*
X105820458Y-76874372D01*
X106077340Y-76881418D01*
X106148686Y-76884992D01*
X106369313Y-76900744D01*
X106616955Y-76923624D01*
X106874699Y-76951455D01*
X107125634Y-76982058D01*
X107352850Y-77013257D01*
X107539434Y-77042875D01*
X107668475Y-77068733D01*
X107722096Y-77087573D01*
X107740274Y-77129163D01*
X107771165Y-77219084D01*
X107780995Y-77250030D01*
X107808227Y-77346724D01*
X107800368Y-77385884D01*
X107746488Y-77386483D01*
X107706364Y-77379595D01*
X107331816Y-77314289D01*
X107017530Y-77265146D01*
X106738269Y-77229962D01*
X106468799Y-77206532D01*
X106183883Y-77192653D01*
X105858287Y-77186119D01*
X105475358Y-77184719D01*
X105088454Y-77186718D01*
X104770441Y-77193180D01*
X104499543Y-77205956D01*
X104253987Y-77226893D01*
X104011996Y-77257842D01*
X103751796Y-77300651D01*
X103456965Y-77356124D01*
X103145720Y-77425193D01*
X102806153Y-77514229D01*
X102475090Y-77612798D01*
X102189361Y-77710470D01*
X102141608Y-77728701D01*
X101824108Y-77852656D01*
X101982858Y-77874574D01*
X102102902Y-77881067D01*
X102185759Y-77867871D01*
X102191138Y-77864997D01*
X102249722Y-77847559D01*
X102262363Y-77852483D01*
X102313075Y-77853276D01*
X102433310Y-77840613D01*
X102603698Y-77816844D01*
X102757118Y-77792415D01*
X103446592Y-77697685D01*
X104071353Y-77654608D01*
X104629635Y-77663292D01*
X104745583Y-77672361D01*
X105141802Y-77713789D01*
X105524776Y-77763979D01*
X105870938Y-77819418D01*
X106156720Y-77876593D01*
X106223750Y-77892697D01*
X106403406Y-77936660D01*
X106585980Y-77979306D01*
X106643881Y-77992243D01*
X106761754Y-78022954D01*
X106807350Y-78053970D01*
X106797889Y-78098560D01*
X106792888Y-78107072D01*
X106766188Y-78173826D01*
X106770728Y-78198970D01*
X106761241Y-78236281D01*
X106735114Y-78259944D01*
X106671383Y-78274283D01*
X106546411Y-78264111D01*
X106350123Y-78228330D01*
X106253781Y-78207578D01*
X105427628Y-78054148D01*
X104604913Y-77959425D01*
X103803319Y-77924860D01*
X103092761Y-77947943D01*
X102586827Y-77990870D01*
X102149428Y-78042030D01*
X101758590Y-78104368D01*
X101444824Y-78168738D01*
X101289343Y-78200135D01*
X101166299Y-78217967D01*
X101106314Y-78218768D01*
X101111431Y-78186506D01*
X101175007Y-78111816D01*
X101286321Y-78003616D01*
X101434656Y-77870824D01*
X101609291Y-77722359D01*
X101799507Y-77567138D01*
X101994585Y-77414081D01*
X102183806Y-77272106D01*
X102356451Y-77150131D01*
X102501801Y-77057074D01*
X102504465Y-77055506D01*
X102832432Y-76876151D01*
X103189964Y-76703563D01*
X103552676Y-76548115D01*
X103896181Y-76420179D01*
X104196093Y-76330129D01*
X104228036Y-76322352D01*
X104577295Y-76243897D01*
X104864580Y-76188931D01*
X105112940Y-76153274D01*
X105222385Y-76142032D01*
X105465234Y-76105154D01*
X105628464Y-76042512D01*
X105719926Y-75949377D01*
X105747500Y-75825713D01*
X105752045Y-75742130D01*
X105782138Y-75702550D01*
X105862462Y-75690523D01*
X105951608Y-75689687D01*
X106073348Y-75696466D01*
G36*
X108777785Y-77418336D02*
X108829959Y-77480013D01*
X108831786Y-77493619D01*
X108799457Y-77602889D01*
X108719371Y-77666575D01*
X108616882Y-77674813D01*
X108517340Y-77617740D01*
X108516092Y-77616435D01*
X108483881Y-77529300D01*
X108513982Y-77436551D01*
X108587334Y-77380214D01*
X108683463Y-77378832D01*
X108777785Y-77418336D01*
X108777785Y-77418336D01*
G37*
X108777785Y-77418336D02*
X108829959Y-77480013D01*
X108831786Y-77493619D01*
X108799457Y-77602889D01*
X108719371Y-77666575D01*
X108616882Y-77674813D01*
X108517340Y-77617740D01*
X108516092Y-77616435D01*
X108483881Y-77529300D01*
X108513982Y-77436551D01*
X108587334Y-77380214D01*
X108683463Y-77378832D01*
X108777785Y-77418336D01*
G36*
X116239914Y-113658463D02*
X116442887Y-113852763D01*
X116554506Y-114181929D01*
X116576789Y-114650323D01*
X116556832Y-114921177D01*
X116499833Y-115274849D01*
X116401777Y-115490187D01*
X116238040Y-115597392D01*
X115983996Y-115626665D01*
X115981584Y-115626666D01*
X115732262Y-115597706D01*
X115571312Y-115487341D01*
X115508853Y-115403257D01*
X115410476Y-115159845D01*
X115366278Y-114797548D01*
X115365001Y-114734842D01*
X115438462Y-114734842D01*
X115480266Y-115068279D01*
X115570427Y-115319898D01*
X115608408Y-115372013D01*
X115829560Y-115511168D01*
X116079984Y-115520994D01*
X116299371Y-115407981D01*
X116388987Y-115288000D01*
X116478437Y-114993662D01*
X116501960Y-114640937D01*
X116465738Y-114283199D01*
X116375953Y-113973820D01*
X116238787Y-113766173D01*
X116210158Y-113744129D01*
X115979938Y-113681894D01*
X115733534Y-113750836D01*
X115604690Y-113853428D01*
X115500525Y-114066437D01*
X115445165Y-114380568D01*
X115438462Y-114734842D01*
X115365001Y-114734842D01*
X115362470Y-114610666D01*
X115393383Y-114152512D01*
X115491260Y-113839505D01*
X115663812Y-113658167D01*
X115918749Y-113595016D01*
X115943570Y-113594666D01*
X116239914Y-113658463D01*
X116239914Y-113658463D01*
G37*
X116239914Y-113658463D02*
X116442887Y-113852763D01*
X116554506Y-114181929D01*
X116576789Y-114650323D01*
X116556832Y-114921177D01*
X116499833Y-115274849D01*
X116401777Y-115490187D01*
X116238040Y-115597392D01*
X115983996Y-115626665D01*
X115981584Y-115626666D01*
X115732262Y-115597706D01*
X115571312Y-115487341D01*
X115508853Y-115403257D01*
X115410476Y-115159845D01*
X115366278Y-114797548D01*
X115365001Y-114734842D01*
X115438462Y-114734842D01*
X115480266Y-115068279D01*
X115570427Y-115319898D01*
X115608408Y-115372013D01*
X115829560Y-115511168D01*
X116079984Y-115520994D01*
X116299371Y-115407981D01*
X116388987Y-115288000D01*
X116478437Y-114993662D01*
X116501960Y-114640937D01*
X116465738Y-114283199D01*
X116375953Y-113973820D01*
X116238787Y-113766173D01*
X116210158Y-113744129D01*
X115979938Y-113681894D01*
X115733534Y-113750836D01*
X115604690Y-113853428D01*
X115500525Y-114066437D01*
X115445165Y-114380568D01*
X115438462Y-114734842D01*
X115365001Y-114734842D01*
X115362470Y-114610666D01*
X115393383Y-114152512D01*
X115491260Y-113839505D01*
X115663812Y-113658167D01*
X115918749Y-113595016D01*
X115943570Y-113594666D01*
X116239914Y-113658463D01*
G36*
X103205333Y-115499666D02*
X103163000Y-115542000D01*
X103120666Y-115499666D01*
X103163000Y-115457333D01*
X103205333Y-115499666D01*
X103205333Y-115499666D01*
G37*
X103205333Y-115499666D02*
X103163000Y-115542000D01*
X103120666Y-115499666D01*
X103163000Y-115457333D01*
X103205333Y-115499666D01*
G36*
X102938590Y-114350601D02*
X102914657Y-114751466D01*
X102874215Y-115026898D01*
X102808152Y-115220634D01*
X102731295Y-115345434D01*
X102518345Y-115533283D01*
X102269724Y-115613810D01*
X102039067Y-115577293D01*
X101928121Y-115491027D01*
X101851548Y-115303570D01*
X101810231Y-115005368D01*
X101803173Y-114651085D01*
X101803335Y-114648876D01*
X101893000Y-114648876D01*
X101924193Y-115090250D01*
X102014023Y-115387726D01*
X102156868Y-115536079D01*
X102347104Y-115530084D01*
X102579107Y-115364515D01*
X102619074Y-115323562D01*
X102723715Y-115190314D01*
X102789590Y-115032203D01*
X102828267Y-114803410D01*
X102851313Y-114458115D01*
X102854188Y-114392229D01*
X102884043Y-113679333D01*
X102549810Y-113679333D01*
X102258215Y-113715288D01*
X102062393Y-113837970D01*
X101947287Y-114069603D01*
X101897841Y-114432413D01*
X101893000Y-114648876D01*
X101803335Y-114648876D01*
X101829382Y-114295386D01*
X101887862Y-113992933D01*
X101958451Y-113824132D01*
X102073221Y-113684334D01*
X102218029Y-113616137D01*
X102454110Y-113595311D01*
X102538375Y-113594666D01*
X102968181Y-113594666D01*
X102938590Y-114350601D01*
X102938590Y-114350601D01*
G37*
X102938590Y-114350601D02*
X102914657Y-114751466D01*
X102874215Y-115026898D01*
X102808152Y-115220634D01*
X102731295Y-115345434D01*
X102518345Y-115533283D01*
X102269724Y-115613810D01*
X102039067Y-115577293D01*
X101928121Y-115491027D01*
X101851548Y-115303570D01*
X101810231Y-115005368D01*
X101803173Y-114651085D01*
X101803335Y-114648876D01*
X101893000Y-114648876D01*
X101924193Y-115090250D01*
X102014023Y-115387726D01*
X102156868Y-115536079D01*
X102347104Y-115530084D01*
X102579107Y-115364515D01*
X102619074Y-115323562D01*
X102723715Y-115190314D01*
X102789590Y-115032203D01*
X102828267Y-114803410D01*
X102851313Y-114458115D01*
X102854188Y-114392229D01*
X102884043Y-113679333D01*
X102549810Y-113679333D01*
X102258215Y-113715288D01*
X102062393Y-113837970D01*
X101947287Y-114069603D01*
X101897841Y-114432413D01*
X101893000Y-114648876D01*
X101803335Y-114648876D01*
X101829382Y-114295386D01*
X101887862Y-113992933D01*
X101958451Y-113824132D01*
X102073221Y-113684334D01*
X102218029Y-113616137D01*
X102454110Y-113595311D01*
X102538375Y-113594666D01*
X102968181Y-113594666D01*
X102938590Y-114350601D01*
G36*
X108946205Y-113623056D02*
X109095988Y-113718209D01*
X109186669Y-113919772D01*
X109231274Y-114251006D01*
X109241550Y-114534753D01*
X109218248Y-114986984D01*
X109122847Y-115300606D01*
X108941529Y-115495997D01*
X108660474Y-115593535D01*
X108512396Y-115610026D01*
X108270691Y-115617054D01*
X108145234Y-115581119D01*
X108084122Y-115479230D01*
X108065347Y-115411998D01*
X108045956Y-115210205D01*
X108114909Y-115210205D01*
X108144433Y-115409306D01*
X108266384Y-115520795D01*
X108475166Y-115546307D01*
X108715117Y-115491354D01*
X108930577Y-115361450D01*
X108964813Y-115328048D01*
X109073426Y-115189431D01*
X109133000Y-115030682D01*
X109156092Y-114798943D01*
X109156664Y-114520573D01*
X109136782Y-114188865D01*
X109093407Y-113928945D01*
X109041173Y-113798910D01*
X108860413Y-113693344D01*
X108643063Y-113722626D01*
X108434971Y-113873691D01*
X108344901Y-113997309D01*
X108251183Y-114233179D01*
X108175678Y-114555742D01*
X108127287Y-114902313D01*
X108114909Y-115210205D01*
X108045956Y-115210205D01*
X108035569Y-115102126D01*
X108062347Y-114710408D01*
X108135906Y-114310796D01*
X108246472Y-113977246D01*
X108258285Y-113952215D01*
X108385682Y-113740879D01*
X108535297Y-113642550D01*
X108724295Y-113611052D01*
X108946205Y-113623056D01*
X108946205Y-113623056D01*
G37*
X108946205Y-113623056D02*
X109095988Y-113718209D01*
X109186669Y-113919772D01*
X109231274Y-114251006D01*
X109241550Y-114534753D01*
X109218248Y-114986984D01*
X109122847Y-115300606D01*
X108941529Y-115495997D01*
X108660474Y-115593535D01*
X108512396Y-115610026D01*
X108270691Y-115617054D01*
X108145234Y-115581119D01*
X108084122Y-115479230D01*
X108065347Y-115411998D01*
X108045956Y-115210205D01*
X108114909Y-115210205D01*
X108144433Y-115409306D01*
X108266384Y-115520795D01*
X108475166Y-115546307D01*
X108715117Y-115491354D01*
X108930577Y-115361450D01*
X108964813Y-115328048D01*
X109073426Y-115189431D01*
X109133000Y-115030682D01*
X109156092Y-114798943D01*
X109156664Y-114520573D01*
X109136782Y-114188865D01*
X109093407Y-113928945D01*
X109041173Y-113798910D01*
X108860413Y-113693344D01*
X108643063Y-113722626D01*
X108434971Y-113873691D01*
X108344901Y-113997309D01*
X108251183Y-114233179D01*
X108175678Y-114555742D01*
X108127287Y-114902313D01*
X108114909Y-115210205D01*
X108045956Y-115210205D01*
X108035569Y-115102126D01*
X108062347Y-114710408D01*
X108135906Y-114310796D01*
X108246472Y-113977246D01*
X108258285Y-113952215D01*
X108385682Y-113740879D01*
X108535297Y-113642550D01*
X108724295Y-113611052D01*
X108946205Y-113623056D01*
G36*
X105807718Y-113617084D02*
X105950989Y-113698254D01*
X106045152Y-113884192D01*
X106113918Y-114204529D01*
X106125319Y-114278019D01*
X106138651Y-114649421D01*
X106082898Y-115024137D01*
X105971424Y-115339884D01*
X105864048Y-115495856D01*
X105680711Y-115586849D01*
X105396155Y-115626207D01*
X105359898Y-115626666D01*
X105122072Y-115614709D01*
X104999670Y-115560668D01*
X104939431Y-115437289D01*
X104931544Y-115407471D01*
X104912807Y-115210246D01*
X104982232Y-115210246D01*
X105011766Y-115409306D01*
X105131633Y-115513887D01*
X105340940Y-115544904D01*
X105578267Y-115505703D01*
X105782196Y-115399631D01*
X105818653Y-115365340D01*
X105950199Y-115156292D01*
X106037560Y-114899067D01*
X106038205Y-114895670D01*
X106062054Y-114599095D01*
X106040457Y-114276782D01*
X105982281Y-113987823D01*
X105896397Y-113791310D01*
X105867789Y-113760228D01*
X105662835Y-113685842D01*
X105439997Y-113754490D01*
X105241493Y-113950901D01*
X105212381Y-113997309D01*
X105118594Y-114233164D01*
X105043034Y-114555736D01*
X104994611Y-114902328D01*
X104982232Y-115210246D01*
X104912807Y-115210246D01*
X104902484Y-115101595D01*
X104929282Y-114713186D01*
X105002130Y-114315795D01*
X105111219Y-113982971D01*
X105125618Y-113952215D01*
X105253015Y-113740879D01*
X105402630Y-113642550D01*
X105591629Y-113611052D01*
X105807718Y-113617084D01*
X105807718Y-113617084D01*
G37*
X105807718Y-113617084D02*
X105950989Y-113698254D01*
X106045152Y-113884192D01*
X106113918Y-114204529D01*
X106125319Y-114278019D01*
X106138651Y-114649421D01*
X106082898Y-115024137D01*
X105971424Y-115339884D01*
X105864048Y-115495856D01*
X105680711Y-115586849D01*
X105396155Y-115626207D01*
X105359898Y-115626666D01*
X105122072Y-115614709D01*
X104999670Y-115560668D01*
X104939431Y-115437289D01*
X104931544Y-115407471D01*
X104912807Y-115210246D01*
X104982232Y-115210246D01*
X105011766Y-115409306D01*
X105131633Y-115513887D01*
X105340940Y-115544904D01*
X105578267Y-115505703D01*
X105782196Y-115399631D01*
X105818653Y-115365340D01*
X105950199Y-115156292D01*
X106037560Y-114899067D01*
X106038205Y-114895670D01*
X106062054Y-114599095D01*
X106040457Y-114276782D01*
X105982281Y-113987823D01*
X105896397Y-113791310D01*
X105867789Y-113760228D01*
X105662835Y-113685842D01*
X105439997Y-113754490D01*
X105241493Y-113950901D01*
X105212381Y-113997309D01*
X105118594Y-114233164D01*
X105043034Y-114555736D01*
X104994611Y-114902328D01*
X104982232Y-115210246D01*
X104912807Y-115210246D01*
X104902484Y-115101595D01*
X104929282Y-114713186D01*
X105002130Y-114315795D01*
X105111219Y-113982971D01*
X105125618Y-113952215D01*
X105253015Y-113740879D01*
X105402630Y-113642550D01*
X105591629Y-113611052D01*
X105807718Y-113617084D01*
G36*
X111073552Y-111942142D02*
X111225897Y-112118140D01*
X111257747Y-112354459D01*
X111183022Y-112550787D01*
X111029235Y-112661064D01*
X110800544Y-112707644D01*
X110584180Y-112675667D01*
X110550166Y-112658598D01*
X110439898Y-112507120D01*
X110406655Y-112289455D01*
X110510173Y-112289455D01*
X110542503Y-112491151D01*
X110572245Y-112537432D01*
X110709091Y-112647992D01*
X110872502Y-112635250D01*
X111000232Y-112575687D01*
X111137168Y-112429488D01*
X111154484Y-112243329D01*
X111076009Y-112067228D01*
X110925573Y-111951205D01*
X110727002Y-111945280D01*
X110703735Y-111953309D01*
X110570117Y-112082632D01*
X110510173Y-112289455D01*
X110406655Y-112289455D01*
X110404755Y-112277018D01*
X110452781Y-112045148D01*
X110480514Y-111993055D01*
X110612171Y-111908676D01*
X110823079Y-111873115D01*
X110825333Y-111873111D01*
X111073552Y-111942142D01*
X111073552Y-111942142D01*
G37*
X111073552Y-111942142D02*
X111225897Y-112118140D01*
X111257747Y-112354459D01*
X111183022Y-112550787D01*
X111029235Y-112661064D01*
X110800544Y-112707644D01*
X110584180Y-112675667D01*
X110550166Y-112658598D01*
X110439898Y-112507120D01*
X110406655Y-112289455D01*
X110510173Y-112289455D01*
X110542503Y-112491151D01*
X110572245Y-112537432D01*
X110709091Y-112647992D01*
X110872502Y-112635250D01*
X111000232Y-112575687D01*
X111137168Y-112429488D01*
X111154484Y-112243329D01*
X111076009Y-112067228D01*
X110925573Y-111951205D01*
X110727002Y-111945280D01*
X110703735Y-111953309D01*
X110570117Y-112082632D01*
X110510173Y-112289455D01*
X110406655Y-112289455D01*
X110404755Y-112277018D01*
X110452781Y-112045148D01*
X110480514Y-111993055D01*
X110612171Y-111908676D01*
X110823079Y-111873115D01*
X110825333Y-111873111D01*
X111073552Y-111942142D01*
G36*
X116409786Y-113132087D02*
X116777542Y-113272309D01*
X117036850Y-113534729D01*
X117193879Y-113926219D01*
X117254801Y-114453651D01*
X117255933Y-114586780D01*
X117202407Y-115143920D01*
X117046944Y-115568687D01*
X116783919Y-115867985D01*
X116407709Y-116048714D01*
X116012304Y-116113180D01*
X115646541Y-116113141D01*
X115367813Y-116048197D01*
X115228000Y-115982087D01*
X114962943Y-115746204D01*
X114777923Y-115399741D01*
X114673856Y-114981828D01*
X114666710Y-114836863D01*
X114735373Y-114836863D01*
X114818227Y-115259482D01*
X114995846Y-115621745D01*
X115257023Y-115875900D01*
X115617408Y-116016791D01*
X116030597Y-116041553D01*
X116425892Y-115949901D01*
X116562273Y-115881124D01*
X116875732Y-115624090D01*
X117071547Y-115293046D01*
X117163576Y-114858684D01*
X117175016Y-114585295D01*
X117141815Y-114105782D01*
X117031851Y-113747441D01*
X116830491Y-113473922D01*
X116676707Y-113347341D01*
X116352886Y-113207985D01*
X115960946Y-113170919D01*
X115567887Y-113236373D01*
X115328910Y-113342732D01*
X115044053Y-113606823D01*
X114849421Y-113970538D01*
X114746149Y-114393883D01*
X114735373Y-114836863D01*
X114666710Y-114836863D01*
X114651660Y-114531599D01*
X114712252Y-114088184D01*
X114856548Y-113690715D01*
X115085466Y-113378325D01*
X115165411Y-113311013D01*
X115435318Y-113181410D01*
X115827186Y-113114168D01*
X115927411Y-113107191D01*
X116409786Y-113132087D01*
X116409786Y-113132087D01*
G37*
X116409786Y-113132087D02*
X116777542Y-113272309D01*
X117036850Y-113534729D01*
X117193879Y-113926219D01*
X117254801Y-114453651D01*
X117255933Y-114586780D01*
X117202407Y-115143920D01*
X117046944Y-115568687D01*
X116783919Y-115867985D01*
X116407709Y-116048714D01*
X116012304Y-116113180D01*
X115646541Y-116113141D01*
X115367813Y-116048197D01*
X115228000Y-115982087D01*
X114962943Y-115746204D01*
X114777923Y-115399741D01*
X114673856Y-114981828D01*
X114666710Y-114836863D01*
X114735373Y-114836863D01*
X114818227Y-115259482D01*
X114995846Y-115621745D01*
X115257023Y-115875900D01*
X115617408Y-116016791D01*
X116030597Y-116041553D01*
X116425892Y-115949901D01*
X116562273Y-115881124D01*
X116875732Y-115624090D01*
X117071547Y-115293046D01*
X117163576Y-114858684D01*
X117175016Y-114585295D01*
X117141815Y-114105782D01*
X117031851Y-113747441D01*
X116830491Y-113473922D01*
X116676707Y-113347341D01*
X116352886Y-113207985D01*
X115960946Y-113170919D01*
X115567887Y-113236373D01*
X115328910Y-113342732D01*
X115044053Y-113606823D01*
X114849421Y-113970538D01*
X114746149Y-114393883D01*
X114735373Y-114836863D01*
X114666710Y-114836863D01*
X114651660Y-114531599D01*
X114712252Y-114088184D01*
X114856548Y-113690715D01*
X115085466Y-113378325D01*
X115165411Y-113311013D01*
X115435318Y-113181410D01*
X115827186Y-113114168D01*
X115927411Y-113107191D01*
X116409786Y-113132087D01*
G36*
X112582166Y-111891961D02*
X112637056Y-111953894D01*
X112670987Y-112140048D01*
X112686427Y-112468542D01*
X112688000Y-112669380D01*
X112690653Y-113028763D01*
X112702070Y-113244376D01*
X112727440Y-113341746D01*
X112771949Y-113346397D01*
X112817721Y-113307706D01*
X113040680Y-113180091D01*
X113362206Y-113109324D01*
X113717651Y-113107148D01*
X113831640Y-113123534D01*
X114134287Y-113257072D01*
X114331190Y-113514254D01*
X114410469Y-113877784D01*
X114411035Y-113967030D01*
X114378013Y-114216060D01*
X114268225Y-114407949D01*
X114101793Y-114569601D01*
X113801545Y-114829145D01*
X114140194Y-115361776D01*
X114298638Y-115635318D01*
X114403617Y-115864659D01*
X114435104Y-116005113D01*
X114432745Y-116014537D01*
X114319191Y-116103915D01*
X114116734Y-116131033D01*
X113894519Y-116094415D01*
X113762555Y-116028833D01*
X113650305Y-115904301D01*
X113493269Y-115680265D01*
X113317959Y-115401349D01*
X113150886Y-115112183D01*
X113018561Y-114857391D01*
X112947496Y-114681602D01*
X112942000Y-114647583D01*
X113011622Y-114539288D01*
X113182714Y-114420647D01*
X113217951Y-114402997D01*
X113482425Y-114233584D01*
X113633115Y-114044063D01*
X113650412Y-113864315D01*
X113613827Y-113799698D01*
X113424050Y-113688498D01*
X113182702Y-113696069D01*
X112950169Y-113814146D01*
X112863478Y-113902418D01*
X112785505Y-114020828D01*
X112734447Y-114163418D01*
X112704829Y-114366900D01*
X112691174Y-114667985D01*
X112688000Y-115078692D01*
X112684256Y-115504929D01*
X112670483Y-115790572D01*
X112642862Y-115964248D01*
X112597579Y-116054583D01*
X112554075Y-116083274D01*
X112253225Y-116124982D01*
X112031833Y-116078593D01*
X111996003Y-116022134D01*
X111968631Y-115874817D01*
X111948896Y-115620907D01*
X111935977Y-115244669D01*
X111929053Y-114730367D01*
X111927296Y-114074444D01*
X111929734Y-113610324D01*
X112010655Y-113610324D01*
X112010666Y-114001231D01*
X112013199Y-114557747D01*
X112020299Y-115056986D01*
X112031220Y-115474249D01*
X112045215Y-115784836D01*
X112061538Y-115964048D01*
X112070998Y-115997442D01*
X112192925Y-116034526D01*
X112346164Y-116032720D01*
X112436395Y-116017286D01*
X112498308Y-115976744D01*
X112538910Y-115882392D01*
X112565207Y-115705528D01*
X112584205Y-115417453D01*
X112602909Y-114989464D01*
X112603333Y-114979173D01*
X112633398Y-114460113D01*
X112681860Y-114087157D01*
X112760181Y-113837221D01*
X112879824Y-113687218D01*
X113052254Y-113614062D01*
X113288934Y-113594667D01*
X113290810Y-113594666D01*
X113558353Y-113651063D01*
X113711169Y-113795253D01*
X113748434Y-113989730D01*
X113669328Y-114196991D01*
X113473027Y-114379533D01*
X113309718Y-114457664D01*
X113122549Y-114540829D01*
X113029082Y-114612698D01*
X113026666Y-114621607D01*
X113067913Y-114725387D01*
X113174830Y-114928859D01*
X113322184Y-115188851D01*
X113484743Y-115462189D01*
X113637271Y-115705701D01*
X113754537Y-115876214D01*
X113774928Y-115901833D01*
X113901757Y-115983462D01*
X114086432Y-116039187D01*
X114264691Y-116058013D01*
X114372270Y-116028944D01*
X114381333Y-116005591D01*
X114339281Y-115917640D01*
X114228164Y-115725960D01*
X114070540Y-115469226D01*
X114042666Y-115424942D01*
X113878929Y-115155550D01*
X113758705Y-114938434D01*
X113704922Y-114815369D01*
X113704000Y-114807939D01*
X113766151Y-114709582D01*
X113919840Y-114568696D01*
X113962255Y-114536241D01*
X114231050Y-114261820D01*
X114339020Y-113960537D01*
X114288821Y-113660393D01*
X114088718Y-113373005D01*
X113797572Y-113208000D01*
X113449344Y-113173540D01*
X113077999Y-113277782D01*
X112960625Y-113341284D01*
X112809870Y-113426075D01*
X112709615Y-113445969D01*
X112648040Y-113378374D01*
X112613330Y-113200701D01*
X112593667Y-112890359D01*
X112583836Y-112621000D01*
X112569051Y-112284601D01*
X112546303Y-112084852D01*
X112505964Y-111989079D01*
X112438404Y-111964605D01*
X112391666Y-111968855D01*
X112270726Y-111988046D01*
X112178523Y-112018828D01*
X112111160Y-112081976D01*
X112064744Y-112198264D01*
X112035380Y-112388469D01*
X112019174Y-112673363D01*
X112012230Y-113073724D01*
X112010655Y-113610324D01*
X111929734Y-113610324D01*
X111930254Y-113511499D01*
X111937841Y-113003251D01*
X111949282Y-112574829D01*
X111963803Y-112251363D01*
X111980627Y-112057985D01*
X111990796Y-112015835D01*
X112125197Y-111934420D01*
X112362823Y-111890780D01*
X112582166Y-111891961D01*
X112582166Y-111891961D01*
G37*
X112582166Y-111891961D02*
X112637056Y-111953894D01*
X112670987Y-112140048D01*
X112686427Y-112468542D01*
X112688000Y-112669380D01*
X112690653Y-113028763D01*
X112702070Y-113244376D01*
X112727440Y-113341746D01*
X112771949Y-113346397D01*
X112817721Y-113307706D01*
X113040680Y-113180091D01*
X113362206Y-113109324D01*
X113717651Y-113107148D01*
X113831640Y-113123534D01*
X114134287Y-113257072D01*
X114331190Y-113514254D01*
X114410469Y-113877784D01*
X114411035Y-113967030D01*
X114378013Y-114216060D01*
X114268225Y-114407949D01*
X114101793Y-114569601D01*
X113801545Y-114829145D01*
X114140194Y-115361776D01*
X114298638Y-115635318D01*
X114403617Y-115864659D01*
X114435104Y-116005113D01*
X114432745Y-116014537D01*
X114319191Y-116103915D01*
X114116734Y-116131033D01*
X113894519Y-116094415D01*
X113762555Y-116028833D01*
X113650305Y-115904301D01*
X113493269Y-115680265D01*
X113317959Y-115401349D01*
X113150886Y-115112183D01*
X113018561Y-114857391D01*
X112947496Y-114681602D01*
X112942000Y-114647583D01*
X113011622Y-114539288D01*
X113182714Y-114420647D01*
X113217951Y-114402997D01*
X113482425Y-114233584D01*
X113633115Y-114044063D01*
X113650412Y-113864315D01*
X113613827Y-113799698D01*
X113424050Y-113688498D01*
X113182702Y-113696069D01*
X112950169Y-113814146D01*
X112863478Y-113902418D01*
X112785505Y-114020828D01*
X112734447Y-114163418D01*
X112704829Y-114366900D01*
X112691174Y-114667985D01*
X112688000Y-115078692D01*
X112684256Y-115504929D01*
X112670483Y-115790572D01*
X112642862Y-115964248D01*
X112597579Y-116054583D01*
X112554075Y-116083274D01*
X112253225Y-116124982D01*
X112031833Y-116078593D01*
X111996003Y-116022134D01*
X111968631Y-115874817D01*
X111948896Y-115620907D01*
X111935977Y-115244669D01*
X111929053Y-114730367D01*
X111927296Y-114074444D01*
X111929734Y-113610324D01*
X112010655Y-113610324D01*
X112010666Y-114001231D01*
X112013199Y-114557747D01*
X112020299Y-115056986D01*
X112031220Y-115474249D01*
X112045215Y-115784836D01*
X112061538Y-115964048D01*
X112070998Y-115997442D01*
X112192925Y-116034526D01*
X112346164Y-116032720D01*
X112436395Y-116017286D01*
X112498308Y-115976744D01*
X112538910Y-115882392D01*
X112565207Y-115705528D01*
X112584205Y-115417453D01*
X112602909Y-114989464D01*
X112603333Y-114979173D01*
X112633398Y-114460113D01*
X112681860Y-114087157D01*
X112760181Y-113837221D01*
X112879824Y-113687218D01*
X113052254Y-113614062D01*
X113288934Y-113594667D01*
X113290810Y-113594666D01*
X113558353Y-113651063D01*
X113711169Y-113795253D01*
X113748434Y-113989730D01*
X113669328Y-114196991D01*
X113473027Y-114379533D01*
X113309718Y-114457664D01*
X113122549Y-114540829D01*
X113029082Y-114612698D01*
X113026666Y-114621607D01*
X113067913Y-114725387D01*
X113174830Y-114928859D01*
X113322184Y-115188851D01*
X113484743Y-115462189D01*
X113637271Y-115705701D01*
X113754537Y-115876214D01*
X113774928Y-115901833D01*
X113901757Y-115983462D01*
X114086432Y-116039187D01*
X114264691Y-116058013D01*
X114372270Y-116028944D01*
X114381333Y-116005591D01*
X114339281Y-115917640D01*
X114228164Y-115725960D01*
X114070540Y-115469226D01*
X114042666Y-115424942D01*
X113878929Y-115155550D01*
X113758705Y-114938434D01*
X113704922Y-114815369D01*
X113704000Y-114807939D01*
X113766151Y-114709582D01*
X113919840Y-114568696D01*
X113962255Y-114536241D01*
X114231050Y-114261820D01*
X114339020Y-113960537D01*
X114288821Y-113660393D01*
X114088718Y-113373005D01*
X113797572Y-113208000D01*
X113449344Y-113173540D01*
X113077999Y-113277782D01*
X112960625Y-113341284D01*
X112809870Y-113426075D01*
X112709615Y-113445969D01*
X112648040Y-113378374D01*
X112613330Y-113200701D01*
X112593667Y-112890359D01*
X112583836Y-112621000D01*
X112569051Y-112284601D01*
X112546303Y-112084852D01*
X112505964Y-111989079D01*
X112438404Y-111964605D01*
X112391666Y-111968855D01*
X112270726Y-111988046D01*
X112178523Y-112018828D01*
X112111160Y-112081976D01*
X112064744Y-112198264D01*
X112035380Y-112388469D01*
X112019174Y-112673363D01*
X112012230Y-113073724D01*
X112010655Y-113610324D01*
X111929734Y-113610324D01*
X111930254Y-113511499D01*
X111937841Y-113003251D01*
X111949282Y-112574829D01*
X111963803Y-112251363D01*
X111980627Y-112057985D01*
X111990796Y-112015835D01*
X112125197Y-111934420D01*
X112362823Y-111890780D01*
X112582166Y-111891961D01*
G36*
X111164000Y-114322259D02*
X111165717Y-114785675D01*
X111173333Y-115107064D01*
X111190542Y-115313718D01*
X111221037Y-115432929D01*
X111268514Y-115491990D01*
X111325505Y-115515420D01*
X111483826Y-115628961D01*
X111533564Y-115813746D01*
X111457151Y-115998227D01*
X111446748Y-116009156D01*
X111227092Y-116118665D01*
X110950414Y-116103090D01*
X110783000Y-116033494D01*
X110620400Y-115917891D01*
X110551463Y-115845569D01*
X110529740Y-115732526D01*
X110511149Y-115482002D01*
X110497151Y-115125838D01*
X110489207Y-114695878D01*
X110487963Y-114462500D01*
X110486752Y-113256000D01*
X110571333Y-113256000D01*
X110571333Y-114480368D01*
X110572874Y-114962157D01*
X110580111Y-115304184D01*
X110596966Y-115536008D01*
X110627359Y-115687190D01*
X110675211Y-115787292D01*
X110744444Y-115865874D01*
X110756631Y-115877368D01*
X110992292Y-116018985D01*
X111231394Y-116038933D01*
X111394450Y-115955016D01*
X111452398Y-115811157D01*
X111401276Y-115675378D01*
X111291000Y-115626666D01*
X111209358Y-115602742D01*
X111151191Y-115515698D01*
X111112821Y-115342625D01*
X111090573Y-115060615D01*
X111080771Y-114646759D01*
X111079333Y-114307408D01*
X111079333Y-113256000D01*
X110571333Y-113256000D01*
X110486752Y-113256000D01*
X110486666Y-113171333D01*
X111164000Y-113171333D01*
X111164000Y-114322259D01*
X111164000Y-114322259D01*
G37*
X111164000Y-114322259D02*
X111165717Y-114785675D01*
X111173333Y-115107064D01*
X111190542Y-115313718D01*
X111221037Y-115432929D01*
X111268514Y-115491990D01*
X111325505Y-115515420D01*
X111483826Y-115628961D01*
X111533564Y-115813746D01*
X111457151Y-115998227D01*
X111446748Y-116009156D01*
X111227092Y-116118665D01*
X110950414Y-116103090D01*
X110783000Y-116033494D01*
X110620400Y-115917891D01*
X110551463Y-115845569D01*
X110529740Y-115732526D01*
X110511149Y-115482002D01*
X110497151Y-115125838D01*
X110489207Y-114695878D01*
X110487963Y-114462500D01*
X110486752Y-113256000D01*
X110571333Y-113256000D01*
X110571333Y-114480368D01*
X110572874Y-114962157D01*
X110580111Y-115304184D01*
X110596966Y-115536008D01*
X110627359Y-115687190D01*
X110675211Y-115787292D01*
X110744444Y-115865874D01*
X110756631Y-115877368D01*
X110992292Y-116018985D01*
X111231394Y-116038933D01*
X111394450Y-115955016D01*
X111452398Y-115811157D01*
X111401276Y-115675378D01*
X111291000Y-115626666D01*
X111209358Y-115602742D01*
X111151191Y-115515698D01*
X111112821Y-115342625D01*
X111090573Y-115060615D01*
X111080771Y-114646759D01*
X111079333Y-114307408D01*
X111079333Y-113256000D01*
X110571333Y-113256000D01*
X110486752Y-113256000D01*
X110486666Y-113171333D01*
X111164000Y-113171333D01*
X111164000Y-114322259D01*
G36*
X103139735Y-113165652D02*
X103201165Y-113178349D01*
X103628666Y-113270031D01*
X103630686Y-114130849D01*
X103639810Y-114622143D01*
X103669942Y-115007442D01*
X103729201Y-115349593D01*
X103825707Y-115711442D01*
X103841682Y-115764087D01*
X103850762Y-115897253D01*
X103750652Y-115987486D01*
X103615392Y-116041940D01*
X103387575Y-116085938D01*
X103229651Y-116009474D01*
X103098395Y-115789728D01*
X103086705Y-115762826D01*
X103013199Y-115736996D01*
X102928585Y-115813838D01*
X102686497Y-115995608D01*
X102353462Y-116103983D01*
X101997583Y-116123687D01*
X101766000Y-116074601D01*
X101466541Y-115877254D01*
X101247947Y-115545827D01*
X101119759Y-115099818D01*
X101088666Y-114690505D01*
X101090871Y-114669725D01*
X101173333Y-114669725D01*
X101194735Y-115025512D01*
X101251409Y-115326862D01*
X101298641Y-115454062D01*
X101542009Y-115780143D01*
X101852624Y-115982187D01*
X102196341Y-116046658D01*
X102539014Y-115960025D01*
X102554732Y-115951896D01*
X102748749Y-115809800D01*
X102847816Y-115701443D01*
X102983725Y-115604631D01*
X103125641Y-115616194D01*
X103203501Y-115726155D01*
X103205333Y-115752358D01*
X103275017Y-115913449D01*
X103444499Y-115984889D01*
X103596829Y-115962258D01*
X103697387Y-115913156D01*
X103736170Y-115835978D01*
X103718909Y-115684105D01*
X103660329Y-115445557D01*
X103607765Y-115153957D01*
X103567561Y-114761573D01*
X103546000Y-114336844D01*
X103544000Y-114177940D01*
X103541992Y-113776898D01*
X103517586Y-113513228D01*
X103443209Y-113355047D01*
X103291287Y-113270472D01*
X103034247Y-113227619D01*
X102697333Y-113198952D01*
X102377486Y-113181854D01*
X102161093Y-113202409D01*
X101984257Y-113272441D01*
X101852681Y-113355257D01*
X101491557Y-113666238D01*
X101274228Y-114024162D01*
X101180632Y-114467850D01*
X101173333Y-114669725D01*
X101090871Y-114669725D01*
X101148623Y-114125540D01*
X101326107Y-113681488D01*
X101617539Y-113360912D01*
X102019341Y-113166372D01*
X102527932Y-113100432D01*
X103139735Y-113165652D01*
X103139735Y-113165652D01*
G37*
X103139735Y-113165652D02*
X103201165Y-113178349D01*
X103628666Y-113270031D01*
X103630686Y-114130849D01*
X103639810Y-114622143D01*
X103669942Y-115007442D01*
X103729201Y-115349593D01*
X103825707Y-115711442D01*
X103841682Y-115764087D01*
X103850762Y-115897253D01*
X103750652Y-115987486D01*
X103615392Y-116041940D01*
X103387575Y-116085938D01*
X103229651Y-116009474D01*
X103098395Y-115789728D01*
X103086705Y-115762826D01*
X103013199Y-115736996D01*
X102928585Y-115813838D01*
X102686497Y-115995608D01*
X102353462Y-116103983D01*
X101997583Y-116123687D01*
X101766000Y-116074601D01*
X101466541Y-115877254D01*
X101247947Y-115545827D01*
X101119759Y-115099818D01*
X101088666Y-114690505D01*
X101090871Y-114669725D01*
X101173333Y-114669725D01*
X101194735Y-115025512D01*
X101251409Y-115326862D01*
X101298641Y-115454062D01*
X101542009Y-115780143D01*
X101852624Y-115982187D01*
X102196341Y-116046658D01*
X102539014Y-115960025D01*
X102554732Y-115951896D01*
X102748749Y-115809800D01*
X102847816Y-115701443D01*
X102983725Y-115604631D01*
X103125641Y-115616194D01*
X103203501Y-115726155D01*
X103205333Y-115752358D01*
X103275017Y-115913449D01*
X103444499Y-115984889D01*
X103596829Y-115962258D01*
X103697387Y-115913156D01*
X103736170Y-115835978D01*
X103718909Y-115684105D01*
X103660329Y-115445557D01*
X103607765Y-115153957D01*
X103567561Y-114761573D01*
X103546000Y-114336844D01*
X103544000Y-114177940D01*
X103541992Y-113776898D01*
X103517586Y-113513228D01*
X103443209Y-113355047D01*
X103291287Y-113270472D01*
X103034247Y-113227619D01*
X102697333Y-113198952D01*
X102377486Y-113181854D01*
X102161093Y-113202409D01*
X101984257Y-113272441D01*
X101852681Y-113355257D01*
X101491557Y-113666238D01*
X101274228Y-114024162D01*
X101180632Y-114467850D01*
X101173333Y-114669725D01*
X101090871Y-114669725D01*
X101148623Y-114125540D01*
X101326107Y-113681488D01*
X101617539Y-113360912D01*
X102019341Y-113166372D01*
X102527932Y-113100432D01*
X103139735Y-113165652D01*
G36*
X109113637Y-113119334D02*
X109440455Y-113244541D01*
X109690051Y-113494522D01*
X109861450Y-113856601D01*
X109948751Y-114289756D01*
X109946054Y-114752959D01*
X109847457Y-115205188D01*
X109754293Y-115426405D01*
X109508168Y-115738578D01*
X109148683Y-115976559D01*
X108725225Y-116112918D01*
X108479060Y-116134666D01*
X108116000Y-116134666D01*
X108116000Y-116675941D01*
X108105268Y-116993653D01*
X108067867Y-117177634D01*
X107995992Y-117262430D01*
X107982075Y-117268608D01*
X107773797Y-117313002D01*
X107556133Y-117312081D01*
X107413685Y-117266593D01*
X107410444Y-117263555D01*
X107392788Y-117164957D01*
X107377390Y-116924291D01*
X107365177Y-116568816D01*
X107357073Y-116125791D01*
X107354004Y-115622476D01*
X107354000Y-115601211D01*
X107348383Y-114983107D01*
X107332332Y-114452427D01*
X107307045Y-114032767D01*
X107273721Y-113747722D01*
X107255768Y-113667443D01*
X107194735Y-113431856D01*
X107196685Y-113419274D01*
X107293073Y-113419274D01*
X107307266Y-113571598D01*
X107342547Y-113682875D01*
X107378388Y-113876637D01*
X107406795Y-114219474D01*
X107426758Y-114691246D01*
X107437269Y-115271817D01*
X107438666Y-115602331D01*
X107438666Y-117246062D01*
X107989000Y-117193000D01*
X108039070Y-116050000D01*
X108424572Y-116050000D01*
X108740316Y-116017284D01*
X109043334Y-115936063D01*
X109105593Y-115909767D01*
X109433734Y-115678846D01*
X109669229Y-115361737D01*
X109814742Y-114987571D01*
X109872936Y-114585478D01*
X109846475Y-114184591D01*
X109738023Y-113814041D01*
X109550244Y-113502958D01*
X109285801Y-113280473D01*
X108947360Y-113175719D01*
X108855181Y-113171333D01*
X108600278Y-113218942D01*
X108356377Y-113338872D01*
X108177289Y-113496775D01*
X108116000Y-113643145D01*
X108074845Y-113741956D01*
X107977197Y-113719869D01*
X107861781Y-113596012D01*
X107803602Y-113488833D01*
X107669835Y-113298486D01*
X107498531Y-113270201D01*
X107363714Y-113332871D01*
X107293073Y-113419274D01*
X107196685Y-113419274D01*
X107214161Y-113306565D01*
X107341386Y-113241080D01*
X107506548Y-113204323D01*
X107700703Y-113185987D01*
X107804914Y-113258653D01*
X107859999Y-113377738D01*
X107946249Y-113604593D01*
X108141940Y-113377090D01*
X108403480Y-113191077D01*
X108747338Y-113103121D01*
X109113637Y-113119334D01*
X109113637Y-113119334D01*
G37*
X109113637Y-113119334D02*
X109440455Y-113244541D01*
X109690051Y-113494522D01*
X109861450Y-113856601D01*
X109948751Y-114289756D01*
X109946054Y-114752959D01*
X109847457Y-115205188D01*
X109754293Y-115426405D01*
X109508168Y-115738578D01*
X109148683Y-115976559D01*
X108725225Y-116112918D01*
X108479060Y-116134666D01*
X108116000Y-116134666D01*
X108116000Y-116675941D01*
X108105268Y-116993653D01*
X108067867Y-117177634D01*
X107995992Y-117262430D01*
X107982075Y-117268608D01*
X107773797Y-117313002D01*
X107556133Y-117312081D01*
X107413685Y-117266593D01*
X107410444Y-117263555D01*
X107392788Y-117164957D01*
X107377390Y-116924291D01*
X107365177Y-116568816D01*
X107357073Y-116125791D01*
X107354004Y-115622476D01*
X107354000Y-115601211D01*
X107348383Y-114983107D01*
X107332332Y-114452427D01*
X107307045Y-114032767D01*
X107273721Y-113747722D01*
X107255768Y-113667443D01*
X107194735Y-113431856D01*
X107196685Y-113419274D01*
X107293073Y-113419274D01*
X107307266Y-113571598D01*
X107342547Y-113682875D01*
X107378388Y-113876637D01*
X107406795Y-114219474D01*
X107426758Y-114691246D01*
X107437269Y-115271817D01*
X107438666Y-115602331D01*
X107438666Y-117246062D01*
X107989000Y-117193000D01*
X108039070Y-116050000D01*
X108424572Y-116050000D01*
X108740316Y-116017284D01*
X109043334Y-115936063D01*
X109105593Y-115909767D01*
X109433734Y-115678846D01*
X109669229Y-115361737D01*
X109814742Y-114987571D01*
X109872936Y-114585478D01*
X109846475Y-114184591D01*
X109738023Y-113814041D01*
X109550244Y-113502958D01*
X109285801Y-113280473D01*
X108947360Y-113175719D01*
X108855181Y-113171333D01*
X108600278Y-113218942D01*
X108356377Y-113338872D01*
X108177289Y-113496775D01*
X108116000Y-113643145D01*
X108074845Y-113741956D01*
X107977197Y-113719869D01*
X107861781Y-113596012D01*
X107803602Y-113488833D01*
X107669835Y-113298486D01*
X107498531Y-113270201D01*
X107363714Y-113332871D01*
X107293073Y-113419274D01*
X107196685Y-113419274D01*
X107214161Y-113306565D01*
X107341386Y-113241080D01*
X107506548Y-113204323D01*
X107700703Y-113185987D01*
X107804914Y-113258653D01*
X107859999Y-113377738D01*
X107946249Y-113604593D01*
X108141940Y-113377090D01*
X108403480Y-113191077D01*
X108747338Y-113103121D01*
X109113637Y-113119334D01*
G36*
X106103057Y-113144874D02*
X106389623Y-113288619D01*
X106477243Y-113372266D01*
X106699530Y-113745163D01*
X106815913Y-114192238D01*
X106829693Y-114669854D01*
X106744172Y-115134375D01*
X106562652Y-115542165D01*
X106289902Y-115848469D01*
X106002113Y-116009092D01*
X105632292Y-116096601D01*
X105497947Y-116111521D01*
X104990548Y-116157530D01*
X104941000Y-117277666D01*
X104634404Y-117303294D01*
X104327809Y-117328921D01*
X104282476Y-115652294D01*
X104260644Y-115039233D01*
X104231254Y-114505597D01*
X104196179Y-114075940D01*
X104157292Y-113774818D01*
X104130388Y-113658238D01*
X104063229Y-113427318D01*
X104069845Y-113386464D01*
X104170397Y-113386464D01*
X104174912Y-113539328D01*
X104276101Y-114018337D01*
X104345476Y-114657711D01*
X104382506Y-115451398D01*
X104388964Y-115986500D01*
X104390666Y-117235333D01*
X104898666Y-117235333D01*
X104898666Y-116070352D01*
X105391036Y-116034737D01*
X105885635Y-115936120D01*
X106266143Y-115716053D01*
X106543081Y-115367743D01*
X106600006Y-115254042D01*
X106744783Y-114763304D01*
X106749239Y-114270812D01*
X106618188Y-113815715D01*
X106379601Y-113461075D01*
X106166537Y-113269418D01*
X105961600Y-113185721D01*
X105767920Y-113171333D01*
X105485357Y-113217032D01*
X105227288Y-113334102D01*
X105043667Y-113492501D01*
X104983333Y-113643145D01*
X104915425Y-113750030D01*
X104856333Y-113764000D01*
X104751291Y-113694107D01*
X104729333Y-113605033D01*
X104658486Y-113400976D01*
X104483072Y-113291463D01*
X104302322Y-113299500D01*
X104170397Y-113386464D01*
X104069845Y-113386464D01*
X104083138Y-113304386D01*
X104217725Y-113238879D01*
X104378797Y-113203340D01*
X104573625Y-113183419D01*
X104679331Y-113255564D01*
X104748777Y-113408185D01*
X104819157Y-113577468D01*
X104868214Y-113601979D01*
X104931971Y-113496274D01*
X104937822Y-113484562D01*
X105131380Y-113269777D01*
X105423638Y-113139122D01*
X105764296Y-113096264D01*
X106103057Y-113144874D01*
X106103057Y-113144874D01*
G37*
X106103057Y-113144874D02*
X106389623Y-113288619D01*
X106477243Y-113372266D01*
X106699530Y-113745163D01*
X106815913Y-114192238D01*
X106829693Y-114669854D01*
X106744172Y-115134375D01*
X106562652Y-115542165D01*
X106289902Y-115848469D01*
X106002113Y-116009092D01*
X105632292Y-116096601D01*
X105497947Y-116111521D01*
X104990548Y-116157530D01*
X104941000Y-117277666D01*
X104634404Y-117303294D01*
X104327809Y-117328921D01*
X104282476Y-115652294D01*
X104260644Y-115039233D01*
X104231254Y-114505597D01*
X104196179Y-114075940D01*
X104157292Y-113774818D01*
X104130388Y-113658238D01*
X104063229Y-113427318D01*
X104069845Y-113386464D01*
X104170397Y-113386464D01*
X104174912Y-113539328D01*
X104276101Y-114018337D01*
X104345476Y-114657711D01*
X104382506Y-115451398D01*
X104388964Y-115986500D01*
X104390666Y-117235333D01*
X104898666Y-117235333D01*
X104898666Y-116070352D01*
X105391036Y-116034737D01*
X105885635Y-115936120D01*
X106266143Y-115716053D01*
X106543081Y-115367743D01*
X106600006Y-115254042D01*
X106744783Y-114763304D01*
X106749239Y-114270812D01*
X106618188Y-113815715D01*
X106379601Y-113461075D01*
X106166537Y-113269418D01*
X105961600Y-113185721D01*
X105767920Y-113171333D01*
X105485357Y-113217032D01*
X105227288Y-113334102D01*
X105043667Y-113492501D01*
X104983333Y-113643145D01*
X104915425Y-113750030D01*
X104856333Y-113764000D01*
X104751291Y-113694107D01*
X104729333Y-113605033D01*
X104658486Y-113400976D01*
X104483072Y-113291463D01*
X104302322Y-113299500D01*
X104170397Y-113386464D01*
X104069845Y-113386464D01*
X104083138Y-113304386D01*
X104217725Y-113238879D01*
X104378797Y-113203340D01*
X104573625Y-113183419D01*
X104679331Y-113255564D01*
X104748777Y-113408185D01*
X104819157Y-113577468D01*
X104868214Y-113601979D01*
X104931971Y-113496274D01*
X104937822Y-113484562D01*
X105131380Y-113269777D01*
X105423638Y-113139122D01*
X105764296Y-113096264D01*
X106103057Y-113144874D01*
G04 #@! TO.C,J1*
D12*
X106116666Y-117802380D02*
X106116666Y-118516666D01*
X106069047Y-118659523D01*
X105973809Y-118754761D01*
X105830952Y-118802380D01*
X105735714Y-118802380D01*
X107116666Y-118802380D02*
X106545238Y-118802380D01*
X106830952Y-118802380D02*
X106830952Y-117802380D01*
X106735714Y-117945238D01*
X106640476Y-118040476D01*
X106545238Y-118088095D01*
G04 #@! TO.C,Y1*
X117876190Y-107376190D02*
X118352380Y-107376190D01*
X117352380Y-107709523D02*
X117876190Y-107376190D01*
X117352380Y-107042857D01*
X118352380Y-106185714D02*
X118352380Y-106757142D01*
X118352380Y-106471428D02*
X117352380Y-106471428D01*
X117495238Y-106566666D01*
X117590476Y-106661904D01*
X117638095Y-106757142D01*
G04 #@! TO.C,*
G04 #@! TO.C,R9*
X107233333Y-99652380D02*
X106900000Y-99176190D01*
X106661904Y-99652380D02*
X106661904Y-98652380D01*
X107042857Y-98652380D01*
X107138095Y-98700000D01*
X107185714Y-98747619D01*
X107233333Y-98842857D01*
X107233333Y-98985714D01*
X107185714Y-99080952D01*
X107138095Y-99128571D01*
X107042857Y-99176190D01*
X106661904Y-99176190D01*
X107709523Y-99652380D02*
X107900000Y-99652380D01*
X107995238Y-99604761D01*
X108042857Y-99557142D01*
X108138095Y-99414285D01*
X108185714Y-99223809D01*
X108185714Y-98842857D01*
X108138095Y-98747619D01*
X108090476Y-98700000D01*
X107995238Y-98652380D01*
X107804761Y-98652380D01*
X107709523Y-98700000D01*
X107661904Y-98747619D01*
X107614285Y-98842857D01*
X107614285Y-99080952D01*
X107661904Y-99176190D01*
X107709523Y-99223809D01*
X107804761Y-99271428D01*
X107995238Y-99271428D01*
X108090476Y-99223809D01*
X108138095Y-99176190D01*
X108185714Y-99080952D01*
G04 #@! TO.C,D1*
X119261904Y-134702380D02*
X119261904Y-133702380D01*
X119500000Y-133702380D01*
X119642857Y-133750000D01*
X119738095Y-133845238D01*
X119785714Y-133940476D01*
X119833333Y-134130952D01*
X119833333Y-134273809D01*
X119785714Y-134464285D01*
X119738095Y-134559523D01*
X119642857Y-134654761D01*
X119500000Y-134702380D01*
X119261904Y-134702380D01*
X120785714Y-134702380D02*
X120214285Y-134702380D01*
X120500000Y-134702380D02*
X120500000Y-133702380D01*
X120404761Y-133845238D01*
X120309523Y-133940476D01*
X120214285Y-133988095D01*
G04 #@! TO.C,D2*
X119291904Y-86912380D02*
X119291904Y-85912380D01*
X119530000Y-85912380D01*
X119672857Y-85960000D01*
X119768095Y-86055238D01*
X119815714Y-86150476D01*
X119863333Y-86340952D01*
X119863333Y-86483809D01*
X119815714Y-86674285D01*
X119768095Y-86769523D01*
X119672857Y-86864761D01*
X119530000Y-86912380D01*
X119291904Y-86912380D01*
X120244285Y-86007619D02*
X120291904Y-85960000D01*
X120387142Y-85912380D01*
X120625238Y-85912380D01*
X120720476Y-85960000D01*
X120768095Y-86007619D01*
X120815714Y-86102857D01*
X120815714Y-86198095D01*
X120768095Y-86340952D01*
X120196666Y-86912380D01*
X120815714Y-86912380D01*
G04 #@! TO.C,Q1*
X133904761Y-85647619D02*
X133809523Y-85600000D01*
X133714285Y-85504761D01*
X133571428Y-85361904D01*
X133476190Y-85314285D01*
X133380952Y-85314285D01*
X133428571Y-85552380D02*
X133333333Y-85504761D01*
X133238095Y-85409523D01*
X133190476Y-85219047D01*
X133190476Y-84885714D01*
X133238095Y-84695238D01*
X133333333Y-84600000D01*
X133428571Y-84552380D01*
X133619047Y-84552380D01*
X133714285Y-84600000D01*
X133809523Y-84695238D01*
X133857142Y-84885714D01*
X133857142Y-85219047D01*
X133809523Y-85409523D01*
X133714285Y-85504761D01*
X133619047Y-85552380D01*
X133428571Y-85552380D01*
X134809523Y-85552380D02*
X134238095Y-85552380D01*
X134523809Y-85552380D02*
X134523809Y-84552380D01*
X134428571Y-84695238D01*
X134333333Y-84790476D01*
X134238095Y-84838095D01*
G04 #@! TO.C,Q2*
X108904761Y-142847619D02*
X108809523Y-142800000D01*
X108714285Y-142704761D01*
X108571428Y-142561904D01*
X108476190Y-142514285D01*
X108380952Y-142514285D01*
X108428571Y-142752380D02*
X108333333Y-142704761D01*
X108238095Y-142609523D01*
X108190476Y-142419047D01*
X108190476Y-142085714D01*
X108238095Y-141895238D01*
X108333333Y-141800000D01*
X108428571Y-141752380D01*
X108619047Y-141752380D01*
X108714285Y-141800000D01*
X108809523Y-141895238D01*
X108857142Y-142085714D01*
X108857142Y-142419047D01*
X108809523Y-142609523D01*
X108714285Y-142704761D01*
X108619047Y-142752380D01*
X108428571Y-142752380D01*
X109238095Y-141847619D02*
X109285714Y-141800000D01*
X109380952Y-141752380D01*
X109619047Y-141752380D01*
X109714285Y-141800000D01*
X109761904Y-141847619D01*
X109809523Y-141942857D01*
X109809523Y-142038095D01*
X109761904Y-142180952D01*
X109190476Y-142752380D01*
X109809523Y-142752380D01*
G04 #@! TO.C,Q3*
X109104761Y-132947619D02*
X109009523Y-132900000D01*
X108914285Y-132804761D01*
X108771428Y-132661904D01*
X108676190Y-132614285D01*
X108580952Y-132614285D01*
X108628571Y-132852380D02*
X108533333Y-132804761D01*
X108438095Y-132709523D01*
X108390476Y-132519047D01*
X108390476Y-132185714D01*
X108438095Y-131995238D01*
X108533333Y-131900000D01*
X108628571Y-131852380D01*
X108819047Y-131852380D01*
X108914285Y-131900000D01*
X109009523Y-131995238D01*
X109057142Y-132185714D01*
X109057142Y-132519047D01*
X109009523Y-132709523D01*
X108914285Y-132804761D01*
X108819047Y-132852380D01*
X108628571Y-132852380D01*
X109390476Y-131852380D02*
X110009523Y-131852380D01*
X109676190Y-132233333D01*
X109819047Y-132233333D01*
X109914285Y-132280952D01*
X109961904Y-132328571D01*
X110009523Y-132423809D01*
X110009523Y-132661904D01*
X109961904Y-132757142D01*
X109914285Y-132804761D01*
X109819047Y-132852380D01*
X109533333Y-132852380D01*
X109438095Y-132804761D01*
X109390476Y-132757142D01*
G04 #@! TO.C,U1*
D14*
X122119047Y-110426190D02*
X122119047Y-110830952D01*
X122142857Y-110878571D01*
X122166666Y-110902380D01*
X122214285Y-110926190D01*
X122309523Y-110926190D01*
X122357142Y-110902380D01*
X122380952Y-110878571D01*
X122404761Y-110830952D01*
X122404761Y-110426190D01*
X122904761Y-110926190D02*
X122619047Y-110926190D01*
X122761904Y-110926190D02*
X122761904Y-110426190D01*
X122714285Y-110497619D01*
X122666666Y-110545238D01*
X122619047Y-110569047D01*
D12*
X138116666Y-111192857D02*
X138116666Y-110716666D01*
X138402380Y-111288095D02*
X137402380Y-110954761D01*
X138402380Y-110621428D01*
X138402380Y-110288095D02*
X137402380Y-110288095D01*
X138402380Y-109716666D01*
X137402380Y-109716666D01*
X137402380Y-109383333D02*
X137402380Y-108811904D01*
X138402380Y-109097619D02*
X137402380Y-109097619D01*
G04 #@! TO.C,C1*
X131533333Y-103087142D02*
X131485714Y-103134761D01*
X131342857Y-103182380D01*
X131247619Y-103182380D01*
X131104761Y-103134761D01*
X131009523Y-103039523D01*
X130961904Y-102944285D01*
X130914285Y-102753809D01*
X130914285Y-102610952D01*
X130961904Y-102420476D01*
X131009523Y-102325238D01*
X131104761Y-102230000D01*
X131247619Y-102182380D01*
X131342857Y-102182380D01*
X131485714Y-102230000D01*
X131533333Y-102277619D01*
X132485714Y-103182380D02*
X131914285Y-103182380D01*
X132200000Y-103182380D02*
X132200000Y-102182380D01*
X132104761Y-102325238D01*
X132009523Y-102420476D01*
X131914285Y-102468095D01*
G04 #@! TO.C,C4*
X122433333Y-103057142D02*
X122385714Y-103104761D01*
X122242857Y-103152380D01*
X122147619Y-103152380D01*
X122004761Y-103104761D01*
X121909523Y-103009523D01*
X121861904Y-102914285D01*
X121814285Y-102723809D01*
X121814285Y-102580952D01*
X121861904Y-102390476D01*
X121909523Y-102295238D01*
X122004761Y-102200000D01*
X122147619Y-102152380D01*
X122242857Y-102152380D01*
X122385714Y-102200000D01*
X122433333Y-102247619D01*
X123290476Y-102485714D02*
X123290476Y-103152380D01*
X123052380Y-102104761D02*
X122814285Y-102819047D01*
X123433333Y-102819047D01*
G04 #@! TO.C,C5*
X115033333Y-104257142D02*
X114985714Y-104304761D01*
X114842857Y-104352380D01*
X114747619Y-104352380D01*
X114604761Y-104304761D01*
X114509523Y-104209523D01*
X114461904Y-104114285D01*
X114414285Y-103923809D01*
X114414285Y-103780952D01*
X114461904Y-103590476D01*
X114509523Y-103495238D01*
X114604761Y-103400000D01*
X114747619Y-103352380D01*
X114842857Y-103352380D01*
X114985714Y-103400000D01*
X115033333Y-103447619D01*
X115938095Y-103352380D02*
X115461904Y-103352380D01*
X115414285Y-103828571D01*
X115461904Y-103780952D01*
X115557142Y-103733333D01*
X115795238Y-103733333D01*
X115890476Y-103780952D01*
X115938095Y-103828571D01*
X115985714Y-103923809D01*
X115985714Y-104161904D01*
X115938095Y-104257142D01*
X115890476Y-104304761D01*
X115795238Y-104352380D01*
X115557142Y-104352380D01*
X115461904Y-104304761D01*
X115414285Y-104257142D01*
G04 #@! TO.C,C6*
X124733333Y-103057142D02*
X124685714Y-103104761D01*
X124542857Y-103152380D01*
X124447619Y-103152380D01*
X124304761Y-103104761D01*
X124209523Y-103009523D01*
X124161904Y-102914285D01*
X124114285Y-102723809D01*
X124114285Y-102580952D01*
X124161904Y-102390476D01*
X124209523Y-102295238D01*
X124304761Y-102200000D01*
X124447619Y-102152380D01*
X124542857Y-102152380D01*
X124685714Y-102200000D01*
X124733333Y-102247619D01*
X125590476Y-102152380D02*
X125400000Y-102152380D01*
X125304761Y-102200000D01*
X125257142Y-102247619D01*
X125161904Y-102390476D01*
X125114285Y-102580952D01*
X125114285Y-102961904D01*
X125161904Y-103057142D01*
X125209523Y-103104761D01*
X125304761Y-103152380D01*
X125495238Y-103152380D01*
X125590476Y-103104761D01*
X125638095Y-103057142D01*
X125685714Y-102961904D01*
X125685714Y-102723809D01*
X125638095Y-102628571D01*
X125590476Y-102580952D01*
X125495238Y-102533333D01*
X125304761Y-102533333D01*
X125209523Y-102580952D01*
X125161904Y-102628571D01*
X125114285Y-102723809D01*
G04 #@! TO.C,C7*
X115033333Y-110357142D02*
X114985714Y-110404761D01*
X114842857Y-110452380D01*
X114747619Y-110452380D01*
X114604761Y-110404761D01*
X114509523Y-110309523D01*
X114461904Y-110214285D01*
X114414285Y-110023809D01*
X114414285Y-109880952D01*
X114461904Y-109690476D01*
X114509523Y-109595238D01*
X114604761Y-109500000D01*
X114747619Y-109452380D01*
X114842857Y-109452380D01*
X114985714Y-109500000D01*
X115033333Y-109547619D01*
X115366666Y-109452380D02*
X116033333Y-109452380D01*
X115604761Y-110452380D01*
G04 #@! TO.C,C8*
X129233333Y-85457142D02*
X129185714Y-85504761D01*
X129042857Y-85552380D01*
X128947619Y-85552380D01*
X128804761Y-85504761D01*
X128709523Y-85409523D01*
X128661904Y-85314285D01*
X128614285Y-85123809D01*
X128614285Y-84980952D01*
X128661904Y-84790476D01*
X128709523Y-84695238D01*
X128804761Y-84600000D01*
X128947619Y-84552380D01*
X129042857Y-84552380D01*
X129185714Y-84600000D01*
X129233333Y-84647619D01*
X129804761Y-84980952D02*
X129709523Y-84933333D01*
X129661904Y-84885714D01*
X129614285Y-84790476D01*
X129614285Y-84742857D01*
X129661904Y-84647619D01*
X129709523Y-84600000D01*
X129804761Y-84552380D01*
X129995238Y-84552380D01*
X130090476Y-84600000D01*
X130138095Y-84647619D01*
X130185714Y-84742857D01*
X130185714Y-84790476D01*
X130138095Y-84885714D01*
X130090476Y-84933333D01*
X129995238Y-84980952D01*
X129804761Y-84980952D01*
X129709523Y-85028571D01*
X129661904Y-85076190D01*
X129614285Y-85171428D01*
X129614285Y-85361904D01*
X129661904Y-85457142D01*
X129709523Y-85504761D01*
X129804761Y-85552380D01*
X129995238Y-85552380D01*
X130090476Y-85504761D01*
X130138095Y-85457142D01*
X130185714Y-85361904D01*
X130185714Y-85171428D01*
X130138095Y-85076190D01*
X130090476Y-85028571D01*
X129995238Y-84980952D01*
G04 #@! TO.C,R1*
X104733333Y-142752380D02*
X104400000Y-142276190D01*
X104161904Y-142752380D02*
X104161904Y-141752380D01*
X104542857Y-141752380D01*
X104638095Y-141800000D01*
X104685714Y-141847619D01*
X104733333Y-141942857D01*
X104733333Y-142085714D01*
X104685714Y-142180952D01*
X104638095Y-142228571D01*
X104542857Y-142276190D01*
X104161904Y-142276190D01*
X105685714Y-142752380D02*
X105114285Y-142752380D01*
X105400000Y-142752380D02*
X105400000Y-141752380D01*
X105304761Y-141895238D01*
X105209523Y-141990476D01*
X105114285Y-142038095D01*
G04 #@! TO.C,R2*
X112833333Y-132952380D02*
X112500000Y-132476190D01*
X112261904Y-132952380D02*
X112261904Y-131952380D01*
X112642857Y-131952380D01*
X112738095Y-132000000D01*
X112785714Y-132047619D01*
X112833333Y-132142857D01*
X112833333Y-132285714D01*
X112785714Y-132380952D01*
X112738095Y-132428571D01*
X112642857Y-132476190D01*
X112261904Y-132476190D01*
X113214285Y-132047619D02*
X113261904Y-132000000D01*
X113357142Y-131952380D01*
X113595238Y-131952380D01*
X113690476Y-132000000D01*
X113738095Y-132047619D01*
X113785714Y-132142857D01*
X113785714Y-132238095D01*
X113738095Y-132380952D01*
X113166666Y-132952380D01*
X113785714Y-132952380D01*
G04 #@! TO.C,R3*
X112833333Y-142752380D02*
X112500000Y-142276190D01*
X112261904Y-142752380D02*
X112261904Y-141752380D01*
X112642857Y-141752380D01*
X112738095Y-141800000D01*
X112785714Y-141847619D01*
X112833333Y-141942857D01*
X112833333Y-142085714D01*
X112785714Y-142180952D01*
X112738095Y-142228571D01*
X112642857Y-142276190D01*
X112261904Y-142276190D01*
X113166666Y-141752380D02*
X113785714Y-141752380D01*
X113452380Y-142133333D01*
X113595238Y-142133333D01*
X113690476Y-142180952D01*
X113738095Y-142228571D01*
X113785714Y-142323809D01*
X113785714Y-142561904D01*
X113738095Y-142657142D01*
X113690476Y-142704761D01*
X113595238Y-142752380D01*
X113309523Y-142752380D01*
X113214285Y-142704761D01*
X113166666Y-142657142D01*
G04 #@! TO.C,R4*
X104733333Y-132952380D02*
X104400000Y-132476190D01*
X104161904Y-132952380D02*
X104161904Y-131952380D01*
X104542857Y-131952380D01*
X104638095Y-132000000D01*
X104685714Y-132047619D01*
X104733333Y-132142857D01*
X104733333Y-132285714D01*
X104685714Y-132380952D01*
X104638095Y-132428571D01*
X104542857Y-132476190D01*
X104161904Y-132476190D01*
X105590476Y-132285714D02*
X105590476Y-132952380D01*
X105352380Y-131904761D02*
X105114285Y-132619047D01*
X105733333Y-132619047D01*
G04 #@! TO.C,R6*
X107133333Y-93352380D02*
X106800000Y-92876190D01*
X106561904Y-93352380D02*
X106561904Y-92352380D01*
X106942857Y-92352380D01*
X107038095Y-92400000D01*
X107085714Y-92447619D01*
X107133333Y-92542857D01*
X107133333Y-92685714D01*
X107085714Y-92780952D01*
X107038095Y-92828571D01*
X106942857Y-92876190D01*
X106561904Y-92876190D01*
X107990476Y-92352380D02*
X107800000Y-92352380D01*
X107704761Y-92400000D01*
X107657142Y-92447619D01*
X107561904Y-92590476D01*
X107514285Y-92780952D01*
X107514285Y-93161904D01*
X107561904Y-93257142D01*
X107609523Y-93304761D01*
X107704761Y-93352380D01*
X107895238Y-93352380D01*
X107990476Y-93304761D01*
X108038095Y-93257142D01*
X108085714Y-93161904D01*
X108085714Y-92923809D01*
X108038095Y-92828571D01*
X107990476Y-92780952D01*
X107895238Y-92733333D01*
X107704761Y-92733333D01*
X107609523Y-92780952D01*
X107561904Y-92828571D01*
X107514285Y-92923809D01*
G04 #@! TO.C,L1*
X129333333Y-103132380D02*
X128857142Y-103132380D01*
X128857142Y-102132380D01*
X130190476Y-103132380D02*
X129619047Y-103132380D01*
X129904761Y-103132380D02*
X129904761Y-102132380D01*
X129809523Y-102275238D01*
X129714285Y-102370476D01*
X129619047Y-102418095D01*
G04 #@! TO.C,L2*
X127033333Y-103162380D02*
X126557142Y-103162380D01*
X126557142Y-102162380D01*
X127319047Y-102257619D02*
X127366666Y-102210000D01*
X127461904Y-102162380D01*
X127700000Y-102162380D01*
X127795238Y-102210000D01*
X127842857Y-102257619D01*
X127890476Y-102352857D01*
X127890476Y-102448095D01*
X127842857Y-102590952D01*
X127271428Y-103162380D01*
X127890476Y-103162380D01*
G04 #@! TO.C,U2*
X119238095Y-91052380D02*
X119238095Y-91861904D01*
X119285714Y-91957142D01*
X119333333Y-92004761D01*
X119428571Y-92052380D01*
X119619047Y-92052380D01*
X119714285Y-92004761D01*
X119761904Y-91957142D01*
X119809523Y-91861904D01*
X119809523Y-91052380D01*
X120238095Y-91147619D02*
X120285714Y-91100000D01*
X120380952Y-91052380D01*
X120619047Y-91052380D01*
X120714285Y-91100000D01*
X120761904Y-91147619D01*
X120809523Y-91242857D01*
X120809523Y-91338095D01*
X120761904Y-91480952D01*
X120190476Y-92052380D01*
X120809523Y-92052380D01*
G04 #@! TO.C,C2*
X119833333Y-130457142D02*
X119785714Y-130504761D01*
X119642857Y-130552380D01*
X119547619Y-130552380D01*
X119404761Y-130504761D01*
X119309523Y-130409523D01*
X119261904Y-130314285D01*
X119214285Y-130123809D01*
X119214285Y-129980952D01*
X119261904Y-129790476D01*
X119309523Y-129695238D01*
X119404761Y-129600000D01*
X119547619Y-129552380D01*
X119642857Y-129552380D01*
X119785714Y-129600000D01*
X119833333Y-129647619D01*
X120214285Y-129647619D02*
X120261904Y-129600000D01*
X120357142Y-129552380D01*
X120595238Y-129552380D01*
X120690476Y-129600000D01*
X120738095Y-129647619D01*
X120785714Y-129742857D01*
X120785714Y-129838095D01*
X120738095Y-129980952D01*
X120166666Y-130552380D01*
X120785714Y-130552380D01*
G04 #@! TO.C,C3*
X126033333Y-85457142D02*
X125985714Y-85504761D01*
X125842857Y-85552380D01*
X125747619Y-85552380D01*
X125604761Y-85504761D01*
X125509523Y-85409523D01*
X125461904Y-85314285D01*
X125414285Y-85123809D01*
X125414285Y-84980952D01*
X125461904Y-84790476D01*
X125509523Y-84695238D01*
X125604761Y-84600000D01*
X125747619Y-84552380D01*
X125842857Y-84552380D01*
X125985714Y-84600000D01*
X126033333Y-84647619D01*
X126366666Y-84552380D02*
X126985714Y-84552380D01*
X126652380Y-84933333D01*
X126795238Y-84933333D01*
X126890476Y-84980952D01*
X126938095Y-85028571D01*
X126985714Y-85123809D01*
X126985714Y-85361904D01*
X126938095Y-85457142D01*
X126890476Y-85504761D01*
X126795238Y-85552380D01*
X126509523Y-85552380D01*
X126414285Y-85504761D01*
X126366666Y-85457142D01*
G04 #@! TO.C,Q5*
X107204761Y-96547619D02*
X107109523Y-96500000D01*
X107014285Y-96404761D01*
X106871428Y-96261904D01*
X106776190Y-96214285D01*
X106680952Y-96214285D01*
X106728571Y-96452380D02*
X106633333Y-96404761D01*
X106538095Y-96309523D01*
X106490476Y-96119047D01*
X106490476Y-95785714D01*
X106538095Y-95595238D01*
X106633333Y-95500000D01*
X106728571Y-95452380D01*
X106919047Y-95452380D01*
X107014285Y-95500000D01*
X107109523Y-95595238D01*
X107157142Y-95785714D01*
X107157142Y-96119047D01*
X107109523Y-96309523D01*
X107014285Y-96404761D01*
X106919047Y-96452380D01*
X106728571Y-96452380D01*
X108061904Y-95452380D02*
X107585714Y-95452380D01*
X107538095Y-95928571D01*
X107585714Y-95880952D01*
X107680952Y-95833333D01*
X107919047Y-95833333D01*
X108014285Y-95880952D01*
X108061904Y-95928571D01*
X108109523Y-96023809D01*
X108109523Y-96261904D01*
X108061904Y-96357142D01*
X108014285Y-96404761D01*
X107919047Y-96452380D01*
X107680952Y-96452380D01*
X107585714Y-96404761D01*
X107538095Y-96357142D01*
G04 #@! TO.C,SW1*
X118566666Y-119404761D02*
X118709523Y-119452380D01*
X118947619Y-119452380D01*
X119042857Y-119404761D01*
X119090476Y-119357142D01*
X119138095Y-119261904D01*
X119138095Y-119166666D01*
X119090476Y-119071428D01*
X119042857Y-119023809D01*
X118947619Y-118976190D01*
X118757142Y-118928571D01*
X118661904Y-118880952D01*
X118614285Y-118833333D01*
X118566666Y-118738095D01*
X118566666Y-118642857D01*
X118614285Y-118547619D01*
X118661904Y-118500000D01*
X118757142Y-118452380D01*
X118995238Y-118452380D01*
X119138095Y-118500000D01*
X119471428Y-118452380D02*
X119709523Y-119452380D01*
X119900000Y-118738095D01*
X120090476Y-119452380D01*
X120328571Y-118452380D01*
X121233333Y-119452380D02*
X120661904Y-119452380D01*
X120947619Y-119452380D02*
X120947619Y-118452380D01*
X120852380Y-118595238D01*
X120757142Y-118690476D01*
X120661904Y-118738095D01*
G04 #@! TO.C,P1*
D15*
X128637571Y-131244714D02*
X128637571Y-130482714D01*
X128927857Y-130482714D01*
X129000428Y-130519000D01*
X129036714Y-130555285D01*
X129073000Y-130627857D01*
X129073000Y-130736714D01*
X129036714Y-130809285D01*
X129000428Y-130845571D01*
X128927857Y-130881857D01*
X128637571Y-130881857D01*
X129798714Y-131244714D02*
X129363285Y-131244714D01*
X129581000Y-131244714D02*
X129581000Y-130482714D01*
X129508428Y-130591571D01*
X129435857Y-130664142D01*
X129363285Y-130700428D01*
G04 #@! TO.C,Q4*
D12*
X130504761Y-87147619D02*
X130409523Y-87100000D01*
X130314285Y-87004761D01*
X130171428Y-86861904D01*
X130076190Y-86814285D01*
X129980952Y-86814285D01*
X130028571Y-87052380D02*
X129933333Y-87004761D01*
X129838095Y-86909523D01*
X129790476Y-86719047D01*
X129790476Y-86385714D01*
X129838095Y-86195238D01*
X129933333Y-86100000D01*
X130028571Y-86052380D01*
X130219047Y-86052380D01*
X130314285Y-86100000D01*
X130409523Y-86195238D01*
X130457142Y-86385714D01*
X130457142Y-86719047D01*
X130409523Y-86909523D01*
X130314285Y-87004761D01*
X130219047Y-87052380D01*
X130028571Y-87052380D01*
X131314285Y-86385714D02*
X131314285Y-87052380D01*
X131076190Y-86004761D02*
X130838095Y-86719047D01*
X131457142Y-86719047D01*
G04 #@! TO.C,R5*
X135533333Y-89552380D02*
X135200000Y-89076190D01*
X134961904Y-89552380D02*
X134961904Y-88552380D01*
X135342857Y-88552380D01*
X135438095Y-88600000D01*
X135485714Y-88647619D01*
X135533333Y-88742857D01*
X135533333Y-88885714D01*
X135485714Y-88980952D01*
X135438095Y-89028571D01*
X135342857Y-89076190D01*
X134961904Y-89076190D01*
X136438095Y-88552380D02*
X135961904Y-88552380D01*
X135914285Y-89028571D01*
X135961904Y-88980952D01*
X136057142Y-88933333D01*
X136295238Y-88933333D01*
X136390476Y-88980952D01*
X136438095Y-89028571D01*
X136485714Y-89123809D01*
X136485714Y-89361904D01*
X136438095Y-89457142D01*
X136390476Y-89504761D01*
X136295238Y-89552380D01*
X136057142Y-89552380D01*
X135961904Y-89504761D01*
X135914285Y-89457142D01*
G04 #@! TO.C,R7*
X125833333Y-87152380D02*
X125500000Y-86676190D01*
X125261904Y-87152380D02*
X125261904Y-86152380D01*
X125642857Y-86152380D01*
X125738095Y-86200000D01*
X125785714Y-86247619D01*
X125833333Y-86342857D01*
X125833333Y-86485714D01*
X125785714Y-86580952D01*
X125738095Y-86628571D01*
X125642857Y-86676190D01*
X125261904Y-86676190D01*
X126166666Y-86152380D02*
X126833333Y-86152380D01*
X126404761Y-87152380D01*
G04 #@! TO.C,R8*
X125833333Y-91982380D02*
X125500000Y-91506190D01*
X125261904Y-91982380D02*
X125261904Y-90982380D01*
X125642857Y-90982380D01*
X125738095Y-91030000D01*
X125785714Y-91077619D01*
X125833333Y-91172857D01*
X125833333Y-91315714D01*
X125785714Y-91410952D01*
X125738095Y-91458571D01*
X125642857Y-91506190D01*
X125261904Y-91506190D01*
X126404761Y-91410952D02*
X126309523Y-91363333D01*
X126261904Y-91315714D01*
X126214285Y-91220476D01*
X126214285Y-91172857D01*
X126261904Y-91077619D01*
X126309523Y-91030000D01*
X126404761Y-90982380D01*
X126595238Y-90982380D01*
X126690476Y-91030000D01*
X126738095Y-91077619D01*
X126785714Y-91172857D01*
X126785714Y-91220476D01*
X126738095Y-91315714D01*
X126690476Y-91363333D01*
X126595238Y-91410952D01*
X126404761Y-91410952D01*
X126309523Y-91458571D01*
X126261904Y-91506190D01*
X126214285Y-91601428D01*
X126214285Y-91791904D01*
X126261904Y-91887142D01*
X126309523Y-91934761D01*
X126404761Y-91982380D01*
X126595238Y-91982380D01*
X126690476Y-91934761D01*
X126738095Y-91887142D01*
X126785714Y-91791904D01*
X126785714Y-91601428D01*
X126738095Y-91506190D01*
X126690476Y-91458571D01*
X126595238Y-91410952D01*
G04 #@! TD*
M02*
