G04 #@! TF.GenerationSoftware,KiCad,Pcbnew,5.0.2-bee76a0~70~ubuntu16.04.1*
G04 #@! TF.CreationDate,2018-12-01T12:07:59+05:30*
G04 #@! TF.ProjectId,senseBeRx_rev2,73656e73-6542-4655-9278-5f726576322e,rev?*
G04 #@! TF.SameCoordinates,Original*
G04 #@! TF.FileFunction,Copper,L2,Bot*
G04 #@! TF.FilePolarity,Positive*
%FSLAX46Y46*%
G04 Gerber Fmt 4.6, Leading zero omitted, Abs format (unit mm)*
G04 Created by KiCad (PCBNEW 5.0.2-bee76a0~70~ubuntu16.04.1) date Sat Dec  1 12:07:59 2018*
%MOMM*%
%LPD*%
G01*
G04 APERTURE LIST*
G04 #@! TA.AperFunction,Conductor*
%ADD10C,0.100000*%
G04 #@! TD*
G04 #@! TA.AperFunction,ComponentPad*
%ADD11C,3.000000*%
G04 #@! TD*
G04 #@! TA.AperFunction,ComponentPad*
%ADD12R,1.800000X1.800000*%
G04 #@! TD*
G04 #@! TA.AperFunction,ComponentPad*
%ADD13C,1.800000*%
G04 #@! TD*
G04 #@! TA.AperFunction,ComponentPad*
%ADD14C,2.000000*%
G04 #@! TD*
G04 #@! TA.AperFunction,WasherPad*
%ADD15C,1.600000*%
G04 #@! TD*
G04 #@! TA.AperFunction,ComponentPad*
%ADD16C,1.600000*%
G04 #@! TD*
G04 #@! TA.AperFunction,ComponentPad*
%ADD17C,1.000000*%
G04 #@! TD*
G04 #@! TA.AperFunction,ViaPad*
%ADD18C,0.800000*%
G04 #@! TD*
G04 #@! TA.AperFunction,Conductor*
%ADD19C,0.250000*%
G04 #@! TD*
G04 #@! TA.AperFunction,Conductor*
%ADD20C,0.254000*%
G04 #@! TD*
G04 APERTURE END LIST*
D10*
G04 #@! TO.N,Net-(BT1-Pad1)*
G04 #@! TO.C,BT1*
G36*
X127573513Y-76403611D02*
X127646318Y-76414411D01*
X127717714Y-76432295D01*
X127787013Y-76457090D01*
X127853548Y-76488559D01*
X127916678Y-76526398D01*
X127975795Y-76570242D01*
X128030330Y-76619670D01*
X128079758Y-76674205D01*
X128123602Y-76733322D01*
X128161441Y-76796452D01*
X128192910Y-76862987D01*
X128217705Y-76932286D01*
X128235589Y-77003682D01*
X128246389Y-77076487D01*
X128250000Y-77150000D01*
X128250000Y-78650000D01*
X128246389Y-78723513D01*
X128235589Y-78796318D01*
X128217705Y-78867714D01*
X128192910Y-78937013D01*
X128161441Y-79003548D01*
X128123602Y-79066678D01*
X128079758Y-79125795D01*
X128030330Y-79180330D01*
X127975795Y-79229758D01*
X127916678Y-79273602D01*
X127853548Y-79311441D01*
X127787013Y-79342910D01*
X127717714Y-79367705D01*
X127646318Y-79385589D01*
X127573513Y-79396389D01*
X127500000Y-79400000D01*
X125000000Y-79400000D01*
X124926487Y-79396389D01*
X124853682Y-79385589D01*
X124782286Y-79367705D01*
X124712987Y-79342910D01*
X124646452Y-79311441D01*
X124583322Y-79273602D01*
X124524205Y-79229758D01*
X124469670Y-79180330D01*
X124420242Y-79125795D01*
X124376398Y-79066678D01*
X124338559Y-79003548D01*
X124307090Y-78937013D01*
X124282295Y-78867714D01*
X124264411Y-78796318D01*
X124253611Y-78723513D01*
X124250000Y-78650000D01*
X124250000Y-77150000D01*
X124253611Y-77076487D01*
X124264411Y-77003682D01*
X124282295Y-76932286D01*
X124307090Y-76862987D01*
X124338559Y-76796452D01*
X124376398Y-76733322D01*
X124420242Y-76674205D01*
X124469670Y-76619670D01*
X124524205Y-76570242D01*
X124583322Y-76526398D01*
X124646452Y-76488559D01*
X124712987Y-76457090D01*
X124782286Y-76432295D01*
X124853682Y-76414411D01*
X124926487Y-76403611D01*
X125000000Y-76400000D01*
X127500000Y-76400000D01*
X127573513Y-76403611D01*
X127573513Y-76403611D01*
G37*
D11*
G04 #@! TD*
G04 #@! TO.P,BT1,1*
G04 #@! TO.N,Net-(BT1-Pad1)*
X126250000Y-77900000D03*
D10*
G04 #@! TO.N,GND*
G04 #@! TO.C,BT1*
G36*
X115073513Y-76403611D02*
X115146318Y-76414411D01*
X115217714Y-76432295D01*
X115287013Y-76457090D01*
X115353548Y-76488559D01*
X115416678Y-76526398D01*
X115475795Y-76570242D01*
X115530330Y-76619670D01*
X115579758Y-76674205D01*
X115623602Y-76733322D01*
X115661441Y-76796452D01*
X115692910Y-76862987D01*
X115717705Y-76932286D01*
X115735589Y-77003682D01*
X115746389Y-77076487D01*
X115750000Y-77150000D01*
X115750000Y-78650000D01*
X115746389Y-78723513D01*
X115735589Y-78796318D01*
X115717705Y-78867714D01*
X115692910Y-78937013D01*
X115661441Y-79003548D01*
X115623602Y-79066678D01*
X115579758Y-79125795D01*
X115530330Y-79180330D01*
X115475795Y-79229758D01*
X115416678Y-79273602D01*
X115353548Y-79311441D01*
X115287013Y-79342910D01*
X115217714Y-79367705D01*
X115146318Y-79385589D01*
X115073513Y-79396389D01*
X115000000Y-79400000D01*
X112500000Y-79400000D01*
X112426487Y-79396389D01*
X112353682Y-79385589D01*
X112282286Y-79367705D01*
X112212987Y-79342910D01*
X112146452Y-79311441D01*
X112083322Y-79273602D01*
X112024205Y-79229758D01*
X111969670Y-79180330D01*
X111920242Y-79125795D01*
X111876398Y-79066678D01*
X111838559Y-79003548D01*
X111807090Y-78937013D01*
X111782295Y-78867714D01*
X111764411Y-78796318D01*
X111753611Y-78723513D01*
X111750000Y-78650000D01*
X111750000Y-77150000D01*
X111753611Y-77076487D01*
X111764411Y-77003682D01*
X111782295Y-76932286D01*
X111807090Y-76862987D01*
X111838559Y-76796452D01*
X111876398Y-76733322D01*
X111920242Y-76674205D01*
X111969670Y-76619670D01*
X112024205Y-76570242D01*
X112083322Y-76526398D01*
X112146452Y-76488559D01*
X112212987Y-76457090D01*
X112282286Y-76432295D01*
X112353682Y-76414411D01*
X112426487Y-76403611D01*
X112500000Y-76400000D01*
X115000000Y-76400000D01*
X115073513Y-76403611D01*
X115073513Y-76403611D01*
G37*
D11*
G04 #@! TD*
G04 #@! TO.P,BT1,2*
G04 #@! TO.N,GND*
X113750000Y-77900000D03*
D12*
G04 #@! TO.P,D2,1*
G04 #@! TO.N,/LIGHT_SENSE*
X121300000Y-82500000D03*
D13*
G04 #@! TO.P,D2,2*
G04 #@! TO.N,GND*
X118760000Y-82500000D03*
G04 #@! TD*
D12*
G04 #@! TO.P,U2,1*
G04 #@! TO.N,/RX_OUT*
X117500000Y-93600000D03*
D13*
G04 #@! TO.P,U2,2*
G04 #@! TO.N,Net-(Q5-Pad3)*
X120040000Y-93600000D03*
G04 #@! TO.P,U2,3*
G04 #@! TO.N,VDD*
X122580000Y-93600000D03*
G04 #@! TD*
D14*
G04 #@! TO.P,SW1,2*
G04 #@! TO.N,/BUTTON*
X123200000Y-121400000D03*
G04 #@! TO.P,SW1,1*
G04 #@! TO.N,GND*
X123200000Y-125900000D03*
G04 #@! TO.P,SW1,2*
G04 #@! TO.N,/BUTTON*
X116700000Y-121400000D03*
G04 #@! TO.P,SW1,1*
G04 #@! TO.N,GND*
X116700000Y-125900000D03*
G04 #@! TD*
D15*
G04 #@! TO.P,P1,*
G04 #@! TO.N,*
X131030000Y-138520000D03*
X133570000Y-123280000D03*
D16*
G04 #@! TO.P,P1,1*
G04 #@! TO.N,/SWDIO*
X131030000Y-125820000D03*
G04 #@! TO.P,P1,3*
G04 #@! TO.N,/SWDCLK*
X131030000Y-128360000D03*
G04 #@! TO.P,P1,5*
G04 #@! TO.N,/RESET*
X131030000Y-130900000D03*
G04 #@! TO.P,P1,7*
G04 #@! TO.N,/GPIO2*
X131030000Y-133440000D03*
G04 #@! TO.P,P1,9*
G04 #@! TO.N,GND*
X131030000Y-135980000D03*
G04 #@! TO.P,P1,10*
X133570000Y-135980000D03*
G04 #@! TO.P,P1,8*
G04 #@! TO.N,/RX*
X133570000Y-133440000D03*
G04 #@! TO.P,P1,6*
G04 #@! TO.N,/GPIO1*
X133570000Y-130900000D03*
G04 #@! TO.P,P1,4*
G04 #@! TO.N,VDD*
X133570000Y-128360000D03*
G04 #@! TO.P,P1,2*
G04 #@! TO.N,/TX*
X133570000Y-125820000D03*
D15*
G04 #@! TO.P,P1,*
G04 #@! TO.N,*
X131030000Y-123280000D03*
G04 #@! TD*
D17*
G04 #@! TO.P,Y1,1*
G04 #@! TO.N,/LFCLK_XL1*
X120500000Y-106000000D03*
G04 #@! TO.P,Y1,2*
G04 #@! TO.N,/LFCLK_XL2*
X120500000Y-107900000D03*
G04 #@! TD*
D18*
G04 #@! TO.N,GND*
X123100000Y-115000000D03*
X123900000Y-115800000D03*
X122900000Y-105000000D03*
X122900000Y-104200000D03*
X123700000Y-104200000D03*
X135500000Y-103600000D03*
X134700000Y-103600000D03*
X135500000Y-102800000D03*
X134700000Y-102800000D03*
X135500000Y-107000000D03*
X134700000Y-107000000D03*
X134700000Y-107800000D03*
X135500000Y-107800000D03*
X133100000Y-107400000D03*
X131300000Y-110000000D03*
X127900000Y-110000000D03*
X126200000Y-112400000D03*
X130300000Y-112400000D03*
X126200000Y-107500000D03*
X130300000Y-107500000D03*
X135400000Y-116500000D03*
X135400000Y-117400000D03*
X101829999Y-120500000D03*
X107500000Y-141600000D03*
X123100000Y-115800000D03*
X131700000Y-97600000D03*
X113600000Y-92900000D03*
X117100000Y-102600000D03*
G04 #@! TO.N,VDD*
X108300000Y-129700000D03*
X121600000Y-134600000D03*
G04 #@! TO.N,/LIGHT_SENSE*
X122676189Y-108983070D03*
X123800000Y-90100000D03*
G04 #@! TO.N,/CAM_JACK*
X112700000Y-129700000D03*
X123923624Y-116799723D03*
G04 #@! TO.N,/TRIGGER*
X123900000Y-119200000D03*
X114100000Y-119800000D03*
G04 #@! TO.N,/FOCUS*
X123894117Y-117799290D03*
X114100000Y-117800000D03*
G04 #@! TO.N,/SWDIO*
X134200000Y-120900000D03*
X129000000Y-125800000D03*
G04 #@! TO.N,/SWDCLK*
X133475000Y-120000000D03*
X128200000Y-128300000D03*
G04 #@! TO.N,/RESET*
X132775000Y-119200000D03*
X127500000Y-130900000D03*
G04 #@! TO.N,/GPIO2*
X130675000Y-116680154D03*
X127500000Y-133500000D03*
G04 #@! TO.N,/GPIO1*
X131375000Y-117400000D03*
X135000000Y-130900000D03*
G04 #@! TO.N,/TX*
X132075000Y-118200000D03*
X135000000Y-125800000D03*
G04 #@! TO.N,/LED_GREEN*
X133612653Y-103712653D03*
X103700000Y-138400000D03*
G04 #@! TO.N,/LED_RED*
X102800000Y-134000000D03*
X131500000Y-86800000D03*
G04 #@! TO.N,/RX_EN*
X122600000Y-111400000D03*
X112300000Y-100700000D03*
G04 #@! TO.N,/RX_OUT*
X121700000Y-109200000D03*
X121510000Y-103400000D03*
G04 #@! TD*
D19*
G04 #@! TO.N,GND*
X116700000Y-125900000D02*
X123200000Y-125900000D01*
X123100000Y-115000000D02*
X123100000Y-115800000D01*
X122900000Y-105000000D02*
X122900000Y-104200000D01*
X122900000Y-104200000D02*
X123700000Y-104200000D01*
X123100000Y-115800000D02*
X123900000Y-115800000D01*
X135500000Y-103600000D02*
X134700000Y-103600000D01*
X135500000Y-103600000D02*
X135500000Y-102800000D01*
X135500000Y-102800000D02*
X134700000Y-102800000D01*
X134700000Y-102800000D02*
X134700000Y-103600000D01*
X134700000Y-106200000D02*
X135500000Y-107000000D01*
X134700000Y-103600000D02*
X134700000Y-106200000D01*
X135500000Y-107000000D02*
X134700000Y-107000000D01*
X134700000Y-107000000D02*
X134700000Y-107800000D01*
X134700000Y-107800000D02*
X135500000Y-107800000D01*
X135500000Y-107800000D02*
X135500000Y-107000000D01*
X133500000Y-107000000D02*
X133100000Y-107400000D01*
X134700000Y-107000000D02*
X133500000Y-107000000D01*
X133100000Y-108200000D02*
X131300000Y-110000000D01*
X133100000Y-107400000D02*
X133100000Y-108200000D01*
X131300000Y-110000000D02*
X127900000Y-110000000D01*
X127900000Y-110700000D02*
X126200000Y-112400000D01*
X127900000Y-110000000D02*
X127900000Y-110700000D01*
X126200000Y-112400000D02*
X130300000Y-112400000D01*
X126200000Y-112400000D02*
X126200000Y-107500000D01*
X126200000Y-107500000D02*
X130300000Y-107500000D01*
X135400000Y-116500000D02*
X135400000Y-117400000D01*
X132161370Y-135980000D02*
X133570000Y-135980000D01*
X131030000Y-135980000D02*
X132161370Y-135980000D01*
X123200000Y-125900000D02*
X125300000Y-123800000D01*
X124465685Y-115800000D02*
X123900000Y-115800000D01*
X125300000Y-116634315D02*
X124465685Y-115800000D01*
X125300000Y-123800000D02*
X125300000Y-116634315D01*
X114160000Y-77900000D02*
X113750000Y-77900000D01*
X118760000Y-82500000D02*
X114160000Y-77900000D01*
G04 #@! TO.N,VDD*
X132330000Y-133805002D02*
X132330000Y-129600000D01*
X131535002Y-134600000D02*
X132330000Y-133805002D01*
X121600000Y-134600000D02*
X131535002Y-134600000D01*
X132330000Y-129600000D02*
X133570000Y-128360000D01*
X122580000Y-94872792D02*
X122580000Y-93600000D01*
X121452792Y-96000000D02*
X122580000Y-94872792D01*
X108749999Y-96000000D02*
X121452792Y-96000000D01*
X107549999Y-128384314D02*
X107549999Y-97200000D01*
X107549999Y-97200000D02*
X108749999Y-96000000D01*
X108300000Y-129134315D02*
X107549999Y-128384314D01*
X108300000Y-129700000D02*
X108300000Y-129134315D01*
X121600000Y-133500000D02*
X121600000Y-134600000D01*
X108300000Y-129700000D02*
X108300000Y-131600000D01*
X108300000Y-131600000D02*
X109200000Y-132500000D01*
X120600000Y-132500000D02*
X121600000Y-133500000D01*
X109200000Y-132500000D02*
X120600000Y-132500000D01*
G04 #@! TO.N,/LIGHT_SENSE*
X123805001Y-90105001D02*
X123800000Y-90100000D01*
X122676189Y-108983070D02*
X122174999Y-108481880D01*
X122174999Y-108481880D02*
X122174999Y-103851999D01*
X122174999Y-103851999D02*
X123805001Y-102221997D01*
X123805001Y-102221997D02*
X123805001Y-90105001D01*
G04 #@! TO.N,/CAM_JACK*
X123357939Y-116799723D02*
X123357662Y-116800000D01*
X123923624Y-116799723D02*
X123357939Y-116799723D01*
X123357662Y-116800000D02*
X113500000Y-116800000D01*
X112700000Y-117600000D02*
X112700000Y-129700000D01*
X113500000Y-116800000D02*
X112700000Y-117600000D01*
G04 #@! TO.N,/TRIGGER*
X123300000Y-119800000D02*
X114100000Y-119800000D01*
X123900000Y-119200000D02*
X123300000Y-119800000D01*
G04 #@! TO.N,/FOCUS*
X114100710Y-117799290D02*
X114100000Y-117800000D01*
X123894117Y-117799290D02*
X114100710Y-117799290D01*
G04 #@! TO.N,/SWDIO*
X134200000Y-120900000D02*
X130000000Y-120900000D01*
X129000000Y-121900000D02*
X129000000Y-125800000D01*
X130000000Y-120900000D02*
X129000000Y-121900000D01*
G04 #@! TO.N,/SWDCLK*
X128200000Y-122063590D02*
X128200000Y-128300000D01*
X130263590Y-120000000D02*
X128200000Y-122063590D01*
X133475000Y-120000000D02*
X130263590Y-120000000D01*
G04 #@! TO.N,/RESET*
X129900000Y-119200000D02*
X132775000Y-119200000D01*
X127474999Y-130874999D02*
X127474999Y-121625001D01*
X127474999Y-121625001D02*
X129900000Y-119200000D01*
X127500000Y-130900000D02*
X127474999Y-130874999D01*
G04 #@! TO.N,/GPIO2*
X126774999Y-132774999D02*
X127500000Y-133500000D01*
X126774999Y-120580155D02*
X126774999Y-132774999D01*
X130675000Y-116680154D02*
X126774999Y-120580155D01*
G04 #@! TO.N,/GPIO1*
X131375000Y-117400000D02*
X133700000Y-117400000D01*
X133700000Y-117400000D02*
X135500000Y-119200000D01*
X135725001Y-130174999D02*
X135000000Y-130900000D01*
X135725001Y-119425001D02*
X135725001Y-130174999D01*
X135500000Y-119200000D02*
X135725001Y-119425001D01*
G04 #@! TO.N,/TX*
X132075000Y-118200000D02*
X133500000Y-118200000D01*
X135000000Y-119700000D02*
X135000000Y-125800000D01*
X133500000Y-118200000D02*
X135000000Y-119700000D01*
G04 #@! TO.N,/LED_GREEN*
X104400000Y-89100000D02*
X132300000Y-89100000D01*
X132300000Y-89100000D02*
X134000000Y-90800000D01*
X133695191Y-103630115D02*
X133612653Y-103712653D01*
X133695191Y-91104809D02*
X133695191Y-103630115D01*
X134000000Y-90800000D02*
X133695191Y-91104809D01*
X103700000Y-89800000D02*
X103900000Y-89600000D01*
X103700000Y-138400000D02*
X103700000Y-89800000D01*
X103900000Y-89600000D02*
X104400000Y-89100000D01*
G04 #@! TO.N,/LED_RED*
X102800000Y-134000000D02*
X102800000Y-88500000D01*
X104500000Y-86800000D02*
X131500000Y-86800000D01*
X102800000Y-88500000D02*
X104500000Y-86800000D01*
G04 #@! TO.N,/RX_EN*
X122600000Y-110834315D02*
X121765685Y-110000000D01*
X122600000Y-111400000D02*
X122600000Y-110834315D01*
X121765685Y-110000000D02*
X113500000Y-110000000D01*
X112300000Y-108800000D02*
X112300000Y-100700000D01*
X113500000Y-110000000D02*
X112300000Y-108800000D01*
G04 #@! TO.N,/BUTTON*
X116700000Y-121400000D02*
X123200000Y-121400000D01*
G04 #@! TO.N,/RX_OUT*
X117500000Y-94750000D02*
X117500000Y-93600000D01*
X121700000Y-109200000D02*
X121700000Y-103590000D01*
X121700000Y-103590000D02*
X121510000Y-103400000D01*
G04 #@! TD*
D20*
G04 #@! TO.N,GND*
G36*
X122765000Y-89894126D02*
X122765000Y-90305874D01*
X122922569Y-90686280D01*
X123045002Y-90808713D01*
X123045002Y-92131138D01*
X122885330Y-92065000D01*
X122274670Y-92065000D01*
X121710493Y-92298690D01*
X121310000Y-92699183D01*
X120909507Y-92298690D01*
X120345330Y-92065000D01*
X119734670Y-92065000D01*
X119170493Y-92298690D01*
X119001275Y-92467908D01*
X118998157Y-92452235D01*
X118857809Y-92242191D01*
X118647765Y-92101843D01*
X118400000Y-92052560D01*
X116600000Y-92052560D01*
X116352235Y-92101843D01*
X116142191Y-92242191D01*
X116001843Y-92452235D01*
X115952560Y-92700000D01*
X115952560Y-94500000D01*
X116001843Y-94747765D01*
X116142191Y-94957809D01*
X116352235Y-95098157D01*
X116600000Y-95147440D01*
X116851518Y-95147440D01*
X116913364Y-95240000D01*
X108824845Y-95240000D01*
X108749998Y-95225112D01*
X108675151Y-95240000D01*
X108675147Y-95240000D01*
X108453462Y-95284096D01*
X108202070Y-95452071D01*
X108159670Y-95515527D01*
X107065527Y-96609671D01*
X107002071Y-96652071D01*
X106959671Y-96715527D01*
X106959670Y-96715528D01*
X106834096Y-96903463D01*
X106775111Y-97200000D01*
X106790000Y-97274852D01*
X106789999Y-128309467D01*
X106775111Y-128384314D01*
X106789999Y-128459161D01*
X106789999Y-128459165D01*
X106834095Y-128680850D01*
X107002070Y-128932243D01*
X107065529Y-128974645D01*
X107358728Y-129267845D01*
X107265000Y-129494126D01*
X107265000Y-129905874D01*
X107422569Y-130286280D01*
X107540000Y-130403711D01*
X107540001Y-131525148D01*
X107525112Y-131600000D01*
X107584097Y-131896537D01*
X107692716Y-132059096D01*
X107752072Y-132147929D01*
X107815528Y-132190329D01*
X108609670Y-132984472D01*
X108652071Y-133047929D01*
X108903463Y-133215904D01*
X109125148Y-133260000D01*
X109125152Y-133260000D01*
X109199999Y-133274888D01*
X109274846Y-133260000D01*
X120285199Y-133260000D01*
X120840000Y-133814802D01*
X120840000Y-133896289D01*
X120722569Y-134013720D01*
X120565000Y-134394126D01*
X120565000Y-134805874D01*
X120722569Y-135186280D01*
X121013720Y-135477431D01*
X121394126Y-135635000D01*
X121805874Y-135635000D01*
X122186280Y-135477431D01*
X122303711Y-135360000D01*
X129727969Y-135360000D01*
X129583035Y-135763223D01*
X129610222Y-136333454D01*
X129776136Y-136734005D01*
X130022255Y-136808139D01*
X130850395Y-135980000D01*
X130836252Y-135965858D01*
X131015858Y-135786252D01*
X131030000Y-135800395D01*
X131044143Y-135786253D01*
X131223748Y-135965858D01*
X131209605Y-135980000D01*
X132037745Y-136808139D01*
X132283864Y-136734005D01*
X132298858Y-136692291D01*
X132316136Y-136734005D01*
X132562255Y-136808139D01*
X133390395Y-135980000D01*
X133749605Y-135980000D01*
X134577745Y-136808139D01*
X134823864Y-136734005D01*
X135016965Y-136196777D01*
X134989778Y-135626546D01*
X134823864Y-135225995D01*
X134577745Y-135151861D01*
X133749605Y-135980000D01*
X133390395Y-135980000D01*
X132562255Y-135151861D01*
X132316136Y-135225995D01*
X132301142Y-135267709D01*
X132283864Y-135225995D01*
X132064835Y-135160021D01*
X132082931Y-135147929D01*
X132125333Y-135084470D01*
X132655204Y-134554600D01*
X132757138Y-134656534D01*
X132870583Y-134703525D01*
X132815995Y-134726136D01*
X132741861Y-134972255D01*
X133570000Y-135800395D01*
X134398139Y-134972255D01*
X134324005Y-134726136D01*
X134265552Y-134705126D01*
X134382862Y-134656534D01*
X134786534Y-134252862D01*
X135005000Y-133725439D01*
X135005000Y-133154561D01*
X134786534Y-132627138D01*
X134382862Y-132223466D01*
X134253784Y-132170000D01*
X134382862Y-132116534D01*
X134631682Y-131867714D01*
X134794126Y-131935000D01*
X135205874Y-131935000D01*
X135586280Y-131777431D01*
X135877431Y-131486280D01*
X136035000Y-131105874D01*
X136035000Y-130939802D01*
X136073000Y-130901802D01*
X136073000Y-149290000D01*
X100710000Y-149290000D01*
X100710000Y-144575322D01*
X117865000Y-144575322D01*
X117865000Y-145424678D01*
X118190034Y-146209380D01*
X118790620Y-146809966D01*
X119575322Y-147135000D01*
X120424678Y-147135000D01*
X121209380Y-146809966D01*
X121809966Y-146209380D01*
X122135000Y-145424678D01*
X122135000Y-144575322D01*
X121809966Y-143790620D01*
X121209380Y-143190034D01*
X120424678Y-142865000D01*
X119575322Y-142865000D01*
X118790620Y-143190034D01*
X118190034Y-143790620D01*
X117865000Y-144575322D01*
X100710000Y-144575322D01*
X100710000Y-124743687D01*
X100840460Y-124874147D01*
X101349506Y-125085000D01*
X101900494Y-125085000D01*
X102040000Y-125027215D01*
X102040000Y-133296289D01*
X101922569Y-133413720D01*
X101765000Y-133794126D01*
X101765000Y-134205874D01*
X101922569Y-134586280D01*
X102213720Y-134877431D01*
X102594126Y-135035000D01*
X102940000Y-135035000D01*
X102940000Y-137696289D01*
X102822569Y-137813720D01*
X102665000Y-138194126D01*
X102665000Y-138605874D01*
X102822569Y-138986280D01*
X103113720Y-139277431D01*
X103494126Y-139435000D01*
X103905874Y-139435000D01*
X104286280Y-139277431D01*
X104577431Y-138986280D01*
X104735000Y-138605874D01*
X104735000Y-138234561D01*
X129595000Y-138234561D01*
X129595000Y-138805439D01*
X129813466Y-139332862D01*
X130217138Y-139736534D01*
X130744561Y-139955000D01*
X131315439Y-139955000D01*
X131842862Y-139736534D01*
X132246534Y-139332862D01*
X132465000Y-138805439D01*
X132465000Y-138234561D01*
X132246534Y-137707138D01*
X131842862Y-137303466D01*
X131729417Y-137256475D01*
X131784005Y-137233864D01*
X131858139Y-136987745D01*
X132741861Y-136987745D01*
X132815995Y-137233864D01*
X133353223Y-137426965D01*
X133923454Y-137399778D01*
X134324005Y-137233864D01*
X134398139Y-136987745D01*
X133570000Y-136159605D01*
X132741861Y-136987745D01*
X131858139Y-136987745D01*
X131030000Y-136159605D01*
X130201861Y-136987745D01*
X130275995Y-137233864D01*
X130334448Y-137254874D01*
X130217138Y-137303466D01*
X129813466Y-137707138D01*
X129595000Y-138234561D01*
X104735000Y-138234561D01*
X104735000Y-138194126D01*
X104577431Y-137813720D01*
X104460000Y-137696289D01*
X104460000Y-90114801D01*
X104490329Y-90084472D01*
X104714802Y-89860000D01*
X122779135Y-89860000D01*
X122765000Y-89894126D01*
X122765000Y-89894126D01*
G37*
X122765000Y-89894126D02*
X122765000Y-90305874D01*
X122922569Y-90686280D01*
X123045002Y-90808713D01*
X123045002Y-92131138D01*
X122885330Y-92065000D01*
X122274670Y-92065000D01*
X121710493Y-92298690D01*
X121310000Y-92699183D01*
X120909507Y-92298690D01*
X120345330Y-92065000D01*
X119734670Y-92065000D01*
X119170493Y-92298690D01*
X119001275Y-92467908D01*
X118998157Y-92452235D01*
X118857809Y-92242191D01*
X118647765Y-92101843D01*
X118400000Y-92052560D01*
X116600000Y-92052560D01*
X116352235Y-92101843D01*
X116142191Y-92242191D01*
X116001843Y-92452235D01*
X115952560Y-92700000D01*
X115952560Y-94500000D01*
X116001843Y-94747765D01*
X116142191Y-94957809D01*
X116352235Y-95098157D01*
X116600000Y-95147440D01*
X116851518Y-95147440D01*
X116913364Y-95240000D01*
X108824845Y-95240000D01*
X108749998Y-95225112D01*
X108675151Y-95240000D01*
X108675147Y-95240000D01*
X108453462Y-95284096D01*
X108202070Y-95452071D01*
X108159670Y-95515527D01*
X107065527Y-96609671D01*
X107002071Y-96652071D01*
X106959671Y-96715527D01*
X106959670Y-96715528D01*
X106834096Y-96903463D01*
X106775111Y-97200000D01*
X106790000Y-97274852D01*
X106789999Y-128309467D01*
X106775111Y-128384314D01*
X106789999Y-128459161D01*
X106789999Y-128459165D01*
X106834095Y-128680850D01*
X107002070Y-128932243D01*
X107065529Y-128974645D01*
X107358728Y-129267845D01*
X107265000Y-129494126D01*
X107265000Y-129905874D01*
X107422569Y-130286280D01*
X107540000Y-130403711D01*
X107540001Y-131525148D01*
X107525112Y-131600000D01*
X107584097Y-131896537D01*
X107692716Y-132059096D01*
X107752072Y-132147929D01*
X107815528Y-132190329D01*
X108609670Y-132984472D01*
X108652071Y-133047929D01*
X108903463Y-133215904D01*
X109125148Y-133260000D01*
X109125152Y-133260000D01*
X109199999Y-133274888D01*
X109274846Y-133260000D01*
X120285199Y-133260000D01*
X120840000Y-133814802D01*
X120840000Y-133896289D01*
X120722569Y-134013720D01*
X120565000Y-134394126D01*
X120565000Y-134805874D01*
X120722569Y-135186280D01*
X121013720Y-135477431D01*
X121394126Y-135635000D01*
X121805874Y-135635000D01*
X122186280Y-135477431D01*
X122303711Y-135360000D01*
X129727969Y-135360000D01*
X129583035Y-135763223D01*
X129610222Y-136333454D01*
X129776136Y-136734005D01*
X130022255Y-136808139D01*
X130850395Y-135980000D01*
X130836252Y-135965858D01*
X131015858Y-135786252D01*
X131030000Y-135800395D01*
X131044143Y-135786253D01*
X131223748Y-135965858D01*
X131209605Y-135980000D01*
X132037745Y-136808139D01*
X132283864Y-136734005D01*
X132298858Y-136692291D01*
X132316136Y-136734005D01*
X132562255Y-136808139D01*
X133390395Y-135980000D01*
X133749605Y-135980000D01*
X134577745Y-136808139D01*
X134823864Y-136734005D01*
X135016965Y-136196777D01*
X134989778Y-135626546D01*
X134823864Y-135225995D01*
X134577745Y-135151861D01*
X133749605Y-135980000D01*
X133390395Y-135980000D01*
X132562255Y-135151861D01*
X132316136Y-135225995D01*
X132301142Y-135267709D01*
X132283864Y-135225995D01*
X132064835Y-135160021D01*
X132082931Y-135147929D01*
X132125333Y-135084470D01*
X132655204Y-134554600D01*
X132757138Y-134656534D01*
X132870583Y-134703525D01*
X132815995Y-134726136D01*
X132741861Y-134972255D01*
X133570000Y-135800395D01*
X134398139Y-134972255D01*
X134324005Y-134726136D01*
X134265552Y-134705126D01*
X134382862Y-134656534D01*
X134786534Y-134252862D01*
X135005000Y-133725439D01*
X135005000Y-133154561D01*
X134786534Y-132627138D01*
X134382862Y-132223466D01*
X134253784Y-132170000D01*
X134382862Y-132116534D01*
X134631682Y-131867714D01*
X134794126Y-131935000D01*
X135205874Y-131935000D01*
X135586280Y-131777431D01*
X135877431Y-131486280D01*
X136035000Y-131105874D01*
X136035000Y-130939802D01*
X136073000Y-130901802D01*
X136073000Y-149290000D01*
X100710000Y-149290000D01*
X100710000Y-144575322D01*
X117865000Y-144575322D01*
X117865000Y-145424678D01*
X118190034Y-146209380D01*
X118790620Y-146809966D01*
X119575322Y-147135000D01*
X120424678Y-147135000D01*
X121209380Y-146809966D01*
X121809966Y-146209380D01*
X122135000Y-145424678D01*
X122135000Y-144575322D01*
X121809966Y-143790620D01*
X121209380Y-143190034D01*
X120424678Y-142865000D01*
X119575322Y-142865000D01*
X118790620Y-143190034D01*
X118190034Y-143790620D01*
X117865000Y-144575322D01*
X100710000Y-144575322D01*
X100710000Y-124743687D01*
X100840460Y-124874147D01*
X101349506Y-125085000D01*
X101900494Y-125085000D01*
X102040000Y-125027215D01*
X102040000Y-133296289D01*
X101922569Y-133413720D01*
X101765000Y-133794126D01*
X101765000Y-134205874D01*
X101922569Y-134586280D01*
X102213720Y-134877431D01*
X102594126Y-135035000D01*
X102940000Y-135035000D01*
X102940000Y-137696289D01*
X102822569Y-137813720D01*
X102665000Y-138194126D01*
X102665000Y-138605874D01*
X102822569Y-138986280D01*
X103113720Y-139277431D01*
X103494126Y-139435000D01*
X103905874Y-139435000D01*
X104286280Y-139277431D01*
X104577431Y-138986280D01*
X104735000Y-138605874D01*
X104735000Y-138234561D01*
X129595000Y-138234561D01*
X129595000Y-138805439D01*
X129813466Y-139332862D01*
X130217138Y-139736534D01*
X130744561Y-139955000D01*
X131315439Y-139955000D01*
X131842862Y-139736534D01*
X132246534Y-139332862D01*
X132465000Y-138805439D01*
X132465000Y-138234561D01*
X132246534Y-137707138D01*
X131842862Y-137303466D01*
X131729417Y-137256475D01*
X131784005Y-137233864D01*
X131858139Y-136987745D01*
X132741861Y-136987745D01*
X132815995Y-137233864D01*
X133353223Y-137426965D01*
X133923454Y-137399778D01*
X134324005Y-137233864D01*
X134398139Y-136987745D01*
X133570000Y-136159605D01*
X132741861Y-136987745D01*
X131858139Y-136987745D01*
X131030000Y-136159605D01*
X130201861Y-136987745D01*
X130275995Y-137233864D01*
X130334448Y-137254874D01*
X130217138Y-137303466D01*
X129813466Y-137707138D01*
X129595000Y-138234561D01*
X104735000Y-138234561D01*
X104735000Y-138194126D01*
X104577431Y-137813720D01*
X104460000Y-137696289D01*
X104460000Y-90114801D01*
X104490329Y-90084472D01*
X104714802Y-89860000D01*
X122779135Y-89860000D01*
X122765000Y-89894126D01*
G36*
X136073000Y-118698197D02*
X134290331Y-116915530D01*
X134247929Y-116852071D01*
X133996537Y-116684096D01*
X133774852Y-116640000D01*
X133774847Y-116640000D01*
X133700000Y-116625112D01*
X133625153Y-116640000D01*
X132078711Y-116640000D01*
X131961280Y-116522569D01*
X131682103Y-116406930D01*
X131552431Y-116093874D01*
X131261280Y-115802723D01*
X130880874Y-115645154D01*
X130469126Y-115645154D01*
X130088720Y-115802723D01*
X129797569Y-116093874D01*
X129640000Y-116474280D01*
X129640000Y-116640351D01*
X126290529Y-119989824D01*
X126227070Y-120032226D01*
X126059095Y-120283619D01*
X126014999Y-120505304D01*
X126014999Y-120505308D01*
X126000111Y-120580155D01*
X126014999Y-120655002D01*
X126015000Y-132700147D01*
X126000111Y-132774999D01*
X126059096Y-133071536D01*
X126155560Y-133215904D01*
X126227071Y-133322928D01*
X126290527Y-133365328D01*
X126465000Y-133539801D01*
X126465000Y-133705874D01*
X126520557Y-133840000D01*
X122360000Y-133840000D01*
X122360000Y-133574848D01*
X122374888Y-133500000D01*
X122360000Y-133425152D01*
X122360000Y-133425148D01*
X122315904Y-133203463D01*
X122147929Y-132952071D01*
X122084473Y-132909671D01*
X121190331Y-132015530D01*
X121147929Y-131952071D01*
X120896537Y-131784096D01*
X120674852Y-131740000D01*
X120674847Y-131740000D01*
X120600000Y-131725112D01*
X120525153Y-131740000D01*
X109514802Y-131740000D01*
X109060000Y-131285199D01*
X109060000Y-130403711D01*
X109177431Y-130286280D01*
X109335000Y-129905874D01*
X109335000Y-129494126D01*
X111665000Y-129494126D01*
X111665000Y-129905874D01*
X111822569Y-130286280D01*
X112113720Y-130577431D01*
X112494126Y-130735000D01*
X112905874Y-130735000D01*
X113286280Y-130577431D01*
X113577431Y-130286280D01*
X113735000Y-129905874D01*
X113735000Y-129494126D01*
X113577431Y-129113720D01*
X113460000Y-128996289D01*
X113460000Y-127052532D01*
X115727073Y-127052532D01*
X115825736Y-127319387D01*
X116435461Y-127545908D01*
X117085460Y-127521856D01*
X117574264Y-127319387D01*
X117672927Y-127052532D01*
X122227073Y-127052532D01*
X122325736Y-127319387D01*
X122935461Y-127545908D01*
X123585460Y-127521856D01*
X124074264Y-127319387D01*
X124172927Y-127052532D01*
X123200000Y-126079605D01*
X122227073Y-127052532D01*
X117672927Y-127052532D01*
X116700000Y-126079605D01*
X115727073Y-127052532D01*
X113460000Y-127052532D01*
X113460000Y-125635461D01*
X115054092Y-125635461D01*
X115078144Y-126285460D01*
X115280613Y-126774264D01*
X115547468Y-126872927D01*
X116520395Y-125900000D01*
X116879605Y-125900000D01*
X117852532Y-126872927D01*
X118119387Y-126774264D01*
X118345908Y-126164539D01*
X118326331Y-125635461D01*
X121554092Y-125635461D01*
X121578144Y-126285460D01*
X121780613Y-126774264D01*
X122047468Y-126872927D01*
X123020395Y-125900000D01*
X123379605Y-125900000D01*
X124352532Y-126872927D01*
X124619387Y-126774264D01*
X124845908Y-126164539D01*
X124821856Y-125514540D01*
X124619387Y-125025736D01*
X124352532Y-124927073D01*
X123379605Y-125900000D01*
X123020395Y-125900000D01*
X122047468Y-124927073D01*
X121780613Y-125025736D01*
X121554092Y-125635461D01*
X118326331Y-125635461D01*
X118321856Y-125514540D01*
X118119387Y-125025736D01*
X117852532Y-124927073D01*
X116879605Y-125900000D01*
X116520395Y-125900000D01*
X115547468Y-124927073D01*
X115280613Y-125025736D01*
X115054092Y-125635461D01*
X113460000Y-125635461D01*
X113460000Y-124747468D01*
X115727073Y-124747468D01*
X116700000Y-125720395D01*
X117672927Y-124747468D01*
X122227073Y-124747468D01*
X123200000Y-125720395D01*
X124172927Y-124747468D01*
X124074264Y-124480613D01*
X123464539Y-124254092D01*
X122814540Y-124278144D01*
X122325736Y-124480613D01*
X122227073Y-124747468D01*
X117672927Y-124747468D01*
X117574264Y-124480613D01*
X116964539Y-124254092D01*
X116314540Y-124278144D01*
X115825736Y-124480613D01*
X115727073Y-124747468D01*
X113460000Y-124747468D01*
X113460000Y-120623711D01*
X113513720Y-120677431D01*
X113894126Y-120835000D01*
X114305874Y-120835000D01*
X114686280Y-120677431D01*
X114803711Y-120560000D01*
X115278228Y-120560000D01*
X115065000Y-121074778D01*
X115065000Y-121725222D01*
X115313914Y-122326153D01*
X115773847Y-122786086D01*
X116374778Y-123035000D01*
X117025222Y-123035000D01*
X117626153Y-122786086D01*
X118086086Y-122326153D01*
X118154909Y-122160000D01*
X121745091Y-122160000D01*
X121813914Y-122326153D01*
X122273847Y-122786086D01*
X122874778Y-123035000D01*
X123525222Y-123035000D01*
X124126153Y-122786086D01*
X124586086Y-122326153D01*
X124835000Y-121725222D01*
X124835000Y-121074778D01*
X124586086Y-120473847D01*
X124276545Y-120164306D01*
X124486280Y-120077431D01*
X124777431Y-119786280D01*
X124935000Y-119405874D01*
X124935000Y-118994126D01*
X124777431Y-118613720D01*
X124660415Y-118496704D01*
X124771548Y-118385570D01*
X124929117Y-118005164D01*
X124929117Y-117593416D01*
X124822129Y-117335125D01*
X124958624Y-117005597D01*
X124958624Y-116593849D01*
X124801055Y-116213443D01*
X124509904Y-115922292D01*
X124129498Y-115764723D01*
X123717750Y-115764723D01*
X123337344Y-115922292D01*
X123219636Y-116040000D01*
X113574848Y-116040000D01*
X113500000Y-116025112D01*
X113425152Y-116040000D01*
X113425148Y-116040000D01*
X113251605Y-116074520D01*
X113203462Y-116084096D01*
X113016418Y-116209076D01*
X112952071Y-116252071D01*
X112909671Y-116315527D01*
X112215530Y-117009669D01*
X112152071Y-117052071D01*
X111984096Y-117303464D01*
X111940000Y-117525149D01*
X111940000Y-117525153D01*
X111925112Y-117600000D01*
X111940000Y-117674847D01*
X111940001Y-128996288D01*
X111822569Y-129113720D01*
X111665000Y-129494126D01*
X109335000Y-129494126D01*
X109177431Y-129113720D01*
X109044314Y-128980603D01*
X109015904Y-128837778D01*
X108847929Y-128586386D01*
X108784473Y-128543986D01*
X108309999Y-128069513D01*
X108309999Y-125068636D01*
X108349506Y-125085000D01*
X108900494Y-125085000D01*
X109409540Y-124874147D01*
X109799147Y-124484540D01*
X110010000Y-123975494D01*
X110010000Y-123424506D01*
X109799147Y-122915460D01*
X109409540Y-122525853D01*
X108900494Y-122315000D01*
X108349506Y-122315000D01*
X108309999Y-122331364D01*
X108309999Y-97514801D01*
X109064801Y-96760000D01*
X121377945Y-96760000D01*
X121452792Y-96774888D01*
X121527639Y-96760000D01*
X121527644Y-96760000D01*
X121749329Y-96715904D01*
X122000721Y-96547929D01*
X122043123Y-96484470D01*
X123045002Y-95482592D01*
X123045001Y-101907195D01*
X122262954Y-102689243D01*
X122096280Y-102522569D01*
X121715874Y-102365000D01*
X121304126Y-102365000D01*
X120923720Y-102522569D01*
X120632569Y-102813720D01*
X120475000Y-103194126D01*
X120475000Y-103605874D01*
X120632569Y-103986280D01*
X120923720Y-104277431D01*
X120940001Y-104284175D01*
X120940001Y-104953739D01*
X120725766Y-104865000D01*
X120274234Y-104865000D01*
X119857074Y-105037793D01*
X119537793Y-105357074D01*
X119365000Y-105774234D01*
X119365000Y-106225766D01*
X119537793Y-106642926D01*
X119844867Y-106950000D01*
X119537793Y-107257074D01*
X119365000Y-107674234D01*
X119365000Y-108125766D01*
X119537793Y-108542926D01*
X119857074Y-108862207D01*
X120274234Y-109035000D01*
X120665000Y-109035000D01*
X120665000Y-109240000D01*
X113814802Y-109240000D01*
X113060000Y-108485199D01*
X113060000Y-101403711D01*
X113177431Y-101286280D01*
X113335000Y-100905874D01*
X113335000Y-100494126D01*
X113177431Y-100113720D01*
X112886280Y-99822569D01*
X112505874Y-99665000D01*
X112094126Y-99665000D01*
X111713720Y-99822569D01*
X111422569Y-100113720D01*
X111265000Y-100494126D01*
X111265000Y-100905874D01*
X111422569Y-101286280D01*
X111540001Y-101403712D01*
X111540000Y-108725153D01*
X111525112Y-108800000D01*
X111540000Y-108874847D01*
X111540000Y-108874851D01*
X111584096Y-109096536D01*
X111752071Y-109347929D01*
X111815530Y-109390331D01*
X112909670Y-110484472D01*
X112952071Y-110547929D01*
X113203463Y-110715904D01*
X113425148Y-110760000D01*
X113425152Y-110760000D01*
X113499999Y-110774888D01*
X113574846Y-110760000D01*
X121450884Y-110760000D01*
X121658728Y-110967845D01*
X121565000Y-111194126D01*
X121565000Y-111605874D01*
X121722569Y-111986280D01*
X122013720Y-112277431D01*
X122394126Y-112435000D01*
X122805874Y-112435000D01*
X123186280Y-112277431D01*
X123477431Y-111986280D01*
X123635000Y-111605874D01*
X123635000Y-111194126D01*
X123477431Y-110813720D01*
X123344314Y-110680603D01*
X123315904Y-110537778D01*
X123147929Y-110286386D01*
X123084473Y-110243986D01*
X122858557Y-110018070D01*
X122882063Y-110018070D01*
X123262469Y-109860501D01*
X123553620Y-109569350D01*
X123711189Y-109188944D01*
X123711189Y-108777196D01*
X123553620Y-108396790D01*
X123262469Y-108105639D01*
X122934999Y-107969997D01*
X122934999Y-104166800D01*
X124289474Y-102812326D01*
X124352930Y-102769926D01*
X124520905Y-102518534D01*
X124565001Y-102296849D01*
X124565001Y-102296844D01*
X124579889Y-102221997D01*
X124565001Y-102147150D01*
X124565001Y-90798710D01*
X124677431Y-90686280D01*
X124835000Y-90305874D01*
X124835000Y-89894126D01*
X124820865Y-89860000D01*
X131985199Y-89860000D01*
X132971686Y-90846487D01*
X132935191Y-91029958D01*
X132935191Y-91029962D01*
X132920303Y-91104809D01*
X132935191Y-91179656D01*
X132935192Y-102926403D01*
X132735222Y-103126373D01*
X132577653Y-103506779D01*
X132577653Y-103918527D01*
X132735222Y-104298933D01*
X133026373Y-104590084D01*
X133406779Y-104747653D01*
X133818527Y-104747653D01*
X134198933Y-104590084D01*
X134490084Y-104298933D01*
X134647653Y-103918527D01*
X134647653Y-103506779D01*
X134490084Y-103126373D01*
X134455191Y-103091480D01*
X134455191Y-91419610D01*
X134484471Y-91390330D01*
X134547929Y-91347929D01*
X134710376Y-91104809D01*
X134715903Y-91096538D01*
X134774888Y-90800001D01*
X134730111Y-90574888D01*
X134715903Y-90503462D01*
X134590329Y-90315527D01*
X134590328Y-90315526D01*
X134547929Y-90252071D01*
X134484473Y-90209671D01*
X132890331Y-88615530D01*
X132847929Y-88552071D01*
X132596537Y-88384096D01*
X132374852Y-88340000D01*
X132374847Y-88340000D01*
X132300000Y-88325112D01*
X132225153Y-88340000D01*
X104474848Y-88340000D01*
X104400000Y-88325112D01*
X104325152Y-88340000D01*
X104325148Y-88340000D01*
X104151605Y-88374520D01*
X104103462Y-88384096D01*
X104042024Y-88425148D01*
X103852071Y-88552071D01*
X103809671Y-88615528D01*
X103560000Y-88865199D01*
X103560000Y-88814801D01*
X104814802Y-87560000D01*
X130796289Y-87560000D01*
X130913720Y-87677431D01*
X131294126Y-87835000D01*
X131705874Y-87835000D01*
X132086280Y-87677431D01*
X132377431Y-87386280D01*
X132535000Y-87005874D01*
X132535000Y-86594126D01*
X132377431Y-86213720D01*
X132086280Y-85922569D01*
X131705874Y-85765000D01*
X131294126Y-85765000D01*
X130913720Y-85922569D01*
X130796289Y-86040000D01*
X104574846Y-86040000D01*
X104499999Y-86025112D01*
X104425152Y-86040000D01*
X104425148Y-86040000D01*
X104203463Y-86084096D01*
X103952071Y-86252071D01*
X103909671Y-86315527D01*
X102315528Y-87909671D01*
X102252072Y-87952071D01*
X102209672Y-88015527D01*
X102209671Y-88015528D01*
X102084097Y-88203463D01*
X102025112Y-88500000D01*
X102040001Y-88574852D01*
X102040000Y-122372785D01*
X101900494Y-122315000D01*
X101349506Y-122315000D01*
X100840460Y-122525853D01*
X100710000Y-122656313D01*
X100710000Y-82259336D01*
X117213542Y-82259336D01*
X117239161Y-82869460D01*
X117423357Y-83314148D01*
X117679841Y-83400554D01*
X118580395Y-82500000D01*
X117679841Y-81599446D01*
X117423357Y-81685852D01*
X117213542Y-82259336D01*
X100710000Y-82259336D01*
X100710000Y-81419841D01*
X117859446Y-81419841D01*
X118760000Y-82320395D01*
X118774143Y-82306253D01*
X118953748Y-82485858D01*
X118939605Y-82500000D01*
X118953748Y-82514143D01*
X118774143Y-82693748D01*
X118760000Y-82679605D01*
X117859446Y-83580159D01*
X117945852Y-83836643D01*
X118519336Y-84046458D01*
X119129460Y-84020839D01*
X119574148Y-83836643D01*
X119660553Y-83580161D01*
X119775110Y-83694718D01*
X119809942Y-83659886D01*
X119942191Y-83857809D01*
X120152235Y-83998157D01*
X120400000Y-84047440D01*
X122200000Y-84047440D01*
X122447765Y-83998157D01*
X122657809Y-83857809D01*
X122798157Y-83647765D01*
X122847440Y-83400000D01*
X122847440Y-81600000D01*
X122798157Y-81352235D01*
X122657809Y-81142191D01*
X122447765Y-81001843D01*
X122200000Y-80952560D01*
X120400000Y-80952560D01*
X120152235Y-81001843D01*
X119942191Y-81142191D01*
X119809942Y-81340114D01*
X119775110Y-81305282D01*
X119660553Y-81419839D01*
X119574148Y-81163357D01*
X119000664Y-80953542D01*
X118390540Y-80979161D01*
X117945852Y-81163357D01*
X117859446Y-81419841D01*
X100710000Y-81419841D01*
X100710000Y-78185750D01*
X111115000Y-78185750D01*
X111115000Y-79526309D01*
X111211673Y-79759698D01*
X111390301Y-79938327D01*
X111623690Y-80035000D01*
X113464250Y-80035000D01*
X113623000Y-79876250D01*
X113623000Y-78027000D01*
X113877000Y-78027000D01*
X113877000Y-79876250D01*
X114035750Y-80035000D01*
X115876310Y-80035000D01*
X116109699Y-79938327D01*
X116288327Y-79759698D01*
X116385000Y-79526309D01*
X116385000Y-78185750D01*
X116226250Y-78027000D01*
X113877000Y-78027000D01*
X113623000Y-78027000D01*
X111273750Y-78027000D01*
X111115000Y-78185750D01*
X100710000Y-78185750D01*
X100710000Y-76273691D01*
X111115000Y-76273691D01*
X111115000Y-77614250D01*
X111273750Y-77773000D01*
X113623000Y-77773000D01*
X113623000Y-75923750D01*
X113877000Y-75923750D01*
X113877000Y-77773000D01*
X116226250Y-77773000D01*
X116385000Y-77614250D01*
X116385000Y-77150000D01*
X123602560Y-77150000D01*
X123602560Y-78650000D01*
X123708934Y-79184777D01*
X124011861Y-79638139D01*
X124465223Y-79941066D01*
X125000000Y-80047440D01*
X127500000Y-80047440D01*
X128034777Y-79941066D01*
X128488139Y-79638139D01*
X128791066Y-79184777D01*
X128897440Y-78650000D01*
X128897440Y-77150000D01*
X128791066Y-76615223D01*
X128488139Y-76161861D01*
X128034777Y-75858934D01*
X127500000Y-75752560D01*
X125000000Y-75752560D01*
X124465223Y-75858934D01*
X124011861Y-76161861D01*
X123708934Y-76615223D01*
X123602560Y-77150000D01*
X116385000Y-77150000D01*
X116385000Y-76273691D01*
X116288327Y-76040302D01*
X116109699Y-75861673D01*
X115876310Y-75765000D01*
X114035750Y-75765000D01*
X113877000Y-75923750D01*
X113623000Y-75923750D01*
X113464250Y-75765000D01*
X111623690Y-75765000D01*
X111390301Y-75861673D01*
X111211673Y-76040302D01*
X111115000Y-76273691D01*
X100710000Y-76273691D01*
X100710000Y-74575322D01*
X117865000Y-74575322D01*
X117865000Y-75424678D01*
X118190034Y-76209380D01*
X118790620Y-76809966D01*
X119575322Y-77135000D01*
X120424678Y-77135000D01*
X121209380Y-76809966D01*
X121809966Y-76209380D01*
X122135000Y-75424678D01*
X122135000Y-74575322D01*
X121809966Y-73790620D01*
X121209380Y-73190034D01*
X120424678Y-72865000D01*
X119575322Y-72865000D01*
X118790620Y-73190034D01*
X118190034Y-73790620D01*
X117865000Y-74575322D01*
X100710000Y-74575322D01*
X100710000Y-70710000D01*
X136073000Y-70710000D01*
X136073000Y-118698197D01*
X136073000Y-118698197D01*
G37*
X136073000Y-118698197D02*
X134290331Y-116915530D01*
X134247929Y-116852071D01*
X133996537Y-116684096D01*
X133774852Y-116640000D01*
X133774847Y-116640000D01*
X133700000Y-116625112D01*
X133625153Y-116640000D01*
X132078711Y-116640000D01*
X131961280Y-116522569D01*
X131682103Y-116406930D01*
X131552431Y-116093874D01*
X131261280Y-115802723D01*
X130880874Y-115645154D01*
X130469126Y-115645154D01*
X130088720Y-115802723D01*
X129797569Y-116093874D01*
X129640000Y-116474280D01*
X129640000Y-116640351D01*
X126290529Y-119989824D01*
X126227070Y-120032226D01*
X126059095Y-120283619D01*
X126014999Y-120505304D01*
X126014999Y-120505308D01*
X126000111Y-120580155D01*
X126014999Y-120655002D01*
X126015000Y-132700147D01*
X126000111Y-132774999D01*
X126059096Y-133071536D01*
X126155560Y-133215904D01*
X126227071Y-133322928D01*
X126290527Y-133365328D01*
X126465000Y-133539801D01*
X126465000Y-133705874D01*
X126520557Y-133840000D01*
X122360000Y-133840000D01*
X122360000Y-133574848D01*
X122374888Y-133500000D01*
X122360000Y-133425152D01*
X122360000Y-133425148D01*
X122315904Y-133203463D01*
X122147929Y-132952071D01*
X122084473Y-132909671D01*
X121190331Y-132015530D01*
X121147929Y-131952071D01*
X120896537Y-131784096D01*
X120674852Y-131740000D01*
X120674847Y-131740000D01*
X120600000Y-131725112D01*
X120525153Y-131740000D01*
X109514802Y-131740000D01*
X109060000Y-131285199D01*
X109060000Y-130403711D01*
X109177431Y-130286280D01*
X109335000Y-129905874D01*
X109335000Y-129494126D01*
X111665000Y-129494126D01*
X111665000Y-129905874D01*
X111822569Y-130286280D01*
X112113720Y-130577431D01*
X112494126Y-130735000D01*
X112905874Y-130735000D01*
X113286280Y-130577431D01*
X113577431Y-130286280D01*
X113735000Y-129905874D01*
X113735000Y-129494126D01*
X113577431Y-129113720D01*
X113460000Y-128996289D01*
X113460000Y-127052532D01*
X115727073Y-127052532D01*
X115825736Y-127319387D01*
X116435461Y-127545908D01*
X117085460Y-127521856D01*
X117574264Y-127319387D01*
X117672927Y-127052532D01*
X122227073Y-127052532D01*
X122325736Y-127319387D01*
X122935461Y-127545908D01*
X123585460Y-127521856D01*
X124074264Y-127319387D01*
X124172927Y-127052532D01*
X123200000Y-126079605D01*
X122227073Y-127052532D01*
X117672927Y-127052532D01*
X116700000Y-126079605D01*
X115727073Y-127052532D01*
X113460000Y-127052532D01*
X113460000Y-125635461D01*
X115054092Y-125635461D01*
X115078144Y-126285460D01*
X115280613Y-126774264D01*
X115547468Y-126872927D01*
X116520395Y-125900000D01*
X116879605Y-125900000D01*
X117852532Y-126872927D01*
X118119387Y-126774264D01*
X118345908Y-126164539D01*
X118326331Y-125635461D01*
X121554092Y-125635461D01*
X121578144Y-126285460D01*
X121780613Y-126774264D01*
X122047468Y-126872927D01*
X123020395Y-125900000D01*
X123379605Y-125900000D01*
X124352532Y-126872927D01*
X124619387Y-126774264D01*
X124845908Y-126164539D01*
X124821856Y-125514540D01*
X124619387Y-125025736D01*
X124352532Y-124927073D01*
X123379605Y-125900000D01*
X123020395Y-125900000D01*
X122047468Y-124927073D01*
X121780613Y-125025736D01*
X121554092Y-125635461D01*
X118326331Y-125635461D01*
X118321856Y-125514540D01*
X118119387Y-125025736D01*
X117852532Y-124927073D01*
X116879605Y-125900000D01*
X116520395Y-125900000D01*
X115547468Y-124927073D01*
X115280613Y-125025736D01*
X115054092Y-125635461D01*
X113460000Y-125635461D01*
X113460000Y-124747468D01*
X115727073Y-124747468D01*
X116700000Y-125720395D01*
X117672927Y-124747468D01*
X122227073Y-124747468D01*
X123200000Y-125720395D01*
X124172927Y-124747468D01*
X124074264Y-124480613D01*
X123464539Y-124254092D01*
X122814540Y-124278144D01*
X122325736Y-124480613D01*
X122227073Y-124747468D01*
X117672927Y-124747468D01*
X117574264Y-124480613D01*
X116964539Y-124254092D01*
X116314540Y-124278144D01*
X115825736Y-124480613D01*
X115727073Y-124747468D01*
X113460000Y-124747468D01*
X113460000Y-120623711D01*
X113513720Y-120677431D01*
X113894126Y-120835000D01*
X114305874Y-120835000D01*
X114686280Y-120677431D01*
X114803711Y-120560000D01*
X115278228Y-120560000D01*
X115065000Y-121074778D01*
X115065000Y-121725222D01*
X115313914Y-122326153D01*
X115773847Y-122786086D01*
X116374778Y-123035000D01*
X117025222Y-123035000D01*
X117626153Y-122786086D01*
X118086086Y-122326153D01*
X118154909Y-122160000D01*
X121745091Y-122160000D01*
X121813914Y-122326153D01*
X122273847Y-122786086D01*
X122874778Y-123035000D01*
X123525222Y-123035000D01*
X124126153Y-122786086D01*
X124586086Y-122326153D01*
X124835000Y-121725222D01*
X124835000Y-121074778D01*
X124586086Y-120473847D01*
X124276545Y-120164306D01*
X124486280Y-120077431D01*
X124777431Y-119786280D01*
X124935000Y-119405874D01*
X124935000Y-118994126D01*
X124777431Y-118613720D01*
X124660415Y-118496704D01*
X124771548Y-118385570D01*
X124929117Y-118005164D01*
X124929117Y-117593416D01*
X124822129Y-117335125D01*
X124958624Y-117005597D01*
X124958624Y-116593849D01*
X124801055Y-116213443D01*
X124509904Y-115922292D01*
X124129498Y-115764723D01*
X123717750Y-115764723D01*
X123337344Y-115922292D01*
X123219636Y-116040000D01*
X113574848Y-116040000D01*
X113500000Y-116025112D01*
X113425152Y-116040000D01*
X113425148Y-116040000D01*
X113251605Y-116074520D01*
X113203462Y-116084096D01*
X113016418Y-116209076D01*
X112952071Y-116252071D01*
X112909671Y-116315527D01*
X112215530Y-117009669D01*
X112152071Y-117052071D01*
X111984096Y-117303464D01*
X111940000Y-117525149D01*
X111940000Y-117525153D01*
X111925112Y-117600000D01*
X111940000Y-117674847D01*
X111940001Y-128996288D01*
X111822569Y-129113720D01*
X111665000Y-129494126D01*
X109335000Y-129494126D01*
X109177431Y-129113720D01*
X109044314Y-128980603D01*
X109015904Y-128837778D01*
X108847929Y-128586386D01*
X108784473Y-128543986D01*
X108309999Y-128069513D01*
X108309999Y-125068636D01*
X108349506Y-125085000D01*
X108900494Y-125085000D01*
X109409540Y-124874147D01*
X109799147Y-124484540D01*
X110010000Y-123975494D01*
X110010000Y-123424506D01*
X109799147Y-122915460D01*
X109409540Y-122525853D01*
X108900494Y-122315000D01*
X108349506Y-122315000D01*
X108309999Y-122331364D01*
X108309999Y-97514801D01*
X109064801Y-96760000D01*
X121377945Y-96760000D01*
X121452792Y-96774888D01*
X121527639Y-96760000D01*
X121527644Y-96760000D01*
X121749329Y-96715904D01*
X122000721Y-96547929D01*
X122043123Y-96484470D01*
X123045002Y-95482592D01*
X123045001Y-101907195D01*
X122262954Y-102689243D01*
X122096280Y-102522569D01*
X121715874Y-102365000D01*
X121304126Y-102365000D01*
X120923720Y-102522569D01*
X120632569Y-102813720D01*
X120475000Y-103194126D01*
X120475000Y-103605874D01*
X120632569Y-103986280D01*
X120923720Y-104277431D01*
X120940001Y-104284175D01*
X120940001Y-104953739D01*
X120725766Y-104865000D01*
X120274234Y-104865000D01*
X119857074Y-105037793D01*
X119537793Y-105357074D01*
X119365000Y-105774234D01*
X119365000Y-106225766D01*
X119537793Y-106642926D01*
X119844867Y-106950000D01*
X119537793Y-107257074D01*
X119365000Y-107674234D01*
X119365000Y-108125766D01*
X119537793Y-108542926D01*
X119857074Y-108862207D01*
X120274234Y-109035000D01*
X120665000Y-109035000D01*
X120665000Y-109240000D01*
X113814802Y-109240000D01*
X113060000Y-108485199D01*
X113060000Y-101403711D01*
X113177431Y-101286280D01*
X113335000Y-100905874D01*
X113335000Y-100494126D01*
X113177431Y-100113720D01*
X112886280Y-99822569D01*
X112505874Y-99665000D01*
X112094126Y-99665000D01*
X111713720Y-99822569D01*
X111422569Y-100113720D01*
X111265000Y-100494126D01*
X111265000Y-100905874D01*
X111422569Y-101286280D01*
X111540001Y-101403712D01*
X111540000Y-108725153D01*
X111525112Y-108800000D01*
X111540000Y-108874847D01*
X111540000Y-108874851D01*
X111584096Y-109096536D01*
X111752071Y-109347929D01*
X111815530Y-109390331D01*
X112909670Y-110484472D01*
X112952071Y-110547929D01*
X113203463Y-110715904D01*
X113425148Y-110760000D01*
X113425152Y-110760000D01*
X113499999Y-110774888D01*
X113574846Y-110760000D01*
X121450884Y-110760000D01*
X121658728Y-110967845D01*
X121565000Y-111194126D01*
X121565000Y-111605874D01*
X121722569Y-111986280D01*
X122013720Y-112277431D01*
X122394126Y-112435000D01*
X122805874Y-112435000D01*
X123186280Y-112277431D01*
X123477431Y-111986280D01*
X123635000Y-111605874D01*
X123635000Y-111194126D01*
X123477431Y-110813720D01*
X123344314Y-110680603D01*
X123315904Y-110537778D01*
X123147929Y-110286386D01*
X123084473Y-110243986D01*
X122858557Y-110018070D01*
X122882063Y-110018070D01*
X123262469Y-109860501D01*
X123553620Y-109569350D01*
X123711189Y-109188944D01*
X123711189Y-108777196D01*
X123553620Y-108396790D01*
X123262469Y-108105639D01*
X122934999Y-107969997D01*
X122934999Y-104166800D01*
X124289474Y-102812326D01*
X124352930Y-102769926D01*
X124520905Y-102518534D01*
X124565001Y-102296849D01*
X124565001Y-102296844D01*
X124579889Y-102221997D01*
X124565001Y-102147150D01*
X124565001Y-90798710D01*
X124677431Y-90686280D01*
X124835000Y-90305874D01*
X124835000Y-89894126D01*
X124820865Y-89860000D01*
X131985199Y-89860000D01*
X132971686Y-90846487D01*
X132935191Y-91029958D01*
X132935191Y-91029962D01*
X132920303Y-91104809D01*
X132935191Y-91179656D01*
X132935192Y-102926403D01*
X132735222Y-103126373D01*
X132577653Y-103506779D01*
X132577653Y-103918527D01*
X132735222Y-104298933D01*
X133026373Y-104590084D01*
X133406779Y-104747653D01*
X133818527Y-104747653D01*
X134198933Y-104590084D01*
X134490084Y-104298933D01*
X134647653Y-103918527D01*
X134647653Y-103506779D01*
X134490084Y-103126373D01*
X134455191Y-103091480D01*
X134455191Y-91419610D01*
X134484471Y-91390330D01*
X134547929Y-91347929D01*
X134710376Y-91104809D01*
X134715903Y-91096538D01*
X134774888Y-90800001D01*
X134730111Y-90574888D01*
X134715903Y-90503462D01*
X134590329Y-90315527D01*
X134590328Y-90315526D01*
X134547929Y-90252071D01*
X134484473Y-90209671D01*
X132890331Y-88615530D01*
X132847929Y-88552071D01*
X132596537Y-88384096D01*
X132374852Y-88340000D01*
X132374847Y-88340000D01*
X132300000Y-88325112D01*
X132225153Y-88340000D01*
X104474848Y-88340000D01*
X104400000Y-88325112D01*
X104325152Y-88340000D01*
X104325148Y-88340000D01*
X104151605Y-88374520D01*
X104103462Y-88384096D01*
X104042024Y-88425148D01*
X103852071Y-88552071D01*
X103809671Y-88615528D01*
X103560000Y-88865199D01*
X103560000Y-88814801D01*
X104814802Y-87560000D01*
X130796289Y-87560000D01*
X130913720Y-87677431D01*
X131294126Y-87835000D01*
X131705874Y-87835000D01*
X132086280Y-87677431D01*
X132377431Y-87386280D01*
X132535000Y-87005874D01*
X132535000Y-86594126D01*
X132377431Y-86213720D01*
X132086280Y-85922569D01*
X131705874Y-85765000D01*
X131294126Y-85765000D01*
X130913720Y-85922569D01*
X130796289Y-86040000D01*
X104574846Y-86040000D01*
X104499999Y-86025112D01*
X104425152Y-86040000D01*
X104425148Y-86040000D01*
X104203463Y-86084096D01*
X103952071Y-86252071D01*
X103909671Y-86315527D01*
X102315528Y-87909671D01*
X102252072Y-87952071D01*
X102209672Y-88015527D01*
X102209671Y-88015528D01*
X102084097Y-88203463D01*
X102025112Y-88500000D01*
X102040001Y-88574852D01*
X102040000Y-122372785D01*
X101900494Y-122315000D01*
X101349506Y-122315000D01*
X100840460Y-122525853D01*
X100710000Y-122656313D01*
X100710000Y-82259336D01*
X117213542Y-82259336D01*
X117239161Y-82869460D01*
X117423357Y-83314148D01*
X117679841Y-83400554D01*
X118580395Y-82500000D01*
X117679841Y-81599446D01*
X117423357Y-81685852D01*
X117213542Y-82259336D01*
X100710000Y-82259336D01*
X100710000Y-81419841D01*
X117859446Y-81419841D01*
X118760000Y-82320395D01*
X118774143Y-82306253D01*
X118953748Y-82485858D01*
X118939605Y-82500000D01*
X118953748Y-82514143D01*
X118774143Y-82693748D01*
X118760000Y-82679605D01*
X117859446Y-83580159D01*
X117945852Y-83836643D01*
X118519336Y-84046458D01*
X119129460Y-84020839D01*
X119574148Y-83836643D01*
X119660553Y-83580161D01*
X119775110Y-83694718D01*
X119809942Y-83659886D01*
X119942191Y-83857809D01*
X120152235Y-83998157D01*
X120400000Y-84047440D01*
X122200000Y-84047440D01*
X122447765Y-83998157D01*
X122657809Y-83857809D01*
X122798157Y-83647765D01*
X122847440Y-83400000D01*
X122847440Y-81600000D01*
X122798157Y-81352235D01*
X122657809Y-81142191D01*
X122447765Y-81001843D01*
X122200000Y-80952560D01*
X120400000Y-80952560D01*
X120152235Y-81001843D01*
X119942191Y-81142191D01*
X119809942Y-81340114D01*
X119775110Y-81305282D01*
X119660553Y-81419839D01*
X119574148Y-81163357D01*
X119000664Y-80953542D01*
X118390540Y-80979161D01*
X117945852Y-81163357D01*
X117859446Y-81419841D01*
X100710000Y-81419841D01*
X100710000Y-78185750D01*
X111115000Y-78185750D01*
X111115000Y-79526309D01*
X111211673Y-79759698D01*
X111390301Y-79938327D01*
X111623690Y-80035000D01*
X113464250Y-80035000D01*
X113623000Y-79876250D01*
X113623000Y-78027000D01*
X113877000Y-78027000D01*
X113877000Y-79876250D01*
X114035750Y-80035000D01*
X115876310Y-80035000D01*
X116109699Y-79938327D01*
X116288327Y-79759698D01*
X116385000Y-79526309D01*
X116385000Y-78185750D01*
X116226250Y-78027000D01*
X113877000Y-78027000D01*
X113623000Y-78027000D01*
X111273750Y-78027000D01*
X111115000Y-78185750D01*
X100710000Y-78185750D01*
X100710000Y-76273691D01*
X111115000Y-76273691D01*
X111115000Y-77614250D01*
X111273750Y-77773000D01*
X113623000Y-77773000D01*
X113623000Y-75923750D01*
X113877000Y-75923750D01*
X113877000Y-77773000D01*
X116226250Y-77773000D01*
X116385000Y-77614250D01*
X116385000Y-77150000D01*
X123602560Y-77150000D01*
X123602560Y-78650000D01*
X123708934Y-79184777D01*
X124011861Y-79638139D01*
X124465223Y-79941066D01*
X125000000Y-80047440D01*
X127500000Y-80047440D01*
X128034777Y-79941066D01*
X128488139Y-79638139D01*
X128791066Y-79184777D01*
X128897440Y-78650000D01*
X128897440Y-77150000D01*
X128791066Y-76615223D01*
X128488139Y-76161861D01*
X128034777Y-75858934D01*
X127500000Y-75752560D01*
X125000000Y-75752560D01*
X124465223Y-75858934D01*
X124011861Y-76161861D01*
X123708934Y-76615223D01*
X123602560Y-77150000D01*
X116385000Y-77150000D01*
X116385000Y-76273691D01*
X116288327Y-76040302D01*
X116109699Y-75861673D01*
X115876310Y-75765000D01*
X114035750Y-75765000D01*
X113877000Y-75923750D01*
X113623000Y-75923750D01*
X113464250Y-75765000D01*
X111623690Y-75765000D01*
X111390301Y-75861673D01*
X111211673Y-76040302D01*
X111115000Y-76273691D01*
X100710000Y-76273691D01*
X100710000Y-74575322D01*
X117865000Y-74575322D01*
X117865000Y-75424678D01*
X118190034Y-76209380D01*
X118790620Y-76809966D01*
X119575322Y-77135000D01*
X120424678Y-77135000D01*
X121209380Y-76809966D01*
X121809966Y-76209380D01*
X122135000Y-75424678D01*
X122135000Y-74575322D01*
X121809966Y-73790620D01*
X121209380Y-73190034D01*
X120424678Y-72865000D01*
X119575322Y-72865000D01*
X118790620Y-73190034D01*
X118190034Y-73790620D01*
X117865000Y-74575322D01*
X100710000Y-74575322D01*
X100710000Y-70710000D01*
X136073000Y-70710000D01*
X136073000Y-118698197D01*
G04 #@! TD*
M02*
