G04 #@! TF.GenerationSoftware,KiCad,Pcbnew,5.0.2-bee76a0~70~ubuntu16.04.1*
G04 #@! TF.CreationDate,2018-12-03T16:58:38+05:30*
G04 #@! TF.ProjectId,senseBeRx_rev2,73656e73-6542-4655-9278-5f726576322e,rev?*
G04 #@! TF.SameCoordinates,Original*
G04 #@! TF.FileFunction,Copper,L1,Top*
G04 #@! TF.FilePolarity,Positive*
%FSLAX46Y46*%
G04 Gerber Fmt 4.6, Leading zero omitted, Abs format (unit mm)*
G04 Created by KiCad (PCBNEW 5.0.2-bee76a0~70~ubuntu16.04.1) date Mon Dec  3 16:58:38 2018*
%MOMM*%
%LPD*%
G01*
G04 APERTURE LIST*
G04 #@! TA.AperFunction,SMDPad,CuDef*
%ADD10R,1.200000X2.500000*%
G04 #@! TD*
G04 #@! TA.AperFunction,ComponentPad*
%ADD11C,1.000000*%
G04 #@! TD*
G04 #@! TA.AperFunction,Conductor*
%ADD12C,0.100000*%
G04 #@! TD*
G04 #@! TA.AperFunction,ComponentPad*
%ADD13C,3.000000*%
G04 #@! TD*
G04 #@! TA.AperFunction,SMDPad,CuDef*
%ADD14C,0.950000*%
G04 #@! TD*
G04 #@! TA.AperFunction,SMDPad,CuDef*
%ADD15R,1.600000X0.800000*%
G04 #@! TD*
G04 #@! TA.AperFunction,ComponentPad*
%ADD16R,1.800000X1.800000*%
G04 #@! TD*
G04 #@! TA.AperFunction,ComponentPad*
%ADD17C,1.800000*%
G04 #@! TD*
G04 #@! TA.AperFunction,SMDPad,CuDef*
%ADD18R,1.900000X0.800000*%
G04 #@! TD*
G04 #@! TA.AperFunction,SMDPad,CuDef*
%ADD19R,0.500000X1.200000*%
G04 #@! TD*
G04 #@! TA.AperFunction,SMDPad,CuDef*
%ADD20R,0.900000X1.600000*%
G04 #@! TD*
G04 #@! TA.AperFunction,SMDPad,CuDef*
%ADD21R,0.500000X1.600000*%
G04 #@! TD*
G04 #@! TA.AperFunction,SMDPad,CuDef*
%ADD22R,1.600000X0.500000*%
G04 #@! TD*
G04 #@! TA.AperFunction,SMDPad,CuDef*
%ADD23C,1.150000*%
G04 #@! TD*
G04 #@! TA.AperFunction,ComponentPad*
%ADD24C,2.000000*%
G04 #@! TD*
G04 #@! TA.AperFunction,WasherPad*
%ADD25C,1.600000*%
G04 #@! TD*
G04 #@! TA.AperFunction,ComponentPad*
%ADD26C,1.600000*%
G04 #@! TD*
G04 #@! TA.AperFunction,SMDPad,CuDef*
%ADD27R,0.900000X0.800000*%
G04 #@! TD*
G04 #@! TA.AperFunction,ViaPad*
%ADD28C,0.800000*%
G04 #@! TD*
G04 #@! TA.AperFunction,Conductor*
%ADD29C,0.250000*%
G04 #@! TD*
G04 #@! TA.AperFunction,Conductor*
%ADD30C,0.254000*%
G04 #@! TD*
G04 APERTURE END LIST*
D10*
G04 #@! TO.P,J1,5*
G04 #@! TO.N,/CAM_JACK*
X111325000Y-126950000D03*
G04 #@! TO.P,J1,4*
G04 #@! TO.N,/TRIGGER*
X110225000Y-120450000D03*
G04 #@! TO.P,J1,3*
G04 #@! TO.N,/FOCUS*
X106225000Y-120450000D03*
G04 #@! TO.P,J1,2*
G04 #@! TO.N,GND*
X103225000Y-120450000D03*
G04 #@! TD*
D11*
G04 #@! TO.P,Y1,1*
G04 #@! TO.N,/LFCLK_XL1*
X120500000Y-106000000D03*
G04 #@! TO.P,Y1,2*
G04 #@! TO.N,/LFCLK_XL2*
X120500000Y-107900000D03*
G04 #@! TD*
D12*
G04 #@! TO.N,Net-(BT1-Pad1)*
G04 #@! TO.C,BT1*
G36*
X127573513Y-76403611D02*
X127646318Y-76414411D01*
X127717714Y-76432295D01*
X127787013Y-76457090D01*
X127853548Y-76488559D01*
X127916678Y-76526398D01*
X127975795Y-76570242D01*
X128030330Y-76619670D01*
X128079758Y-76674205D01*
X128123602Y-76733322D01*
X128161441Y-76796452D01*
X128192910Y-76862987D01*
X128217705Y-76932286D01*
X128235589Y-77003682D01*
X128246389Y-77076487D01*
X128250000Y-77150000D01*
X128250000Y-78650000D01*
X128246389Y-78723513D01*
X128235589Y-78796318D01*
X128217705Y-78867714D01*
X128192910Y-78937013D01*
X128161441Y-79003548D01*
X128123602Y-79066678D01*
X128079758Y-79125795D01*
X128030330Y-79180330D01*
X127975795Y-79229758D01*
X127916678Y-79273602D01*
X127853548Y-79311441D01*
X127787013Y-79342910D01*
X127717714Y-79367705D01*
X127646318Y-79385589D01*
X127573513Y-79396389D01*
X127500000Y-79400000D01*
X125000000Y-79400000D01*
X124926487Y-79396389D01*
X124853682Y-79385589D01*
X124782286Y-79367705D01*
X124712987Y-79342910D01*
X124646452Y-79311441D01*
X124583322Y-79273602D01*
X124524205Y-79229758D01*
X124469670Y-79180330D01*
X124420242Y-79125795D01*
X124376398Y-79066678D01*
X124338559Y-79003548D01*
X124307090Y-78937013D01*
X124282295Y-78867714D01*
X124264411Y-78796318D01*
X124253611Y-78723513D01*
X124250000Y-78650000D01*
X124250000Y-77150000D01*
X124253611Y-77076487D01*
X124264411Y-77003682D01*
X124282295Y-76932286D01*
X124307090Y-76862987D01*
X124338559Y-76796452D01*
X124376398Y-76733322D01*
X124420242Y-76674205D01*
X124469670Y-76619670D01*
X124524205Y-76570242D01*
X124583322Y-76526398D01*
X124646452Y-76488559D01*
X124712987Y-76457090D01*
X124782286Y-76432295D01*
X124853682Y-76414411D01*
X124926487Y-76403611D01*
X125000000Y-76400000D01*
X127500000Y-76400000D01*
X127573513Y-76403611D01*
X127573513Y-76403611D01*
G37*
D13*
G04 #@! TD*
G04 #@! TO.P,BT1,1*
G04 #@! TO.N,Net-(BT1-Pad1)*
X126250000Y-77900000D03*
D12*
G04 #@! TO.N,GND*
G04 #@! TO.C,BT1*
G36*
X115073513Y-76403611D02*
X115146318Y-76414411D01*
X115217714Y-76432295D01*
X115287013Y-76457090D01*
X115353548Y-76488559D01*
X115416678Y-76526398D01*
X115475795Y-76570242D01*
X115530330Y-76619670D01*
X115579758Y-76674205D01*
X115623602Y-76733322D01*
X115661441Y-76796452D01*
X115692910Y-76862987D01*
X115717705Y-76932286D01*
X115735589Y-77003682D01*
X115746389Y-77076487D01*
X115750000Y-77150000D01*
X115750000Y-78650000D01*
X115746389Y-78723513D01*
X115735589Y-78796318D01*
X115717705Y-78867714D01*
X115692910Y-78937013D01*
X115661441Y-79003548D01*
X115623602Y-79066678D01*
X115579758Y-79125795D01*
X115530330Y-79180330D01*
X115475795Y-79229758D01*
X115416678Y-79273602D01*
X115353548Y-79311441D01*
X115287013Y-79342910D01*
X115217714Y-79367705D01*
X115146318Y-79385589D01*
X115073513Y-79396389D01*
X115000000Y-79400000D01*
X112500000Y-79400000D01*
X112426487Y-79396389D01*
X112353682Y-79385589D01*
X112282286Y-79367705D01*
X112212987Y-79342910D01*
X112146452Y-79311441D01*
X112083322Y-79273602D01*
X112024205Y-79229758D01*
X111969670Y-79180330D01*
X111920242Y-79125795D01*
X111876398Y-79066678D01*
X111838559Y-79003548D01*
X111807090Y-78937013D01*
X111782295Y-78867714D01*
X111764411Y-78796318D01*
X111753611Y-78723513D01*
X111750000Y-78650000D01*
X111750000Y-77150000D01*
X111753611Y-77076487D01*
X111764411Y-77003682D01*
X111782295Y-76932286D01*
X111807090Y-76862987D01*
X111838559Y-76796452D01*
X111876398Y-76733322D01*
X111920242Y-76674205D01*
X111969670Y-76619670D01*
X112024205Y-76570242D01*
X112083322Y-76526398D01*
X112146452Y-76488559D01*
X112212987Y-76457090D01*
X112282286Y-76432295D01*
X112353682Y-76414411D01*
X112426487Y-76403611D01*
X112500000Y-76400000D01*
X115000000Y-76400000D01*
X115073513Y-76403611D01*
X115073513Y-76403611D01*
G37*
D13*
G04 #@! TD*
G04 #@! TO.P,BT1,2*
G04 #@! TO.N,GND*
X113750000Y-77900000D03*
D12*
G04 #@! TO.N,/RX_EN*
G04 #@! TO.C,R9*
G36*
X112585779Y-98726144D02*
X112608834Y-98729563D01*
X112631443Y-98735227D01*
X112653387Y-98743079D01*
X112674457Y-98753044D01*
X112694448Y-98765026D01*
X112713168Y-98778910D01*
X112730438Y-98794562D01*
X112746090Y-98811832D01*
X112759974Y-98830552D01*
X112771956Y-98850543D01*
X112781921Y-98871613D01*
X112789773Y-98893557D01*
X112795437Y-98916166D01*
X112798856Y-98939221D01*
X112800000Y-98962500D01*
X112800000Y-99437500D01*
X112798856Y-99460779D01*
X112795437Y-99483834D01*
X112789773Y-99506443D01*
X112781921Y-99528387D01*
X112771956Y-99549457D01*
X112759974Y-99569448D01*
X112746090Y-99588168D01*
X112730438Y-99605438D01*
X112713168Y-99621090D01*
X112694448Y-99634974D01*
X112674457Y-99646956D01*
X112653387Y-99656921D01*
X112631443Y-99664773D01*
X112608834Y-99670437D01*
X112585779Y-99673856D01*
X112562500Y-99675000D01*
X111987500Y-99675000D01*
X111964221Y-99673856D01*
X111941166Y-99670437D01*
X111918557Y-99664773D01*
X111896613Y-99656921D01*
X111875543Y-99646956D01*
X111855552Y-99634974D01*
X111836832Y-99621090D01*
X111819562Y-99605438D01*
X111803910Y-99588168D01*
X111790026Y-99569448D01*
X111778044Y-99549457D01*
X111768079Y-99528387D01*
X111760227Y-99506443D01*
X111754563Y-99483834D01*
X111751144Y-99460779D01*
X111750000Y-99437500D01*
X111750000Y-98962500D01*
X111751144Y-98939221D01*
X111754563Y-98916166D01*
X111760227Y-98893557D01*
X111768079Y-98871613D01*
X111778044Y-98850543D01*
X111790026Y-98830552D01*
X111803910Y-98811832D01*
X111819562Y-98794562D01*
X111836832Y-98778910D01*
X111855552Y-98765026D01*
X111875543Y-98753044D01*
X111896613Y-98743079D01*
X111918557Y-98735227D01*
X111941166Y-98729563D01*
X111964221Y-98726144D01*
X111987500Y-98725000D01*
X112562500Y-98725000D01*
X112585779Y-98726144D01*
X112585779Y-98726144D01*
G37*
D14*
G04 #@! TD*
G04 #@! TO.P,R9,1*
G04 #@! TO.N,/RX_EN*
X112275000Y-99200000D03*
D12*
G04 #@! TO.N,GND*
G04 #@! TO.C,R9*
G36*
X110835779Y-98726144D02*
X110858834Y-98729563D01*
X110881443Y-98735227D01*
X110903387Y-98743079D01*
X110924457Y-98753044D01*
X110944448Y-98765026D01*
X110963168Y-98778910D01*
X110980438Y-98794562D01*
X110996090Y-98811832D01*
X111009974Y-98830552D01*
X111021956Y-98850543D01*
X111031921Y-98871613D01*
X111039773Y-98893557D01*
X111045437Y-98916166D01*
X111048856Y-98939221D01*
X111050000Y-98962500D01*
X111050000Y-99437500D01*
X111048856Y-99460779D01*
X111045437Y-99483834D01*
X111039773Y-99506443D01*
X111031921Y-99528387D01*
X111021956Y-99549457D01*
X111009974Y-99569448D01*
X110996090Y-99588168D01*
X110980438Y-99605438D01*
X110963168Y-99621090D01*
X110944448Y-99634974D01*
X110924457Y-99646956D01*
X110903387Y-99656921D01*
X110881443Y-99664773D01*
X110858834Y-99670437D01*
X110835779Y-99673856D01*
X110812500Y-99675000D01*
X110237500Y-99675000D01*
X110214221Y-99673856D01*
X110191166Y-99670437D01*
X110168557Y-99664773D01*
X110146613Y-99656921D01*
X110125543Y-99646956D01*
X110105552Y-99634974D01*
X110086832Y-99621090D01*
X110069562Y-99605438D01*
X110053910Y-99588168D01*
X110040026Y-99569448D01*
X110028044Y-99549457D01*
X110018079Y-99528387D01*
X110010227Y-99506443D01*
X110004563Y-99483834D01*
X110001144Y-99460779D01*
X110000000Y-99437500D01*
X110000000Y-98962500D01*
X110001144Y-98939221D01*
X110004563Y-98916166D01*
X110010227Y-98893557D01*
X110018079Y-98871613D01*
X110028044Y-98850543D01*
X110040026Y-98830552D01*
X110053910Y-98811832D01*
X110069562Y-98794562D01*
X110086832Y-98778910D01*
X110105552Y-98765026D01*
X110125543Y-98753044D01*
X110146613Y-98743079D01*
X110168557Y-98735227D01*
X110191166Y-98729563D01*
X110214221Y-98726144D01*
X110237500Y-98725000D01*
X110812500Y-98725000D01*
X110835779Y-98726144D01*
X110835779Y-98726144D01*
G37*
D14*
G04 #@! TD*
G04 #@! TO.P,R9,2*
G04 #@! TO.N,GND*
X110525000Y-99200000D03*
D15*
G04 #@! TO.P,D1,2*
G04 #@! TO.N,Net-(D1-Pad2)*
X118400000Y-136200000D03*
G04 #@! TO.P,D1,1*
G04 #@! TO.N,VDD*
X121600000Y-136200000D03*
G04 #@! TO.P,D1,3*
X121600000Y-137600000D03*
G04 #@! TO.P,D1,4*
G04 #@! TO.N,Net-(D1-Pad4)*
X118400000Y-137600000D03*
G04 #@! TD*
D16*
G04 #@! TO.P,D2,1*
G04 #@! TO.N,/LIGHT_SENSE*
X121300000Y-82500000D03*
D17*
G04 #@! TO.P,D2,2*
G04 #@! TO.N,GND*
X118760000Y-82500000D03*
G04 #@! TD*
D18*
G04 #@! TO.P,Q1,1*
G04 #@! TO.N,GND*
X132500000Y-81550000D03*
G04 #@! TO.P,Q1,2*
G04 #@! TO.N,VDD*
X132500000Y-83450000D03*
G04 #@! TO.P,Q1,3*
G04 #@! TO.N,Net-(BT1-Pad1)*
X135500000Y-82500000D03*
G04 #@! TD*
G04 #@! TO.P,Q2,1*
G04 #@! TO.N,/LED_GREEN*
X107500000Y-138350000D03*
G04 #@! TO.P,Q2,2*
G04 #@! TO.N,GND*
X107500000Y-140250000D03*
G04 #@! TO.P,Q2,3*
G04 #@! TO.N,Net-(Q2-Pad3)*
X110500000Y-139300000D03*
G04 #@! TD*
G04 #@! TO.P,Q3,3*
G04 #@! TO.N,Net-(Q3-Pad3)*
X110500000Y-134900000D03*
G04 #@! TO.P,Q3,2*
G04 #@! TO.N,GND*
X107500000Y-135850000D03*
G04 #@! TO.P,Q3,1*
G04 #@! TO.N,/LED_RED*
X107500000Y-133950000D03*
G04 #@! TD*
D19*
G04 #@! TO.P,U1,41*
G04 #@! TO.N,N/C*
X133850000Y-112900000D03*
G04 #@! TO.P,U1,40*
X135250000Y-112900000D03*
D20*
G04 #@! TO.P,U1,39*
G04 #@! TO.N,GND*
X135800000Y-114750000D03*
D21*
G04 #@! TO.P,U1,38*
G04 #@! TO.N,N/C*
X134900000Y-114750000D03*
G04 #@! TO.P,U1,37*
G04 #@! TO.N,/SWDIO*
X134200000Y-114750000D03*
G04 #@! TO.P,U1,36*
G04 #@! TO.N,/SWDCLK*
X133500000Y-114750000D03*
G04 #@! TO.P,U1,35*
G04 #@! TO.N,/RESET*
X132800000Y-114750000D03*
G04 #@! TO.P,U1,34*
G04 #@! TO.N,/TX*
X132100000Y-114750000D03*
G04 #@! TO.P,U1,33*
G04 #@! TO.N,/GPIO1*
X131400000Y-114750000D03*
G04 #@! TO.P,U1,32*
G04 #@! TO.N,/GPIO2*
X130700000Y-114750000D03*
G04 #@! TO.P,U1,31*
G04 #@! TO.N,/RX*
X130000000Y-114750000D03*
G04 #@! TO.P,U1,30*
G04 #@! TO.N,/LED_RED*
X129300000Y-114750000D03*
G04 #@! TO.P,U1,29*
G04 #@! TO.N,/RX_UARTRX*
X128600000Y-114750000D03*
G04 #@! TO.P,U1,28*
G04 #@! TO.N,N/C*
X127900000Y-114750000D03*
G04 #@! TO.P,U1,27*
G04 #@! TO.N,/TRIGGER*
X127200000Y-114750000D03*
G04 #@! TO.P,U1,26*
G04 #@! TO.N,/FOCUS*
X126500000Y-114750000D03*
G04 #@! TO.P,U1,25*
G04 #@! TO.N,/CAM_JACK*
X125800000Y-114750000D03*
D22*
G04 #@! TO.P,U1,24*
G04 #@! TO.N,GND*
X124250000Y-114200000D03*
G04 #@! TO.P,U1,23*
G04 #@! TO.N,N/C*
X124250000Y-113500000D03*
G04 #@! TO.P,U1,22*
X124250000Y-112800000D03*
G04 #@! TO.P,U1,21*
G04 #@! TO.N,/BUTTON*
X124250000Y-112100000D03*
G04 #@! TO.P,U1,20*
G04 #@! TO.N,/RX_EN*
X124250000Y-111400000D03*
G04 #@! TO.P,U1,19*
G04 #@! TO.N,/RX_OUT*
X124250000Y-110700000D03*
G04 #@! TO.P,U1,18*
G04 #@! TO.N,/LIGHT_SENSE*
X124250000Y-110000000D03*
G04 #@! TO.P,U1,17*
G04 #@! TO.N,N/C*
X124250000Y-109300000D03*
G04 #@! TO.P,U1,16*
X124250000Y-108600000D03*
G04 #@! TO.P,U1,15*
X124250000Y-107900000D03*
G04 #@! TO.P,U1,14*
G04 #@! TO.N,/LFCLK_XL2*
X124250000Y-107200000D03*
G04 #@! TO.P,U1,13*
G04 #@! TO.N,/LFCLK_XL1*
X124250000Y-106500000D03*
D21*
G04 #@! TO.P,U1,11*
G04 #@! TO.N,VDD*
X126500000Y-105250000D03*
G04 #@! TO.P,U1,10*
G04 #@! TO.N,/DCC*
X127200000Y-105250000D03*
G04 #@! TO.P,U1,9*
G04 #@! TO.N,/DEC4*
X127900000Y-105250000D03*
G04 #@! TO.P,U1,8*
G04 #@! TO.N,VDD*
X128600000Y-105250000D03*
G04 #@! TO.P,U1,7*
G04 #@! TO.N,N/C*
X129300000Y-105250000D03*
G04 #@! TO.P,U1,6*
X130000000Y-105250000D03*
G04 #@! TO.P,U1,5*
X130700000Y-105250000D03*
G04 #@! TO.P,U1,4*
X131400000Y-105250000D03*
G04 #@! TO.P,U1,3*
G04 #@! TO.N,/LED_RED*
X132100000Y-105250000D03*
D20*
G04 #@! TO.P,U1,1*
G04 #@! TO.N,GND*
X135800000Y-105250000D03*
D21*
G04 #@! TO.P,U1,2*
G04 #@! TO.N,/LED_GREEN*
X132800000Y-105250000D03*
D22*
G04 #@! TO.P,U1,12*
G04 #@! TO.N,GND*
X124250000Y-105700000D03*
G04 #@! TD*
D12*
G04 #@! TO.N,GND*
G04 #@! TO.C,C1*
G36*
X131960779Y-98701144D02*
X131983834Y-98704563D01*
X132006443Y-98710227D01*
X132028387Y-98718079D01*
X132049457Y-98728044D01*
X132069448Y-98740026D01*
X132088168Y-98753910D01*
X132105438Y-98769562D01*
X132121090Y-98786832D01*
X132134974Y-98805552D01*
X132146956Y-98825543D01*
X132156921Y-98846613D01*
X132164773Y-98868557D01*
X132170437Y-98891166D01*
X132173856Y-98914221D01*
X132175000Y-98937500D01*
X132175000Y-99512500D01*
X132173856Y-99535779D01*
X132170437Y-99558834D01*
X132164773Y-99581443D01*
X132156921Y-99603387D01*
X132146956Y-99624457D01*
X132134974Y-99644448D01*
X132121090Y-99663168D01*
X132105438Y-99680438D01*
X132088168Y-99696090D01*
X132069448Y-99709974D01*
X132049457Y-99721956D01*
X132028387Y-99731921D01*
X132006443Y-99739773D01*
X131983834Y-99745437D01*
X131960779Y-99748856D01*
X131937500Y-99750000D01*
X131462500Y-99750000D01*
X131439221Y-99748856D01*
X131416166Y-99745437D01*
X131393557Y-99739773D01*
X131371613Y-99731921D01*
X131350543Y-99721956D01*
X131330552Y-99709974D01*
X131311832Y-99696090D01*
X131294562Y-99680438D01*
X131278910Y-99663168D01*
X131265026Y-99644448D01*
X131253044Y-99624457D01*
X131243079Y-99603387D01*
X131235227Y-99581443D01*
X131229563Y-99558834D01*
X131226144Y-99535779D01*
X131225000Y-99512500D01*
X131225000Y-98937500D01*
X131226144Y-98914221D01*
X131229563Y-98891166D01*
X131235227Y-98868557D01*
X131243079Y-98846613D01*
X131253044Y-98825543D01*
X131265026Y-98805552D01*
X131278910Y-98786832D01*
X131294562Y-98769562D01*
X131311832Y-98753910D01*
X131330552Y-98740026D01*
X131350543Y-98728044D01*
X131371613Y-98718079D01*
X131393557Y-98710227D01*
X131416166Y-98704563D01*
X131439221Y-98701144D01*
X131462500Y-98700000D01*
X131937500Y-98700000D01*
X131960779Y-98701144D01*
X131960779Y-98701144D01*
G37*
D14*
G04 #@! TD*
G04 #@! TO.P,C1,1*
G04 #@! TO.N,GND*
X131700000Y-99225000D03*
D12*
G04 #@! TO.N,/DEC4*
G04 #@! TO.C,C1*
G36*
X131960779Y-100451144D02*
X131983834Y-100454563D01*
X132006443Y-100460227D01*
X132028387Y-100468079D01*
X132049457Y-100478044D01*
X132069448Y-100490026D01*
X132088168Y-100503910D01*
X132105438Y-100519562D01*
X132121090Y-100536832D01*
X132134974Y-100555552D01*
X132146956Y-100575543D01*
X132156921Y-100596613D01*
X132164773Y-100618557D01*
X132170437Y-100641166D01*
X132173856Y-100664221D01*
X132175000Y-100687500D01*
X132175000Y-101262500D01*
X132173856Y-101285779D01*
X132170437Y-101308834D01*
X132164773Y-101331443D01*
X132156921Y-101353387D01*
X132146956Y-101374457D01*
X132134974Y-101394448D01*
X132121090Y-101413168D01*
X132105438Y-101430438D01*
X132088168Y-101446090D01*
X132069448Y-101459974D01*
X132049457Y-101471956D01*
X132028387Y-101481921D01*
X132006443Y-101489773D01*
X131983834Y-101495437D01*
X131960779Y-101498856D01*
X131937500Y-101500000D01*
X131462500Y-101500000D01*
X131439221Y-101498856D01*
X131416166Y-101495437D01*
X131393557Y-101489773D01*
X131371613Y-101481921D01*
X131350543Y-101471956D01*
X131330552Y-101459974D01*
X131311832Y-101446090D01*
X131294562Y-101430438D01*
X131278910Y-101413168D01*
X131265026Y-101394448D01*
X131253044Y-101374457D01*
X131243079Y-101353387D01*
X131235227Y-101331443D01*
X131229563Y-101308834D01*
X131226144Y-101285779D01*
X131225000Y-101262500D01*
X131225000Y-100687500D01*
X131226144Y-100664221D01*
X131229563Y-100641166D01*
X131235227Y-100618557D01*
X131243079Y-100596613D01*
X131253044Y-100575543D01*
X131265026Y-100555552D01*
X131278910Y-100536832D01*
X131294562Y-100519562D01*
X131311832Y-100503910D01*
X131330552Y-100490026D01*
X131350543Y-100478044D01*
X131371613Y-100468079D01*
X131393557Y-100460227D01*
X131416166Y-100454563D01*
X131439221Y-100451144D01*
X131462500Y-100450000D01*
X131937500Y-100450000D01*
X131960779Y-100451144D01*
X131960779Y-100451144D01*
G37*
D14*
G04 #@! TD*
G04 #@! TO.P,C1,2*
G04 #@! TO.N,/DEC4*
X131700000Y-100975000D03*
D12*
G04 #@! TO.N,VDD*
G04 #@! TO.C,C4*
G36*
X122860779Y-100451144D02*
X122883834Y-100454563D01*
X122906443Y-100460227D01*
X122928387Y-100468079D01*
X122949457Y-100478044D01*
X122969448Y-100490026D01*
X122988168Y-100503910D01*
X123005438Y-100519562D01*
X123021090Y-100536832D01*
X123034974Y-100555552D01*
X123046956Y-100575543D01*
X123056921Y-100596613D01*
X123064773Y-100618557D01*
X123070437Y-100641166D01*
X123073856Y-100664221D01*
X123075000Y-100687500D01*
X123075000Y-101262500D01*
X123073856Y-101285779D01*
X123070437Y-101308834D01*
X123064773Y-101331443D01*
X123056921Y-101353387D01*
X123046956Y-101374457D01*
X123034974Y-101394448D01*
X123021090Y-101413168D01*
X123005438Y-101430438D01*
X122988168Y-101446090D01*
X122969448Y-101459974D01*
X122949457Y-101471956D01*
X122928387Y-101481921D01*
X122906443Y-101489773D01*
X122883834Y-101495437D01*
X122860779Y-101498856D01*
X122837500Y-101500000D01*
X122362500Y-101500000D01*
X122339221Y-101498856D01*
X122316166Y-101495437D01*
X122293557Y-101489773D01*
X122271613Y-101481921D01*
X122250543Y-101471956D01*
X122230552Y-101459974D01*
X122211832Y-101446090D01*
X122194562Y-101430438D01*
X122178910Y-101413168D01*
X122165026Y-101394448D01*
X122153044Y-101374457D01*
X122143079Y-101353387D01*
X122135227Y-101331443D01*
X122129563Y-101308834D01*
X122126144Y-101285779D01*
X122125000Y-101262500D01*
X122125000Y-100687500D01*
X122126144Y-100664221D01*
X122129563Y-100641166D01*
X122135227Y-100618557D01*
X122143079Y-100596613D01*
X122153044Y-100575543D01*
X122165026Y-100555552D01*
X122178910Y-100536832D01*
X122194562Y-100519562D01*
X122211832Y-100503910D01*
X122230552Y-100490026D01*
X122250543Y-100478044D01*
X122271613Y-100468079D01*
X122293557Y-100460227D01*
X122316166Y-100454563D01*
X122339221Y-100451144D01*
X122362500Y-100450000D01*
X122837500Y-100450000D01*
X122860779Y-100451144D01*
X122860779Y-100451144D01*
G37*
D14*
G04 #@! TD*
G04 #@! TO.P,C4,2*
G04 #@! TO.N,VDD*
X122600000Y-100975000D03*
D12*
G04 #@! TO.N,GND*
G04 #@! TO.C,C4*
G36*
X122860779Y-98701144D02*
X122883834Y-98704563D01*
X122906443Y-98710227D01*
X122928387Y-98718079D01*
X122949457Y-98728044D01*
X122969448Y-98740026D01*
X122988168Y-98753910D01*
X123005438Y-98769562D01*
X123021090Y-98786832D01*
X123034974Y-98805552D01*
X123046956Y-98825543D01*
X123056921Y-98846613D01*
X123064773Y-98868557D01*
X123070437Y-98891166D01*
X123073856Y-98914221D01*
X123075000Y-98937500D01*
X123075000Y-99512500D01*
X123073856Y-99535779D01*
X123070437Y-99558834D01*
X123064773Y-99581443D01*
X123056921Y-99603387D01*
X123046956Y-99624457D01*
X123034974Y-99644448D01*
X123021090Y-99663168D01*
X123005438Y-99680438D01*
X122988168Y-99696090D01*
X122969448Y-99709974D01*
X122949457Y-99721956D01*
X122928387Y-99731921D01*
X122906443Y-99739773D01*
X122883834Y-99745437D01*
X122860779Y-99748856D01*
X122837500Y-99750000D01*
X122362500Y-99750000D01*
X122339221Y-99748856D01*
X122316166Y-99745437D01*
X122293557Y-99739773D01*
X122271613Y-99731921D01*
X122250543Y-99721956D01*
X122230552Y-99709974D01*
X122211832Y-99696090D01*
X122194562Y-99680438D01*
X122178910Y-99663168D01*
X122165026Y-99644448D01*
X122153044Y-99624457D01*
X122143079Y-99603387D01*
X122135227Y-99581443D01*
X122129563Y-99558834D01*
X122126144Y-99535779D01*
X122125000Y-99512500D01*
X122125000Y-98937500D01*
X122126144Y-98914221D01*
X122129563Y-98891166D01*
X122135227Y-98868557D01*
X122143079Y-98846613D01*
X122153044Y-98825543D01*
X122165026Y-98805552D01*
X122178910Y-98786832D01*
X122194562Y-98769562D01*
X122211832Y-98753910D01*
X122230552Y-98740026D01*
X122250543Y-98728044D01*
X122271613Y-98718079D01*
X122293557Y-98710227D01*
X122316166Y-98704563D01*
X122339221Y-98701144D01*
X122362500Y-98700000D01*
X122837500Y-98700000D01*
X122860779Y-98701144D01*
X122860779Y-98701144D01*
G37*
D14*
G04 #@! TD*
G04 #@! TO.P,C4,1*
G04 #@! TO.N,GND*
X122600000Y-99225000D03*
D12*
G04 #@! TO.N,/LFCLK_XL1*
G04 #@! TO.C,C5*
G36*
X119185779Y-103426144D02*
X119208834Y-103429563D01*
X119231443Y-103435227D01*
X119253387Y-103443079D01*
X119274457Y-103453044D01*
X119294448Y-103465026D01*
X119313168Y-103478910D01*
X119330438Y-103494562D01*
X119346090Y-103511832D01*
X119359974Y-103530552D01*
X119371956Y-103550543D01*
X119381921Y-103571613D01*
X119389773Y-103593557D01*
X119395437Y-103616166D01*
X119398856Y-103639221D01*
X119400000Y-103662500D01*
X119400000Y-104137500D01*
X119398856Y-104160779D01*
X119395437Y-104183834D01*
X119389773Y-104206443D01*
X119381921Y-104228387D01*
X119371956Y-104249457D01*
X119359974Y-104269448D01*
X119346090Y-104288168D01*
X119330438Y-104305438D01*
X119313168Y-104321090D01*
X119294448Y-104334974D01*
X119274457Y-104346956D01*
X119253387Y-104356921D01*
X119231443Y-104364773D01*
X119208834Y-104370437D01*
X119185779Y-104373856D01*
X119162500Y-104375000D01*
X118587500Y-104375000D01*
X118564221Y-104373856D01*
X118541166Y-104370437D01*
X118518557Y-104364773D01*
X118496613Y-104356921D01*
X118475543Y-104346956D01*
X118455552Y-104334974D01*
X118436832Y-104321090D01*
X118419562Y-104305438D01*
X118403910Y-104288168D01*
X118390026Y-104269448D01*
X118378044Y-104249457D01*
X118368079Y-104228387D01*
X118360227Y-104206443D01*
X118354563Y-104183834D01*
X118351144Y-104160779D01*
X118350000Y-104137500D01*
X118350000Y-103662500D01*
X118351144Y-103639221D01*
X118354563Y-103616166D01*
X118360227Y-103593557D01*
X118368079Y-103571613D01*
X118378044Y-103550543D01*
X118390026Y-103530552D01*
X118403910Y-103511832D01*
X118419562Y-103494562D01*
X118436832Y-103478910D01*
X118455552Y-103465026D01*
X118475543Y-103453044D01*
X118496613Y-103443079D01*
X118518557Y-103435227D01*
X118541166Y-103429563D01*
X118564221Y-103426144D01*
X118587500Y-103425000D01*
X119162500Y-103425000D01*
X119185779Y-103426144D01*
X119185779Y-103426144D01*
G37*
D14*
G04 #@! TD*
G04 #@! TO.P,C5,2*
G04 #@! TO.N,/LFCLK_XL1*
X118875000Y-103900000D03*
D12*
G04 #@! TO.N,GND*
G04 #@! TO.C,C5*
G36*
X117435779Y-103426144D02*
X117458834Y-103429563D01*
X117481443Y-103435227D01*
X117503387Y-103443079D01*
X117524457Y-103453044D01*
X117544448Y-103465026D01*
X117563168Y-103478910D01*
X117580438Y-103494562D01*
X117596090Y-103511832D01*
X117609974Y-103530552D01*
X117621956Y-103550543D01*
X117631921Y-103571613D01*
X117639773Y-103593557D01*
X117645437Y-103616166D01*
X117648856Y-103639221D01*
X117650000Y-103662500D01*
X117650000Y-104137500D01*
X117648856Y-104160779D01*
X117645437Y-104183834D01*
X117639773Y-104206443D01*
X117631921Y-104228387D01*
X117621956Y-104249457D01*
X117609974Y-104269448D01*
X117596090Y-104288168D01*
X117580438Y-104305438D01*
X117563168Y-104321090D01*
X117544448Y-104334974D01*
X117524457Y-104346956D01*
X117503387Y-104356921D01*
X117481443Y-104364773D01*
X117458834Y-104370437D01*
X117435779Y-104373856D01*
X117412500Y-104375000D01*
X116837500Y-104375000D01*
X116814221Y-104373856D01*
X116791166Y-104370437D01*
X116768557Y-104364773D01*
X116746613Y-104356921D01*
X116725543Y-104346956D01*
X116705552Y-104334974D01*
X116686832Y-104321090D01*
X116669562Y-104305438D01*
X116653910Y-104288168D01*
X116640026Y-104269448D01*
X116628044Y-104249457D01*
X116618079Y-104228387D01*
X116610227Y-104206443D01*
X116604563Y-104183834D01*
X116601144Y-104160779D01*
X116600000Y-104137500D01*
X116600000Y-103662500D01*
X116601144Y-103639221D01*
X116604563Y-103616166D01*
X116610227Y-103593557D01*
X116618079Y-103571613D01*
X116628044Y-103550543D01*
X116640026Y-103530552D01*
X116653910Y-103511832D01*
X116669562Y-103494562D01*
X116686832Y-103478910D01*
X116705552Y-103465026D01*
X116725543Y-103453044D01*
X116746613Y-103443079D01*
X116768557Y-103435227D01*
X116791166Y-103429563D01*
X116814221Y-103426144D01*
X116837500Y-103425000D01*
X117412500Y-103425000D01*
X117435779Y-103426144D01*
X117435779Y-103426144D01*
G37*
D14*
G04 #@! TD*
G04 #@! TO.P,C5,1*
G04 #@! TO.N,GND*
X117125000Y-103900000D03*
D12*
G04 #@! TO.N,GND*
G04 #@! TO.C,C6*
G36*
X125160779Y-98701144D02*
X125183834Y-98704563D01*
X125206443Y-98710227D01*
X125228387Y-98718079D01*
X125249457Y-98728044D01*
X125269448Y-98740026D01*
X125288168Y-98753910D01*
X125305438Y-98769562D01*
X125321090Y-98786832D01*
X125334974Y-98805552D01*
X125346956Y-98825543D01*
X125356921Y-98846613D01*
X125364773Y-98868557D01*
X125370437Y-98891166D01*
X125373856Y-98914221D01*
X125375000Y-98937500D01*
X125375000Y-99512500D01*
X125373856Y-99535779D01*
X125370437Y-99558834D01*
X125364773Y-99581443D01*
X125356921Y-99603387D01*
X125346956Y-99624457D01*
X125334974Y-99644448D01*
X125321090Y-99663168D01*
X125305438Y-99680438D01*
X125288168Y-99696090D01*
X125269448Y-99709974D01*
X125249457Y-99721956D01*
X125228387Y-99731921D01*
X125206443Y-99739773D01*
X125183834Y-99745437D01*
X125160779Y-99748856D01*
X125137500Y-99750000D01*
X124662500Y-99750000D01*
X124639221Y-99748856D01*
X124616166Y-99745437D01*
X124593557Y-99739773D01*
X124571613Y-99731921D01*
X124550543Y-99721956D01*
X124530552Y-99709974D01*
X124511832Y-99696090D01*
X124494562Y-99680438D01*
X124478910Y-99663168D01*
X124465026Y-99644448D01*
X124453044Y-99624457D01*
X124443079Y-99603387D01*
X124435227Y-99581443D01*
X124429563Y-99558834D01*
X124426144Y-99535779D01*
X124425000Y-99512500D01*
X124425000Y-98937500D01*
X124426144Y-98914221D01*
X124429563Y-98891166D01*
X124435227Y-98868557D01*
X124443079Y-98846613D01*
X124453044Y-98825543D01*
X124465026Y-98805552D01*
X124478910Y-98786832D01*
X124494562Y-98769562D01*
X124511832Y-98753910D01*
X124530552Y-98740026D01*
X124550543Y-98728044D01*
X124571613Y-98718079D01*
X124593557Y-98710227D01*
X124616166Y-98704563D01*
X124639221Y-98701144D01*
X124662500Y-98700000D01*
X125137500Y-98700000D01*
X125160779Y-98701144D01*
X125160779Y-98701144D01*
G37*
D14*
G04 #@! TD*
G04 #@! TO.P,C6,1*
G04 #@! TO.N,GND*
X124900000Y-99225000D03*
D12*
G04 #@! TO.N,VDD*
G04 #@! TO.C,C6*
G36*
X125160779Y-100451144D02*
X125183834Y-100454563D01*
X125206443Y-100460227D01*
X125228387Y-100468079D01*
X125249457Y-100478044D01*
X125269448Y-100490026D01*
X125288168Y-100503910D01*
X125305438Y-100519562D01*
X125321090Y-100536832D01*
X125334974Y-100555552D01*
X125346956Y-100575543D01*
X125356921Y-100596613D01*
X125364773Y-100618557D01*
X125370437Y-100641166D01*
X125373856Y-100664221D01*
X125375000Y-100687500D01*
X125375000Y-101262500D01*
X125373856Y-101285779D01*
X125370437Y-101308834D01*
X125364773Y-101331443D01*
X125356921Y-101353387D01*
X125346956Y-101374457D01*
X125334974Y-101394448D01*
X125321090Y-101413168D01*
X125305438Y-101430438D01*
X125288168Y-101446090D01*
X125269448Y-101459974D01*
X125249457Y-101471956D01*
X125228387Y-101481921D01*
X125206443Y-101489773D01*
X125183834Y-101495437D01*
X125160779Y-101498856D01*
X125137500Y-101500000D01*
X124662500Y-101500000D01*
X124639221Y-101498856D01*
X124616166Y-101495437D01*
X124593557Y-101489773D01*
X124571613Y-101481921D01*
X124550543Y-101471956D01*
X124530552Y-101459974D01*
X124511832Y-101446090D01*
X124494562Y-101430438D01*
X124478910Y-101413168D01*
X124465026Y-101394448D01*
X124453044Y-101374457D01*
X124443079Y-101353387D01*
X124435227Y-101331443D01*
X124429563Y-101308834D01*
X124426144Y-101285779D01*
X124425000Y-101262500D01*
X124425000Y-100687500D01*
X124426144Y-100664221D01*
X124429563Y-100641166D01*
X124435227Y-100618557D01*
X124443079Y-100596613D01*
X124453044Y-100575543D01*
X124465026Y-100555552D01*
X124478910Y-100536832D01*
X124494562Y-100519562D01*
X124511832Y-100503910D01*
X124530552Y-100490026D01*
X124550543Y-100478044D01*
X124571613Y-100468079D01*
X124593557Y-100460227D01*
X124616166Y-100454563D01*
X124639221Y-100451144D01*
X124662500Y-100450000D01*
X125137500Y-100450000D01*
X125160779Y-100451144D01*
X125160779Y-100451144D01*
G37*
D14*
G04 #@! TD*
G04 #@! TO.P,C6,2*
G04 #@! TO.N,VDD*
X124900000Y-100975000D03*
D12*
G04 #@! TO.N,/LFCLK_XL2*
G04 #@! TO.C,C7*
G36*
X119185779Y-109526144D02*
X119208834Y-109529563D01*
X119231443Y-109535227D01*
X119253387Y-109543079D01*
X119274457Y-109553044D01*
X119294448Y-109565026D01*
X119313168Y-109578910D01*
X119330438Y-109594562D01*
X119346090Y-109611832D01*
X119359974Y-109630552D01*
X119371956Y-109650543D01*
X119381921Y-109671613D01*
X119389773Y-109693557D01*
X119395437Y-109716166D01*
X119398856Y-109739221D01*
X119400000Y-109762500D01*
X119400000Y-110237500D01*
X119398856Y-110260779D01*
X119395437Y-110283834D01*
X119389773Y-110306443D01*
X119381921Y-110328387D01*
X119371956Y-110349457D01*
X119359974Y-110369448D01*
X119346090Y-110388168D01*
X119330438Y-110405438D01*
X119313168Y-110421090D01*
X119294448Y-110434974D01*
X119274457Y-110446956D01*
X119253387Y-110456921D01*
X119231443Y-110464773D01*
X119208834Y-110470437D01*
X119185779Y-110473856D01*
X119162500Y-110475000D01*
X118587500Y-110475000D01*
X118564221Y-110473856D01*
X118541166Y-110470437D01*
X118518557Y-110464773D01*
X118496613Y-110456921D01*
X118475543Y-110446956D01*
X118455552Y-110434974D01*
X118436832Y-110421090D01*
X118419562Y-110405438D01*
X118403910Y-110388168D01*
X118390026Y-110369448D01*
X118378044Y-110349457D01*
X118368079Y-110328387D01*
X118360227Y-110306443D01*
X118354563Y-110283834D01*
X118351144Y-110260779D01*
X118350000Y-110237500D01*
X118350000Y-109762500D01*
X118351144Y-109739221D01*
X118354563Y-109716166D01*
X118360227Y-109693557D01*
X118368079Y-109671613D01*
X118378044Y-109650543D01*
X118390026Y-109630552D01*
X118403910Y-109611832D01*
X118419562Y-109594562D01*
X118436832Y-109578910D01*
X118455552Y-109565026D01*
X118475543Y-109553044D01*
X118496613Y-109543079D01*
X118518557Y-109535227D01*
X118541166Y-109529563D01*
X118564221Y-109526144D01*
X118587500Y-109525000D01*
X119162500Y-109525000D01*
X119185779Y-109526144D01*
X119185779Y-109526144D01*
G37*
D14*
G04 #@! TD*
G04 #@! TO.P,C7,2*
G04 #@! TO.N,/LFCLK_XL2*
X118875000Y-110000000D03*
D12*
G04 #@! TO.N,GND*
G04 #@! TO.C,C7*
G36*
X117435779Y-109526144D02*
X117458834Y-109529563D01*
X117481443Y-109535227D01*
X117503387Y-109543079D01*
X117524457Y-109553044D01*
X117544448Y-109565026D01*
X117563168Y-109578910D01*
X117580438Y-109594562D01*
X117596090Y-109611832D01*
X117609974Y-109630552D01*
X117621956Y-109650543D01*
X117631921Y-109671613D01*
X117639773Y-109693557D01*
X117645437Y-109716166D01*
X117648856Y-109739221D01*
X117650000Y-109762500D01*
X117650000Y-110237500D01*
X117648856Y-110260779D01*
X117645437Y-110283834D01*
X117639773Y-110306443D01*
X117631921Y-110328387D01*
X117621956Y-110349457D01*
X117609974Y-110369448D01*
X117596090Y-110388168D01*
X117580438Y-110405438D01*
X117563168Y-110421090D01*
X117544448Y-110434974D01*
X117524457Y-110446956D01*
X117503387Y-110456921D01*
X117481443Y-110464773D01*
X117458834Y-110470437D01*
X117435779Y-110473856D01*
X117412500Y-110475000D01*
X116837500Y-110475000D01*
X116814221Y-110473856D01*
X116791166Y-110470437D01*
X116768557Y-110464773D01*
X116746613Y-110456921D01*
X116725543Y-110446956D01*
X116705552Y-110434974D01*
X116686832Y-110421090D01*
X116669562Y-110405438D01*
X116653910Y-110388168D01*
X116640026Y-110369448D01*
X116628044Y-110349457D01*
X116618079Y-110328387D01*
X116610227Y-110306443D01*
X116604563Y-110283834D01*
X116601144Y-110260779D01*
X116600000Y-110237500D01*
X116600000Y-109762500D01*
X116601144Y-109739221D01*
X116604563Y-109716166D01*
X116610227Y-109693557D01*
X116618079Y-109671613D01*
X116628044Y-109650543D01*
X116640026Y-109630552D01*
X116653910Y-109611832D01*
X116669562Y-109594562D01*
X116686832Y-109578910D01*
X116705552Y-109565026D01*
X116725543Y-109553044D01*
X116746613Y-109543079D01*
X116768557Y-109535227D01*
X116791166Y-109529563D01*
X116814221Y-109526144D01*
X116837500Y-109525000D01*
X117412500Y-109525000D01*
X117435779Y-109526144D01*
X117435779Y-109526144D01*
G37*
D14*
G04 #@! TD*
G04 #@! TO.P,C7,1*
G04 #@! TO.N,GND*
X117125000Y-110000000D03*
D12*
G04 #@! TO.N,VDD*
G04 #@! TO.C,C8*
G36*
X129660779Y-82851144D02*
X129683834Y-82854563D01*
X129706443Y-82860227D01*
X129728387Y-82868079D01*
X129749457Y-82878044D01*
X129769448Y-82890026D01*
X129788168Y-82903910D01*
X129805438Y-82919562D01*
X129821090Y-82936832D01*
X129834974Y-82955552D01*
X129846956Y-82975543D01*
X129856921Y-82996613D01*
X129864773Y-83018557D01*
X129870437Y-83041166D01*
X129873856Y-83064221D01*
X129875000Y-83087500D01*
X129875000Y-83662500D01*
X129873856Y-83685779D01*
X129870437Y-83708834D01*
X129864773Y-83731443D01*
X129856921Y-83753387D01*
X129846956Y-83774457D01*
X129834974Y-83794448D01*
X129821090Y-83813168D01*
X129805438Y-83830438D01*
X129788168Y-83846090D01*
X129769448Y-83859974D01*
X129749457Y-83871956D01*
X129728387Y-83881921D01*
X129706443Y-83889773D01*
X129683834Y-83895437D01*
X129660779Y-83898856D01*
X129637500Y-83900000D01*
X129162500Y-83900000D01*
X129139221Y-83898856D01*
X129116166Y-83895437D01*
X129093557Y-83889773D01*
X129071613Y-83881921D01*
X129050543Y-83871956D01*
X129030552Y-83859974D01*
X129011832Y-83846090D01*
X128994562Y-83830438D01*
X128978910Y-83813168D01*
X128965026Y-83794448D01*
X128953044Y-83774457D01*
X128943079Y-83753387D01*
X128935227Y-83731443D01*
X128929563Y-83708834D01*
X128926144Y-83685779D01*
X128925000Y-83662500D01*
X128925000Y-83087500D01*
X128926144Y-83064221D01*
X128929563Y-83041166D01*
X128935227Y-83018557D01*
X128943079Y-82996613D01*
X128953044Y-82975543D01*
X128965026Y-82955552D01*
X128978910Y-82936832D01*
X128994562Y-82919562D01*
X129011832Y-82903910D01*
X129030552Y-82890026D01*
X129050543Y-82878044D01*
X129071613Y-82868079D01*
X129093557Y-82860227D01*
X129116166Y-82854563D01*
X129139221Y-82851144D01*
X129162500Y-82850000D01*
X129637500Y-82850000D01*
X129660779Y-82851144D01*
X129660779Y-82851144D01*
G37*
D14*
G04 #@! TD*
G04 #@! TO.P,C8,1*
G04 #@! TO.N,VDD*
X129400000Y-83375000D03*
D12*
G04 #@! TO.N,GND*
G04 #@! TO.C,C8*
G36*
X129660779Y-81101144D02*
X129683834Y-81104563D01*
X129706443Y-81110227D01*
X129728387Y-81118079D01*
X129749457Y-81128044D01*
X129769448Y-81140026D01*
X129788168Y-81153910D01*
X129805438Y-81169562D01*
X129821090Y-81186832D01*
X129834974Y-81205552D01*
X129846956Y-81225543D01*
X129856921Y-81246613D01*
X129864773Y-81268557D01*
X129870437Y-81291166D01*
X129873856Y-81314221D01*
X129875000Y-81337500D01*
X129875000Y-81912500D01*
X129873856Y-81935779D01*
X129870437Y-81958834D01*
X129864773Y-81981443D01*
X129856921Y-82003387D01*
X129846956Y-82024457D01*
X129834974Y-82044448D01*
X129821090Y-82063168D01*
X129805438Y-82080438D01*
X129788168Y-82096090D01*
X129769448Y-82109974D01*
X129749457Y-82121956D01*
X129728387Y-82131921D01*
X129706443Y-82139773D01*
X129683834Y-82145437D01*
X129660779Y-82148856D01*
X129637500Y-82150000D01*
X129162500Y-82150000D01*
X129139221Y-82148856D01*
X129116166Y-82145437D01*
X129093557Y-82139773D01*
X129071613Y-82131921D01*
X129050543Y-82121956D01*
X129030552Y-82109974D01*
X129011832Y-82096090D01*
X128994562Y-82080438D01*
X128978910Y-82063168D01*
X128965026Y-82044448D01*
X128953044Y-82024457D01*
X128943079Y-82003387D01*
X128935227Y-81981443D01*
X128929563Y-81958834D01*
X128926144Y-81935779D01*
X128925000Y-81912500D01*
X128925000Y-81337500D01*
X128926144Y-81314221D01*
X128929563Y-81291166D01*
X128935227Y-81268557D01*
X128943079Y-81246613D01*
X128953044Y-81225543D01*
X128965026Y-81205552D01*
X128978910Y-81186832D01*
X128994562Y-81169562D01*
X129011832Y-81153910D01*
X129030552Y-81140026D01*
X129050543Y-81128044D01*
X129071613Y-81118079D01*
X129093557Y-81110227D01*
X129116166Y-81104563D01*
X129139221Y-81101144D01*
X129162500Y-81100000D01*
X129637500Y-81100000D01*
X129660779Y-81101144D01*
X129660779Y-81101144D01*
G37*
D14*
G04 #@! TD*
G04 #@! TO.P,C8,2*
G04 #@! TO.N,GND*
X129400000Y-81625000D03*
D12*
G04 #@! TO.N,/LED_GREEN*
G04 #@! TO.C,R1*
G36*
X105160779Y-137901144D02*
X105183834Y-137904563D01*
X105206443Y-137910227D01*
X105228387Y-137918079D01*
X105249457Y-137928044D01*
X105269448Y-137940026D01*
X105288168Y-137953910D01*
X105305438Y-137969562D01*
X105321090Y-137986832D01*
X105334974Y-138005552D01*
X105346956Y-138025543D01*
X105356921Y-138046613D01*
X105364773Y-138068557D01*
X105370437Y-138091166D01*
X105373856Y-138114221D01*
X105375000Y-138137500D01*
X105375000Y-138712500D01*
X105373856Y-138735779D01*
X105370437Y-138758834D01*
X105364773Y-138781443D01*
X105356921Y-138803387D01*
X105346956Y-138824457D01*
X105334974Y-138844448D01*
X105321090Y-138863168D01*
X105305438Y-138880438D01*
X105288168Y-138896090D01*
X105269448Y-138909974D01*
X105249457Y-138921956D01*
X105228387Y-138931921D01*
X105206443Y-138939773D01*
X105183834Y-138945437D01*
X105160779Y-138948856D01*
X105137500Y-138950000D01*
X104662500Y-138950000D01*
X104639221Y-138948856D01*
X104616166Y-138945437D01*
X104593557Y-138939773D01*
X104571613Y-138931921D01*
X104550543Y-138921956D01*
X104530552Y-138909974D01*
X104511832Y-138896090D01*
X104494562Y-138880438D01*
X104478910Y-138863168D01*
X104465026Y-138844448D01*
X104453044Y-138824457D01*
X104443079Y-138803387D01*
X104435227Y-138781443D01*
X104429563Y-138758834D01*
X104426144Y-138735779D01*
X104425000Y-138712500D01*
X104425000Y-138137500D01*
X104426144Y-138114221D01*
X104429563Y-138091166D01*
X104435227Y-138068557D01*
X104443079Y-138046613D01*
X104453044Y-138025543D01*
X104465026Y-138005552D01*
X104478910Y-137986832D01*
X104494562Y-137969562D01*
X104511832Y-137953910D01*
X104530552Y-137940026D01*
X104550543Y-137928044D01*
X104571613Y-137918079D01*
X104593557Y-137910227D01*
X104616166Y-137904563D01*
X104639221Y-137901144D01*
X104662500Y-137900000D01*
X105137500Y-137900000D01*
X105160779Y-137901144D01*
X105160779Y-137901144D01*
G37*
D14*
G04 #@! TD*
G04 #@! TO.P,R1,1*
G04 #@! TO.N,/LED_GREEN*
X104900000Y-138425000D03*
D12*
G04 #@! TO.N,GND*
G04 #@! TO.C,R1*
G36*
X105160779Y-139651144D02*
X105183834Y-139654563D01*
X105206443Y-139660227D01*
X105228387Y-139668079D01*
X105249457Y-139678044D01*
X105269448Y-139690026D01*
X105288168Y-139703910D01*
X105305438Y-139719562D01*
X105321090Y-139736832D01*
X105334974Y-139755552D01*
X105346956Y-139775543D01*
X105356921Y-139796613D01*
X105364773Y-139818557D01*
X105370437Y-139841166D01*
X105373856Y-139864221D01*
X105375000Y-139887500D01*
X105375000Y-140462500D01*
X105373856Y-140485779D01*
X105370437Y-140508834D01*
X105364773Y-140531443D01*
X105356921Y-140553387D01*
X105346956Y-140574457D01*
X105334974Y-140594448D01*
X105321090Y-140613168D01*
X105305438Y-140630438D01*
X105288168Y-140646090D01*
X105269448Y-140659974D01*
X105249457Y-140671956D01*
X105228387Y-140681921D01*
X105206443Y-140689773D01*
X105183834Y-140695437D01*
X105160779Y-140698856D01*
X105137500Y-140700000D01*
X104662500Y-140700000D01*
X104639221Y-140698856D01*
X104616166Y-140695437D01*
X104593557Y-140689773D01*
X104571613Y-140681921D01*
X104550543Y-140671956D01*
X104530552Y-140659974D01*
X104511832Y-140646090D01*
X104494562Y-140630438D01*
X104478910Y-140613168D01*
X104465026Y-140594448D01*
X104453044Y-140574457D01*
X104443079Y-140553387D01*
X104435227Y-140531443D01*
X104429563Y-140508834D01*
X104426144Y-140485779D01*
X104425000Y-140462500D01*
X104425000Y-139887500D01*
X104426144Y-139864221D01*
X104429563Y-139841166D01*
X104435227Y-139818557D01*
X104443079Y-139796613D01*
X104453044Y-139775543D01*
X104465026Y-139755552D01*
X104478910Y-139736832D01*
X104494562Y-139719562D01*
X104511832Y-139703910D01*
X104530552Y-139690026D01*
X104550543Y-139678044D01*
X104571613Y-139668079D01*
X104593557Y-139660227D01*
X104616166Y-139654563D01*
X104639221Y-139651144D01*
X104662500Y-139650000D01*
X105137500Y-139650000D01*
X105160779Y-139651144D01*
X105160779Y-139651144D01*
G37*
D14*
G04 #@! TD*
G04 #@! TO.P,R1,2*
G04 #@! TO.N,GND*
X104900000Y-140175000D03*
D12*
G04 #@! TO.N,Net-(D1-Pad2)*
G04 #@! TO.C,R2*
G36*
X113260779Y-133501144D02*
X113283834Y-133504563D01*
X113306443Y-133510227D01*
X113328387Y-133518079D01*
X113349457Y-133528044D01*
X113369448Y-133540026D01*
X113388168Y-133553910D01*
X113405438Y-133569562D01*
X113421090Y-133586832D01*
X113434974Y-133605552D01*
X113446956Y-133625543D01*
X113456921Y-133646613D01*
X113464773Y-133668557D01*
X113470437Y-133691166D01*
X113473856Y-133714221D01*
X113475000Y-133737500D01*
X113475000Y-134312500D01*
X113473856Y-134335779D01*
X113470437Y-134358834D01*
X113464773Y-134381443D01*
X113456921Y-134403387D01*
X113446956Y-134424457D01*
X113434974Y-134444448D01*
X113421090Y-134463168D01*
X113405438Y-134480438D01*
X113388168Y-134496090D01*
X113369448Y-134509974D01*
X113349457Y-134521956D01*
X113328387Y-134531921D01*
X113306443Y-134539773D01*
X113283834Y-134545437D01*
X113260779Y-134548856D01*
X113237500Y-134550000D01*
X112762500Y-134550000D01*
X112739221Y-134548856D01*
X112716166Y-134545437D01*
X112693557Y-134539773D01*
X112671613Y-134531921D01*
X112650543Y-134521956D01*
X112630552Y-134509974D01*
X112611832Y-134496090D01*
X112594562Y-134480438D01*
X112578910Y-134463168D01*
X112565026Y-134444448D01*
X112553044Y-134424457D01*
X112543079Y-134403387D01*
X112535227Y-134381443D01*
X112529563Y-134358834D01*
X112526144Y-134335779D01*
X112525000Y-134312500D01*
X112525000Y-133737500D01*
X112526144Y-133714221D01*
X112529563Y-133691166D01*
X112535227Y-133668557D01*
X112543079Y-133646613D01*
X112553044Y-133625543D01*
X112565026Y-133605552D01*
X112578910Y-133586832D01*
X112594562Y-133569562D01*
X112611832Y-133553910D01*
X112630552Y-133540026D01*
X112650543Y-133528044D01*
X112671613Y-133518079D01*
X112693557Y-133510227D01*
X112716166Y-133504563D01*
X112739221Y-133501144D01*
X112762500Y-133500000D01*
X113237500Y-133500000D01*
X113260779Y-133501144D01*
X113260779Y-133501144D01*
G37*
D14*
G04 #@! TD*
G04 #@! TO.P,R2,2*
G04 #@! TO.N,Net-(D1-Pad2)*
X113000000Y-134025000D03*
D12*
G04 #@! TO.N,Net-(Q3-Pad3)*
G04 #@! TO.C,R2*
G36*
X113260779Y-135251144D02*
X113283834Y-135254563D01*
X113306443Y-135260227D01*
X113328387Y-135268079D01*
X113349457Y-135278044D01*
X113369448Y-135290026D01*
X113388168Y-135303910D01*
X113405438Y-135319562D01*
X113421090Y-135336832D01*
X113434974Y-135355552D01*
X113446956Y-135375543D01*
X113456921Y-135396613D01*
X113464773Y-135418557D01*
X113470437Y-135441166D01*
X113473856Y-135464221D01*
X113475000Y-135487500D01*
X113475000Y-136062500D01*
X113473856Y-136085779D01*
X113470437Y-136108834D01*
X113464773Y-136131443D01*
X113456921Y-136153387D01*
X113446956Y-136174457D01*
X113434974Y-136194448D01*
X113421090Y-136213168D01*
X113405438Y-136230438D01*
X113388168Y-136246090D01*
X113369448Y-136259974D01*
X113349457Y-136271956D01*
X113328387Y-136281921D01*
X113306443Y-136289773D01*
X113283834Y-136295437D01*
X113260779Y-136298856D01*
X113237500Y-136300000D01*
X112762500Y-136300000D01*
X112739221Y-136298856D01*
X112716166Y-136295437D01*
X112693557Y-136289773D01*
X112671613Y-136281921D01*
X112650543Y-136271956D01*
X112630552Y-136259974D01*
X112611832Y-136246090D01*
X112594562Y-136230438D01*
X112578910Y-136213168D01*
X112565026Y-136194448D01*
X112553044Y-136174457D01*
X112543079Y-136153387D01*
X112535227Y-136131443D01*
X112529563Y-136108834D01*
X112526144Y-136085779D01*
X112525000Y-136062500D01*
X112525000Y-135487500D01*
X112526144Y-135464221D01*
X112529563Y-135441166D01*
X112535227Y-135418557D01*
X112543079Y-135396613D01*
X112553044Y-135375543D01*
X112565026Y-135355552D01*
X112578910Y-135336832D01*
X112594562Y-135319562D01*
X112611832Y-135303910D01*
X112630552Y-135290026D01*
X112650543Y-135278044D01*
X112671613Y-135268079D01*
X112693557Y-135260227D01*
X112716166Y-135254563D01*
X112739221Y-135251144D01*
X112762500Y-135250000D01*
X113237500Y-135250000D01*
X113260779Y-135251144D01*
X113260779Y-135251144D01*
G37*
D14*
G04 #@! TD*
G04 #@! TO.P,R2,1*
G04 #@! TO.N,Net-(Q3-Pad3)*
X113000000Y-135775000D03*
D12*
G04 #@! TO.N,Net-(Q2-Pad3)*
G04 #@! TO.C,R3*
G36*
X113260779Y-139651144D02*
X113283834Y-139654563D01*
X113306443Y-139660227D01*
X113328387Y-139668079D01*
X113349457Y-139678044D01*
X113369448Y-139690026D01*
X113388168Y-139703910D01*
X113405438Y-139719562D01*
X113421090Y-139736832D01*
X113434974Y-139755552D01*
X113446956Y-139775543D01*
X113456921Y-139796613D01*
X113464773Y-139818557D01*
X113470437Y-139841166D01*
X113473856Y-139864221D01*
X113475000Y-139887500D01*
X113475000Y-140462500D01*
X113473856Y-140485779D01*
X113470437Y-140508834D01*
X113464773Y-140531443D01*
X113456921Y-140553387D01*
X113446956Y-140574457D01*
X113434974Y-140594448D01*
X113421090Y-140613168D01*
X113405438Y-140630438D01*
X113388168Y-140646090D01*
X113369448Y-140659974D01*
X113349457Y-140671956D01*
X113328387Y-140681921D01*
X113306443Y-140689773D01*
X113283834Y-140695437D01*
X113260779Y-140698856D01*
X113237500Y-140700000D01*
X112762500Y-140700000D01*
X112739221Y-140698856D01*
X112716166Y-140695437D01*
X112693557Y-140689773D01*
X112671613Y-140681921D01*
X112650543Y-140671956D01*
X112630552Y-140659974D01*
X112611832Y-140646090D01*
X112594562Y-140630438D01*
X112578910Y-140613168D01*
X112565026Y-140594448D01*
X112553044Y-140574457D01*
X112543079Y-140553387D01*
X112535227Y-140531443D01*
X112529563Y-140508834D01*
X112526144Y-140485779D01*
X112525000Y-140462500D01*
X112525000Y-139887500D01*
X112526144Y-139864221D01*
X112529563Y-139841166D01*
X112535227Y-139818557D01*
X112543079Y-139796613D01*
X112553044Y-139775543D01*
X112565026Y-139755552D01*
X112578910Y-139736832D01*
X112594562Y-139719562D01*
X112611832Y-139703910D01*
X112630552Y-139690026D01*
X112650543Y-139678044D01*
X112671613Y-139668079D01*
X112693557Y-139660227D01*
X112716166Y-139654563D01*
X112739221Y-139651144D01*
X112762500Y-139650000D01*
X113237500Y-139650000D01*
X113260779Y-139651144D01*
X113260779Y-139651144D01*
G37*
D14*
G04 #@! TD*
G04 #@! TO.P,R3,1*
G04 #@! TO.N,Net-(Q2-Pad3)*
X113000000Y-140175000D03*
D12*
G04 #@! TO.N,Net-(D1-Pad4)*
G04 #@! TO.C,R3*
G36*
X113260779Y-137901144D02*
X113283834Y-137904563D01*
X113306443Y-137910227D01*
X113328387Y-137918079D01*
X113349457Y-137928044D01*
X113369448Y-137940026D01*
X113388168Y-137953910D01*
X113405438Y-137969562D01*
X113421090Y-137986832D01*
X113434974Y-138005552D01*
X113446956Y-138025543D01*
X113456921Y-138046613D01*
X113464773Y-138068557D01*
X113470437Y-138091166D01*
X113473856Y-138114221D01*
X113475000Y-138137500D01*
X113475000Y-138712500D01*
X113473856Y-138735779D01*
X113470437Y-138758834D01*
X113464773Y-138781443D01*
X113456921Y-138803387D01*
X113446956Y-138824457D01*
X113434974Y-138844448D01*
X113421090Y-138863168D01*
X113405438Y-138880438D01*
X113388168Y-138896090D01*
X113369448Y-138909974D01*
X113349457Y-138921956D01*
X113328387Y-138931921D01*
X113306443Y-138939773D01*
X113283834Y-138945437D01*
X113260779Y-138948856D01*
X113237500Y-138950000D01*
X112762500Y-138950000D01*
X112739221Y-138948856D01*
X112716166Y-138945437D01*
X112693557Y-138939773D01*
X112671613Y-138931921D01*
X112650543Y-138921956D01*
X112630552Y-138909974D01*
X112611832Y-138896090D01*
X112594562Y-138880438D01*
X112578910Y-138863168D01*
X112565026Y-138844448D01*
X112553044Y-138824457D01*
X112543079Y-138803387D01*
X112535227Y-138781443D01*
X112529563Y-138758834D01*
X112526144Y-138735779D01*
X112525000Y-138712500D01*
X112525000Y-138137500D01*
X112526144Y-138114221D01*
X112529563Y-138091166D01*
X112535227Y-138068557D01*
X112543079Y-138046613D01*
X112553044Y-138025543D01*
X112565026Y-138005552D01*
X112578910Y-137986832D01*
X112594562Y-137969562D01*
X112611832Y-137953910D01*
X112630552Y-137940026D01*
X112650543Y-137928044D01*
X112671613Y-137918079D01*
X112693557Y-137910227D01*
X112716166Y-137904563D01*
X112739221Y-137901144D01*
X112762500Y-137900000D01*
X113237500Y-137900000D01*
X113260779Y-137901144D01*
X113260779Y-137901144D01*
G37*
D14*
G04 #@! TD*
G04 #@! TO.P,R3,2*
G04 #@! TO.N,Net-(D1-Pad4)*
X113000000Y-138425000D03*
D12*
G04 #@! TO.N,GND*
G04 #@! TO.C,R4*
G36*
X105160779Y-135251144D02*
X105183834Y-135254563D01*
X105206443Y-135260227D01*
X105228387Y-135268079D01*
X105249457Y-135278044D01*
X105269448Y-135290026D01*
X105288168Y-135303910D01*
X105305438Y-135319562D01*
X105321090Y-135336832D01*
X105334974Y-135355552D01*
X105346956Y-135375543D01*
X105356921Y-135396613D01*
X105364773Y-135418557D01*
X105370437Y-135441166D01*
X105373856Y-135464221D01*
X105375000Y-135487500D01*
X105375000Y-136062500D01*
X105373856Y-136085779D01*
X105370437Y-136108834D01*
X105364773Y-136131443D01*
X105356921Y-136153387D01*
X105346956Y-136174457D01*
X105334974Y-136194448D01*
X105321090Y-136213168D01*
X105305438Y-136230438D01*
X105288168Y-136246090D01*
X105269448Y-136259974D01*
X105249457Y-136271956D01*
X105228387Y-136281921D01*
X105206443Y-136289773D01*
X105183834Y-136295437D01*
X105160779Y-136298856D01*
X105137500Y-136300000D01*
X104662500Y-136300000D01*
X104639221Y-136298856D01*
X104616166Y-136295437D01*
X104593557Y-136289773D01*
X104571613Y-136281921D01*
X104550543Y-136271956D01*
X104530552Y-136259974D01*
X104511832Y-136246090D01*
X104494562Y-136230438D01*
X104478910Y-136213168D01*
X104465026Y-136194448D01*
X104453044Y-136174457D01*
X104443079Y-136153387D01*
X104435227Y-136131443D01*
X104429563Y-136108834D01*
X104426144Y-136085779D01*
X104425000Y-136062500D01*
X104425000Y-135487500D01*
X104426144Y-135464221D01*
X104429563Y-135441166D01*
X104435227Y-135418557D01*
X104443079Y-135396613D01*
X104453044Y-135375543D01*
X104465026Y-135355552D01*
X104478910Y-135336832D01*
X104494562Y-135319562D01*
X104511832Y-135303910D01*
X104530552Y-135290026D01*
X104550543Y-135278044D01*
X104571613Y-135268079D01*
X104593557Y-135260227D01*
X104616166Y-135254563D01*
X104639221Y-135251144D01*
X104662500Y-135250000D01*
X105137500Y-135250000D01*
X105160779Y-135251144D01*
X105160779Y-135251144D01*
G37*
D14*
G04 #@! TD*
G04 #@! TO.P,R4,2*
G04 #@! TO.N,GND*
X104900000Y-135775000D03*
D12*
G04 #@! TO.N,/LED_RED*
G04 #@! TO.C,R4*
G36*
X105160779Y-133501144D02*
X105183834Y-133504563D01*
X105206443Y-133510227D01*
X105228387Y-133518079D01*
X105249457Y-133528044D01*
X105269448Y-133540026D01*
X105288168Y-133553910D01*
X105305438Y-133569562D01*
X105321090Y-133586832D01*
X105334974Y-133605552D01*
X105346956Y-133625543D01*
X105356921Y-133646613D01*
X105364773Y-133668557D01*
X105370437Y-133691166D01*
X105373856Y-133714221D01*
X105375000Y-133737500D01*
X105375000Y-134312500D01*
X105373856Y-134335779D01*
X105370437Y-134358834D01*
X105364773Y-134381443D01*
X105356921Y-134403387D01*
X105346956Y-134424457D01*
X105334974Y-134444448D01*
X105321090Y-134463168D01*
X105305438Y-134480438D01*
X105288168Y-134496090D01*
X105269448Y-134509974D01*
X105249457Y-134521956D01*
X105228387Y-134531921D01*
X105206443Y-134539773D01*
X105183834Y-134545437D01*
X105160779Y-134548856D01*
X105137500Y-134550000D01*
X104662500Y-134550000D01*
X104639221Y-134548856D01*
X104616166Y-134545437D01*
X104593557Y-134539773D01*
X104571613Y-134531921D01*
X104550543Y-134521956D01*
X104530552Y-134509974D01*
X104511832Y-134496090D01*
X104494562Y-134480438D01*
X104478910Y-134463168D01*
X104465026Y-134444448D01*
X104453044Y-134424457D01*
X104443079Y-134403387D01*
X104435227Y-134381443D01*
X104429563Y-134358834D01*
X104426144Y-134335779D01*
X104425000Y-134312500D01*
X104425000Y-133737500D01*
X104426144Y-133714221D01*
X104429563Y-133691166D01*
X104435227Y-133668557D01*
X104443079Y-133646613D01*
X104453044Y-133625543D01*
X104465026Y-133605552D01*
X104478910Y-133586832D01*
X104494562Y-133569562D01*
X104511832Y-133553910D01*
X104530552Y-133540026D01*
X104550543Y-133528044D01*
X104571613Y-133518079D01*
X104593557Y-133510227D01*
X104616166Y-133504563D01*
X104639221Y-133501144D01*
X104662500Y-133500000D01*
X105137500Y-133500000D01*
X105160779Y-133501144D01*
X105160779Y-133501144D01*
G37*
D14*
G04 #@! TD*
G04 #@! TO.P,R4,1*
G04 #@! TO.N,/LED_RED*
X104900000Y-134025000D03*
D12*
G04 #@! TO.N,Net-(Q5-Pad3)*
G04 #@! TO.C,R6*
G36*
X110835779Y-92426144D02*
X110858834Y-92429563D01*
X110881443Y-92435227D01*
X110903387Y-92443079D01*
X110924457Y-92453044D01*
X110944448Y-92465026D01*
X110963168Y-92478910D01*
X110980438Y-92494562D01*
X110996090Y-92511832D01*
X111009974Y-92530552D01*
X111021956Y-92550543D01*
X111031921Y-92571613D01*
X111039773Y-92593557D01*
X111045437Y-92616166D01*
X111048856Y-92639221D01*
X111050000Y-92662500D01*
X111050000Y-93137500D01*
X111048856Y-93160779D01*
X111045437Y-93183834D01*
X111039773Y-93206443D01*
X111031921Y-93228387D01*
X111021956Y-93249457D01*
X111009974Y-93269448D01*
X110996090Y-93288168D01*
X110980438Y-93305438D01*
X110963168Y-93321090D01*
X110944448Y-93334974D01*
X110924457Y-93346956D01*
X110903387Y-93356921D01*
X110881443Y-93364773D01*
X110858834Y-93370437D01*
X110835779Y-93373856D01*
X110812500Y-93375000D01*
X110237500Y-93375000D01*
X110214221Y-93373856D01*
X110191166Y-93370437D01*
X110168557Y-93364773D01*
X110146613Y-93356921D01*
X110125543Y-93346956D01*
X110105552Y-93334974D01*
X110086832Y-93321090D01*
X110069562Y-93305438D01*
X110053910Y-93288168D01*
X110040026Y-93269448D01*
X110028044Y-93249457D01*
X110018079Y-93228387D01*
X110010227Y-93206443D01*
X110004563Y-93183834D01*
X110001144Y-93160779D01*
X110000000Y-93137500D01*
X110000000Y-92662500D01*
X110001144Y-92639221D01*
X110004563Y-92616166D01*
X110010227Y-92593557D01*
X110018079Y-92571613D01*
X110028044Y-92550543D01*
X110040026Y-92530552D01*
X110053910Y-92511832D01*
X110069562Y-92494562D01*
X110086832Y-92478910D01*
X110105552Y-92465026D01*
X110125543Y-92453044D01*
X110146613Y-92443079D01*
X110168557Y-92435227D01*
X110191166Y-92429563D01*
X110214221Y-92426144D01*
X110237500Y-92425000D01*
X110812500Y-92425000D01*
X110835779Y-92426144D01*
X110835779Y-92426144D01*
G37*
D14*
G04 #@! TD*
G04 #@! TO.P,R6,1*
G04 #@! TO.N,Net-(Q5-Pad3)*
X110525000Y-92900000D03*
D12*
G04 #@! TO.N,GND*
G04 #@! TO.C,R6*
G36*
X112585779Y-92426144D02*
X112608834Y-92429563D01*
X112631443Y-92435227D01*
X112653387Y-92443079D01*
X112674457Y-92453044D01*
X112694448Y-92465026D01*
X112713168Y-92478910D01*
X112730438Y-92494562D01*
X112746090Y-92511832D01*
X112759974Y-92530552D01*
X112771956Y-92550543D01*
X112781921Y-92571613D01*
X112789773Y-92593557D01*
X112795437Y-92616166D01*
X112798856Y-92639221D01*
X112800000Y-92662500D01*
X112800000Y-93137500D01*
X112798856Y-93160779D01*
X112795437Y-93183834D01*
X112789773Y-93206443D01*
X112781921Y-93228387D01*
X112771956Y-93249457D01*
X112759974Y-93269448D01*
X112746090Y-93288168D01*
X112730438Y-93305438D01*
X112713168Y-93321090D01*
X112694448Y-93334974D01*
X112674457Y-93346956D01*
X112653387Y-93356921D01*
X112631443Y-93364773D01*
X112608834Y-93370437D01*
X112585779Y-93373856D01*
X112562500Y-93375000D01*
X111987500Y-93375000D01*
X111964221Y-93373856D01*
X111941166Y-93370437D01*
X111918557Y-93364773D01*
X111896613Y-93356921D01*
X111875543Y-93346956D01*
X111855552Y-93334974D01*
X111836832Y-93321090D01*
X111819562Y-93305438D01*
X111803910Y-93288168D01*
X111790026Y-93269448D01*
X111778044Y-93249457D01*
X111768079Y-93228387D01*
X111760227Y-93206443D01*
X111754563Y-93183834D01*
X111751144Y-93160779D01*
X111750000Y-93137500D01*
X111750000Y-92662500D01*
X111751144Y-92639221D01*
X111754563Y-92616166D01*
X111760227Y-92593557D01*
X111768079Y-92571613D01*
X111778044Y-92550543D01*
X111790026Y-92530552D01*
X111803910Y-92511832D01*
X111819562Y-92494562D01*
X111836832Y-92478910D01*
X111855552Y-92465026D01*
X111875543Y-92453044D01*
X111896613Y-92443079D01*
X111918557Y-92435227D01*
X111941166Y-92429563D01*
X111964221Y-92426144D01*
X111987500Y-92425000D01*
X112562500Y-92425000D01*
X112585779Y-92426144D01*
X112585779Y-92426144D01*
G37*
D14*
G04 #@! TD*
G04 #@! TO.P,R6,2*
G04 #@! TO.N,GND*
X112275000Y-92900000D03*
D12*
G04 #@! TO.N,Net-(L1-Pad2)*
G04 #@! TO.C,L1*
G36*
X129760779Y-98701144D02*
X129783834Y-98704563D01*
X129806443Y-98710227D01*
X129828387Y-98718079D01*
X129849457Y-98728044D01*
X129869448Y-98740026D01*
X129888168Y-98753910D01*
X129905438Y-98769562D01*
X129921090Y-98786832D01*
X129934974Y-98805552D01*
X129946956Y-98825543D01*
X129956921Y-98846613D01*
X129964773Y-98868557D01*
X129970437Y-98891166D01*
X129973856Y-98914221D01*
X129975000Y-98937500D01*
X129975000Y-99512500D01*
X129973856Y-99535779D01*
X129970437Y-99558834D01*
X129964773Y-99581443D01*
X129956921Y-99603387D01*
X129946956Y-99624457D01*
X129934974Y-99644448D01*
X129921090Y-99663168D01*
X129905438Y-99680438D01*
X129888168Y-99696090D01*
X129869448Y-99709974D01*
X129849457Y-99721956D01*
X129828387Y-99731921D01*
X129806443Y-99739773D01*
X129783834Y-99745437D01*
X129760779Y-99748856D01*
X129737500Y-99750000D01*
X129262500Y-99750000D01*
X129239221Y-99748856D01*
X129216166Y-99745437D01*
X129193557Y-99739773D01*
X129171613Y-99731921D01*
X129150543Y-99721956D01*
X129130552Y-99709974D01*
X129111832Y-99696090D01*
X129094562Y-99680438D01*
X129078910Y-99663168D01*
X129065026Y-99644448D01*
X129053044Y-99624457D01*
X129043079Y-99603387D01*
X129035227Y-99581443D01*
X129029563Y-99558834D01*
X129026144Y-99535779D01*
X129025000Y-99512500D01*
X129025000Y-98937500D01*
X129026144Y-98914221D01*
X129029563Y-98891166D01*
X129035227Y-98868557D01*
X129043079Y-98846613D01*
X129053044Y-98825543D01*
X129065026Y-98805552D01*
X129078910Y-98786832D01*
X129094562Y-98769562D01*
X129111832Y-98753910D01*
X129130552Y-98740026D01*
X129150543Y-98728044D01*
X129171613Y-98718079D01*
X129193557Y-98710227D01*
X129216166Y-98704563D01*
X129239221Y-98701144D01*
X129262500Y-98700000D01*
X129737500Y-98700000D01*
X129760779Y-98701144D01*
X129760779Y-98701144D01*
G37*
D14*
G04 #@! TD*
G04 #@! TO.P,L1,2*
G04 #@! TO.N,Net-(L1-Pad2)*
X129500000Y-99225000D03*
D12*
G04 #@! TO.N,/DEC4*
G04 #@! TO.C,L1*
G36*
X129760779Y-100451144D02*
X129783834Y-100454563D01*
X129806443Y-100460227D01*
X129828387Y-100468079D01*
X129849457Y-100478044D01*
X129869448Y-100490026D01*
X129888168Y-100503910D01*
X129905438Y-100519562D01*
X129921090Y-100536832D01*
X129934974Y-100555552D01*
X129946956Y-100575543D01*
X129956921Y-100596613D01*
X129964773Y-100618557D01*
X129970437Y-100641166D01*
X129973856Y-100664221D01*
X129975000Y-100687500D01*
X129975000Y-101262500D01*
X129973856Y-101285779D01*
X129970437Y-101308834D01*
X129964773Y-101331443D01*
X129956921Y-101353387D01*
X129946956Y-101374457D01*
X129934974Y-101394448D01*
X129921090Y-101413168D01*
X129905438Y-101430438D01*
X129888168Y-101446090D01*
X129869448Y-101459974D01*
X129849457Y-101471956D01*
X129828387Y-101481921D01*
X129806443Y-101489773D01*
X129783834Y-101495437D01*
X129760779Y-101498856D01*
X129737500Y-101500000D01*
X129262500Y-101500000D01*
X129239221Y-101498856D01*
X129216166Y-101495437D01*
X129193557Y-101489773D01*
X129171613Y-101481921D01*
X129150543Y-101471956D01*
X129130552Y-101459974D01*
X129111832Y-101446090D01*
X129094562Y-101430438D01*
X129078910Y-101413168D01*
X129065026Y-101394448D01*
X129053044Y-101374457D01*
X129043079Y-101353387D01*
X129035227Y-101331443D01*
X129029563Y-101308834D01*
X129026144Y-101285779D01*
X129025000Y-101262500D01*
X129025000Y-100687500D01*
X129026144Y-100664221D01*
X129029563Y-100641166D01*
X129035227Y-100618557D01*
X129043079Y-100596613D01*
X129053044Y-100575543D01*
X129065026Y-100555552D01*
X129078910Y-100536832D01*
X129094562Y-100519562D01*
X129111832Y-100503910D01*
X129130552Y-100490026D01*
X129150543Y-100478044D01*
X129171613Y-100468079D01*
X129193557Y-100460227D01*
X129216166Y-100454563D01*
X129239221Y-100451144D01*
X129262500Y-100450000D01*
X129737500Y-100450000D01*
X129760779Y-100451144D01*
X129760779Y-100451144D01*
G37*
D14*
G04 #@! TD*
G04 #@! TO.P,L1,1*
G04 #@! TO.N,/DEC4*
X129500000Y-100975000D03*
D12*
G04 #@! TO.N,Net-(L1-Pad2)*
G04 #@! TO.C,L2*
G36*
X127460779Y-98701144D02*
X127483834Y-98704563D01*
X127506443Y-98710227D01*
X127528387Y-98718079D01*
X127549457Y-98728044D01*
X127569448Y-98740026D01*
X127588168Y-98753910D01*
X127605438Y-98769562D01*
X127621090Y-98786832D01*
X127634974Y-98805552D01*
X127646956Y-98825543D01*
X127656921Y-98846613D01*
X127664773Y-98868557D01*
X127670437Y-98891166D01*
X127673856Y-98914221D01*
X127675000Y-98937500D01*
X127675000Y-99512500D01*
X127673856Y-99535779D01*
X127670437Y-99558834D01*
X127664773Y-99581443D01*
X127656921Y-99603387D01*
X127646956Y-99624457D01*
X127634974Y-99644448D01*
X127621090Y-99663168D01*
X127605438Y-99680438D01*
X127588168Y-99696090D01*
X127569448Y-99709974D01*
X127549457Y-99721956D01*
X127528387Y-99731921D01*
X127506443Y-99739773D01*
X127483834Y-99745437D01*
X127460779Y-99748856D01*
X127437500Y-99750000D01*
X126962500Y-99750000D01*
X126939221Y-99748856D01*
X126916166Y-99745437D01*
X126893557Y-99739773D01*
X126871613Y-99731921D01*
X126850543Y-99721956D01*
X126830552Y-99709974D01*
X126811832Y-99696090D01*
X126794562Y-99680438D01*
X126778910Y-99663168D01*
X126765026Y-99644448D01*
X126753044Y-99624457D01*
X126743079Y-99603387D01*
X126735227Y-99581443D01*
X126729563Y-99558834D01*
X126726144Y-99535779D01*
X126725000Y-99512500D01*
X126725000Y-98937500D01*
X126726144Y-98914221D01*
X126729563Y-98891166D01*
X126735227Y-98868557D01*
X126743079Y-98846613D01*
X126753044Y-98825543D01*
X126765026Y-98805552D01*
X126778910Y-98786832D01*
X126794562Y-98769562D01*
X126811832Y-98753910D01*
X126830552Y-98740026D01*
X126850543Y-98728044D01*
X126871613Y-98718079D01*
X126893557Y-98710227D01*
X126916166Y-98704563D01*
X126939221Y-98701144D01*
X126962500Y-98700000D01*
X127437500Y-98700000D01*
X127460779Y-98701144D01*
X127460779Y-98701144D01*
G37*
D14*
G04 #@! TD*
G04 #@! TO.P,L2,1*
G04 #@! TO.N,Net-(L1-Pad2)*
X127200000Y-99225000D03*
D12*
G04 #@! TO.N,/DCC*
G04 #@! TO.C,L2*
G36*
X127460779Y-100451144D02*
X127483834Y-100454563D01*
X127506443Y-100460227D01*
X127528387Y-100468079D01*
X127549457Y-100478044D01*
X127569448Y-100490026D01*
X127588168Y-100503910D01*
X127605438Y-100519562D01*
X127621090Y-100536832D01*
X127634974Y-100555552D01*
X127646956Y-100575543D01*
X127656921Y-100596613D01*
X127664773Y-100618557D01*
X127670437Y-100641166D01*
X127673856Y-100664221D01*
X127675000Y-100687500D01*
X127675000Y-101262500D01*
X127673856Y-101285779D01*
X127670437Y-101308834D01*
X127664773Y-101331443D01*
X127656921Y-101353387D01*
X127646956Y-101374457D01*
X127634974Y-101394448D01*
X127621090Y-101413168D01*
X127605438Y-101430438D01*
X127588168Y-101446090D01*
X127569448Y-101459974D01*
X127549457Y-101471956D01*
X127528387Y-101481921D01*
X127506443Y-101489773D01*
X127483834Y-101495437D01*
X127460779Y-101498856D01*
X127437500Y-101500000D01*
X126962500Y-101500000D01*
X126939221Y-101498856D01*
X126916166Y-101495437D01*
X126893557Y-101489773D01*
X126871613Y-101481921D01*
X126850543Y-101471956D01*
X126830552Y-101459974D01*
X126811832Y-101446090D01*
X126794562Y-101430438D01*
X126778910Y-101413168D01*
X126765026Y-101394448D01*
X126753044Y-101374457D01*
X126743079Y-101353387D01*
X126735227Y-101331443D01*
X126729563Y-101308834D01*
X126726144Y-101285779D01*
X126725000Y-101262500D01*
X126725000Y-100687500D01*
X126726144Y-100664221D01*
X126729563Y-100641166D01*
X126735227Y-100618557D01*
X126743079Y-100596613D01*
X126753044Y-100575543D01*
X126765026Y-100555552D01*
X126778910Y-100536832D01*
X126794562Y-100519562D01*
X126811832Y-100503910D01*
X126830552Y-100490026D01*
X126850543Y-100478044D01*
X126871613Y-100468079D01*
X126893557Y-100460227D01*
X126916166Y-100454563D01*
X126939221Y-100451144D01*
X126962500Y-100450000D01*
X127437500Y-100450000D01*
X127460779Y-100451144D01*
X127460779Y-100451144D01*
G37*
D14*
G04 #@! TD*
G04 #@! TO.P,L2,2*
G04 #@! TO.N,/DCC*
X127200000Y-100975000D03*
D16*
G04 #@! TO.P,U2,1*
G04 #@! TO.N,/RX_OUT*
X117500000Y-93600000D03*
D17*
G04 #@! TO.P,U2,2*
G04 #@! TO.N,Net-(Q5-Pad3)*
X120040000Y-93600000D03*
G04 #@! TO.P,U2,3*
G04 #@! TO.N,VDD*
X122580000Y-93600000D03*
G04 #@! TD*
D12*
G04 #@! TO.N,GND*
G04 #@! TO.C,C2*
G36*
X119435779Y-128126144D02*
X119458834Y-128129563D01*
X119481443Y-128135227D01*
X119503387Y-128143079D01*
X119524457Y-128153044D01*
X119544448Y-128165026D01*
X119563168Y-128178910D01*
X119580438Y-128194562D01*
X119596090Y-128211832D01*
X119609974Y-128230552D01*
X119621956Y-128250543D01*
X119631921Y-128271613D01*
X119639773Y-128293557D01*
X119645437Y-128316166D01*
X119648856Y-128339221D01*
X119650000Y-128362500D01*
X119650000Y-128837500D01*
X119648856Y-128860779D01*
X119645437Y-128883834D01*
X119639773Y-128906443D01*
X119631921Y-128928387D01*
X119621956Y-128949457D01*
X119609974Y-128969448D01*
X119596090Y-128988168D01*
X119580438Y-129005438D01*
X119563168Y-129021090D01*
X119544448Y-129034974D01*
X119524457Y-129046956D01*
X119503387Y-129056921D01*
X119481443Y-129064773D01*
X119458834Y-129070437D01*
X119435779Y-129073856D01*
X119412500Y-129075000D01*
X118837500Y-129075000D01*
X118814221Y-129073856D01*
X118791166Y-129070437D01*
X118768557Y-129064773D01*
X118746613Y-129056921D01*
X118725543Y-129046956D01*
X118705552Y-129034974D01*
X118686832Y-129021090D01*
X118669562Y-129005438D01*
X118653910Y-128988168D01*
X118640026Y-128969448D01*
X118628044Y-128949457D01*
X118618079Y-128928387D01*
X118610227Y-128906443D01*
X118604563Y-128883834D01*
X118601144Y-128860779D01*
X118600000Y-128837500D01*
X118600000Y-128362500D01*
X118601144Y-128339221D01*
X118604563Y-128316166D01*
X118610227Y-128293557D01*
X118618079Y-128271613D01*
X118628044Y-128250543D01*
X118640026Y-128230552D01*
X118653910Y-128211832D01*
X118669562Y-128194562D01*
X118686832Y-128178910D01*
X118705552Y-128165026D01*
X118725543Y-128153044D01*
X118746613Y-128143079D01*
X118768557Y-128135227D01*
X118791166Y-128129563D01*
X118814221Y-128126144D01*
X118837500Y-128125000D01*
X119412500Y-128125000D01*
X119435779Y-128126144D01*
X119435779Y-128126144D01*
G37*
D14*
G04 #@! TD*
G04 #@! TO.P,C2,1*
G04 #@! TO.N,GND*
X119125000Y-128600000D03*
D12*
G04 #@! TO.N,/BUTTON*
G04 #@! TO.C,C2*
G36*
X121185779Y-128126144D02*
X121208834Y-128129563D01*
X121231443Y-128135227D01*
X121253387Y-128143079D01*
X121274457Y-128153044D01*
X121294448Y-128165026D01*
X121313168Y-128178910D01*
X121330438Y-128194562D01*
X121346090Y-128211832D01*
X121359974Y-128230552D01*
X121371956Y-128250543D01*
X121381921Y-128271613D01*
X121389773Y-128293557D01*
X121395437Y-128316166D01*
X121398856Y-128339221D01*
X121400000Y-128362500D01*
X121400000Y-128837500D01*
X121398856Y-128860779D01*
X121395437Y-128883834D01*
X121389773Y-128906443D01*
X121381921Y-128928387D01*
X121371956Y-128949457D01*
X121359974Y-128969448D01*
X121346090Y-128988168D01*
X121330438Y-129005438D01*
X121313168Y-129021090D01*
X121294448Y-129034974D01*
X121274457Y-129046956D01*
X121253387Y-129056921D01*
X121231443Y-129064773D01*
X121208834Y-129070437D01*
X121185779Y-129073856D01*
X121162500Y-129075000D01*
X120587500Y-129075000D01*
X120564221Y-129073856D01*
X120541166Y-129070437D01*
X120518557Y-129064773D01*
X120496613Y-129056921D01*
X120475543Y-129046956D01*
X120455552Y-129034974D01*
X120436832Y-129021090D01*
X120419562Y-129005438D01*
X120403910Y-128988168D01*
X120390026Y-128969448D01*
X120378044Y-128949457D01*
X120368079Y-128928387D01*
X120360227Y-128906443D01*
X120354563Y-128883834D01*
X120351144Y-128860779D01*
X120350000Y-128837500D01*
X120350000Y-128362500D01*
X120351144Y-128339221D01*
X120354563Y-128316166D01*
X120360227Y-128293557D01*
X120368079Y-128271613D01*
X120378044Y-128250543D01*
X120390026Y-128230552D01*
X120403910Y-128211832D01*
X120419562Y-128194562D01*
X120436832Y-128178910D01*
X120455552Y-128165026D01*
X120475543Y-128153044D01*
X120496613Y-128143079D01*
X120518557Y-128135227D01*
X120541166Y-128129563D01*
X120564221Y-128126144D01*
X120587500Y-128125000D01*
X121162500Y-128125000D01*
X121185779Y-128126144D01*
X121185779Y-128126144D01*
G37*
D14*
G04 #@! TD*
G04 #@! TO.P,C2,2*
G04 #@! TO.N,/BUTTON*
X120875000Y-128600000D03*
D12*
G04 #@! TO.N,VDD*
G04 #@! TO.C,C3*
G36*
X126674505Y-82951204D02*
X126698773Y-82954804D01*
X126722572Y-82960765D01*
X126745671Y-82969030D01*
X126767850Y-82979520D01*
X126788893Y-82992132D01*
X126808599Y-83006747D01*
X126826777Y-83023223D01*
X126843253Y-83041401D01*
X126857868Y-83061107D01*
X126870480Y-83082150D01*
X126880970Y-83104329D01*
X126889235Y-83127428D01*
X126895196Y-83151227D01*
X126898796Y-83175495D01*
X126900000Y-83199999D01*
X126900000Y-83850001D01*
X126898796Y-83874505D01*
X126895196Y-83898773D01*
X126889235Y-83922572D01*
X126880970Y-83945671D01*
X126870480Y-83967850D01*
X126857868Y-83988893D01*
X126843253Y-84008599D01*
X126826777Y-84026777D01*
X126808599Y-84043253D01*
X126788893Y-84057868D01*
X126767850Y-84070480D01*
X126745671Y-84080970D01*
X126722572Y-84089235D01*
X126698773Y-84095196D01*
X126674505Y-84098796D01*
X126650001Y-84100000D01*
X125749999Y-84100000D01*
X125725495Y-84098796D01*
X125701227Y-84095196D01*
X125677428Y-84089235D01*
X125654329Y-84080970D01*
X125632150Y-84070480D01*
X125611107Y-84057868D01*
X125591401Y-84043253D01*
X125573223Y-84026777D01*
X125556747Y-84008599D01*
X125542132Y-83988893D01*
X125529520Y-83967850D01*
X125519030Y-83945671D01*
X125510765Y-83922572D01*
X125504804Y-83898773D01*
X125501204Y-83874505D01*
X125500000Y-83850001D01*
X125500000Y-83199999D01*
X125501204Y-83175495D01*
X125504804Y-83151227D01*
X125510765Y-83127428D01*
X125519030Y-83104329D01*
X125529520Y-83082150D01*
X125542132Y-83061107D01*
X125556747Y-83041401D01*
X125573223Y-83023223D01*
X125591401Y-83006747D01*
X125611107Y-82992132D01*
X125632150Y-82979520D01*
X125654329Y-82969030D01*
X125677428Y-82960765D01*
X125701227Y-82954804D01*
X125725495Y-82951204D01*
X125749999Y-82950000D01*
X126650001Y-82950000D01*
X126674505Y-82951204D01*
X126674505Y-82951204D01*
G37*
D23*
G04 #@! TD*
G04 #@! TO.P,C3,1*
G04 #@! TO.N,VDD*
X126200000Y-83525000D03*
D12*
G04 #@! TO.N,GND*
G04 #@! TO.C,C3*
G36*
X126674505Y-80901204D02*
X126698773Y-80904804D01*
X126722572Y-80910765D01*
X126745671Y-80919030D01*
X126767850Y-80929520D01*
X126788893Y-80942132D01*
X126808599Y-80956747D01*
X126826777Y-80973223D01*
X126843253Y-80991401D01*
X126857868Y-81011107D01*
X126870480Y-81032150D01*
X126880970Y-81054329D01*
X126889235Y-81077428D01*
X126895196Y-81101227D01*
X126898796Y-81125495D01*
X126900000Y-81149999D01*
X126900000Y-81800001D01*
X126898796Y-81824505D01*
X126895196Y-81848773D01*
X126889235Y-81872572D01*
X126880970Y-81895671D01*
X126870480Y-81917850D01*
X126857868Y-81938893D01*
X126843253Y-81958599D01*
X126826777Y-81976777D01*
X126808599Y-81993253D01*
X126788893Y-82007868D01*
X126767850Y-82020480D01*
X126745671Y-82030970D01*
X126722572Y-82039235D01*
X126698773Y-82045196D01*
X126674505Y-82048796D01*
X126650001Y-82050000D01*
X125749999Y-82050000D01*
X125725495Y-82048796D01*
X125701227Y-82045196D01*
X125677428Y-82039235D01*
X125654329Y-82030970D01*
X125632150Y-82020480D01*
X125611107Y-82007868D01*
X125591401Y-81993253D01*
X125573223Y-81976777D01*
X125556747Y-81958599D01*
X125542132Y-81938893D01*
X125529520Y-81917850D01*
X125519030Y-81895671D01*
X125510765Y-81872572D01*
X125504804Y-81848773D01*
X125501204Y-81824505D01*
X125500000Y-81800001D01*
X125500000Y-81149999D01*
X125501204Y-81125495D01*
X125504804Y-81101227D01*
X125510765Y-81077428D01*
X125519030Y-81054329D01*
X125529520Y-81032150D01*
X125542132Y-81011107D01*
X125556747Y-80991401D01*
X125573223Y-80973223D01*
X125591401Y-80956747D01*
X125611107Y-80942132D01*
X125632150Y-80929520D01*
X125654329Y-80919030D01*
X125677428Y-80910765D01*
X125701227Y-80904804D01*
X125725495Y-80901204D01*
X125749999Y-80900000D01*
X126650001Y-80900000D01*
X126674505Y-80901204D01*
X126674505Y-80901204D01*
G37*
D23*
G04 #@! TD*
G04 #@! TO.P,C3,2*
G04 #@! TO.N,GND*
X126200000Y-81475000D03*
D18*
G04 #@! TO.P,Q5,1*
G04 #@! TO.N,/RX_EN*
X112900000Y-96950000D03*
G04 #@! TO.P,Q5,2*
G04 #@! TO.N,GND*
X112900000Y-95050000D03*
G04 #@! TO.P,Q5,3*
G04 #@! TO.N,Net-(Q5-Pad3)*
X109900000Y-96000000D03*
G04 #@! TD*
D24*
G04 #@! TO.P,SW1,2*
G04 #@! TO.N,/BUTTON*
X123200000Y-121400000D03*
G04 #@! TO.P,SW1,1*
G04 #@! TO.N,GND*
X123200000Y-125900000D03*
G04 #@! TO.P,SW1,2*
G04 #@! TO.N,/BUTTON*
X116700000Y-121400000D03*
G04 #@! TO.P,SW1,1*
G04 #@! TO.N,GND*
X116700000Y-125900000D03*
G04 #@! TD*
D25*
G04 #@! TO.P,P1,*
G04 #@! TO.N,*
X131030000Y-138520000D03*
X133570000Y-123280000D03*
D26*
G04 #@! TO.P,P1,1*
G04 #@! TO.N,/SWDIO*
X131030000Y-125820000D03*
G04 #@! TO.P,P1,3*
G04 #@! TO.N,/SWDCLK*
X131030000Y-128360000D03*
G04 #@! TO.P,P1,5*
G04 #@! TO.N,/RESET*
X131030000Y-130900000D03*
G04 #@! TO.P,P1,7*
G04 #@! TO.N,/GPIO2*
X131030000Y-133440000D03*
G04 #@! TO.P,P1,9*
G04 #@! TO.N,Net-(P1-Pad10)*
X131030000Y-135980000D03*
G04 #@! TO.P,P1,10*
X133570000Y-135980000D03*
G04 #@! TO.P,P1,8*
G04 #@! TO.N,/RX*
X133570000Y-133440000D03*
G04 #@! TO.P,P1,6*
G04 #@! TO.N,/GPIO1*
X133570000Y-130900000D03*
G04 #@! TO.P,P1,4*
G04 #@! TO.N,VDD*
X133570000Y-128360000D03*
G04 #@! TO.P,P1,2*
G04 #@! TO.N,/TX*
X133570000Y-125820000D03*
D25*
G04 #@! TO.P,P1,*
G04 #@! TO.N,*
X131030000Y-123280000D03*
G04 #@! TD*
D27*
G04 #@! TO.P,Q4,1*
G04 #@! TO.N,Net-(Q4-Pad1)*
X129600000Y-88150000D03*
G04 #@! TO.P,Q4,2*
G04 #@! TO.N,VDD*
X129600000Y-90050000D03*
G04 #@! TO.P,Q4,3*
G04 #@! TO.N,/RX_UARTRX*
X131600000Y-89100000D03*
G04 #@! TD*
D12*
G04 #@! TO.N,/RX_UARTRX*
G04 #@! TO.C,R5*
G36*
X134260779Y-89451144D02*
X134283834Y-89454563D01*
X134306443Y-89460227D01*
X134328387Y-89468079D01*
X134349457Y-89478044D01*
X134369448Y-89490026D01*
X134388168Y-89503910D01*
X134405438Y-89519562D01*
X134421090Y-89536832D01*
X134434974Y-89555552D01*
X134446956Y-89575543D01*
X134456921Y-89596613D01*
X134464773Y-89618557D01*
X134470437Y-89641166D01*
X134473856Y-89664221D01*
X134475000Y-89687500D01*
X134475000Y-90262500D01*
X134473856Y-90285779D01*
X134470437Y-90308834D01*
X134464773Y-90331443D01*
X134456921Y-90353387D01*
X134446956Y-90374457D01*
X134434974Y-90394448D01*
X134421090Y-90413168D01*
X134405438Y-90430438D01*
X134388168Y-90446090D01*
X134369448Y-90459974D01*
X134349457Y-90471956D01*
X134328387Y-90481921D01*
X134306443Y-90489773D01*
X134283834Y-90495437D01*
X134260779Y-90498856D01*
X134237500Y-90500000D01*
X133762500Y-90500000D01*
X133739221Y-90498856D01*
X133716166Y-90495437D01*
X133693557Y-90489773D01*
X133671613Y-90481921D01*
X133650543Y-90471956D01*
X133630552Y-90459974D01*
X133611832Y-90446090D01*
X133594562Y-90430438D01*
X133578910Y-90413168D01*
X133565026Y-90394448D01*
X133553044Y-90374457D01*
X133543079Y-90353387D01*
X133535227Y-90331443D01*
X133529563Y-90308834D01*
X133526144Y-90285779D01*
X133525000Y-90262500D01*
X133525000Y-89687500D01*
X133526144Y-89664221D01*
X133529563Y-89641166D01*
X133535227Y-89618557D01*
X133543079Y-89596613D01*
X133553044Y-89575543D01*
X133565026Y-89555552D01*
X133578910Y-89536832D01*
X133594562Y-89519562D01*
X133611832Y-89503910D01*
X133630552Y-89490026D01*
X133650543Y-89478044D01*
X133671613Y-89468079D01*
X133693557Y-89460227D01*
X133716166Y-89454563D01*
X133739221Y-89451144D01*
X133762500Y-89450000D01*
X134237500Y-89450000D01*
X134260779Y-89451144D01*
X134260779Y-89451144D01*
G37*
D14*
G04 #@! TD*
G04 #@! TO.P,R5,1*
G04 #@! TO.N,/RX_UARTRX*
X134000000Y-89975000D03*
D12*
G04 #@! TO.N,GND*
G04 #@! TO.C,R5*
G36*
X134260779Y-87701144D02*
X134283834Y-87704563D01*
X134306443Y-87710227D01*
X134328387Y-87718079D01*
X134349457Y-87728044D01*
X134369448Y-87740026D01*
X134388168Y-87753910D01*
X134405438Y-87769562D01*
X134421090Y-87786832D01*
X134434974Y-87805552D01*
X134446956Y-87825543D01*
X134456921Y-87846613D01*
X134464773Y-87868557D01*
X134470437Y-87891166D01*
X134473856Y-87914221D01*
X134475000Y-87937500D01*
X134475000Y-88512500D01*
X134473856Y-88535779D01*
X134470437Y-88558834D01*
X134464773Y-88581443D01*
X134456921Y-88603387D01*
X134446956Y-88624457D01*
X134434974Y-88644448D01*
X134421090Y-88663168D01*
X134405438Y-88680438D01*
X134388168Y-88696090D01*
X134369448Y-88709974D01*
X134349457Y-88721956D01*
X134328387Y-88731921D01*
X134306443Y-88739773D01*
X134283834Y-88745437D01*
X134260779Y-88748856D01*
X134237500Y-88750000D01*
X133762500Y-88750000D01*
X133739221Y-88748856D01*
X133716166Y-88745437D01*
X133693557Y-88739773D01*
X133671613Y-88731921D01*
X133650543Y-88721956D01*
X133630552Y-88709974D01*
X133611832Y-88696090D01*
X133594562Y-88680438D01*
X133578910Y-88663168D01*
X133565026Y-88644448D01*
X133553044Y-88624457D01*
X133543079Y-88603387D01*
X133535227Y-88581443D01*
X133529563Y-88558834D01*
X133526144Y-88535779D01*
X133525000Y-88512500D01*
X133525000Y-87937500D01*
X133526144Y-87914221D01*
X133529563Y-87891166D01*
X133535227Y-87868557D01*
X133543079Y-87846613D01*
X133553044Y-87825543D01*
X133565026Y-87805552D01*
X133578910Y-87786832D01*
X133594562Y-87769562D01*
X133611832Y-87753910D01*
X133630552Y-87740026D01*
X133650543Y-87728044D01*
X133671613Y-87718079D01*
X133693557Y-87710227D01*
X133716166Y-87704563D01*
X133739221Y-87701144D01*
X133762500Y-87700000D01*
X134237500Y-87700000D01*
X134260779Y-87701144D01*
X134260779Y-87701144D01*
G37*
D14*
G04 #@! TD*
G04 #@! TO.P,R5,2*
G04 #@! TO.N,GND*
X134000000Y-88225000D03*
D12*
G04 #@! TO.N,/LIGHT_SENSE*
G04 #@! TO.C,R7*
G36*
X125435779Y-87626144D02*
X125458834Y-87629563D01*
X125481443Y-87635227D01*
X125503387Y-87643079D01*
X125524457Y-87653044D01*
X125544448Y-87665026D01*
X125563168Y-87678910D01*
X125580438Y-87694562D01*
X125596090Y-87711832D01*
X125609974Y-87730552D01*
X125621956Y-87750543D01*
X125631921Y-87771613D01*
X125639773Y-87793557D01*
X125645437Y-87816166D01*
X125648856Y-87839221D01*
X125650000Y-87862500D01*
X125650000Y-88337500D01*
X125648856Y-88360779D01*
X125645437Y-88383834D01*
X125639773Y-88406443D01*
X125631921Y-88428387D01*
X125621956Y-88449457D01*
X125609974Y-88469448D01*
X125596090Y-88488168D01*
X125580438Y-88505438D01*
X125563168Y-88521090D01*
X125544448Y-88534974D01*
X125524457Y-88546956D01*
X125503387Y-88556921D01*
X125481443Y-88564773D01*
X125458834Y-88570437D01*
X125435779Y-88573856D01*
X125412500Y-88575000D01*
X124837500Y-88575000D01*
X124814221Y-88573856D01*
X124791166Y-88570437D01*
X124768557Y-88564773D01*
X124746613Y-88556921D01*
X124725543Y-88546956D01*
X124705552Y-88534974D01*
X124686832Y-88521090D01*
X124669562Y-88505438D01*
X124653910Y-88488168D01*
X124640026Y-88469448D01*
X124628044Y-88449457D01*
X124618079Y-88428387D01*
X124610227Y-88406443D01*
X124604563Y-88383834D01*
X124601144Y-88360779D01*
X124600000Y-88337500D01*
X124600000Y-87862500D01*
X124601144Y-87839221D01*
X124604563Y-87816166D01*
X124610227Y-87793557D01*
X124618079Y-87771613D01*
X124628044Y-87750543D01*
X124640026Y-87730552D01*
X124653910Y-87711832D01*
X124669562Y-87694562D01*
X124686832Y-87678910D01*
X124705552Y-87665026D01*
X124725543Y-87653044D01*
X124746613Y-87643079D01*
X124768557Y-87635227D01*
X124791166Y-87629563D01*
X124814221Y-87626144D01*
X124837500Y-87625000D01*
X125412500Y-87625000D01*
X125435779Y-87626144D01*
X125435779Y-87626144D01*
G37*
D14*
G04 #@! TD*
G04 #@! TO.P,R7,2*
G04 #@! TO.N,/LIGHT_SENSE*
X125125000Y-88100000D03*
D12*
G04 #@! TO.N,Net-(Q4-Pad1)*
G04 #@! TO.C,R7*
G36*
X127185779Y-87626144D02*
X127208834Y-87629563D01*
X127231443Y-87635227D01*
X127253387Y-87643079D01*
X127274457Y-87653044D01*
X127294448Y-87665026D01*
X127313168Y-87678910D01*
X127330438Y-87694562D01*
X127346090Y-87711832D01*
X127359974Y-87730552D01*
X127371956Y-87750543D01*
X127381921Y-87771613D01*
X127389773Y-87793557D01*
X127395437Y-87816166D01*
X127398856Y-87839221D01*
X127400000Y-87862500D01*
X127400000Y-88337500D01*
X127398856Y-88360779D01*
X127395437Y-88383834D01*
X127389773Y-88406443D01*
X127381921Y-88428387D01*
X127371956Y-88449457D01*
X127359974Y-88469448D01*
X127346090Y-88488168D01*
X127330438Y-88505438D01*
X127313168Y-88521090D01*
X127294448Y-88534974D01*
X127274457Y-88546956D01*
X127253387Y-88556921D01*
X127231443Y-88564773D01*
X127208834Y-88570437D01*
X127185779Y-88573856D01*
X127162500Y-88575000D01*
X126587500Y-88575000D01*
X126564221Y-88573856D01*
X126541166Y-88570437D01*
X126518557Y-88564773D01*
X126496613Y-88556921D01*
X126475543Y-88546956D01*
X126455552Y-88534974D01*
X126436832Y-88521090D01*
X126419562Y-88505438D01*
X126403910Y-88488168D01*
X126390026Y-88469448D01*
X126378044Y-88449457D01*
X126368079Y-88428387D01*
X126360227Y-88406443D01*
X126354563Y-88383834D01*
X126351144Y-88360779D01*
X126350000Y-88337500D01*
X126350000Y-87862500D01*
X126351144Y-87839221D01*
X126354563Y-87816166D01*
X126360227Y-87793557D01*
X126368079Y-87771613D01*
X126378044Y-87750543D01*
X126390026Y-87730552D01*
X126403910Y-87711832D01*
X126419562Y-87694562D01*
X126436832Y-87678910D01*
X126455552Y-87665026D01*
X126475543Y-87653044D01*
X126496613Y-87643079D01*
X126518557Y-87635227D01*
X126541166Y-87629563D01*
X126564221Y-87626144D01*
X126587500Y-87625000D01*
X127162500Y-87625000D01*
X127185779Y-87626144D01*
X127185779Y-87626144D01*
G37*
D14*
G04 #@! TD*
G04 #@! TO.P,R7,1*
G04 #@! TO.N,Net-(Q4-Pad1)*
X126875000Y-88100000D03*
D12*
G04 #@! TO.N,VDD*
G04 #@! TO.C,R8*
G36*
X127185779Y-89626144D02*
X127208834Y-89629563D01*
X127231443Y-89635227D01*
X127253387Y-89643079D01*
X127274457Y-89653044D01*
X127294448Y-89665026D01*
X127313168Y-89678910D01*
X127330438Y-89694562D01*
X127346090Y-89711832D01*
X127359974Y-89730552D01*
X127371956Y-89750543D01*
X127381921Y-89771613D01*
X127389773Y-89793557D01*
X127395437Y-89816166D01*
X127398856Y-89839221D01*
X127400000Y-89862500D01*
X127400000Y-90337500D01*
X127398856Y-90360779D01*
X127395437Y-90383834D01*
X127389773Y-90406443D01*
X127381921Y-90428387D01*
X127371956Y-90449457D01*
X127359974Y-90469448D01*
X127346090Y-90488168D01*
X127330438Y-90505438D01*
X127313168Y-90521090D01*
X127294448Y-90534974D01*
X127274457Y-90546956D01*
X127253387Y-90556921D01*
X127231443Y-90564773D01*
X127208834Y-90570437D01*
X127185779Y-90573856D01*
X127162500Y-90575000D01*
X126587500Y-90575000D01*
X126564221Y-90573856D01*
X126541166Y-90570437D01*
X126518557Y-90564773D01*
X126496613Y-90556921D01*
X126475543Y-90546956D01*
X126455552Y-90534974D01*
X126436832Y-90521090D01*
X126419562Y-90505438D01*
X126403910Y-90488168D01*
X126390026Y-90469448D01*
X126378044Y-90449457D01*
X126368079Y-90428387D01*
X126360227Y-90406443D01*
X126354563Y-90383834D01*
X126351144Y-90360779D01*
X126350000Y-90337500D01*
X126350000Y-89862500D01*
X126351144Y-89839221D01*
X126354563Y-89816166D01*
X126360227Y-89793557D01*
X126368079Y-89771613D01*
X126378044Y-89750543D01*
X126390026Y-89730552D01*
X126403910Y-89711832D01*
X126419562Y-89694562D01*
X126436832Y-89678910D01*
X126455552Y-89665026D01*
X126475543Y-89653044D01*
X126496613Y-89643079D01*
X126518557Y-89635227D01*
X126541166Y-89629563D01*
X126564221Y-89626144D01*
X126587500Y-89625000D01*
X127162500Y-89625000D01*
X127185779Y-89626144D01*
X127185779Y-89626144D01*
G37*
D14*
G04 #@! TD*
G04 #@! TO.P,R8,1*
G04 #@! TO.N,VDD*
X126875000Y-90100000D03*
D12*
G04 #@! TO.N,/LIGHT_SENSE*
G04 #@! TO.C,R8*
G36*
X125435779Y-89626144D02*
X125458834Y-89629563D01*
X125481443Y-89635227D01*
X125503387Y-89643079D01*
X125524457Y-89653044D01*
X125544448Y-89665026D01*
X125563168Y-89678910D01*
X125580438Y-89694562D01*
X125596090Y-89711832D01*
X125609974Y-89730552D01*
X125621956Y-89750543D01*
X125631921Y-89771613D01*
X125639773Y-89793557D01*
X125645437Y-89816166D01*
X125648856Y-89839221D01*
X125650000Y-89862500D01*
X125650000Y-90337500D01*
X125648856Y-90360779D01*
X125645437Y-90383834D01*
X125639773Y-90406443D01*
X125631921Y-90428387D01*
X125621956Y-90449457D01*
X125609974Y-90469448D01*
X125596090Y-90488168D01*
X125580438Y-90505438D01*
X125563168Y-90521090D01*
X125544448Y-90534974D01*
X125524457Y-90546956D01*
X125503387Y-90556921D01*
X125481443Y-90564773D01*
X125458834Y-90570437D01*
X125435779Y-90573856D01*
X125412500Y-90575000D01*
X124837500Y-90575000D01*
X124814221Y-90573856D01*
X124791166Y-90570437D01*
X124768557Y-90564773D01*
X124746613Y-90556921D01*
X124725543Y-90546956D01*
X124705552Y-90534974D01*
X124686832Y-90521090D01*
X124669562Y-90505438D01*
X124653910Y-90488168D01*
X124640026Y-90469448D01*
X124628044Y-90449457D01*
X124618079Y-90428387D01*
X124610227Y-90406443D01*
X124604563Y-90383834D01*
X124601144Y-90360779D01*
X124600000Y-90337500D01*
X124600000Y-89862500D01*
X124601144Y-89839221D01*
X124604563Y-89816166D01*
X124610227Y-89793557D01*
X124618079Y-89771613D01*
X124628044Y-89750543D01*
X124640026Y-89730552D01*
X124653910Y-89711832D01*
X124669562Y-89694562D01*
X124686832Y-89678910D01*
X124705552Y-89665026D01*
X124725543Y-89653044D01*
X124746613Y-89643079D01*
X124768557Y-89635227D01*
X124791166Y-89629563D01*
X124814221Y-89626144D01*
X124837500Y-89625000D01*
X125412500Y-89625000D01*
X125435779Y-89626144D01*
X125435779Y-89626144D01*
G37*
D14*
G04 #@! TD*
G04 #@! TO.P,R8,2*
G04 #@! TO.N,/LIGHT_SENSE*
X125125000Y-90100000D03*
D28*
G04 #@! TO.N,GND*
X123100000Y-115000000D03*
X123900000Y-115800000D03*
X122900000Y-105000000D03*
X122900000Y-104200000D03*
X123700000Y-104200000D03*
X135500000Y-103600000D03*
X134700000Y-103600000D03*
X135500000Y-102800000D03*
X134700000Y-102800000D03*
X135500000Y-107000000D03*
X134700000Y-107000000D03*
X134700000Y-107800000D03*
X135500000Y-107800000D03*
X133100000Y-107400000D03*
X131300000Y-110000000D03*
X127900000Y-110000000D03*
X126200000Y-112400000D03*
X130300000Y-112400000D03*
X126200000Y-107500000D03*
X130300000Y-107500000D03*
X135400000Y-116500000D03*
X135400000Y-117400000D03*
X101829999Y-120500000D03*
X107500000Y-141600000D03*
X123100000Y-115800000D03*
X131700000Y-97600000D03*
X113600000Y-92900000D03*
X117100000Y-102600000D03*
G04 #@! TO.N,VDD*
X121600000Y-134600000D03*
X109600000Y-131100000D03*
G04 #@! TO.N,/LIGHT_SENSE*
X121600000Y-109200000D03*
X120500000Y-101725000D03*
X125100000Y-91400000D03*
X120500000Y-97300000D03*
G04 #@! TO.N,/CAM_JACK*
X112700000Y-129700000D03*
X113500000Y-116800000D03*
G04 #@! TO.N,/SWDIO*
X134200000Y-120900000D03*
G04 #@! TO.N,/SWDCLK*
X133475000Y-120000000D03*
G04 #@! TO.N,/RESET*
X132775000Y-119200000D03*
G04 #@! TO.N,/GPIO2*
X130675000Y-116680154D03*
G04 #@! TO.N,/GPIO1*
X131375000Y-117400000D03*
G04 #@! TO.N,/TX*
X132075000Y-118200000D03*
G04 #@! TO.N,/LED_GREEN*
X135000000Y-101000000D03*
X103500000Y-138400000D03*
G04 #@! TO.N,/LED_RED*
X107000000Y-132300000D03*
X133800000Y-101000000D03*
G04 #@! TO.N,/BUTTON*
X116700000Y-112700000D03*
G04 #@! TO.N,/RX_OUT*
X121200000Y-110675000D03*
X119200000Y-101725000D03*
G04 #@! TO.N,/RX_UARTRX*
X126200000Y-118100000D03*
X118000000Y-101725000D03*
X118000000Y-98100000D03*
X131600000Y-91200000D03*
G04 #@! TD*
D29*
G04 #@! TO.N,Net-(BT1-Pad1)*
X135500000Y-81850000D02*
X135500000Y-82500000D01*
X131550000Y-77900000D02*
X135500000Y-81850000D01*
X126250000Y-77900000D02*
X131550000Y-77900000D01*
G04 #@! TO.N,GND*
X129475000Y-81550000D02*
X129400000Y-81625000D01*
X132500000Y-81550000D02*
X129475000Y-81550000D01*
X126350000Y-81625000D02*
X126200000Y-81475000D01*
X129400000Y-81625000D02*
X126350000Y-81625000D01*
X104975000Y-135850000D02*
X104900000Y-135775000D01*
X107500000Y-135850000D02*
X104975000Y-135850000D01*
X104975000Y-140250000D02*
X104900000Y-140175000D01*
X107500000Y-140250000D02*
X104975000Y-140250000D01*
X108700000Y-135850000D02*
X107500000Y-135850000D01*
X109000000Y-136150000D02*
X108700000Y-135850000D01*
X109000000Y-139950000D02*
X109000000Y-136150000D01*
X108700000Y-140250000D02*
X109000000Y-139950000D01*
X107500000Y-140250000D02*
X108700000Y-140250000D01*
X122600000Y-99225000D02*
X124900000Y-99225000D01*
X117125000Y-110000000D02*
X117125000Y-103900000D01*
X112275000Y-94425000D02*
X112900000Y-95050000D01*
X112275000Y-92900000D02*
X112275000Y-94425000D01*
X112350000Y-95050000D02*
X111400000Y-96000000D01*
X112900000Y-95050000D02*
X112350000Y-95050000D01*
X111400000Y-98325000D02*
X110525000Y-99200000D01*
X111400000Y-96000000D02*
X111400000Y-98325000D01*
X123900000Y-114200000D02*
X123100000Y-115000000D01*
X124250000Y-114200000D02*
X123900000Y-114200000D01*
X123600000Y-105700000D02*
X122900000Y-105000000D01*
X124250000Y-105700000D02*
X123600000Y-105700000D01*
X135800000Y-103900000D02*
X135500000Y-103600000D01*
X135800000Y-105250000D02*
X135800000Y-103900000D01*
X135800000Y-116100000D02*
X135800000Y-114750000D01*
X135400000Y-116500000D02*
X135800000Y-116100000D01*
X101879999Y-120450000D02*
X101829999Y-120500000D01*
X103225000Y-120450000D02*
X101879999Y-120450000D01*
X122625000Y-77900000D02*
X113750000Y-77900000D01*
X126200000Y-81475000D02*
X122625000Y-77900000D01*
X134000000Y-87600000D02*
X134000000Y-88225000D01*
X134000000Y-82500000D02*
X134000000Y-87600000D01*
X133050000Y-81550000D02*
X134000000Y-82500000D01*
X132500000Y-81550000D02*
X133050000Y-81550000D01*
X107500000Y-140250000D02*
X107500000Y-141600000D01*
X125400000Y-98100000D02*
X124900000Y-98600000D01*
X131200000Y-98100000D02*
X125400000Y-98100000D01*
X124900000Y-98600000D02*
X124900000Y-99225000D01*
X131700000Y-98600000D02*
X131200000Y-98100000D01*
X131700000Y-99225000D02*
X131700000Y-98600000D01*
X131700000Y-99225000D02*
X131700000Y-97600000D01*
X112275000Y-92900000D02*
X113600000Y-92900000D01*
X117125000Y-102625000D02*
X117100000Y-102600000D01*
X117125000Y-103900000D02*
X117125000Y-102625000D01*
X119125000Y-128325000D02*
X119125000Y-128600000D01*
X116700000Y-125900000D02*
X119125000Y-128325000D01*
G04 #@! TO.N,VDD*
X126500000Y-106300000D02*
X127000000Y-106800000D01*
X126500000Y-105250000D02*
X126500000Y-106300000D01*
X128600000Y-106300000D02*
X128600000Y-105250000D01*
X128100000Y-106800000D02*
X128600000Y-106300000D01*
X127000000Y-106800000D02*
X128100000Y-106800000D01*
X129475000Y-83450000D02*
X129400000Y-83375000D01*
X132500000Y-83450000D02*
X129475000Y-83450000D01*
X129250000Y-83525000D02*
X129400000Y-83375000D01*
X126200000Y-83525000D02*
X129250000Y-83525000D01*
X126500000Y-102575000D02*
X124900000Y-100975000D01*
X126500000Y-105250000D02*
X126500000Y-102575000D01*
X124900000Y-100975000D02*
X122600000Y-100975000D01*
X129550000Y-90100000D02*
X129600000Y-90050000D01*
X126875000Y-90100000D02*
X129550000Y-90100000D01*
X123375000Y-93600000D02*
X122580000Y-93600000D01*
X129400000Y-83375000D02*
X130600000Y-84575000D01*
X130600000Y-89100000D02*
X129650000Y-90050000D01*
X129650000Y-90050000D02*
X129600000Y-90050000D01*
X130600000Y-84575000D02*
X130600000Y-89100000D01*
X121600000Y-136200000D02*
X121600000Y-137600000D01*
X121600000Y-134600000D02*
X121600000Y-136200000D01*
X122600000Y-100975000D02*
X122025000Y-100975000D01*
X122025000Y-100975000D02*
X121400000Y-100350000D01*
X121400000Y-94780000D02*
X122580000Y-93600000D01*
X121400000Y-100350000D02*
X121400000Y-94780000D01*
X126875000Y-90675000D02*
X126875000Y-90100000D01*
X126875000Y-90698002D02*
X126875000Y-90675000D01*
X123973002Y-93600000D02*
X126875000Y-90698002D01*
X122580000Y-93600000D02*
X123973002Y-93600000D01*
X121400000Y-90000000D02*
X122580000Y-91180000D01*
X105800000Y-90000000D02*
X121400000Y-90000000D01*
X109600000Y-131100000D02*
X105700000Y-131100000D01*
X105700000Y-131100000D02*
X104700000Y-130100000D01*
X122580000Y-91180000D02*
X122580000Y-93600000D01*
X104700000Y-130100000D02*
X104700000Y-91100000D01*
X104700000Y-91100000D02*
X105800000Y-90000000D01*
G04 #@! TO.N,Net-(D1-Pad2)*
X115175000Y-136200000D02*
X118200000Y-136200000D01*
X113000000Y-134025000D02*
X115175000Y-136200000D01*
G04 #@! TO.N,Net-(D1-Pad4)*
X113825000Y-137600000D02*
X118400000Y-137600000D01*
X113000000Y-138425000D02*
X113825000Y-137600000D01*
G04 #@! TO.N,/LIGHT_SENSE*
X125125000Y-90100000D02*
X125125000Y-88100000D01*
X121300000Y-84275000D02*
X125125000Y-88100000D01*
X121300000Y-82500000D02*
X121300000Y-84275000D01*
X122400000Y-110000000D02*
X121600000Y-109200000D01*
X124250000Y-110000000D02*
X122400000Y-110000000D01*
X120500000Y-101725000D02*
X120500000Y-98200000D01*
X125100000Y-90125000D02*
X125125000Y-90100000D01*
X125100000Y-91400000D02*
X125100000Y-90125000D01*
X120500000Y-98200000D02*
X120500000Y-97300000D01*
G04 #@! TO.N,/CAM_JACK*
X111375000Y-127000000D02*
X111325000Y-126950000D01*
X111375000Y-129700000D02*
X111375000Y-127000000D01*
X111375000Y-129700000D02*
X112700000Y-129700000D01*
X113500000Y-116800000D02*
X113500277Y-116799723D01*
X124300000Y-116800000D02*
X113500000Y-116800000D01*
X125800000Y-115300000D02*
X124300000Y-116800000D01*
X125800000Y-114750000D02*
X125800000Y-115300000D01*
G04 #@! TO.N,/TRIGGER*
X123200000Y-119800000D02*
X127200000Y-115800000D01*
X127200000Y-115800000D02*
X127200000Y-114750000D01*
X110875000Y-119800000D02*
X123200000Y-119800000D01*
X110225000Y-120450000D02*
X110875000Y-119800000D01*
G04 #@! TO.N,/FOCUS*
X126500000Y-114750000D02*
X126500000Y-115800000D01*
X108225000Y-117800000D02*
X106225000Y-119800000D01*
X106225000Y-119800000D02*
X106225000Y-120450000D01*
X114100000Y-117800000D02*
X108225000Y-117800000D01*
X124500000Y-117800000D02*
X125200000Y-117100000D01*
X114100000Y-117800000D02*
X124500000Y-117800000D01*
X126500000Y-115800000D02*
X125200000Y-117100000D01*
G04 #@! TO.N,/SWDIO*
X134200000Y-114750000D02*
X134200000Y-120900000D01*
X131010000Y-125800000D02*
X131030000Y-125820000D01*
G04 #@! TO.N,/SWDCLK*
X133500000Y-119975000D02*
X133475000Y-120000000D01*
X133500000Y-114750000D02*
X133500000Y-119975000D01*
X130970000Y-128300000D02*
X131030000Y-128360000D01*
G04 #@! TO.N,/RESET*
X132800000Y-119175000D02*
X132775000Y-119200000D01*
X132800000Y-114750000D02*
X132800000Y-119175000D01*
G04 #@! TO.N,/GPIO2*
X130700000Y-116655154D02*
X130675000Y-116680154D01*
X130700000Y-114750000D02*
X130700000Y-116655154D01*
X130970000Y-133500000D02*
X131030000Y-133440000D01*
G04 #@! TO.N,/RX*
X132330000Y-132200000D02*
X133570000Y-133440000D01*
X130000000Y-132200000D02*
X132330000Y-132200000D01*
X130000000Y-114750000D02*
X130000000Y-115800000D01*
X129000000Y-131200000D02*
X130000000Y-132200000D01*
X130000000Y-115800000D02*
X129000000Y-116800000D01*
X129000000Y-116800000D02*
X129000000Y-131200000D01*
G04 #@! TO.N,/GPIO1*
X131400000Y-114750000D02*
X131400000Y-117375000D01*
X131400000Y-117375000D02*
X131375000Y-117400000D01*
G04 #@! TO.N,/TX*
X132100000Y-118175000D02*
X132075000Y-118200000D01*
X132100000Y-114750000D02*
X132100000Y-118175000D01*
X133590000Y-125800000D02*
X133570000Y-125820000D01*
G04 #@! TO.N,/LED_GREEN*
X104975000Y-138350000D02*
X104900000Y-138425000D01*
X107500000Y-138350000D02*
X104975000Y-138350000D01*
X132800000Y-103200000D02*
X135000000Y-101000000D01*
X132800000Y-105250000D02*
X132800000Y-103200000D01*
X104875000Y-138400000D02*
X104900000Y-138425000D01*
X103500000Y-138400000D02*
X104875000Y-138400000D01*
G04 #@! TO.N,Net-(Q2-Pad3)*
X112125000Y-139300000D02*
X110500000Y-139300000D01*
X113000000Y-140175000D02*
X112125000Y-139300000D01*
G04 #@! TO.N,Net-(Q3-Pad3)*
X112125000Y-134900000D02*
X110500000Y-134900000D01*
X113000000Y-135775000D02*
X112125000Y-134900000D01*
G04 #@! TO.N,/LED_RED*
X104975000Y-133950000D02*
X104900000Y-134025000D01*
X107500000Y-133950000D02*
X104975000Y-133950000D01*
X129300000Y-115863590D02*
X129300000Y-114750000D01*
X128200000Y-116963590D02*
X129300000Y-115863590D01*
X110150000Y-132500000D02*
X126900000Y-132500000D01*
X108700000Y-133950000D02*
X110150000Y-132500000D01*
X128200000Y-131200000D02*
X128200000Y-116963590D01*
X126900000Y-132500000D02*
X128200000Y-131200000D01*
X107500000Y-133950000D02*
X108700000Y-133950000D01*
X106000000Y-132300000D02*
X106434315Y-132300000D01*
X104900000Y-133400000D02*
X106000000Y-132300000D01*
X106434315Y-132300000D02*
X107000000Y-132300000D01*
X104900000Y-134025000D02*
X104900000Y-133400000D01*
X132100000Y-105250000D02*
X132100000Y-102700000D01*
X132100000Y-102700000D02*
X133800000Y-101000000D01*
G04 #@! TO.N,/RX_EN*
X112275000Y-97575000D02*
X112900000Y-96950000D01*
X112275000Y-99200000D02*
X112275000Y-97575000D01*
X114700000Y-111400000D02*
X112275000Y-108975000D01*
X112275000Y-108975000D02*
X112275000Y-99200000D01*
X124250000Y-111400000D02*
X114700000Y-111400000D01*
G04 #@! TO.N,/BUTTON*
X120875000Y-123725000D02*
X120875000Y-128600000D01*
X123200000Y-121400000D02*
X120875000Y-123725000D01*
X118114213Y-121400000D02*
X123200000Y-121400000D01*
X116700000Y-121400000D02*
X118114213Y-121400000D01*
X117300000Y-112100000D02*
X116700000Y-112700000D01*
X124250000Y-112100000D02*
X117300000Y-112100000D01*
G04 #@! TO.N,/RX_OUT*
X121225000Y-110700000D02*
X121200000Y-110675000D01*
X124250000Y-110700000D02*
X121225000Y-110700000D01*
X119200000Y-96450000D02*
X119200000Y-101159315D01*
X119200000Y-101159315D02*
X119200000Y-101725000D01*
X117500000Y-94750000D02*
X119200000Y-96450000D01*
X117500000Y-93600000D02*
X117500000Y-94750000D01*
G04 #@! TO.N,/LFCLK_XL2*
X121200000Y-107200000D02*
X120500000Y-107900000D01*
X124250000Y-107200000D02*
X121200000Y-107200000D01*
X120500000Y-109600000D02*
X120100000Y-110000000D01*
X120100000Y-110000000D02*
X118875000Y-110000000D01*
X120500000Y-107900000D02*
X120500000Y-109600000D01*
G04 #@! TO.N,/LFCLK_XL1*
X120999999Y-106499999D02*
X120500000Y-106000000D01*
X124250000Y-106500000D02*
X120999999Y-106499999D01*
X118875000Y-103900000D02*
X120200000Y-103900000D01*
X120500000Y-104200000D02*
X120500000Y-106000000D01*
X120200000Y-103900000D02*
X120500000Y-104200000D01*
G04 #@! TO.N,/DCC*
X127200000Y-105250000D02*
X127200000Y-100975000D01*
G04 #@! TO.N,/DEC4*
X129000928Y-101474072D02*
X129500000Y-100975000D01*
X127900000Y-102575000D02*
X129000928Y-101474072D01*
X127900000Y-105250000D02*
X127900000Y-102575000D01*
X129500000Y-100975000D02*
X131700000Y-100975000D01*
G04 #@! TO.N,Net-(L1-Pad2)*
X127200000Y-99225000D02*
X129500000Y-99225000D01*
G04 #@! TO.N,Net-(Q4-Pad1)*
X129550000Y-88100000D02*
X129600000Y-88150000D01*
X126875000Y-88100000D02*
X129550000Y-88100000D01*
G04 #@! TO.N,Net-(Q5-Pad3)*
X110525000Y-95375000D02*
X109900000Y-96000000D01*
X110525000Y-92900000D02*
X110525000Y-95375000D01*
X110525000Y-91775000D02*
X110525000Y-92900000D01*
X120040000Y-93600000D02*
X120040000Y-92327208D01*
X120040000Y-92327208D02*
X118812792Y-91100000D01*
X118812792Y-91100000D02*
X111200000Y-91100000D01*
X111200000Y-91100000D02*
X110525000Y-91775000D01*
G04 #@! TO.N,/RX_UARTRX*
X133125000Y-89100000D02*
X134000000Y-89975000D01*
X131600000Y-89100000D02*
X133125000Y-89100000D01*
X126300000Y-118100000D02*
X126200000Y-118100000D01*
X128600000Y-115800000D02*
X126300000Y-118100000D01*
X128600000Y-114750000D02*
X128600000Y-115800000D01*
X118000000Y-101725000D02*
X118000000Y-98100000D01*
X131600000Y-91200000D02*
X131600000Y-89100000D01*
G04 #@! TD*
D30*
G04 #@! TO.N,GND*
G36*
X136073000Y-81339592D02*
X136047929Y-81302071D01*
X135984473Y-81259671D01*
X132140331Y-77415530D01*
X132097929Y-77352071D01*
X131846537Y-77184096D01*
X131624852Y-77140000D01*
X131624847Y-77140000D01*
X131550000Y-77125112D01*
X131475153Y-77140000D01*
X128895451Y-77140000D01*
X128791066Y-76615223D01*
X128488139Y-76161861D01*
X128034777Y-75858934D01*
X127500000Y-75752560D01*
X125000000Y-75752560D01*
X124465223Y-75858934D01*
X124011861Y-76161861D01*
X123708934Y-76615223D01*
X123602560Y-77150000D01*
X123602560Y-78650000D01*
X123708934Y-79184777D01*
X124011861Y-79638139D01*
X124465223Y-79941066D01*
X125000000Y-80047440D01*
X127500000Y-80047440D01*
X128034777Y-79941066D01*
X128488139Y-79638139D01*
X128791066Y-79184777D01*
X128895451Y-78660000D01*
X131235199Y-78660000D01*
X133090198Y-80515000D01*
X132785750Y-80515000D01*
X132627000Y-80673750D01*
X132627000Y-81423000D01*
X133926250Y-81423000D01*
X133962224Y-81387026D01*
X134167242Y-81592043D01*
X134092191Y-81642191D01*
X134011781Y-81762531D01*
X133926250Y-81677000D01*
X132627000Y-81677000D01*
X132627000Y-81697000D01*
X132373000Y-81697000D01*
X132373000Y-81677000D01*
X131073750Y-81677000D01*
X130915000Y-81835750D01*
X130915000Y-82076310D01*
X131011673Y-82309699D01*
X131190302Y-82488327D01*
X131225694Y-82502987D01*
X131092191Y-82592191D01*
X131026837Y-82690000D01*
X130415757Y-82690000D01*
X130342565Y-82580460D01*
X130413327Y-82509698D01*
X130510000Y-82276309D01*
X130510000Y-81910750D01*
X130351250Y-81752000D01*
X129527000Y-81752000D01*
X129527000Y-81772000D01*
X129273000Y-81772000D01*
X129273000Y-81752000D01*
X128448750Y-81752000D01*
X128290000Y-81910750D01*
X128290000Y-82276309D01*
X128386673Y-82509698D01*
X128457435Y-82580460D01*
X128344922Y-82748848D01*
X128341709Y-82765000D01*
X127417946Y-82765000D01*
X127284586Y-82565414D01*
X127283403Y-82564623D01*
X127438327Y-82409698D01*
X127535000Y-82176309D01*
X127535000Y-81760750D01*
X127376250Y-81602000D01*
X126327000Y-81602000D01*
X126327000Y-81622000D01*
X126073000Y-81622000D01*
X126073000Y-81602000D01*
X125023750Y-81602000D01*
X124865000Y-81760750D01*
X124865000Y-82176309D01*
X124961673Y-82409698D01*
X125116597Y-82564623D01*
X125115414Y-82565414D01*
X124920873Y-82856564D01*
X124852560Y-83199999D01*
X124852560Y-83850001D01*
X124920873Y-84193436D01*
X125115414Y-84484586D01*
X125406564Y-84679127D01*
X125749999Y-84747440D01*
X126650001Y-84747440D01*
X126993436Y-84679127D01*
X127284586Y-84484586D01*
X127417946Y-84285000D01*
X128534583Y-84285000D01*
X128536753Y-84288247D01*
X128823848Y-84480078D01*
X129162500Y-84547440D01*
X129497638Y-84547440D01*
X129840000Y-84889802D01*
X129840001Y-87102560D01*
X129150000Y-87102560D01*
X128902235Y-87151843D01*
X128692191Y-87292191D01*
X128660246Y-87340000D01*
X127857235Y-87340000D01*
X127788247Y-87236753D01*
X127501152Y-87044922D01*
X127162500Y-86977560D01*
X126587500Y-86977560D01*
X126248848Y-87044922D01*
X126000000Y-87211197D01*
X125751152Y-87044922D01*
X125412500Y-86977560D01*
X125077362Y-86977560D01*
X122147241Y-84047440D01*
X122200000Y-84047440D01*
X122447765Y-83998157D01*
X122657809Y-83857809D01*
X122798157Y-83647765D01*
X122847440Y-83400000D01*
X122847440Y-81600000D01*
X122798157Y-81352235D01*
X122657809Y-81142191D01*
X122447765Y-81001843D01*
X122200000Y-80952560D01*
X120400000Y-80952560D01*
X120152235Y-81001843D01*
X119942191Y-81142191D01*
X119809942Y-81340114D01*
X119775110Y-81305282D01*
X119660553Y-81419839D01*
X119574148Y-81163357D01*
X119000664Y-80953542D01*
X118390540Y-80979161D01*
X117945852Y-81163357D01*
X117859446Y-81419841D01*
X118760000Y-82320395D01*
X118774143Y-82306253D01*
X118953748Y-82485858D01*
X118939605Y-82500000D01*
X118953748Y-82514143D01*
X118774143Y-82693748D01*
X118760000Y-82679605D01*
X117859446Y-83580159D01*
X117945852Y-83836643D01*
X118519336Y-84046458D01*
X119129460Y-84020839D01*
X119574148Y-83836643D01*
X119660553Y-83580161D01*
X119775110Y-83694718D01*
X119809942Y-83659886D01*
X119942191Y-83857809D01*
X120152235Y-83998157D01*
X120400000Y-84047440D01*
X120540001Y-84047440D01*
X120540001Y-84200148D01*
X120525112Y-84275000D01*
X120584097Y-84571537D01*
X120701632Y-84747440D01*
X120752072Y-84822929D01*
X120815528Y-84865329D01*
X123952560Y-88002362D01*
X123952560Y-88337500D01*
X124019922Y-88676152D01*
X124211753Y-88963247D01*
X124365001Y-89065644D01*
X124365000Y-89134356D01*
X124211753Y-89236753D01*
X124019922Y-89523848D01*
X123952560Y-89862500D01*
X123952560Y-90337500D01*
X124019922Y-90676152D01*
X124180196Y-90916018D01*
X124065000Y-91194126D01*
X124065000Y-91605874D01*
X124222569Y-91986280D01*
X124367245Y-92130956D01*
X123824509Y-92673692D01*
X123449507Y-92298690D01*
X123340000Y-92253331D01*
X123340000Y-91254846D01*
X123354888Y-91179999D01*
X123340000Y-91105152D01*
X123340000Y-91105148D01*
X123295904Y-90883463D01*
X123127929Y-90632071D01*
X123064473Y-90589671D01*
X121990331Y-89515530D01*
X121947929Y-89452071D01*
X121696537Y-89284096D01*
X121474852Y-89240000D01*
X121474847Y-89240000D01*
X121400000Y-89225112D01*
X121325153Y-89240000D01*
X105874847Y-89240000D01*
X105800000Y-89225112D01*
X105725153Y-89240000D01*
X105725148Y-89240000D01*
X105503463Y-89284096D01*
X105252071Y-89452071D01*
X105209671Y-89515527D01*
X104215528Y-90509671D01*
X104152072Y-90552071D01*
X104109672Y-90615527D01*
X104109671Y-90615528D01*
X103984097Y-90803463D01*
X103925112Y-91100000D01*
X103940001Y-91174852D01*
X103940000Y-118565000D01*
X103510750Y-118565000D01*
X103352000Y-118723750D01*
X103352000Y-120323000D01*
X103372000Y-120323000D01*
X103372000Y-120577000D01*
X103352000Y-120577000D01*
X103352000Y-122176250D01*
X103510750Y-122335000D01*
X103940000Y-122335000D01*
X103940000Y-130025153D01*
X103925112Y-130100000D01*
X103940000Y-130174847D01*
X103940000Y-130174851D01*
X103984096Y-130396536D01*
X104152071Y-130647929D01*
X104215530Y-130690331D01*
X105109671Y-131584473D01*
X105152071Y-131647929D01*
X105403463Y-131815904D01*
X105408327Y-131816871D01*
X104415528Y-132809671D01*
X104352072Y-132852071D01*
X104292932Y-132940579D01*
X104036753Y-133111753D01*
X103844922Y-133398848D01*
X103777560Y-133737500D01*
X103777560Y-134312500D01*
X103844922Y-134651152D01*
X103957435Y-134819540D01*
X103886673Y-134890302D01*
X103790000Y-135123691D01*
X103790000Y-135489250D01*
X103948750Y-135648000D01*
X104773000Y-135648000D01*
X104773000Y-135628000D01*
X105027000Y-135628000D01*
X105027000Y-135648000D01*
X105851250Y-135648000D01*
X105925000Y-135574250D01*
X106073750Y-135723000D01*
X107373000Y-135723000D01*
X107373000Y-135703000D01*
X107627000Y-135703000D01*
X107627000Y-135723000D01*
X108926250Y-135723000D01*
X109011781Y-135637469D01*
X109092191Y-135757809D01*
X109302235Y-135898157D01*
X109550000Y-135947440D01*
X111450000Y-135947440D01*
X111697765Y-135898157D01*
X111877560Y-135778021D01*
X111877560Y-136062500D01*
X111944922Y-136401152D01*
X112136753Y-136688247D01*
X112423848Y-136880078D01*
X112762500Y-136947440D01*
X113237500Y-136947440D01*
X113516811Y-136891882D01*
X113277071Y-137052071D01*
X113234671Y-137115527D01*
X113097638Y-137252560D01*
X112762500Y-137252560D01*
X112423848Y-137319922D01*
X112136753Y-137511753D01*
X111944922Y-137798848D01*
X111877560Y-138137500D01*
X111877560Y-138421979D01*
X111697765Y-138301843D01*
X111450000Y-138252560D01*
X109550000Y-138252560D01*
X109302235Y-138301843D01*
X109097440Y-138438684D01*
X109097440Y-137950000D01*
X109048157Y-137702235D01*
X108907809Y-137492191D01*
X108697765Y-137351843D01*
X108450000Y-137302560D01*
X106550000Y-137302560D01*
X106302235Y-137351843D01*
X106092191Y-137492191D01*
X106026837Y-137590000D01*
X105815530Y-137590000D01*
X105763247Y-137511753D01*
X105476152Y-137319922D01*
X105137500Y-137252560D01*
X104662500Y-137252560D01*
X104323848Y-137319922D01*
X104045713Y-137505766D01*
X103705874Y-137365000D01*
X103294126Y-137365000D01*
X102913720Y-137522569D01*
X102622569Y-137813720D01*
X102465000Y-138194126D01*
X102465000Y-138605874D01*
X102622569Y-138986280D01*
X102913720Y-139277431D01*
X103294126Y-139435000D01*
X103705874Y-139435000D01*
X103851769Y-139374569D01*
X103790000Y-139523691D01*
X103790000Y-139889250D01*
X103948750Y-140048000D01*
X104773000Y-140048000D01*
X104773000Y-140028000D01*
X105027000Y-140028000D01*
X105027000Y-140048000D01*
X105851250Y-140048000D01*
X105925000Y-139974250D01*
X106073750Y-140123000D01*
X107373000Y-140123000D01*
X107373000Y-140103000D01*
X107627000Y-140103000D01*
X107627000Y-140123000D01*
X108926250Y-140123000D01*
X109011781Y-140037469D01*
X109092191Y-140157809D01*
X109302235Y-140298157D01*
X109550000Y-140347440D01*
X111450000Y-140347440D01*
X111697765Y-140298157D01*
X111877560Y-140178021D01*
X111877560Y-140462500D01*
X111944922Y-140801152D01*
X112136753Y-141088247D01*
X112423848Y-141280078D01*
X112762500Y-141347440D01*
X113237500Y-141347440D01*
X113576152Y-141280078D01*
X113863247Y-141088247D01*
X114055078Y-140801152D01*
X114122440Y-140462500D01*
X114122440Y-139887500D01*
X114055078Y-139548848D01*
X113888803Y-139300000D01*
X114055078Y-139051152D01*
X114122440Y-138712500D01*
X114122440Y-138377362D01*
X114139802Y-138360000D01*
X117076837Y-138360000D01*
X117142191Y-138457809D01*
X117352235Y-138598157D01*
X117600000Y-138647440D01*
X119200000Y-138647440D01*
X119447765Y-138598157D01*
X119657809Y-138457809D01*
X119798157Y-138247765D01*
X119847440Y-138000000D01*
X119847440Y-137200000D01*
X119798157Y-136952235D01*
X119763254Y-136900000D01*
X119798157Y-136847765D01*
X119847440Y-136600000D01*
X119847440Y-135800000D01*
X120152560Y-135800000D01*
X120152560Y-136600000D01*
X120201843Y-136847765D01*
X120236746Y-136900000D01*
X120201843Y-136952235D01*
X120152560Y-137200000D01*
X120152560Y-138000000D01*
X120201843Y-138247765D01*
X120342191Y-138457809D01*
X120552235Y-138598157D01*
X120800000Y-138647440D01*
X122400000Y-138647440D01*
X122647765Y-138598157D01*
X122857809Y-138457809D01*
X122998157Y-138247765D01*
X123047440Y-138000000D01*
X123047440Y-137200000D01*
X122998157Y-136952235D01*
X122963254Y-136900000D01*
X122998157Y-136847765D01*
X123047440Y-136600000D01*
X123047440Y-135800000D01*
X122998157Y-135552235D01*
X122857809Y-135342191D01*
X122647765Y-135201843D01*
X122484441Y-135169356D01*
X122635000Y-134805874D01*
X122635000Y-134394126D01*
X122477431Y-134013720D01*
X122186280Y-133722569D01*
X121805874Y-133565000D01*
X121394126Y-133565000D01*
X121013720Y-133722569D01*
X120722569Y-134013720D01*
X120565000Y-134394126D01*
X120565000Y-134805874D01*
X120715559Y-135169356D01*
X120552235Y-135201843D01*
X120342191Y-135342191D01*
X120201843Y-135552235D01*
X120152560Y-135800000D01*
X119847440Y-135800000D01*
X119798157Y-135552235D01*
X119657809Y-135342191D01*
X119447765Y-135201843D01*
X119200000Y-135152560D01*
X117600000Y-135152560D01*
X117352235Y-135201843D01*
X117142191Y-135342191D01*
X117076837Y-135440000D01*
X115489803Y-135440000D01*
X114122440Y-134072638D01*
X114122440Y-133737500D01*
X114055078Y-133398848D01*
X113962303Y-133260000D01*
X126825153Y-133260000D01*
X126900000Y-133274888D01*
X126974847Y-133260000D01*
X126974852Y-133260000D01*
X127196537Y-133215904D01*
X127447929Y-133047929D01*
X127490331Y-132984470D01*
X128600000Y-131874802D01*
X129409670Y-132684472D01*
X129452071Y-132747929D01*
X129695938Y-132910876D01*
X129595000Y-133154561D01*
X129595000Y-133725439D01*
X129813466Y-134252862D01*
X130217138Y-134656534D01*
X130346216Y-134710000D01*
X130217138Y-134763466D01*
X129813466Y-135167138D01*
X129595000Y-135694561D01*
X129595000Y-136265439D01*
X129813466Y-136792862D01*
X130217138Y-137196534D01*
X130346216Y-137250000D01*
X130217138Y-137303466D01*
X129813466Y-137707138D01*
X129595000Y-138234561D01*
X129595000Y-138805439D01*
X129813466Y-139332862D01*
X130217138Y-139736534D01*
X130744561Y-139955000D01*
X131315439Y-139955000D01*
X131842862Y-139736534D01*
X132246534Y-139332862D01*
X132465000Y-138805439D01*
X132465000Y-138234561D01*
X132246534Y-137707138D01*
X131842862Y-137303466D01*
X131713784Y-137250000D01*
X131842862Y-137196534D01*
X132246534Y-136792862D01*
X132300000Y-136663784D01*
X132353466Y-136792862D01*
X132757138Y-137196534D01*
X133284561Y-137415000D01*
X133855439Y-137415000D01*
X134382862Y-137196534D01*
X134786534Y-136792862D01*
X135005000Y-136265439D01*
X135005000Y-135694561D01*
X134786534Y-135167138D01*
X134382862Y-134763466D01*
X134253784Y-134710000D01*
X134382862Y-134656534D01*
X134786534Y-134252862D01*
X135005000Y-133725439D01*
X135005000Y-133154561D01*
X134786534Y-132627138D01*
X134382862Y-132223466D01*
X134253784Y-132170000D01*
X134382862Y-132116534D01*
X134786534Y-131712862D01*
X135005000Y-131185439D01*
X135005000Y-130614561D01*
X134786534Y-130087138D01*
X134382862Y-129683466D01*
X134253784Y-129630000D01*
X134382862Y-129576534D01*
X134786534Y-129172862D01*
X135005000Y-128645439D01*
X135005000Y-128074561D01*
X134786534Y-127547138D01*
X134382862Y-127143466D01*
X134253784Y-127090000D01*
X134382862Y-127036534D01*
X134786534Y-126632862D01*
X135005000Y-126105439D01*
X135005000Y-125534561D01*
X134786534Y-125007138D01*
X134382862Y-124603466D01*
X134253784Y-124550000D01*
X134382862Y-124496534D01*
X134786534Y-124092862D01*
X135005000Y-123565439D01*
X135005000Y-122994561D01*
X134786534Y-122467138D01*
X134382862Y-122063466D01*
X134072718Y-121935000D01*
X134405874Y-121935000D01*
X134786280Y-121777431D01*
X135077431Y-121486280D01*
X135235000Y-121105874D01*
X135235000Y-120694126D01*
X135077431Y-120313720D01*
X134960000Y-120196289D01*
X134960000Y-116197440D01*
X135150000Y-116197440D01*
X135220073Y-116183502D01*
X135223690Y-116185000D01*
X135514250Y-116185000D01*
X135673000Y-116026250D01*
X135673000Y-115910245D01*
X135748157Y-115797765D01*
X135797440Y-115550000D01*
X135797440Y-114603000D01*
X135927000Y-114603000D01*
X135927000Y-114623000D01*
X135947000Y-114623000D01*
X135947000Y-114877000D01*
X135927000Y-114877000D01*
X135927000Y-116026250D01*
X136073000Y-116172250D01*
X136073000Y-149290000D01*
X100710000Y-149290000D01*
X100710000Y-144575322D01*
X117865000Y-144575322D01*
X117865000Y-145424678D01*
X118190034Y-146209380D01*
X118790620Y-146809966D01*
X119575322Y-147135000D01*
X120424678Y-147135000D01*
X121209380Y-146809966D01*
X121809966Y-146209380D01*
X122135000Y-145424678D01*
X122135000Y-144575322D01*
X121809966Y-143790620D01*
X121209380Y-143190034D01*
X120424678Y-142865000D01*
X119575322Y-142865000D01*
X118790620Y-143190034D01*
X118190034Y-143790620D01*
X117865000Y-144575322D01*
X100710000Y-144575322D01*
X100710000Y-140460750D01*
X103790000Y-140460750D01*
X103790000Y-140826309D01*
X103886673Y-141059698D01*
X104065301Y-141238327D01*
X104298690Y-141335000D01*
X104614250Y-141335000D01*
X104773000Y-141176250D01*
X104773000Y-140302000D01*
X105027000Y-140302000D01*
X105027000Y-141176250D01*
X105185750Y-141335000D01*
X105501310Y-141335000D01*
X105734699Y-141238327D01*
X105913327Y-141059698D01*
X105972855Y-140915985D01*
X106011673Y-141009699D01*
X106190302Y-141188327D01*
X106423691Y-141285000D01*
X107214250Y-141285000D01*
X107373000Y-141126250D01*
X107373000Y-140377000D01*
X107627000Y-140377000D01*
X107627000Y-141126250D01*
X107785750Y-141285000D01*
X108576309Y-141285000D01*
X108809698Y-141188327D01*
X108988327Y-141009699D01*
X109085000Y-140776310D01*
X109085000Y-140535750D01*
X108926250Y-140377000D01*
X107627000Y-140377000D01*
X107373000Y-140377000D01*
X106073750Y-140377000D01*
X106000000Y-140450750D01*
X105851250Y-140302000D01*
X105027000Y-140302000D01*
X104773000Y-140302000D01*
X103948750Y-140302000D01*
X103790000Y-140460750D01*
X100710000Y-140460750D01*
X100710000Y-136060750D01*
X103790000Y-136060750D01*
X103790000Y-136426309D01*
X103886673Y-136659698D01*
X104065301Y-136838327D01*
X104298690Y-136935000D01*
X104614250Y-136935000D01*
X104773000Y-136776250D01*
X104773000Y-135902000D01*
X105027000Y-135902000D01*
X105027000Y-136776250D01*
X105185750Y-136935000D01*
X105501310Y-136935000D01*
X105734699Y-136838327D01*
X105913327Y-136659698D01*
X105972855Y-136515985D01*
X106011673Y-136609699D01*
X106190302Y-136788327D01*
X106423691Y-136885000D01*
X107214250Y-136885000D01*
X107373000Y-136726250D01*
X107373000Y-135977000D01*
X107627000Y-135977000D01*
X107627000Y-136726250D01*
X107785750Y-136885000D01*
X108576309Y-136885000D01*
X108809698Y-136788327D01*
X108988327Y-136609699D01*
X109085000Y-136376310D01*
X109085000Y-136135750D01*
X108926250Y-135977000D01*
X107627000Y-135977000D01*
X107373000Y-135977000D01*
X106073750Y-135977000D01*
X106000000Y-136050750D01*
X105851250Y-135902000D01*
X105027000Y-135902000D01*
X104773000Y-135902000D01*
X103948750Y-135902000D01*
X103790000Y-136060750D01*
X100710000Y-136060750D01*
X100710000Y-124743687D01*
X100840460Y-124874147D01*
X101349506Y-125085000D01*
X101900494Y-125085000D01*
X102409540Y-124874147D01*
X102799147Y-124484540D01*
X103010000Y-123975494D01*
X103010000Y-123424506D01*
X102799147Y-122915460D01*
X102409540Y-122525853D01*
X101900494Y-122315000D01*
X101349506Y-122315000D01*
X100840460Y-122525853D01*
X100710000Y-122656313D01*
X100710000Y-120735750D01*
X101990000Y-120735750D01*
X101990000Y-121826310D01*
X102086673Y-122059699D01*
X102265302Y-122238327D01*
X102498691Y-122335000D01*
X102939250Y-122335000D01*
X103098000Y-122176250D01*
X103098000Y-120577000D01*
X102148750Y-120577000D01*
X101990000Y-120735750D01*
X100710000Y-120735750D01*
X100710000Y-119073690D01*
X101990000Y-119073690D01*
X101990000Y-120164250D01*
X102148750Y-120323000D01*
X103098000Y-120323000D01*
X103098000Y-118723750D01*
X102939250Y-118565000D01*
X102498691Y-118565000D01*
X102265302Y-118661673D01*
X102086673Y-118840301D01*
X101990000Y-119073690D01*
X100710000Y-119073690D01*
X100710000Y-82259336D01*
X117213542Y-82259336D01*
X117239161Y-82869460D01*
X117423357Y-83314148D01*
X117679841Y-83400554D01*
X118580395Y-82500000D01*
X117679841Y-81599446D01*
X117423357Y-81685852D01*
X117213542Y-82259336D01*
X100710000Y-82259336D01*
X100710000Y-80773691D01*
X124865000Y-80773691D01*
X124865000Y-81189250D01*
X125023750Y-81348000D01*
X126073000Y-81348000D01*
X126073000Y-80423750D01*
X126327000Y-80423750D01*
X126327000Y-81348000D01*
X127376250Y-81348000D01*
X127535000Y-81189250D01*
X127535000Y-80973691D01*
X128290000Y-80973691D01*
X128290000Y-81339250D01*
X128448750Y-81498000D01*
X129273000Y-81498000D01*
X129273000Y-80623750D01*
X129527000Y-80623750D01*
X129527000Y-81498000D01*
X130351250Y-81498000D01*
X130510000Y-81339250D01*
X130510000Y-81023690D01*
X130915000Y-81023690D01*
X130915000Y-81264250D01*
X131073750Y-81423000D01*
X132373000Y-81423000D01*
X132373000Y-80673750D01*
X132214250Y-80515000D01*
X131423691Y-80515000D01*
X131190302Y-80611673D01*
X131011673Y-80790301D01*
X130915000Y-81023690D01*
X130510000Y-81023690D01*
X130510000Y-80973691D01*
X130413327Y-80740302D01*
X130234699Y-80561673D01*
X130001310Y-80465000D01*
X129685750Y-80465000D01*
X129527000Y-80623750D01*
X129273000Y-80623750D01*
X129114250Y-80465000D01*
X128798690Y-80465000D01*
X128565301Y-80561673D01*
X128386673Y-80740302D01*
X128290000Y-80973691D01*
X127535000Y-80973691D01*
X127535000Y-80773691D01*
X127438327Y-80540302D01*
X127259699Y-80361673D01*
X127026310Y-80265000D01*
X126485750Y-80265000D01*
X126327000Y-80423750D01*
X126073000Y-80423750D01*
X125914250Y-80265000D01*
X125373690Y-80265000D01*
X125140301Y-80361673D01*
X124961673Y-80540302D01*
X124865000Y-80773691D01*
X100710000Y-80773691D01*
X100710000Y-78185750D01*
X111115000Y-78185750D01*
X111115000Y-79526309D01*
X111211673Y-79759698D01*
X111390301Y-79938327D01*
X111623690Y-80035000D01*
X113464250Y-80035000D01*
X113623000Y-79876250D01*
X113623000Y-78027000D01*
X113877000Y-78027000D01*
X113877000Y-79876250D01*
X114035750Y-80035000D01*
X115876310Y-80035000D01*
X116109699Y-79938327D01*
X116288327Y-79759698D01*
X116385000Y-79526309D01*
X116385000Y-78185750D01*
X116226250Y-78027000D01*
X113877000Y-78027000D01*
X113623000Y-78027000D01*
X111273750Y-78027000D01*
X111115000Y-78185750D01*
X100710000Y-78185750D01*
X100710000Y-76273691D01*
X111115000Y-76273691D01*
X111115000Y-77614250D01*
X111273750Y-77773000D01*
X113623000Y-77773000D01*
X113623000Y-75923750D01*
X113877000Y-75923750D01*
X113877000Y-77773000D01*
X116226250Y-77773000D01*
X116385000Y-77614250D01*
X116385000Y-76273691D01*
X116288327Y-76040302D01*
X116109699Y-75861673D01*
X115876310Y-75765000D01*
X114035750Y-75765000D01*
X113877000Y-75923750D01*
X113623000Y-75923750D01*
X113464250Y-75765000D01*
X111623690Y-75765000D01*
X111390301Y-75861673D01*
X111211673Y-76040302D01*
X111115000Y-76273691D01*
X100710000Y-76273691D01*
X100710000Y-74575322D01*
X117865000Y-74575322D01*
X117865000Y-75424678D01*
X118190034Y-76209380D01*
X118790620Y-76809966D01*
X119575322Y-77135000D01*
X120424678Y-77135000D01*
X121209380Y-76809966D01*
X121809966Y-76209380D01*
X122135000Y-75424678D01*
X122135000Y-74575322D01*
X121809966Y-73790620D01*
X121209380Y-73190034D01*
X120424678Y-72865000D01*
X119575322Y-72865000D01*
X118790620Y-73190034D01*
X118190034Y-73790620D01*
X117865000Y-74575322D01*
X100710000Y-74575322D01*
X100710000Y-70710000D01*
X136073000Y-70710000D01*
X136073000Y-81339592D01*
X136073000Y-81339592D01*
G37*
X136073000Y-81339592D02*
X136047929Y-81302071D01*
X135984473Y-81259671D01*
X132140331Y-77415530D01*
X132097929Y-77352071D01*
X131846537Y-77184096D01*
X131624852Y-77140000D01*
X131624847Y-77140000D01*
X131550000Y-77125112D01*
X131475153Y-77140000D01*
X128895451Y-77140000D01*
X128791066Y-76615223D01*
X128488139Y-76161861D01*
X128034777Y-75858934D01*
X127500000Y-75752560D01*
X125000000Y-75752560D01*
X124465223Y-75858934D01*
X124011861Y-76161861D01*
X123708934Y-76615223D01*
X123602560Y-77150000D01*
X123602560Y-78650000D01*
X123708934Y-79184777D01*
X124011861Y-79638139D01*
X124465223Y-79941066D01*
X125000000Y-80047440D01*
X127500000Y-80047440D01*
X128034777Y-79941066D01*
X128488139Y-79638139D01*
X128791066Y-79184777D01*
X128895451Y-78660000D01*
X131235199Y-78660000D01*
X133090198Y-80515000D01*
X132785750Y-80515000D01*
X132627000Y-80673750D01*
X132627000Y-81423000D01*
X133926250Y-81423000D01*
X133962224Y-81387026D01*
X134167242Y-81592043D01*
X134092191Y-81642191D01*
X134011781Y-81762531D01*
X133926250Y-81677000D01*
X132627000Y-81677000D01*
X132627000Y-81697000D01*
X132373000Y-81697000D01*
X132373000Y-81677000D01*
X131073750Y-81677000D01*
X130915000Y-81835750D01*
X130915000Y-82076310D01*
X131011673Y-82309699D01*
X131190302Y-82488327D01*
X131225694Y-82502987D01*
X131092191Y-82592191D01*
X131026837Y-82690000D01*
X130415757Y-82690000D01*
X130342565Y-82580460D01*
X130413327Y-82509698D01*
X130510000Y-82276309D01*
X130510000Y-81910750D01*
X130351250Y-81752000D01*
X129527000Y-81752000D01*
X129527000Y-81772000D01*
X129273000Y-81772000D01*
X129273000Y-81752000D01*
X128448750Y-81752000D01*
X128290000Y-81910750D01*
X128290000Y-82276309D01*
X128386673Y-82509698D01*
X128457435Y-82580460D01*
X128344922Y-82748848D01*
X128341709Y-82765000D01*
X127417946Y-82765000D01*
X127284586Y-82565414D01*
X127283403Y-82564623D01*
X127438327Y-82409698D01*
X127535000Y-82176309D01*
X127535000Y-81760750D01*
X127376250Y-81602000D01*
X126327000Y-81602000D01*
X126327000Y-81622000D01*
X126073000Y-81622000D01*
X126073000Y-81602000D01*
X125023750Y-81602000D01*
X124865000Y-81760750D01*
X124865000Y-82176309D01*
X124961673Y-82409698D01*
X125116597Y-82564623D01*
X125115414Y-82565414D01*
X124920873Y-82856564D01*
X124852560Y-83199999D01*
X124852560Y-83850001D01*
X124920873Y-84193436D01*
X125115414Y-84484586D01*
X125406564Y-84679127D01*
X125749999Y-84747440D01*
X126650001Y-84747440D01*
X126993436Y-84679127D01*
X127284586Y-84484586D01*
X127417946Y-84285000D01*
X128534583Y-84285000D01*
X128536753Y-84288247D01*
X128823848Y-84480078D01*
X129162500Y-84547440D01*
X129497638Y-84547440D01*
X129840000Y-84889802D01*
X129840001Y-87102560D01*
X129150000Y-87102560D01*
X128902235Y-87151843D01*
X128692191Y-87292191D01*
X128660246Y-87340000D01*
X127857235Y-87340000D01*
X127788247Y-87236753D01*
X127501152Y-87044922D01*
X127162500Y-86977560D01*
X126587500Y-86977560D01*
X126248848Y-87044922D01*
X126000000Y-87211197D01*
X125751152Y-87044922D01*
X125412500Y-86977560D01*
X125077362Y-86977560D01*
X122147241Y-84047440D01*
X122200000Y-84047440D01*
X122447765Y-83998157D01*
X122657809Y-83857809D01*
X122798157Y-83647765D01*
X122847440Y-83400000D01*
X122847440Y-81600000D01*
X122798157Y-81352235D01*
X122657809Y-81142191D01*
X122447765Y-81001843D01*
X122200000Y-80952560D01*
X120400000Y-80952560D01*
X120152235Y-81001843D01*
X119942191Y-81142191D01*
X119809942Y-81340114D01*
X119775110Y-81305282D01*
X119660553Y-81419839D01*
X119574148Y-81163357D01*
X119000664Y-80953542D01*
X118390540Y-80979161D01*
X117945852Y-81163357D01*
X117859446Y-81419841D01*
X118760000Y-82320395D01*
X118774143Y-82306253D01*
X118953748Y-82485858D01*
X118939605Y-82500000D01*
X118953748Y-82514143D01*
X118774143Y-82693748D01*
X118760000Y-82679605D01*
X117859446Y-83580159D01*
X117945852Y-83836643D01*
X118519336Y-84046458D01*
X119129460Y-84020839D01*
X119574148Y-83836643D01*
X119660553Y-83580161D01*
X119775110Y-83694718D01*
X119809942Y-83659886D01*
X119942191Y-83857809D01*
X120152235Y-83998157D01*
X120400000Y-84047440D01*
X120540001Y-84047440D01*
X120540001Y-84200148D01*
X120525112Y-84275000D01*
X120584097Y-84571537D01*
X120701632Y-84747440D01*
X120752072Y-84822929D01*
X120815528Y-84865329D01*
X123952560Y-88002362D01*
X123952560Y-88337500D01*
X124019922Y-88676152D01*
X124211753Y-88963247D01*
X124365001Y-89065644D01*
X124365000Y-89134356D01*
X124211753Y-89236753D01*
X124019922Y-89523848D01*
X123952560Y-89862500D01*
X123952560Y-90337500D01*
X124019922Y-90676152D01*
X124180196Y-90916018D01*
X124065000Y-91194126D01*
X124065000Y-91605874D01*
X124222569Y-91986280D01*
X124367245Y-92130956D01*
X123824509Y-92673692D01*
X123449507Y-92298690D01*
X123340000Y-92253331D01*
X123340000Y-91254846D01*
X123354888Y-91179999D01*
X123340000Y-91105152D01*
X123340000Y-91105148D01*
X123295904Y-90883463D01*
X123127929Y-90632071D01*
X123064473Y-90589671D01*
X121990331Y-89515530D01*
X121947929Y-89452071D01*
X121696537Y-89284096D01*
X121474852Y-89240000D01*
X121474847Y-89240000D01*
X121400000Y-89225112D01*
X121325153Y-89240000D01*
X105874847Y-89240000D01*
X105800000Y-89225112D01*
X105725153Y-89240000D01*
X105725148Y-89240000D01*
X105503463Y-89284096D01*
X105252071Y-89452071D01*
X105209671Y-89515527D01*
X104215528Y-90509671D01*
X104152072Y-90552071D01*
X104109672Y-90615527D01*
X104109671Y-90615528D01*
X103984097Y-90803463D01*
X103925112Y-91100000D01*
X103940001Y-91174852D01*
X103940000Y-118565000D01*
X103510750Y-118565000D01*
X103352000Y-118723750D01*
X103352000Y-120323000D01*
X103372000Y-120323000D01*
X103372000Y-120577000D01*
X103352000Y-120577000D01*
X103352000Y-122176250D01*
X103510750Y-122335000D01*
X103940000Y-122335000D01*
X103940000Y-130025153D01*
X103925112Y-130100000D01*
X103940000Y-130174847D01*
X103940000Y-130174851D01*
X103984096Y-130396536D01*
X104152071Y-130647929D01*
X104215530Y-130690331D01*
X105109671Y-131584473D01*
X105152071Y-131647929D01*
X105403463Y-131815904D01*
X105408327Y-131816871D01*
X104415528Y-132809671D01*
X104352072Y-132852071D01*
X104292932Y-132940579D01*
X104036753Y-133111753D01*
X103844922Y-133398848D01*
X103777560Y-133737500D01*
X103777560Y-134312500D01*
X103844922Y-134651152D01*
X103957435Y-134819540D01*
X103886673Y-134890302D01*
X103790000Y-135123691D01*
X103790000Y-135489250D01*
X103948750Y-135648000D01*
X104773000Y-135648000D01*
X104773000Y-135628000D01*
X105027000Y-135628000D01*
X105027000Y-135648000D01*
X105851250Y-135648000D01*
X105925000Y-135574250D01*
X106073750Y-135723000D01*
X107373000Y-135723000D01*
X107373000Y-135703000D01*
X107627000Y-135703000D01*
X107627000Y-135723000D01*
X108926250Y-135723000D01*
X109011781Y-135637469D01*
X109092191Y-135757809D01*
X109302235Y-135898157D01*
X109550000Y-135947440D01*
X111450000Y-135947440D01*
X111697765Y-135898157D01*
X111877560Y-135778021D01*
X111877560Y-136062500D01*
X111944922Y-136401152D01*
X112136753Y-136688247D01*
X112423848Y-136880078D01*
X112762500Y-136947440D01*
X113237500Y-136947440D01*
X113516811Y-136891882D01*
X113277071Y-137052071D01*
X113234671Y-137115527D01*
X113097638Y-137252560D01*
X112762500Y-137252560D01*
X112423848Y-137319922D01*
X112136753Y-137511753D01*
X111944922Y-137798848D01*
X111877560Y-138137500D01*
X111877560Y-138421979D01*
X111697765Y-138301843D01*
X111450000Y-138252560D01*
X109550000Y-138252560D01*
X109302235Y-138301843D01*
X109097440Y-138438684D01*
X109097440Y-137950000D01*
X109048157Y-137702235D01*
X108907809Y-137492191D01*
X108697765Y-137351843D01*
X108450000Y-137302560D01*
X106550000Y-137302560D01*
X106302235Y-137351843D01*
X106092191Y-137492191D01*
X106026837Y-137590000D01*
X105815530Y-137590000D01*
X105763247Y-137511753D01*
X105476152Y-137319922D01*
X105137500Y-137252560D01*
X104662500Y-137252560D01*
X104323848Y-137319922D01*
X104045713Y-137505766D01*
X103705874Y-137365000D01*
X103294126Y-137365000D01*
X102913720Y-137522569D01*
X102622569Y-137813720D01*
X102465000Y-138194126D01*
X102465000Y-138605874D01*
X102622569Y-138986280D01*
X102913720Y-139277431D01*
X103294126Y-139435000D01*
X103705874Y-139435000D01*
X103851769Y-139374569D01*
X103790000Y-139523691D01*
X103790000Y-139889250D01*
X103948750Y-140048000D01*
X104773000Y-140048000D01*
X104773000Y-140028000D01*
X105027000Y-140028000D01*
X105027000Y-140048000D01*
X105851250Y-140048000D01*
X105925000Y-139974250D01*
X106073750Y-140123000D01*
X107373000Y-140123000D01*
X107373000Y-140103000D01*
X107627000Y-140103000D01*
X107627000Y-140123000D01*
X108926250Y-140123000D01*
X109011781Y-140037469D01*
X109092191Y-140157809D01*
X109302235Y-140298157D01*
X109550000Y-140347440D01*
X111450000Y-140347440D01*
X111697765Y-140298157D01*
X111877560Y-140178021D01*
X111877560Y-140462500D01*
X111944922Y-140801152D01*
X112136753Y-141088247D01*
X112423848Y-141280078D01*
X112762500Y-141347440D01*
X113237500Y-141347440D01*
X113576152Y-141280078D01*
X113863247Y-141088247D01*
X114055078Y-140801152D01*
X114122440Y-140462500D01*
X114122440Y-139887500D01*
X114055078Y-139548848D01*
X113888803Y-139300000D01*
X114055078Y-139051152D01*
X114122440Y-138712500D01*
X114122440Y-138377362D01*
X114139802Y-138360000D01*
X117076837Y-138360000D01*
X117142191Y-138457809D01*
X117352235Y-138598157D01*
X117600000Y-138647440D01*
X119200000Y-138647440D01*
X119447765Y-138598157D01*
X119657809Y-138457809D01*
X119798157Y-138247765D01*
X119847440Y-138000000D01*
X119847440Y-137200000D01*
X119798157Y-136952235D01*
X119763254Y-136900000D01*
X119798157Y-136847765D01*
X119847440Y-136600000D01*
X119847440Y-135800000D01*
X120152560Y-135800000D01*
X120152560Y-136600000D01*
X120201843Y-136847765D01*
X120236746Y-136900000D01*
X120201843Y-136952235D01*
X120152560Y-137200000D01*
X120152560Y-138000000D01*
X120201843Y-138247765D01*
X120342191Y-138457809D01*
X120552235Y-138598157D01*
X120800000Y-138647440D01*
X122400000Y-138647440D01*
X122647765Y-138598157D01*
X122857809Y-138457809D01*
X122998157Y-138247765D01*
X123047440Y-138000000D01*
X123047440Y-137200000D01*
X122998157Y-136952235D01*
X122963254Y-136900000D01*
X122998157Y-136847765D01*
X123047440Y-136600000D01*
X123047440Y-135800000D01*
X122998157Y-135552235D01*
X122857809Y-135342191D01*
X122647765Y-135201843D01*
X122484441Y-135169356D01*
X122635000Y-134805874D01*
X122635000Y-134394126D01*
X122477431Y-134013720D01*
X122186280Y-133722569D01*
X121805874Y-133565000D01*
X121394126Y-133565000D01*
X121013720Y-133722569D01*
X120722569Y-134013720D01*
X120565000Y-134394126D01*
X120565000Y-134805874D01*
X120715559Y-135169356D01*
X120552235Y-135201843D01*
X120342191Y-135342191D01*
X120201843Y-135552235D01*
X120152560Y-135800000D01*
X119847440Y-135800000D01*
X119798157Y-135552235D01*
X119657809Y-135342191D01*
X119447765Y-135201843D01*
X119200000Y-135152560D01*
X117600000Y-135152560D01*
X117352235Y-135201843D01*
X117142191Y-135342191D01*
X117076837Y-135440000D01*
X115489803Y-135440000D01*
X114122440Y-134072638D01*
X114122440Y-133737500D01*
X114055078Y-133398848D01*
X113962303Y-133260000D01*
X126825153Y-133260000D01*
X126900000Y-133274888D01*
X126974847Y-133260000D01*
X126974852Y-133260000D01*
X127196537Y-133215904D01*
X127447929Y-133047929D01*
X127490331Y-132984470D01*
X128600000Y-131874802D01*
X129409670Y-132684472D01*
X129452071Y-132747929D01*
X129695938Y-132910876D01*
X129595000Y-133154561D01*
X129595000Y-133725439D01*
X129813466Y-134252862D01*
X130217138Y-134656534D01*
X130346216Y-134710000D01*
X130217138Y-134763466D01*
X129813466Y-135167138D01*
X129595000Y-135694561D01*
X129595000Y-136265439D01*
X129813466Y-136792862D01*
X130217138Y-137196534D01*
X130346216Y-137250000D01*
X130217138Y-137303466D01*
X129813466Y-137707138D01*
X129595000Y-138234561D01*
X129595000Y-138805439D01*
X129813466Y-139332862D01*
X130217138Y-139736534D01*
X130744561Y-139955000D01*
X131315439Y-139955000D01*
X131842862Y-139736534D01*
X132246534Y-139332862D01*
X132465000Y-138805439D01*
X132465000Y-138234561D01*
X132246534Y-137707138D01*
X131842862Y-137303466D01*
X131713784Y-137250000D01*
X131842862Y-137196534D01*
X132246534Y-136792862D01*
X132300000Y-136663784D01*
X132353466Y-136792862D01*
X132757138Y-137196534D01*
X133284561Y-137415000D01*
X133855439Y-137415000D01*
X134382862Y-137196534D01*
X134786534Y-136792862D01*
X135005000Y-136265439D01*
X135005000Y-135694561D01*
X134786534Y-135167138D01*
X134382862Y-134763466D01*
X134253784Y-134710000D01*
X134382862Y-134656534D01*
X134786534Y-134252862D01*
X135005000Y-133725439D01*
X135005000Y-133154561D01*
X134786534Y-132627138D01*
X134382862Y-132223466D01*
X134253784Y-132170000D01*
X134382862Y-132116534D01*
X134786534Y-131712862D01*
X135005000Y-131185439D01*
X135005000Y-130614561D01*
X134786534Y-130087138D01*
X134382862Y-129683466D01*
X134253784Y-129630000D01*
X134382862Y-129576534D01*
X134786534Y-129172862D01*
X135005000Y-128645439D01*
X135005000Y-128074561D01*
X134786534Y-127547138D01*
X134382862Y-127143466D01*
X134253784Y-127090000D01*
X134382862Y-127036534D01*
X134786534Y-126632862D01*
X135005000Y-126105439D01*
X135005000Y-125534561D01*
X134786534Y-125007138D01*
X134382862Y-124603466D01*
X134253784Y-124550000D01*
X134382862Y-124496534D01*
X134786534Y-124092862D01*
X135005000Y-123565439D01*
X135005000Y-122994561D01*
X134786534Y-122467138D01*
X134382862Y-122063466D01*
X134072718Y-121935000D01*
X134405874Y-121935000D01*
X134786280Y-121777431D01*
X135077431Y-121486280D01*
X135235000Y-121105874D01*
X135235000Y-120694126D01*
X135077431Y-120313720D01*
X134960000Y-120196289D01*
X134960000Y-116197440D01*
X135150000Y-116197440D01*
X135220073Y-116183502D01*
X135223690Y-116185000D01*
X135514250Y-116185000D01*
X135673000Y-116026250D01*
X135673000Y-115910245D01*
X135748157Y-115797765D01*
X135797440Y-115550000D01*
X135797440Y-114603000D01*
X135927000Y-114603000D01*
X135927000Y-114623000D01*
X135947000Y-114623000D01*
X135947000Y-114877000D01*
X135927000Y-114877000D01*
X135927000Y-116026250D01*
X136073000Y-116172250D01*
X136073000Y-149290000D01*
X100710000Y-149290000D01*
X100710000Y-144575322D01*
X117865000Y-144575322D01*
X117865000Y-145424678D01*
X118190034Y-146209380D01*
X118790620Y-146809966D01*
X119575322Y-147135000D01*
X120424678Y-147135000D01*
X121209380Y-146809966D01*
X121809966Y-146209380D01*
X122135000Y-145424678D01*
X122135000Y-144575322D01*
X121809966Y-143790620D01*
X121209380Y-143190034D01*
X120424678Y-142865000D01*
X119575322Y-142865000D01*
X118790620Y-143190034D01*
X118190034Y-143790620D01*
X117865000Y-144575322D01*
X100710000Y-144575322D01*
X100710000Y-140460750D01*
X103790000Y-140460750D01*
X103790000Y-140826309D01*
X103886673Y-141059698D01*
X104065301Y-141238327D01*
X104298690Y-141335000D01*
X104614250Y-141335000D01*
X104773000Y-141176250D01*
X104773000Y-140302000D01*
X105027000Y-140302000D01*
X105027000Y-141176250D01*
X105185750Y-141335000D01*
X105501310Y-141335000D01*
X105734699Y-141238327D01*
X105913327Y-141059698D01*
X105972855Y-140915985D01*
X106011673Y-141009699D01*
X106190302Y-141188327D01*
X106423691Y-141285000D01*
X107214250Y-141285000D01*
X107373000Y-141126250D01*
X107373000Y-140377000D01*
X107627000Y-140377000D01*
X107627000Y-141126250D01*
X107785750Y-141285000D01*
X108576309Y-141285000D01*
X108809698Y-141188327D01*
X108988327Y-141009699D01*
X109085000Y-140776310D01*
X109085000Y-140535750D01*
X108926250Y-140377000D01*
X107627000Y-140377000D01*
X107373000Y-140377000D01*
X106073750Y-140377000D01*
X106000000Y-140450750D01*
X105851250Y-140302000D01*
X105027000Y-140302000D01*
X104773000Y-140302000D01*
X103948750Y-140302000D01*
X103790000Y-140460750D01*
X100710000Y-140460750D01*
X100710000Y-136060750D01*
X103790000Y-136060750D01*
X103790000Y-136426309D01*
X103886673Y-136659698D01*
X104065301Y-136838327D01*
X104298690Y-136935000D01*
X104614250Y-136935000D01*
X104773000Y-136776250D01*
X104773000Y-135902000D01*
X105027000Y-135902000D01*
X105027000Y-136776250D01*
X105185750Y-136935000D01*
X105501310Y-136935000D01*
X105734699Y-136838327D01*
X105913327Y-136659698D01*
X105972855Y-136515985D01*
X106011673Y-136609699D01*
X106190302Y-136788327D01*
X106423691Y-136885000D01*
X107214250Y-136885000D01*
X107373000Y-136726250D01*
X107373000Y-135977000D01*
X107627000Y-135977000D01*
X107627000Y-136726250D01*
X107785750Y-136885000D01*
X108576309Y-136885000D01*
X108809698Y-136788327D01*
X108988327Y-136609699D01*
X109085000Y-136376310D01*
X109085000Y-136135750D01*
X108926250Y-135977000D01*
X107627000Y-135977000D01*
X107373000Y-135977000D01*
X106073750Y-135977000D01*
X106000000Y-136050750D01*
X105851250Y-135902000D01*
X105027000Y-135902000D01*
X104773000Y-135902000D01*
X103948750Y-135902000D01*
X103790000Y-136060750D01*
X100710000Y-136060750D01*
X100710000Y-124743687D01*
X100840460Y-124874147D01*
X101349506Y-125085000D01*
X101900494Y-125085000D01*
X102409540Y-124874147D01*
X102799147Y-124484540D01*
X103010000Y-123975494D01*
X103010000Y-123424506D01*
X102799147Y-122915460D01*
X102409540Y-122525853D01*
X101900494Y-122315000D01*
X101349506Y-122315000D01*
X100840460Y-122525853D01*
X100710000Y-122656313D01*
X100710000Y-120735750D01*
X101990000Y-120735750D01*
X101990000Y-121826310D01*
X102086673Y-122059699D01*
X102265302Y-122238327D01*
X102498691Y-122335000D01*
X102939250Y-122335000D01*
X103098000Y-122176250D01*
X103098000Y-120577000D01*
X102148750Y-120577000D01*
X101990000Y-120735750D01*
X100710000Y-120735750D01*
X100710000Y-119073690D01*
X101990000Y-119073690D01*
X101990000Y-120164250D01*
X102148750Y-120323000D01*
X103098000Y-120323000D01*
X103098000Y-118723750D01*
X102939250Y-118565000D01*
X102498691Y-118565000D01*
X102265302Y-118661673D01*
X102086673Y-118840301D01*
X101990000Y-119073690D01*
X100710000Y-119073690D01*
X100710000Y-82259336D01*
X117213542Y-82259336D01*
X117239161Y-82869460D01*
X117423357Y-83314148D01*
X117679841Y-83400554D01*
X118580395Y-82500000D01*
X117679841Y-81599446D01*
X117423357Y-81685852D01*
X117213542Y-82259336D01*
X100710000Y-82259336D01*
X100710000Y-80773691D01*
X124865000Y-80773691D01*
X124865000Y-81189250D01*
X125023750Y-81348000D01*
X126073000Y-81348000D01*
X126073000Y-80423750D01*
X126327000Y-80423750D01*
X126327000Y-81348000D01*
X127376250Y-81348000D01*
X127535000Y-81189250D01*
X127535000Y-80973691D01*
X128290000Y-80973691D01*
X128290000Y-81339250D01*
X128448750Y-81498000D01*
X129273000Y-81498000D01*
X129273000Y-80623750D01*
X129527000Y-80623750D01*
X129527000Y-81498000D01*
X130351250Y-81498000D01*
X130510000Y-81339250D01*
X130510000Y-81023690D01*
X130915000Y-81023690D01*
X130915000Y-81264250D01*
X131073750Y-81423000D01*
X132373000Y-81423000D01*
X132373000Y-80673750D01*
X132214250Y-80515000D01*
X131423691Y-80515000D01*
X131190302Y-80611673D01*
X131011673Y-80790301D01*
X130915000Y-81023690D01*
X130510000Y-81023690D01*
X130510000Y-80973691D01*
X130413327Y-80740302D01*
X130234699Y-80561673D01*
X130001310Y-80465000D01*
X129685750Y-80465000D01*
X129527000Y-80623750D01*
X129273000Y-80623750D01*
X129114250Y-80465000D01*
X128798690Y-80465000D01*
X128565301Y-80561673D01*
X128386673Y-80740302D01*
X128290000Y-80973691D01*
X127535000Y-80973691D01*
X127535000Y-80773691D01*
X127438327Y-80540302D01*
X127259699Y-80361673D01*
X127026310Y-80265000D01*
X126485750Y-80265000D01*
X126327000Y-80423750D01*
X126073000Y-80423750D01*
X125914250Y-80265000D01*
X125373690Y-80265000D01*
X125140301Y-80361673D01*
X124961673Y-80540302D01*
X124865000Y-80773691D01*
X100710000Y-80773691D01*
X100710000Y-78185750D01*
X111115000Y-78185750D01*
X111115000Y-79526309D01*
X111211673Y-79759698D01*
X111390301Y-79938327D01*
X111623690Y-80035000D01*
X113464250Y-80035000D01*
X113623000Y-79876250D01*
X113623000Y-78027000D01*
X113877000Y-78027000D01*
X113877000Y-79876250D01*
X114035750Y-80035000D01*
X115876310Y-80035000D01*
X116109699Y-79938327D01*
X116288327Y-79759698D01*
X116385000Y-79526309D01*
X116385000Y-78185750D01*
X116226250Y-78027000D01*
X113877000Y-78027000D01*
X113623000Y-78027000D01*
X111273750Y-78027000D01*
X111115000Y-78185750D01*
X100710000Y-78185750D01*
X100710000Y-76273691D01*
X111115000Y-76273691D01*
X111115000Y-77614250D01*
X111273750Y-77773000D01*
X113623000Y-77773000D01*
X113623000Y-75923750D01*
X113877000Y-75923750D01*
X113877000Y-77773000D01*
X116226250Y-77773000D01*
X116385000Y-77614250D01*
X116385000Y-76273691D01*
X116288327Y-76040302D01*
X116109699Y-75861673D01*
X115876310Y-75765000D01*
X114035750Y-75765000D01*
X113877000Y-75923750D01*
X113623000Y-75923750D01*
X113464250Y-75765000D01*
X111623690Y-75765000D01*
X111390301Y-75861673D01*
X111211673Y-76040302D01*
X111115000Y-76273691D01*
X100710000Y-76273691D01*
X100710000Y-74575322D01*
X117865000Y-74575322D01*
X117865000Y-75424678D01*
X118190034Y-76209380D01*
X118790620Y-76809966D01*
X119575322Y-77135000D01*
X120424678Y-77135000D01*
X121209380Y-76809966D01*
X121809966Y-76209380D01*
X122135000Y-75424678D01*
X122135000Y-74575322D01*
X121809966Y-73790620D01*
X121209380Y-73190034D01*
X120424678Y-72865000D01*
X119575322Y-72865000D01*
X118790620Y-73190034D01*
X118190034Y-73790620D01*
X117865000Y-74575322D01*
X100710000Y-74575322D01*
X100710000Y-70710000D01*
X136073000Y-70710000D01*
X136073000Y-81339592D01*
G36*
X127440000Y-130885198D02*
X126585199Y-131740000D01*
X110423711Y-131740000D01*
X110477431Y-131686280D01*
X110635000Y-131305874D01*
X110635000Y-130894126D01*
X110477431Y-130513720D01*
X110186280Y-130222569D01*
X109805874Y-130065000D01*
X109394126Y-130065000D01*
X109013720Y-130222569D01*
X108896289Y-130340000D01*
X106014802Y-130340000D01*
X105460000Y-129785199D01*
X105460000Y-125700000D01*
X110077560Y-125700000D01*
X110077560Y-128200000D01*
X110126843Y-128447765D01*
X110267191Y-128657809D01*
X110477235Y-128798157D01*
X110615000Y-128825560D01*
X110615000Y-129625148D01*
X110600111Y-129700000D01*
X110659096Y-129996537D01*
X110810126Y-130222569D01*
X110827071Y-130247929D01*
X111078463Y-130415904D01*
X111375000Y-130474889D01*
X111449852Y-130460000D01*
X111996289Y-130460000D01*
X112113720Y-130577431D01*
X112494126Y-130735000D01*
X112905874Y-130735000D01*
X113286280Y-130577431D01*
X113577431Y-130286280D01*
X113735000Y-129905874D01*
X113735000Y-129494126D01*
X113577431Y-129113720D01*
X113349461Y-128885750D01*
X117965000Y-128885750D01*
X117965000Y-129201310D01*
X118061673Y-129434699D01*
X118240302Y-129613327D01*
X118473691Y-129710000D01*
X118839250Y-129710000D01*
X118998000Y-129551250D01*
X118998000Y-128727000D01*
X118123750Y-128727000D01*
X117965000Y-128885750D01*
X113349461Y-128885750D01*
X113286280Y-128822569D01*
X112905874Y-128665000D01*
X112494126Y-128665000D01*
X112172943Y-128798038D01*
X112382809Y-128657809D01*
X112523157Y-128447765D01*
X112572440Y-128200000D01*
X112572440Y-127998690D01*
X117965000Y-127998690D01*
X117965000Y-128314250D01*
X118123750Y-128473000D01*
X118998000Y-128473000D01*
X118998000Y-127648750D01*
X118839250Y-127490000D01*
X118473691Y-127490000D01*
X118240302Y-127586673D01*
X118061673Y-127765301D01*
X117965000Y-127998690D01*
X112572440Y-127998690D01*
X112572440Y-127052532D01*
X115727073Y-127052532D01*
X115825736Y-127319387D01*
X116435461Y-127545908D01*
X117085460Y-127521856D01*
X117574264Y-127319387D01*
X117672927Y-127052532D01*
X116700000Y-126079605D01*
X115727073Y-127052532D01*
X112572440Y-127052532D01*
X112572440Y-125700000D01*
X112559603Y-125635461D01*
X115054092Y-125635461D01*
X115078144Y-126285460D01*
X115280613Y-126774264D01*
X115547468Y-126872927D01*
X116520395Y-125900000D01*
X116879605Y-125900000D01*
X117852532Y-126872927D01*
X118119387Y-126774264D01*
X118345908Y-126164539D01*
X118321856Y-125514540D01*
X118119387Y-125025736D01*
X117852532Y-124927073D01*
X116879605Y-125900000D01*
X116520395Y-125900000D01*
X115547468Y-124927073D01*
X115280613Y-125025736D01*
X115054092Y-125635461D01*
X112559603Y-125635461D01*
X112523157Y-125452235D01*
X112382809Y-125242191D01*
X112172765Y-125101843D01*
X111925000Y-125052560D01*
X110725000Y-125052560D01*
X110477235Y-125101843D01*
X110267191Y-125242191D01*
X110126843Y-125452235D01*
X110077560Y-125700000D01*
X105460000Y-125700000D01*
X105460000Y-123424506D01*
X107240000Y-123424506D01*
X107240000Y-123975494D01*
X107450853Y-124484540D01*
X107840460Y-124874147D01*
X108349506Y-125085000D01*
X108900494Y-125085000D01*
X109409540Y-124874147D01*
X109536219Y-124747468D01*
X115727073Y-124747468D01*
X116700000Y-125720395D01*
X117672927Y-124747468D01*
X117574264Y-124480613D01*
X116964539Y-124254092D01*
X116314540Y-124278144D01*
X115825736Y-124480613D01*
X115727073Y-124747468D01*
X109536219Y-124747468D01*
X109799147Y-124484540D01*
X110010000Y-123975494D01*
X110010000Y-123424506D01*
X109799147Y-122915460D01*
X109409540Y-122525853D01*
X108900494Y-122315000D01*
X108349506Y-122315000D01*
X107840460Y-122525853D01*
X107450853Y-122915460D01*
X107240000Y-123424506D01*
X105460000Y-123424506D01*
X105460000Y-122314620D01*
X105625000Y-122347440D01*
X106825000Y-122347440D01*
X107072765Y-122298157D01*
X107282809Y-122157809D01*
X107423157Y-121947765D01*
X107472440Y-121700000D01*
X107472440Y-119627361D01*
X108539802Y-118560000D01*
X109587596Y-118560000D01*
X109377235Y-118601843D01*
X109167191Y-118742191D01*
X109026843Y-118952235D01*
X108977560Y-119200000D01*
X108977560Y-121700000D01*
X109026843Y-121947765D01*
X109167191Y-122157809D01*
X109377235Y-122298157D01*
X109625000Y-122347440D01*
X110825000Y-122347440D01*
X111072765Y-122298157D01*
X111282809Y-122157809D01*
X111423157Y-121947765D01*
X111472440Y-121700000D01*
X111472440Y-120560000D01*
X115278228Y-120560000D01*
X115065000Y-121074778D01*
X115065000Y-121725222D01*
X115313914Y-122326153D01*
X115773847Y-122786086D01*
X116374778Y-123035000D01*
X117025222Y-123035000D01*
X117626153Y-122786086D01*
X118086086Y-122326153D01*
X118154909Y-122160000D01*
X121365199Y-122160000D01*
X120390530Y-123134669D01*
X120327071Y-123177071D01*
X120159096Y-123428464D01*
X120115000Y-123650149D01*
X120115000Y-123650153D01*
X120100112Y-123725000D01*
X120115000Y-123799847D01*
X120115001Y-127634356D01*
X120080460Y-127657435D01*
X120009698Y-127586673D01*
X119776309Y-127490000D01*
X119410750Y-127490000D01*
X119252000Y-127648750D01*
X119252000Y-128473000D01*
X119272000Y-128473000D01*
X119272000Y-128727000D01*
X119252000Y-128727000D01*
X119252000Y-129551250D01*
X119410750Y-129710000D01*
X119776309Y-129710000D01*
X120009698Y-129613327D01*
X120080460Y-129542565D01*
X120248848Y-129655078D01*
X120587500Y-129722440D01*
X121162500Y-129722440D01*
X121501152Y-129655078D01*
X121788247Y-129463247D01*
X121980078Y-129176152D01*
X122047440Y-128837500D01*
X122047440Y-128362500D01*
X121980078Y-128023848D01*
X121788247Y-127736753D01*
X121635000Y-127634356D01*
X121635000Y-127052532D01*
X122227073Y-127052532D01*
X122325736Y-127319387D01*
X122935461Y-127545908D01*
X123585460Y-127521856D01*
X124074264Y-127319387D01*
X124172927Y-127052532D01*
X123200000Y-126079605D01*
X122227073Y-127052532D01*
X121635000Y-127052532D01*
X121635000Y-126422723D01*
X121780613Y-126774264D01*
X122047468Y-126872927D01*
X123020395Y-125900000D01*
X123379605Y-125900000D01*
X124352532Y-126872927D01*
X124619387Y-126774264D01*
X124845908Y-126164539D01*
X124821856Y-125514540D01*
X124619387Y-125025736D01*
X124352532Y-124927073D01*
X123379605Y-125900000D01*
X123020395Y-125900000D01*
X122047468Y-124927073D01*
X121780613Y-125025736D01*
X121635000Y-125417681D01*
X121635000Y-124747468D01*
X122227073Y-124747468D01*
X123200000Y-125720395D01*
X124172927Y-124747468D01*
X124074264Y-124480613D01*
X123464539Y-124254092D01*
X122814540Y-124278144D01*
X122325736Y-124480613D01*
X122227073Y-124747468D01*
X121635000Y-124747468D01*
X121635000Y-124039801D01*
X122708625Y-122966177D01*
X122874778Y-123035000D01*
X123525222Y-123035000D01*
X124126153Y-122786086D01*
X124586086Y-122326153D01*
X124835000Y-121725222D01*
X124835000Y-121074778D01*
X124586086Y-120473847D01*
X124126153Y-120013914D01*
X124080003Y-119994798D01*
X125355545Y-118719256D01*
X125613720Y-118977431D01*
X125994126Y-119135000D01*
X126405874Y-119135000D01*
X126786280Y-118977431D01*
X127077431Y-118686280D01*
X127235000Y-118305874D01*
X127235000Y-118239801D01*
X127440001Y-118034800D01*
X127440000Y-130885198D01*
X127440000Y-130885198D01*
G37*
X127440000Y-130885198D02*
X126585199Y-131740000D01*
X110423711Y-131740000D01*
X110477431Y-131686280D01*
X110635000Y-131305874D01*
X110635000Y-130894126D01*
X110477431Y-130513720D01*
X110186280Y-130222569D01*
X109805874Y-130065000D01*
X109394126Y-130065000D01*
X109013720Y-130222569D01*
X108896289Y-130340000D01*
X106014802Y-130340000D01*
X105460000Y-129785199D01*
X105460000Y-125700000D01*
X110077560Y-125700000D01*
X110077560Y-128200000D01*
X110126843Y-128447765D01*
X110267191Y-128657809D01*
X110477235Y-128798157D01*
X110615000Y-128825560D01*
X110615000Y-129625148D01*
X110600111Y-129700000D01*
X110659096Y-129996537D01*
X110810126Y-130222569D01*
X110827071Y-130247929D01*
X111078463Y-130415904D01*
X111375000Y-130474889D01*
X111449852Y-130460000D01*
X111996289Y-130460000D01*
X112113720Y-130577431D01*
X112494126Y-130735000D01*
X112905874Y-130735000D01*
X113286280Y-130577431D01*
X113577431Y-130286280D01*
X113735000Y-129905874D01*
X113735000Y-129494126D01*
X113577431Y-129113720D01*
X113349461Y-128885750D01*
X117965000Y-128885750D01*
X117965000Y-129201310D01*
X118061673Y-129434699D01*
X118240302Y-129613327D01*
X118473691Y-129710000D01*
X118839250Y-129710000D01*
X118998000Y-129551250D01*
X118998000Y-128727000D01*
X118123750Y-128727000D01*
X117965000Y-128885750D01*
X113349461Y-128885750D01*
X113286280Y-128822569D01*
X112905874Y-128665000D01*
X112494126Y-128665000D01*
X112172943Y-128798038D01*
X112382809Y-128657809D01*
X112523157Y-128447765D01*
X112572440Y-128200000D01*
X112572440Y-127998690D01*
X117965000Y-127998690D01*
X117965000Y-128314250D01*
X118123750Y-128473000D01*
X118998000Y-128473000D01*
X118998000Y-127648750D01*
X118839250Y-127490000D01*
X118473691Y-127490000D01*
X118240302Y-127586673D01*
X118061673Y-127765301D01*
X117965000Y-127998690D01*
X112572440Y-127998690D01*
X112572440Y-127052532D01*
X115727073Y-127052532D01*
X115825736Y-127319387D01*
X116435461Y-127545908D01*
X117085460Y-127521856D01*
X117574264Y-127319387D01*
X117672927Y-127052532D01*
X116700000Y-126079605D01*
X115727073Y-127052532D01*
X112572440Y-127052532D01*
X112572440Y-125700000D01*
X112559603Y-125635461D01*
X115054092Y-125635461D01*
X115078144Y-126285460D01*
X115280613Y-126774264D01*
X115547468Y-126872927D01*
X116520395Y-125900000D01*
X116879605Y-125900000D01*
X117852532Y-126872927D01*
X118119387Y-126774264D01*
X118345908Y-126164539D01*
X118321856Y-125514540D01*
X118119387Y-125025736D01*
X117852532Y-124927073D01*
X116879605Y-125900000D01*
X116520395Y-125900000D01*
X115547468Y-124927073D01*
X115280613Y-125025736D01*
X115054092Y-125635461D01*
X112559603Y-125635461D01*
X112523157Y-125452235D01*
X112382809Y-125242191D01*
X112172765Y-125101843D01*
X111925000Y-125052560D01*
X110725000Y-125052560D01*
X110477235Y-125101843D01*
X110267191Y-125242191D01*
X110126843Y-125452235D01*
X110077560Y-125700000D01*
X105460000Y-125700000D01*
X105460000Y-123424506D01*
X107240000Y-123424506D01*
X107240000Y-123975494D01*
X107450853Y-124484540D01*
X107840460Y-124874147D01*
X108349506Y-125085000D01*
X108900494Y-125085000D01*
X109409540Y-124874147D01*
X109536219Y-124747468D01*
X115727073Y-124747468D01*
X116700000Y-125720395D01*
X117672927Y-124747468D01*
X117574264Y-124480613D01*
X116964539Y-124254092D01*
X116314540Y-124278144D01*
X115825736Y-124480613D01*
X115727073Y-124747468D01*
X109536219Y-124747468D01*
X109799147Y-124484540D01*
X110010000Y-123975494D01*
X110010000Y-123424506D01*
X109799147Y-122915460D01*
X109409540Y-122525853D01*
X108900494Y-122315000D01*
X108349506Y-122315000D01*
X107840460Y-122525853D01*
X107450853Y-122915460D01*
X107240000Y-123424506D01*
X105460000Y-123424506D01*
X105460000Y-122314620D01*
X105625000Y-122347440D01*
X106825000Y-122347440D01*
X107072765Y-122298157D01*
X107282809Y-122157809D01*
X107423157Y-121947765D01*
X107472440Y-121700000D01*
X107472440Y-119627361D01*
X108539802Y-118560000D01*
X109587596Y-118560000D01*
X109377235Y-118601843D01*
X109167191Y-118742191D01*
X109026843Y-118952235D01*
X108977560Y-119200000D01*
X108977560Y-121700000D01*
X109026843Y-121947765D01*
X109167191Y-122157809D01*
X109377235Y-122298157D01*
X109625000Y-122347440D01*
X110825000Y-122347440D01*
X111072765Y-122298157D01*
X111282809Y-122157809D01*
X111423157Y-121947765D01*
X111472440Y-121700000D01*
X111472440Y-120560000D01*
X115278228Y-120560000D01*
X115065000Y-121074778D01*
X115065000Y-121725222D01*
X115313914Y-122326153D01*
X115773847Y-122786086D01*
X116374778Y-123035000D01*
X117025222Y-123035000D01*
X117626153Y-122786086D01*
X118086086Y-122326153D01*
X118154909Y-122160000D01*
X121365199Y-122160000D01*
X120390530Y-123134669D01*
X120327071Y-123177071D01*
X120159096Y-123428464D01*
X120115000Y-123650149D01*
X120115000Y-123650153D01*
X120100112Y-123725000D01*
X120115000Y-123799847D01*
X120115001Y-127634356D01*
X120080460Y-127657435D01*
X120009698Y-127586673D01*
X119776309Y-127490000D01*
X119410750Y-127490000D01*
X119252000Y-127648750D01*
X119252000Y-128473000D01*
X119272000Y-128473000D01*
X119272000Y-128727000D01*
X119252000Y-128727000D01*
X119252000Y-129551250D01*
X119410750Y-129710000D01*
X119776309Y-129710000D01*
X120009698Y-129613327D01*
X120080460Y-129542565D01*
X120248848Y-129655078D01*
X120587500Y-129722440D01*
X121162500Y-129722440D01*
X121501152Y-129655078D01*
X121788247Y-129463247D01*
X121980078Y-129176152D01*
X122047440Y-128837500D01*
X122047440Y-128362500D01*
X121980078Y-128023848D01*
X121788247Y-127736753D01*
X121635000Y-127634356D01*
X121635000Y-127052532D01*
X122227073Y-127052532D01*
X122325736Y-127319387D01*
X122935461Y-127545908D01*
X123585460Y-127521856D01*
X124074264Y-127319387D01*
X124172927Y-127052532D01*
X123200000Y-126079605D01*
X122227073Y-127052532D01*
X121635000Y-127052532D01*
X121635000Y-126422723D01*
X121780613Y-126774264D01*
X122047468Y-126872927D01*
X123020395Y-125900000D01*
X123379605Y-125900000D01*
X124352532Y-126872927D01*
X124619387Y-126774264D01*
X124845908Y-126164539D01*
X124821856Y-125514540D01*
X124619387Y-125025736D01*
X124352532Y-124927073D01*
X123379605Y-125900000D01*
X123020395Y-125900000D01*
X122047468Y-124927073D01*
X121780613Y-125025736D01*
X121635000Y-125417681D01*
X121635000Y-124747468D01*
X122227073Y-124747468D01*
X123200000Y-125720395D01*
X124172927Y-124747468D01*
X124074264Y-124480613D01*
X123464539Y-124254092D01*
X122814540Y-124278144D01*
X122325736Y-124480613D01*
X122227073Y-124747468D01*
X121635000Y-124747468D01*
X121635000Y-124039801D01*
X122708625Y-122966177D01*
X122874778Y-123035000D01*
X123525222Y-123035000D01*
X124126153Y-122786086D01*
X124586086Y-122326153D01*
X124835000Y-121725222D01*
X124835000Y-121074778D01*
X124586086Y-120473847D01*
X124126153Y-120013914D01*
X124080003Y-119994798D01*
X125355545Y-118719256D01*
X125613720Y-118977431D01*
X125994126Y-119135000D01*
X126405874Y-119135000D01*
X126786280Y-118977431D01*
X127077431Y-118686280D01*
X127235000Y-118305874D01*
X127235000Y-118239801D01*
X127440001Y-118034800D01*
X127440000Y-130885198D01*
G36*
X110040530Y-91184669D02*
X109977071Y-91227071D01*
X109809096Y-91478464D01*
X109765000Y-91700149D01*
X109765000Y-91700153D01*
X109750112Y-91775000D01*
X109765000Y-91849847D01*
X109765000Y-91934356D01*
X109611753Y-92036753D01*
X109419922Y-92323848D01*
X109352560Y-92662500D01*
X109352560Y-93137500D01*
X109419922Y-93476152D01*
X109611753Y-93763247D01*
X109765000Y-93865644D01*
X109765001Y-94952560D01*
X108950000Y-94952560D01*
X108702235Y-95001843D01*
X108492191Y-95142191D01*
X108351843Y-95352235D01*
X108302560Y-95600000D01*
X108302560Y-96400000D01*
X108351843Y-96647765D01*
X108492191Y-96857809D01*
X108702235Y-96998157D01*
X108950000Y-97047440D01*
X110850000Y-97047440D01*
X111097765Y-96998157D01*
X111302560Y-96861316D01*
X111302560Y-97350000D01*
X111351843Y-97597765D01*
X111492191Y-97807809D01*
X111515001Y-97823050D01*
X111515001Y-98234356D01*
X111480460Y-98257435D01*
X111409698Y-98186673D01*
X111176309Y-98090000D01*
X110810750Y-98090000D01*
X110652000Y-98248750D01*
X110652000Y-99073000D01*
X110672000Y-99073000D01*
X110672000Y-99327000D01*
X110652000Y-99327000D01*
X110652000Y-100151250D01*
X110810750Y-100310000D01*
X111176309Y-100310000D01*
X111409698Y-100213327D01*
X111480460Y-100142565D01*
X111515001Y-100165644D01*
X111515000Y-108900153D01*
X111500112Y-108975000D01*
X111515000Y-109049847D01*
X111515000Y-109049851D01*
X111559096Y-109271536D01*
X111727071Y-109522929D01*
X111790530Y-109565331D01*
X114109671Y-111884473D01*
X114152071Y-111947929D01*
X114403463Y-112115904D01*
X114625148Y-112160000D01*
X114625153Y-112160000D01*
X114700000Y-112174888D01*
X114774847Y-112160000D01*
X115803399Y-112160000D01*
X115665000Y-112494126D01*
X115665000Y-112905874D01*
X115822569Y-113286280D01*
X116113720Y-113577431D01*
X116494126Y-113735000D01*
X116905874Y-113735000D01*
X117286280Y-113577431D01*
X117577431Y-113286280D01*
X117735000Y-112905874D01*
X117735000Y-112860000D01*
X122802560Y-112860000D01*
X122802560Y-113050000D01*
X122822451Y-113150000D01*
X122802560Y-113250000D01*
X122802560Y-113750000D01*
X122816498Y-113820074D01*
X122815000Y-113823691D01*
X122815000Y-113916250D01*
X122840751Y-113942001D01*
X122851843Y-113997765D01*
X122992191Y-114207809D01*
X123167578Y-114325000D01*
X122973750Y-114325000D01*
X122815000Y-114483750D01*
X122815000Y-114576309D01*
X122911673Y-114809698D01*
X123090301Y-114988327D01*
X123323690Y-115085000D01*
X123964250Y-115085000D01*
X124123000Y-114926250D01*
X124123000Y-114397440D01*
X124377000Y-114397440D01*
X124377000Y-114926250D01*
X124535750Y-115085000D01*
X124902560Y-115085000D01*
X124902560Y-115122638D01*
X123985199Y-116040000D01*
X114203711Y-116040000D01*
X114086280Y-115922569D01*
X113705874Y-115765000D01*
X113294126Y-115765000D01*
X112913720Y-115922569D01*
X112622569Y-116213720D01*
X112465000Y-116594126D01*
X112465000Y-117005874D01*
X112479135Y-117040000D01*
X108299846Y-117040000D01*
X108224999Y-117025112D01*
X108150152Y-117040000D01*
X108150148Y-117040000D01*
X107928463Y-117084096D01*
X107677071Y-117252071D01*
X107634671Y-117315527D01*
X106397639Y-118552560D01*
X105625000Y-118552560D01*
X105460000Y-118585380D01*
X105460000Y-99485750D01*
X109365000Y-99485750D01*
X109365000Y-99801310D01*
X109461673Y-100034699D01*
X109640302Y-100213327D01*
X109873691Y-100310000D01*
X110239250Y-100310000D01*
X110398000Y-100151250D01*
X110398000Y-99327000D01*
X109523750Y-99327000D01*
X109365000Y-99485750D01*
X105460000Y-99485750D01*
X105460000Y-98598690D01*
X109365000Y-98598690D01*
X109365000Y-98914250D01*
X109523750Y-99073000D01*
X110398000Y-99073000D01*
X110398000Y-98248750D01*
X110239250Y-98090000D01*
X109873691Y-98090000D01*
X109640302Y-98186673D01*
X109461673Y-98365301D01*
X109365000Y-98598690D01*
X105460000Y-98598690D01*
X105460000Y-91414801D01*
X106114802Y-90760000D01*
X110465198Y-90760000D01*
X110040530Y-91184669D01*
X110040530Y-91184669D01*
G37*
X110040530Y-91184669D02*
X109977071Y-91227071D01*
X109809096Y-91478464D01*
X109765000Y-91700149D01*
X109765000Y-91700153D01*
X109750112Y-91775000D01*
X109765000Y-91849847D01*
X109765000Y-91934356D01*
X109611753Y-92036753D01*
X109419922Y-92323848D01*
X109352560Y-92662500D01*
X109352560Y-93137500D01*
X109419922Y-93476152D01*
X109611753Y-93763247D01*
X109765000Y-93865644D01*
X109765001Y-94952560D01*
X108950000Y-94952560D01*
X108702235Y-95001843D01*
X108492191Y-95142191D01*
X108351843Y-95352235D01*
X108302560Y-95600000D01*
X108302560Y-96400000D01*
X108351843Y-96647765D01*
X108492191Y-96857809D01*
X108702235Y-96998157D01*
X108950000Y-97047440D01*
X110850000Y-97047440D01*
X111097765Y-96998157D01*
X111302560Y-96861316D01*
X111302560Y-97350000D01*
X111351843Y-97597765D01*
X111492191Y-97807809D01*
X111515001Y-97823050D01*
X111515001Y-98234356D01*
X111480460Y-98257435D01*
X111409698Y-98186673D01*
X111176309Y-98090000D01*
X110810750Y-98090000D01*
X110652000Y-98248750D01*
X110652000Y-99073000D01*
X110672000Y-99073000D01*
X110672000Y-99327000D01*
X110652000Y-99327000D01*
X110652000Y-100151250D01*
X110810750Y-100310000D01*
X111176309Y-100310000D01*
X111409698Y-100213327D01*
X111480460Y-100142565D01*
X111515001Y-100165644D01*
X111515000Y-108900153D01*
X111500112Y-108975000D01*
X111515000Y-109049847D01*
X111515000Y-109049851D01*
X111559096Y-109271536D01*
X111727071Y-109522929D01*
X111790530Y-109565331D01*
X114109671Y-111884473D01*
X114152071Y-111947929D01*
X114403463Y-112115904D01*
X114625148Y-112160000D01*
X114625153Y-112160000D01*
X114700000Y-112174888D01*
X114774847Y-112160000D01*
X115803399Y-112160000D01*
X115665000Y-112494126D01*
X115665000Y-112905874D01*
X115822569Y-113286280D01*
X116113720Y-113577431D01*
X116494126Y-113735000D01*
X116905874Y-113735000D01*
X117286280Y-113577431D01*
X117577431Y-113286280D01*
X117735000Y-112905874D01*
X117735000Y-112860000D01*
X122802560Y-112860000D01*
X122802560Y-113050000D01*
X122822451Y-113150000D01*
X122802560Y-113250000D01*
X122802560Y-113750000D01*
X122816498Y-113820074D01*
X122815000Y-113823691D01*
X122815000Y-113916250D01*
X122840751Y-113942001D01*
X122851843Y-113997765D01*
X122992191Y-114207809D01*
X123167578Y-114325000D01*
X122973750Y-114325000D01*
X122815000Y-114483750D01*
X122815000Y-114576309D01*
X122911673Y-114809698D01*
X123090301Y-114988327D01*
X123323690Y-115085000D01*
X123964250Y-115085000D01*
X124123000Y-114926250D01*
X124123000Y-114397440D01*
X124377000Y-114397440D01*
X124377000Y-114926250D01*
X124535750Y-115085000D01*
X124902560Y-115085000D01*
X124902560Y-115122638D01*
X123985199Y-116040000D01*
X114203711Y-116040000D01*
X114086280Y-115922569D01*
X113705874Y-115765000D01*
X113294126Y-115765000D01*
X112913720Y-115922569D01*
X112622569Y-116213720D01*
X112465000Y-116594126D01*
X112465000Y-117005874D01*
X112479135Y-117040000D01*
X108299846Y-117040000D01*
X108224999Y-117025112D01*
X108150152Y-117040000D01*
X108150148Y-117040000D01*
X107928463Y-117084096D01*
X107677071Y-117252071D01*
X107634671Y-117315527D01*
X106397639Y-118552560D01*
X105625000Y-118552560D01*
X105460000Y-118585380D01*
X105460000Y-99485750D01*
X109365000Y-99485750D01*
X109365000Y-99801310D01*
X109461673Y-100034699D01*
X109640302Y-100213327D01*
X109873691Y-100310000D01*
X110239250Y-100310000D01*
X110398000Y-100151250D01*
X110398000Y-99327000D01*
X109523750Y-99327000D01*
X109365000Y-99485750D01*
X105460000Y-99485750D01*
X105460000Y-98598690D01*
X109365000Y-98598690D01*
X109365000Y-98914250D01*
X109523750Y-99073000D01*
X110398000Y-99073000D01*
X110398000Y-98248750D01*
X110239250Y-98090000D01*
X109873691Y-98090000D01*
X109640302Y-98186673D01*
X109461673Y-98365301D01*
X109365000Y-98598690D01*
X105460000Y-98598690D01*
X105460000Y-91414801D01*
X106114802Y-90760000D01*
X110465198Y-90760000D01*
X110040530Y-91184669D01*
G36*
X134302235Y-83498157D02*
X134550000Y-83547440D01*
X136073000Y-83547440D01*
X136073000Y-103827750D01*
X135927000Y-103973750D01*
X135927000Y-105123000D01*
X135947000Y-105123000D01*
X135947000Y-105377000D01*
X135927000Y-105377000D01*
X135927000Y-106526250D01*
X136073000Y-106672250D01*
X136073000Y-112014585D01*
X135957809Y-111842191D01*
X135747765Y-111701843D01*
X135500000Y-111652560D01*
X135000000Y-111652560D01*
X134752235Y-111701843D01*
X134550000Y-111836973D01*
X134347765Y-111701843D01*
X134100000Y-111652560D01*
X133600000Y-111652560D01*
X133352235Y-111701843D01*
X133142191Y-111842191D01*
X133001843Y-112052235D01*
X132952560Y-112300000D01*
X132952560Y-113302560D01*
X132550000Y-113302560D01*
X132450000Y-113322451D01*
X132350000Y-113302560D01*
X131850000Y-113302560D01*
X131750000Y-113322451D01*
X131650000Y-113302560D01*
X131150000Y-113302560D01*
X131050000Y-113322451D01*
X130950000Y-113302560D01*
X130450000Y-113302560D01*
X130350000Y-113322451D01*
X130250000Y-113302560D01*
X129750000Y-113302560D01*
X129650000Y-113322451D01*
X129550000Y-113302560D01*
X129050000Y-113302560D01*
X128950000Y-113322451D01*
X128850000Y-113302560D01*
X128350000Y-113302560D01*
X128250000Y-113322451D01*
X128150000Y-113302560D01*
X127650000Y-113302560D01*
X127550000Y-113322451D01*
X127450000Y-113302560D01*
X126950000Y-113302560D01*
X126850000Y-113322451D01*
X126750000Y-113302560D01*
X126250000Y-113302560D01*
X126150000Y-113322451D01*
X126050000Y-113302560D01*
X125697440Y-113302560D01*
X125697440Y-113250000D01*
X125677549Y-113150000D01*
X125697440Y-113050000D01*
X125697440Y-112550000D01*
X125677549Y-112450000D01*
X125697440Y-112350000D01*
X125697440Y-111850000D01*
X125677549Y-111750000D01*
X125697440Y-111650000D01*
X125697440Y-111150000D01*
X125677549Y-111050000D01*
X125697440Y-110950000D01*
X125697440Y-110450000D01*
X125677549Y-110350000D01*
X125697440Y-110250000D01*
X125697440Y-109750000D01*
X125677549Y-109650000D01*
X125697440Y-109550000D01*
X125697440Y-109050000D01*
X125677549Y-108950000D01*
X125697440Y-108850000D01*
X125697440Y-108350000D01*
X125677549Y-108250000D01*
X125697440Y-108150000D01*
X125697440Y-107650000D01*
X125677549Y-107550000D01*
X125697440Y-107450000D01*
X125697440Y-106950000D01*
X125677549Y-106850000D01*
X125697440Y-106750000D01*
X125697440Y-106366005D01*
X125755536Y-106452951D01*
X125784097Y-106596537D01*
X125896661Y-106765000D01*
X125952072Y-106847929D01*
X126015527Y-106890329D01*
X126409671Y-107284472D01*
X126452071Y-107347929D01*
X126515527Y-107390329D01*
X126703462Y-107515904D01*
X126751605Y-107525480D01*
X126925148Y-107560000D01*
X126925152Y-107560000D01*
X127000000Y-107574888D01*
X127074848Y-107560000D01*
X128025153Y-107560000D01*
X128100000Y-107574888D01*
X128174847Y-107560000D01*
X128174852Y-107560000D01*
X128396537Y-107515904D01*
X128647929Y-107347929D01*
X128690331Y-107284471D01*
X129084473Y-106890329D01*
X129147929Y-106847929D01*
X129196733Y-106774889D01*
X129248483Y-106697440D01*
X129550000Y-106697440D01*
X129650000Y-106677549D01*
X129750000Y-106697440D01*
X130250000Y-106697440D01*
X130350000Y-106677549D01*
X130450000Y-106697440D01*
X130950000Y-106697440D01*
X131050000Y-106677549D01*
X131150000Y-106697440D01*
X131650000Y-106697440D01*
X131750000Y-106677549D01*
X131850000Y-106697440D01*
X132350000Y-106697440D01*
X132450000Y-106677549D01*
X132550000Y-106697440D01*
X133050000Y-106697440D01*
X133297765Y-106648157D01*
X133507809Y-106507809D01*
X133648157Y-106297765D01*
X133697440Y-106050000D01*
X133697440Y-105535750D01*
X134715000Y-105535750D01*
X134715000Y-106176309D01*
X134811673Y-106409698D01*
X134990301Y-106588327D01*
X135223690Y-106685000D01*
X135514250Y-106685000D01*
X135673000Y-106526250D01*
X135673000Y-105377000D01*
X134873750Y-105377000D01*
X134715000Y-105535750D01*
X133697440Y-105535750D01*
X133697440Y-104450000D01*
X133672316Y-104323691D01*
X134715000Y-104323691D01*
X134715000Y-104964250D01*
X134873750Y-105123000D01*
X135673000Y-105123000D01*
X135673000Y-103973750D01*
X135514250Y-103815000D01*
X135223690Y-103815000D01*
X134990301Y-103911673D01*
X134811673Y-104090302D01*
X134715000Y-104323691D01*
X133672316Y-104323691D01*
X133648157Y-104202235D01*
X133560000Y-104070300D01*
X133560000Y-103514801D01*
X135039802Y-102035000D01*
X135205874Y-102035000D01*
X135586280Y-101877431D01*
X135877431Y-101586280D01*
X136035000Y-101205874D01*
X136035000Y-100794126D01*
X135877431Y-100413720D01*
X135586280Y-100122569D01*
X135205874Y-99965000D01*
X134794126Y-99965000D01*
X134413720Y-100122569D01*
X134400000Y-100136289D01*
X134386280Y-100122569D01*
X134005874Y-99965000D01*
X133594126Y-99965000D01*
X133213720Y-100122569D01*
X132922569Y-100413720D01*
X132818134Y-100665850D01*
X132755078Y-100348848D01*
X132642565Y-100180460D01*
X132713327Y-100109698D01*
X132810000Y-99876309D01*
X132810000Y-99510750D01*
X132651250Y-99352000D01*
X131827000Y-99352000D01*
X131827000Y-99372000D01*
X131573000Y-99372000D01*
X131573000Y-99352000D01*
X131553000Y-99352000D01*
X131553000Y-99098000D01*
X131573000Y-99098000D01*
X131573000Y-98223750D01*
X131827000Y-98223750D01*
X131827000Y-99098000D01*
X132651250Y-99098000D01*
X132810000Y-98939250D01*
X132810000Y-98573691D01*
X132713327Y-98340302D01*
X132534699Y-98161673D01*
X132301310Y-98065000D01*
X131985750Y-98065000D01*
X131827000Y-98223750D01*
X131573000Y-98223750D01*
X131414250Y-98065000D01*
X131098690Y-98065000D01*
X130865301Y-98161673D01*
X130686673Y-98340302D01*
X130590000Y-98573691D01*
X130590000Y-98774413D01*
X130555078Y-98598848D01*
X130363247Y-98311753D01*
X130076152Y-98119922D01*
X129737500Y-98052560D01*
X129262500Y-98052560D01*
X128923848Y-98119922D01*
X128636753Y-98311753D01*
X128534356Y-98465000D01*
X128165644Y-98465000D01*
X128063247Y-98311753D01*
X127776152Y-98119922D01*
X127437500Y-98052560D01*
X126962500Y-98052560D01*
X126623848Y-98119922D01*
X126336753Y-98311753D01*
X126144922Y-98598848D01*
X126077560Y-98937500D01*
X126077560Y-99512500D01*
X126144922Y-99851152D01*
X126311197Y-100100000D01*
X126144922Y-100348848D01*
X126077560Y-100687500D01*
X126077560Y-101077759D01*
X126022440Y-101022639D01*
X126022440Y-100687500D01*
X125955078Y-100348848D01*
X125842565Y-100180460D01*
X125913327Y-100109698D01*
X126010000Y-99876309D01*
X126010000Y-99510750D01*
X125851250Y-99352000D01*
X125027000Y-99352000D01*
X125027000Y-99372000D01*
X124773000Y-99372000D01*
X124773000Y-99352000D01*
X123948750Y-99352000D01*
X123790000Y-99510750D01*
X123790000Y-99876309D01*
X123886673Y-100109698D01*
X123957435Y-100180460D01*
X123934356Y-100215000D01*
X123565644Y-100215000D01*
X123542565Y-100180460D01*
X123613327Y-100109698D01*
X123710000Y-99876309D01*
X123710000Y-99510750D01*
X123551250Y-99352000D01*
X122727000Y-99352000D01*
X122727000Y-99372000D01*
X122473000Y-99372000D01*
X122473000Y-99352000D01*
X122453000Y-99352000D01*
X122453000Y-99098000D01*
X122473000Y-99098000D01*
X122473000Y-98223750D01*
X122727000Y-98223750D01*
X122727000Y-99098000D01*
X123551250Y-99098000D01*
X123710000Y-98939250D01*
X123710000Y-98573691D01*
X123790000Y-98573691D01*
X123790000Y-98939250D01*
X123948750Y-99098000D01*
X124773000Y-99098000D01*
X124773000Y-98223750D01*
X125027000Y-98223750D01*
X125027000Y-99098000D01*
X125851250Y-99098000D01*
X126010000Y-98939250D01*
X126010000Y-98573691D01*
X125913327Y-98340302D01*
X125734699Y-98161673D01*
X125501310Y-98065000D01*
X125185750Y-98065000D01*
X125027000Y-98223750D01*
X124773000Y-98223750D01*
X124614250Y-98065000D01*
X124298690Y-98065000D01*
X124065301Y-98161673D01*
X123886673Y-98340302D01*
X123790000Y-98573691D01*
X123710000Y-98573691D01*
X123613327Y-98340302D01*
X123434699Y-98161673D01*
X123201310Y-98065000D01*
X122885750Y-98065000D01*
X122727000Y-98223750D01*
X122473000Y-98223750D01*
X122314250Y-98065000D01*
X122160000Y-98065000D01*
X122160000Y-95094801D01*
X122165161Y-95089640D01*
X122274670Y-95135000D01*
X122885330Y-95135000D01*
X123449507Y-94901310D01*
X123881310Y-94469507D01*
X123924499Y-94365240D01*
X123973002Y-94374888D01*
X124047849Y-94360000D01*
X124047854Y-94360000D01*
X124269539Y-94315904D01*
X124520931Y-94147929D01*
X124563333Y-94084470D01*
X127359473Y-91288331D01*
X127422929Y-91245931D01*
X127480950Y-91159096D01*
X127501152Y-91155078D01*
X127788247Y-90963247D01*
X127857235Y-90860000D01*
X128660246Y-90860000D01*
X128692191Y-90907809D01*
X128902235Y-91048157D01*
X129150000Y-91097440D01*
X130050000Y-91097440D01*
X130297765Y-91048157D01*
X130507809Y-90907809D01*
X130648157Y-90697765D01*
X130697440Y-90450000D01*
X130697440Y-90077362D01*
X130767004Y-90007798D01*
X130840001Y-90056573D01*
X130840000Y-90496289D01*
X130722569Y-90613720D01*
X130565000Y-90994126D01*
X130565000Y-91405874D01*
X130722569Y-91786280D01*
X131013720Y-92077431D01*
X131394126Y-92235000D01*
X131805874Y-92235000D01*
X132186280Y-92077431D01*
X132477431Y-91786280D01*
X132635000Y-91405874D01*
X132635000Y-90994126D01*
X132477431Y-90613720D01*
X132360000Y-90496289D01*
X132360000Y-90056573D01*
X132507809Y-89957809D01*
X132573163Y-89860000D01*
X132810199Y-89860000D01*
X132877560Y-89927361D01*
X132877560Y-90262500D01*
X132944922Y-90601152D01*
X133136753Y-90888247D01*
X133423848Y-91080078D01*
X133762500Y-91147440D01*
X134237500Y-91147440D01*
X134576152Y-91080078D01*
X134863247Y-90888247D01*
X135055078Y-90601152D01*
X135122440Y-90262500D01*
X135122440Y-89687500D01*
X135055078Y-89348848D01*
X134942565Y-89180460D01*
X135013327Y-89109698D01*
X135110000Y-88876309D01*
X135110000Y-88510750D01*
X134951250Y-88352000D01*
X134127000Y-88352000D01*
X134127000Y-88372000D01*
X133873000Y-88372000D01*
X133873000Y-88352000D01*
X133260180Y-88352000D01*
X133199852Y-88340000D01*
X133199847Y-88340000D01*
X133125000Y-88325112D01*
X133050153Y-88340000D01*
X132573163Y-88340000D01*
X132507809Y-88242191D01*
X132297765Y-88101843D01*
X132050000Y-88052560D01*
X131360000Y-88052560D01*
X131360000Y-87573691D01*
X132890000Y-87573691D01*
X132890000Y-87939250D01*
X133048750Y-88098000D01*
X133873000Y-88098000D01*
X133873000Y-87223750D01*
X134127000Y-87223750D01*
X134127000Y-88098000D01*
X134951250Y-88098000D01*
X135110000Y-87939250D01*
X135110000Y-87573691D01*
X135013327Y-87340302D01*
X134834699Y-87161673D01*
X134601310Y-87065000D01*
X134285750Y-87065000D01*
X134127000Y-87223750D01*
X133873000Y-87223750D01*
X133714250Y-87065000D01*
X133398690Y-87065000D01*
X133165301Y-87161673D01*
X132986673Y-87340302D01*
X132890000Y-87573691D01*
X131360000Y-87573691D01*
X131360000Y-84649846D01*
X131374888Y-84574999D01*
X131360000Y-84500152D01*
X131360000Y-84500148D01*
X131351612Y-84457979D01*
X131550000Y-84497440D01*
X133450000Y-84497440D01*
X133697765Y-84448157D01*
X133907809Y-84307809D01*
X134048157Y-84097765D01*
X134097440Y-83850000D01*
X134097440Y-83361316D01*
X134302235Y-83498157D01*
X134302235Y-83498157D01*
G37*
X134302235Y-83498157D02*
X134550000Y-83547440D01*
X136073000Y-83547440D01*
X136073000Y-103827750D01*
X135927000Y-103973750D01*
X135927000Y-105123000D01*
X135947000Y-105123000D01*
X135947000Y-105377000D01*
X135927000Y-105377000D01*
X135927000Y-106526250D01*
X136073000Y-106672250D01*
X136073000Y-112014585D01*
X135957809Y-111842191D01*
X135747765Y-111701843D01*
X135500000Y-111652560D01*
X135000000Y-111652560D01*
X134752235Y-111701843D01*
X134550000Y-111836973D01*
X134347765Y-111701843D01*
X134100000Y-111652560D01*
X133600000Y-111652560D01*
X133352235Y-111701843D01*
X133142191Y-111842191D01*
X133001843Y-112052235D01*
X132952560Y-112300000D01*
X132952560Y-113302560D01*
X132550000Y-113302560D01*
X132450000Y-113322451D01*
X132350000Y-113302560D01*
X131850000Y-113302560D01*
X131750000Y-113322451D01*
X131650000Y-113302560D01*
X131150000Y-113302560D01*
X131050000Y-113322451D01*
X130950000Y-113302560D01*
X130450000Y-113302560D01*
X130350000Y-113322451D01*
X130250000Y-113302560D01*
X129750000Y-113302560D01*
X129650000Y-113322451D01*
X129550000Y-113302560D01*
X129050000Y-113302560D01*
X128950000Y-113322451D01*
X128850000Y-113302560D01*
X128350000Y-113302560D01*
X128250000Y-113322451D01*
X128150000Y-113302560D01*
X127650000Y-113302560D01*
X127550000Y-113322451D01*
X127450000Y-113302560D01*
X126950000Y-113302560D01*
X126850000Y-113322451D01*
X126750000Y-113302560D01*
X126250000Y-113302560D01*
X126150000Y-113322451D01*
X126050000Y-113302560D01*
X125697440Y-113302560D01*
X125697440Y-113250000D01*
X125677549Y-113150000D01*
X125697440Y-113050000D01*
X125697440Y-112550000D01*
X125677549Y-112450000D01*
X125697440Y-112350000D01*
X125697440Y-111850000D01*
X125677549Y-111750000D01*
X125697440Y-111650000D01*
X125697440Y-111150000D01*
X125677549Y-111050000D01*
X125697440Y-110950000D01*
X125697440Y-110450000D01*
X125677549Y-110350000D01*
X125697440Y-110250000D01*
X125697440Y-109750000D01*
X125677549Y-109650000D01*
X125697440Y-109550000D01*
X125697440Y-109050000D01*
X125677549Y-108950000D01*
X125697440Y-108850000D01*
X125697440Y-108350000D01*
X125677549Y-108250000D01*
X125697440Y-108150000D01*
X125697440Y-107650000D01*
X125677549Y-107550000D01*
X125697440Y-107450000D01*
X125697440Y-106950000D01*
X125677549Y-106850000D01*
X125697440Y-106750000D01*
X125697440Y-106366005D01*
X125755536Y-106452951D01*
X125784097Y-106596537D01*
X125896661Y-106765000D01*
X125952072Y-106847929D01*
X126015527Y-106890329D01*
X126409671Y-107284472D01*
X126452071Y-107347929D01*
X126515527Y-107390329D01*
X126703462Y-107515904D01*
X126751605Y-107525480D01*
X126925148Y-107560000D01*
X126925152Y-107560000D01*
X127000000Y-107574888D01*
X127074848Y-107560000D01*
X128025153Y-107560000D01*
X128100000Y-107574888D01*
X128174847Y-107560000D01*
X128174852Y-107560000D01*
X128396537Y-107515904D01*
X128647929Y-107347929D01*
X128690331Y-107284471D01*
X129084473Y-106890329D01*
X129147929Y-106847929D01*
X129196733Y-106774889D01*
X129248483Y-106697440D01*
X129550000Y-106697440D01*
X129650000Y-106677549D01*
X129750000Y-106697440D01*
X130250000Y-106697440D01*
X130350000Y-106677549D01*
X130450000Y-106697440D01*
X130950000Y-106697440D01*
X131050000Y-106677549D01*
X131150000Y-106697440D01*
X131650000Y-106697440D01*
X131750000Y-106677549D01*
X131850000Y-106697440D01*
X132350000Y-106697440D01*
X132450000Y-106677549D01*
X132550000Y-106697440D01*
X133050000Y-106697440D01*
X133297765Y-106648157D01*
X133507809Y-106507809D01*
X133648157Y-106297765D01*
X133697440Y-106050000D01*
X133697440Y-105535750D01*
X134715000Y-105535750D01*
X134715000Y-106176309D01*
X134811673Y-106409698D01*
X134990301Y-106588327D01*
X135223690Y-106685000D01*
X135514250Y-106685000D01*
X135673000Y-106526250D01*
X135673000Y-105377000D01*
X134873750Y-105377000D01*
X134715000Y-105535750D01*
X133697440Y-105535750D01*
X133697440Y-104450000D01*
X133672316Y-104323691D01*
X134715000Y-104323691D01*
X134715000Y-104964250D01*
X134873750Y-105123000D01*
X135673000Y-105123000D01*
X135673000Y-103973750D01*
X135514250Y-103815000D01*
X135223690Y-103815000D01*
X134990301Y-103911673D01*
X134811673Y-104090302D01*
X134715000Y-104323691D01*
X133672316Y-104323691D01*
X133648157Y-104202235D01*
X133560000Y-104070300D01*
X133560000Y-103514801D01*
X135039802Y-102035000D01*
X135205874Y-102035000D01*
X135586280Y-101877431D01*
X135877431Y-101586280D01*
X136035000Y-101205874D01*
X136035000Y-100794126D01*
X135877431Y-100413720D01*
X135586280Y-100122569D01*
X135205874Y-99965000D01*
X134794126Y-99965000D01*
X134413720Y-100122569D01*
X134400000Y-100136289D01*
X134386280Y-100122569D01*
X134005874Y-99965000D01*
X133594126Y-99965000D01*
X133213720Y-100122569D01*
X132922569Y-100413720D01*
X132818134Y-100665850D01*
X132755078Y-100348848D01*
X132642565Y-100180460D01*
X132713327Y-100109698D01*
X132810000Y-99876309D01*
X132810000Y-99510750D01*
X132651250Y-99352000D01*
X131827000Y-99352000D01*
X131827000Y-99372000D01*
X131573000Y-99372000D01*
X131573000Y-99352000D01*
X131553000Y-99352000D01*
X131553000Y-99098000D01*
X131573000Y-99098000D01*
X131573000Y-98223750D01*
X131827000Y-98223750D01*
X131827000Y-99098000D01*
X132651250Y-99098000D01*
X132810000Y-98939250D01*
X132810000Y-98573691D01*
X132713327Y-98340302D01*
X132534699Y-98161673D01*
X132301310Y-98065000D01*
X131985750Y-98065000D01*
X131827000Y-98223750D01*
X131573000Y-98223750D01*
X131414250Y-98065000D01*
X131098690Y-98065000D01*
X130865301Y-98161673D01*
X130686673Y-98340302D01*
X130590000Y-98573691D01*
X130590000Y-98774413D01*
X130555078Y-98598848D01*
X130363247Y-98311753D01*
X130076152Y-98119922D01*
X129737500Y-98052560D01*
X129262500Y-98052560D01*
X128923848Y-98119922D01*
X128636753Y-98311753D01*
X128534356Y-98465000D01*
X128165644Y-98465000D01*
X128063247Y-98311753D01*
X127776152Y-98119922D01*
X127437500Y-98052560D01*
X126962500Y-98052560D01*
X126623848Y-98119922D01*
X126336753Y-98311753D01*
X126144922Y-98598848D01*
X126077560Y-98937500D01*
X126077560Y-99512500D01*
X126144922Y-99851152D01*
X126311197Y-100100000D01*
X126144922Y-100348848D01*
X126077560Y-100687500D01*
X126077560Y-101077759D01*
X126022440Y-101022639D01*
X126022440Y-100687500D01*
X125955078Y-100348848D01*
X125842565Y-100180460D01*
X125913327Y-100109698D01*
X126010000Y-99876309D01*
X126010000Y-99510750D01*
X125851250Y-99352000D01*
X125027000Y-99352000D01*
X125027000Y-99372000D01*
X124773000Y-99372000D01*
X124773000Y-99352000D01*
X123948750Y-99352000D01*
X123790000Y-99510750D01*
X123790000Y-99876309D01*
X123886673Y-100109698D01*
X123957435Y-100180460D01*
X123934356Y-100215000D01*
X123565644Y-100215000D01*
X123542565Y-100180460D01*
X123613327Y-100109698D01*
X123710000Y-99876309D01*
X123710000Y-99510750D01*
X123551250Y-99352000D01*
X122727000Y-99352000D01*
X122727000Y-99372000D01*
X122473000Y-99372000D01*
X122473000Y-99352000D01*
X122453000Y-99352000D01*
X122453000Y-99098000D01*
X122473000Y-99098000D01*
X122473000Y-98223750D01*
X122727000Y-98223750D01*
X122727000Y-99098000D01*
X123551250Y-99098000D01*
X123710000Y-98939250D01*
X123710000Y-98573691D01*
X123790000Y-98573691D01*
X123790000Y-98939250D01*
X123948750Y-99098000D01*
X124773000Y-99098000D01*
X124773000Y-98223750D01*
X125027000Y-98223750D01*
X125027000Y-99098000D01*
X125851250Y-99098000D01*
X126010000Y-98939250D01*
X126010000Y-98573691D01*
X125913327Y-98340302D01*
X125734699Y-98161673D01*
X125501310Y-98065000D01*
X125185750Y-98065000D01*
X125027000Y-98223750D01*
X124773000Y-98223750D01*
X124614250Y-98065000D01*
X124298690Y-98065000D01*
X124065301Y-98161673D01*
X123886673Y-98340302D01*
X123790000Y-98573691D01*
X123710000Y-98573691D01*
X123613327Y-98340302D01*
X123434699Y-98161673D01*
X123201310Y-98065000D01*
X122885750Y-98065000D01*
X122727000Y-98223750D01*
X122473000Y-98223750D01*
X122314250Y-98065000D01*
X122160000Y-98065000D01*
X122160000Y-95094801D01*
X122165161Y-95089640D01*
X122274670Y-95135000D01*
X122885330Y-95135000D01*
X123449507Y-94901310D01*
X123881310Y-94469507D01*
X123924499Y-94365240D01*
X123973002Y-94374888D01*
X124047849Y-94360000D01*
X124047854Y-94360000D01*
X124269539Y-94315904D01*
X124520931Y-94147929D01*
X124563333Y-94084470D01*
X127359473Y-91288331D01*
X127422929Y-91245931D01*
X127480950Y-91159096D01*
X127501152Y-91155078D01*
X127788247Y-90963247D01*
X127857235Y-90860000D01*
X128660246Y-90860000D01*
X128692191Y-90907809D01*
X128902235Y-91048157D01*
X129150000Y-91097440D01*
X130050000Y-91097440D01*
X130297765Y-91048157D01*
X130507809Y-90907809D01*
X130648157Y-90697765D01*
X130697440Y-90450000D01*
X130697440Y-90077362D01*
X130767004Y-90007798D01*
X130840001Y-90056573D01*
X130840000Y-90496289D01*
X130722569Y-90613720D01*
X130565000Y-90994126D01*
X130565000Y-91405874D01*
X130722569Y-91786280D01*
X131013720Y-92077431D01*
X131394126Y-92235000D01*
X131805874Y-92235000D01*
X132186280Y-92077431D01*
X132477431Y-91786280D01*
X132635000Y-91405874D01*
X132635000Y-90994126D01*
X132477431Y-90613720D01*
X132360000Y-90496289D01*
X132360000Y-90056573D01*
X132507809Y-89957809D01*
X132573163Y-89860000D01*
X132810199Y-89860000D01*
X132877560Y-89927361D01*
X132877560Y-90262500D01*
X132944922Y-90601152D01*
X133136753Y-90888247D01*
X133423848Y-91080078D01*
X133762500Y-91147440D01*
X134237500Y-91147440D01*
X134576152Y-91080078D01*
X134863247Y-90888247D01*
X135055078Y-90601152D01*
X135122440Y-90262500D01*
X135122440Y-89687500D01*
X135055078Y-89348848D01*
X134942565Y-89180460D01*
X135013327Y-89109698D01*
X135110000Y-88876309D01*
X135110000Y-88510750D01*
X134951250Y-88352000D01*
X134127000Y-88352000D01*
X134127000Y-88372000D01*
X133873000Y-88372000D01*
X133873000Y-88352000D01*
X133260180Y-88352000D01*
X133199852Y-88340000D01*
X133199847Y-88340000D01*
X133125000Y-88325112D01*
X133050153Y-88340000D01*
X132573163Y-88340000D01*
X132507809Y-88242191D01*
X132297765Y-88101843D01*
X132050000Y-88052560D01*
X131360000Y-88052560D01*
X131360000Y-87573691D01*
X132890000Y-87573691D01*
X132890000Y-87939250D01*
X133048750Y-88098000D01*
X133873000Y-88098000D01*
X133873000Y-87223750D01*
X134127000Y-87223750D01*
X134127000Y-88098000D01*
X134951250Y-88098000D01*
X135110000Y-87939250D01*
X135110000Y-87573691D01*
X135013327Y-87340302D01*
X134834699Y-87161673D01*
X134601310Y-87065000D01*
X134285750Y-87065000D01*
X134127000Y-87223750D01*
X133873000Y-87223750D01*
X133714250Y-87065000D01*
X133398690Y-87065000D01*
X133165301Y-87161673D01*
X132986673Y-87340302D01*
X132890000Y-87573691D01*
X131360000Y-87573691D01*
X131360000Y-84649846D01*
X131374888Y-84574999D01*
X131360000Y-84500152D01*
X131360000Y-84500148D01*
X131351612Y-84457979D01*
X131550000Y-84497440D01*
X133450000Y-84497440D01*
X133697765Y-84448157D01*
X133907809Y-84307809D01*
X134048157Y-84097765D01*
X134097440Y-83850000D01*
X134097440Y-83361316D01*
X134302235Y-83498157D01*
G36*
X119053587Y-92415596D02*
X119001275Y-92467908D01*
X118998157Y-92452235D01*
X118857809Y-92242191D01*
X118647765Y-92101843D01*
X118400000Y-92052560D01*
X116600000Y-92052560D01*
X116352235Y-92101843D01*
X116142191Y-92242191D01*
X116001843Y-92452235D01*
X115952560Y-92700000D01*
X115952560Y-94500000D01*
X116001843Y-94747765D01*
X116142191Y-94957809D01*
X116352235Y-95098157D01*
X116600000Y-95147440D01*
X116851518Y-95147440D01*
X116871270Y-95177000D01*
X116952072Y-95297929D01*
X117015528Y-95340329D01*
X118440000Y-96764802D01*
X118440000Y-97161978D01*
X118205874Y-97065000D01*
X117794126Y-97065000D01*
X117413720Y-97222569D01*
X117122569Y-97513720D01*
X116965000Y-97894126D01*
X116965000Y-98305874D01*
X117122569Y-98686280D01*
X117240001Y-98803712D01*
X117240000Y-101021289D01*
X117122569Y-101138720D01*
X116965000Y-101519126D01*
X116965000Y-101930874D01*
X117122569Y-102311280D01*
X117413720Y-102602431D01*
X117794126Y-102760000D01*
X118205874Y-102760000D01*
X118586280Y-102602431D01*
X118600000Y-102588711D01*
X118613720Y-102602431D01*
X118994126Y-102760000D01*
X119405874Y-102760000D01*
X119786280Y-102602431D01*
X119850000Y-102538711D01*
X119913720Y-102602431D01*
X120294126Y-102760000D01*
X120705874Y-102760000D01*
X121086280Y-102602431D01*
X121377431Y-102311280D01*
X121535000Y-101930874D01*
X121535000Y-101561636D01*
X121537378Y-101563225D01*
X121544922Y-101601152D01*
X121736753Y-101888247D01*
X122023848Y-102080078D01*
X122362500Y-102147440D01*
X122837500Y-102147440D01*
X123176152Y-102080078D01*
X123463247Y-101888247D01*
X123565644Y-101735000D01*
X123934356Y-101735000D01*
X124036753Y-101888247D01*
X124323848Y-102080078D01*
X124662500Y-102147440D01*
X124997639Y-102147440D01*
X125740001Y-102889803D01*
X125740000Y-104070299D01*
X125651843Y-104202235D01*
X125602560Y-104450000D01*
X125602560Y-105124663D01*
X125588327Y-105090302D01*
X125409699Y-104911673D01*
X125176310Y-104815000D01*
X124535750Y-104815000D01*
X124377000Y-104973750D01*
X124377000Y-105575000D01*
X124397000Y-105575000D01*
X124397000Y-105602560D01*
X123450000Y-105602560D01*
X123202235Y-105651843D01*
X123070299Y-105740000D01*
X121620820Y-105739999D01*
X121462207Y-105357074D01*
X121428824Y-105323691D01*
X122815000Y-105323691D01*
X122815000Y-105416250D01*
X122973750Y-105575000D01*
X124123000Y-105575000D01*
X124123000Y-104973750D01*
X123964250Y-104815000D01*
X123323690Y-104815000D01*
X123090301Y-104911673D01*
X122911673Y-105090302D01*
X122815000Y-105323691D01*
X121428824Y-105323691D01*
X121260000Y-105154867D01*
X121260000Y-104274846D01*
X121274888Y-104199999D01*
X121260000Y-104125152D01*
X121260000Y-104125148D01*
X121215904Y-103903463D01*
X121047929Y-103652071D01*
X120984470Y-103609669D01*
X120790331Y-103415530D01*
X120747929Y-103352071D01*
X120496537Y-103184096D01*
X120274852Y-103140000D01*
X120274847Y-103140000D01*
X120200000Y-103125112D01*
X120125153Y-103140000D01*
X119857235Y-103140000D01*
X119788247Y-103036753D01*
X119501152Y-102844922D01*
X119162500Y-102777560D01*
X118587500Y-102777560D01*
X118248848Y-102844922D01*
X118080460Y-102957435D01*
X118009698Y-102886673D01*
X117776309Y-102790000D01*
X117410750Y-102790000D01*
X117252000Y-102948750D01*
X117252000Y-103773000D01*
X117272000Y-103773000D01*
X117272000Y-104027000D01*
X117252000Y-104027000D01*
X117252000Y-104851250D01*
X117410750Y-105010000D01*
X117776309Y-105010000D01*
X118009698Y-104913327D01*
X118080460Y-104842565D01*
X118248848Y-104955078D01*
X118587500Y-105022440D01*
X119162500Y-105022440D01*
X119501152Y-104955078D01*
X119740000Y-104795484D01*
X119740001Y-105154866D01*
X119537793Y-105357074D01*
X119365000Y-105774234D01*
X119365000Y-106225766D01*
X119537793Y-106642926D01*
X119844867Y-106950000D01*
X119537793Y-107257074D01*
X119365000Y-107674234D01*
X119365000Y-108125766D01*
X119537793Y-108542926D01*
X119740000Y-108745133D01*
X119740001Y-109104516D01*
X119501152Y-108944922D01*
X119162500Y-108877560D01*
X118587500Y-108877560D01*
X118248848Y-108944922D01*
X118080460Y-109057435D01*
X118009698Y-108986673D01*
X117776309Y-108890000D01*
X117410750Y-108890000D01*
X117252000Y-109048750D01*
X117252000Y-109873000D01*
X117272000Y-109873000D01*
X117272000Y-110127000D01*
X117252000Y-110127000D01*
X117252000Y-110147000D01*
X116998000Y-110147000D01*
X116998000Y-110127000D01*
X116123750Y-110127000D01*
X115965000Y-110285750D01*
X115965000Y-110601310D01*
X115981026Y-110640000D01*
X115014802Y-110640000D01*
X113773492Y-109398690D01*
X115965000Y-109398690D01*
X115965000Y-109714250D01*
X116123750Y-109873000D01*
X116998000Y-109873000D01*
X116998000Y-109048750D01*
X116839250Y-108890000D01*
X116473691Y-108890000D01*
X116240302Y-108986673D01*
X116061673Y-109165301D01*
X115965000Y-109398690D01*
X113773492Y-109398690D01*
X113035000Y-108660199D01*
X113035000Y-104185750D01*
X115965000Y-104185750D01*
X115965000Y-104501310D01*
X116061673Y-104734699D01*
X116240302Y-104913327D01*
X116473691Y-105010000D01*
X116839250Y-105010000D01*
X116998000Y-104851250D01*
X116998000Y-104027000D01*
X116123750Y-104027000D01*
X115965000Y-104185750D01*
X113035000Y-104185750D01*
X113035000Y-103298690D01*
X115965000Y-103298690D01*
X115965000Y-103614250D01*
X116123750Y-103773000D01*
X116998000Y-103773000D01*
X116998000Y-102948750D01*
X116839250Y-102790000D01*
X116473691Y-102790000D01*
X116240302Y-102886673D01*
X116061673Y-103065301D01*
X115965000Y-103298690D01*
X113035000Y-103298690D01*
X113035000Y-100165644D01*
X113188247Y-100063247D01*
X113380078Y-99776152D01*
X113447440Y-99437500D01*
X113447440Y-98962500D01*
X113380078Y-98623848D01*
X113188247Y-98336753D01*
X113035000Y-98234356D01*
X113035000Y-97997440D01*
X113850000Y-97997440D01*
X114097765Y-97948157D01*
X114307809Y-97807809D01*
X114448157Y-97597765D01*
X114497440Y-97350000D01*
X114497440Y-96550000D01*
X114448157Y-96302235D01*
X114307809Y-96092191D01*
X114174306Y-96002987D01*
X114209698Y-95988327D01*
X114388327Y-95809699D01*
X114485000Y-95576310D01*
X114485000Y-95335750D01*
X114326250Y-95177000D01*
X113027000Y-95177000D01*
X113027000Y-95197000D01*
X112773000Y-95197000D01*
X112773000Y-95177000D01*
X111473750Y-95177000D01*
X111388219Y-95262531D01*
X111307809Y-95142191D01*
X111285000Y-95126950D01*
X111285000Y-94523690D01*
X111315000Y-94523690D01*
X111315000Y-94764250D01*
X111473750Y-94923000D01*
X112773000Y-94923000D01*
X112773000Y-94173750D01*
X113027000Y-94173750D01*
X113027000Y-94923000D01*
X114326250Y-94923000D01*
X114485000Y-94764250D01*
X114485000Y-94523690D01*
X114388327Y-94290301D01*
X114209698Y-94111673D01*
X113976309Y-94015000D01*
X113185750Y-94015000D01*
X113027000Y-94173750D01*
X112773000Y-94173750D01*
X112614250Y-94015000D01*
X111823691Y-94015000D01*
X111590302Y-94111673D01*
X111411673Y-94290301D01*
X111315000Y-94523690D01*
X111285000Y-94523690D01*
X111285000Y-93865644D01*
X111319540Y-93842565D01*
X111390302Y-93913327D01*
X111623691Y-94010000D01*
X111989250Y-94010000D01*
X112148000Y-93851250D01*
X112148000Y-93027000D01*
X112402000Y-93027000D01*
X112402000Y-93851250D01*
X112560750Y-94010000D01*
X112926309Y-94010000D01*
X113159698Y-93913327D01*
X113338327Y-93734699D01*
X113435000Y-93501310D01*
X113435000Y-93185750D01*
X113276250Y-93027000D01*
X112402000Y-93027000D01*
X112148000Y-93027000D01*
X112128000Y-93027000D01*
X112128000Y-92773000D01*
X112148000Y-92773000D01*
X112148000Y-92753000D01*
X112402000Y-92753000D01*
X112402000Y-92773000D01*
X113276250Y-92773000D01*
X113435000Y-92614250D01*
X113435000Y-92298690D01*
X113338327Y-92065301D01*
X113159698Y-91886673D01*
X113095304Y-91860000D01*
X118497991Y-91860000D01*
X119053587Y-92415596D01*
X119053587Y-92415596D01*
G37*
X119053587Y-92415596D02*
X119001275Y-92467908D01*
X118998157Y-92452235D01*
X118857809Y-92242191D01*
X118647765Y-92101843D01*
X118400000Y-92052560D01*
X116600000Y-92052560D01*
X116352235Y-92101843D01*
X116142191Y-92242191D01*
X116001843Y-92452235D01*
X115952560Y-92700000D01*
X115952560Y-94500000D01*
X116001843Y-94747765D01*
X116142191Y-94957809D01*
X116352235Y-95098157D01*
X116600000Y-95147440D01*
X116851518Y-95147440D01*
X116871270Y-95177000D01*
X116952072Y-95297929D01*
X117015528Y-95340329D01*
X118440000Y-96764802D01*
X118440000Y-97161978D01*
X118205874Y-97065000D01*
X117794126Y-97065000D01*
X117413720Y-97222569D01*
X117122569Y-97513720D01*
X116965000Y-97894126D01*
X116965000Y-98305874D01*
X117122569Y-98686280D01*
X117240001Y-98803712D01*
X117240000Y-101021289D01*
X117122569Y-101138720D01*
X116965000Y-101519126D01*
X116965000Y-101930874D01*
X117122569Y-102311280D01*
X117413720Y-102602431D01*
X117794126Y-102760000D01*
X118205874Y-102760000D01*
X118586280Y-102602431D01*
X118600000Y-102588711D01*
X118613720Y-102602431D01*
X118994126Y-102760000D01*
X119405874Y-102760000D01*
X119786280Y-102602431D01*
X119850000Y-102538711D01*
X119913720Y-102602431D01*
X120294126Y-102760000D01*
X120705874Y-102760000D01*
X121086280Y-102602431D01*
X121377431Y-102311280D01*
X121535000Y-101930874D01*
X121535000Y-101561636D01*
X121537378Y-101563225D01*
X121544922Y-101601152D01*
X121736753Y-101888247D01*
X122023848Y-102080078D01*
X122362500Y-102147440D01*
X122837500Y-102147440D01*
X123176152Y-102080078D01*
X123463247Y-101888247D01*
X123565644Y-101735000D01*
X123934356Y-101735000D01*
X124036753Y-101888247D01*
X124323848Y-102080078D01*
X124662500Y-102147440D01*
X124997639Y-102147440D01*
X125740001Y-102889803D01*
X125740000Y-104070299D01*
X125651843Y-104202235D01*
X125602560Y-104450000D01*
X125602560Y-105124663D01*
X125588327Y-105090302D01*
X125409699Y-104911673D01*
X125176310Y-104815000D01*
X124535750Y-104815000D01*
X124377000Y-104973750D01*
X124377000Y-105575000D01*
X124397000Y-105575000D01*
X124397000Y-105602560D01*
X123450000Y-105602560D01*
X123202235Y-105651843D01*
X123070299Y-105740000D01*
X121620820Y-105739999D01*
X121462207Y-105357074D01*
X121428824Y-105323691D01*
X122815000Y-105323691D01*
X122815000Y-105416250D01*
X122973750Y-105575000D01*
X124123000Y-105575000D01*
X124123000Y-104973750D01*
X123964250Y-104815000D01*
X123323690Y-104815000D01*
X123090301Y-104911673D01*
X122911673Y-105090302D01*
X122815000Y-105323691D01*
X121428824Y-105323691D01*
X121260000Y-105154867D01*
X121260000Y-104274846D01*
X121274888Y-104199999D01*
X121260000Y-104125152D01*
X121260000Y-104125148D01*
X121215904Y-103903463D01*
X121047929Y-103652071D01*
X120984470Y-103609669D01*
X120790331Y-103415530D01*
X120747929Y-103352071D01*
X120496537Y-103184096D01*
X120274852Y-103140000D01*
X120274847Y-103140000D01*
X120200000Y-103125112D01*
X120125153Y-103140000D01*
X119857235Y-103140000D01*
X119788247Y-103036753D01*
X119501152Y-102844922D01*
X119162500Y-102777560D01*
X118587500Y-102777560D01*
X118248848Y-102844922D01*
X118080460Y-102957435D01*
X118009698Y-102886673D01*
X117776309Y-102790000D01*
X117410750Y-102790000D01*
X117252000Y-102948750D01*
X117252000Y-103773000D01*
X117272000Y-103773000D01*
X117272000Y-104027000D01*
X117252000Y-104027000D01*
X117252000Y-104851250D01*
X117410750Y-105010000D01*
X117776309Y-105010000D01*
X118009698Y-104913327D01*
X118080460Y-104842565D01*
X118248848Y-104955078D01*
X118587500Y-105022440D01*
X119162500Y-105022440D01*
X119501152Y-104955078D01*
X119740000Y-104795484D01*
X119740001Y-105154866D01*
X119537793Y-105357074D01*
X119365000Y-105774234D01*
X119365000Y-106225766D01*
X119537793Y-106642926D01*
X119844867Y-106950000D01*
X119537793Y-107257074D01*
X119365000Y-107674234D01*
X119365000Y-108125766D01*
X119537793Y-108542926D01*
X119740000Y-108745133D01*
X119740001Y-109104516D01*
X119501152Y-108944922D01*
X119162500Y-108877560D01*
X118587500Y-108877560D01*
X118248848Y-108944922D01*
X118080460Y-109057435D01*
X118009698Y-108986673D01*
X117776309Y-108890000D01*
X117410750Y-108890000D01*
X117252000Y-109048750D01*
X117252000Y-109873000D01*
X117272000Y-109873000D01*
X117272000Y-110127000D01*
X117252000Y-110127000D01*
X117252000Y-110147000D01*
X116998000Y-110147000D01*
X116998000Y-110127000D01*
X116123750Y-110127000D01*
X115965000Y-110285750D01*
X115965000Y-110601310D01*
X115981026Y-110640000D01*
X115014802Y-110640000D01*
X113773492Y-109398690D01*
X115965000Y-109398690D01*
X115965000Y-109714250D01*
X116123750Y-109873000D01*
X116998000Y-109873000D01*
X116998000Y-109048750D01*
X116839250Y-108890000D01*
X116473691Y-108890000D01*
X116240302Y-108986673D01*
X116061673Y-109165301D01*
X115965000Y-109398690D01*
X113773492Y-109398690D01*
X113035000Y-108660199D01*
X113035000Y-104185750D01*
X115965000Y-104185750D01*
X115965000Y-104501310D01*
X116061673Y-104734699D01*
X116240302Y-104913327D01*
X116473691Y-105010000D01*
X116839250Y-105010000D01*
X116998000Y-104851250D01*
X116998000Y-104027000D01*
X116123750Y-104027000D01*
X115965000Y-104185750D01*
X113035000Y-104185750D01*
X113035000Y-103298690D01*
X115965000Y-103298690D01*
X115965000Y-103614250D01*
X116123750Y-103773000D01*
X116998000Y-103773000D01*
X116998000Y-102948750D01*
X116839250Y-102790000D01*
X116473691Y-102790000D01*
X116240302Y-102886673D01*
X116061673Y-103065301D01*
X115965000Y-103298690D01*
X113035000Y-103298690D01*
X113035000Y-100165644D01*
X113188247Y-100063247D01*
X113380078Y-99776152D01*
X113447440Y-99437500D01*
X113447440Y-98962500D01*
X113380078Y-98623848D01*
X113188247Y-98336753D01*
X113035000Y-98234356D01*
X113035000Y-97997440D01*
X113850000Y-97997440D01*
X114097765Y-97948157D01*
X114307809Y-97807809D01*
X114448157Y-97597765D01*
X114497440Y-97350000D01*
X114497440Y-96550000D01*
X114448157Y-96302235D01*
X114307809Y-96092191D01*
X114174306Y-96002987D01*
X114209698Y-95988327D01*
X114388327Y-95809699D01*
X114485000Y-95576310D01*
X114485000Y-95335750D01*
X114326250Y-95177000D01*
X113027000Y-95177000D01*
X113027000Y-95197000D01*
X112773000Y-95197000D01*
X112773000Y-95177000D01*
X111473750Y-95177000D01*
X111388219Y-95262531D01*
X111307809Y-95142191D01*
X111285000Y-95126950D01*
X111285000Y-94523690D01*
X111315000Y-94523690D01*
X111315000Y-94764250D01*
X111473750Y-94923000D01*
X112773000Y-94923000D01*
X112773000Y-94173750D01*
X113027000Y-94173750D01*
X113027000Y-94923000D01*
X114326250Y-94923000D01*
X114485000Y-94764250D01*
X114485000Y-94523690D01*
X114388327Y-94290301D01*
X114209698Y-94111673D01*
X113976309Y-94015000D01*
X113185750Y-94015000D01*
X113027000Y-94173750D01*
X112773000Y-94173750D01*
X112614250Y-94015000D01*
X111823691Y-94015000D01*
X111590302Y-94111673D01*
X111411673Y-94290301D01*
X111315000Y-94523690D01*
X111285000Y-94523690D01*
X111285000Y-93865644D01*
X111319540Y-93842565D01*
X111390302Y-93913327D01*
X111623691Y-94010000D01*
X111989250Y-94010000D01*
X112148000Y-93851250D01*
X112148000Y-93027000D01*
X112402000Y-93027000D01*
X112402000Y-93851250D01*
X112560750Y-94010000D01*
X112926309Y-94010000D01*
X113159698Y-93913327D01*
X113338327Y-93734699D01*
X113435000Y-93501310D01*
X113435000Y-93185750D01*
X113276250Y-93027000D01*
X112402000Y-93027000D01*
X112148000Y-93027000D01*
X112128000Y-93027000D01*
X112128000Y-92773000D01*
X112148000Y-92773000D01*
X112148000Y-92753000D01*
X112402000Y-92753000D01*
X112402000Y-92773000D01*
X113276250Y-92773000D01*
X113435000Y-92614250D01*
X113435000Y-92298690D01*
X113338327Y-92065301D01*
X113159698Y-91886673D01*
X113095304Y-91860000D01*
X118497991Y-91860000D01*
X119053587Y-92415596D01*
G36*
X111590302Y-95988327D02*
X111625694Y-96002987D01*
X111497440Y-96088684D01*
X111497440Y-95895466D01*
X111590302Y-95988327D01*
X111590302Y-95988327D01*
G37*
X111590302Y-95988327D02*
X111625694Y-96002987D01*
X111497440Y-96088684D01*
X111497440Y-95895466D01*
X111590302Y-95988327D01*
G36*
X133902560Y-82588684D02*
X133774306Y-82502987D01*
X133809698Y-82488327D01*
X133902560Y-82395466D01*
X133902560Y-82588684D01*
X133902560Y-82588684D01*
G37*
X133902560Y-82588684D02*
X133774306Y-82502987D01*
X133809698Y-82488327D01*
X133902560Y-82395466D01*
X133902560Y-82588684D01*
G04 #@! TD*
M02*
