G04 #@! TF.GenerationSoftware,KiCad,Pcbnew,5.0.2-bee76a0~70~ubuntu16.04.1*
G04 #@! TF.CreationDate,2018-12-01T12:07:59+05:30*
G04 #@! TF.ProjectId,senseBeRx_rev2,73656e73-6542-4655-9278-5f726576322e,rev?*
G04 #@! TF.SameCoordinates,Original*
G04 #@! TF.FileFunction,Legend,Top*
G04 #@! TF.FilePolarity,Positive*
%FSLAX46Y46*%
G04 Gerber Fmt 4.6, Leading zero omitted, Abs format (unit mm)*
G04 Created by KiCad (PCBNEW 5.0.2-bee76a0~70~ubuntu16.04.1) date Sat Dec  1 12:07:59 2018*
%MOMM*%
%LPD*%
G01*
G04 APERTURE LIST*
%ADD10C,0.300000*%
%ADD11C,0.010000*%
%ADD12C,0.120000*%
%ADD13C,0.150000*%
%ADD14C,0.100000*%
%ADD15C,0.127000*%
G04 APERTURE END LIST*
D10*
X123971428Y-146285714D02*
X124142857Y-146342857D01*
X124428571Y-146342857D01*
X124542857Y-146285714D01*
X124600000Y-146228571D01*
X124657142Y-146114285D01*
X124657142Y-146000000D01*
X124600000Y-145885714D01*
X124542857Y-145828571D01*
X124428571Y-145771428D01*
X124200000Y-145714285D01*
X124085714Y-145657142D01*
X124028571Y-145600000D01*
X123971428Y-145485714D01*
X123971428Y-145371428D01*
X124028571Y-145257142D01*
X124085714Y-145200000D01*
X124200000Y-145142857D01*
X124485714Y-145142857D01*
X124657142Y-145200000D01*
X125628571Y-146285714D02*
X125514285Y-146342857D01*
X125285714Y-146342857D01*
X125171428Y-146285714D01*
X125114285Y-146171428D01*
X125114285Y-145714285D01*
X125171428Y-145600000D01*
X125285714Y-145542857D01*
X125514285Y-145542857D01*
X125628571Y-145600000D01*
X125685714Y-145714285D01*
X125685714Y-145828571D01*
X125114285Y-145942857D01*
X126200000Y-145542857D02*
X126200000Y-146342857D01*
X126200000Y-145657142D02*
X126257142Y-145600000D01*
X126371428Y-145542857D01*
X126542857Y-145542857D01*
X126657142Y-145600000D01*
X126714285Y-145714285D01*
X126714285Y-146342857D01*
X127228571Y-146285714D02*
X127342857Y-146342857D01*
X127571428Y-146342857D01*
X127685714Y-146285714D01*
X127742857Y-146171428D01*
X127742857Y-146114285D01*
X127685714Y-146000000D01*
X127571428Y-145942857D01*
X127400000Y-145942857D01*
X127285714Y-145885714D01*
X127228571Y-145771428D01*
X127228571Y-145714285D01*
X127285714Y-145600000D01*
X127400000Y-145542857D01*
X127571428Y-145542857D01*
X127685714Y-145600000D01*
X128714285Y-146285714D02*
X128600000Y-146342857D01*
X128371428Y-146342857D01*
X128257142Y-146285714D01*
X128200000Y-146171428D01*
X128200000Y-145714285D01*
X128257142Y-145600000D01*
X128371428Y-145542857D01*
X128600000Y-145542857D01*
X128714285Y-145600000D01*
X128771428Y-145714285D01*
X128771428Y-145828571D01*
X128200000Y-145942857D01*
X129685714Y-145714285D02*
X129857142Y-145771428D01*
X129914285Y-145828571D01*
X129971428Y-145942857D01*
X129971428Y-146114285D01*
X129914285Y-146228571D01*
X129857142Y-146285714D01*
X129742857Y-146342857D01*
X129285714Y-146342857D01*
X129285714Y-145142857D01*
X129685714Y-145142857D01*
X129800000Y-145200000D01*
X129857142Y-145257142D01*
X129914285Y-145371428D01*
X129914285Y-145485714D01*
X129857142Y-145600000D01*
X129800000Y-145657142D01*
X129685714Y-145714285D01*
X129285714Y-145714285D01*
X130942857Y-146285714D02*
X130828571Y-146342857D01*
X130600000Y-146342857D01*
X130485714Y-146285714D01*
X130428571Y-146171428D01*
X130428571Y-145714285D01*
X130485714Y-145600000D01*
X130600000Y-145542857D01*
X130828571Y-145542857D01*
X130942857Y-145600000D01*
X131000000Y-145714285D01*
X131000000Y-145828571D01*
X130428571Y-145942857D01*
X131228571Y-146457142D02*
X132142857Y-146457142D01*
X133114285Y-146342857D02*
X132714285Y-145771428D01*
X132428571Y-146342857D02*
X132428571Y-145142857D01*
X132885714Y-145142857D01*
X133000000Y-145200000D01*
X133057142Y-145257142D01*
X133114285Y-145371428D01*
X133114285Y-145542857D01*
X133057142Y-145657142D01*
X133000000Y-145714285D01*
X132885714Y-145771428D01*
X132428571Y-145771428D01*
X133514285Y-146342857D02*
X134142857Y-145542857D01*
X133514285Y-145542857D02*
X134142857Y-146342857D01*
X134314285Y-146457142D02*
X135228571Y-146457142D01*
X135514285Y-146342857D02*
X135514285Y-145542857D01*
X135514285Y-145771428D02*
X135571428Y-145657142D01*
X135628571Y-145600000D01*
X135742857Y-145542857D01*
X135857142Y-145542857D01*
X136714285Y-146285714D02*
X136600000Y-146342857D01*
X136371428Y-146342857D01*
X136257142Y-146285714D01*
X136200000Y-146171428D01*
X136200000Y-145714285D01*
X136257142Y-145600000D01*
X136371428Y-145542857D01*
X136600000Y-145542857D01*
X136714285Y-145600000D01*
X136771428Y-145714285D01*
X136771428Y-145828571D01*
X136200000Y-145942857D01*
X137171428Y-145542857D02*
X137457142Y-146342857D01*
X137742857Y-145542857D01*
X138142857Y-145257142D02*
X138200000Y-145200000D01*
X138314285Y-145142857D01*
X138600000Y-145142857D01*
X138714285Y-145200000D01*
X138771428Y-145257142D01*
X138828571Y-145371428D01*
X138828571Y-145485714D01*
X138771428Y-145657142D01*
X138085714Y-146342857D01*
X138828571Y-146342857D01*
D11*
G04 #@! TO.C,G\002A\002A\002A*
G36*
X107403057Y-87544874D02*
X107689623Y-87688619D01*
X107777243Y-87772266D01*
X107999530Y-88145163D01*
X108115913Y-88592238D01*
X108129693Y-89069854D01*
X108044172Y-89534375D01*
X107862652Y-89942165D01*
X107589902Y-90248469D01*
X107302113Y-90409092D01*
X106932292Y-90496601D01*
X106797947Y-90511521D01*
X106290548Y-90557530D01*
X106241000Y-91677666D01*
X105934404Y-91703294D01*
X105627809Y-91728921D01*
X105582476Y-90052294D01*
X105560644Y-89439233D01*
X105531254Y-88905597D01*
X105496179Y-88475940D01*
X105457292Y-88174818D01*
X105430388Y-88058238D01*
X105363229Y-87827318D01*
X105369845Y-87786464D01*
X105470397Y-87786464D01*
X105474912Y-87939328D01*
X105576101Y-88418337D01*
X105645476Y-89057711D01*
X105682506Y-89851398D01*
X105688964Y-90386500D01*
X105690666Y-91635333D01*
X106198666Y-91635333D01*
X106198666Y-90470352D01*
X106691036Y-90434737D01*
X107185635Y-90336120D01*
X107566143Y-90116053D01*
X107843081Y-89767743D01*
X107900006Y-89654042D01*
X108044783Y-89163304D01*
X108049239Y-88670812D01*
X107918188Y-88215715D01*
X107679601Y-87861075D01*
X107466537Y-87669418D01*
X107261600Y-87585721D01*
X107067920Y-87571333D01*
X106785357Y-87617032D01*
X106527288Y-87734102D01*
X106343667Y-87892501D01*
X106283333Y-88043145D01*
X106215425Y-88150030D01*
X106156333Y-88164000D01*
X106051291Y-88094107D01*
X106029333Y-88005033D01*
X105958486Y-87800976D01*
X105783072Y-87691463D01*
X105602322Y-87699500D01*
X105470397Y-87786464D01*
X105369845Y-87786464D01*
X105383138Y-87704386D01*
X105517725Y-87638879D01*
X105678797Y-87603340D01*
X105873625Y-87583419D01*
X105979331Y-87655564D01*
X106048777Y-87808185D01*
X106119157Y-87977468D01*
X106168214Y-88001979D01*
X106231971Y-87896274D01*
X106237822Y-87884562D01*
X106431380Y-87669777D01*
X106723638Y-87539122D01*
X107064296Y-87496264D01*
X107403057Y-87544874D01*
X107403057Y-87544874D01*
G37*
X107403057Y-87544874D02*
X107689623Y-87688619D01*
X107777243Y-87772266D01*
X107999530Y-88145163D01*
X108115913Y-88592238D01*
X108129693Y-89069854D01*
X108044172Y-89534375D01*
X107862652Y-89942165D01*
X107589902Y-90248469D01*
X107302113Y-90409092D01*
X106932292Y-90496601D01*
X106797947Y-90511521D01*
X106290548Y-90557530D01*
X106241000Y-91677666D01*
X105934404Y-91703294D01*
X105627809Y-91728921D01*
X105582476Y-90052294D01*
X105560644Y-89439233D01*
X105531254Y-88905597D01*
X105496179Y-88475940D01*
X105457292Y-88174818D01*
X105430388Y-88058238D01*
X105363229Y-87827318D01*
X105369845Y-87786464D01*
X105470397Y-87786464D01*
X105474912Y-87939328D01*
X105576101Y-88418337D01*
X105645476Y-89057711D01*
X105682506Y-89851398D01*
X105688964Y-90386500D01*
X105690666Y-91635333D01*
X106198666Y-91635333D01*
X106198666Y-90470352D01*
X106691036Y-90434737D01*
X107185635Y-90336120D01*
X107566143Y-90116053D01*
X107843081Y-89767743D01*
X107900006Y-89654042D01*
X108044783Y-89163304D01*
X108049239Y-88670812D01*
X107918188Y-88215715D01*
X107679601Y-87861075D01*
X107466537Y-87669418D01*
X107261600Y-87585721D01*
X107067920Y-87571333D01*
X106785357Y-87617032D01*
X106527288Y-87734102D01*
X106343667Y-87892501D01*
X106283333Y-88043145D01*
X106215425Y-88150030D01*
X106156333Y-88164000D01*
X106051291Y-88094107D01*
X106029333Y-88005033D01*
X105958486Y-87800976D01*
X105783072Y-87691463D01*
X105602322Y-87699500D01*
X105470397Y-87786464D01*
X105369845Y-87786464D01*
X105383138Y-87704386D01*
X105517725Y-87638879D01*
X105678797Y-87603340D01*
X105873625Y-87583419D01*
X105979331Y-87655564D01*
X106048777Y-87808185D01*
X106119157Y-87977468D01*
X106168214Y-88001979D01*
X106231971Y-87896274D01*
X106237822Y-87884562D01*
X106431380Y-87669777D01*
X106723638Y-87539122D01*
X107064296Y-87496264D01*
X107403057Y-87544874D01*
G36*
X110413637Y-87519334D02*
X110740455Y-87644541D01*
X110990051Y-87894522D01*
X111161450Y-88256601D01*
X111248751Y-88689756D01*
X111246054Y-89152959D01*
X111147457Y-89605188D01*
X111054293Y-89826405D01*
X110808168Y-90138578D01*
X110448683Y-90376559D01*
X110025225Y-90512918D01*
X109779060Y-90534666D01*
X109416000Y-90534666D01*
X109416000Y-91075941D01*
X109405268Y-91393653D01*
X109367867Y-91577634D01*
X109295992Y-91662430D01*
X109282075Y-91668608D01*
X109073797Y-91713002D01*
X108856133Y-91712081D01*
X108713685Y-91666593D01*
X108710444Y-91663555D01*
X108692788Y-91564957D01*
X108677390Y-91324291D01*
X108665177Y-90968816D01*
X108657073Y-90525791D01*
X108654004Y-90022476D01*
X108654000Y-90001211D01*
X108648383Y-89383107D01*
X108632332Y-88852427D01*
X108607045Y-88432767D01*
X108573721Y-88147722D01*
X108555768Y-88067443D01*
X108494735Y-87831856D01*
X108496685Y-87819274D01*
X108593073Y-87819274D01*
X108607266Y-87971598D01*
X108642547Y-88082875D01*
X108678388Y-88276637D01*
X108706795Y-88619474D01*
X108726758Y-89091246D01*
X108737269Y-89671817D01*
X108738666Y-90002331D01*
X108738666Y-91646062D01*
X109289000Y-91593000D01*
X109339070Y-90450000D01*
X109724572Y-90450000D01*
X110040316Y-90417284D01*
X110343334Y-90336063D01*
X110405593Y-90309767D01*
X110733734Y-90078846D01*
X110969229Y-89761737D01*
X111114742Y-89387571D01*
X111172936Y-88985478D01*
X111146475Y-88584591D01*
X111038023Y-88214041D01*
X110850244Y-87902958D01*
X110585801Y-87680473D01*
X110247360Y-87575719D01*
X110155181Y-87571333D01*
X109900278Y-87618942D01*
X109656377Y-87738872D01*
X109477289Y-87896775D01*
X109416000Y-88043145D01*
X109374845Y-88141956D01*
X109277197Y-88119869D01*
X109161781Y-87996012D01*
X109103602Y-87888833D01*
X108969835Y-87698486D01*
X108798531Y-87670201D01*
X108663714Y-87732871D01*
X108593073Y-87819274D01*
X108496685Y-87819274D01*
X108514161Y-87706565D01*
X108641386Y-87641080D01*
X108806548Y-87604323D01*
X109000703Y-87585987D01*
X109104914Y-87658653D01*
X109159999Y-87777738D01*
X109246249Y-88004593D01*
X109441940Y-87777090D01*
X109703480Y-87591077D01*
X110047338Y-87503121D01*
X110413637Y-87519334D01*
X110413637Y-87519334D01*
G37*
X110413637Y-87519334D02*
X110740455Y-87644541D01*
X110990051Y-87894522D01*
X111161450Y-88256601D01*
X111248751Y-88689756D01*
X111246054Y-89152959D01*
X111147457Y-89605188D01*
X111054293Y-89826405D01*
X110808168Y-90138578D01*
X110448683Y-90376559D01*
X110025225Y-90512918D01*
X109779060Y-90534666D01*
X109416000Y-90534666D01*
X109416000Y-91075941D01*
X109405268Y-91393653D01*
X109367867Y-91577634D01*
X109295992Y-91662430D01*
X109282075Y-91668608D01*
X109073797Y-91713002D01*
X108856133Y-91712081D01*
X108713685Y-91666593D01*
X108710444Y-91663555D01*
X108692788Y-91564957D01*
X108677390Y-91324291D01*
X108665177Y-90968816D01*
X108657073Y-90525791D01*
X108654004Y-90022476D01*
X108654000Y-90001211D01*
X108648383Y-89383107D01*
X108632332Y-88852427D01*
X108607045Y-88432767D01*
X108573721Y-88147722D01*
X108555768Y-88067443D01*
X108494735Y-87831856D01*
X108496685Y-87819274D01*
X108593073Y-87819274D01*
X108607266Y-87971598D01*
X108642547Y-88082875D01*
X108678388Y-88276637D01*
X108706795Y-88619474D01*
X108726758Y-89091246D01*
X108737269Y-89671817D01*
X108738666Y-90002331D01*
X108738666Y-91646062D01*
X109289000Y-91593000D01*
X109339070Y-90450000D01*
X109724572Y-90450000D01*
X110040316Y-90417284D01*
X110343334Y-90336063D01*
X110405593Y-90309767D01*
X110733734Y-90078846D01*
X110969229Y-89761737D01*
X111114742Y-89387571D01*
X111172936Y-88985478D01*
X111146475Y-88584591D01*
X111038023Y-88214041D01*
X110850244Y-87902958D01*
X110585801Y-87680473D01*
X110247360Y-87575719D01*
X110155181Y-87571333D01*
X109900278Y-87618942D01*
X109656377Y-87738872D01*
X109477289Y-87896775D01*
X109416000Y-88043145D01*
X109374845Y-88141956D01*
X109277197Y-88119869D01*
X109161781Y-87996012D01*
X109103602Y-87888833D01*
X108969835Y-87698486D01*
X108798531Y-87670201D01*
X108663714Y-87732871D01*
X108593073Y-87819274D01*
X108496685Y-87819274D01*
X108514161Y-87706565D01*
X108641386Y-87641080D01*
X108806548Y-87604323D01*
X109000703Y-87585987D01*
X109104914Y-87658653D01*
X109159999Y-87777738D01*
X109246249Y-88004593D01*
X109441940Y-87777090D01*
X109703480Y-87591077D01*
X110047338Y-87503121D01*
X110413637Y-87519334D01*
G36*
X104439735Y-87565652D02*
X104501165Y-87578349D01*
X104928666Y-87670031D01*
X104930686Y-88530849D01*
X104939810Y-89022143D01*
X104969942Y-89407442D01*
X105029201Y-89749593D01*
X105125707Y-90111442D01*
X105141682Y-90164087D01*
X105150762Y-90297253D01*
X105050652Y-90387486D01*
X104915392Y-90441940D01*
X104687575Y-90485938D01*
X104529651Y-90409474D01*
X104398395Y-90189728D01*
X104386705Y-90162826D01*
X104313199Y-90136996D01*
X104228585Y-90213838D01*
X103986497Y-90395608D01*
X103653462Y-90503983D01*
X103297583Y-90523687D01*
X103066000Y-90474601D01*
X102766541Y-90277254D01*
X102547947Y-89945827D01*
X102419759Y-89499818D01*
X102388666Y-89090505D01*
X102390871Y-89069725D01*
X102473333Y-89069725D01*
X102494735Y-89425512D01*
X102551409Y-89726862D01*
X102598641Y-89854062D01*
X102842009Y-90180143D01*
X103152624Y-90382187D01*
X103496341Y-90446658D01*
X103839014Y-90360025D01*
X103854732Y-90351896D01*
X104048749Y-90209800D01*
X104147816Y-90101443D01*
X104283725Y-90004631D01*
X104425641Y-90016194D01*
X104503501Y-90126155D01*
X104505333Y-90152358D01*
X104575017Y-90313449D01*
X104744499Y-90384889D01*
X104896829Y-90362258D01*
X104997387Y-90313156D01*
X105036170Y-90235978D01*
X105018909Y-90084105D01*
X104960329Y-89845557D01*
X104907765Y-89553957D01*
X104867561Y-89161573D01*
X104846000Y-88736844D01*
X104844000Y-88577940D01*
X104841992Y-88176898D01*
X104817586Y-87913228D01*
X104743209Y-87755047D01*
X104591287Y-87670472D01*
X104334247Y-87627619D01*
X103997333Y-87598952D01*
X103677486Y-87581854D01*
X103461093Y-87602409D01*
X103284257Y-87672441D01*
X103152681Y-87755257D01*
X102791557Y-88066238D01*
X102574228Y-88424162D01*
X102480632Y-88867850D01*
X102473333Y-89069725D01*
X102390871Y-89069725D01*
X102448623Y-88525540D01*
X102626107Y-88081488D01*
X102917539Y-87760912D01*
X103319341Y-87566372D01*
X103827932Y-87500432D01*
X104439735Y-87565652D01*
X104439735Y-87565652D01*
G37*
X104439735Y-87565652D02*
X104501165Y-87578349D01*
X104928666Y-87670031D01*
X104930686Y-88530849D01*
X104939810Y-89022143D01*
X104969942Y-89407442D01*
X105029201Y-89749593D01*
X105125707Y-90111442D01*
X105141682Y-90164087D01*
X105150762Y-90297253D01*
X105050652Y-90387486D01*
X104915392Y-90441940D01*
X104687575Y-90485938D01*
X104529651Y-90409474D01*
X104398395Y-90189728D01*
X104386705Y-90162826D01*
X104313199Y-90136996D01*
X104228585Y-90213838D01*
X103986497Y-90395608D01*
X103653462Y-90503983D01*
X103297583Y-90523687D01*
X103066000Y-90474601D01*
X102766541Y-90277254D01*
X102547947Y-89945827D01*
X102419759Y-89499818D01*
X102388666Y-89090505D01*
X102390871Y-89069725D01*
X102473333Y-89069725D01*
X102494735Y-89425512D01*
X102551409Y-89726862D01*
X102598641Y-89854062D01*
X102842009Y-90180143D01*
X103152624Y-90382187D01*
X103496341Y-90446658D01*
X103839014Y-90360025D01*
X103854732Y-90351896D01*
X104048749Y-90209800D01*
X104147816Y-90101443D01*
X104283725Y-90004631D01*
X104425641Y-90016194D01*
X104503501Y-90126155D01*
X104505333Y-90152358D01*
X104575017Y-90313449D01*
X104744499Y-90384889D01*
X104896829Y-90362258D01*
X104997387Y-90313156D01*
X105036170Y-90235978D01*
X105018909Y-90084105D01*
X104960329Y-89845557D01*
X104907765Y-89553957D01*
X104867561Y-89161573D01*
X104846000Y-88736844D01*
X104844000Y-88577940D01*
X104841992Y-88176898D01*
X104817586Y-87913228D01*
X104743209Y-87755047D01*
X104591287Y-87670472D01*
X104334247Y-87627619D01*
X103997333Y-87598952D01*
X103677486Y-87581854D01*
X103461093Y-87602409D01*
X103284257Y-87672441D01*
X103152681Y-87755257D01*
X102791557Y-88066238D01*
X102574228Y-88424162D01*
X102480632Y-88867850D01*
X102473333Y-89069725D01*
X102390871Y-89069725D01*
X102448623Y-88525540D01*
X102626107Y-88081488D01*
X102917539Y-87760912D01*
X103319341Y-87566372D01*
X103827932Y-87500432D01*
X104439735Y-87565652D01*
G36*
X112464000Y-88722259D02*
X112465717Y-89185675D01*
X112473333Y-89507064D01*
X112490542Y-89713718D01*
X112521037Y-89832929D01*
X112568514Y-89891990D01*
X112625505Y-89915420D01*
X112783826Y-90028961D01*
X112833564Y-90213746D01*
X112757151Y-90398227D01*
X112746748Y-90409156D01*
X112527092Y-90518665D01*
X112250414Y-90503090D01*
X112083000Y-90433494D01*
X111920400Y-90317891D01*
X111851463Y-90245569D01*
X111829740Y-90132526D01*
X111811149Y-89882002D01*
X111797151Y-89525838D01*
X111789207Y-89095878D01*
X111787963Y-88862500D01*
X111786752Y-87656000D01*
X111871333Y-87656000D01*
X111871333Y-88880368D01*
X111872874Y-89362157D01*
X111880111Y-89704184D01*
X111896966Y-89936008D01*
X111927359Y-90087190D01*
X111975211Y-90187292D01*
X112044444Y-90265874D01*
X112056631Y-90277368D01*
X112292292Y-90418985D01*
X112531394Y-90438933D01*
X112694450Y-90355016D01*
X112752398Y-90211157D01*
X112701276Y-90075378D01*
X112591000Y-90026666D01*
X112509358Y-90002742D01*
X112451191Y-89915698D01*
X112412821Y-89742625D01*
X112390573Y-89460615D01*
X112380771Y-89046759D01*
X112379333Y-88707408D01*
X112379333Y-87656000D01*
X111871333Y-87656000D01*
X111786752Y-87656000D01*
X111786666Y-87571333D01*
X112464000Y-87571333D01*
X112464000Y-88722259D01*
X112464000Y-88722259D01*
G37*
X112464000Y-88722259D02*
X112465717Y-89185675D01*
X112473333Y-89507064D01*
X112490542Y-89713718D01*
X112521037Y-89832929D01*
X112568514Y-89891990D01*
X112625505Y-89915420D01*
X112783826Y-90028961D01*
X112833564Y-90213746D01*
X112757151Y-90398227D01*
X112746748Y-90409156D01*
X112527092Y-90518665D01*
X112250414Y-90503090D01*
X112083000Y-90433494D01*
X111920400Y-90317891D01*
X111851463Y-90245569D01*
X111829740Y-90132526D01*
X111811149Y-89882002D01*
X111797151Y-89525838D01*
X111789207Y-89095878D01*
X111787963Y-88862500D01*
X111786752Y-87656000D01*
X111871333Y-87656000D01*
X111871333Y-88880368D01*
X111872874Y-89362157D01*
X111880111Y-89704184D01*
X111896966Y-89936008D01*
X111927359Y-90087190D01*
X111975211Y-90187292D01*
X112044444Y-90265874D01*
X112056631Y-90277368D01*
X112292292Y-90418985D01*
X112531394Y-90438933D01*
X112694450Y-90355016D01*
X112752398Y-90211157D01*
X112701276Y-90075378D01*
X112591000Y-90026666D01*
X112509358Y-90002742D01*
X112451191Y-89915698D01*
X112412821Y-89742625D01*
X112390573Y-89460615D01*
X112380771Y-89046759D01*
X112379333Y-88707408D01*
X112379333Y-87656000D01*
X111871333Y-87656000D01*
X111786752Y-87656000D01*
X111786666Y-87571333D01*
X112464000Y-87571333D01*
X112464000Y-88722259D01*
G36*
X113882166Y-86291961D02*
X113937056Y-86353894D01*
X113970987Y-86540048D01*
X113986427Y-86868542D01*
X113988000Y-87069380D01*
X113990653Y-87428763D01*
X114002070Y-87644376D01*
X114027440Y-87741746D01*
X114071949Y-87746397D01*
X114117721Y-87707706D01*
X114340680Y-87580091D01*
X114662206Y-87509324D01*
X115017651Y-87507148D01*
X115131640Y-87523534D01*
X115434287Y-87657072D01*
X115631190Y-87914254D01*
X115710469Y-88277784D01*
X115711035Y-88367030D01*
X115678013Y-88616060D01*
X115568225Y-88807949D01*
X115401793Y-88969601D01*
X115101545Y-89229145D01*
X115440194Y-89761776D01*
X115598638Y-90035318D01*
X115703617Y-90264659D01*
X115735104Y-90405113D01*
X115732745Y-90414537D01*
X115619191Y-90503915D01*
X115416734Y-90531033D01*
X115194519Y-90494415D01*
X115062555Y-90428833D01*
X114950305Y-90304301D01*
X114793269Y-90080265D01*
X114617959Y-89801349D01*
X114450886Y-89512183D01*
X114318561Y-89257391D01*
X114247496Y-89081602D01*
X114242000Y-89047583D01*
X114311622Y-88939288D01*
X114482714Y-88820647D01*
X114517951Y-88802997D01*
X114782425Y-88633584D01*
X114933115Y-88444063D01*
X114950412Y-88264315D01*
X114913827Y-88199698D01*
X114724050Y-88088498D01*
X114482702Y-88096069D01*
X114250169Y-88214146D01*
X114163478Y-88302418D01*
X114085505Y-88420828D01*
X114034447Y-88563418D01*
X114004829Y-88766900D01*
X113991174Y-89067985D01*
X113988000Y-89478692D01*
X113984256Y-89904929D01*
X113970483Y-90190572D01*
X113942862Y-90364248D01*
X113897579Y-90454583D01*
X113854075Y-90483274D01*
X113553225Y-90524982D01*
X113331833Y-90478593D01*
X113296003Y-90422134D01*
X113268631Y-90274817D01*
X113248896Y-90020907D01*
X113235977Y-89644669D01*
X113229053Y-89130367D01*
X113227296Y-88474444D01*
X113229734Y-88010324D01*
X113310655Y-88010324D01*
X113310666Y-88401231D01*
X113313199Y-88957747D01*
X113320299Y-89456986D01*
X113331220Y-89874249D01*
X113345215Y-90184836D01*
X113361538Y-90364048D01*
X113370998Y-90397442D01*
X113492925Y-90434526D01*
X113646164Y-90432720D01*
X113736395Y-90417286D01*
X113798308Y-90376744D01*
X113838910Y-90282392D01*
X113865207Y-90105528D01*
X113884205Y-89817453D01*
X113902909Y-89389464D01*
X113903333Y-89379173D01*
X113933398Y-88860113D01*
X113981860Y-88487157D01*
X114060181Y-88237221D01*
X114179824Y-88087218D01*
X114352254Y-88014062D01*
X114588934Y-87994667D01*
X114590810Y-87994666D01*
X114858353Y-88051063D01*
X115011169Y-88195253D01*
X115048434Y-88389730D01*
X114969328Y-88596991D01*
X114773027Y-88779533D01*
X114609718Y-88857664D01*
X114422549Y-88940829D01*
X114329082Y-89012698D01*
X114326666Y-89021607D01*
X114367913Y-89125387D01*
X114474830Y-89328859D01*
X114622184Y-89588851D01*
X114784743Y-89862189D01*
X114937271Y-90105701D01*
X115054537Y-90276214D01*
X115074928Y-90301833D01*
X115201757Y-90383462D01*
X115386432Y-90439187D01*
X115564691Y-90458013D01*
X115672270Y-90428944D01*
X115681333Y-90405591D01*
X115639281Y-90317640D01*
X115528164Y-90125960D01*
X115370540Y-89869226D01*
X115342666Y-89824942D01*
X115178929Y-89555550D01*
X115058705Y-89338434D01*
X115004922Y-89215369D01*
X115004000Y-89207939D01*
X115066151Y-89109582D01*
X115219840Y-88968696D01*
X115262255Y-88936241D01*
X115531050Y-88661820D01*
X115639020Y-88360537D01*
X115588821Y-88060393D01*
X115388718Y-87773005D01*
X115097572Y-87608000D01*
X114749344Y-87573540D01*
X114377999Y-87677782D01*
X114260625Y-87741284D01*
X114109870Y-87826075D01*
X114009615Y-87845969D01*
X113948040Y-87778374D01*
X113913330Y-87600701D01*
X113893667Y-87290359D01*
X113883836Y-87021000D01*
X113869051Y-86684601D01*
X113846303Y-86484852D01*
X113805964Y-86389079D01*
X113738404Y-86364605D01*
X113691666Y-86368855D01*
X113570726Y-86388046D01*
X113478523Y-86418828D01*
X113411160Y-86481976D01*
X113364744Y-86598264D01*
X113335380Y-86788469D01*
X113319174Y-87073363D01*
X113312230Y-87473724D01*
X113310655Y-88010324D01*
X113229734Y-88010324D01*
X113230254Y-87911499D01*
X113237841Y-87403251D01*
X113249282Y-86974829D01*
X113263803Y-86651363D01*
X113280627Y-86457985D01*
X113290796Y-86415835D01*
X113425197Y-86334420D01*
X113662823Y-86290780D01*
X113882166Y-86291961D01*
X113882166Y-86291961D01*
G37*
X113882166Y-86291961D02*
X113937056Y-86353894D01*
X113970987Y-86540048D01*
X113986427Y-86868542D01*
X113988000Y-87069380D01*
X113990653Y-87428763D01*
X114002070Y-87644376D01*
X114027440Y-87741746D01*
X114071949Y-87746397D01*
X114117721Y-87707706D01*
X114340680Y-87580091D01*
X114662206Y-87509324D01*
X115017651Y-87507148D01*
X115131640Y-87523534D01*
X115434287Y-87657072D01*
X115631190Y-87914254D01*
X115710469Y-88277784D01*
X115711035Y-88367030D01*
X115678013Y-88616060D01*
X115568225Y-88807949D01*
X115401793Y-88969601D01*
X115101545Y-89229145D01*
X115440194Y-89761776D01*
X115598638Y-90035318D01*
X115703617Y-90264659D01*
X115735104Y-90405113D01*
X115732745Y-90414537D01*
X115619191Y-90503915D01*
X115416734Y-90531033D01*
X115194519Y-90494415D01*
X115062555Y-90428833D01*
X114950305Y-90304301D01*
X114793269Y-90080265D01*
X114617959Y-89801349D01*
X114450886Y-89512183D01*
X114318561Y-89257391D01*
X114247496Y-89081602D01*
X114242000Y-89047583D01*
X114311622Y-88939288D01*
X114482714Y-88820647D01*
X114517951Y-88802997D01*
X114782425Y-88633584D01*
X114933115Y-88444063D01*
X114950412Y-88264315D01*
X114913827Y-88199698D01*
X114724050Y-88088498D01*
X114482702Y-88096069D01*
X114250169Y-88214146D01*
X114163478Y-88302418D01*
X114085505Y-88420828D01*
X114034447Y-88563418D01*
X114004829Y-88766900D01*
X113991174Y-89067985D01*
X113988000Y-89478692D01*
X113984256Y-89904929D01*
X113970483Y-90190572D01*
X113942862Y-90364248D01*
X113897579Y-90454583D01*
X113854075Y-90483274D01*
X113553225Y-90524982D01*
X113331833Y-90478593D01*
X113296003Y-90422134D01*
X113268631Y-90274817D01*
X113248896Y-90020907D01*
X113235977Y-89644669D01*
X113229053Y-89130367D01*
X113227296Y-88474444D01*
X113229734Y-88010324D01*
X113310655Y-88010324D01*
X113310666Y-88401231D01*
X113313199Y-88957747D01*
X113320299Y-89456986D01*
X113331220Y-89874249D01*
X113345215Y-90184836D01*
X113361538Y-90364048D01*
X113370998Y-90397442D01*
X113492925Y-90434526D01*
X113646164Y-90432720D01*
X113736395Y-90417286D01*
X113798308Y-90376744D01*
X113838910Y-90282392D01*
X113865207Y-90105528D01*
X113884205Y-89817453D01*
X113902909Y-89389464D01*
X113903333Y-89379173D01*
X113933398Y-88860113D01*
X113981860Y-88487157D01*
X114060181Y-88237221D01*
X114179824Y-88087218D01*
X114352254Y-88014062D01*
X114588934Y-87994667D01*
X114590810Y-87994666D01*
X114858353Y-88051063D01*
X115011169Y-88195253D01*
X115048434Y-88389730D01*
X114969328Y-88596991D01*
X114773027Y-88779533D01*
X114609718Y-88857664D01*
X114422549Y-88940829D01*
X114329082Y-89012698D01*
X114326666Y-89021607D01*
X114367913Y-89125387D01*
X114474830Y-89328859D01*
X114622184Y-89588851D01*
X114784743Y-89862189D01*
X114937271Y-90105701D01*
X115054537Y-90276214D01*
X115074928Y-90301833D01*
X115201757Y-90383462D01*
X115386432Y-90439187D01*
X115564691Y-90458013D01*
X115672270Y-90428944D01*
X115681333Y-90405591D01*
X115639281Y-90317640D01*
X115528164Y-90125960D01*
X115370540Y-89869226D01*
X115342666Y-89824942D01*
X115178929Y-89555550D01*
X115058705Y-89338434D01*
X115004922Y-89215369D01*
X115004000Y-89207939D01*
X115066151Y-89109582D01*
X115219840Y-88968696D01*
X115262255Y-88936241D01*
X115531050Y-88661820D01*
X115639020Y-88360537D01*
X115588821Y-88060393D01*
X115388718Y-87773005D01*
X115097572Y-87608000D01*
X114749344Y-87573540D01*
X114377999Y-87677782D01*
X114260625Y-87741284D01*
X114109870Y-87826075D01*
X114009615Y-87845969D01*
X113948040Y-87778374D01*
X113913330Y-87600701D01*
X113893667Y-87290359D01*
X113883836Y-87021000D01*
X113869051Y-86684601D01*
X113846303Y-86484852D01*
X113805964Y-86389079D01*
X113738404Y-86364605D01*
X113691666Y-86368855D01*
X113570726Y-86388046D01*
X113478523Y-86418828D01*
X113411160Y-86481976D01*
X113364744Y-86598264D01*
X113335380Y-86788469D01*
X113319174Y-87073363D01*
X113312230Y-87473724D01*
X113310655Y-88010324D01*
X113229734Y-88010324D01*
X113230254Y-87911499D01*
X113237841Y-87403251D01*
X113249282Y-86974829D01*
X113263803Y-86651363D01*
X113280627Y-86457985D01*
X113290796Y-86415835D01*
X113425197Y-86334420D01*
X113662823Y-86290780D01*
X113882166Y-86291961D01*
G36*
X117709786Y-87532087D02*
X118077542Y-87672309D01*
X118336850Y-87934729D01*
X118493879Y-88326219D01*
X118554801Y-88853651D01*
X118555933Y-88986780D01*
X118502407Y-89543920D01*
X118346944Y-89968687D01*
X118083919Y-90267985D01*
X117707709Y-90448714D01*
X117312304Y-90513180D01*
X116946541Y-90513141D01*
X116667813Y-90448197D01*
X116528000Y-90382087D01*
X116262943Y-90146204D01*
X116077923Y-89799741D01*
X115973856Y-89381828D01*
X115966710Y-89236863D01*
X116035373Y-89236863D01*
X116118227Y-89659482D01*
X116295846Y-90021745D01*
X116557023Y-90275900D01*
X116917408Y-90416791D01*
X117330597Y-90441553D01*
X117725892Y-90349901D01*
X117862273Y-90281124D01*
X118175732Y-90024090D01*
X118371547Y-89693046D01*
X118463576Y-89258684D01*
X118475016Y-88985295D01*
X118441815Y-88505782D01*
X118331851Y-88147441D01*
X118130491Y-87873922D01*
X117976707Y-87747341D01*
X117652886Y-87607985D01*
X117260946Y-87570919D01*
X116867887Y-87636373D01*
X116628910Y-87742732D01*
X116344053Y-88006823D01*
X116149421Y-88370538D01*
X116046149Y-88793883D01*
X116035373Y-89236863D01*
X115966710Y-89236863D01*
X115951660Y-88931599D01*
X116012252Y-88488184D01*
X116156548Y-88090715D01*
X116385466Y-87778325D01*
X116465411Y-87711013D01*
X116735318Y-87581410D01*
X117127186Y-87514168D01*
X117227411Y-87507191D01*
X117709786Y-87532087D01*
X117709786Y-87532087D01*
G37*
X117709786Y-87532087D02*
X118077542Y-87672309D01*
X118336850Y-87934729D01*
X118493879Y-88326219D01*
X118554801Y-88853651D01*
X118555933Y-88986780D01*
X118502407Y-89543920D01*
X118346944Y-89968687D01*
X118083919Y-90267985D01*
X117707709Y-90448714D01*
X117312304Y-90513180D01*
X116946541Y-90513141D01*
X116667813Y-90448197D01*
X116528000Y-90382087D01*
X116262943Y-90146204D01*
X116077923Y-89799741D01*
X115973856Y-89381828D01*
X115966710Y-89236863D01*
X116035373Y-89236863D01*
X116118227Y-89659482D01*
X116295846Y-90021745D01*
X116557023Y-90275900D01*
X116917408Y-90416791D01*
X117330597Y-90441553D01*
X117725892Y-90349901D01*
X117862273Y-90281124D01*
X118175732Y-90024090D01*
X118371547Y-89693046D01*
X118463576Y-89258684D01*
X118475016Y-88985295D01*
X118441815Y-88505782D01*
X118331851Y-88147441D01*
X118130491Y-87873922D01*
X117976707Y-87747341D01*
X117652886Y-87607985D01*
X117260946Y-87570919D01*
X116867887Y-87636373D01*
X116628910Y-87742732D01*
X116344053Y-88006823D01*
X116149421Y-88370538D01*
X116046149Y-88793883D01*
X116035373Y-89236863D01*
X115966710Y-89236863D01*
X115951660Y-88931599D01*
X116012252Y-88488184D01*
X116156548Y-88090715D01*
X116385466Y-87778325D01*
X116465411Y-87711013D01*
X116735318Y-87581410D01*
X117127186Y-87514168D01*
X117227411Y-87507191D01*
X117709786Y-87532087D01*
G36*
X112373552Y-86342142D02*
X112525897Y-86518140D01*
X112557747Y-86754459D01*
X112483022Y-86950787D01*
X112329235Y-87061064D01*
X112100544Y-87107644D01*
X111884180Y-87075667D01*
X111850166Y-87058598D01*
X111739898Y-86907120D01*
X111706655Y-86689455D01*
X111810173Y-86689455D01*
X111842503Y-86891151D01*
X111872245Y-86937432D01*
X112009091Y-87047992D01*
X112172502Y-87035250D01*
X112300232Y-86975687D01*
X112437168Y-86829488D01*
X112454484Y-86643329D01*
X112376009Y-86467228D01*
X112225573Y-86351205D01*
X112027002Y-86345280D01*
X112003735Y-86353309D01*
X111870117Y-86482632D01*
X111810173Y-86689455D01*
X111706655Y-86689455D01*
X111704755Y-86677018D01*
X111752781Y-86445148D01*
X111780514Y-86393055D01*
X111912171Y-86308676D01*
X112123079Y-86273115D01*
X112125333Y-86273111D01*
X112373552Y-86342142D01*
X112373552Y-86342142D01*
G37*
X112373552Y-86342142D02*
X112525897Y-86518140D01*
X112557747Y-86754459D01*
X112483022Y-86950787D01*
X112329235Y-87061064D01*
X112100544Y-87107644D01*
X111884180Y-87075667D01*
X111850166Y-87058598D01*
X111739898Y-86907120D01*
X111706655Y-86689455D01*
X111810173Y-86689455D01*
X111842503Y-86891151D01*
X111872245Y-86937432D01*
X112009091Y-87047992D01*
X112172502Y-87035250D01*
X112300232Y-86975687D01*
X112437168Y-86829488D01*
X112454484Y-86643329D01*
X112376009Y-86467228D01*
X112225573Y-86351205D01*
X112027002Y-86345280D01*
X112003735Y-86353309D01*
X111870117Y-86482632D01*
X111810173Y-86689455D01*
X111706655Y-86689455D01*
X111704755Y-86677018D01*
X111752781Y-86445148D01*
X111780514Y-86393055D01*
X111912171Y-86308676D01*
X112123079Y-86273115D01*
X112125333Y-86273111D01*
X112373552Y-86342142D01*
G36*
X107107718Y-88017084D02*
X107250989Y-88098254D01*
X107345152Y-88284192D01*
X107413918Y-88604529D01*
X107425319Y-88678019D01*
X107438651Y-89049421D01*
X107382898Y-89424137D01*
X107271424Y-89739884D01*
X107164048Y-89895856D01*
X106980711Y-89986849D01*
X106696155Y-90026207D01*
X106659898Y-90026666D01*
X106422072Y-90014709D01*
X106299670Y-89960668D01*
X106239431Y-89837289D01*
X106231544Y-89807471D01*
X106212807Y-89610246D01*
X106282232Y-89610246D01*
X106311766Y-89809306D01*
X106431633Y-89913887D01*
X106640940Y-89944904D01*
X106878267Y-89905703D01*
X107082196Y-89799631D01*
X107118653Y-89765340D01*
X107250199Y-89556292D01*
X107337560Y-89299067D01*
X107338205Y-89295670D01*
X107362054Y-88999095D01*
X107340457Y-88676782D01*
X107282281Y-88387823D01*
X107196397Y-88191310D01*
X107167789Y-88160228D01*
X106962835Y-88085842D01*
X106739997Y-88154490D01*
X106541493Y-88350901D01*
X106512381Y-88397309D01*
X106418594Y-88633164D01*
X106343034Y-88955736D01*
X106294611Y-89302328D01*
X106282232Y-89610246D01*
X106212807Y-89610246D01*
X106202484Y-89501595D01*
X106229282Y-89113186D01*
X106302130Y-88715795D01*
X106411219Y-88382971D01*
X106425618Y-88352215D01*
X106553015Y-88140879D01*
X106702630Y-88042550D01*
X106891629Y-88011052D01*
X107107718Y-88017084D01*
X107107718Y-88017084D01*
G37*
X107107718Y-88017084D02*
X107250989Y-88098254D01*
X107345152Y-88284192D01*
X107413918Y-88604529D01*
X107425319Y-88678019D01*
X107438651Y-89049421D01*
X107382898Y-89424137D01*
X107271424Y-89739884D01*
X107164048Y-89895856D01*
X106980711Y-89986849D01*
X106696155Y-90026207D01*
X106659898Y-90026666D01*
X106422072Y-90014709D01*
X106299670Y-89960668D01*
X106239431Y-89837289D01*
X106231544Y-89807471D01*
X106212807Y-89610246D01*
X106282232Y-89610246D01*
X106311766Y-89809306D01*
X106431633Y-89913887D01*
X106640940Y-89944904D01*
X106878267Y-89905703D01*
X107082196Y-89799631D01*
X107118653Y-89765340D01*
X107250199Y-89556292D01*
X107337560Y-89299067D01*
X107338205Y-89295670D01*
X107362054Y-88999095D01*
X107340457Y-88676782D01*
X107282281Y-88387823D01*
X107196397Y-88191310D01*
X107167789Y-88160228D01*
X106962835Y-88085842D01*
X106739997Y-88154490D01*
X106541493Y-88350901D01*
X106512381Y-88397309D01*
X106418594Y-88633164D01*
X106343034Y-88955736D01*
X106294611Y-89302328D01*
X106282232Y-89610246D01*
X106212807Y-89610246D01*
X106202484Y-89501595D01*
X106229282Y-89113186D01*
X106302130Y-88715795D01*
X106411219Y-88382971D01*
X106425618Y-88352215D01*
X106553015Y-88140879D01*
X106702630Y-88042550D01*
X106891629Y-88011052D01*
X107107718Y-88017084D01*
G36*
X110246205Y-88023056D02*
X110395988Y-88118209D01*
X110486669Y-88319772D01*
X110531274Y-88651006D01*
X110541550Y-88934753D01*
X110518248Y-89386984D01*
X110422847Y-89700606D01*
X110241529Y-89895997D01*
X109960474Y-89993535D01*
X109812396Y-90010026D01*
X109570691Y-90017054D01*
X109445234Y-89981119D01*
X109384122Y-89879230D01*
X109365347Y-89811998D01*
X109345956Y-89610205D01*
X109414909Y-89610205D01*
X109444433Y-89809306D01*
X109566384Y-89920795D01*
X109775166Y-89946307D01*
X110015117Y-89891354D01*
X110230577Y-89761450D01*
X110264813Y-89728048D01*
X110373426Y-89589431D01*
X110433000Y-89430682D01*
X110456092Y-89198943D01*
X110456664Y-88920573D01*
X110436782Y-88588865D01*
X110393407Y-88328945D01*
X110341173Y-88198910D01*
X110160413Y-88093344D01*
X109943063Y-88122626D01*
X109734971Y-88273691D01*
X109644901Y-88397309D01*
X109551183Y-88633179D01*
X109475678Y-88955742D01*
X109427287Y-89302313D01*
X109414909Y-89610205D01*
X109345956Y-89610205D01*
X109335569Y-89502126D01*
X109362347Y-89110408D01*
X109435906Y-88710796D01*
X109546472Y-88377246D01*
X109558285Y-88352215D01*
X109685682Y-88140879D01*
X109835297Y-88042550D01*
X110024295Y-88011052D01*
X110246205Y-88023056D01*
X110246205Y-88023056D01*
G37*
X110246205Y-88023056D02*
X110395988Y-88118209D01*
X110486669Y-88319772D01*
X110531274Y-88651006D01*
X110541550Y-88934753D01*
X110518248Y-89386984D01*
X110422847Y-89700606D01*
X110241529Y-89895997D01*
X109960474Y-89993535D01*
X109812396Y-90010026D01*
X109570691Y-90017054D01*
X109445234Y-89981119D01*
X109384122Y-89879230D01*
X109365347Y-89811998D01*
X109345956Y-89610205D01*
X109414909Y-89610205D01*
X109444433Y-89809306D01*
X109566384Y-89920795D01*
X109775166Y-89946307D01*
X110015117Y-89891354D01*
X110230577Y-89761450D01*
X110264813Y-89728048D01*
X110373426Y-89589431D01*
X110433000Y-89430682D01*
X110456092Y-89198943D01*
X110456664Y-88920573D01*
X110436782Y-88588865D01*
X110393407Y-88328945D01*
X110341173Y-88198910D01*
X110160413Y-88093344D01*
X109943063Y-88122626D01*
X109734971Y-88273691D01*
X109644901Y-88397309D01*
X109551183Y-88633179D01*
X109475678Y-88955742D01*
X109427287Y-89302313D01*
X109414909Y-89610205D01*
X109345956Y-89610205D01*
X109335569Y-89502126D01*
X109362347Y-89110408D01*
X109435906Y-88710796D01*
X109546472Y-88377246D01*
X109558285Y-88352215D01*
X109685682Y-88140879D01*
X109835297Y-88042550D01*
X110024295Y-88011052D01*
X110246205Y-88023056D01*
G36*
X104238590Y-88750601D02*
X104214657Y-89151466D01*
X104174215Y-89426898D01*
X104108152Y-89620634D01*
X104031295Y-89745434D01*
X103818345Y-89933283D01*
X103569724Y-90013810D01*
X103339067Y-89977293D01*
X103228121Y-89891027D01*
X103151548Y-89703570D01*
X103110231Y-89405368D01*
X103103173Y-89051085D01*
X103103335Y-89048876D01*
X103193000Y-89048876D01*
X103224193Y-89490250D01*
X103314023Y-89787726D01*
X103456868Y-89936079D01*
X103647104Y-89930084D01*
X103879107Y-89764515D01*
X103919074Y-89723562D01*
X104023715Y-89590314D01*
X104089590Y-89432203D01*
X104128267Y-89203410D01*
X104151313Y-88858115D01*
X104154188Y-88792229D01*
X104184043Y-88079333D01*
X103849810Y-88079333D01*
X103558215Y-88115288D01*
X103362393Y-88237970D01*
X103247287Y-88469603D01*
X103197841Y-88832413D01*
X103193000Y-89048876D01*
X103103335Y-89048876D01*
X103129382Y-88695386D01*
X103187862Y-88392933D01*
X103258451Y-88224132D01*
X103373221Y-88084334D01*
X103518029Y-88016137D01*
X103754110Y-87995311D01*
X103838375Y-87994666D01*
X104268181Y-87994666D01*
X104238590Y-88750601D01*
X104238590Y-88750601D01*
G37*
X104238590Y-88750601D02*
X104214657Y-89151466D01*
X104174215Y-89426898D01*
X104108152Y-89620634D01*
X104031295Y-89745434D01*
X103818345Y-89933283D01*
X103569724Y-90013810D01*
X103339067Y-89977293D01*
X103228121Y-89891027D01*
X103151548Y-89703570D01*
X103110231Y-89405368D01*
X103103173Y-89051085D01*
X103103335Y-89048876D01*
X103193000Y-89048876D01*
X103224193Y-89490250D01*
X103314023Y-89787726D01*
X103456868Y-89936079D01*
X103647104Y-89930084D01*
X103879107Y-89764515D01*
X103919074Y-89723562D01*
X104023715Y-89590314D01*
X104089590Y-89432203D01*
X104128267Y-89203410D01*
X104151313Y-88858115D01*
X104154188Y-88792229D01*
X104184043Y-88079333D01*
X103849810Y-88079333D01*
X103558215Y-88115288D01*
X103362393Y-88237970D01*
X103247287Y-88469603D01*
X103197841Y-88832413D01*
X103193000Y-89048876D01*
X103103335Y-89048876D01*
X103129382Y-88695386D01*
X103187862Y-88392933D01*
X103258451Y-88224132D01*
X103373221Y-88084334D01*
X103518029Y-88016137D01*
X103754110Y-87995311D01*
X103838375Y-87994666D01*
X104268181Y-87994666D01*
X104238590Y-88750601D01*
G36*
X104505333Y-89899666D02*
X104463000Y-89942000D01*
X104420666Y-89899666D01*
X104463000Y-89857333D01*
X104505333Y-89899666D01*
X104505333Y-89899666D01*
G37*
X104505333Y-89899666D02*
X104463000Y-89942000D01*
X104420666Y-89899666D01*
X104463000Y-89857333D01*
X104505333Y-89899666D01*
G36*
X117539914Y-88058463D02*
X117742887Y-88252763D01*
X117854506Y-88581929D01*
X117876789Y-89050323D01*
X117856832Y-89321177D01*
X117799833Y-89674849D01*
X117701777Y-89890187D01*
X117538040Y-89997392D01*
X117283996Y-90026665D01*
X117281584Y-90026666D01*
X117032262Y-89997706D01*
X116871312Y-89887341D01*
X116808853Y-89803257D01*
X116710476Y-89559845D01*
X116666278Y-89197548D01*
X116665001Y-89134842D01*
X116738462Y-89134842D01*
X116780266Y-89468279D01*
X116870427Y-89719898D01*
X116908408Y-89772013D01*
X117129560Y-89911168D01*
X117379984Y-89920994D01*
X117599371Y-89807981D01*
X117688987Y-89688000D01*
X117778437Y-89393662D01*
X117801960Y-89040937D01*
X117765738Y-88683199D01*
X117675953Y-88373820D01*
X117538787Y-88166173D01*
X117510158Y-88144129D01*
X117279938Y-88081894D01*
X117033534Y-88150836D01*
X116904690Y-88253428D01*
X116800525Y-88466437D01*
X116745165Y-88780568D01*
X116738462Y-89134842D01*
X116665001Y-89134842D01*
X116662470Y-89010666D01*
X116693383Y-88552512D01*
X116791260Y-88239505D01*
X116963812Y-88058167D01*
X117218749Y-87995016D01*
X117243570Y-87994666D01*
X117539914Y-88058463D01*
X117539914Y-88058463D01*
G37*
X117539914Y-88058463D02*
X117742887Y-88252763D01*
X117854506Y-88581929D01*
X117876789Y-89050323D01*
X117856832Y-89321177D01*
X117799833Y-89674849D01*
X117701777Y-89890187D01*
X117538040Y-89997392D01*
X117283996Y-90026665D01*
X117281584Y-90026666D01*
X117032262Y-89997706D01*
X116871312Y-89887341D01*
X116808853Y-89803257D01*
X116710476Y-89559845D01*
X116666278Y-89197548D01*
X116665001Y-89134842D01*
X116738462Y-89134842D01*
X116780266Y-89468279D01*
X116870427Y-89719898D01*
X116908408Y-89772013D01*
X117129560Y-89911168D01*
X117379984Y-89920994D01*
X117599371Y-89807981D01*
X117688987Y-89688000D01*
X117778437Y-89393662D01*
X117801960Y-89040937D01*
X117765738Y-88683199D01*
X117675953Y-88373820D01*
X117538787Y-88166173D01*
X117510158Y-88144129D01*
X117279938Y-88081894D01*
X117033534Y-88150836D01*
X116904690Y-88253428D01*
X116800525Y-88466437D01*
X116745165Y-88780568D01*
X116738462Y-89134842D01*
X116665001Y-89134842D01*
X116662470Y-89010666D01*
X116693383Y-88552512D01*
X116791260Y-88239505D01*
X116963812Y-88058167D01*
X117218749Y-87995016D01*
X117243570Y-87994666D01*
X117539914Y-88058463D01*
D12*
G04 #@! TO.C,J1*
X109450000Y-120600000D02*
X109450000Y-119200000D01*
X111000000Y-120600000D02*
X111000000Y-119200000D01*
X110550000Y-126800000D02*
X100025000Y-126800000D01*
X111000000Y-120600000D02*
X112125000Y-120600000D01*
X107050000Y-120600000D02*
X109450000Y-120600000D01*
X104050000Y-120600000D02*
X105400000Y-120600000D01*
X100025000Y-120600000D02*
X102400000Y-120600000D01*
X112125000Y-126800000D02*
X112125000Y-120600000D01*
X100025000Y-120600000D02*
X100025000Y-121200000D01*
X100025000Y-126200000D02*
X100025000Y-126800000D01*
X98025000Y-121200000D02*
X98025000Y-126200000D01*
X100025000Y-121200000D02*
X98025000Y-121200000D01*
X100025000Y-126200000D02*
X98025000Y-126200000D01*
G04 #@! TO.C,R9*
X111571267Y-99710000D02*
X111228733Y-99710000D01*
X111571267Y-98690000D02*
X111228733Y-98690000D01*
G04 #@! TO.C,D1*
X117500000Y-136200000D02*
X117500000Y-135400000D01*
X117499956Y-135400000D02*
X121950000Y-135400000D01*
X118050000Y-138400000D02*
X121950000Y-138400000D01*
G04 #@! TO.C,D2*
X117040000Y-82499538D02*
G75*
G03X122590000Y-84044830I2990000J-462D01*
G01*
X117040000Y-82500462D02*
G75*
G02X122590000Y-80955170I2990000J462D01*
G01*
X122530000Y-82500000D02*
G75*
G03X122530000Y-82500000I-2500000J0D01*
G01*
X122590000Y-84045000D02*
X122590000Y-80955000D01*
G04 #@! TO.C,Q1*
X134760000Y-84080000D02*
X134760000Y-83150000D01*
X134760000Y-80920000D02*
X134760000Y-81850000D01*
X134760000Y-80920000D02*
X131600000Y-80920000D01*
X134760000Y-84080000D02*
X133300000Y-84080000D01*
G04 #@! TO.C,Q2*
X109760000Y-140880000D02*
X109760000Y-139950000D01*
X109760000Y-137720000D02*
X109760000Y-138650000D01*
X109760000Y-137720000D02*
X106600000Y-137720000D01*
X109760000Y-140880000D02*
X108300000Y-140880000D01*
G04 #@! TO.C,Q3*
X109760000Y-136480000D02*
X108300000Y-136480000D01*
X109760000Y-133320000D02*
X106600000Y-133320000D01*
X109760000Y-133320000D02*
X109760000Y-134250000D01*
X109760000Y-136480000D02*
X109760000Y-135550000D01*
D13*
G04 #@! TO.C,U1*
X136750000Y-115000000D02*
X136750000Y-105000000D01*
X140000000Y-105000000D02*
X140000000Y-115000000D01*
X133319400Y-104996200D02*
X135072000Y-104996200D01*
X139999600Y-104996200D02*
X136748400Y-104996200D01*
X124023000Y-104996200D02*
X125953400Y-104996200D01*
X123997600Y-115003800D02*
X125267600Y-115003800D01*
X139999600Y-115003800D02*
X136748400Y-115003800D01*
D12*
G04 #@! TO.C,C1*
X132210000Y-99928733D02*
X132210000Y-100271267D01*
X131190000Y-99928733D02*
X131190000Y-100271267D01*
G04 #@! TO.C,C4*
X122090000Y-99928733D02*
X122090000Y-100271267D01*
X123110000Y-99928733D02*
X123110000Y-100271267D01*
G04 #@! TO.C,C5*
X117828733Y-104410000D02*
X118171267Y-104410000D01*
X117828733Y-103390000D02*
X118171267Y-103390000D01*
G04 #@! TO.C,C6*
X125410000Y-99928733D02*
X125410000Y-100271267D01*
X124390000Y-99928733D02*
X124390000Y-100271267D01*
G04 #@! TO.C,C7*
X117828733Y-110510000D02*
X118171267Y-110510000D01*
X117828733Y-109490000D02*
X118171267Y-109490000D01*
G04 #@! TO.C,C8*
X128890000Y-82671267D02*
X128890000Y-82328733D01*
X129910000Y-82671267D02*
X129910000Y-82328733D01*
G04 #@! TO.C,R1*
X105410000Y-139128733D02*
X105410000Y-139471267D01*
X104390000Y-139128733D02*
X104390000Y-139471267D01*
G04 #@! TO.C,R2*
X113510000Y-135071267D02*
X113510000Y-134728733D01*
X112490000Y-135071267D02*
X112490000Y-134728733D01*
G04 #@! TO.C,R3*
X112490000Y-139471267D02*
X112490000Y-139128733D01*
X113510000Y-139471267D02*
X113510000Y-139128733D01*
G04 #@! TO.C,R4*
X104390000Y-134728733D02*
X104390000Y-135071267D01*
X105410000Y-134728733D02*
X105410000Y-135071267D01*
G04 #@! TO.C,R6*
X111228733Y-92390000D02*
X111571267Y-92390000D01*
X111228733Y-93410000D02*
X111571267Y-93410000D01*
G04 #@! TO.C,L1*
X130010000Y-100271267D02*
X130010000Y-99928733D01*
X128990000Y-100271267D02*
X128990000Y-99928733D01*
G04 #@! TO.C,L2*
X127710000Y-99928733D02*
X127710000Y-100271267D01*
X126690000Y-99928733D02*
X126690000Y-100271267D01*
G04 #@! TO.C,U2*
X115900000Y-94100000D02*
X116300000Y-93600000D01*
X115900000Y-93100000D02*
X115900000Y-94100000D01*
X116300000Y-93600000D02*
X115900000Y-93100000D01*
X122600000Y-95000000D02*
X122600000Y-94800000D01*
X117400000Y-95000000D02*
X117400000Y-94800000D01*
X122740000Y-94750000D02*
X117340000Y-94750000D01*
X122740000Y-92500000D02*
X117340000Y-92500000D01*
X118020000Y-97150000D02*
X117620000Y-97150000D01*
X118020000Y-97150000D02*
X118020000Y-97550000D01*
X118020000Y-97150000D02*
X117220000Y-97950000D01*
X119020000Y-97550000D02*
X118220000Y-98350000D01*
X119020000Y-97550000D02*
X119020000Y-97950000D01*
X119020000Y-97550000D02*
X118620000Y-97550000D01*
X117400000Y-95000000D02*
G75*
G03X122600000Y-95000000I2600000J0D01*
G01*
G04 #@! TO.C,C2*
X119828733Y-118290000D02*
X120171267Y-118290000D01*
X119828733Y-119310000D02*
X120171267Y-119310000D01*
G04 #@! TO.C,C3*
X125490000Y-82761252D02*
X125490000Y-82238748D01*
X126910000Y-82761252D02*
X126910000Y-82238748D01*
G04 #@! TO.C,Q5*
X110640000Y-94420000D02*
X110640000Y-95350000D01*
X110640000Y-97580000D02*
X110640000Y-96650000D01*
X110640000Y-97580000D02*
X113800000Y-97580000D01*
X110640000Y-94420000D02*
X112100000Y-94420000D01*
G04 #@! TO.C,R10*
X110328733Y-129190000D02*
X110671267Y-129190000D01*
X110328733Y-130210000D02*
X110671267Y-130210000D01*
G04 #@! TO.C,SW1*
X122200000Y-120400000D02*
X117700000Y-120400000D01*
X123450000Y-124400000D02*
X123450000Y-122900000D01*
X117700000Y-126900000D02*
X122200000Y-126900000D01*
X116450000Y-122900000D02*
X116450000Y-124400000D01*
G04 #@! TO.C,Y1*
X120500000Y-108650000D02*
G75*
G03X120500000Y-105250000I0J1700000D01*
G01*
X120500000Y-108650000D02*
G75*
G02X120500000Y-105250000I0J1700000D01*
G01*
G04 #@! TO.C,Q4*
X131360000Y-90680000D02*
X131360000Y-89750000D01*
X131360000Y-87520000D02*
X131360000Y-88450000D01*
X131360000Y-87520000D02*
X129200000Y-87520000D01*
X131360000Y-90680000D02*
X129900000Y-90680000D01*
G04 #@! TO.C,R5*
X133490000Y-89271267D02*
X133490000Y-88928733D01*
X134510000Y-89271267D02*
X134510000Y-88928733D01*
G04 #@! TO.C,R7*
X126171267Y-87590000D02*
X125828733Y-87590000D01*
X126171267Y-88610000D02*
X125828733Y-88610000D01*
G04 #@! TO.C,R8*
X126171267Y-90610000D02*
X125828733Y-90610000D01*
X126171267Y-89590000D02*
X125828733Y-89590000D01*
D11*
G04 #@! TO.C,G\002A\002A\002A*
G36*
X106173348Y-73496466D02*
X106246362Y-73513616D01*
X106255715Y-73523806D01*
X106297979Y-73537710D01*
X106412429Y-73548991D01*
X106580547Y-73556331D01*
X106743304Y-73558484D01*
X107173730Y-73579364D01*
X107629996Y-73637289D01*
X108083289Y-73726592D01*
X108504796Y-73841601D01*
X108863444Y-73975641D01*
X109290790Y-74202828D01*
X109685341Y-74484719D01*
X110023935Y-74803689D01*
X110154606Y-74958125D01*
X110296427Y-75148131D01*
X110402953Y-75314901D01*
X110492050Y-75490244D01*
X110581583Y-75705973D01*
X110596858Y-75745619D01*
X110644028Y-75877158D01*
X110676530Y-75995599D01*
X110697020Y-76121019D01*
X110708152Y-76273497D01*
X110712580Y-76473112D01*
X110713124Y-76625000D01*
X110711451Y-76862942D01*
X110704668Y-77041593D01*
X110690130Y-77181010D01*
X110665192Y-77301248D01*
X110627209Y-77422362D01*
X110597306Y-77503145D01*
X110493153Y-77755429D01*
X110387050Y-77961142D01*
X110260175Y-78151702D01*
X110093703Y-78358529D01*
X110064424Y-78392585D01*
X109961434Y-78514388D01*
X109885742Y-78609204D01*
X109849249Y-78661904D01*
X109848046Y-78667686D01*
X109893191Y-78687527D01*
X109997790Y-78730233D01*
X110128166Y-78782188D01*
X110487096Y-78953850D01*
X110852805Y-79182572D01*
X111201626Y-79450645D01*
X111509895Y-79740357D01*
X111695579Y-79955147D01*
X111977185Y-80365429D01*
X112185718Y-80782756D01*
X112335259Y-81236197D01*
X112355502Y-81317599D01*
X112376351Y-81450805D01*
X112393676Y-81656211D01*
X112407404Y-81926701D01*
X112417465Y-82255159D01*
X112423784Y-82634467D01*
X112426289Y-83057508D01*
X112424909Y-83517167D01*
X112419571Y-84006326D01*
X112410202Y-84517868D01*
X112396731Y-85044678D01*
X112394246Y-85128046D01*
X112364403Y-86110312D01*
X111849169Y-86110312D01*
X111819326Y-85128046D01*
X111810446Y-84804944D01*
X111802609Y-84460789D01*
X111796233Y-84118838D01*
X111791735Y-83802343D01*
X111789535Y-83534560D01*
X111789384Y-83463603D01*
X111789286Y-82781426D01*
X111596518Y-82760940D01*
X111458399Y-82746303D01*
X111369209Y-82736875D01*
X111880000Y-82736875D01*
X111880000Y-84760937D01*
X112333572Y-84760937D01*
X112333572Y-82736875D01*
X111880000Y-82736875D01*
X111369209Y-82736875D01*
X111267096Y-82726081D01*
X111059488Y-82704171D01*
X111018215Y-82699820D01*
X110827959Y-82678101D01*
X110662222Y-82656202D01*
X110549594Y-82637990D01*
X110530625Y-82633870D01*
X110476211Y-82624814D01*
X110445659Y-82642346D01*
X110432098Y-82702443D01*
X110428658Y-82821080D01*
X110428572Y-82871152D01*
X110422265Y-83007776D01*
X110405510Y-83101522D01*
X110383215Y-83133750D01*
X110359864Y-83097090D01*
X110343758Y-82999044D01*
X110337858Y-82859819D01*
X110336157Y-82715402D01*
X110324979Y-82630102D01*
X110295210Y-82583661D01*
X110237737Y-82555822D01*
X110195018Y-82542319D01*
X110093567Y-82512678D01*
X110037906Y-82498877D01*
X110036268Y-82498750D01*
X110028879Y-82535304D01*
X110023315Y-82632446D01*
X110020517Y-82771390D01*
X110020358Y-82816250D01*
X110017153Y-82979156D01*
X110005526Y-83076922D01*
X109982457Y-83123642D01*
X109952322Y-83133750D01*
X109918225Y-83119297D01*
X109897394Y-83066705D01*
X109887018Y-82962118D01*
X109884286Y-82798315D01*
X109884286Y-82462880D01*
X109498149Y-82304549D01*
X109308912Y-82223693D01*
X109134782Y-82143587D01*
X109003972Y-82077412D01*
X108970091Y-82057793D01*
X108875211Y-82005537D01*
X108793655Y-81989354D01*
X108684559Y-82004857D01*
X108619175Y-82020132D01*
X108462846Y-82046478D01*
X108242297Y-82068691D01*
X107983954Y-82085629D01*
X107714246Y-82096149D01*
X107459602Y-82099109D01*
X107246450Y-82093367D01*
X107139920Y-82084071D01*
X106924295Y-82055778D01*
X106954523Y-81797614D01*
X106986038Y-81620725D01*
X107035087Y-81439298D01*
X107047273Y-81406133D01*
X107362090Y-81406133D01*
X107368501Y-81575749D01*
X107379050Y-81682574D01*
X107398954Y-81743183D01*
X107433429Y-81774154D01*
X107483160Y-81790894D01*
X107606416Y-81805736D01*
X107749840Y-81801503D01*
X107752500Y-81801199D01*
X107849112Y-81793945D01*
X108018148Y-81785338D01*
X108241352Y-81776141D01*
X108500466Y-81767119D01*
X108727679Y-81760368D01*
X109021378Y-81751741D01*
X109240088Y-81742997D01*
X109399510Y-81732211D01*
X109515348Y-81717461D01*
X109603301Y-81696821D01*
X109679073Y-81668367D01*
X109748215Y-81635301D01*
X110260132Y-81335917D01*
X110701495Y-80987553D01*
X111075886Y-80586964D01*
X111359399Y-80177665D01*
X111572444Y-79821112D01*
X111421423Y-79767192D01*
X111231453Y-79732312D01*
X111094703Y-79737855D01*
X110919004Y-79762439D01*
X111013967Y-79656804D01*
X111097854Y-79540660D01*
X111111450Y-79450352D01*
X111049950Y-79381188D01*
X110908547Y-79328474D01*
X110682435Y-79287517D01*
X110628718Y-79280580D01*
X110110883Y-79256367D01*
X109595548Y-79309811D01*
X109090119Y-79439310D01*
X108601996Y-79643263D01*
X108373664Y-79768533D01*
X108018936Y-80004703D01*
X107747939Y-80246529D01*
X107553892Y-80504989D01*
X107430015Y-80791058D01*
X107369529Y-81115713D01*
X107362090Y-81406133D01*
X107047273Y-81406133D01*
X107072728Y-81336856D01*
X107125889Y-81197442D01*
X107134238Y-81123371D01*
X107097018Y-81110603D01*
X107035950Y-81140547D01*
X106662762Y-81327488D01*
X106231757Y-81465449D01*
X105759852Y-81550438D01*
X105263966Y-81578466D01*
X105183857Y-81577406D01*
X104690893Y-81566093D01*
X104701400Y-81321481D01*
X104734311Y-81131209D01*
X105131589Y-81131209D01*
X105143977Y-81210777D01*
X105217452Y-81252101D01*
X105363904Y-81266397D01*
X105449202Y-81267043D01*
X105661843Y-81256759D01*
X105891159Y-81232025D01*
X106006250Y-81213414D01*
X106190521Y-81172339D01*
X106370079Y-81123233D01*
X106459822Y-81093488D01*
X106698222Y-81041746D01*
X106934883Y-81034993D01*
X107228515Y-81044190D01*
X107295225Y-80856232D01*
X107332488Y-80737620D01*
X107336774Y-80660899D01*
X107306935Y-80593630D01*
X107284795Y-80561559D01*
X107202275Y-80434900D01*
X107100913Y-80261389D01*
X106995550Y-80067872D01*
X106901027Y-79881199D01*
X106859510Y-79792227D01*
X106776138Y-79605861D01*
X106573881Y-79685096D01*
X106450938Y-79737258D01*
X106366537Y-79780488D01*
X106347687Y-79794706D01*
X106299322Y-79832426D01*
X106200296Y-79897218D01*
X106115566Y-79948982D01*
X105796416Y-80174740D01*
X105520200Y-80441067D01*
X105302928Y-80730158D01*
X105168402Y-81002183D01*
X105131589Y-81131209D01*
X104734311Y-81131209D01*
X104757461Y-80997373D01*
X104893646Y-80666046D01*
X105102662Y-80341486D01*
X105364634Y-80049673D01*
X105568853Y-79878291D01*
X105816134Y-79708065D01*
X106078970Y-79555448D01*
X106329850Y-79436898D01*
X106475083Y-79385436D01*
X106693492Y-79321961D01*
X106630752Y-79074808D01*
X106560760Y-78675045D01*
X106537947Y-78234236D01*
X106560289Y-77776186D01*
X106625762Y-77324699D01*
X106732343Y-76903579D01*
X106839555Y-76618570D01*
X106923319Y-76429077D01*
X106985644Y-76303500D01*
X107042185Y-76233321D01*
X107108600Y-76210021D01*
X107200543Y-76225082D01*
X107333671Y-76269985D01*
X107422211Y-76301541D01*
X107658886Y-76384716D01*
X107821746Y-76141573D01*
X108020243Y-75783254D01*
X108165078Y-75390441D01*
X108202137Y-75218274D01*
X108442856Y-75218274D01*
X108458420Y-75345952D01*
X108559794Y-75459292D01*
X108636965Y-75505502D01*
X108711971Y-75540263D01*
X108768103Y-75545108D01*
X108841420Y-75516092D01*
X108920447Y-75474497D01*
X109036189Y-75374735D01*
X109069855Y-75251253D01*
X109019199Y-75118027D01*
X108984572Y-75075359D01*
X108865676Y-75002964D01*
X108719838Y-74988577D01*
X108581198Y-75031519D01*
X108515530Y-75084680D01*
X108442856Y-75218274D01*
X108202137Y-75218274D01*
X108253001Y-74981979D01*
X108280768Y-74576711D01*
X108245132Y-74193481D01*
X108193192Y-73985781D01*
X108150471Y-73879092D01*
X108106162Y-73807708D01*
X108094887Y-73797873D01*
X107994858Y-73769052D01*
X107890687Y-73781371D01*
X107825781Y-73829465D01*
X107824966Y-73831240D01*
X107764501Y-73872551D01*
X107653026Y-73863300D01*
X107506512Y-73806461D01*
X107415088Y-73754939D01*
X107346513Y-73717630D01*
X107269985Y-73692815D01*
X107166021Y-73678035D01*
X107015136Y-73670830D01*
X106797845Y-73668742D01*
X106731965Y-73668730D01*
X106496213Y-73670209D01*
X106330275Y-73676092D01*
X106213268Y-73689233D01*
X106124310Y-73712488D01*
X106042516Y-73748711D01*
X106006250Y-73767949D01*
X105824822Y-73866718D01*
X106165000Y-73875498D01*
X106419766Y-73887426D01*
X106699896Y-73909441D01*
X106987349Y-73939164D01*
X107264083Y-73974217D01*
X107512056Y-74012221D01*
X107713229Y-74050799D01*
X107849559Y-74087572D01*
X107883341Y-74102014D01*
X107907255Y-74159545D01*
X107887961Y-74225311D01*
X107867389Y-74297342D01*
X107878355Y-74324331D01*
X107873392Y-74341143D01*
X107832422Y-74365723D01*
X107745228Y-74382501D01*
X107593449Y-74372665D01*
X107412133Y-74344194D01*
X106790286Y-74267534D01*
X106144276Y-74259012D01*
X105466668Y-74318857D01*
X104868172Y-74422012D01*
X104610425Y-74481157D01*
X104374707Y-74545710D01*
X104174505Y-74610875D01*
X104023307Y-74671854D01*
X103934600Y-74723847D01*
X103919642Y-74759433D01*
X103968576Y-74786257D01*
X103982339Y-74782515D01*
X104069181Y-74759202D01*
X104231299Y-74737359D01*
X104453257Y-74717651D01*
X104719622Y-74700742D01*
X105014959Y-74687295D01*
X105323833Y-74677975D01*
X105630811Y-74673446D01*
X105920458Y-74674372D01*
X106177340Y-74681418D01*
X106248686Y-74684992D01*
X106469313Y-74700744D01*
X106716955Y-74723624D01*
X106974699Y-74751455D01*
X107225634Y-74782058D01*
X107452850Y-74813257D01*
X107639434Y-74842875D01*
X107768475Y-74868733D01*
X107822096Y-74887573D01*
X107840274Y-74929163D01*
X107871165Y-75019084D01*
X107880995Y-75050030D01*
X107908227Y-75146724D01*
X107900368Y-75185884D01*
X107846488Y-75186483D01*
X107806364Y-75179595D01*
X107431816Y-75114289D01*
X107117530Y-75065146D01*
X106838269Y-75029962D01*
X106568799Y-75006532D01*
X106283883Y-74992653D01*
X105958287Y-74986119D01*
X105575358Y-74984719D01*
X105188454Y-74986718D01*
X104870441Y-74993180D01*
X104599543Y-75005956D01*
X104353987Y-75026893D01*
X104111996Y-75057842D01*
X103851796Y-75100651D01*
X103556965Y-75156124D01*
X103245720Y-75225193D01*
X102906153Y-75314229D01*
X102575090Y-75412798D01*
X102289361Y-75510470D01*
X102241608Y-75528701D01*
X101924108Y-75652656D01*
X102082858Y-75674574D01*
X102202902Y-75681067D01*
X102285759Y-75667871D01*
X102291138Y-75664997D01*
X102349722Y-75647559D01*
X102362363Y-75652483D01*
X102413075Y-75653276D01*
X102533310Y-75640613D01*
X102703698Y-75616844D01*
X102857118Y-75592415D01*
X103546592Y-75497685D01*
X104171353Y-75454608D01*
X104729635Y-75463292D01*
X104845583Y-75472361D01*
X105241802Y-75513789D01*
X105624776Y-75563979D01*
X105970938Y-75619418D01*
X106256720Y-75676593D01*
X106323750Y-75692697D01*
X106503406Y-75736660D01*
X106685980Y-75779306D01*
X106743881Y-75792243D01*
X106861754Y-75822954D01*
X106907350Y-75853970D01*
X106897889Y-75898560D01*
X106892888Y-75907072D01*
X106866188Y-75973826D01*
X106870728Y-75998970D01*
X106861241Y-76036281D01*
X106835114Y-76059944D01*
X106771383Y-76074283D01*
X106646411Y-76064111D01*
X106450123Y-76028330D01*
X106353781Y-76007578D01*
X105527628Y-75854148D01*
X104704913Y-75759425D01*
X103903319Y-75724860D01*
X103192761Y-75747943D01*
X102686827Y-75790870D01*
X102249428Y-75842030D01*
X101858590Y-75904368D01*
X101544824Y-75968738D01*
X101389343Y-76000135D01*
X101266299Y-76017967D01*
X101206314Y-76018768D01*
X101211431Y-75986506D01*
X101275007Y-75911816D01*
X101386321Y-75803616D01*
X101534656Y-75670824D01*
X101709291Y-75522359D01*
X101899507Y-75367138D01*
X102094585Y-75214081D01*
X102283806Y-75072106D01*
X102456451Y-74950131D01*
X102601801Y-74857074D01*
X102604465Y-74855506D01*
X102932432Y-74676151D01*
X103289964Y-74503563D01*
X103652676Y-74348115D01*
X103996181Y-74220179D01*
X104296093Y-74130129D01*
X104328036Y-74122352D01*
X104677295Y-74043897D01*
X104964580Y-73988931D01*
X105212940Y-73953274D01*
X105322385Y-73942032D01*
X105565234Y-73905154D01*
X105728464Y-73842512D01*
X105819926Y-73749377D01*
X105847500Y-73625713D01*
X105852045Y-73542130D01*
X105882138Y-73502550D01*
X105962462Y-73490523D01*
X106051608Y-73489687D01*
X106173348Y-73496466D01*
X106173348Y-73496466D01*
G37*
X106173348Y-73496466D02*
X106246362Y-73513616D01*
X106255715Y-73523806D01*
X106297979Y-73537710D01*
X106412429Y-73548991D01*
X106580547Y-73556331D01*
X106743304Y-73558484D01*
X107173730Y-73579364D01*
X107629996Y-73637289D01*
X108083289Y-73726592D01*
X108504796Y-73841601D01*
X108863444Y-73975641D01*
X109290790Y-74202828D01*
X109685341Y-74484719D01*
X110023935Y-74803689D01*
X110154606Y-74958125D01*
X110296427Y-75148131D01*
X110402953Y-75314901D01*
X110492050Y-75490244D01*
X110581583Y-75705973D01*
X110596858Y-75745619D01*
X110644028Y-75877158D01*
X110676530Y-75995599D01*
X110697020Y-76121019D01*
X110708152Y-76273497D01*
X110712580Y-76473112D01*
X110713124Y-76625000D01*
X110711451Y-76862942D01*
X110704668Y-77041593D01*
X110690130Y-77181010D01*
X110665192Y-77301248D01*
X110627209Y-77422362D01*
X110597306Y-77503145D01*
X110493153Y-77755429D01*
X110387050Y-77961142D01*
X110260175Y-78151702D01*
X110093703Y-78358529D01*
X110064424Y-78392585D01*
X109961434Y-78514388D01*
X109885742Y-78609204D01*
X109849249Y-78661904D01*
X109848046Y-78667686D01*
X109893191Y-78687527D01*
X109997790Y-78730233D01*
X110128166Y-78782188D01*
X110487096Y-78953850D01*
X110852805Y-79182572D01*
X111201626Y-79450645D01*
X111509895Y-79740357D01*
X111695579Y-79955147D01*
X111977185Y-80365429D01*
X112185718Y-80782756D01*
X112335259Y-81236197D01*
X112355502Y-81317599D01*
X112376351Y-81450805D01*
X112393676Y-81656211D01*
X112407404Y-81926701D01*
X112417465Y-82255159D01*
X112423784Y-82634467D01*
X112426289Y-83057508D01*
X112424909Y-83517167D01*
X112419571Y-84006326D01*
X112410202Y-84517868D01*
X112396731Y-85044678D01*
X112394246Y-85128046D01*
X112364403Y-86110312D01*
X111849169Y-86110312D01*
X111819326Y-85128046D01*
X111810446Y-84804944D01*
X111802609Y-84460789D01*
X111796233Y-84118838D01*
X111791735Y-83802343D01*
X111789535Y-83534560D01*
X111789384Y-83463603D01*
X111789286Y-82781426D01*
X111596518Y-82760940D01*
X111458399Y-82746303D01*
X111369209Y-82736875D01*
X111880000Y-82736875D01*
X111880000Y-84760937D01*
X112333572Y-84760937D01*
X112333572Y-82736875D01*
X111880000Y-82736875D01*
X111369209Y-82736875D01*
X111267096Y-82726081D01*
X111059488Y-82704171D01*
X111018215Y-82699820D01*
X110827959Y-82678101D01*
X110662222Y-82656202D01*
X110549594Y-82637990D01*
X110530625Y-82633870D01*
X110476211Y-82624814D01*
X110445659Y-82642346D01*
X110432098Y-82702443D01*
X110428658Y-82821080D01*
X110428572Y-82871152D01*
X110422265Y-83007776D01*
X110405510Y-83101522D01*
X110383215Y-83133750D01*
X110359864Y-83097090D01*
X110343758Y-82999044D01*
X110337858Y-82859819D01*
X110336157Y-82715402D01*
X110324979Y-82630102D01*
X110295210Y-82583661D01*
X110237737Y-82555822D01*
X110195018Y-82542319D01*
X110093567Y-82512678D01*
X110037906Y-82498877D01*
X110036268Y-82498750D01*
X110028879Y-82535304D01*
X110023315Y-82632446D01*
X110020517Y-82771390D01*
X110020358Y-82816250D01*
X110017153Y-82979156D01*
X110005526Y-83076922D01*
X109982457Y-83123642D01*
X109952322Y-83133750D01*
X109918225Y-83119297D01*
X109897394Y-83066705D01*
X109887018Y-82962118D01*
X109884286Y-82798315D01*
X109884286Y-82462880D01*
X109498149Y-82304549D01*
X109308912Y-82223693D01*
X109134782Y-82143587D01*
X109003972Y-82077412D01*
X108970091Y-82057793D01*
X108875211Y-82005537D01*
X108793655Y-81989354D01*
X108684559Y-82004857D01*
X108619175Y-82020132D01*
X108462846Y-82046478D01*
X108242297Y-82068691D01*
X107983954Y-82085629D01*
X107714246Y-82096149D01*
X107459602Y-82099109D01*
X107246450Y-82093367D01*
X107139920Y-82084071D01*
X106924295Y-82055778D01*
X106954523Y-81797614D01*
X106986038Y-81620725D01*
X107035087Y-81439298D01*
X107047273Y-81406133D01*
X107362090Y-81406133D01*
X107368501Y-81575749D01*
X107379050Y-81682574D01*
X107398954Y-81743183D01*
X107433429Y-81774154D01*
X107483160Y-81790894D01*
X107606416Y-81805736D01*
X107749840Y-81801503D01*
X107752500Y-81801199D01*
X107849112Y-81793945D01*
X108018148Y-81785338D01*
X108241352Y-81776141D01*
X108500466Y-81767119D01*
X108727679Y-81760368D01*
X109021378Y-81751741D01*
X109240088Y-81742997D01*
X109399510Y-81732211D01*
X109515348Y-81717461D01*
X109603301Y-81696821D01*
X109679073Y-81668367D01*
X109748215Y-81635301D01*
X110260132Y-81335917D01*
X110701495Y-80987553D01*
X111075886Y-80586964D01*
X111359399Y-80177665D01*
X111572444Y-79821112D01*
X111421423Y-79767192D01*
X111231453Y-79732312D01*
X111094703Y-79737855D01*
X110919004Y-79762439D01*
X111013967Y-79656804D01*
X111097854Y-79540660D01*
X111111450Y-79450352D01*
X111049950Y-79381188D01*
X110908547Y-79328474D01*
X110682435Y-79287517D01*
X110628718Y-79280580D01*
X110110883Y-79256367D01*
X109595548Y-79309811D01*
X109090119Y-79439310D01*
X108601996Y-79643263D01*
X108373664Y-79768533D01*
X108018936Y-80004703D01*
X107747939Y-80246529D01*
X107553892Y-80504989D01*
X107430015Y-80791058D01*
X107369529Y-81115713D01*
X107362090Y-81406133D01*
X107047273Y-81406133D01*
X107072728Y-81336856D01*
X107125889Y-81197442D01*
X107134238Y-81123371D01*
X107097018Y-81110603D01*
X107035950Y-81140547D01*
X106662762Y-81327488D01*
X106231757Y-81465449D01*
X105759852Y-81550438D01*
X105263966Y-81578466D01*
X105183857Y-81577406D01*
X104690893Y-81566093D01*
X104701400Y-81321481D01*
X104734311Y-81131209D01*
X105131589Y-81131209D01*
X105143977Y-81210777D01*
X105217452Y-81252101D01*
X105363904Y-81266397D01*
X105449202Y-81267043D01*
X105661843Y-81256759D01*
X105891159Y-81232025D01*
X106006250Y-81213414D01*
X106190521Y-81172339D01*
X106370079Y-81123233D01*
X106459822Y-81093488D01*
X106698222Y-81041746D01*
X106934883Y-81034993D01*
X107228515Y-81044190D01*
X107295225Y-80856232D01*
X107332488Y-80737620D01*
X107336774Y-80660899D01*
X107306935Y-80593630D01*
X107284795Y-80561559D01*
X107202275Y-80434900D01*
X107100913Y-80261389D01*
X106995550Y-80067872D01*
X106901027Y-79881199D01*
X106859510Y-79792227D01*
X106776138Y-79605861D01*
X106573881Y-79685096D01*
X106450938Y-79737258D01*
X106366537Y-79780488D01*
X106347687Y-79794706D01*
X106299322Y-79832426D01*
X106200296Y-79897218D01*
X106115566Y-79948982D01*
X105796416Y-80174740D01*
X105520200Y-80441067D01*
X105302928Y-80730158D01*
X105168402Y-81002183D01*
X105131589Y-81131209D01*
X104734311Y-81131209D01*
X104757461Y-80997373D01*
X104893646Y-80666046D01*
X105102662Y-80341486D01*
X105364634Y-80049673D01*
X105568853Y-79878291D01*
X105816134Y-79708065D01*
X106078970Y-79555448D01*
X106329850Y-79436898D01*
X106475083Y-79385436D01*
X106693492Y-79321961D01*
X106630752Y-79074808D01*
X106560760Y-78675045D01*
X106537947Y-78234236D01*
X106560289Y-77776186D01*
X106625762Y-77324699D01*
X106732343Y-76903579D01*
X106839555Y-76618570D01*
X106923319Y-76429077D01*
X106985644Y-76303500D01*
X107042185Y-76233321D01*
X107108600Y-76210021D01*
X107200543Y-76225082D01*
X107333671Y-76269985D01*
X107422211Y-76301541D01*
X107658886Y-76384716D01*
X107821746Y-76141573D01*
X108020243Y-75783254D01*
X108165078Y-75390441D01*
X108202137Y-75218274D01*
X108442856Y-75218274D01*
X108458420Y-75345952D01*
X108559794Y-75459292D01*
X108636965Y-75505502D01*
X108711971Y-75540263D01*
X108768103Y-75545108D01*
X108841420Y-75516092D01*
X108920447Y-75474497D01*
X109036189Y-75374735D01*
X109069855Y-75251253D01*
X109019199Y-75118027D01*
X108984572Y-75075359D01*
X108865676Y-75002964D01*
X108719838Y-74988577D01*
X108581198Y-75031519D01*
X108515530Y-75084680D01*
X108442856Y-75218274D01*
X108202137Y-75218274D01*
X108253001Y-74981979D01*
X108280768Y-74576711D01*
X108245132Y-74193481D01*
X108193192Y-73985781D01*
X108150471Y-73879092D01*
X108106162Y-73807708D01*
X108094887Y-73797873D01*
X107994858Y-73769052D01*
X107890687Y-73781371D01*
X107825781Y-73829465D01*
X107824966Y-73831240D01*
X107764501Y-73872551D01*
X107653026Y-73863300D01*
X107506512Y-73806461D01*
X107415088Y-73754939D01*
X107346513Y-73717630D01*
X107269985Y-73692815D01*
X107166021Y-73678035D01*
X107015136Y-73670830D01*
X106797845Y-73668742D01*
X106731965Y-73668730D01*
X106496213Y-73670209D01*
X106330275Y-73676092D01*
X106213268Y-73689233D01*
X106124310Y-73712488D01*
X106042516Y-73748711D01*
X106006250Y-73767949D01*
X105824822Y-73866718D01*
X106165000Y-73875498D01*
X106419766Y-73887426D01*
X106699896Y-73909441D01*
X106987349Y-73939164D01*
X107264083Y-73974217D01*
X107512056Y-74012221D01*
X107713229Y-74050799D01*
X107849559Y-74087572D01*
X107883341Y-74102014D01*
X107907255Y-74159545D01*
X107887961Y-74225311D01*
X107867389Y-74297342D01*
X107878355Y-74324331D01*
X107873392Y-74341143D01*
X107832422Y-74365723D01*
X107745228Y-74382501D01*
X107593449Y-74372665D01*
X107412133Y-74344194D01*
X106790286Y-74267534D01*
X106144276Y-74259012D01*
X105466668Y-74318857D01*
X104868172Y-74422012D01*
X104610425Y-74481157D01*
X104374707Y-74545710D01*
X104174505Y-74610875D01*
X104023307Y-74671854D01*
X103934600Y-74723847D01*
X103919642Y-74759433D01*
X103968576Y-74786257D01*
X103982339Y-74782515D01*
X104069181Y-74759202D01*
X104231299Y-74737359D01*
X104453257Y-74717651D01*
X104719622Y-74700742D01*
X105014959Y-74687295D01*
X105323833Y-74677975D01*
X105630811Y-74673446D01*
X105920458Y-74674372D01*
X106177340Y-74681418D01*
X106248686Y-74684992D01*
X106469313Y-74700744D01*
X106716955Y-74723624D01*
X106974699Y-74751455D01*
X107225634Y-74782058D01*
X107452850Y-74813257D01*
X107639434Y-74842875D01*
X107768475Y-74868733D01*
X107822096Y-74887573D01*
X107840274Y-74929163D01*
X107871165Y-75019084D01*
X107880995Y-75050030D01*
X107908227Y-75146724D01*
X107900368Y-75185884D01*
X107846488Y-75186483D01*
X107806364Y-75179595D01*
X107431816Y-75114289D01*
X107117530Y-75065146D01*
X106838269Y-75029962D01*
X106568799Y-75006532D01*
X106283883Y-74992653D01*
X105958287Y-74986119D01*
X105575358Y-74984719D01*
X105188454Y-74986718D01*
X104870441Y-74993180D01*
X104599543Y-75005956D01*
X104353987Y-75026893D01*
X104111996Y-75057842D01*
X103851796Y-75100651D01*
X103556965Y-75156124D01*
X103245720Y-75225193D01*
X102906153Y-75314229D01*
X102575090Y-75412798D01*
X102289361Y-75510470D01*
X102241608Y-75528701D01*
X101924108Y-75652656D01*
X102082858Y-75674574D01*
X102202902Y-75681067D01*
X102285759Y-75667871D01*
X102291138Y-75664997D01*
X102349722Y-75647559D01*
X102362363Y-75652483D01*
X102413075Y-75653276D01*
X102533310Y-75640613D01*
X102703698Y-75616844D01*
X102857118Y-75592415D01*
X103546592Y-75497685D01*
X104171353Y-75454608D01*
X104729635Y-75463292D01*
X104845583Y-75472361D01*
X105241802Y-75513789D01*
X105624776Y-75563979D01*
X105970938Y-75619418D01*
X106256720Y-75676593D01*
X106323750Y-75692697D01*
X106503406Y-75736660D01*
X106685980Y-75779306D01*
X106743881Y-75792243D01*
X106861754Y-75822954D01*
X106907350Y-75853970D01*
X106897889Y-75898560D01*
X106892888Y-75907072D01*
X106866188Y-75973826D01*
X106870728Y-75998970D01*
X106861241Y-76036281D01*
X106835114Y-76059944D01*
X106771383Y-76074283D01*
X106646411Y-76064111D01*
X106450123Y-76028330D01*
X106353781Y-76007578D01*
X105527628Y-75854148D01*
X104704913Y-75759425D01*
X103903319Y-75724860D01*
X103192761Y-75747943D01*
X102686827Y-75790870D01*
X102249428Y-75842030D01*
X101858590Y-75904368D01*
X101544824Y-75968738D01*
X101389343Y-76000135D01*
X101266299Y-76017967D01*
X101206314Y-76018768D01*
X101211431Y-75986506D01*
X101275007Y-75911816D01*
X101386321Y-75803616D01*
X101534656Y-75670824D01*
X101709291Y-75522359D01*
X101899507Y-75367138D01*
X102094585Y-75214081D01*
X102283806Y-75072106D01*
X102456451Y-74950131D01*
X102601801Y-74857074D01*
X102604465Y-74855506D01*
X102932432Y-74676151D01*
X103289964Y-74503563D01*
X103652676Y-74348115D01*
X103996181Y-74220179D01*
X104296093Y-74130129D01*
X104328036Y-74122352D01*
X104677295Y-74043897D01*
X104964580Y-73988931D01*
X105212940Y-73953274D01*
X105322385Y-73942032D01*
X105565234Y-73905154D01*
X105728464Y-73842512D01*
X105819926Y-73749377D01*
X105847500Y-73625713D01*
X105852045Y-73542130D01*
X105882138Y-73502550D01*
X105962462Y-73490523D01*
X106051608Y-73489687D01*
X106173348Y-73496466D01*
G36*
X108877785Y-75218336D02*
X108929959Y-75280013D01*
X108931786Y-75293619D01*
X108899457Y-75402889D01*
X108819371Y-75466575D01*
X108716882Y-75474813D01*
X108617340Y-75417740D01*
X108616092Y-75416435D01*
X108583881Y-75329300D01*
X108613982Y-75236551D01*
X108687334Y-75180214D01*
X108783463Y-75178832D01*
X108877785Y-75218336D01*
X108877785Y-75218336D01*
G37*
X108877785Y-75218336D02*
X108929959Y-75280013D01*
X108931786Y-75293619D01*
X108899457Y-75402889D01*
X108819371Y-75466575D01*
X108716882Y-75474813D01*
X108617340Y-75417740D01*
X108616092Y-75416435D01*
X108583881Y-75329300D01*
X108613982Y-75236551D01*
X108687334Y-75180214D01*
X108783463Y-75178832D01*
X108877785Y-75218336D01*
G04 #@! TO.C,*
D13*
G04 #@! TO.C,J1*
X106116666Y-117802380D02*
X106116666Y-118516666D01*
X106069047Y-118659523D01*
X105973809Y-118754761D01*
X105830952Y-118802380D01*
X105735714Y-118802380D01*
X107116666Y-118802380D02*
X106545238Y-118802380D01*
X106830952Y-118802380D02*
X106830952Y-117802380D01*
X106735714Y-117945238D01*
X106640476Y-118040476D01*
X106545238Y-118088095D01*
G04 #@! TO.C,R9*
X107233333Y-99652380D02*
X106900000Y-99176190D01*
X106661904Y-99652380D02*
X106661904Y-98652380D01*
X107042857Y-98652380D01*
X107138095Y-98700000D01*
X107185714Y-98747619D01*
X107233333Y-98842857D01*
X107233333Y-98985714D01*
X107185714Y-99080952D01*
X107138095Y-99128571D01*
X107042857Y-99176190D01*
X106661904Y-99176190D01*
X107709523Y-99652380D02*
X107900000Y-99652380D01*
X107995238Y-99604761D01*
X108042857Y-99557142D01*
X108138095Y-99414285D01*
X108185714Y-99223809D01*
X108185714Y-98842857D01*
X108138095Y-98747619D01*
X108090476Y-98700000D01*
X107995238Y-98652380D01*
X107804761Y-98652380D01*
X107709523Y-98700000D01*
X107661904Y-98747619D01*
X107614285Y-98842857D01*
X107614285Y-99080952D01*
X107661904Y-99176190D01*
X107709523Y-99223809D01*
X107804761Y-99271428D01*
X107995238Y-99271428D01*
X108090476Y-99223809D01*
X108138095Y-99176190D01*
X108185714Y-99080952D01*
G04 #@! TO.C,D1*
X119261904Y-134702380D02*
X119261904Y-133702380D01*
X119500000Y-133702380D01*
X119642857Y-133750000D01*
X119738095Y-133845238D01*
X119785714Y-133940476D01*
X119833333Y-134130952D01*
X119833333Y-134273809D01*
X119785714Y-134464285D01*
X119738095Y-134559523D01*
X119642857Y-134654761D01*
X119500000Y-134702380D01*
X119261904Y-134702380D01*
X120785714Y-134702380D02*
X120214285Y-134702380D01*
X120500000Y-134702380D02*
X120500000Y-133702380D01*
X120404761Y-133845238D01*
X120309523Y-133940476D01*
X120214285Y-133988095D01*
G04 #@! TO.C,D2*
X119291904Y-86912380D02*
X119291904Y-85912380D01*
X119530000Y-85912380D01*
X119672857Y-85960000D01*
X119768095Y-86055238D01*
X119815714Y-86150476D01*
X119863333Y-86340952D01*
X119863333Y-86483809D01*
X119815714Y-86674285D01*
X119768095Y-86769523D01*
X119672857Y-86864761D01*
X119530000Y-86912380D01*
X119291904Y-86912380D01*
X120244285Y-86007619D02*
X120291904Y-85960000D01*
X120387142Y-85912380D01*
X120625238Y-85912380D01*
X120720476Y-85960000D01*
X120768095Y-86007619D01*
X120815714Y-86102857D01*
X120815714Y-86198095D01*
X120768095Y-86340952D01*
X120196666Y-86912380D01*
X120815714Y-86912380D01*
G04 #@! TO.C,Q1*
X133904761Y-85647619D02*
X133809523Y-85600000D01*
X133714285Y-85504761D01*
X133571428Y-85361904D01*
X133476190Y-85314285D01*
X133380952Y-85314285D01*
X133428571Y-85552380D02*
X133333333Y-85504761D01*
X133238095Y-85409523D01*
X133190476Y-85219047D01*
X133190476Y-84885714D01*
X133238095Y-84695238D01*
X133333333Y-84600000D01*
X133428571Y-84552380D01*
X133619047Y-84552380D01*
X133714285Y-84600000D01*
X133809523Y-84695238D01*
X133857142Y-84885714D01*
X133857142Y-85219047D01*
X133809523Y-85409523D01*
X133714285Y-85504761D01*
X133619047Y-85552380D01*
X133428571Y-85552380D01*
X134809523Y-85552380D02*
X134238095Y-85552380D01*
X134523809Y-85552380D02*
X134523809Y-84552380D01*
X134428571Y-84695238D01*
X134333333Y-84790476D01*
X134238095Y-84838095D01*
G04 #@! TO.C,Q2*
X109547619Y-142095238D02*
X109500000Y-142190476D01*
X109404761Y-142285714D01*
X109261904Y-142428571D01*
X109214285Y-142523809D01*
X109214285Y-142619047D01*
X109452380Y-142571428D02*
X109404761Y-142666666D01*
X109309523Y-142761904D01*
X109119047Y-142809523D01*
X108785714Y-142809523D01*
X108595238Y-142761904D01*
X108500000Y-142666666D01*
X108452380Y-142571428D01*
X108452380Y-142380952D01*
X108500000Y-142285714D01*
X108595238Y-142190476D01*
X108785714Y-142142857D01*
X109119047Y-142142857D01*
X109309523Y-142190476D01*
X109404761Y-142285714D01*
X109452380Y-142380952D01*
X109452380Y-142571428D01*
X108547619Y-141761904D02*
X108500000Y-141714285D01*
X108452380Y-141619047D01*
X108452380Y-141380952D01*
X108500000Y-141285714D01*
X108547619Y-141238095D01*
X108642857Y-141190476D01*
X108738095Y-141190476D01*
X108880952Y-141238095D01*
X109452380Y-141809523D01*
X109452380Y-141190476D01*
G04 #@! TO.C,Q3*
X109547619Y-132295238D02*
X109500000Y-132390476D01*
X109404761Y-132485714D01*
X109261904Y-132628571D01*
X109214285Y-132723809D01*
X109214285Y-132819047D01*
X109452380Y-132771428D02*
X109404761Y-132866666D01*
X109309523Y-132961904D01*
X109119047Y-133009523D01*
X108785714Y-133009523D01*
X108595238Y-132961904D01*
X108500000Y-132866666D01*
X108452380Y-132771428D01*
X108452380Y-132580952D01*
X108500000Y-132485714D01*
X108595238Y-132390476D01*
X108785714Y-132342857D01*
X109119047Y-132342857D01*
X109309523Y-132390476D01*
X109404761Y-132485714D01*
X109452380Y-132580952D01*
X109452380Y-132771428D01*
X108452380Y-132009523D02*
X108452380Y-131390476D01*
X108833333Y-131723809D01*
X108833333Y-131580952D01*
X108880952Y-131485714D01*
X108928571Y-131438095D01*
X109023809Y-131390476D01*
X109261904Y-131390476D01*
X109357142Y-131438095D01*
X109404761Y-131485714D01*
X109452380Y-131580952D01*
X109452380Y-131866666D01*
X109404761Y-131961904D01*
X109357142Y-132009523D01*
G04 #@! TO.C,U1*
D14*
X122119047Y-110426190D02*
X122119047Y-110830952D01*
X122142857Y-110878571D01*
X122166666Y-110902380D01*
X122214285Y-110926190D01*
X122309523Y-110926190D01*
X122357142Y-110902380D01*
X122380952Y-110878571D01*
X122404761Y-110830952D01*
X122404761Y-110426190D01*
X122904761Y-110926190D02*
X122619047Y-110926190D01*
X122761904Y-110926190D02*
X122761904Y-110426190D01*
X122714285Y-110497619D01*
X122666666Y-110545238D01*
X122619047Y-110569047D01*
D13*
X138116666Y-111192857D02*
X138116666Y-110716666D01*
X138402380Y-111288095D02*
X137402380Y-110954761D01*
X138402380Y-110621428D01*
X138402380Y-110288095D02*
X137402380Y-110288095D01*
X138402380Y-109716666D01*
X137402380Y-109716666D01*
X137402380Y-109383333D02*
X137402380Y-108811904D01*
X138402380Y-109097619D02*
X137402380Y-109097619D01*
G04 #@! TO.C,C1*
X131533333Y-103087142D02*
X131485714Y-103134761D01*
X131342857Y-103182380D01*
X131247619Y-103182380D01*
X131104761Y-103134761D01*
X131009523Y-103039523D01*
X130961904Y-102944285D01*
X130914285Y-102753809D01*
X130914285Y-102610952D01*
X130961904Y-102420476D01*
X131009523Y-102325238D01*
X131104761Y-102230000D01*
X131247619Y-102182380D01*
X131342857Y-102182380D01*
X131485714Y-102230000D01*
X131533333Y-102277619D01*
X132485714Y-103182380D02*
X131914285Y-103182380D01*
X132200000Y-103182380D02*
X132200000Y-102182380D01*
X132104761Y-102325238D01*
X132009523Y-102420476D01*
X131914285Y-102468095D01*
G04 #@! TO.C,C4*
X122433333Y-103057142D02*
X122385714Y-103104761D01*
X122242857Y-103152380D01*
X122147619Y-103152380D01*
X122004761Y-103104761D01*
X121909523Y-103009523D01*
X121861904Y-102914285D01*
X121814285Y-102723809D01*
X121814285Y-102580952D01*
X121861904Y-102390476D01*
X121909523Y-102295238D01*
X122004761Y-102200000D01*
X122147619Y-102152380D01*
X122242857Y-102152380D01*
X122385714Y-102200000D01*
X122433333Y-102247619D01*
X123290476Y-102485714D02*
X123290476Y-103152380D01*
X123052380Y-102104761D02*
X122814285Y-102819047D01*
X123433333Y-102819047D01*
G04 #@! TO.C,C5*
X115033333Y-104257142D02*
X114985714Y-104304761D01*
X114842857Y-104352380D01*
X114747619Y-104352380D01*
X114604761Y-104304761D01*
X114509523Y-104209523D01*
X114461904Y-104114285D01*
X114414285Y-103923809D01*
X114414285Y-103780952D01*
X114461904Y-103590476D01*
X114509523Y-103495238D01*
X114604761Y-103400000D01*
X114747619Y-103352380D01*
X114842857Y-103352380D01*
X114985714Y-103400000D01*
X115033333Y-103447619D01*
X115938095Y-103352380D02*
X115461904Y-103352380D01*
X115414285Y-103828571D01*
X115461904Y-103780952D01*
X115557142Y-103733333D01*
X115795238Y-103733333D01*
X115890476Y-103780952D01*
X115938095Y-103828571D01*
X115985714Y-103923809D01*
X115985714Y-104161904D01*
X115938095Y-104257142D01*
X115890476Y-104304761D01*
X115795238Y-104352380D01*
X115557142Y-104352380D01*
X115461904Y-104304761D01*
X115414285Y-104257142D01*
G04 #@! TO.C,C6*
X124733333Y-103057142D02*
X124685714Y-103104761D01*
X124542857Y-103152380D01*
X124447619Y-103152380D01*
X124304761Y-103104761D01*
X124209523Y-103009523D01*
X124161904Y-102914285D01*
X124114285Y-102723809D01*
X124114285Y-102580952D01*
X124161904Y-102390476D01*
X124209523Y-102295238D01*
X124304761Y-102200000D01*
X124447619Y-102152380D01*
X124542857Y-102152380D01*
X124685714Y-102200000D01*
X124733333Y-102247619D01*
X125590476Y-102152380D02*
X125400000Y-102152380D01*
X125304761Y-102200000D01*
X125257142Y-102247619D01*
X125161904Y-102390476D01*
X125114285Y-102580952D01*
X125114285Y-102961904D01*
X125161904Y-103057142D01*
X125209523Y-103104761D01*
X125304761Y-103152380D01*
X125495238Y-103152380D01*
X125590476Y-103104761D01*
X125638095Y-103057142D01*
X125685714Y-102961904D01*
X125685714Y-102723809D01*
X125638095Y-102628571D01*
X125590476Y-102580952D01*
X125495238Y-102533333D01*
X125304761Y-102533333D01*
X125209523Y-102580952D01*
X125161904Y-102628571D01*
X125114285Y-102723809D01*
G04 #@! TO.C,C7*
X115033333Y-110357142D02*
X114985714Y-110404761D01*
X114842857Y-110452380D01*
X114747619Y-110452380D01*
X114604761Y-110404761D01*
X114509523Y-110309523D01*
X114461904Y-110214285D01*
X114414285Y-110023809D01*
X114414285Y-109880952D01*
X114461904Y-109690476D01*
X114509523Y-109595238D01*
X114604761Y-109500000D01*
X114747619Y-109452380D01*
X114842857Y-109452380D01*
X114985714Y-109500000D01*
X115033333Y-109547619D01*
X115366666Y-109452380D02*
X116033333Y-109452380D01*
X115604761Y-110452380D01*
G04 #@! TO.C,C8*
X129233333Y-85457142D02*
X129185714Y-85504761D01*
X129042857Y-85552380D01*
X128947619Y-85552380D01*
X128804761Y-85504761D01*
X128709523Y-85409523D01*
X128661904Y-85314285D01*
X128614285Y-85123809D01*
X128614285Y-84980952D01*
X128661904Y-84790476D01*
X128709523Y-84695238D01*
X128804761Y-84600000D01*
X128947619Y-84552380D01*
X129042857Y-84552380D01*
X129185714Y-84600000D01*
X129233333Y-84647619D01*
X129804761Y-84980952D02*
X129709523Y-84933333D01*
X129661904Y-84885714D01*
X129614285Y-84790476D01*
X129614285Y-84742857D01*
X129661904Y-84647619D01*
X129709523Y-84600000D01*
X129804761Y-84552380D01*
X129995238Y-84552380D01*
X130090476Y-84600000D01*
X130138095Y-84647619D01*
X130185714Y-84742857D01*
X130185714Y-84790476D01*
X130138095Y-84885714D01*
X130090476Y-84933333D01*
X129995238Y-84980952D01*
X129804761Y-84980952D01*
X129709523Y-85028571D01*
X129661904Y-85076190D01*
X129614285Y-85171428D01*
X129614285Y-85361904D01*
X129661904Y-85457142D01*
X129709523Y-85504761D01*
X129804761Y-85552380D01*
X129995238Y-85552380D01*
X130090476Y-85504761D01*
X130138095Y-85457142D01*
X130185714Y-85361904D01*
X130185714Y-85171428D01*
X130138095Y-85076190D01*
X130090476Y-85028571D01*
X129995238Y-84980952D01*
G04 #@! TO.C,R1*
X103892380Y-139466666D02*
X103416190Y-139800000D01*
X103892380Y-140038095D02*
X102892380Y-140038095D01*
X102892380Y-139657142D01*
X102940000Y-139561904D01*
X102987619Y-139514285D01*
X103082857Y-139466666D01*
X103225714Y-139466666D01*
X103320952Y-139514285D01*
X103368571Y-139561904D01*
X103416190Y-139657142D01*
X103416190Y-140038095D01*
X103892380Y-138514285D02*
X103892380Y-139085714D01*
X103892380Y-138800000D02*
X102892380Y-138800000D01*
X103035238Y-138895238D01*
X103130476Y-138990476D01*
X103178095Y-139085714D01*
G04 #@! TO.C,R2*
X112567619Y-132033333D02*
X113043809Y-131700000D01*
X112567619Y-131461904D02*
X113567619Y-131461904D01*
X113567619Y-131842857D01*
X113520000Y-131938095D01*
X113472380Y-131985714D01*
X113377142Y-132033333D01*
X113234285Y-132033333D01*
X113139047Y-131985714D01*
X113091428Y-131938095D01*
X113043809Y-131842857D01*
X113043809Y-131461904D01*
X113472380Y-132414285D02*
X113520000Y-132461904D01*
X113567619Y-132557142D01*
X113567619Y-132795238D01*
X113520000Y-132890476D01*
X113472380Y-132938095D01*
X113377142Y-132985714D01*
X113281904Y-132985714D01*
X113139047Y-132938095D01*
X112567619Y-132366666D01*
X112567619Y-132985714D01*
G04 #@! TO.C,R3*
X113452380Y-142166666D02*
X112976190Y-142500000D01*
X113452380Y-142738095D02*
X112452380Y-142738095D01*
X112452380Y-142357142D01*
X112500000Y-142261904D01*
X112547619Y-142214285D01*
X112642857Y-142166666D01*
X112785714Y-142166666D01*
X112880952Y-142214285D01*
X112928571Y-142261904D01*
X112976190Y-142357142D01*
X112976190Y-142738095D01*
X112452380Y-141833333D02*
X112452380Y-141214285D01*
X112833333Y-141547619D01*
X112833333Y-141404761D01*
X112880952Y-141309523D01*
X112928571Y-141261904D01*
X113023809Y-141214285D01*
X113261904Y-141214285D01*
X113357142Y-141261904D01*
X113404761Y-141309523D01*
X113452380Y-141404761D01*
X113452380Y-141690476D01*
X113404761Y-141785714D01*
X113357142Y-141833333D01*
G04 #@! TO.C,R4*
X103852380Y-135066666D02*
X103376190Y-135400000D01*
X103852380Y-135638095D02*
X102852380Y-135638095D01*
X102852380Y-135257142D01*
X102900000Y-135161904D01*
X102947619Y-135114285D01*
X103042857Y-135066666D01*
X103185714Y-135066666D01*
X103280952Y-135114285D01*
X103328571Y-135161904D01*
X103376190Y-135257142D01*
X103376190Y-135638095D01*
X103185714Y-134209523D02*
X103852380Y-134209523D01*
X102804761Y-134447619D02*
X103519047Y-134685714D01*
X103519047Y-134066666D01*
G04 #@! TO.C,R6*
X107133333Y-93352380D02*
X106800000Y-92876190D01*
X106561904Y-93352380D02*
X106561904Y-92352380D01*
X106942857Y-92352380D01*
X107038095Y-92400000D01*
X107085714Y-92447619D01*
X107133333Y-92542857D01*
X107133333Y-92685714D01*
X107085714Y-92780952D01*
X107038095Y-92828571D01*
X106942857Y-92876190D01*
X106561904Y-92876190D01*
X107990476Y-92352380D02*
X107800000Y-92352380D01*
X107704761Y-92400000D01*
X107657142Y-92447619D01*
X107561904Y-92590476D01*
X107514285Y-92780952D01*
X107514285Y-93161904D01*
X107561904Y-93257142D01*
X107609523Y-93304761D01*
X107704761Y-93352380D01*
X107895238Y-93352380D01*
X107990476Y-93304761D01*
X108038095Y-93257142D01*
X108085714Y-93161904D01*
X108085714Y-92923809D01*
X108038095Y-92828571D01*
X107990476Y-92780952D01*
X107895238Y-92733333D01*
X107704761Y-92733333D01*
X107609523Y-92780952D01*
X107561904Y-92828571D01*
X107514285Y-92923809D01*
G04 #@! TO.C,L1*
X129333333Y-103132380D02*
X128857142Y-103132380D01*
X128857142Y-102132380D01*
X130190476Y-103132380D02*
X129619047Y-103132380D01*
X129904761Y-103132380D02*
X129904761Y-102132380D01*
X129809523Y-102275238D01*
X129714285Y-102370476D01*
X129619047Y-102418095D01*
G04 #@! TO.C,L2*
X127033333Y-103162380D02*
X126557142Y-103162380D01*
X126557142Y-102162380D01*
X127319047Y-102257619D02*
X127366666Y-102210000D01*
X127461904Y-102162380D01*
X127700000Y-102162380D01*
X127795238Y-102210000D01*
X127842857Y-102257619D01*
X127890476Y-102352857D01*
X127890476Y-102448095D01*
X127842857Y-102590952D01*
X127271428Y-103162380D01*
X127890476Y-103162380D01*
G04 #@! TO.C,U2*
X119238095Y-91052380D02*
X119238095Y-91861904D01*
X119285714Y-91957142D01*
X119333333Y-92004761D01*
X119428571Y-92052380D01*
X119619047Y-92052380D01*
X119714285Y-92004761D01*
X119761904Y-91957142D01*
X119809523Y-91861904D01*
X119809523Y-91052380D01*
X120238095Y-91147619D02*
X120285714Y-91100000D01*
X120380952Y-91052380D01*
X120619047Y-91052380D01*
X120714285Y-91100000D01*
X120761904Y-91147619D01*
X120809523Y-91242857D01*
X120809523Y-91338095D01*
X120761904Y-91480952D01*
X120190476Y-92052380D01*
X120809523Y-92052380D01*
G04 #@! TO.C,C2*
X119833333Y-117757142D02*
X119785714Y-117804761D01*
X119642857Y-117852380D01*
X119547619Y-117852380D01*
X119404761Y-117804761D01*
X119309523Y-117709523D01*
X119261904Y-117614285D01*
X119214285Y-117423809D01*
X119214285Y-117280952D01*
X119261904Y-117090476D01*
X119309523Y-116995238D01*
X119404761Y-116900000D01*
X119547619Y-116852380D01*
X119642857Y-116852380D01*
X119785714Y-116900000D01*
X119833333Y-116947619D01*
X120214285Y-116947619D02*
X120261904Y-116900000D01*
X120357142Y-116852380D01*
X120595238Y-116852380D01*
X120690476Y-116900000D01*
X120738095Y-116947619D01*
X120785714Y-117042857D01*
X120785714Y-117138095D01*
X120738095Y-117280952D01*
X120166666Y-117852380D01*
X120785714Y-117852380D01*
G04 #@! TO.C,C3*
X126033333Y-85457142D02*
X125985714Y-85504761D01*
X125842857Y-85552380D01*
X125747619Y-85552380D01*
X125604761Y-85504761D01*
X125509523Y-85409523D01*
X125461904Y-85314285D01*
X125414285Y-85123809D01*
X125414285Y-84980952D01*
X125461904Y-84790476D01*
X125509523Y-84695238D01*
X125604761Y-84600000D01*
X125747619Y-84552380D01*
X125842857Y-84552380D01*
X125985714Y-84600000D01*
X126033333Y-84647619D01*
X126366666Y-84552380D02*
X126985714Y-84552380D01*
X126652380Y-84933333D01*
X126795238Y-84933333D01*
X126890476Y-84980952D01*
X126938095Y-85028571D01*
X126985714Y-85123809D01*
X126985714Y-85361904D01*
X126938095Y-85457142D01*
X126890476Y-85504761D01*
X126795238Y-85552380D01*
X126509523Y-85552380D01*
X126414285Y-85504761D01*
X126366666Y-85457142D01*
G04 #@! TO.C,Q5*
X107204761Y-96547619D02*
X107109523Y-96500000D01*
X107014285Y-96404761D01*
X106871428Y-96261904D01*
X106776190Y-96214285D01*
X106680952Y-96214285D01*
X106728571Y-96452380D02*
X106633333Y-96404761D01*
X106538095Y-96309523D01*
X106490476Y-96119047D01*
X106490476Y-95785714D01*
X106538095Y-95595238D01*
X106633333Y-95500000D01*
X106728571Y-95452380D01*
X106919047Y-95452380D01*
X107014285Y-95500000D01*
X107109523Y-95595238D01*
X107157142Y-95785714D01*
X107157142Y-96119047D01*
X107109523Y-96309523D01*
X107014285Y-96404761D01*
X106919047Y-96452380D01*
X106728571Y-96452380D01*
X108061904Y-95452380D02*
X107585714Y-95452380D01*
X107538095Y-95928571D01*
X107585714Y-95880952D01*
X107680952Y-95833333D01*
X107919047Y-95833333D01*
X108014285Y-95880952D01*
X108061904Y-95928571D01*
X108109523Y-96023809D01*
X108109523Y-96261904D01*
X108061904Y-96357142D01*
X108014285Y-96404761D01*
X107919047Y-96452380D01*
X107680952Y-96452380D01*
X107585714Y-96404761D01*
X107538095Y-96357142D01*
G04 #@! TO.C,R10*
X109857142Y-131852380D02*
X109523809Y-131376190D01*
X109285714Y-131852380D02*
X109285714Y-130852380D01*
X109666666Y-130852380D01*
X109761904Y-130900000D01*
X109809523Y-130947619D01*
X109857142Y-131042857D01*
X109857142Y-131185714D01*
X109809523Y-131280952D01*
X109761904Y-131328571D01*
X109666666Y-131376190D01*
X109285714Y-131376190D01*
X110809523Y-131852380D02*
X110238095Y-131852380D01*
X110523809Y-131852380D02*
X110523809Y-130852380D01*
X110428571Y-130995238D01*
X110333333Y-131090476D01*
X110238095Y-131138095D01*
X111428571Y-130852380D02*
X111523809Y-130852380D01*
X111619047Y-130900000D01*
X111666666Y-130947619D01*
X111714285Y-131042857D01*
X111761904Y-131233333D01*
X111761904Y-131471428D01*
X111714285Y-131661904D01*
X111666666Y-131757142D01*
X111619047Y-131804761D01*
X111523809Y-131852380D01*
X111428571Y-131852380D01*
X111333333Y-131804761D01*
X111285714Y-131757142D01*
X111238095Y-131661904D01*
X111190476Y-131471428D01*
X111190476Y-131233333D01*
X111238095Y-131042857D01*
X111285714Y-130947619D01*
X111333333Y-130900000D01*
X111428571Y-130852380D01*
G04 #@! TO.C,SW1*
X118566666Y-128804761D02*
X118709523Y-128852380D01*
X118947619Y-128852380D01*
X119042857Y-128804761D01*
X119090476Y-128757142D01*
X119138095Y-128661904D01*
X119138095Y-128566666D01*
X119090476Y-128471428D01*
X119042857Y-128423809D01*
X118947619Y-128376190D01*
X118757142Y-128328571D01*
X118661904Y-128280952D01*
X118614285Y-128233333D01*
X118566666Y-128138095D01*
X118566666Y-128042857D01*
X118614285Y-127947619D01*
X118661904Y-127900000D01*
X118757142Y-127852380D01*
X118995238Y-127852380D01*
X119138095Y-127900000D01*
X119471428Y-127852380D02*
X119709523Y-128852380D01*
X119900000Y-128138095D01*
X120090476Y-128852380D01*
X120328571Y-127852380D01*
X121233333Y-128852380D02*
X120661904Y-128852380D01*
X120947619Y-128852380D02*
X120947619Y-127852380D01*
X120852380Y-127995238D01*
X120757142Y-128090476D01*
X120661904Y-128138095D01*
G04 #@! TO.C,P1*
D15*
X128637571Y-131244714D02*
X128637571Y-130482714D01*
X128927857Y-130482714D01*
X129000428Y-130519000D01*
X129036714Y-130555285D01*
X129073000Y-130627857D01*
X129073000Y-130736714D01*
X129036714Y-130809285D01*
X129000428Y-130845571D01*
X128927857Y-130881857D01*
X128637571Y-130881857D01*
X129798714Y-131244714D02*
X129363285Y-131244714D01*
X129581000Y-131244714D02*
X129581000Y-130482714D01*
X129508428Y-130591571D01*
X129435857Y-130664142D01*
X129363285Y-130700428D01*
G04 #@! TO.C,Y1*
D13*
X117876190Y-107376190D02*
X118352380Y-107376190D01*
X117352380Y-107709523D02*
X117876190Y-107376190D01*
X117352380Y-107042857D01*
X118352380Y-106185714D02*
X118352380Y-106757142D01*
X118352380Y-106471428D02*
X117352380Y-106471428D01*
X117495238Y-106566666D01*
X117590476Y-106661904D01*
X117638095Y-106757142D01*
G04 #@! TO.C,Q4*
X130504761Y-87147619D02*
X130409523Y-87100000D01*
X130314285Y-87004761D01*
X130171428Y-86861904D01*
X130076190Y-86814285D01*
X129980952Y-86814285D01*
X130028571Y-87052380D02*
X129933333Y-87004761D01*
X129838095Y-86909523D01*
X129790476Y-86719047D01*
X129790476Y-86385714D01*
X129838095Y-86195238D01*
X129933333Y-86100000D01*
X130028571Y-86052380D01*
X130219047Y-86052380D01*
X130314285Y-86100000D01*
X130409523Y-86195238D01*
X130457142Y-86385714D01*
X130457142Y-86719047D01*
X130409523Y-86909523D01*
X130314285Y-87004761D01*
X130219047Y-87052380D01*
X130028571Y-87052380D01*
X131314285Y-86385714D02*
X131314285Y-87052380D01*
X131076190Y-86004761D02*
X130838095Y-86719047D01*
X131457142Y-86719047D01*
G04 #@! TO.C,R5*
X135533333Y-89552380D02*
X135200000Y-89076190D01*
X134961904Y-89552380D02*
X134961904Y-88552380D01*
X135342857Y-88552380D01*
X135438095Y-88600000D01*
X135485714Y-88647619D01*
X135533333Y-88742857D01*
X135533333Y-88885714D01*
X135485714Y-88980952D01*
X135438095Y-89028571D01*
X135342857Y-89076190D01*
X134961904Y-89076190D01*
X136438095Y-88552380D02*
X135961904Y-88552380D01*
X135914285Y-89028571D01*
X135961904Y-88980952D01*
X136057142Y-88933333D01*
X136295238Y-88933333D01*
X136390476Y-88980952D01*
X136438095Y-89028571D01*
X136485714Y-89123809D01*
X136485714Y-89361904D01*
X136438095Y-89457142D01*
X136390476Y-89504761D01*
X136295238Y-89552380D01*
X136057142Y-89552380D01*
X135961904Y-89504761D01*
X135914285Y-89457142D01*
G04 #@! TO.C,R7*
X125833333Y-87152380D02*
X125500000Y-86676190D01*
X125261904Y-87152380D02*
X125261904Y-86152380D01*
X125642857Y-86152380D01*
X125738095Y-86200000D01*
X125785714Y-86247619D01*
X125833333Y-86342857D01*
X125833333Y-86485714D01*
X125785714Y-86580952D01*
X125738095Y-86628571D01*
X125642857Y-86676190D01*
X125261904Y-86676190D01*
X126166666Y-86152380D02*
X126833333Y-86152380D01*
X126404761Y-87152380D01*
G04 #@! TO.C,R8*
X125833333Y-91982380D02*
X125500000Y-91506190D01*
X125261904Y-91982380D02*
X125261904Y-90982380D01*
X125642857Y-90982380D01*
X125738095Y-91030000D01*
X125785714Y-91077619D01*
X125833333Y-91172857D01*
X125833333Y-91315714D01*
X125785714Y-91410952D01*
X125738095Y-91458571D01*
X125642857Y-91506190D01*
X125261904Y-91506190D01*
X126404761Y-91410952D02*
X126309523Y-91363333D01*
X126261904Y-91315714D01*
X126214285Y-91220476D01*
X126214285Y-91172857D01*
X126261904Y-91077619D01*
X126309523Y-91030000D01*
X126404761Y-90982380D01*
X126595238Y-90982380D01*
X126690476Y-91030000D01*
X126738095Y-91077619D01*
X126785714Y-91172857D01*
X126785714Y-91220476D01*
X126738095Y-91315714D01*
X126690476Y-91363333D01*
X126595238Y-91410952D01*
X126404761Y-91410952D01*
X126309523Y-91458571D01*
X126261904Y-91506190D01*
X126214285Y-91601428D01*
X126214285Y-91791904D01*
X126261904Y-91887142D01*
X126309523Y-91934761D01*
X126404761Y-91982380D01*
X126595238Y-91982380D01*
X126690476Y-91934761D01*
X126738095Y-91887142D01*
X126785714Y-91791904D01*
X126785714Y-91601428D01*
X126738095Y-91506190D01*
X126690476Y-91458571D01*
X126595238Y-91410952D01*
G04 #@! TD*
M02*
