G04 #@! TF.GenerationSoftware,KiCad,Pcbnew,5.0.2-bee76a0~70~ubuntu16.04.1*
G04 #@! TF.CreationDate,2018-12-01T12:07:59+05:30*
G04 #@! TF.ProjectId,senseBeRx_rev2,73656e73-6542-4655-9278-5f726576322e,rev?*
G04 #@! TF.SameCoordinates,Original*
G04 #@! TF.FileFunction,Copper,L1,Top*
G04 #@! TF.FilePolarity,Positive*
%FSLAX46Y46*%
G04 Gerber Fmt 4.6, Leading zero omitted, Abs format (unit mm)*
G04 Created by KiCad (PCBNEW 5.0.2-bee76a0~70~ubuntu16.04.1) date Sat Dec  1 12:07:59 2018*
%MOMM*%
%LPD*%
G01*
G04 APERTURE LIST*
G04 #@! TA.AperFunction,Conductor*
%ADD10C,0.100000*%
G04 #@! TD*
G04 #@! TA.AperFunction,ComponentPad*
%ADD11C,3.000000*%
G04 #@! TD*
G04 #@! TA.AperFunction,SMDPad,CuDef*
%ADD12R,1.200000X2.500000*%
G04 #@! TD*
G04 #@! TA.AperFunction,SMDPad,CuDef*
%ADD13C,0.950000*%
G04 #@! TD*
G04 #@! TA.AperFunction,SMDPad,CuDef*
%ADD14R,1.600000X0.800000*%
G04 #@! TD*
G04 #@! TA.AperFunction,ComponentPad*
%ADD15R,1.800000X1.800000*%
G04 #@! TD*
G04 #@! TA.AperFunction,ComponentPad*
%ADD16C,1.800000*%
G04 #@! TD*
G04 #@! TA.AperFunction,SMDPad,CuDef*
%ADD17R,1.900000X0.800000*%
G04 #@! TD*
G04 #@! TA.AperFunction,SMDPad,CuDef*
%ADD18R,0.500000X1.200000*%
G04 #@! TD*
G04 #@! TA.AperFunction,SMDPad,CuDef*
%ADD19R,0.900000X1.600000*%
G04 #@! TD*
G04 #@! TA.AperFunction,SMDPad,CuDef*
%ADD20R,0.500000X1.600000*%
G04 #@! TD*
G04 #@! TA.AperFunction,SMDPad,CuDef*
%ADD21R,1.600000X0.500000*%
G04 #@! TD*
G04 #@! TA.AperFunction,SMDPad,CuDef*
%ADD22C,1.150000*%
G04 #@! TD*
G04 #@! TA.AperFunction,ComponentPad*
%ADD23C,2.000000*%
G04 #@! TD*
G04 #@! TA.AperFunction,WasherPad*
%ADD24C,1.600000*%
G04 #@! TD*
G04 #@! TA.AperFunction,ComponentPad*
%ADD25C,1.600000*%
G04 #@! TD*
G04 #@! TA.AperFunction,ComponentPad*
%ADD26C,1.000000*%
G04 #@! TD*
G04 #@! TA.AperFunction,SMDPad,CuDef*
%ADD27R,0.900000X0.800000*%
G04 #@! TD*
G04 #@! TA.AperFunction,ViaPad*
%ADD28C,0.800000*%
G04 #@! TD*
G04 #@! TA.AperFunction,Conductor*
%ADD29C,0.250000*%
G04 #@! TD*
G04 APERTURE END LIST*
D10*
G04 #@! TO.N,Net-(BT1-Pad1)*
G04 #@! TO.C,BT1*
G36*
X127573513Y-76403611D02*
X127646318Y-76414411D01*
X127717714Y-76432295D01*
X127787013Y-76457090D01*
X127853548Y-76488559D01*
X127916678Y-76526398D01*
X127975795Y-76570242D01*
X128030330Y-76619670D01*
X128079758Y-76674205D01*
X128123602Y-76733322D01*
X128161441Y-76796452D01*
X128192910Y-76862987D01*
X128217705Y-76932286D01*
X128235589Y-77003682D01*
X128246389Y-77076487D01*
X128250000Y-77150000D01*
X128250000Y-78650000D01*
X128246389Y-78723513D01*
X128235589Y-78796318D01*
X128217705Y-78867714D01*
X128192910Y-78937013D01*
X128161441Y-79003548D01*
X128123602Y-79066678D01*
X128079758Y-79125795D01*
X128030330Y-79180330D01*
X127975795Y-79229758D01*
X127916678Y-79273602D01*
X127853548Y-79311441D01*
X127787013Y-79342910D01*
X127717714Y-79367705D01*
X127646318Y-79385589D01*
X127573513Y-79396389D01*
X127500000Y-79400000D01*
X125000000Y-79400000D01*
X124926487Y-79396389D01*
X124853682Y-79385589D01*
X124782286Y-79367705D01*
X124712987Y-79342910D01*
X124646452Y-79311441D01*
X124583322Y-79273602D01*
X124524205Y-79229758D01*
X124469670Y-79180330D01*
X124420242Y-79125795D01*
X124376398Y-79066678D01*
X124338559Y-79003548D01*
X124307090Y-78937013D01*
X124282295Y-78867714D01*
X124264411Y-78796318D01*
X124253611Y-78723513D01*
X124250000Y-78650000D01*
X124250000Y-77150000D01*
X124253611Y-77076487D01*
X124264411Y-77003682D01*
X124282295Y-76932286D01*
X124307090Y-76862987D01*
X124338559Y-76796452D01*
X124376398Y-76733322D01*
X124420242Y-76674205D01*
X124469670Y-76619670D01*
X124524205Y-76570242D01*
X124583322Y-76526398D01*
X124646452Y-76488559D01*
X124712987Y-76457090D01*
X124782286Y-76432295D01*
X124853682Y-76414411D01*
X124926487Y-76403611D01*
X125000000Y-76400000D01*
X127500000Y-76400000D01*
X127573513Y-76403611D01*
X127573513Y-76403611D01*
G37*
D11*
G04 #@! TD*
G04 #@! TO.P,BT1,1*
G04 #@! TO.N,Net-(BT1-Pad1)*
X126250000Y-77900000D03*
D10*
G04 #@! TO.N,GND*
G04 #@! TO.C,BT1*
G36*
X115073513Y-76403611D02*
X115146318Y-76414411D01*
X115217714Y-76432295D01*
X115287013Y-76457090D01*
X115353548Y-76488559D01*
X115416678Y-76526398D01*
X115475795Y-76570242D01*
X115530330Y-76619670D01*
X115579758Y-76674205D01*
X115623602Y-76733322D01*
X115661441Y-76796452D01*
X115692910Y-76862987D01*
X115717705Y-76932286D01*
X115735589Y-77003682D01*
X115746389Y-77076487D01*
X115750000Y-77150000D01*
X115750000Y-78650000D01*
X115746389Y-78723513D01*
X115735589Y-78796318D01*
X115717705Y-78867714D01*
X115692910Y-78937013D01*
X115661441Y-79003548D01*
X115623602Y-79066678D01*
X115579758Y-79125795D01*
X115530330Y-79180330D01*
X115475795Y-79229758D01*
X115416678Y-79273602D01*
X115353548Y-79311441D01*
X115287013Y-79342910D01*
X115217714Y-79367705D01*
X115146318Y-79385589D01*
X115073513Y-79396389D01*
X115000000Y-79400000D01*
X112500000Y-79400000D01*
X112426487Y-79396389D01*
X112353682Y-79385589D01*
X112282286Y-79367705D01*
X112212987Y-79342910D01*
X112146452Y-79311441D01*
X112083322Y-79273602D01*
X112024205Y-79229758D01*
X111969670Y-79180330D01*
X111920242Y-79125795D01*
X111876398Y-79066678D01*
X111838559Y-79003548D01*
X111807090Y-78937013D01*
X111782295Y-78867714D01*
X111764411Y-78796318D01*
X111753611Y-78723513D01*
X111750000Y-78650000D01*
X111750000Y-77150000D01*
X111753611Y-77076487D01*
X111764411Y-77003682D01*
X111782295Y-76932286D01*
X111807090Y-76862987D01*
X111838559Y-76796452D01*
X111876398Y-76733322D01*
X111920242Y-76674205D01*
X111969670Y-76619670D01*
X112024205Y-76570242D01*
X112083322Y-76526398D01*
X112146452Y-76488559D01*
X112212987Y-76457090D01*
X112282286Y-76432295D01*
X112353682Y-76414411D01*
X112426487Y-76403611D01*
X112500000Y-76400000D01*
X115000000Y-76400000D01*
X115073513Y-76403611D01*
X115073513Y-76403611D01*
G37*
D11*
G04 #@! TD*
G04 #@! TO.P,BT1,2*
G04 #@! TO.N,GND*
X113750000Y-77900000D03*
D12*
G04 #@! TO.P,J1,5*
G04 #@! TO.N,/CAM_JACK*
X111325000Y-126950000D03*
G04 #@! TO.P,J1,4*
G04 #@! TO.N,/TRIGGER*
X110225000Y-120450000D03*
G04 #@! TO.P,J1,3*
G04 #@! TO.N,/FOCUS*
X106225000Y-120450000D03*
G04 #@! TO.P,J1,2*
G04 #@! TO.N,GND*
X103225000Y-120450000D03*
G04 #@! TD*
D10*
G04 #@! TO.N,/RX_EN*
G04 #@! TO.C,R9*
G36*
X112585779Y-98726144D02*
X112608834Y-98729563D01*
X112631443Y-98735227D01*
X112653387Y-98743079D01*
X112674457Y-98753044D01*
X112694448Y-98765026D01*
X112713168Y-98778910D01*
X112730438Y-98794562D01*
X112746090Y-98811832D01*
X112759974Y-98830552D01*
X112771956Y-98850543D01*
X112781921Y-98871613D01*
X112789773Y-98893557D01*
X112795437Y-98916166D01*
X112798856Y-98939221D01*
X112800000Y-98962500D01*
X112800000Y-99437500D01*
X112798856Y-99460779D01*
X112795437Y-99483834D01*
X112789773Y-99506443D01*
X112781921Y-99528387D01*
X112771956Y-99549457D01*
X112759974Y-99569448D01*
X112746090Y-99588168D01*
X112730438Y-99605438D01*
X112713168Y-99621090D01*
X112694448Y-99634974D01*
X112674457Y-99646956D01*
X112653387Y-99656921D01*
X112631443Y-99664773D01*
X112608834Y-99670437D01*
X112585779Y-99673856D01*
X112562500Y-99675000D01*
X111987500Y-99675000D01*
X111964221Y-99673856D01*
X111941166Y-99670437D01*
X111918557Y-99664773D01*
X111896613Y-99656921D01*
X111875543Y-99646956D01*
X111855552Y-99634974D01*
X111836832Y-99621090D01*
X111819562Y-99605438D01*
X111803910Y-99588168D01*
X111790026Y-99569448D01*
X111778044Y-99549457D01*
X111768079Y-99528387D01*
X111760227Y-99506443D01*
X111754563Y-99483834D01*
X111751144Y-99460779D01*
X111750000Y-99437500D01*
X111750000Y-98962500D01*
X111751144Y-98939221D01*
X111754563Y-98916166D01*
X111760227Y-98893557D01*
X111768079Y-98871613D01*
X111778044Y-98850543D01*
X111790026Y-98830552D01*
X111803910Y-98811832D01*
X111819562Y-98794562D01*
X111836832Y-98778910D01*
X111855552Y-98765026D01*
X111875543Y-98753044D01*
X111896613Y-98743079D01*
X111918557Y-98735227D01*
X111941166Y-98729563D01*
X111964221Y-98726144D01*
X111987500Y-98725000D01*
X112562500Y-98725000D01*
X112585779Y-98726144D01*
X112585779Y-98726144D01*
G37*
D13*
G04 #@! TD*
G04 #@! TO.P,R9,1*
G04 #@! TO.N,/RX_EN*
X112275000Y-99200000D03*
D10*
G04 #@! TO.N,GND*
G04 #@! TO.C,R9*
G36*
X110835779Y-98726144D02*
X110858834Y-98729563D01*
X110881443Y-98735227D01*
X110903387Y-98743079D01*
X110924457Y-98753044D01*
X110944448Y-98765026D01*
X110963168Y-98778910D01*
X110980438Y-98794562D01*
X110996090Y-98811832D01*
X111009974Y-98830552D01*
X111021956Y-98850543D01*
X111031921Y-98871613D01*
X111039773Y-98893557D01*
X111045437Y-98916166D01*
X111048856Y-98939221D01*
X111050000Y-98962500D01*
X111050000Y-99437500D01*
X111048856Y-99460779D01*
X111045437Y-99483834D01*
X111039773Y-99506443D01*
X111031921Y-99528387D01*
X111021956Y-99549457D01*
X111009974Y-99569448D01*
X110996090Y-99588168D01*
X110980438Y-99605438D01*
X110963168Y-99621090D01*
X110944448Y-99634974D01*
X110924457Y-99646956D01*
X110903387Y-99656921D01*
X110881443Y-99664773D01*
X110858834Y-99670437D01*
X110835779Y-99673856D01*
X110812500Y-99675000D01*
X110237500Y-99675000D01*
X110214221Y-99673856D01*
X110191166Y-99670437D01*
X110168557Y-99664773D01*
X110146613Y-99656921D01*
X110125543Y-99646956D01*
X110105552Y-99634974D01*
X110086832Y-99621090D01*
X110069562Y-99605438D01*
X110053910Y-99588168D01*
X110040026Y-99569448D01*
X110028044Y-99549457D01*
X110018079Y-99528387D01*
X110010227Y-99506443D01*
X110004563Y-99483834D01*
X110001144Y-99460779D01*
X110000000Y-99437500D01*
X110000000Y-98962500D01*
X110001144Y-98939221D01*
X110004563Y-98916166D01*
X110010227Y-98893557D01*
X110018079Y-98871613D01*
X110028044Y-98850543D01*
X110040026Y-98830552D01*
X110053910Y-98811832D01*
X110069562Y-98794562D01*
X110086832Y-98778910D01*
X110105552Y-98765026D01*
X110125543Y-98753044D01*
X110146613Y-98743079D01*
X110168557Y-98735227D01*
X110191166Y-98729563D01*
X110214221Y-98726144D01*
X110237500Y-98725000D01*
X110812500Y-98725000D01*
X110835779Y-98726144D01*
X110835779Y-98726144D01*
G37*
D13*
G04 #@! TD*
G04 #@! TO.P,R9,2*
G04 #@! TO.N,GND*
X110525000Y-99200000D03*
D14*
G04 #@! TO.P,D1,2*
G04 #@! TO.N,Net-(D1-Pad2)*
X118400000Y-136200000D03*
G04 #@! TO.P,D1,1*
G04 #@! TO.N,VDD*
X121600000Y-136200000D03*
G04 #@! TO.P,D1,3*
X121600000Y-137600000D03*
G04 #@! TO.P,D1,4*
G04 #@! TO.N,Net-(D1-Pad4)*
X118400000Y-137600000D03*
G04 #@! TD*
D15*
G04 #@! TO.P,D2,1*
G04 #@! TO.N,/LIGHT_SENSE*
X121300000Y-82500000D03*
D16*
G04 #@! TO.P,D2,2*
G04 #@! TO.N,GND*
X118760000Y-82500000D03*
G04 #@! TD*
D17*
G04 #@! TO.P,Q1,1*
G04 #@! TO.N,GND*
X132500000Y-81550000D03*
G04 #@! TO.P,Q1,2*
G04 #@! TO.N,VDD*
X132500000Y-83450000D03*
G04 #@! TO.P,Q1,3*
G04 #@! TO.N,Net-(BT1-Pad1)*
X135500000Y-82500000D03*
G04 #@! TD*
G04 #@! TO.P,Q2,1*
G04 #@! TO.N,/LED_GREEN*
X107500000Y-138350000D03*
G04 #@! TO.P,Q2,2*
G04 #@! TO.N,GND*
X107500000Y-140250000D03*
G04 #@! TO.P,Q2,3*
G04 #@! TO.N,Net-(Q2-Pad3)*
X110500000Y-139300000D03*
G04 #@! TD*
G04 #@! TO.P,Q3,3*
G04 #@! TO.N,Net-(Q3-Pad3)*
X110500000Y-134900000D03*
G04 #@! TO.P,Q3,2*
G04 #@! TO.N,GND*
X107500000Y-135850000D03*
G04 #@! TO.P,Q3,1*
G04 #@! TO.N,/LED_RED*
X107500000Y-133950000D03*
G04 #@! TD*
D18*
G04 #@! TO.P,U1,41*
G04 #@! TO.N,N/C*
X133850000Y-112900000D03*
G04 #@! TO.P,U1,40*
X135250000Y-112900000D03*
D19*
G04 #@! TO.P,U1,39*
G04 #@! TO.N,GND*
X135800000Y-114750000D03*
D20*
G04 #@! TO.P,U1,38*
G04 #@! TO.N,N/C*
X134900000Y-114750000D03*
G04 #@! TO.P,U1,37*
G04 #@! TO.N,/SWDIO*
X134200000Y-114750000D03*
G04 #@! TO.P,U1,36*
G04 #@! TO.N,/SWDCLK*
X133500000Y-114750000D03*
G04 #@! TO.P,U1,35*
G04 #@! TO.N,/RESET*
X132800000Y-114750000D03*
G04 #@! TO.P,U1,34*
G04 #@! TO.N,/TX*
X132100000Y-114750000D03*
G04 #@! TO.P,U1,33*
G04 #@! TO.N,/GPIO1*
X131400000Y-114750000D03*
G04 #@! TO.P,U1,32*
G04 #@! TO.N,/GPIO2*
X130700000Y-114750000D03*
G04 #@! TO.P,U1,31*
G04 #@! TO.N,/RX*
X130000000Y-114750000D03*
G04 #@! TO.P,U1,30*
G04 #@! TO.N,/LED_RED*
X129300000Y-114750000D03*
G04 #@! TO.P,U1,29*
G04 #@! TO.N,N/C*
X128600000Y-114750000D03*
G04 #@! TO.P,U1,28*
X127900000Y-114750000D03*
G04 #@! TO.P,U1,27*
G04 #@! TO.N,/TRIGGER*
X127200000Y-114750000D03*
G04 #@! TO.P,U1,26*
G04 #@! TO.N,/FOCUS*
X126500000Y-114750000D03*
G04 #@! TO.P,U1,25*
G04 #@! TO.N,/CAM_JACK*
X125800000Y-114750000D03*
D21*
G04 #@! TO.P,U1,24*
G04 #@! TO.N,GND*
X124250000Y-114200000D03*
G04 #@! TO.P,U1,23*
G04 #@! TO.N,N/C*
X124250000Y-113500000D03*
G04 #@! TO.P,U1,22*
X124250000Y-112800000D03*
G04 #@! TO.P,U1,21*
G04 #@! TO.N,/BUTTON*
X124250000Y-112100000D03*
G04 #@! TO.P,U1,20*
G04 #@! TO.N,/RX_EN*
X124250000Y-111400000D03*
G04 #@! TO.P,U1,19*
G04 #@! TO.N,/RX_OUT*
X124250000Y-110700000D03*
G04 #@! TO.P,U1,18*
G04 #@! TO.N,/LIGHT_SENSE*
X124250000Y-110000000D03*
G04 #@! TO.P,U1,17*
G04 #@! TO.N,N/C*
X124250000Y-109300000D03*
G04 #@! TO.P,U1,16*
X124250000Y-108600000D03*
G04 #@! TO.P,U1,15*
X124250000Y-107900000D03*
G04 #@! TO.P,U1,14*
G04 #@! TO.N,/LFCLK_XL2*
X124250000Y-107200000D03*
G04 #@! TO.P,U1,13*
G04 #@! TO.N,/LFCLK_XL1*
X124250000Y-106500000D03*
D20*
G04 #@! TO.P,U1,11*
G04 #@! TO.N,VDD*
X126500000Y-105250000D03*
G04 #@! TO.P,U1,10*
G04 #@! TO.N,/DCC*
X127200000Y-105250000D03*
G04 #@! TO.P,U1,9*
G04 #@! TO.N,/DEC4*
X127900000Y-105250000D03*
G04 #@! TO.P,U1,8*
G04 #@! TO.N,VDD*
X128600000Y-105250000D03*
G04 #@! TO.P,U1,7*
G04 #@! TO.N,N/C*
X129300000Y-105250000D03*
G04 #@! TO.P,U1,6*
X130000000Y-105250000D03*
G04 #@! TO.P,U1,5*
X130700000Y-105250000D03*
G04 #@! TO.P,U1,4*
X131400000Y-105250000D03*
G04 #@! TO.P,U1,3*
G04 #@! TO.N,/LED_RED*
X132100000Y-105250000D03*
D19*
G04 #@! TO.P,U1,1*
G04 #@! TO.N,GND*
X135800000Y-105250000D03*
D20*
G04 #@! TO.P,U1,2*
G04 #@! TO.N,/LED_GREEN*
X132800000Y-105250000D03*
D21*
G04 #@! TO.P,U1,12*
G04 #@! TO.N,GND*
X124250000Y-105700000D03*
G04 #@! TD*
D10*
G04 #@! TO.N,GND*
G04 #@! TO.C,C1*
G36*
X131960779Y-98701144D02*
X131983834Y-98704563D01*
X132006443Y-98710227D01*
X132028387Y-98718079D01*
X132049457Y-98728044D01*
X132069448Y-98740026D01*
X132088168Y-98753910D01*
X132105438Y-98769562D01*
X132121090Y-98786832D01*
X132134974Y-98805552D01*
X132146956Y-98825543D01*
X132156921Y-98846613D01*
X132164773Y-98868557D01*
X132170437Y-98891166D01*
X132173856Y-98914221D01*
X132175000Y-98937500D01*
X132175000Y-99512500D01*
X132173856Y-99535779D01*
X132170437Y-99558834D01*
X132164773Y-99581443D01*
X132156921Y-99603387D01*
X132146956Y-99624457D01*
X132134974Y-99644448D01*
X132121090Y-99663168D01*
X132105438Y-99680438D01*
X132088168Y-99696090D01*
X132069448Y-99709974D01*
X132049457Y-99721956D01*
X132028387Y-99731921D01*
X132006443Y-99739773D01*
X131983834Y-99745437D01*
X131960779Y-99748856D01*
X131937500Y-99750000D01*
X131462500Y-99750000D01*
X131439221Y-99748856D01*
X131416166Y-99745437D01*
X131393557Y-99739773D01*
X131371613Y-99731921D01*
X131350543Y-99721956D01*
X131330552Y-99709974D01*
X131311832Y-99696090D01*
X131294562Y-99680438D01*
X131278910Y-99663168D01*
X131265026Y-99644448D01*
X131253044Y-99624457D01*
X131243079Y-99603387D01*
X131235227Y-99581443D01*
X131229563Y-99558834D01*
X131226144Y-99535779D01*
X131225000Y-99512500D01*
X131225000Y-98937500D01*
X131226144Y-98914221D01*
X131229563Y-98891166D01*
X131235227Y-98868557D01*
X131243079Y-98846613D01*
X131253044Y-98825543D01*
X131265026Y-98805552D01*
X131278910Y-98786832D01*
X131294562Y-98769562D01*
X131311832Y-98753910D01*
X131330552Y-98740026D01*
X131350543Y-98728044D01*
X131371613Y-98718079D01*
X131393557Y-98710227D01*
X131416166Y-98704563D01*
X131439221Y-98701144D01*
X131462500Y-98700000D01*
X131937500Y-98700000D01*
X131960779Y-98701144D01*
X131960779Y-98701144D01*
G37*
D13*
G04 #@! TD*
G04 #@! TO.P,C1,1*
G04 #@! TO.N,GND*
X131700000Y-99225000D03*
D10*
G04 #@! TO.N,/DEC4*
G04 #@! TO.C,C1*
G36*
X131960779Y-100451144D02*
X131983834Y-100454563D01*
X132006443Y-100460227D01*
X132028387Y-100468079D01*
X132049457Y-100478044D01*
X132069448Y-100490026D01*
X132088168Y-100503910D01*
X132105438Y-100519562D01*
X132121090Y-100536832D01*
X132134974Y-100555552D01*
X132146956Y-100575543D01*
X132156921Y-100596613D01*
X132164773Y-100618557D01*
X132170437Y-100641166D01*
X132173856Y-100664221D01*
X132175000Y-100687500D01*
X132175000Y-101262500D01*
X132173856Y-101285779D01*
X132170437Y-101308834D01*
X132164773Y-101331443D01*
X132156921Y-101353387D01*
X132146956Y-101374457D01*
X132134974Y-101394448D01*
X132121090Y-101413168D01*
X132105438Y-101430438D01*
X132088168Y-101446090D01*
X132069448Y-101459974D01*
X132049457Y-101471956D01*
X132028387Y-101481921D01*
X132006443Y-101489773D01*
X131983834Y-101495437D01*
X131960779Y-101498856D01*
X131937500Y-101500000D01*
X131462500Y-101500000D01*
X131439221Y-101498856D01*
X131416166Y-101495437D01*
X131393557Y-101489773D01*
X131371613Y-101481921D01*
X131350543Y-101471956D01*
X131330552Y-101459974D01*
X131311832Y-101446090D01*
X131294562Y-101430438D01*
X131278910Y-101413168D01*
X131265026Y-101394448D01*
X131253044Y-101374457D01*
X131243079Y-101353387D01*
X131235227Y-101331443D01*
X131229563Y-101308834D01*
X131226144Y-101285779D01*
X131225000Y-101262500D01*
X131225000Y-100687500D01*
X131226144Y-100664221D01*
X131229563Y-100641166D01*
X131235227Y-100618557D01*
X131243079Y-100596613D01*
X131253044Y-100575543D01*
X131265026Y-100555552D01*
X131278910Y-100536832D01*
X131294562Y-100519562D01*
X131311832Y-100503910D01*
X131330552Y-100490026D01*
X131350543Y-100478044D01*
X131371613Y-100468079D01*
X131393557Y-100460227D01*
X131416166Y-100454563D01*
X131439221Y-100451144D01*
X131462500Y-100450000D01*
X131937500Y-100450000D01*
X131960779Y-100451144D01*
X131960779Y-100451144D01*
G37*
D13*
G04 #@! TD*
G04 #@! TO.P,C1,2*
G04 #@! TO.N,/DEC4*
X131700000Y-100975000D03*
D10*
G04 #@! TO.N,VDD*
G04 #@! TO.C,C4*
G36*
X122860779Y-100451144D02*
X122883834Y-100454563D01*
X122906443Y-100460227D01*
X122928387Y-100468079D01*
X122949457Y-100478044D01*
X122969448Y-100490026D01*
X122988168Y-100503910D01*
X123005438Y-100519562D01*
X123021090Y-100536832D01*
X123034974Y-100555552D01*
X123046956Y-100575543D01*
X123056921Y-100596613D01*
X123064773Y-100618557D01*
X123070437Y-100641166D01*
X123073856Y-100664221D01*
X123075000Y-100687500D01*
X123075000Y-101262500D01*
X123073856Y-101285779D01*
X123070437Y-101308834D01*
X123064773Y-101331443D01*
X123056921Y-101353387D01*
X123046956Y-101374457D01*
X123034974Y-101394448D01*
X123021090Y-101413168D01*
X123005438Y-101430438D01*
X122988168Y-101446090D01*
X122969448Y-101459974D01*
X122949457Y-101471956D01*
X122928387Y-101481921D01*
X122906443Y-101489773D01*
X122883834Y-101495437D01*
X122860779Y-101498856D01*
X122837500Y-101500000D01*
X122362500Y-101500000D01*
X122339221Y-101498856D01*
X122316166Y-101495437D01*
X122293557Y-101489773D01*
X122271613Y-101481921D01*
X122250543Y-101471956D01*
X122230552Y-101459974D01*
X122211832Y-101446090D01*
X122194562Y-101430438D01*
X122178910Y-101413168D01*
X122165026Y-101394448D01*
X122153044Y-101374457D01*
X122143079Y-101353387D01*
X122135227Y-101331443D01*
X122129563Y-101308834D01*
X122126144Y-101285779D01*
X122125000Y-101262500D01*
X122125000Y-100687500D01*
X122126144Y-100664221D01*
X122129563Y-100641166D01*
X122135227Y-100618557D01*
X122143079Y-100596613D01*
X122153044Y-100575543D01*
X122165026Y-100555552D01*
X122178910Y-100536832D01*
X122194562Y-100519562D01*
X122211832Y-100503910D01*
X122230552Y-100490026D01*
X122250543Y-100478044D01*
X122271613Y-100468079D01*
X122293557Y-100460227D01*
X122316166Y-100454563D01*
X122339221Y-100451144D01*
X122362500Y-100450000D01*
X122837500Y-100450000D01*
X122860779Y-100451144D01*
X122860779Y-100451144D01*
G37*
D13*
G04 #@! TD*
G04 #@! TO.P,C4,2*
G04 #@! TO.N,VDD*
X122600000Y-100975000D03*
D10*
G04 #@! TO.N,GND*
G04 #@! TO.C,C4*
G36*
X122860779Y-98701144D02*
X122883834Y-98704563D01*
X122906443Y-98710227D01*
X122928387Y-98718079D01*
X122949457Y-98728044D01*
X122969448Y-98740026D01*
X122988168Y-98753910D01*
X123005438Y-98769562D01*
X123021090Y-98786832D01*
X123034974Y-98805552D01*
X123046956Y-98825543D01*
X123056921Y-98846613D01*
X123064773Y-98868557D01*
X123070437Y-98891166D01*
X123073856Y-98914221D01*
X123075000Y-98937500D01*
X123075000Y-99512500D01*
X123073856Y-99535779D01*
X123070437Y-99558834D01*
X123064773Y-99581443D01*
X123056921Y-99603387D01*
X123046956Y-99624457D01*
X123034974Y-99644448D01*
X123021090Y-99663168D01*
X123005438Y-99680438D01*
X122988168Y-99696090D01*
X122969448Y-99709974D01*
X122949457Y-99721956D01*
X122928387Y-99731921D01*
X122906443Y-99739773D01*
X122883834Y-99745437D01*
X122860779Y-99748856D01*
X122837500Y-99750000D01*
X122362500Y-99750000D01*
X122339221Y-99748856D01*
X122316166Y-99745437D01*
X122293557Y-99739773D01*
X122271613Y-99731921D01*
X122250543Y-99721956D01*
X122230552Y-99709974D01*
X122211832Y-99696090D01*
X122194562Y-99680438D01*
X122178910Y-99663168D01*
X122165026Y-99644448D01*
X122153044Y-99624457D01*
X122143079Y-99603387D01*
X122135227Y-99581443D01*
X122129563Y-99558834D01*
X122126144Y-99535779D01*
X122125000Y-99512500D01*
X122125000Y-98937500D01*
X122126144Y-98914221D01*
X122129563Y-98891166D01*
X122135227Y-98868557D01*
X122143079Y-98846613D01*
X122153044Y-98825543D01*
X122165026Y-98805552D01*
X122178910Y-98786832D01*
X122194562Y-98769562D01*
X122211832Y-98753910D01*
X122230552Y-98740026D01*
X122250543Y-98728044D01*
X122271613Y-98718079D01*
X122293557Y-98710227D01*
X122316166Y-98704563D01*
X122339221Y-98701144D01*
X122362500Y-98700000D01*
X122837500Y-98700000D01*
X122860779Y-98701144D01*
X122860779Y-98701144D01*
G37*
D13*
G04 #@! TD*
G04 #@! TO.P,C4,1*
G04 #@! TO.N,GND*
X122600000Y-99225000D03*
D10*
G04 #@! TO.N,/LFCLK_XL1*
G04 #@! TO.C,C5*
G36*
X119185779Y-103426144D02*
X119208834Y-103429563D01*
X119231443Y-103435227D01*
X119253387Y-103443079D01*
X119274457Y-103453044D01*
X119294448Y-103465026D01*
X119313168Y-103478910D01*
X119330438Y-103494562D01*
X119346090Y-103511832D01*
X119359974Y-103530552D01*
X119371956Y-103550543D01*
X119381921Y-103571613D01*
X119389773Y-103593557D01*
X119395437Y-103616166D01*
X119398856Y-103639221D01*
X119400000Y-103662500D01*
X119400000Y-104137500D01*
X119398856Y-104160779D01*
X119395437Y-104183834D01*
X119389773Y-104206443D01*
X119381921Y-104228387D01*
X119371956Y-104249457D01*
X119359974Y-104269448D01*
X119346090Y-104288168D01*
X119330438Y-104305438D01*
X119313168Y-104321090D01*
X119294448Y-104334974D01*
X119274457Y-104346956D01*
X119253387Y-104356921D01*
X119231443Y-104364773D01*
X119208834Y-104370437D01*
X119185779Y-104373856D01*
X119162500Y-104375000D01*
X118587500Y-104375000D01*
X118564221Y-104373856D01*
X118541166Y-104370437D01*
X118518557Y-104364773D01*
X118496613Y-104356921D01*
X118475543Y-104346956D01*
X118455552Y-104334974D01*
X118436832Y-104321090D01*
X118419562Y-104305438D01*
X118403910Y-104288168D01*
X118390026Y-104269448D01*
X118378044Y-104249457D01*
X118368079Y-104228387D01*
X118360227Y-104206443D01*
X118354563Y-104183834D01*
X118351144Y-104160779D01*
X118350000Y-104137500D01*
X118350000Y-103662500D01*
X118351144Y-103639221D01*
X118354563Y-103616166D01*
X118360227Y-103593557D01*
X118368079Y-103571613D01*
X118378044Y-103550543D01*
X118390026Y-103530552D01*
X118403910Y-103511832D01*
X118419562Y-103494562D01*
X118436832Y-103478910D01*
X118455552Y-103465026D01*
X118475543Y-103453044D01*
X118496613Y-103443079D01*
X118518557Y-103435227D01*
X118541166Y-103429563D01*
X118564221Y-103426144D01*
X118587500Y-103425000D01*
X119162500Y-103425000D01*
X119185779Y-103426144D01*
X119185779Y-103426144D01*
G37*
D13*
G04 #@! TD*
G04 #@! TO.P,C5,2*
G04 #@! TO.N,/LFCLK_XL1*
X118875000Y-103900000D03*
D10*
G04 #@! TO.N,GND*
G04 #@! TO.C,C5*
G36*
X117435779Y-103426144D02*
X117458834Y-103429563D01*
X117481443Y-103435227D01*
X117503387Y-103443079D01*
X117524457Y-103453044D01*
X117544448Y-103465026D01*
X117563168Y-103478910D01*
X117580438Y-103494562D01*
X117596090Y-103511832D01*
X117609974Y-103530552D01*
X117621956Y-103550543D01*
X117631921Y-103571613D01*
X117639773Y-103593557D01*
X117645437Y-103616166D01*
X117648856Y-103639221D01*
X117650000Y-103662500D01*
X117650000Y-104137500D01*
X117648856Y-104160779D01*
X117645437Y-104183834D01*
X117639773Y-104206443D01*
X117631921Y-104228387D01*
X117621956Y-104249457D01*
X117609974Y-104269448D01*
X117596090Y-104288168D01*
X117580438Y-104305438D01*
X117563168Y-104321090D01*
X117544448Y-104334974D01*
X117524457Y-104346956D01*
X117503387Y-104356921D01*
X117481443Y-104364773D01*
X117458834Y-104370437D01*
X117435779Y-104373856D01*
X117412500Y-104375000D01*
X116837500Y-104375000D01*
X116814221Y-104373856D01*
X116791166Y-104370437D01*
X116768557Y-104364773D01*
X116746613Y-104356921D01*
X116725543Y-104346956D01*
X116705552Y-104334974D01*
X116686832Y-104321090D01*
X116669562Y-104305438D01*
X116653910Y-104288168D01*
X116640026Y-104269448D01*
X116628044Y-104249457D01*
X116618079Y-104228387D01*
X116610227Y-104206443D01*
X116604563Y-104183834D01*
X116601144Y-104160779D01*
X116600000Y-104137500D01*
X116600000Y-103662500D01*
X116601144Y-103639221D01*
X116604563Y-103616166D01*
X116610227Y-103593557D01*
X116618079Y-103571613D01*
X116628044Y-103550543D01*
X116640026Y-103530552D01*
X116653910Y-103511832D01*
X116669562Y-103494562D01*
X116686832Y-103478910D01*
X116705552Y-103465026D01*
X116725543Y-103453044D01*
X116746613Y-103443079D01*
X116768557Y-103435227D01*
X116791166Y-103429563D01*
X116814221Y-103426144D01*
X116837500Y-103425000D01*
X117412500Y-103425000D01*
X117435779Y-103426144D01*
X117435779Y-103426144D01*
G37*
D13*
G04 #@! TD*
G04 #@! TO.P,C5,1*
G04 #@! TO.N,GND*
X117125000Y-103900000D03*
D10*
G04 #@! TO.N,GND*
G04 #@! TO.C,C6*
G36*
X125160779Y-98701144D02*
X125183834Y-98704563D01*
X125206443Y-98710227D01*
X125228387Y-98718079D01*
X125249457Y-98728044D01*
X125269448Y-98740026D01*
X125288168Y-98753910D01*
X125305438Y-98769562D01*
X125321090Y-98786832D01*
X125334974Y-98805552D01*
X125346956Y-98825543D01*
X125356921Y-98846613D01*
X125364773Y-98868557D01*
X125370437Y-98891166D01*
X125373856Y-98914221D01*
X125375000Y-98937500D01*
X125375000Y-99512500D01*
X125373856Y-99535779D01*
X125370437Y-99558834D01*
X125364773Y-99581443D01*
X125356921Y-99603387D01*
X125346956Y-99624457D01*
X125334974Y-99644448D01*
X125321090Y-99663168D01*
X125305438Y-99680438D01*
X125288168Y-99696090D01*
X125269448Y-99709974D01*
X125249457Y-99721956D01*
X125228387Y-99731921D01*
X125206443Y-99739773D01*
X125183834Y-99745437D01*
X125160779Y-99748856D01*
X125137500Y-99750000D01*
X124662500Y-99750000D01*
X124639221Y-99748856D01*
X124616166Y-99745437D01*
X124593557Y-99739773D01*
X124571613Y-99731921D01*
X124550543Y-99721956D01*
X124530552Y-99709974D01*
X124511832Y-99696090D01*
X124494562Y-99680438D01*
X124478910Y-99663168D01*
X124465026Y-99644448D01*
X124453044Y-99624457D01*
X124443079Y-99603387D01*
X124435227Y-99581443D01*
X124429563Y-99558834D01*
X124426144Y-99535779D01*
X124425000Y-99512500D01*
X124425000Y-98937500D01*
X124426144Y-98914221D01*
X124429563Y-98891166D01*
X124435227Y-98868557D01*
X124443079Y-98846613D01*
X124453044Y-98825543D01*
X124465026Y-98805552D01*
X124478910Y-98786832D01*
X124494562Y-98769562D01*
X124511832Y-98753910D01*
X124530552Y-98740026D01*
X124550543Y-98728044D01*
X124571613Y-98718079D01*
X124593557Y-98710227D01*
X124616166Y-98704563D01*
X124639221Y-98701144D01*
X124662500Y-98700000D01*
X125137500Y-98700000D01*
X125160779Y-98701144D01*
X125160779Y-98701144D01*
G37*
D13*
G04 #@! TD*
G04 #@! TO.P,C6,1*
G04 #@! TO.N,GND*
X124900000Y-99225000D03*
D10*
G04 #@! TO.N,VDD*
G04 #@! TO.C,C6*
G36*
X125160779Y-100451144D02*
X125183834Y-100454563D01*
X125206443Y-100460227D01*
X125228387Y-100468079D01*
X125249457Y-100478044D01*
X125269448Y-100490026D01*
X125288168Y-100503910D01*
X125305438Y-100519562D01*
X125321090Y-100536832D01*
X125334974Y-100555552D01*
X125346956Y-100575543D01*
X125356921Y-100596613D01*
X125364773Y-100618557D01*
X125370437Y-100641166D01*
X125373856Y-100664221D01*
X125375000Y-100687500D01*
X125375000Y-101262500D01*
X125373856Y-101285779D01*
X125370437Y-101308834D01*
X125364773Y-101331443D01*
X125356921Y-101353387D01*
X125346956Y-101374457D01*
X125334974Y-101394448D01*
X125321090Y-101413168D01*
X125305438Y-101430438D01*
X125288168Y-101446090D01*
X125269448Y-101459974D01*
X125249457Y-101471956D01*
X125228387Y-101481921D01*
X125206443Y-101489773D01*
X125183834Y-101495437D01*
X125160779Y-101498856D01*
X125137500Y-101500000D01*
X124662500Y-101500000D01*
X124639221Y-101498856D01*
X124616166Y-101495437D01*
X124593557Y-101489773D01*
X124571613Y-101481921D01*
X124550543Y-101471956D01*
X124530552Y-101459974D01*
X124511832Y-101446090D01*
X124494562Y-101430438D01*
X124478910Y-101413168D01*
X124465026Y-101394448D01*
X124453044Y-101374457D01*
X124443079Y-101353387D01*
X124435227Y-101331443D01*
X124429563Y-101308834D01*
X124426144Y-101285779D01*
X124425000Y-101262500D01*
X124425000Y-100687500D01*
X124426144Y-100664221D01*
X124429563Y-100641166D01*
X124435227Y-100618557D01*
X124443079Y-100596613D01*
X124453044Y-100575543D01*
X124465026Y-100555552D01*
X124478910Y-100536832D01*
X124494562Y-100519562D01*
X124511832Y-100503910D01*
X124530552Y-100490026D01*
X124550543Y-100478044D01*
X124571613Y-100468079D01*
X124593557Y-100460227D01*
X124616166Y-100454563D01*
X124639221Y-100451144D01*
X124662500Y-100450000D01*
X125137500Y-100450000D01*
X125160779Y-100451144D01*
X125160779Y-100451144D01*
G37*
D13*
G04 #@! TD*
G04 #@! TO.P,C6,2*
G04 #@! TO.N,VDD*
X124900000Y-100975000D03*
D10*
G04 #@! TO.N,/LFCLK_XL2*
G04 #@! TO.C,C7*
G36*
X119185779Y-109526144D02*
X119208834Y-109529563D01*
X119231443Y-109535227D01*
X119253387Y-109543079D01*
X119274457Y-109553044D01*
X119294448Y-109565026D01*
X119313168Y-109578910D01*
X119330438Y-109594562D01*
X119346090Y-109611832D01*
X119359974Y-109630552D01*
X119371956Y-109650543D01*
X119381921Y-109671613D01*
X119389773Y-109693557D01*
X119395437Y-109716166D01*
X119398856Y-109739221D01*
X119400000Y-109762500D01*
X119400000Y-110237500D01*
X119398856Y-110260779D01*
X119395437Y-110283834D01*
X119389773Y-110306443D01*
X119381921Y-110328387D01*
X119371956Y-110349457D01*
X119359974Y-110369448D01*
X119346090Y-110388168D01*
X119330438Y-110405438D01*
X119313168Y-110421090D01*
X119294448Y-110434974D01*
X119274457Y-110446956D01*
X119253387Y-110456921D01*
X119231443Y-110464773D01*
X119208834Y-110470437D01*
X119185779Y-110473856D01*
X119162500Y-110475000D01*
X118587500Y-110475000D01*
X118564221Y-110473856D01*
X118541166Y-110470437D01*
X118518557Y-110464773D01*
X118496613Y-110456921D01*
X118475543Y-110446956D01*
X118455552Y-110434974D01*
X118436832Y-110421090D01*
X118419562Y-110405438D01*
X118403910Y-110388168D01*
X118390026Y-110369448D01*
X118378044Y-110349457D01*
X118368079Y-110328387D01*
X118360227Y-110306443D01*
X118354563Y-110283834D01*
X118351144Y-110260779D01*
X118350000Y-110237500D01*
X118350000Y-109762500D01*
X118351144Y-109739221D01*
X118354563Y-109716166D01*
X118360227Y-109693557D01*
X118368079Y-109671613D01*
X118378044Y-109650543D01*
X118390026Y-109630552D01*
X118403910Y-109611832D01*
X118419562Y-109594562D01*
X118436832Y-109578910D01*
X118455552Y-109565026D01*
X118475543Y-109553044D01*
X118496613Y-109543079D01*
X118518557Y-109535227D01*
X118541166Y-109529563D01*
X118564221Y-109526144D01*
X118587500Y-109525000D01*
X119162500Y-109525000D01*
X119185779Y-109526144D01*
X119185779Y-109526144D01*
G37*
D13*
G04 #@! TD*
G04 #@! TO.P,C7,2*
G04 #@! TO.N,/LFCLK_XL2*
X118875000Y-110000000D03*
D10*
G04 #@! TO.N,GND*
G04 #@! TO.C,C7*
G36*
X117435779Y-109526144D02*
X117458834Y-109529563D01*
X117481443Y-109535227D01*
X117503387Y-109543079D01*
X117524457Y-109553044D01*
X117544448Y-109565026D01*
X117563168Y-109578910D01*
X117580438Y-109594562D01*
X117596090Y-109611832D01*
X117609974Y-109630552D01*
X117621956Y-109650543D01*
X117631921Y-109671613D01*
X117639773Y-109693557D01*
X117645437Y-109716166D01*
X117648856Y-109739221D01*
X117650000Y-109762500D01*
X117650000Y-110237500D01*
X117648856Y-110260779D01*
X117645437Y-110283834D01*
X117639773Y-110306443D01*
X117631921Y-110328387D01*
X117621956Y-110349457D01*
X117609974Y-110369448D01*
X117596090Y-110388168D01*
X117580438Y-110405438D01*
X117563168Y-110421090D01*
X117544448Y-110434974D01*
X117524457Y-110446956D01*
X117503387Y-110456921D01*
X117481443Y-110464773D01*
X117458834Y-110470437D01*
X117435779Y-110473856D01*
X117412500Y-110475000D01*
X116837500Y-110475000D01*
X116814221Y-110473856D01*
X116791166Y-110470437D01*
X116768557Y-110464773D01*
X116746613Y-110456921D01*
X116725543Y-110446956D01*
X116705552Y-110434974D01*
X116686832Y-110421090D01*
X116669562Y-110405438D01*
X116653910Y-110388168D01*
X116640026Y-110369448D01*
X116628044Y-110349457D01*
X116618079Y-110328387D01*
X116610227Y-110306443D01*
X116604563Y-110283834D01*
X116601144Y-110260779D01*
X116600000Y-110237500D01*
X116600000Y-109762500D01*
X116601144Y-109739221D01*
X116604563Y-109716166D01*
X116610227Y-109693557D01*
X116618079Y-109671613D01*
X116628044Y-109650543D01*
X116640026Y-109630552D01*
X116653910Y-109611832D01*
X116669562Y-109594562D01*
X116686832Y-109578910D01*
X116705552Y-109565026D01*
X116725543Y-109553044D01*
X116746613Y-109543079D01*
X116768557Y-109535227D01*
X116791166Y-109529563D01*
X116814221Y-109526144D01*
X116837500Y-109525000D01*
X117412500Y-109525000D01*
X117435779Y-109526144D01*
X117435779Y-109526144D01*
G37*
D13*
G04 #@! TD*
G04 #@! TO.P,C7,1*
G04 #@! TO.N,GND*
X117125000Y-110000000D03*
D10*
G04 #@! TO.N,VDD*
G04 #@! TO.C,C8*
G36*
X129660779Y-82851144D02*
X129683834Y-82854563D01*
X129706443Y-82860227D01*
X129728387Y-82868079D01*
X129749457Y-82878044D01*
X129769448Y-82890026D01*
X129788168Y-82903910D01*
X129805438Y-82919562D01*
X129821090Y-82936832D01*
X129834974Y-82955552D01*
X129846956Y-82975543D01*
X129856921Y-82996613D01*
X129864773Y-83018557D01*
X129870437Y-83041166D01*
X129873856Y-83064221D01*
X129875000Y-83087500D01*
X129875000Y-83662500D01*
X129873856Y-83685779D01*
X129870437Y-83708834D01*
X129864773Y-83731443D01*
X129856921Y-83753387D01*
X129846956Y-83774457D01*
X129834974Y-83794448D01*
X129821090Y-83813168D01*
X129805438Y-83830438D01*
X129788168Y-83846090D01*
X129769448Y-83859974D01*
X129749457Y-83871956D01*
X129728387Y-83881921D01*
X129706443Y-83889773D01*
X129683834Y-83895437D01*
X129660779Y-83898856D01*
X129637500Y-83900000D01*
X129162500Y-83900000D01*
X129139221Y-83898856D01*
X129116166Y-83895437D01*
X129093557Y-83889773D01*
X129071613Y-83881921D01*
X129050543Y-83871956D01*
X129030552Y-83859974D01*
X129011832Y-83846090D01*
X128994562Y-83830438D01*
X128978910Y-83813168D01*
X128965026Y-83794448D01*
X128953044Y-83774457D01*
X128943079Y-83753387D01*
X128935227Y-83731443D01*
X128929563Y-83708834D01*
X128926144Y-83685779D01*
X128925000Y-83662500D01*
X128925000Y-83087500D01*
X128926144Y-83064221D01*
X128929563Y-83041166D01*
X128935227Y-83018557D01*
X128943079Y-82996613D01*
X128953044Y-82975543D01*
X128965026Y-82955552D01*
X128978910Y-82936832D01*
X128994562Y-82919562D01*
X129011832Y-82903910D01*
X129030552Y-82890026D01*
X129050543Y-82878044D01*
X129071613Y-82868079D01*
X129093557Y-82860227D01*
X129116166Y-82854563D01*
X129139221Y-82851144D01*
X129162500Y-82850000D01*
X129637500Y-82850000D01*
X129660779Y-82851144D01*
X129660779Y-82851144D01*
G37*
D13*
G04 #@! TD*
G04 #@! TO.P,C8,1*
G04 #@! TO.N,VDD*
X129400000Y-83375000D03*
D10*
G04 #@! TO.N,GND*
G04 #@! TO.C,C8*
G36*
X129660779Y-81101144D02*
X129683834Y-81104563D01*
X129706443Y-81110227D01*
X129728387Y-81118079D01*
X129749457Y-81128044D01*
X129769448Y-81140026D01*
X129788168Y-81153910D01*
X129805438Y-81169562D01*
X129821090Y-81186832D01*
X129834974Y-81205552D01*
X129846956Y-81225543D01*
X129856921Y-81246613D01*
X129864773Y-81268557D01*
X129870437Y-81291166D01*
X129873856Y-81314221D01*
X129875000Y-81337500D01*
X129875000Y-81912500D01*
X129873856Y-81935779D01*
X129870437Y-81958834D01*
X129864773Y-81981443D01*
X129856921Y-82003387D01*
X129846956Y-82024457D01*
X129834974Y-82044448D01*
X129821090Y-82063168D01*
X129805438Y-82080438D01*
X129788168Y-82096090D01*
X129769448Y-82109974D01*
X129749457Y-82121956D01*
X129728387Y-82131921D01*
X129706443Y-82139773D01*
X129683834Y-82145437D01*
X129660779Y-82148856D01*
X129637500Y-82150000D01*
X129162500Y-82150000D01*
X129139221Y-82148856D01*
X129116166Y-82145437D01*
X129093557Y-82139773D01*
X129071613Y-82131921D01*
X129050543Y-82121956D01*
X129030552Y-82109974D01*
X129011832Y-82096090D01*
X128994562Y-82080438D01*
X128978910Y-82063168D01*
X128965026Y-82044448D01*
X128953044Y-82024457D01*
X128943079Y-82003387D01*
X128935227Y-81981443D01*
X128929563Y-81958834D01*
X128926144Y-81935779D01*
X128925000Y-81912500D01*
X128925000Y-81337500D01*
X128926144Y-81314221D01*
X128929563Y-81291166D01*
X128935227Y-81268557D01*
X128943079Y-81246613D01*
X128953044Y-81225543D01*
X128965026Y-81205552D01*
X128978910Y-81186832D01*
X128994562Y-81169562D01*
X129011832Y-81153910D01*
X129030552Y-81140026D01*
X129050543Y-81128044D01*
X129071613Y-81118079D01*
X129093557Y-81110227D01*
X129116166Y-81104563D01*
X129139221Y-81101144D01*
X129162500Y-81100000D01*
X129637500Y-81100000D01*
X129660779Y-81101144D01*
X129660779Y-81101144D01*
G37*
D13*
G04 #@! TD*
G04 #@! TO.P,C8,2*
G04 #@! TO.N,GND*
X129400000Y-81625000D03*
D10*
G04 #@! TO.N,/LED_GREEN*
G04 #@! TO.C,R1*
G36*
X105160779Y-137901144D02*
X105183834Y-137904563D01*
X105206443Y-137910227D01*
X105228387Y-137918079D01*
X105249457Y-137928044D01*
X105269448Y-137940026D01*
X105288168Y-137953910D01*
X105305438Y-137969562D01*
X105321090Y-137986832D01*
X105334974Y-138005552D01*
X105346956Y-138025543D01*
X105356921Y-138046613D01*
X105364773Y-138068557D01*
X105370437Y-138091166D01*
X105373856Y-138114221D01*
X105375000Y-138137500D01*
X105375000Y-138712500D01*
X105373856Y-138735779D01*
X105370437Y-138758834D01*
X105364773Y-138781443D01*
X105356921Y-138803387D01*
X105346956Y-138824457D01*
X105334974Y-138844448D01*
X105321090Y-138863168D01*
X105305438Y-138880438D01*
X105288168Y-138896090D01*
X105269448Y-138909974D01*
X105249457Y-138921956D01*
X105228387Y-138931921D01*
X105206443Y-138939773D01*
X105183834Y-138945437D01*
X105160779Y-138948856D01*
X105137500Y-138950000D01*
X104662500Y-138950000D01*
X104639221Y-138948856D01*
X104616166Y-138945437D01*
X104593557Y-138939773D01*
X104571613Y-138931921D01*
X104550543Y-138921956D01*
X104530552Y-138909974D01*
X104511832Y-138896090D01*
X104494562Y-138880438D01*
X104478910Y-138863168D01*
X104465026Y-138844448D01*
X104453044Y-138824457D01*
X104443079Y-138803387D01*
X104435227Y-138781443D01*
X104429563Y-138758834D01*
X104426144Y-138735779D01*
X104425000Y-138712500D01*
X104425000Y-138137500D01*
X104426144Y-138114221D01*
X104429563Y-138091166D01*
X104435227Y-138068557D01*
X104443079Y-138046613D01*
X104453044Y-138025543D01*
X104465026Y-138005552D01*
X104478910Y-137986832D01*
X104494562Y-137969562D01*
X104511832Y-137953910D01*
X104530552Y-137940026D01*
X104550543Y-137928044D01*
X104571613Y-137918079D01*
X104593557Y-137910227D01*
X104616166Y-137904563D01*
X104639221Y-137901144D01*
X104662500Y-137900000D01*
X105137500Y-137900000D01*
X105160779Y-137901144D01*
X105160779Y-137901144D01*
G37*
D13*
G04 #@! TD*
G04 #@! TO.P,R1,1*
G04 #@! TO.N,/LED_GREEN*
X104900000Y-138425000D03*
D10*
G04 #@! TO.N,GND*
G04 #@! TO.C,R1*
G36*
X105160779Y-139651144D02*
X105183834Y-139654563D01*
X105206443Y-139660227D01*
X105228387Y-139668079D01*
X105249457Y-139678044D01*
X105269448Y-139690026D01*
X105288168Y-139703910D01*
X105305438Y-139719562D01*
X105321090Y-139736832D01*
X105334974Y-139755552D01*
X105346956Y-139775543D01*
X105356921Y-139796613D01*
X105364773Y-139818557D01*
X105370437Y-139841166D01*
X105373856Y-139864221D01*
X105375000Y-139887500D01*
X105375000Y-140462500D01*
X105373856Y-140485779D01*
X105370437Y-140508834D01*
X105364773Y-140531443D01*
X105356921Y-140553387D01*
X105346956Y-140574457D01*
X105334974Y-140594448D01*
X105321090Y-140613168D01*
X105305438Y-140630438D01*
X105288168Y-140646090D01*
X105269448Y-140659974D01*
X105249457Y-140671956D01*
X105228387Y-140681921D01*
X105206443Y-140689773D01*
X105183834Y-140695437D01*
X105160779Y-140698856D01*
X105137500Y-140700000D01*
X104662500Y-140700000D01*
X104639221Y-140698856D01*
X104616166Y-140695437D01*
X104593557Y-140689773D01*
X104571613Y-140681921D01*
X104550543Y-140671956D01*
X104530552Y-140659974D01*
X104511832Y-140646090D01*
X104494562Y-140630438D01*
X104478910Y-140613168D01*
X104465026Y-140594448D01*
X104453044Y-140574457D01*
X104443079Y-140553387D01*
X104435227Y-140531443D01*
X104429563Y-140508834D01*
X104426144Y-140485779D01*
X104425000Y-140462500D01*
X104425000Y-139887500D01*
X104426144Y-139864221D01*
X104429563Y-139841166D01*
X104435227Y-139818557D01*
X104443079Y-139796613D01*
X104453044Y-139775543D01*
X104465026Y-139755552D01*
X104478910Y-139736832D01*
X104494562Y-139719562D01*
X104511832Y-139703910D01*
X104530552Y-139690026D01*
X104550543Y-139678044D01*
X104571613Y-139668079D01*
X104593557Y-139660227D01*
X104616166Y-139654563D01*
X104639221Y-139651144D01*
X104662500Y-139650000D01*
X105137500Y-139650000D01*
X105160779Y-139651144D01*
X105160779Y-139651144D01*
G37*
D13*
G04 #@! TD*
G04 #@! TO.P,R1,2*
G04 #@! TO.N,GND*
X104900000Y-140175000D03*
D10*
G04 #@! TO.N,Net-(D1-Pad2)*
G04 #@! TO.C,R2*
G36*
X113260779Y-133501144D02*
X113283834Y-133504563D01*
X113306443Y-133510227D01*
X113328387Y-133518079D01*
X113349457Y-133528044D01*
X113369448Y-133540026D01*
X113388168Y-133553910D01*
X113405438Y-133569562D01*
X113421090Y-133586832D01*
X113434974Y-133605552D01*
X113446956Y-133625543D01*
X113456921Y-133646613D01*
X113464773Y-133668557D01*
X113470437Y-133691166D01*
X113473856Y-133714221D01*
X113475000Y-133737500D01*
X113475000Y-134312500D01*
X113473856Y-134335779D01*
X113470437Y-134358834D01*
X113464773Y-134381443D01*
X113456921Y-134403387D01*
X113446956Y-134424457D01*
X113434974Y-134444448D01*
X113421090Y-134463168D01*
X113405438Y-134480438D01*
X113388168Y-134496090D01*
X113369448Y-134509974D01*
X113349457Y-134521956D01*
X113328387Y-134531921D01*
X113306443Y-134539773D01*
X113283834Y-134545437D01*
X113260779Y-134548856D01*
X113237500Y-134550000D01*
X112762500Y-134550000D01*
X112739221Y-134548856D01*
X112716166Y-134545437D01*
X112693557Y-134539773D01*
X112671613Y-134531921D01*
X112650543Y-134521956D01*
X112630552Y-134509974D01*
X112611832Y-134496090D01*
X112594562Y-134480438D01*
X112578910Y-134463168D01*
X112565026Y-134444448D01*
X112553044Y-134424457D01*
X112543079Y-134403387D01*
X112535227Y-134381443D01*
X112529563Y-134358834D01*
X112526144Y-134335779D01*
X112525000Y-134312500D01*
X112525000Y-133737500D01*
X112526144Y-133714221D01*
X112529563Y-133691166D01*
X112535227Y-133668557D01*
X112543079Y-133646613D01*
X112553044Y-133625543D01*
X112565026Y-133605552D01*
X112578910Y-133586832D01*
X112594562Y-133569562D01*
X112611832Y-133553910D01*
X112630552Y-133540026D01*
X112650543Y-133528044D01*
X112671613Y-133518079D01*
X112693557Y-133510227D01*
X112716166Y-133504563D01*
X112739221Y-133501144D01*
X112762500Y-133500000D01*
X113237500Y-133500000D01*
X113260779Y-133501144D01*
X113260779Y-133501144D01*
G37*
D13*
G04 #@! TD*
G04 #@! TO.P,R2,2*
G04 #@! TO.N,Net-(D1-Pad2)*
X113000000Y-134025000D03*
D10*
G04 #@! TO.N,Net-(Q3-Pad3)*
G04 #@! TO.C,R2*
G36*
X113260779Y-135251144D02*
X113283834Y-135254563D01*
X113306443Y-135260227D01*
X113328387Y-135268079D01*
X113349457Y-135278044D01*
X113369448Y-135290026D01*
X113388168Y-135303910D01*
X113405438Y-135319562D01*
X113421090Y-135336832D01*
X113434974Y-135355552D01*
X113446956Y-135375543D01*
X113456921Y-135396613D01*
X113464773Y-135418557D01*
X113470437Y-135441166D01*
X113473856Y-135464221D01*
X113475000Y-135487500D01*
X113475000Y-136062500D01*
X113473856Y-136085779D01*
X113470437Y-136108834D01*
X113464773Y-136131443D01*
X113456921Y-136153387D01*
X113446956Y-136174457D01*
X113434974Y-136194448D01*
X113421090Y-136213168D01*
X113405438Y-136230438D01*
X113388168Y-136246090D01*
X113369448Y-136259974D01*
X113349457Y-136271956D01*
X113328387Y-136281921D01*
X113306443Y-136289773D01*
X113283834Y-136295437D01*
X113260779Y-136298856D01*
X113237500Y-136300000D01*
X112762500Y-136300000D01*
X112739221Y-136298856D01*
X112716166Y-136295437D01*
X112693557Y-136289773D01*
X112671613Y-136281921D01*
X112650543Y-136271956D01*
X112630552Y-136259974D01*
X112611832Y-136246090D01*
X112594562Y-136230438D01*
X112578910Y-136213168D01*
X112565026Y-136194448D01*
X112553044Y-136174457D01*
X112543079Y-136153387D01*
X112535227Y-136131443D01*
X112529563Y-136108834D01*
X112526144Y-136085779D01*
X112525000Y-136062500D01*
X112525000Y-135487500D01*
X112526144Y-135464221D01*
X112529563Y-135441166D01*
X112535227Y-135418557D01*
X112543079Y-135396613D01*
X112553044Y-135375543D01*
X112565026Y-135355552D01*
X112578910Y-135336832D01*
X112594562Y-135319562D01*
X112611832Y-135303910D01*
X112630552Y-135290026D01*
X112650543Y-135278044D01*
X112671613Y-135268079D01*
X112693557Y-135260227D01*
X112716166Y-135254563D01*
X112739221Y-135251144D01*
X112762500Y-135250000D01*
X113237500Y-135250000D01*
X113260779Y-135251144D01*
X113260779Y-135251144D01*
G37*
D13*
G04 #@! TD*
G04 #@! TO.P,R2,1*
G04 #@! TO.N,Net-(Q3-Pad3)*
X113000000Y-135775000D03*
D10*
G04 #@! TO.N,Net-(Q2-Pad3)*
G04 #@! TO.C,R3*
G36*
X113260779Y-139651144D02*
X113283834Y-139654563D01*
X113306443Y-139660227D01*
X113328387Y-139668079D01*
X113349457Y-139678044D01*
X113369448Y-139690026D01*
X113388168Y-139703910D01*
X113405438Y-139719562D01*
X113421090Y-139736832D01*
X113434974Y-139755552D01*
X113446956Y-139775543D01*
X113456921Y-139796613D01*
X113464773Y-139818557D01*
X113470437Y-139841166D01*
X113473856Y-139864221D01*
X113475000Y-139887500D01*
X113475000Y-140462500D01*
X113473856Y-140485779D01*
X113470437Y-140508834D01*
X113464773Y-140531443D01*
X113456921Y-140553387D01*
X113446956Y-140574457D01*
X113434974Y-140594448D01*
X113421090Y-140613168D01*
X113405438Y-140630438D01*
X113388168Y-140646090D01*
X113369448Y-140659974D01*
X113349457Y-140671956D01*
X113328387Y-140681921D01*
X113306443Y-140689773D01*
X113283834Y-140695437D01*
X113260779Y-140698856D01*
X113237500Y-140700000D01*
X112762500Y-140700000D01*
X112739221Y-140698856D01*
X112716166Y-140695437D01*
X112693557Y-140689773D01*
X112671613Y-140681921D01*
X112650543Y-140671956D01*
X112630552Y-140659974D01*
X112611832Y-140646090D01*
X112594562Y-140630438D01*
X112578910Y-140613168D01*
X112565026Y-140594448D01*
X112553044Y-140574457D01*
X112543079Y-140553387D01*
X112535227Y-140531443D01*
X112529563Y-140508834D01*
X112526144Y-140485779D01*
X112525000Y-140462500D01*
X112525000Y-139887500D01*
X112526144Y-139864221D01*
X112529563Y-139841166D01*
X112535227Y-139818557D01*
X112543079Y-139796613D01*
X112553044Y-139775543D01*
X112565026Y-139755552D01*
X112578910Y-139736832D01*
X112594562Y-139719562D01*
X112611832Y-139703910D01*
X112630552Y-139690026D01*
X112650543Y-139678044D01*
X112671613Y-139668079D01*
X112693557Y-139660227D01*
X112716166Y-139654563D01*
X112739221Y-139651144D01*
X112762500Y-139650000D01*
X113237500Y-139650000D01*
X113260779Y-139651144D01*
X113260779Y-139651144D01*
G37*
D13*
G04 #@! TD*
G04 #@! TO.P,R3,1*
G04 #@! TO.N,Net-(Q2-Pad3)*
X113000000Y-140175000D03*
D10*
G04 #@! TO.N,Net-(D1-Pad4)*
G04 #@! TO.C,R3*
G36*
X113260779Y-137901144D02*
X113283834Y-137904563D01*
X113306443Y-137910227D01*
X113328387Y-137918079D01*
X113349457Y-137928044D01*
X113369448Y-137940026D01*
X113388168Y-137953910D01*
X113405438Y-137969562D01*
X113421090Y-137986832D01*
X113434974Y-138005552D01*
X113446956Y-138025543D01*
X113456921Y-138046613D01*
X113464773Y-138068557D01*
X113470437Y-138091166D01*
X113473856Y-138114221D01*
X113475000Y-138137500D01*
X113475000Y-138712500D01*
X113473856Y-138735779D01*
X113470437Y-138758834D01*
X113464773Y-138781443D01*
X113456921Y-138803387D01*
X113446956Y-138824457D01*
X113434974Y-138844448D01*
X113421090Y-138863168D01*
X113405438Y-138880438D01*
X113388168Y-138896090D01*
X113369448Y-138909974D01*
X113349457Y-138921956D01*
X113328387Y-138931921D01*
X113306443Y-138939773D01*
X113283834Y-138945437D01*
X113260779Y-138948856D01*
X113237500Y-138950000D01*
X112762500Y-138950000D01*
X112739221Y-138948856D01*
X112716166Y-138945437D01*
X112693557Y-138939773D01*
X112671613Y-138931921D01*
X112650543Y-138921956D01*
X112630552Y-138909974D01*
X112611832Y-138896090D01*
X112594562Y-138880438D01*
X112578910Y-138863168D01*
X112565026Y-138844448D01*
X112553044Y-138824457D01*
X112543079Y-138803387D01*
X112535227Y-138781443D01*
X112529563Y-138758834D01*
X112526144Y-138735779D01*
X112525000Y-138712500D01*
X112525000Y-138137500D01*
X112526144Y-138114221D01*
X112529563Y-138091166D01*
X112535227Y-138068557D01*
X112543079Y-138046613D01*
X112553044Y-138025543D01*
X112565026Y-138005552D01*
X112578910Y-137986832D01*
X112594562Y-137969562D01*
X112611832Y-137953910D01*
X112630552Y-137940026D01*
X112650543Y-137928044D01*
X112671613Y-137918079D01*
X112693557Y-137910227D01*
X112716166Y-137904563D01*
X112739221Y-137901144D01*
X112762500Y-137900000D01*
X113237500Y-137900000D01*
X113260779Y-137901144D01*
X113260779Y-137901144D01*
G37*
D13*
G04 #@! TD*
G04 #@! TO.P,R3,2*
G04 #@! TO.N,Net-(D1-Pad4)*
X113000000Y-138425000D03*
D10*
G04 #@! TO.N,GND*
G04 #@! TO.C,R4*
G36*
X105160779Y-135251144D02*
X105183834Y-135254563D01*
X105206443Y-135260227D01*
X105228387Y-135268079D01*
X105249457Y-135278044D01*
X105269448Y-135290026D01*
X105288168Y-135303910D01*
X105305438Y-135319562D01*
X105321090Y-135336832D01*
X105334974Y-135355552D01*
X105346956Y-135375543D01*
X105356921Y-135396613D01*
X105364773Y-135418557D01*
X105370437Y-135441166D01*
X105373856Y-135464221D01*
X105375000Y-135487500D01*
X105375000Y-136062500D01*
X105373856Y-136085779D01*
X105370437Y-136108834D01*
X105364773Y-136131443D01*
X105356921Y-136153387D01*
X105346956Y-136174457D01*
X105334974Y-136194448D01*
X105321090Y-136213168D01*
X105305438Y-136230438D01*
X105288168Y-136246090D01*
X105269448Y-136259974D01*
X105249457Y-136271956D01*
X105228387Y-136281921D01*
X105206443Y-136289773D01*
X105183834Y-136295437D01*
X105160779Y-136298856D01*
X105137500Y-136300000D01*
X104662500Y-136300000D01*
X104639221Y-136298856D01*
X104616166Y-136295437D01*
X104593557Y-136289773D01*
X104571613Y-136281921D01*
X104550543Y-136271956D01*
X104530552Y-136259974D01*
X104511832Y-136246090D01*
X104494562Y-136230438D01*
X104478910Y-136213168D01*
X104465026Y-136194448D01*
X104453044Y-136174457D01*
X104443079Y-136153387D01*
X104435227Y-136131443D01*
X104429563Y-136108834D01*
X104426144Y-136085779D01*
X104425000Y-136062500D01*
X104425000Y-135487500D01*
X104426144Y-135464221D01*
X104429563Y-135441166D01*
X104435227Y-135418557D01*
X104443079Y-135396613D01*
X104453044Y-135375543D01*
X104465026Y-135355552D01*
X104478910Y-135336832D01*
X104494562Y-135319562D01*
X104511832Y-135303910D01*
X104530552Y-135290026D01*
X104550543Y-135278044D01*
X104571613Y-135268079D01*
X104593557Y-135260227D01*
X104616166Y-135254563D01*
X104639221Y-135251144D01*
X104662500Y-135250000D01*
X105137500Y-135250000D01*
X105160779Y-135251144D01*
X105160779Y-135251144D01*
G37*
D13*
G04 #@! TD*
G04 #@! TO.P,R4,2*
G04 #@! TO.N,GND*
X104900000Y-135775000D03*
D10*
G04 #@! TO.N,/LED_RED*
G04 #@! TO.C,R4*
G36*
X105160779Y-133501144D02*
X105183834Y-133504563D01*
X105206443Y-133510227D01*
X105228387Y-133518079D01*
X105249457Y-133528044D01*
X105269448Y-133540026D01*
X105288168Y-133553910D01*
X105305438Y-133569562D01*
X105321090Y-133586832D01*
X105334974Y-133605552D01*
X105346956Y-133625543D01*
X105356921Y-133646613D01*
X105364773Y-133668557D01*
X105370437Y-133691166D01*
X105373856Y-133714221D01*
X105375000Y-133737500D01*
X105375000Y-134312500D01*
X105373856Y-134335779D01*
X105370437Y-134358834D01*
X105364773Y-134381443D01*
X105356921Y-134403387D01*
X105346956Y-134424457D01*
X105334974Y-134444448D01*
X105321090Y-134463168D01*
X105305438Y-134480438D01*
X105288168Y-134496090D01*
X105269448Y-134509974D01*
X105249457Y-134521956D01*
X105228387Y-134531921D01*
X105206443Y-134539773D01*
X105183834Y-134545437D01*
X105160779Y-134548856D01*
X105137500Y-134550000D01*
X104662500Y-134550000D01*
X104639221Y-134548856D01*
X104616166Y-134545437D01*
X104593557Y-134539773D01*
X104571613Y-134531921D01*
X104550543Y-134521956D01*
X104530552Y-134509974D01*
X104511832Y-134496090D01*
X104494562Y-134480438D01*
X104478910Y-134463168D01*
X104465026Y-134444448D01*
X104453044Y-134424457D01*
X104443079Y-134403387D01*
X104435227Y-134381443D01*
X104429563Y-134358834D01*
X104426144Y-134335779D01*
X104425000Y-134312500D01*
X104425000Y-133737500D01*
X104426144Y-133714221D01*
X104429563Y-133691166D01*
X104435227Y-133668557D01*
X104443079Y-133646613D01*
X104453044Y-133625543D01*
X104465026Y-133605552D01*
X104478910Y-133586832D01*
X104494562Y-133569562D01*
X104511832Y-133553910D01*
X104530552Y-133540026D01*
X104550543Y-133528044D01*
X104571613Y-133518079D01*
X104593557Y-133510227D01*
X104616166Y-133504563D01*
X104639221Y-133501144D01*
X104662500Y-133500000D01*
X105137500Y-133500000D01*
X105160779Y-133501144D01*
X105160779Y-133501144D01*
G37*
D13*
G04 #@! TD*
G04 #@! TO.P,R4,1*
G04 #@! TO.N,/LED_RED*
X104900000Y-134025000D03*
D10*
G04 #@! TO.N,Net-(Q5-Pad3)*
G04 #@! TO.C,R6*
G36*
X110835779Y-92426144D02*
X110858834Y-92429563D01*
X110881443Y-92435227D01*
X110903387Y-92443079D01*
X110924457Y-92453044D01*
X110944448Y-92465026D01*
X110963168Y-92478910D01*
X110980438Y-92494562D01*
X110996090Y-92511832D01*
X111009974Y-92530552D01*
X111021956Y-92550543D01*
X111031921Y-92571613D01*
X111039773Y-92593557D01*
X111045437Y-92616166D01*
X111048856Y-92639221D01*
X111050000Y-92662500D01*
X111050000Y-93137500D01*
X111048856Y-93160779D01*
X111045437Y-93183834D01*
X111039773Y-93206443D01*
X111031921Y-93228387D01*
X111021956Y-93249457D01*
X111009974Y-93269448D01*
X110996090Y-93288168D01*
X110980438Y-93305438D01*
X110963168Y-93321090D01*
X110944448Y-93334974D01*
X110924457Y-93346956D01*
X110903387Y-93356921D01*
X110881443Y-93364773D01*
X110858834Y-93370437D01*
X110835779Y-93373856D01*
X110812500Y-93375000D01*
X110237500Y-93375000D01*
X110214221Y-93373856D01*
X110191166Y-93370437D01*
X110168557Y-93364773D01*
X110146613Y-93356921D01*
X110125543Y-93346956D01*
X110105552Y-93334974D01*
X110086832Y-93321090D01*
X110069562Y-93305438D01*
X110053910Y-93288168D01*
X110040026Y-93269448D01*
X110028044Y-93249457D01*
X110018079Y-93228387D01*
X110010227Y-93206443D01*
X110004563Y-93183834D01*
X110001144Y-93160779D01*
X110000000Y-93137500D01*
X110000000Y-92662500D01*
X110001144Y-92639221D01*
X110004563Y-92616166D01*
X110010227Y-92593557D01*
X110018079Y-92571613D01*
X110028044Y-92550543D01*
X110040026Y-92530552D01*
X110053910Y-92511832D01*
X110069562Y-92494562D01*
X110086832Y-92478910D01*
X110105552Y-92465026D01*
X110125543Y-92453044D01*
X110146613Y-92443079D01*
X110168557Y-92435227D01*
X110191166Y-92429563D01*
X110214221Y-92426144D01*
X110237500Y-92425000D01*
X110812500Y-92425000D01*
X110835779Y-92426144D01*
X110835779Y-92426144D01*
G37*
D13*
G04 #@! TD*
G04 #@! TO.P,R6,1*
G04 #@! TO.N,Net-(Q5-Pad3)*
X110525000Y-92900000D03*
D10*
G04 #@! TO.N,GND*
G04 #@! TO.C,R6*
G36*
X112585779Y-92426144D02*
X112608834Y-92429563D01*
X112631443Y-92435227D01*
X112653387Y-92443079D01*
X112674457Y-92453044D01*
X112694448Y-92465026D01*
X112713168Y-92478910D01*
X112730438Y-92494562D01*
X112746090Y-92511832D01*
X112759974Y-92530552D01*
X112771956Y-92550543D01*
X112781921Y-92571613D01*
X112789773Y-92593557D01*
X112795437Y-92616166D01*
X112798856Y-92639221D01*
X112800000Y-92662500D01*
X112800000Y-93137500D01*
X112798856Y-93160779D01*
X112795437Y-93183834D01*
X112789773Y-93206443D01*
X112781921Y-93228387D01*
X112771956Y-93249457D01*
X112759974Y-93269448D01*
X112746090Y-93288168D01*
X112730438Y-93305438D01*
X112713168Y-93321090D01*
X112694448Y-93334974D01*
X112674457Y-93346956D01*
X112653387Y-93356921D01*
X112631443Y-93364773D01*
X112608834Y-93370437D01*
X112585779Y-93373856D01*
X112562500Y-93375000D01*
X111987500Y-93375000D01*
X111964221Y-93373856D01*
X111941166Y-93370437D01*
X111918557Y-93364773D01*
X111896613Y-93356921D01*
X111875543Y-93346956D01*
X111855552Y-93334974D01*
X111836832Y-93321090D01*
X111819562Y-93305438D01*
X111803910Y-93288168D01*
X111790026Y-93269448D01*
X111778044Y-93249457D01*
X111768079Y-93228387D01*
X111760227Y-93206443D01*
X111754563Y-93183834D01*
X111751144Y-93160779D01*
X111750000Y-93137500D01*
X111750000Y-92662500D01*
X111751144Y-92639221D01*
X111754563Y-92616166D01*
X111760227Y-92593557D01*
X111768079Y-92571613D01*
X111778044Y-92550543D01*
X111790026Y-92530552D01*
X111803910Y-92511832D01*
X111819562Y-92494562D01*
X111836832Y-92478910D01*
X111855552Y-92465026D01*
X111875543Y-92453044D01*
X111896613Y-92443079D01*
X111918557Y-92435227D01*
X111941166Y-92429563D01*
X111964221Y-92426144D01*
X111987500Y-92425000D01*
X112562500Y-92425000D01*
X112585779Y-92426144D01*
X112585779Y-92426144D01*
G37*
D13*
G04 #@! TD*
G04 #@! TO.P,R6,2*
G04 #@! TO.N,GND*
X112275000Y-92900000D03*
D10*
G04 #@! TO.N,Net-(L1-Pad2)*
G04 #@! TO.C,L1*
G36*
X129760779Y-98701144D02*
X129783834Y-98704563D01*
X129806443Y-98710227D01*
X129828387Y-98718079D01*
X129849457Y-98728044D01*
X129869448Y-98740026D01*
X129888168Y-98753910D01*
X129905438Y-98769562D01*
X129921090Y-98786832D01*
X129934974Y-98805552D01*
X129946956Y-98825543D01*
X129956921Y-98846613D01*
X129964773Y-98868557D01*
X129970437Y-98891166D01*
X129973856Y-98914221D01*
X129975000Y-98937500D01*
X129975000Y-99512500D01*
X129973856Y-99535779D01*
X129970437Y-99558834D01*
X129964773Y-99581443D01*
X129956921Y-99603387D01*
X129946956Y-99624457D01*
X129934974Y-99644448D01*
X129921090Y-99663168D01*
X129905438Y-99680438D01*
X129888168Y-99696090D01*
X129869448Y-99709974D01*
X129849457Y-99721956D01*
X129828387Y-99731921D01*
X129806443Y-99739773D01*
X129783834Y-99745437D01*
X129760779Y-99748856D01*
X129737500Y-99750000D01*
X129262500Y-99750000D01*
X129239221Y-99748856D01*
X129216166Y-99745437D01*
X129193557Y-99739773D01*
X129171613Y-99731921D01*
X129150543Y-99721956D01*
X129130552Y-99709974D01*
X129111832Y-99696090D01*
X129094562Y-99680438D01*
X129078910Y-99663168D01*
X129065026Y-99644448D01*
X129053044Y-99624457D01*
X129043079Y-99603387D01*
X129035227Y-99581443D01*
X129029563Y-99558834D01*
X129026144Y-99535779D01*
X129025000Y-99512500D01*
X129025000Y-98937500D01*
X129026144Y-98914221D01*
X129029563Y-98891166D01*
X129035227Y-98868557D01*
X129043079Y-98846613D01*
X129053044Y-98825543D01*
X129065026Y-98805552D01*
X129078910Y-98786832D01*
X129094562Y-98769562D01*
X129111832Y-98753910D01*
X129130552Y-98740026D01*
X129150543Y-98728044D01*
X129171613Y-98718079D01*
X129193557Y-98710227D01*
X129216166Y-98704563D01*
X129239221Y-98701144D01*
X129262500Y-98700000D01*
X129737500Y-98700000D01*
X129760779Y-98701144D01*
X129760779Y-98701144D01*
G37*
D13*
G04 #@! TD*
G04 #@! TO.P,L1,2*
G04 #@! TO.N,Net-(L1-Pad2)*
X129500000Y-99225000D03*
D10*
G04 #@! TO.N,/DEC4*
G04 #@! TO.C,L1*
G36*
X129760779Y-100451144D02*
X129783834Y-100454563D01*
X129806443Y-100460227D01*
X129828387Y-100468079D01*
X129849457Y-100478044D01*
X129869448Y-100490026D01*
X129888168Y-100503910D01*
X129905438Y-100519562D01*
X129921090Y-100536832D01*
X129934974Y-100555552D01*
X129946956Y-100575543D01*
X129956921Y-100596613D01*
X129964773Y-100618557D01*
X129970437Y-100641166D01*
X129973856Y-100664221D01*
X129975000Y-100687500D01*
X129975000Y-101262500D01*
X129973856Y-101285779D01*
X129970437Y-101308834D01*
X129964773Y-101331443D01*
X129956921Y-101353387D01*
X129946956Y-101374457D01*
X129934974Y-101394448D01*
X129921090Y-101413168D01*
X129905438Y-101430438D01*
X129888168Y-101446090D01*
X129869448Y-101459974D01*
X129849457Y-101471956D01*
X129828387Y-101481921D01*
X129806443Y-101489773D01*
X129783834Y-101495437D01*
X129760779Y-101498856D01*
X129737500Y-101500000D01*
X129262500Y-101500000D01*
X129239221Y-101498856D01*
X129216166Y-101495437D01*
X129193557Y-101489773D01*
X129171613Y-101481921D01*
X129150543Y-101471956D01*
X129130552Y-101459974D01*
X129111832Y-101446090D01*
X129094562Y-101430438D01*
X129078910Y-101413168D01*
X129065026Y-101394448D01*
X129053044Y-101374457D01*
X129043079Y-101353387D01*
X129035227Y-101331443D01*
X129029563Y-101308834D01*
X129026144Y-101285779D01*
X129025000Y-101262500D01*
X129025000Y-100687500D01*
X129026144Y-100664221D01*
X129029563Y-100641166D01*
X129035227Y-100618557D01*
X129043079Y-100596613D01*
X129053044Y-100575543D01*
X129065026Y-100555552D01*
X129078910Y-100536832D01*
X129094562Y-100519562D01*
X129111832Y-100503910D01*
X129130552Y-100490026D01*
X129150543Y-100478044D01*
X129171613Y-100468079D01*
X129193557Y-100460227D01*
X129216166Y-100454563D01*
X129239221Y-100451144D01*
X129262500Y-100450000D01*
X129737500Y-100450000D01*
X129760779Y-100451144D01*
X129760779Y-100451144D01*
G37*
D13*
G04 #@! TD*
G04 #@! TO.P,L1,1*
G04 #@! TO.N,/DEC4*
X129500000Y-100975000D03*
D10*
G04 #@! TO.N,Net-(L1-Pad2)*
G04 #@! TO.C,L2*
G36*
X127460779Y-98701144D02*
X127483834Y-98704563D01*
X127506443Y-98710227D01*
X127528387Y-98718079D01*
X127549457Y-98728044D01*
X127569448Y-98740026D01*
X127588168Y-98753910D01*
X127605438Y-98769562D01*
X127621090Y-98786832D01*
X127634974Y-98805552D01*
X127646956Y-98825543D01*
X127656921Y-98846613D01*
X127664773Y-98868557D01*
X127670437Y-98891166D01*
X127673856Y-98914221D01*
X127675000Y-98937500D01*
X127675000Y-99512500D01*
X127673856Y-99535779D01*
X127670437Y-99558834D01*
X127664773Y-99581443D01*
X127656921Y-99603387D01*
X127646956Y-99624457D01*
X127634974Y-99644448D01*
X127621090Y-99663168D01*
X127605438Y-99680438D01*
X127588168Y-99696090D01*
X127569448Y-99709974D01*
X127549457Y-99721956D01*
X127528387Y-99731921D01*
X127506443Y-99739773D01*
X127483834Y-99745437D01*
X127460779Y-99748856D01*
X127437500Y-99750000D01*
X126962500Y-99750000D01*
X126939221Y-99748856D01*
X126916166Y-99745437D01*
X126893557Y-99739773D01*
X126871613Y-99731921D01*
X126850543Y-99721956D01*
X126830552Y-99709974D01*
X126811832Y-99696090D01*
X126794562Y-99680438D01*
X126778910Y-99663168D01*
X126765026Y-99644448D01*
X126753044Y-99624457D01*
X126743079Y-99603387D01*
X126735227Y-99581443D01*
X126729563Y-99558834D01*
X126726144Y-99535779D01*
X126725000Y-99512500D01*
X126725000Y-98937500D01*
X126726144Y-98914221D01*
X126729563Y-98891166D01*
X126735227Y-98868557D01*
X126743079Y-98846613D01*
X126753044Y-98825543D01*
X126765026Y-98805552D01*
X126778910Y-98786832D01*
X126794562Y-98769562D01*
X126811832Y-98753910D01*
X126830552Y-98740026D01*
X126850543Y-98728044D01*
X126871613Y-98718079D01*
X126893557Y-98710227D01*
X126916166Y-98704563D01*
X126939221Y-98701144D01*
X126962500Y-98700000D01*
X127437500Y-98700000D01*
X127460779Y-98701144D01*
X127460779Y-98701144D01*
G37*
D13*
G04 #@! TD*
G04 #@! TO.P,L2,1*
G04 #@! TO.N,Net-(L1-Pad2)*
X127200000Y-99225000D03*
D10*
G04 #@! TO.N,/DCC*
G04 #@! TO.C,L2*
G36*
X127460779Y-100451144D02*
X127483834Y-100454563D01*
X127506443Y-100460227D01*
X127528387Y-100468079D01*
X127549457Y-100478044D01*
X127569448Y-100490026D01*
X127588168Y-100503910D01*
X127605438Y-100519562D01*
X127621090Y-100536832D01*
X127634974Y-100555552D01*
X127646956Y-100575543D01*
X127656921Y-100596613D01*
X127664773Y-100618557D01*
X127670437Y-100641166D01*
X127673856Y-100664221D01*
X127675000Y-100687500D01*
X127675000Y-101262500D01*
X127673856Y-101285779D01*
X127670437Y-101308834D01*
X127664773Y-101331443D01*
X127656921Y-101353387D01*
X127646956Y-101374457D01*
X127634974Y-101394448D01*
X127621090Y-101413168D01*
X127605438Y-101430438D01*
X127588168Y-101446090D01*
X127569448Y-101459974D01*
X127549457Y-101471956D01*
X127528387Y-101481921D01*
X127506443Y-101489773D01*
X127483834Y-101495437D01*
X127460779Y-101498856D01*
X127437500Y-101500000D01*
X126962500Y-101500000D01*
X126939221Y-101498856D01*
X126916166Y-101495437D01*
X126893557Y-101489773D01*
X126871613Y-101481921D01*
X126850543Y-101471956D01*
X126830552Y-101459974D01*
X126811832Y-101446090D01*
X126794562Y-101430438D01*
X126778910Y-101413168D01*
X126765026Y-101394448D01*
X126753044Y-101374457D01*
X126743079Y-101353387D01*
X126735227Y-101331443D01*
X126729563Y-101308834D01*
X126726144Y-101285779D01*
X126725000Y-101262500D01*
X126725000Y-100687500D01*
X126726144Y-100664221D01*
X126729563Y-100641166D01*
X126735227Y-100618557D01*
X126743079Y-100596613D01*
X126753044Y-100575543D01*
X126765026Y-100555552D01*
X126778910Y-100536832D01*
X126794562Y-100519562D01*
X126811832Y-100503910D01*
X126830552Y-100490026D01*
X126850543Y-100478044D01*
X126871613Y-100468079D01*
X126893557Y-100460227D01*
X126916166Y-100454563D01*
X126939221Y-100451144D01*
X126962500Y-100450000D01*
X127437500Y-100450000D01*
X127460779Y-100451144D01*
X127460779Y-100451144D01*
G37*
D13*
G04 #@! TD*
G04 #@! TO.P,L2,2*
G04 #@! TO.N,/DCC*
X127200000Y-100975000D03*
D15*
G04 #@! TO.P,U2,1*
G04 #@! TO.N,/RX_OUT*
X117500000Y-93600000D03*
D16*
G04 #@! TO.P,U2,2*
G04 #@! TO.N,Net-(Q5-Pad3)*
X120040000Y-93600000D03*
G04 #@! TO.P,U2,3*
G04 #@! TO.N,VDD*
X122580000Y-93600000D03*
G04 #@! TD*
D10*
G04 #@! TO.N,GND*
G04 #@! TO.C,C2*
G36*
X119435779Y-118326144D02*
X119458834Y-118329563D01*
X119481443Y-118335227D01*
X119503387Y-118343079D01*
X119524457Y-118353044D01*
X119544448Y-118365026D01*
X119563168Y-118378910D01*
X119580438Y-118394562D01*
X119596090Y-118411832D01*
X119609974Y-118430552D01*
X119621956Y-118450543D01*
X119631921Y-118471613D01*
X119639773Y-118493557D01*
X119645437Y-118516166D01*
X119648856Y-118539221D01*
X119650000Y-118562500D01*
X119650000Y-119037500D01*
X119648856Y-119060779D01*
X119645437Y-119083834D01*
X119639773Y-119106443D01*
X119631921Y-119128387D01*
X119621956Y-119149457D01*
X119609974Y-119169448D01*
X119596090Y-119188168D01*
X119580438Y-119205438D01*
X119563168Y-119221090D01*
X119544448Y-119234974D01*
X119524457Y-119246956D01*
X119503387Y-119256921D01*
X119481443Y-119264773D01*
X119458834Y-119270437D01*
X119435779Y-119273856D01*
X119412500Y-119275000D01*
X118837500Y-119275000D01*
X118814221Y-119273856D01*
X118791166Y-119270437D01*
X118768557Y-119264773D01*
X118746613Y-119256921D01*
X118725543Y-119246956D01*
X118705552Y-119234974D01*
X118686832Y-119221090D01*
X118669562Y-119205438D01*
X118653910Y-119188168D01*
X118640026Y-119169448D01*
X118628044Y-119149457D01*
X118618079Y-119128387D01*
X118610227Y-119106443D01*
X118604563Y-119083834D01*
X118601144Y-119060779D01*
X118600000Y-119037500D01*
X118600000Y-118562500D01*
X118601144Y-118539221D01*
X118604563Y-118516166D01*
X118610227Y-118493557D01*
X118618079Y-118471613D01*
X118628044Y-118450543D01*
X118640026Y-118430552D01*
X118653910Y-118411832D01*
X118669562Y-118394562D01*
X118686832Y-118378910D01*
X118705552Y-118365026D01*
X118725543Y-118353044D01*
X118746613Y-118343079D01*
X118768557Y-118335227D01*
X118791166Y-118329563D01*
X118814221Y-118326144D01*
X118837500Y-118325000D01*
X119412500Y-118325000D01*
X119435779Y-118326144D01*
X119435779Y-118326144D01*
G37*
D13*
G04 #@! TD*
G04 #@! TO.P,C2,1*
G04 #@! TO.N,GND*
X119125000Y-118800000D03*
D10*
G04 #@! TO.N,/BUTTON*
G04 #@! TO.C,C2*
G36*
X121185779Y-118326144D02*
X121208834Y-118329563D01*
X121231443Y-118335227D01*
X121253387Y-118343079D01*
X121274457Y-118353044D01*
X121294448Y-118365026D01*
X121313168Y-118378910D01*
X121330438Y-118394562D01*
X121346090Y-118411832D01*
X121359974Y-118430552D01*
X121371956Y-118450543D01*
X121381921Y-118471613D01*
X121389773Y-118493557D01*
X121395437Y-118516166D01*
X121398856Y-118539221D01*
X121400000Y-118562500D01*
X121400000Y-119037500D01*
X121398856Y-119060779D01*
X121395437Y-119083834D01*
X121389773Y-119106443D01*
X121381921Y-119128387D01*
X121371956Y-119149457D01*
X121359974Y-119169448D01*
X121346090Y-119188168D01*
X121330438Y-119205438D01*
X121313168Y-119221090D01*
X121294448Y-119234974D01*
X121274457Y-119246956D01*
X121253387Y-119256921D01*
X121231443Y-119264773D01*
X121208834Y-119270437D01*
X121185779Y-119273856D01*
X121162500Y-119275000D01*
X120587500Y-119275000D01*
X120564221Y-119273856D01*
X120541166Y-119270437D01*
X120518557Y-119264773D01*
X120496613Y-119256921D01*
X120475543Y-119246956D01*
X120455552Y-119234974D01*
X120436832Y-119221090D01*
X120419562Y-119205438D01*
X120403910Y-119188168D01*
X120390026Y-119169448D01*
X120378044Y-119149457D01*
X120368079Y-119128387D01*
X120360227Y-119106443D01*
X120354563Y-119083834D01*
X120351144Y-119060779D01*
X120350000Y-119037500D01*
X120350000Y-118562500D01*
X120351144Y-118539221D01*
X120354563Y-118516166D01*
X120360227Y-118493557D01*
X120368079Y-118471613D01*
X120378044Y-118450543D01*
X120390026Y-118430552D01*
X120403910Y-118411832D01*
X120419562Y-118394562D01*
X120436832Y-118378910D01*
X120455552Y-118365026D01*
X120475543Y-118353044D01*
X120496613Y-118343079D01*
X120518557Y-118335227D01*
X120541166Y-118329563D01*
X120564221Y-118326144D01*
X120587500Y-118325000D01*
X121162500Y-118325000D01*
X121185779Y-118326144D01*
X121185779Y-118326144D01*
G37*
D13*
G04 #@! TD*
G04 #@! TO.P,C2,2*
G04 #@! TO.N,/BUTTON*
X120875000Y-118800000D03*
D10*
G04 #@! TO.N,VDD*
G04 #@! TO.C,C3*
G36*
X126674505Y-82951204D02*
X126698773Y-82954804D01*
X126722572Y-82960765D01*
X126745671Y-82969030D01*
X126767850Y-82979520D01*
X126788893Y-82992132D01*
X126808599Y-83006747D01*
X126826777Y-83023223D01*
X126843253Y-83041401D01*
X126857868Y-83061107D01*
X126870480Y-83082150D01*
X126880970Y-83104329D01*
X126889235Y-83127428D01*
X126895196Y-83151227D01*
X126898796Y-83175495D01*
X126900000Y-83199999D01*
X126900000Y-83850001D01*
X126898796Y-83874505D01*
X126895196Y-83898773D01*
X126889235Y-83922572D01*
X126880970Y-83945671D01*
X126870480Y-83967850D01*
X126857868Y-83988893D01*
X126843253Y-84008599D01*
X126826777Y-84026777D01*
X126808599Y-84043253D01*
X126788893Y-84057868D01*
X126767850Y-84070480D01*
X126745671Y-84080970D01*
X126722572Y-84089235D01*
X126698773Y-84095196D01*
X126674505Y-84098796D01*
X126650001Y-84100000D01*
X125749999Y-84100000D01*
X125725495Y-84098796D01*
X125701227Y-84095196D01*
X125677428Y-84089235D01*
X125654329Y-84080970D01*
X125632150Y-84070480D01*
X125611107Y-84057868D01*
X125591401Y-84043253D01*
X125573223Y-84026777D01*
X125556747Y-84008599D01*
X125542132Y-83988893D01*
X125529520Y-83967850D01*
X125519030Y-83945671D01*
X125510765Y-83922572D01*
X125504804Y-83898773D01*
X125501204Y-83874505D01*
X125500000Y-83850001D01*
X125500000Y-83199999D01*
X125501204Y-83175495D01*
X125504804Y-83151227D01*
X125510765Y-83127428D01*
X125519030Y-83104329D01*
X125529520Y-83082150D01*
X125542132Y-83061107D01*
X125556747Y-83041401D01*
X125573223Y-83023223D01*
X125591401Y-83006747D01*
X125611107Y-82992132D01*
X125632150Y-82979520D01*
X125654329Y-82969030D01*
X125677428Y-82960765D01*
X125701227Y-82954804D01*
X125725495Y-82951204D01*
X125749999Y-82950000D01*
X126650001Y-82950000D01*
X126674505Y-82951204D01*
X126674505Y-82951204D01*
G37*
D22*
G04 #@! TD*
G04 #@! TO.P,C3,1*
G04 #@! TO.N,VDD*
X126200000Y-83525000D03*
D10*
G04 #@! TO.N,GND*
G04 #@! TO.C,C3*
G36*
X126674505Y-80901204D02*
X126698773Y-80904804D01*
X126722572Y-80910765D01*
X126745671Y-80919030D01*
X126767850Y-80929520D01*
X126788893Y-80942132D01*
X126808599Y-80956747D01*
X126826777Y-80973223D01*
X126843253Y-80991401D01*
X126857868Y-81011107D01*
X126870480Y-81032150D01*
X126880970Y-81054329D01*
X126889235Y-81077428D01*
X126895196Y-81101227D01*
X126898796Y-81125495D01*
X126900000Y-81149999D01*
X126900000Y-81800001D01*
X126898796Y-81824505D01*
X126895196Y-81848773D01*
X126889235Y-81872572D01*
X126880970Y-81895671D01*
X126870480Y-81917850D01*
X126857868Y-81938893D01*
X126843253Y-81958599D01*
X126826777Y-81976777D01*
X126808599Y-81993253D01*
X126788893Y-82007868D01*
X126767850Y-82020480D01*
X126745671Y-82030970D01*
X126722572Y-82039235D01*
X126698773Y-82045196D01*
X126674505Y-82048796D01*
X126650001Y-82050000D01*
X125749999Y-82050000D01*
X125725495Y-82048796D01*
X125701227Y-82045196D01*
X125677428Y-82039235D01*
X125654329Y-82030970D01*
X125632150Y-82020480D01*
X125611107Y-82007868D01*
X125591401Y-81993253D01*
X125573223Y-81976777D01*
X125556747Y-81958599D01*
X125542132Y-81938893D01*
X125529520Y-81917850D01*
X125519030Y-81895671D01*
X125510765Y-81872572D01*
X125504804Y-81848773D01*
X125501204Y-81824505D01*
X125500000Y-81800001D01*
X125500000Y-81149999D01*
X125501204Y-81125495D01*
X125504804Y-81101227D01*
X125510765Y-81077428D01*
X125519030Y-81054329D01*
X125529520Y-81032150D01*
X125542132Y-81011107D01*
X125556747Y-80991401D01*
X125573223Y-80973223D01*
X125591401Y-80956747D01*
X125611107Y-80942132D01*
X125632150Y-80929520D01*
X125654329Y-80919030D01*
X125677428Y-80910765D01*
X125701227Y-80904804D01*
X125725495Y-80901204D01*
X125749999Y-80900000D01*
X126650001Y-80900000D01*
X126674505Y-80901204D01*
X126674505Y-80901204D01*
G37*
D22*
G04 #@! TD*
G04 #@! TO.P,C3,2*
G04 #@! TO.N,GND*
X126200000Y-81475000D03*
D17*
G04 #@! TO.P,Q5,1*
G04 #@! TO.N,/RX_EN*
X112900000Y-96950000D03*
G04 #@! TO.P,Q5,2*
G04 #@! TO.N,GND*
X112900000Y-95050000D03*
G04 #@! TO.P,Q5,3*
G04 #@! TO.N,Net-(Q5-Pad3)*
X109900000Y-96000000D03*
G04 #@! TD*
D10*
G04 #@! TO.N,VDD*
G04 #@! TO.C,R10*
G36*
X109935779Y-129226144D02*
X109958834Y-129229563D01*
X109981443Y-129235227D01*
X110003387Y-129243079D01*
X110024457Y-129253044D01*
X110044448Y-129265026D01*
X110063168Y-129278910D01*
X110080438Y-129294562D01*
X110096090Y-129311832D01*
X110109974Y-129330552D01*
X110121956Y-129350543D01*
X110131921Y-129371613D01*
X110139773Y-129393557D01*
X110145437Y-129416166D01*
X110148856Y-129439221D01*
X110150000Y-129462500D01*
X110150000Y-129937500D01*
X110148856Y-129960779D01*
X110145437Y-129983834D01*
X110139773Y-130006443D01*
X110131921Y-130028387D01*
X110121956Y-130049457D01*
X110109974Y-130069448D01*
X110096090Y-130088168D01*
X110080438Y-130105438D01*
X110063168Y-130121090D01*
X110044448Y-130134974D01*
X110024457Y-130146956D01*
X110003387Y-130156921D01*
X109981443Y-130164773D01*
X109958834Y-130170437D01*
X109935779Y-130173856D01*
X109912500Y-130175000D01*
X109337500Y-130175000D01*
X109314221Y-130173856D01*
X109291166Y-130170437D01*
X109268557Y-130164773D01*
X109246613Y-130156921D01*
X109225543Y-130146956D01*
X109205552Y-130134974D01*
X109186832Y-130121090D01*
X109169562Y-130105438D01*
X109153910Y-130088168D01*
X109140026Y-130069448D01*
X109128044Y-130049457D01*
X109118079Y-130028387D01*
X109110227Y-130006443D01*
X109104563Y-129983834D01*
X109101144Y-129960779D01*
X109100000Y-129937500D01*
X109100000Y-129462500D01*
X109101144Y-129439221D01*
X109104563Y-129416166D01*
X109110227Y-129393557D01*
X109118079Y-129371613D01*
X109128044Y-129350543D01*
X109140026Y-129330552D01*
X109153910Y-129311832D01*
X109169562Y-129294562D01*
X109186832Y-129278910D01*
X109205552Y-129265026D01*
X109225543Y-129253044D01*
X109246613Y-129243079D01*
X109268557Y-129235227D01*
X109291166Y-129229563D01*
X109314221Y-129226144D01*
X109337500Y-129225000D01*
X109912500Y-129225000D01*
X109935779Y-129226144D01*
X109935779Y-129226144D01*
G37*
D13*
G04 #@! TD*
G04 #@! TO.P,R10,1*
G04 #@! TO.N,VDD*
X109625000Y-129700000D03*
D10*
G04 #@! TO.N,/CAM_JACK*
G04 #@! TO.C,R10*
G36*
X111685779Y-129226144D02*
X111708834Y-129229563D01*
X111731443Y-129235227D01*
X111753387Y-129243079D01*
X111774457Y-129253044D01*
X111794448Y-129265026D01*
X111813168Y-129278910D01*
X111830438Y-129294562D01*
X111846090Y-129311832D01*
X111859974Y-129330552D01*
X111871956Y-129350543D01*
X111881921Y-129371613D01*
X111889773Y-129393557D01*
X111895437Y-129416166D01*
X111898856Y-129439221D01*
X111900000Y-129462500D01*
X111900000Y-129937500D01*
X111898856Y-129960779D01*
X111895437Y-129983834D01*
X111889773Y-130006443D01*
X111881921Y-130028387D01*
X111871956Y-130049457D01*
X111859974Y-130069448D01*
X111846090Y-130088168D01*
X111830438Y-130105438D01*
X111813168Y-130121090D01*
X111794448Y-130134974D01*
X111774457Y-130146956D01*
X111753387Y-130156921D01*
X111731443Y-130164773D01*
X111708834Y-130170437D01*
X111685779Y-130173856D01*
X111662500Y-130175000D01*
X111087500Y-130175000D01*
X111064221Y-130173856D01*
X111041166Y-130170437D01*
X111018557Y-130164773D01*
X110996613Y-130156921D01*
X110975543Y-130146956D01*
X110955552Y-130134974D01*
X110936832Y-130121090D01*
X110919562Y-130105438D01*
X110903910Y-130088168D01*
X110890026Y-130069448D01*
X110878044Y-130049457D01*
X110868079Y-130028387D01*
X110860227Y-130006443D01*
X110854563Y-129983834D01*
X110851144Y-129960779D01*
X110850000Y-129937500D01*
X110850000Y-129462500D01*
X110851144Y-129439221D01*
X110854563Y-129416166D01*
X110860227Y-129393557D01*
X110868079Y-129371613D01*
X110878044Y-129350543D01*
X110890026Y-129330552D01*
X110903910Y-129311832D01*
X110919562Y-129294562D01*
X110936832Y-129278910D01*
X110955552Y-129265026D01*
X110975543Y-129253044D01*
X110996613Y-129243079D01*
X111018557Y-129235227D01*
X111041166Y-129229563D01*
X111064221Y-129226144D01*
X111087500Y-129225000D01*
X111662500Y-129225000D01*
X111685779Y-129226144D01*
X111685779Y-129226144D01*
G37*
D13*
G04 #@! TD*
G04 #@! TO.P,R10,2*
G04 #@! TO.N,/CAM_JACK*
X111375000Y-129700000D03*
D23*
G04 #@! TO.P,SW1,2*
G04 #@! TO.N,/BUTTON*
X123200000Y-121400000D03*
G04 #@! TO.P,SW1,1*
G04 #@! TO.N,GND*
X123200000Y-125900000D03*
G04 #@! TO.P,SW1,2*
G04 #@! TO.N,/BUTTON*
X116700000Y-121400000D03*
G04 #@! TO.P,SW1,1*
G04 #@! TO.N,GND*
X116700000Y-125900000D03*
G04 #@! TD*
D24*
G04 #@! TO.P,P1,*
G04 #@! TO.N,*
X131030000Y-138520000D03*
X133570000Y-123280000D03*
D25*
G04 #@! TO.P,P1,1*
G04 #@! TO.N,/SWDIO*
X131030000Y-125820000D03*
G04 #@! TO.P,P1,3*
G04 #@! TO.N,/SWDCLK*
X131030000Y-128360000D03*
G04 #@! TO.P,P1,5*
G04 #@! TO.N,/RESET*
X131030000Y-130900000D03*
G04 #@! TO.P,P1,7*
G04 #@! TO.N,/GPIO2*
X131030000Y-133440000D03*
G04 #@! TO.P,P1,9*
G04 #@! TO.N,GND*
X131030000Y-135980000D03*
G04 #@! TO.P,P1,10*
X133570000Y-135980000D03*
G04 #@! TO.P,P1,8*
G04 #@! TO.N,/RX*
X133570000Y-133440000D03*
G04 #@! TO.P,P1,6*
G04 #@! TO.N,/GPIO1*
X133570000Y-130900000D03*
G04 #@! TO.P,P1,4*
G04 #@! TO.N,VDD*
X133570000Y-128360000D03*
G04 #@! TO.P,P1,2*
G04 #@! TO.N,/TX*
X133570000Y-125820000D03*
D24*
G04 #@! TO.P,P1,*
G04 #@! TO.N,*
X131030000Y-123280000D03*
G04 #@! TD*
D26*
G04 #@! TO.P,Y1,1*
G04 #@! TO.N,/LFCLK_XL1*
X120500000Y-106000000D03*
G04 #@! TO.P,Y1,2*
G04 #@! TO.N,/LFCLK_XL2*
X120500000Y-107900000D03*
G04 #@! TD*
D27*
G04 #@! TO.P,Q4,1*
G04 #@! TO.N,Net-(Q4-Pad1)*
X129600000Y-88150000D03*
G04 #@! TO.P,Q4,2*
G04 #@! TO.N,VDD*
X129600000Y-90050000D03*
G04 #@! TO.P,Q4,3*
G04 #@! TO.N,/LED_RED*
X131600000Y-89100000D03*
G04 #@! TD*
D10*
G04 #@! TO.N,/LED_RED*
G04 #@! TO.C,R5*
G36*
X134260779Y-89451144D02*
X134283834Y-89454563D01*
X134306443Y-89460227D01*
X134328387Y-89468079D01*
X134349457Y-89478044D01*
X134369448Y-89490026D01*
X134388168Y-89503910D01*
X134405438Y-89519562D01*
X134421090Y-89536832D01*
X134434974Y-89555552D01*
X134446956Y-89575543D01*
X134456921Y-89596613D01*
X134464773Y-89618557D01*
X134470437Y-89641166D01*
X134473856Y-89664221D01*
X134475000Y-89687500D01*
X134475000Y-90262500D01*
X134473856Y-90285779D01*
X134470437Y-90308834D01*
X134464773Y-90331443D01*
X134456921Y-90353387D01*
X134446956Y-90374457D01*
X134434974Y-90394448D01*
X134421090Y-90413168D01*
X134405438Y-90430438D01*
X134388168Y-90446090D01*
X134369448Y-90459974D01*
X134349457Y-90471956D01*
X134328387Y-90481921D01*
X134306443Y-90489773D01*
X134283834Y-90495437D01*
X134260779Y-90498856D01*
X134237500Y-90500000D01*
X133762500Y-90500000D01*
X133739221Y-90498856D01*
X133716166Y-90495437D01*
X133693557Y-90489773D01*
X133671613Y-90481921D01*
X133650543Y-90471956D01*
X133630552Y-90459974D01*
X133611832Y-90446090D01*
X133594562Y-90430438D01*
X133578910Y-90413168D01*
X133565026Y-90394448D01*
X133553044Y-90374457D01*
X133543079Y-90353387D01*
X133535227Y-90331443D01*
X133529563Y-90308834D01*
X133526144Y-90285779D01*
X133525000Y-90262500D01*
X133525000Y-89687500D01*
X133526144Y-89664221D01*
X133529563Y-89641166D01*
X133535227Y-89618557D01*
X133543079Y-89596613D01*
X133553044Y-89575543D01*
X133565026Y-89555552D01*
X133578910Y-89536832D01*
X133594562Y-89519562D01*
X133611832Y-89503910D01*
X133630552Y-89490026D01*
X133650543Y-89478044D01*
X133671613Y-89468079D01*
X133693557Y-89460227D01*
X133716166Y-89454563D01*
X133739221Y-89451144D01*
X133762500Y-89450000D01*
X134237500Y-89450000D01*
X134260779Y-89451144D01*
X134260779Y-89451144D01*
G37*
D13*
G04 #@! TD*
G04 #@! TO.P,R5,1*
G04 #@! TO.N,/LED_RED*
X134000000Y-89975000D03*
D10*
G04 #@! TO.N,GND*
G04 #@! TO.C,R5*
G36*
X134260779Y-87701144D02*
X134283834Y-87704563D01*
X134306443Y-87710227D01*
X134328387Y-87718079D01*
X134349457Y-87728044D01*
X134369448Y-87740026D01*
X134388168Y-87753910D01*
X134405438Y-87769562D01*
X134421090Y-87786832D01*
X134434974Y-87805552D01*
X134446956Y-87825543D01*
X134456921Y-87846613D01*
X134464773Y-87868557D01*
X134470437Y-87891166D01*
X134473856Y-87914221D01*
X134475000Y-87937500D01*
X134475000Y-88512500D01*
X134473856Y-88535779D01*
X134470437Y-88558834D01*
X134464773Y-88581443D01*
X134456921Y-88603387D01*
X134446956Y-88624457D01*
X134434974Y-88644448D01*
X134421090Y-88663168D01*
X134405438Y-88680438D01*
X134388168Y-88696090D01*
X134369448Y-88709974D01*
X134349457Y-88721956D01*
X134328387Y-88731921D01*
X134306443Y-88739773D01*
X134283834Y-88745437D01*
X134260779Y-88748856D01*
X134237500Y-88750000D01*
X133762500Y-88750000D01*
X133739221Y-88748856D01*
X133716166Y-88745437D01*
X133693557Y-88739773D01*
X133671613Y-88731921D01*
X133650543Y-88721956D01*
X133630552Y-88709974D01*
X133611832Y-88696090D01*
X133594562Y-88680438D01*
X133578910Y-88663168D01*
X133565026Y-88644448D01*
X133553044Y-88624457D01*
X133543079Y-88603387D01*
X133535227Y-88581443D01*
X133529563Y-88558834D01*
X133526144Y-88535779D01*
X133525000Y-88512500D01*
X133525000Y-87937500D01*
X133526144Y-87914221D01*
X133529563Y-87891166D01*
X133535227Y-87868557D01*
X133543079Y-87846613D01*
X133553044Y-87825543D01*
X133565026Y-87805552D01*
X133578910Y-87786832D01*
X133594562Y-87769562D01*
X133611832Y-87753910D01*
X133630552Y-87740026D01*
X133650543Y-87728044D01*
X133671613Y-87718079D01*
X133693557Y-87710227D01*
X133716166Y-87704563D01*
X133739221Y-87701144D01*
X133762500Y-87700000D01*
X134237500Y-87700000D01*
X134260779Y-87701144D01*
X134260779Y-87701144D01*
G37*
D13*
G04 #@! TD*
G04 #@! TO.P,R5,2*
G04 #@! TO.N,GND*
X134000000Y-88225000D03*
D10*
G04 #@! TO.N,/LIGHT_SENSE*
G04 #@! TO.C,R7*
G36*
X125435779Y-87626144D02*
X125458834Y-87629563D01*
X125481443Y-87635227D01*
X125503387Y-87643079D01*
X125524457Y-87653044D01*
X125544448Y-87665026D01*
X125563168Y-87678910D01*
X125580438Y-87694562D01*
X125596090Y-87711832D01*
X125609974Y-87730552D01*
X125621956Y-87750543D01*
X125631921Y-87771613D01*
X125639773Y-87793557D01*
X125645437Y-87816166D01*
X125648856Y-87839221D01*
X125650000Y-87862500D01*
X125650000Y-88337500D01*
X125648856Y-88360779D01*
X125645437Y-88383834D01*
X125639773Y-88406443D01*
X125631921Y-88428387D01*
X125621956Y-88449457D01*
X125609974Y-88469448D01*
X125596090Y-88488168D01*
X125580438Y-88505438D01*
X125563168Y-88521090D01*
X125544448Y-88534974D01*
X125524457Y-88546956D01*
X125503387Y-88556921D01*
X125481443Y-88564773D01*
X125458834Y-88570437D01*
X125435779Y-88573856D01*
X125412500Y-88575000D01*
X124837500Y-88575000D01*
X124814221Y-88573856D01*
X124791166Y-88570437D01*
X124768557Y-88564773D01*
X124746613Y-88556921D01*
X124725543Y-88546956D01*
X124705552Y-88534974D01*
X124686832Y-88521090D01*
X124669562Y-88505438D01*
X124653910Y-88488168D01*
X124640026Y-88469448D01*
X124628044Y-88449457D01*
X124618079Y-88428387D01*
X124610227Y-88406443D01*
X124604563Y-88383834D01*
X124601144Y-88360779D01*
X124600000Y-88337500D01*
X124600000Y-87862500D01*
X124601144Y-87839221D01*
X124604563Y-87816166D01*
X124610227Y-87793557D01*
X124618079Y-87771613D01*
X124628044Y-87750543D01*
X124640026Y-87730552D01*
X124653910Y-87711832D01*
X124669562Y-87694562D01*
X124686832Y-87678910D01*
X124705552Y-87665026D01*
X124725543Y-87653044D01*
X124746613Y-87643079D01*
X124768557Y-87635227D01*
X124791166Y-87629563D01*
X124814221Y-87626144D01*
X124837500Y-87625000D01*
X125412500Y-87625000D01*
X125435779Y-87626144D01*
X125435779Y-87626144D01*
G37*
D13*
G04 #@! TD*
G04 #@! TO.P,R7,2*
G04 #@! TO.N,/LIGHT_SENSE*
X125125000Y-88100000D03*
D10*
G04 #@! TO.N,Net-(Q4-Pad1)*
G04 #@! TO.C,R7*
G36*
X127185779Y-87626144D02*
X127208834Y-87629563D01*
X127231443Y-87635227D01*
X127253387Y-87643079D01*
X127274457Y-87653044D01*
X127294448Y-87665026D01*
X127313168Y-87678910D01*
X127330438Y-87694562D01*
X127346090Y-87711832D01*
X127359974Y-87730552D01*
X127371956Y-87750543D01*
X127381921Y-87771613D01*
X127389773Y-87793557D01*
X127395437Y-87816166D01*
X127398856Y-87839221D01*
X127400000Y-87862500D01*
X127400000Y-88337500D01*
X127398856Y-88360779D01*
X127395437Y-88383834D01*
X127389773Y-88406443D01*
X127381921Y-88428387D01*
X127371956Y-88449457D01*
X127359974Y-88469448D01*
X127346090Y-88488168D01*
X127330438Y-88505438D01*
X127313168Y-88521090D01*
X127294448Y-88534974D01*
X127274457Y-88546956D01*
X127253387Y-88556921D01*
X127231443Y-88564773D01*
X127208834Y-88570437D01*
X127185779Y-88573856D01*
X127162500Y-88575000D01*
X126587500Y-88575000D01*
X126564221Y-88573856D01*
X126541166Y-88570437D01*
X126518557Y-88564773D01*
X126496613Y-88556921D01*
X126475543Y-88546956D01*
X126455552Y-88534974D01*
X126436832Y-88521090D01*
X126419562Y-88505438D01*
X126403910Y-88488168D01*
X126390026Y-88469448D01*
X126378044Y-88449457D01*
X126368079Y-88428387D01*
X126360227Y-88406443D01*
X126354563Y-88383834D01*
X126351144Y-88360779D01*
X126350000Y-88337500D01*
X126350000Y-87862500D01*
X126351144Y-87839221D01*
X126354563Y-87816166D01*
X126360227Y-87793557D01*
X126368079Y-87771613D01*
X126378044Y-87750543D01*
X126390026Y-87730552D01*
X126403910Y-87711832D01*
X126419562Y-87694562D01*
X126436832Y-87678910D01*
X126455552Y-87665026D01*
X126475543Y-87653044D01*
X126496613Y-87643079D01*
X126518557Y-87635227D01*
X126541166Y-87629563D01*
X126564221Y-87626144D01*
X126587500Y-87625000D01*
X127162500Y-87625000D01*
X127185779Y-87626144D01*
X127185779Y-87626144D01*
G37*
D13*
G04 #@! TD*
G04 #@! TO.P,R7,1*
G04 #@! TO.N,Net-(Q4-Pad1)*
X126875000Y-88100000D03*
D10*
G04 #@! TO.N,VDD*
G04 #@! TO.C,R8*
G36*
X127185779Y-89626144D02*
X127208834Y-89629563D01*
X127231443Y-89635227D01*
X127253387Y-89643079D01*
X127274457Y-89653044D01*
X127294448Y-89665026D01*
X127313168Y-89678910D01*
X127330438Y-89694562D01*
X127346090Y-89711832D01*
X127359974Y-89730552D01*
X127371956Y-89750543D01*
X127381921Y-89771613D01*
X127389773Y-89793557D01*
X127395437Y-89816166D01*
X127398856Y-89839221D01*
X127400000Y-89862500D01*
X127400000Y-90337500D01*
X127398856Y-90360779D01*
X127395437Y-90383834D01*
X127389773Y-90406443D01*
X127381921Y-90428387D01*
X127371956Y-90449457D01*
X127359974Y-90469448D01*
X127346090Y-90488168D01*
X127330438Y-90505438D01*
X127313168Y-90521090D01*
X127294448Y-90534974D01*
X127274457Y-90546956D01*
X127253387Y-90556921D01*
X127231443Y-90564773D01*
X127208834Y-90570437D01*
X127185779Y-90573856D01*
X127162500Y-90575000D01*
X126587500Y-90575000D01*
X126564221Y-90573856D01*
X126541166Y-90570437D01*
X126518557Y-90564773D01*
X126496613Y-90556921D01*
X126475543Y-90546956D01*
X126455552Y-90534974D01*
X126436832Y-90521090D01*
X126419562Y-90505438D01*
X126403910Y-90488168D01*
X126390026Y-90469448D01*
X126378044Y-90449457D01*
X126368079Y-90428387D01*
X126360227Y-90406443D01*
X126354563Y-90383834D01*
X126351144Y-90360779D01*
X126350000Y-90337500D01*
X126350000Y-89862500D01*
X126351144Y-89839221D01*
X126354563Y-89816166D01*
X126360227Y-89793557D01*
X126368079Y-89771613D01*
X126378044Y-89750543D01*
X126390026Y-89730552D01*
X126403910Y-89711832D01*
X126419562Y-89694562D01*
X126436832Y-89678910D01*
X126455552Y-89665026D01*
X126475543Y-89653044D01*
X126496613Y-89643079D01*
X126518557Y-89635227D01*
X126541166Y-89629563D01*
X126564221Y-89626144D01*
X126587500Y-89625000D01*
X127162500Y-89625000D01*
X127185779Y-89626144D01*
X127185779Y-89626144D01*
G37*
D13*
G04 #@! TD*
G04 #@! TO.P,R8,1*
G04 #@! TO.N,VDD*
X126875000Y-90100000D03*
D10*
G04 #@! TO.N,/LIGHT_SENSE*
G04 #@! TO.C,R8*
G36*
X125435779Y-89626144D02*
X125458834Y-89629563D01*
X125481443Y-89635227D01*
X125503387Y-89643079D01*
X125524457Y-89653044D01*
X125544448Y-89665026D01*
X125563168Y-89678910D01*
X125580438Y-89694562D01*
X125596090Y-89711832D01*
X125609974Y-89730552D01*
X125621956Y-89750543D01*
X125631921Y-89771613D01*
X125639773Y-89793557D01*
X125645437Y-89816166D01*
X125648856Y-89839221D01*
X125650000Y-89862500D01*
X125650000Y-90337500D01*
X125648856Y-90360779D01*
X125645437Y-90383834D01*
X125639773Y-90406443D01*
X125631921Y-90428387D01*
X125621956Y-90449457D01*
X125609974Y-90469448D01*
X125596090Y-90488168D01*
X125580438Y-90505438D01*
X125563168Y-90521090D01*
X125544448Y-90534974D01*
X125524457Y-90546956D01*
X125503387Y-90556921D01*
X125481443Y-90564773D01*
X125458834Y-90570437D01*
X125435779Y-90573856D01*
X125412500Y-90575000D01*
X124837500Y-90575000D01*
X124814221Y-90573856D01*
X124791166Y-90570437D01*
X124768557Y-90564773D01*
X124746613Y-90556921D01*
X124725543Y-90546956D01*
X124705552Y-90534974D01*
X124686832Y-90521090D01*
X124669562Y-90505438D01*
X124653910Y-90488168D01*
X124640026Y-90469448D01*
X124628044Y-90449457D01*
X124618079Y-90428387D01*
X124610227Y-90406443D01*
X124604563Y-90383834D01*
X124601144Y-90360779D01*
X124600000Y-90337500D01*
X124600000Y-89862500D01*
X124601144Y-89839221D01*
X124604563Y-89816166D01*
X124610227Y-89793557D01*
X124618079Y-89771613D01*
X124628044Y-89750543D01*
X124640026Y-89730552D01*
X124653910Y-89711832D01*
X124669562Y-89694562D01*
X124686832Y-89678910D01*
X124705552Y-89665026D01*
X124725543Y-89653044D01*
X124746613Y-89643079D01*
X124768557Y-89635227D01*
X124791166Y-89629563D01*
X124814221Y-89626144D01*
X124837500Y-89625000D01*
X125412500Y-89625000D01*
X125435779Y-89626144D01*
X125435779Y-89626144D01*
G37*
D13*
G04 #@! TD*
G04 #@! TO.P,R8,2*
G04 #@! TO.N,/LIGHT_SENSE*
X125125000Y-90100000D03*
D28*
G04 #@! TO.N,GND*
X123100000Y-115000000D03*
X123900000Y-115800000D03*
X122900000Y-105000000D03*
X122900000Y-104200000D03*
X123700000Y-104200000D03*
X135500000Y-103600000D03*
X134700000Y-103600000D03*
X135500000Y-102800000D03*
X134700000Y-102800000D03*
X135500000Y-107000000D03*
X134700000Y-107000000D03*
X134700000Y-107800000D03*
X135500000Y-107800000D03*
X133100000Y-107400000D03*
X131300000Y-110000000D03*
X127900000Y-110000000D03*
X126200000Y-112400000D03*
X130300000Y-112400000D03*
X126200000Y-107500000D03*
X130300000Y-107500000D03*
X135400000Y-116500000D03*
X135400000Y-117400000D03*
X101829999Y-120500000D03*
X107500000Y-141600000D03*
X123100000Y-115800000D03*
X131700000Y-97600000D03*
X113600000Y-92900000D03*
X117100000Y-102600000D03*
G04 #@! TO.N,VDD*
X108300000Y-129700000D03*
X121600000Y-134600000D03*
G04 #@! TO.N,/LIGHT_SENSE*
X122676189Y-108983070D03*
X123800000Y-90100000D03*
G04 #@! TO.N,/CAM_JACK*
X112700000Y-129700000D03*
X123923624Y-116799723D03*
G04 #@! TO.N,/TRIGGER*
X123900000Y-119200000D03*
X114100000Y-119800000D03*
G04 #@! TO.N,/FOCUS*
X123894117Y-117799290D03*
X114100000Y-117800000D03*
G04 #@! TO.N,/SWDIO*
X134200000Y-120900000D03*
X129000000Y-125800000D03*
G04 #@! TO.N,/SWDCLK*
X133475000Y-120000000D03*
X128200000Y-128300000D03*
G04 #@! TO.N,/RESET*
X132775000Y-119200000D03*
X127500000Y-130900000D03*
G04 #@! TO.N,/GPIO2*
X130675000Y-116680154D03*
X127500000Y-133500000D03*
G04 #@! TO.N,/GPIO1*
X131375000Y-117400000D03*
X135000000Y-130900000D03*
G04 #@! TO.N,/TX*
X132075000Y-118200000D03*
X135000000Y-125800000D03*
G04 #@! TO.N,/LED_GREEN*
X133612653Y-103712653D03*
X103700000Y-138400000D03*
G04 #@! TO.N,/LED_RED*
X102800000Y-134000000D03*
X131500000Y-86800000D03*
G04 #@! TO.N,/RX_EN*
X122600000Y-111400000D03*
X112300000Y-100700000D03*
G04 #@! TO.N,/RX_OUT*
X121700000Y-109200000D03*
X121510000Y-103400000D03*
G04 #@! TD*
D29*
G04 #@! TO.N,Net-(BT1-Pad1)*
X135500000Y-81850000D02*
X135500000Y-82500000D01*
X131550000Y-77900000D02*
X135500000Y-81850000D01*
X126250000Y-77900000D02*
X131550000Y-77900000D01*
G04 #@! TO.N,GND*
X129475000Y-81550000D02*
X129400000Y-81625000D01*
X132500000Y-81550000D02*
X129475000Y-81550000D01*
X126350000Y-81625000D02*
X126200000Y-81475000D01*
X129400000Y-81625000D02*
X126350000Y-81625000D01*
X104975000Y-135850000D02*
X104900000Y-135775000D01*
X107500000Y-135850000D02*
X104975000Y-135850000D01*
X104975000Y-140250000D02*
X104900000Y-140175000D01*
X107500000Y-140250000D02*
X104975000Y-140250000D01*
X108700000Y-135850000D02*
X107500000Y-135850000D01*
X109000000Y-136150000D02*
X108700000Y-135850000D01*
X109000000Y-139950000D02*
X109000000Y-136150000D01*
X108700000Y-140250000D02*
X109000000Y-139950000D01*
X107500000Y-140250000D02*
X108700000Y-140250000D01*
X122600000Y-99225000D02*
X124900000Y-99225000D01*
X117125000Y-110000000D02*
X117125000Y-103900000D01*
X117125000Y-103900000D02*
X111300000Y-103900000D01*
X110525000Y-103125000D02*
X110525000Y-99200000D01*
X111300000Y-103900000D02*
X110525000Y-103125000D01*
X112275000Y-94425000D02*
X112900000Y-95050000D01*
X112275000Y-92900000D02*
X112275000Y-94425000D01*
X112350000Y-95050000D02*
X111400000Y-96000000D01*
X112900000Y-95050000D02*
X112350000Y-95050000D01*
X111400000Y-98325000D02*
X110525000Y-99200000D01*
X111400000Y-96000000D02*
X111400000Y-98325000D01*
X123900000Y-114200000D02*
X123100000Y-115000000D01*
X124250000Y-114200000D02*
X123900000Y-114200000D01*
X123600000Y-105700000D02*
X122900000Y-105000000D01*
X124250000Y-105700000D02*
X123600000Y-105700000D01*
X135800000Y-103900000D02*
X135500000Y-103600000D01*
X135800000Y-105250000D02*
X135800000Y-103900000D01*
X135800000Y-116100000D02*
X135800000Y-114750000D01*
X135400000Y-116500000D02*
X135800000Y-116100000D01*
X101879999Y-120450000D02*
X101829999Y-120500000D01*
X103225000Y-120450000D02*
X101879999Y-120450000D01*
X122625000Y-77900000D02*
X113750000Y-77900000D01*
X126200000Y-81475000D02*
X122625000Y-77900000D01*
X134000000Y-87600000D02*
X134000000Y-88225000D01*
X134000000Y-82500000D02*
X134000000Y-87600000D01*
X133050000Y-81550000D02*
X134000000Y-82500000D01*
X132500000Y-81550000D02*
X133050000Y-81550000D01*
X107500000Y-140250000D02*
X107500000Y-141600000D01*
X119125000Y-123475000D02*
X116700000Y-125900000D01*
X119125000Y-118800000D02*
X119125000Y-123475000D01*
X125400000Y-98100000D02*
X124900000Y-98600000D01*
X131200000Y-98100000D02*
X125400000Y-98100000D01*
X124900000Y-98600000D02*
X124900000Y-99225000D01*
X131700000Y-98600000D02*
X131200000Y-98100000D01*
X131700000Y-99225000D02*
X131700000Y-98600000D01*
X131700000Y-99225000D02*
X131700000Y-97600000D01*
X112275000Y-92900000D02*
X113600000Y-92900000D01*
X117125000Y-102625000D02*
X117100000Y-102600000D01*
X117125000Y-103900000D02*
X117125000Y-102625000D01*
G04 #@! TO.N,VDD*
X126500000Y-106300000D02*
X127000000Y-106800000D01*
X126500000Y-105250000D02*
X126500000Y-106300000D01*
X128600000Y-106300000D02*
X128600000Y-105250000D01*
X128100000Y-106800000D02*
X128600000Y-106300000D01*
X127000000Y-106800000D02*
X128100000Y-106800000D01*
X129475000Y-83450000D02*
X129400000Y-83375000D01*
X132500000Y-83450000D02*
X129475000Y-83450000D01*
X129250000Y-83525000D02*
X129400000Y-83375000D01*
X126200000Y-83525000D02*
X129250000Y-83525000D01*
X126500000Y-102575000D02*
X124900000Y-100975000D01*
X126500000Y-105250000D02*
X126500000Y-102575000D01*
X124900000Y-100975000D02*
X122600000Y-100975000D01*
X122595000Y-100970000D02*
X122600000Y-100975000D01*
X120870000Y-100970000D02*
X122595000Y-100970000D01*
X120870000Y-100404315D02*
X120870000Y-100970000D01*
X122580000Y-94872792D02*
X120870000Y-96582792D01*
X120870000Y-96582792D02*
X120870000Y-100404315D01*
X122580000Y-93600000D02*
X122580000Y-94872792D01*
X129550000Y-90100000D02*
X129600000Y-90050000D01*
X126875000Y-90100000D02*
X129550000Y-90100000D01*
X123375000Y-93600000D02*
X122580000Y-93600000D01*
X126875000Y-90100000D02*
X123375000Y-93600000D01*
X129400000Y-83375000D02*
X130600000Y-84575000D01*
X130600000Y-89100000D02*
X129650000Y-90050000D01*
X129650000Y-90050000D02*
X129600000Y-90050000D01*
X130600000Y-84575000D02*
X130600000Y-89100000D01*
X121600000Y-136200000D02*
X121600000Y-137600000D01*
X109625000Y-129700000D02*
X108300000Y-129700000D01*
X121600000Y-134600000D02*
X121600000Y-136200000D01*
G04 #@! TO.N,Net-(D1-Pad2)*
X115175000Y-136200000D02*
X118200000Y-136200000D01*
X113000000Y-134025000D02*
X115175000Y-136200000D01*
G04 #@! TO.N,Net-(D1-Pad4)*
X113825000Y-137600000D02*
X118400000Y-137600000D01*
X113000000Y-138425000D02*
X113825000Y-137600000D01*
G04 #@! TO.N,/LIGHT_SENSE*
X125125000Y-90100000D02*
X125125000Y-88100000D01*
X121300000Y-84275000D02*
X125125000Y-88100000D01*
X121300000Y-82500000D02*
X121300000Y-84275000D01*
X123200000Y-110000000D02*
X122676189Y-109476189D01*
X122676189Y-109476189D02*
X122676189Y-108983070D01*
X124250000Y-110000000D02*
X123200000Y-110000000D01*
X123800000Y-90100000D02*
X125125000Y-90100000D01*
G04 #@! TO.N,/CAM_JACK*
X111375000Y-127000000D02*
X111325000Y-126950000D01*
X111375000Y-129700000D02*
X111375000Y-127000000D01*
X111375000Y-129700000D02*
X112700000Y-129700000D01*
X125800000Y-114750000D02*
X125800000Y-115300000D01*
X125800000Y-115300000D02*
X124299997Y-116800003D01*
X124299997Y-116800003D02*
X123923904Y-116800003D01*
X123923904Y-116800003D02*
X123923624Y-116799723D01*
G04 #@! TO.N,/TRIGGER*
X127200000Y-115800000D02*
X123900000Y-119100000D01*
X123900000Y-119100000D02*
X123900000Y-119200000D01*
X127200000Y-114750000D02*
X127200000Y-115800000D01*
X110875000Y-119800000D02*
X110225000Y-120450000D01*
X114100000Y-119800000D02*
X110875000Y-119800000D01*
G04 #@! TO.N,/FOCUS*
X124500710Y-117799290D02*
X123894117Y-117799290D01*
X126500000Y-115800000D02*
X124500710Y-117799290D01*
X126500000Y-114750000D02*
X126500000Y-115800000D01*
X108225000Y-117800000D02*
X106225000Y-119800000D01*
X106225000Y-119800000D02*
X106225000Y-120450000D01*
X114100000Y-117800000D02*
X108225000Y-117800000D01*
G04 #@! TO.N,/SWDIO*
X134200000Y-114750000D02*
X134200000Y-120900000D01*
X131010000Y-125800000D02*
X131030000Y-125820000D01*
X129000000Y-125800000D02*
X131010000Y-125800000D01*
G04 #@! TO.N,/SWDCLK*
X133500000Y-119975000D02*
X133475000Y-120000000D01*
X133500000Y-114750000D02*
X133500000Y-119975000D01*
X130970000Y-128300000D02*
X131030000Y-128360000D01*
X128200000Y-128300000D02*
X130970000Y-128300000D01*
G04 #@! TO.N,/RESET*
X132800000Y-119175000D02*
X132775000Y-119200000D01*
X132800000Y-114750000D02*
X132800000Y-119175000D01*
X127500000Y-130900000D02*
X131030000Y-130900000D01*
G04 #@! TO.N,/GPIO2*
X130700000Y-116655154D02*
X130675000Y-116680154D01*
X130700000Y-114750000D02*
X130700000Y-116655154D01*
X130970000Y-133500000D02*
X131030000Y-133440000D01*
X127500000Y-133500000D02*
X130970000Y-133500000D01*
G04 #@! TO.N,/RX*
X133570000Y-133440000D02*
X132310000Y-134700000D01*
X132310000Y-134700000D02*
X127000000Y-134700000D01*
X126774999Y-134474999D02*
X126774999Y-120625001D01*
X127000000Y-134700000D02*
X126774999Y-134474999D01*
X129600000Y-116200000D02*
X129600000Y-117800000D01*
X130000000Y-115800000D02*
X129600000Y-116200000D01*
X130000000Y-114750000D02*
X130000000Y-115800000D01*
X129600000Y-117800000D02*
X126774999Y-120625001D01*
G04 #@! TO.N,/GPIO1*
X131400000Y-117375000D02*
X131375000Y-117400000D01*
X131400000Y-114750000D02*
X131400000Y-117375000D01*
X135000000Y-130900000D02*
X133570000Y-130900000D01*
G04 #@! TO.N,/TX*
X132100000Y-118175000D02*
X132075000Y-118200000D01*
X132100000Y-114750000D02*
X132100000Y-118175000D01*
X133590000Y-125800000D02*
X133570000Y-125820000D01*
X135000000Y-125800000D02*
X133590000Y-125800000D01*
G04 #@! TO.N,/LED_GREEN*
X104975000Y-138350000D02*
X104900000Y-138425000D01*
X107500000Y-138350000D02*
X104975000Y-138350000D01*
X132800000Y-104525306D02*
X133612653Y-103712653D01*
X132800000Y-105250000D02*
X132800000Y-104525306D01*
X103725000Y-138425000D02*
X103700000Y-138400000D01*
X104900000Y-138425000D02*
X103725000Y-138425000D01*
G04 #@! TO.N,Net-(Q2-Pad3)*
X112125000Y-139300000D02*
X110500000Y-139300000D01*
X113000000Y-140175000D02*
X112125000Y-139300000D01*
G04 #@! TO.N,Net-(Q3-Pad3)*
X112125000Y-134900000D02*
X110500000Y-134900000D01*
X113000000Y-135775000D02*
X112125000Y-134900000D01*
G04 #@! TO.N,/LED_RED*
X104975000Y-133950000D02*
X104900000Y-134025000D01*
X107500000Y-133950000D02*
X104975000Y-133950000D01*
X132100000Y-104200000D02*
X132100000Y-105250000D01*
X132100000Y-104200000D02*
X133100000Y-103200000D01*
X131600000Y-89750000D02*
X131600000Y-89100000D01*
X133100000Y-91250000D02*
X131600000Y-89750000D01*
X133100000Y-103200000D02*
X133100000Y-91250000D01*
X133125000Y-89100000D02*
X134000000Y-89975000D01*
X131600000Y-89100000D02*
X133125000Y-89100000D01*
X129300000Y-115800000D02*
X129300000Y-114750000D01*
X129300000Y-115800000D02*
X126000000Y-119100000D01*
X126000000Y-119100000D02*
X126000000Y-131900000D01*
X126000000Y-131900000D02*
X125400000Y-132500000D01*
X125400000Y-132500000D02*
X107900000Y-132500000D01*
X107500000Y-132900000D02*
X107500000Y-133950000D01*
X107900000Y-132500000D02*
X107500000Y-132900000D01*
X102825000Y-134025000D02*
X102800000Y-134000000D01*
X104900000Y-134025000D02*
X102825000Y-134025000D01*
X131600000Y-86900000D02*
X131500000Y-86800000D01*
X131600000Y-89100000D02*
X131600000Y-86900000D01*
G04 #@! TO.N,/RX_EN*
X124250000Y-111400000D02*
X122600000Y-111400000D01*
X112300000Y-99225000D02*
X112275000Y-99200000D01*
X112300000Y-100700000D02*
X112300000Y-99225000D01*
X112275000Y-97575000D02*
X112900000Y-96950000D01*
X112275000Y-99200000D02*
X112275000Y-97575000D01*
G04 #@! TO.N,/BUTTON*
X123200000Y-121125000D02*
X123200000Y-121400000D01*
X120875000Y-118800000D02*
X123200000Y-121125000D01*
X120875000Y-114425000D02*
X120875000Y-118225000D01*
X123200000Y-112100000D02*
X120875000Y-114425000D01*
X120875000Y-118225000D02*
X120875000Y-118800000D01*
X124250000Y-112100000D02*
X123200000Y-112100000D01*
G04 #@! TO.N,/RX_OUT*
X123200000Y-110700000D02*
X122600000Y-110100000D01*
X124250000Y-110700000D02*
X123200000Y-110700000D01*
X123200000Y-110700000D02*
X121700000Y-109200000D01*
X117500000Y-99390000D02*
X121510000Y-103400000D01*
X117500000Y-93600000D02*
X117500000Y-99390000D01*
G04 #@! TO.N,/LFCLK_XL2*
X121200000Y-107200000D02*
X120500000Y-107900000D01*
X124250000Y-107200000D02*
X121200000Y-107200000D01*
X120500000Y-107900000D02*
X120500000Y-109600000D01*
X120100000Y-110000000D02*
X118875000Y-110000000D01*
X120500000Y-109600000D02*
X120100000Y-110000000D01*
G04 #@! TO.N,/LFCLK_XL1*
X120999999Y-106499999D02*
X120500000Y-106000000D01*
X124250000Y-106500000D02*
X120999999Y-106499999D01*
X118875000Y-103900000D02*
X120200000Y-103900000D01*
X120500000Y-104200000D02*
X120500000Y-106000000D01*
X120200000Y-103900000D02*
X120500000Y-104200000D01*
G04 #@! TO.N,/DCC*
X127200000Y-105250000D02*
X127200000Y-100975000D01*
G04 #@! TO.N,/DEC4*
X129000928Y-101474072D02*
X129500000Y-100975000D01*
X127900000Y-102575000D02*
X129000928Y-101474072D01*
X127900000Y-105250000D02*
X127900000Y-102575000D01*
X129500000Y-100975000D02*
X131700000Y-100975000D01*
G04 #@! TO.N,Net-(L1-Pad2)*
X127200000Y-99225000D02*
X129500000Y-99225000D01*
G04 #@! TO.N,Net-(Q4-Pad1)*
X129550000Y-88100000D02*
X129600000Y-88150000D01*
X126875000Y-88100000D02*
X129550000Y-88100000D01*
G04 #@! TO.N,Net-(Q5-Pad3)*
X110525000Y-95375000D02*
X109900000Y-96000000D01*
X110525000Y-92900000D02*
X110525000Y-95375000D01*
X110525000Y-91775000D02*
X110525000Y-92900000D01*
X120040000Y-93600000D02*
X120040000Y-92327208D01*
X120040000Y-92327208D02*
X118812792Y-91100000D01*
X118812792Y-91100000D02*
X111200000Y-91100000D01*
X111200000Y-91100000D02*
X110525000Y-91775000D01*
G04 #@! TD*
M02*
