G04 #@! TF.GenerationSoftware,KiCad,Pcbnew,5.0.2-bee76a0~70~ubuntu16.04.1*
G04 #@! TF.CreationDate,2018-12-01T12:07:59+05:30*
G04 #@! TF.ProjectId,senseBeRx_rev2,73656e73-6542-4655-9278-5f726576322e,rev?*
G04 #@! TF.SameCoordinates,Original*
G04 #@! TF.FileFunction,Soldermask,Bot*
G04 #@! TF.FilePolarity,Negative*
%FSLAX46Y46*%
G04 Gerber Fmt 4.6, Leading zero omitted, Abs format (unit mm)*
G04 Created by KiCad (PCBNEW 5.0.2-bee76a0~70~ubuntu16.04.1) date Sat Dec  1 12:07:59 2018*
%MOMM*%
%LPD*%
G01*
G04 APERTURE LIST*
%ADD10C,0.100000*%
G04 APERTURE END LIST*
D10*
G36*
X120386393Y-143343553D02*
X120495872Y-143365330D01*
X120805252Y-143493479D01*
X121083687Y-143679523D01*
X121320477Y-143916313D01*
X121506521Y-144194748D01*
X121634670Y-144504128D01*
X121700000Y-144832565D01*
X121700000Y-145167435D01*
X121634670Y-145495872D01*
X121506521Y-145805252D01*
X121320477Y-146083687D01*
X121083687Y-146320477D01*
X120805252Y-146506521D01*
X120495872Y-146634670D01*
X120386393Y-146656447D01*
X120167437Y-146700000D01*
X119832563Y-146700000D01*
X119613607Y-146656447D01*
X119504128Y-146634670D01*
X119194748Y-146506521D01*
X118916313Y-146320477D01*
X118679523Y-146083687D01*
X118493479Y-145805252D01*
X118365330Y-145495872D01*
X118300000Y-145167435D01*
X118300000Y-144832565D01*
X118365330Y-144504128D01*
X118493479Y-144194748D01*
X118679523Y-143916313D01*
X118916313Y-143679523D01*
X119194748Y-143493479D01*
X119504128Y-143365330D01*
X119613607Y-143343553D01*
X119832563Y-143300000D01*
X120167437Y-143300000D01*
X120386393Y-143343553D01*
X120386393Y-143343553D01*
G37*
G36*
X131205770Y-137535372D02*
X131321689Y-137558429D01*
X131503678Y-137633811D01*
X131667463Y-137743249D01*
X131806751Y-137882537D01*
X131916189Y-138046322D01*
X131991571Y-138228311D01*
X132030000Y-138421509D01*
X132030000Y-138618491D01*
X131991571Y-138811689D01*
X131916189Y-138993678D01*
X131806751Y-139157463D01*
X131667463Y-139296751D01*
X131503678Y-139406189D01*
X131321689Y-139481571D01*
X131205770Y-139504628D01*
X131128493Y-139520000D01*
X130931507Y-139520000D01*
X130854230Y-139504628D01*
X130738311Y-139481571D01*
X130556322Y-139406189D01*
X130392537Y-139296751D01*
X130253249Y-139157463D01*
X130143811Y-138993678D01*
X130068429Y-138811689D01*
X130030000Y-138618491D01*
X130030000Y-138421509D01*
X130068429Y-138228311D01*
X130143811Y-138046322D01*
X130253249Y-137882537D01*
X130392537Y-137743249D01*
X130556322Y-137633811D01*
X130738311Y-137558429D01*
X130854230Y-137535372D01*
X130931507Y-137520000D01*
X131128493Y-137520000D01*
X131205770Y-137535372D01*
X131205770Y-137535372D01*
G37*
G36*
X133745770Y-134995372D02*
X133861689Y-135018429D01*
X134043678Y-135093811D01*
X134207463Y-135203249D01*
X134346751Y-135342537D01*
X134456189Y-135506322D01*
X134531571Y-135688311D01*
X134570000Y-135881509D01*
X134570000Y-136078491D01*
X134531571Y-136271689D01*
X134456189Y-136453678D01*
X134346751Y-136617463D01*
X134207463Y-136756751D01*
X134043678Y-136866189D01*
X133861689Y-136941571D01*
X133745770Y-136964628D01*
X133668493Y-136980000D01*
X133471507Y-136980000D01*
X133394230Y-136964628D01*
X133278311Y-136941571D01*
X133096322Y-136866189D01*
X132932537Y-136756751D01*
X132793249Y-136617463D01*
X132683811Y-136453678D01*
X132608429Y-136271689D01*
X132570000Y-136078491D01*
X132570000Y-135881509D01*
X132608429Y-135688311D01*
X132683811Y-135506322D01*
X132793249Y-135342537D01*
X132932537Y-135203249D01*
X133096322Y-135093811D01*
X133278311Y-135018429D01*
X133394230Y-134995372D01*
X133471507Y-134980000D01*
X133668493Y-134980000D01*
X133745770Y-134995372D01*
X133745770Y-134995372D01*
G37*
G36*
X131205770Y-134995372D02*
X131321689Y-135018429D01*
X131503678Y-135093811D01*
X131667463Y-135203249D01*
X131806751Y-135342537D01*
X131916189Y-135506322D01*
X131991571Y-135688311D01*
X132030000Y-135881509D01*
X132030000Y-136078491D01*
X131991571Y-136271689D01*
X131916189Y-136453678D01*
X131806751Y-136617463D01*
X131667463Y-136756751D01*
X131503678Y-136866189D01*
X131321689Y-136941571D01*
X131205770Y-136964628D01*
X131128493Y-136980000D01*
X130931507Y-136980000D01*
X130854230Y-136964628D01*
X130738311Y-136941571D01*
X130556322Y-136866189D01*
X130392537Y-136756751D01*
X130253249Y-136617463D01*
X130143811Y-136453678D01*
X130068429Y-136271689D01*
X130030000Y-136078491D01*
X130030000Y-135881509D01*
X130068429Y-135688311D01*
X130143811Y-135506322D01*
X130253249Y-135342537D01*
X130392537Y-135203249D01*
X130556322Y-135093811D01*
X130738311Y-135018429D01*
X130854230Y-134995372D01*
X130931507Y-134980000D01*
X131128493Y-134980000D01*
X131205770Y-134995372D01*
X131205770Y-134995372D01*
G37*
G36*
X131205770Y-132455372D02*
X131321689Y-132478429D01*
X131503678Y-132553811D01*
X131667463Y-132663249D01*
X131806751Y-132802537D01*
X131916189Y-132966322D01*
X131991571Y-133148311D01*
X132030000Y-133341509D01*
X132030000Y-133538491D01*
X131991571Y-133731689D01*
X131916189Y-133913678D01*
X131806751Y-134077463D01*
X131667463Y-134216751D01*
X131503678Y-134326189D01*
X131321689Y-134401571D01*
X131205770Y-134424628D01*
X131128493Y-134440000D01*
X130931507Y-134440000D01*
X130854230Y-134424628D01*
X130738311Y-134401571D01*
X130556322Y-134326189D01*
X130392537Y-134216751D01*
X130253249Y-134077463D01*
X130143811Y-133913678D01*
X130068429Y-133731689D01*
X130030000Y-133538491D01*
X130030000Y-133341509D01*
X130068429Y-133148311D01*
X130143811Y-132966322D01*
X130253249Y-132802537D01*
X130392537Y-132663249D01*
X130556322Y-132553811D01*
X130738311Y-132478429D01*
X130854230Y-132455372D01*
X130931507Y-132440000D01*
X131128493Y-132440000D01*
X131205770Y-132455372D01*
X131205770Y-132455372D01*
G37*
G36*
X133745770Y-132455372D02*
X133861689Y-132478429D01*
X134043678Y-132553811D01*
X134207463Y-132663249D01*
X134346751Y-132802537D01*
X134456189Y-132966322D01*
X134531571Y-133148311D01*
X134570000Y-133341509D01*
X134570000Y-133538491D01*
X134531571Y-133731689D01*
X134456189Y-133913678D01*
X134346751Y-134077463D01*
X134207463Y-134216751D01*
X134043678Y-134326189D01*
X133861689Y-134401571D01*
X133745770Y-134424628D01*
X133668493Y-134440000D01*
X133471507Y-134440000D01*
X133394230Y-134424628D01*
X133278311Y-134401571D01*
X133096322Y-134326189D01*
X132932537Y-134216751D01*
X132793249Y-134077463D01*
X132683811Y-133913678D01*
X132608429Y-133731689D01*
X132570000Y-133538491D01*
X132570000Y-133341509D01*
X132608429Y-133148311D01*
X132683811Y-132966322D01*
X132793249Y-132802537D01*
X132932537Y-132663249D01*
X133096322Y-132553811D01*
X133278311Y-132478429D01*
X133394230Y-132455372D01*
X133471507Y-132440000D01*
X133668493Y-132440000D01*
X133745770Y-132455372D01*
X133745770Y-132455372D01*
G37*
G36*
X131205770Y-129915372D02*
X131321689Y-129938429D01*
X131503678Y-130013811D01*
X131667463Y-130123249D01*
X131806751Y-130262537D01*
X131916189Y-130426322D01*
X131991571Y-130608311D01*
X132030000Y-130801509D01*
X132030000Y-130998491D01*
X131991571Y-131191689D01*
X131916189Y-131373678D01*
X131806751Y-131537463D01*
X131667463Y-131676751D01*
X131503678Y-131786189D01*
X131321689Y-131861571D01*
X131205770Y-131884628D01*
X131128493Y-131900000D01*
X130931507Y-131900000D01*
X130854230Y-131884628D01*
X130738311Y-131861571D01*
X130556322Y-131786189D01*
X130392537Y-131676751D01*
X130253249Y-131537463D01*
X130143811Y-131373678D01*
X130068429Y-131191689D01*
X130030000Y-130998491D01*
X130030000Y-130801509D01*
X130068429Y-130608311D01*
X130143811Y-130426322D01*
X130253249Y-130262537D01*
X130392537Y-130123249D01*
X130556322Y-130013811D01*
X130738311Y-129938429D01*
X130854230Y-129915372D01*
X130931507Y-129900000D01*
X131128493Y-129900000D01*
X131205770Y-129915372D01*
X131205770Y-129915372D01*
G37*
G36*
X133745770Y-129915372D02*
X133861689Y-129938429D01*
X134043678Y-130013811D01*
X134207463Y-130123249D01*
X134346751Y-130262537D01*
X134456189Y-130426322D01*
X134531571Y-130608311D01*
X134570000Y-130801509D01*
X134570000Y-130998491D01*
X134531571Y-131191689D01*
X134456189Y-131373678D01*
X134346751Y-131537463D01*
X134207463Y-131676751D01*
X134043678Y-131786189D01*
X133861689Y-131861571D01*
X133745770Y-131884628D01*
X133668493Y-131900000D01*
X133471507Y-131900000D01*
X133394230Y-131884628D01*
X133278311Y-131861571D01*
X133096322Y-131786189D01*
X132932537Y-131676751D01*
X132793249Y-131537463D01*
X132683811Y-131373678D01*
X132608429Y-131191689D01*
X132570000Y-130998491D01*
X132570000Y-130801509D01*
X132608429Y-130608311D01*
X132683811Y-130426322D01*
X132793249Y-130262537D01*
X132932537Y-130123249D01*
X133096322Y-130013811D01*
X133278311Y-129938429D01*
X133394230Y-129915372D01*
X133471507Y-129900000D01*
X133668493Y-129900000D01*
X133745770Y-129915372D01*
X133745770Y-129915372D01*
G37*
G36*
X131205770Y-127375372D02*
X131321689Y-127398429D01*
X131503678Y-127473811D01*
X131667463Y-127583249D01*
X131806751Y-127722537D01*
X131916189Y-127886322D01*
X131991571Y-128068311D01*
X132030000Y-128261509D01*
X132030000Y-128458491D01*
X131991571Y-128651689D01*
X131916189Y-128833678D01*
X131806751Y-128997463D01*
X131667463Y-129136751D01*
X131503678Y-129246189D01*
X131321689Y-129321571D01*
X131205770Y-129344628D01*
X131128493Y-129360000D01*
X130931507Y-129360000D01*
X130854230Y-129344628D01*
X130738311Y-129321571D01*
X130556322Y-129246189D01*
X130392537Y-129136751D01*
X130253249Y-128997463D01*
X130143811Y-128833678D01*
X130068429Y-128651689D01*
X130030000Y-128458491D01*
X130030000Y-128261509D01*
X130068429Y-128068311D01*
X130143811Y-127886322D01*
X130253249Y-127722537D01*
X130392537Y-127583249D01*
X130556322Y-127473811D01*
X130738311Y-127398429D01*
X130854230Y-127375372D01*
X130931507Y-127360000D01*
X131128493Y-127360000D01*
X131205770Y-127375372D01*
X131205770Y-127375372D01*
G37*
G36*
X133745770Y-127375372D02*
X133861689Y-127398429D01*
X134043678Y-127473811D01*
X134207463Y-127583249D01*
X134346751Y-127722537D01*
X134456189Y-127886322D01*
X134531571Y-128068311D01*
X134570000Y-128261509D01*
X134570000Y-128458491D01*
X134531571Y-128651689D01*
X134456189Y-128833678D01*
X134346751Y-128997463D01*
X134207463Y-129136751D01*
X134043678Y-129246189D01*
X133861689Y-129321571D01*
X133745770Y-129344628D01*
X133668493Y-129360000D01*
X133471507Y-129360000D01*
X133394230Y-129344628D01*
X133278311Y-129321571D01*
X133096322Y-129246189D01*
X132932537Y-129136751D01*
X132793249Y-128997463D01*
X132683811Y-128833678D01*
X132608429Y-128651689D01*
X132570000Y-128458491D01*
X132570000Y-128261509D01*
X132608429Y-128068311D01*
X132683811Y-127886322D01*
X132793249Y-127722537D01*
X132932537Y-127583249D01*
X133096322Y-127473811D01*
X133278311Y-127398429D01*
X133394230Y-127375372D01*
X133471507Y-127360000D01*
X133668493Y-127360000D01*
X133745770Y-127375372D01*
X133745770Y-127375372D01*
G37*
G36*
X123550026Y-124746115D02*
X123768412Y-124836573D01*
X123964958Y-124967901D01*
X124132099Y-125135042D01*
X124263427Y-125331588D01*
X124353885Y-125549974D01*
X124400000Y-125781809D01*
X124400000Y-126018191D01*
X124353885Y-126250026D01*
X124263427Y-126468412D01*
X124132099Y-126664958D01*
X123964958Y-126832099D01*
X123768412Y-126963427D01*
X123550026Y-127053885D01*
X123318191Y-127100000D01*
X123081809Y-127100000D01*
X122849974Y-127053885D01*
X122631588Y-126963427D01*
X122435042Y-126832099D01*
X122267901Y-126664958D01*
X122136573Y-126468412D01*
X122046115Y-126250026D01*
X122000000Y-126018191D01*
X122000000Y-125781809D01*
X122046115Y-125549974D01*
X122136573Y-125331588D01*
X122267901Y-125135042D01*
X122435042Y-124967901D01*
X122631588Y-124836573D01*
X122849974Y-124746115D01*
X123081809Y-124700000D01*
X123318191Y-124700000D01*
X123550026Y-124746115D01*
X123550026Y-124746115D01*
G37*
G36*
X117050026Y-124746115D02*
X117268412Y-124836573D01*
X117464958Y-124967901D01*
X117632099Y-125135042D01*
X117763427Y-125331588D01*
X117853885Y-125549974D01*
X117900000Y-125781809D01*
X117900000Y-126018191D01*
X117853885Y-126250026D01*
X117763427Y-126468412D01*
X117632099Y-126664958D01*
X117464958Y-126832099D01*
X117268412Y-126963427D01*
X117050026Y-127053885D01*
X116818191Y-127100000D01*
X116581809Y-127100000D01*
X116349974Y-127053885D01*
X116131588Y-126963427D01*
X115935042Y-126832099D01*
X115767901Y-126664958D01*
X115636573Y-126468412D01*
X115546115Y-126250026D01*
X115500000Y-126018191D01*
X115500000Y-125781809D01*
X115546115Y-125549974D01*
X115636573Y-125331588D01*
X115767901Y-125135042D01*
X115935042Y-124967901D01*
X116131588Y-124836573D01*
X116349974Y-124746115D01*
X116581809Y-124700000D01*
X116818191Y-124700000D01*
X117050026Y-124746115D01*
X117050026Y-124746115D01*
G37*
G36*
X131205770Y-124835372D02*
X131321689Y-124858429D01*
X131503678Y-124933811D01*
X131667463Y-125043249D01*
X131806751Y-125182537D01*
X131916189Y-125346322D01*
X131991571Y-125528311D01*
X132030000Y-125721509D01*
X132030000Y-125918491D01*
X131991571Y-126111689D01*
X131916189Y-126293678D01*
X131806751Y-126457463D01*
X131667463Y-126596751D01*
X131503678Y-126706189D01*
X131321689Y-126781571D01*
X131205770Y-126804628D01*
X131128493Y-126820000D01*
X130931507Y-126820000D01*
X130854230Y-126804628D01*
X130738311Y-126781571D01*
X130556322Y-126706189D01*
X130392537Y-126596751D01*
X130253249Y-126457463D01*
X130143811Y-126293678D01*
X130068429Y-126111689D01*
X130030000Y-125918491D01*
X130030000Y-125721509D01*
X130068429Y-125528311D01*
X130143811Y-125346322D01*
X130253249Y-125182537D01*
X130392537Y-125043249D01*
X130556322Y-124933811D01*
X130738311Y-124858429D01*
X130854230Y-124835372D01*
X130931507Y-124820000D01*
X131128493Y-124820000D01*
X131205770Y-124835372D01*
X131205770Y-124835372D01*
G37*
G36*
X133745770Y-124835372D02*
X133861689Y-124858429D01*
X134043678Y-124933811D01*
X134207463Y-125043249D01*
X134346751Y-125182537D01*
X134456189Y-125346322D01*
X134531571Y-125528311D01*
X134570000Y-125721509D01*
X134570000Y-125918491D01*
X134531571Y-126111689D01*
X134456189Y-126293678D01*
X134346751Y-126457463D01*
X134207463Y-126596751D01*
X134043678Y-126706189D01*
X133861689Y-126781571D01*
X133745770Y-126804628D01*
X133668493Y-126820000D01*
X133471507Y-126820000D01*
X133394230Y-126804628D01*
X133278311Y-126781571D01*
X133096322Y-126706189D01*
X132932537Y-126596751D01*
X132793249Y-126457463D01*
X132683811Y-126293678D01*
X132608429Y-126111689D01*
X132570000Y-125918491D01*
X132570000Y-125721509D01*
X132608429Y-125528311D01*
X132683811Y-125346322D01*
X132793249Y-125182537D01*
X132932537Y-125043249D01*
X133096322Y-124933811D01*
X133278311Y-124858429D01*
X133394230Y-124835372D01*
X133471507Y-124820000D01*
X133668493Y-124820000D01*
X133745770Y-124835372D01*
X133745770Y-124835372D01*
G37*
G36*
X108764452Y-122759127D02*
X108902105Y-122786508D01*
X109074994Y-122858121D01*
X109230590Y-122962087D01*
X109362913Y-123094410D01*
X109466879Y-123250006D01*
X109538492Y-123422895D01*
X109575000Y-123606433D01*
X109575000Y-123793567D01*
X109538492Y-123977105D01*
X109466879Y-124149994D01*
X109362913Y-124305590D01*
X109230590Y-124437913D01*
X109074994Y-124541879D01*
X108902105Y-124613492D01*
X108764451Y-124640873D01*
X108718568Y-124650000D01*
X108531432Y-124650000D01*
X108485549Y-124640873D01*
X108347895Y-124613492D01*
X108175006Y-124541879D01*
X108019410Y-124437913D01*
X107887087Y-124305590D01*
X107783121Y-124149994D01*
X107711508Y-123977105D01*
X107675000Y-123793567D01*
X107675000Y-123606433D01*
X107711508Y-123422895D01*
X107783121Y-123250006D01*
X107887087Y-123094410D01*
X108019410Y-122962087D01*
X108175006Y-122858121D01*
X108347895Y-122786508D01*
X108485548Y-122759127D01*
X108531432Y-122750000D01*
X108718568Y-122750000D01*
X108764452Y-122759127D01*
X108764452Y-122759127D01*
G37*
G36*
X101764452Y-122759127D02*
X101902105Y-122786508D01*
X102074994Y-122858121D01*
X102230590Y-122962087D01*
X102362913Y-123094410D01*
X102466879Y-123250006D01*
X102538492Y-123422895D01*
X102575000Y-123606433D01*
X102575000Y-123793567D01*
X102538492Y-123977105D01*
X102466879Y-124149994D01*
X102362913Y-124305590D01*
X102230590Y-124437913D01*
X102074994Y-124541879D01*
X101902105Y-124613492D01*
X101764451Y-124640873D01*
X101718568Y-124650000D01*
X101531432Y-124650000D01*
X101485549Y-124640873D01*
X101347895Y-124613492D01*
X101175006Y-124541879D01*
X101019410Y-124437913D01*
X100887087Y-124305590D01*
X100783121Y-124149994D01*
X100711508Y-123977105D01*
X100675000Y-123793567D01*
X100675000Y-123606433D01*
X100711508Y-123422895D01*
X100783121Y-123250006D01*
X100887087Y-123094410D01*
X101019410Y-122962087D01*
X101175006Y-122858121D01*
X101347895Y-122786508D01*
X101485548Y-122759127D01*
X101531432Y-122750000D01*
X101718568Y-122750000D01*
X101764452Y-122759127D01*
X101764452Y-122759127D01*
G37*
G36*
X131205770Y-122295372D02*
X131321689Y-122318429D01*
X131503678Y-122393811D01*
X131667463Y-122503249D01*
X131806751Y-122642537D01*
X131916189Y-122806322D01*
X131991571Y-122988311D01*
X132030000Y-123181509D01*
X132030000Y-123378491D01*
X131991571Y-123571689D01*
X131916189Y-123753678D01*
X131806751Y-123917463D01*
X131667463Y-124056751D01*
X131503678Y-124166189D01*
X131321689Y-124241571D01*
X131205770Y-124264628D01*
X131128493Y-124280000D01*
X130931507Y-124280000D01*
X130854230Y-124264628D01*
X130738311Y-124241571D01*
X130556322Y-124166189D01*
X130392537Y-124056751D01*
X130253249Y-123917463D01*
X130143811Y-123753678D01*
X130068429Y-123571689D01*
X130030000Y-123378491D01*
X130030000Y-123181509D01*
X130068429Y-122988311D01*
X130143811Y-122806322D01*
X130253249Y-122642537D01*
X130392537Y-122503249D01*
X130556322Y-122393811D01*
X130738311Y-122318429D01*
X130854230Y-122295372D01*
X130931507Y-122280000D01*
X131128493Y-122280000D01*
X131205770Y-122295372D01*
X131205770Y-122295372D01*
G37*
G36*
X133745770Y-122295372D02*
X133861689Y-122318429D01*
X134043678Y-122393811D01*
X134207463Y-122503249D01*
X134346751Y-122642537D01*
X134456189Y-122806322D01*
X134531571Y-122988311D01*
X134570000Y-123181509D01*
X134570000Y-123378491D01*
X134531571Y-123571689D01*
X134456189Y-123753678D01*
X134346751Y-123917463D01*
X134207463Y-124056751D01*
X134043678Y-124166189D01*
X133861689Y-124241571D01*
X133745770Y-124264628D01*
X133668493Y-124280000D01*
X133471507Y-124280000D01*
X133394230Y-124264628D01*
X133278311Y-124241571D01*
X133096322Y-124166189D01*
X132932537Y-124056751D01*
X132793249Y-123917463D01*
X132683811Y-123753678D01*
X132608429Y-123571689D01*
X132570000Y-123378491D01*
X132570000Y-123181509D01*
X132608429Y-122988311D01*
X132683811Y-122806322D01*
X132793249Y-122642537D01*
X132932537Y-122503249D01*
X133096322Y-122393811D01*
X133278311Y-122318429D01*
X133394230Y-122295372D01*
X133471507Y-122280000D01*
X133668493Y-122280000D01*
X133745770Y-122295372D01*
X133745770Y-122295372D01*
G37*
G36*
X117050026Y-120246115D02*
X117268412Y-120336573D01*
X117464958Y-120467901D01*
X117632099Y-120635042D01*
X117763427Y-120831588D01*
X117853885Y-121049974D01*
X117900000Y-121281809D01*
X117900000Y-121518191D01*
X117853885Y-121750026D01*
X117763427Y-121968412D01*
X117632099Y-122164958D01*
X117464958Y-122332099D01*
X117268412Y-122463427D01*
X117050026Y-122553885D01*
X116818191Y-122600000D01*
X116581809Y-122600000D01*
X116349974Y-122553885D01*
X116131588Y-122463427D01*
X115935042Y-122332099D01*
X115767901Y-122164958D01*
X115636573Y-121968412D01*
X115546115Y-121750026D01*
X115500000Y-121518191D01*
X115500000Y-121281809D01*
X115546115Y-121049974D01*
X115636573Y-120831588D01*
X115767901Y-120635042D01*
X115935042Y-120467901D01*
X116131588Y-120336573D01*
X116349974Y-120246115D01*
X116581809Y-120200000D01*
X116818191Y-120200000D01*
X117050026Y-120246115D01*
X117050026Y-120246115D01*
G37*
G36*
X123550026Y-120246115D02*
X123768412Y-120336573D01*
X123964958Y-120467901D01*
X124132099Y-120635042D01*
X124263427Y-120831588D01*
X124353885Y-121049974D01*
X124400000Y-121281809D01*
X124400000Y-121518191D01*
X124353885Y-121750026D01*
X124263427Y-121968412D01*
X124132099Y-122164958D01*
X123964958Y-122332099D01*
X123768412Y-122463427D01*
X123550026Y-122553885D01*
X123318191Y-122600000D01*
X123081809Y-122600000D01*
X122849974Y-122553885D01*
X122631588Y-122463427D01*
X122435042Y-122332099D01*
X122267901Y-122164958D01*
X122136573Y-121968412D01*
X122046115Y-121750026D01*
X122000000Y-121518191D01*
X122000000Y-121281809D01*
X122046115Y-121049974D01*
X122136573Y-120831588D01*
X122267901Y-120635042D01*
X122435042Y-120467901D01*
X122631588Y-120336573D01*
X122849974Y-120246115D01*
X123081809Y-120200000D01*
X123318191Y-120200000D01*
X123550026Y-120246115D01*
X123550026Y-120246115D01*
G37*
G36*
X120704183Y-107226900D02*
X120831574Y-107279668D01*
X120946225Y-107356275D01*
X121043725Y-107453775D01*
X121120332Y-107568426D01*
X121173100Y-107695817D01*
X121200000Y-107831055D01*
X121200000Y-107968945D01*
X121173100Y-108104183D01*
X121120332Y-108231574D01*
X121043725Y-108346225D01*
X120946225Y-108443725D01*
X120831574Y-108520332D01*
X120704183Y-108573100D01*
X120568945Y-108600000D01*
X120431055Y-108600000D01*
X120295817Y-108573100D01*
X120168426Y-108520332D01*
X120053775Y-108443725D01*
X119956275Y-108346225D01*
X119879668Y-108231574D01*
X119826900Y-108104183D01*
X119800000Y-107968945D01*
X119800000Y-107831055D01*
X119826900Y-107695817D01*
X119879668Y-107568426D01*
X119956275Y-107453775D01*
X120053775Y-107356275D01*
X120168426Y-107279668D01*
X120295817Y-107226900D01*
X120431055Y-107200000D01*
X120568945Y-107200000D01*
X120704183Y-107226900D01*
X120704183Y-107226900D01*
G37*
G36*
X120704183Y-105326900D02*
X120831574Y-105379668D01*
X120946225Y-105456275D01*
X121043725Y-105553775D01*
X121120332Y-105668426D01*
X121173100Y-105795817D01*
X121200000Y-105931055D01*
X121200000Y-106068945D01*
X121173100Y-106204183D01*
X121120332Y-106331574D01*
X121043725Y-106446225D01*
X120946225Y-106543725D01*
X120831574Y-106620332D01*
X120704183Y-106673100D01*
X120568945Y-106700000D01*
X120431055Y-106700000D01*
X120295817Y-106673100D01*
X120168426Y-106620332D01*
X120053775Y-106543725D01*
X119956275Y-106446225D01*
X119879668Y-106331574D01*
X119826900Y-106204183D01*
X119800000Y-106068945D01*
X119800000Y-105931055D01*
X119826900Y-105795817D01*
X119879668Y-105668426D01*
X119956275Y-105553775D01*
X120053775Y-105456275D01*
X120168426Y-105379668D01*
X120295817Y-105326900D01*
X120431055Y-105300000D01*
X120568945Y-105300000D01*
X120704183Y-105326900D01*
X120704183Y-105326900D01*
G37*
G36*
X120360857Y-92542272D02*
X120561042Y-92625191D01*
X120741213Y-92745578D01*
X120894422Y-92898787D01*
X121014809Y-93078958D01*
X121097728Y-93279143D01*
X121140000Y-93491658D01*
X121140000Y-93708342D01*
X121097728Y-93920857D01*
X121014809Y-94121042D01*
X120894422Y-94301213D01*
X120741213Y-94454422D01*
X120561042Y-94574809D01*
X120360857Y-94657728D01*
X120148342Y-94700000D01*
X119931658Y-94700000D01*
X119719143Y-94657728D01*
X119518958Y-94574809D01*
X119338787Y-94454422D01*
X119185578Y-94301213D01*
X119065191Y-94121042D01*
X118982272Y-93920857D01*
X118940000Y-93708342D01*
X118940000Y-93491658D01*
X118982272Y-93279143D01*
X119065191Y-93078958D01*
X119185578Y-92898787D01*
X119338787Y-92745578D01*
X119518958Y-92625191D01*
X119719143Y-92542272D01*
X119931658Y-92500000D01*
X120148342Y-92500000D01*
X120360857Y-92542272D01*
X120360857Y-92542272D01*
G37*
G36*
X122900857Y-92542272D02*
X123101042Y-92625191D01*
X123281213Y-92745578D01*
X123434422Y-92898787D01*
X123554809Y-93078958D01*
X123637728Y-93279143D01*
X123680000Y-93491658D01*
X123680000Y-93708342D01*
X123637728Y-93920857D01*
X123554809Y-94121042D01*
X123434422Y-94301213D01*
X123281213Y-94454422D01*
X123101042Y-94574809D01*
X122900857Y-94657728D01*
X122688342Y-94700000D01*
X122471658Y-94700000D01*
X122259143Y-94657728D01*
X122058958Y-94574809D01*
X121878787Y-94454422D01*
X121725578Y-94301213D01*
X121605191Y-94121042D01*
X121522272Y-93920857D01*
X121480000Y-93708342D01*
X121480000Y-93491658D01*
X121522272Y-93279143D01*
X121605191Y-93078958D01*
X121725578Y-92898787D01*
X121878787Y-92745578D01*
X122058958Y-92625191D01*
X122259143Y-92542272D01*
X122471658Y-92500000D01*
X122688342Y-92500000D01*
X122900857Y-92542272D01*
X122900857Y-92542272D01*
G37*
G36*
X118600000Y-94700000D02*
X116400000Y-94700000D01*
X116400000Y-92500000D01*
X118600000Y-92500000D01*
X118600000Y-94700000D01*
X118600000Y-94700000D01*
G37*
G36*
X119080857Y-81442272D02*
X119281042Y-81525191D01*
X119461213Y-81645578D01*
X119614422Y-81798787D01*
X119734809Y-81978958D01*
X119817728Y-82179143D01*
X119860000Y-82391658D01*
X119860000Y-82608342D01*
X119817728Y-82820857D01*
X119734809Y-83021042D01*
X119614422Y-83201213D01*
X119461213Y-83354422D01*
X119281042Y-83474809D01*
X119080857Y-83557728D01*
X118868342Y-83600000D01*
X118651658Y-83600000D01*
X118439143Y-83557728D01*
X118238958Y-83474809D01*
X118058787Y-83354422D01*
X117905578Y-83201213D01*
X117785191Y-83021042D01*
X117702272Y-82820857D01*
X117660000Y-82608342D01*
X117660000Y-82391658D01*
X117702272Y-82179143D01*
X117785191Y-81978958D01*
X117905578Y-81798787D01*
X118058787Y-81645578D01*
X118238958Y-81525191D01*
X118439143Y-81442272D01*
X118651658Y-81400000D01*
X118868342Y-81400000D01*
X119080857Y-81442272D01*
X119080857Y-81442272D01*
G37*
G36*
X122400000Y-83600000D02*
X120200000Y-83600000D01*
X120200000Y-81400000D01*
X122400000Y-81400000D01*
X122400000Y-83600000D01*
X122400000Y-83600000D01*
G37*
G36*
X127816017Y-76215724D02*
X127963630Y-76260503D01*
X128099677Y-76333222D01*
X128218919Y-76431081D01*
X128316778Y-76550323D01*
X128389497Y-76686370D01*
X128434276Y-76833983D01*
X128450000Y-76993640D01*
X128450000Y-78806360D01*
X128434276Y-78966017D01*
X128389497Y-79113630D01*
X128316778Y-79249677D01*
X128218919Y-79368919D01*
X128099677Y-79466778D01*
X127963630Y-79539497D01*
X127816017Y-79584276D01*
X127656360Y-79600000D01*
X124843640Y-79600000D01*
X124683983Y-79584276D01*
X124536370Y-79539497D01*
X124400323Y-79466778D01*
X124281081Y-79368919D01*
X124183222Y-79249677D01*
X124110503Y-79113630D01*
X124065724Y-78966017D01*
X124050000Y-78806360D01*
X124050000Y-76993640D01*
X124065724Y-76833983D01*
X124110503Y-76686370D01*
X124183222Y-76550323D01*
X124281081Y-76431081D01*
X124400323Y-76333222D01*
X124536370Y-76260503D01*
X124683983Y-76215724D01*
X124843640Y-76200000D01*
X127656360Y-76200000D01*
X127816017Y-76215724D01*
X127816017Y-76215724D01*
G37*
G36*
X115316017Y-76215724D02*
X115463630Y-76260503D01*
X115599677Y-76333222D01*
X115718919Y-76431081D01*
X115816778Y-76550323D01*
X115889497Y-76686370D01*
X115934276Y-76833983D01*
X115950000Y-76993640D01*
X115950000Y-78806360D01*
X115934276Y-78966017D01*
X115889497Y-79113630D01*
X115816778Y-79249677D01*
X115718919Y-79368919D01*
X115599677Y-79466778D01*
X115463630Y-79539497D01*
X115316017Y-79584276D01*
X115156360Y-79600000D01*
X112343640Y-79600000D01*
X112183983Y-79584276D01*
X112036370Y-79539497D01*
X111900323Y-79466778D01*
X111781081Y-79368919D01*
X111683222Y-79249677D01*
X111610503Y-79113630D01*
X111565724Y-78966017D01*
X111550000Y-78806360D01*
X111550000Y-76993640D01*
X111565724Y-76833983D01*
X111610503Y-76686370D01*
X111683222Y-76550323D01*
X111781081Y-76431081D01*
X111900323Y-76333222D01*
X112036370Y-76260503D01*
X112183983Y-76215724D01*
X112343640Y-76200000D01*
X115156360Y-76200000D01*
X115316017Y-76215724D01*
X115316017Y-76215724D01*
G37*
G36*
X120386393Y-73343553D02*
X120495872Y-73365330D01*
X120805252Y-73493479D01*
X121083687Y-73679523D01*
X121320477Y-73916313D01*
X121506521Y-74194748D01*
X121634670Y-74504128D01*
X121700000Y-74832565D01*
X121700000Y-75167435D01*
X121634670Y-75495872D01*
X121506521Y-75805252D01*
X121320477Y-76083687D01*
X121083687Y-76320477D01*
X120805252Y-76506521D01*
X120495872Y-76634670D01*
X120386393Y-76656447D01*
X120167437Y-76700000D01*
X119832563Y-76700000D01*
X119613607Y-76656447D01*
X119504128Y-76634670D01*
X119194748Y-76506521D01*
X118916313Y-76320477D01*
X118679523Y-76083687D01*
X118493479Y-75805252D01*
X118365330Y-75495872D01*
X118300000Y-75167435D01*
X118300000Y-74832565D01*
X118365330Y-74504128D01*
X118493479Y-74194748D01*
X118679523Y-73916313D01*
X118916313Y-73679523D01*
X119194748Y-73493479D01*
X119504128Y-73365330D01*
X119613607Y-73343553D01*
X119832563Y-73300000D01*
X120167437Y-73300000D01*
X120386393Y-73343553D01*
X120386393Y-73343553D01*
G37*
M02*
