M48
; DRILL file {KiCad (5.1.0)-1} date 08/16/19 17:36:41
; FORMAT={-:-/ absolute / inch / decimal}
; #@! TF.CreationDate,2019-08-16T17:36:41+05:30
; #@! TF.GenerationSoftware,Kicad,Pcbnew,(5.1.0)-1
; #@! TF.FileFunction,Plated,1,2,PTH
FMAT,2
INCH
T1C0.0157
T2C0.0598
%
G90
G05
T1
X0.5118Y-0.8268
X0.5118Y-0.8661
X0.5118Y-1.1024
X0.5118Y-1.1417
X0.5512Y-0.8268
X0.5512Y-0.8661
X0.5512Y-1.1024
X0.5512Y-1.1417
X0.5906Y-0.8268
X0.5906Y-0.8661
X0.5906Y-1.1024
X0.5906Y-1.1417
X0.6299Y-0.8268
X0.6299Y-0.8661
X0.6299Y-1.1024
X0.6299Y-1.1417
X0.6693Y-0.5118
X0.6693Y-0.5512
X0.6693Y-0.5906
X0.6693Y-0.6299
X0.6693Y-0.6693
X0.6693Y-0.7087
X0.6693Y-0.748
X0.6693Y-0.7874
X0.6693Y-0.8268
X0.6693Y-0.8661
X0.6693Y-1.1024
X0.6693Y-1.1417
X0.6693Y-1.1811
X0.6693Y-1.2205
X0.6693Y-1.2598
X0.6693Y-1.2992
X0.6693Y-1.3386
X0.6693Y-1.378
X0.6693Y-1.4173
X0.6693Y-1.4567
X0.7913Y-0.8425
X0.7913Y-0.874
X0.7913Y-0.9055
X0.7913Y-1.0197
X0.7913Y-1.0512
X0.7913Y-1.0827
X0.8228Y-0.8425
X0.8228Y-0.874
X0.8228Y-0.9055
X0.8228Y-1.0197
X0.8228Y-1.0512
X0.8228Y-1.0827
X1.1457Y-0.8858
X1.1457Y-0.9173
X1.1457Y-0.9488
X1.1457Y-1.063
X1.1457Y-1.0945
X1.1457Y-1.126
X1.1772Y-0.8858
X1.1772Y-0.9173
X1.1772Y-0.9488
X1.1772Y-1.063
X1.1772Y-1.0945
X1.1772Y-1.126
X1.2992Y-0.5118
X1.2992Y-0.5512
X1.2992Y-0.5906
X1.2992Y-0.6299
X1.2992Y-0.6693
X1.2992Y-0.7087
X1.2992Y-0.748
X1.2992Y-0.7874
X1.2992Y-0.8268
X1.2992Y-0.8661
X1.2992Y-1.1024
X1.2992Y-1.1417
X1.2992Y-1.1811
X1.2992Y-1.2205
X1.2992Y-1.2598
X1.2992Y-1.2992
X1.2992Y-1.3386
X1.2992Y-1.378
X1.2992Y-1.4173
X1.2992Y-1.4567
X1.3386Y-0.8268
X1.3386Y-0.8661
X1.3386Y-1.1024
X1.3386Y-1.1417
X1.378Y-0.8268
X1.378Y-0.8661
X1.378Y-1.1024
X1.378Y-1.1417
X1.4173Y-0.8268
X1.4173Y-0.8661
X1.4173Y-1.1024
X1.4173Y-1.1417
X1.4567Y-0.8268
X1.4567Y-0.8661
X1.4567Y-1.1024
X1.4567Y-1.1417
T2
X0.8827Y-1.378
X1.0827Y-1.378
X0.8858Y-0.5906
X1.0858Y-0.5906
T0
M30
