G04 #@! TF.GenerationSoftware,KiCad,Pcbnew,(5.1.0)-1*
G04 #@! TF.CreationDate,2019-08-16T17:36:45+05:30*
G04 #@! TF.ProjectId,SFH4715AS_breakout,53464834-3731-4354-9153-5f627265616b,rev?*
G04 #@! TF.SameCoordinates,Original*
G04 #@! TF.FileFunction,Legend,Top*
G04 #@! TF.FilePolarity,Positive*
%FSLAX46Y46*%
G04 Gerber Fmt 4.6, Leading zero omitted, Abs format (unit mm)*
G04 Created by KiCad (PCBNEW (5.1.0)-1) date 2019-08-16 17:36:45*
%MOMM*%
%LPD*%
G04 APERTURE LIST*
%ADD10C,0.120000*%
%ADD11C,0.150000*%
G04 APERTURE END LIST*
D10*
X31000000Y-18800000D02*
X31000000Y-11200000D01*
X19000000Y-31200000D02*
X19000000Y-38800000D01*
X24600000Y-28800000D02*
X21400000Y-28800000D01*
X24600000Y-28600000D02*
X24600000Y-25400000D01*
X21400000Y-28600000D02*
X24600000Y-28600000D01*
X21400000Y-25400000D02*
X21400000Y-28600000D01*
X24600000Y-25400000D02*
X21400000Y-25400000D01*
X25400000Y-21200000D02*
X28600000Y-21200000D01*
X25400000Y-21400000D02*
X25400000Y-24600000D01*
X28600000Y-21400000D02*
X25400000Y-21400000D01*
X28600000Y-24600000D02*
X28600000Y-21400000D01*
X25400000Y-24600000D02*
X28600000Y-24600000D01*
X19960000Y-18810000D02*
X30120000Y-18810000D01*
X19960000Y-11190000D02*
X19960000Y-18810000D01*
X30120000Y-11190000D02*
X19960000Y-11190000D01*
X30120000Y-18810000D02*
X30120000Y-11190000D01*
X30120000Y-17540000D02*
X19960000Y-17540000D01*
X30040000Y-31190000D02*
X19880000Y-31190000D01*
X30040000Y-38810000D02*
X30040000Y-31190000D01*
X19880000Y-38810000D02*
X30040000Y-38810000D01*
X19880000Y-31190000D02*
X19880000Y-38810000D01*
X19880000Y-32460000D02*
X30040000Y-32460000D01*
X24600000Y-21400000D02*
X21400000Y-21400000D01*
X21400000Y-21400000D02*
X21400000Y-24600000D01*
X21400000Y-24600000D02*
X24600000Y-24600000D01*
X24600000Y-24600000D02*
X24600000Y-21400000D01*
X24600000Y-24800000D02*
X21400000Y-24800000D01*
X25400000Y-25200000D02*
X28600000Y-25200000D01*
X25400000Y-25400000D02*
X25400000Y-28600000D01*
X28600000Y-25400000D02*
X25400000Y-25400000D01*
X28600000Y-28600000D02*
X28600000Y-25400000D01*
X25400000Y-28600000D02*
X28600000Y-28600000D01*
D11*
X19661904Y-27452380D02*
X19661904Y-26452380D01*
X19900000Y-26452380D01*
X20042857Y-26500000D01*
X20138095Y-26595238D01*
X20185714Y-26690476D01*
X20233333Y-26880952D01*
X20233333Y-27023809D01*
X20185714Y-27214285D01*
X20138095Y-27309523D01*
X20042857Y-27404761D01*
X19900000Y-27452380D01*
X19661904Y-27452380D01*
X20614285Y-26547619D02*
X20661904Y-26500000D01*
X20757142Y-26452380D01*
X20995238Y-26452380D01*
X21090476Y-26500000D01*
X21138095Y-26547619D01*
X21185714Y-26642857D01*
X21185714Y-26738095D01*
X21138095Y-26880952D01*
X20566666Y-27452380D01*
X21185714Y-27452380D01*
X28861904Y-23452380D02*
X28861904Y-22452380D01*
X29100000Y-22452380D01*
X29242857Y-22500000D01*
X29338095Y-22595238D01*
X29385714Y-22690476D01*
X29433333Y-22880952D01*
X29433333Y-23023809D01*
X29385714Y-23214285D01*
X29338095Y-23309523D01*
X29242857Y-23404761D01*
X29100000Y-23452380D01*
X28861904Y-23452380D01*
X30385714Y-23452380D02*
X29814285Y-23452380D01*
X30100000Y-23452380D02*
X30100000Y-22452380D01*
X30004761Y-22595238D01*
X29909523Y-22690476D01*
X29814285Y-22738095D01*
X18666666Y-14452380D02*
X18666666Y-15166666D01*
X18619047Y-15309523D01*
X18523809Y-15404761D01*
X18380952Y-15452380D01*
X18285714Y-15452380D01*
X19666666Y-15452380D02*
X19095238Y-15452380D01*
X19380952Y-15452380D02*
X19380952Y-14452380D01*
X19285714Y-14595238D01*
X19190476Y-14690476D01*
X19095238Y-14738095D01*
X30666666Y-34452380D02*
X30666666Y-35166666D01*
X30619047Y-35309523D01*
X30523809Y-35404761D01*
X30380952Y-35452380D01*
X30285714Y-35452380D01*
X31095238Y-34547619D02*
X31142857Y-34500000D01*
X31238095Y-34452380D01*
X31476190Y-34452380D01*
X31571428Y-34500000D01*
X31619047Y-34547619D01*
X31666666Y-34642857D01*
X31666666Y-34738095D01*
X31619047Y-34880952D01*
X31047619Y-35452380D01*
X31666666Y-35452380D01*
X19661904Y-23452380D02*
X19661904Y-22452380D01*
X19900000Y-22452380D01*
X20042857Y-22500000D01*
X20138095Y-22595238D01*
X20185714Y-22690476D01*
X20233333Y-22880952D01*
X20233333Y-23023809D01*
X20185714Y-23214285D01*
X20138095Y-23309523D01*
X20042857Y-23404761D01*
X19900000Y-23452380D01*
X19661904Y-23452380D01*
X20566666Y-22452380D02*
X21185714Y-22452380D01*
X20852380Y-22833333D01*
X20995238Y-22833333D01*
X21090476Y-22880952D01*
X21138095Y-22928571D01*
X21185714Y-23023809D01*
X21185714Y-23261904D01*
X21138095Y-23357142D01*
X21090476Y-23404761D01*
X20995238Y-23452380D01*
X20709523Y-23452380D01*
X20614285Y-23404761D01*
X20566666Y-23357142D01*
X28861904Y-27452380D02*
X28861904Y-26452380D01*
X29100000Y-26452380D01*
X29242857Y-26500000D01*
X29338095Y-26595238D01*
X29385714Y-26690476D01*
X29433333Y-26880952D01*
X29433333Y-27023809D01*
X29385714Y-27214285D01*
X29338095Y-27309523D01*
X29242857Y-27404761D01*
X29100000Y-27452380D01*
X28861904Y-27452380D01*
X30290476Y-26785714D02*
X30290476Y-27452380D01*
X30052380Y-26404761D02*
X29814285Y-27119047D01*
X30433333Y-27119047D01*
M02*
