G04 #@! TF.FileFunction,Soldermask,Top*
%FSLAX46Y46*%
G04 Gerber Fmt 4.6, Leading zero omitted, Abs format (unit mm)*
G04 Created by KiCad (PCBNEW (2015-06-24 BZR 5814)-product) date Wed Mar 15 11:54:28 2017*
%MOMM*%
G01*
G04 APERTURE LIST*
%ADD10C,0.100000*%
%ADD11R,1.270000X0.970000*%
%ADD12R,1.250000X1.000000*%
%ADD13R,1.000000X1.250000*%
%ADD14C,4.300000*%
%ADD15R,0.700000X1.300000*%
%ADD16R,1.300000X0.700000*%
%ADD17C,1.600000*%
%ADD18C,4.400000*%
%ADD19R,1.500000X1.000000*%
%ADD20R,1.600000X1.600000*%
%ADD21R,0.800000X0.900000*%
%ADD22C,1.300000*%
%ADD23R,1.200000X0.500000*%
%ADD24R,1.600000X0.900000*%
%ADD25R,1.600000X0.500000*%
%ADD26R,0.500000X1.600000*%
%ADD27R,1.900000X1.300000*%
%ADD28R,1.600000X1.000000*%
%ADD29R,1.000000X1.600000*%
%ADD30R,0.800000X0.750000*%
G04 APERTURE END LIST*
D10*
D11*
X130000000Y-119360000D03*
X130000000Y-120640000D03*
D12*
X85090000Y-121682000D03*
X85090000Y-123682000D03*
X104521000Y-121682000D03*
X104521000Y-123682000D03*
X105206800Y-139176000D03*
X105206800Y-137176000D03*
X102971600Y-139176000D03*
X102971600Y-137176000D03*
X101219000Y-133207000D03*
X101219000Y-131207000D03*
X100711000Y-139176000D03*
X100711000Y-137176000D03*
X93472000Y-133207000D03*
X93472000Y-131207000D03*
D13*
X130000000Y-123037600D03*
X128000000Y-123037600D03*
X130000000Y-116967000D03*
X128000000Y-116967000D03*
X102854000Y-141224000D03*
X100854000Y-141224000D03*
D14*
X53000000Y-149000000D03*
X134700000Y-149000000D03*
X134700000Y-91000000D03*
X53000000Y-91000000D03*
D15*
X66350000Y-128600000D03*
X64450000Y-128600000D03*
D16*
X80010000Y-119568000D03*
X80010000Y-117668000D03*
X80010000Y-123632000D03*
X80010000Y-121732000D03*
D15*
X121450000Y-128600000D03*
X123350000Y-128600000D03*
D16*
X107061000Y-119568000D03*
X107061000Y-117668000D03*
X107061000Y-123632000D03*
X107061000Y-121732000D03*
X85090000Y-119568000D03*
X85090000Y-117668000D03*
X82550000Y-119568000D03*
X82550000Y-117668000D03*
X104521000Y-119568000D03*
X104521000Y-117668000D03*
X101981000Y-119568000D03*
X101981000Y-117668000D03*
D15*
X94041000Y-117094000D03*
X92141000Y-117094000D03*
X94041000Y-122936000D03*
X92141000Y-122936000D03*
D17*
X117475000Y-94488000D03*
X117475000Y-107188000D03*
D18*
X93850000Y-100838000D03*
D19*
X95600000Y-120700000D03*
X92100000Y-120700000D03*
X95600000Y-119300000D03*
X92100000Y-119300000D03*
D20*
X81026000Y-148844000D03*
D17*
X83566000Y-148844000D03*
X81026000Y-146304000D03*
X83566000Y-146304000D03*
X81026000Y-143764000D03*
X83566000Y-143764000D03*
X81026000Y-141224000D03*
X83566000Y-141224000D03*
X81026000Y-138684000D03*
X83566000Y-138684000D03*
D21*
X125156000Y-105172000D03*
X123256000Y-105172000D03*
X124206000Y-107172000D03*
D22*
X63554000Y-121796000D03*
X67146000Y-118204000D03*
X67146000Y-121796000D03*
X120554000Y-121796000D03*
X124146000Y-118204000D03*
X124146000Y-121796000D03*
D23*
X90950000Y-147622000D03*
X90950000Y-149022000D03*
D24*
X89100000Y-149572000D03*
D25*
X89100000Y-148672000D03*
X89100000Y-147972000D03*
X89100000Y-147272000D03*
X89100000Y-146572000D03*
X89100000Y-145872000D03*
X89100000Y-145172000D03*
X89100000Y-144472000D03*
X89100000Y-143772000D03*
X89100000Y-143072000D03*
X89100000Y-142372000D03*
X89100000Y-141672000D03*
X89100000Y-140972000D03*
X89100000Y-140272000D03*
X89100000Y-139572000D03*
D26*
X89650000Y-138022000D03*
X90350000Y-138022000D03*
X91050000Y-138022000D03*
X91750000Y-138022000D03*
X92450000Y-138022000D03*
X93150000Y-138022000D03*
X93850000Y-138022000D03*
X94550000Y-138022000D03*
X95250000Y-138022000D03*
X95950000Y-138022000D03*
X96650000Y-138022000D03*
X97350000Y-138022000D03*
D25*
X98600000Y-140272000D03*
X98600000Y-140972000D03*
X98600000Y-141672000D03*
X98600000Y-142372000D03*
X98600000Y-143072000D03*
X98600000Y-143772000D03*
X98600000Y-144472000D03*
X98600000Y-145172000D03*
X98600000Y-145872000D03*
D24*
X98600000Y-149572000D03*
D25*
X98600000Y-146572000D03*
D26*
X98150000Y-138022000D03*
D27*
X95682000Y-133179000D03*
X98882000Y-133179000D03*
X98882000Y-127679000D03*
X95682000Y-127679000D03*
D28*
X82550000Y-121182000D03*
X82550000Y-124182000D03*
X101981000Y-121182000D03*
X101981000Y-124182000D03*
D29*
X122706000Y-102997000D03*
X125706000Y-102997000D03*
D30*
X106414000Y-141224000D03*
X104914000Y-141224000D03*
M02*
