G04 #@! TF.GenerationSoftware,KiCad,Pcbnew,5.1.5-52549c5~84~ubuntu18.04.1*
G04 #@! TF.CreationDate,2019-12-19T18:23:33+05:30*
G04 #@! TF.ProjectId,senseble_rev1,73656e73-6562-46c6-955f-726576312e6b,rev?*
G04 #@! TF.SameCoordinates,Original*
G04 #@! TF.FileFunction,Copper,L2,Bot*
G04 #@! TF.FilePolarity,Positive*
%FSLAX46Y46*%
G04 Gerber Fmt 4.6, Leading zero omitted, Abs format (unit mm)*
G04 Created by KiCad (PCBNEW 5.1.5-52549c5~84~ubuntu18.04.1) date 2019-12-19 18:23:33*
%MOMM*%
%LPD*%
G04 APERTURE LIST*
%ADD10C,0.100000*%
%ADD11O,2.000000X1.700000*%
%ADD12R,1.700000X1.700000*%
%ADD13O,1.700000X1.700000*%
%ADD14R,1.000000X1.000000*%
%ADD15O,1.000000X1.000000*%
%ADD16C,2.000000*%
%ADD17O,3.800000X2.500000*%
%ADD18C,0.800000*%
%ADD19C,0.250000*%
%ADD20C,0.254000*%
G04 APERTURE END LIST*
G04 #@! TA.AperFunction,ComponentPad*
D10*
G36*
X4774504Y-23151204D02*
G01*
X4798773Y-23154804D01*
X4822571Y-23160765D01*
X4845671Y-23169030D01*
X4867849Y-23179520D01*
X4888893Y-23192133D01*
X4908598Y-23206747D01*
X4926777Y-23223223D01*
X4943253Y-23241402D01*
X4957867Y-23261107D01*
X4970480Y-23282151D01*
X4980970Y-23304329D01*
X4989235Y-23327429D01*
X4995196Y-23351227D01*
X4998796Y-23375496D01*
X5000000Y-23400000D01*
X5000000Y-24600000D01*
X4998796Y-24624504D01*
X4995196Y-24648773D01*
X4989235Y-24672571D01*
X4980970Y-24695671D01*
X4970480Y-24717849D01*
X4957867Y-24738893D01*
X4943253Y-24758598D01*
X4926777Y-24776777D01*
X4908598Y-24793253D01*
X4888893Y-24807867D01*
X4867849Y-24820480D01*
X4845671Y-24830970D01*
X4822571Y-24839235D01*
X4798773Y-24845196D01*
X4774504Y-24848796D01*
X4750000Y-24850000D01*
X3250000Y-24850000D01*
X3225496Y-24848796D01*
X3201227Y-24845196D01*
X3177429Y-24839235D01*
X3154329Y-24830970D01*
X3132151Y-24820480D01*
X3111107Y-24807867D01*
X3091402Y-24793253D01*
X3073223Y-24776777D01*
X3056747Y-24758598D01*
X3042133Y-24738893D01*
X3029520Y-24717849D01*
X3019030Y-24695671D01*
X3010765Y-24672571D01*
X3004804Y-24648773D01*
X3001204Y-24624504D01*
X3000000Y-24600000D01*
X3000000Y-23400000D01*
X3001204Y-23375496D01*
X3004804Y-23351227D01*
X3010765Y-23327429D01*
X3019030Y-23304329D01*
X3029520Y-23282151D01*
X3042133Y-23261107D01*
X3056747Y-23241402D01*
X3073223Y-23223223D01*
X3091402Y-23206747D01*
X3111107Y-23192133D01*
X3132151Y-23179520D01*
X3154329Y-23169030D01*
X3177429Y-23160765D01*
X3201227Y-23154804D01*
X3225496Y-23151204D01*
X3250000Y-23150000D01*
X4750000Y-23150000D01*
X4774504Y-23151204D01*
G37*
G04 #@! TD.AperFunction*
D11*
X4000000Y-21500000D03*
D12*
X10000000Y-30000000D03*
D13*
X10000000Y-27460000D03*
X10000000Y-24920000D03*
X10000000Y-22380000D03*
X10000000Y-19840000D03*
X10000000Y-17300000D03*
X10000000Y-14760000D03*
X10000000Y-12220000D03*
D12*
X45000000Y-14500000D03*
D13*
X45000000Y-17040000D03*
X42460000Y-14500000D03*
X42460000Y-17040000D03*
X39920000Y-14500000D03*
X39920000Y-17040000D03*
X49800000Y-12220000D03*
X49800000Y-14760000D03*
X49800000Y-17300000D03*
X49800000Y-19840000D03*
X49800000Y-22380000D03*
X49800000Y-24920000D03*
X49800000Y-27460000D03*
D12*
X49800000Y-30000000D03*
D14*
X15000000Y-35000000D03*
D15*
X13730000Y-35000000D03*
X15000000Y-36270000D03*
X13730000Y-36270000D03*
X15000000Y-37540000D03*
X13730000Y-37540000D03*
X15000000Y-38810000D03*
X13730000Y-38810000D03*
X15000000Y-40080000D03*
X13730000Y-40080000D03*
X15000000Y-41350000D03*
X13730000Y-41350000D03*
X15000000Y-42620000D03*
X13730000Y-42620000D03*
X15000000Y-43890000D03*
X13730000Y-43890000D03*
X15000000Y-45160000D03*
X13730000Y-45160000D03*
X15000000Y-46430000D03*
X13730000Y-46430000D03*
X44230000Y-46430000D03*
X45500000Y-46430000D03*
X44230000Y-45160000D03*
X45500000Y-45160000D03*
X44230000Y-43890000D03*
X45500000Y-43890000D03*
X44230000Y-42620000D03*
X45500000Y-42620000D03*
X44230000Y-41350000D03*
X45500000Y-41350000D03*
X44230000Y-40080000D03*
X45500000Y-40080000D03*
X44230000Y-38810000D03*
X45500000Y-38810000D03*
X44230000Y-37540000D03*
X45500000Y-37540000D03*
X44230000Y-36270000D03*
X45500000Y-36270000D03*
X44230000Y-35000000D03*
D14*
X45500000Y-35000000D03*
D16*
X33000000Y-37500000D03*
X33000000Y-42000000D03*
X26500000Y-37500000D03*
X26500000Y-42000000D03*
D17*
X0Y-30300000D03*
X0Y-35000000D03*
X0Y-39700000D03*
D18*
X22000000Y-28500000D03*
X17100000Y-24500000D03*
X35400000Y-21700000D03*
X35400000Y-22600000D03*
X34880641Y-23180641D03*
X36400000Y-10800000D03*
X37200000Y-10800000D03*
X23600000Y-10700000D03*
X22800000Y-10700000D03*
X22800000Y-11500000D03*
X23600000Y-11500000D03*
X27100000Y-11200000D03*
X27900000Y-11200000D03*
X27900000Y-12000000D03*
X27100000Y-12000000D03*
X28000000Y-15000000D03*
X30000000Y-17000000D03*
X28000000Y-20000000D03*
X32000000Y-20000000D03*
X32000000Y-15000000D03*
X24800000Y-22400000D03*
X23906403Y-23206403D03*
X24800000Y-23275000D03*
X17400000Y-31100000D03*
X40000000Y-41000000D03*
X55000000Y-13500000D03*
X37606793Y-21479795D03*
X17412653Y-30012653D03*
X27900000Y-26000000D03*
X28625000Y-25000000D03*
X29350000Y-24000000D03*
X38337347Y-22162653D03*
X37000000Y-13675000D03*
D19*
X35400000Y-21700000D02*
X35400000Y-22600000D01*
X36400000Y-10800000D02*
X37200000Y-10800000D01*
X23600000Y-10700000D02*
X22800000Y-10700000D01*
X22800000Y-11500000D02*
X23600000Y-11500000D01*
X27100000Y-11200000D02*
X27900000Y-11200000D01*
X27900000Y-12000000D02*
X27100000Y-12000000D01*
X27100000Y-12000000D02*
X27100000Y-14100000D01*
X27100000Y-14100000D02*
X28000000Y-15000000D01*
X28000000Y-15000000D02*
X30000000Y-17000000D01*
X30000000Y-17000000D02*
X30000000Y-18000000D01*
X30000000Y-18000000D02*
X28000000Y-20000000D01*
X30000000Y-18000000D02*
X32000000Y-20000000D01*
X30000000Y-17000000D02*
X32000000Y-15000000D01*
X24800000Y-22400000D02*
X24712806Y-22400000D01*
X24712806Y-22400000D02*
X23906403Y-23206403D01*
X23906403Y-23206403D02*
X24731403Y-23206403D01*
X24731403Y-23206403D02*
X24800000Y-23275000D01*
X44230000Y-40080000D02*
X22580000Y-40080000D01*
X17400000Y-34900000D02*
X17400000Y-31100000D01*
X22580000Y-40080000D02*
X17400000Y-34900000D01*
X43310000Y-41000000D02*
X44230000Y-40080000D01*
X40000000Y-41000000D02*
X43310000Y-41000000D01*
X45564001Y-18215001D02*
X48300000Y-15479002D01*
X42460000Y-17040000D02*
X43635001Y-18215001D01*
X43635001Y-18215001D02*
X45564001Y-18215001D01*
X49000000Y-10700000D02*
X52200000Y-10700000D01*
X48300000Y-11400000D02*
X49000000Y-10700000D01*
X52200000Y-10700000D02*
X55000000Y-13500000D01*
X48300000Y-15479002D02*
X48300000Y-11400000D01*
X33000000Y-31560000D02*
X49800000Y-14760000D01*
X33000000Y-37500000D02*
X33000000Y-31560000D01*
X26500000Y-37500000D02*
X33000000Y-37500000D01*
X37606793Y-21479795D02*
X29073935Y-30012653D01*
X29073935Y-30012653D02*
X17412653Y-30012653D01*
X27900000Y-26000000D02*
X20400000Y-26000000D01*
X20400000Y-26000000D02*
X12300000Y-34100000D01*
X12300000Y-34840000D02*
X13730000Y-36270000D01*
X12300000Y-34100000D02*
X12300000Y-34840000D01*
X20763590Y-25000000D02*
X28625000Y-25000000D01*
X11849991Y-33913599D02*
X20763590Y-25000000D01*
X13730000Y-38810000D02*
X11849991Y-36929991D01*
X11849991Y-36929991D02*
X11849991Y-33913599D01*
X11399981Y-37749981D02*
X13230001Y-39580001D01*
X11399981Y-33727199D02*
X11399981Y-37749981D01*
X21127180Y-24000000D02*
X11399981Y-33727199D01*
X13230001Y-39580001D02*
X13730000Y-40080000D01*
X29350000Y-24000000D02*
X21127180Y-24000000D01*
X38337347Y-15012347D02*
X38337347Y-22162653D01*
X37000000Y-13675000D02*
X38337347Y-15012347D01*
D20*
G36*
X28873000Y-13400000D02*
G01*
X28875440Y-13424776D01*
X28882667Y-13448601D01*
X28894403Y-13470557D01*
X28910197Y-13489803D01*
X28929443Y-13505597D01*
X28951399Y-13517333D01*
X28975224Y-13524560D01*
X29000000Y-13527000D01*
X33700000Y-13527000D01*
X33724776Y-13524560D01*
X33748601Y-13517333D01*
X33770557Y-13505597D01*
X33789803Y-13489803D01*
X33805597Y-13470557D01*
X33817333Y-13448601D01*
X33824560Y-13424776D01*
X33827000Y-13400000D01*
X33827000Y-10660000D01*
X47965198Y-10660000D01*
X47788997Y-10836201D01*
X47760000Y-10859999D01*
X47736202Y-10888997D01*
X47736201Y-10888998D01*
X47665026Y-10975724D01*
X47594454Y-11107754D01*
X47564180Y-11207558D01*
X47554062Y-11240915D01*
X47550998Y-11251015D01*
X47536324Y-11400000D01*
X47540001Y-11437332D01*
X47540000Y-15164200D01*
X46331110Y-16373091D01*
X46315990Y-16336589D01*
X46153475Y-16093368D01*
X46021620Y-15961513D01*
X46094180Y-15939502D01*
X46204494Y-15880537D01*
X46301185Y-15801185D01*
X46380537Y-15704494D01*
X46439502Y-15594180D01*
X46475812Y-15474482D01*
X46488072Y-15350000D01*
X46488072Y-13650000D01*
X46475812Y-13525518D01*
X46439502Y-13405820D01*
X46380537Y-13295506D01*
X46301185Y-13198815D01*
X46204494Y-13119463D01*
X46094180Y-13060498D01*
X45974482Y-13024188D01*
X45850000Y-13011928D01*
X44150000Y-13011928D01*
X44025518Y-13024188D01*
X43905820Y-13060498D01*
X43795506Y-13119463D01*
X43698815Y-13198815D01*
X43619463Y-13295506D01*
X43560498Y-13405820D01*
X43538487Y-13478380D01*
X43406632Y-13346525D01*
X43163411Y-13184010D01*
X42893158Y-13072068D01*
X42606260Y-13015000D01*
X42313740Y-13015000D01*
X42026842Y-13072068D01*
X41756589Y-13184010D01*
X41513368Y-13346525D01*
X41306525Y-13553368D01*
X41190000Y-13727760D01*
X41073475Y-13553368D01*
X40866632Y-13346525D01*
X40623411Y-13184010D01*
X40353158Y-13072068D01*
X40066260Y-13015000D01*
X39773740Y-13015000D01*
X39486842Y-13072068D01*
X39216589Y-13184010D01*
X38973368Y-13346525D01*
X38766525Y-13553368D01*
X38604010Y-13796589D01*
X38492068Y-14066842D01*
X38487850Y-14088048D01*
X38035000Y-13635199D01*
X38035000Y-13573061D01*
X37995226Y-13373102D01*
X37917205Y-13184744D01*
X37803937Y-13015226D01*
X37659774Y-12871063D01*
X37490256Y-12757795D01*
X37301898Y-12679774D01*
X37101939Y-12640000D01*
X36898061Y-12640000D01*
X36698102Y-12679774D01*
X36509744Y-12757795D01*
X36340226Y-12871063D01*
X36196063Y-13015226D01*
X36082795Y-13184744D01*
X36004774Y-13373102D01*
X35965000Y-13573061D01*
X35965000Y-13776939D01*
X36004774Y-13976898D01*
X36082795Y-14165256D01*
X36196063Y-14334774D01*
X36340226Y-14478937D01*
X36509744Y-14592205D01*
X36698102Y-14670226D01*
X36898061Y-14710000D01*
X36960199Y-14710000D01*
X37577347Y-15327149D01*
X37577348Y-20444795D01*
X37504854Y-20444795D01*
X37304895Y-20484569D01*
X37116537Y-20562590D01*
X36947019Y-20675858D01*
X36802856Y-20820021D01*
X36689588Y-20989539D01*
X36611567Y-21177897D01*
X36571793Y-21377856D01*
X36571793Y-21439993D01*
X28759134Y-29252653D01*
X18222149Y-29252653D01*
X20714802Y-26760000D01*
X27196289Y-26760000D01*
X27240226Y-26803937D01*
X27409744Y-26917205D01*
X27598102Y-26995226D01*
X27798061Y-27035000D01*
X28001939Y-27035000D01*
X28201898Y-26995226D01*
X28390256Y-26917205D01*
X28559774Y-26803937D01*
X28703937Y-26659774D01*
X28817205Y-26490256D01*
X28895226Y-26301898D01*
X28935000Y-26101939D01*
X28935000Y-25991870D01*
X29115256Y-25917205D01*
X29284774Y-25803937D01*
X29428937Y-25659774D01*
X29542205Y-25490256D01*
X29620226Y-25301898D01*
X29660000Y-25101939D01*
X29660000Y-24991870D01*
X29840256Y-24917205D01*
X30009774Y-24803937D01*
X30153937Y-24659774D01*
X30267205Y-24490256D01*
X30345226Y-24301898D01*
X30385000Y-24101939D01*
X30385000Y-23898061D01*
X30345226Y-23698102D01*
X30267205Y-23509744D01*
X30153937Y-23340226D01*
X30009774Y-23196063D01*
X29840256Y-23082795D01*
X29651898Y-23004774D01*
X29451939Y-22965000D01*
X29248061Y-22965000D01*
X29048102Y-23004774D01*
X28859744Y-23082795D01*
X28690226Y-23196063D01*
X28646289Y-23240000D01*
X21164505Y-23240000D01*
X21127180Y-23236324D01*
X21089855Y-23240000D01*
X21089847Y-23240000D01*
X20978194Y-23250997D01*
X20834933Y-23294454D01*
X20702904Y-23365026D01*
X20587179Y-23459999D01*
X20563381Y-23488997D01*
X10888984Y-33163395D01*
X10859980Y-33187198D01*
X10808390Y-33250061D01*
X10765007Y-33302923D01*
X10739311Y-33350997D01*
X10694435Y-33434953D01*
X10650978Y-33578214D01*
X10639981Y-33689867D01*
X10639981Y-33689877D01*
X10636305Y-33727199D01*
X10639981Y-33764522D01*
X10639982Y-37712649D01*
X10636305Y-37749981D01*
X10650979Y-37898966D01*
X10694435Y-38042227D01*
X10765007Y-38174257D01*
X10790686Y-38205546D01*
X10859981Y-38289982D01*
X10888979Y-38313780D01*
X12595000Y-40019802D01*
X12595000Y-40191788D01*
X12638617Y-40411067D01*
X12724176Y-40617624D01*
X12789241Y-40715000D01*
X12724176Y-40812376D01*
X12638617Y-41018933D01*
X12595000Y-41238212D01*
X12595000Y-41461788D01*
X12638617Y-41681067D01*
X12724176Y-41887624D01*
X12789241Y-41985000D01*
X12724176Y-42082376D01*
X12638617Y-42288933D01*
X12595000Y-42508212D01*
X12595000Y-42731788D01*
X12638617Y-42951067D01*
X12724176Y-43157624D01*
X12789241Y-43255000D01*
X12724176Y-43352376D01*
X12638617Y-43558933D01*
X12595000Y-43778212D01*
X12595000Y-44001788D01*
X12638617Y-44221067D01*
X12724176Y-44427624D01*
X12789241Y-44525000D01*
X12724176Y-44622376D01*
X12638617Y-44828933D01*
X12595000Y-45048212D01*
X12595000Y-45271788D01*
X12638617Y-45491067D01*
X12724176Y-45697624D01*
X12792353Y-45799658D01*
X12742877Y-45869794D01*
X12652554Y-46073136D01*
X12635881Y-46128126D01*
X12762046Y-46303000D01*
X13603000Y-46303000D01*
X13603000Y-46291974D01*
X13618212Y-46295000D01*
X13841788Y-46295000D01*
X13857000Y-46291974D01*
X13857000Y-46303000D01*
X13868026Y-46303000D01*
X13865000Y-46318212D01*
X13865000Y-46541788D01*
X13868026Y-46557000D01*
X13857000Y-46557000D01*
X13857000Y-47399129D01*
X14031876Y-47524126D01*
X14239529Y-47444210D01*
X14360488Y-47367744D01*
X14462376Y-47435824D01*
X14668933Y-47521383D01*
X14888212Y-47565000D01*
X15111788Y-47565000D01*
X15331067Y-47521383D01*
X15537624Y-47435824D01*
X15723520Y-47311612D01*
X15881612Y-47153520D01*
X16005824Y-46967624D01*
X16091383Y-46761067D01*
X16135000Y-46541788D01*
X16135000Y-46318212D01*
X16091383Y-46098933D01*
X16005824Y-45892376D01*
X15940759Y-45795000D01*
X16005824Y-45697624D01*
X16091383Y-45491067D01*
X16135000Y-45271788D01*
X16135000Y-45048212D01*
X16091383Y-44828933D01*
X16005824Y-44622376D01*
X15940759Y-44525000D01*
X16005824Y-44427624D01*
X16091383Y-44221067D01*
X16135000Y-44001788D01*
X16135000Y-43778212D01*
X16091383Y-43558933D01*
X16005824Y-43352376D01*
X15940759Y-43255000D01*
X16005824Y-43157624D01*
X16015024Y-43135413D01*
X25544192Y-43135413D01*
X25639956Y-43399814D01*
X25929571Y-43540704D01*
X26241108Y-43622384D01*
X26562595Y-43641718D01*
X26881675Y-43597961D01*
X27186088Y-43492795D01*
X27360044Y-43399814D01*
X27455808Y-43135413D01*
X32044192Y-43135413D01*
X32139956Y-43399814D01*
X32429571Y-43540704D01*
X32741108Y-43622384D01*
X33062595Y-43641718D01*
X33381675Y-43597961D01*
X33686088Y-43492795D01*
X33860044Y-43399814D01*
X33955808Y-43135413D01*
X33000000Y-42179605D01*
X32044192Y-43135413D01*
X27455808Y-43135413D01*
X26500000Y-42179605D01*
X25544192Y-43135413D01*
X16015024Y-43135413D01*
X16091383Y-42951067D01*
X16135000Y-42731788D01*
X16135000Y-42508212D01*
X16091383Y-42288933D01*
X16005824Y-42082376D01*
X15940759Y-41985000D01*
X16005824Y-41887624D01*
X16091383Y-41681067D01*
X16135000Y-41461788D01*
X16135000Y-41238212D01*
X16091383Y-41018933D01*
X16005824Y-40812376D01*
X15940759Y-40715000D01*
X16005824Y-40617624D01*
X16091383Y-40411067D01*
X16135000Y-40191788D01*
X16135000Y-39968212D01*
X16091383Y-39748933D01*
X16005824Y-39542376D01*
X15940759Y-39445000D01*
X16005824Y-39347624D01*
X16091383Y-39141067D01*
X16135000Y-38921788D01*
X16135000Y-38698212D01*
X16091383Y-38478933D01*
X16005824Y-38272376D01*
X15940759Y-38175000D01*
X16005824Y-38077624D01*
X16091383Y-37871067D01*
X16135000Y-37651788D01*
X16135000Y-37428212D01*
X16091383Y-37208933D01*
X16005824Y-37002376D01*
X15940759Y-36905000D01*
X16005824Y-36807624D01*
X16091383Y-36601067D01*
X16135000Y-36381788D01*
X16135000Y-36158212D01*
X16091383Y-35938933D01*
X16045112Y-35827226D01*
X16089502Y-35744180D01*
X16125812Y-35624482D01*
X16138072Y-35500000D01*
X16138072Y-34500000D01*
X16125812Y-34375518D01*
X16089502Y-34255820D01*
X16030537Y-34145506D01*
X15951185Y-34048815D01*
X15854494Y-33969463D01*
X15744180Y-33910498D01*
X15624482Y-33874188D01*
X15500000Y-33861928D01*
X14500000Y-33861928D01*
X14375518Y-33874188D01*
X14255820Y-33910498D01*
X14167106Y-33957918D01*
X14031876Y-33905874D01*
X13857000Y-34030871D01*
X13857000Y-34873000D01*
X13861928Y-34873000D01*
X13861928Y-35127000D01*
X13857000Y-35127000D01*
X13857000Y-35138026D01*
X13841788Y-35135000D01*
X13669802Y-35135000D01*
X13583000Y-35048198D01*
X13583000Y-34873000D01*
X13603000Y-34873000D01*
X13603000Y-34030871D01*
X13510236Y-33964565D01*
X16365000Y-31109801D01*
X16365000Y-31201939D01*
X16404774Y-31401898D01*
X16482795Y-31590256D01*
X16596063Y-31759774D01*
X16640001Y-31803712D01*
X16640000Y-34862677D01*
X16636324Y-34900000D01*
X16640000Y-34937322D01*
X16640000Y-34937332D01*
X16650997Y-35048985D01*
X16676254Y-35132246D01*
X16694454Y-35192246D01*
X16765026Y-35324276D01*
X16804871Y-35372826D01*
X16859999Y-35440001D01*
X16889003Y-35463804D01*
X22016201Y-40591003D01*
X22039999Y-40620001D01*
X22155724Y-40714974D01*
X22287753Y-40785546D01*
X22431014Y-40829003D01*
X22542667Y-40840000D01*
X22542676Y-40840000D01*
X22579999Y-40843676D01*
X22617322Y-40840000D01*
X25337442Y-40840000D01*
X25248917Y-40928525D01*
X25364585Y-41044193D01*
X25100186Y-41139956D01*
X24959296Y-41429571D01*
X24877616Y-41741108D01*
X24858282Y-42062595D01*
X24902039Y-42381675D01*
X25007205Y-42686088D01*
X25100186Y-42860044D01*
X25364587Y-42955808D01*
X26320395Y-42000000D01*
X26306253Y-41985858D01*
X26485858Y-41806253D01*
X26500000Y-41820395D01*
X26514143Y-41806253D01*
X26693748Y-41985858D01*
X26679605Y-42000000D01*
X27635413Y-42955808D01*
X27899814Y-42860044D01*
X28040704Y-42570429D01*
X28122384Y-42258892D01*
X28141718Y-41937405D01*
X28097961Y-41618325D01*
X27992795Y-41313912D01*
X27899814Y-41139956D01*
X27635415Y-41044193D01*
X27751083Y-40928525D01*
X27662558Y-40840000D01*
X31837442Y-40840000D01*
X31748917Y-40928525D01*
X31864585Y-41044193D01*
X31600186Y-41139956D01*
X31459296Y-41429571D01*
X31377616Y-41741108D01*
X31358282Y-42062595D01*
X31402039Y-42381675D01*
X31507205Y-42686088D01*
X31600186Y-42860044D01*
X31864587Y-42955808D01*
X32820395Y-42000000D01*
X32806253Y-41985858D01*
X32985858Y-41806253D01*
X33000000Y-41820395D01*
X33014143Y-41806253D01*
X33193748Y-41985858D01*
X33179605Y-42000000D01*
X34135413Y-42955808D01*
X34399814Y-42860044D01*
X34540704Y-42570429D01*
X34622384Y-42258892D01*
X34641718Y-41937405D01*
X34597961Y-41618325D01*
X34492795Y-41313912D01*
X34399814Y-41139956D01*
X34135415Y-41044193D01*
X34251083Y-40928525D01*
X34162558Y-40840000D01*
X38976549Y-40840000D01*
X38965000Y-40898061D01*
X38965000Y-41101939D01*
X39004774Y-41301898D01*
X39082795Y-41490256D01*
X39196063Y-41659774D01*
X39340226Y-41803937D01*
X39509744Y-41917205D01*
X39698102Y-41995226D01*
X39898061Y-42035000D01*
X40101939Y-42035000D01*
X40301898Y-41995226D01*
X40490256Y-41917205D01*
X40659774Y-41803937D01*
X40703711Y-41760000D01*
X43171312Y-41760000D01*
X43224176Y-41887624D01*
X43289241Y-41985000D01*
X43224176Y-42082376D01*
X43138617Y-42288933D01*
X43095000Y-42508212D01*
X43095000Y-42731788D01*
X43138617Y-42951067D01*
X43224176Y-43157624D01*
X43289241Y-43255000D01*
X43224176Y-43352376D01*
X43138617Y-43558933D01*
X43095000Y-43778212D01*
X43095000Y-44001788D01*
X43138617Y-44221067D01*
X43224176Y-44427624D01*
X43289241Y-44525000D01*
X43224176Y-44622376D01*
X43138617Y-44828933D01*
X43095000Y-45048212D01*
X43095000Y-45271788D01*
X43138617Y-45491067D01*
X43224176Y-45697624D01*
X43289241Y-45795000D01*
X43224176Y-45892376D01*
X43138617Y-46098933D01*
X43095000Y-46318212D01*
X43095000Y-46541788D01*
X43138617Y-46761067D01*
X43224176Y-46967624D01*
X43348388Y-47153520D01*
X43506480Y-47311612D01*
X43692376Y-47435824D01*
X43898933Y-47521383D01*
X44118212Y-47565000D01*
X44341788Y-47565000D01*
X44561067Y-47521383D01*
X44767624Y-47435824D01*
X44865000Y-47370759D01*
X44962376Y-47435824D01*
X45168933Y-47521383D01*
X45388212Y-47565000D01*
X45611788Y-47565000D01*
X45831067Y-47521383D01*
X46037624Y-47435824D01*
X46223520Y-47311612D01*
X46381612Y-47153520D01*
X46505824Y-46967624D01*
X46591383Y-46761067D01*
X46635000Y-46541788D01*
X46635000Y-46318212D01*
X46591383Y-46098933D01*
X46505824Y-45892376D01*
X46440759Y-45795000D01*
X46505824Y-45697624D01*
X46591383Y-45491067D01*
X46635000Y-45271788D01*
X46635000Y-45048212D01*
X46591383Y-44828933D01*
X46505824Y-44622376D01*
X46440759Y-44525000D01*
X46505824Y-44427624D01*
X46591383Y-44221067D01*
X46635000Y-44001788D01*
X46635000Y-43778212D01*
X46591383Y-43558933D01*
X46505824Y-43352376D01*
X46440759Y-43255000D01*
X46505824Y-43157624D01*
X46591383Y-42951067D01*
X46635000Y-42731788D01*
X46635000Y-42508212D01*
X46591383Y-42288933D01*
X46505824Y-42082376D01*
X46440759Y-41985000D01*
X46505824Y-41887624D01*
X46591383Y-41681067D01*
X46635000Y-41461788D01*
X46635000Y-41238212D01*
X46591383Y-41018933D01*
X46505824Y-40812376D01*
X46440759Y-40715000D01*
X46505824Y-40617624D01*
X46591383Y-40411067D01*
X46635000Y-40191788D01*
X46635000Y-39968212D01*
X46591383Y-39748933D01*
X46505824Y-39542376D01*
X46440759Y-39445000D01*
X46505824Y-39347624D01*
X46591383Y-39141067D01*
X46635000Y-38921788D01*
X46635000Y-38698212D01*
X46591383Y-38478933D01*
X46505824Y-38272376D01*
X46440759Y-38175000D01*
X46505824Y-38077624D01*
X46591383Y-37871067D01*
X46635000Y-37651788D01*
X46635000Y-37428212D01*
X46591383Y-37208933D01*
X46505824Y-37002376D01*
X46440759Y-36905000D01*
X46505824Y-36807624D01*
X46591383Y-36601067D01*
X46635000Y-36381788D01*
X46635000Y-36158212D01*
X46591383Y-35938933D01*
X46545112Y-35827226D01*
X46589502Y-35744180D01*
X46625812Y-35624482D01*
X46638072Y-35500000D01*
X46635000Y-35285750D01*
X46476250Y-35127000D01*
X45627000Y-35127000D01*
X45627000Y-35138026D01*
X45611788Y-35135000D01*
X45388212Y-35135000D01*
X45373000Y-35138026D01*
X45373000Y-35127000D01*
X45361974Y-35127000D01*
X45365000Y-35111788D01*
X45365000Y-34888212D01*
X45361974Y-34873000D01*
X45373000Y-34873000D01*
X45373000Y-34023750D01*
X45627000Y-34023750D01*
X45627000Y-34873000D01*
X46476250Y-34873000D01*
X46635000Y-34714250D01*
X46638072Y-34500000D01*
X46625812Y-34375518D01*
X46589502Y-34255820D01*
X46530537Y-34145506D01*
X46451185Y-34048815D01*
X46354494Y-33969463D01*
X46244180Y-33910498D01*
X46124482Y-33874188D01*
X46000000Y-33861928D01*
X45785750Y-33865000D01*
X45627000Y-34023750D01*
X45373000Y-34023750D01*
X45214250Y-33865000D01*
X45000000Y-33861928D01*
X44875518Y-33874188D01*
X44755820Y-33910498D01*
X44672774Y-33954888D01*
X44561067Y-33908617D01*
X44341788Y-33865000D01*
X44118212Y-33865000D01*
X43898933Y-33908617D01*
X43692376Y-33994176D01*
X43506480Y-34118388D01*
X43348388Y-34276480D01*
X43224176Y-34462376D01*
X43138617Y-34668933D01*
X43095000Y-34888212D01*
X43095000Y-35111788D01*
X43138617Y-35331067D01*
X43224176Y-35537624D01*
X43289241Y-35635000D01*
X43224176Y-35732376D01*
X43138617Y-35938933D01*
X43095000Y-36158212D01*
X43095000Y-36381788D01*
X43138617Y-36601067D01*
X43224176Y-36807624D01*
X43289241Y-36905000D01*
X43224176Y-37002376D01*
X43138617Y-37208933D01*
X43095000Y-37428212D01*
X43095000Y-37651788D01*
X43138617Y-37871067D01*
X43224176Y-38077624D01*
X43289241Y-38175000D01*
X43224176Y-38272376D01*
X43138617Y-38478933D01*
X43095000Y-38698212D01*
X43095000Y-38921788D01*
X43138617Y-39141067D01*
X43212734Y-39320000D01*
X22894802Y-39320000D01*
X18160000Y-34585199D01*
X18160000Y-31803711D01*
X18203937Y-31759774D01*
X18317205Y-31590256D01*
X18395226Y-31401898D01*
X18435000Y-31201939D01*
X18435000Y-30998061D01*
X18395226Y-30798102D01*
X18384685Y-30772653D01*
X29036613Y-30772653D01*
X29073935Y-30776329D01*
X29111257Y-30772653D01*
X29111268Y-30772653D01*
X29222921Y-30761656D01*
X29366182Y-30718199D01*
X29498211Y-30647627D01*
X29613936Y-30552654D01*
X29637739Y-30523650D01*
X37455526Y-22705864D01*
X37533410Y-22822427D01*
X37677573Y-22966590D01*
X37847091Y-23079858D01*
X38035449Y-23157879D01*
X38235408Y-23197653D01*
X38439286Y-23197653D01*
X38639245Y-23157879D01*
X38827603Y-23079858D01*
X38997121Y-22966590D01*
X39141284Y-22822427D01*
X39254552Y-22652909D01*
X39332573Y-22464551D01*
X39372347Y-22264592D01*
X39372347Y-22060714D01*
X39332573Y-21860755D01*
X39254552Y-21672397D01*
X39141284Y-21502879D01*
X39097347Y-21458942D01*
X39097347Y-18270070D01*
X39153080Y-18311641D01*
X39415901Y-18436825D01*
X39563110Y-18481476D01*
X39793000Y-18360155D01*
X39793000Y-17167000D01*
X39773000Y-17167000D01*
X39773000Y-16913000D01*
X39793000Y-16913000D01*
X39793000Y-16893000D01*
X40047000Y-16893000D01*
X40047000Y-16913000D01*
X40067000Y-16913000D01*
X40067000Y-17167000D01*
X40047000Y-17167000D01*
X40047000Y-18360155D01*
X40276890Y-18481476D01*
X40424099Y-18436825D01*
X40686920Y-18311641D01*
X40920269Y-18137588D01*
X41115178Y-17921355D01*
X41184805Y-17804466D01*
X41306525Y-17986632D01*
X41513368Y-18193475D01*
X41756589Y-18355990D01*
X42026842Y-18467932D01*
X42313740Y-18525000D01*
X42606260Y-18525000D01*
X42826408Y-18481210D01*
X43071202Y-18726004D01*
X43095000Y-18755002D01*
X43210725Y-18849975D01*
X43342754Y-18920547D01*
X43486015Y-18964004D01*
X43597668Y-18975001D01*
X43597677Y-18975001D01*
X43635000Y-18978677D01*
X43672323Y-18975001D01*
X44510197Y-18975001D01*
X32488998Y-30996201D01*
X32460000Y-31019999D01*
X32436202Y-31048997D01*
X32436201Y-31048998D01*
X32365026Y-31135724D01*
X32294454Y-31267754D01*
X32276710Y-31326250D01*
X32253764Y-31401898D01*
X32250998Y-31411015D01*
X32236324Y-31560000D01*
X32240001Y-31597332D01*
X32240000Y-36045091D01*
X32225537Y-36051082D01*
X31957748Y-36230013D01*
X31730013Y-36457748D01*
X31551082Y-36725537D01*
X31545091Y-36740000D01*
X27954909Y-36740000D01*
X27948918Y-36725537D01*
X27769987Y-36457748D01*
X27542252Y-36230013D01*
X27274463Y-36051082D01*
X26976912Y-35927832D01*
X26661033Y-35865000D01*
X26338967Y-35865000D01*
X26023088Y-35927832D01*
X25725537Y-36051082D01*
X25457748Y-36230013D01*
X25230013Y-36457748D01*
X25051082Y-36725537D01*
X24927832Y-37023088D01*
X24865000Y-37338967D01*
X24865000Y-37661033D01*
X24927832Y-37976912D01*
X25051082Y-38274463D01*
X25230013Y-38542252D01*
X25457748Y-38769987D01*
X25725537Y-38948918D01*
X26023088Y-39072168D01*
X26338967Y-39135000D01*
X26661033Y-39135000D01*
X26976912Y-39072168D01*
X27274463Y-38948918D01*
X27542252Y-38769987D01*
X27769987Y-38542252D01*
X27948918Y-38274463D01*
X27954909Y-38260000D01*
X31545091Y-38260000D01*
X31551082Y-38274463D01*
X31730013Y-38542252D01*
X31957748Y-38769987D01*
X32225537Y-38948918D01*
X32523088Y-39072168D01*
X32838967Y-39135000D01*
X33161033Y-39135000D01*
X33476912Y-39072168D01*
X33774463Y-38948918D01*
X34042252Y-38769987D01*
X34269987Y-38542252D01*
X34448918Y-38274463D01*
X34572168Y-37976912D01*
X34635000Y-37661033D01*
X34635000Y-37338967D01*
X34572168Y-37023088D01*
X34448918Y-36725537D01*
X34269987Y-36457748D01*
X34042252Y-36230013D01*
X33774463Y-36051082D01*
X33760000Y-36045091D01*
X33760000Y-31874801D01*
X34784801Y-30850000D01*
X48311928Y-30850000D01*
X48324188Y-30974482D01*
X48360498Y-31094180D01*
X48419463Y-31204494D01*
X48498815Y-31301185D01*
X48595506Y-31380537D01*
X48705820Y-31439502D01*
X48825518Y-31475812D01*
X48950000Y-31488072D01*
X49514250Y-31485000D01*
X49673000Y-31326250D01*
X49673000Y-30127000D01*
X49927000Y-30127000D01*
X49927000Y-31326250D01*
X50085750Y-31485000D01*
X50650000Y-31488072D01*
X50774482Y-31475812D01*
X50894180Y-31439502D01*
X51004494Y-31380537D01*
X51101185Y-31301185D01*
X51180537Y-31204494D01*
X51239502Y-31094180D01*
X51275812Y-30974482D01*
X51288072Y-30850000D01*
X51285000Y-30285750D01*
X51126250Y-30127000D01*
X49927000Y-30127000D01*
X49673000Y-30127000D01*
X48473750Y-30127000D01*
X48315000Y-30285750D01*
X48311928Y-30850000D01*
X34784801Y-30850000D01*
X48315000Y-17319802D01*
X48315000Y-17446260D01*
X48372068Y-17733158D01*
X48484010Y-18003411D01*
X48646525Y-18246632D01*
X48853368Y-18453475D01*
X49027760Y-18570000D01*
X48853368Y-18686525D01*
X48646525Y-18893368D01*
X48484010Y-19136589D01*
X48372068Y-19406842D01*
X48315000Y-19693740D01*
X48315000Y-19986260D01*
X48372068Y-20273158D01*
X48484010Y-20543411D01*
X48646525Y-20786632D01*
X48853368Y-20993475D01*
X49027760Y-21110000D01*
X48853368Y-21226525D01*
X48646525Y-21433368D01*
X48484010Y-21676589D01*
X48372068Y-21946842D01*
X48315000Y-22233740D01*
X48315000Y-22526260D01*
X48372068Y-22813158D01*
X48484010Y-23083411D01*
X48646525Y-23326632D01*
X48853368Y-23533475D01*
X49027760Y-23650000D01*
X48853368Y-23766525D01*
X48646525Y-23973368D01*
X48484010Y-24216589D01*
X48372068Y-24486842D01*
X48315000Y-24773740D01*
X48315000Y-25066260D01*
X48372068Y-25353158D01*
X48484010Y-25623411D01*
X48646525Y-25866632D01*
X48853368Y-26073475D01*
X49027760Y-26190000D01*
X48853368Y-26306525D01*
X48646525Y-26513368D01*
X48484010Y-26756589D01*
X48372068Y-27026842D01*
X48315000Y-27313740D01*
X48315000Y-27606260D01*
X48372068Y-27893158D01*
X48484010Y-28163411D01*
X48646525Y-28406632D01*
X48778380Y-28538487D01*
X48705820Y-28560498D01*
X48595506Y-28619463D01*
X48498815Y-28698815D01*
X48419463Y-28795506D01*
X48360498Y-28905820D01*
X48324188Y-29025518D01*
X48311928Y-29150000D01*
X48315000Y-29714250D01*
X48473750Y-29873000D01*
X49673000Y-29873000D01*
X49673000Y-29853000D01*
X49927000Y-29853000D01*
X49927000Y-29873000D01*
X51126250Y-29873000D01*
X51285000Y-29714250D01*
X51288072Y-29150000D01*
X51275812Y-29025518D01*
X51239502Y-28905820D01*
X51180537Y-28795506D01*
X51101185Y-28698815D01*
X51004494Y-28619463D01*
X50894180Y-28560498D01*
X50821620Y-28538487D01*
X50953475Y-28406632D01*
X51115990Y-28163411D01*
X51227932Y-27893158D01*
X51285000Y-27606260D01*
X51285000Y-27313740D01*
X51227932Y-27026842D01*
X51115990Y-26756589D01*
X50953475Y-26513368D01*
X50746632Y-26306525D01*
X50572240Y-26190000D01*
X50746632Y-26073475D01*
X50953475Y-25866632D01*
X51115990Y-25623411D01*
X51227932Y-25353158D01*
X51285000Y-25066260D01*
X51285000Y-24773740D01*
X51227932Y-24486842D01*
X51115990Y-24216589D01*
X50953475Y-23973368D01*
X50746632Y-23766525D01*
X50572240Y-23650000D01*
X50746632Y-23533475D01*
X50953475Y-23326632D01*
X51115990Y-23083411D01*
X51227932Y-22813158D01*
X51285000Y-22526260D01*
X51285000Y-22233740D01*
X51227932Y-21946842D01*
X51115990Y-21676589D01*
X50953475Y-21433368D01*
X50746632Y-21226525D01*
X50572240Y-21110000D01*
X50746632Y-20993475D01*
X50953475Y-20786632D01*
X51115990Y-20543411D01*
X51227932Y-20273158D01*
X51285000Y-19986260D01*
X51285000Y-19693740D01*
X51227932Y-19406842D01*
X51115990Y-19136589D01*
X50953475Y-18893368D01*
X50746632Y-18686525D01*
X50572240Y-18570000D01*
X50746632Y-18453475D01*
X50953475Y-18246632D01*
X51115990Y-18003411D01*
X51227932Y-17733158D01*
X51285000Y-17446260D01*
X51285000Y-17153740D01*
X51227932Y-16866842D01*
X51115990Y-16596589D01*
X50953475Y-16353368D01*
X50746632Y-16146525D01*
X50572240Y-16030000D01*
X50746632Y-15913475D01*
X50953475Y-15706632D01*
X51115990Y-15463411D01*
X51227932Y-15193158D01*
X51285000Y-14906260D01*
X51285000Y-14613740D01*
X51227932Y-14326842D01*
X51115990Y-14056589D01*
X50953475Y-13813368D01*
X50746632Y-13606525D01*
X50572240Y-13490000D01*
X50746632Y-13373475D01*
X50953475Y-13166632D01*
X51115990Y-12923411D01*
X51227932Y-12653158D01*
X51285000Y-12366260D01*
X51285000Y-12073740D01*
X51227932Y-11786842D01*
X51115990Y-11516589D01*
X51078178Y-11460000D01*
X51885199Y-11460000D01*
X53965000Y-13539802D01*
X53965000Y-13601939D01*
X54004774Y-13801898D01*
X54082795Y-13990256D01*
X54196063Y-14159774D01*
X54340226Y-14303937D01*
X54509744Y-14417205D01*
X54698102Y-14495226D01*
X54898061Y-14535000D01*
X55101939Y-14535000D01*
X55301898Y-14495226D01*
X55490256Y-14417205D01*
X55659774Y-14303937D01*
X55803937Y-14159774D01*
X55917205Y-13990256D01*
X55995226Y-13801898D01*
X56035000Y-13601939D01*
X56035000Y-13398061D01*
X55995226Y-13198102D01*
X55917205Y-13009744D01*
X55803937Y-12840226D01*
X55768206Y-12804495D01*
X60015000Y-12804495D01*
X60015000Y-13195505D01*
X60091282Y-13579003D01*
X60240915Y-13940250D01*
X60458149Y-14265364D01*
X60734636Y-14541851D01*
X61059750Y-14759085D01*
X61420997Y-14908718D01*
X61804495Y-14985000D01*
X62195505Y-14985000D01*
X62579003Y-14908718D01*
X62940250Y-14759085D01*
X63265364Y-14541851D01*
X63541851Y-14265364D01*
X63759085Y-13940250D01*
X63908718Y-13579003D01*
X63985000Y-13195505D01*
X63985000Y-12804495D01*
X63908718Y-12420997D01*
X63759085Y-12059750D01*
X63541851Y-11734636D01*
X63265364Y-11458149D01*
X62940250Y-11240915D01*
X62579003Y-11091282D01*
X62195505Y-11015000D01*
X61804495Y-11015000D01*
X61420997Y-11091282D01*
X61059750Y-11240915D01*
X60734636Y-11458149D01*
X60458149Y-11734636D01*
X60240915Y-12059750D01*
X60091282Y-12420997D01*
X60015000Y-12804495D01*
X55768206Y-12804495D01*
X55659774Y-12696063D01*
X55490256Y-12582795D01*
X55301898Y-12504774D01*
X55101939Y-12465000D01*
X55039802Y-12465000D01*
X53234801Y-10660000D01*
X64340001Y-10660000D01*
X64340000Y-51340000D01*
X-4340000Y-51340000D01*
X-4340000Y-48804495D01*
X-3985000Y-48804495D01*
X-3985000Y-49195505D01*
X-3908718Y-49579003D01*
X-3759085Y-49940250D01*
X-3541851Y-50265364D01*
X-3265364Y-50541851D01*
X-2940250Y-50759085D01*
X-2579003Y-50908718D01*
X-2195505Y-50985000D01*
X-1804495Y-50985000D01*
X-1420997Y-50908718D01*
X-1059750Y-50759085D01*
X-734636Y-50541851D01*
X-458149Y-50265364D01*
X-240915Y-49940250D01*
X-91282Y-49579003D01*
X-15000Y-49195505D01*
X-15000Y-48804495D01*
X60015000Y-48804495D01*
X60015000Y-49195505D01*
X60091282Y-49579003D01*
X60240915Y-49940250D01*
X60458149Y-50265364D01*
X60734636Y-50541851D01*
X61059750Y-50759085D01*
X61420997Y-50908718D01*
X61804495Y-50985000D01*
X62195505Y-50985000D01*
X62579003Y-50908718D01*
X62940250Y-50759085D01*
X63265364Y-50541851D01*
X63541851Y-50265364D01*
X63759085Y-49940250D01*
X63908718Y-49579003D01*
X63985000Y-49195505D01*
X63985000Y-48804495D01*
X63908718Y-48420997D01*
X63759085Y-48059750D01*
X63541851Y-47734636D01*
X63265364Y-47458149D01*
X62940250Y-47240915D01*
X62579003Y-47091282D01*
X62195505Y-47015000D01*
X61804495Y-47015000D01*
X61420997Y-47091282D01*
X61059750Y-47240915D01*
X60734636Y-47458149D01*
X60458149Y-47734636D01*
X60240915Y-48059750D01*
X60091282Y-48420997D01*
X60015000Y-48804495D01*
X-15000Y-48804495D01*
X-91282Y-48420997D01*
X-240915Y-48059750D01*
X-458149Y-47734636D01*
X-734636Y-47458149D01*
X-1059750Y-47240915D01*
X-1420997Y-47091282D01*
X-1804495Y-47015000D01*
X-2195505Y-47015000D01*
X-2579003Y-47091282D01*
X-2940250Y-47240915D01*
X-3265364Y-47458149D01*
X-3541851Y-47734636D01*
X-3759085Y-48059750D01*
X-3908718Y-48420997D01*
X-3985000Y-48804495D01*
X-4340000Y-48804495D01*
X-4340000Y-46731874D01*
X12635881Y-46731874D01*
X12652554Y-46786864D01*
X12742877Y-46990206D01*
X12871135Y-47172020D01*
X13032399Y-47325318D01*
X13220471Y-47444210D01*
X13428124Y-47524126D01*
X13603000Y-47399129D01*
X13603000Y-46557000D01*
X12762046Y-46557000D01*
X12635881Y-46731874D01*
X-4340000Y-46731874D01*
X-4340000Y-39700000D01*
X-2544120Y-39700000D01*
X-2507725Y-40069524D01*
X-2399939Y-40424848D01*
X-2224903Y-40752317D01*
X-1989345Y-41039345D01*
X-1702317Y-41274903D01*
X-1374848Y-41449939D01*
X-1019524Y-41557725D01*
X-742597Y-41585000D01*
X742597Y-41585000D01*
X1019524Y-41557725D01*
X1374848Y-41449939D01*
X1702317Y-41274903D01*
X1989345Y-41039345D01*
X2224903Y-40752317D01*
X2399939Y-40424848D01*
X2507725Y-40069524D01*
X2544120Y-39700000D01*
X2507725Y-39330476D01*
X2399939Y-38975152D01*
X2224903Y-38647683D01*
X1989345Y-38360655D01*
X1702317Y-38125097D01*
X1374848Y-37950061D01*
X1019524Y-37842275D01*
X742597Y-37815000D01*
X-742597Y-37815000D01*
X-1019524Y-37842275D01*
X-1374848Y-37950061D01*
X-1702317Y-38125097D01*
X-1989345Y-38360655D01*
X-2224903Y-38647683D01*
X-2399939Y-38975152D01*
X-2507725Y-39330476D01*
X-2544120Y-39700000D01*
X-4340000Y-39700000D01*
X-4340000Y-35000000D01*
X-2544120Y-35000000D01*
X-2507725Y-35369524D01*
X-2399939Y-35724848D01*
X-2224903Y-36052317D01*
X-1989345Y-36339345D01*
X-1702317Y-36574903D01*
X-1374848Y-36749939D01*
X-1019524Y-36857725D01*
X-742597Y-36885000D01*
X742597Y-36885000D01*
X1019524Y-36857725D01*
X1374848Y-36749939D01*
X1702317Y-36574903D01*
X1989345Y-36339345D01*
X2224903Y-36052317D01*
X2399939Y-35724848D01*
X2507725Y-35369524D01*
X2544120Y-35000000D01*
X2507725Y-34630476D01*
X2399939Y-34275152D01*
X2224903Y-33947683D01*
X1989345Y-33660655D01*
X1702317Y-33425097D01*
X1374848Y-33250061D01*
X1019524Y-33142275D01*
X742597Y-33115000D01*
X-742597Y-33115000D01*
X-1019524Y-33142275D01*
X-1374848Y-33250061D01*
X-1702317Y-33425097D01*
X-1989345Y-33660655D01*
X-2224903Y-33947683D01*
X-2399939Y-34275152D01*
X-2507725Y-34630476D01*
X-2544120Y-35000000D01*
X-4340000Y-35000000D01*
X-4340000Y-30300000D01*
X-2544120Y-30300000D01*
X-2507725Y-30669524D01*
X-2399939Y-31024848D01*
X-2224903Y-31352317D01*
X-1989345Y-31639345D01*
X-1702317Y-31874903D01*
X-1374848Y-32049939D01*
X-1019524Y-32157725D01*
X-742597Y-32185000D01*
X742597Y-32185000D01*
X1019524Y-32157725D01*
X1374848Y-32049939D01*
X1702317Y-31874903D01*
X1989345Y-31639345D01*
X2224903Y-31352317D01*
X2399939Y-31024848D01*
X2507725Y-30669524D01*
X2544120Y-30300000D01*
X2507725Y-29930476D01*
X2399939Y-29575152D01*
X2224903Y-29247683D01*
X2144737Y-29150000D01*
X8511928Y-29150000D01*
X8511928Y-30850000D01*
X8524188Y-30974482D01*
X8560498Y-31094180D01*
X8619463Y-31204494D01*
X8698815Y-31301185D01*
X8795506Y-31380537D01*
X8905820Y-31439502D01*
X9025518Y-31475812D01*
X9150000Y-31488072D01*
X10850000Y-31488072D01*
X10974482Y-31475812D01*
X11094180Y-31439502D01*
X11204494Y-31380537D01*
X11301185Y-31301185D01*
X11380537Y-31204494D01*
X11439502Y-31094180D01*
X11475812Y-30974482D01*
X11488072Y-30850000D01*
X11488072Y-29150000D01*
X11475812Y-29025518D01*
X11439502Y-28905820D01*
X11380537Y-28795506D01*
X11301185Y-28698815D01*
X11204494Y-28619463D01*
X11094180Y-28560498D01*
X11021620Y-28538487D01*
X11153475Y-28406632D01*
X11315990Y-28163411D01*
X11427932Y-27893158D01*
X11485000Y-27606260D01*
X11485000Y-27313740D01*
X11427932Y-27026842D01*
X11315990Y-26756589D01*
X11153475Y-26513368D01*
X10946632Y-26306525D01*
X10772240Y-26190000D01*
X10946632Y-26073475D01*
X11153475Y-25866632D01*
X11315990Y-25623411D01*
X11427932Y-25353158D01*
X11485000Y-25066260D01*
X11485000Y-24773740D01*
X11427932Y-24486842D01*
X11315990Y-24216589D01*
X11153475Y-23973368D01*
X10946632Y-23766525D01*
X10772240Y-23650000D01*
X10946632Y-23533475D01*
X11153475Y-23326632D01*
X11315990Y-23083411D01*
X11427932Y-22813158D01*
X11485000Y-22526260D01*
X11485000Y-22233740D01*
X11427932Y-21946842D01*
X11315990Y-21676589D01*
X11153475Y-21433368D01*
X10946632Y-21226525D01*
X10772240Y-21110000D01*
X10946632Y-20993475D01*
X11153475Y-20786632D01*
X11315990Y-20543411D01*
X11427932Y-20273158D01*
X11485000Y-19986260D01*
X11485000Y-19693740D01*
X11427932Y-19406842D01*
X11315990Y-19136589D01*
X11153475Y-18893368D01*
X10946632Y-18686525D01*
X10772240Y-18570000D01*
X10946632Y-18453475D01*
X11153475Y-18246632D01*
X11315990Y-18003411D01*
X11427932Y-17733158D01*
X11485000Y-17446260D01*
X11485000Y-17153740D01*
X11427932Y-16866842D01*
X11315990Y-16596589D01*
X11153475Y-16353368D01*
X10946632Y-16146525D01*
X10772240Y-16030000D01*
X10946632Y-15913475D01*
X11153475Y-15706632D01*
X11315990Y-15463411D01*
X11427932Y-15193158D01*
X11485000Y-14906260D01*
X11485000Y-14613740D01*
X11427932Y-14326842D01*
X11315990Y-14056589D01*
X11153475Y-13813368D01*
X10946632Y-13606525D01*
X10772240Y-13490000D01*
X10946632Y-13373475D01*
X11153475Y-13166632D01*
X11315990Y-12923411D01*
X11427932Y-12653158D01*
X11485000Y-12366260D01*
X11485000Y-12073740D01*
X11427932Y-11786842D01*
X11315990Y-11516589D01*
X11153475Y-11273368D01*
X10946632Y-11066525D01*
X10703411Y-10904010D01*
X10433158Y-10792068D01*
X10146260Y-10735000D01*
X9853740Y-10735000D01*
X9566842Y-10792068D01*
X9296589Y-10904010D01*
X9053368Y-11066525D01*
X8846525Y-11273368D01*
X8684010Y-11516589D01*
X8572068Y-11786842D01*
X8515000Y-12073740D01*
X8515000Y-12366260D01*
X8572068Y-12653158D01*
X8684010Y-12923411D01*
X8846525Y-13166632D01*
X9053368Y-13373475D01*
X9227760Y-13490000D01*
X9053368Y-13606525D01*
X8846525Y-13813368D01*
X8684010Y-14056589D01*
X8572068Y-14326842D01*
X8515000Y-14613740D01*
X8515000Y-14906260D01*
X8572068Y-15193158D01*
X8684010Y-15463411D01*
X8846525Y-15706632D01*
X9053368Y-15913475D01*
X9227760Y-16030000D01*
X9053368Y-16146525D01*
X8846525Y-16353368D01*
X8684010Y-16596589D01*
X8572068Y-16866842D01*
X8515000Y-17153740D01*
X8515000Y-17446260D01*
X8572068Y-17733158D01*
X8684010Y-18003411D01*
X8846525Y-18246632D01*
X9053368Y-18453475D01*
X9227760Y-18570000D01*
X9053368Y-18686525D01*
X8846525Y-18893368D01*
X8684010Y-19136589D01*
X8572068Y-19406842D01*
X8515000Y-19693740D01*
X8515000Y-19986260D01*
X8572068Y-20273158D01*
X8684010Y-20543411D01*
X8846525Y-20786632D01*
X9053368Y-20993475D01*
X9227760Y-21110000D01*
X9053368Y-21226525D01*
X8846525Y-21433368D01*
X8684010Y-21676589D01*
X8572068Y-21946842D01*
X8515000Y-22233740D01*
X8515000Y-22526260D01*
X8572068Y-22813158D01*
X8684010Y-23083411D01*
X8846525Y-23326632D01*
X9053368Y-23533475D01*
X9227760Y-23650000D01*
X9053368Y-23766525D01*
X8846525Y-23973368D01*
X8684010Y-24216589D01*
X8572068Y-24486842D01*
X8515000Y-24773740D01*
X8515000Y-25066260D01*
X8572068Y-25353158D01*
X8684010Y-25623411D01*
X8846525Y-25866632D01*
X9053368Y-26073475D01*
X9227760Y-26190000D01*
X9053368Y-26306525D01*
X8846525Y-26513368D01*
X8684010Y-26756589D01*
X8572068Y-27026842D01*
X8515000Y-27313740D01*
X8515000Y-27606260D01*
X8572068Y-27893158D01*
X8684010Y-28163411D01*
X8846525Y-28406632D01*
X8978380Y-28538487D01*
X8905820Y-28560498D01*
X8795506Y-28619463D01*
X8698815Y-28698815D01*
X8619463Y-28795506D01*
X8560498Y-28905820D01*
X8524188Y-29025518D01*
X8511928Y-29150000D01*
X2144737Y-29150000D01*
X1989345Y-28960655D01*
X1702317Y-28725097D01*
X1374848Y-28550061D01*
X1019524Y-28442275D01*
X742597Y-28415000D01*
X-742597Y-28415000D01*
X-1019524Y-28442275D01*
X-1374848Y-28550061D01*
X-1702317Y-28725097D01*
X-1989345Y-28960655D01*
X-2224903Y-29247683D01*
X-2399939Y-29575152D01*
X-2507725Y-29930476D01*
X-2544120Y-30300000D01*
X-4340000Y-30300000D01*
X-4340000Y-23400000D01*
X2361928Y-23400000D01*
X2361928Y-24600000D01*
X2378992Y-24773254D01*
X2429528Y-24939850D01*
X2511595Y-25093386D01*
X2622038Y-25227962D01*
X2756614Y-25338405D01*
X2910150Y-25420472D01*
X3076746Y-25471008D01*
X3250000Y-25488072D01*
X4750000Y-25488072D01*
X4923254Y-25471008D01*
X5089850Y-25420472D01*
X5243386Y-25338405D01*
X5377962Y-25227962D01*
X5488405Y-25093386D01*
X5570472Y-24939850D01*
X5621008Y-24773254D01*
X5638072Y-24600000D01*
X5638072Y-23400000D01*
X5621008Y-23226746D01*
X5570472Y-23060150D01*
X5488405Y-22906614D01*
X5377962Y-22772038D01*
X5243386Y-22661595D01*
X5141407Y-22607086D01*
X5141795Y-22606802D01*
X5338664Y-22392046D01*
X5489854Y-22143009D01*
X5589554Y-21869261D01*
X5591476Y-21856890D01*
X5470155Y-21627000D01*
X4127000Y-21627000D01*
X4127000Y-21647000D01*
X3873000Y-21647000D01*
X3873000Y-21627000D01*
X2529845Y-21627000D01*
X2408524Y-21856890D01*
X2410446Y-21869261D01*
X2510146Y-22143009D01*
X2661336Y-22392046D01*
X2858205Y-22606802D01*
X2858593Y-22607086D01*
X2756614Y-22661595D01*
X2622038Y-22772038D01*
X2511595Y-22906614D01*
X2429528Y-23060150D01*
X2378992Y-23226746D01*
X2361928Y-23400000D01*
X-4340000Y-23400000D01*
X-4340000Y-21143110D01*
X2408524Y-21143110D01*
X2529845Y-21373000D01*
X3873000Y-21373000D01*
X3873000Y-20172768D01*
X4127000Y-20172768D01*
X4127000Y-21373000D01*
X5470155Y-21373000D01*
X5591476Y-21143110D01*
X5589554Y-21130739D01*
X5489854Y-20856991D01*
X5338664Y-20607954D01*
X5141795Y-20393198D01*
X4906812Y-20220975D01*
X4642745Y-20097904D01*
X4359742Y-20028715D01*
X4127000Y-20172768D01*
X3873000Y-20172768D01*
X3640258Y-20028715D01*
X3357255Y-20097904D01*
X3093188Y-20220975D01*
X2858205Y-20393198D01*
X2661336Y-20607954D01*
X2510146Y-20856991D01*
X2410446Y-21130739D01*
X2408524Y-21143110D01*
X-4340000Y-21143110D01*
X-4340000Y-12804495D01*
X-3985000Y-12804495D01*
X-3985000Y-13195505D01*
X-3908718Y-13579003D01*
X-3759085Y-13940250D01*
X-3541851Y-14265364D01*
X-3265364Y-14541851D01*
X-2940250Y-14759085D01*
X-2579003Y-14908718D01*
X-2195505Y-14985000D01*
X-1804495Y-14985000D01*
X-1420997Y-14908718D01*
X-1059750Y-14759085D01*
X-734636Y-14541851D01*
X-458149Y-14265364D01*
X-240915Y-13940250D01*
X-91282Y-13579003D01*
X-15000Y-13195505D01*
X-15000Y-12804495D01*
X-91282Y-12420997D01*
X-240915Y-12059750D01*
X-458149Y-11734636D01*
X-734636Y-11458149D01*
X-1059750Y-11240915D01*
X-1420997Y-11091282D01*
X-1804495Y-11015000D01*
X-2195505Y-11015000D01*
X-2579003Y-11091282D01*
X-2940250Y-11240915D01*
X-3265364Y-11458149D01*
X-3541851Y-11734636D01*
X-3759085Y-12059750D01*
X-3908718Y-12420997D01*
X-3985000Y-12804495D01*
X-4340000Y-12804495D01*
X-4340000Y-10660000D01*
X28873000Y-10660000D01*
X28873000Y-13400000D01*
G37*
X28873000Y-13400000D02*
X28875440Y-13424776D01*
X28882667Y-13448601D01*
X28894403Y-13470557D01*
X28910197Y-13489803D01*
X28929443Y-13505597D01*
X28951399Y-13517333D01*
X28975224Y-13524560D01*
X29000000Y-13527000D01*
X33700000Y-13527000D01*
X33724776Y-13524560D01*
X33748601Y-13517333D01*
X33770557Y-13505597D01*
X33789803Y-13489803D01*
X33805597Y-13470557D01*
X33817333Y-13448601D01*
X33824560Y-13424776D01*
X33827000Y-13400000D01*
X33827000Y-10660000D01*
X47965198Y-10660000D01*
X47788997Y-10836201D01*
X47760000Y-10859999D01*
X47736202Y-10888997D01*
X47736201Y-10888998D01*
X47665026Y-10975724D01*
X47594454Y-11107754D01*
X47564180Y-11207558D01*
X47554062Y-11240915D01*
X47550998Y-11251015D01*
X47536324Y-11400000D01*
X47540001Y-11437332D01*
X47540000Y-15164200D01*
X46331110Y-16373091D01*
X46315990Y-16336589D01*
X46153475Y-16093368D01*
X46021620Y-15961513D01*
X46094180Y-15939502D01*
X46204494Y-15880537D01*
X46301185Y-15801185D01*
X46380537Y-15704494D01*
X46439502Y-15594180D01*
X46475812Y-15474482D01*
X46488072Y-15350000D01*
X46488072Y-13650000D01*
X46475812Y-13525518D01*
X46439502Y-13405820D01*
X46380537Y-13295506D01*
X46301185Y-13198815D01*
X46204494Y-13119463D01*
X46094180Y-13060498D01*
X45974482Y-13024188D01*
X45850000Y-13011928D01*
X44150000Y-13011928D01*
X44025518Y-13024188D01*
X43905820Y-13060498D01*
X43795506Y-13119463D01*
X43698815Y-13198815D01*
X43619463Y-13295506D01*
X43560498Y-13405820D01*
X43538487Y-13478380D01*
X43406632Y-13346525D01*
X43163411Y-13184010D01*
X42893158Y-13072068D01*
X42606260Y-13015000D01*
X42313740Y-13015000D01*
X42026842Y-13072068D01*
X41756589Y-13184010D01*
X41513368Y-13346525D01*
X41306525Y-13553368D01*
X41190000Y-13727760D01*
X41073475Y-13553368D01*
X40866632Y-13346525D01*
X40623411Y-13184010D01*
X40353158Y-13072068D01*
X40066260Y-13015000D01*
X39773740Y-13015000D01*
X39486842Y-13072068D01*
X39216589Y-13184010D01*
X38973368Y-13346525D01*
X38766525Y-13553368D01*
X38604010Y-13796589D01*
X38492068Y-14066842D01*
X38487850Y-14088048D01*
X38035000Y-13635199D01*
X38035000Y-13573061D01*
X37995226Y-13373102D01*
X37917205Y-13184744D01*
X37803937Y-13015226D01*
X37659774Y-12871063D01*
X37490256Y-12757795D01*
X37301898Y-12679774D01*
X37101939Y-12640000D01*
X36898061Y-12640000D01*
X36698102Y-12679774D01*
X36509744Y-12757795D01*
X36340226Y-12871063D01*
X36196063Y-13015226D01*
X36082795Y-13184744D01*
X36004774Y-13373102D01*
X35965000Y-13573061D01*
X35965000Y-13776939D01*
X36004774Y-13976898D01*
X36082795Y-14165256D01*
X36196063Y-14334774D01*
X36340226Y-14478937D01*
X36509744Y-14592205D01*
X36698102Y-14670226D01*
X36898061Y-14710000D01*
X36960199Y-14710000D01*
X37577347Y-15327149D01*
X37577348Y-20444795D01*
X37504854Y-20444795D01*
X37304895Y-20484569D01*
X37116537Y-20562590D01*
X36947019Y-20675858D01*
X36802856Y-20820021D01*
X36689588Y-20989539D01*
X36611567Y-21177897D01*
X36571793Y-21377856D01*
X36571793Y-21439993D01*
X28759134Y-29252653D01*
X18222149Y-29252653D01*
X20714802Y-26760000D01*
X27196289Y-26760000D01*
X27240226Y-26803937D01*
X27409744Y-26917205D01*
X27598102Y-26995226D01*
X27798061Y-27035000D01*
X28001939Y-27035000D01*
X28201898Y-26995226D01*
X28390256Y-26917205D01*
X28559774Y-26803937D01*
X28703937Y-26659774D01*
X28817205Y-26490256D01*
X28895226Y-26301898D01*
X28935000Y-26101939D01*
X28935000Y-25991870D01*
X29115256Y-25917205D01*
X29284774Y-25803937D01*
X29428937Y-25659774D01*
X29542205Y-25490256D01*
X29620226Y-25301898D01*
X29660000Y-25101939D01*
X29660000Y-24991870D01*
X29840256Y-24917205D01*
X30009774Y-24803937D01*
X30153937Y-24659774D01*
X30267205Y-24490256D01*
X30345226Y-24301898D01*
X30385000Y-24101939D01*
X30385000Y-23898061D01*
X30345226Y-23698102D01*
X30267205Y-23509744D01*
X30153937Y-23340226D01*
X30009774Y-23196063D01*
X29840256Y-23082795D01*
X29651898Y-23004774D01*
X29451939Y-22965000D01*
X29248061Y-22965000D01*
X29048102Y-23004774D01*
X28859744Y-23082795D01*
X28690226Y-23196063D01*
X28646289Y-23240000D01*
X21164505Y-23240000D01*
X21127180Y-23236324D01*
X21089855Y-23240000D01*
X21089847Y-23240000D01*
X20978194Y-23250997D01*
X20834933Y-23294454D01*
X20702904Y-23365026D01*
X20587179Y-23459999D01*
X20563381Y-23488997D01*
X10888984Y-33163395D01*
X10859980Y-33187198D01*
X10808390Y-33250061D01*
X10765007Y-33302923D01*
X10739311Y-33350997D01*
X10694435Y-33434953D01*
X10650978Y-33578214D01*
X10639981Y-33689867D01*
X10639981Y-33689877D01*
X10636305Y-33727199D01*
X10639981Y-33764522D01*
X10639982Y-37712649D01*
X10636305Y-37749981D01*
X10650979Y-37898966D01*
X10694435Y-38042227D01*
X10765007Y-38174257D01*
X10790686Y-38205546D01*
X10859981Y-38289982D01*
X10888979Y-38313780D01*
X12595000Y-40019802D01*
X12595000Y-40191788D01*
X12638617Y-40411067D01*
X12724176Y-40617624D01*
X12789241Y-40715000D01*
X12724176Y-40812376D01*
X12638617Y-41018933D01*
X12595000Y-41238212D01*
X12595000Y-41461788D01*
X12638617Y-41681067D01*
X12724176Y-41887624D01*
X12789241Y-41985000D01*
X12724176Y-42082376D01*
X12638617Y-42288933D01*
X12595000Y-42508212D01*
X12595000Y-42731788D01*
X12638617Y-42951067D01*
X12724176Y-43157624D01*
X12789241Y-43255000D01*
X12724176Y-43352376D01*
X12638617Y-43558933D01*
X12595000Y-43778212D01*
X12595000Y-44001788D01*
X12638617Y-44221067D01*
X12724176Y-44427624D01*
X12789241Y-44525000D01*
X12724176Y-44622376D01*
X12638617Y-44828933D01*
X12595000Y-45048212D01*
X12595000Y-45271788D01*
X12638617Y-45491067D01*
X12724176Y-45697624D01*
X12792353Y-45799658D01*
X12742877Y-45869794D01*
X12652554Y-46073136D01*
X12635881Y-46128126D01*
X12762046Y-46303000D01*
X13603000Y-46303000D01*
X13603000Y-46291974D01*
X13618212Y-46295000D01*
X13841788Y-46295000D01*
X13857000Y-46291974D01*
X13857000Y-46303000D01*
X13868026Y-46303000D01*
X13865000Y-46318212D01*
X13865000Y-46541788D01*
X13868026Y-46557000D01*
X13857000Y-46557000D01*
X13857000Y-47399129D01*
X14031876Y-47524126D01*
X14239529Y-47444210D01*
X14360488Y-47367744D01*
X14462376Y-47435824D01*
X14668933Y-47521383D01*
X14888212Y-47565000D01*
X15111788Y-47565000D01*
X15331067Y-47521383D01*
X15537624Y-47435824D01*
X15723520Y-47311612D01*
X15881612Y-47153520D01*
X16005824Y-46967624D01*
X16091383Y-46761067D01*
X16135000Y-46541788D01*
X16135000Y-46318212D01*
X16091383Y-46098933D01*
X16005824Y-45892376D01*
X15940759Y-45795000D01*
X16005824Y-45697624D01*
X16091383Y-45491067D01*
X16135000Y-45271788D01*
X16135000Y-45048212D01*
X16091383Y-44828933D01*
X16005824Y-44622376D01*
X15940759Y-44525000D01*
X16005824Y-44427624D01*
X16091383Y-44221067D01*
X16135000Y-44001788D01*
X16135000Y-43778212D01*
X16091383Y-43558933D01*
X16005824Y-43352376D01*
X15940759Y-43255000D01*
X16005824Y-43157624D01*
X16015024Y-43135413D01*
X25544192Y-43135413D01*
X25639956Y-43399814D01*
X25929571Y-43540704D01*
X26241108Y-43622384D01*
X26562595Y-43641718D01*
X26881675Y-43597961D01*
X27186088Y-43492795D01*
X27360044Y-43399814D01*
X27455808Y-43135413D01*
X32044192Y-43135413D01*
X32139956Y-43399814D01*
X32429571Y-43540704D01*
X32741108Y-43622384D01*
X33062595Y-43641718D01*
X33381675Y-43597961D01*
X33686088Y-43492795D01*
X33860044Y-43399814D01*
X33955808Y-43135413D01*
X33000000Y-42179605D01*
X32044192Y-43135413D01*
X27455808Y-43135413D01*
X26500000Y-42179605D01*
X25544192Y-43135413D01*
X16015024Y-43135413D01*
X16091383Y-42951067D01*
X16135000Y-42731788D01*
X16135000Y-42508212D01*
X16091383Y-42288933D01*
X16005824Y-42082376D01*
X15940759Y-41985000D01*
X16005824Y-41887624D01*
X16091383Y-41681067D01*
X16135000Y-41461788D01*
X16135000Y-41238212D01*
X16091383Y-41018933D01*
X16005824Y-40812376D01*
X15940759Y-40715000D01*
X16005824Y-40617624D01*
X16091383Y-40411067D01*
X16135000Y-40191788D01*
X16135000Y-39968212D01*
X16091383Y-39748933D01*
X16005824Y-39542376D01*
X15940759Y-39445000D01*
X16005824Y-39347624D01*
X16091383Y-39141067D01*
X16135000Y-38921788D01*
X16135000Y-38698212D01*
X16091383Y-38478933D01*
X16005824Y-38272376D01*
X15940759Y-38175000D01*
X16005824Y-38077624D01*
X16091383Y-37871067D01*
X16135000Y-37651788D01*
X16135000Y-37428212D01*
X16091383Y-37208933D01*
X16005824Y-37002376D01*
X15940759Y-36905000D01*
X16005824Y-36807624D01*
X16091383Y-36601067D01*
X16135000Y-36381788D01*
X16135000Y-36158212D01*
X16091383Y-35938933D01*
X16045112Y-35827226D01*
X16089502Y-35744180D01*
X16125812Y-35624482D01*
X16138072Y-35500000D01*
X16138072Y-34500000D01*
X16125812Y-34375518D01*
X16089502Y-34255820D01*
X16030537Y-34145506D01*
X15951185Y-34048815D01*
X15854494Y-33969463D01*
X15744180Y-33910498D01*
X15624482Y-33874188D01*
X15500000Y-33861928D01*
X14500000Y-33861928D01*
X14375518Y-33874188D01*
X14255820Y-33910498D01*
X14167106Y-33957918D01*
X14031876Y-33905874D01*
X13857000Y-34030871D01*
X13857000Y-34873000D01*
X13861928Y-34873000D01*
X13861928Y-35127000D01*
X13857000Y-35127000D01*
X13857000Y-35138026D01*
X13841788Y-35135000D01*
X13669802Y-35135000D01*
X13583000Y-35048198D01*
X13583000Y-34873000D01*
X13603000Y-34873000D01*
X13603000Y-34030871D01*
X13510236Y-33964565D01*
X16365000Y-31109801D01*
X16365000Y-31201939D01*
X16404774Y-31401898D01*
X16482795Y-31590256D01*
X16596063Y-31759774D01*
X16640001Y-31803712D01*
X16640000Y-34862677D01*
X16636324Y-34900000D01*
X16640000Y-34937322D01*
X16640000Y-34937332D01*
X16650997Y-35048985D01*
X16676254Y-35132246D01*
X16694454Y-35192246D01*
X16765026Y-35324276D01*
X16804871Y-35372826D01*
X16859999Y-35440001D01*
X16889003Y-35463804D01*
X22016201Y-40591003D01*
X22039999Y-40620001D01*
X22155724Y-40714974D01*
X22287753Y-40785546D01*
X22431014Y-40829003D01*
X22542667Y-40840000D01*
X22542676Y-40840000D01*
X22579999Y-40843676D01*
X22617322Y-40840000D01*
X25337442Y-40840000D01*
X25248917Y-40928525D01*
X25364585Y-41044193D01*
X25100186Y-41139956D01*
X24959296Y-41429571D01*
X24877616Y-41741108D01*
X24858282Y-42062595D01*
X24902039Y-42381675D01*
X25007205Y-42686088D01*
X25100186Y-42860044D01*
X25364587Y-42955808D01*
X26320395Y-42000000D01*
X26306253Y-41985858D01*
X26485858Y-41806253D01*
X26500000Y-41820395D01*
X26514143Y-41806253D01*
X26693748Y-41985858D01*
X26679605Y-42000000D01*
X27635413Y-42955808D01*
X27899814Y-42860044D01*
X28040704Y-42570429D01*
X28122384Y-42258892D01*
X28141718Y-41937405D01*
X28097961Y-41618325D01*
X27992795Y-41313912D01*
X27899814Y-41139956D01*
X27635415Y-41044193D01*
X27751083Y-40928525D01*
X27662558Y-40840000D01*
X31837442Y-40840000D01*
X31748917Y-40928525D01*
X31864585Y-41044193D01*
X31600186Y-41139956D01*
X31459296Y-41429571D01*
X31377616Y-41741108D01*
X31358282Y-42062595D01*
X31402039Y-42381675D01*
X31507205Y-42686088D01*
X31600186Y-42860044D01*
X31864587Y-42955808D01*
X32820395Y-42000000D01*
X32806253Y-41985858D01*
X32985858Y-41806253D01*
X33000000Y-41820395D01*
X33014143Y-41806253D01*
X33193748Y-41985858D01*
X33179605Y-42000000D01*
X34135413Y-42955808D01*
X34399814Y-42860044D01*
X34540704Y-42570429D01*
X34622384Y-42258892D01*
X34641718Y-41937405D01*
X34597961Y-41618325D01*
X34492795Y-41313912D01*
X34399814Y-41139956D01*
X34135415Y-41044193D01*
X34251083Y-40928525D01*
X34162558Y-40840000D01*
X38976549Y-40840000D01*
X38965000Y-40898061D01*
X38965000Y-41101939D01*
X39004774Y-41301898D01*
X39082795Y-41490256D01*
X39196063Y-41659774D01*
X39340226Y-41803937D01*
X39509744Y-41917205D01*
X39698102Y-41995226D01*
X39898061Y-42035000D01*
X40101939Y-42035000D01*
X40301898Y-41995226D01*
X40490256Y-41917205D01*
X40659774Y-41803937D01*
X40703711Y-41760000D01*
X43171312Y-41760000D01*
X43224176Y-41887624D01*
X43289241Y-41985000D01*
X43224176Y-42082376D01*
X43138617Y-42288933D01*
X43095000Y-42508212D01*
X43095000Y-42731788D01*
X43138617Y-42951067D01*
X43224176Y-43157624D01*
X43289241Y-43255000D01*
X43224176Y-43352376D01*
X43138617Y-43558933D01*
X43095000Y-43778212D01*
X43095000Y-44001788D01*
X43138617Y-44221067D01*
X43224176Y-44427624D01*
X43289241Y-44525000D01*
X43224176Y-44622376D01*
X43138617Y-44828933D01*
X43095000Y-45048212D01*
X43095000Y-45271788D01*
X43138617Y-45491067D01*
X43224176Y-45697624D01*
X43289241Y-45795000D01*
X43224176Y-45892376D01*
X43138617Y-46098933D01*
X43095000Y-46318212D01*
X43095000Y-46541788D01*
X43138617Y-46761067D01*
X43224176Y-46967624D01*
X43348388Y-47153520D01*
X43506480Y-47311612D01*
X43692376Y-47435824D01*
X43898933Y-47521383D01*
X44118212Y-47565000D01*
X44341788Y-47565000D01*
X44561067Y-47521383D01*
X44767624Y-47435824D01*
X44865000Y-47370759D01*
X44962376Y-47435824D01*
X45168933Y-47521383D01*
X45388212Y-47565000D01*
X45611788Y-47565000D01*
X45831067Y-47521383D01*
X46037624Y-47435824D01*
X46223520Y-47311612D01*
X46381612Y-47153520D01*
X46505824Y-46967624D01*
X46591383Y-46761067D01*
X46635000Y-46541788D01*
X46635000Y-46318212D01*
X46591383Y-46098933D01*
X46505824Y-45892376D01*
X46440759Y-45795000D01*
X46505824Y-45697624D01*
X46591383Y-45491067D01*
X46635000Y-45271788D01*
X46635000Y-45048212D01*
X46591383Y-44828933D01*
X46505824Y-44622376D01*
X46440759Y-44525000D01*
X46505824Y-44427624D01*
X46591383Y-44221067D01*
X46635000Y-44001788D01*
X46635000Y-43778212D01*
X46591383Y-43558933D01*
X46505824Y-43352376D01*
X46440759Y-43255000D01*
X46505824Y-43157624D01*
X46591383Y-42951067D01*
X46635000Y-42731788D01*
X46635000Y-42508212D01*
X46591383Y-42288933D01*
X46505824Y-42082376D01*
X46440759Y-41985000D01*
X46505824Y-41887624D01*
X46591383Y-41681067D01*
X46635000Y-41461788D01*
X46635000Y-41238212D01*
X46591383Y-41018933D01*
X46505824Y-40812376D01*
X46440759Y-40715000D01*
X46505824Y-40617624D01*
X46591383Y-40411067D01*
X46635000Y-40191788D01*
X46635000Y-39968212D01*
X46591383Y-39748933D01*
X46505824Y-39542376D01*
X46440759Y-39445000D01*
X46505824Y-39347624D01*
X46591383Y-39141067D01*
X46635000Y-38921788D01*
X46635000Y-38698212D01*
X46591383Y-38478933D01*
X46505824Y-38272376D01*
X46440759Y-38175000D01*
X46505824Y-38077624D01*
X46591383Y-37871067D01*
X46635000Y-37651788D01*
X46635000Y-37428212D01*
X46591383Y-37208933D01*
X46505824Y-37002376D01*
X46440759Y-36905000D01*
X46505824Y-36807624D01*
X46591383Y-36601067D01*
X46635000Y-36381788D01*
X46635000Y-36158212D01*
X46591383Y-35938933D01*
X46545112Y-35827226D01*
X46589502Y-35744180D01*
X46625812Y-35624482D01*
X46638072Y-35500000D01*
X46635000Y-35285750D01*
X46476250Y-35127000D01*
X45627000Y-35127000D01*
X45627000Y-35138026D01*
X45611788Y-35135000D01*
X45388212Y-35135000D01*
X45373000Y-35138026D01*
X45373000Y-35127000D01*
X45361974Y-35127000D01*
X45365000Y-35111788D01*
X45365000Y-34888212D01*
X45361974Y-34873000D01*
X45373000Y-34873000D01*
X45373000Y-34023750D01*
X45627000Y-34023750D01*
X45627000Y-34873000D01*
X46476250Y-34873000D01*
X46635000Y-34714250D01*
X46638072Y-34500000D01*
X46625812Y-34375518D01*
X46589502Y-34255820D01*
X46530537Y-34145506D01*
X46451185Y-34048815D01*
X46354494Y-33969463D01*
X46244180Y-33910498D01*
X46124482Y-33874188D01*
X46000000Y-33861928D01*
X45785750Y-33865000D01*
X45627000Y-34023750D01*
X45373000Y-34023750D01*
X45214250Y-33865000D01*
X45000000Y-33861928D01*
X44875518Y-33874188D01*
X44755820Y-33910498D01*
X44672774Y-33954888D01*
X44561067Y-33908617D01*
X44341788Y-33865000D01*
X44118212Y-33865000D01*
X43898933Y-33908617D01*
X43692376Y-33994176D01*
X43506480Y-34118388D01*
X43348388Y-34276480D01*
X43224176Y-34462376D01*
X43138617Y-34668933D01*
X43095000Y-34888212D01*
X43095000Y-35111788D01*
X43138617Y-35331067D01*
X43224176Y-35537624D01*
X43289241Y-35635000D01*
X43224176Y-35732376D01*
X43138617Y-35938933D01*
X43095000Y-36158212D01*
X43095000Y-36381788D01*
X43138617Y-36601067D01*
X43224176Y-36807624D01*
X43289241Y-36905000D01*
X43224176Y-37002376D01*
X43138617Y-37208933D01*
X43095000Y-37428212D01*
X43095000Y-37651788D01*
X43138617Y-37871067D01*
X43224176Y-38077624D01*
X43289241Y-38175000D01*
X43224176Y-38272376D01*
X43138617Y-38478933D01*
X43095000Y-38698212D01*
X43095000Y-38921788D01*
X43138617Y-39141067D01*
X43212734Y-39320000D01*
X22894802Y-39320000D01*
X18160000Y-34585199D01*
X18160000Y-31803711D01*
X18203937Y-31759774D01*
X18317205Y-31590256D01*
X18395226Y-31401898D01*
X18435000Y-31201939D01*
X18435000Y-30998061D01*
X18395226Y-30798102D01*
X18384685Y-30772653D01*
X29036613Y-30772653D01*
X29073935Y-30776329D01*
X29111257Y-30772653D01*
X29111268Y-30772653D01*
X29222921Y-30761656D01*
X29366182Y-30718199D01*
X29498211Y-30647627D01*
X29613936Y-30552654D01*
X29637739Y-30523650D01*
X37455526Y-22705864D01*
X37533410Y-22822427D01*
X37677573Y-22966590D01*
X37847091Y-23079858D01*
X38035449Y-23157879D01*
X38235408Y-23197653D01*
X38439286Y-23197653D01*
X38639245Y-23157879D01*
X38827603Y-23079858D01*
X38997121Y-22966590D01*
X39141284Y-22822427D01*
X39254552Y-22652909D01*
X39332573Y-22464551D01*
X39372347Y-22264592D01*
X39372347Y-22060714D01*
X39332573Y-21860755D01*
X39254552Y-21672397D01*
X39141284Y-21502879D01*
X39097347Y-21458942D01*
X39097347Y-18270070D01*
X39153080Y-18311641D01*
X39415901Y-18436825D01*
X39563110Y-18481476D01*
X39793000Y-18360155D01*
X39793000Y-17167000D01*
X39773000Y-17167000D01*
X39773000Y-16913000D01*
X39793000Y-16913000D01*
X39793000Y-16893000D01*
X40047000Y-16893000D01*
X40047000Y-16913000D01*
X40067000Y-16913000D01*
X40067000Y-17167000D01*
X40047000Y-17167000D01*
X40047000Y-18360155D01*
X40276890Y-18481476D01*
X40424099Y-18436825D01*
X40686920Y-18311641D01*
X40920269Y-18137588D01*
X41115178Y-17921355D01*
X41184805Y-17804466D01*
X41306525Y-17986632D01*
X41513368Y-18193475D01*
X41756589Y-18355990D01*
X42026842Y-18467932D01*
X42313740Y-18525000D01*
X42606260Y-18525000D01*
X42826408Y-18481210D01*
X43071202Y-18726004D01*
X43095000Y-18755002D01*
X43210725Y-18849975D01*
X43342754Y-18920547D01*
X43486015Y-18964004D01*
X43597668Y-18975001D01*
X43597677Y-18975001D01*
X43635000Y-18978677D01*
X43672323Y-18975001D01*
X44510197Y-18975001D01*
X32488998Y-30996201D01*
X32460000Y-31019999D01*
X32436202Y-31048997D01*
X32436201Y-31048998D01*
X32365026Y-31135724D01*
X32294454Y-31267754D01*
X32276710Y-31326250D01*
X32253764Y-31401898D01*
X32250998Y-31411015D01*
X32236324Y-31560000D01*
X32240001Y-31597332D01*
X32240000Y-36045091D01*
X32225537Y-36051082D01*
X31957748Y-36230013D01*
X31730013Y-36457748D01*
X31551082Y-36725537D01*
X31545091Y-36740000D01*
X27954909Y-36740000D01*
X27948918Y-36725537D01*
X27769987Y-36457748D01*
X27542252Y-36230013D01*
X27274463Y-36051082D01*
X26976912Y-35927832D01*
X26661033Y-35865000D01*
X26338967Y-35865000D01*
X26023088Y-35927832D01*
X25725537Y-36051082D01*
X25457748Y-36230013D01*
X25230013Y-36457748D01*
X25051082Y-36725537D01*
X24927832Y-37023088D01*
X24865000Y-37338967D01*
X24865000Y-37661033D01*
X24927832Y-37976912D01*
X25051082Y-38274463D01*
X25230013Y-38542252D01*
X25457748Y-38769987D01*
X25725537Y-38948918D01*
X26023088Y-39072168D01*
X26338967Y-39135000D01*
X26661033Y-39135000D01*
X26976912Y-39072168D01*
X27274463Y-38948918D01*
X27542252Y-38769987D01*
X27769987Y-38542252D01*
X27948918Y-38274463D01*
X27954909Y-38260000D01*
X31545091Y-38260000D01*
X31551082Y-38274463D01*
X31730013Y-38542252D01*
X31957748Y-38769987D01*
X32225537Y-38948918D01*
X32523088Y-39072168D01*
X32838967Y-39135000D01*
X33161033Y-39135000D01*
X33476912Y-39072168D01*
X33774463Y-38948918D01*
X34042252Y-38769987D01*
X34269987Y-38542252D01*
X34448918Y-38274463D01*
X34572168Y-37976912D01*
X34635000Y-37661033D01*
X34635000Y-37338967D01*
X34572168Y-37023088D01*
X34448918Y-36725537D01*
X34269987Y-36457748D01*
X34042252Y-36230013D01*
X33774463Y-36051082D01*
X33760000Y-36045091D01*
X33760000Y-31874801D01*
X34784801Y-30850000D01*
X48311928Y-30850000D01*
X48324188Y-30974482D01*
X48360498Y-31094180D01*
X48419463Y-31204494D01*
X48498815Y-31301185D01*
X48595506Y-31380537D01*
X48705820Y-31439502D01*
X48825518Y-31475812D01*
X48950000Y-31488072D01*
X49514250Y-31485000D01*
X49673000Y-31326250D01*
X49673000Y-30127000D01*
X49927000Y-30127000D01*
X49927000Y-31326250D01*
X50085750Y-31485000D01*
X50650000Y-31488072D01*
X50774482Y-31475812D01*
X50894180Y-31439502D01*
X51004494Y-31380537D01*
X51101185Y-31301185D01*
X51180537Y-31204494D01*
X51239502Y-31094180D01*
X51275812Y-30974482D01*
X51288072Y-30850000D01*
X51285000Y-30285750D01*
X51126250Y-30127000D01*
X49927000Y-30127000D01*
X49673000Y-30127000D01*
X48473750Y-30127000D01*
X48315000Y-30285750D01*
X48311928Y-30850000D01*
X34784801Y-30850000D01*
X48315000Y-17319802D01*
X48315000Y-17446260D01*
X48372068Y-17733158D01*
X48484010Y-18003411D01*
X48646525Y-18246632D01*
X48853368Y-18453475D01*
X49027760Y-18570000D01*
X48853368Y-18686525D01*
X48646525Y-18893368D01*
X48484010Y-19136589D01*
X48372068Y-19406842D01*
X48315000Y-19693740D01*
X48315000Y-19986260D01*
X48372068Y-20273158D01*
X48484010Y-20543411D01*
X48646525Y-20786632D01*
X48853368Y-20993475D01*
X49027760Y-21110000D01*
X48853368Y-21226525D01*
X48646525Y-21433368D01*
X48484010Y-21676589D01*
X48372068Y-21946842D01*
X48315000Y-22233740D01*
X48315000Y-22526260D01*
X48372068Y-22813158D01*
X48484010Y-23083411D01*
X48646525Y-23326632D01*
X48853368Y-23533475D01*
X49027760Y-23650000D01*
X48853368Y-23766525D01*
X48646525Y-23973368D01*
X48484010Y-24216589D01*
X48372068Y-24486842D01*
X48315000Y-24773740D01*
X48315000Y-25066260D01*
X48372068Y-25353158D01*
X48484010Y-25623411D01*
X48646525Y-25866632D01*
X48853368Y-26073475D01*
X49027760Y-26190000D01*
X48853368Y-26306525D01*
X48646525Y-26513368D01*
X48484010Y-26756589D01*
X48372068Y-27026842D01*
X48315000Y-27313740D01*
X48315000Y-27606260D01*
X48372068Y-27893158D01*
X48484010Y-28163411D01*
X48646525Y-28406632D01*
X48778380Y-28538487D01*
X48705820Y-28560498D01*
X48595506Y-28619463D01*
X48498815Y-28698815D01*
X48419463Y-28795506D01*
X48360498Y-28905820D01*
X48324188Y-29025518D01*
X48311928Y-29150000D01*
X48315000Y-29714250D01*
X48473750Y-29873000D01*
X49673000Y-29873000D01*
X49673000Y-29853000D01*
X49927000Y-29853000D01*
X49927000Y-29873000D01*
X51126250Y-29873000D01*
X51285000Y-29714250D01*
X51288072Y-29150000D01*
X51275812Y-29025518D01*
X51239502Y-28905820D01*
X51180537Y-28795506D01*
X51101185Y-28698815D01*
X51004494Y-28619463D01*
X50894180Y-28560498D01*
X50821620Y-28538487D01*
X50953475Y-28406632D01*
X51115990Y-28163411D01*
X51227932Y-27893158D01*
X51285000Y-27606260D01*
X51285000Y-27313740D01*
X51227932Y-27026842D01*
X51115990Y-26756589D01*
X50953475Y-26513368D01*
X50746632Y-26306525D01*
X50572240Y-26190000D01*
X50746632Y-26073475D01*
X50953475Y-25866632D01*
X51115990Y-25623411D01*
X51227932Y-25353158D01*
X51285000Y-25066260D01*
X51285000Y-24773740D01*
X51227932Y-24486842D01*
X51115990Y-24216589D01*
X50953475Y-23973368D01*
X50746632Y-23766525D01*
X50572240Y-23650000D01*
X50746632Y-23533475D01*
X50953475Y-23326632D01*
X51115990Y-23083411D01*
X51227932Y-22813158D01*
X51285000Y-22526260D01*
X51285000Y-22233740D01*
X51227932Y-21946842D01*
X51115990Y-21676589D01*
X50953475Y-21433368D01*
X50746632Y-21226525D01*
X50572240Y-21110000D01*
X50746632Y-20993475D01*
X50953475Y-20786632D01*
X51115990Y-20543411D01*
X51227932Y-20273158D01*
X51285000Y-19986260D01*
X51285000Y-19693740D01*
X51227932Y-19406842D01*
X51115990Y-19136589D01*
X50953475Y-18893368D01*
X50746632Y-18686525D01*
X50572240Y-18570000D01*
X50746632Y-18453475D01*
X50953475Y-18246632D01*
X51115990Y-18003411D01*
X51227932Y-17733158D01*
X51285000Y-17446260D01*
X51285000Y-17153740D01*
X51227932Y-16866842D01*
X51115990Y-16596589D01*
X50953475Y-16353368D01*
X50746632Y-16146525D01*
X50572240Y-16030000D01*
X50746632Y-15913475D01*
X50953475Y-15706632D01*
X51115990Y-15463411D01*
X51227932Y-15193158D01*
X51285000Y-14906260D01*
X51285000Y-14613740D01*
X51227932Y-14326842D01*
X51115990Y-14056589D01*
X50953475Y-13813368D01*
X50746632Y-13606525D01*
X50572240Y-13490000D01*
X50746632Y-13373475D01*
X50953475Y-13166632D01*
X51115990Y-12923411D01*
X51227932Y-12653158D01*
X51285000Y-12366260D01*
X51285000Y-12073740D01*
X51227932Y-11786842D01*
X51115990Y-11516589D01*
X51078178Y-11460000D01*
X51885199Y-11460000D01*
X53965000Y-13539802D01*
X53965000Y-13601939D01*
X54004774Y-13801898D01*
X54082795Y-13990256D01*
X54196063Y-14159774D01*
X54340226Y-14303937D01*
X54509744Y-14417205D01*
X54698102Y-14495226D01*
X54898061Y-14535000D01*
X55101939Y-14535000D01*
X55301898Y-14495226D01*
X55490256Y-14417205D01*
X55659774Y-14303937D01*
X55803937Y-14159774D01*
X55917205Y-13990256D01*
X55995226Y-13801898D01*
X56035000Y-13601939D01*
X56035000Y-13398061D01*
X55995226Y-13198102D01*
X55917205Y-13009744D01*
X55803937Y-12840226D01*
X55768206Y-12804495D01*
X60015000Y-12804495D01*
X60015000Y-13195505D01*
X60091282Y-13579003D01*
X60240915Y-13940250D01*
X60458149Y-14265364D01*
X60734636Y-14541851D01*
X61059750Y-14759085D01*
X61420997Y-14908718D01*
X61804495Y-14985000D01*
X62195505Y-14985000D01*
X62579003Y-14908718D01*
X62940250Y-14759085D01*
X63265364Y-14541851D01*
X63541851Y-14265364D01*
X63759085Y-13940250D01*
X63908718Y-13579003D01*
X63985000Y-13195505D01*
X63985000Y-12804495D01*
X63908718Y-12420997D01*
X63759085Y-12059750D01*
X63541851Y-11734636D01*
X63265364Y-11458149D01*
X62940250Y-11240915D01*
X62579003Y-11091282D01*
X62195505Y-11015000D01*
X61804495Y-11015000D01*
X61420997Y-11091282D01*
X61059750Y-11240915D01*
X60734636Y-11458149D01*
X60458149Y-11734636D01*
X60240915Y-12059750D01*
X60091282Y-12420997D01*
X60015000Y-12804495D01*
X55768206Y-12804495D01*
X55659774Y-12696063D01*
X55490256Y-12582795D01*
X55301898Y-12504774D01*
X55101939Y-12465000D01*
X55039802Y-12465000D01*
X53234801Y-10660000D01*
X64340001Y-10660000D01*
X64340000Y-51340000D01*
X-4340000Y-51340000D01*
X-4340000Y-48804495D01*
X-3985000Y-48804495D01*
X-3985000Y-49195505D01*
X-3908718Y-49579003D01*
X-3759085Y-49940250D01*
X-3541851Y-50265364D01*
X-3265364Y-50541851D01*
X-2940250Y-50759085D01*
X-2579003Y-50908718D01*
X-2195505Y-50985000D01*
X-1804495Y-50985000D01*
X-1420997Y-50908718D01*
X-1059750Y-50759085D01*
X-734636Y-50541851D01*
X-458149Y-50265364D01*
X-240915Y-49940250D01*
X-91282Y-49579003D01*
X-15000Y-49195505D01*
X-15000Y-48804495D01*
X60015000Y-48804495D01*
X60015000Y-49195505D01*
X60091282Y-49579003D01*
X60240915Y-49940250D01*
X60458149Y-50265364D01*
X60734636Y-50541851D01*
X61059750Y-50759085D01*
X61420997Y-50908718D01*
X61804495Y-50985000D01*
X62195505Y-50985000D01*
X62579003Y-50908718D01*
X62940250Y-50759085D01*
X63265364Y-50541851D01*
X63541851Y-50265364D01*
X63759085Y-49940250D01*
X63908718Y-49579003D01*
X63985000Y-49195505D01*
X63985000Y-48804495D01*
X63908718Y-48420997D01*
X63759085Y-48059750D01*
X63541851Y-47734636D01*
X63265364Y-47458149D01*
X62940250Y-47240915D01*
X62579003Y-47091282D01*
X62195505Y-47015000D01*
X61804495Y-47015000D01*
X61420997Y-47091282D01*
X61059750Y-47240915D01*
X60734636Y-47458149D01*
X60458149Y-47734636D01*
X60240915Y-48059750D01*
X60091282Y-48420997D01*
X60015000Y-48804495D01*
X-15000Y-48804495D01*
X-91282Y-48420997D01*
X-240915Y-48059750D01*
X-458149Y-47734636D01*
X-734636Y-47458149D01*
X-1059750Y-47240915D01*
X-1420997Y-47091282D01*
X-1804495Y-47015000D01*
X-2195505Y-47015000D01*
X-2579003Y-47091282D01*
X-2940250Y-47240915D01*
X-3265364Y-47458149D01*
X-3541851Y-47734636D01*
X-3759085Y-48059750D01*
X-3908718Y-48420997D01*
X-3985000Y-48804495D01*
X-4340000Y-48804495D01*
X-4340000Y-46731874D01*
X12635881Y-46731874D01*
X12652554Y-46786864D01*
X12742877Y-46990206D01*
X12871135Y-47172020D01*
X13032399Y-47325318D01*
X13220471Y-47444210D01*
X13428124Y-47524126D01*
X13603000Y-47399129D01*
X13603000Y-46557000D01*
X12762046Y-46557000D01*
X12635881Y-46731874D01*
X-4340000Y-46731874D01*
X-4340000Y-39700000D01*
X-2544120Y-39700000D01*
X-2507725Y-40069524D01*
X-2399939Y-40424848D01*
X-2224903Y-40752317D01*
X-1989345Y-41039345D01*
X-1702317Y-41274903D01*
X-1374848Y-41449939D01*
X-1019524Y-41557725D01*
X-742597Y-41585000D01*
X742597Y-41585000D01*
X1019524Y-41557725D01*
X1374848Y-41449939D01*
X1702317Y-41274903D01*
X1989345Y-41039345D01*
X2224903Y-40752317D01*
X2399939Y-40424848D01*
X2507725Y-40069524D01*
X2544120Y-39700000D01*
X2507725Y-39330476D01*
X2399939Y-38975152D01*
X2224903Y-38647683D01*
X1989345Y-38360655D01*
X1702317Y-38125097D01*
X1374848Y-37950061D01*
X1019524Y-37842275D01*
X742597Y-37815000D01*
X-742597Y-37815000D01*
X-1019524Y-37842275D01*
X-1374848Y-37950061D01*
X-1702317Y-38125097D01*
X-1989345Y-38360655D01*
X-2224903Y-38647683D01*
X-2399939Y-38975152D01*
X-2507725Y-39330476D01*
X-2544120Y-39700000D01*
X-4340000Y-39700000D01*
X-4340000Y-35000000D01*
X-2544120Y-35000000D01*
X-2507725Y-35369524D01*
X-2399939Y-35724848D01*
X-2224903Y-36052317D01*
X-1989345Y-36339345D01*
X-1702317Y-36574903D01*
X-1374848Y-36749939D01*
X-1019524Y-36857725D01*
X-742597Y-36885000D01*
X742597Y-36885000D01*
X1019524Y-36857725D01*
X1374848Y-36749939D01*
X1702317Y-36574903D01*
X1989345Y-36339345D01*
X2224903Y-36052317D01*
X2399939Y-35724848D01*
X2507725Y-35369524D01*
X2544120Y-35000000D01*
X2507725Y-34630476D01*
X2399939Y-34275152D01*
X2224903Y-33947683D01*
X1989345Y-33660655D01*
X1702317Y-33425097D01*
X1374848Y-33250061D01*
X1019524Y-33142275D01*
X742597Y-33115000D01*
X-742597Y-33115000D01*
X-1019524Y-33142275D01*
X-1374848Y-33250061D01*
X-1702317Y-33425097D01*
X-1989345Y-33660655D01*
X-2224903Y-33947683D01*
X-2399939Y-34275152D01*
X-2507725Y-34630476D01*
X-2544120Y-35000000D01*
X-4340000Y-35000000D01*
X-4340000Y-30300000D01*
X-2544120Y-30300000D01*
X-2507725Y-30669524D01*
X-2399939Y-31024848D01*
X-2224903Y-31352317D01*
X-1989345Y-31639345D01*
X-1702317Y-31874903D01*
X-1374848Y-32049939D01*
X-1019524Y-32157725D01*
X-742597Y-32185000D01*
X742597Y-32185000D01*
X1019524Y-32157725D01*
X1374848Y-32049939D01*
X1702317Y-31874903D01*
X1989345Y-31639345D01*
X2224903Y-31352317D01*
X2399939Y-31024848D01*
X2507725Y-30669524D01*
X2544120Y-30300000D01*
X2507725Y-29930476D01*
X2399939Y-29575152D01*
X2224903Y-29247683D01*
X2144737Y-29150000D01*
X8511928Y-29150000D01*
X8511928Y-30850000D01*
X8524188Y-30974482D01*
X8560498Y-31094180D01*
X8619463Y-31204494D01*
X8698815Y-31301185D01*
X8795506Y-31380537D01*
X8905820Y-31439502D01*
X9025518Y-31475812D01*
X9150000Y-31488072D01*
X10850000Y-31488072D01*
X10974482Y-31475812D01*
X11094180Y-31439502D01*
X11204494Y-31380537D01*
X11301185Y-31301185D01*
X11380537Y-31204494D01*
X11439502Y-31094180D01*
X11475812Y-30974482D01*
X11488072Y-30850000D01*
X11488072Y-29150000D01*
X11475812Y-29025518D01*
X11439502Y-28905820D01*
X11380537Y-28795506D01*
X11301185Y-28698815D01*
X11204494Y-28619463D01*
X11094180Y-28560498D01*
X11021620Y-28538487D01*
X11153475Y-28406632D01*
X11315990Y-28163411D01*
X11427932Y-27893158D01*
X11485000Y-27606260D01*
X11485000Y-27313740D01*
X11427932Y-27026842D01*
X11315990Y-26756589D01*
X11153475Y-26513368D01*
X10946632Y-26306525D01*
X10772240Y-26190000D01*
X10946632Y-26073475D01*
X11153475Y-25866632D01*
X11315990Y-25623411D01*
X11427932Y-25353158D01*
X11485000Y-25066260D01*
X11485000Y-24773740D01*
X11427932Y-24486842D01*
X11315990Y-24216589D01*
X11153475Y-23973368D01*
X10946632Y-23766525D01*
X10772240Y-23650000D01*
X10946632Y-23533475D01*
X11153475Y-23326632D01*
X11315990Y-23083411D01*
X11427932Y-22813158D01*
X11485000Y-22526260D01*
X11485000Y-22233740D01*
X11427932Y-21946842D01*
X11315990Y-21676589D01*
X11153475Y-21433368D01*
X10946632Y-21226525D01*
X10772240Y-21110000D01*
X10946632Y-20993475D01*
X11153475Y-20786632D01*
X11315990Y-20543411D01*
X11427932Y-20273158D01*
X11485000Y-19986260D01*
X11485000Y-19693740D01*
X11427932Y-19406842D01*
X11315990Y-19136589D01*
X11153475Y-18893368D01*
X10946632Y-18686525D01*
X10772240Y-18570000D01*
X10946632Y-18453475D01*
X11153475Y-18246632D01*
X11315990Y-18003411D01*
X11427932Y-17733158D01*
X11485000Y-17446260D01*
X11485000Y-17153740D01*
X11427932Y-16866842D01*
X11315990Y-16596589D01*
X11153475Y-16353368D01*
X10946632Y-16146525D01*
X10772240Y-16030000D01*
X10946632Y-15913475D01*
X11153475Y-15706632D01*
X11315990Y-15463411D01*
X11427932Y-15193158D01*
X11485000Y-14906260D01*
X11485000Y-14613740D01*
X11427932Y-14326842D01*
X11315990Y-14056589D01*
X11153475Y-13813368D01*
X10946632Y-13606525D01*
X10772240Y-13490000D01*
X10946632Y-13373475D01*
X11153475Y-13166632D01*
X11315990Y-12923411D01*
X11427932Y-12653158D01*
X11485000Y-12366260D01*
X11485000Y-12073740D01*
X11427932Y-11786842D01*
X11315990Y-11516589D01*
X11153475Y-11273368D01*
X10946632Y-11066525D01*
X10703411Y-10904010D01*
X10433158Y-10792068D01*
X10146260Y-10735000D01*
X9853740Y-10735000D01*
X9566842Y-10792068D01*
X9296589Y-10904010D01*
X9053368Y-11066525D01*
X8846525Y-11273368D01*
X8684010Y-11516589D01*
X8572068Y-11786842D01*
X8515000Y-12073740D01*
X8515000Y-12366260D01*
X8572068Y-12653158D01*
X8684010Y-12923411D01*
X8846525Y-13166632D01*
X9053368Y-13373475D01*
X9227760Y-13490000D01*
X9053368Y-13606525D01*
X8846525Y-13813368D01*
X8684010Y-14056589D01*
X8572068Y-14326842D01*
X8515000Y-14613740D01*
X8515000Y-14906260D01*
X8572068Y-15193158D01*
X8684010Y-15463411D01*
X8846525Y-15706632D01*
X9053368Y-15913475D01*
X9227760Y-16030000D01*
X9053368Y-16146525D01*
X8846525Y-16353368D01*
X8684010Y-16596589D01*
X8572068Y-16866842D01*
X8515000Y-17153740D01*
X8515000Y-17446260D01*
X8572068Y-17733158D01*
X8684010Y-18003411D01*
X8846525Y-18246632D01*
X9053368Y-18453475D01*
X9227760Y-18570000D01*
X9053368Y-18686525D01*
X8846525Y-18893368D01*
X8684010Y-19136589D01*
X8572068Y-19406842D01*
X8515000Y-19693740D01*
X8515000Y-19986260D01*
X8572068Y-20273158D01*
X8684010Y-20543411D01*
X8846525Y-20786632D01*
X9053368Y-20993475D01*
X9227760Y-21110000D01*
X9053368Y-21226525D01*
X8846525Y-21433368D01*
X8684010Y-21676589D01*
X8572068Y-21946842D01*
X8515000Y-22233740D01*
X8515000Y-22526260D01*
X8572068Y-22813158D01*
X8684010Y-23083411D01*
X8846525Y-23326632D01*
X9053368Y-23533475D01*
X9227760Y-23650000D01*
X9053368Y-23766525D01*
X8846525Y-23973368D01*
X8684010Y-24216589D01*
X8572068Y-24486842D01*
X8515000Y-24773740D01*
X8515000Y-25066260D01*
X8572068Y-25353158D01*
X8684010Y-25623411D01*
X8846525Y-25866632D01*
X9053368Y-26073475D01*
X9227760Y-26190000D01*
X9053368Y-26306525D01*
X8846525Y-26513368D01*
X8684010Y-26756589D01*
X8572068Y-27026842D01*
X8515000Y-27313740D01*
X8515000Y-27606260D01*
X8572068Y-27893158D01*
X8684010Y-28163411D01*
X8846525Y-28406632D01*
X8978380Y-28538487D01*
X8905820Y-28560498D01*
X8795506Y-28619463D01*
X8698815Y-28698815D01*
X8619463Y-28795506D01*
X8560498Y-28905820D01*
X8524188Y-29025518D01*
X8511928Y-29150000D01*
X2144737Y-29150000D01*
X1989345Y-28960655D01*
X1702317Y-28725097D01*
X1374848Y-28550061D01*
X1019524Y-28442275D01*
X742597Y-28415000D01*
X-742597Y-28415000D01*
X-1019524Y-28442275D01*
X-1374848Y-28550061D01*
X-1702317Y-28725097D01*
X-1989345Y-28960655D01*
X-2224903Y-29247683D01*
X-2399939Y-29575152D01*
X-2507725Y-29930476D01*
X-2544120Y-30300000D01*
X-4340000Y-30300000D01*
X-4340000Y-23400000D01*
X2361928Y-23400000D01*
X2361928Y-24600000D01*
X2378992Y-24773254D01*
X2429528Y-24939850D01*
X2511595Y-25093386D01*
X2622038Y-25227962D01*
X2756614Y-25338405D01*
X2910150Y-25420472D01*
X3076746Y-25471008D01*
X3250000Y-25488072D01*
X4750000Y-25488072D01*
X4923254Y-25471008D01*
X5089850Y-25420472D01*
X5243386Y-25338405D01*
X5377962Y-25227962D01*
X5488405Y-25093386D01*
X5570472Y-24939850D01*
X5621008Y-24773254D01*
X5638072Y-24600000D01*
X5638072Y-23400000D01*
X5621008Y-23226746D01*
X5570472Y-23060150D01*
X5488405Y-22906614D01*
X5377962Y-22772038D01*
X5243386Y-22661595D01*
X5141407Y-22607086D01*
X5141795Y-22606802D01*
X5338664Y-22392046D01*
X5489854Y-22143009D01*
X5589554Y-21869261D01*
X5591476Y-21856890D01*
X5470155Y-21627000D01*
X4127000Y-21627000D01*
X4127000Y-21647000D01*
X3873000Y-21647000D01*
X3873000Y-21627000D01*
X2529845Y-21627000D01*
X2408524Y-21856890D01*
X2410446Y-21869261D01*
X2510146Y-22143009D01*
X2661336Y-22392046D01*
X2858205Y-22606802D01*
X2858593Y-22607086D01*
X2756614Y-22661595D01*
X2622038Y-22772038D01*
X2511595Y-22906614D01*
X2429528Y-23060150D01*
X2378992Y-23226746D01*
X2361928Y-23400000D01*
X-4340000Y-23400000D01*
X-4340000Y-21143110D01*
X2408524Y-21143110D01*
X2529845Y-21373000D01*
X3873000Y-21373000D01*
X3873000Y-20172768D01*
X4127000Y-20172768D01*
X4127000Y-21373000D01*
X5470155Y-21373000D01*
X5591476Y-21143110D01*
X5589554Y-21130739D01*
X5489854Y-20856991D01*
X5338664Y-20607954D01*
X5141795Y-20393198D01*
X4906812Y-20220975D01*
X4642745Y-20097904D01*
X4359742Y-20028715D01*
X4127000Y-20172768D01*
X3873000Y-20172768D01*
X3640258Y-20028715D01*
X3357255Y-20097904D01*
X3093188Y-20220975D01*
X2858205Y-20393198D01*
X2661336Y-20607954D01*
X2510146Y-20856991D01*
X2410446Y-21130739D01*
X2408524Y-21143110D01*
X-4340000Y-21143110D01*
X-4340000Y-12804495D01*
X-3985000Y-12804495D01*
X-3985000Y-13195505D01*
X-3908718Y-13579003D01*
X-3759085Y-13940250D01*
X-3541851Y-14265364D01*
X-3265364Y-14541851D01*
X-2940250Y-14759085D01*
X-2579003Y-14908718D01*
X-2195505Y-14985000D01*
X-1804495Y-14985000D01*
X-1420997Y-14908718D01*
X-1059750Y-14759085D01*
X-734636Y-14541851D01*
X-458149Y-14265364D01*
X-240915Y-13940250D01*
X-91282Y-13579003D01*
X-15000Y-13195505D01*
X-15000Y-12804495D01*
X-91282Y-12420997D01*
X-240915Y-12059750D01*
X-458149Y-11734636D01*
X-734636Y-11458149D01*
X-1059750Y-11240915D01*
X-1420997Y-11091282D01*
X-1804495Y-11015000D01*
X-2195505Y-11015000D01*
X-2579003Y-11091282D01*
X-2940250Y-11240915D01*
X-3265364Y-11458149D01*
X-3541851Y-11734636D01*
X-3759085Y-12059750D01*
X-3908718Y-12420997D01*
X-3985000Y-12804495D01*
X-4340000Y-12804495D01*
X-4340000Y-10660000D01*
X28873000Y-10660000D01*
X28873000Y-13400000D01*
M02*
