G04 #@! TF.GenerationSoftware,KiCad,Pcbnew,5.1.5-52549c5~84~ubuntu18.04.1*
G04 #@! TF.CreationDate,2019-12-20T17:55:27+05:30*
G04 #@! TF.ProjectId,senseble_rev1,73656e73-6562-46c6-955f-726576312e6b,rev?*
G04 #@! TF.SameCoordinates,Original*
G04 #@! TF.FileFunction,Copper,L1,Top*
G04 #@! TF.FilePolarity,Positive*
%FSLAX46Y46*%
G04 Gerber Fmt 4.6, Leading zero omitted, Abs format (unit mm)*
G04 Created by KiCad (PCBNEW 5.1.5-52549c5~84~ubuntu18.04.1) date 2019-12-20 17:55:27*
%MOMM*%
%LPD*%
G04 APERTURE LIST*
%ADD10R,0.900000X1.200000*%
%ADD11C,0.100000*%
%ADD12O,2.000000X1.700000*%
%ADD13R,1.700000X1.700000*%
%ADD14O,1.700000X1.700000*%
%ADD15R,1.000000X1.000000*%
%ADD16O,1.000000X1.000000*%
%ADD17R,0.700000X1.300000*%
%ADD18R,0.900000X0.800000*%
%ADD19C,2.000000*%
%ADD20O,3.800000X2.500000*%
%ADD21R,1.200000X0.500000*%
%ADD22R,1.600000X0.900000*%
%ADD23R,1.600000X0.500000*%
%ADD24R,0.500000X1.600000*%
%ADD25R,1.000000X1.800000*%
%ADD26C,0.800000*%
%ADD27C,0.250000*%
%ADD28C,0.254000*%
G04 APERTURE END LIST*
D10*
X55000000Y-36600000D03*
X55000000Y-34400000D03*
G04 #@! TA.AperFunction,ComponentPad*
D11*
G36*
X7194504Y-23151204D02*
G01*
X7218773Y-23154804D01*
X7242571Y-23160765D01*
X7265671Y-23169030D01*
X7287849Y-23179520D01*
X7308893Y-23192133D01*
X7328598Y-23206747D01*
X7346777Y-23223223D01*
X7363253Y-23241402D01*
X7377867Y-23261107D01*
X7390480Y-23282151D01*
X7400970Y-23304329D01*
X7409235Y-23327429D01*
X7415196Y-23351227D01*
X7418796Y-23375496D01*
X7420000Y-23400000D01*
X7420000Y-24600000D01*
X7418796Y-24624504D01*
X7415196Y-24648773D01*
X7409235Y-24672571D01*
X7400970Y-24695671D01*
X7390480Y-24717849D01*
X7377867Y-24738893D01*
X7363253Y-24758598D01*
X7346777Y-24776777D01*
X7328598Y-24793253D01*
X7308893Y-24807867D01*
X7287849Y-24820480D01*
X7265671Y-24830970D01*
X7242571Y-24839235D01*
X7218773Y-24845196D01*
X7194504Y-24848796D01*
X7170000Y-24850000D01*
X5670000Y-24850000D01*
X5645496Y-24848796D01*
X5621227Y-24845196D01*
X5597429Y-24839235D01*
X5574329Y-24830970D01*
X5552151Y-24820480D01*
X5531107Y-24807867D01*
X5511402Y-24793253D01*
X5493223Y-24776777D01*
X5476747Y-24758598D01*
X5462133Y-24738893D01*
X5449520Y-24717849D01*
X5439030Y-24695671D01*
X5430765Y-24672571D01*
X5424804Y-24648773D01*
X5421204Y-24624504D01*
X5420000Y-24600000D01*
X5420000Y-23400000D01*
X5421204Y-23375496D01*
X5424804Y-23351227D01*
X5430765Y-23327429D01*
X5439030Y-23304329D01*
X5449520Y-23282151D01*
X5462133Y-23261107D01*
X5476747Y-23241402D01*
X5493223Y-23223223D01*
X5511402Y-23206747D01*
X5531107Y-23192133D01*
X5552151Y-23179520D01*
X5574329Y-23169030D01*
X5597429Y-23160765D01*
X5621227Y-23154804D01*
X5645496Y-23151204D01*
X5670000Y-23150000D01*
X7170000Y-23150000D01*
X7194504Y-23151204D01*
G37*
G04 #@! TD.AperFunction*
D12*
X6420000Y-21500000D03*
G04 #@! TA.AperFunction,SMDPad,CuDef*
D11*
G36*
X22027691Y-18126053D02*
G01*
X22048926Y-18129203D01*
X22069750Y-18134419D01*
X22089962Y-18141651D01*
X22109368Y-18150830D01*
X22127781Y-18161866D01*
X22145024Y-18174654D01*
X22160930Y-18189070D01*
X22175346Y-18204976D01*
X22188134Y-18222219D01*
X22199170Y-18240632D01*
X22208349Y-18260038D01*
X22215581Y-18280250D01*
X22220797Y-18301074D01*
X22223947Y-18322309D01*
X22225000Y-18343750D01*
X22225000Y-18856250D01*
X22223947Y-18877691D01*
X22220797Y-18898926D01*
X22215581Y-18919750D01*
X22208349Y-18939962D01*
X22199170Y-18959368D01*
X22188134Y-18977781D01*
X22175346Y-18995024D01*
X22160930Y-19010930D01*
X22145024Y-19025346D01*
X22127781Y-19038134D01*
X22109368Y-19049170D01*
X22089962Y-19058349D01*
X22069750Y-19065581D01*
X22048926Y-19070797D01*
X22027691Y-19073947D01*
X22006250Y-19075000D01*
X21568750Y-19075000D01*
X21547309Y-19073947D01*
X21526074Y-19070797D01*
X21505250Y-19065581D01*
X21485038Y-19058349D01*
X21465632Y-19049170D01*
X21447219Y-19038134D01*
X21429976Y-19025346D01*
X21414070Y-19010930D01*
X21399654Y-18995024D01*
X21386866Y-18977781D01*
X21375830Y-18959368D01*
X21366651Y-18939962D01*
X21359419Y-18919750D01*
X21354203Y-18898926D01*
X21351053Y-18877691D01*
X21350000Y-18856250D01*
X21350000Y-18343750D01*
X21351053Y-18322309D01*
X21354203Y-18301074D01*
X21359419Y-18280250D01*
X21366651Y-18260038D01*
X21375830Y-18240632D01*
X21386866Y-18222219D01*
X21399654Y-18204976D01*
X21414070Y-18189070D01*
X21429976Y-18174654D01*
X21447219Y-18161866D01*
X21465632Y-18150830D01*
X21485038Y-18141651D01*
X21505250Y-18134419D01*
X21526074Y-18129203D01*
X21547309Y-18126053D01*
X21568750Y-18125000D01*
X22006250Y-18125000D01*
X22027691Y-18126053D01*
G37*
G04 #@! TD.AperFunction*
G04 #@! TA.AperFunction,SMDPad,CuDef*
G36*
X20452691Y-18126053D02*
G01*
X20473926Y-18129203D01*
X20494750Y-18134419D01*
X20514962Y-18141651D01*
X20534368Y-18150830D01*
X20552781Y-18161866D01*
X20570024Y-18174654D01*
X20585930Y-18189070D01*
X20600346Y-18204976D01*
X20613134Y-18222219D01*
X20624170Y-18240632D01*
X20633349Y-18260038D01*
X20640581Y-18280250D01*
X20645797Y-18301074D01*
X20648947Y-18322309D01*
X20650000Y-18343750D01*
X20650000Y-18856250D01*
X20648947Y-18877691D01*
X20645797Y-18898926D01*
X20640581Y-18919750D01*
X20633349Y-18939962D01*
X20624170Y-18959368D01*
X20613134Y-18977781D01*
X20600346Y-18995024D01*
X20585930Y-19010930D01*
X20570024Y-19025346D01*
X20552781Y-19038134D01*
X20534368Y-19049170D01*
X20514962Y-19058349D01*
X20494750Y-19065581D01*
X20473926Y-19070797D01*
X20452691Y-19073947D01*
X20431250Y-19075000D01*
X19993750Y-19075000D01*
X19972309Y-19073947D01*
X19951074Y-19070797D01*
X19930250Y-19065581D01*
X19910038Y-19058349D01*
X19890632Y-19049170D01*
X19872219Y-19038134D01*
X19854976Y-19025346D01*
X19839070Y-19010930D01*
X19824654Y-18995024D01*
X19811866Y-18977781D01*
X19800830Y-18959368D01*
X19791651Y-18939962D01*
X19784419Y-18919750D01*
X19779203Y-18898926D01*
X19776053Y-18877691D01*
X19775000Y-18856250D01*
X19775000Y-18343750D01*
X19776053Y-18322309D01*
X19779203Y-18301074D01*
X19784419Y-18280250D01*
X19791651Y-18260038D01*
X19800830Y-18240632D01*
X19811866Y-18222219D01*
X19824654Y-18204976D01*
X19839070Y-18189070D01*
X19854976Y-18174654D01*
X19872219Y-18161866D01*
X19890632Y-18150830D01*
X19910038Y-18141651D01*
X19930250Y-18134419D01*
X19951074Y-18129203D01*
X19972309Y-18126053D01*
X19993750Y-18125000D01*
X20431250Y-18125000D01*
X20452691Y-18126053D01*
G37*
G04 #@! TD.AperFunction*
G04 #@! TA.AperFunction,SMDPad,CuDef*
G36*
X11149504Y-41476204D02*
G01*
X11173773Y-41479804D01*
X11197571Y-41485765D01*
X11220671Y-41494030D01*
X11242849Y-41504520D01*
X11263893Y-41517133D01*
X11283598Y-41531747D01*
X11301777Y-41548223D01*
X11318253Y-41566402D01*
X11332867Y-41586107D01*
X11345480Y-41607151D01*
X11355970Y-41629329D01*
X11364235Y-41652429D01*
X11370196Y-41676227D01*
X11373796Y-41700496D01*
X11375000Y-41725000D01*
X11375000Y-42475000D01*
X11373796Y-42499504D01*
X11370196Y-42523773D01*
X11364235Y-42547571D01*
X11355970Y-42570671D01*
X11345480Y-42592849D01*
X11332867Y-42613893D01*
X11318253Y-42633598D01*
X11301777Y-42651777D01*
X11283598Y-42668253D01*
X11263893Y-42682867D01*
X11242849Y-42695480D01*
X11220671Y-42705970D01*
X11197571Y-42714235D01*
X11173773Y-42720196D01*
X11149504Y-42723796D01*
X11125000Y-42725000D01*
X9875000Y-42725000D01*
X9850496Y-42723796D01*
X9826227Y-42720196D01*
X9802429Y-42714235D01*
X9779329Y-42705970D01*
X9757151Y-42695480D01*
X9736107Y-42682867D01*
X9716402Y-42668253D01*
X9698223Y-42651777D01*
X9681747Y-42633598D01*
X9667133Y-42613893D01*
X9654520Y-42592849D01*
X9644030Y-42570671D01*
X9635765Y-42547571D01*
X9629804Y-42523773D01*
X9626204Y-42499504D01*
X9625000Y-42475000D01*
X9625000Y-41725000D01*
X9626204Y-41700496D01*
X9629804Y-41676227D01*
X9635765Y-41652429D01*
X9644030Y-41629329D01*
X9654520Y-41607151D01*
X9667133Y-41586107D01*
X9681747Y-41566402D01*
X9698223Y-41548223D01*
X9716402Y-41531747D01*
X9736107Y-41517133D01*
X9757151Y-41504520D01*
X9779329Y-41494030D01*
X9802429Y-41485765D01*
X9826227Y-41479804D01*
X9850496Y-41476204D01*
X9875000Y-41475000D01*
X11125000Y-41475000D01*
X11149504Y-41476204D01*
G37*
G04 #@! TD.AperFunction*
G04 #@! TA.AperFunction,SMDPad,CuDef*
G36*
X11149504Y-44276204D02*
G01*
X11173773Y-44279804D01*
X11197571Y-44285765D01*
X11220671Y-44294030D01*
X11242849Y-44304520D01*
X11263893Y-44317133D01*
X11283598Y-44331747D01*
X11301777Y-44348223D01*
X11318253Y-44366402D01*
X11332867Y-44386107D01*
X11345480Y-44407151D01*
X11355970Y-44429329D01*
X11364235Y-44452429D01*
X11370196Y-44476227D01*
X11373796Y-44500496D01*
X11375000Y-44525000D01*
X11375000Y-45275000D01*
X11373796Y-45299504D01*
X11370196Y-45323773D01*
X11364235Y-45347571D01*
X11355970Y-45370671D01*
X11345480Y-45392849D01*
X11332867Y-45413893D01*
X11318253Y-45433598D01*
X11301777Y-45451777D01*
X11283598Y-45468253D01*
X11263893Y-45482867D01*
X11242849Y-45495480D01*
X11220671Y-45505970D01*
X11197571Y-45514235D01*
X11173773Y-45520196D01*
X11149504Y-45523796D01*
X11125000Y-45525000D01*
X9875000Y-45525000D01*
X9850496Y-45523796D01*
X9826227Y-45520196D01*
X9802429Y-45514235D01*
X9779329Y-45505970D01*
X9757151Y-45495480D01*
X9736107Y-45482867D01*
X9716402Y-45468253D01*
X9698223Y-45451777D01*
X9681747Y-45433598D01*
X9667133Y-45413893D01*
X9654520Y-45392849D01*
X9644030Y-45370671D01*
X9635765Y-45347571D01*
X9629804Y-45323773D01*
X9626204Y-45299504D01*
X9625000Y-45275000D01*
X9625000Y-44525000D01*
X9626204Y-44500496D01*
X9629804Y-44476227D01*
X9635765Y-44452429D01*
X9644030Y-44429329D01*
X9654520Y-44407151D01*
X9667133Y-44386107D01*
X9681747Y-44366402D01*
X9698223Y-44348223D01*
X9716402Y-44331747D01*
X9736107Y-44317133D01*
X9757151Y-44304520D01*
X9779329Y-44294030D01*
X9802429Y-44285765D01*
X9826227Y-44279804D01*
X9850496Y-44276204D01*
X9875000Y-44275000D01*
X11125000Y-44275000D01*
X11149504Y-44276204D01*
G37*
G04 #@! TD.AperFunction*
G04 #@! TA.AperFunction,SMDPad,CuDef*
G36*
X20452691Y-23826053D02*
G01*
X20473926Y-23829203D01*
X20494750Y-23834419D01*
X20514962Y-23841651D01*
X20534368Y-23850830D01*
X20552781Y-23861866D01*
X20570024Y-23874654D01*
X20585930Y-23889070D01*
X20600346Y-23904976D01*
X20613134Y-23922219D01*
X20624170Y-23940632D01*
X20633349Y-23960038D01*
X20640581Y-23980250D01*
X20645797Y-24001074D01*
X20648947Y-24022309D01*
X20650000Y-24043750D01*
X20650000Y-24556250D01*
X20648947Y-24577691D01*
X20645797Y-24598926D01*
X20640581Y-24619750D01*
X20633349Y-24639962D01*
X20624170Y-24659368D01*
X20613134Y-24677781D01*
X20600346Y-24695024D01*
X20585930Y-24710930D01*
X20570024Y-24725346D01*
X20552781Y-24738134D01*
X20534368Y-24749170D01*
X20514962Y-24758349D01*
X20494750Y-24765581D01*
X20473926Y-24770797D01*
X20452691Y-24773947D01*
X20431250Y-24775000D01*
X19993750Y-24775000D01*
X19972309Y-24773947D01*
X19951074Y-24770797D01*
X19930250Y-24765581D01*
X19910038Y-24758349D01*
X19890632Y-24749170D01*
X19872219Y-24738134D01*
X19854976Y-24725346D01*
X19839070Y-24710930D01*
X19824654Y-24695024D01*
X19811866Y-24677781D01*
X19800830Y-24659368D01*
X19791651Y-24639962D01*
X19784419Y-24619750D01*
X19779203Y-24598926D01*
X19776053Y-24577691D01*
X19775000Y-24556250D01*
X19775000Y-24043750D01*
X19776053Y-24022309D01*
X19779203Y-24001074D01*
X19784419Y-23980250D01*
X19791651Y-23960038D01*
X19800830Y-23940632D01*
X19811866Y-23922219D01*
X19824654Y-23904976D01*
X19839070Y-23889070D01*
X19854976Y-23874654D01*
X19872219Y-23861866D01*
X19890632Y-23850830D01*
X19910038Y-23841651D01*
X19930250Y-23834419D01*
X19951074Y-23829203D01*
X19972309Y-23826053D01*
X19993750Y-23825000D01*
X20431250Y-23825000D01*
X20452691Y-23826053D01*
G37*
G04 #@! TD.AperFunction*
G04 #@! TA.AperFunction,SMDPad,CuDef*
G36*
X22027691Y-23826053D02*
G01*
X22048926Y-23829203D01*
X22069750Y-23834419D01*
X22089962Y-23841651D01*
X22109368Y-23850830D01*
X22127781Y-23861866D01*
X22145024Y-23874654D01*
X22160930Y-23889070D01*
X22175346Y-23904976D01*
X22188134Y-23922219D01*
X22199170Y-23940632D01*
X22208349Y-23960038D01*
X22215581Y-23980250D01*
X22220797Y-24001074D01*
X22223947Y-24022309D01*
X22225000Y-24043750D01*
X22225000Y-24556250D01*
X22223947Y-24577691D01*
X22220797Y-24598926D01*
X22215581Y-24619750D01*
X22208349Y-24639962D01*
X22199170Y-24659368D01*
X22188134Y-24677781D01*
X22175346Y-24695024D01*
X22160930Y-24710930D01*
X22145024Y-24725346D01*
X22127781Y-24738134D01*
X22109368Y-24749170D01*
X22089962Y-24758349D01*
X22069750Y-24765581D01*
X22048926Y-24770797D01*
X22027691Y-24773947D01*
X22006250Y-24775000D01*
X21568750Y-24775000D01*
X21547309Y-24773947D01*
X21526074Y-24770797D01*
X21505250Y-24765581D01*
X21485038Y-24758349D01*
X21465632Y-24749170D01*
X21447219Y-24738134D01*
X21429976Y-24725346D01*
X21414070Y-24710930D01*
X21399654Y-24695024D01*
X21386866Y-24677781D01*
X21375830Y-24659368D01*
X21366651Y-24639962D01*
X21359419Y-24619750D01*
X21354203Y-24598926D01*
X21351053Y-24577691D01*
X21350000Y-24556250D01*
X21350000Y-24043750D01*
X21351053Y-24022309D01*
X21354203Y-24001074D01*
X21359419Y-23980250D01*
X21366651Y-23960038D01*
X21375830Y-23940632D01*
X21386866Y-23922219D01*
X21399654Y-23904976D01*
X21414070Y-23889070D01*
X21429976Y-23874654D01*
X21447219Y-23861866D01*
X21465632Y-23850830D01*
X21485038Y-23841651D01*
X21505250Y-23834419D01*
X21526074Y-23829203D01*
X21547309Y-23826053D01*
X21568750Y-23825000D01*
X22006250Y-23825000D01*
X22027691Y-23826053D01*
G37*
G04 #@! TD.AperFunction*
G04 #@! TA.AperFunction,SMDPad,CuDef*
G36*
X23886958Y-28990710D02*
G01*
X23901276Y-28992834D01*
X23915317Y-28996351D01*
X23928946Y-29001228D01*
X23942031Y-29007417D01*
X23954447Y-29014858D01*
X23966073Y-29023481D01*
X23976798Y-29033202D01*
X23986519Y-29043927D01*
X23995142Y-29055553D01*
X24002583Y-29067969D01*
X24008772Y-29081054D01*
X24013649Y-29094683D01*
X24017166Y-29108724D01*
X24019290Y-29123042D01*
X24020000Y-29137500D01*
X24020000Y-29432500D01*
X24019290Y-29446958D01*
X24017166Y-29461276D01*
X24013649Y-29475317D01*
X24008772Y-29488946D01*
X24002583Y-29502031D01*
X23995142Y-29514447D01*
X23986519Y-29526073D01*
X23976798Y-29536798D01*
X23966073Y-29546519D01*
X23954447Y-29555142D01*
X23942031Y-29562583D01*
X23928946Y-29568772D01*
X23915317Y-29573649D01*
X23901276Y-29577166D01*
X23886958Y-29579290D01*
X23872500Y-29580000D01*
X23527500Y-29580000D01*
X23513042Y-29579290D01*
X23498724Y-29577166D01*
X23484683Y-29573649D01*
X23471054Y-29568772D01*
X23457969Y-29562583D01*
X23445553Y-29555142D01*
X23433927Y-29546519D01*
X23423202Y-29536798D01*
X23413481Y-29526073D01*
X23404858Y-29514447D01*
X23397417Y-29502031D01*
X23391228Y-29488946D01*
X23386351Y-29475317D01*
X23382834Y-29461276D01*
X23380710Y-29446958D01*
X23380000Y-29432500D01*
X23380000Y-29137500D01*
X23380710Y-29123042D01*
X23382834Y-29108724D01*
X23386351Y-29094683D01*
X23391228Y-29081054D01*
X23397417Y-29067969D01*
X23404858Y-29055553D01*
X23413481Y-29043927D01*
X23423202Y-29033202D01*
X23433927Y-29023481D01*
X23445553Y-29014858D01*
X23457969Y-29007417D01*
X23471054Y-29001228D01*
X23484683Y-28996351D01*
X23498724Y-28992834D01*
X23513042Y-28990710D01*
X23527500Y-28990000D01*
X23872500Y-28990000D01*
X23886958Y-28990710D01*
G37*
G04 #@! TD.AperFunction*
G04 #@! TA.AperFunction,SMDPad,CuDef*
G36*
X23886958Y-28020710D02*
G01*
X23901276Y-28022834D01*
X23915317Y-28026351D01*
X23928946Y-28031228D01*
X23942031Y-28037417D01*
X23954447Y-28044858D01*
X23966073Y-28053481D01*
X23976798Y-28063202D01*
X23986519Y-28073927D01*
X23995142Y-28085553D01*
X24002583Y-28097969D01*
X24008772Y-28111054D01*
X24013649Y-28124683D01*
X24017166Y-28138724D01*
X24019290Y-28153042D01*
X24020000Y-28167500D01*
X24020000Y-28462500D01*
X24019290Y-28476958D01*
X24017166Y-28491276D01*
X24013649Y-28505317D01*
X24008772Y-28518946D01*
X24002583Y-28532031D01*
X23995142Y-28544447D01*
X23986519Y-28556073D01*
X23976798Y-28566798D01*
X23966073Y-28576519D01*
X23954447Y-28585142D01*
X23942031Y-28592583D01*
X23928946Y-28598772D01*
X23915317Y-28603649D01*
X23901276Y-28607166D01*
X23886958Y-28609290D01*
X23872500Y-28610000D01*
X23527500Y-28610000D01*
X23513042Y-28609290D01*
X23498724Y-28607166D01*
X23484683Y-28603649D01*
X23471054Y-28598772D01*
X23457969Y-28592583D01*
X23445553Y-28585142D01*
X23433927Y-28576519D01*
X23423202Y-28566798D01*
X23413481Y-28556073D01*
X23404858Y-28544447D01*
X23397417Y-28532031D01*
X23391228Y-28518946D01*
X23386351Y-28505317D01*
X23382834Y-28491276D01*
X23380710Y-28476958D01*
X23380000Y-28462500D01*
X23380000Y-28167500D01*
X23380710Y-28153042D01*
X23382834Y-28138724D01*
X23386351Y-28124683D01*
X23391228Y-28111054D01*
X23397417Y-28097969D01*
X23404858Y-28085553D01*
X23413481Y-28073927D01*
X23423202Y-28063202D01*
X23433927Y-28053481D01*
X23445553Y-28044858D01*
X23457969Y-28037417D01*
X23471054Y-28031228D01*
X23484683Y-28026351D01*
X23498724Y-28022834D01*
X23513042Y-28020710D01*
X23527500Y-28020000D01*
X23872500Y-28020000D01*
X23886958Y-28020710D01*
G37*
G04 #@! TD.AperFunction*
G04 #@! TA.AperFunction,SMDPad,CuDef*
G36*
X21646958Y-25480710D02*
G01*
X21661276Y-25482834D01*
X21675317Y-25486351D01*
X21688946Y-25491228D01*
X21702031Y-25497417D01*
X21714447Y-25504858D01*
X21726073Y-25513481D01*
X21736798Y-25523202D01*
X21746519Y-25533927D01*
X21755142Y-25545553D01*
X21762583Y-25557969D01*
X21768772Y-25571054D01*
X21773649Y-25584683D01*
X21777166Y-25598724D01*
X21779290Y-25613042D01*
X21780000Y-25627500D01*
X21780000Y-25972500D01*
X21779290Y-25986958D01*
X21777166Y-26001276D01*
X21773649Y-26015317D01*
X21768772Y-26028946D01*
X21762583Y-26042031D01*
X21755142Y-26054447D01*
X21746519Y-26066073D01*
X21736798Y-26076798D01*
X21726073Y-26086519D01*
X21714447Y-26095142D01*
X21702031Y-26102583D01*
X21688946Y-26108772D01*
X21675317Y-26113649D01*
X21661276Y-26117166D01*
X21646958Y-26119290D01*
X21632500Y-26120000D01*
X21337500Y-26120000D01*
X21323042Y-26119290D01*
X21308724Y-26117166D01*
X21294683Y-26113649D01*
X21281054Y-26108772D01*
X21267969Y-26102583D01*
X21255553Y-26095142D01*
X21243927Y-26086519D01*
X21233202Y-26076798D01*
X21223481Y-26066073D01*
X21214858Y-26054447D01*
X21207417Y-26042031D01*
X21201228Y-26028946D01*
X21196351Y-26015317D01*
X21192834Y-26001276D01*
X21190710Y-25986958D01*
X21190000Y-25972500D01*
X21190000Y-25627500D01*
X21190710Y-25613042D01*
X21192834Y-25598724D01*
X21196351Y-25584683D01*
X21201228Y-25571054D01*
X21207417Y-25557969D01*
X21214858Y-25545553D01*
X21223481Y-25533927D01*
X21233202Y-25523202D01*
X21243927Y-25513481D01*
X21255553Y-25504858D01*
X21267969Y-25497417D01*
X21281054Y-25491228D01*
X21294683Y-25486351D01*
X21308724Y-25482834D01*
X21323042Y-25480710D01*
X21337500Y-25480000D01*
X21632500Y-25480000D01*
X21646958Y-25480710D01*
G37*
G04 #@! TD.AperFunction*
G04 #@! TA.AperFunction,SMDPad,CuDef*
G36*
X20676958Y-25480710D02*
G01*
X20691276Y-25482834D01*
X20705317Y-25486351D01*
X20718946Y-25491228D01*
X20732031Y-25497417D01*
X20744447Y-25504858D01*
X20756073Y-25513481D01*
X20766798Y-25523202D01*
X20776519Y-25533927D01*
X20785142Y-25545553D01*
X20792583Y-25557969D01*
X20798772Y-25571054D01*
X20803649Y-25584683D01*
X20807166Y-25598724D01*
X20809290Y-25613042D01*
X20810000Y-25627500D01*
X20810000Y-25972500D01*
X20809290Y-25986958D01*
X20807166Y-26001276D01*
X20803649Y-26015317D01*
X20798772Y-26028946D01*
X20792583Y-26042031D01*
X20785142Y-26054447D01*
X20776519Y-26066073D01*
X20766798Y-26076798D01*
X20756073Y-26086519D01*
X20744447Y-26095142D01*
X20732031Y-26102583D01*
X20718946Y-26108772D01*
X20705317Y-26113649D01*
X20691276Y-26117166D01*
X20676958Y-26119290D01*
X20662500Y-26120000D01*
X20367500Y-26120000D01*
X20353042Y-26119290D01*
X20338724Y-26117166D01*
X20324683Y-26113649D01*
X20311054Y-26108772D01*
X20297969Y-26102583D01*
X20285553Y-26095142D01*
X20273927Y-26086519D01*
X20263202Y-26076798D01*
X20253481Y-26066073D01*
X20244858Y-26054447D01*
X20237417Y-26042031D01*
X20231228Y-26028946D01*
X20226351Y-26015317D01*
X20222834Y-26001276D01*
X20220710Y-25986958D01*
X20220000Y-25972500D01*
X20220000Y-25627500D01*
X20220710Y-25613042D01*
X20222834Y-25598724D01*
X20226351Y-25584683D01*
X20231228Y-25571054D01*
X20237417Y-25557969D01*
X20244858Y-25545553D01*
X20253481Y-25533927D01*
X20263202Y-25523202D01*
X20273927Y-25513481D01*
X20285553Y-25504858D01*
X20297969Y-25497417D01*
X20311054Y-25491228D01*
X20324683Y-25486351D01*
X20338724Y-25482834D01*
X20353042Y-25480710D01*
X20367500Y-25480000D01*
X20662500Y-25480000D01*
X20676958Y-25480710D01*
G37*
G04 #@! TD.AperFunction*
G04 #@! TA.AperFunction,SMDPad,CuDef*
G36*
X26486958Y-28020710D02*
G01*
X26501276Y-28022834D01*
X26515317Y-28026351D01*
X26528946Y-28031228D01*
X26542031Y-28037417D01*
X26554447Y-28044858D01*
X26566073Y-28053481D01*
X26576798Y-28063202D01*
X26586519Y-28073927D01*
X26595142Y-28085553D01*
X26602583Y-28097969D01*
X26608772Y-28111054D01*
X26613649Y-28124683D01*
X26617166Y-28138724D01*
X26619290Y-28153042D01*
X26620000Y-28167500D01*
X26620000Y-28462500D01*
X26619290Y-28476958D01*
X26617166Y-28491276D01*
X26613649Y-28505317D01*
X26608772Y-28518946D01*
X26602583Y-28532031D01*
X26595142Y-28544447D01*
X26586519Y-28556073D01*
X26576798Y-28566798D01*
X26566073Y-28576519D01*
X26554447Y-28585142D01*
X26542031Y-28592583D01*
X26528946Y-28598772D01*
X26515317Y-28603649D01*
X26501276Y-28607166D01*
X26486958Y-28609290D01*
X26472500Y-28610000D01*
X26127500Y-28610000D01*
X26113042Y-28609290D01*
X26098724Y-28607166D01*
X26084683Y-28603649D01*
X26071054Y-28598772D01*
X26057969Y-28592583D01*
X26045553Y-28585142D01*
X26033927Y-28576519D01*
X26023202Y-28566798D01*
X26013481Y-28556073D01*
X26004858Y-28544447D01*
X25997417Y-28532031D01*
X25991228Y-28518946D01*
X25986351Y-28505317D01*
X25982834Y-28491276D01*
X25980710Y-28476958D01*
X25980000Y-28462500D01*
X25980000Y-28167500D01*
X25980710Y-28153042D01*
X25982834Y-28138724D01*
X25986351Y-28124683D01*
X25991228Y-28111054D01*
X25997417Y-28097969D01*
X26004858Y-28085553D01*
X26013481Y-28073927D01*
X26023202Y-28063202D01*
X26033927Y-28053481D01*
X26045553Y-28044858D01*
X26057969Y-28037417D01*
X26071054Y-28031228D01*
X26084683Y-28026351D01*
X26098724Y-28022834D01*
X26113042Y-28020710D01*
X26127500Y-28020000D01*
X26472500Y-28020000D01*
X26486958Y-28020710D01*
G37*
G04 #@! TD.AperFunction*
G04 #@! TA.AperFunction,SMDPad,CuDef*
G36*
X26486958Y-28990710D02*
G01*
X26501276Y-28992834D01*
X26515317Y-28996351D01*
X26528946Y-29001228D01*
X26542031Y-29007417D01*
X26554447Y-29014858D01*
X26566073Y-29023481D01*
X26576798Y-29033202D01*
X26586519Y-29043927D01*
X26595142Y-29055553D01*
X26602583Y-29067969D01*
X26608772Y-29081054D01*
X26613649Y-29094683D01*
X26617166Y-29108724D01*
X26619290Y-29123042D01*
X26620000Y-29137500D01*
X26620000Y-29432500D01*
X26619290Y-29446958D01*
X26617166Y-29461276D01*
X26613649Y-29475317D01*
X26608772Y-29488946D01*
X26602583Y-29502031D01*
X26595142Y-29514447D01*
X26586519Y-29526073D01*
X26576798Y-29536798D01*
X26566073Y-29546519D01*
X26554447Y-29555142D01*
X26542031Y-29562583D01*
X26528946Y-29568772D01*
X26515317Y-29573649D01*
X26501276Y-29577166D01*
X26486958Y-29579290D01*
X26472500Y-29580000D01*
X26127500Y-29580000D01*
X26113042Y-29579290D01*
X26098724Y-29577166D01*
X26084683Y-29573649D01*
X26071054Y-29568772D01*
X26057969Y-29562583D01*
X26045553Y-29555142D01*
X26033927Y-29546519D01*
X26023202Y-29536798D01*
X26013481Y-29526073D01*
X26004858Y-29514447D01*
X25997417Y-29502031D01*
X25991228Y-29488946D01*
X25986351Y-29475317D01*
X25982834Y-29461276D01*
X25980710Y-29446958D01*
X25980000Y-29432500D01*
X25980000Y-29137500D01*
X25980710Y-29123042D01*
X25982834Y-29108724D01*
X25986351Y-29094683D01*
X25991228Y-29081054D01*
X25997417Y-29067969D01*
X26004858Y-29055553D01*
X26013481Y-29043927D01*
X26023202Y-29033202D01*
X26033927Y-29023481D01*
X26045553Y-29014858D01*
X26057969Y-29007417D01*
X26071054Y-29001228D01*
X26084683Y-28996351D01*
X26098724Y-28992834D01*
X26113042Y-28990710D01*
X26127500Y-28990000D01*
X26472500Y-28990000D01*
X26486958Y-28990710D01*
G37*
G04 #@! TD.AperFunction*
G04 #@! TA.AperFunction,SMDPad,CuDef*
G36*
X36186958Y-39990710D02*
G01*
X36201276Y-39992834D01*
X36215317Y-39996351D01*
X36228946Y-40001228D01*
X36242031Y-40007417D01*
X36254447Y-40014858D01*
X36266073Y-40023481D01*
X36276798Y-40033202D01*
X36286519Y-40043927D01*
X36295142Y-40055553D01*
X36302583Y-40067969D01*
X36308772Y-40081054D01*
X36313649Y-40094683D01*
X36317166Y-40108724D01*
X36319290Y-40123042D01*
X36320000Y-40137500D01*
X36320000Y-40432500D01*
X36319290Y-40446958D01*
X36317166Y-40461276D01*
X36313649Y-40475317D01*
X36308772Y-40488946D01*
X36302583Y-40502031D01*
X36295142Y-40514447D01*
X36286519Y-40526073D01*
X36276798Y-40536798D01*
X36266073Y-40546519D01*
X36254447Y-40555142D01*
X36242031Y-40562583D01*
X36228946Y-40568772D01*
X36215317Y-40573649D01*
X36201276Y-40577166D01*
X36186958Y-40579290D01*
X36172500Y-40580000D01*
X35827500Y-40580000D01*
X35813042Y-40579290D01*
X35798724Y-40577166D01*
X35784683Y-40573649D01*
X35771054Y-40568772D01*
X35757969Y-40562583D01*
X35745553Y-40555142D01*
X35733927Y-40546519D01*
X35723202Y-40536798D01*
X35713481Y-40526073D01*
X35704858Y-40514447D01*
X35697417Y-40502031D01*
X35691228Y-40488946D01*
X35686351Y-40475317D01*
X35682834Y-40461276D01*
X35680710Y-40446958D01*
X35680000Y-40432500D01*
X35680000Y-40137500D01*
X35680710Y-40123042D01*
X35682834Y-40108724D01*
X35686351Y-40094683D01*
X35691228Y-40081054D01*
X35697417Y-40067969D01*
X35704858Y-40055553D01*
X35713481Y-40043927D01*
X35723202Y-40033202D01*
X35733927Y-40023481D01*
X35745553Y-40014858D01*
X35757969Y-40007417D01*
X35771054Y-40001228D01*
X35784683Y-39996351D01*
X35798724Y-39992834D01*
X35813042Y-39990710D01*
X35827500Y-39990000D01*
X36172500Y-39990000D01*
X36186958Y-39990710D01*
G37*
G04 #@! TD.AperFunction*
G04 #@! TA.AperFunction,SMDPad,CuDef*
G36*
X36186958Y-39020710D02*
G01*
X36201276Y-39022834D01*
X36215317Y-39026351D01*
X36228946Y-39031228D01*
X36242031Y-39037417D01*
X36254447Y-39044858D01*
X36266073Y-39053481D01*
X36276798Y-39063202D01*
X36286519Y-39073927D01*
X36295142Y-39085553D01*
X36302583Y-39097969D01*
X36308772Y-39111054D01*
X36313649Y-39124683D01*
X36317166Y-39138724D01*
X36319290Y-39153042D01*
X36320000Y-39167500D01*
X36320000Y-39462500D01*
X36319290Y-39476958D01*
X36317166Y-39491276D01*
X36313649Y-39505317D01*
X36308772Y-39518946D01*
X36302583Y-39532031D01*
X36295142Y-39544447D01*
X36286519Y-39556073D01*
X36276798Y-39566798D01*
X36266073Y-39576519D01*
X36254447Y-39585142D01*
X36242031Y-39592583D01*
X36228946Y-39598772D01*
X36215317Y-39603649D01*
X36201276Y-39607166D01*
X36186958Y-39609290D01*
X36172500Y-39610000D01*
X35827500Y-39610000D01*
X35813042Y-39609290D01*
X35798724Y-39607166D01*
X35784683Y-39603649D01*
X35771054Y-39598772D01*
X35757969Y-39592583D01*
X35745553Y-39585142D01*
X35733927Y-39576519D01*
X35723202Y-39566798D01*
X35713481Y-39556073D01*
X35704858Y-39544447D01*
X35697417Y-39532031D01*
X35691228Y-39518946D01*
X35686351Y-39505317D01*
X35682834Y-39491276D01*
X35680710Y-39476958D01*
X35680000Y-39462500D01*
X35680000Y-39167500D01*
X35680710Y-39153042D01*
X35682834Y-39138724D01*
X35686351Y-39124683D01*
X35691228Y-39111054D01*
X35697417Y-39097969D01*
X35704858Y-39085553D01*
X35713481Y-39073927D01*
X35723202Y-39063202D01*
X35733927Y-39053481D01*
X35745553Y-39044858D01*
X35757969Y-39037417D01*
X35771054Y-39031228D01*
X35784683Y-39026351D01*
X35798724Y-39022834D01*
X35813042Y-39020710D01*
X35827500Y-39020000D01*
X36172500Y-39020000D01*
X36186958Y-39020710D01*
G37*
G04 #@! TD.AperFunction*
G04 #@! TA.AperFunction,SMDPad,CuDef*
G36*
X53424504Y-40301204D02*
G01*
X53448773Y-40304804D01*
X53472571Y-40310765D01*
X53495671Y-40319030D01*
X53517849Y-40329520D01*
X53538893Y-40342133D01*
X53558598Y-40356747D01*
X53576777Y-40373223D01*
X53593253Y-40391402D01*
X53607867Y-40411107D01*
X53620480Y-40432151D01*
X53630970Y-40454329D01*
X53639235Y-40477429D01*
X53645196Y-40501227D01*
X53648796Y-40525496D01*
X53650000Y-40550000D01*
X53650000Y-41375000D01*
X53648796Y-41399504D01*
X53645196Y-41423773D01*
X53639235Y-41447571D01*
X53630970Y-41470671D01*
X53620480Y-41492849D01*
X53607867Y-41513893D01*
X53593253Y-41533598D01*
X53576777Y-41551777D01*
X53558598Y-41568253D01*
X53538893Y-41582867D01*
X53517849Y-41595480D01*
X53495671Y-41605970D01*
X53472571Y-41614235D01*
X53448773Y-41620196D01*
X53424504Y-41623796D01*
X53400000Y-41625000D01*
X52600000Y-41625000D01*
X52575496Y-41623796D01*
X52551227Y-41620196D01*
X52527429Y-41614235D01*
X52504329Y-41605970D01*
X52482151Y-41595480D01*
X52461107Y-41582867D01*
X52441402Y-41568253D01*
X52423223Y-41551777D01*
X52406747Y-41533598D01*
X52392133Y-41513893D01*
X52379520Y-41492849D01*
X52369030Y-41470671D01*
X52360765Y-41447571D01*
X52354804Y-41423773D01*
X52351204Y-41399504D01*
X52350000Y-41375000D01*
X52350000Y-40550000D01*
X52351204Y-40525496D01*
X52354804Y-40501227D01*
X52360765Y-40477429D01*
X52369030Y-40454329D01*
X52379520Y-40432151D01*
X52392133Y-40411107D01*
X52406747Y-40391402D01*
X52423223Y-40373223D01*
X52441402Y-40356747D01*
X52461107Y-40342133D01*
X52482151Y-40329520D01*
X52504329Y-40319030D01*
X52527429Y-40310765D01*
X52551227Y-40304804D01*
X52575496Y-40301204D01*
X52600000Y-40300000D01*
X53400000Y-40300000D01*
X53424504Y-40301204D01*
G37*
G04 #@! TD.AperFunction*
G04 #@! TA.AperFunction,SMDPad,CuDef*
G36*
X53424504Y-38376204D02*
G01*
X53448773Y-38379804D01*
X53472571Y-38385765D01*
X53495671Y-38394030D01*
X53517849Y-38404520D01*
X53538893Y-38417133D01*
X53558598Y-38431747D01*
X53576777Y-38448223D01*
X53593253Y-38466402D01*
X53607867Y-38486107D01*
X53620480Y-38507151D01*
X53630970Y-38529329D01*
X53639235Y-38552429D01*
X53645196Y-38576227D01*
X53648796Y-38600496D01*
X53650000Y-38625000D01*
X53650000Y-39450000D01*
X53648796Y-39474504D01*
X53645196Y-39498773D01*
X53639235Y-39522571D01*
X53630970Y-39545671D01*
X53620480Y-39567849D01*
X53607867Y-39588893D01*
X53593253Y-39608598D01*
X53576777Y-39626777D01*
X53558598Y-39643253D01*
X53538893Y-39657867D01*
X53517849Y-39670480D01*
X53495671Y-39680970D01*
X53472571Y-39689235D01*
X53448773Y-39695196D01*
X53424504Y-39698796D01*
X53400000Y-39700000D01*
X52600000Y-39700000D01*
X52575496Y-39698796D01*
X52551227Y-39695196D01*
X52527429Y-39689235D01*
X52504329Y-39680970D01*
X52482151Y-39670480D01*
X52461107Y-39657867D01*
X52441402Y-39643253D01*
X52423223Y-39626777D01*
X52406747Y-39608598D01*
X52392133Y-39588893D01*
X52379520Y-39567849D01*
X52369030Y-39545671D01*
X52360765Y-39522571D01*
X52354804Y-39498773D01*
X52351204Y-39474504D01*
X52350000Y-39450000D01*
X52350000Y-38625000D01*
X52351204Y-38600496D01*
X52354804Y-38576227D01*
X52360765Y-38552429D01*
X52369030Y-38529329D01*
X52379520Y-38507151D01*
X52392133Y-38486107D01*
X52406747Y-38466402D01*
X52423223Y-38448223D01*
X52441402Y-38431747D01*
X52461107Y-38417133D01*
X52482151Y-38404520D01*
X52504329Y-38394030D01*
X52527429Y-38385765D01*
X52551227Y-38379804D01*
X52575496Y-38376204D01*
X52600000Y-38375000D01*
X53400000Y-38375000D01*
X53424504Y-38376204D01*
G37*
G04 #@! TD.AperFunction*
G04 #@! TA.AperFunction,SMDPad,CuDef*
G36*
X51424504Y-38376204D02*
G01*
X51448773Y-38379804D01*
X51472571Y-38385765D01*
X51495671Y-38394030D01*
X51517849Y-38404520D01*
X51538893Y-38417133D01*
X51558598Y-38431747D01*
X51576777Y-38448223D01*
X51593253Y-38466402D01*
X51607867Y-38486107D01*
X51620480Y-38507151D01*
X51630970Y-38529329D01*
X51639235Y-38552429D01*
X51645196Y-38576227D01*
X51648796Y-38600496D01*
X51650000Y-38625000D01*
X51650000Y-39450000D01*
X51648796Y-39474504D01*
X51645196Y-39498773D01*
X51639235Y-39522571D01*
X51630970Y-39545671D01*
X51620480Y-39567849D01*
X51607867Y-39588893D01*
X51593253Y-39608598D01*
X51576777Y-39626777D01*
X51558598Y-39643253D01*
X51538893Y-39657867D01*
X51517849Y-39670480D01*
X51495671Y-39680970D01*
X51472571Y-39689235D01*
X51448773Y-39695196D01*
X51424504Y-39698796D01*
X51400000Y-39700000D01*
X50600000Y-39700000D01*
X50575496Y-39698796D01*
X50551227Y-39695196D01*
X50527429Y-39689235D01*
X50504329Y-39680970D01*
X50482151Y-39670480D01*
X50461107Y-39657867D01*
X50441402Y-39643253D01*
X50423223Y-39626777D01*
X50406747Y-39608598D01*
X50392133Y-39588893D01*
X50379520Y-39567849D01*
X50369030Y-39545671D01*
X50360765Y-39522571D01*
X50354804Y-39498773D01*
X50351204Y-39474504D01*
X50350000Y-39450000D01*
X50350000Y-38625000D01*
X50351204Y-38600496D01*
X50354804Y-38576227D01*
X50360765Y-38552429D01*
X50369030Y-38529329D01*
X50379520Y-38507151D01*
X50392133Y-38486107D01*
X50406747Y-38466402D01*
X50423223Y-38448223D01*
X50441402Y-38431747D01*
X50461107Y-38417133D01*
X50482151Y-38404520D01*
X50504329Y-38394030D01*
X50527429Y-38385765D01*
X50551227Y-38379804D01*
X50575496Y-38376204D01*
X50600000Y-38375000D01*
X51400000Y-38375000D01*
X51424504Y-38376204D01*
G37*
G04 #@! TD.AperFunction*
G04 #@! TA.AperFunction,SMDPad,CuDef*
G36*
X51424504Y-40301204D02*
G01*
X51448773Y-40304804D01*
X51472571Y-40310765D01*
X51495671Y-40319030D01*
X51517849Y-40329520D01*
X51538893Y-40342133D01*
X51558598Y-40356747D01*
X51576777Y-40373223D01*
X51593253Y-40391402D01*
X51607867Y-40411107D01*
X51620480Y-40432151D01*
X51630970Y-40454329D01*
X51639235Y-40477429D01*
X51645196Y-40501227D01*
X51648796Y-40525496D01*
X51650000Y-40550000D01*
X51650000Y-41375000D01*
X51648796Y-41399504D01*
X51645196Y-41423773D01*
X51639235Y-41447571D01*
X51630970Y-41470671D01*
X51620480Y-41492849D01*
X51607867Y-41513893D01*
X51593253Y-41533598D01*
X51576777Y-41551777D01*
X51558598Y-41568253D01*
X51538893Y-41582867D01*
X51517849Y-41595480D01*
X51495671Y-41605970D01*
X51472571Y-41614235D01*
X51448773Y-41620196D01*
X51424504Y-41623796D01*
X51400000Y-41625000D01*
X50600000Y-41625000D01*
X50575496Y-41623796D01*
X50551227Y-41620196D01*
X50527429Y-41614235D01*
X50504329Y-41605970D01*
X50482151Y-41595480D01*
X50461107Y-41582867D01*
X50441402Y-41568253D01*
X50423223Y-41551777D01*
X50406747Y-41533598D01*
X50392133Y-41513893D01*
X50379520Y-41492849D01*
X50369030Y-41470671D01*
X50360765Y-41447571D01*
X50354804Y-41423773D01*
X50351204Y-41399504D01*
X50350000Y-41375000D01*
X50350000Y-40550000D01*
X50351204Y-40525496D01*
X50354804Y-40501227D01*
X50360765Y-40477429D01*
X50369030Y-40454329D01*
X50379520Y-40432151D01*
X50392133Y-40411107D01*
X50406747Y-40391402D01*
X50423223Y-40373223D01*
X50441402Y-40356747D01*
X50461107Y-40342133D01*
X50482151Y-40329520D01*
X50504329Y-40319030D01*
X50527429Y-40310765D01*
X50551227Y-40304804D01*
X50575496Y-40301204D01*
X50600000Y-40300000D01*
X51400000Y-40300000D01*
X51424504Y-40301204D01*
G37*
G04 #@! TD.AperFunction*
G04 #@! TA.AperFunction,SMDPad,CuDef*
G36*
X49424504Y-40301204D02*
G01*
X49448773Y-40304804D01*
X49472571Y-40310765D01*
X49495671Y-40319030D01*
X49517849Y-40329520D01*
X49538893Y-40342133D01*
X49558598Y-40356747D01*
X49576777Y-40373223D01*
X49593253Y-40391402D01*
X49607867Y-40411107D01*
X49620480Y-40432151D01*
X49630970Y-40454329D01*
X49639235Y-40477429D01*
X49645196Y-40501227D01*
X49648796Y-40525496D01*
X49650000Y-40550000D01*
X49650000Y-41375000D01*
X49648796Y-41399504D01*
X49645196Y-41423773D01*
X49639235Y-41447571D01*
X49630970Y-41470671D01*
X49620480Y-41492849D01*
X49607867Y-41513893D01*
X49593253Y-41533598D01*
X49576777Y-41551777D01*
X49558598Y-41568253D01*
X49538893Y-41582867D01*
X49517849Y-41595480D01*
X49495671Y-41605970D01*
X49472571Y-41614235D01*
X49448773Y-41620196D01*
X49424504Y-41623796D01*
X49400000Y-41625000D01*
X48600000Y-41625000D01*
X48575496Y-41623796D01*
X48551227Y-41620196D01*
X48527429Y-41614235D01*
X48504329Y-41605970D01*
X48482151Y-41595480D01*
X48461107Y-41582867D01*
X48441402Y-41568253D01*
X48423223Y-41551777D01*
X48406747Y-41533598D01*
X48392133Y-41513893D01*
X48379520Y-41492849D01*
X48369030Y-41470671D01*
X48360765Y-41447571D01*
X48354804Y-41423773D01*
X48351204Y-41399504D01*
X48350000Y-41375000D01*
X48350000Y-40550000D01*
X48351204Y-40525496D01*
X48354804Y-40501227D01*
X48360765Y-40477429D01*
X48369030Y-40454329D01*
X48379520Y-40432151D01*
X48392133Y-40411107D01*
X48406747Y-40391402D01*
X48423223Y-40373223D01*
X48441402Y-40356747D01*
X48461107Y-40342133D01*
X48482151Y-40329520D01*
X48504329Y-40319030D01*
X48527429Y-40310765D01*
X48551227Y-40304804D01*
X48575496Y-40301204D01*
X48600000Y-40300000D01*
X49400000Y-40300000D01*
X49424504Y-40301204D01*
G37*
G04 #@! TD.AperFunction*
G04 #@! TA.AperFunction,SMDPad,CuDef*
G36*
X49424504Y-38376204D02*
G01*
X49448773Y-38379804D01*
X49472571Y-38385765D01*
X49495671Y-38394030D01*
X49517849Y-38404520D01*
X49538893Y-38417133D01*
X49558598Y-38431747D01*
X49576777Y-38448223D01*
X49593253Y-38466402D01*
X49607867Y-38486107D01*
X49620480Y-38507151D01*
X49630970Y-38529329D01*
X49639235Y-38552429D01*
X49645196Y-38576227D01*
X49648796Y-38600496D01*
X49650000Y-38625000D01*
X49650000Y-39450000D01*
X49648796Y-39474504D01*
X49645196Y-39498773D01*
X49639235Y-39522571D01*
X49630970Y-39545671D01*
X49620480Y-39567849D01*
X49607867Y-39588893D01*
X49593253Y-39608598D01*
X49576777Y-39626777D01*
X49558598Y-39643253D01*
X49538893Y-39657867D01*
X49517849Y-39670480D01*
X49495671Y-39680970D01*
X49472571Y-39689235D01*
X49448773Y-39695196D01*
X49424504Y-39698796D01*
X49400000Y-39700000D01*
X48600000Y-39700000D01*
X48575496Y-39698796D01*
X48551227Y-39695196D01*
X48527429Y-39689235D01*
X48504329Y-39680970D01*
X48482151Y-39670480D01*
X48461107Y-39657867D01*
X48441402Y-39643253D01*
X48423223Y-39626777D01*
X48406747Y-39608598D01*
X48392133Y-39588893D01*
X48379520Y-39567849D01*
X48369030Y-39545671D01*
X48360765Y-39522571D01*
X48354804Y-39498773D01*
X48351204Y-39474504D01*
X48350000Y-39450000D01*
X48350000Y-38625000D01*
X48351204Y-38600496D01*
X48354804Y-38576227D01*
X48360765Y-38552429D01*
X48369030Y-38529329D01*
X48379520Y-38507151D01*
X48392133Y-38486107D01*
X48406747Y-38466402D01*
X48423223Y-38448223D01*
X48441402Y-38431747D01*
X48461107Y-38417133D01*
X48482151Y-38404520D01*
X48504329Y-38394030D01*
X48527429Y-38385765D01*
X48551227Y-38379804D01*
X48575496Y-38376204D01*
X48600000Y-38375000D01*
X49400000Y-38375000D01*
X49424504Y-38376204D01*
G37*
G04 #@! TD.AperFunction*
G04 #@! TA.AperFunction,SMDPad,CuDef*
G36*
X55424504Y-38376204D02*
G01*
X55448773Y-38379804D01*
X55472571Y-38385765D01*
X55495671Y-38394030D01*
X55517849Y-38404520D01*
X55538893Y-38417133D01*
X55558598Y-38431747D01*
X55576777Y-38448223D01*
X55593253Y-38466402D01*
X55607867Y-38486107D01*
X55620480Y-38507151D01*
X55630970Y-38529329D01*
X55639235Y-38552429D01*
X55645196Y-38576227D01*
X55648796Y-38600496D01*
X55650000Y-38625000D01*
X55650000Y-39450000D01*
X55648796Y-39474504D01*
X55645196Y-39498773D01*
X55639235Y-39522571D01*
X55630970Y-39545671D01*
X55620480Y-39567849D01*
X55607867Y-39588893D01*
X55593253Y-39608598D01*
X55576777Y-39626777D01*
X55558598Y-39643253D01*
X55538893Y-39657867D01*
X55517849Y-39670480D01*
X55495671Y-39680970D01*
X55472571Y-39689235D01*
X55448773Y-39695196D01*
X55424504Y-39698796D01*
X55400000Y-39700000D01*
X54600000Y-39700000D01*
X54575496Y-39698796D01*
X54551227Y-39695196D01*
X54527429Y-39689235D01*
X54504329Y-39680970D01*
X54482151Y-39670480D01*
X54461107Y-39657867D01*
X54441402Y-39643253D01*
X54423223Y-39626777D01*
X54406747Y-39608598D01*
X54392133Y-39588893D01*
X54379520Y-39567849D01*
X54369030Y-39545671D01*
X54360765Y-39522571D01*
X54354804Y-39498773D01*
X54351204Y-39474504D01*
X54350000Y-39450000D01*
X54350000Y-38625000D01*
X54351204Y-38600496D01*
X54354804Y-38576227D01*
X54360765Y-38552429D01*
X54369030Y-38529329D01*
X54379520Y-38507151D01*
X54392133Y-38486107D01*
X54406747Y-38466402D01*
X54423223Y-38448223D01*
X54441402Y-38431747D01*
X54461107Y-38417133D01*
X54482151Y-38404520D01*
X54504329Y-38394030D01*
X54527429Y-38385765D01*
X54551227Y-38379804D01*
X54575496Y-38376204D01*
X54600000Y-38375000D01*
X55400000Y-38375000D01*
X55424504Y-38376204D01*
G37*
G04 #@! TD.AperFunction*
G04 #@! TA.AperFunction,SMDPad,CuDef*
G36*
X55424504Y-40301204D02*
G01*
X55448773Y-40304804D01*
X55472571Y-40310765D01*
X55495671Y-40319030D01*
X55517849Y-40329520D01*
X55538893Y-40342133D01*
X55558598Y-40356747D01*
X55576777Y-40373223D01*
X55593253Y-40391402D01*
X55607867Y-40411107D01*
X55620480Y-40432151D01*
X55630970Y-40454329D01*
X55639235Y-40477429D01*
X55645196Y-40501227D01*
X55648796Y-40525496D01*
X55650000Y-40550000D01*
X55650000Y-41375000D01*
X55648796Y-41399504D01*
X55645196Y-41423773D01*
X55639235Y-41447571D01*
X55630970Y-41470671D01*
X55620480Y-41492849D01*
X55607867Y-41513893D01*
X55593253Y-41533598D01*
X55576777Y-41551777D01*
X55558598Y-41568253D01*
X55538893Y-41582867D01*
X55517849Y-41595480D01*
X55495671Y-41605970D01*
X55472571Y-41614235D01*
X55448773Y-41620196D01*
X55424504Y-41623796D01*
X55400000Y-41625000D01*
X54600000Y-41625000D01*
X54575496Y-41623796D01*
X54551227Y-41620196D01*
X54527429Y-41614235D01*
X54504329Y-41605970D01*
X54482151Y-41595480D01*
X54461107Y-41582867D01*
X54441402Y-41568253D01*
X54423223Y-41551777D01*
X54406747Y-41533598D01*
X54392133Y-41513893D01*
X54379520Y-41492849D01*
X54369030Y-41470671D01*
X54360765Y-41447571D01*
X54354804Y-41423773D01*
X54351204Y-41399504D01*
X54350000Y-41375000D01*
X54350000Y-40550000D01*
X54351204Y-40525496D01*
X54354804Y-40501227D01*
X54360765Y-40477429D01*
X54369030Y-40454329D01*
X54379520Y-40432151D01*
X54392133Y-40411107D01*
X54406747Y-40391402D01*
X54423223Y-40373223D01*
X54441402Y-40356747D01*
X54461107Y-40342133D01*
X54482151Y-40329520D01*
X54504329Y-40319030D01*
X54527429Y-40310765D01*
X54551227Y-40304804D01*
X54575496Y-40301204D01*
X54600000Y-40300000D01*
X55400000Y-40300000D01*
X55424504Y-40301204D01*
G37*
G04 #@! TD.AperFunction*
D13*
X11500000Y-30000000D03*
D14*
X11500000Y-27460000D03*
X11500000Y-24920000D03*
X11500000Y-22380000D03*
X11500000Y-19840000D03*
X11500000Y-17300000D03*
X11500000Y-14760000D03*
X11500000Y-12220000D03*
D13*
X44520000Y-14760000D03*
D14*
X44520000Y-17300000D03*
X41980000Y-14760000D03*
X41980000Y-17300000D03*
X39440000Y-14760000D03*
X39440000Y-17300000D03*
X49600000Y-12220000D03*
X49600000Y-14760000D03*
X49600000Y-17300000D03*
X49600000Y-19840000D03*
X49600000Y-22380000D03*
X49600000Y-24920000D03*
X49600000Y-27460000D03*
D13*
X49600000Y-30000000D03*
D15*
X15000000Y-35000000D03*
D16*
X13730000Y-35000000D03*
X15000000Y-36270000D03*
X13730000Y-36270000D03*
X15000000Y-37540000D03*
X13730000Y-37540000D03*
X15000000Y-38810000D03*
X13730000Y-38810000D03*
X15000000Y-40080000D03*
X13730000Y-40080000D03*
X15000000Y-41350000D03*
X13730000Y-41350000D03*
X15000000Y-42620000D03*
X13730000Y-42620000D03*
X15000000Y-43890000D03*
X13730000Y-43890000D03*
X15000000Y-45160000D03*
X13730000Y-45160000D03*
X15000000Y-46430000D03*
X13730000Y-46430000D03*
X44230000Y-46430000D03*
X45500000Y-46430000D03*
X44230000Y-45160000D03*
X45500000Y-45160000D03*
X44230000Y-43890000D03*
X45500000Y-43890000D03*
X44230000Y-42620000D03*
X45500000Y-42620000D03*
X44230000Y-41350000D03*
X45500000Y-41350000D03*
X44230000Y-40080000D03*
X45500000Y-40080000D03*
X44230000Y-38810000D03*
X45500000Y-38810000D03*
X44230000Y-37540000D03*
X45500000Y-37540000D03*
X44230000Y-36270000D03*
X45500000Y-36270000D03*
X44230000Y-35000000D03*
D15*
X45500000Y-35000000D03*
G04 #@! TA.AperFunction,SMDPad,CuDef*
D11*
G36*
X22027691Y-19826053D02*
G01*
X22048926Y-19829203D01*
X22069750Y-19834419D01*
X22089962Y-19841651D01*
X22109368Y-19850830D01*
X22127781Y-19861866D01*
X22145024Y-19874654D01*
X22160930Y-19889070D01*
X22175346Y-19904976D01*
X22188134Y-19922219D01*
X22199170Y-19940632D01*
X22208349Y-19960038D01*
X22215581Y-19980250D01*
X22220797Y-20001074D01*
X22223947Y-20022309D01*
X22225000Y-20043750D01*
X22225000Y-20556250D01*
X22223947Y-20577691D01*
X22220797Y-20598926D01*
X22215581Y-20619750D01*
X22208349Y-20639962D01*
X22199170Y-20659368D01*
X22188134Y-20677781D01*
X22175346Y-20695024D01*
X22160930Y-20710930D01*
X22145024Y-20725346D01*
X22127781Y-20738134D01*
X22109368Y-20749170D01*
X22089962Y-20758349D01*
X22069750Y-20765581D01*
X22048926Y-20770797D01*
X22027691Y-20773947D01*
X22006250Y-20775000D01*
X21568750Y-20775000D01*
X21547309Y-20773947D01*
X21526074Y-20770797D01*
X21505250Y-20765581D01*
X21485038Y-20758349D01*
X21465632Y-20749170D01*
X21447219Y-20738134D01*
X21429976Y-20725346D01*
X21414070Y-20710930D01*
X21399654Y-20695024D01*
X21386866Y-20677781D01*
X21375830Y-20659368D01*
X21366651Y-20639962D01*
X21359419Y-20619750D01*
X21354203Y-20598926D01*
X21351053Y-20577691D01*
X21350000Y-20556250D01*
X21350000Y-20043750D01*
X21351053Y-20022309D01*
X21354203Y-20001074D01*
X21359419Y-19980250D01*
X21366651Y-19960038D01*
X21375830Y-19940632D01*
X21386866Y-19922219D01*
X21399654Y-19904976D01*
X21414070Y-19889070D01*
X21429976Y-19874654D01*
X21447219Y-19861866D01*
X21465632Y-19850830D01*
X21485038Y-19841651D01*
X21505250Y-19834419D01*
X21526074Y-19829203D01*
X21547309Y-19826053D01*
X21568750Y-19825000D01*
X22006250Y-19825000D01*
X22027691Y-19826053D01*
G37*
G04 #@! TD.AperFunction*
G04 #@! TA.AperFunction,SMDPad,CuDef*
G36*
X20452691Y-19826053D02*
G01*
X20473926Y-19829203D01*
X20494750Y-19834419D01*
X20514962Y-19841651D01*
X20534368Y-19850830D01*
X20552781Y-19861866D01*
X20570024Y-19874654D01*
X20585930Y-19889070D01*
X20600346Y-19904976D01*
X20613134Y-19922219D01*
X20624170Y-19940632D01*
X20633349Y-19960038D01*
X20640581Y-19980250D01*
X20645797Y-20001074D01*
X20648947Y-20022309D01*
X20650000Y-20043750D01*
X20650000Y-20556250D01*
X20648947Y-20577691D01*
X20645797Y-20598926D01*
X20640581Y-20619750D01*
X20633349Y-20639962D01*
X20624170Y-20659368D01*
X20613134Y-20677781D01*
X20600346Y-20695024D01*
X20585930Y-20710930D01*
X20570024Y-20725346D01*
X20552781Y-20738134D01*
X20534368Y-20749170D01*
X20514962Y-20758349D01*
X20494750Y-20765581D01*
X20473926Y-20770797D01*
X20452691Y-20773947D01*
X20431250Y-20775000D01*
X19993750Y-20775000D01*
X19972309Y-20773947D01*
X19951074Y-20770797D01*
X19930250Y-20765581D01*
X19910038Y-20758349D01*
X19890632Y-20749170D01*
X19872219Y-20738134D01*
X19854976Y-20725346D01*
X19839070Y-20710930D01*
X19824654Y-20695024D01*
X19811866Y-20677781D01*
X19800830Y-20659368D01*
X19791651Y-20639962D01*
X19784419Y-20619750D01*
X19779203Y-20598926D01*
X19776053Y-20577691D01*
X19775000Y-20556250D01*
X19775000Y-20043750D01*
X19776053Y-20022309D01*
X19779203Y-20001074D01*
X19784419Y-19980250D01*
X19791651Y-19960038D01*
X19800830Y-19940632D01*
X19811866Y-19922219D01*
X19824654Y-19904976D01*
X19839070Y-19889070D01*
X19854976Y-19874654D01*
X19872219Y-19861866D01*
X19890632Y-19850830D01*
X19910038Y-19841651D01*
X19930250Y-19834419D01*
X19951074Y-19829203D01*
X19972309Y-19826053D01*
X19993750Y-19825000D01*
X20431250Y-19825000D01*
X20452691Y-19826053D01*
G37*
G04 #@! TD.AperFunction*
D17*
X20050000Y-22300000D03*
X21950000Y-22300000D03*
D18*
X8600000Y-44450000D03*
X8600000Y-42550000D03*
X6600000Y-43500000D03*
D10*
X53000000Y-34400000D03*
X53000000Y-36600000D03*
X51000000Y-36600000D03*
X51000000Y-34400000D03*
X49000000Y-34400000D03*
X49000000Y-36600000D03*
D19*
X33000000Y-37500000D03*
X33000000Y-42000000D03*
X26500000Y-37500000D03*
X26500000Y-42000000D03*
D20*
X5000000Y-30300000D03*
X5000000Y-35000000D03*
X5000000Y-39700000D03*
D21*
X32900000Y-12650000D03*
X32900000Y-11250000D03*
D22*
X34750000Y-10700000D03*
D23*
X34750000Y-11600000D03*
X34750000Y-12300000D03*
X34750000Y-13000000D03*
X34750000Y-13700000D03*
X34750000Y-14400000D03*
X34750000Y-15100000D03*
X34750000Y-15800000D03*
X34750000Y-16500000D03*
X34750000Y-17200000D03*
X34750000Y-17900000D03*
X34750000Y-18600000D03*
X34750000Y-19300000D03*
X34750000Y-20000000D03*
X34750000Y-20700000D03*
D24*
X34200000Y-22250000D03*
X33500000Y-22250000D03*
X32800000Y-22250000D03*
X32100000Y-22250000D03*
X31400000Y-22250000D03*
X30700000Y-22250000D03*
X30000000Y-22250000D03*
X29300000Y-22250000D03*
X28600000Y-22250000D03*
X27900000Y-22250000D03*
X27200000Y-22250000D03*
X26500000Y-22250000D03*
D23*
X25250000Y-20000000D03*
X25250000Y-19300000D03*
X25250000Y-18600000D03*
X25250000Y-17900000D03*
X25250000Y-17200000D03*
X25250000Y-16500000D03*
X25250000Y-15800000D03*
X25250000Y-15100000D03*
X25250000Y-14400000D03*
D22*
X25250000Y-10700000D03*
D23*
X25250000Y-13700000D03*
D24*
X25700000Y-22250000D03*
D25*
X23750000Y-26500000D03*
X26250000Y-26500000D03*
D26*
X22000000Y-28500000D03*
X23600000Y-10700000D03*
X22800000Y-10700000D03*
X22800000Y-11500000D03*
X23600000Y-11500000D03*
X27100000Y-11200000D03*
X27900000Y-11200000D03*
X27900000Y-12000000D03*
X27100000Y-12000000D03*
X28000000Y-15000000D03*
X30000000Y-17000000D03*
X28000000Y-20000000D03*
X32000000Y-20000000D03*
X32000000Y-15000000D03*
X36300000Y-10700000D03*
X37100000Y-10700000D03*
X24406403Y-22706403D03*
X24400000Y-23500000D03*
X25200000Y-23500000D03*
X35500000Y-22700000D03*
X35500000Y-23500000D03*
X34700000Y-23500000D03*
X17000000Y-34000000D03*
X42000000Y-48100000D03*
X53000000Y-42800000D03*
X37725000Y-16300000D03*
X37663499Y-21536501D03*
X37000000Y-13675000D03*
X28000000Y-28400000D03*
X28625000Y-27500000D03*
X29325000Y-26600000D03*
D27*
X7150000Y-35000000D02*
X5000000Y-35000000D01*
X7225010Y-34924990D02*
X7150000Y-35000000D01*
X7225010Y-25655010D02*
X7225010Y-34924990D01*
X6420000Y-24850000D02*
X7225010Y-25655010D01*
X6420000Y-24000000D02*
X6420000Y-24850000D01*
X20212500Y-18600000D02*
X19400000Y-18600000D01*
X19400000Y-18600000D02*
X18900000Y-19100000D01*
X19775000Y-24300000D02*
X20212500Y-24300000D01*
X18900000Y-23425000D02*
X19775000Y-24300000D01*
X18900000Y-19100000D02*
X18900000Y-23425000D01*
X20212500Y-25497500D02*
X20515000Y-25800000D01*
X20212500Y-24300000D02*
X20212500Y-25497500D01*
X26300000Y-29285000D02*
X23700000Y-29285000D01*
X23700000Y-29285000D02*
X22785000Y-29285000D01*
X22785000Y-29285000D02*
X22000000Y-28500000D01*
X25250000Y-10700000D02*
X23600000Y-10700000D01*
X22800000Y-10700000D02*
X22800000Y-11500000D01*
X23600000Y-11500000D02*
X23600000Y-10700000D01*
X25250000Y-10700000D02*
X26600000Y-10700000D01*
X26600000Y-10700000D02*
X27100000Y-11200000D01*
X27900000Y-11200000D02*
X27900000Y-12000000D01*
X34750000Y-10700000D02*
X36300000Y-10700000D01*
X25700000Y-22250000D02*
X24862806Y-22250000D01*
X24862806Y-22250000D02*
X24406403Y-22706403D01*
X24400000Y-23500000D02*
X25200000Y-23500000D01*
X34200000Y-22250000D02*
X35050000Y-22250000D01*
X35050000Y-22250000D02*
X35500000Y-22700000D01*
X35500000Y-23500000D02*
X34700000Y-23500000D01*
X27914213Y-42000000D02*
X33000000Y-42000000D01*
X26500000Y-42000000D02*
X27914213Y-42000000D01*
X34715000Y-40285000D02*
X36000000Y-40285000D01*
X33000000Y-42000000D02*
X34715000Y-40285000D01*
X10050000Y-44450000D02*
X10500000Y-44900000D01*
X8600000Y-44450000D02*
X10050000Y-44450000D01*
X21787500Y-20300000D02*
X21787500Y-18600000D01*
X22225000Y-18600000D02*
X25250000Y-18600000D01*
X21787500Y-18600000D02*
X22225000Y-18600000D01*
X21787500Y-25497500D02*
X21485000Y-25800000D01*
X21787500Y-24300000D02*
X21787500Y-25497500D01*
X25250000Y-20837500D02*
X25250000Y-20000000D01*
X21787500Y-24300000D02*
X25250000Y-20837500D01*
X44230000Y-38810000D02*
X44230000Y-40080000D01*
X11375000Y-42100000D02*
X12000000Y-42725000D01*
X10500000Y-42100000D02*
X11375000Y-42100000D01*
X12000000Y-46800000D02*
X13300000Y-48100000D01*
X12000000Y-42725000D02*
X12000000Y-46800000D01*
X53000000Y-41625000D02*
X53000000Y-40962500D01*
X46525000Y-48100000D02*
X53000000Y-41625000D01*
X49000000Y-40962500D02*
X51000000Y-40962500D01*
X53000000Y-40962500D02*
X51000000Y-40962500D01*
X55000000Y-40962500D02*
X53000000Y-40962500D01*
X13300000Y-48100000D02*
X42000000Y-48100000D01*
X42000000Y-48100000D02*
X46525000Y-48100000D01*
X10500000Y-36803232D02*
X10500000Y-41475000D01*
X21485000Y-25818232D02*
X10500000Y-36803232D01*
X10500000Y-41475000D02*
X10500000Y-42100000D01*
X21485000Y-25800000D02*
X21485000Y-25818232D01*
X53000000Y-42800000D02*
X53000000Y-40962500D01*
X10050000Y-42550000D02*
X10500000Y-42100000D01*
X8600000Y-42550000D02*
X10050000Y-42550000D01*
X26500000Y-23750000D02*
X23750000Y-26500000D01*
X26500000Y-22250000D02*
X26500000Y-23750000D01*
X23700000Y-26550000D02*
X23750000Y-26500000D01*
X23700000Y-28315000D02*
X23700000Y-26550000D01*
X26300000Y-26550000D02*
X26250000Y-26500000D01*
X26300000Y-28315000D02*
X26300000Y-26550000D01*
X27200000Y-23300000D02*
X27200000Y-22250000D01*
X27200000Y-24400000D02*
X27200000Y-23300000D01*
X26250000Y-25350000D02*
X27200000Y-24400000D01*
X26250000Y-26500000D02*
X26250000Y-25350000D01*
X53000000Y-36600000D02*
X53000000Y-39037500D01*
X51000000Y-39037500D02*
X51000000Y-36600000D01*
X49000000Y-36600000D02*
X49000000Y-39037500D01*
X55000000Y-39037500D02*
X55000000Y-36600000D01*
X44520000Y-13660000D02*
X44520000Y-14760000D01*
X43160000Y-12300000D02*
X44520000Y-13660000D01*
X34750000Y-12300000D02*
X43160000Y-12300000D01*
X37598002Y-15100000D02*
X38498002Y-16000000D01*
X34750000Y-15100000D02*
X37598002Y-15100000D01*
X43220000Y-16000000D02*
X44520000Y-17300000D01*
X38498002Y-16000000D02*
X43220000Y-16000000D01*
X40169999Y-12949999D02*
X41130001Y-13910001D01*
X41130001Y-13910001D02*
X41980000Y-14760000D01*
X35850001Y-12949999D02*
X40169999Y-12949999D01*
X35800000Y-13000000D02*
X35850001Y-12949999D01*
X34750000Y-13000000D02*
X35800000Y-13000000D01*
X39080000Y-14400000D02*
X39440000Y-14760000D01*
X34750000Y-14400000D02*
X39080000Y-14400000D01*
X15000000Y-40080000D02*
X17420000Y-40080000D01*
X30000000Y-23300000D02*
X30000000Y-22250000D01*
X30075001Y-23375001D02*
X30000000Y-23300000D01*
X30075001Y-27424999D02*
X30075001Y-23375001D01*
X17420000Y-40080000D02*
X30075001Y-27424999D01*
X30700000Y-22250000D02*
X30700000Y-27700000D01*
X17050000Y-41350000D02*
X15000000Y-41350000D01*
X30700000Y-27700000D02*
X17050000Y-41350000D01*
X31400000Y-23300000D02*
X31400000Y-22250000D01*
X31400000Y-27636410D02*
X31400000Y-23300000D01*
X16416410Y-42620000D02*
X31400000Y-27636410D01*
X15000000Y-42620000D02*
X16416410Y-42620000D01*
X15707106Y-43890000D02*
X15000000Y-43890000D01*
X15782820Y-43890000D02*
X15707106Y-43890000D01*
X32100000Y-27572820D02*
X15782820Y-43890000D01*
X32100000Y-22250000D02*
X32100000Y-27572820D01*
X32800000Y-23300000D02*
X32800000Y-22250000D01*
X32800000Y-28067106D02*
X32800000Y-23300000D01*
X15707106Y-45160000D02*
X32800000Y-28067106D01*
X15000000Y-45160000D02*
X15707106Y-45160000D01*
X15499999Y-45930001D02*
X15000000Y-46430000D01*
X16108997Y-45930001D02*
X15499999Y-45930001D01*
X33500000Y-28538998D02*
X16108997Y-45930001D01*
X33500000Y-22250000D02*
X33500000Y-28538998D01*
X36862346Y-21760654D02*
X46901692Y-31800000D01*
X36862346Y-21062346D02*
X36862346Y-21760654D01*
X34750000Y-20000000D02*
X35800000Y-20000000D01*
X35800000Y-20000000D02*
X36862346Y-21062346D01*
X46901692Y-43758308D02*
X45500000Y-45160000D01*
X46901692Y-31800000D02*
X46901692Y-43758308D01*
X36412336Y-21312336D02*
X36412337Y-21947055D01*
X34750000Y-20700000D02*
X35800000Y-20700000D01*
X35800000Y-20700000D02*
X36412336Y-21312336D01*
X36412337Y-21947055D02*
X42000000Y-27534718D01*
X42000000Y-41660000D02*
X44230000Y-43890000D01*
X42000000Y-27534718D02*
X42000000Y-41660000D01*
X20212500Y-22137500D02*
X20050000Y-22300000D01*
X20212500Y-20300000D02*
X20212500Y-22137500D01*
X24200000Y-19300000D02*
X25250000Y-19300000D01*
X24050000Y-19300000D02*
X24200000Y-19300000D01*
X21950000Y-21400000D02*
X24050000Y-19300000D01*
X21950000Y-22300000D02*
X21950000Y-21400000D01*
X5900000Y-43500000D02*
X6600000Y-43500000D01*
X5000000Y-42600000D02*
X5900000Y-43500000D01*
X5000000Y-39700000D02*
X5000000Y-42600000D01*
X26500000Y-37500000D02*
X33000000Y-37500000D01*
X34815000Y-39315000D02*
X33000000Y-37500000D01*
X36000000Y-39315000D02*
X34815000Y-39315000D01*
X34750000Y-15800000D02*
X35972820Y-15800000D01*
X35972820Y-15800000D02*
X40372820Y-20200000D01*
X49600000Y-14760000D02*
X47400000Y-16960000D01*
X47400000Y-18400000D02*
X45600000Y-20200000D01*
X47400000Y-16960000D02*
X47400000Y-18400000D01*
X40372820Y-20200000D02*
X45600000Y-20200000D01*
X34750000Y-15800000D02*
X37225000Y-15800000D01*
X37225000Y-15800000D02*
X37725000Y-16300000D01*
X37663499Y-21163499D02*
X37663499Y-21536501D01*
X34750000Y-19300000D02*
X35800000Y-19300000D01*
X35800000Y-19300000D02*
X37663499Y-21163499D01*
X11500000Y-27460000D02*
X18449990Y-20510010D01*
X18449991Y-18913599D02*
X19763590Y-17600000D01*
X18449990Y-20510010D02*
X18449991Y-18913599D01*
X23900000Y-17600000D02*
X24200000Y-17900000D01*
X24200000Y-17900000D02*
X25250000Y-17900000D01*
X19763590Y-17600000D02*
X23900000Y-17600000D01*
X12349999Y-24070001D02*
X11500000Y-24920000D01*
X19270009Y-17149991D02*
X12349999Y-24070001D01*
X24149991Y-17149991D02*
X19270009Y-17149991D01*
X24200000Y-17200000D02*
X24149991Y-17149991D01*
X25250000Y-17200000D02*
X24200000Y-17200000D01*
X17380000Y-16500000D02*
X25250000Y-16500000D01*
X11500000Y-22380000D02*
X17380000Y-16500000D01*
X17443590Y-15800000D02*
X24200000Y-15800000D01*
X14253589Y-18990001D02*
X17443590Y-15800000D01*
X12349999Y-18990001D02*
X14253589Y-18990001D01*
X24200000Y-15800000D02*
X25250000Y-15800000D01*
X11500000Y-19840000D02*
X12349999Y-18990001D01*
X13700000Y-15100000D02*
X25250000Y-15100000D01*
X11500000Y-17300000D02*
X13700000Y-15100000D01*
X11860000Y-14400000D02*
X11500000Y-14760000D01*
X25250000Y-14400000D02*
X11860000Y-14400000D01*
X12980000Y-13700000D02*
X11500000Y-12220000D01*
X25250000Y-13700000D02*
X12980000Y-13700000D01*
X48980000Y-11600000D02*
X49600000Y-12220000D01*
X34750000Y-11600000D02*
X48980000Y-11600000D01*
X34750000Y-16500000D02*
X36036410Y-16500000D01*
X36036410Y-16500000D02*
X40336410Y-20800000D01*
X46100000Y-20800000D02*
X49600000Y-17300000D01*
X40336410Y-20800000D02*
X46100000Y-20800000D01*
X53450010Y-21150010D02*
X50449999Y-18149999D01*
X50449999Y-18149999D02*
X49600000Y-17300000D01*
X53450010Y-32000010D02*
X53450010Y-21150010D01*
X55000000Y-33550000D02*
X53450010Y-32000010D01*
X55000000Y-34400000D02*
X55000000Y-33550000D01*
X36100000Y-17200000D02*
X40300000Y-21400000D01*
X34750000Y-17200000D02*
X36100000Y-17200000D01*
X48040000Y-21400000D02*
X49600000Y-19840000D01*
X40300000Y-21400000D02*
X48040000Y-21400000D01*
X53000000Y-23240000D02*
X49600000Y-19840000D01*
X53000000Y-34400000D02*
X53000000Y-23240000D01*
X40280000Y-22380000D02*
X49600000Y-22380000D01*
X34750000Y-17900000D02*
X35800000Y-17900000D01*
X35800000Y-17900000D02*
X40280000Y-22380000D01*
X52450010Y-25230010D02*
X50449999Y-23229999D01*
X50449999Y-23229999D02*
X49600000Y-22380000D01*
X52450010Y-32099990D02*
X52450010Y-25230010D01*
X51000000Y-33550000D02*
X52450010Y-32099990D01*
X51000000Y-34400000D02*
X51000000Y-33550000D01*
X48397919Y-24920000D02*
X49600000Y-24920000D01*
X42120000Y-24920000D02*
X48397919Y-24920000D01*
X35800000Y-18600000D02*
X42120000Y-24920000D01*
X34750000Y-18600000D02*
X35800000Y-18600000D01*
X49000000Y-33550000D02*
X52000000Y-30550000D01*
X49000000Y-34400000D02*
X49000000Y-33550000D01*
X52000000Y-27320000D02*
X49600000Y-24920000D01*
X52000000Y-30550000D02*
X52000000Y-27320000D01*
X34750000Y-13700000D02*
X36975000Y-13700000D01*
X36975000Y-13700000D02*
X37000000Y-13675000D01*
X27900000Y-22250000D02*
X27900000Y-28300000D01*
X27900000Y-28300000D02*
X28000000Y-28400000D01*
X28600000Y-22250000D02*
X28600000Y-27475000D01*
X28600000Y-27475000D02*
X28625000Y-27500000D01*
X29300000Y-22250000D02*
X29300000Y-26575000D01*
X29300000Y-26575000D02*
X29325000Y-26600000D01*
D28*
G36*
X28873000Y-13400000D02*
G01*
X28875440Y-13424776D01*
X28882667Y-13448601D01*
X28894403Y-13470557D01*
X28910197Y-13489803D01*
X28929443Y-13505597D01*
X28951399Y-13517333D01*
X28975224Y-13524560D01*
X29000000Y-13527000D01*
X32187580Y-13527000D01*
X32300000Y-13538072D01*
X33311928Y-13538072D01*
X33311928Y-13950000D01*
X33321777Y-14050000D01*
X33311928Y-14150000D01*
X33311928Y-14650000D01*
X33321777Y-14750000D01*
X33311928Y-14850000D01*
X33311928Y-15350000D01*
X33321777Y-15450000D01*
X33311928Y-15550000D01*
X33311928Y-16050000D01*
X33321777Y-16150000D01*
X33311928Y-16250000D01*
X33311928Y-16750000D01*
X33321777Y-16850000D01*
X33311928Y-16950000D01*
X33311928Y-17450000D01*
X33321777Y-17550000D01*
X33311928Y-17650000D01*
X33311928Y-18150000D01*
X33321777Y-18250000D01*
X33311928Y-18350000D01*
X33311928Y-18850000D01*
X33321777Y-18950000D01*
X33311928Y-19050000D01*
X33311928Y-19550000D01*
X33321777Y-19650000D01*
X33311928Y-19750000D01*
X33311928Y-20250000D01*
X33321777Y-20350000D01*
X33311928Y-20450000D01*
X33311928Y-20811928D01*
X33250000Y-20811928D01*
X33150000Y-20821777D01*
X33050000Y-20811928D01*
X32550000Y-20811928D01*
X32450000Y-20821777D01*
X32350000Y-20811928D01*
X31850000Y-20811928D01*
X31750000Y-20821777D01*
X31650000Y-20811928D01*
X31150000Y-20811928D01*
X31050000Y-20821777D01*
X30950000Y-20811928D01*
X30450000Y-20811928D01*
X30350000Y-20821777D01*
X30250000Y-20811928D01*
X29750000Y-20811928D01*
X29650000Y-20821777D01*
X29550000Y-20811928D01*
X29050000Y-20811928D01*
X28950000Y-20821777D01*
X28850000Y-20811928D01*
X28350000Y-20811928D01*
X28250000Y-20821777D01*
X28150000Y-20811928D01*
X27650000Y-20811928D01*
X27550000Y-20821777D01*
X27450000Y-20811928D01*
X26950000Y-20811928D01*
X26850000Y-20821777D01*
X26750000Y-20811928D01*
X26345767Y-20811928D01*
X26404494Y-20780537D01*
X26501185Y-20701185D01*
X26580537Y-20604494D01*
X26639502Y-20494180D01*
X26675812Y-20374482D01*
X26688072Y-20250000D01*
X26688072Y-19750000D01*
X26678223Y-19650000D01*
X26688072Y-19550000D01*
X26688072Y-19050000D01*
X26678223Y-18950000D01*
X26688072Y-18850000D01*
X26688072Y-18350000D01*
X26678223Y-18250000D01*
X26688072Y-18150000D01*
X26688072Y-17650000D01*
X26678223Y-17550000D01*
X26688072Y-17450000D01*
X26688072Y-16950000D01*
X26678223Y-16850000D01*
X26688072Y-16750000D01*
X26688072Y-16250000D01*
X26678223Y-16150000D01*
X26688072Y-16050000D01*
X26688072Y-15550000D01*
X26678223Y-15450000D01*
X26688072Y-15350000D01*
X26688072Y-14850000D01*
X26678223Y-14750000D01*
X26688072Y-14650000D01*
X26688072Y-14150000D01*
X26678223Y-14050000D01*
X26688072Y-13950000D01*
X26688072Y-13450000D01*
X26675812Y-13325518D01*
X26639502Y-13205820D01*
X26580537Y-13095506D01*
X26501185Y-12998815D01*
X26404494Y-12919463D01*
X26294180Y-12860498D01*
X26174482Y-12824188D01*
X26050000Y-12811928D01*
X24450000Y-12811928D01*
X24325518Y-12824188D01*
X24205820Y-12860498D01*
X24095506Y-12919463D01*
X24070482Y-12940000D01*
X13294802Y-12940000D01*
X12941210Y-12586408D01*
X12985000Y-12366260D01*
X12985000Y-12073740D01*
X12927932Y-11786842D01*
X12815990Y-11516589D01*
X12653475Y-11273368D01*
X12530107Y-11150000D01*
X23811928Y-11150000D01*
X23824188Y-11274482D01*
X23860498Y-11394180D01*
X23919463Y-11504494D01*
X23998815Y-11601185D01*
X24095506Y-11680537D01*
X24205820Y-11739502D01*
X24325518Y-11775812D01*
X24450000Y-11788072D01*
X24964250Y-11785000D01*
X25123000Y-11626250D01*
X25123000Y-10827000D01*
X25377000Y-10827000D01*
X25377000Y-11626250D01*
X25535750Y-11785000D01*
X26050000Y-11788072D01*
X26174482Y-11775812D01*
X26294180Y-11739502D01*
X26404494Y-11680537D01*
X26501185Y-11601185D01*
X26580537Y-11504494D01*
X26639502Y-11394180D01*
X26675812Y-11274482D01*
X26688072Y-11150000D01*
X26685000Y-10985750D01*
X26526250Y-10827000D01*
X25377000Y-10827000D01*
X25123000Y-10827000D01*
X23973750Y-10827000D01*
X23815000Y-10985750D01*
X23811928Y-11150000D01*
X12530107Y-11150000D01*
X12446632Y-11066525D01*
X12203411Y-10904010D01*
X11933158Y-10792068D01*
X11646260Y-10735000D01*
X11353740Y-10735000D01*
X11066842Y-10792068D01*
X10796589Y-10904010D01*
X10553368Y-11066525D01*
X10346525Y-11273368D01*
X10184010Y-11516589D01*
X10072068Y-11786842D01*
X10015000Y-12073740D01*
X10015000Y-12366260D01*
X10072068Y-12653158D01*
X10184010Y-12923411D01*
X10346525Y-13166632D01*
X10553368Y-13373475D01*
X10727760Y-13490000D01*
X10553368Y-13606525D01*
X10346525Y-13813368D01*
X10184010Y-14056589D01*
X10072068Y-14326842D01*
X10015000Y-14613740D01*
X10015000Y-14906260D01*
X10072068Y-15193158D01*
X10184010Y-15463411D01*
X10346525Y-15706632D01*
X10553368Y-15913475D01*
X10727760Y-16030000D01*
X10553368Y-16146525D01*
X10346525Y-16353368D01*
X10184010Y-16596589D01*
X10072068Y-16866842D01*
X10015000Y-17153740D01*
X10015000Y-17446260D01*
X10072068Y-17733158D01*
X10184010Y-18003411D01*
X10346525Y-18246632D01*
X10553368Y-18453475D01*
X10727760Y-18570000D01*
X10553368Y-18686525D01*
X10346525Y-18893368D01*
X10184010Y-19136589D01*
X10072068Y-19406842D01*
X10015000Y-19693740D01*
X10015000Y-19986260D01*
X10072068Y-20273158D01*
X10184010Y-20543411D01*
X10346525Y-20786632D01*
X10553368Y-20993475D01*
X10727760Y-21110000D01*
X10553368Y-21226525D01*
X10346525Y-21433368D01*
X10184010Y-21676589D01*
X10072068Y-21946842D01*
X10015000Y-22233740D01*
X10015000Y-22526260D01*
X10072068Y-22813158D01*
X10184010Y-23083411D01*
X10346525Y-23326632D01*
X10553368Y-23533475D01*
X10727760Y-23650000D01*
X10553368Y-23766525D01*
X10346525Y-23973368D01*
X10184010Y-24216589D01*
X10072068Y-24486842D01*
X10015000Y-24773740D01*
X10015000Y-25066260D01*
X10072068Y-25353158D01*
X10184010Y-25623411D01*
X10346525Y-25866632D01*
X10553368Y-26073475D01*
X10727760Y-26190000D01*
X10553368Y-26306525D01*
X10346525Y-26513368D01*
X10184010Y-26756589D01*
X10072068Y-27026842D01*
X10015000Y-27313740D01*
X10015000Y-27606260D01*
X10072068Y-27893158D01*
X10184010Y-28163411D01*
X10346525Y-28406632D01*
X10478380Y-28538487D01*
X10405820Y-28560498D01*
X10295506Y-28619463D01*
X10198815Y-28698815D01*
X10119463Y-28795506D01*
X10060498Y-28905820D01*
X10024188Y-29025518D01*
X10011928Y-29150000D01*
X10011928Y-30850000D01*
X10024188Y-30974482D01*
X10060498Y-31094180D01*
X10119463Y-31204494D01*
X10198815Y-31301185D01*
X10295506Y-31380537D01*
X10405820Y-31439502D01*
X10525518Y-31475812D01*
X10650000Y-31488072D01*
X12350000Y-31488072D01*
X12474482Y-31475812D01*
X12594180Y-31439502D01*
X12704494Y-31380537D01*
X12801185Y-31301185D01*
X12880537Y-31204494D01*
X12939502Y-31094180D01*
X12975812Y-30974482D01*
X12988072Y-30850000D01*
X12988072Y-29150000D01*
X12975812Y-29025518D01*
X12939502Y-28905820D01*
X12880537Y-28795506D01*
X12801185Y-28698815D01*
X12704494Y-28619463D01*
X12594180Y-28560498D01*
X12521620Y-28538487D01*
X12653475Y-28406632D01*
X12815990Y-28163411D01*
X12927932Y-27893158D01*
X12985000Y-27606260D01*
X12985000Y-27313740D01*
X12941209Y-27093592D01*
X18960997Y-21073805D01*
X18989990Y-21050011D01*
X19013784Y-21021018D01*
X19013789Y-21021013D01*
X19084964Y-20934287D01*
X19155536Y-20802257D01*
X19166423Y-20766366D01*
X19202150Y-20884142D01*
X19281329Y-21032275D01*
X19350633Y-21116723D01*
X19345506Y-21119463D01*
X19248815Y-21198815D01*
X19169463Y-21295506D01*
X19110498Y-21405820D01*
X19074188Y-21525518D01*
X19061928Y-21650000D01*
X19061928Y-22950000D01*
X19074188Y-23074482D01*
X19110498Y-23194180D01*
X19169463Y-23304494D01*
X19248815Y-23401185D01*
X19280209Y-23426949D01*
X19244463Y-23470506D01*
X19185498Y-23580820D01*
X19149188Y-23700518D01*
X19136928Y-23825000D01*
X19140000Y-24014250D01*
X19298750Y-24173000D01*
X20085500Y-24173000D01*
X20085500Y-24153000D01*
X20339500Y-24153000D01*
X20339500Y-24173000D01*
X20359500Y-24173000D01*
X20359500Y-24427000D01*
X20339500Y-24427000D01*
X20339500Y-24447000D01*
X20085500Y-24447000D01*
X20085500Y-24427000D01*
X19298750Y-24427000D01*
X19140000Y-24585750D01*
X19136928Y-24775000D01*
X19149188Y-24899482D01*
X19185498Y-25019180D01*
X19244463Y-25129494D01*
X19323815Y-25226185D01*
X19420506Y-25305537D01*
X19530820Y-25364502D01*
X19591491Y-25382906D01*
X19581928Y-25480000D01*
X19585000Y-25514250D01*
X19743750Y-25673000D01*
X20388000Y-25673000D01*
X20388000Y-25653000D01*
X20551928Y-25653000D01*
X20551928Y-25676502D01*
X20301430Y-25927000D01*
X19743750Y-25927000D01*
X19585000Y-26085750D01*
X19581928Y-26120000D01*
X19594188Y-26244482D01*
X19630498Y-26364180D01*
X19689463Y-26474494D01*
X19718524Y-26509906D01*
X9989003Y-36239428D01*
X9959999Y-36263231D01*
X9904871Y-36330406D01*
X9865026Y-36378956D01*
X9822911Y-36457748D01*
X9794454Y-36510986D01*
X9750997Y-36654247D01*
X9740000Y-36765900D01*
X9740000Y-36765910D01*
X9736324Y-36803232D01*
X9740000Y-36840555D01*
X9740001Y-40850224D01*
X9701746Y-40853992D01*
X9535150Y-40904528D01*
X9381614Y-40986595D01*
X9247038Y-41097038D01*
X9136595Y-41231614D01*
X9054528Y-41385150D01*
X9016071Y-41511928D01*
X8150000Y-41511928D01*
X8025518Y-41524188D01*
X7905820Y-41560498D01*
X7795506Y-41619463D01*
X7698815Y-41698815D01*
X7619463Y-41795506D01*
X7560498Y-41905820D01*
X7524188Y-42025518D01*
X7511928Y-42150000D01*
X7511928Y-42661905D01*
X7501185Y-42648815D01*
X7404494Y-42569463D01*
X7294180Y-42510498D01*
X7174482Y-42474188D01*
X7050000Y-42461928D01*
X6150000Y-42461928D01*
X6025518Y-42474188D01*
X5966801Y-42492000D01*
X5760000Y-42285199D01*
X5760000Y-41583286D01*
X6019524Y-41557725D01*
X6374848Y-41449939D01*
X6702317Y-41274903D01*
X6989345Y-41039345D01*
X7224903Y-40752317D01*
X7399939Y-40424848D01*
X7507725Y-40069524D01*
X7544120Y-39700000D01*
X7507725Y-39330476D01*
X7399939Y-38975152D01*
X7224903Y-38647683D01*
X6989345Y-38360655D01*
X6702317Y-38125097D01*
X6374848Y-37950061D01*
X6019524Y-37842275D01*
X5742597Y-37815000D01*
X4257403Y-37815000D01*
X3980476Y-37842275D01*
X3625152Y-37950061D01*
X3297683Y-38125097D01*
X3010655Y-38360655D01*
X2775097Y-38647683D01*
X2600061Y-38975152D01*
X2492275Y-39330476D01*
X2455880Y-39700000D01*
X2492275Y-40069524D01*
X2600061Y-40424848D01*
X2775097Y-40752317D01*
X3010655Y-41039345D01*
X3297683Y-41274903D01*
X3625152Y-41449939D01*
X3980476Y-41557725D01*
X4240001Y-41583286D01*
X4240001Y-42562668D01*
X4236324Y-42600000D01*
X4240001Y-42637333D01*
X4250998Y-42748986D01*
X4257065Y-42768985D01*
X4294454Y-42892246D01*
X4365026Y-43024276D01*
X4429603Y-43102962D01*
X4460000Y-43140001D01*
X4488998Y-43163799D01*
X5336201Y-44011003D01*
X5359999Y-44040001D01*
X5475724Y-44134974D01*
X5587518Y-44194730D01*
X5619463Y-44254494D01*
X5698815Y-44351185D01*
X5795506Y-44430537D01*
X5905820Y-44489502D01*
X6025518Y-44525812D01*
X6150000Y-44538072D01*
X7050000Y-44538072D01*
X7174482Y-44525812D01*
X7294180Y-44489502D01*
X7404494Y-44430537D01*
X7501185Y-44351185D01*
X7580537Y-44254494D01*
X7589143Y-44238393D01*
X7673750Y-44323000D01*
X8473000Y-44323000D01*
X8473000Y-44303000D01*
X8727000Y-44303000D01*
X8727000Y-44323000D01*
X8747000Y-44323000D01*
X8747000Y-44577000D01*
X8727000Y-44577000D01*
X8727000Y-45326250D01*
X8885750Y-45485000D01*
X8987273Y-45486899D01*
X8986928Y-45525000D01*
X8999188Y-45649482D01*
X9035498Y-45769180D01*
X9094463Y-45879494D01*
X9173815Y-45976185D01*
X9270506Y-46055537D01*
X9380820Y-46114502D01*
X9500518Y-46150812D01*
X9625000Y-46163072D01*
X10214250Y-46160000D01*
X10373000Y-46001250D01*
X10373000Y-45027000D01*
X10353000Y-45027000D01*
X10353000Y-44773000D01*
X10373000Y-44773000D01*
X10373000Y-43798750D01*
X10214250Y-43640000D01*
X9625000Y-43636928D01*
X9539384Y-43645360D01*
X9501185Y-43598815D01*
X9404494Y-43519463D01*
X9368082Y-43500000D01*
X9404494Y-43480537D01*
X9501185Y-43401185D01*
X9576018Y-43310000D01*
X9583043Y-43310000D01*
X9701746Y-43346008D01*
X9875000Y-43363072D01*
X11125000Y-43363072D01*
X11240000Y-43351745D01*
X11240000Y-43637632D01*
X10785750Y-43640000D01*
X10627000Y-43798750D01*
X10627000Y-44773000D01*
X10647000Y-44773000D01*
X10647000Y-45027000D01*
X10627000Y-45027000D01*
X10627000Y-46001250D01*
X10785750Y-46160000D01*
X11240001Y-46162368D01*
X11240001Y-46762668D01*
X11236324Y-46800000D01*
X11250998Y-46948985D01*
X11294454Y-47092246D01*
X11365026Y-47224276D01*
X11423941Y-47296063D01*
X11460000Y-47340001D01*
X11488998Y-47363799D01*
X12465198Y-48340000D01*
X660000Y-48340000D01*
X660000Y-45804495D01*
X1015000Y-45804495D01*
X1015000Y-46195505D01*
X1091282Y-46579003D01*
X1240915Y-46940250D01*
X1458149Y-47265364D01*
X1734636Y-47541851D01*
X2059750Y-47759085D01*
X2420997Y-47908718D01*
X2804495Y-47985000D01*
X3195505Y-47985000D01*
X3579003Y-47908718D01*
X3940250Y-47759085D01*
X4265364Y-47541851D01*
X4541851Y-47265364D01*
X4759085Y-46940250D01*
X4908718Y-46579003D01*
X4985000Y-46195505D01*
X4985000Y-45804495D01*
X4908718Y-45420997D01*
X4759085Y-45059750D01*
X4618935Y-44850000D01*
X7511928Y-44850000D01*
X7524188Y-44974482D01*
X7560498Y-45094180D01*
X7619463Y-45204494D01*
X7698815Y-45301185D01*
X7795506Y-45380537D01*
X7905820Y-45439502D01*
X8025518Y-45475812D01*
X8150000Y-45488072D01*
X8314250Y-45485000D01*
X8473000Y-45326250D01*
X8473000Y-44577000D01*
X7673750Y-44577000D01*
X7515000Y-44735750D01*
X7511928Y-44850000D01*
X4618935Y-44850000D01*
X4541851Y-44734636D01*
X4265364Y-44458149D01*
X3940250Y-44240915D01*
X3579003Y-44091282D01*
X3195505Y-44015000D01*
X2804495Y-44015000D01*
X2420997Y-44091282D01*
X2059750Y-44240915D01*
X1734636Y-44458149D01*
X1458149Y-44734636D01*
X1240915Y-45059750D01*
X1091282Y-45420997D01*
X1015000Y-45804495D01*
X660000Y-45804495D01*
X660000Y-30300000D01*
X2455880Y-30300000D01*
X2492275Y-30669524D01*
X2600061Y-31024848D01*
X2775097Y-31352317D01*
X3010655Y-31639345D01*
X3297683Y-31874903D01*
X3625152Y-32049939D01*
X3980476Y-32157725D01*
X4257403Y-32185000D01*
X5742597Y-32185000D01*
X6019524Y-32157725D01*
X6374848Y-32049939D01*
X6465011Y-32001746D01*
X6465011Y-33298254D01*
X6374848Y-33250061D01*
X6019524Y-33142275D01*
X5742597Y-33115000D01*
X4257403Y-33115000D01*
X3980476Y-33142275D01*
X3625152Y-33250061D01*
X3297683Y-33425097D01*
X3010655Y-33660655D01*
X2775097Y-33947683D01*
X2600061Y-34275152D01*
X2492275Y-34630476D01*
X2455880Y-35000000D01*
X2492275Y-35369524D01*
X2600061Y-35724848D01*
X2775097Y-36052317D01*
X3010655Y-36339345D01*
X3297683Y-36574903D01*
X3625152Y-36749939D01*
X3980476Y-36857725D01*
X4257403Y-36885000D01*
X5742597Y-36885000D01*
X6019524Y-36857725D01*
X6374848Y-36749939D01*
X6702317Y-36574903D01*
X6989345Y-36339345D01*
X7224903Y-36052317D01*
X7399939Y-35724848D01*
X7402100Y-35717724D01*
X7442247Y-35705546D01*
X7574276Y-35634974D01*
X7690001Y-35540001D01*
X7713804Y-35510997D01*
X7736007Y-35488794D01*
X7765011Y-35464991D01*
X7859984Y-35349266D01*
X7930556Y-35217237D01*
X7974013Y-35073976D01*
X7985010Y-34962323D01*
X7985010Y-34962313D01*
X7988686Y-34924991D01*
X7985010Y-34887668D01*
X7985010Y-25692332D01*
X7988686Y-25655009D01*
X7985010Y-25617686D01*
X7985010Y-25617677D01*
X7974013Y-25506024D01*
X7930556Y-25362763D01*
X7899968Y-25305537D01*
X7859984Y-25230733D01*
X7827836Y-25191561D01*
X7908405Y-25093386D01*
X7990472Y-24939850D01*
X8041008Y-24773254D01*
X8058072Y-24600000D01*
X8058072Y-23400000D01*
X8041008Y-23226746D01*
X7990472Y-23060150D01*
X7908405Y-22906614D01*
X7797962Y-22772038D01*
X7663386Y-22661595D01*
X7561407Y-22607086D01*
X7561795Y-22606802D01*
X7758664Y-22392046D01*
X7909854Y-22143009D01*
X8009554Y-21869261D01*
X8011476Y-21856890D01*
X7890155Y-21627000D01*
X6547000Y-21627000D01*
X6547000Y-21647000D01*
X6293000Y-21647000D01*
X6293000Y-21627000D01*
X4949845Y-21627000D01*
X4828524Y-21856890D01*
X4830446Y-21869261D01*
X4930146Y-22143009D01*
X5081336Y-22392046D01*
X5278205Y-22606802D01*
X5278593Y-22607086D01*
X5176614Y-22661595D01*
X5042038Y-22772038D01*
X4931595Y-22906614D01*
X4849528Y-23060150D01*
X4798992Y-23226746D01*
X4781928Y-23400000D01*
X4781928Y-24600000D01*
X4798992Y-24773254D01*
X4849528Y-24939850D01*
X4931595Y-25093386D01*
X5042038Y-25227962D01*
X5176614Y-25338405D01*
X5330150Y-25420472D01*
X5496746Y-25471008D01*
X5670000Y-25488072D01*
X5983271Y-25488072D01*
X6465010Y-25969812D01*
X6465010Y-28598254D01*
X6374848Y-28550061D01*
X6019524Y-28442275D01*
X5742597Y-28415000D01*
X4257403Y-28415000D01*
X3980476Y-28442275D01*
X3625152Y-28550061D01*
X3297683Y-28725097D01*
X3010655Y-28960655D01*
X2775097Y-29247683D01*
X2600061Y-29575152D01*
X2492275Y-29930476D01*
X2455880Y-30300000D01*
X660000Y-30300000D01*
X660000Y-21143110D01*
X4828524Y-21143110D01*
X4949845Y-21373000D01*
X6293000Y-21373000D01*
X6293000Y-20172768D01*
X6547000Y-20172768D01*
X6547000Y-21373000D01*
X7890155Y-21373000D01*
X8011476Y-21143110D01*
X8009554Y-21130739D01*
X7909854Y-20856991D01*
X7758664Y-20607954D01*
X7561795Y-20393198D01*
X7326812Y-20220975D01*
X7062745Y-20097904D01*
X6779742Y-20028715D01*
X6547000Y-20172768D01*
X6293000Y-20172768D01*
X6060258Y-20028715D01*
X5777255Y-20097904D01*
X5513188Y-20220975D01*
X5278205Y-20393198D01*
X5081336Y-20607954D01*
X4930146Y-20856991D01*
X4830446Y-21130739D01*
X4828524Y-21143110D01*
X660000Y-21143110D01*
X660000Y-12804495D01*
X1015000Y-12804495D01*
X1015000Y-13195505D01*
X1091282Y-13579003D01*
X1240915Y-13940250D01*
X1458149Y-14265364D01*
X1734636Y-14541851D01*
X2059750Y-14759085D01*
X2420997Y-14908718D01*
X2804495Y-14985000D01*
X3195505Y-14985000D01*
X3579003Y-14908718D01*
X3940250Y-14759085D01*
X4265364Y-14541851D01*
X4541851Y-14265364D01*
X4759085Y-13940250D01*
X4908718Y-13579003D01*
X4985000Y-13195505D01*
X4985000Y-12804495D01*
X4908718Y-12420997D01*
X4759085Y-12059750D01*
X4541851Y-11734636D01*
X4265364Y-11458149D01*
X3940250Y-11240915D01*
X3579003Y-11091282D01*
X3195505Y-11015000D01*
X2804495Y-11015000D01*
X2420997Y-11091282D01*
X2059750Y-11240915D01*
X1734636Y-11458149D01*
X1458149Y-11734636D01*
X1240915Y-12059750D01*
X1091282Y-12420997D01*
X1015000Y-12804495D01*
X660000Y-12804495D01*
X660000Y-10660000D01*
X28873000Y-10660000D01*
X28873000Y-13400000D01*
G37*
X28873000Y-13400000D02*
X28875440Y-13424776D01*
X28882667Y-13448601D01*
X28894403Y-13470557D01*
X28910197Y-13489803D01*
X28929443Y-13505597D01*
X28951399Y-13517333D01*
X28975224Y-13524560D01*
X29000000Y-13527000D01*
X32187580Y-13527000D01*
X32300000Y-13538072D01*
X33311928Y-13538072D01*
X33311928Y-13950000D01*
X33321777Y-14050000D01*
X33311928Y-14150000D01*
X33311928Y-14650000D01*
X33321777Y-14750000D01*
X33311928Y-14850000D01*
X33311928Y-15350000D01*
X33321777Y-15450000D01*
X33311928Y-15550000D01*
X33311928Y-16050000D01*
X33321777Y-16150000D01*
X33311928Y-16250000D01*
X33311928Y-16750000D01*
X33321777Y-16850000D01*
X33311928Y-16950000D01*
X33311928Y-17450000D01*
X33321777Y-17550000D01*
X33311928Y-17650000D01*
X33311928Y-18150000D01*
X33321777Y-18250000D01*
X33311928Y-18350000D01*
X33311928Y-18850000D01*
X33321777Y-18950000D01*
X33311928Y-19050000D01*
X33311928Y-19550000D01*
X33321777Y-19650000D01*
X33311928Y-19750000D01*
X33311928Y-20250000D01*
X33321777Y-20350000D01*
X33311928Y-20450000D01*
X33311928Y-20811928D01*
X33250000Y-20811928D01*
X33150000Y-20821777D01*
X33050000Y-20811928D01*
X32550000Y-20811928D01*
X32450000Y-20821777D01*
X32350000Y-20811928D01*
X31850000Y-20811928D01*
X31750000Y-20821777D01*
X31650000Y-20811928D01*
X31150000Y-20811928D01*
X31050000Y-20821777D01*
X30950000Y-20811928D01*
X30450000Y-20811928D01*
X30350000Y-20821777D01*
X30250000Y-20811928D01*
X29750000Y-20811928D01*
X29650000Y-20821777D01*
X29550000Y-20811928D01*
X29050000Y-20811928D01*
X28950000Y-20821777D01*
X28850000Y-20811928D01*
X28350000Y-20811928D01*
X28250000Y-20821777D01*
X28150000Y-20811928D01*
X27650000Y-20811928D01*
X27550000Y-20821777D01*
X27450000Y-20811928D01*
X26950000Y-20811928D01*
X26850000Y-20821777D01*
X26750000Y-20811928D01*
X26345767Y-20811928D01*
X26404494Y-20780537D01*
X26501185Y-20701185D01*
X26580537Y-20604494D01*
X26639502Y-20494180D01*
X26675812Y-20374482D01*
X26688072Y-20250000D01*
X26688072Y-19750000D01*
X26678223Y-19650000D01*
X26688072Y-19550000D01*
X26688072Y-19050000D01*
X26678223Y-18950000D01*
X26688072Y-18850000D01*
X26688072Y-18350000D01*
X26678223Y-18250000D01*
X26688072Y-18150000D01*
X26688072Y-17650000D01*
X26678223Y-17550000D01*
X26688072Y-17450000D01*
X26688072Y-16950000D01*
X26678223Y-16850000D01*
X26688072Y-16750000D01*
X26688072Y-16250000D01*
X26678223Y-16150000D01*
X26688072Y-16050000D01*
X26688072Y-15550000D01*
X26678223Y-15450000D01*
X26688072Y-15350000D01*
X26688072Y-14850000D01*
X26678223Y-14750000D01*
X26688072Y-14650000D01*
X26688072Y-14150000D01*
X26678223Y-14050000D01*
X26688072Y-13950000D01*
X26688072Y-13450000D01*
X26675812Y-13325518D01*
X26639502Y-13205820D01*
X26580537Y-13095506D01*
X26501185Y-12998815D01*
X26404494Y-12919463D01*
X26294180Y-12860498D01*
X26174482Y-12824188D01*
X26050000Y-12811928D01*
X24450000Y-12811928D01*
X24325518Y-12824188D01*
X24205820Y-12860498D01*
X24095506Y-12919463D01*
X24070482Y-12940000D01*
X13294802Y-12940000D01*
X12941210Y-12586408D01*
X12985000Y-12366260D01*
X12985000Y-12073740D01*
X12927932Y-11786842D01*
X12815990Y-11516589D01*
X12653475Y-11273368D01*
X12530107Y-11150000D01*
X23811928Y-11150000D01*
X23824188Y-11274482D01*
X23860498Y-11394180D01*
X23919463Y-11504494D01*
X23998815Y-11601185D01*
X24095506Y-11680537D01*
X24205820Y-11739502D01*
X24325518Y-11775812D01*
X24450000Y-11788072D01*
X24964250Y-11785000D01*
X25123000Y-11626250D01*
X25123000Y-10827000D01*
X25377000Y-10827000D01*
X25377000Y-11626250D01*
X25535750Y-11785000D01*
X26050000Y-11788072D01*
X26174482Y-11775812D01*
X26294180Y-11739502D01*
X26404494Y-11680537D01*
X26501185Y-11601185D01*
X26580537Y-11504494D01*
X26639502Y-11394180D01*
X26675812Y-11274482D01*
X26688072Y-11150000D01*
X26685000Y-10985750D01*
X26526250Y-10827000D01*
X25377000Y-10827000D01*
X25123000Y-10827000D01*
X23973750Y-10827000D01*
X23815000Y-10985750D01*
X23811928Y-11150000D01*
X12530107Y-11150000D01*
X12446632Y-11066525D01*
X12203411Y-10904010D01*
X11933158Y-10792068D01*
X11646260Y-10735000D01*
X11353740Y-10735000D01*
X11066842Y-10792068D01*
X10796589Y-10904010D01*
X10553368Y-11066525D01*
X10346525Y-11273368D01*
X10184010Y-11516589D01*
X10072068Y-11786842D01*
X10015000Y-12073740D01*
X10015000Y-12366260D01*
X10072068Y-12653158D01*
X10184010Y-12923411D01*
X10346525Y-13166632D01*
X10553368Y-13373475D01*
X10727760Y-13490000D01*
X10553368Y-13606525D01*
X10346525Y-13813368D01*
X10184010Y-14056589D01*
X10072068Y-14326842D01*
X10015000Y-14613740D01*
X10015000Y-14906260D01*
X10072068Y-15193158D01*
X10184010Y-15463411D01*
X10346525Y-15706632D01*
X10553368Y-15913475D01*
X10727760Y-16030000D01*
X10553368Y-16146525D01*
X10346525Y-16353368D01*
X10184010Y-16596589D01*
X10072068Y-16866842D01*
X10015000Y-17153740D01*
X10015000Y-17446260D01*
X10072068Y-17733158D01*
X10184010Y-18003411D01*
X10346525Y-18246632D01*
X10553368Y-18453475D01*
X10727760Y-18570000D01*
X10553368Y-18686525D01*
X10346525Y-18893368D01*
X10184010Y-19136589D01*
X10072068Y-19406842D01*
X10015000Y-19693740D01*
X10015000Y-19986260D01*
X10072068Y-20273158D01*
X10184010Y-20543411D01*
X10346525Y-20786632D01*
X10553368Y-20993475D01*
X10727760Y-21110000D01*
X10553368Y-21226525D01*
X10346525Y-21433368D01*
X10184010Y-21676589D01*
X10072068Y-21946842D01*
X10015000Y-22233740D01*
X10015000Y-22526260D01*
X10072068Y-22813158D01*
X10184010Y-23083411D01*
X10346525Y-23326632D01*
X10553368Y-23533475D01*
X10727760Y-23650000D01*
X10553368Y-23766525D01*
X10346525Y-23973368D01*
X10184010Y-24216589D01*
X10072068Y-24486842D01*
X10015000Y-24773740D01*
X10015000Y-25066260D01*
X10072068Y-25353158D01*
X10184010Y-25623411D01*
X10346525Y-25866632D01*
X10553368Y-26073475D01*
X10727760Y-26190000D01*
X10553368Y-26306525D01*
X10346525Y-26513368D01*
X10184010Y-26756589D01*
X10072068Y-27026842D01*
X10015000Y-27313740D01*
X10015000Y-27606260D01*
X10072068Y-27893158D01*
X10184010Y-28163411D01*
X10346525Y-28406632D01*
X10478380Y-28538487D01*
X10405820Y-28560498D01*
X10295506Y-28619463D01*
X10198815Y-28698815D01*
X10119463Y-28795506D01*
X10060498Y-28905820D01*
X10024188Y-29025518D01*
X10011928Y-29150000D01*
X10011928Y-30850000D01*
X10024188Y-30974482D01*
X10060498Y-31094180D01*
X10119463Y-31204494D01*
X10198815Y-31301185D01*
X10295506Y-31380537D01*
X10405820Y-31439502D01*
X10525518Y-31475812D01*
X10650000Y-31488072D01*
X12350000Y-31488072D01*
X12474482Y-31475812D01*
X12594180Y-31439502D01*
X12704494Y-31380537D01*
X12801185Y-31301185D01*
X12880537Y-31204494D01*
X12939502Y-31094180D01*
X12975812Y-30974482D01*
X12988072Y-30850000D01*
X12988072Y-29150000D01*
X12975812Y-29025518D01*
X12939502Y-28905820D01*
X12880537Y-28795506D01*
X12801185Y-28698815D01*
X12704494Y-28619463D01*
X12594180Y-28560498D01*
X12521620Y-28538487D01*
X12653475Y-28406632D01*
X12815990Y-28163411D01*
X12927932Y-27893158D01*
X12985000Y-27606260D01*
X12985000Y-27313740D01*
X12941209Y-27093592D01*
X18960997Y-21073805D01*
X18989990Y-21050011D01*
X19013784Y-21021018D01*
X19013789Y-21021013D01*
X19084964Y-20934287D01*
X19155536Y-20802257D01*
X19166423Y-20766366D01*
X19202150Y-20884142D01*
X19281329Y-21032275D01*
X19350633Y-21116723D01*
X19345506Y-21119463D01*
X19248815Y-21198815D01*
X19169463Y-21295506D01*
X19110498Y-21405820D01*
X19074188Y-21525518D01*
X19061928Y-21650000D01*
X19061928Y-22950000D01*
X19074188Y-23074482D01*
X19110498Y-23194180D01*
X19169463Y-23304494D01*
X19248815Y-23401185D01*
X19280209Y-23426949D01*
X19244463Y-23470506D01*
X19185498Y-23580820D01*
X19149188Y-23700518D01*
X19136928Y-23825000D01*
X19140000Y-24014250D01*
X19298750Y-24173000D01*
X20085500Y-24173000D01*
X20085500Y-24153000D01*
X20339500Y-24153000D01*
X20339500Y-24173000D01*
X20359500Y-24173000D01*
X20359500Y-24427000D01*
X20339500Y-24427000D01*
X20339500Y-24447000D01*
X20085500Y-24447000D01*
X20085500Y-24427000D01*
X19298750Y-24427000D01*
X19140000Y-24585750D01*
X19136928Y-24775000D01*
X19149188Y-24899482D01*
X19185498Y-25019180D01*
X19244463Y-25129494D01*
X19323815Y-25226185D01*
X19420506Y-25305537D01*
X19530820Y-25364502D01*
X19591491Y-25382906D01*
X19581928Y-25480000D01*
X19585000Y-25514250D01*
X19743750Y-25673000D01*
X20388000Y-25673000D01*
X20388000Y-25653000D01*
X20551928Y-25653000D01*
X20551928Y-25676502D01*
X20301430Y-25927000D01*
X19743750Y-25927000D01*
X19585000Y-26085750D01*
X19581928Y-26120000D01*
X19594188Y-26244482D01*
X19630498Y-26364180D01*
X19689463Y-26474494D01*
X19718524Y-26509906D01*
X9989003Y-36239428D01*
X9959999Y-36263231D01*
X9904871Y-36330406D01*
X9865026Y-36378956D01*
X9822911Y-36457748D01*
X9794454Y-36510986D01*
X9750997Y-36654247D01*
X9740000Y-36765900D01*
X9740000Y-36765910D01*
X9736324Y-36803232D01*
X9740000Y-36840555D01*
X9740001Y-40850224D01*
X9701746Y-40853992D01*
X9535150Y-40904528D01*
X9381614Y-40986595D01*
X9247038Y-41097038D01*
X9136595Y-41231614D01*
X9054528Y-41385150D01*
X9016071Y-41511928D01*
X8150000Y-41511928D01*
X8025518Y-41524188D01*
X7905820Y-41560498D01*
X7795506Y-41619463D01*
X7698815Y-41698815D01*
X7619463Y-41795506D01*
X7560498Y-41905820D01*
X7524188Y-42025518D01*
X7511928Y-42150000D01*
X7511928Y-42661905D01*
X7501185Y-42648815D01*
X7404494Y-42569463D01*
X7294180Y-42510498D01*
X7174482Y-42474188D01*
X7050000Y-42461928D01*
X6150000Y-42461928D01*
X6025518Y-42474188D01*
X5966801Y-42492000D01*
X5760000Y-42285199D01*
X5760000Y-41583286D01*
X6019524Y-41557725D01*
X6374848Y-41449939D01*
X6702317Y-41274903D01*
X6989345Y-41039345D01*
X7224903Y-40752317D01*
X7399939Y-40424848D01*
X7507725Y-40069524D01*
X7544120Y-39700000D01*
X7507725Y-39330476D01*
X7399939Y-38975152D01*
X7224903Y-38647683D01*
X6989345Y-38360655D01*
X6702317Y-38125097D01*
X6374848Y-37950061D01*
X6019524Y-37842275D01*
X5742597Y-37815000D01*
X4257403Y-37815000D01*
X3980476Y-37842275D01*
X3625152Y-37950061D01*
X3297683Y-38125097D01*
X3010655Y-38360655D01*
X2775097Y-38647683D01*
X2600061Y-38975152D01*
X2492275Y-39330476D01*
X2455880Y-39700000D01*
X2492275Y-40069524D01*
X2600061Y-40424848D01*
X2775097Y-40752317D01*
X3010655Y-41039345D01*
X3297683Y-41274903D01*
X3625152Y-41449939D01*
X3980476Y-41557725D01*
X4240001Y-41583286D01*
X4240001Y-42562668D01*
X4236324Y-42600000D01*
X4240001Y-42637333D01*
X4250998Y-42748986D01*
X4257065Y-42768985D01*
X4294454Y-42892246D01*
X4365026Y-43024276D01*
X4429603Y-43102962D01*
X4460000Y-43140001D01*
X4488998Y-43163799D01*
X5336201Y-44011003D01*
X5359999Y-44040001D01*
X5475724Y-44134974D01*
X5587518Y-44194730D01*
X5619463Y-44254494D01*
X5698815Y-44351185D01*
X5795506Y-44430537D01*
X5905820Y-44489502D01*
X6025518Y-44525812D01*
X6150000Y-44538072D01*
X7050000Y-44538072D01*
X7174482Y-44525812D01*
X7294180Y-44489502D01*
X7404494Y-44430537D01*
X7501185Y-44351185D01*
X7580537Y-44254494D01*
X7589143Y-44238393D01*
X7673750Y-44323000D01*
X8473000Y-44323000D01*
X8473000Y-44303000D01*
X8727000Y-44303000D01*
X8727000Y-44323000D01*
X8747000Y-44323000D01*
X8747000Y-44577000D01*
X8727000Y-44577000D01*
X8727000Y-45326250D01*
X8885750Y-45485000D01*
X8987273Y-45486899D01*
X8986928Y-45525000D01*
X8999188Y-45649482D01*
X9035498Y-45769180D01*
X9094463Y-45879494D01*
X9173815Y-45976185D01*
X9270506Y-46055537D01*
X9380820Y-46114502D01*
X9500518Y-46150812D01*
X9625000Y-46163072D01*
X10214250Y-46160000D01*
X10373000Y-46001250D01*
X10373000Y-45027000D01*
X10353000Y-45027000D01*
X10353000Y-44773000D01*
X10373000Y-44773000D01*
X10373000Y-43798750D01*
X10214250Y-43640000D01*
X9625000Y-43636928D01*
X9539384Y-43645360D01*
X9501185Y-43598815D01*
X9404494Y-43519463D01*
X9368082Y-43500000D01*
X9404494Y-43480537D01*
X9501185Y-43401185D01*
X9576018Y-43310000D01*
X9583043Y-43310000D01*
X9701746Y-43346008D01*
X9875000Y-43363072D01*
X11125000Y-43363072D01*
X11240000Y-43351745D01*
X11240000Y-43637632D01*
X10785750Y-43640000D01*
X10627000Y-43798750D01*
X10627000Y-44773000D01*
X10647000Y-44773000D01*
X10647000Y-45027000D01*
X10627000Y-45027000D01*
X10627000Y-46001250D01*
X10785750Y-46160000D01*
X11240001Y-46162368D01*
X11240001Y-46762668D01*
X11236324Y-46800000D01*
X11250998Y-46948985D01*
X11294454Y-47092246D01*
X11365026Y-47224276D01*
X11423941Y-47296063D01*
X11460000Y-47340001D01*
X11488998Y-47363799D01*
X12465198Y-48340000D01*
X660000Y-48340000D01*
X660000Y-45804495D01*
X1015000Y-45804495D01*
X1015000Y-46195505D01*
X1091282Y-46579003D01*
X1240915Y-46940250D01*
X1458149Y-47265364D01*
X1734636Y-47541851D01*
X2059750Y-47759085D01*
X2420997Y-47908718D01*
X2804495Y-47985000D01*
X3195505Y-47985000D01*
X3579003Y-47908718D01*
X3940250Y-47759085D01*
X4265364Y-47541851D01*
X4541851Y-47265364D01*
X4759085Y-46940250D01*
X4908718Y-46579003D01*
X4985000Y-46195505D01*
X4985000Y-45804495D01*
X4908718Y-45420997D01*
X4759085Y-45059750D01*
X4618935Y-44850000D01*
X7511928Y-44850000D01*
X7524188Y-44974482D01*
X7560498Y-45094180D01*
X7619463Y-45204494D01*
X7698815Y-45301185D01*
X7795506Y-45380537D01*
X7905820Y-45439502D01*
X8025518Y-45475812D01*
X8150000Y-45488072D01*
X8314250Y-45485000D01*
X8473000Y-45326250D01*
X8473000Y-44577000D01*
X7673750Y-44577000D01*
X7515000Y-44735750D01*
X7511928Y-44850000D01*
X4618935Y-44850000D01*
X4541851Y-44734636D01*
X4265364Y-44458149D01*
X3940250Y-44240915D01*
X3579003Y-44091282D01*
X3195505Y-44015000D01*
X2804495Y-44015000D01*
X2420997Y-44091282D01*
X2059750Y-44240915D01*
X1734636Y-44458149D01*
X1458149Y-44734636D01*
X1240915Y-45059750D01*
X1091282Y-45420997D01*
X1015000Y-45804495D01*
X660000Y-45804495D01*
X660000Y-30300000D01*
X2455880Y-30300000D01*
X2492275Y-30669524D01*
X2600061Y-31024848D01*
X2775097Y-31352317D01*
X3010655Y-31639345D01*
X3297683Y-31874903D01*
X3625152Y-32049939D01*
X3980476Y-32157725D01*
X4257403Y-32185000D01*
X5742597Y-32185000D01*
X6019524Y-32157725D01*
X6374848Y-32049939D01*
X6465011Y-32001746D01*
X6465011Y-33298254D01*
X6374848Y-33250061D01*
X6019524Y-33142275D01*
X5742597Y-33115000D01*
X4257403Y-33115000D01*
X3980476Y-33142275D01*
X3625152Y-33250061D01*
X3297683Y-33425097D01*
X3010655Y-33660655D01*
X2775097Y-33947683D01*
X2600061Y-34275152D01*
X2492275Y-34630476D01*
X2455880Y-35000000D01*
X2492275Y-35369524D01*
X2600061Y-35724848D01*
X2775097Y-36052317D01*
X3010655Y-36339345D01*
X3297683Y-36574903D01*
X3625152Y-36749939D01*
X3980476Y-36857725D01*
X4257403Y-36885000D01*
X5742597Y-36885000D01*
X6019524Y-36857725D01*
X6374848Y-36749939D01*
X6702317Y-36574903D01*
X6989345Y-36339345D01*
X7224903Y-36052317D01*
X7399939Y-35724848D01*
X7402100Y-35717724D01*
X7442247Y-35705546D01*
X7574276Y-35634974D01*
X7690001Y-35540001D01*
X7713804Y-35510997D01*
X7736007Y-35488794D01*
X7765011Y-35464991D01*
X7859984Y-35349266D01*
X7930556Y-35217237D01*
X7974013Y-35073976D01*
X7985010Y-34962323D01*
X7985010Y-34962313D01*
X7988686Y-34924991D01*
X7985010Y-34887668D01*
X7985010Y-25692332D01*
X7988686Y-25655009D01*
X7985010Y-25617686D01*
X7985010Y-25617677D01*
X7974013Y-25506024D01*
X7930556Y-25362763D01*
X7899968Y-25305537D01*
X7859984Y-25230733D01*
X7827836Y-25191561D01*
X7908405Y-25093386D01*
X7990472Y-24939850D01*
X8041008Y-24773254D01*
X8058072Y-24600000D01*
X8058072Y-23400000D01*
X8041008Y-23226746D01*
X7990472Y-23060150D01*
X7908405Y-22906614D01*
X7797962Y-22772038D01*
X7663386Y-22661595D01*
X7561407Y-22607086D01*
X7561795Y-22606802D01*
X7758664Y-22392046D01*
X7909854Y-22143009D01*
X8009554Y-21869261D01*
X8011476Y-21856890D01*
X7890155Y-21627000D01*
X6547000Y-21627000D01*
X6547000Y-21647000D01*
X6293000Y-21647000D01*
X6293000Y-21627000D01*
X4949845Y-21627000D01*
X4828524Y-21856890D01*
X4830446Y-21869261D01*
X4930146Y-22143009D01*
X5081336Y-22392046D01*
X5278205Y-22606802D01*
X5278593Y-22607086D01*
X5176614Y-22661595D01*
X5042038Y-22772038D01*
X4931595Y-22906614D01*
X4849528Y-23060150D01*
X4798992Y-23226746D01*
X4781928Y-23400000D01*
X4781928Y-24600000D01*
X4798992Y-24773254D01*
X4849528Y-24939850D01*
X4931595Y-25093386D01*
X5042038Y-25227962D01*
X5176614Y-25338405D01*
X5330150Y-25420472D01*
X5496746Y-25471008D01*
X5670000Y-25488072D01*
X5983271Y-25488072D01*
X6465010Y-25969812D01*
X6465010Y-28598254D01*
X6374848Y-28550061D01*
X6019524Y-28442275D01*
X5742597Y-28415000D01*
X4257403Y-28415000D01*
X3980476Y-28442275D01*
X3625152Y-28550061D01*
X3297683Y-28725097D01*
X3010655Y-28960655D01*
X2775097Y-29247683D01*
X2600061Y-29575152D01*
X2492275Y-29930476D01*
X2455880Y-30300000D01*
X660000Y-30300000D01*
X660000Y-21143110D01*
X4828524Y-21143110D01*
X4949845Y-21373000D01*
X6293000Y-21373000D01*
X6293000Y-20172768D01*
X6547000Y-20172768D01*
X6547000Y-21373000D01*
X7890155Y-21373000D01*
X8011476Y-21143110D01*
X8009554Y-21130739D01*
X7909854Y-20856991D01*
X7758664Y-20607954D01*
X7561795Y-20393198D01*
X7326812Y-20220975D01*
X7062745Y-20097904D01*
X6779742Y-20028715D01*
X6547000Y-20172768D01*
X6293000Y-20172768D01*
X6060258Y-20028715D01*
X5777255Y-20097904D01*
X5513188Y-20220975D01*
X5278205Y-20393198D01*
X5081336Y-20607954D01*
X4930146Y-20856991D01*
X4830446Y-21130739D01*
X4828524Y-21143110D01*
X660000Y-21143110D01*
X660000Y-12804495D01*
X1015000Y-12804495D01*
X1015000Y-13195505D01*
X1091282Y-13579003D01*
X1240915Y-13940250D01*
X1458149Y-14265364D01*
X1734636Y-14541851D01*
X2059750Y-14759085D01*
X2420997Y-14908718D01*
X2804495Y-14985000D01*
X3195505Y-14985000D01*
X3579003Y-14908718D01*
X3940250Y-14759085D01*
X4265364Y-14541851D01*
X4541851Y-14265364D01*
X4759085Y-13940250D01*
X4908718Y-13579003D01*
X4985000Y-13195505D01*
X4985000Y-12804495D01*
X4908718Y-12420997D01*
X4759085Y-12059750D01*
X4541851Y-11734636D01*
X4265364Y-11458149D01*
X3940250Y-11240915D01*
X3579003Y-11091282D01*
X3195505Y-11015000D01*
X2804495Y-11015000D01*
X2420997Y-11091282D01*
X2059750Y-11240915D01*
X1734636Y-11458149D01*
X1458149Y-11734636D01*
X1240915Y-12059750D01*
X1091282Y-12420997D01*
X1015000Y-12804495D01*
X660000Y-12804495D01*
X660000Y-10660000D01*
X28873000Y-10660000D01*
X28873000Y-13400000D01*
G36*
X57340000Y-48340000D02*
G01*
X47359801Y-48340000D01*
X49895306Y-45804495D01*
X53015000Y-45804495D01*
X53015000Y-46195505D01*
X53091282Y-46579003D01*
X53240915Y-46940250D01*
X53458149Y-47265364D01*
X53734636Y-47541851D01*
X54059750Y-47759085D01*
X54420997Y-47908718D01*
X54804495Y-47985000D01*
X55195505Y-47985000D01*
X55579003Y-47908718D01*
X55940250Y-47759085D01*
X56265364Y-47541851D01*
X56541851Y-47265364D01*
X56759085Y-46940250D01*
X56908718Y-46579003D01*
X56985000Y-46195505D01*
X56985000Y-45804495D01*
X56908718Y-45420997D01*
X56759085Y-45059750D01*
X56541851Y-44734636D01*
X56265364Y-44458149D01*
X55940250Y-44240915D01*
X55579003Y-44091282D01*
X55195505Y-44015000D01*
X54804495Y-44015000D01*
X54420997Y-44091282D01*
X54059750Y-44240915D01*
X53734636Y-44458149D01*
X53458149Y-44734636D01*
X53240915Y-45059750D01*
X53091282Y-45420997D01*
X53015000Y-45804495D01*
X49895306Y-45804495D01*
X52218045Y-43481756D01*
X52340226Y-43603937D01*
X52509744Y-43717205D01*
X52698102Y-43795226D01*
X52898061Y-43835000D01*
X53101939Y-43835000D01*
X53301898Y-43795226D01*
X53490256Y-43717205D01*
X53659774Y-43603937D01*
X53803937Y-43459774D01*
X53917205Y-43290256D01*
X53995226Y-43101898D01*
X54035000Y-42901939D01*
X54035000Y-42698061D01*
X53995226Y-42498102D01*
X53917205Y-42309744D01*
X53814272Y-42155693D01*
X53893386Y-42113405D01*
X54000000Y-42025910D01*
X54106614Y-42113405D01*
X54260150Y-42195472D01*
X54426746Y-42246008D01*
X54600000Y-42263072D01*
X55400000Y-42263072D01*
X55573254Y-42246008D01*
X55739850Y-42195472D01*
X55893386Y-42113405D01*
X56027962Y-42002962D01*
X56138405Y-41868386D01*
X56220472Y-41714850D01*
X56271008Y-41548254D01*
X56288072Y-41375000D01*
X56288072Y-40550000D01*
X56271008Y-40376746D01*
X56220472Y-40210150D01*
X56138405Y-40056614D01*
X56091943Y-40000000D01*
X56138405Y-39943386D01*
X56220472Y-39789850D01*
X56271008Y-39623254D01*
X56288072Y-39450000D01*
X56288072Y-38625000D01*
X56271008Y-38451746D01*
X56220472Y-38285150D01*
X56138405Y-38131614D01*
X56027962Y-37997038D01*
X55893386Y-37886595D01*
X55760000Y-37815298D01*
X55760000Y-37754320D01*
X55804494Y-37730537D01*
X55901185Y-37651185D01*
X55980537Y-37554494D01*
X56039502Y-37444180D01*
X56075812Y-37324482D01*
X56088072Y-37200000D01*
X56088072Y-36000000D01*
X56075812Y-35875518D01*
X56039502Y-35755820D01*
X55980537Y-35645506D01*
X55901185Y-35548815D01*
X55841704Y-35500000D01*
X55901185Y-35451185D01*
X55980537Y-35354494D01*
X56039502Y-35244180D01*
X56075812Y-35124482D01*
X56088072Y-35000000D01*
X56088072Y-33800000D01*
X56075812Y-33675518D01*
X56039502Y-33555820D01*
X55980537Y-33445506D01*
X55901185Y-33348815D01*
X55804494Y-33269463D01*
X55694180Y-33210498D01*
X55677599Y-33205468D01*
X55634974Y-33125723D01*
X55563799Y-33038997D01*
X55540001Y-33009999D01*
X55511003Y-32986201D01*
X54210010Y-31685209D01*
X54210010Y-21187332D01*
X54213686Y-21150009D01*
X54210010Y-21112686D01*
X54210010Y-21112677D01*
X54199013Y-21001024D01*
X54155556Y-20857763D01*
X54084984Y-20725734D01*
X53990011Y-20610009D01*
X53961013Y-20586211D01*
X51041209Y-17666408D01*
X51085000Y-17446260D01*
X51085000Y-17153740D01*
X51027932Y-16866842D01*
X50915990Y-16596589D01*
X50753475Y-16353368D01*
X50546632Y-16146525D01*
X50372240Y-16030000D01*
X50546632Y-15913475D01*
X50753475Y-15706632D01*
X50915990Y-15463411D01*
X51027932Y-15193158D01*
X51085000Y-14906260D01*
X51085000Y-14613740D01*
X51027932Y-14326842D01*
X50915990Y-14056589D01*
X50753475Y-13813368D01*
X50546632Y-13606525D01*
X50372240Y-13490000D01*
X50546632Y-13373475D01*
X50753475Y-13166632D01*
X50915990Y-12923411D01*
X50965246Y-12804495D01*
X53015000Y-12804495D01*
X53015000Y-13195505D01*
X53091282Y-13579003D01*
X53240915Y-13940250D01*
X53458149Y-14265364D01*
X53734636Y-14541851D01*
X54059750Y-14759085D01*
X54420997Y-14908718D01*
X54804495Y-14985000D01*
X55195505Y-14985000D01*
X55579003Y-14908718D01*
X55940250Y-14759085D01*
X56265364Y-14541851D01*
X56541851Y-14265364D01*
X56759085Y-13940250D01*
X56908718Y-13579003D01*
X56985000Y-13195505D01*
X56985000Y-12804495D01*
X56908718Y-12420997D01*
X56759085Y-12059750D01*
X56541851Y-11734636D01*
X56265364Y-11458149D01*
X55940250Y-11240915D01*
X55579003Y-11091282D01*
X55195505Y-11015000D01*
X54804495Y-11015000D01*
X54420997Y-11091282D01*
X54059750Y-11240915D01*
X53734636Y-11458149D01*
X53458149Y-11734636D01*
X53240915Y-12059750D01*
X53091282Y-12420997D01*
X53015000Y-12804495D01*
X50965246Y-12804495D01*
X51027932Y-12653158D01*
X51085000Y-12366260D01*
X51085000Y-12073740D01*
X51027932Y-11786842D01*
X50915990Y-11516589D01*
X50753475Y-11273368D01*
X50546632Y-11066525D01*
X50303411Y-10904010D01*
X50033158Y-10792068D01*
X49746260Y-10735000D01*
X49453740Y-10735000D01*
X49166842Y-10792068D01*
X49044632Y-10842689D01*
X49017333Y-10840000D01*
X49017322Y-10840000D01*
X48980000Y-10836324D01*
X48942678Y-10840000D01*
X36039250Y-10840000D01*
X36026250Y-10827000D01*
X35913678Y-10827000D01*
X35904494Y-10819463D01*
X35794180Y-10760498D01*
X35674482Y-10724188D01*
X35550000Y-10711928D01*
X34603000Y-10711928D01*
X34603000Y-10660000D01*
X57340001Y-10660000D01*
X57340000Y-48340000D01*
G37*
X57340000Y-48340000D02*
X47359801Y-48340000D01*
X49895306Y-45804495D01*
X53015000Y-45804495D01*
X53015000Y-46195505D01*
X53091282Y-46579003D01*
X53240915Y-46940250D01*
X53458149Y-47265364D01*
X53734636Y-47541851D01*
X54059750Y-47759085D01*
X54420997Y-47908718D01*
X54804495Y-47985000D01*
X55195505Y-47985000D01*
X55579003Y-47908718D01*
X55940250Y-47759085D01*
X56265364Y-47541851D01*
X56541851Y-47265364D01*
X56759085Y-46940250D01*
X56908718Y-46579003D01*
X56985000Y-46195505D01*
X56985000Y-45804495D01*
X56908718Y-45420997D01*
X56759085Y-45059750D01*
X56541851Y-44734636D01*
X56265364Y-44458149D01*
X55940250Y-44240915D01*
X55579003Y-44091282D01*
X55195505Y-44015000D01*
X54804495Y-44015000D01*
X54420997Y-44091282D01*
X54059750Y-44240915D01*
X53734636Y-44458149D01*
X53458149Y-44734636D01*
X53240915Y-45059750D01*
X53091282Y-45420997D01*
X53015000Y-45804495D01*
X49895306Y-45804495D01*
X52218045Y-43481756D01*
X52340226Y-43603937D01*
X52509744Y-43717205D01*
X52698102Y-43795226D01*
X52898061Y-43835000D01*
X53101939Y-43835000D01*
X53301898Y-43795226D01*
X53490256Y-43717205D01*
X53659774Y-43603937D01*
X53803937Y-43459774D01*
X53917205Y-43290256D01*
X53995226Y-43101898D01*
X54035000Y-42901939D01*
X54035000Y-42698061D01*
X53995226Y-42498102D01*
X53917205Y-42309744D01*
X53814272Y-42155693D01*
X53893386Y-42113405D01*
X54000000Y-42025910D01*
X54106614Y-42113405D01*
X54260150Y-42195472D01*
X54426746Y-42246008D01*
X54600000Y-42263072D01*
X55400000Y-42263072D01*
X55573254Y-42246008D01*
X55739850Y-42195472D01*
X55893386Y-42113405D01*
X56027962Y-42002962D01*
X56138405Y-41868386D01*
X56220472Y-41714850D01*
X56271008Y-41548254D01*
X56288072Y-41375000D01*
X56288072Y-40550000D01*
X56271008Y-40376746D01*
X56220472Y-40210150D01*
X56138405Y-40056614D01*
X56091943Y-40000000D01*
X56138405Y-39943386D01*
X56220472Y-39789850D01*
X56271008Y-39623254D01*
X56288072Y-39450000D01*
X56288072Y-38625000D01*
X56271008Y-38451746D01*
X56220472Y-38285150D01*
X56138405Y-38131614D01*
X56027962Y-37997038D01*
X55893386Y-37886595D01*
X55760000Y-37815298D01*
X55760000Y-37754320D01*
X55804494Y-37730537D01*
X55901185Y-37651185D01*
X55980537Y-37554494D01*
X56039502Y-37444180D01*
X56075812Y-37324482D01*
X56088072Y-37200000D01*
X56088072Y-36000000D01*
X56075812Y-35875518D01*
X56039502Y-35755820D01*
X55980537Y-35645506D01*
X55901185Y-35548815D01*
X55841704Y-35500000D01*
X55901185Y-35451185D01*
X55980537Y-35354494D01*
X56039502Y-35244180D01*
X56075812Y-35124482D01*
X56088072Y-35000000D01*
X56088072Y-33800000D01*
X56075812Y-33675518D01*
X56039502Y-33555820D01*
X55980537Y-33445506D01*
X55901185Y-33348815D01*
X55804494Y-33269463D01*
X55694180Y-33210498D01*
X55677599Y-33205468D01*
X55634974Y-33125723D01*
X55563799Y-33038997D01*
X55540001Y-33009999D01*
X55511003Y-32986201D01*
X54210010Y-31685209D01*
X54210010Y-21187332D01*
X54213686Y-21150009D01*
X54210010Y-21112686D01*
X54210010Y-21112677D01*
X54199013Y-21001024D01*
X54155556Y-20857763D01*
X54084984Y-20725734D01*
X53990011Y-20610009D01*
X53961013Y-20586211D01*
X51041209Y-17666408D01*
X51085000Y-17446260D01*
X51085000Y-17153740D01*
X51027932Y-16866842D01*
X50915990Y-16596589D01*
X50753475Y-16353368D01*
X50546632Y-16146525D01*
X50372240Y-16030000D01*
X50546632Y-15913475D01*
X50753475Y-15706632D01*
X50915990Y-15463411D01*
X51027932Y-15193158D01*
X51085000Y-14906260D01*
X51085000Y-14613740D01*
X51027932Y-14326842D01*
X50915990Y-14056589D01*
X50753475Y-13813368D01*
X50546632Y-13606525D01*
X50372240Y-13490000D01*
X50546632Y-13373475D01*
X50753475Y-13166632D01*
X50915990Y-12923411D01*
X50965246Y-12804495D01*
X53015000Y-12804495D01*
X53015000Y-13195505D01*
X53091282Y-13579003D01*
X53240915Y-13940250D01*
X53458149Y-14265364D01*
X53734636Y-14541851D01*
X54059750Y-14759085D01*
X54420997Y-14908718D01*
X54804495Y-14985000D01*
X55195505Y-14985000D01*
X55579003Y-14908718D01*
X55940250Y-14759085D01*
X56265364Y-14541851D01*
X56541851Y-14265364D01*
X56759085Y-13940250D01*
X56908718Y-13579003D01*
X56985000Y-13195505D01*
X56985000Y-12804495D01*
X56908718Y-12420997D01*
X56759085Y-12059750D01*
X56541851Y-11734636D01*
X56265364Y-11458149D01*
X55940250Y-11240915D01*
X55579003Y-11091282D01*
X55195505Y-11015000D01*
X54804495Y-11015000D01*
X54420997Y-11091282D01*
X54059750Y-11240915D01*
X53734636Y-11458149D01*
X53458149Y-11734636D01*
X53240915Y-12059750D01*
X53091282Y-12420997D01*
X53015000Y-12804495D01*
X50965246Y-12804495D01*
X51027932Y-12653158D01*
X51085000Y-12366260D01*
X51085000Y-12073740D01*
X51027932Y-11786842D01*
X50915990Y-11516589D01*
X50753475Y-11273368D01*
X50546632Y-11066525D01*
X50303411Y-10904010D01*
X50033158Y-10792068D01*
X49746260Y-10735000D01*
X49453740Y-10735000D01*
X49166842Y-10792068D01*
X49044632Y-10842689D01*
X49017333Y-10840000D01*
X49017322Y-10840000D01*
X48980000Y-10836324D01*
X48942678Y-10840000D01*
X36039250Y-10840000D01*
X36026250Y-10827000D01*
X35913678Y-10827000D01*
X35904494Y-10819463D01*
X35794180Y-10760498D01*
X35674482Y-10724188D01*
X35550000Y-10711928D01*
X34603000Y-10711928D01*
X34603000Y-10660000D01*
X57340001Y-10660000D01*
X57340000Y-48340000D01*
G36*
X41827753Y-25625546D02*
G01*
X41971014Y-25669003D01*
X42082667Y-25680000D01*
X42082675Y-25680000D01*
X42120000Y-25683676D01*
X42157325Y-25680000D01*
X48321822Y-25680000D01*
X48446525Y-25866632D01*
X48653368Y-26073475D01*
X48827760Y-26190000D01*
X48653368Y-26306525D01*
X48446525Y-26513368D01*
X48284010Y-26756589D01*
X48172068Y-27026842D01*
X48115000Y-27313740D01*
X48115000Y-27606260D01*
X48172068Y-27893158D01*
X48284010Y-28163411D01*
X48446525Y-28406632D01*
X48578380Y-28538487D01*
X48505820Y-28560498D01*
X48395506Y-28619463D01*
X48298815Y-28698815D01*
X48219463Y-28795506D01*
X48160498Y-28905820D01*
X48124188Y-29025518D01*
X48111928Y-29150000D01*
X48115000Y-29714250D01*
X48273750Y-29873000D01*
X49473000Y-29873000D01*
X49473000Y-29853000D01*
X49727000Y-29853000D01*
X49727000Y-29873000D01*
X50926250Y-29873000D01*
X51085000Y-29714250D01*
X51088072Y-29150000D01*
X51075812Y-29025518D01*
X51039502Y-28905820D01*
X50980537Y-28795506D01*
X50901185Y-28698815D01*
X50804494Y-28619463D01*
X50694180Y-28560498D01*
X50621620Y-28538487D01*
X50753475Y-28406632D01*
X50915990Y-28163411D01*
X51027932Y-27893158D01*
X51085000Y-27606260D01*
X51085000Y-27479802D01*
X51240001Y-27634803D01*
X51240000Y-30235198D01*
X51085566Y-30389633D01*
X51085000Y-30285750D01*
X50926250Y-30127000D01*
X49727000Y-30127000D01*
X49727000Y-31326250D01*
X49885750Y-31485000D01*
X49989633Y-31485566D01*
X48488998Y-32986201D01*
X48460000Y-33009999D01*
X48436202Y-33038997D01*
X48436201Y-33038998D01*
X48365026Y-33125724D01*
X48322402Y-33205468D01*
X48305820Y-33210498D01*
X48195506Y-33269463D01*
X48098815Y-33348815D01*
X48019463Y-33445506D01*
X47960498Y-33555820D01*
X47924188Y-33675518D01*
X47911928Y-33800000D01*
X47911928Y-35000000D01*
X47924188Y-35124482D01*
X47960498Y-35244180D01*
X48019463Y-35354494D01*
X48098815Y-35451185D01*
X48158296Y-35500000D01*
X48098815Y-35548815D01*
X48019463Y-35645506D01*
X47960498Y-35755820D01*
X47924188Y-35875518D01*
X47911928Y-36000000D01*
X47911928Y-37200000D01*
X47924188Y-37324482D01*
X47960498Y-37444180D01*
X48019463Y-37554494D01*
X48098815Y-37651185D01*
X48195506Y-37730537D01*
X48240000Y-37754320D01*
X48240000Y-37815298D01*
X48106614Y-37886595D01*
X47972038Y-37997038D01*
X47861595Y-38131614D01*
X47779528Y-38285150D01*
X47728992Y-38451746D01*
X47711928Y-38625000D01*
X47711928Y-39450000D01*
X47728992Y-39623254D01*
X47779528Y-39789850D01*
X47861595Y-39943386D01*
X47908057Y-40000000D01*
X47861595Y-40056614D01*
X47779528Y-40210150D01*
X47728992Y-40376746D01*
X47711928Y-40550000D01*
X47711928Y-41375000D01*
X47728992Y-41548254D01*
X47779528Y-41714850D01*
X47861595Y-41868386D01*
X47972038Y-42002962D01*
X48106614Y-42113405D01*
X48260150Y-42195472D01*
X48426746Y-42246008D01*
X48600000Y-42263072D01*
X49400000Y-42263072D01*
X49573254Y-42246008D01*
X49739850Y-42195472D01*
X49893386Y-42113405D01*
X50000000Y-42025910D01*
X50106614Y-42113405D01*
X50260150Y-42195472D01*
X50426746Y-42246008D01*
X50600000Y-42263072D01*
X51287126Y-42263072D01*
X46210199Y-47340000D01*
X46181034Y-47340000D01*
X46223520Y-47311612D01*
X46381612Y-47153520D01*
X46505824Y-46967624D01*
X46591383Y-46761067D01*
X46635000Y-46541788D01*
X46635000Y-46318212D01*
X46591383Y-46098933D01*
X46505824Y-45892376D01*
X46440759Y-45795000D01*
X46505824Y-45697624D01*
X46591383Y-45491067D01*
X46635000Y-45271788D01*
X46635000Y-45099801D01*
X47412695Y-44322107D01*
X47441693Y-44298309D01*
X47536666Y-44182584D01*
X47607238Y-44050555D01*
X47650695Y-43907294D01*
X47661692Y-43795641D01*
X47661692Y-43795631D01*
X47665368Y-43758308D01*
X47661692Y-43720985D01*
X47661692Y-31837322D01*
X47665368Y-31799999D01*
X47661692Y-31762676D01*
X47661692Y-31762667D01*
X47650695Y-31651014D01*
X47607238Y-31507753D01*
X47536666Y-31375724D01*
X47441693Y-31259999D01*
X47412696Y-31236202D01*
X47026494Y-30850000D01*
X48111928Y-30850000D01*
X48124188Y-30974482D01*
X48160498Y-31094180D01*
X48219463Y-31204494D01*
X48298815Y-31301185D01*
X48395506Y-31380537D01*
X48505820Y-31439502D01*
X48625518Y-31475812D01*
X48750000Y-31488072D01*
X49314250Y-31485000D01*
X49473000Y-31326250D01*
X49473000Y-30127000D01*
X48273750Y-30127000D01*
X48115000Y-30285750D01*
X48111928Y-30850000D01*
X47026494Y-30850000D01*
X41772512Y-25596019D01*
X41827753Y-25625546D01*
G37*
X41827753Y-25625546D02*
X41971014Y-25669003D01*
X42082667Y-25680000D01*
X42082675Y-25680000D01*
X42120000Y-25683676D01*
X42157325Y-25680000D01*
X48321822Y-25680000D01*
X48446525Y-25866632D01*
X48653368Y-26073475D01*
X48827760Y-26190000D01*
X48653368Y-26306525D01*
X48446525Y-26513368D01*
X48284010Y-26756589D01*
X48172068Y-27026842D01*
X48115000Y-27313740D01*
X48115000Y-27606260D01*
X48172068Y-27893158D01*
X48284010Y-28163411D01*
X48446525Y-28406632D01*
X48578380Y-28538487D01*
X48505820Y-28560498D01*
X48395506Y-28619463D01*
X48298815Y-28698815D01*
X48219463Y-28795506D01*
X48160498Y-28905820D01*
X48124188Y-29025518D01*
X48111928Y-29150000D01*
X48115000Y-29714250D01*
X48273750Y-29873000D01*
X49473000Y-29873000D01*
X49473000Y-29853000D01*
X49727000Y-29853000D01*
X49727000Y-29873000D01*
X50926250Y-29873000D01*
X51085000Y-29714250D01*
X51088072Y-29150000D01*
X51075812Y-29025518D01*
X51039502Y-28905820D01*
X50980537Y-28795506D01*
X50901185Y-28698815D01*
X50804494Y-28619463D01*
X50694180Y-28560498D01*
X50621620Y-28538487D01*
X50753475Y-28406632D01*
X50915990Y-28163411D01*
X51027932Y-27893158D01*
X51085000Y-27606260D01*
X51085000Y-27479802D01*
X51240001Y-27634803D01*
X51240000Y-30235198D01*
X51085566Y-30389633D01*
X51085000Y-30285750D01*
X50926250Y-30127000D01*
X49727000Y-30127000D01*
X49727000Y-31326250D01*
X49885750Y-31485000D01*
X49989633Y-31485566D01*
X48488998Y-32986201D01*
X48460000Y-33009999D01*
X48436202Y-33038997D01*
X48436201Y-33038998D01*
X48365026Y-33125724D01*
X48322402Y-33205468D01*
X48305820Y-33210498D01*
X48195506Y-33269463D01*
X48098815Y-33348815D01*
X48019463Y-33445506D01*
X47960498Y-33555820D01*
X47924188Y-33675518D01*
X47911928Y-33800000D01*
X47911928Y-35000000D01*
X47924188Y-35124482D01*
X47960498Y-35244180D01*
X48019463Y-35354494D01*
X48098815Y-35451185D01*
X48158296Y-35500000D01*
X48098815Y-35548815D01*
X48019463Y-35645506D01*
X47960498Y-35755820D01*
X47924188Y-35875518D01*
X47911928Y-36000000D01*
X47911928Y-37200000D01*
X47924188Y-37324482D01*
X47960498Y-37444180D01*
X48019463Y-37554494D01*
X48098815Y-37651185D01*
X48195506Y-37730537D01*
X48240000Y-37754320D01*
X48240000Y-37815298D01*
X48106614Y-37886595D01*
X47972038Y-37997038D01*
X47861595Y-38131614D01*
X47779528Y-38285150D01*
X47728992Y-38451746D01*
X47711928Y-38625000D01*
X47711928Y-39450000D01*
X47728992Y-39623254D01*
X47779528Y-39789850D01*
X47861595Y-39943386D01*
X47908057Y-40000000D01*
X47861595Y-40056614D01*
X47779528Y-40210150D01*
X47728992Y-40376746D01*
X47711928Y-40550000D01*
X47711928Y-41375000D01*
X47728992Y-41548254D01*
X47779528Y-41714850D01*
X47861595Y-41868386D01*
X47972038Y-42002962D01*
X48106614Y-42113405D01*
X48260150Y-42195472D01*
X48426746Y-42246008D01*
X48600000Y-42263072D01*
X49400000Y-42263072D01*
X49573254Y-42246008D01*
X49739850Y-42195472D01*
X49893386Y-42113405D01*
X50000000Y-42025910D01*
X50106614Y-42113405D01*
X50260150Y-42195472D01*
X50426746Y-42246008D01*
X50600000Y-42263072D01*
X51287126Y-42263072D01*
X46210199Y-47340000D01*
X46181034Y-47340000D01*
X46223520Y-47311612D01*
X46381612Y-47153520D01*
X46505824Y-46967624D01*
X46591383Y-46761067D01*
X46635000Y-46541788D01*
X46635000Y-46318212D01*
X46591383Y-46098933D01*
X46505824Y-45892376D01*
X46440759Y-45795000D01*
X46505824Y-45697624D01*
X46591383Y-45491067D01*
X46635000Y-45271788D01*
X46635000Y-45099801D01*
X47412695Y-44322107D01*
X47441693Y-44298309D01*
X47536666Y-44182584D01*
X47607238Y-44050555D01*
X47650695Y-43907294D01*
X47661692Y-43795641D01*
X47661692Y-43795631D01*
X47665368Y-43758308D01*
X47661692Y-43720985D01*
X47661692Y-31837322D01*
X47665368Y-31799999D01*
X47661692Y-31762676D01*
X47661692Y-31762667D01*
X47650695Y-31651014D01*
X47607238Y-31507753D01*
X47536666Y-31375724D01*
X47441693Y-31259999D01*
X47412696Y-31236202D01*
X47026494Y-30850000D01*
X48111928Y-30850000D01*
X48124188Y-30974482D01*
X48160498Y-31094180D01*
X48219463Y-31204494D01*
X48298815Y-31301185D01*
X48395506Y-31380537D01*
X48505820Y-31439502D01*
X48625518Y-31475812D01*
X48750000Y-31488072D01*
X49314250Y-31485000D01*
X49473000Y-31326250D01*
X49473000Y-30127000D01*
X48273750Y-30127000D01*
X48115000Y-30285750D01*
X48111928Y-30850000D01*
X47026494Y-30850000D01*
X41772512Y-25596019D01*
X41827753Y-25625546D01*
G36*
X35652337Y-21627139D02*
G01*
X35652338Y-21909725D01*
X35648661Y-21947055D01*
X35652338Y-21984386D01*
X35652338Y-21984389D01*
X35663335Y-22096042D01*
X35680011Y-22151015D01*
X35706791Y-22239301D01*
X35777363Y-22371331D01*
X35825304Y-22429747D01*
X35872337Y-22487056D01*
X35901334Y-22510853D01*
X41240000Y-27849520D01*
X41240001Y-41622668D01*
X41236324Y-41660000D01*
X41250998Y-41808985D01*
X41294454Y-41952246D01*
X41365026Y-42084276D01*
X41410944Y-42140226D01*
X41460000Y-42200001D01*
X41488998Y-42223799D01*
X43095000Y-43829802D01*
X43095000Y-44001788D01*
X43138617Y-44221067D01*
X43224176Y-44427624D01*
X43289241Y-44525000D01*
X43224176Y-44622376D01*
X43138617Y-44828933D01*
X43095000Y-45048212D01*
X43095000Y-45271788D01*
X43138617Y-45491067D01*
X43224176Y-45697624D01*
X43289241Y-45795000D01*
X43224176Y-45892376D01*
X43138617Y-46098933D01*
X43095000Y-46318212D01*
X43095000Y-46541788D01*
X43138617Y-46761067D01*
X43224176Y-46967624D01*
X43348388Y-47153520D01*
X43506480Y-47311612D01*
X43548966Y-47340000D01*
X42703711Y-47340000D01*
X42659774Y-47296063D01*
X42490256Y-47182795D01*
X42301898Y-47104774D01*
X42101939Y-47065000D01*
X41898061Y-47065000D01*
X41698102Y-47104774D01*
X41509744Y-47182795D01*
X41340226Y-47296063D01*
X41296289Y-47340000D01*
X15681034Y-47340000D01*
X15723520Y-47311612D01*
X15881612Y-47153520D01*
X16005824Y-46967624D01*
X16091383Y-46761067D01*
X16104868Y-46693270D01*
X16108997Y-46693677D01*
X16146319Y-46690001D01*
X16146330Y-46690001D01*
X16257983Y-46679004D01*
X16401244Y-46635547D01*
X16533273Y-46564975D01*
X16648998Y-46470002D01*
X16672801Y-46440998D01*
X19978386Y-43135413D01*
X25544192Y-43135413D01*
X25639956Y-43399814D01*
X25929571Y-43540704D01*
X26241108Y-43622384D01*
X26562595Y-43641718D01*
X26881675Y-43597961D01*
X27186088Y-43492795D01*
X27360044Y-43399814D01*
X27455808Y-43135413D01*
X32044192Y-43135413D01*
X32139956Y-43399814D01*
X32429571Y-43540704D01*
X32741108Y-43622384D01*
X33062595Y-43641718D01*
X33381675Y-43597961D01*
X33686088Y-43492795D01*
X33860044Y-43399814D01*
X33955808Y-43135413D01*
X33000000Y-42179605D01*
X32044192Y-43135413D01*
X27455808Y-43135413D01*
X26500000Y-42179605D01*
X25544192Y-43135413D01*
X19978386Y-43135413D01*
X21051204Y-42062595D01*
X24858282Y-42062595D01*
X24902039Y-42381675D01*
X25007205Y-42686088D01*
X25100186Y-42860044D01*
X25364587Y-42955808D01*
X26320395Y-42000000D01*
X26679605Y-42000000D01*
X27635413Y-42955808D01*
X27899814Y-42860044D01*
X28040704Y-42570429D01*
X28122384Y-42258892D01*
X28134189Y-42062595D01*
X31358282Y-42062595D01*
X31402039Y-42381675D01*
X31507205Y-42686088D01*
X31600186Y-42860044D01*
X31864587Y-42955808D01*
X32820395Y-42000000D01*
X33179605Y-42000000D01*
X34135413Y-42955808D01*
X34399814Y-42860044D01*
X34540704Y-42570429D01*
X34622384Y-42258892D01*
X34641718Y-41937405D01*
X34597961Y-41618325D01*
X34492795Y-41313912D01*
X34399814Y-41139956D01*
X34135413Y-41044192D01*
X33179605Y-42000000D01*
X32820395Y-42000000D01*
X31864587Y-41044192D01*
X31600186Y-41139956D01*
X31459296Y-41429571D01*
X31377616Y-41741108D01*
X31358282Y-42062595D01*
X28134189Y-42062595D01*
X28141718Y-41937405D01*
X28097961Y-41618325D01*
X27992795Y-41313912D01*
X27899814Y-41139956D01*
X27635413Y-41044192D01*
X26679605Y-42000000D01*
X26320395Y-42000000D01*
X25364587Y-41044192D01*
X25100186Y-41139956D01*
X24959296Y-41429571D01*
X24877616Y-41741108D01*
X24858282Y-42062595D01*
X21051204Y-42062595D01*
X22249212Y-40864587D01*
X25544192Y-40864587D01*
X26500000Y-41820395D01*
X27455808Y-40864587D01*
X32044192Y-40864587D01*
X33000000Y-41820395D01*
X33955808Y-40864587D01*
X33860044Y-40600186D01*
X33818550Y-40580000D01*
X35041928Y-40580000D01*
X35054188Y-40704482D01*
X35090498Y-40824180D01*
X35149463Y-40934494D01*
X35228815Y-41031185D01*
X35325506Y-41110537D01*
X35435820Y-41169502D01*
X35555518Y-41205812D01*
X35680000Y-41218072D01*
X35714250Y-41215000D01*
X35873000Y-41056250D01*
X35873000Y-40412000D01*
X36127000Y-40412000D01*
X36127000Y-41056250D01*
X36285750Y-41215000D01*
X36320000Y-41218072D01*
X36444482Y-41205812D01*
X36564180Y-41169502D01*
X36674494Y-41110537D01*
X36771185Y-41031185D01*
X36850537Y-40934494D01*
X36909502Y-40824180D01*
X36945812Y-40704482D01*
X36958072Y-40580000D01*
X36955000Y-40570750D01*
X36796250Y-40412000D01*
X36127000Y-40412000D01*
X35873000Y-40412000D01*
X35203750Y-40412000D01*
X35045000Y-40570750D01*
X35041928Y-40580000D01*
X33818550Y-40580000D01*
X33570429Y-40459296D01*
X33258892Y-40377616D01*
X32937405Y-40358282D01*
X32618325Y-40402039D01*
X32313912Y-40507205D01*
X32139956Y-40600186D01*
X32044192Y-40864587D01*
X27455808Y-40864587D01*
X27360044Y-40600186D01*
X27070429Y-40459296D01*
X26758892Y-40377616D01*
X26437405Y-40358282D01*
X26118325Y-40402039D01*
X25813912Y-40507205D01*
X25639956Y-40600186D01*
X25544192Y-40864587D01*
X22249212Y-40864587D01*
X24989063Y-38124736D01*
X25051082Y-38274463D01*
X25230013Y-38542252D01*
X25457748Y-38769987D01*
X25725537Y-38948918D01*
X26023088Y-39072168D01*
X26338967Y-39135000D01*
X26661033Y-39135000D01*
X26976912Y-39072168D01*
X27274463Y-38948918D01*
X27542252Y-38769987D01*
X27769987Y-38542252D01*
X27948918Y-38274463D01*
X27954909Y-38260000D01*
X31545091Y-38260000D01*
X31551082Y-38274463D01*
X31730013Y-38542252D01*
X31957748Y-38769987D01*
X32225537Y-38948918D01*
X32523088Y-39072168D01*
X32838967Y-39135000D01*
X33161033Y-39135000D01*
X33476912Y-39072168D01*
X33491375Y-39066177D01*
X34251201Y-39826003D01*
X34274999Y-39855001D01*
X34303997Y-39878799D01*
X34390724Y-39949974D01*
X34522753Y-40020546D01*
X34666014Y-40064003D01*
X34815000Y-40078677D01*
X34852333Y-40075000D01*
X35120750Y-40075000D01*
X35203750Y-40158000D01*
X35470237Y-40158000D01*
X35526875Y-40188274D01*
X35674243Y-40232977D01*
X35827500Y-40248072D01*
X36172500Y-40248072D01*
X36325757Y-40232977D01*
X36473125Y-40188274D01*
X36529763Y-40158000D01*
X36796250Y-40158000D01*
X36955000Y-39999250D01*
X36958072Y-39990000D01*
X36945812Y-39865518D01*
X36909502Y-39745820D01*
X36905688Y-39738684D01*
X36942977Y-39615757D01*
X36958072Y-39462500D01*
X36958072Y-39167500D01*
X36942977Y-39014243D01*
X36898274Y-38866875D01*
X36825679Y-38731060D01*
X36727983Y-38612017D01*
X36608940Y-38514321D01*
X36473125Y-38441726D01*
X36325757Y-38397023D01*
X36172500Y-38381928D01*
X35827500Y-38381928D01*
X35674243Y-38397023D01*
X35526875Y-38441726D01*
X35391060Y-38514321D01*
X35341492Y-38555000D01*
X35129802Y-38555000D01*
X34566177Y-37991375D01*
X34572168Y-37976912D01*
X34635000Y-37661033D01*
X34635000Y-37338967D01*
X34572168Y-37023088D01*
X34448918Y-36725537D01*
X34269987Y-36457748D01*
X34042252Y-36230013D01*
X33774463Y-36051082D01*
X33476912Y-35927832D01*
X33161033Y-35865000D01*
X32838967Y-35865000D01*
X32523088Y-35927832D01*
X32225537Y-36051082D01*
X31957748Y-36230013D01*
X31730013Y-36457748D01*
X31551082Y-36725537D01*
X31545091Y-36740000D01*
X27954909Y-36740000D01*
X27948918Y-36725537D01*
X27769987Y-36457748D01*
X27542252Y-36230013D01*
X27274463Y-36051082D01*
X27124737Y-35989063D01*
X34011003Y-29102797D01*
X34040001Y-29078999D01*
X34134974Y-28963274D01*
X34205546Y-28831245D01*
X34249003Y-28687984D01*
X34260000Y-28576331D01*
X34260000Y-28576322D01*
X34263676Y-28538999D01*
X34260000Y-28501676D01*
X34260000Y-23685000D01*
X34327002Y-23685000D01*
X34327002Y-23530252D01*
X34481750Y-23685000D01*
X34583358Y-23673980D01*
X34702528Y-23635974D01*
X34811994Y-23575449D01*
X34907548Y-23494731D01*
X34985519Y-23396922D01*
X35042911Y-23285781D01*
X35077517Y-23165580D01*
X35088008Y-23040937D01*
X35085000Y-22535750D01*
X34926250Y-22377000D01*
X34388072Y-22377000D01*
X34388072Y-22123000D01*
X34926250Y-22123000D01*
X35085000Y-21964250D01*
X35087240Y-21588072D01*
X35550000Y-21588072D01*
X35607598Y-21582399D01*
X35652337Y-21627139D01*
G37*
X35652337Y-21627139D02*
X35652338Y-21909725D01*
X35648661Y-21947055D01*
X35652338Y-21984386D01*
X35652338Y-21984389D01*
X35663335Y-22096042D01*
X35680011Y-22151015D01*
X35706791Y-22239301D01*
X35777363Y-22371331D01*
X35825304Y-22429747D01*
X35872337Y-22487056D01*
X35901334Y-22510853D01*
X41240000Y-27849520D01*
X41240001Y-41622668D01*
X41236324Y-41660000D01*
X41250998Y-41808985D01*
X41294454Y-41952246D01*
X41365026Y-42084276D01*
X41410944Y-42140226D01*
X41460000Y-42200001D01*
X41488998Y-42223799D01*
X43095000Y-43829802D01*
X43095000Y-44001788D01*
X43138617Y-44221067D01*
X43224176Y-44427624D01*
X43289241Y-44525000D01*
X43224176Y-44622376D01*
X43138617Y-44828933D01*
X43095000Y-45048212D01*
X43095000Y-45271788D01*
X43138617Y-45491067D01*
X43224176Y-45697624D01*
X43289241Y-45795000D01*
X43224176Y-45892376D01*
X43138617Y-46098933D01*
X43095000Y-46318212D01*
X43095000Y-46541788D01*
X43138617Y-46761067D01*
X43224176Y-46967624D01*
X43348388Y-47153520D01*
X43506480Y-47311612D01*
X43548966Y-47340000D01*
X42703711Y-47340000D01*
X42659774Y-47296063D01*
X42490256Y-47182795D01*
X42301898Y-47104774D01*
X42101939Y-47065000D01*
X41898061Y-47065000D01*
X41698102Y-47104774D01*
X41509744Y-47182795D01*
X41340226Y-47296063D01*
X41296289Y-47340000D01*
X15681034Y-47340000D01*
X15723520Y-47311612D01*
X15881612Y-47153520D01*
X16005824Y-46967624D01*
X16091383Y-46761067D01*
X16104868Y-46693270D01*
X16108997Y-46693677D01*
X16146319Y-46690001D01*
X16146330Y-46690001D01*
X16257983Y-46679004D01*
X16401244Y-46635547D01*
X16533273Y-46564975D01*
X16648998Y-46470002D01*
X16672801Y-46440998D01*
X19978386Y-43135413D01*
X25544192Y-43135413D01*
X25639956Y-43399814D01*
X25929571Y-43540704D01*
X26241108Y-43622384D01*
X26562595Y-43641718D01*
X26881675Y-43597961D01*
X27186088Y-43492795D01*
X27360044Y-43399814D01*
X27455808Y-43135413D01*
X32044192Y-43135413D01*
X32139956Y-43399814D01*
X32429571Y-43540704D01*
X32741108Y-43622384D01*
X33062595Y-43641718D01*
X33381675Y-43597961D01*
X33686088Y-43492795D01*
X33860044Y-43399814D01*
X33955808Y-43135413D01*
X33000000Y-42179605D01*
X32044192Y-43135413D01*
X27455808Y-43135413D01*
X26500000Y-42179605D01*
X25544192Y-43135413D01*
X19978386Y-43135413D01*
X21051204Y-42062595D01*
X24858282Y-42062595D01*
X24902039Y-42381675D01*
X25007205Y-42686088D01*
X25100186Y-42860044D01*
X25364587Y-42955808D01*
X26320395Y-42000000D01*
X26679605Y-42000000D01*
X27635413Y-42955808D01*
X27899814Y-42860044D01*
X28040704Y-42570429D01*
X28122384Y-42258892D01*
X28134189Y-42062595D01*
X31358282Y-42062595D01*
X31402039Y-42381675D01*
X31507205Y-42686088D01*
X31600186Y-42860044D01*
X31864587Y-42955808D01*
X32820395Y-42000000D01*
X33179605Y-42000000D01*
X34135413Y-42955808D01*
X34399814Y-42860044D01*
X34540704Y-42570429D01*
X34622384Y-42258892D01*
X34641718Y-41937405D01*
X34597961Y-41618325D01*
X34492795Y-41313912D01*
X34399814Y-41139956D01*
X34135413Y-41044192D01*
X33179605Y-42000000D01*
X32820395Y-42000000D01*
X31864587Y-41044192D01*
X31600186Y-41139956D01*
X31459296Y-41429571D01*
X31377616Y-41741108D01*
X31358282Y-42062595D01*
X28134189Y-42062595D01*
X28141718Y-41937405D01*
X28097961Y-41618325D01*
X27992795Y-41313912D01*
X27899814Y-41139956D01*
X27635413Y-41044192D01*
X26679605Y-42000000D01*
X26320395Y-42000000D01*
X25364587Y-41044192D01*
X25100186Y-41139956D01*
X24959296Y-41429571D01*
X24877616Y-41741108D01*
X24858282Y-42062595D01*
X21051204Y-42062595D01*
X22249212Y-40864587D01*
X25544192Y-40864587D01*
X26500000Y-41820395D01*
X27455808Y-40864587D01*
X32044192Y-40864587D01*
X33000000Y-41820395D01*
X33955808Y-40864587D01*
X33860044Y-40600186D01*
X33818550Y-40580000D01*
X35041928Y-40580000D01*
X35054188Y-40704482D01*
X35090498Y-40824180D01*
X35149463Y-40934494D01*
X35228815Y-41031185D01*
X35325506Y-41110537D01*
X35435820Y-41169502D01*
X35555518Y-41205812D01*
X35680000Y-41218072D01*
X35714250Y-41215000D01*
X35873000Y-41056250D01*
X35873000Y-40412000D01*
X36127000Y-40412000D01*
X36127000Y-41056250D01*
X36285750Y-41215000D01*
X36320000Y-41218072D01*
X36444482Y-41205812D01*
X36564180Y-41169502D01*
X36674494Y-41110537D01*
X36771185Y-41031185D01*
X36850537Y-40934494D01*
X36909502Y-40824180D01*
X36945812Y-40704482D01*
X36958072Y-40580000D01*
X36955000Y-40570750D01*
X36796250Y-40412000D01*
X36127000Y-40412000D01*
X35873000Y-40412000D01*
X35203750Y-40412000D01*
X35045000Y-40570750D01*
X35041928Y-40580000D01*
X33818550Y-40580000D01*
X33570429Y-40459296D01*
X33258892Y-40377616D01*
X32937405Y-40358282D01*
X32618325Y-40402039D01*
X32313912Y-40507205D01*
X32139956Y-40600186D01*
X32044192Y-40864587D01*
X27455808Y-40864587D01*
X27360044Y-40600186D01*
X27070429Y-40459296D01*
X26758892Y-40377616D01*
X26437405Y-40358282D01*
X26118325Y-40402039D01*
X25813912Y-40507205D01*
X25639956Y-40600186D01*
X25544192Y-40864587D01*
X22249212Y-40864587D01*
X24989063Y-38124736D01*
X25051082Y-38274463D01*
X25230013Y-38542252D01*
X25457748Y-38769987D01*
X25725537Y-38948918D01*
X26023088Y-39072168D01*
X26338967Y-39135000D01*
X26661033Y-39135000D01*
X26976912Y-39072168D01*
X27274463Y-38948918D01*
X27542252Y-38769987D01*
X27769987Y-38542252D01*
X27948918Y-38274463D01*
X27954909Y-38260000D01*
X31545091Y-38260000D01*
X31551082Y-38274463D01*
X31730013Y-38542252D01*
X31957748Y-38769987D01*
X32225537Y-38948918D01*
X32523088Y-39072168D01*
X32838967Y-39135000D01*
X33161033Y-39135000D01*
X33476912Y-39072168D01*
X33491375Y-39066177D01*
X34251201Y-39826003D01*
X34274999Y-39855001D01*
X34303997Y-39878799D01*
X34390724Y-39949974D01*
X34522753Y-40020546D01*
X34666014Y-40064003D01*
X34815000Y-40078677D01*
X34852333Y-40075000D01*
X35120750Y-40075000D01*
X35203750Y-40158000D01*
X35470237Y-40158000D01*
X35526875Y-40188274D01*
X35674243Y-40232977D01*
X35827500Y-40248072D01*
X36172500Y-40248072D01*
X36325757Y-40232977D01*
X36473125Y-40188274D01*
X36529763Y-40158000D01*
X36796250Y-40158000D01*
X36955000Y-39999250D01*
X36958072Y-39990000D01*
X36945812Y-39865518D01*
X36909502Y-39745820D01*
X36905688Y-39738684D01*
X36942977Y-39615757D01*
X36958072Y-39462500D01*
X36958072Y-39167500D01*
X36942977Y-39014243D01*
X36898274Y-38866875D01*
X36825679Y-38731060D01*
X36727983Y-38612017D01*
X36608940Y-38514321D01*
X36473125Y-38441726D01*
X36325757Y-38397023D01*
X36172500Y-38381928D01*
X35827500Y-38381928D01*
X35674243Y-38397023D01*
X35526875Y-38441726D01*
X35391060Y-38514321D01*
X35341492Y-38555000D01*
X35129802Y-38555000D01*
X34566177Y-37991375D01*
X34572168Y-37976912D01*
X34635000Y-37661033D01*
X34635000Y-37338967D01*
X34572168Y-37023088D01*
X34448918Y-36725537D01*
X34269987Y-36457748D01*
X34042252Y-36230013D01*
X33774463Y-36051082D01*
X33476912Y-35927832D01*
X33161033Y-35865000D01*
X32838967Y-35865000D01*
X32523088Y-35927832D01*
X32225537Y-36051082D01*
X31957748Y-36230013D01*
X31730013Y-36457748D01*
X31551082Y-36725537D01*
X31545091Y-36740000D01*
X27954909Y-36740000D01*
X27948918Y-36725537D01*
X27769987Y-36457748D01*
X27542252Y-36230013D01*
X27274463Y-36051082D01*
X27124737Y-35989063D01*
X34011003Y-29102797D01*
X34040001Y-29078999D01*
X34134974Y-28963274D01*
X34205546Y-28831245D01*
X34249003Y-28687984D01*
X34260000Y-28576331D01*
X34260000Y-28576322D01*
X34263676Y-28538999D01*
X34260000Y-28501676D01*
X34260000Y-23685000D01*
X34327002Y-23685000D01*
X34327002Y-23530252D01*
X34481750Y-23685000D01*
X34583358Y-23673980D01*
X34702528Y-23635974D01*
X34811994Y-23575449D01*
X34907548Y-23494731D01*
X34985519Y-23396922D01*
X35042911Y-23285781D01*
X35077517Y-23165580D01*
X35088008Y-23040937D01*
X35085000Y-22535750D01*
X34926250Y-22377000D01*
X34388072Y-22377000D01*
X34388072Y-22123000D01*
X34926250Y-22123000D01*
X35085000Y-21964250D01*
X35087240Y-21588072D01*
X35550000Y-21588072D01*
X35607598Y-21582399D01*
X35652337Y-21627139D01*
G36*
X13857000Y-46303000D02*
G01*
X13868026Y-46303000D01*
X13865000Y-46318212D01*
X13865000Y-46541788D01*
X13868026Y-46557000D01*
X13857000Y-46557000D01*
X13857000Y-46577000D01*
X13603000Y-46577000D01*
X13603000Y-46557000D01*
X13583000Y-46557000D01*
X13583000Y-46303000D01*
X13603000Y-46303000D01*
X13603000Y-46291974D01*
X13618212Y-46295000D01*
X13841788Y-46295000D01*
X13857000Y-46291974D01*
X13857000Y-46303000D01*
G37*
X13857000Y-46303000D02*
X13868026Y-46303000D01*
X13865000Y-46318212D01*
X13865000Y-46541788D01*
X13868026Y-46557000D01*
X13857000Y-46557000D01*
X13857000Y-46577000D01*
X13603000Y-46577000D01*
X13603000Y-46557000D01*
X13583000Y-46557000D01*
X13583000Y-46303000D01*
X13603000Y-46303000D01*
X13603000Y-46291974D01*
X13618212Y-46295000D01*
X13841788Y-46295000D01*
X13857000Y-46291974D01*
X13857000Y-46303000D01*
G36*
X46141692Y-32114802D02*
G01*
X46141692Y-33879409D01*
X46124482Y-33874188D01*
X46000000Y-33861928D01*
X45785750Y-33865000D01*
X45627000Y-34023750D01*
X45627000Y-34873000D01*
X45647000Y-34873000D01*
X45647000Y-35127000D01*
X45627000Y-35127000D01*
X45627000Y-35138026D01*
X45611788Y-35135000D01*
X45388212Y-35135000D01*
X45373000Y-35138026D01*
X45373000Y-35127000D01*
X45361974Y-35127000D01*
X45365000Y-35111788D01*
X45365000Y-34888212D01*
X45361974Y-34873000D01*
X45373000Y-34873000D01*
X45373000Y-34023750D01*
X45214250Y-33865000D01*
X45000000Y-33861928D01*
X44875518Y-33874188D01*
X44755820Y-33910498D01*
X44672774Y-33954888D01*
X44561067Y-33908617D01*
X44341788Y-33865000D01*
X44118212Y-33865000D01*
X43898933Y-33908617D01*
X43692376Y-33994176D01*
X43506480Y-34118388D01*
X43348388Y-34276480D01*
X43224176Y-34462376D01*
X43138617Y-34668933D01*
X43095000Y-34888212D01*
X43095000Y-35111788D01*
X43138617Y-35331067D01*
X43224176Y-35537624D01*
X43289241Y-35635000D01*
X43224176Y-35732376D01*
X43138617Y-35938933D01*
X43095000Y-36158212D01*
X43095000Y-36381788D01*
X43138617Y-36601067D01*
X43224176Y-36807624D01*
X43289241Y-36905000D01*
X43224176Y-37002376D01*
X43138617Y-37208933D01*
X43095000Y-37428212D01*
X43095000Y-37651788D01*
X43138617Y-37871067D01*
X43224176Y-38077624D01*
X43289241Y-38175000D01*
X43224176Y-38272376D01*
X43138617Y-38478933D01*
X43095000Y-38698212D01*
X43095000Y-38921788D01*
X43138617Y-39141067D01*
X43224176Y-39347624D01*
X43289241Y-39445000D01*
X43224176Y-39542376D01*
X43138617Y-39748933D01*
X43095000Y-39968212D01*
X43095000Y-40191788D01*
X43138617Y-40411067D01*
X43224176Y-40617624D01*
X43289241Y-40715000D01*
X43224176Y-40812376D01*
X43138617Y-41018933D01*
X43095000Y-41238212D01*
X43095000Y-41461788D01*
X43138617Y-41681067D01*
X43168845Y-41754044D01*
X42760000Y-41345199D01*
X42760000Y-28733110D01*
X46141692Y-32114802D01*
G37*
X46141692Y-32114802D02*
X46141692Y-33879409D01*
X46124482Y-33874188D01*
X46000000Y-33861928D01*
X45785750Y-33865000D01*
X45627000Y-34023750D01*
X45627000Y-34873000D01*
X45647000Y-34873000D01*
X45647000Y-35127000D01*
X45627000Y-35127000D01*
X45627000Y-35138026D01*
X45611788Y-35135000D01*
X45388212Y-35135000D01*
X45373000Y-35138026D01*
X45373000Y-35127000D01*
X45361974Y-35127000D01*
X45365000Y-35111788D01*
X45365000Y-34888212D01*
X45361974Y-34873000D01*
X45373000Y-34873000D01*
X45373000Y-34023750D01*
X45214250Y-33865000D01*
X45000000Y-33861928D01*
X44875518Y-33874188D01*
X44755820Y-33910498D01*
X44672774Y-33954888D01*
X44561067Y-33908617D01*
X44341788Y-33865000D01*
X44118212Y-33865000D01*
X43898933Y-33908617D01*
X43692376Y-33994176D01*
X43506480Y-34118388D01*
X43348388Y-34276480D01*
X43224176Y-34462376D01*
X43138617Y-34668933D01*
X43095000Y-34888212D01*
X43095000Y-35111788D01*
X43138617Y-35331067D01*
X43224176Y-35537624D01*
X43289241Y-35635000D01*
X43224176Y-35732376D01*
X43138617Y-35938933D01*
X43095000Y-36158212D01*
X43095000Y-36381788D01*
X43138617Y-36601067D01*
X43224176Y-36807624D01*
X43289241Y-36905000D01*
X43224176Y-37002376D01*
X43138617Y-37208933D01*
X43095000Y-37428212D01*
X43095000Y-37651788D01*
X43138617Y-37871067D01*
X43224176Y-38077624D01*
X43289241Y-38175000D01*
X43224176Y-38272376D01*
X43138617Y-38478933D01*
X43095000Y-38698212D01*
X43095000Y-38921788D01*
X43138617Y-39141067D01*
X43224176Y-39347624D01*
X43289241Y-39445000D01*
X43224176Y-39542376D01*
X43138617Y-39748933D01*
X43095000Y-39968212D01*
X43095000Y-40191788D01*
X43138617Y-40411067D01*
X43224176Y-40617624D01*
X43289241Y-40715000D01*
X43224176Y-40812376D01*
X43138617Y-41018933D01*
X43095000Y-41238212D01*
X43095000Y-41461788D01*
X43138617Y-41681067D01*
X43168845Y-41754044D01*
X42760000Y-41345199D01*
X42760000Y-28733110D01*
X46141692Y-32114802D01*
G36*
X24815000Y-22377002D02*
G01*
X24973748Y-22377002D01*
X24815000Y-22535750D01*
X24811992Y-23040937D01*
X24822483Y-23165580D01*
X24857089Y-23285781D01*
X24914481Y-23396922D01*
X24992452Y-23494731D01*
X25088006Y-23575449D01*
X25197472Y-23635974D01*
X25316642Y-23673980D01*
X25418250Y-23685000D01*
X25572998Y-23530252D01*
X25572998Y-23602200D01*
X24213271Y-24961928D01*
X23250000Y-24961928D01*
X23125518Y-24974188D01*
X23005820Y-25010498D01*
X22895506Y-25069463D01*
X22798815Y-25148815D01*
X22719463Y-25245506D01*
X22660498Y-25355820D01*
X22624188Y-25475518D01*
X22611928Y-25600000D01*
X22611928Y-27400000D01*
X22624188Y-27524482D01*
X22660498Y-27644180D01*
X22719463Y-27754494D01*
X22798815Y-27851185D01*
X22806668Y-27857630D01*
X22801726Y-27866875D01*
X22757023Y-28014243D01*
X22741928Y-28167500D01*
X22741928Y-28462500D01*
X22757023Y-28615757D01*
X22794312Y-28738684D01*
X22790498Y-28745820D01*
X22754188Y-28865518D01*
X22741928Y-28990000D01*
X22745000Y-28999250D01*
X22903750Y-29158000D01*
X23170237Y-29158000D01*
X23226875Y-29188274D01*
X23374243Y-29232977D01*
X23527500Y-29248072D01*
X23872500Y-29248072D01*
X24025757Y-29232977D01*
X24173125Y-29188274D01*
X24229763Y-29158000D01*
X24496250Y-29158000D01*
X24655000Y-28999250D01*
X24658072Y-28990000D01*
X24645812Y-28865518D01*
X24609502Y-28745820D01*
X24605688Y-28738684D01*
X24642977Y-28615757D01*
X24658072Y-28462500D01*
X24658072Y-28167500D01*
X24642977Y-28014243D01*
X24614976Y-27921935D01*
X24701185Y-27851185D01*
X24780537Y-27754494D01*
X24839502Y-27644180D01*
X24875812Y-27524482D01*
X24888072Y-27400000D01*
X24888072Y-26436729D01*
X25111928Y-26212873D01*
X25111928Y-27400000D01*
X25124188Y-27524482D01*
X25160498Y-27644180D01*
X25219463Y-27754494D01*
X25298815Y-27851185D01*
X25385024Y-27921935D01*
X25357023Y-28014243D01*
X25341928Y-28167500D01*
X25341928Y-28462500D01*
X25357023Y-28615757D01*
X25394312Y-28738684D01*
X25390498Y-28745820D01*
X25354188Y-28865518D01*
X25341928Y-28990000D01*
X25345000Y-28999250D01*
X25503750Y-29158000D01*
X25770237Y-29158000D01*
X25826875Y-29188274D01*
X25974243Y-29232977D01*
X26127500Y-29248072D01*
X26447000Y-29248072D01*
X26447000Y-29412000D01*
X26427000Y-29412000D01*
X26427000Y-29432000D01*
X26173000Y-29432000D01*
X26173000Y-29412000D01*
X25503750Y-29412000D01*
X25345000Y-29570750D01*
X25341928Y-29580000D01*
X25354188Y-29704482D01*
X25390498Y-29824180D01*
X25449463Y-29934494D01*
X25528815Y-30031185D01*
X25625506Y-30110537D01*
X25735820Y-30169502D01*
X25855518Y-30205812D01*
X25980000Y-30218072D01*
X26014250Y-30215000D01*
X26172998Y-30056252D01*
X26172998Y-30215000D01*
X26210198Y-30215000D01*
X17105199Y-39320000D01*
X16017266Y-39320000D01*
X16091383Y-39141067D01*
X16135000Y-38921788D01*
X16135000Y-38698212D01*
X16091383Y-38478933D01*
X16005824Y-38272376D01*
X15940759Y-38175000D01*
X16005824Y-38077624D01*
X16091383Y-37871067D01*
X16135000Y-37651788D01*
X16135000Y-37428212D01*
X16091383Y-37208933D01*
X16005824Y-37002376D01*
X15940759Y-36905000D01*
X16005824Y-36807624D01*
X16091383Y-36601067D01*
X16135000Y-36381788D01*
X16135000Y-36158212D01*
X16091383Y-35938933D01*
X16045112Y-35827226D01*
X16089502Y-35744180D01*
X16125812Y-35624482D01*
X16138072Y-35500000D01*
X16138072Y-34500000D01*
X16125812Y-34375518D01*
X16089502Y-34255820D01*
X16030537Y-34145506D01*
X15951185Y-34048815D01*
X15854494Y-33969463D01*
X15744180Y-33910498D01*
X15624482Y-33874188D01*
X15500000Y-33861928D01*
X14516105Y-33861928D01*
X18798033Y-29580000D01*
X22741928Y-29580000D01*
X22754188Y-29704482D01*
X22790498Y-29824180D01*
X22849463Y-29934494D01*
X22928815Y-30031185D01*
X23025506Y-30110537D01*
X23135820Y-30169502D01*
X23255518Y-30205812D01*
X23380000Y-30218072D01*
X23414250Y-30215000D01*
X23573000Y-30056250D01*
X23573000Y-29412000D01*
X23827000Y-29412000D01*
X23827000Y-30056250D01*
X23985750Y-30215000D01*
X24020000Y-30218072D01*
X24144482Y-30205812D01*
X24264180Y-30169502D01*
X24374494Y-30110537D01*
X24471185Y-30031185D01*
X24550537Y-29934494D01*
X24609502Y-29824180D01*
X24645812Y-29704482D01*
X24658072Y-29580000D01*
X24655000Y-29570750D01*
X24496250Y-29412000D01*
X23827000Y-29412000D01*
X23573000Y-29412000D01*
X22903750Y-29412000D01*
X22745000Y-29570750D01*
X22741928Y-29580000D01*
X18798033Y-29580000D01*
X21619962Y-26758072D01*
X21632500Y-26758072D01*
X21785757Y-26742977D01*
X21933125Y-26698274D01*
X22068940Y-26625679D01*
X22187983Y-26527983D01*
X22285679Y-26408940D01*
X22358274Y-26273125D01*
X22402977Y-26125757D01*
X22418072Y-25972500D01*
X22418072Y-25927140D01*
X22422474Y-25921776D01*
X22493046Y-25789747D01*
X22536503Y-25646486D01*
X22547500Y-25534833D01*
X22551177Y-25497500D01*
X22547500Y-25460167D01*
X22547500Y-25215143D01*
X22612115Y-25162115D01*
X22718671Y-25032275D01*
X22797850Y-24884142D01*
X22846608Y-24723408D01*
X22863072Y-24556250D01*
X22863072Y-24299229D01*
X24815000Y-22347303D01*
X24815000Y-22377002D01*
G37*
X24815000Y-22377002D02*
X24973748Y-22377002D01*
X24815000Y-22535750D01*
X24811992Y-23040937D01*
X24822483Y-23165580D01*
X24857089Y-23285781D01*
X24914481Y-23396922D01*
X24992452Y-23494731D01*
X25088006Y-23575449D01*
X25197472Y-23635974D01*
X25316642Y-23673980D01*
X25418250Y-23685000D01*
X25572998Y-23530252D01*
X25572998Y-23602200D01*
X24213271Y-24961928D01*
X23250000Y-24961928D01*
X23125518Y-24974188D01*
X23005820Y-25010498D01*
X22895506Y-25069463D01*
X22798815Y-25148815D01*
X22719463Y-25245506D01*
X22660498Y-25355820D01*
X22624188Y-25475518D01*
X22611928Y-25600000D01*
X22611928Y-27400000D01*
X22624188Y-27524482D01*
X22660498Y-27644180D01*
X22719463Y-27754494D01*
X22798815Y-27851185D01*
X22806668Y-27857630D01*
X22801726Y-27866875D01*
X22757023Y-28014243D01*
X22741928Y-28167500D01*
X22741928Y-28462500D01*
X22757023Y-28615757D01*
X22794312Y-28738684D01*
X22790498Y-28745820D01*
X22754188Y-28865518D01*
X22741928Y-28990000D01*
X22745000Y-28999250D01*
X22903750Y-29158000D01*
X23170237Y-29158000D01*
X23226875Y-29188274D01*
X23374243Y-29232977D01*
X23527500Y-29248072D01*
X23872500Y-29248072D01*
X24025757Y-29232977D01*
X24173125Y-29188274D01*
X24229763Y-29158000D01*
X24496250Y-29158000D01*
X24655000Y-28999250D01*
X24658072Y-28990000D01*
X24645812Y-28865518D01*
X24609502Y-28745820D01*
X24605688Y-28738684D01*
X24642977Y-28615757D01*
X24658072Y-28462500D01*
X24658072Y-28167500D01*
X24642977Y-28014243D01*
X24614976Y-27921935D01*
X24701185Y-27851185D01*
X24780537Y-27754494D01*
X24839502Y-27644180D01*
X24875812Y-27524482D01*
X24888072Y-27400000D01*
X24888072Y-26436729D01*
X25111928Y-26212873D01*
X25111928Y-27400000D01*
X25124188Y-27524482D01*
X25160498Y-27644180D01*
X25219463Y-27754494D01*
X25298815Y-27851185D01*
X25385024Y-27921935D01*
X25357023Y-28014243D01*
X25341928Y-28167500D01*
X25341928Y-28462500D01*
X25357023Y-28615757D01*
X25394312Y-28738684D01*
X25390498Y-28745820D01*
X25354188Y-28865518D01*
X25341928Y-28990000D01*
X25345000Y-28999250D01*
X25503750Y-29158000D01*
X25770237Y-29158000D01*
X25826875Y-29188274D01*
X25974243Y-29232977D01*
X26127500Y-29248072D01*
X26447000Y-29248072D01*
X26447000Y-29412000D01*
X26427000Y-29412000D01*
X26427000Y-29432000D01*
X26173000Y-29432000D01*
X26173000Y-29412000D01*
X25503750Y-29412000D01*
X25345000Y-29570750D01*
X25341928Y-29580000D01*
X25354188Y-29704482D01*
X25390498Y-29824180D01*
X25449463Y-29934494D01*
X25528815Y-30031185D01*
X25625506Y-30110537D01*
X25735820Y-30169502D01*
X25855518Y-30205812D01*
X25980000Y-30218072D01*
X26014250Y-30215000D01*
X26172998Y-30056252D01*
X26172998Y-30215000D01*
X26210198Y-30215000D01*
X17105199Y-39320000D01*
X16017266Y-39320000D01*
X16091383Y-39141067D01*
X16135000Y-38921788D01*
X16135000Y-38698212D01*
X16091383Y-38478933D01*
X16005824Y-38272376D01*
X15940759Y-38175000D01*
X16005824Y-38077624D01*
X16091383Y-37871067D01*
X16135000Y-37651788D01*
X16135000Y-37428212D01*
X16091383Y-37208933D01*
X16005824Y-37002376D01*
X15940759Y-36905000D01*
X16005824Y-36807624D01*
X16091383Y-36601067D01*
X16135000Y-36381788D01*
X16135000Y-36158212D01*
X16091383Y-35938933D01*
X16045112Y-35827226D01*
X16089502Y-35744180D01*
X16125812Y-35624482D01*
X16138072Y-35500000D01*
X16138072Y-34500000D01*
X16125812Y-34375518D01*
X16089502Y-34255820D01*
X16030537Y-34145506D01*
X15951185Y-34048815D01*
X15854494Y-33969463D01*
X15744180Y-33910498D01*
X15624482Y-33874188D01*
X15500000Y-33861928D01*
X14516105Y-33861928D01*
X18798033Y-29580000D01*
X22741928Y-29580000D01*
X22754188Y-29704482D01*
X22790498Y-29824180D01*
X22849463Y-29934494D01*
X22928815Y-30031185D01*
X23025506Y-30110537D01*
X23135820Y-30169502D01*
X23255518Y-30205812D01*
X23380000Y-30218072D01*
X23414250Y-30215000D01*
X23573000Y-30056250D01*
X23573000Y-29412000D01*
X23827000Y-29412000D01*
X23827000Y-30056250D01*
X23985750Y-30215000D01*
X24020000Y-30218072D01*
X24144482Y-30205812D01*
X24264180Y-30169502D01*
X24374494Y-30110537D01*
X24471185Y-30031185D01*
X24550537Y-29934494D01*
X24609502Y-29824180D01*
X24645812Y-29704482D01*
X24658072Y-29580000D01*
X24655000Y-29570750D01*
X24496250Y-29412000D01*
X23827000Y-29412000D01*
X23573000Y-29412000D01*
X22903750Y-29412000D01*
X22745000Y-29570750D01*
X22741928Y-29580000D01*
X18798033Y-29580000D01*
X21619962Y-26758072D01*
X21632500Y-26758072D01*
X21785757Y-26742977D01*
X21933125Y-26698274D01*
X22068940Y-26625679D01*
X22187983Y-26527983D01*
X22285679Y-26408940D01*
X22358274Y-26273125D01*
X22402977Y-26125757D01*
X22418072Y-25972500D01*
X22418072Y-25927140D01*
X22422474Y-25921776D01*
X22493046Y-25789747D01*
X22536503Y-25646486D01*
X22547500Y-25534833D01*
X22551177Y-25497500D01*
X22547500Y-25460167D01*
X22547500Y-25215143D01*
X22612115Y-25162115D01*
X22718671Y-25032275D01*
X22797850Y-24884142D01*
X22846608Y-24723408D01*
X22863072Y-24556250D01*
X22863072Y-24299229D01*
X24815000Y-22347303D01*
X24815000Y-22377002D01*
G36*
X13857000Y-34873000D02*
G01*
X13861928Y-34873000D01*
X13861928Y-35127000D01*
X13857000Y-35127000D01*
X13857000Y-35138026D01*
X13841788Y-35135000D01*
X13618212Y-35135000D01*
X13603000Y-35138026D01*
X13603000Y-35127000D01*
X13583000Y-35127000D01*
X13583000Y-34873000D01*
X13603000Y-34873000D01*
X13603000Y-34853000D01*
X13857000Y-34853000D01*
X13857000Y-34873000D01*
G37*
X13857000Y-34873000D02*
X13861928Y-34873000D01*
X13861928Y-35127000D01*
X13857000Y-35127000D01*
X13857000Y-35138026D01*
X13841788Y-35135000D01*
X13618212Y-35135000D01*
X13603000Y-35138026D01*
X13603000Y-35127000D01*
X13583000Y-35127000D01*
X13583000Y-34873000D01*
X13603000Y-34873000D01*
X13603000Y-34853000D01*
X13857000Y-34853000D01*
X13857000Y-34873000D01*
G36*
X25611928Y-22397000D02*
G01*
X25577000Y-22397000D01*
X25577000Y-22377000D01*
X25553000Y-22377000D01*
X25553000Y-22123000D01*
X25577000Y-22123000D01*
X25577000Y-22103000D01*
X25611928Y-22103000D01*
X25611928Y-22397000D01*
G37*
X25611928Y-22397000D02*
X25577000Y-22397000D01*
X25577000Y-22377000D01*
X25553000Y-22377000D01*
X25553000Y-22123000D01*
X25577000Y-22123000D01*
X25577000Y-22103000D01*
X25611928Y-22103000D01*
X25611928Y-22397000D01*
G36*
X20339500Y-18473000D02*
G01*
X20359500Y-18473000D01*
X20359500Y-18727000D01*
X20339500Y-18727000D01*
X20339500Y-18747000D01*
X20085500Y-18747000D01*
X20085500Y-18727000D01*
X20065500Y-18727000D01*
X20065500Y-18473000D01*
X20085500Y-18473000D01*
X20085500Y-18453000D01*
X20339500Y-18453000D01*
X20339500Y-18473000D01*
G37*
X20339500Y-18473000D02*
X20359500Y-18473000D01*
X20359500Y-18727000D01*
X20339500Y-18727000D01*
X20339500Y-18747000D01*
X20085500Y-18747000D01*
X20085500Y-18727000D01*
X20065500Y-18727000D01*
X20065500Y-18473000D01*
X20085500Y-18473000D01*
X20085500Y-18453000D01*
X20339500Y-18453000D01*
X20339500Y-18473000D01*
G36*
X39567000Y-17173000D02*
G01*
X39587000Y-17173000D01*
X39587000Y-17427000D01*
X39567000Y-17427000D01*
X39567000Y-17447000D01*
X39313000Y-17447000D01*
X39313000Y-17427000D01*
X39293000Y-17427000D01*
X39293000Y-17173000D01*
X39313000Y-17173000D01*
X39313000Y-17153000D01*
X39567000Y-17153000D01*
X39567000Y-17173000D01*
G37*
X39567000Y-17173000D02*
X39587000Y-17173000D01*
X39587000Y-17427000D01*
X39567000Y-17427000D01*
X39567000Y-17447000D01*
X39313000Y-17447000D01*
X39313000Y-17427000D01*
X39293000Y-17427000D01*
X39293000Y-17173000D01*
X39313000Y-17173000D01*
X39313000Y-17153000D01*
X39567000Y-17153000D01*
X39567000Y-17173000D01*
M02*
