G04 #@! TF.GenerationSoftware,KiCad,Pcbnew,5.1.5-52549c5~84~ubuntu18.04.1*
G04 #@! TF.CreationDate,2019-12-19T18:23:33+05:30*
G04 #@! TF.ProjectId,senseble_rev1,73656e73-6562-46c6-955f-726576312e6b,rev?*
G04 #@! TF.SameCoordinates,Original*
G04 #@! TF.FileFunction,Copper,L1,Top*
G04 #@! TF.FilePolarity,Positive*
%FSLAX46Y46*%
G04 Gerber Fmt 4.6, Leading zero omitted, Abs format (unit mm)*
G04 Created by KiCad (PCBNEW 5.1.5-52549c5~84~ubuntu18.04.1) date 2019-12-19 18:23:33*
%MOMM*%
%LPD*%
G04 APERTURE LIST*
%ADD10C,0.100000*%
%ADD11O,2.000000X1.700000*%
%ADD12R,1.700000X1.700000*%
%ADD13O,1.700000X1.700000*%
%ADD14R,1.000000X1.000000*%
%ADD15O,1.000000X1.000000*%
%ADD16R,0.700000X1.300000*%
%ADD17R,0.800000X0.900000*%
%ADD18R,1.200000X0.900000*%
%ADD19C,2.000000*%
%ADD20O,3.800000X2.500000*%
%ADD21R,1.200000X0.500000*%
%ADD22R,1.600000X0.900000*%
%ADD23R,1.600000X0.500000*%
%ADD24R,0.500000X1.600000*%
%ADD25R,1.000000X1.800000*%
%ADD26C,0.800000*%
%ADD27C,0.250000*%
%ADD28C,0.254000*%
G04 APERTURE END LIST*
G04 #@! TA.AperFunction,ComponentPad*
D10*
G36*
X4774504Y-23151204D02*
G01*
X4798773Y-23154804D01*
X4822571Y-23160765D01*
X4845671Y-23169030D01*
X4867849Y-23179520D01*
X4888893Y-23192133D01*
X4908598Y-23206747D01*
X4926777Y-23223223D01*
X4943253Y-23241402D01*
X4957867Y-23261107D01*
X4970480Y-23282151D01*
X4980970Y-23304329D01*
X4989235Y-23327429D01*
X4995196Y-23351227D01*
X4998796Y-23375496D01*
X5000000Y-23400000D01*
X5000000Y-24600000D01*
X4998796Y-24624504D01*
X4995196Y-24648773D01*
X4989235Y-24672571D01*
X4980970Y-24695671D01*
X4970480Y-24717849D01*
X4957867Y-24738893D01*
X4943253Y-24758598D01*
X4926777Y-24776777D01*
X4908598Y-24793253D01*
X4888893Y-24807867D01*
X4867849Y-24820480D01*
X4845671Y-24830970D01*
X4822571Y-24839235D01*
X4798773Y-24845196D01*
X4774504Y-24848796D01*
X4750000Y-24850000D01*
X3250000Y-24850000D01*
X3225496Y-24848796D01*
X3201227Y-24845196D01*
X3177429Y-24839235D01*
X3154329Y-24830970D01*
X3132151Y-24820480D01*
X3111107Y-24807867D01*
X3091402Y-24793253D01*
X3073223Y-24776777D01*
X3056747Y-24758598D01*
X3042133Y-24738893D01*
X3029520Y-24717849D01*
X3019030Y-24695671D01*
X3010765Y-24672571D01*
X3004804Y-24648773D01*
X3001204Y-24624504D01*
X3000000Y-24600000D01*
X3000000Y-23400000D01*
X3001204Y-23375496D01*
X3004804Y-23351227D01*
X3010765Y-23327429D01*
X3019030Y-23304329D01*
X3029520Y-23282151D01*
X3042133Y-23261107D01*
X3056747Y-23241402D01*
X3073223Y-23223223D01*
X3091402Y-23206747D01*
X3111107Y-23192133D01*
X3132151Y-23179520D01*
X3154329Y-23169030D01*
X3177429Y-23160765D01*
X3201227Y-23154804D01*
X3225496Y-23151204D01*
X3250000Y-23150000D01*
X4750000Y-23150000D01*
X4774504Y-23151204D01*
G37*
G04 #@! TD.AperFunction*
D11*
X4000000Y-21500000D03*
G04 #@! TA.AperFunction,SMDPad,CuDef*
D10*
G36*
X22027691Y-18126053D02*
G01*
X22048926Y-18129203D01*
X22069750Y-18134419D01*
X22089962Y-18141651D01*
X22109368Y-18150830D01*
X22127781Y-18161866D01*
X22145024Y-18174654D01*
X22160930Y-18189070D01*
X22175346Y-18204976D01*
X22188134Y-18222219D01*
X22199170Y-18240632D01*
X22208349Y-18260038D01*
X22215581Y-18280250D01*
X22220797Y-18301074D01*
X22223947Y-18322309D01*
X22225000Y-18343750D01*
X22225000Y-18856250D01*
X22223947Y-18877691D01*
X22220797Y-18898926D01*
X22215581Y-18919750D01*
X22208349Y-18939962D01*
X22199170Y-18959368D01*
X22188134Y-18977781D01*
X22175346Y-18995024D01*
X22160930Y-19010930D01*
X22145024Y-19025346D01*
X22127781Y-19038134D01*
X22109368Y-19049170D01*
X22089962Y-19058349D01*
X22069750Y-19065581D01*
X22048926Y-19070797D01*
X22027691Y-19073947D01*
X22006250Y-19075000D01*
X21568750Y-19075000D01*
X21547309Y-19073947D01*
X21526074Y-19070797D01*
X21505250Y-19065581D01*
X21485038Y-19058349D01*
X21465632Y-19049170D01*
X21447219Y-19038134D01*
X21429976Y-19025346D01*
X21414070Y-19010930D01*
X21399654Y-18995024D01*
X21386866Y-18977781D01*
X21375830Y-18959368D01*
X21366651Y-18939962D01*
X21359419Y-18919750D01*
X21354203Y-18898926D01*
X21351053Y-18877691D01*
X21350000Y-18856250D01*
X21350000Y-18343750D01*
X21351053Y-18322309D01*
X21354203Y-18301074D01*
X21359419Y-18280250D01*
X21366651Y-18260038D01*
X21375830Y-18240632D01*
X21386866Y-18222219D01*
X21399654Y-18204976D01*
X21414070Y-18189070D01*
X21429976Y-18174654D01*
X21447219Y-18161866D01*
X21465632Y-18150830D01*
X21485038Y-18141651D01*
X21505250Y-18134419D01*
X21526074Y-18129203D01*
X21547309Y-18126053D01*
X21568750Y-18125000D01*
X22006250Y-18125000D01*
X22027691Y-18126053D01*
G37*
G04 #@! TD.AperFunction*
G04 #@! TA.AperFunction,SMDPad,CuDef*
G36*
X20452691Y-18126053D02*
G01*
X20473926Y-18129203D01*
X20494750Y-18134419D01*
X20514962Y-18141651D01*
X20534368Y-18150830D01*
X20552781Y-18161866D01*
X20570024Y-18174654D01*
X20585930Y-18189070D01*
X20600346Y-18204976D01*
X20613134Y-18222219D01*
X20624170Y-18240632D01*
X20633349Y-18260038D01*
X20640581Y-18280250D01*
X20645797Y-18301074D01*
X20648947Y-18322309D01*
X20650000Y-18343750D01*
X20650000Y-18856250D01*
X20648947Y-18877691D01*
X20645797Y-18898926D01*
X20640581Y-18919750D01*
X20633349Y-18939962D01*
X20624170Y-18959368D01*
X20613134Y-18977781D01*
X20600346Y-18995024D01*
X20585930Y-19010930D01*
X20570024Y-19025346D01*
X20552781Y-19038134D01*
X20534368Y-19049170D01*
X20514962Y-19058349D01*
X20494750Y-19065581D01*
X20473926Y-19070797D01*
X20452691Y-19073947D01*
X20431250Y-19075000D01*
X19993750Y-19075000D01*
X19972309Y-19073947D01*
X19951074Y-19070797D01*
X19930250Y-19065581D01*
X19910038Y-19058349D01*
X19890632Y-19049170D01*
X19872219Y-19038134D01*
X19854976Y-19025346D01*
X19839070Y-19010930D01*
X19824654Y-18995024D01*
X19811866Y-18977781D01*
X19800830Y-18959368D01*
X19791651Y-18939962D01*
X19784419Y-18919750D01*
X19779203Y-18898926D01*
X19776053Y-18877691D01*
X19775000Y-18856250D01*
X19775000Y-18343750D01*
X19776053Y-18322309D01*
X19779203Y-18301074D01*
X19784419Y-18280250D01*
X19791651Y-18260038D01*
X19800830Y-18240632D01*
X19811866Y-18222219D01*
X19824654Y-18204976D01*
X19839070Y-18189070D01*
X19854976Y-18174654D01*
X19872219Y-18161866D01*
X19890632Y-18150830D01*
X19910038Y-18141651D01*
X19930250Y-18134419D01*
X19951074Y-18129203D01*
X19972309Y-18126053D01*
X19993750Y-18125000D01*
X20431250Y-18125000D01*
X20452691Y-18126053D01*
G37*
G04 #@! TD.AperFunction*
G04 #@! TA.AperFunction,SMDPad,CuDef*
G36*
X6699504Y-35726204D02*
G01*
X6723773Y-35729804D01*
X6747571Y-35735765D01*
X6770671Y-35744030D01*
X6792849Y-35754520D01*
X6813893Y-35767133D01*
X6833598Y-35781747D01*
X6851777Y-35798223D01*
X6868253Y-35816402D01*
X6882867Y-35836107D01*
X6895480Y-35857151D01*
X6905970Y-35879329D01*
X6914235Y-35902429D01*
X6920196Y-35926227D01*
X6923796Y-35950496D01*
X6925000Y-35975000D01*
X6925000Y-37225000D01*
X6923796Y-37249504D01*
X6920196Y-37273773D01*
X6914235Y-37297571D01*
X6905970Y-37320671D01*
X6895480Y-37342849D01*
X6882867Y-37363893D01*
X6868253Y-37383598D01*
X6851777Y-37401777D01*
X6833598Y-37418253D01*
X6813893Y-37432867D01*
X6792849Y-37445480D01*
X6770671Y-37455970D01*
X6747571Y-37464235D01*
X6723773Y-37470196D01*
X6699504Y-37473796D01*
X6675000Y-37475000D01*
X5925000Y-37475000D01*
X5900496Y-37473796D01*
X5876227Y-37470196D01*
X5852429Y-37464235D01*
X5829329Y-37455970D01*
X5807151Y-37445480D01*
X5786107Y-37432867D01*
X5766402Y-37418253D01*
X5748223Y-37401777D01*
X5731747Y-37383598D01*
X5717133Y-37363893D01*
X5704520Y-37342849D01*
X5694030Y-37320671D01*
X5685765Y-37297571D01*
X5679804Y-37273773D01*
X5676204Y-37249504D01*
X5675000Y-37225000D01*
X5675000Y-35975000D01*
X5676204Y-35950496D01*
X5679804Y-35926227D01*
X5685765Y-35902429D01*
X5694030Y-35879329D01*
X5704520Y-35857151D01*
X5717133Y-35836107D01*
X5731747Y-35816402D01*
X5748223Y-35798223D01*
X5766402Y-35781747D01*
X5786107Y-35767133D01*
X5807151Y-35754520D01*
X5829329Y-35744030D01*
X5852429Y-35735765D01*
X5876227Y-35729804D01*
X5900496Y-35726204D01*
X5925000Y-35725000D01*
X6675000Y-35725000D01*
X6699504Y-35726204D01*
G37*
G04 #@! TD.AperFunction*
G04 #@! TA.AperFunction,SMDPad,CuDef*
G36*
X9499504Y-35726204D02*
G01*
X9523773Y-35729804D01*
X9547571Y-35735765D01*
X9570671Y-35744030D01*
X9592849Y-35754520D01*
X9613893Y-35767133D01*
X9633598Y-35781747D01*
X9651777Y-35798223D01*
X9668253Y-35816402D01*
X9682867Y-35836107D01*
X9695480Y-35857151D01*
X9705970Y-35879329D01*
X9714235Y-35902429D01*
X9720196Y-35926227D01*
X9723796Y-35950496D01*
X9725000Y-35975000D01*
X9725000Y-37225000D01*
X9723796Y-37249504D01*
X9720196Y-37273773D01*
X9714235Y-37297571D01*
X9705970Y-37320671D01*
X9695480Y-37342849D01*
X9682867Y-37363893D01*
X9668253Y-37383598D01*
X9651777Y-37401777D01*
X9633598Y-37418253D01*
X9613893Y-37432867D01*
X9592849Y-37445480D01*
X9570671Y-37455970D01*
X9547571Y-37464235D01*
X9523773Y-37470196D01*
X9499504Y-37473796D01*
X9475000Y-37475000D01*
X8725000Y-37475000D01*
X8700496Y-37473796D01*
X8676227Y-37470196D01*
X8652429Y-37464235D01*
X8629329Y-37455970D01*
X8607151Y-37445480D01*
X8586107Y-37432867D01*
X8566402Y-37418253D01*
X8548223Y-37401777D01*
X8531747Y-37383598D01*
X8517133Y-37363893D01*
X8504520Y-37342849D01*
X8494030Y-37320671D01*
X8485765Y-37297571D01*
X8479804Y-37273773D01*
X8476204Y-37249504D01*
X8475000Y-37225000D01*
X8475000Y-35975000D01*
X8476204Y-35950496D01*
X8479804Y-35926227D01*
X8485765Y-35902429D01*
X8494030Y-35879329D01*
X8504520Y-35857151D01*
X8517133Y-35836107D01*
X8531747Y-35816402D01*
X8548223Y-35798223D01*
X8566402Y-35781747D01*
X8586107Y-35767133D01*
X8607151Y-35754520D01*
X8629329Y-35744030D01*
X8652429Y-35735765D01*
X8676227Y-35729804D01*
X8700496Y-35726204D01*
X8725000Y-35725000D01*
X9475000Y-35725000D01*
X9499504Y-35726204D01*
G37*
G04 #@! TD.AperFunction*
G04 #@! TA.AperFunction,SMDPad,CuDef*
G36*
X20452691Y-23826053D02*
G01*
X20473926Y-23829203D01*
X20494750Y-23834419D01*
X20514962Y-23841651D01*
X20534368Y-23850830D01*
X20552781Y-23861866D01*
X20570024Y-23874654D01*
X20585930Y-23889070D01*
X20600346Y-23904976D01*
X20613134Y-23922219D01*
X20624170Y-23940632D01*
X20633349Y-23960038D01*
X20640581Y-23980250D01*
X20645797Y-24001074D01*
X20648947Y-24022309D01*
X20650000Y-24043750D01*
X20650000Y-24556250D01*
X20648947Y-24577691D01*
X20645797Y-24598926D01*
X20640581Y-24619750D01*
X20633349Y-24639962D01*
X20624170Y-24659368D01*
X20613134Y-24677781D01*
X20600346Y-24695024D01*
X20585930Y-24710930D01*
X20570024Y-24725346D01*
X20552781Y-24738134D01*
X20534368Y-24749170D01*
X20514962Y-24758349D01*
X20494750Y-24765581D01*
X20473926Y-24770797D01*
X20452691Y-24773947D01*
X20431250Y-24775000D01*
X19993750Y-24775000D01*
X19972309Y-24773947D01*
X19951074Y-24770797D01*
X19930250Y-24765581D01*
X19910038Y-24758349D01*
X19890632Y-24749170D01*
X19872219Y-24738134D01*
X19854976Y-24725346D01*
X19839070Y-24710930D01*
X19824654Y-24695024D01*
X19811866Y-24677781D01*
X19800830Y-24659368D01*
X19791651Y-24639962D01*
X19784419Y-24619750D01*
X19779203Y-24598926D01*
X19776053Y-24577691D01*
X19775000Y-24556250D01*
X19775000Y-24043750D01*
X19776053Y-24022309D01*
X19779203Y-24001074D01*
X19784419Y-23980250D01*
X19791651Y-23960038D01*
X19800830Y-23940632D01*
X19811866Y-23922219D01*
X19824654Y-23904976D01*
X19839070Y-23889070D01*
X19854976Y-23874654D01*
X19872219Y-23861866D01*
X19890632Y-23850830D01*
X19910038Y-23841651D01*
X19930250Y-23834419D01*
X19951074Y-23829203D01*
X19972309Y-23826053D01*
X19993750Y-23825000D01*
X20431250Y-23825000D01*
X20452691Y-23826053D01*
G37*
G04 #@! TD.AperFunction*
G04 #@! TA.AperFunction,SMDPad,CuDef*
G36*
X22027691Y-23826053D02*
G01*
X22048926Y-23829203D01*
X22069750Y-23834419D01*
X22089962Y-23841651D01*
X22109368Y-23850830D01*
X22127781Y-23861866D01*
X22145024Y-23874654D01*
X22160930Y-23889070D01*
X22175346Y-23904976D01*
X22188134Y-23922219D01*
X22199170Y-23940632D01*
X22208349Y-23960038D01*
X22215581Y-23980250D01*
X22220797Y-24001074D01*
X22223947Y-24022309D01*
X22225000Y-24043750D01*
X22225000Y-24556250D01*
X22223947Y-24577691D01*
X22220797Y-24598926D01*
X22215581Y-24619750D01*
X22208349Y-24639962D01*
X22199170Y-24659368D01*
X22188134Y-24677781D01*
X22175346Y-24695024D01*
X22160930Y-24710930D01*
X22145024Y-24725346D01*
X22127781Y-24738134D01*
X22109368Y-24749170D01*
X22089962Y-24758349D01*
X22069750Y-24765581D01*
X22048926Y-24770797D01*
X22027691Y-24773947D01*
X22006250Y-24775000D01*
X21568750Y-24775000D01*
X21547309Y-24773947D01*
X21526074Y-24770797D01*
X21505250Y-24765581D01*
X21485038Y-24758349D01*
X21465632Y-24749170D01*
X21447219Y-24738134D01*
X21429976Y-24725346D01*
X21414070Y-24710930D01*
X21399654Y-24695024D01*
X21386866Y-24677781D01*
X21375830Y-24659368D01*
X21366651Y-24639962D01*
X21359419Y-24619750D01*
X21354203Y-24598926D01*
X21351053Y-24577691D01*
X21350000Y-24556250D01*
X21350000Y-24043750D01*
X21351053Y-24022309D01*
X21354203Y-24001074D01*
X21359419Y-23980250D01*
X21366651Y-23960038D01*
X21375830Y-23940632D01*
X21386866Y-23922219D01*
X21399654Y-23904976D01*
X21414070Y-23889070D01*
X21429976Y-23874654D01*
X21447219Y-23861866D01*
X21465632Y-23850830D01*
X21485038Y-23841651D01*
X21505250Y-23834419D01*
X21526074Y-23829203D01*
X21547309Y-23826053D01*
X21568750Y-23825000D01*
X22006250Y-23825000D01*
X22027691Y-23826053D01*
G37*
G04 #@! TD.AperFunction*
G04 #@! TA.AperFunction,SMDPad,CuDef*
G36*
X23886958Y-28990710D02*
G01*
X23901276Y-28992834D01*
X23915317Y-28996351D01*
X23928946Y-29001228D01*
X23942031Y-29007417D01*
X23954447Y-29014858D01*
X23966073Y-29023481D01*
X23976798Y-29033202D01*
X23986519Y-29043927D01*
X23995142Y-29055553D01*
X24002583Y-29067969D01*
X24008772Y-29081054D01*
X24013649Y-29094683D01*
X24017166Y-29108724D01*
X24019290Y-29123042D01*
X24020000Y-29137500D01*
X24020000Y-29432500D01*
X24019290Y-29446958D01*
X24017166Y-29461276D01*
X24013649Y-29475317D01*
X24008772Y-29488946D01*
X24002583Y-29502031D01*
X23995142Y-29514447D01*
X23986519Y-29526073D01*
X23976798Y-29536798D01*
X23966073Y-29546519D01*
X23954447Y-29555142D01*
X23942031Y-29562583D01*
X23928946Y-29568772D01*
X23915317Y-29573649D01*
X23901276Y-29577166D01*
X23886958Y-29579290D01*
X23872500Y-29580000D01*
X23527500Y-29580000D01*
X23513042Y-29579290D01*
X23498724Y-29577166D01*
X23484683Y-29573649D01*
X23471054Y-29568772D01*
X23457969Y-29562583D01*
X23445553Y-29555142D01*
X23433927Y-29546519D01*
X23423202Y-29536798D01*
X23413481Y-29526073D01*
X23404858Y-29514447D01*
X23397417Y-29502031D01*
X23391228Y-29488946D01*
X23386351Y-29475317D01*
X23382834Y-29461276D01*
X23380710Y-29446958D01*
X23380000Y-29432500D01*
X23380000Y-29137500D01*
X23380710Y-29123042D01*
X23382834Y-29108724D01*
X23386351Y-29094683D01*
X23391228Y-29081054D01*
X23397417Y-29067969D01*
X23404858Y-29055553D01*
X23413481Y-29043927D01*
X23423202Y-29033202D01*
X23433927Y-29023481D01*
X23445553Y-29014858D01*
X23457969Y-29007417D01*
X23471054Y-29001228D01*
X23484683Y-28996351D01*
X23498724Y-28992834D01*
X23513042Y-28990710D01*
X23527500Y-28990000D01*
X23872500Y-28990000D01*
X23886958Y-28990710D01*
G37*
G04 #@! TD.AperFunction*
G04 #@! TA.AperFunction,SMDPad,CuDef*
G36*
X23886958Y-28020710D02*
G01*
X23901276Y-28022834D01*
X23915317Y-28026351D01*
X23928946Y-28031228D01*
X23942031Y-28037417D01*
X23954447Y-28044858D01*
X23966073Y-28053481D01*
X23976798Y-28063202D01*
X23986519Y-28073927D01*
X23995142Y-28085553D01*
X24002583Y-28097969D01*
X24008772Y-28111054D01*
X24013649Y-28124683D01*
X24017166Y-28138724D01*
X24019290Y-28153042D01*
X24020000Y-28167500D01*
X24020000Y-28462500D01*
X24019290Y-28476958D01*
X24017166Y-28491276D01*
X24013649Y-28505317D01*
X24008772Y-28518946D01*
X24002583Y-28532031D01*
X23995142Y-28544447D01*
X23986519Y-28556073D01*
X23976798Y-28566798D01*
X23966073Y-28576519D01*
X23954447Y-28585142D01*
X23942031Y-28592583D01*
X23928946Y-28598772D01*
X23915317Y-28603649D01*
X23901276Y-28607166D01*
X23886958Y-28609290D01*
X23872500Y-28610000D01*
X23527500Y-28610000D01*
X23513042Y-28609290D01*
X23498724Y-28607166D01*
X23484683Y-28603649D01*
X23471054Y-28598772D01*
X23457969Y-28592583D01*
X23445553Y-28585142D01*
X23433927Y-28576519D01*
X23423202Y-28566798D01*
X23413481Y-28556073D01*
X23404858Y-28544447D01*
X23397417Y-28532031D01*
X23391228Y-28518946D01*
X23386351Y-28505317D01*
X23382834Y-28491276D01*
X23380710Y-28476958D01*
X23380000Y-28462500D01*
X23380000Y-28167500D01*
X23380710Y-28153042D01*
X23382834Y-28138724D01*
X23386351Y-28124683D01*
X23391228Y-28111054D01*
X23397417Y-28097969D01*
X23404858Y-28085553D01*
X23413481Y-28073927D01*
X23423202Y-28063202D01*
X23433927Y-28053481D01*
X23445553Y-28044858D01*
X23457969Y-28037417D01*
X23471054Y-28031228D01*
X23484683Y-28026351D01*
X23498724Y-28022834D01*
X23513042Y-28020710D01*
X23527500Y-28020000D01*
X23872500Y-28020000D01*
X23886958Y-28020710D01*
G37*
G04 #@! TD.AperFunction*
G04 #@! TA.AperFunction,SMDPad,CuDef*
G36*
X21646958Y-25480710D02*
G01*
X21661276Y-25482834D01*
X21675317Y-25486351D01*
X21688946Y-25491228D01*
X21702031Y-25497417D01*
X21714447Y-25504858D01*
X21726073Y-25513481D01*
X21736798Y-25523202D01*
X21746519Y-25533927D01*
X21755142Y-25545553D01*
X21762583Y-25557969D01*
X21768772Y-25571054D01*
X21773649Y-25584683D01*
X21777166Y-25598724D01*
X21779290Y-25613042D01*
X21780000Y-25627500D01*
X21780000Y-25972500D01*
X21779290Y-25986958D01*
X21777166Y-26001276D01*
X21773649Y-26015317D01*
X21768772Y-26028946D01*
X21762583Y-26042031D01*
X21755142Y-26054447D01*
X21746519Y-26066073D01*
X21736798Y-26076798D01*
X21726073Y-26086519D01*
X21714447Y-26095142D01*
X21702031Y-26102583D01*
X21688946Y-26108772D01*
X21675317Y-26113649D01*
X21661276Y-26117166D01*
X21646958Y-26119290D01*
X21632500Y-26120000D01*
X21337500Y-26120000D01*
X21323042Y-26119290D01*
X21308724Y-26117166D01*
X21294683Y-26113649D01*
X21281054Y-26108772D01*
X21267969Y-26102583D01*
X21255553Y-26095142D01*
X21243927Y-26086519D01*
X21233202Y-26076798D01*
X21223481Y-26066073D01*
X21214858Y-26054447D01*
X21207417Y-26042031D01*
X21201228Y-26028946D01*
X21196351Y-26015317D01*
X21192834Y-26001276D01*
X21190710Y-25986958D01*
X21190000Y-25972500D01*
X21190000Y-25627500D01*
X21190710Y-25613042D01*
X21192834Y-25598724D01*
X21196351Y-25584683D01*
X21201228Y-25571054D01*
X21207417Y-25557969D01*
X21214858Y-25545553D01*
X21223481Y-25533927D01*
X21233202Y-25523202D01*
X21243927Y-25513481D01*
X21255553Y-25504858D01*
X21267969Y-25497417D01*
X21281054Y-25491228D01*
X21294683Y-25486351D01*
X21308724Y-25482834D01*
X21323042Y-25480710D01*
X21337500Y-25480000D01*
X21632500Y-25480000D01*
X21646958Y-25480710D01*
G37*
G04 #@! TD.AperFunction*
G04 #@! TA.AperFunction,SMDPad,CuDef*
G36*
X20676958Y-25480710D02*
G01*
X20691276Y-25482834D01*
X20705317Y-25486351D01*
X20718946Y-25491228D01*
X20732031Y-25497417D01*
X20744447Y-25504858D01*
X20756073Y-25513481D01*
X20766798Y-25523202D01*
X20776519Y-25533927D01*
X20785142Y-25545553D01*
X20792583Y-25557969D01*
X20798772Y-25571054D01*
X20803649Y-25584683D01*
X20807166Y-25598724D01*
X20809290Y-25613042D01*
X20810000Y-25627500D01*
X20810000Y-25972500D01*
X20809290Y-25986958D01*
X20807166Y-26001276D01*
X20803649Y-26015317D01*
X20798772Y-26028946D01*
X20792583Y-26042031D01*
X20785142Y-26054447D01*
X20776519Y-26066073D01*
X20766798Y-26076798D01*
X20756073Y-26086519D01*
X20744447Y-26095142D01*
X20732031Y-26102583D01*
X20718946Y-26108772D01*
X20705317Y-26113649D01*
X20691276Y-26117166D01*
X20676958Y-26119290D01*
X20662500Y-26120000D01*
X20367500Y-26120000D01*
X20353042Y-26119290D01*
X20338724Y-26117166D01*
X20324683Y-26113649D01*
X20311054Y-26108772D01*
X20297969Y-26102583D01*
X20285553Y-26095142D01*
X20273927Y-26086519D01*
X20263202Y-26076798D01*
X20253481Y-26066073D01*
X20244858Y-26054447D01*
X20237417Y-26042031D01*
X20231228Y-26028946D01*
X20226351Y-26015317D01*
X20222834Y-26001276D01*
X20220710Y-25986958D01*
X20220000Y-25972500D01*
X20220000Y-25627500D01*
X20220710Y-25613042D01*
X20222834Y-25598724D01*
X20226351Y-25584683D01*
X20231228Y-25571054D01*
X20237417Y-25557969D01*
X20244858Y-25545553D01*
X20253481Y-25533927D01*
X20263202Y-25523202D01*
X20273927Y-25513481D01*
X20285553Y-25504858D01*
X20297969Y-25497417D01*
X20311054Y-25491228D01*
X20324683Y-25486351D01*
X20338724Y-25482834D01*
X20353042Y-25480710D01*
X20367500Y-25480000D01*
X20662500Y-25480000D01*
X20676958Y-25480710D01*
G37*
G04 #@! TD.AperFunction*
G04 #@! TA.AperFunction,SMDPad,CuDef*
G36*
X26486958Y-28020710D02*
G01*
X26501276Y-28022834D01*
X26515317Y-28026351D01*
X26528946Y-28031228D01*
X26542031Y-28037417D01*
X26554447Y-28044858D01*
X26566073Y-28053481D01*
X26576798Y-28063202D01*
X26586519Y-28073927D01*
X26595142Y-28085553D01*
X26602583Y-28097969D01*
X26608772Y-28111054D01*
X26613649Y-28124683D01*
X26617166Y-28138724D01*
X26619290Y-28153042D01*
X26620000Y-28167500D01*
X26620000Y-28462500D01*
X26619290Y-28476958D01*
X26617166Y-28491276D01*
X26613649Y-28505317D01*
X26608772Y-28518946D01*
X26602583Y-28532031D01*
X26595142Y-28544447D01*
X26586519Y-28556073D01*
X26576798Y-28566798D01*
X26566073Y-28576519D01*
X26554447Y-28585142D01*
X26542031Y-28592583D01*
X26528946Y-28598772D01*
X26515317Y-28603649D01*
X26501276Y-28607166D01*
X26486958Y-28609290D01*
X26472500Y-28610000D01*
X26127500Y-28610000D01*
X26113042Y-28609290D01*
X26098724Y-28607166D01*
X26084683Y-28603649D01*
X26071054Y-28598772D01*
X26057969Y-28592583D01*
X26045553Y-28585142D01*
X26033927Y-28576519D01*
X26023202Y-28566798D01*
X26013481Y-28556073D01*
X26004858Y-28544447D01*
X25997417Y-28532031D01*
X25991228Y-28518946D01*
X25986351Y-28505317D01*
X25982834Y-28491276D01*
X25980710Y-28476958D01*
X25980000Y-28462500D01*
X25980000Y-28167500D01*
X25980710Y-28153042D01*
X25982834Y-28138724D01*
X25986351Y-28124683D01*
X25991228Y-28111054D01*
X25997417Y-28097969D01*
X26004858Y-28085553D01*
X26013481Y-28073927D01*
X26023202Y-28063202D01*
X26033927Y-28053481D01*
X26045553Y-28044858D01*
X26057969Y-28037417D01*
X26071054Y-28031228D01*
X26084683Y-28026351D01*
X26098724Y-28022834D01*
X26113042Y-28020710D01*
X26127500Y-28020000D01*
X26472500Y-28020000D01*
X26486958Y-28020710D01*
G37*
G04 #@! TD.AperFunction*
G04 #@! TA.AperFunction,SMDPad,CuDef*
G36*
X26486958Y-28990710D02*
G01*
X26501276Y-28992834D01*
X26515317Y-28996351D01*
X26528946Y-29001228D01*
X26542031Y-29007417D01*
X26554447Y-29014858D01*
X26566073Y-29023481D01*
X26576798Y-29033202D01*
X26586519Y-29043927D01*
X26595142Y-29055553D01*
X26602583Y-29067969D01*
X26608772Y-29081054D01*
X26613649Y-29094683D01*
X26617166Y-29108724D01*
X26619290Y-29123042D01*
X26620000Y-29137500D01*
X26620000Y-29432500D01*
X26619290Y-29446958D01*
X26617166Y-29461276D01*
X26613649Y-29475317D01*
X26608772Y-29488946D01*
X26602583Y-29502031D01*
X26595142Y-29514447D01*
X26586519Y-29526073D01*
X26576798Y-29536798D01*
X26566073Y-29546519D01*
X26554447Y-29555142D01*
X26542031Y-29562583D01*
X26528946Y-29568772D01*
X26515317Y-29573649D01*
X26501276Y-29577166D01*
X26486958Y-29579290D01*
X26472500Y-29580000D01*
X26127500Y-29580000D01*
X26113042Y-29579290D01*
X26098724Y-29577166D01*
X26084683Y-29573649D01*
X26071054Y-29568772D01*
X26057969Y-29562583D01*
X26045553Y-29555142D01*
X26033927Y-29546519D01*
X26023202Y-29536798D01*
X26013481Y-29526073D01*
X26004858Y-29514447D01*
X25997417Y-29502031D01*
X25991228Y-29488946D01*
X25986351Y-29475317D01*
X25982834Y-29461276D01*
X25980710Y-29446958D01*
X25980000Y-29432500D01*
X25980000Y-29137500D01*
X25980710Y-29123042D01*
X25982834Y-29108724D01*
X25986351Y-29094683D01*
X25991228Y-29081054D01*
X25997417Y-29067969D01*
X26004858Y-29055553D01*
X26013481Y-29043927D01*
X26023202Y-29033202D01*
X26033927Y-29023481D01*
X26045553Y-29014858D01*
X26057969Y-29007417D01*
X26071054Y-29001228D01*
X26084683Y-28996351D01*
X26098724Y-28992834D01*
X26113042Y-28990710D01*
X26127500Y-28990000D01*
X26472500Y-28990000D01*
X26486958Y-28990710D01*
G37*
G04 #@! TD.AperFunction*
G04 #@! TA.AperFunction,SMDPad,CuDef*
G36*
X30646958Y-34680710D02*
G01*
X30661276Y-34682834D01*
X30675317Y-34686351D01*
X30688946Y-34691228D01*
X30702031Y-34697417D01*
X30714447Y-34704858D01*
X30726073Y-34713481D01*
X30736798Y-34723202D01*
X30746519Y-34733927D01*
X30755142Y-34745553D01*
X30762583Y-34757969D01*
X30768772Y-34771054D01*
X30773649Y-34784683D01*
X30777166Y-34798724D01*
X30779290Y-34813042D01*
X30780000Y-34827500D01*
X30780000Y-35172500D01*
X30779290Y-35186958D01*
X30777166Y-35201276D01*
X30773649Y-35215317D01*
X30768772Y-35228946D01*
X30762583Y-35242031D01*
X30755142Y-35254447D01*
X30746519Y-35266073D01*
X30736798Y-35276798D01*
X30726073Y-35286519D01*
X30714447Y-35295142D01*
X30702031Y-35302583D01*
X30688946Y-35308772D01*
X30675317Y-35313649D01*
X30661276Y-35317166D01*
X30646958Y-35319290D01*
X30632500Y-35320000D01*
X30337500Y-35320000D01*
X30323042Y-35319290D01*
X30308724Y-35317166D01*
X30294683Y-35313649D01*
X30281054Y-35308772D01*
X30267969Y-35302583D01*
X30255553Y-35295142D01*
X30243927Y-35286519D01*
X30233202Y-35276798D01*
X30223481Y-35266073D01*
X30214858Y-35254447D01*
X30207417Y-35242031D01*
X30201228Y-35228946D01*
X30196351Y-35215317D01*
X30192834Y-35201276D01*
X30190710Y-35186958D01*
X30190000Y-35172500D01*
X30190000Y-34827500D01*
X30190710Y-34813042D01*
X30192834Y-34798724D01*
X30196351Y-34784683D01*
X30201228Y-34771054D01*
X30207417Y-34757969D01*
X30214858Y-34745553D01*
X30223481Y-34733927D01*
X30233202Y-34723202D01*
X30243927Y-34713481D01*
X30255553Y-34704858D01*
X30267969Y-34697417D01*
X30281054Y-34691228D01*
X30294683Y-34686351D01*
X30308724Y-34682834D01*
X30323042Y-34680710D01*
X30337500Y-34680000D01*
X30632500Y-34680000D01*
X30646958Y-34680710D01*
G37*
G04 #@! TD.AperFunction*
G04 #@! TA.AperFunction,SMDPad,CuDef*
G36*
X29676958Y-34680710D02*
G01*
X29691276Y-34682834D01*
X29705317Y-34686351D01*
X29718946Y-34691228D01*
X29732031Y-34697417D01*
X29744447Y-34704858D01*
X29756073Y-34713481D01*
X29766798Y-34723202D01*
X29776519Y-34733927D01*
X29785142Y-34745553D01*
X29792583Y-34757969D01*
X29798772Y-34771054D01*
X29803649Y-34784683D01*
X29807166Y-34798724D01*
X29809290Y-34813042D01*
X29810000Y-34827500D01*
X29810000Y-35172500D01*
X29809290Y-35186958D01*
X29807166Y-35201276D01*
X29803649Y-35215317D01*
X29798772Y-35228946D01*
X29792583Y-35242031D01*
X29785142Y-35254447D01*
X29776519Y-35266073D01*
X29766798Y-35276798D01*
X29756073Y-35286519D01*
X29744447Y-35295142D01*
X29732031Y-35302583D01*
X29718946Y-35308772D01*
X29705317Y-35313649D01*
X29691276Y-35317166D01*
X29676958Y-35319290D01*
X29662500Y-35320000D01*
X29367500Y-35320000D01*
X29353042Y-35319290D01*
X29338724Y-35317166D01*
X29324683Y-35313649D01*
X29311054Y-35308772D01*
X29297969Y-35302583D01*
X29285553Y-35295142D01*
X29273927Y-35286519D01*
X29263202Y-35276798D01*
X29253481Y-35266073D01*
X29244858Y-35254447D01*
X29237417Y-35242031D01*
X29231228Y-35228946D01*
X29226351Y-35215317D01*
X29222834Y-35201276D01*
X29220710Y-35186958D01*
X29220000Y-35172500D01*
X29220000Y-34827500D01*
X29220710Y-34813042D01*
X29222834Y-34798724D01*
X29226351Y-34784683D01*
X29231228Y-34771054D01*
X29237417Y-34757969D01*
X29244858Y-34745553D01*
X29253481Y-34733927D01*
X29263202Y-34723202D01*
X29273927Y-34713481D01*
X29285553Y-34704858D01*
X29297969Y-34697417D01*
X29311054Y-34691228D01*
X29324683Y-34686351D01*
X29338724Y-34682834D01*
X29353042Y-34680710D01*
X29367500Y-34680000D01*
X29662500Y-34680000D01*
X29676958Y-34680710D01*
G37*
G04 #@! TD.AperFunction*
G04 #@! TA.AperFunction,SMDPad,CuDef*
G36*
X63399504Y-29351204D02*
G01*
X63423773Y-29354804D01*
X63447571Y-29360765D01*
X63470671Y-29369030D01*
X63492849Y-29379520D01*
X63513893Y-29392133D01*
X63533598Y-29406747D01*
X63551777Y-29423223D01*
X63568253Y-29441402D01*
X63582867Y-29461107D01*
X63595480Y-29482151D01*
X63605970Y-29504329D01*
X63614235Y-29527429D01*
X63620196Y-29551227D01*
X63623796Y-29575496D01*
X63625000Y-29600000D01*
X63625000Y-30400000D01*
X63623796Y-30424504D01*
X63620196Y-30448773D01*
X63614235Y-30472571D01*
X63605970Y-30495671D01*
X63595480Y-30517849D01*
X63582867Y-30538893D01*
X63568253Y-30558598D01*
X63551777Y-30576777D01*
X63533598Y-30593253D01*
X63513893Y-30607867D01*
X63492849Y-30620480D01*
X63470671Y-30630970D01*
X63447571Y-30639235D01*
X63423773Y-30645196D01*
X63399504Y-30648796D01*
X63375000Y-30650000D01*
X62550000Y-30650000D01*
X62525496Y-30648796D01*
X62501227Y-30645196D01*
X62477429Y-30639235D01*
X62454329Y-30630970D01*
X62432151Y-30620480D01*
X62411107Y-30607867D01*
X62391402Y-30593253D01*
X62373223Y-30576777D01*
X62356747Y-30558598D01*
X62342133Y-30538893D01*
X62329520Y-30517849D01*
X62319030Y-30495671D01*
X62310765Y-30472571D01*
X62304804Y-30448773D01*
X62301204Y-30424504D01*
X62300000Y-30400000D01*
X62300000Y-29600000D01*
X62301204Y-29575496D01*
X62304804Y-29551227D01*
X62310765Y-29527429D01*
X62319030Y-29504329D01*
X62329520Y-29482151D01*
X62342133Y-29461107D01*
X62356747Y-29441402D01*
X62373223Y-29423223D01*
X62391402Y-29406747D01*
X62411107Y-29392133D01*
X62432151Y-29379520D01*
X62454329Y-29369030D01*
X62477429Y-29360765D01*
X62501227Y-29354804D01*
X62525496Y-29351204D01*
X62550000Y-29350000D01*
X63375000Y-29350000D01*
X63399504Y-29351204D01*
G37*
G04 #@! TD.AperFunction*
G04 #@! TA.AperFunction,SMDPad,CuDef*
G36*
X61474504Y-29351204D02*
G01*
X61498773Y-29354804D01*
X61522571Y-29360765D01*
X61545671Y-29369030D01*
X61567849Y-29379520D01*
X61588893Y-29392133D01*
X61608598Y-29406747D01*
X61626777Y-29423223D01*
X61643253Y-29441402D01*
X61657867Y-29461107D01*
X61670480Y-29482151D01*
X61680970Y-29504329D01*
X61689235Y-29527429D01*
X61695196Y-29551227D01*
X61698796Y-29575496D01*
X61700000Y-29600000D01*
X61700000Y-30400000D01*
X61698796Y-30424504D01*
X61695196Y-30448773D01*
X61689235Y-30472571D01*
X61680970Y-30495671D01*
X61670480Y-30517849D01*
X61657867Y-30538893D01*
X61643253Y-30558598D01*
X61626777Y-30576777D01*
X61608598Y-30593253D01*
X61588893Y-30607867D01*
X61567849Y-30620480D01*
X61545671Y-30630970D01*
X61522571Y-30639235D01*
X61498773Y-30645196D01*
X61474504Y-30648796D01*
X61450000Y-30650000D01*
X60625000Y-30650000D01*
X60600496Y-30648796D01*
X60576227Y-30645196D01*
X60552429Y-30639235D01*
X60529329Y-30630970D01*
X60507151Y-30620480D01*
X60486107Y-30607867D01*
X60466402Y-30593253D01*
X60448223Y-30576777D01*
X60431747Y-30558598D01*
X60417133Y-30538893D01*
X60404520Y-30517849D01*
X60394030Y-30495671D01*
X60385765Y-30472571D01*
X60379804Y-30448773D01*
X60376204Y-30424504D01*
X60375000Y-30400000D01*
X60375000Y-29600000D01*
X60376204Y-29575496D01*
X60379804Y-29551227D01*
X60385765Y-29527429D01*
X60394030Y-29504329D01*
X60404520Y-29482151D01*
X60417133Y-29461107D01*
X60431747Y-29441402D01*
X60448223Y-29423223D01*
X60466402Y-29406747D01*
X60486107Y-29392133D01*
X60507151Y-29379520D01*
X60529329Y-29369030D01*
X60552429Y-29360765D01*
X60576227Y-29354804D01*
X60600496Y-29351204D01*
X60625000Y-29350000D01*
X61450000Y-29350000D01*
X61474504Y-29351204D01*
G37*
G04 #@! TD.AperFunction*
G04 #@! TA.AperFunction,SMDPad,CuDef*
G36*
X61474504Y-33351204D02*
G01*
X61498773Y-33354804D01*
X61522571Y-33360765D01*
X61545671Y-33369030D01*
X61567849Y-33379520D01*
X61588893Y-33392133D01*
X61608598Y-33406747D01*
X61626777Y-33423223D01*
X61643253Y-33441402D01*
X61657867Y-33461107D01*
X61670480Y-33482151D01*
X61680970Y-33504329D01*
X61689235Y-33527429D01*
X61695196Y-33551227D01*
X61698796Y-33575496D01*
X61700000Y-33600000D01*
X61700000Y-34400000D01*
X61698796Y-34424504D01*
X61695196Y-34448773D01*
X61689235Y-34472571D01*
X61680970Y-34495671D01*
X61670480Y-34517849D01*
X61657867Y-34538893D01*
X61643253Y-34558598D01*
X61626777Y-34576777D01*
X61608598Y-34593253D01*
X61588893Y-34607867D01*
X61567849Y-34620480D01*
X61545671Y-34630970D01*
X61522571Y-34639235D01*
X61498773Y-34645196D01*
X61474504Y-34648796D01*
X61450000Y-34650000D01*
X60625000Y-34650000D01*
X60600496Y-34648796D01*
X60576227Y-34645196D01*
X60552429Y-34639235D01*
X60529329Y-34630970D01*
X60507151Y-34620480D01*
X60486107Y-34607867D01*
X60466402Y-34593253D01*
X60448223Y-34576777D01*
X60431747Y-34558598D01*
X60417133Y-34538893D01*
X60404520Y-34517849D01*
X60394030Y-34495671D01*
X60385765Y-34472571D01*
X60379804Y-34448773D01*
X60376204Y-34424504D01*
X60375000Y-34400000D01*
X60375000Y-33600000D01*
X60376204Y-33575496D01*
X60379804Y-33551227D01*
X60385765Y-33527429D01*
X60394030Y-33504329D01*
X60404520Y-33482151D01*
X60417133Y-33461107D01*
X60431747Y-33441402D01*
X60448223Y-33423223D01*
X60466402Y-33406747D01*
X60486107Y-33392133D01*
X60507151Y-33379520D01*
X60529329Y-33369030D01*
X60552429Y-33360765D01*
X60576227Y-33354804D01*
X60600496Y-33351204D01*
X60625000Y-33350000D01*
X61450000Y-33350000D01*
X61474504Y-33351204D01*
G37*
G04 #@! TD.AperFunction*
G04 #@! TA.AperFunction,SMDPad,CuDef*
G36*
X63399504Y-33351204D02*
G01*
X63423773Y-33354804D01*
X63447571Y-33360765D01*
X63470671Y-33369030D01*
X63492849Y-33379520D01*
X63513893Y-33392133D01*
X63533598Y-33406747D01*
X63551777Y-33423223D01*
X63568253Y-33441402D01*
X63582867Y-33461107D01*
X63595480Y-33482151D01*
X63605970Y-33504329D01*
X63614235Y-33527429D01*
X63620196Y-33551227D01*
X63623796Y-33575496D01*
X63625000Y-33600000D01*
X63625000Y-34400000D01*
X63623796Y-34424504D01*
X63620196Y-34448773D01*
X63614235Y-34472571D01*
X63605970Y-34495671D01*
X63595480Y-34517849D01*
X63582867Y-34538893D01*
X63568253Y-34558598D01*
X63551777Y-34576777D01*
X63533598Y-34593253D01*
X63513893Y-34607867D01*
X63492849Y-34620480D01*
X63470671Y-34630970D01*
X63447571Y-34639235D01*
X63423773Y-34645196D01*
X63399504Y-34648796D01*
X63375000Y-34650000D01*
X62550000Y-34650000D01*
X62525496Y-34648796D01*
X62501227Y-34645196D01*
X62477429Y-34639235D01*
X62454329Y-34630970D01*
X62432151Y-34620480D01*
X62411107Y-34607867D01*
X62391402Y-34593253D01*
X62373223Y-34576777D01*
X62356747Y-34558598D01*
X62342133Y-34538893D01*
X62329520Y-34517849D01*
X62319030Y-34495671D01*
X62310765Y-34472571D01*
X62304804Y-34448773D01*
X62301204Y-34424504D01*
X62300000Y-34400000D01*
X62300000Y-33600000D01*
X62301204Y-33575496D01*
X62304804Y-33551227D01*
X62310765Y-33527429D01*
X62319030Y-33504329D01*
X62329520Y-33482151D01*
X62342133Y-33461107D01*
X62356747Y-33441402D01*
X62373223Y-33423223D01*
X62391402Y-33406747D01*
X62411107Y-33392133D01*
X62432151Y-33379520D01*
X62454329Y-33369030D01*
X62477429Y-33360765D01*
X62501227Y-33354804D01*
X62525496Y-33351204D01*
X62550000Y-33350000D01*
X63375000Y-33350000D01*
X63399504Y-33351204D01*
G37*
G04 #@! TD.AperFunction*
G04 #@! TA.AperFunction,SMDPad,CuDef*
G36*
X63399504Y-37851204D02*
G01*
X63423773Y-37854804D01*
X63447571Y-37860765D01*
X63470671Y-37869030D01*
X63492849Y-37879520D01*
X63513893Y-37892133D01*
X63533598Y-37906747D01*
X63551777Y-37923223D01*
X63568253Y-37941402D01*
X63582867Y-37961107D01*
X63595480Y-37982151D01*
X63605970Y-38004329D01*
X63614235Y-38027429D01*
X63620196Y-38051227D01*
X63623796Y-38075496D01*
X63625000Y-38100000D01*
X63625000Y-38900000D01*
X63623796Y-38924504D01*
X63620196Y-38948773D01*
X63614235Y-38972571D01*
X63605970Y-38995671D01*
X63595480Y-39017849D01*
X63582867Y-39038893D01*
X63568253Y-39058598D01*
X63551777Y-39076777D01*
X63533598Y-39093253D01*
X63513893Y-39107867D01*
X63492849Y-39120480D01*
X63470671Y-39130970D01*
X63447571Y-39139235D01*
X63423773Y-39145196D01*
X63399504Y-39148796D01*
X63375000Y-39150000D01*
X62550000Y-39150000D01*
X62525496Y-39148796D01*
X62501227Y-39145196D01*
X62477429Y-39139235D01*
X62454329Y-39130970D01*
X62432151Y-39120480D01*
X62411107Y-39107867D01*
X62391402Y-39093253D01*
X62373223Y-39076777D01*
X62356747Y-39058598D01*
X62342133Y-39038893D01*
X62329520Y-39017849D01*
X62319030Y-38995671D01*
X62310765Y-38972571D01*
X62304804Y-38948773D01*
X62301204Y-38924504D01*
X62300000Y-38900000D01*
X62300000Y-38100000D01*
X62301204Y-38075496D01*
X62304804Y-38051227D01*
X62310765Y-38027429D01*
X62319030Y-38004329D01*
X62329520Y-37982151D01*
X62342133Y-37961107D01*
X62356747Y-37941402D01*
X62373223Y-37923223D01*
X62391402Y-37906747D01*
X62411107Y-37892133D01*
X62432151Y-37879520D01*
X62454329Y-37869030D01*
X62477429Y-37860765D01*
X62501227Y-37854804D01*
X62525496Y-37851204D01*
X62550000Y-37850000D01*
X63375000Y-37850000D01*
X63399504Y-37851204D01*
G37*
G04 #@! TD.AperFunction*
G04 #@! TA.AperFunction,SMDPad,CuDef*
G36*
X61474504Y-37851204D02*
G01*
X61498773Y-37854804D01*
X61522571Y-37860765D01*
X61545671Y-37869030D01*
X61567849Y-37879520D01*
X61588893Y-37892133D01*
X61608598Y-37906747D01*
X61626777Y-37923223D01*
X61643253Y-37941402D01*
X61657867Y-37961107D01*
X61670480Y-37982151D01*
X61680970Y-38004329D01*
X61689235Y-38027429D01*
X61695196Y-38051227D01*
X61698796Y-38075496D01*
X61700000Y-38100000D01*
X61700000Y-38900000D01*
X61698796Y-38924504D01*
X61695196Y-38948773D01*
X61689235Y-38972571D01*
X61680970Y-38995671D01*
X61670480Y-39017849D01*
X61657867Y-39038893D01*
X61643253Y-39058598D01*
X61626777Y-39076777D01*
X61608598Y-39093253D01*
X61588893Y-39107867D01*
X61567849Y-39120480D01*
X61545671Y-39130970D01*
X61522571Y-39139235D01*
X61498773Y-39145196D01*
X61474504Y-39148796D01*
X61450000Y-39150000D01*
X60625000Y-39150000D01*
X60600496Y-39148796D01*
X60576227Y-39145196D01*
X60552429Y-39139235D01*
X60529329Y-39130970D01*
X60507151Y-39120480D01*
X60486107Y-39107867D01*
X60466402Y-39093253D01*
X60448223Y-39076777D01*
X60431747Y-39058598D01*
X60417133Y-39038893D01*
X60404520Y-39017849D01*
X60394030Y-38995671D01*
X60385765Y-38972571D01*
X60379804Y-38948773D01*
X60376204Y-38924504D01*
X60375000Y-38900000D01*
X60375000Y-38100000D01*
X60376204Y-38075496D01*
X60379804Y-38051227D01*
X60385765Y-38027429D01*
X60394030Y-38004329D01*
X60404520Y-37982151D01*
X60417133Y-37961107D01*
X60431747Y-37941402D01*
X60448223Y-37923223D01*
X60466402Y-37906747D01*
X60486107Y-37892133D01*
X60507151Y-37879520D01*
X60529329Y-37869030D01*
X60552429Y-37860765D01*
X60576227Y-37854804D01*
X60600496Y-37851204D01*
X60625000Y-37850000D01*
X61450000Y-37850000D01*
X61474504Y-37851204D01*
G37*
G04 #@! TD.AperFunction*
G04 #@! TA.AperFunction,SMDPad,CuDef*
G36*
X61474504Y-25351204D02*
G01*
X61498773Y-25354804D01*
X61522571Y-25360765D01*
X61545671Y-25369030D01*
X61567849Y-25379520D01*
X61588893Y-25392133D01*
X61608598Y-25406747D01*
X61626777Y-25423223D01*
X61643253Y-25441402D01*
X61657867Y-25461107D01*
X61670480Y-25482151D01*
X61680970Y-25504329D01*
X61689235Y-25527429D01*
X61695196Y-25551227D01*
X61698796Y-25575496D01*
X61700000Y-25600000D01*
X61700000Y-26400000D01*
X61698796Y-26424504D01*
X61695196Y-26448773D01*
X61689235Y-26472571D01*
X61680970Y-26495671D01*
X61670480Y-26517849D01*
X61657867Y-26538893D01*
X61643253Y-26558598D01*
X61626777Y-26576777D01*
X61608598Y-26593253D01*
X61588893Y-26607867D01*
X61567849Y-26620480D01*
X61545671Y-26630970D01*
X61522571Y-26639235D01*
X61498773Y-26645196D01*
X61474504Y-26648796D01*
X61450000Y-26650000D01*
X60625000Y-26650000D01*
X60600496Y-26648796D01*
X60576227Y-26645196D01*
X60552429Y-26639235D01*
X60529329Y-26630970D01*
X60507151Y-26620480D01*
X60486107Y-26607867D01*
X60466402Y-26593253D01*
X60448223Y-26576777D01*
X60431747Y-26558598D01*
X60417133Y-26538893D01*
X60404520Y-26517849D01*
X60394030Y-26495671D01*
X60385765Y-26472571D01*
X60379804Y-26448773D01*
X60376204Y-26424504D01*
X60375000Y-26400000D01*
X60375000Y-25600000D01*
X60376204Y-25575496D01*
X60379804Y-25551227D01*
X60385765Y-25527429D01*
X60394030Y-25504329D01*
X60404520Y-25482151D01*
X60417133Y-25461107D01*
X60431747Y-25441402D01*
X60448223Y-25423223D01*
X60466402Y-25406747D01*
X60486107Y-25392133D01*
X60507151Y-25379520D01*
X60529329Y-25369030D01*
X60552429Y-25360765D01*
X60576227Y-25354804D01*
X60600496Y-25351204D01*
X60625000Y-25350000D01*
X61450000Y-25350000D01*
X61474504Y-25351204D01*
G37*
G04 #@! TD.AperFunction*
G04 #@! TA.AperFunction,SMDPad,CuDef*
G36*
X63399504Y-25351204D02*
G01*
X63423773Y-25354804D01*
X63447571Y-25360765D01*
X63470671Y-25369030D01*
X63492849Y-25379520D01*
X63513893Y-25392133D01*
X63533598Y-25406747D01*
X63551777Y-25423223D01*
X63568253Y-25441402D01*
X63582867Y-25461107D01*
X63595480Y-25482151D01*
X63605970Y-25504329D01*
X63614235Y-25527429D01*
X63620196Y-25551227D01*
X63623796Y-25575496D01*
X63625000Y-25600000D01*
X63625000Y-26400000D01*
X63623796Y-26424504D01*
X63620196Y-26448773D01*
X63614235Y-26472571D01*
X63605970Y-26495671D01*
X63595480Y-26517849D01*
X63582867Y-26538893D01*
X63568253Y-26558598D01*
X63551777Y-26576777D01*
X63533598Y-26593253D01*
X63513893Y-26607867D01*
X63492849Y-26620480D01*
X63470671Y-26630970D01*
X63447571Y-26639235D01*
X63423773Y-26645196D01*
X63399504Y-26648796D01*
X63375000Y-26650000D01*
X62550000Y-26650000D01*
X62525496Y-26648796D01*
X62501227Y-26645196D01*
X62477429Y-26639235D01*
X62454329Y-26630970D01*
X62432151Y-26620480D01*
X62411107Y-26607867D01*
X62391402Y-26593253D01*
X62373223Y-26576777D01*
X62356747Y-26558598D01*
X62342133Y-26538893D01*
X62329520Y-26517849D01*
X62319030Y-26495671D01*
X62310765Y-26472571D01*
X62304804Y-26448773D01*
X62301204Y-26424504D01*
X62300000Y-26400000D01*
X62300000Y-25600000D01*
X62301204Y-25575496D01*
X62304804Y-25551227D01*
X62310765Y-25527429D01*
X62319030Y-25504329D01*
X62329520Y-25482151D01*
X62342133Y-25461107D01*
X62356747Y-25441402D01*
X62373223Y-25423223D01*
X62391402Y-25406747D01*
X62411107Y-25392133D01*
X62432151Y-25379520D01*
X62454329Y-25369030D01*
X62477429Y-25360765D01*
X62501227Y-25354804D01*
X62525496Y-25351204D01*
X62550000Y-25350000D01*
X63375000Y-25350000D01*
X63399504Y-25351204D01*
G37*
G04 #@! TD.AperFunction*
D12*
X10000000Y-30000000D03*
D13*
X10000000Y-27460000D03*
X10000000Y-24920000D03*
X10000000Y-22380000D03*
X10000000Y-19840000D03*
X10000000Y-17300000D03*
X10000000Y-14760000D03*
X10000000Y-12220000D03*
D12*
X45000000Y-14500000D03*
D13*
X45000000Y-17040000D03*
X42460000Y-14500000D03*
X42460000Y-17040000D03*
X39920000Y-14500000D03*
X39920000Y-17040000D03*
X49800000Y-12220000D03*
X49800000Y-14760000D03*
X49800000Y-17300000D03*
X49800000Y-19840000D03*
X49800000Y-22380000D03*
X49800000Y-24920000D03*
X49800000Y-27460000D03*
D12*
X49800000Y-30000000D03*
D14*
X15000000Y-35000000D03*
D15*
X13730000Y-35000000D03*
X15000000Y-36270000D03*
X13730000Y-36270000D03*
X15000000Y-37540000D03*
X13730000Y-37540000D03*
X15000000Y-38810000D03*
X13730000Y-38810000D03*
X15000000Y-40080000D03*
X13730000Y-40080000D03*
X15000000Y-41350000D03*
X13730000Y-41350000D03*
X15000000Y-42620000D03*
X13730000Y-42620000D03*
X15000000Y-43890000D03*
X13730000Y-43890000D03*
X15000000Y-45160000D03*
X13730000Y-45160000D03*
X15000000Y-46430000D03*
X13730000Y-46430000D03*
X44230000Y-46430000D03*
X45500000Y-46430000D03*
X44230000Y-45160000D03*
X45500000Y-45160000D03*
X44230000Y-43890000D03*
X45500000Y-43890000D03*
X44230000Y-42620000D03*
X45500000Y-42620000D03*
X44230000Y-41350000D03*
X45500000Y-41350000D03*
X44230000Y-40080000D03*
X45500000Y-40080000D03*
X44230000Y-38810000D03*
X45500000Y-38810000D03*
X44230000Y-37540000D03*
X45500000Y-37540000D03*
X44230000Y-36270000D03*
X45500000Y-36270000D03*
X44230000Y-35000000D03*
D14*
X45500000Y-35000000D03*
G04 #@! TA.AperFunction,SMDPad,CuDef*
D10*
G36*
X22027691Y-19826053D02*
G01*
X22048926Y-19829203D01*
X22069750Y-19834419D01*
X22089962Y-19841651D01*
X22109368Y-19850830D01*
X22127781Y-19861866D01*
X22145024Y-19874654D01*
X22160930Y-19889070D01*
X22175346Y-19904976D01*
X22188134Y-19922219D01*
X22199170Y-19940632D01*
X22208349Y-19960038D01*
X22215581Y-19980250D01*
X22220797Y-20001074D01*
X22223947Y-20022309D01*
X22225000Y-20043750D01*
X22225000Y-20556250D01*
X22223947Y-20577691D01*
X22220797Y-20598926D01*
X22215581Y-20619750D01*
X22208349Y-20639962D01*
X22199170Y-20659368D01*
X22188134Y-20677781D01*
X22175346Y-20695024D01*
X22160930Y-20710930D01*
X22145024Y-20725346D01*
X22127781Y-20738134D01*
X22109368Y-20749170D01*
X22089962Y-20758349D01*
X22069750Y-20765581D01*
X22048926Y-20770797D01*
X22027691Y-20773947D01*
X22006250Y-20775000D01*
X21568750Y-20775000D01*
X21547309Y-20773947D01*
X21526074Y-20770797D01*
X21505250Y-20765581D01*
X21485038Y-20758349D01*
X21465632Y-20749170D01*
X21447219Y-20738134D01*
X21429976Y-20725346D01*
X21414070Y-20710930D01*
X21399654Y-20695024D01*
X21386866Y-20677781D01*
X21375830Y-20659368D01*
X21366651Y-20639962D01*
X21359419Y-20619750D01*
X21354203Y-20598926D01*
X21351053Y-20577691D01*
X21350000Y-20556250D01*
X21350000Y-20043750D01*
X21351053Y-20022309D01*
X21354203Y-20001074D01*
X21359419Y-19980250D01*
X21366651Y-19960038D01*
X21375830Y-19940632D01*
X21386866Y-19922219D01*
X21399654Y-19904976D01*
X21414070Y-19889070D01*
X21429976Y-19874654D01*
X21447219Y-19861866D01*
X21465632Y-19850830D01*
X21485038Y-19841651D01*
X21505250Y-19834419D01*
X21526074Y-19829203D01*
X21547309Y-19826053D01*
X21568750Y-19825000D01*
X22006250Y-19825000D01*
X22027691Y-19826053D01*
G37*
G04 #@! TD.AperFunction*
G04 #@! TA.AperFunction,SMDPad,CuDef*
G36*
X20452691Y-19826053D02*
G01*
X20473926Y-19829203D01*
X20494750Y-19834419D01*
X20514962Y-19841651D01*
X20534368Y-19850830D01*
X20552781Y-19861866D01*
X20570024Y-19874654D01*
X20585930Y-19889070D01*
X20600346Y-19904976D01*
X20613134Y-19922219D01*
X20624170Y-19940632D01*
X20633349Y-19960038D01*
X20640581Y-19980250D01*
X20645797Y-20001074D01*
X20648947Y-20022309D01*
X20650000Y-20043750D01*
X20650000Y-20556250D01*
X20648947Y-20577691D01*
X20645797Y-20598926D01*
X20640581Y-20619750D01*
X20633349Y-20639962D01*
X20624170Y-20659368D01*
X20613134Y-20677781D01*
X20600346Y-20695024D01*
X20585930Y-20710930D01*
X20570024Y-20725346D01*
X20552781Y-20738134D01*
X20534368Y-20749170D01*
X20514962Y-20758349D01*
X20494750Y-20765581D01*
X20473926Y-20770797D01*
X20452691Y-20773947D01*
X20431250Y-20775000D01*
X19993750Y-20775000D01*
X19972309Y-20773947D01*
X19951074Y-20770797D01*
X19930250Y-20765581D01*
X19910038Y-20758349D01*
X19890632Y-20749170D01*
X19872219Y-20738134D01*
X19854976Y-20725346D01*
X19839070Y-20710930D01*
X19824654Y-20695024D01*
X19811866Y-20677781D01*
X19800830Y-20659368D01*
X19791651Y-20639962D01*
X19784419Y-20619750D01*
X19779203Y-20598926D01*
X19776053Y-20577691D01*
X19775000Y-20556250D01*
X19775000Y-20043750D01*
X19776053Y-20022309D01*
X19779203Y-20001074D01*
X19784419Y-19980250D01*
X19791651Y-19960038D01*
X19800830Y-19940632D01*
X19811866Y-19922219D01*
X19824654Y-19904976D01*
X19839070Y-19889070D01*
X19854976Y-19874654D01*
X19872219Y-19861866D01*
X19890632Y-19850830D01*
X19910038Y-19841651D01*
X19930250Y-19834419D01*
X19951074Y-19829203D01*
X19972309Y-19826053D01*
X19993750Y-19825000D01*
X20431250Y-19825000D01*
X20452691Y-19826053D01*
G37*
G04 #@! TD.AperFunction*
D16*
X20050000Y-22300000D03*
X21950000Y-22300000D03*
D17*
X8650000Y-38600000D03*
X6750000Y-38600000D03*
X7700000Y-40600000D03*
D18*
X58100000Y-26000000D03*
X55900000Y-26000000D03*
X55900000Y-30000000D03*
X58100000Y-30000000D03*
X58100000Y-34000000D03*
X55900000Y-34000000D03*
X55900000Y-38500000D03*
X58100000Y-38500000D03*
D19*
X33000000Y-37500000D03*
X33000000Y-42000000D03*
X26500000Y-37500000D03*
X26500000Y-42000000D03*
D20*
X0Y-30300000D03*
X0Y-35000000D03*
X0Y-39700000D03*
D21*
X32900000Y-12650000D03*
X32900000Y-11250000D03*
D22*
X34750000Y-10700000D03*
D23*
X34750000Y-11600000D03*
X34750000Y-12300000D03*
X34750000Y-13000000D03*
X34750000Y-13700000D03*
X34750000Y-14400000D03*
X34750000Y-15100000D03*
X34750000Y-15800000D03*
X34750000Y-16500000D03*
X34750000Y-17200000D03*
X34750000Y-17900000D03*
X34750000Y-18600000D03*
X34750000Y-19300000D03*
X34750000Y-20000000D03*
X34750000Y-20700000D03*
D24*
X34200000Y-22250000D03*
X33500000Y-22250000D03*
X32800000Y-22250000D03*
X32100000Y-22250000D03*
X31400000Y-22250000D03*
X30700000Y-22250000D03*
X30000000Y-22250000D03*
X29300000Y-22250000D03*
X28600000Y-22250000D03*
X27900000Y-22250000D03*
X27200000Y-22250000D03*
X26500000Y-22250000D03*
D23*
X25250000Y-20000000D03*
X25250000Y-19300000D03*
X25250000Y-18600000D03*
X25250000Y-17900000D03*
X25250000Y-17200000D03*
X25250000Y-16500000D03*
X25250000Y-15800000D03*
X25250000Y-15100000D03*
X25250000Y-14400000D03*
D22*
X25250000Y-10700000D03*
D23*
X25250000Y-13700000D03*
D24*
X25700000Y-22250000D03*
D25*
X23750000Y-26500000D03*
X26250000Y-26500000D03*
D26*
X22000000Y-28500000D03*
X17100000Y-24500000D03*
X35400000Y-21700000D03*
X35400000Y-22600000D03*
X34880641Y-23180641D03*
X36400000Y-10800000D03*
X37200000Y-10800000D03*
X23600000Y-10700000D03*
X22800000Y-10700000D03*
X22800000Y-11500000D03*
X23600000Y-11500000D03*
X27100000Y-11200000D03*
X27900000Y-11200000D03*
X27900000Y-12000000D03*
X27100000Y-12000000D03*
X28000000Y-15000000D03*
X30000000Y-17000000D03*
X28000000Y-20000000D03*
X32000000Y-20000000D03*
X32000000Y-15000000D03*
X24800000Y-22400000D03*
X23906403Y-23206403D03*
X24800000Y-23275000D03*
X17400000Y-31100000D03*
X40000000Y-41000000D03*
X55000000Y-13500000D03*
X37606793Y-21479795D03*
X17412653Y-30012653D03*
X27900000Y-26000000D03*
X28625000Y-25000000D03*
X29350000Y-24000000D03*
X38337347Y-22162653D03*
X37000000Y-13675000D03*
D27*
X4000000Y-33150000D02*
X2150000Y-35000000D01*
X2150000Y-35000000D02*
X0Y-35000000D01*
X4000000Y-24000000D02*
X4000000Y-33150000D01*
X20212500Y-18600000D02*
X19400000Y-18600000D01*
X19400000Y-18600000D02*
X18900000Y-19100000D01*
X19775000Y-24300000D02*
X20212500Y-24300000D01*
X18900000Y-23425000D02*
X19775000Y-24300000D01*
X18900000Y-19100000D02*
X18900000Y-23425000D01*
X20212500Y-25497500D02*
X20515000Y-25800000D01*
X20212500Y-24300000D02*
X20212500Y-25497500D01*
X26300000Y-29285000D02*
X23700000Y-29285000D01*
X8650000Y-37050000D02*
X9100000Y-36600000D01*
X8650000Y-38600000D02*
X8650000Y-37050000D01*
X30485000Y-38015000D02*
X26500000Y-42000000D01*
X30485000Y-35000000D02*
X30485000Y-38015000D01*
X23700000Y-29285000D02*
X22785000Y-29285000D01*
X22785000Y-29285000D02*
X22000000Y-28500000D01*
X20212500Y-24300000D02*
X17300000Y-24300000D01*
X17300000Y-24300000D02*
X17100000Y-24500000D01*
X34200000Y-22250000D02*
X34850000Y-22250000D01*
X34850000Y-22250000D02*
X35400000Y-21700000D01*
X35400000Y-22600000D02*
X35400000Y-22661282D01*
X35400000Y-22661282D02*
X34880641Y-23180641D01*
X34750000Y-10700000D02*
X36300000Y-10700000D01*
X36300000Y-10700000D02*
X36400000Y-10800000D01*
X25250000Y-10700000D02*
X23600000Y-10700000D01*
X22800000Y-10700000D02*
X22800000Y-11500000D01*
X23600000Y-11500000D02*
X23600000Y-10700000D01*
X25250000Y-10700000D02*
X26600000Y-10700000D01*
X26600000Y-10700000D02*
X27100000Y-11200000D01*
X27900000Y-11200000D02*
X27900000Y-12000000D01*
X25700000Y-22250000D02*
X24950000Y-22250000D01*
X24950000Y-22250000D02*
X24800000Y-22400000D01*
X21787500Y-20300000D02*
X21787500Y-18600000D01*
X22225000Y-18600000D02*
X25250000Y-18600000D01*
X21787500Y-18600000D02*
X22225000Y-18600000D01*
X21787500Y-25497500D02*
X21485000Y-25800000D01*
X21787500Y-24300000D02*
X21787500Y-25497500D01*
X25250000Y-20837500D02*
X25250000Y-20000000D01*
X21787500Y-24300000D02*
X25250000Y-20837500D01*
X6750000Y-37050000D02*
X6300000Y-36600000D01*
X6750000Y-38600000D02*
X6750000Y-37050000D01*
X6300000Y-36600000D02*
X6300000Y-33700000D01*
X6300000Y-33700000D02*
X7500000Y-32500000D01*
X7500000Y-32500000D02*
X16000000Y-32500000D01*
X21485000Y-27015000D02*
X21485000Y-25800000D01*
X44230000Y-38810000D02*
X44230000Y-40080000D01*
X62962500Y-34650000D02*
X62962500Y-38500000D01*
X62962500Y-34000000D02*
X62962500Y-34650000D01*
X62962500Y-30650000D02*
X62962500Y-34000000D01*
X62962500Y-30000000D02*
X62962500Y-30650000D01*
X62962500Y-29350000D02*
X62962500Y-26000000D01*
X62962500Y-30000000D02*
X62962500Y-29350000D01*
X16000000Y-32500000D02*
X17400000Y-31100000D01*
X17400000Y-31100000D02*
X21485000Y-27015000D01*
X62962500Y-39150000D02*
X51512500Y-50600000D01*
X62962500Y-38500000D02*
X62962500Y-39150000D01*
X51512500Y-50600000D02*
X42900000Y-50600000D01*
X42900000Y-50600000D02*
X40000000Y-47700000D01*
X40000000Y-47700000D02*
X40000000Y-41000000D01*
X62962500Y-26000000D02*
X62962500Y-21462500D01*
X62962500Y-21462500D02*
X55000000Y-13500000D01*
X26500000Y-23750000D02*
X23750000Y-26500000D01*
X26500000Y-22250000D02*
X26500000Y-23750000D01*
X23700000Y-26550000D02*
X23750000Y-26500000D01*
X23700000Y-28315000D02*
X23700000Y-26550000D01*
X26300000Y-26550000D02*
X26250000Y-26500000D01*
X26300000Y-28315000D02*
X26300000Y-26550000D01*
X27200000Y-23300000D02*
X27200000Y-22250000D01*
X27200000Y-24400000D02*
X27200000Y-23300000D01*
X26250000Y-25350000D02*
X27200000Y-24400000D01*
X26250000Y-26500000D02*
X26250000Y-25350000D01*
X29000000Y-35000000D02*
X26500000Y-37500000D01*
X29515000Y-35000000D02*
X29000000Y-35000000D01*
X48950001Y-15609999D02*
X49800000Y-14760000D01*
X45409990Y-19150010D02*
X48950001Y-15609999D01*
X39654598Y-19150010D02*
X45409990Y-19150010D01*
X36304588Y-15800000D02*
X39654598Y-19150010D01*
X34750000Y-15800000D02*
X36304588Y-15800000D01*
X61037500Y-30000000D02*
X58100000Y-30000000D01*
X58950000Y-34000000D02*
X61037500Y-34000000D01*
X58100000Y-34000000D02*
X58950000Y-34000000D01*
X58950000Y-38500000D02*
X61037500Y-38500000D01*
X58100000Y-38500000D02*
X58950000Y-38500000D01*
X58100000Y-26000000D02*
X61037500Y-26000000D01*
X37606793Y-21106793D02*
X37606793Y-21479795D01*
X34750000Y-19300000D02*
X35800000Y-19300000D01*
X35800000Y-19300000D02*
X37606793Y-21106793D01*
X10012653Y-30012653D02*
X10000000Y-30000000D01*
X17412653Y-30012653D02*
X10012653Y-30012653D01*
X24200000Y-17900000D02*
X23800000Y-17500000D01*
X25250000Y-17900000D02*
X24200000Y-17900000D01*
X23800000Y-17500000D02*
X19500000Y-17500000D01*
X10849999Y-26610001D02*
X10000000Y-27460000D01*
X10849999Y-26150001D02*
X10849999Y-26610001D01*
X19500000Y-17500000D02*
X10849999Y-26150001D01*
X10849999Y-24070001D02*
X10000000Y-24920000D01*
X17870010Y-17049990D02*
X10849999Y-24070001D01*
X24164988Y-17049990D02*
X17870010Y-17049990D01*
X24314998Y-17200000D02*
X24164988Y-17049990D01*
X25250000Y-17200000D02*
X24314998Y-17200000D01*
X15880000Y-16500000D02*
X10000000Y-22380000D01*
X25250000Y-16500000D02*
X15880000Y-16500000D01*
X14040000Y-15800000D02*
X10000000Y-19840000D01*
X25250000Y-15800000D02*
X14040000Y-15800000D01*
X12200000Y-15100000D02*
X10000000Y-17300000D01*
X25250000Y-15100000D02*
X12200000Y-15100000D01*
X10360000Y-14400000D02*
X10000000Y-14760000D01*
X25250000Y-14400000D02*
X10360000Y-14400000D01*
X11480000Y-13700000D02*
X10000000Y-12220000D01*
X25250000Y-13700000D02*
X11480000Y-13700000D01*
X45000000Y-13400000D02*
X45000000Y-14500000D01*
X43900000Y-12300000D02*
X45000000Y-13400000D01*
X34750000Y-12300000D02*
X43900000Y-12300000D01*
X36240998Y-15100000D02*
X39840998Y-18700000D01*
X34750000Y-15100000D02*
X36240998Y-15100000D01*
X43340000Y-18700000D02*
X45000000Y-17040000D01*
X39840998Y-18700000D02*
X43340000Y-18700000D01*
X40909999Y-12949999D02*
X41610001Y-13650001D01*
X41610001Y-13650001D02*
X42460000Y-14500000D01*
X35850001Y-12949999D02*
X40909999Y-12949999D01*
X35800000Y-13000000D02*
X35850001Y-12949999D01*
X34750000Y-13000000D02*
X35800000Y-13000000D01*
X39820000Y-14400000D02*
X39920000Y-14500000D01*
X34750000Y-14400000D02*
X39820000Y-14400000D01*
X49180000Y-11600000D02*
X49800000Y-12220000D01*
X34750000Y-11600000D02*
X49180000Y-11600000D01*
X48597919Y-24920000D02*
X49800000Y-24920000D01*
X42120000Y-24920000D02*
X48597919Y-24920000D01*
X35800000Y-18600000D02*
X42120000Y-24920000D01*
X34750000Y-18600000D02*
X35800000Y-18600000D01*
X49800000Y-24920000D02*
X51800000Y-26920000D01*
X55050000Y-38500000D02*
X55900000Y-38500000D01*
X51800000Y-35250000D02*
X55050000Y-38500000D01*
X51800000Y-26920000D02*
X51800000Y-35250000D01*
X40343590Y-22380000D02*
X48597919Y-22380000D01*
X48597919Y-22380000D02*
X49800000Y-22380000D01*
X35863590Y-17900000D02*
X40343590Y-22380000D01*
X34750000Y-17900000D02*
X35863590Y-17900000D01*
X52250010Y-31200010D02*
X52250010Y-24830010D01*
X52250010Y-24830010D02*
X50649999Y-23229999D01*
X55050000Y-34000000D02*
X52250010Y-31200010D01*
X50649999Y-23229999D02*
X49800000Y-22380000D01*
X55900000Y-34000000D02*
X55050000Y-34000000D01*
X49800000Y-19840000D02*
X52800000Y-22840000D01*
X55050000Y-30000000D02*
X55900000Y-30000000D01*
X52800000Y-27750000D02*
X55050000Y-30000000D01*
X52800000Y-22840000D02*
X52800000Y-27750000D01*
X48950001Y-20689999D02*
X49800000Y-19840000D01*
X39921767Y-20689999D02*
X48950001Y-20689999D01*
X34750000Y-17200000D02*
X36431768Y-17200000D01*
X36431768Y-17200000D02*
X39921767Y-20689999D01*
X55900000Y-23400000D02*
X55900000Y-26000000D01*
X49800000Y-17300000D02*
X55900000Y-23400000D01*
X48950001Y-18149999D02*
X49800000Y-17300000D01*
X47499980Y-19600020D02*
X48950001Y-18149999D01*
X39468198Y-19600020D02*
X47499980Y-19600020D01*
X36368178Y-16500000D02*
X39468198Y-19600020D01*
X34750000Y-16500000D02*
X36368178Y-16500000D01*
X27900000Y-22250000D02*
X27900000Y-26000000D01*
X28625000Y-22275000D02*
X28600000Y-22250000D01*
X28625000Y-25000000D02*
X28625000Y-22275000D01*
X29300000Y-22250000D02*
X29300000Y-23950000D01*
X29300000Y-23950000D02*
X29350000Y-24000000D01*
X15000000Y-40080000D02*
X17420000Y-40080000D01*
X30000000Y-23300000D02*
X30000000Y-22250000D01*
X30075001Y-23375001D02*
X30000000Y-23300000D01*
X30075001Y-27424999D02*
X30075001Y-23375001D01*
X17420000Y-40080000D02*
X30075001Y-27424999D01*
X30700000Y-22250000D02*
X30700000Y-27700000D01*
X17050000Y-41350000D02*
X15000000Y-41350000D01*
X30700000Y-27700000D02*
X17050000Y-41350000D01*
X31400000Y-23300000D02*
X31400000Y-22250000D01*
X31400000Y-27636410D02*
X31400000Y-23300000D01*
X16416410Y-42620000D02*
X31400000Y-27636410D01*
X15000000Y-42620000D02*
X16416410Y-42620000D01*
X15707106Y-43890000D02*
X15000000Y-43890000D01*
X15782820Y-43890000D02*
X15707106Y-43890000D01*
X32100000Y-27572820D02*
X15782820Y-43890000D01*
X32100000Y-22250000D02*
X32100000Y-27572820D01*
X32800000Y-23300000D02*
X32800000Y-22250000D01*
X32800000Y-28067106D02*
X32800000Y-23300000D01*
X15707106Y-45160000D02*
X32800000Y-28067106D01*
X15000000Y-45160000D02*
X15707106Y-45160000D01*
X15499999Y-45930001D02*
X15000000Y-46430000D01*
X16108997Y-45930001D02*
X15499999Y-45930001D01*
X33500000Y-28538998D02*
X16108997Y-45930001D01*
X33500000Y-22250000D02*
X33500000Y-28538998D01*
X36862346Y-21760654D02*
X46901692Y-31800000D01*
X36862346Y-21062346D02*
X36862346Y-21760654D01*
X34750000Y-20000000D02*
X35800000Y-20000000D01*
X35800000Y-20000000D02*
X36862346Y-21062346D01*
X46901692Y-43758308D02*
X45500000Y-45160000D01*
X46901692Y-31800000D02*
X46901692Y-43758308D01*
X36412336Y-21312336D02*
X36412337Y-21947055D01*
X34750000Y-20700000D02*
X35800000Y-20700000D01*
X35800000Y-20700000D02*
X36412336Y-21312336D01*
X36412337Y-21947055D02*
X42000000Y-27534718D01*
X42000000Y-41660000D02*
X44230000Y-43890000D01*
X42000000Y-27534718D02*
X42000000Y-41660000D01*
X20212500Y-22137500D02*
X20050000Y-22300000D01*
X20212500Y-20300000D02*
X20212500Y-22137500D01*
X24200000Y-19300000D02*
X25250000Y-19300000D01*
X24050000Y-19300000D02*
X24200000Y-19300000D01*
X21950000Y-21400000D02*
X24050000Y-19300000D01*
X21950000Y-22300000D02*
X21950000Y-21400000D01*
X900000Y-40600000D02*
X0Y-39700000D01*
X7700000Y-40600000D02*
X900000Y-40600000D01*
X49800000Y-27460000D02*
X43634694Y-27460000D01*
X43634694Y-27460000D02*
X38337347Y-22162653D01*
X34750000Y-13700000D02*
X36975000Y-13700000D01*
X36975000Y-13700000D02*
X37000000Y-13675000D01*
D28*
G36*
X64340000Y-51340000D02*
G01*
X51691165Y-51340000D01*
X51804747Y-51305546D01*
X51936776Y-51234974D01*
X52052501Y-51140001D01*
X52076304Y-51110997D01*
X54382806Y-48804495D01*
X60015000Y-48804495D01*
X60015000Y-49195505D01*
X60091282Y-49579003D01*
X60240915Y-49940250D01*
X60458149Y-50265364D01*
X60734636Y-50541851D01*
X61059750Y-50759085D01*
X61420997Y-50908718D01*
X61804495Y-50985000D01*
X62195505Y-50985000D01*
X62579003Y-50908718D01*
X62940250Y-50759085D01*
X63265364Y-50541851D01*
X63541851Y-50265364D01*
X63759085Y-49940250D01*
X63908718Y-49579003D01*
X63985000Y-49195505D01*
X63985000Y-48804495D01*
X63908718Y-48420997D01*
X63759085Y-48059750D01*
X63541851Y-47734636D01*
X63265364Y-47458149D01*
X62940250Y-47240915D01*
X62579003Y-47091282D01*
X62195505Y-47015000D01*
X61804495Y-47015000D01*
X61420997Y-47091282D01*
X61059750Y-47240915D01*
X60734636Y-47458149D01*
X60458149Y-47734636D01*
X60240915Y-48059750D01*
X60091282Y-48420997D01*
X60015000Y-48804495D01*
X54382806Y-48804495D01*
X63401877Y-39785425D01*
X63548254Y-39771008D01*
X63714850Y-39720472D01*
X63868386Y-39638405D01*
X64002962Y-39527962D01*
X64113405Y-39393386D01*
X64195472Y-39239850D01*
X64246008Y-39073254D01*
X64263072Y-38900000D01*
X64263072Y-38100000D01*
X64246008Y-37926746D01*
X64195472Y-37760150D01*
X64113405Y-37606614D01*
X64002962Y-37472038D01*
X63868386Y-37361595D01*
X63722500Y-37283617D01*
X63722500Y-35216383D01*
X63868386Y-35138405D01*
X64002962Y-35027962D01*
X64113405Y-34893386D01*
X64195472Y-34739850D01*
X64246008Y-34573254D01*
X64263072Y-34400000D01*
X64263072Y-33600000D01*
X64246008Y-33426746D01*
X64195472Y-33260150D01*
X64113405Y-33106614D01*
X64002962Y-32972038D01*
X63868386Y-32861595D01*
X63722500Y-32783617D01*
X63722500Y-31216383D01*
X63868386Y-31138405D01*
X64002962Y-31027962D01*
X64113405Y-30893386D01*
X64195472Y-30739850D01*
X64246008Y-30573254D01*
X64263072Y-30400000D01*
X64263072Y-29600000D01*
X64246008Y-29426746D01*
X64195472Y-29260150D01*
X64113405Y-29106614D01*
X64002962Y-28972038D01*
X63868386Y-28861595D01*
X63722500Y-28783617D01*
X63722500Y-27216383D01*
X63868386Y-27138405D01*
X64002962Y-27027962D01*
X64113405Y-26893386D01*
X64195472Y-26739850D01*
X64246008Y-26573254D01*
X64263072Y-26400000D01*
X64263072Y-25600000D01*
X64246008Y-25426746D01*
X64195472Y-25260150D01*
X64113405Y-25106614D01*
X64002962Y-24972038D01*
X63868386Y-24861595D01*
X63722500Y-24783617D01*
X63722500Y-21499822D01*
X63726176Y-21462499D01*
X63722500Y-21425176D01*
X63722500Y-21425167D01*
X63711503Y-21313514D01*
X63668046Y-21170253D01*
X63597474Y-21038224D01*
X63582590Y-21020088D01*
X63526299Y-20951496D01*
X63526295Y-20951492D01*
X63502501Y-20922499D01*
X63473508Y-20898705D01*
X56035000Y-13460199D01*
X56035000Y-13398061D01*
X55995226Y-13198102D01*
X55917205Y-13009744D01*
X55803937Y-12840226D01*
X55768206Y-12804495D01*
X60015000Y-12804495D01*
X60015000Y-13195505D01*
X60091282Y-13579003D01*
X60240915Y-13940250D01*
X60458149Y-14265364D01*
X60734636Y-14541851D01*
X61059750Y-14759085D01*
X61420997Y-14908718D01*
X61804495Y-14985000D01*
X62195505Y-14985000D01*
X62579003Y-14908718D01*
X62940250Y-14759085D01*
X63265364Y-14541851D01*
X63541851Y-14265364D01*
X63759085Y-13940250D01*
X63908718Y-13579003D01*
X63985000Y-13195505D01*
X63985000Y-12804495D01*
X63908718Y-12420997D01*
X63759085Y-12059750D01*
X63541851Y-11734636D01*
X63265364Y-11458149D01*
X62940250Y-11240915D01*
X62579003Y-11091282D01*
X62195505Y-11015000D01*
X61804495Y-11015000D01*
X61420997Y-11091282D01*
X61059750Y-11240915D01*
X60734636Y-11458149D01*
X60458149Y-11734636D01*
X60240915Y-12059750D01*
X60091282Y-12420997D01*
X60015000Y-12804495D01*
X55768206Y-12804495D01*
X55659774Y-12696063D01*
X55490256Y-12582795D01*
X55301898Y-12504774D01*
X55101939Y-12465000D01*
X54898061Y-12465000D01*
X54698102Y-12504774D01*
X54509744Y-12582795D01*
X54340226Y-12696063D01*
X54196063Y-12840226D01*
X54082795Y-13009744D01*
X54004774Y-13198102D01*
X53965000Y-13398061D01*
X53965000Y-13601939D01*
X54004774Y-13801898D01*
X54082795Y-13990256D01*
X54196063Y-14159774D01*
X54340226Y-14303937D01*
X54509744Y-14417205D01*
X54698102Y-14495226D01*
X54898061Y-14535000D01*
X54960199Y-14535000D01*
X62202501Y-21777304D01*
X62202500Y-24783617D01*
X62056614Y-24861595D01*
X62000000Y-24908057D01*
X61943386Y-24861595D01*
X61789850Y-24779528D01*
X61623254Y-24728992D01*
X61450000Y-24711928D01*
X60625000Y-24711928D01*
X60451746Y-24728992D01*
X60285150Y-24779528D01*
X60131614Y-24861595D01*
X59997038Y-24972038D01*
X59886595Y-25106614D01*
X59815298Y-25240000D01*
X59254320Y-25240000D01*
X59230537Y-25195506D01*
X59151185Y-25098815D01*
X59054494Y-25019463D01*
X58944180Y-24960498D01*
X58824482Y-24924188D01*
X58700000Y-24911928D01*
X57500000Y-24911928D01*
X57375518Y-24924188D01*
X57255820Y-24960498D01*
X57145506Y-25019463D01*
X57048815Y-25098815D01*
X57000000Y-25158296D01*
X56951185Y-25098815D01*
X56854494Y-25019463D01*
X56744180Y-24960498D01*
X56660000Y-24934962D01*
X56660000Y-23437325D01*
X56663676Y-23400000D01*
X56660000Y-23362675D01*
X56660000Y-23362667D01*
X56649003Y-23251014D01*
X56605546Y-23107753D01*
X56534974Y-22975724D01*
X56440001Y-22859999D01*
X56411004Y-22836202D01*
X51241209Y-17666408D01*
X51285000Y-17446260D01*
X51285000Y-17153740D01*
X51227932Y-16866842D01*
X51115990Y-16596589D01*
X50953475Y-16353368D01*
X50746632Y-16146525D01*
X50572240Y-16030000D01*
X50746632Y-15913475D01*
X50953475Y-15706632D01*
X51115990Y-15463411D01*
X51227932Y-15193158D01*
X51285000Y-14906260D01*
X51285000Y-14613740D01*
X51227932Y-14326842D01*
X51115990Y-14056589D01*
X50953475Y-13813368D01*
X50746632Y-13606525D01*
X50572240Y-13490000D01*
X50746632Y-13373475D01*
X50953475Y-13166632D01*
X51115990Y-12923411D01*
X51227932Y-12653158D01*
X51285000Y-12366260D01*
X51285000Y-12073740D01*
X51227932Y-11786842D01*
X51115990Y-11516589D01*
X50953475Y-11273368D01*
X50746632Y-11066525D01*
X50503411Y-10904010D01*
X50233158Y-10792068D01*
X49946260Y-10735000D01*
X49653740Y-10735000D01*
X49366842Y-10792068D01*
X49244632Y-10842689D01*
X49217333Y-10840000D01*
X49217322Y-10840000D01*
X49180000Y-10836324D01*
X49142678Y-10840000D01*
X36039250Y-10840000D01*
X36026250Y-10827000D01*
X35913678Y-10827000D01*
X35904494Y-10819463D01*
X35794180Y-10760498D01*
X35674482Y-10724188D01*
X35550000Y-10711928D01*
X34603000Y-10711928D01*
X34603000Y-10660000D01*
X64340001Y-10660000D01*
X64340000Y-51340000D01*
G37*
X64340000Y-51340000D02*
X51691165Y-51340000D01*
X51804747Y-51305546D01*
X51936776Y-51234974D01*
X52052501Y-51140001D01*
X52076304Y-51110997D01*
X54382806Y-48804495D01*
X60015000Y-48804495D01*
X60015000Y-49195505D01*
X60091282Y-49579003D01*
X60240915Y-49940250D01*
X60458149Y-50265364D01*
X60734636Y-50541851D01*
X61059750Y-50759085D01*
X61420997Y-50908718D01*
X61804495Y-50985000D01*
X62195505Y-50985000D01*
X62579003Y-50908718D01*
X62940250Y-50759085D01*
X63265364Y-50541851D01*
X63541851Y-50265364D01*
X63759085Y-49940250D01*
X63908718Y-49579003D01*
X63985000Y-49195505D01*
X63985000Y-48804495D01*
X63908718Y-48420997D01*
X63759085Y-48059750D01*
X63541851Y-47734636D01*
X63265364Y-47458149D01*
X62940250Y-47240915D01*
X62579003Y-47091282D01*
X62195505Y-47015000D01*
X61804495Y-47015000D01*
X61420997Y-47091282D01*
X61059750Y-47240915D01*
X60734636Y-47458149D01*
X60458149Y-47734636D01*
X60240915Y-48059750D01*
X60091282Y-48420997D01*
X60015000Y-48804495D01*
X54382806Y-48804495D01*
X63401877Y-39785425D01*
X63548254Y-39771008D01*
X63714850Y-39720472D01*
X63868386Y-39638405D01*
X64002962Y-39527962D01*
X64113405Y-39393386D01*
X64195472Y-39239850D01*
X64246008Y-39073254D01*
X64263072Y-38900000D01*
X64263072Y-38100000D01*
X64246008Y-37926746D01*
X64195472Y-37760150D01*
X64113405Y-37606614D01*
X64002962Y-37472038D01*
X63868386Y-37361595D01*
X63722500Y-37283617D01*
X63722500Y-35216383D01*
X63868386Y-35138405D01*
X64002962Y-35027962D01*
X64113405Y-34893386D01*
X64195472Y-34739850D01*
X64246008Y-34573254D01*
X64263072Y-34400000D01*
X64263072Y-33600000D01*
X64246008Y-33426746D01*
X64195472Y-33260150D01*
X64113405Y-33106614D01*
X64002962Y-32972038D01*
X63868386Y-32861595D01*
X63722500Y-32783617D01*
X63722500Y-31216383D01*
X63868386Y-31138405D01*
X64002962Y-31027962D01*
X64113405Y-30893386D01*
X64195472Y-30739850D01*
X64246008Y-30573254D01*
X64263072Y-30400000D01*
X64263072Y-29600000D01*
X64246008Y-29426746D01*
X64195472Y-29260150D01*
X64113405Y-29106614D01*
X64002962Y-28972038D01*
X63868386Y-28861595D01*
X63722500Y-28783617D01*
X63722500Y-27216383D01*
X63868386Y-27138405D01*
X64002962Y-27027962D01*
X64113405Y-26893386D01*
X64195472Y-26739850D01*
X64246008Y-26573254D01*
X64263072Y-26400000D01*
X64263072Y-25600000D01*
X64246008Y-25426746D01*
X64195472Y-25260150D01*
X64113405Y-25106614D01*
X64002962Y-24972038D01*
X63868386Y-24861595D01*
X63722500Y-24783617D01*
X63722500Y-21499822D01*
X63726176Y-21462499D01*
X63722500Y-21425176D01*
X63722500Y-21425167D01*
X63711503Y-21313514D01*
X63668046Y-21170253D01*
X63597474Y-21038224D01*
X63582590Y-21020088D01*
X63526299Y-20951496D01*
X63526295Y-20951492D01*
X63502501Y-20922499D01*
X63473508Y-20898705D01*
X56035000Y-13460199D01*
X56035000Y-13398061D01*
X55995226Y-13198102D01*
X55917205Y-13009744D01*
X55803937Y-12840226D01*
X55768206Y-12804495D01*
X60015000Y-12804495D01*
X60015000Y-13195505D01*
X60091282Y-13579003D01*
X60240915Y-13940250D01*
X60458149Y-14265364D01*
X60734636Y-14541851D01*
X61059750Y-14759085D01*
X61420997Y-14908718D01*
X61804495Y-14985000D01*
X62195505Y-14985000D01*
X62579003Y-14908718D01*
X62940250Y-14759085D01*
X63265364Y-14541851D01*
X63541851Y-14265364D01*
X63759085Y-13940250D01*
X63908718Y-13579003D01*
X63985000Y-13195505D01*
X63985000Y-12804495D01*
X63908718Y-12420997D01*
X63759085Y-12059750D01*
X63541851Y-11734636D01*
X63265364Y-11458149D01*
X62940250Y-11240915D01*
X62579003Y-11091282D01*
X62195505Y-11015000D01*
X61804495Y-11015000D01*
X61420997Y-11091282D01*
X61059750Y-11240915D01*
X60734636Y-11458149D01*
X60458149Y-11734636D01*
X60240915Y-12059750D01*
X60091282Y-12420997D01*
X60015000Y-12804495D01*
X55768206Y-12804495D01*
X55659774Y-12696063D01*
X55490256Y-12582795D01*
X55301898Y-12504774D01*
X55101939Y-12465000D01*
X54898061Y-12465000D01*
X54698102Y-12504774D01*
X54509744Y-12582795D01*
X54340226Y-12696063D01*
X54196063Y-12840226D01*
X54082795Y-13009744D01*
X54004774Y-13198102D01*
X53965000Y-13398061D01*
X53965000Y-13601939D01*
X54004774Y-13801898D01*
X54082795Y-13990256D01*
X54196063Y-14159774D01*
X54340226Y-14303937D01*
X54509744Y-14417205D01*
X54698102Y-14495226D01*
X54898061Y-14535000D01*
X54960199Y-14535000D01*
X62202501Y-21777304D01*
X62202500Y-24783617D01*
X62056614Y-24861595D01*
X62000000Y-24908057D01*
X61943386Y-24861595D01*
X61789850Y-24779528D01*
X61623254Y-24728992D01*
X61450000Y-24711928D01*
X60625000Y-24711928D01*
X60451746Y-24728992D01*
X60285150Y-24779528D01*
X60131614Y-24861595D01*
X59997038Y-24972038D01*
X59886595Y-25106614D01*
X59815298Y-25240000D01*
X59254320Y-25240000D01*
X59230537Y-25195506D01*
X59151185Y-25098815D01*
X59054494Y-25019463D01*
X58944180Y-24960498D01*
X58824482Y-24924188D01*
X58700000Y-24911928D01*
X57500000Y-24911928D01*
X57375518Y-24924188D01*
X57255820Y-24960498D01*
X57145506Y-25019463D01*
X57048815Y-25098815D01*
X57000000Y-25158296D01*
X56951185Y-25098815D01*
X56854494Y-25019463D01*
X56744180Y-24960498D01*
X56660000Y-24934962D01*
X56660000Y-23437325D01*
X56663676Y-23400000D01*
X56660000Y-23362675D01*
X56660000Y-23362667D01*
X56649003Y-23251014D01*
X56605546Y-23107753D01*
X56534974Y-22975724D01*
X56440001Y-22859999D01*
X56411004Y-22836202D01*
X51241209Y-17666408D01*
X51285000Y-17446260D01*
X51285000Y-17153740D01*
X51227932Y-16866842D01*
X51115990Y-16596589D01*
X50953475Y-16353368D01*
X50746632Y-16146525D01*
X50572240Y-16030000D01*
X50746632Y-15913475D01*
X50953475Y-15706632D01*
X51115990Y-15463411D01*
X51227932Y-15193158D01*
X51285000Y-14906260D01*
X51285000Y-14613740D01*
X51227932Y-14326842D01*
X51115990Y-14056589D01*
X50953475Y-13813368D01*
X50746632Y-13606525D01*
X50572240Y-13490000D01*
X50746632Y-13373475D01*
X50953475Y-13166632D01*
X51115990Y-12923411D01*
X51227932Y-12653158D01*
X51285000Y-12366260D01*
X51285000Y-12073740D01*
X51227932Y-11786842D01*
X51115990Y-11516589D01*
X50953475Y-11273368D01*
X50746632Y-11066525D01*
X50503411Y-10904010D01*
X50233158Y-10792068D01*
X49946260Y-10735000D01*
X49653740Y-10735000D01*
X49366842Y-10792068D01*
X49244632Y-10842689D01*
X49217333Y-10840000D01*
X49217322Y-10840000D01*
X49180000Y-10836324D01*
X49142678Y-10840000D01*
X36039250Y-10840000D01*
X36026250Y-10827000D01*
X35913678Y-10827000D01*
X35904494Y-10819463D01*
X35794180Y-10760498D01*
X35674482Y-10724188D01*
X35550000Y-10711928D01*
X34603000Y-10711928D01*
X34603000Y-10660000D01*
X64340001Y-10660000D01*
X64340000Y-51340000D01*
G36*
X28873000Y-13400000D02*
G01*
X28875440Y-13424776D01*
X28882667Y-13448601D01*
X28894403Y-13470557D01*
X28910197Y-13489803D01*
X28929443Y-13505597D01*
X28951399Y-13517333D01*
X28975224Y-13524560D01*
X29000000Y-13527000D01*
X32187580Y-13527000D01*
X32300000Y-13538072D01*
X33311928Y-13538072D01*
X33311928Y-13950000D01*
X33321777Y-14050000D01*
X33311928Y-14150000D01*
X33311928Y-14650000D01*
X33321777Y-14750000D01*
X33311928Y-14850000D01*
X33311928Y-15350000D01*
X33321777Y-15450000D01*
X33311928Y-15550000D01*
X33311928Y-16050000D01*
X33321777Y-16150000D01*
X33311928Y-16250000D01*
X33311928Y-16750000D01*
X33321777Y-16850000D01*
X33311928Y-16950000D01*
X33311928Y-17450000D01*
X33321777Y-17550000D01*
X33311928Y-17650000D01*
X33311928Y-18150000D01*
X33321777Y-18250000D01*
X33311928Y-18350000D01*
X33311928Y-18850000D01*
X33321777Y-18950000D01*
X33311928Y-19050000D01*
X33311928Y-19550000D01*
X33321777Y-19650000D01*
X33311928Y-19750000D01*
X33311928Y-20250000D01*
X33321777Y-20350000D01*
X33311928Y-20450000D01*
X33311928Y-20811928D01*
X33250000Y-20811928D01*
X33150000Y-20821777D01*
X33050000Y-20811928D01*
X32550000Y-20811928D01*
X32450000Y-20821777D01*
X32350000Y-20811928D01*
X31850000Y-20811928D01*
X31750000Y-20821777D01*
X31650000Y-20811928D01*
X31150000Y-20811928D01*
X31050000Y-20821777D01*
X30950000Y-20811928D01*
X30450000Y-20811928D01*
X30350000Y-20821777D01*
X30250000Y-20811928D01*
X29750000Y-20811928D01*
X29650000Y-20821777D01*
X29550000Y-20811928D01*
X29050000Y-20811928D01*
X28950000Y-20821777D01*
X28850000Y-20811928D01*
X28350000Y-20811928D01*
X28250000Y-20821777D01*
X28150000Y-20811928D01*
X27650000Y-20811928D01*
X27550000Y-20821777D01*
X27450000Y-20811928D01*
X26950000Y-20811928D01*
X26850000Y-20821777D01*
X26750000Y-20811928D01*
X26345767Y-20811928D01*
X26404494Y-20780537D01*
X26501185Y-20701185D01*
X26580537Y-20604494D01*
X26639502Y-20494180D01*
X26675812Y-20374482D01*
X26688072Y-20250000D01*
X26688072Y-19750000D01*
X26678223Y-19650000D01*
X26688072Y-19550000D01*
X26688072Y-19050000D01*
X26678223Y-18950000D01*
X26688072Y-18850000D01*
X26688072Y-18350000D01*
X26678223Y-18250000D01*
X26688072Y-18150000D01*
X26688072Y-17650000D01*
X26678223Y-17550000D01*
X26688072Y-17450000D01*
X26688072Y-16950000D01*
X26678223Y-16850000D01*
X26688072Y-16750000D01*
X26688072Y-16250000D01*
X26678223Y-16150000D01*
X26688072Y-16050000D01*
X26688072Y-15550000D01*
X26678223Y-15450000D01*
X26688072Y-15350000D01*
X26688072Y-14850000D01*
X26678223Y-14750000D01*
X26688072Y-14650000D01*
X26688072Y-14150000D01*
X26678223Y-14050000D01*
X26688072Y-13950000D01*
X26688072Y-13450000D01*
X26675812Y-13325518D01*
X26639502Y-13205820D01*
X26580537Y-13095506D01*
X26501185Y-12998815D01*
X26404494Y-12919463D01*
X26294180Y-12860498D01*
X26174482Y-12824188D01*
X26050000Y-12811928D01*
X24450000Y-12811928D01*
X24325518Y-12824188D01*
X24205820Y-12860498D01*
X24095506Y-12919463D01*
X24070482Y-12940000D01*
X11794802Y-12940000D01*
X11441210Y-12586408D01*
X11485000Y-12366260D01*
X11485000Y-12073740D01*
X11427932Y-11786842D01*
X11315990Y-11516589D01*
X11153475Y-11273368D01*
X11030107Y-11150000D01*
X23811928Y-11150000D01*
X23824188Y-11274482D01*
X23860498Y-11394180D01*
X23919463Y-11504494D01*
X23998815Y-11601185D01*
X24095506Y-11680537D01*
X24205820Y-11739502D01*
X24325518Y-11775812D01*
X24450000Y-11788072D01*
X24964250Y-11785000D01*
X25123000Y-11626250D01*
X25123000Y-10827000D01*
X25377000Y-10827000D01*
X25377000Y-11626250D01*
X25535750Y-11785000D01*
X26050000Y-11788072D01*
X26174482Y-11775812D01*
X26294180Y-11739502D01*
X26404494Y-11680537D01*
X26501185Y-11601185D01*
X26580537Y-11504494D01*
X26639502Y-11394180D01*
X26675812Y-11274482D01*
X26688072Y-11150000D01*
X26685000Y-10985750D01*
X26526250Y-10827000D01*
X25377000Y-10827000D01*
X25123000Y-10827000D01*
X23973750Y-10827000D01*
X23815000Y-10985750D01*
X23811928Y-11150000D01*
X11030107Y-11150000D01*
X10946632Y-11066525D01*
X10703411Y-10904010D01*
X10433158Y-10792068D01*
X10146260Y-10735000D01*
X9853740Y-10735000D01*
X9566842Y-10792068D01*
X9296589Y-10904010D01*
X9053368Y-11066525D01*
X8846525Y-11273368D01*
X8684010Y-11516589D01*
X8572068Y-11786842D01*
X8515000Y-12073740D01*
X8515000Y-12366260D01*
X8572068Y-12653158D01*
X8684010Y-12923411D01*
X8846525Y-13166632D01*
X9053368Y-13373475D01*
X9227760Y-13490000D01*
X9053368Y-13606525D01*
X8846525Y-13813368D01*
X8684010Y-14056589D01*
X8572068Y-14326842D01*
X8515000Y-14613740D01*
X8515000Y-14906260D01*
X8572068Y-15193158D01*
X8684010Y-15463411D01*
X8846525Y-15706632D01*
X9053368Y-15913475D01*
X9227760Y-16030000D01*
X9053368Y-16146525D01*
X8846525Y-16353368D01*
X8684010Y-16596589D01*
X8572068Y-16866842D01*
X8515000Y-17153740D01*
X8515000Y-17446260D01*
X8572068Y-17733158D01*
X8684010Y-18003411D01*
X8846525Y-18246632D01*
X9053368Y-18453475D01*
X9227760Y-18570000D01*
X9053368Y-18686525D01*
X8846525Y-18893368D01*
X8684010Y-19136589D01*
X8572068Y-19406842D01*
X8515000Y-19693740D01*
X8515000Y-19986260D01*
X8572068Y-20273158D01*
X8684010Y-20543411D01*
X8846525Y-20786632D01*
X9053368Y-20993475D01*
X9227760Y-21110000D01*
X9053368Y-21226525D01*
X8846525Y-21433368D01*
X8684010Y-21676589D01*
X8572068Y-21946842D01*
X8515000Y-22233740D01*
X8515000Y-22526260D01*
X8572068Y-22813158D01*
X8684010Y-23083411D01*
X8846525Y-23326632D01*
X9053368Y-23533475D01*
X9227760Y-23650000D01*
X9053368Y-23766525D01*
X8846525Y-23973368D01*
X8684010Y-24216589D01*
X8572068Y-24486842D01*
X8515000Y-24773740D01*
X8515000Y-25066260D01*
X8572068Y-25353158D01*
X8684010Y-25623411D01*
X8846525Y-25866632D01*
X9053368Y-26073475D01*
X9227760Y-26190000D01*
X9053368Y-26306525D01*
X8846525Y-26513368D01*
X8684010Y-26756589D01*
X8572068Y-27026842D01*
X8515000Y-27313740D01*
X8515000Y-27606260D01*
X8572068Y-27893158D01*
X8684010Y-28163411D01*
X8846525Y-28406632D01*
X8978380Y-28538487D01*
X8905820Y-28560498D01*
X8795506Y-28619463D01*
X8698815Y-28698815D01*
X8619463Y-28795506D01*
X8560498Y-28905820D01*
X8524188Y-29025518D01*
X8511928Y-29150000D01*
X8511928Y-30850000D01*
X8524188Y-30974482D01*
X8560498Y-31094180D01*
X8619463Y-31204494D01*
X8698815Y-31301185D01*
X8795506Y-31380537D01*
X8905820Y-31439502D01*
X9025518Y-31475812D01*
X9150000Y-31488072D01*
X10850000Y-31488072D01*
X10974482Y-31475812D01*
X11094180Y-31439502D01*
X11204494Y-31380537D01*
X11301185Y-31301185D01*
X11380537Y-31204494D01*
X11439502Y-31094180D01*
X11475812Y-30974482D01*
X11488072Y-30850000D01*
X11488072Y-30772653D01*
X16415315Y-30772653D01*
X16404774Y-30798102D01*
X16365000Y-30998061D01*
X16365000Y-31060198D01*
X15685199Y-31740000D01*
X7537322Y-31740000D01*
X7499999Y-31736324D01*
X7462676Y-31740000D01*
X7462667Y-31740000D01*
X7351014Y-31750997D01*
X7207753Y-31794454D01*
X7075724Y-31865026D01*
X6959999Y-31959999D01*
X6936201Y-31988997D01*
X5788998Y-33136201D01*
X5760000Y-33159999D01*
X5736202Y-33188997D01*
X5736201Y-33188998D01*
X5665026Y-33275724D01*
X5594454Y-33407754D01*
X5550998Y-33551015D01*
X5536324Y-33700000D01*
X5540001Y-33737332D01*
X5540000Y-35178661D01*
X5431614Y-35236595D01*
X5297038Y-35347038D01*
X5186595Y-35481614D01*
X5104528Y-35635150D01*
X5053992Y-35801746D01*
X5036928Y-35975000D01*
X5036928Y-37225000D01*
X5053992Y-37398254D01*
X5104528Y-37564850D01*
X5186595Y-37718386D01*
X5297038Y-37852962D01*
X5431614Y-37963405D01*
X5585150Y-38045472D01*
X5718246Y-38085846D01*
X5711928Y-38150000D01*
X5711928Y-39050000D01*
X5724188Y-39174482D01*
X5760498Y-39294180D01*
X5819463Y-39404494D01*
X5898815Y-39501185D01*
X5995506Y-39580537D01*
X6105820Y-39639502D01*
X6225518Y-39675812D01*
X6350000Y-39688072D01*
X6861905Y-39688072D01*
X6848815Y-39698815D01*
X6769463Y-39795506D01*
X6745680Y-39840000D01*
X2530331Y-39840000D01*
X2544120Y-39700000D01*
X2507725Y-39330476D01*
X2399939Y-38975152D01*
X2224903Y-38647683D01*
X1989345Y-38360655D01*
X1702317Y-38125097D01*
X1374848Y-37950061D01*
X1019524Y-37842275D01*
X742597Y-37815000D01*
X-742597Y-37815000D01*
X-1019524Y-37842275D01*
X-1374848Y-37950061D01*
X-1702317Y-38125097D01*
X-1989345Y-38360655D01*
X-2224903Y-38647683D01*
X-2399939Y-38975152D01*
X-2507725Y-39330476D01*
X-2544120Y-39700000D01*
X-2507725Y-40069524D01*
X-2399939Y-40424848D01*
X-2224903Y-40752317D01*
X-1989345Y-41039345D01*
X-1702317Y-41274903D01*
X-1374848Y-41449939D01*
X-1019524Y-41557725D01*
X-742597Y-41585000D01*
X742597Y-41585000D01*
X1019524Y-41557725D01*
X1374848Y-41449939D01*
X1543112Y-41360000D01*
X6745680Y-41360000D01*
X6769463Y-41404494D01*
X6848815Y-41501185D01*
X6945506Y-41580537D01*
X7055820Y-41639502D01*
X7175518Y-41675812D01*
X7300000Y-41688072D01*
X8100000Y-41688072D01*
X8224482Y-41675812D01*
X8344180Y-41639502D01*
X8454494Y-41580537D01*
X8551185Y-41501185D01*
X8630537Y-41404494D01*
X8689502Y-41294180D01*
X8725812Y-41174482D01*
X8738072Y-41050000D01*
X8738072Y-40150000D01*
X8725812Y-40025518D01*
X8689502Y-39905820D01*
X8630537Y-39795506D01*
X8551185Y-39698815D01*
X8454494Y-39619463D01*
X8438393Y-39610857D01*
X8523000Y-39526250D01*
X8523000Y-38727000D01*
X8777000Y-38727000D01*
X8777000Y-39526250D01*
X8935750Y-39685000D01*
X9050000Y-39688072D01*
X9174482Y-39675812D01*
X9294180Y-39639502D01*
X9404494Y-39580537D01*
X9501185Y-39501185D01*
X9580537Y-39404494D01*
X9639502Y-39294180D01*
X9675812Y-39174482D01*
X9688072Y-39050000D01*
X9685000Y-38885750D01*
X9526250Y-38727000D01*
X8777000Y-38727000D01*
X8523000Y-38727000D01*
X8503000Y-38727000D01*
X8503000Y-38473000D01*
X8523000Y-38473000D01*
X8523000Y-38453000D01*
X8777000Y-38453000D01*
X8777000Y-38473000D01*
X9526250Y-38473000D01*
X9685000Y-38314250D01*
X9688072Y-38150000D01*
X9684399Y-38112704D01*
X9725000Y-38113072D01*
X9849482Y-38100812D01*
X9969180Y-38064502D01*
X10079494Y-38005537D01*
X10176185Y-37926185D01*
X10255537Y-37829494D01*
X10314502Y-37719180D01*
X10350812Y-37599482D01*
X10363072Y-37475000D01*
X10360000Y-36885750D01*
X10201250Y-36727000D01*
X9227000Y-36727000D01*
X9227000Y-36747000D01*
X8973000Y-36747000D01*
X8973000Y-36727000D01*
X7998750Y-36727000D01*
X7840000Y-36885750D01*
X7836928Y-37475000D01*
X7849188Y-37599482D01*
X7863273Y-37645915D01*
X7798815Y-37698815D01*
X7719463Y-37795506D01*
X7700000Y-37831918D01*
X7680537Y-37795506D01*
X7601185Y-37698815D01*
X7510000Y-37623982D01*
X7510000Y-37516957D01*
X7546008Y-37398254D01*
X7563072Y-37225000D01*
X7563072Y-35975000D01*
X7546008Y-35801746D01*
X7522728Y-35725000D01*
X7836928Y-35725000D01*
X7840000Y-36314250D01*
X7998750Y-36473000D01*
X8973000Y-36473000D01*
X8973000Y-35248750D01*
X9227000Y-35248750D01*
X9227000Y-36473000D01*
X10201250Y-36473000D01*
X10360000Y-36314250D01*
X10363072Y-35725000D01*
X10350812Y-35600518D01*
X10314502Y-35480820D01*
X10255537Y-35370506D01*
X10176185Y-35273815D01*
X10079494Y-35194463D01*
X9969180Y-35135498D01*
X9849482Y-35099188D01*
X9725000Y-35086928D01*
X9385750Y-35090000D01*
X9227000Y-35248750D01*
X8973000Y-35248750D01*
X8814250Y-35090000D01*
X8475000Y-35086928D01*
X8350518Y-35099188D01*
X8230820Y-35135498D01*
X8120506Y-35194463D01*
X8023815Y-35273815D01*
X7944463Y-35370506D01*
X7885498Y-35480820D01*
X7849188Y-35600518D01*
X7836928Y-35725000D01*
X7522728Y-35725000D01*
X7495472Y-35635150D01*
X7413405Y-35481614D01*
X7302962Y-35347038D01*
X7168386Y-35236595D01*
X7060000Y-35178661D01*
X7060000Y-34698126D01*
X12635881Y-34698126D01*
X12762046Y-34873000D01*
X13603000Y-34873000D01*
X13603000Y-34030871D01*
X13428124Y-33905874D01*
X13220471Y-33985790D01*
X13032399Y-34104682D01*
X12871135Y-34257980D01*
X12742877Y-34439794D01*
X12652554Y-34643136D01*
X12635881Y-34698126D01*
X7060000Y-34698126D01*
X7060000Y-34014801D01*
X7814802Y-33260000D01*
X15962678Y-33260000D01*
X16000000Y-33263676D01*
X16037322Y-33260000D01*
X16037333Y-33260000D01*
X16148986Y-33249003D01*
X16292247Y-33205546D01*
X16424276Y-33134974D01*
X16540001Y-33040001D01*
X16563804Y-33010997D01*
X17439802Y-32135000D01*
X17501939Y-32135000D01*
X17701898Y-32095226D01*
X17890256Y-32017205D01*
X18059774Y-31903937D01*
X18203937Y-31759774D01*
X18317205Y-31590256D01*
X18395226Y-31401898D01*
X18435000Y-31201939D01*
X18435000Y-31139801D01*
X19994801Y-29580000D01*
X22741928Y-29580000D01*
X22754188Y-29704482D01*
X22790498Y-29824180D01*
X22849463Y-29934494D01*
X22928815Y-30031185D01*
X23025506Y-30110537D01*
X23135820Y-30169502D01*
X23255518Y-30205812D01*
X23380000Y-30218072D01*
X23414250Y-30215000D01*
X23573000Y-30056250D01*
X23573000Y-29412000D01*
X23827000Y-29412000D01*
X23827000Y-30056250D01*
X23985750Y-30215000D01*
X24020000Y-30218072D01*
X24144482Y-30205812D01*
X24264180Y-30169502D01*
X24374494Y-30110537D01*
X24471185Y-30031185D01*
X24550537Y-29934494D01*
X24609502Y-29824180D01*
X24645812Y-29704482D01*
X24658072Y-29580000D01*
X24655000Y-29570750D01*
X24496250Y-29412000D01*
X23827000Y-29412000D01*
X23573000Y-29412000D01*
X22903750Y-29412000D01*
X22745000Y-29570750D01*
X22741928Y-29580000D01*
X19994801Y-29580000D01*
X21996009Y-27578794D01*
X22025001Y-27555001D01*
X22048795Y-27526008D01*
X22048799Y-27526004D01*
X22119973Y-27439277D01*
X22119974Y-27439276D01*
X22190546Y-27307247D01*
X22234003Y-27163986D01*
X22245000Y-27052333D01*
X22245000Y-27052324D01*
X22248676Y-27015001D01*
X22245000Y-26977678D01*
X22245000Y-26458508D01*
X22285679Y-26408940D01*
X22358274Y-26273125D01*
X22402977Y-26125757D01*
X22418072Y-25972500D01*
X22418072Y-25927140D01*
X22422474Y-25921776D01*
X22493046Y-25789747D01*
X22536503Y-25646486D01*
X22547500Y-25534833D01*
X22551177Y-25497500D01*
X22547500Y-25460167D01*
X22547500Y-25215143D01*
X22612115Y-25162115D01*
X22718671Y-25032275D01*
X22797850Y-24884142D01*
X22846608Y-24723408D01*
X22863072Y-24556250D01*
X22863072Y-24299229D01*
X24815000Y-22347303D01*
X24815000Y-22377002D01*
X24973748Y-22377002D01*
X24815000Y-22535750D01*
X24811992Y-23040937D01*
X24822483Y-23165580D01*
X24857089Y-23285781D01*
X24914481Y-23396922D01*
X24992452Y-23494731D01*
X25088006Y-23575449D01*
X25197472Y-23635974D01*
X25316642Y-23673980D01*
X25418250Y-23685000D01*
X25572998Y-23530252D01*
X25572998Y-23602200D01*
X24213271Y-24961928D01*
X23250000Y-24961928D01*
X23125518Y-24974188D01*
X23005820Y-25010498D01*
X22895506Y-25069463D01*
X22798815Y-25148815D01*
X22719463Y-25245506D01*
X22660498Y-25355820D01*
X22624188Y-25475518D01*
X22611928Y-25600000D01*
X22611928Y-27400000D01*
X22624188Y-27524482D01*
X22660498Y-27644180D01*
X22719463Y-27754494D01*
X22798815Y-27851185D01*
X22806668Y-27857630D01*
X22801726Y-27866875D01*
X22757023Y-28014243D01*
X22741928Y-28167500D01*
X22741928Y-28462500D01*
X22757023Y-28615757D01*
X22794312Y-28738684D01*
X22790498Y-28745820D01*
X22754188Y-28865518D01*
X22741928Y-28990000D01*
X22745000Y-28999250D01*
X22903750Y-29158000D01*
X23170237Y-29158000D01*
X23226875Y-29188274D01*
X23374243Y-29232977D01*
X23527500Y-29248072D01*
X23872500Y-29248072D01*
X24025757Y-29232977D01*
X24173125Y-29188274D01*
X24229763Y-29158000D01*
X24496250Y-29158000D01*
X24655000Y-28999250D01*
X24658072Y-28990000D01*
X24645812Y-28865518D01*
X24609502Y-28745820D01*
X24605688Y-28738684D01*
X24642977Y-28615757D01*
X24658072Y-28462500D01*
X24658072Y-28167500D01*
X24642977Y-28014243D01*
X24614976Y-27921935D01*
X24701185Y-27851185D01*
X24780537Y-27754494D01*
X24839502Y-27644180D01*
X24875812Y-27524482D01*
X24888072Y-27400000D01*
X24888072Y-26436729D01*
X25111928Y-26212873D01*
X25111928Y-27400000D01*
X25124188Y-27524482D01*
X25160498Y-27644180D01*
X25219463Y-27754494D01*
X25298815Y-27851185D01*
X25385024Y-27921935D01*
X25357023Y-28014243D01*
X25341928Y-28167500D01*
X25341928Y-28462500D01*
X25357023Y-28615757D01*
X25394312Y-28738684D01*
X25390498Y-28745820D01*
X25354188Y-28865518D01*
X25341928Y-28990000D01*
X25345000Y-28999250D01*
X25503750Y-29158000D01*
X25770237Y-29158000D01*
X25826875Y-29188274D01*
X25974243Y-29232977D01*
X26127500Y-29248072D01*
X26447000Y-29248072D01*
X26447000Y-29412000D01*
X26427000Y-29412000D01*
X26427000Y-29432000D01*
X26173000Y-29432000D01*
X26173000Y-29412000D01*
X25503750Y-29412000D01*
X25345000Y-29570750D01*
X25341928Y-29580000D01*
X25354188Y-29704482D01*
X25390498Y-29824180D01*
X25449463Y-29934494D01*
X25528815Y-30031185D01*
X25625506Y-30110537D01*
X25735820Y-30169502D01*
X25855518Y-30205812D01*
X25980000Y-30218072D01*
X26014250Y-30215000D01*
X26172998Y-30056252D01*
X26172998Y-30215000D01*
X26210198Y-30215000D01*
X17105199Y-39320000D01*
X16017266Y-39320000D01*
X16091383Y-39141067D01*
X16135000Y-38921788D01*
X16135000Y-38698212D01*
X16091383Y-38478933D01*
X16005824Y-38272376D01*
X15940759Y-38175000D01*
X16005824Y-38077624D01*
X16091383Y-37871067D01*
X16135000Y-37651788D01*
X16135000Y-37428212D01*
X16091383Y-37208933D01*
X16005824Y-37002376D01*
X15940759Y-36905000D01*
X16005824Y-36807624D01*
X16091383Y-36601067D01*
X16135000Y-36381788D01*
X16135000Y-36158212D01*
X16091383Y-35938933D01*
X16045112Y-35827226D01*
X16089502Y-35744180D01*
X16125812Y-35624482D01*
X16138072Y-35500000D01*
X16138072Y-34500000D01*
X16125812Y-34375518D01*
X16089502Y-34255820D01*
X16030537Y-34145506D01*
X15951185Y-34048815D01*
X15854494Y-33969463D01*
X15744180Y-33910498D01*
X15624482Y-33874188D01*
X15500000Y-33861928D01*
X14500000Y-33861928D01*
X14375518Y-33874188D01*
X14255820Y-33910498D01*
X14167106Y-33957918D01*
X14031876Y-33905874D01*
X13857000Y-34030871D01*
X13857000Y-34873000D01*
X13861928Y-34873000D01*
X13861928Y-35127000D01*
X13857000Y-35127000D01*
X13857000Y-35138026D01*
X13841788Y-35135000D01*
X13618212Y-35135000D01*
X13603000Y-35138026D01*
X13603000Y-35127000D01*
X12762046Y-35127000D01*
X12635881Y-35301874D01*
X12652554Y-35356864D01*
X12742877Y-35560206D01*
X12792353Y-35630342D01*
X12724176Y-35732376D01*
X12638617Y-35938933D01*
X12595000Y-36158212D01*
X12595000Y-36381788D01*
X12638617Y-36601067D01*
X12724176Y-36807624D01*
X12789241Y-36905000D01*
X12724176Y-37002376D01*
X12638617Y-37208933D01*
X12595000Y-37428212D01*
X12595000Y-37651788D01*
X12638617Y-37871067D01*
X12724176Y-38077624D01*
X12789241Y-38175000D01*
X12724176Y-38272376D01*
X12638617Y-38478933D01*
X12595000Y-38698212D01*
X12595000Y-38921788D01*
X12638617Y-39141067D01*
X12724176Y-39347624D01*
X12789241Y-39445000D01*
X12724176Y-39542376D01*
X12638617Y-39748933D01*
X12595000Y-39968212D01*
X12595000Y-40191788D01*
X12638617Y-40411067D01*
X12724176Y-40617624D01*
X12789241Y-40715000D01*
X12724176Y-40812376D01*
X12638617Y-41018933D01*
X12595000Y-41238212D01*
X12595000Y-41461788D01*
X12638617Y-41681067D01*
X12724176Y-41887624D01*
X12789241Y-41985000D01*
X12724176Y-42082376D01*
X12638617Y-42288933D01*
X12595000Y-42508212D01*
X12595000Y-42731788D01*
X12638617Y-42951067D01*
X12724176Y-43157624D01*
X12789241Y-43255000D01*
X12724176Y-43352376D01*
X12638617Y-43558933D01*
X12595000Y-43778212D01*
X12595000Y-44001788D01*
X12638617Y-44221067D01*
X12724176Y-44427624D01*
X12789241Y-44525000D01*
X12724176Y-44622376D01*
X12638617Y-44828933D01*
X12595000Y-45048212D01*
X12595000Y-45271788D01*
X12638617Y-45491067D01*
X12724176Y-45697624D01*
X12792353Y-45799658D01*
X12742877Y-45869794D01*
X12652554Y-46073136D01*
X12635881Y-46128126D01*
X12762046Y-46303000D01*
X13603000Y-46303000D01*
X13603000Y-46291974D01*
X13618212Y-46295000D01*
X13841788Y-46295000D01*
X13857000Y-46291974D01*
X13857000Y-46303000D01*
X13868026Y-46303000D01*
X13865000Y-46318212D01*
X13865000Y-46541788D01*
X13868026Y-46557000D01*
X13857000Y-46557000D01*
X13857000Y-47399129D01*
X14031876Y-47524126D01*
X14239529Y-47444210D01*
X14360488Y-47367744D01*
X14462376Y-47435824D01*
X14668933Y-47521383D01*
X14888212Y-47565000D01*
X15111788Y-47565000D01*
X15331067Y-47521383D01*
X15537624Y-47435824D01*
X15723520Y-47311612D01*
X15881612Y-47153520D01*
X16005824Y-46967624D01*
X16091383Y-46761067D01*
X16104868Y-46693270D01*
X16108997Y-46693677D01*
X16146319Y-46690001D01*
X16146330Y-46690001D01*
X16257983Y-46679004D01*
X16401244Y-46635547D01*
X16533273Y-46564975D01*
X16648998Y-46470002D01*
X16672801Y-46440998D01*
X19978386Y-43135413D01*
X25544192Y-43135413D01*
X25639956Y-43399814D01*
X25929571Y-43540704D01*
X26241108Y-43622384D01*
X26562595Y-43641718D01*
X26881675Y-43597961D01*
X27186088Y-43492795D01*
X27360044Y-43399814D01*
X27455808Y-43135413D01*
X32044192Y-43135413D01*
X32139956Y-43399814D01*
X32429571Y-43540704D01*
X32741108Y-43622384D01*
X33062595Y-43641718D01*
X33381675Y-43597961D01*
X33686088Y-43492795D01*
X33860044Y-43399814D01*
X33955808Y-43135413D01*
X33000000Y-42179605D01*
X32044192Y-43135413D01*
X27455808Y-43135413D01*
X26500000Y-42179605D01*
X25544192Y-43135413D01*
X19978386Y-43135413D01*
X21051204Y-42062595D01*
X24858282Y-42062595D01*
X24902039Y-42381675D01*
X25007205Y-42686088D01*
X25100186Y-42860044D01*
X25364587Y-42955808D01*
X26320395Y-42000000D01*
X26679605Y-42000000D01*
X27635413Y-42955808D01*
X27899814Y-42860044D01*
X28040704Y-42570429D01*
X28122384Y-42258892D01*
X28134189Y-42062595D01*
X31358282Y-42062595D01*
X31402039Y-42381675D01*
X31507205Y-42686088D01*
X31600186Y-42860044D01*
X31864587Y-42955808D01*
X32820395Y-42000000D01*
X33179605Y-42000000D01*
X34135413Y-42955808D01*
X34399814Y-42860044D01*
X34540704Y-42570429D01*
X34622384Y-42258892D01*
X34641718Y-41937405D01*
X34597961Y-41618325D01*
X34492795Y-41313912D01*
X34399814Y-41139956D01*
X34135413Y-41044192D01*
X33179605Y-42000000D01*
X32820395Y-42000000D01*
X31864587Y-41044192D01*
X31600186Y-41139956D01*
X31459296Y-41429571D01*
X31377616Y-41741108D01*
X31358282Y-42062595D01*
X28134189Y-42062595D01*
X28141718Y-41937405D01*
X28097961Y-41618325D01*
X27992795Y-41313912D01*
X27899814Y-41139956D01*
X27635413Y-41044192D01*
X26679605Y-42000000D01*
X26320395Y-42000000D01*
X25364587Y-41044192D01*
X25100186Y-41139956D01*
X24959296Y-41429571D01*
X24877616Y-41741108D01*
X24858282Y-42062595D01*
X21051204Y-42062595D01*
X22249212Y-40864587D01*
X25544192Y-40864587D01*
X26500000Y-41820395D01*
X27455808Y-40864587D01*
X32044192Y-40864587D01*
X33000000Y-41820395D01*
X33955808Y-40864587D01*
X33860044Y-40600186D01*
X33570429Y-40459296D01*
X33258892Y-40377616D01*
X32937405Y-40358282D01*
X32618325Y-40402039D01*
X32313912Y-40507205D01*
X32139956Y-40600186D01*
X32044192Y-40864587D01*
X27455808Y-40864587D01*
X27360044Y-40600186D01*
X27070429Y-40459296D01*
X26758892Y-40377616D01*
X26437405Y-40358282D01*
X26118325Y-40402039D01*
X25813912Y-40507205D01*
X25639956Y-40600186D01*
X25544192Y-40864587D01*
X22249212Y-40864587D01*
X24989063Y-38124736D01*
X25051082Y-38274463D01*
X25230013Y-38542252D01*
X25457748Y-38769987D01*
X25725537Y-38948918D01*
X26023088Y-39072168D01*
X26338967Y-39135000D01*
X26661033Y-39135000D01*
X26976912Y-39072168D01*
X27274463Y-38948918D01*
X27542252Y-38769987D01*
X27769987Y-38542252D01*
X27948918Y-38274463D01*
X28072168Y-37976912D01*
X28135000Y-37661033D01*
X28135000Y-37338967D01*
X31365000Y-37338967D01*
X31365000Y-37661033D01*
X31427832Y-37976912D01*
X31551082Y-38274463D01*
X31730013Y-38542252D01*
X31957748Y-38769987D01*
X32225537Y-38948918D01*
X32523088Y-39072168D01*
X32838967Y-39135000D01*
X33161033Y-39135000D01*
X33476912Y-39072168D01*
X33774463Y-38948918D01*
X34042252Y-38769987D01*
X34269987Y-38542252D01*
X34448918Y-38274463D01*
X34572168Y-37976912D01*
X34635000Y-37661033D01*
X34635000Y-37338967D01*
X34572168Y-37023088D01*
X34448918Y-36725537D01*
X34269987Y-36457748D01*
X34042252Y-36230013D01*
X33774463Y-36051082D01*
X33476912Y-35927832D01*
X33161033Y-35865000D01*
X32838967Y-35865000D01*
X32523088Y-35927832D01*
X32225537Y-36051082D01*
X31957748Y-36230013D01*
X31730013Y-36457748D01*
X31551082Y-36725537D01*
X31427832Y-37023088D01*
X31365000Y-37338967D01*
X28135000Y-37338967D01*
X28072168Y-37023088D01*
X28066177Y-37008624D01*
X29151007Y-35923795D01*
X29214243Y-35942977D01*
X29367500Y-35958072D01*
X29662500Y-35958072D01*
X29815757Y-35942977D01*
X29938684Y-35905688D01*
X29945820Y-35909502D01*
X30065518Y-35945812D01*
X30190000Y-35958072D01*
X30199250Y-35955000D01*
X30358000Y-35796250D01*
X30358000Y-35529763D01*
X30388274Y-35473125D01*
X30432977Y-35325757D01*
X30448072Y-35172500D01*
X30448072Y-35127000D01*
X30612000Y-35127000D01*
X30612000Y-35796250D01*
X30770750Y-35955000D01*
X30780000Y-35958072D01*
X30904482Y-35945812D01*
X31024180Y-35909502D01*
X31134494Y-35850537D01*
X31231185Y-35771185D01*
X31310537Y-35674494D01*
X31369502Y-35564180D01*
X31405812Y-35444482D01*
X31418072Y-35320000D01*
X31415000Y-35285750D01*
X31256250Y-35127000D01*
X30612000Y-35127000D01*
X30448072Y-35127000D01*
X30448072Y-34827500D01*
X30432977Y-34674243D01*
X30388274Y-34526875D01*
X30358000Y-34470237D01*
X30358000Y-34203750D01*
X30612000Y-34203750D01*
X30612000Y-34873000D01*
X31256250Y-34873000D01*
X31415000Y-34714250D01*
X31418072Y-34680000D01*
X31405812Y-34555518D01*
X31369502Y-34435820D01*
X31310537Y-34325506D01*
X31231185Y-34228815D01*
X31134494Y-34149463D01*
X31024180Y-34090498D01*
X30904482Y-34054188D01*
X30780000Y-34041928D01*
X30770750Y-34045000D01*
X30612000Y-34203750D01*
X30358000Y-34203750D01*
X30199250Y-34045000D01*
X30190000Y-34041928D01*
X30065518Y-34054188D01*
X29945820Y-34090498D01*
X29938684Y-34094312D01*
X29815757Y-34057023D01*
X29662500Y-34041928D01*
X29367500Y-34041928D01*
X29214243Y-34057023D01*
X29066875Y-34101726D01*
X28949146Y-34164654D01*
X34011003Y-29102797D01*
X34040001Y-29078999D01*
X34134974Y-28963274D01*
X34205546Y-28831245D01*
X34249003Y-28687984D01*
X34260000Y-28576331D01*
X34260000Y-28576322D01*
X34263676Y-28538999D01*
X34260000Y-28501676D01*
X34260000Y-23685000D01*
X34327002Y-23685000D01*
X34327002Y-23530252D01*
X34481750Y-23685000D01*
X34583358Y-23673980D01*
X34702528Y-23635974D01*
X34811994Y-23575449D01*
X34907548Y-23494731D01*
X34985519Y-23396922D01*
X35042911Y-23285781D01*
X35077517Y-23165580D01*
X35088008Y-23040937D01*
X35085000Y-22535750D01*
X34926250Y-22377000D01*
X34388072Y-22377000D01*
X34388072Y-22123000D01*
X34926250Y-22123000D01*
X35085000Y-21964250D01*
X35087240Y-21588072D01*
X35550000Y-21588072D01*
X35607598Y-21582399D01*
X35652337Y-21627139D01*
X35652338Y-21909725D01*
X35648661Y-21947055D01*
X35652338Y-21984386D01*
X35652338Y-21984389D01*
X35663335Y-22096042D01*
X35687236Y-22174833D01*
X35706791Y-22239301D01*
X35777363Y-22371331D01*
X35825304Y-22429747D01*
X35872337Y-22487056D01*
X35901334Y-22510853D01*
X41240000Y-27849520D01*
X41240001Y-41622668D01*
X41236324Y-41660000D01*
X41250998Y-41808985D01*
X41294454Y-41952246D01*
X41365026Y-42084276D01*
X41436201Y-42171002D01*
X41460000Y-42200001D01*
X41488998Y-42223799D01*
X43095000Y-43829802D01*
X43095000Y-44001788D01*
X43138617Y-44221067D01*
X43224176Y-44427624D01*
X43289241Y-44525000D01*
X43224176Y-44622376D01*
X43138617Y-44828933D01*
X43095000Y-45048212D01*
X43095000Y-45271788D01*
X43138617Y-45491067D01*
X43224176Y-45697624D01*
X43289241Y-45795000D01*
X43224176Y-45892376D01*
X43138617Y-46098933D01*
X43095000Y-46318212D01*
X43095000Y-46541788D01*
X43138617Y-46761067D01*
X43224176Y-46967624D01*
X43348388Y-47153520D01*
X43506480Y-47311612D01*
X43692376Y-47435824D01*
X43898933Y-47521383D01*
X44118212Y-47565000D01*
X44341788Y-47565000D01*
X44561067Y-47521383D01*
X44767624Y-47435824D01*
X44865000Y-47370759D01*
X44962376Y-47435824D01*
X45168933Y-47521383D01*
X45388212Y-47565000D01*
X45611788Y-47565000D01*
X45831067Y-47521383D01*
X46037624Y-47435824D01*
X46223520Y-47311612D01*
X46381612Y-47153520D01*
X46505824Y-46967624D01*
X46591383Y-46761067D01*
X46635000Y-46541788D01*
X46635000Y-46318212D01*
X46591383Y-46098933D01*
X46505824Y-45892376D01*
X46440759Y-45795000D01*
X46505824Y-45697624D01*
X46591383Y-45491067D01*
X46635000Y-45271788D01*
X46635000Y-45099801D01*
X47412695Y-44322107D01*
X47441693Y-44298309D01*
X47536666Y-44182584D01*
X47607238Y-44050555D01*
X47650695Y-43907294D01*
X47661692Y-43795641D01*
X47661692Y-43795631D01*
X47665368Y-43758308D01*
X47661692Y-43720985D01*
X47661692Y-31837322D01*
X47665368Y-31799999D01*
X47661692Y-31762676D01*
X47661692Y-31762667D01*
X47650695Y-31651014D01*
X47607238Y-31507753D01*
X47536666Y-31375724D01*
X47441693Y-31259999D01*
X47412696Y-31236202D01*
X47026494Y-30850000D01*
X48311928Y-30850000D01*
X48324188Y-30974482D01*
X48360498Y-31094180D01*
X48419463Y-31204494D01*
X48498815Y-31301185D01*
X48595506Y-31380537D01*
X48705820Y-31439502D01*
X48825518Y-31475812D01*
X48950000Y-31488072D01*
X49514250Y-31485000D01*
X49673000Y-31326250D01*
X49673000Y-30127000D01*
X48473750Y-30127000D01*
X48315000Y-30285750D01*
X48311928Y-30850000D01*
X47026494Y-30850000D01*
X44396494Y-28220000D01*
X48521822Y-28220000D01*
X48646525Y-28406632D01*
X48778380Y-28538487D01*
X48705820Y-28560498D01*
X48595506Y-28619463D01*
X48498815Y-28698815D01*
X48419463Y-28795506D01*
X48360498Y-28905820D01*
X48324188Y-29025518D01*
X48311928Y-29150000D01*
X48315000Y-29714250D01*
X48473750Y-29873000D01*
X49673000Y-29873000D01*
X49673000Y-29853000D01*
X49927000Y-29853000D01*
X49927000Y-29873000D01*
X49947000Y-29873000D01*
X49947000Y-30127000D01*
X49927000Y-30127000D01*
X49927000Y-31326250D01*
X50085750Y-31485000D01*
X50650000Y-31488072D01*
X50774482Y-31475812D01*
X50894180Y-31439502D01*
X51004494Y-31380537D01*
X51040001Y-31351398D01*
X51040001Y-35212668D01*
X51036324Y-35250000D01*
X51040001Y-35287333D01*
X51050998Y-35398986D01*
X51058670Y-35424276D01*
X51094454Y-35542246D01*
X51165026Y-35674276D01*
X51226353Y-35749002D01*
X51260000Y-35790001D01*
X51288998Y-35813799D01*
X54486201Y-39011003D01*
X54509999Y-39040001D01*
X54538997Y-39063799D01*
X54625723Y-39134974D01*
X54705468Y-39177599D01*
X54710498Y-39194180D01*
X54769463Y-39304494D01*
X54848815Y-39401185D01*
X54945506Y-39480537D01*
X55055820Y-39539502D01*
X55175518Y-39575812D01*
X55300000Y-39588072D01*
X56500000Y-39588072D01*
X56624482Y-39575812D01*
X56744180Y-39539502D01*
X56854494Y-39480537D01*
X56951185Y-39401185D01*
X57000000Y-39341704D01*
X57048815Y-39401185D01*
X57145506Y-39480537D01*
X57255820Y-39539502D01*
X57375518Y-39575812D01*
X57500000Y-39588072D01*
X58700000Y-39588072D01*
X58824482Y-39575812D01*
X58944180Y-39539502D01*
X59054494Y-39480537D01*
X59151185Y-39401185D01*
X59230537Y-39304494D01*
X59254320Y-39260000D01*
X59815298Y-39260000D01*
X59886595Y-39393386D01*
X59997038Y-39527962D01*
X60131614Y-39638405D01*
X60285150Y-39720472D01*
X60451746Y-39771008D01*
X60625000Y-39788072D01*
X61249626Y-39788072D01*
X51197699Y-49840000D01*
X43214802Y-49840000D01*
X40760000Y-47385199D01*
X40760000Y-41703711D01*
X40803937Y-41659774D01*
X40917205Y-41490256D01*
X40995226Y-41301898D01*
X41035000Y-41101939D01*
X41035000Y-40898061D01*
X40995226Y-40698102D01*
X40917205Y-40509744D01*
X40803937Y-40340226D01*
X40659774Y-40196063D01*
X40490256Y-40082795D01*
X40301898Y-40004774D01*
X40101939Y-39965000D01*
X39898061Y-39965000D01*
X39698102Y-40004774D01*
X39509744Y-40082795D01*
X39340226Y-40196063D01*
X39196063Y-40340226D01*
X39082795Y-40509744D01*
X39004774Y-40698102D01*
X38965000Y-40898061D01*
X38965000Y-41101939D01*
X39004774Y-41301898D01*
X39082795Y-41490256D01*
X39196063Y-41659774D01*
X39240001Y-41703712D01*
X39240000Y-47662677D01*
X39236324Y-47700000D01*
X39240000Y-47737322D01*
X39240000Y-47737332D01*
X39250997Y-47848985D01*
X39294454Y-47992246D01*
X39365026Y-48124276D01*
X39404871Y-48172826D01*
X39459999Y-48240001D01*
X39489003Y-48263804D01*
X42336201Y-51111003D01*
X42359999Y-51140001D01*
X42475724Y-51234974D01*
X42607753Y-51305546D01*
X42721335Y-51340000D01*
X-4340000Y-51340000D01*
X-4340000Y-48804495D01*
X-3985000Y-48804495D01*
X-3985000Y-49195505D01*
X-3908718Y-49579003D01*
X-3759085Y-49940250D01*
X-3541851Y-50265364D01*
X-3265364Y-50541851D01*
X-2940250Y-50759085D01*
X-2579003Y-50908718D01*
X-2195505Y-50985000D01*
X-1804495Y-50985000D01*
X-1420997Y-50908718D01*
X-1059750Y-50759085D01*
X-734636Y-50541851D01*
X-458149Y-50265364D01*
X-240915Y-49940250D01*
X-91282Y-49579003D01*
X-15000Y-49195505D01*
X-15000Y-48804495D01*
X-91282Y-48420997D01*
X-240915Y-48059750D01*
X-458149Y-47734636D01*
X-734636Y-47458149D01*
X-1059750Y-47240915D01*
X-1420997Y-47091282D01*
X-1804495Y-47015000D01*
X-2195505Y-47015000D01*
X-2579003Y-47091282D01*
X-2940250Y-47240915D01*
X-3265364Y-47458149D01*
X-3541851Y-47734636D01*
X-3759085Y-48059750D01*
X-3908718Y-48420997D01*
X-3985000Y-48804495D01*
X-4340000Y-48804495D01*
X-4340000Y-46731874D01*
X12635881Y-46731874D01*
X12652554Y-46786864D01*
X12742877Y-46990206D01*
X12871135Y-47172020D01*
X13032399Y-47325318D01*
X13220471Y-47444210D01*
X13428124Y-47524126D01*
X13603000Y-47399129D01*
X13603000Y-46557000D01*
X12762046Y-46557000D01*
X12635881Y-46731874D01*
X-4340000Y-46731874D01*
X-4340000Y-35000000D01*
X-2544120Y-35000000D01*
X-2507725Y-35369524D01*
X-2399939Y-35724848D01*
X-2224903Y-36052317D01*
X-1989345Y-36339345D01*
X-1702317Y-36574903D01*
X-1374848Y-36749939D01*
X-1019524Y-36857725D01*
X-742597Y-36885000D01*
X742597Y-36885000D01*
X1019524Y-36857725D01*
X1374848Y-36749939D01*
X1702317Y-36574903D01*
X1989345Y-36339345D01*
X2224903Y-36052317D01*
X2399939Y-35724848D01*
X2402100Y-35717724D01*
X2442247Y-35705546D01*
X2574276Y-35634974D01*
X2690001Y-35540001D01*
X2713804Y-35510997D01*
X4511003Y-33713799D01*
X4540001Y-33690001D01*
X4613863Y-33600000D01*
X4634974Y-33574277D01*
X4705546Y-33442247D01*
X4728970Y-33365026D01*
X4749003Y-33298986D01*
X4760000Y-33187333D01*
X4760000Y-33187324D01*
X4763676Y-33150001D01*
X4760000Y-33112678D01*
X4760000Y-25487087D01*
X4923254Y-25471008D01*
X5089850Y-25420472D01*
X5243386Y-25338405D01*
X5377962Y-25227962D01*
X5488405Y-25093386D01*
X5570472Y-24939850D01*
X5621008Y-24773254D01*
X5638072Y-24600000D01*
X5638072Y-23400000D01*
X5621008Y-23226746D01*
X5570472Y-23060150D01*
X5488405Y-22906614D01*
X5377962Y-22772038D01*
X5243386Y-22661595D01*
X5141407Y-22607086D01*
X5141795Y-22606802D01*
X5338664Y-22392046D01*
X5489854Y-22143009D01*
X5589554Y-21869261D01*
X5591476Y-21856890D01*
X5470155Y-21627000D01*
X4127000Y-21627000D01*
X4127000Y-21647000D01*
X3873000Y-21647000D01*
X3873000Y-21627000D01*
X2529845Y-21627000D01*
X2408524Y-21856890D01*
X2410446Y-21869261D01*
X2510146Y-22143009D01*
X2661336Y-22392046D01*
X2858205Y-22606802D01*
X2858593Y-22607086D01*
X2756614Y-22661595D01*
X2622038Y-22772038D01*
X2511595Y-22906614D01*
X2429528Y-23060150D01*
X2378992Y-23226746D01*
X2361928Y-23400000D01*
X2361928Y-24600000D01*
X2378992Y-24773254D01*
X2429528Y-24939850D01*
X2511595Y-25093386D01*
X2622038Y-25227962D01*
X2756614Y-25338405D01*
X2910150Y-25420472D01*
X3076746Y-25471008D01*
X3240000Y-25487087D01*
X3240001Y-32835197D01*
X2181005Y-33894193D01*
X1989345Y-33660655D01*
X1702317Y-33425097D01*
X1374848Y-33250061D01*
X1019524Y-33142275D01*
X742597Y-33115000D01*
X-742597Y-33115000D01*
X-1019524Y-33142275D01*
X-1374848Y-33250061D01*
X-1702317Y-33425097D01*
X-1989345Y-33660655D01*
X-2224903Y-33947683D01*
X-2399939Y-34275152D01*
X-2507725Y-34630476D01*
X-2544120Y-35000000D01*
X-4340000Y-35000000D01*
X-4340000Y-30300000D01*
X-2544120Y-30300000D01*
X-2507725Y-30669524D01*
X-2399939Y-31024848D01*
X-2224903Y-31352317D01*
X-1989345Y-31639345D01*
X-1702317Y-31874903D01*
X-1374848Y-32049939D01*
X-1019524Y-32157725D01*
X-742597Y-32185000D01*
X742597Y-32185000D01*
X1019524Y-32157725D01*
X1374848Y-32049939D01*
X1702317Y-31874903D01*
X1989345Y-31639345D01*
X2224903Y-31352317D01*
X2399939Y-31024848D01*
X2507725Y-30669524D01*
X2544120Y-30300000D01*
X2507725Y-29930476D01*
X2399939Y-29575152D01*
X2224903Y-29247683D01*
X1989345Y-28960655D01*
X1702317Y-28725097D01*
X1374848Y-28550061D01*
X1019524Y-28442275D01*
X742597Y-28415000D01*
X-742597Y-28415000D01*
X-1019524Y-28442275D01*
X-1374848Y-28550061D01*
X-1702317Y-28725097D01*
X-1989345Y-28960655D01*
X-2224903Y-29247683D01*
X-2399939Y-29575152D01*
X-2507725Y-29930476D01*
X-2544120Y-30300000D01*
X-4340000Y-30300000D01*
X-4340000Y-21143110D01*
X2408524Y-21143110D01*
X2529845Y-21373000D01*
X3873000Y-21373000D01*
X3873000Y-20172768D01*
X4127000Y-20172768D01*
X4127000Y-21373000D01*
X5470155Y-21373000D01*
X5591476Y-21143110D01*
X5589554Y-21130739D01*
X5489854Y-20856991D01*
X5338664Y-20607954D01*
X5141795Y-20393198D01*
X4906812Y-20220975D01*
X4642745Y-20097904D01*
X4359742Y-20028715D01*
X4127000Y-20172768D01*
X3873000Y-20172768D01*
X3640258Y-20028715D01*
X3357255Y-20097904D01*
X3093188Y-20220975D01*
X2858205Y-20393198D01*
X2661336Y-20607954D01*
X2510146Y-20856991D01*
X2410446Y-21130739D01*
X2408524Y-21143110D01*
X-4340000Y-21143110D01*
X-4340000Y-12804495D01*
X-3985000Y-12804495D01*
X-3985000Y-13195505D01*
X-3908718Y-13579003D01*
X-3759085Y-13940250D01*
X-3541851Y-14265364D01*
X-3265364Y-14541851D01*
X-2940250Y-14759085D01*
X-2579003Y-14908718D01*
X-2195505Y-14985000D01*
X-1804495Y-14985000D01*
X-1420997Y-14908718D01*
X-1059750Y-14759085D01*
X-734636Y-14541851D01*
X-458149Y-14265364D01*
X-240915Y-13940250D01*
X-91282Y-13579003D01*
X-15000Y-13195505D01*
X-15000Y-12804495D01*
X-91282Y-12420997D01*
X-240915Y-12059750D01*
X-458149Y-11734636D01*
X-734636Y-11458149D01*
X-1059750Y-11240915D01*
X-1420997Y-11091282D01*
X-1804495Y-11015000D01*
X-2195505Y-11015000D01*
X-2579003Y-11091282D01*
X-2940250Y-11240915D01*
X-3265364Y-11458149D01*
X-3541851Y-11734636D01*
X-3759085Y-12059750D01*
X-3908718Y-12420997D01*
X-3985000Y-12804495D01*
X-4340000Y-12804495D01*
X-4340000Y-10660000D01*
X28873000Y-10660000D01*
X28873000Y-13400000D01*
G37*
X28873000Y-13400000D02*
X28875440Y-13424776D01*
X28882667Y-13448601D01*
X28894403Y-13470557D01*
X28910197Y-13489803D01*
X28929443Y-13505597D01*
X28951399Y-13517333D01*
X28975224Y-13524560D01*
X29000000Y-13527000D01*
X32187580Y-13527000D01*
X32300000Y-13538072D01*
X33311928Y-13538072D01*
X33311928Y-13950000D01*
X33321777Y-14050000D01*
X33311928Y-14150000D01*
X33311928Y-14650000D01*
X33321777Y-14750000D01*
X33311928Y-14850000D01*
X33311928Y-15350000D01*
X33321777Y-15450000D01*
X33311928Y-15550000D01*
X33311928Y-16050000D01*
X33321777Y-16150000D01*
X33311928Y-16250000D01*
X33311928Y-16750000D01*
X33321777Y-16850000D01*
X33311928Y-16950000D01*
X33311928Y-17450000D01*
X33321777Y-17550000D01*
X33311928Y-17650000D01*
X33311928Y-18150000D01*
X33321777Y-18250000D01*
X33311928Y-18350000D01*
X33311928Y-18850000D01*
X33321777Y-18950000D01*
X33311928Y-19050000D01*
X33311928Y-19550000D01*
X33321777Y-19650000D01*
X33311928Y-19750000D01*
X33311928Y-20250000D01*
X33321777Y-20350000D01*
X33311928Y-20450000D01*
X33311928Y-20811928D01*
X33250000Y-20811928D01*
X33150000Y-20821777D01*
X33050000Y-20811928D01*
X32550000Y-20811928D01*
X32450000Y-20821777D01*
X32350000Y-20811928D01*
X31850000Y-20811928D01*
X31750000Y-20821777D01*
X31650000Y-20811928D01*
X31150000Y-20811928D01*
X31050000Y-20821777D01*
X30950000Y-20811928D01*
X30450000Y-20811928D01*
X30350000Y-20821777D01*
X30250000Y-20811928D01*
X29750000Y-20811928D01*
X29650000Y-20821777D01*
X29550000Y-20811928D01*
X29050000Y-20811928D01*
X28950000Y-20821777D01*
X28850000Y-20811928D01*
X28350000Y-20811928D01*
X28250000Y-20821777D01*
X28150000Y-20811928D01*
X27650000Y-20811928D01*
X27550000Y-20821777D01*
X27450000Y-20811928D01*
X26950000Y-20811928D01*
X26850000Y-20821777D01*
X26750000Y-20811928D01*
X26345767Y-20811928D01*
X26404494Y-20780537D01*
X26501185Y-20701185D01*
X26580537Y-20604494D01*
X26639502Y-20494180D01*
X26675812Y-20374482D01*
X26688072Y-20250000D01*
X26688072Y-19750000D01*
X26678223Y-19650000D01*
X26688072Y-19550000D01*
X26688072Y-19050000D01*
X26678223Y-18950000D01*
X26688072Y-18850000D01*
X26688072Y-18350000D01*
X26678223Y-18250000D01*
X26688072Y-18150000D01*
X26688072Y-17650000D01*
X26678223Y-17550000D01*
X26688072Y-17450000D01*
X26688072Y-16950000D01*
X26678223Y-16850000D01*
X26688072Y-16750000D01*
X26688072Y-16250000D01*
X26678223Y-16150000D01*
X26688072Y-16050000D01*
X26688072Y-15550000D01*
X26678223Y-15450000D01*
X26688072Y-15350000D01*
X26688072Y-14850000D01*
X26678223Y-14750000D01*
X26688072Y-14650000D01*
X26688072Y-14150000D01*
X26678223Y-14050000D01*
X26688072Y-13950000D01*
X26688072Y-13450000D01*
X26675812Y-13325518D01*
X26639502Y-13205820D01*
X26580537Y-13095506D01*
X26501185Y-12998815D01*
X26404494Y-12919463D01*
X26294180Y-12860498D01*
X26174482Y-12824188D01*
X26050000Y-12811928D01*
X24450000Y-12811928D01*
X24325518Y-12824188D01*
X24205820Y-12860498D01*
X24095506Y-12919463D01*
X24070482Y-12940000D01*
X11794802Y-12940000D01*
X11441210Y-12586408D01*
X11485000Y-12366260D01*
X11485000Y-12073740D01*
X11427932Y-11786842D01*
X11315990Y-11516589D01*
X11153475Y-11273368D01*
X11030107Y-11150000D01*
X23811928Y-11150000D01*
X23824188Y-11274482D01*
X23860498Y-11394180D01*
X23919463Y-11504494D01*
X23998815Y-11601185D01*
X24095506Y-11680537D01*
X24205820Y-11739502D01*
X24325518Y-11775812D01*
X24450000Y-11788072D01*
X24964250Y-11785000D01*
X25123000Y-11626250D01*
X25123000Y-10827000D01*
X25377000Y-10827000D01*
X25377000Y-11626250D01*
X25535750Y-11785000D01*
X26050000Y-11788072D01*
X26174482Y-11775812D01*
X26294180Y-11739502D01*
X26404494Y-11680537D01*
X26501185Y-11601185D01*
X26580537Y-11504494D01*
X26639502Y-11394180D01*
X26675812Y-11274482D01*
X26688072Y-11150000D01*
X26685000Y-10985750D01*
X26526250Y-10827000D01*
X25377000Y-10827000D01*
X25123000Y-10827000D01*
X23973750Y-10827000D01*
X23815000Y-10985750D01*
X23811928Y-11150000D01*
X11030107Y-11150000D01*
X10946632Y-11066525D01*
X10703411Y-10904010D01*
X10433158Y-10792068D01*
X10146260Y-10735000D01*
X9853740Y-10735000D01*
X9566842Y-10792068D01*
X9296589Y-10904010D01*
X9053368Y-11066525D01*
X8846525Y-11273368D01*
X8684010Y-11516589D01*
X8572068Y-11786842D01*
X8515000Y-12073740D01*
X8515000Y-12366260D01*
X8572068Y-12653158D01*
X8684010Y-12923411D01*
X8846525Y-13166632D01*
X9053368Y-13373475D01*
X9227760Y-13490000D01*
X9053368Y-13606525D01*
X8846525Y-13813368D01*
X8684010Y-14056589D01*
X8572068Y-14326842D01*
X8515000Y-14613740D01*
X8515000Y-14906260D01*
X8572068Y-15193158D01*
X8684010Y-15463411D01*
X8846525Y-15706632D01*
X9053368Y-15913475D01*
X9227760Y-16030000D01*
X9053368Y-16146525D01*
X8846525Y-16353368D01*
X8684010Y-16596589D01*
X8572068Y-16866842D01*
X8515000Y-17153740D01*
X8515000Y-17446260D01*
X8572068Y-17733158D01*
X8684010Y-18003411D01*
X8846525Y-18246632D01*
X9053368Y-18453475D01*
X9227760Y-18570000D01*
X9053368Y-18686525D01*
X8846525Y-18893368D01*
X8684010Y-19136589D01*
X8572068Y-19406842D01*
X8515000Y-19693740D01*
X8515000Y-19986260D01*
X8572068Y-20273158D01*
X8684010Y-20543411D01*
X8846525Y-20786632D01*
X9053368Y-20993475D01*
X9227760Y-21110000D01*
X9053368Y-21226525D01*
X8846525Y-21433368D01*
X8684010Y-21676589D01*
X8572068Y-21946842D01*
X8515000Y-22233740D01*
X8515000Y-22526260D01*
X8572068Y-22813158D01*
X8684010Y-23083411D01*
X8846525Y-23326632D01*
X9053368Y-23533475D01*
X9227760Y-23650000D01*
X9053368Y-23766525D01*
X8846525Y-23973368D01*
X8684010Y-24216589D01*
X8572068Y-24486842D01*
X8515000Y-24773740D01*
X8515000Y-25066260D01*
X8572068Y-25353158D01*
X8684010Y-25623411D01*
X8846525Y-25866632D01*
X9053368Y-26073475D01*
X9227760Y-26190000D01*
X9053368Y-26306525D01*
X8846525Y-26513368D01*
X8684010Y-26756589D01*
X8572068Y-27026842D01*
X8515000Y-27313740D01*
X8515000Y-27606260D01*
X8572068Y-27893158D01*
X8684010Y-28163411D01*
X8846525Y-28406632D01*
X8978380Y-28538487D01*
X8905820Y-28560498D01*
X8795506Y-28619463D01*
X8698815Y-28698815D01*
X8619463Y-28795506D01*
X8560498Y-28905820D01*
X8524188Y-29025518D01*
X8511928Y-29150000D01*
X8511928Y-30850000D01*
X8524188Y-30974482D01*
X8560498Y-31094180D01*
X8619463Y-31204494D01*
X8698815Y-31301185D01*
X8795506Y-31380537D01*
X8905820Y-31439502D01*
X9025518Y-31475812D01*
X9150000Y-31488072D01*
X10850000Y-31488072D01*
X10974482Y-31475812D01*
X11094180Y-31439502D01*
X11204494Y-31380537D01*
X11301185Y-31301185D01*
X11380537Y-31204494D01*
X11439502Y-31094180D01*
X11475812Y-30974482D01*
X11488072Y-30850000D01*
X11488072Y-30772653D01*
X16415315Y-30772653D01*
X16404774Y-30798102D01*
X16365000Y-30998061D01*
X16365000Y-31060198D01*
X15685199Y-31740000D01*
X7537322Y-31740000D01*
X7499999Y-31736324D01*
X7462676Y-31740000D01*
X7462667Y-31740000D01*
X7351014Y-31750997D01*
X7207753Y-31794454D01*
X7075724Y-31865026D01*
X6959999Y-31959999D01*
X6936201Y-31988997D01*
X5788998Y-33136201D01*
X5760000Y-33159999D01*
X5736202Y-33188997D01*
X5736201Y-33188998D01*
X5665026Y-33275724D01*
X5594454Y-33407754D01*
X5550998Y-33551015D01*
X5536324Y-33700000D01*
X5540001Y-33737332D01*
X5540000Y-35178661D01*
X5431614Y-35236595D01*
X5297038Y-35347038D01*
X5186595Y-35481614D01*
X5104528Y-35635150D01*
X5053992Y-35801746D01*
X5036928Y-35975000D01*
X5036928Y-37225000D01*
X5053992Y-37398254D01*
X5104528Y-37564850D01*
X5186595Y-37718386D01*
X5297038Y-37852962D01*
X5431614Y-37963405D01*
X5585150Y-38045472D01*
X5718246Y-38085846D01*
X5711928Y-38150000D01*
X5711928Y-39050000D01*
X5724188Y-39174482D01*
X5760498Y-39294180D01*
X5819463Y-39404494D01*
X5898815Y-39501185D01*
X5995506Y-39580537D01*
X6105820Y-39639502D01*
X6225518Y-39675812D01*
X6350000Y-39688072D01*
X6861905Y-39688072D01*
X6848815Y-39698815D01*
X6769463Y-39795506D01*
X6745680Y-39840000D01*
X2530331Y-39840000D01*
X2544120Y-39700000D01*
X2507725Y-39330476D01*
X2399939Y-38975152D01*
X2224903Y-38647683D01*
X1989345Y-38360655D01*
X1702317Y-38125097D01*
X1374848Y-37950061D01*
X1019524Y-37842275D01*
X742597Y-37815000D01*
X-742597Y-37815000D01*
X-1019524Y-37842275D01*
X-1374848Y-37950061D01*
X-1702317Y-38125097D01*
X-1989345Y-38360655D01*
X-2224903Y-38647683D01*
X-2399939Y-38975152D01*
X-2507725Y-39330476D01*
X-2544120Y-39700000D01*
X-2507725Y-40069524D01*
X-2399939Y-40424848D01*
X-2224903Y-40752317D01*
X-1989345Y-41039345D01*
X-1702317Y-41274903D01*
X-1374848Y-41449939D01*
X-1019524Y-41557725D01*
X-742597Y-41585000D01*
X742597Y-41585000D01*
X1019524Y-41557725D01*
X1374848Y-41449939D01*
X1543112Y-41360000D01*
X6745680Y-41360000D01*
X6769463Y-41404494D01*
X6848815Y-41501185D01*
X6945506Y-41580537D01*
X7055820Y-41639502D01*
X7175518Y-41675812D01*
X7300000Y-41688072D01*
X8100000Y-41688072D01*
X8224482Y-41675812D01*
X8344180Y-41639502D01*
X8454494Y-41580537D01*
X8551185Y-41501185D01*
X8630537Y-41404494D01*
X8689502Y-41294180D01*
X8725812Y-41174482D01*
X8738072Y-41050000D01*
X8738072Y-40150000D01*
X8725812Y-40025518D01*
X8689502Y-39905820D01*
X8630537Y-39795506D01*
X8551185Y-39698815D01*
X8454494Y-39619463D01*
X8438393Y-39610857D01*
X8523000Y-39526250D01*
X8523000Y-38727000D01*
X8777000Y-38727000D01*
X8777000Y-39526250D01*
X8935750Y-39685000D01*
X9050000Y-39688072D01*
X9174482Y-39675812D01*
X9294180Y-39639502D01*
X9404494Y-39580537D01*
X9501185Y-39501185D01*
X9580537Y-39404494D01*
X9639502Y-39294180D01*
X9675812Y-39174482D01*
X9688072Y-39050000D01*
X9685000Y-38885750D01*
X9526250Y-38727000D01*
X8777000Y-38727000D01*
X8523000Y-38727000D01*
X8503000Y-38727000D01*
X8503000Y-38473000D01*
X8523000Y-38473000D01*
X8523000Y-38453000D01*
X8777000Y-38453000D01*
X8777000Y-38473000D01*
X9526250Y-38473000D01*
X9685000Y-38314250D01*
X9688072Y-38150000D01*
X9684399Y-38112704D01*
X9725000Y-38113072D01*
X9849482Y-38100812D01*
X9969180Y-38064502D01*
X10079494Y-38005537D01*
X10176185Y-37926185D01*
X10255537Y-37829494D01*
X10314502Y-37719180D01*
X10350812Y-37599482D01*
X10363072Y-37475000D01*
X10360000Y-36885750D01*
X10201250Y-36727000D01*
X9227000Y-36727000D01*
X9227000Y-36747000D01*
X8973000Y-36747000D01*
X8973000Y-36727000D01*
X7998750Y-36727000D01*
X7840000Y-36885750D01*
X7836928Y-37475000D01*
X7849188Y-37599482D01*
X7863273Y-37645915D01*
X7798815Y-37698815D01*
X7719463Y-37795506D01*
X7700000Y-37831918D01*
X7680537Y-37795506D01*
X7601185Y-37698815D01*
X7510000Y-37623982D01*
X7510000Y-37516957D01*
X7546008Y-37398254D01*
X7563072Y-37225000D01*
X7563072Y-35975000D01*
X7546008Y-35801746D01*
X7522728Y-35725000D01*
X7836928Y-35725000D01*
X7840000Y-36314250D01*
X7998750Y-36473000D01*
X8973000Y-36473000D01*
X8973000Y-35248750D01*
X9227000Y-35248750D01*
X9227000Y-36473000D01*
X10201250Y-36473000D01*
X10360000Y-36314250D01*
X10363072Y-35725000D01*
X10350812Y-35600518D01*
X10314502Y-35480820D01*
X10255537Y-35370506D01*
X10176185Y-35273815D01*
X10079494Y-35194463D01*
X9969180Y-35135498D01*
X9849482Y-35099188D01*
X9725000Y-35086928D01*
X9385750Y-35090000D01*
X9227000Y-35248750D01*
X8973000Y-35248750D01*
X8814250Y-35090000D01*
X8475000Y-35086928D01*
X8350518Y-35099188D01*
X8230820Y-35135498D01*
X8120506Y-35194463D01*
X8023815Y-35273815D01*
X7944463Y-35370506D01*
X7885498Y-35480820D01*
X7849188Y-35600518D01*
X7836928Y-35725000D01*
X7522728Y-35725000D01*
X7495472Y-35635150D01*
X7413405Y-35481614D01*
X7302962Y-35347038D01*
X7168386Y-35236595D01*
X7060000Y-35178661D01*
X7060000Y-34698126D01*
X12635881Y-34698126D01*
X12762046Y-34873000D01*
X13603000Y-34873000D01*
X13603000Y-34030871D01*
X13428124Y-33905874D01*
X13220471Y-33985790D01*
X13032399Y-34104682D01*
X12871135Y-34257980D01*
X12742877Y-34439794D01*
X12652554Y-34643136D01*
X12635881Y-34698126D01*
X7060000Y-34698126D01*
X7060000Y-34014801D01*
X7814802Y-33260000D01*
X15962678Y-33260000D01*
X16000000Y-33263676D01*
X16037322Y-33260000D01*
X16037333Y-33260000D01*
X16148986Y-33249003D01*
X16292247Y-33205546D01*
X16424276Y-33134974D01*
X16540001Y-33040001D01*
X16563804Y-33010997D01*
X17439802Y-32135000D01*
X17501939Y-32135000D01*
X17701898Y-32095226D01*
X17890256Y-32017205D01*
X18059774Y-31903937D01*
X18203937Y-31759774D01*
X18317205Y-31590256D01*
X18395226Y-31401898D01*
X18435000Y-31201939D01*
X18435000Y-31139801D01*
X19994801Y-29580000D01*
X22741928Y-29580000D01*
X22754188Y-29704482D01*
X22790498Y-29824180D01*
X22849463Y-29934494D01*
X22928815Y-30031185D01*
X23025506Y-30110537D01*
X23135820Y-30169502D01*
X23255518Y-30205812D01*
X23380000Y-30218072D01*
X23414250Y-30215000D01*
X23573000Y-30056250D01*
X23573000Y-29412000D01*
X23827000Y-29412000D01*
X23827000Y-30056250D01*
X23985750Y-30215000D01*
X24020000Y-30218072D01*
X24144482Y-30205812D01*
X24264180Y-30169502D01*
X24374494Y-30110537D01*
X24471185Y-30031185D01*
X24550537Y-29934494D01*
X24609502Y-29824180D01*
X24645812Y-29704482D01*
X24658072Y-29580000D01*
X24655000Y-29570750D01*
X24496250Y-29412000D01*
X23827000Y-29412000D01*
X23573000Y-29412000D01*
X22903750Y-29412000D01*
X22745000Y-29570750D01*
X22741928Y-29580000D01*
X19994801Y-29580000D01*
X21996009Y-27578794D01*
X22025001Y-27555001D01*
X22048795Y-27526008D01*
X22048799Y-27526004D01*
X22119973Y-27439277D01*
X22119974Y-27439276D01*
X22190546Y-27307247D01*
X22234003Y-27163986D01*
X22245000Y-27052333D01*
X22245000Y-27052324D01*
X22248676Y-27015001D01*
X22245000Y-26977678D01*
X22245000Y-26458508D01*
X22285679Y-26408940D01*
X22358274Y-26273125D01*
X22402977Y-26125757D01*
X22418072Y-25972500D01*
X22418072Y-25927140D01*
X22422474Y-25921776D01*
X22493046Y-25789747D01*
X22536503Y-25646486D01*
X22547500Y-25534833D01*
X22551177Y-25497500D01*
X22547500Y-25460167D01*
X22547500Y-25215143D01*
X22612115Y-25162115D01*
X22718671Y-25032275D01*
X22797850Y-24884142D01*
X22846608Y-24723408D01*
X22863072Y-24556250D01*
X22863072Y-24299229D01*
X24815000Y-22347303D01*
X24815000Y-22377002D01*
X24973748Y-22377002D01*
X24815000Y-22535750D01*
X24811992Y-23040937D01*
X24822483Y-23165580D01*
X24857089Y-23285781D01*
X24914481Y-23396922D01*
X24992452Y-23494731D01*
X25088006Y-23575449D01*
X25197472Y-23635974D01*
X25316642Y-23673980D01*
X25418250Y-23685000D01*
X25572998Y-23530252D01*
X25572998Y-23602200D01*
X24213271Y-24961928D01*
X23250000Y-24961928D01*
X23125518Y-24974188D01*
X23005820Y-25010498D01*
X22895506Y-25069463D01*
X22798815Y-25148815D01*
X22719463Y-25245506D01*
X22660498Y-25355820D01*
X22624188Y-25475518D01*
X22611928Y-25600000D01*
X22611928Y-27400000D01*
X22624188Y-27524482D01*
X22660498Y-27644180D01*
X22719463Y-27754494D01*
X22798815Y-27851185D01*
X22806668Y-27857630D01*
X22801726Y-27866875D01*
X22757023Y-28014243D01*
X22741928Y-28167500D01*
X22741928Y-28462500D01*
X22757023Y-28615757D01*
X22794312Y-28738684D01*
X22790498Y-28745820D01*
X22754188Y-28865518D01*
X22741928Y-28990000D01*
X22745000Y-28999250D01*
X22903750Y-29158000D01*
X23170237Y-29158000D01*
X23226875Y-29188274D01*
X23374243Y-29232977D01*
X23527500Y-29248072D01*
X23872500Y-29248072D01*
X24025757Y-29232977D01*
X24173125Y-29188274D01*
X24229763Y-29158000D01*
X24496250Y-29158000D01*
X24655000Y-28999250D01*
X24658072Y-28990000D01*
X24645812Y-28865518D01*
X24609502Y-28745820D01*
X24605688Y-28738684D01*
X24642977Y-28615757D01*
X24658072Y-28462500D01*
X24658072Y-28167500D01*
X24642977Y-28014243D01*
X24614976Y-27921935D01*
X24701185Y-27851185D01*
X24780537Y-27754494D01*
X24839502Y-27644180D01*
X24875812Y-27524482D01*
X24888072Y-27400000D01*
X24888072Y-26436729D01*
X25111928Y-26212873D01*
X25111928Y-27400000D01*
X25124188Y-27524482D01*
X25160498Y-27644180D01*
X25219463Y-27754494D01*
X25298815Y-27851185D01*
X25385024Y-27921935D01*
X25357023Y-28014243D01*
X25341928Y-28167500D01*
X25341928Y-28462500D01*
X25357023Y-28615757D01*
X25394312Y-28738684D01*
X25390498Y-28745820D01*
X25354188Y-28865518D01*
X25341928Y-28990000D01*
X25345000Y-28999250D01*
X25503750Y-29158000D01*
X25770237Y-29158000D01*
X25826875Y-29188274D01*
X25974243Y-29232977D01*
X26127500Y-29248072D01*
X26447000Y-29248072D01*
X26447000Y-29412000D01*
X26427000Y-29412000D01*
X26427000Y-29432000D01*
X26173000Y-29432000D01*
X26173000Y-29412000D01*
X25503750Y-29412000D01*
X25345000Y-29570750D01*
X25341928Y-29580000D01*
X25354188Y-29704482D01*
X25390498Y-29824180D01*
X25449463Y-29934494D01*
X25528815Y-30031185D01*
X25625506Y-30110537D01*
X25735820Y-30169502D01*
X25855518Y-30205812D01*
X25980000Y-30218072D01*
X26014250Y-30215000D01*
X26172998Y-30056252D01*
X26172998Y-30215000D01*
X26210198Y-30215000D01*
X17105199Y-39320000D01*
X16017266Y-39320000D01*
X16091383Y-39141067D01*
X16135000Y-38921788D01*
X16135000Y-38698212D01*
X16091383Y-38478933D01*
X16005824Y-38272376D01*
X15940759Y-38175000D01*
X16005824Y-38077624D01*
X16091383Y-37871067D01*
X16135000Y-37651788D01*
X16135000Y-37428212D01*
X16091383Y-37208933D01*
X16005824Y-37002376D01*
X15940759Y-36905000D01*
X16005824Y-36807624D01*
X16091383Y-36601067D01*
X16135000Y-36381788D01*
X16135000Y-36158212D01*
X16091383Y-35938933D01*
X16045112Y-35827226D01*
X16089502Y-35744180D01*
X16125812Y-35624482D01*
X16138072Y-35500000D01*
X16138072Y-34500000D01*
X16125812Y-34375518D01*
X16089502Y-34255820D01*
X16030537Y-34145506D01*
X15951185Y-34048815D01*
X15854494Y-33969463D01*
X15744180Y-33910498D01*
X15624482Y-33874188D01*
X15500000Y-33861928D01*
X14500000Y-33861928D01*
X14375518Y-33874188D01*
X14255820Y-33910498D01*
X14167106Y-33957918D01*
X14031876Y-33905874D01*
X13857000Y-34030871D01*
X13857000Y-34873000D01*
X13861928Y-34873000D01*
X13861928Y-35127000D01*
X13857000Y-35127000D01*
X13857000Y-35138026D01*
X13841788Y-35135000D01*
X13618212Y-35135000D01*
X13603000Y-35138026D01*
X13603000Y-35127000D01*
X12762046Y-35127000D01*
X12635881Y-35301874D01*
X12652554Y-35356864D01*
X12742877Y-35560206D01*
X12792353Y-35630342D01*
X12724176Y-35732376D01*
X12638617Y-35938933D01*
X12595000Y-36158212D01*
X12595000Y-36381788D01*
X12638617Y-36601067D01*
X12724176Y-36807624D01*
X12789241Y-36905000D01*
X12724176Y-37002376D01*
X12638617Y-37208933D01*
X12595000Y-37428212D01*
X12595000Y-37651788D01*
X12638617Y-37871067D01*
X12724176Y-38077624D01*
X12789241Y-38175000D01*
X12724176Y-38272376D01*
X12638617Y-38478933D01*
X12595000Y-38698212D01*
X12595000Y-38921788D01*
X12638617Y-39141067D01*
X12724176Y-39347624D01*
X12789241Y-39445000D01*
X12724176Y-39542376D01*
X12638617Y-39748933D01*
X12595000Y-39968212D01*
X12595000Y-40191788D01*
X12638617Y-40411067D01*
X12724176Y-40617624D01*
X12789241Y-40715000D01*
X12724176Y-40812376D01*
X12638617Y-41018933D01*
X12595000Y-41238212D01*
X12595000Y-41461788D01*
X12638617Y-41681067D01*
X12724176Y-41887624D01*
X12789241Y-41985000D01*
X12724176Y-42082376D01*
X12638617Y-42288933D01*
X12595000Y-42508212D01*
X12595000Y-42731788D01*
X12638617Y-42951067D01*
X12724176Y-43157624D01*
X12789241Y-43255000D01*
X12724176Y-43352376D01*
X12638617Y-43558933D01*
X12595000Y-43778212D01*
X12595000Y-44001788D01*
X12638617Y-44221067D01*
X12724176Y-44427624D01*
X12789241Y-44525000D01*
X12724176Y-44622376D01*
X12638617Y-44828933D01*
X12595000Y-45048212D01*
X12595000Y-45271788D01*
X12638617Y-45491067D01*
X12724176Y-45697624D01*
X12792353Y-45799658D01*
X12742877Y-45869794D01*
X12652554Y-46073136D01*
X12635881Y-46128126D01*
X12762046Y-46303000D01*
X13603000Y-46303000D01*
X13603000Y-46291974D01*
X13618212Y-46295000D01*
X13841788Y-46295000D01*
X13857000Y-46291974D01*
X13857000Y-46303000D01*
X13868026Y-46303000D01*
X13865000Y-46318212D01*
X13865000Y-46541788D01*
X13868026Y-46557000D01*
X13857000Y-46557000D01*
X13857000Y-47399129D01*
X14031876Y-47524126D01*
X14239529Y-47444210D01*
X14360488Y-47367744D01*
X14462376Y-47435824D01*
X14668933Y-47521383D01*
X14888212Y-47565000D01*
X15111788Y-47565000D01*
X15331067Y-47521383D01*
X15537624Y-47435824D01*
X15723520Y-47311612D01*
X15881612Y-47153520D01*
X16005824Y-46967624D01*
X16091383Y-46761067D01*
X16104868Y-46693270D01*
X16108997Y-46693677D01*
X16146319Y-46690001D01*
X16146330Y-46690001D01*
X16257983Y-46679004D01*
X16401244Y-46635547D01*
X16533273Y-46564975D01*
X16648998Y-46470002D01*
X16672801Y-46440998D01*
X19978386Y-43135413D01*
X25544192Y-43135413D01*
X25639956Y-43399814D01*
X25929571Y-43540704D01*
X26241108Y-43622384D01*
X26562595Y-43641718D01*
X26881675Y-43597961D01*
X27186088Y-43492795D01*
X27360044Y-43399814D01*
X27455808Y-43135413D01*
X32044192Y-43135413D01*
X32139956Y-43399814D01*
X32429571Y-43540704D01*
X32741108Y-43622384D01*
X33062595Y-43641718D01*
X33381675Y-43597961D01*
X33686088Y-43492795D01*
X33860044Y-43399814D01*
X33955808Y-43135413D01*
X33000000Y-42179605D01*
X32044192Y-43135413D01*
X27455808Y-43135413D01*
X26500000Y-42179605D01*
X25544192Y-43135413D01*
X19978386Y-43135413D01*
X21051204Y-42062595D01*
X24858282Y-42062595D01*
X24902039Y-42381675D01*
X25007205Y-42686088D01*
X25100186Y-42860044D01*
X25364587Y-42955808D01*
X26320395Y-42000000D01*
X26679605Y-42000000D01*
X27635413Y-42955808D01*
X27899814Y-42860044D01*
X28040704Y-42570429D01*
X28122384Y-42258892D01*
X28134189Y-42062595D01*
X31358282Y-42062595D01*
X31402039Y-42381675D01*
X31507205Y-42686088D01*
X31600186Y-42860044D01*
X31864587Y-42955808D01*
X32820395Y-42000000D01*
X33179605Y-42000000D01*
X34135413Y-42955808D01*
X34399814Y-42860044D01*
X34540704Y-42570429D01*
X34622384Y-42258892D01*
X34641718Y-41937405D01*
X34597961Y-41618325D01*
X34492795Y-41313912D01*
X34399814Y-41139956D01*
X34135413Y-41044192D01*
X33179605Y-42000000D01*
X32820395Y-42000000D01*
X31864587Y-41044192D01*
X31600186Y-41139956D01*
X31459296Y-41429571D01*
X31377616Y-41741108D01*
X31358282Y-42062595D01*
X28134189Y-42062595D01*
X28141718Y-41937405D01*
X28097961Y-41618325D01*
X27992795Y-41313912D01*
X27899814Y-41139956D01*
X27635413Y-41044192D01*
X26679605Y-42000000D01*
X26320395Y-42000000D01*
X25364587Y-41044192D01*
X25100186Y-41139956D01*
X24959296Y-41429571D01*
X24877616Y-41741108D01*
X24858282Y-42062595D01*
X21051204Y-42062595D01*
X22249212Y-40864587D01*
X25544192Y-40864587D01*
X26500000Y-41820395D01*
X27455808Y-40864587D01*
X32044192Y-40864587D01*
X33000000Y-41820395D01*
X33955808Y-40864587D01*
X33860044Y-40600186D01*
X33570429Y-40459296D01*
X33258892Y-40377616D01*
X32937405Y-40358282D01*
X32618325Y-40402039D01*
X32313912Y-40507205D01*
X32139956Y-40600186D01*
X32044192Y-40864587D01*
X27455808Y-40864587D01*
X27360044Y-40600186D01*
X27070429Y-40459296D01*
X26758892Y-40377616D01*
X26437405Y-40358282D01*
X26118325Y-40402039D01*
X25813912Y-40507205D01*
X25639956Y-40600186D01*
X25544192Y-40864587D01*
X22249212Y-40864587D01*
X24989063Y-38124736D01*
X25051082Y-38274463D01*
X25230013Y-38542252D01*
X25457748Y-38769987D01*
X25725537Y-38948918D01*
X26023088Y-39072168D01*
X26338967Y-39135000D01*
X26661033Y-39135000D01*
X26976912Y-39072168D01*
X27274463Y-38948918D01*
X27542252Y-38769987D01*
X27769987Y-38542252D01*
X27948918Y-38274463D01*
X28072168Y-37976912D01*
X28135000Y-37661033D01*
X28135000Y-37338967D01*
X31365000Y-37338967D01*
X31365000Y-37661033D01*
X31427832Y-37976912D01*
X31551082Y-38274463D01*
X31730013Y-38542252D01*
X31957748Y-38769987D01*
X32225537Y-38948918D01*
X32523088Y-39072168D01*
X32838967Y-39135000D01*
X33161033Y-39135000D01*
X33476912Y-39072168D01*
X33774463Y-38948918D01*
X34042252Y-38769987D01*
X34269987Y-38542252D01*
X34448918Y-38274463D01*
X34572168Y-37976912D01*
X34635000Y-37661033D01*
X34635000Y-37338967D01*
X34572168Y-37023088D01*
X34448918Y-36725537D01*
X34269987Y-36457748D01*
X34042252Y-36230013D01*
X33774463Y-36051082D01*
X33476912Y-35927832D01*
X33161033Y-35865000D01*
X32838967Y-35865000D01*
X32523088Y-35927832D01*
X32225537Y-36051082D01*
X31957748Y-36230013D01*
X31730013Y-36457748D01*
X31551082Y-36725537D01*
X31427832Y-37023088D01*
X31365000Y-37338967D01*
X28135000Y-37338967D01*
X28072168Y-37023088D01*
X28066177Y-37008624D01*
X29151007Y-35923795D01*
X29214243Y-35942977D01*
X29367500Y-35958072D01*
X29662500Y-35958072D01*
X29815757Y-35942977D01*
X29938684Y-35905688D01*
X29945820Y-35909502D01*
X30065518Y-35945812D01*
X30190000Y-35958072D01*
X30199250Y-35955000D01*
X30358000Y-35796250D01*
X30358000Y-35529763D01*
X30388274Y-35473125D01*
X30432977Y-35325757D01*
X30448072Y-35172500D01*
X30448072Y-35127000D01*
X30612000Y-35127000D01*
X30612000Y-35796250D01*
X30770750Y-35955000D01*
X30780000Y-35958072D01*
X30904482Y-35945812D01*
X31024180Y-35909502D01*
X31134494Y-35850537D01*
X31231185Y-35771185D01*
X31310537Y-35674494D01*
X31369502Y-35564180D01*
X31405812Y-35444482D01*
X31418072Y-35320000D01*
X31415000Y-35285750D01*
X31256250Y-35127000D01*
X30612000Y-35127000D01*
X30448072Y-35127000D01*
X30448072Y-34827500D01*
X30432977Y-34674243D01*
X30388274Y-34526875D01*
X30358000Y-34470237D01*
X30358000Y-34203750D01*
X30612000Y-34203750D01*
X30612000Y-34873000D01*
X31256250Y-34873000D01*
X31415000Y-34714250D01*
X31418072Y-34680000D01*
X31405812Y-34555518D01*
X31369502Y-34435820D01*
X31310537Y-34325506D01*
X31231185Y-34228815D01*
X31134494Y-34149463D01*
X31024180Y-34090498D01*
X30904482Y-34054188D01*
X30780000Y-34041928D01*
X30770750Y-34045000D01*
X30612000Y-34203750D01*
X30358000Y-34203750D01*
X30199250Y-34045000D01*
X30190000Y-34041928D01*
X30065518Y-34054188D01*
X29945820Y-34090498D01*
X29938684Y-34094312D01*
X29815757Y-34057023D01*
X29662500Y-34041928D01*
X29367500Y-34041928D01*
X29214243Y-34057023D01*
X29066875Y-34101726D01*
X28949146Y-34164654D01*
X34011003Y-29102797D01*
X34040001Y-29078999D01*
X34134974Y-28963274D01*
X34205546Y-28831245D01*
X34249003Y-28687984D01*
X34260000Y-28576331D01*
X34260000Y-28576322D01*
X34263676Y-28538999D01*
X34260000Y-28501676D01*
X34260000Y-23685000D01*
X34327002Y-23685000D01*
X34327002Y-23530252D01*
X34481750Y-23685000D01*
X34583358Y-23673980D01*
X34702528Y-23635974D01*
X34811994Y-23575449D01*
X34907548Y-23494731D01*
X34985519Y-23396922D01*
X35042911Y-23285781D01*
X35077517Y-23165580D01*
X35088008Y-23040937D01*
X35085000Y-22535750D01*
X34926250Y-22377000D01*
X34388072Y-22377000D01*
X34388072Y-22123000D01*
X34926250Y-22123000D01*
X35085000Y-21964250D01*
X35087240Y-21588072D01*
X35550000Y-21588072D01*
X35607598Y-21582399D01*
X35652337Y-21627139D01*
X35652338Y-21909725D01*
X35648661Y-21947055D01*
X35652338Y-21984386D01*
X35652338Y-21984389D01*
X35663335Y-22096042D01*
X35687236Y-22174833D01*
X35706791Y-22239301D01*
X35777363Y-22371331D01*
X35825304Y-22429747D01*
X35872337Y-22487056D01*
X35901334Y-22510853D01*
X41240000Y-27849520D01*
X41240001Y-41622668D01*
X41236324Y-41660000D01*
X41250998Y-41808985D01*
X41294454Y-41952246D01*
X41365026Y-42084276D01*
X41436201Y-42171002D01*
X41460000Y-42200001D01*
X41488998Y-42223799D01*
X43095000Y-43829802D01*
X43095000Y-44001788D01*
X43138617Y-44221067D01*
X43224176Y-44427624D01*
X43289241Y-44525000D01*
X43224176Y-44622376D01*
X43138617Y-44828933D01*
X43095000Y-45048212D01*
X43095000Y-45271788D01*
X43138617Y-45491067D01*
X43224176Y-45697624D01*
X43289241Y-45795000D01*
X43224176Y-45892376D01*
X43138617Y-46098933D01*
X43095000Y-46318212D01*
X43095000Y-46541788D01*
X43138617Y-46761067D01*
X43224176Y-46967624D01*
X43348388Y-47153520D01*
X43506480Y-47311612D01*
X43692376Y-47435824D01*
X43898933Y-47521383D01*
X44118212Y-47565000D01*
X44341788Y-47565000D01*
X44561067Y-47521383D01*
X44767624Y-47435824D01*
X44865000Y-47370759D01*
X44962376Y-47435824D01*
X45168933Y-47521383D01*
X45388212Y-47565000D01*
X45611788Y-47565000D01*
X45831067Y-47521383D01*
X46037624Y-47435824D01*
X46223520Y-47311612D01*
X46381612Y-47153520D01*
X46505824Y-46967624D01*
X46591383Y-46761067D01*
X46635000Y-46541788D01*
X46635000Y-46318212D01*
X46591383Y-46098933D01*
X46505824Y-45892376D01*
X46440759Y-45795000D01*
X46505824Y-45697624D01*
X46591383Y-45491067D01*
X46635000Y-45271788D01*
X46635000Y-45099801D01*
X47412695Y-44322107D01*
X47441693Y-44298309D01*
X47536666Y-44182584D01*
X47607238Y-44050555D01*
X47650695Y-43907294D01*
X47661692Y-43795641D01*
X47661692Y-43795631D01*
X47665368Y-43758308D01*
X47661692Y-43720985D01*
X47661692Y-31837322D01*
X47665368Y-31799999D01*
X47661692Y-31762676D01*
X47661692Y-31762667D01*
X47650695Y-31651014D01*
X47607238Y-31507753D01*
X47536666Y-31375724D01*
X47441693Y-31259999D01*
X47412696Y-31236202D01*
X47026494Y-30850000D01*
X48311928Y-30850000D01*
X48324188Y-30974482D01*
X48360498Y-31094180D01*
X48419463Y-31204494D01*
X48498815Y-31301185D01*
X48595506Y-31380537D01*
X48705820Y-31439502D01*
X48825518Y-31475812D01*
X48950000Y-31488072D01*
X49514250Y-31485000D01*
X49673000Y-31326250D01*
X49673000Y-30127000D01*
X48473750Y-30127000D01*
X48315000Y-30285750D01*
X48311928Y-30850000D01*
X47026494Y-30850000D01*
X44396494Y-28220000D01*
X48521822Y-28220000D01*
X48646525Y-28406632D01*
X48778380Y-28538487D01*
X48705820Y-28560498D01*
X48595506Y-28619463D01*
X48498815Y-28698815D01*
X48419463Y-28795506D01*
X48360498Y-28905820D01*
X48324188Y-29025518D01*
X48311928Y-29150000D01*
X48315000Y-29714250D01*
X48473750Y-29873000D01*
X49673000Y-29873000D01*
X49673000Y-29853000D01*
X49927000Y-29853000D01*
X49927000Y-29873000D01*
X49947000Y-29873000D01*
X49947000Y-30127000D01*
X49927000Y-30127000D01*
X49927000Y-31326250D01*
X50085750Y-31485000D01*
X50650000Y-31488072D01*
X50774482Y-31475812D01*
X50894180Y-31439502D01*
X51004494Y-31380537D01*
X51040001Y-31351398D01*
X51040001Y-35212668D01*
X51036324Y-35250000D01*
X51040001Y-35287333D01*
X51050998Y-35398986D01*
X51058670Y-35424276D01*
X51094454Y-35542246D01*
X51165026Y-35674276D01*
X51226353Y-35749002D01*
X51260000Y-35790001D01*
X51288998Y-35813799D01*
X54486201Y-39011003D01*
X54509999Y-39040001D01*
X54538997Y-39063799D01*
X54625723Y-39134974D01*
X54705468Y-39177599D01*
X54710498Y-39194180D01*
X54769463Y-39304494D01*
X54848815Y-39401185D01*
X54945506Y-39480537D01*
X55055820Y-39539502D01*
X55175518Y-39575812D01*
X55300000Y-39588072D01*
X56500000Y-39588072D01*
X56624482Y-39575812D01*
X56744180Y-39539502D01*
X56854494Y-39480537D01*
X56951185Y-39401185D01*
X57000000Y-39341704D01*
X57048815Y-39401185D01*
X57145506Y-39480537D01*
X57255820Y-39539502D01*
X57375518Y-39575812D01*
X57500000Y-39588072D01*
X58700000Y-39588072D01*
X58824482Y-39575812D01*
X58944180Y-39539502D01*
X59054494Y-39480537D01*
X59151185Y-39401185D01*
X59230537Y-39304494D01*
X59254320Y-39260000D01*
X59815298Y-39260000D01*
X59886595Y-39393386D01*
X59997038Y-39527962D01*
X60131614Y-39638405D01*
X60285150Y-39720472D01*
X60451746Y-39771008D01*
X60625000Y-39788072D01*
X61249626Y-39788072D01*
X51197699Y-49840000D01*
X43214802Y-49840000D01*
X40760000Y-47385199D01*
X40760000Y-41703711D01*
X40803937Y-41659774D01*
X40917205Y-41490256D01*
X40995226Y-41301898D01*
X41035000Y-41101939D01*
X41035000Y-40898061D01*
X40995226Y-40698102D01*
X40917205Y-40509744D01*
X40803937Y-40340226D01*
X40659774Y-40196063D01*
X40490256Y-40082795D01*
X40301898Y-40004774D01*
X40101939Y-39965000D01*
X39898061Y-39965000D01*
X39698102Y-40004774D01*
X39509744Y-40082795D01*
X39340226Y-40196063D01*
X39196063Y-40340226D01*
X39082795Y-40509744D01*
X39004774Y-40698102D01*
X38965000Y-40898061D01*
X38965000Y-41101939D01*
X39004774Y-41301898D01*
X39082795Y-41490256D01*
X39196063Y-41659774D01*
X39240001Y-41703712D01*
X39240000Y-47662677D01*
X39236324Y-47700000D01*
X39240000Y-47737322D01*
X39240000Y-47737332D01*
X39250997Y-47848985D01*
X39294454Y-47992246D01*
X39365026Y-48124276D01*
X39404871Y-48172826D01*
X39459999Y-48240001D01*
X39489003Y-48263804D01*
X42336201Y-51111003D01*
X42359999Y-51140001D01*
X42475724Y-51234974D01*
X42607753Y-51305546D01*
X42721335Y-51340000D01*
X-4340000Y-51340000D01*
X-4340000Y-48804495D01*
X-3985000Y-48804495D01*
X-3985000Y-49195505D01*
X-3908718Y-49579003D01*
X-3759085Y-49940250D01*
X-3541851Y-50265364D01*
X-3265364Y-50541851D01*
X-2940250Y-50759085D01*
X-2579003Y-50908718D01*
X-2195505Y-50985000D01*
X-1804495Y-50985000D01*
X-1420997Y-50908718D01*
X-1059750Y-50759085D01*
X-734636Y-50541851D01*
X-458149Y-50265364D01*
X-240915Y-49940250D01*
X-91282Y-49579003D01*
X-15000Y-49195505D01*
X-15000Y-48804495D01*
X-91282Y-48420997D01*
X-240915Y-48059750D01*
X-458149Y-47734636D01*
X-734636Y-47458149D01*
X-1059750Y-47240915D01*
X-1420997Y-47091282D01*
X-1804495Y-47015000D01*
X-2195505Y-47015000D01*
X-2579003Y-47091282D01*
X-2940250Y-47240915D01*
X-3265364Y-47458149D01*
X-3541851Y-47734636D01*
X-3759085Y-48059750D01*
X-3908718Y-48420997D01*
X-3985000Y-48804495D01*
X-4340000Y-48804495D01*
X-4340000Y-46731874D01*
X12635881Y-46731874D01*
X12652554Y-46786864D01*
X12742877Y-46990206D01*
X12871135Y-47172020D01*
X13032399Y-47325318D01*
X13220471Y-47444210D01*
X13428124Y-47524126D01*
X13603000Y-47399129D01*
X13603000Y-46557000D01*
X12762046Y-46557000D01*
X12635881Y-46731874D01*
X-4340000Y-46731874D01*
X-4340000Y-35000000D01*
X-2544120Y-35000000D01*
X-2507725Y-35369524D01*
X-2399939Y-35724848D01*
X-2224903Y-36052317D01*
X-1989345Y-36339345D01*
X-1702317Y-36574903D01*
X-1374848Y-36749939D01*
X-1019524Y-36857725D01*
X-742597Y-36885000D01*
X742597Y-36885000D01*
X1019524Y-36857725D01*
X1374848Y-36749939D01*
X1702317Y-36574903D01*
X1989345Y-36339345D01*
X2224903Y-36052317D01*
X2399939Y-35724848D01*
X2402100Y-35717724D01*
X2442247Y-35705546D01*
X2574276Y-35634974D01*
X2690001Y-35540001D01*
X2713804Y-35510997D01*
X4511003Y-33713799D01*
X4540001Y-33690001D01*
X4613863Y-33600000D01*
X4634974Y-33574277D01*
X4705546Y-33442247D01*
X4728970Y-33365026D01*
X4749003Y-33298986D01*
X4760000Y-33187333D01*
X4760000Y-33187324D01*
X4763676Y-33150001D01*
X4760000Y-33112678D01*
X4760000Y-25487087D01*
X4923254Y-25471008D01*
X5089850Y-25420472D01*
X5243386Y-25338405D01*
X5377962Y-25227962D01*
X5488405Y-25093386D01*
X5570472Y-24939850D01*
X5621008Y-24773254D01*
X5638072Y-24600000D01*
X5638072Y-23400000D01*
X5621008Y-23226746D01*
X5570472Y-23060150D01*
X5488405Y-22906614D01*
X5377962Y-22772038D01*
X5243386Y-22661595D01*
X5141407Y-22607086D01*
X5141795Y-22606802D01*
X5338664Y-22392046D01*
X5489854Y-22143009D01*
X5589554Y-21869261D01*
X5591476Y-21856890D01*
X5470155Y-21627000D01*
X4127000Y-21627000D01*
X4127000Y-21647000D01*
X3873000Y-21647000D01*
X3873000Y-21627000D01*
X2529845Y-21627000D01*
X2408524Y-21856890D01*
X2410446Y-21869261D01*
X2510146Y-22143009D01*
X2661336Y-22392046D01*
X2858205Y-22606802D01*
X2858593Y-22607086D01*
X2756614Y-22661595D01*
X2622038Y-22772038D01*
X2511595Y-22906614D01*
X2429528Y-23060150D01*
X2378992Y-23226746D01*
X2361928Y-23400000D01*
X2361928Y-24600000D01*
X2378992Y-24773254D01*
X2429528Y-24939850D01*
X2511595Y-25093386D01*
X2622038Y-25227962D01*
X2756614Y-25338405D01*
X2910150Y-25420472D01*
X3076746Y-25471008D01*
X3240000Y-25487087D01*
X3240001Y-32835197D01*
X2181005Y-33894193D01*
X1989345Y-33660655D01*
X1702317Y-33425097D01*
X1374848Y-33250061D01*
X1019524Y-33142275D01*
X742597Y-33115000D01*
X-742597Y-33115000D01*
X-1019524Y-33142275D01*
X-1374848Y-33250061D01*
X-1702317Y-33425097D01*
X-1989345Y-33660655D01*
X-2224903Y-33947683D01*
X-2399939Y-34275152D01*
X-2507725Y-34630476D01*
X-2544120Y-35000000D01*
X-4340000Y-35000000D01*
X-4340000Y-30300000D01*
X-2544120Y-30300000D01*
X-2507725Y-30669524D01*
X-2399939Y-31024848D01*
X-2224903Y-31352317D01*
X-1989345Y-31639345D01*
X-1702317Y-31874903D01*
X-1374848Y-32049939D01*
X-1019524Y-32157725D01*
X-742597Y-32185000D01*
X742597Y-32185000D01*
X1019524Y-32157725D01*
X1374848Y-32049939D01*
X1702317Y-31874903D01*
X1989345Y-31639345D01*
X2224903Y-31352317D01*
X2399939Y-31024848D01*
X2507725Y-30669524D01*
X2544120Y-30300000D01*
X2507725Y-29930476D01*
X2399939Y-29575152D01*
X2224903Y-29247683D01*
X1989345Y-28960655D01*
X1702317Y-28725097D01*
X1374848Y-28550061D01*
X1019524Y-28442275D01*
X742597Y-28415000D01*
X-742597Y-28415000D01*
X-1019524Y-28442275D01*
X-1374848Y-28550061D01*
X-1702317Y-28725097D01*
X-1989345Y-28960655D01*
X-2224903Y-29247683D01*
X-2399939Y-29575152D01*
X-2507725Y-29930476D01*
X-2544120Y-30300000D01*
X-4340000Y-30300000D01*
X-4340000Y-21143110D01*
X2408524Y-21143110D01*
X2529845Y-21373000D01*
X3873000Y-21373000D01*
X3873000Y-20172768D01*
X4127000Y-20172768D01*
X4127000Y-21373000D01*
X5470155Y-21373000D01*
X5591476Y-21143110D01*
X5589554Y-21130739D01*
X5489854Y-20856991D01*
X5338664Y-20607954D01*
X5141795Y-20393198D01*
X4906812Y-20220975D01*
X4642745Y-20097904D01*
X4359742Y-20028715D01*
X4127000Y-20172768D01*
X3873000Y-20172768D01*
X3640258Y-20028715D01*
X3357255Y-20097904D01*
X3093188Y-20220975D01*
X2858205Y-20393198D01*
X2661336Y-20607954D01*
X2510146Y-20856991D01*
X2410446Y-21130739D01*
X2408524Y-21143110D01*
X-4340000Y-21143110D01*
X-4340000Y-12804495D01*
X-3985000Y-12804495D01*
X-3985000Y-13195505D01*
X-3908718Y-13579003D01*
X-3759085Y-13940250D01*
X-3541851Y-14265364D01*
X-3265364Y-14541851D01*
X-2940250Y-14759085D01*
X-2579003Y-14908718D01*
X-2195505Y-14985000D01*
X-1804495Y-14985000D01*
X-1420997Y-14908718D01*
X-1059750Y-14759085D01*
X-734636Y-14541851D01*
X-458149Y-14265364D01*
X-240915Y-13940250D01*
X-91282Y-13579003D01*
X-15000Y-13195505D01*
X-15000Y-12804495D01*
X-91282Y-12420997D01*
X-240915Y-12059750D01*
X-458149Y-11734636D01*
X-734636Y-11458149D01*
X-1059750Y-11240915D01*
X-1420997Y-11091282D01*
X-1804495Y-11015000D01*
X-2195505Y-11015000D01*
X-2579003Y-11091282D01*
X-2940250Y-11240915D01*
X-3265364Y-11458149D01*
X-3541851Y-11734636D01*
X-3759085Y-12059750D01*
X-3908718Y-12420997D01*
X-3985000Y-12804495D01*
X-4340000Y-12804495D01*
X-4340000Y-10660000D01*
X28873000Y-10660000D01*
X28873000Y-13400000D01*
G36*
X46141692Y-32114802D02*
G01*
X46141692Y-33879409D01*
X46124482Y-33874188D01*
X46000000Y-33861928D01*
X45785750Y-33865000D01*
X45627000Y-34023750D01*
X45627000Y-34873000D01*
X45647000Y-34873000D01*
X45647000Y-35127000D01*
X45627000Y-35127000D01*
X45627000Y-35138026D01*
X45611788Y-35135000D01*
X45388212Y-35135000D01*
X45373000Y-35138026D01*
X45373000Y-35127000D01*
X45361974Y-35127000D01*
X45365000Y-35111788D01*
X45365000Y-34888212D01*
X45361974Y-34873000D01*
X45373000Y-34873000D01*
X45373000Y-34023750D01*
X45214250Y-33865000D01*
X45000000Y-33861928D01*
X44875518Y-33874188D01*
X44755820Y-33910498D01*
X44672774Y-33954888D01*
X44561067Y-33908617D01*
X44341788Y-33865000D01*
X44118212Y-33865000D01*
X43898933Y-33908617D01*
X43692376Y-33994176D01*
X43506480Y-34118388D01*
X43348388Y-34276480D01*
X43224176Y-34462376D01*
X43138617Y-34668933D01*
X43095000Y-34888212D01*
X43095000Y-35111788D01*
X43138617Y-35331067D01*
X43224176Y-35537624D01*
X43289241Y-35635000D01*
X43224176Y-35732376D01*
X43138617Y-35938933D01*
X43095000Y-36158212D01*
X43095000Y-36381788D01*
X43138617Y-36601067D01*
X43224176Y-36807624D01*
X43289241Y-36905000D01*
X43224176Y-37002376D01*
X43138617Y-37208933D01*
X43095000Y-37428212D01*
X43095000Y-37651788D01*
X43138617Y-37871067D01*
X43224176Y-38077624D01*
X43289241Y-38175000D01*
X43224176Y-38272376D01*
X43138617Y-38478933D01*
X43095000Y-38698212D01*
X43095000Y-38921788D01*
X43138617Y-39141067D01*
X43224176Y-39347624D01*
X43289241Y-39445000D01*
X43224176Y-39542376D01*
X43138617Y-39748933D01*
X43095000Y-39968212D01*
X43095000Y-40191788D01*
X43138617Y-40411067D01*
X43224176Y-40617624D01*
X43289241Y-40715000D01*
X43224176Y-40812376D01*
X43138617Y-41018933D01*
X43095000Y-41238212D01*
X43095000Y-41461788D01*
X43138617Y-41681067D01*
X43168845Y-41754044D01*
X42760000Y-41345199D01*
X42760000Y-28733110D01*
X46141692Y-32114802D01*
G37*
X46141692Y-32114802D02*
X46141692Y-33879409D01*
X46124482Y-33874188D01*
X46000000Y-33861928D01*
X45785750Y-33865000D01*
X45627000Y-34023750D01*
X45627000Y-34873000D01*
X45647000Y-34873000D01*
X45647000Y-35127000D01*
X45627000Y-35127000D01*
X45627000Y-35138026D01*
X45611788Y-35135000D01*
X45388212Y-35135000D01*
X45373000Y-35138026D01*
X45373000Y-35127000D01*
X45361974Y-35127000D01*
X45365000Y-35111788D01*
X45365000Y-34888212D01*
X45361974Y-34873000D01*
X45373000Y-34873000D01*
X45373000Y-34023750D01*
X45214250Y-33865000D01*
X45000000Y-33861928D01*
X44875518Y-33874188D01*
X44755820Y-33910498D01*
X44672774Y-33954888D01*
X44561067Y-33908617D01*
X44341788Y-33865000D01*
X44118212Y-33865000D01*
X43898933Y-33908617D01*
X43692376Y-33994176D01*
X43506480Y-34118388D01*
X43348388Y-34276480D01*
X43224176Y-34462376D01*
X43138617Y-34668933D01*
X43095000Y-34888212D01*
X43095000Y-35111788D01*
X43138617Y-35331067D01*
X43224176Y-35537624D01*
X43289241Y-35635000D01*
X43224176Y-35732376D01*
X43138617Y-35938933D01*
X43095000Y-36158212D01*
X43095000Y-36381788D01*
X43138617Y-36601067D01*
X43224176Y-36807624D01*
X43289241Y-36905000D01*
X43224176Y-37002376D01*
X43138617Y-37208933D01*
X43095000Y-37428212D01*
X43095000Y-37651788D01*
X43138617Y-37871067D01*
X43224176Y-38077624D01*
X43289241Y-38175000D01*
X43224176Y-38272376D01*
X43138617Y-38478933D01*
X43095000Y-38698212D01*
X43095000Y-38921788D01*
X43138617Y-39141067D01*
X43224176Y-39347624D01*
X43289241Y-39445000D01*
X43224176Y-39542376D01*
X43138617Y-39748933D01*
X43095000Y-39968212D01*
X43095000Y-40191788D01*
X43138617Y-40411067D01*
X43224176Y-40617624D01*
X43289241Y-40715000D01*
X43224176Y-40812376D01*
X43138617Y-41018933D01*
X43095000Y-41238212D01*
X43095000Y-41461788D01*
X43138617Y-41681067D01*
X43168845Y-41754044D01*
X42760000Y-41345199D01*
X42760000Y-28733110D01*
X46141692Y-32114802D01*
G36*
X19136928Y-19075000D02*
G01*
X19149188Y-19199482D01*
X19185498Y-19319180D01*
X19244463Y-19429494D01*
X19319617Y-19521070D01*
X19281329Y-19567725D01*
X19202150Y-19715858D01*
X19153392Y-19876592D01*
X19136928Y-20043750D01*
X19136928Y-20556250D01*
X19153392Y-20723408D01*
X19202150Y-20884142D01*
X19281329Y-21032275D01*
X19350633Y-21116723D01*
X19345506Y-21119463D01*
X19248815Y-21198815D01*
X19169463Y-21295506D01*
X19110498Y-21405820D01*
X19074188Y-21525518D01*
X19061928Y-21650000D01*
X19061928Y-22950000D01*
X19074188Y-23074482D01*
X19110498Y-23194180D01*
X19169463Y-23304494D01*
X19248815Y-23401185D01*
X19280209Y-23426949D01*
X19244463Y-23470506D01*
X19185498Y-23580820D01*
X19149188Y-23700518D01*
X19136928Y-23825000D01*
X19140000Y-24014250D01*
X19298750Y-24173000D01*
X20085500Y-24173000D01*
X20085500Y-24153000D01*
X20339500Y-24153000D01*
X20339500Y-24173000D01*
X20359500Y-24173000D01*
X20359500Y-24427000D01*
X20339500Y-24427000D01*
X20339500Y-24447000D01*
X20085500Y-24447000D01*
X20085500Y-24427000D01*
X19298750Y-24427000D01*
X19140000Y-24585750D01*
X19136928Y-24775000D01*
X19149188Y-24899482D01*
X19185498Y-25019180D01*
X19244463Y-25129494D01*
X19323815Y-25226185D01*
X19420506Y-25305537D01*
X19530820Y-25364502D01*
X19591491Y-25382906D01*
X19581928Y-25480000D01*
X19585000Y-25514250D01*
X19743750Y-25673000D01*
X20388000Y-25673000D01*
X20388000Y-25653000D01*
X20551928Y-25653000D01*
X20551928Y-25972500D01*
X20567023Y-26125757D01*
X20611726Y-26273125D01*
X20642000Y-26329763D01*
X20642000Y-26596250D01*
X20725000Y-26679250D01*
X20725000Y-26700197D01*
X18144455Y-29280744D01*
X18072427Y-29208716D01*
X17902909Y-29095448D01*
X17714551Y-29017427D01*
X17514592Y-28977653D01*
X17310714Y-28977653D01*
X17110755Y-29017427D01*
X16922397Y-29095448D01*
X16752879Y-29208716D01*
X16708942Y-29252653D01*
X11488072Y-29252653D01*
X11488072Y-29150000D01*
X11475812Y-29025518D01*
X11439502Y-28905820D01*
X11380537Y-28795506D01*
X11301185Y-28698815D01*
X11204494Y-28619463D01*
X11094180Y-28560498D01*
X11021620Y-28538487D01*
X11153475Y-28406632D01*
X11315990Y-28163411D01*
X11427932Y-27893158D01*
X11485000Y-27606260D01*
X11485000Y-27313740D01*
X11440251Y-27088771D01*
X11440825Y-27088072D01*
X11484973Y-27034278D01*
X11555545Y-26902248D01*
X11566536Y-26866015D01*
X11599002Y-26758987D01*
X11609999Y-26647333D01*
X11609999Y-26647325D01*
X11613675Y-26610002D01*
X11609999Y-26572679D01*
X11609999Y-26464802D01*
X11954801Y-26120000D01*
X19581928Y-26120000D01*
X19594188Y-26244482D01*
X19630498Y-26364180D01*
X19689463Y-26474494D01*
X19768815Y-26571185D01*
X19865506Y-26650537D01*
X19975820Y-26709502D01*
X20095518Y-26745812D01*
X20220000Y-26758072D01*
X20229250Y-26755000D01*
X20388000Y-26596250D01*
X20388000Y-25927000D01*
X19743750Y-25927000D01*
X19585000Y-26085750D01*
X19581928Y-26120000D01*
X11954801Y-26120000D01*
X19139191Y-18935611D01*
X19136928Y-19075000D01*
G37*
X19136928Y-19075000D02*
X19149188Y-19199482D01*
X19185498Y-19319180D01*
X19244463Y-19429494D01*
X19319617Y-19521070D01*
X19281329Y-19567725D01*
X19202150Y-19715858D01*
X19153392Y-19876592D01*
X19136928Y-20043750D01*
X19136928Y-20556250D01*
X19153392Y-20723408D01*
X19202150Y-20884142D01*
X19281329Y-21032275D01*
X19350633Y-21116723D01*
X19345506Y-21119463D01*
X19248815Y-21198815D01*
X19169463Y-21295506D01*
X19110498Y-21405820D01*
X19074188Y-21525518D01*
X19061928Y-21650000D01*
X19061928Y-22950000D01*
X19074188Y-23074482D01*
X19110498Y-23194180D01*
X19169463Y-23304494D01*
X19248815Y-23401185D01*
X19280209Y-23426949D01*
X19244463Y-23470506D01*
X19185498Y-23580820D01*
X19149188Y-23700518D01*
X19136928Y-23825000D01*
X19140000Y-24014250D01*
X19298750Y-24173000D01*
X20085500Y-24173000D01*
X20085500Y-24153000D01*
X20339500Y-24153000D01*
X20339500Y-24173000D01*
X20359500Y-24173000D01*
X20359500Y-24427000D01*
X20339500Y-24427000D01*
X20339500Y-24447000D01*
X20085500Y-24447000D01*
X20085500Y-24427000D01*
X19298750Y-24427000D01*
X19140000Y-24585750D01*
X19136928Y-24775000D01*
X19149188Y-24899482D01*
X19185498Y-25019180D01*
X19244463Y-25129494D01*
X19323815Y-25226185D01*
X19420506Y-25305537D01*
X19530820Y-25364502D01*
X19591491Y-25382906D01*
X19581928Y-25480000D01*
X19585000Y-25514250D01*
X19743750Y-25673000D01*
X20388000Y-25673000D01*
X20388000Y-25653000D01*
X20551928Y-25653000D01*
X20551928Y-25972500D01*
X20567023Y-26125757D01*
X20611726Y-26273125D01*
X20642000Y-26329763D01*
X20642000Y-26596250D01*
X20725000Y-26679250D01*
X20725000Y-26700197D01*
X18144455Y-29280744D01*
X18072427Y-29208716D01*
X17902909Y-29095448D01*
X17714551Y-29017427D01*
X17514592Y-28977653D01*
X17310714Y-28977653D01*
X17110755Y-29017427D01*
X16922397Y-29095448D01*
X16752879Y-29208716D01*
X16708942Y-29252653D01*
X11488072Y-29252653D01*
X11488072Y-29150000D01*
X11475812Y-29025518D01*
X11439502Y-28905820D01*
X11380537Y-28795506D01*
X11301185Y-28698815D01*
X11204494Y-28619463D01*
X11094180Y-28560498D01*
X11021620Y-28538487D01*
X11153475Y-28406632D01*
X11315990Y-28163411D01*
X11427932Y-27893158D01*
X11485000Y-27606260D01*
X11485000Y-27313740D01*
X11440251Y-27088771D01*
X11440825Y-27088072D01*
X11484973Y-27034278D01*
X11555545Y-26902248D01*
X11566536Y-26866015D01*
X11599002Y-26758987D01*
X11609999Y-26647333D01*
X11609999Y-26647325D01*
X11613675Y-26610002D01*
X11609999Y-26572679D01*
X11609999Y-26464802D01*
X11954801Y-26120000D01*
X19581928Y-26120000D01*
X19594188Y-26244482D01*
X19630498Y-26364180D01*
X19689463Y-26474494D01*
X19768815Y-26571185D01*
X19865506Y-26650537D01*
X19975820Y-26709502D01*
X20095518Y-26745812D01*
X20220000Y-26758072D01*
X20229250Y-26755000D01*
X20388000Y-26596250D01*
X20388000Y-25927000D01*
X19743750Y-25927000D01*
X19585000Y-26085750D01*
X19581928Y-26120000D01*
X11954801Y-26120000D01*
X19139191Y-18935611D01*
X19136928Y-19075000D01*
G36*
X25611928Y-22397000D02*
G01*
X25577000Y-22397000D01*
X25577000Y-22377000D01*
X25553000Y-22377000D01*
X25553000Y-22123000D01*
X25577000Y-22123000D01*
X25577000Y-22103000D01*
X25611928Y-22103000D01*
X25611928Y-22397000D01*
G37*
X25611928Y-22397000D02*
X25577000Y-22397000D01*
X25577000Y-22377000D01*
X25553000Y-22377000D01*
X25553000Y-22123000D01*
X25577000Y-22123000D01*
X25577000Y-22103000D01*
X25611928Y-22103000D01*
X25611928Y-22397000D01*
G36*
X20339500Y-18473000D02*
G01*
X20359500Y-18473000D01*
X20359500Y-18727000D01*
X20339500Y-18727000D01*
X20339500Y-18747000D01*
X20085500Y-18747000D01*
X20085500Y-18727000D01*
X20065500Y-18727000D01*
X20065500Y-18473000D01*
X20085500Y-18473000D01*
X20085500Y-18453000D01*
X20339500Y-18453000D01*
X20339500Y-18473000D01*
G37*
X20339500Y-18473000D02*
X20359500Y-18473000D01*
X20359500Y-18727000D01*
X20339500Y-18727000D01*
X20339500Y-18747000D01*
X20085500Y-18747000D01*
X20085500Y-18727000D01*
X20065500Y-18727000D01*
X20065500Y-18473000D01*
X20085500Y-18473000D01*
X20085500Y-18453000D01*
X20339500Y-18453000D01*
X20339500Y-18473000D01*
G36*
X40047000Y-16913000D02*
G01*
X40067000Y-16913000D01*
X40067000Y-17167000D01*
X40047000Y-17167000D01*
X40047000Y-17187000D01*
X39793000Y-17187000D01*
X39793000Y-17167000D01*
X39773000Y-17167000D01*
X39773000Y-16913000D01*
X39793000Y-16913000D01*
X39793000Y-16893000D01*
X40047000Y-16893000D01*
X40047000Y-16913000D01*
G37*
X40047000Y-16913000D02*
X40067000Y-16913000D01*
X40067000Y-17167000D01*
X40047000Y-17167000D01*
X40047000Y-17187000D01*
X39793000Y-17187000D01*
X39793000Y-17167000D01*
X39773000Y-17167000D01*
X39773000Y-16913000D01*
X39793000Y-16913000D01*
X39793000Y-16893000D01*
X40047000Y-16893000D01*
X40047000Y-16913000D01*
M02*
