M48
; DRILL file {KiCad 5.1.5-52549c5~84~ubuntu18.04.1} date Fri Dec 20 17:02:24 2019
; FORMAT={-:-/ absolute / inch / decimal}
; #@! TF.CreationDate,2019-12-20T17:02:24+05:30
; #@! TF.GenerationSoftware,Kicad,Pcbnew,5.1.5-52549c5~84~ubuntu18.04.1
FMAT,2
INCH
T1C0.0157
T2C0.0276
T3C0.0394
T4C0.0433
T5C0.1063
%
G90
G05
T1
X0.6693Y-1.3386
X0.8661Y-1.122
X0.8976Y-0.4213
X0.8976Y-0.4528
X0.9291Y-0.4213
X0.9291Y-0.4528
X0.9606Y-0.9252
X0.9609Y-0.894
X0.9921Y-0.9252
X1.0669Y-0.4409
X1.0669Y-0.4724
X1.0984Y-0.4409
X1.0984Y-0.4724
X1.1024Y-0.5906
X1.1024Y-0.7874
X1.1024Y-1.1181
X1.127Y-1.0827
X1.1545Y-1.0472
X1.1811Y-0.6693
X1.2598Y-0.5906
X1.2598Y-0.7874
X1.3661Y-0.9252
X1.3976Y-0.8937
X1.3976Y-0.9252
X1.4291Y-0.4213
X1.4567Y-0.5384
X1.4606Y-0.4213
X1.4828Y-0.8479
X1.4852Y-0.6417
X1.6535Y-1.8937
X2.0866Y-1.685
T2
X1.7413Y-1.378
X1.7413Y-1.428
X1.7413Y-1.478
X1.7413Y-1.528
X1.7413Y-1.578
X1.7413Y-1.628
X1.7413Y-1.678
X1.7413Y-1.728
X1.7413Y-1.778
X1.7413Y-1.828
X1.7913Y-1.378
X1.7913Y-1.428
X1.7913Y-1.478
X1.7913Y-1.528
X1.7913Y-1.578
X1.7913Y-1.628
X1.7913Y-1.678
X1.7913Y-1.728
X1.7913Y-1.778
X1.7913Y-1.828
X0.5406Y-1.378
X0.5406Y-1.428
X0.5406Y-1.478
X0.5406Y-1.528
X0.5406Y-1.578
X0.5406Y-1.628
X0.5406Y-1.678
X0.5406Y-1.728
X0.5406Y-1.778
X0.5406Y-1.828
X0.5906Y-1.378
X0.5906Y-1.428
X0.5906Y-1.478
X0.5906Y-1.528
X0.5906Y-1.578
X0.5906Y-1.628
X0.5906Y-1.678
X0.5906Y-1.728
X0.5906Y-1.778
X0.5906Y-1.828
T3
X1.5528Y-0.5811
X1.5528Y-0.6811
X1.6528Y-0.5811
X1.6528Y-0.6811
X1.7528Y-0.5811
X1.7528Y-0.6811
X1.9528Y-0.4811
X1.9528Y-0.5811
X1.9528Y-0.6811
X1.9528Y-0.7811
X1.9528Y-0.8811
X1.9528Y-0.9811
X1.9528Y-1.0811
X1.9528Y-1.1811
X0.4528Y-0.4811
X0.4528Y-0.5811
X0.4528Y-0.6811
X0.4528Y-0.7811
X0.4528Y-0.8811
X0.4528Y-0.9811
X0.4528Y-1.0811
X0.4528Y-1.1811
X0.2528Y-0.8465
X0.2528Y-0.9449
T4
X1.0433Y-1.4764
X1.0433Y-1.6535
X1.2992Y-1.4764
X1.2992Y-1.6535
T5
X2.1654Y-1.811
X0.1181Y-1.811
X0.1181Y-0.5118
X2.1654Y-0.5118
T3
G00X0.2283Y-1.1929
M15
G01X0.1654Y-1.1929
M16
G05
G00X0.2283Y-1.378
M15
G01X0.1654Y-1.378
M16
G05
G00X0.2283Y-1.563
M15
G01X0.1654Y-1.563
M16
G05
T0
M30
