G04 #@! TF.GenerationSoftware,KiCad,Pcbnew,5.1.4-e60b266~84~ubuntu18.04.1*
G04 #@! TF.CreationDate,2019-11-09T19:50:11+05:30*
G04 #@! TF.ProjectId,senseEle_PCB_Antenna_rev1,73656e73-6545-46c6-955f-5043425f416e,rev?*
G04 #@! TF.SameCoordinates,Original*
G04 #@! TF.FileFunction,Soldermask,Bot*
G04 #@! TF.FilePolarity,Negative*
%FSLAX46Y46*%
G04 Gerber Fmt 4.6, Leading zero omitted, Abs format (unit mm)*
G04 Created by KiCad (PCBNEW 5.1.4-e60b266~84~ubuntu18.04.1) date 2019-11-09 19:50:11*
%MOMM*%
%LPD*%
G04 APERTURE LIST*
%ADD10C,0.100000*%
G04 APERTURE END LIST*
D10*
G36*
X-1481567Y-43134893D02*
G01*
X-1391343Y-43152839D01*
X-1285733Y-43196585D01*
X-1136379Y-43258449D01*
X-1136378Y-43258450D01*
X-906914Y-43411772D01*
X-711772Y-43606914D01*
X-609325Y-43760237D01*
X-558449Y-43836379D01*
X-452839Y-44091344D01*
X-399000Y-44362012D01*
X-399000Y-44637988D01*
X-452839Y-44908656D01*
X-558449Y-45163621D01*
X-558450Y-45163622D01*
X-711772Y-45393086D01*
X-906914Y-45588228D01*
X-1060237Y-45690675D01*
X-1136379Y-45741551D01*
X-1285733Y-45803415D01*
X-1391343Y-45847161D01*
X-1481567Y-45865107D01*
X-1662012Y-45901000D01*
X-1937988Y-45901000D01*
X-2118433Y-45865107D01*
X-2208657Y-45847161D01*
X-2314267Y-45803415D01*
X-2463621Y-45741551D01*
X-2539763Y-45690675D01*
X-2693086Y-45588228D01*
X-2888228Y-45393086D01*
X-3041550Y-45163622D01*
X-3041551Y-45163621D01*
X-3147161Y-44908656D01*
X-3201000Y-44637988D01*
X-3201000Y-44362012D01*
X-3147161Y-44091344D01*
X-3041551Y-43836379D01*
X-2990675Y-43760237D01*
X-2888228Y-43606914D01*
X-2693086Y-43411772D01*
X-2463622Y-43258450D01*
X-2463621Y-43258449D01*
X-2314267Y-43196585D01*
X-2208657Y-43152839D01*
X-2118433Y-43134893D01*
X-1937988Y-43099000D01*
X-1662012Y-43099000D01*
X-1481567Y-43134893D01*
X-1481567Y-43134893D01*
G37*
G36*
X43318433Y-43134893D02*
G01*
X43408657Y-43152839D01*
X43514267Y-43196585D01*
X43663621Y-43258449D01*
X43663622Y-43258450D01*
X43893086Y-43411772D01*
X44088228Y-43606914D01*
X44190675Y-43760237D01*
X44241551Y-43836379D01*
X44347161Y-44091344D01*
X44401000Y-44362012D01*
X44401000Y-44637988D01*
X44347161Y-44908656D01*
X44241551Y-45163621D01*
X44241550Y-45163622D01*
X44088228Y-45393086D01*
X43893086Y-45588228D01*
X43739763Y-45690675D01*
X43663621Y-45741551D01*
X43514267Y-45803415D01*
X43408657Y-45847161D01*
X43318433Y-45865107D01*
X43137988Y-45901000D01*
X42862012Y-45901000D01*
X42681567Y-45865107D01*
X42591343Y-45847161D01*
X42485733Y-45803415D01*
X42336379Y-45741551D01*
X42260237Y-45690675D01*
X42106914Y-45588228D01*
X41911772Y-45393086D01*
X41758450Y-45163622D01*
X41758449Y-45163621D01*
X41652839Y-44908656D01*
X41599000Y-44637988D01*
X41599000Y-44362012D01*
X41652839Y-44091344D01*
X41758449Y-43836379D01*
X41809325Y-43760237D01*
X41911772Y-43606914D01*
X42106914Y-43411772D01*
X42336378Y-43258450D01*
X42336379Y-43258449D01*
X42485733Y-43196585D01*
X42591343Y-43152839D01*
X42681567Y-43134893D01*
X42862012Y-43099000D01*
X43137988Y-43099000D01*
X43318433Y-43134893D01*
X43318433Y-43134893D01*
G37*
G36*
X29101000Y-44291000D02*
G01*
X26399000Y-44291000D01*
X26399000Y-42189000D01*
X29101000Y-42189000D01*
X29101000Y-44291000D01*
X29101000Y-44291000D01*
G37*
G36*
X28153097Y-39654069D02*
G01*
X28256032Y-39664207D01*
X28454146Y-39724305D01*
X28454149Y-39724306D01*
X28550975Y-39776061D01*
X28636729Y-39821897D01*
X28796765Y-39953235D01*
X28928103Y-40113271D01*
X28973939Y-40199025D01*
X29025694Y-40295851D01*
X29025695Y-40295854D01*
X29085793Y-40493968D01*
X29106085Y-40700000D01*
X29085793Y-40906032D01*
X29025695Y-41104146D01*
X29025694Y-41104149D01*
X28973939Y-41200975D01*
X28928103Y-41286729D01*
X28796765Y-41446765D01*
X28636729Y-41578103D01*
X28550975Y-41623939D01*
X28454149Y-41675694D01*
X28454146Y-41675695D01*
X28256032Y-41735793D01*
X28153097Y-41745931D01*
X28101631Y-41751000D01*
X27398369Y-41751000D01*
X27346903Y-41745931D01*
X27243968Y-41735793D01*
X27045854Y-41675695D01*
X27045851Y-41675694D01*
X26949025Y-41623939D01*
X26863271Y-41578103D01*
X26703235Y-41446765D01*
X26571897Y-41286729D01*
X26526061Y-41200975D01*
X26474306Y-41104149D01*
X26474305Y-41104146D01*
X26414207Y-40906032D01*
X26393915Y-40700000D01*
X26414207Y-40493968D01*
X26474305Y-40295854D01*
X26474306Y-40295851D01*
X26526061Y-40199025D01*
X26571897Y-40113271D01*
X26703235Y-39953235D01*
X26863271Y-39821897D01*
X26949025Y-39776061D01*
X27045851Y-39724306D01*
X27045854Y-39724305D01*
X27243968Y-39664207D01*
X27346903Y-39654069D01*
X27398369Y-39649000D01*
X28101631Y-39649000D01*
X28153097Y-39654069D01*
X28153097Y-39654069D01*
G37*
G36*
X9040443Y-22005519D02*
G01*
X9106627Y-22012037D01*
X9276466Y-22063557D01*
X9432991Y-22147222D01*
X9468729Y-22176552D01*
X9570186Y-22259814D01*
X9653448Y-22361271D01*
X9682778Y-22397009D01*
X9766443Y-22553534D01*
X9817963Y-22723373D01*
X9835359Y-22900000D01*
X9817963Y-23076627D01*
X9766443Y-23246466D01*
X9682778Y-23402991D01*
X9653448Y-23438729D01*
X9570186Y-23540186D01*
X9468729Y-23623448D01*
X9432991Y-23652778D01*
X9276466Y-23736443D01*
X9106627Y-23787963D01*
X9040442Y-23794482D01*
X8974260Y-23801000D01*
X8885740Y-23801000D01*
X8819558Y-23794482D01*
X8753373Y-23787963D01*
X8583534Y-23736443D01*
X8427009Y-23652778D01*
X8391271Y-23623448D01*
X8289814Y-23540186D01*
X8206552Y-23438729D01*
X8177222Y-23402991D01*
X8093557Y-23246466D01*
X8042037Y-23076627D01*
X8024641Y-22900000D01*
X8042037Y-22723373D01*
X8093557Y-22553534D01*
X8177222Y-22397009D01*
X8206552Y-22361271D01*
X8289814Y-22259814D01*
X8391271Y-22176552D01*
X8427009Y-22147222D01*
X8583534Y-22063557D01*
X8753373Y-22012037D01*
X8819557Y-22005519D01*
X8885740Y-21999000D01*
X8974260Y-21999000D01*
X9040443Y-22005519D01*
X9040443Y-22005519D01*
G37*
G36*
X6500443Y-22005519D02*
G01*
X6566627Y-22012037D01*
X6736466Y-22063557D01*
X6892991Y-22147222D01*
X6928729Y-22176552D01*
X7030186Y-22259814D01*
X7113448Y-22361271D01*
X7142778Y-22397009D01*
X7226443Y-22553534D01*
X7277963Y-22723373D01*
X7295359Y-22900000D01*
X7277963Y-23076627D01*
X7226443Y-23246466D01*
X7142778Y-23402991D01*
X7113448Y-23438729D01*
X7030186Y-23540186D01*
X6928729Y-23623448D01*
X6892991Y-23652778D01*
X6736466Y-23736443D01*
X6566627Y-23787963D01*
X6500442Y-23794482D01*
X6434260Y-23801000D01*
X6345740Y-23801000D01*
X6279558Y-23794482D01*
X6213373Y-23787963D01*
X6043534Y-23736443D01*
X5887009Y-23652778D01*
X5851271Y-23623448D01*
X5749814Y-23540186D01*
X5666552Y-23438729D01*
X5637222Y-23402991D01*
X5553557Y-23246466D01*
X5502037Y-23076627D01*
X5484641Y-22900000D01*
X5502037Y-22723373D01*
X5553557Y-22553534D01*
X5637222Y-22397009D01*
X5666552Y-22361271D01*
X5749814Y-22259814D01*
X5851271Y-22176552D01*
X5887009Y-22147222D01*
X6043534Y-22063557D01*
X6213373Y-22012037D01*
X6279557Y-22005519D01*
X6345740Y-21999000D01*
X6434260Y-21999000D01*
X6500443Y-22005519D01*
X6500443Y-22005519D01*
G37*
G36*
X4751000Y-23801000D02*
G01*
X2949000Y-23801000D01*
X2949000Y-21999000D01*
X4751000Y-21999000D01*
X4751000Y-23801000D01*
X4751000Y-23801000D01*
G37*
G36*
X43318433Y-19134893D02*
G01*
X43408657Y-19152839D01*
X43514267Y-19196585D01*
X43663621Y-19258449D01*
X43663622Y-19258450D01*
X43893086Y-19411772D01*
X44088228Y-19606914D01*
X44190675Y-19760237D01*
X44241551Y-19836379D01*
X44347161Y-20091344D01*
X44401000Y-20362012D01*
X44401000Y-20637988D01*
X44347161Y-20908656D01*
X44241551Y-21163621D01*
X44241550Y-21163622D01*
X44088228Y-21393086D01*
X43893086Y-21588228D01*
X43739763Y-21690675D01*
X43663621Y-21741551D01*
X43514267Y-21803415D01*
X43408657Y-21847161D01*
X43318433Y-21865107D01*
X43137988Y-21901000D01*
X42862012Y-21901000D01*
X42681567Y-21865107D01*
X42591343Y-21847161D01*
X42485733Y-21803415D01*
X42336379Y-21741551D01*
X42260237Y-21690675D01*
X42106914Y-21588228D01*
X41911772Y-21393086D01*
X41758450Y-21163622D01*
X41758449Y-21163621D01*
X41652839Y-20908656D01*
X41599000Y-20637988D01*
X41599000Y-20362012D01*
X41652839Y-20091344D01*
X41758449Y-19836379D01*
X41809325Y-19760237D01*
X41911772Y-19606914D01*
X42106914Y-19411772D01*
X42336378Y-19258450D01*
X42336379Y-19258449D01*
X42485733Y-19196585D01*
X42591343Y-19152839D01*
X42681567Y-19134893D01*
X42862012Y-19099000D01*
X43137988Y-19099000D01*
X43318433Y-19134893D01*
X43318433Y-19134893D01*
G37*
G36*
X-1481567Y-19134893D02*
G01*
X-1391343Y-19152839D01*
X-1285733Y-19196585D01*
X-1136379Y-19258449D01*
X-1136378Y-19258450D01*
X-906914Y-19411772D01*
X-711772Y-19606914D01*
X-609325Y-19760237D01*
X-558449Y-19836379D01*
X-452839Y-20091344D01*
X-399000Y-20362012D01*
X-399000Y-20637988D01*
X-452839Y-20908656D01*
X-558449Y-21163621D01*
X-558450Y-21163622D01*
X-711772Y-21393086D01*
X-906914Y-21588228D01*
X-1060237Y-21690675D01*
X-1136379Y-21741551D01*
X-1285733Y-21803415D01*
X-1391343Y-21847161D01*
X-1481567Y-21865107D01*
X-1662012Y-21901000D01*
X-1937988Y-21901000D01*
X-2118433Y-21865107D01*
X-2208657Y-21847161D01*
X-2314267Y-21803415D01*
X-2463621Y-21741551D01*
X-2539763Y-21690675D01*
X-2693086Y-21588228D01*
X-2888228Y-21393086D01*
X-3041550Y-21163622D01*
X-3041551Y-21163621D01*
X-3147161Y-20908656D01*
X-3201000Y-20637988D01*
X-3201000Y-20362012D01*
X-3147161Y-20091344D01*
X-3041551Y-19836379D01*
X-2990675Y-19760237D01*
X-2888228Y-19606914D01*
X-2693086Y-19411772D01*
X-2463622Y-19258450D01*
X-2463621Y-19258449D01*
X-2314267Y-19196585D01*
X-2208657Y-19152839D01*
X-2118433Y-19134893D01*
X-1937988Y-19099000D01*
X-1662012Y-19099000D01*
X-1481567Y-19134893D01*
X-1481567Y-19134893D01*
G37*
G36*
X3960442Y-19465518D02*
G01*
X4026627Y-19472037D01*
X4196466Y-19523557D01*
X4352991Y-19607222D01*
X4388729Y-19636552D01*
X4490186Y-19719814D01*
X4573448Y-19821271D01*
X4602778Y-19857009D01*
X4686443Y-20013534D01*
X4737963Y-20183373D01*
X4755359Y-20360000D01*
X4737963Y-20536627D01*
X4686443Y-20706466D01*
X4602778Y-20862991D01*
X4573448Y-20898729D01*
X4490186Y-21000186D01*
X4388729Y-21083448D01*
X4352991Y-21112778D01*
X4196466Y-21196443D01*
X4026627Y-21247963D01*
X3960442Y-21254482D01*
X3894260Y-21261000D01*
X3805740Y-21261000D01*
X3739558Y-21254482D01*
X3673373Y-21247963D01*
X3503534Y-21196443D01*
X3347009Y-21112778D01*
X3311271Y-21083448D01*
X3209814Y-21000186D01*
X3126552Y-20898729D01*
X3097222Y-20862991D01*
X3013557Y-20706466D01*
X2962037Y-20536627D01*
X2944641Y-20360000D01*
X2962037Y-20183373D01*
X3013557Y-20013534D01*
X3097222Y-19857009D01*
X3126552Y-19821271D01*
X3209814Y-19719814D01*
X3311271Y-19636552D01*
X3347009Y-19607222D01*
X3503534Y-19523557D01*
X3673373Y-19472037D01*
X3739558Y-19465518D01*
X3805740Y-19459000D01*
X3894260Y-19459000D01*
X3960442Y-19465518D01*
X3960442Y-19465518D01*
G37*
G36*
X6500442Y-19465518D02*
G01*
X6566627Y-19472037D01*
X6736466Y-19523557D01*
X6892991Y-19607222D01*
X6928729Y-19636552D01*
X7030186Y-19719814D01*
X7113448Y-19821271D01*
X7142778Y-19857009D01*
X7226443Y-20013534D01*
X7277963Y-20183373D01*
X7295359Y-20360000D01*
X7277963Y-20536627D01*
X7226443Y-20706466D01*
X7142778Y-20862991D01*
X7113448Y-20898729D01*
X7030186Y-21000186D01*
X6928729Y-21083448D01*
X6892991Y-21112778D01*
X6736466Y-21196443D01*
X6566627Y-21247963D01*
X6500442Y-21254482D01*
X6434260Y-21261000D01*
X6345740Y-21261000D01*
X6279558Y-21254482D01*
X6213373Y-21247963D01*
X6043534Y-21196443D01*
X5887009Y-21112778D01*
X5851271Y-21083448D01*
X5749814Y-21000186D01*
X5666552Y-20898729D01*
X5637222Y-20862991D01*
X5553557Y-20706466D01*
X5502037Y-20536627D01*
X5484641Y-20360000D01*
X5502037Y-20183373D01*
X5553557Y-20013534D01*
X5637222Y-19857009D01*
X5666552Y-19821271D01*
X5749814Y-19719814D01*
X5851271Y-19636552D01*
X5887009Y-19607222D01*
X6043534Y-19523557D01*
X6213373Y-19472037D01*
X6279558Y-19465518D01*
X6345740Y-19459000D01*
X6434260Y-19459000D01*
X6500442Y-19465518D01*
X6500442Y-19465518D01*
G37*
G36*
X9040442Y-19465518D02*
G01*
X9106627Y-19472037D01*
X9276466Y-19523557D01*
X9432991Y-19607222D01*
X9468729Y-19636552D01*
X9570186Y-19719814D01*
X9653448Y-19821271D01*
X9682778Y-19857009D01*
X9766443Y-20013534D01*
X9817963Y-20183373D01*
X9835359Y-20360000D01*
X9817963Y-20536627D01*
X9766443Y-20706466D01*
X9682778Y-20862991D01*
X9653448Y-20898729D01*
X9570186Y-21000186D01*
X9468729Y-21083448D01*
X9432991Y-21112778D01*
X9276466Y-21196443D01*
X9106627Y-21247963D01*
X9040442Y-21254482D01*
X8974260Y-21261000D01*
X8885740Y-21261000D01*
X8819558Y-21254482D01*
X8753373Y-21247963D01*
X8583534Y-21196443D01*
X8427009Y-21112778D01*
X8391271Y-21083448D01*
X8289814Y-21000186D01*
X8206552Y-20898729D01*
X8177222Y-20862991D01*
X8093557Y-20706466D01*
X8042037Y-20536627D01*
X8024641Y-20360000D01*
X8042037Y-20183373D01*
X8093557Y-20013534D01*
X8177222Y-19857009D01*
X8206552Y-19821271D01*
X8289814Y-19719814D01*
X8391271Y-19636552D01*
X8427009Y-19607222D01*
X8583534Y-19523557D01*
X8753373Y-19472037D01*
X8819558Y-19465518D01*
X8885740Y-19459000D01*
X8974260Y-19459000D01*
X9040442Y-19465518D01*
X9040442Y-19465518D01*
G37*
M02*
