G04 #@! TF.GenerationSoftware,KiCad,Pcbnew,(5.1.4)-1*
G04 #@! TF.CreationDate,2019-11-11T11:41:27+05:30*
G04 #@! TF.ProjectId,senseEle_PCB_Antenna_rev1,73656e73-6545-46c6-955f-5043425f416e,rev?*
G04 #@! TF.SameCoordinates,Original*
G04 #@! TF.FileFunction,Soldermask,Bot*
G04 #@! TF.FilePolarity,Negative*
%FSLAX46Y46*%
G04 Gerber Fmt 4.6, Leading zero omitted, Abs format (unit mm)*
G04 Created by KiCad (PCBNEW (5.1.4)-1) date 2019-11-11 11:41:27*
%MOMM*%
%LPD*%
G04 APERTURE LIST*
%ADD10C,0.100000*%
G04 APERTURE END LIST*
D10*
G36*
X13318433Y-35634893D02*
G01*
X13408657Y-35652839D01*
X13514267Y-35696585D01*
X13663621Y-35758449D01*
X13663622Y-35758450D01*
X13893086Y-35911772D01*
X14088228Y-36106914D01*
X14190675Y-36260237D01*
X14241551Y-36336379D01*
X14347161Y-36591344D01*
X14401000Y-36862012D01*
X14401000Y-37137988D01*
X14373609Y-37275694D01*
X14358630Y-37351000D01*
X14347161Y-37408656D01*
X14241551Y-37663621D01*
X14241550Y-37663622D01*
X14088228Y-37893086D01*
X13893086Y-38088228D01*
X13739763Y-38190675D01*
X13663621Y-38241551D01*
X13514267Y-38303415D01*
X13408657Y-38347161D01*
X13318433Y-38365107D01*
X13137988Y-38401000D01*
X12862012Y-38401000D01*
X12681567Y-38365107D01*
X12591343Y-38347161D01*
X12485733Y-38303415D01*
X12336379Y-38241551D01*
X12260237Y-38190675D01*
X12106914Y-38088228D01*
X11911772Y-37893086D01*
X11758450Y-37663622D01*
X11758449Y-37663621D01*
X11652839Y-37408656D01*
X11641371Y-37351000D01*
X11626391Y-37275694D01*
X11599000Y-37137988D01*
X11599000Y-36862012D01*
X11652839Y-36591344D01*
X11758449Y-36336379D01*
X11809325Y-36260237D01*
X11911772Y-36106914D01*
X12106914Y-35911772D01*
X12336378Y-35758450D01*
X12336379Y-35758449D01*
X12485733Y-35696585D01*
X12591343Y-35652839D01*
X12681567Y-35634893D01*
X12862012Y-35599000D01*
X13137988Y-35599000D01*
X13318433Y-35634893D01*
X13318433Y-35634893D01*
G37*
G36*
X58118433Y-35634893D02*
G01*
X58208657Y-35652839D01*
X58314267Y-35696585D01*
X58463621Y-35758449D01*
X58463622Y-35758450D01*
X58693086Y-35911772D01*
X58888228Y-36106914D01*
X58990675Y-36260237D01*
X59041551Y-36336379D01*
X59147161Y-36591344D01*
X59201000Y-36862012D01*
X59201000Y-37137988D01*
X59173609Y-37275694D01*
X59158630Y-37351000D01*
X59147161Y-37408656D01*
X59041551Y-37663621D01*
X59041550Y-37663622D01*
X58888228Y-37893086D01*
X58693086Y-38088228D01*
X58539763Y-38190675D01*
X58463621Y-38241551D01*
X58314267Y-38303415D01*
X58208657Y-38347161D01*
X58118433Y-38365107D01*
X57937988Y-38401000D01*
X57662012Y-38401000D01*
X57481567Y-38365107D01*
X57391343Y-38347161D01*
X57285733Y-38303415D01*
X57136379Y-38241551D01*
X57060237Y-38190675D01*
X56906914Y-38088228D01*
X56711772Y-37893086D01*
X56558450Y-37663622D01*
X56558449Y-37663621D01*
X56452839Y-37408656D01*
X56441371Y-37351000D01*
X56426391Y-37275694D01*
X56399000Y-37137988D01*
X56399000Y-36862012D01*
X56452839Y-36591344D01*
X56558449Y-36336379D01*
X56609325Y-36260237D01*
X56711772Y-36106914D01*
X56906914Y-35911772D01*
X57136378Y-35758450D01*
X57136379Y-35758449D01*
X57285733Y-35696585D01*
X57391343Y-35652839D01*
X57481567Y-35634893D01*
X57662012Y-35599000D01*
X57937988Y-35599000D01*
X58118433Y-35634893D01*
X58118433Y-35634893D01*
G37*
G36*
X38496031Y-34664207D02*
G01*
X38694145Y-34724305D01*
X38694148Y-34724306D01*
X38760030Y-34759521D01*
X38876729Y-34821897D01*
X39036765Y-34953235D01*
X39168103Y-35113271D01*
X39168104Y-35113273D01*
X39265694Y-35295851D01*
X39265694Y-35295852D01*
X39265695Y-35295854D01*
X39325793Y-35493968D01*
X39341000Y-35648370D01*
X39341000Y-36351629D01*
X39325793Y-36506031D01*
X39299913Y-36591344D01*
X39265694Y-36704149D01*
X39199291Y-36828379D01*
X39168103Y-36886729D01*
X39036765Y-37046765D01*
X38876729Y-37178103D01*
X38790975Y-37223939D01*
X38694149Y-37275694D01*
X38694146Y-37275695D01*
X38496032Y-37335793D01*
X38290000Y-37356085D01*
X38083969Y-37335793D01*
X37885855Y-37275695D01*
X37885852Y-37275694D01*
X37789026Y-37223939D01*
X37703272Y-37178103D01*
X37543236Y-37046765D01*
X37411898Y-36886729D01*
X37389184Y-36844234D01*
X37314305Y-36704147D01*
X37273296Y-36568960D01*
X37254207Y-36506032D01*
X37239000Y-36351630D01*
X37239000Y-35648371D01*
X37254207Y-35493969D01*
X37314305Y-35295855D01*
X37314306Y-35295852D01*
X37349521Y-35229970D01*
X37411897Y-35113271D01*
X37543235Y-34953235D01*
X37703271Y-34821897D01*
X37789025Y-34776061D01*
X37885851Y-34724306D01*
X37885854Y-34724305D01*
X38083968Y-34664207D01*
X38290000Y-34643915D01*
X38496031Y-34664207D01*
X38496031Y-34664207D01*
G37*
G36*
X36801000Y-37351000D02*
G01*
X34699000Y-37351000D01*
X34699000Y-34649000D01*
X36801000Y-34649000D01*
X36801000Y-37351000D01*
X36801000Y-37351000D01*
G37*
G36*
X23690443Y-14105519D02*
G01*
X23756627Y-14112037D01*
X23926466Y-14163557D01*
X24082991Y-14247222D01*
X24118729Y-14276552D01*
X24220186Y-14359814D01*
X24303448Y-14461271D01*
X24332778Y-14497009D01*
X24416443Y-14653534D01*
X24467963Y-14823373D01*
X24485359Y-15000000D01*
X24467963Y-15176627D01*
X24416443Y-15346466D01*
X24332778Y-15502991D01*
X24303448Y-15538729D01*
X24220186Y-15640186D01*
X24118729Y-15723448D01*
X24082991Y-15752778D01*
X23926466Y-15836443D01*
X23756627Y-15887963D01*
X23690443Y-15894481D01*
X23624260Y-15901000D01*
X23535740Y-15901000D01*
X23469557Y-15894481D01*
X23403373Y-15887963D01*
X23233534Y-15836443D01*
X23077009Y-15752778D01*
X23041271Y-15723448D01*
X22939814Y-15640186D01*
X22856552Y-15538729D01*
X22827222Y-15502991D01*
X22743557Y-15346466D01*
X22692037Y-15176627D01*
X22674641Y-15000000D01*
X22692037Y-14823373D01*
X22743557Y-14653534D01*
X22827222Y-14497009D01*
X22856552Y-14461271D01*
X22939814Y-14359814D01*
X23041271Y-14276552D01*
X23077009Y-14247222D01*
X23233534Y-14163557D01*
X23403373Y-14112037D01*
X23469557Y-14105519D01*
X23535740Y-14099000D01*
X23624260Y-14099000D01*
X23690443Y-14105519D01*
X23690443Y-14105519D01*
G37*
G36*
X21150443Y-14105519D02*
G01*
X21216627Y-14112037D01*
X21386466Y-14163557D01*
X21542991Y-14247222D01*
X21578729Y-14276552D01*
X21680186Y-14359814D01*
X21763448Y-14461271D01*
X21792778Y-14497009D01*
X21876443Y-14653534D01*
X21927963Y-14823373D01*
X21945359Y-15000000D01*
X21927963Y-15176627D01*
X21876443Y-15346466D01*
X21792778Y-15502991D01*
X21763448Y-15538729D01*
X21680186Y-15640186D01*
X21578729Y-15723448D01*
X21542991Y-15752778D01*
X21386466Y-15836443D01*
X21216627Y-15887963D01*
X21150443Y-15894481D01*
X21084260Y-15901000D01*
X20995740Y-15901000D01*
X20929557Y-15894481D01*
X20863373Y-15887963D01*
X20693534Y-15836443D01*
X20537009Y-15752778D01*
X20501271Y-15723448D01*
X20399814Y-15640186D01*
X20316552Y-15538729D01*
X20287222Y-15502991D01*
X20203557Y-15346466D01*
X20152037Y-15176627D01*
X20134641Y-15000000D01*
X20152037Y-14823373D01*
X20203557Y-14653534D01*
X20287222Y-14497009D01*
X20316552Y-14461271D01*
X20399814Y-14359814D01*
X20501271Y-14276552D01*
X20537009Y-14247222D01*
X20693534Y-14163557D01*
X20863373Y-14112037D01*
X20929557Y-14105519D01*
X20995740Y-14099000D01*
X21084260Y-14099000D01*
X21150443Y-14105519D01*
X21150443Y-14105519D01*
G37*
G36*
X19401000Y-15901000D02*
G01*
X17599000Y-15901000D01*
X17599000Y-14099000D01*
X19401000Y-14099000D01*
X19401000Y-15901000D01*
X19401000Y-15901000D01*
G37*
G36*
X58118433Y-11634893D02*
G01*
X58208657Y-11652839D01*
X58314267Y-11696585D01*
X58463621Y-11758449D01*
X58463622Y-11758450D01*
X58693086Y-11911772D01*
X58888228Y-12106914D01*
X58892651Y-12113534D01*
X59041551Y-12336379D01*
X59147161Y-12591344D01*
X59201000Y-12862012D01*
X59201000Y-13137988D01*
X59147161Y-13408656D01*
X59041551Y-13663621D01*
X59041550Y-13663622D01*
X58888228Y-13893086D01*
X58693086Y-14088228D01*
X58580347Y-14163557D01*
X58463621Y-14241551D01*
X58314267Y-14303415D01*
X58208657Y-14347161D01*
X58145045Y-14359814D01*
X57937988Y-14401000D01*
X57662012Y-14401000D01*
X57454955Y-14359814D01*
X57391343Y-14347161D01*
X57285733Y-14303415D01*
X57136379Y-14241551D01*
X57019653Y-14163557D01*
X56906914Y-14088228D01*
X56711772Y-13893086D01*
X56558450Y-13663622D01*
X56558449Y-13663621D01*
X56452839Y-13408656D01*
X56399000Y-13137988D01*
X56399000Y-12862012D01*
X56452839Y-12591344D01*
X56558449Y-12336379D01*
X56707349Y-12113534D01*
X56711772Y-12106914D01*
X56906914Y-11911772D01*
X57136378Y-11758450D01*
X57136379Y-11758449D01*
X57285733Y-11696585D01*
X57391343Y-11652839D01*
X57481567Y-11634893D01*
X57662012Y-11599000D01*
X57937988Y-11599000D01*
X58118433Y-11634893D01*
X58118433Y-11634893D01*
G37*
G36*
X13318433Y-11634893D02*
G01*
X13408657Y-11652839D01*
X13514267Y-11696585D01*
X13663621Y-11758449D01*
X13663622Y-11758450D01*
X13893086Y-11911772D01*
X14088228Y-12106914D01*
X14092651Y-12113534D01*
X14241551Y-12336379D01*
X14347161Y-12591344D01*
X14401000Y-12862012D01*
X14401000Y-13137988D01*
X14347161Y-13408656D01*
X14241551Y-13663621D01*
X14241550Y-13663622D01*
X14088228Y-13893086D01*
X13893086Y-14088228D01*
X13780347Y-14163557D01*
X13663621Y-14241551D01*
X13514267Y-14303415D01*
X13408657Y-14347161D01*
X13345045Y-14359814D01*
X13137988Y-14401000D01*
X12862012Y-14401000D01*
X12654955Y-14359814D01*
X12591343Y-14347161D01*
X12485733Y-14303415D01*
X12336379Y-14241551D01*
X12219653Y-14163557D01*
X12106914Y-14088228D01*
X11911772Y-13893086D01*
X11758450Y-13663622D01*
X11758449Y-13663621D01*
X11652839Y-13408656D01*
X11599000Y-13137988D01*
X11599000Y-12862012D01*
X11652839Y-12591344D01*
X11758449Y-12336379D01*
X11907349Y-12113534D01*
X11911772Y-12106914D01*
X12106914Y-11911772D01*
X12336378Y-11758450D01*
X12336379Y-11758449D01*
X12485733Y-11696585D01*
X12591343Y-11652839D01*
X12681567Y-11634893D01*
X12862012Y-11599000D01*
X13137988Y-11599000D01*
X13318433Y-11634893D01*
X13318433Y-11634893D01*
G37*
G36*
X18610442Y-11565518D02*
G01*
X18676627Y-11572037D01*
X18846466Y-11623557D01*
X19002991Y-11707222D01*
X19038729Y-11736552D01*
X19140186Y-11819814D01*
X19215653Y-11911772D01*
X19252778Y-11957009D01*
X19336443Y-12113534D01*
X19387963Y-12283373D01*
X19405359Y-12460000D01*
X19387963Y-12636627D01*
X19336443Y-12806466D01*
X19252778Y-12962991D01*
X19223448Y-12998729D01*
X19140186Y-13100186D01*
X19038729Y-13183448D01*
X19002991Y-13212778D01*
X18846466Y-13296443D01*
X18676627Y-13347963D01*
X18610442Y-13354482D01*
X18544260Y-13361000D01*
X18455740Y-13361000D01*
X18389558Y-13354482D01*
X18323373Y-13347963D01*
X18153534Y-13296443D01*
X17997009Y-13212778D01*
X17961271Y-13183448D01*
X17859814Y-13100186D01*
X17776552Y-12998729D01*
X17747222Y-12962991D01*
X17663557Y-12806466D01*
X17612037Y-12636627D01*
X17594641Y-12460000D01*
X17612037Y-12283373D01*
X17663557Y-12113534D01*
X17747222Y-11957009D01*
X17784347Y-11911772D01*
X17859814Y-11819814D01*
X17961271Y-11736552D01*
X17997009Y-11707222D01*
X18153534Y-11623557D01*
X18323373Y-11572037D01*
X18389558Y-11565518D01*
X18455740Y-11559000D01*
X18544260Y-11559000D01*
X18610442Y-11565518D01*
X18610442Y-11565518D01*
G37*
G36*
X21150442Y-11565518D02*
G01*
X21216627Y-11572037D01*
X21386466Y-11623557D01*
X21542991Y-11707222D01*
X21578729Y-11736552D01*
X21680186Y-11819814D01*
X21755653Y-11911772D01*
X21792778Y-11957009D01*
X21876443Y-12113534D01*
X21927963Y-12283373D01*
X21945359Y-12460000D01*
X21927963Y-12636627D01*
X21876443Y-12806466D01*
X21792778Y-12962991D01*
X21763448Y-12998729D01*
X21680186Y-13100186D01*
X21578729Y-13183448D01*
X21542991Y-13212778D01*
X21386466Y-13296443D01*
X21216627Y-13347963D01*
X21150442Y-13354482D01*
X21084260Y-13361000D01*
X20995740Y-13361000D01*
X20929558Y-13354482D01*
X20863373Y-13347963D01*
X20693534Y-13296443D01*
X20537009Y-13212778D01*
X20501271Y-13183448D01*
X20399814Y-13100186D01*
X20316552Y-12998729D01*
X20287222Y-12962991D01*
X20203557Y-12806466D01*
X20152037Y-12636627D01*
X20134641Y-12460000D01*
X20152037Y-12283373D01*
X20203557Y-12113534D01*
X20287222Y-11957009D01*
X20324347Y-11911772D01*
X20399814Y-11819814D01*
X20501271Y-11736552D01*
X20537009Y-11707222D01*
X20693534Y-11623557D01*
X20863373Y-11572037D01*
X20929558Y-11565518D01*
X20995740Y-11559000D01*
X21084260Y-11559000D01*
X21150442Y-11565518D01*
X21150442Y-11565518D01*
G37*
G36*
X23690442Y-11565518D02*
G01*
X23756627Y-11572037D01*
X23926466Y-11623557D01*
X24082991Y-11707222D01*
X24118729Y-11736552D01*
X24220186Y-11819814D01*
X24295653Y-11911772D01*
X24332778Y-11957009D01*
X24416443Y-12113534D01*
X24467963Y-12283373D01*
X24485359Y-12460000D01*
X24467963Y-12636627D01*
X24416443Y-12806466D01*
X24332778Y-12962991D01*
X24303448Y-12998729D01*
X24220186Y-13100186D01*
X24118729Y-13183448D01*
X24082991Y-13212778D01*
X23926466Y-13296443D01*
X23756627Y-13347963D01*
X23690442Y-13354482D01*
X23624260Y-13361000D01*
X23535740Y-13361000D01*
X23469558Y-13354482D01*
X23403373Y-13347963D01*
X23233534Y-13296443D01*
X23077009Y-13212778D01*
X23041271Y-13183448D01*
X22939814Y-13100186D01*
X22856552Y-12998729D01*
X22827222Y-12962991D01*
X22743557Y-12806466D01*
X22692037Y-12636627D01*
X22674641Y-12460000D01*
X22692037Y-12283373D01*
X22743557Y-12113534D01*
X22827222Y-11957009D01*
X22864347Y-11911772D01*
X22939814Y-11819814D01*
X23041271Y-11736552D01*
X23077009Y-11707222D01*
X23233534Y-11623557D01*
X23403373Y-11572037D01*
X23469558Y-11565518D01*
X23535740Y-11559000D01*
X23624260Y-11559000D01*
X23690442Y-11565518D01*
X23690442Y-11565518D01*
G37*
M02*
