G04 #@! TF.GenerationSoftware,KiCad,Pcbnew,(5.1.4)-1*
G04 #@! TF.CreationDate,2019-11-11T11:41:27+05:30*
G04 #@! TF.ProjectId,senseEle_PCB_Antenna_rev1,73656e73-6545-46c6-955f-5043425f416e,rev?*
G04 #@! TF.SameCoordinates,Original*
G04 #@! TF.FileFunction,Copper,L2,Bot*
G04 #@! TF.FilePolarity,Positive*
%FSLAX46Y46*%
G04 Gerber Fmt 4.6, Leading zero omitted, Abs format (unit mm)*
G04 Created by KiCad (PCBNEW (5.1.4)-1) date 2019-11-11 11:41:27*
%MOMM*%
%LPD*%
G04 APERTURE LIST*
%ADD10R,2.000000X2.600000*%
%ADD11O,2.000000X2.600000*%
%ADD12R,1.700000X1.700000*%
%ADD13O,1.700000X1.700000*%
%ADD14C,0.800000*%
%ADD15C,0.250000*%
%ADD16C,0.254000*%
G04 APERTURE END LIST*
D10*
X35750000Y-36000000D03*
D11*
X38290000Y-36000000D03*
D12*
X18500000Y-15000000D03*
D13*
X18500000Y-12460000D03*
X21040000Y-15000000D03*
X21040000Y-12460000D03*
X23580000Y-15000000D03*
X23580000Y-12460000D03*
D14*
X10800000Y-31100000D03*
X10800000Y-31900000D03*
X11600000Y-31900000D03*
X11600000Y-31100000D03*
X10800000Y-18750000D03*
X23950000Y-20650000D03*
X23950000Y-19600000D03*
X23100000Y-19600000D03*
X23950000Y-29150000D03*
X23950000Y-30350000D03*
X22850000Y-30350000D03*
X10800000Y-27850000D03*
X10800000Y-26900000D03*
X11750000Y-27850000D03*
X11750000Y-26900000D03*
X14850000Y-27350000D03*
X17600000Y-24850000D03*
X20100000Y-24850000D03*
X18850000Y-27350000D03*
X14850000Y-22350000D03*
X18850000Y-22350000D03*
X45650000Y-25350000D03*
X35000000Y-15050000D03*
X52550000Y-16850000D03*
X49750000Y-20450000D03*
X56600000Y-16700000D03*
X49250000Y-24000000D03*
X39500000Y-22100000D03*
X44600000Y-23550000D03*
X30000000Y-38400000D03*
X43250000Y-26800000D03*
X53222353Y-20927647D03*
X54350000Y-19430030D03*
X58050000Y-18700000D03*
X53570020Y-27994980D03*
X57782500Y-27982500D03*
X53222353Y-23550000D03*
D15*
X10800000Y-31100000D02*
X10800000Y-31900000D01*
X11600000Y-31900000D02*
X11600000Y-31100000D01*
X23950000Y-19600000D02*
X23950000Y-20650000D01*
X23950000Y-29150000D02*
X23950000Y-30350000D01*
X10800000Y-27850000D02*
X10800000Y-26900000D01*
X11750000Y-27850000D02*
X11750000Y-26900000D01*
X11750000Y-26900000D02*
X14400000Y-26900000D01*
X14400000Y-26900000D02*
X14850000Y-27350000D01*
X14850000Y-27350000D02*
X17350000Y-24850000D01*
X17350000Y-24850000D02*
X17600000Y-24850000D01*
X17600000Y-24850000D02*
X20100000Y-24850000D01*
X20100000Y-24850000D02*
X20100000Y-26100000D01*
X20100000Y-26100000D02*
X18850000Y-27350000D01*
X17600000Y-24850000D02*
X15100000Y-22350000D01*
X15100000Y-22350000D02*
X14850000Y-22350000D01*
X20100000Y-24850000D02*
X20100000Y-23600000D01*
X20100000Y-23600000D02*
X18850000Y-22350000D01*
X39500000Y-22100000D02*
X43150000Y-22100000D01*
X43150000Y-22100000D02*
X44600000Y-23550000D01*
X30000000Y-38400000D02*
X30000000Y-30050000D01*
X30000000Y-30050000D02*
X33250000Y-26800000D01*
X33250000Y-26800000D02*
X43250000Y-26800000D01*
X24705001Y-18055001D02*
X22300000Y-15650000D01*
X30000000Y-38400000D02*
X24705001Y-33105001D01*
X24705001Y-33105001D02*
X24705001Y-18055001D01*
X22300000Y-13720000D02*
X21040000Y-12460000D01*
X22300000Y-15650000D02*
X22300000Y-13720000D01*
X43250000Y-24900000D02*
X44600000Y-23550000D01*
X43250000Y-26800000D02*
X43250000Y-24900000D01*
X53222353Y-20927647D02*
X53222353Y-20557677D01*
X53222353Y-20557677D02*
X54350000Y-19430030D01*
X54350000Y-19430030D02*
X57319970Y-19430030D01*
X57319970Y-19430030D02*
X58050000Y-18700000D01*
X53222353Y-27647313D02*
X53570020Y-27994980D01*
X57770020Y-27994980D02*
X57782500Y-27982500D01*
X53570020Y-27994980D02*
X57770020Y-27994980D01*
X53222353Y-22972353D02*
X53222353Y-27647313D01*
X53222353Y-20927647D02*
X53222353Y-21872353D01*
X53222353Y-21872353D02*
X53222353Y-22972353D01*
D16*
G36*
X59673000Y-12334766D02*
G01*
X59559085Y-12059750D01*
X59341851Y-11734636D01*
X59065364Y-11458149D01*
X58740250Y-11240915D01*
X58379003Y-11091282D01*
X57995505Y-11015000D01*
X57604495Y-11015000D01*
X57220997Y-11091282D01*
X56859750Y-11240915D01*
X56534636Y-11458149D01*
X56258149Y-11734636D01*
X56040915Y-12059750D01*
X55891282Y-12420997D01*
X55815000Y-12804495D01*
X55815000Y-13195505D01*
X55891282Y-13579003D01*
X56040915Y-13940250D01*
X56258149Y-14265364D01*
X56534636Y-14541851D01*
X56859750Y-14759085D01*
X57220997Y-14908718D01*
X57604495Y-14985000D01*
X57995505Y-14985000D01*
X58379003Y-14908718D01*
X58740250Y-14759085D01*
X59065364Y-14541851D01*
X59341851Y-14265364D01*
X59559085Y-13940250D01*
X59673000Y-13665234D01*
X59673000Y-36334766D01*
X59559085Y-36059750D01*
X59341851Y-35734636D01*
X59065364Y-35458149D01*
X58740250Y-35240915D01*
X58379003Y-35091282D01*
X57995505Y-35015000D01*
X57604495Y-35015000D01*
X57220997Y-35091282D01*
X56859750Y-35240915D01*
X56534636Y-35458149D01*
X56258149Y-35734636D01*
X56040915Y-36059750D01*
X55891282Y-36420997D01*
X55815000Y-36804495D01*
X55815000Y-37195505D01*
X55891282Y-37579003D01*
X56040915Y-37940250D01*
X56258149Y-38265364D01*
X56534636Y-38541851D01*
X56859750Y-38759085D01*
X57220997Y-38908718D01*
X57604495Y-38985000D01*
X57995505Y-38985000D01*
X58379003Y-38908718D01*
X58740250Y-38759085D01*
X59065364Y-38541851D01*
X59341851Y-38265364D01*
X59559085Y-37940250D01*
X59673000Y-37665234D01*
X59673000Y-39340000D01*
X30435224Y-39340000D01*
X30490256Y-39317205D01*
X30659774Y-39203937D01*
X30803937Y-39059774D01*
X30917205Y-38890256D01*
X30995226Y-38701898D01*
X31035000Y-38501939D01*
X31035000Y-38298061D01*
X30995226Y-38098102D01*
X30917205Y-37909744D01*
X30803937Y-37740226D01*
X30760000Y-37696289D01*
X30760000Y-34700000D01*
X34111928Y-34700000D01*
X34111928Y-37300000D01*
X34124188Y-37424482D01*
X34160498Y-37544180D01*
X34219463Y-37654494D01*
X34298815Y-37751185D01*
X34395506Y-37830537D01*
X34505820Y-37889502D01*
X34625518Y-37925812D01*
X34750000Y-37938072D01*
X36750000Y-37938072D01*
X36874482Y-37925812D01*
X36994180Y-37889502D01*
X37104494Y-37830537D01*
X37201185Y-37751185D01*
X37280537Y-37654494D01*
X37307338Y-37604353D01*
X37487239Y-37730010D01*
X37781645Y-37859144D01*
X37909566Y-37890124D01*
X38163000Y-37770777D01*
X38163000Y-36127000D01*
X38417000Y-36127000D01*
X38417000Y-37770777D01*
X38670434Y-37890124D01*
X38798355Y-37859144D01*
X39092761Y-37730010D01*
X39356317Y-37545922D01*
X39578895Y-37313954D01*
X39751942Y-37043020D01*
X39868807Y-36743532D01*
X39925000Y-36427000D01*
X39925000Y-36127000D01*
X38417000Y-36127000D01*
X38163000Y-36127000D01*
X38143000Y-36127000D01*
X38143000Y-35873000D01*
X38163000Y-35873000D01*
X38163000Y-34229223D01*
X38417000Y-34229223D01*
X38417000Y-35873000D01*
X39925000Y-35873000D01*
X39925000Y-35573000D01*
X39868807Y-35256468D01*
X39751942Y-34956980D01*
X39578895Y-34686046D01*
X39356317Y-34454078D01*
X39092761Y-34269990D01*
X38798355Y-34140856D01*
X38670434Y-34109876D01*
X38417000Y-34229223D01*
X38163000Y-34229223D01*
X37909566Y-34109876D01*
X37781645Y-34140856D01*
X37487239Y-34269990D01*
X37307338Y-34395647D01*
X37280537Y-34345506D01*
X37201185Y-34248815D01*
X37104494Y-34169463D01*
X36994180Y-34110498D01*
X36874482Y-34074188D01*
X36750000Y-34061928D01*
X34750000Y-34061928D01*
X34625518Y-34074188D01*
X34505820Y-34110498D01*
X34395506Y-34169463D01*
X34298815Y-34248815D01*
X34219463Y-34345506D01*
X34160498Y-34455820D01*
X34124188Y-34575518D01*
X34111928Y-34700000D01*
X30760000Y-34700000D01*
X30760000Y-30364801D01*
X33564802Y-27560000D01*
X42546289Y-27560000D01*
X42590226Y-27603937D01*
X42759744Y-27717205D01*
X42948102Y-27795226D01*
X43148061Y-27835000D01*
X43351939Y-27835000D01*
X43551898Y-27795226D01*
X43740256Y-27717205D01*
X43909774Y-27603937D01*
X44053937Y-27459774D01*
X44167205Y-27290256D01*
X44245226Y-27101898D01*
X44285000Y-26901939D01*
X44285000Y-26698061D01*
X44245226Y-26498102D01*
X44167205Y-26309744D01*
X44053937Y-26140226D01*
X44010000Y-26096289D01*
X44010000Y-25214801D01*
X44639802Y-24585000D01*
X44701939Y-24585000D01*
X44901898Y-24545226D01*
X45090256Y-24467205D01*
X45259774Y-24353937D01*
X45403937Y-24209774D01*
X45517205Y-24040256D01*
X45595226Y-23851898D01*
X45635000Y-23651939D01*
X45635000Y-23448061D01*
X45595226Y-23248102D01*
X45517205Y-23059744D01*
X45403937Y-22890226D01*
X45259774Y-22746063D01*
X45090256Y-22632795D01*
X44901898Y-22554774D01*
X44701939Y-22515000D01*
X44639802Y-22515000D01*
X43713804Y-21589003D01*
X43690001Y-21559999D01*
X43574276Y-21465026D01*
X43442247Y-21394454D01*
X43298986Y-21350997D01*
X43187333Y-21340000D01*
X43187322Y-21340000D01*
X43150000Y-21336324D01*
X43112678Y-21340000D01*
X40203711Y-21340000D01*
X40159774Y-21296063D01*
X39990256Y-21182795D01*
X39801898Y-21104774D01*
X39601939Y-21065000D01*
X39398061Y-21065000D01*
X39198102Y-21104774D01*
X39009744Y-21182795D01*
X38840226Y-21296063D01*
X38696063Y-21440226D01*
X38582795Y-21609744D01*
X38504774Y-21798102D01*
X38465000Y-21998061D01*
X38465000Y-22201939D01*
X38504774Y-22401898D01*
X38582795Y-22590256D01*
X38696063Y-22759774D01*
X38840226Y-22903937D01*
X39009744Y-23017205D01*
X39198102Y-23095226D01*
X39398061Y-23135000D01*
X39601939Y-23135000D01*
X39801898Y-23095226D01*
X39990256Y-23017205D01*
X40159774Y-22903937D01*
X40203711Y-22860000D01*
X42835199Y-22860000D01*
X43525198Y-23550000D01*
X42738998Y-24336201D01*
X42710000Y-24359999D01*
X42686202Y-24388997D01*
X42686201Y-24388998D01*
X42615026Y-24475724D01*
X42544454Y-24607754D01*
X42500998Y-24751015D01*
X42486324Y-24900000D01*
X42490001Y-24937332D01*
X42490000Y-26040000D01*
X33287322Y-26040000D01*
X33249999Y-26036324D01*
X33212676Y-26040000D01*
X33212667Y-26040000D01*
X33101014Y-26050997D01*
X32957753Y-26094454D01*
X32825723Y-26165026D01*
X32742083Y-26233668D01*
X32709999Y-26259999D01*
X32686201Y-26288997D01*
X29488998Y-29486201D01*
X29460000Y-29509999D01*
X29436202Y-29538997D01*
X29436201Y-29538998D01*
X29365026Y-29625724D01*
X29294454Y-29757754D01*
X29250998Y-29901015D01*
X29236324Y-30050000D01*
X29240001Y-30087332D01*
X29240000Y-36565198D01*
X25465001Y-32790200D01*
X25465001Y-20825708D01*
X52187353Y-20825708D01*
X52187353Y-21029586D01*
X52227127Y-21229545D01*
X52305148Y-21417903D01*
X52418416Y-21587421D01*
X52462354Y-21631359D01*
X52462354Y-21835012D01*
X52462353Y-21835021D01*
X52462354Y-22846288D01*
X52418416Y-22890226D01*
X52305148Y-23059744D01*
X52227127Y-23248102D01*
X52187353Y-23448061D01*
X52187353Y-23651939D01*
X52227127Y-23851898D01*
X52305148Y-24040256D01*
X52418416Y-24209774D01*
X52462353Y-24253711D01*
X52462354Y-27609981D01*
X52458677Y-27647313D01*
X52473351Y-27796298D01*
X52516807Y-27939559D01*
X52535020Y-27973633D01*
X52535020Y-28096919D01*
X52574794Y-28296878D01*
X52652815Y-28485236D01*
X52766083Y-28654754D01*
X52910246Y-28798917D01*
X53079764Y-28912185D01*
X53268122Y-28990206D01*
X53468081Y-29029980D01*
X53671959Y-29029980D01*
X53871918Y-28990206D01*
X54060276Y-28912185D01*
X54229794Y-28798917D01*
X54273731Y-28754980D01*
X57091269Y-28754980D01*
X57122726Y-28786437D01*
X57292244Y-28899705D01*
X57480602Y-28977726D01*
X57680561Y-29017500D01*
X57884439Y-29017500D01*
X58084398Y-28977726D01*
X58272756Y-28899705D01*
X58442274Y-28786437D01*
X58586437Y-28642274D01*
X58699705Y-28472756D01*
X58777726Y-28284398D01*
X58817500Y-28084439D01*
X58817500Y-27880561D01*
X58777726Y-27680602D01*
X58699705Y-27492244D01*
X58586437Y-27322726D01*
X58442274Y-27178563D01*
X58272756Y-27065295D01*
X58084398Y-26987274D01*
X57884439Y-26947500D01*
X57680561Y-26947500D01*
X57480602Y-26987274D01*
X57292244Y-27065295D01*
X57122726Y-27178563D01*
X57066309Y-27234980D01*
X54273731Y-27234980D01*
X54229794Y-27191043D01*
X54060276Y-27077775D01*
X53982353Y-27045498D01*
X53982353Y-24253711D01*
X54026290Y-24209774D01*
X54139558Y-24040256D01*
X54217579Y-23851898D01*
X54257353Y-23651939D01*
X54257353Y-23448061D01*
X54217579Y-23248102D01*
X54139558Y-23059744D01*
X54026290Y-22890226D01*
X53982353Y-22846289D01*
X53982353Y-21631358D01*
X54026290Y-21587421D01*
X54139558Y-21417903D01*
X54217579Y-21229545D01*
X54257353Y-21029586D01*
X54257353Y-20825708D01*
X54219488Y-20635344D01*
X54389802Y-20465030D01*
X54451939Y-20465030D01*
X54651898Y-20425256D01*
X54840256Y-20347235D01*
X55009774Y-20233967D01*
X55053711Y-20190030D01*
X57282648Y-20190030D01*
X57319970Y-20193706D01*
X57357292Y-20190030D01*
X57357303Y-20190030D01*
X57468956Y-20179033D01*
X57612217Y-20135576D01*
X57744246Y-20065004D01*
X57859971Y-19970031D01*
X57883773Y-19941028D01*
X58089801Y-19735000D01*
X58151939Y-19735000D01*
X58351898Y-19695226D01*
X58540256Y-19617205D01*
X58709774Y-19503937D01*
X58853937Y-19359774D01*
X58967205Y-19190256D01*
X59045226Y-19001898D01*
X59085000Y-18801939D01*
X59085000Y-18598061D01*
X59045226Y-18398102D01*
X58967205Y-18209744D01*
X58853937Y-18040226D01*
X58709774Y-17896063D01*
X58540256Y-17782795D01*
X58351898Y-17704774D01*
X58151939Y-17665000D01*
X57948061Y-17665000D01*
X57748102Y-17704774D01*
X57559744Y-17782795D01*
X57390226Y-17896063D01*
X57246063Y-18040226D01*
X57132795Y-18209744D01*
X57054774Y-18398102D01*
X57015000Y-18598061D01*
X57015000Y-18660199D01*
X57005169Y-18670030D01*
X55053711Y-18670030D01*
X55009774Y-18626093D01*
X54840256Y-18512825D01*
X54651898Y-18434804D01*
X54451939Y-18395030D01*
X54248061Y-18395030D01*
X54048102Y-18434804D01*
X53859744Y-18512825D01*
X53690226Y-18626093D01*
X53546063Y-18770256D01*
X53432795Y-18939774D01*
X53354774Y-19128132D01*
X53315000Y-19328091D01*
X53315000Y-19390228D01*
X52711354Y-19993875D01*
X52682352Y-20017676D01*
X52635099Y-20075254D01*
X52562579Y-20123710D01*
X52418416Y-20267873D01*
X52305148Y-20437391D01*
X52227127Y-20625749D01*
X52187353Y-20825708D01*
X25465001Y-20825708D01*
X25465001Y-18092323D01*
X25468677Y-18055000D01*
X25465001Y-18017677D01*
X25465001Y-18017668D01*
X25454004Y-17906015D01*
X25410547Y-17762754D01*
X25358296Y-17665000D01*
X25339975Y-17630724D01*
X25268800Y-17543998D01*
X25245002Y-17515000D01*
X25216004Y-17491202D01*
X24114487Y-16389685D01*
X24151034Y-16378599D01*
X24409014Y-16240706D01*
X24635134Y-16055134D01*
X24820706Y-15829014D01*
X24958599Y-15571034D01*
X25043513Y-15291111D01*
X25072185Y-15000000D01*
X25043513Y-14708889D01*
X24958599Y-14428966D01*
X24820706Y-14170986D01*
X24635134Y-13944866D01*
X24409014Y-13759294D01*
X24351244Y-13728416D01*
X24580269Y-13557588D01*
X24775178Y-13341355D01*
X24924157Y-13091252D01*
X25021481Y-12816891D01*
X24900814Y-12587000D01*
X23707000Y-12587000D01*
X23707000Y-12607000D01*
X23453000Y-12607000D01*
X23453000Y-12587000D01*
X23433000Y-12587000D01*
X23433000Y-12333000D01*
X23453000Y-12333000D01*
X23453000Y-11139845D01*
X23707000Y-11139845D01*
X23707000Y-12333000D01*
X24900814Y-12333000D01*
X25021481Y-12103109D01*
X24924157Y-11828748D01*
X24775178Y-11578645D01*
X24580269Y-11362412D01*
X24346920Y-11188359D01*
X24084099Y-11063175D01*
X23936890Y-11018524D01*
X23707000Y-11139845D01*
X23453000Y-11139845D01*
X23223110Y-11018524D01*
X23075901Y-11063175D01*
X22813080Y-11188359D01*
X22579731Y-11362412D01*
X22384822Y-11578645D01*
X22315201Y-11695523D01*
X22280706Y-11630986D01*
X22095134Y-11404866D01*
X21869014Y-11219294D01*
X21611034Y-11081401D01*
X21331111Y-10996487D01*
X21112950Y-10975000D01*
X20967050Y-10975000D01*
X20748889Y-10996487D01*
X20468966Y-11081401D01*
X20210986Y-11219294D01*
X19984866Y-11404866D01*
X19799294Y-11630986D01*
X19770000Y-11685791D01*
X19740706Y-11630986D01*
X19555134Y-11404866D01*
X19329014Y-11219294D01*
X19071034Y-11081401D01*
X18791111Y-10996487D01*
X18572950Y-10975000D01*
X18427050Y-10975000D01*
X18208889Y-10996487D01*
X17928966Y-11081401D01*
X17670986Y-11219294D01*
X17444866Y-11404866D01*
X17259294Y-11630986D01*
X17121401Y-11888966D01*
X17036487Y-12168889D01*
X17007815Y-12460000D01*
X17036487Y-12751111D01*
X17121401Y-13031034D01*
X17259294Y-13289014D01*
X17444866Y-13515134D01*
X17474687Y-13539607D01*
X17405820Y-13560498D01*
X17295506Y-13619463D01*
X17198815Y-13698815D01*
X17119463Y-13795506D01*
X17060498Y-13905820D01*
X17024188Y-14025518D01*
X17011928Y-14150000D01*
X17011928Y-15850000D01*
X17024188Y-15974482D01*
X17060498Y-16094180D01*
X17119463Y-16204494D01*
X17198815Y-16301185D01*
X17295506Y-16380537D01*
X17405820Y-16439502D01*
X17525518Y-16475812D01*
X17650000Y-16488072D01*
X19350000Y-16488072D01*
X19474482Y-16475812D01*
X19594180Y-16439502D01*
X19704494Y-16380537D01*
X19801185Y-16301185D01*
X19880537Y-16204494D01*
X19939502Y-16094180D01*
X19960393Y-16025313D01*
X19984866Y-16055134D01*
X20210986Y-16240706D01*
X20468966Y-16378599D01*
X20748889Y-16463513D01*
X20967050Y-16485000D01*
X21112950Y-16485000D01*
X21331111Y-16463513D01*
X21611034Y-16378599D01*
X21834404Y-16259205D01*
X23945002Y-18369804D01*
X23945001Y-33067679D01*
X23941325Y-33105001D01*
X23945001Y-33142323D01*
X23945001Y-33142333D01*
X23955998Y-33253986D01*
X23999455Y-33397247D01*
X24070027Y-33529277D01*
X24109872Y-33577827D01*
X24165000Y-33645002D01*
X24194004Y-33668805D01*
X28965000Y-38439803D01*
X28965000Y-38501939D01*
X29004774Y-38701898D01*
X29082795Y-38890256D01*
X29196063Y-39059774D01*
X29340226Y-39203937D01*
X29509744Y-39317205D01*
X29564776Y-39340000D01*
X10927000Y-39340000D01*
X10927000Y-36804495D01*
X11015000Y-36804495D01*
X11015000Y-37195505D01*
X11091282Y-37579003D01*
X11240915Y-37940250D01*
X11458149Y-38265364D01*
X11734636Y-38541851D01*
X12059750Y-38759085D01*
X12420997Y-38908718D01*
X12804495Y-38985000D01*
X13195505Y-38985000D01*
X13579003Y-38908718D01*
X13940250Y-38759085D01*
X14265364Y-38541851D01*
X14541851Y-38265364D01*
X14759085Y-37940250D01*
X14908718Y-37579003D01*
X14985000Y-37195505D01*
X14985000Y-36804495D01*
X14908718Y-36420997D01*
X14759085Y-36059750D01*
X14541851Y-35734636D01*
X14265364Y-35458149D01*
X13940250Y-35240915D01*
X13579003Y-35091282D01*
X13195505Y-35015000D01*
X12804495Y-35015000D01*
X12420997Y-35091282D01*
X12059750Y-35240915D01*
X11734636Y-35458149D01*
X11458149Y-35734636D01*
X11240915Y-36059750D01*
X11091282Y-36420997D01*
X11015000Y-36804495D01*
X10927000Y-36804495D01*
X10927000Y-26027000D01*
X13600000Y-26027000D01*
X13624776Y-26024560D01*
X13648601Y-26017333D01*
X13670557Y-26005597D01*
X13689803Y-25989803D01*
X13705597Y-25970557D01*
X13717333Y-25948601D01*
X13724560Y-25924776D01*
X13727000Y-25900000D01*
X13727000Y-21050000D01*
X13724560Y-21025224D01*
X13717333Y-21001399D01*
X13705597Y-20979443D01*
X13689803Y-20960197D01*
X13670557Y-20944403D01*
X13648601Y-20932667D01*
X13624776Y-20925440D01*
X13600000Y-20923000D01*
X10927000Y-20923000D01*
X10927000Y-12804495D01*
X11015000Y-12804495D01*
X11015000Y-13195505D01*
X11091282Y-13579003D01*
X11240915Y-13940250D01*
X11458149Y-14265364D01*
X11734636Y-14541851D01*
X12059750Y-14759085D01*
X12420997Y-14908718D01*
X12804495Y-14985000D01*
X13195505Y-14985000D01*
X13579003Y-14908718D01*
X13940250Y-14759085D01*
X14265364Y-14541851D01*
X14541851Y-14265364D01*
X14759085Y-13940250D01*
X14908718Y-13579003D01*
X14985000Y-13195505D01*
X14985000Y-12804495D01*
X14908718Y-12420997D01*
X14759085Y-12059750D01*
X14541851Y-11734636D01*
X14265364Y-11458149D01*
X13940250Y-11240915D01*
X13579003Y-11091282D01*
X13195505Y-11015000D01*
X12804495Y-11015000D01*
X12420997Y-11091282D01*
X12059750Y-11240915D01*
X11734636Y-11458149D01*
X11458149Y-11734636D01*
X11240915Y-12059750D01*
X11091282Y-12420997D01*
X11015000Y-12804495D01*
X10927000Y-12804495D01*
X10927000Y-10660000D01*
X59673000Y-10660000D01*
X59673000Y-12334766D01*
X59673000Y-12334766D01*
G37*
X59673000Y-12334766D02*
X59559085Y-12059750D01*
X59341851Y-11734636D01*
X59065364Y-11458149D01*
X58740250Y-11240915D01*
X58379003Y-11091282D01*
X57995505Y-11015000D01*
X57604495Y-11015000D01*
X57220997Y-11091282D01*
X56859750Y-11240915D01*
X56534636Y-11458149D01*
X56258149Y-11734636D01*
X56040915Y-12059750D01*
X55891282Y-12420997D01*
X55815000Y-12804495D01*
X55815000Y-13195505D01*
X55891282Y-13579003D01*
X56040915Y-13940250D01*
X56258149Y-14265364D01*
X56534636Y-14541851D01*
X56859750Y-14759085D01*
X57220997Y-14908718D01*
X57604495Y-14985000D01*
X57995505Y-14985000D01*
X58379003Y-14908718D01*
X58740250Y-14759085D01*
X59065364Y-14541851D01*
X59341851Y-14265364D01*
X59559085Y-13940250D01*
X59673000Y-13665234D01*
X59673000Y-36334766D01*
X59559085Y-36059750D01*
X59341851Y-35734636D01*
X59065364Y-35458149D01*
X58740250Y-35240915D01*
X58379003Y-35091282D01*
X57995505Y-35015000D01*
X57604495Y-35015000D01*
X57220997Y-35091282D01*
X56859750Y-35240915D01*
X56534636Y-35458149D01*
X56258149Y-35734636D01*
X56040915Y-36059750D01*
X55891282Y-36420997D01*
X55815000Y-36804495D01*
X55815000Y-37195505D01*
X55891282Y-37579003D01*
X56040915Y-37940250D01*
X56258149Y-38265364D01*
X56534636Y-38541851D01*
X56859750Y-38759085D01*
X57220997Y-38908718D01*
X57604495Y-38985000D01*
X57995505Y-38985000D01*
X58379003Y-38908718D01*
X58740250Y-38759085D01*
X59065364Y-38541851D01*
X59341851Y-38265364D01*
X59559085Y-37940250D01*
X59673000Y-37665234D01*
X59673000Y-39340000D01*
X30435224Y-39340000D01*
X30490256Y-39317205D01*
X30659774Y-39203937D01*
X30803937Y-39059774D01*
X30917205Y-38890256D01*
X30995226Y-38701898D01*
X31035000Y-38501939D01*
X31035000Y-38298061D01*
X30995226Y-38098102D01*
X30917205Y-37909744D01*
X30803937Y-37740226D01*
X30760000Y-37696289D01*
X30760000Y-34700000D01*
X34111928Y-34700000D01*
X34111928Y-37300000D01*
X34124188Y-37424482D01*
X34160498Y-37544180D01*
X34219463Y-37654494D01*
X34298815Y-37751185D01*
X34395506Y-37830537D01*
X34505820Y-37889502D01*
X34625518Y-37925812D01*
X34750000Y-37938072D01*
X36750000Y-37938072D01*
X36874482Y-37925812D01*
X36994180Y-37889502D01*
X37104494Y-37830537D01*
X37201185Y-37751185D01*
X37280537Y-37654494D01*
X37307338Y-37604353D01*
X37487239Y-37730010D01*
X37781645Y-37859144D01*
X37909566Y-37890124D01*
X38163000Y-37770777D01*
X38163000Y-36127000D01*
X38417000Y-36127000D01*
X38417000Y-37770777D01*
X38670434Y-37890124D01*
X38798355Y-37859144D01*
X39092761Y-37730010D01*
X39356317Y-37545922D01*
X39578895Y-37313954D01*
X39751942Y-37043020D01*
X39868807Y-36743532D01*
X39925000Y-36427000D01*
X39925000Y-36127000D01*
X38417000Y-36127000D01*
X38163000Y-36127000D01*
X38143000Y-36127000D01*
X38143000Y-35873000D01*
X38163000Y-35873000D01*
X38163000Y-34229223D01*
X38417000Y-34229223D01*
X38417000Y-35873000D01*
X39925000Y-35873000D01*
X39925000Y-35573000D01*
X39868807Y-35256468D01*
X39751942Y-34956980D01*
X39578895Y-34686046D01*
X39356317Y-34454078D01*
X39092761Y-34269990D01*
X38798355Y-34140856D01*
X38670434Y-34109876D01*
X38417000Y-34229223D01*
X38163000Y-34229223D01*
X37909566Y-34109876D01*
X37781645Y-34140856D01*
X37487239Y-34269990D01*
X37307338Y-34395647D01*
X37280537Y-34345506D01*
X37201185Y-34248815D01*
X37104494Y-34169463D01*
X36994180Y-34110498D01*
X36874482Y-34074188D01*
X36750000Y-34061928D01*
X34750000Y-34061928D01*
X34625518Y-34074188D01*
X34505820Y-34110498D01*
X34395506Y-34169463D01*
X34298815Y-34248815D01*
X34219463Y-34345506D01*
X34160498Y-34455820D01*
X34124188Y-34575518D01*
X34111928Y-34700000D01*
X30760000Y-34700000D01*
X30760000Y-30364801D01*
X33564802Y-27560000D01*
X42546289Y-27560000D01*
X42590226Y-27603937D01*
X42759744Y-27717205D01*
X42948102Y-27795226D01*
X43148061Y-27835000D01*
X43351939Y-27835000D01*
X43551898Y-27795226D01*
X43740256Y-27717205D01*
X43909774Y-27603937D01*
X44053937Y-27459774D01*
X44167205Y-27290256D01*
X44245226Y-27101898D01*
X44285000Y-26901939D01*
X44285000Y-26698061D01*
X44245226Y-26498102D01*
X44167205Y-26309744D01*
X44053937Y-26140226D01*
X44010000Y-26096289D01*
X44010000Y-25214801D01*
X44639802Y-24585000D01*
X44701939Y-24585000D01*
X44901898Y-24545226D01*
X45090256Y-24467205D01*
X45259774Y-24353937D01*
X45403937Y-24209774D01*
X45517205Y-24040256D01*
X45595226Y-23851898D01*
X45635000Y-23651939D01*
X45635000Y-23448061D01*
X45595226Y-23248102D01*
X45517205Y-23059744D01*
X45403937Y-22890226D01*
X45259774Y-22746063D01*
X45090256Y-22632795D01*
X44901898Y-22554774D01*
X44701939Y-22515000D01*
X44639802Y-22515000D01*
X43713804Y-21589003D01*
X43690001Y-21559999D01*
X43574276Y-21465026D01*
X43442247Y-21394454D01*
X43298986Y-21350997D01*
X43187333Y-21340000D01*
X43187322Y-21340000D01*
X43150000Y-21336324D01*
X43112678Y-21340000D01*
X40203711Y-21340000D01*
X40159774Y-21296063D01*
X39990256Y-21182795D01*
X39801898Y-21104774D01*
X39601939Y-21065000D01*
X39398061Y-21065000D01*
X39198102Y-21104774D01*
X39009744Y-21182795D01*
X38840226Y-21296063D01*
X38696063Y-21440226D01*
X38582795Y-21609744D01*
X38504774Y-21798102D01*
X38465000Y-21998061D01*
X38465000Y-22201939D01*
X38504774Y-22401898D01*
X38582795Y-22590256D01*
X38696063Y-22759774D01*
X38840226Y-22903937D01*
X39009744Y-23017205D01*
X39198102Y-23095226D01*
X39398061Y-23135000D01*
X39601939Y-23135000D01*
X39801898Y-23095226D01*
X39990256Y-23017205D01*
X40159774Y-22903937D01*
X40203711Y-22860000D01*
X42835199Y-22860000D01*
X43525198Y-23550000D01*
X42738998Y-24336201D01*
X42710000Y-24359999D01*
X42686202Y-24388997D01*
X42686201Y-24388998D01*
X42615026Y-24475724D01*
X42544454Y-24607754D01*
X42500998Y-24751015D01*
X42486324Y-24900000D01*
X42490001Y-24937332D01*
X42490000Y-26040000D01*
X33287322Y-26040000D01*
X33249999Y-26036324D01*
X33212676Y-26040000D01*
X33212667Y-26040000D01*
X33101014Y-26050997D01*
X32957753Y-26094454D01*
X32825723Y-26165026D01*
X32742083Y-26233668D01*
X32709999Y-26259999D01*
X32686201Y-26288997D01*
X29488998Y-29486201D01*
X29460000Y-29509999D01*
X29436202Y-29538997D01*
X29436201Y-29538998D01*
X29365026Y-29625724D01*
X29294454Y-29757754D01*
X29250998Y-29901015D01*
X29236324Y-30050000D01*
X29240001Y-30087332D01*
X29240000Y-36565198D01*
X25465001Y-32790200D01*
X25465001Y-20825708D01*
X52187353Y-20825708D01*
X52187353Y-21029586D01*
X52227127Y-21229545D01*
X52305148Y-21417903D01*
X52418416Y-21587421D01*
X52462354Y-21631359D01*
X52462354Y-21835012D01*
X52462353Y-21835021D01*
X52462354Y-22846288D01*
X52418416Y-22890226D01*
X52305148Y-23059744D01*
X52227127Y-23248102D01*
X52187353Y-23448061D01*
X52187353Y-23651939D01*
X52227127Y-23851898D01*
X52305148Y-24040256D01*
X52418416Y-24209774D01*
X52462353Y-24253711D01*
X52462354Y-27609981D01*
X52458677Y-27647313D01*
X52473351Y-27796298D01*
X52516807Y-27939559D01*
X52535020Y-27973633D01*
X52535020Y-28096919D01*
X52574794Y-28296878D01*
X52652815Y-28485236D01*
X52766083Y-28654754D01*
X52910246Y-28798917D01*
X53079764Y-28912185D01*
X53268122Y-28990206D01*
X53468081Y-29029980D01*
X53671959Y-29029980D01*
X53871918Y-28990206D01*
X54060276Y-28912185D01*
X54229794Y-28798917D01*
X54273731Y-28754980D01*
X57091269Y-28754980D01*
X57122726Y-28786437D01*
X57292244Y-28899705D01*
X57480602Y-28977726D01*
X57680561Y-29017500D01*
X57884439Y-29017500D01*
X58084398Y-28977726D01*
X58272756Y-28899705D01*
X58442274Y-28786437D01*
X58586437Y-28642274D01*
X58699705Y-28472756D01*
X58777726Y-28284398D01*
X58817500Y-28084439D01*
X58817500Y-27880561D01*
X58777726Y-27680602D01*
X58699705Y-27492244D01*
X58586437Y-27322726D01*
X58442274Y-27178563D01*
X58272756Y-27065295D01*
X58084398Y-26987274D01*
X57884439Y-26947500D01*
X57680561Y-26947500D01*
X57480602Y-26987274D01*
X57292244Y-27065295D01*
X57122726Y-27178563D01*
X57066309Y-27234980D01*
X54273731Y-27234980D01*
X54229794Y-27191043D01*
X54060276Y-27077775D01*
X53982353Y-27045498D01*
X53982353Y-24253711D01*
X54026290Y-24209774D01*
X54139558Y-24040256D01*
X54217579Y-23851898D01*
X54257353Y-23651939D01*
X54257353Y-23448061D01*
X54217579Y-23248102D01*
X54139558Y-23059744D01*
X54026290Y-22890226D01*
X53982353Y-22846289D01*
X53982353Y-21631358D01*
X54026290Y-21587421D01*
X54139558Y-21417903D01*
X54217579Y-21229545D01*
X54257353Y-21029586D01*
X54257353Y-20825708D01*
X54219488Y-20635344D01*
X54389802Y-20465030D01*
X54451939Y-20465030D01*
X54651898Y-20425256D01*
X54840256Y-20347235D01*
X55009774Y-20233967D01*
X55053711Y-20190030D01*
X57282648Y-20190030D01*
X57319970Y-20193706D01*
X57357292Y-20190030D01*
X57357303Y-20190030D01*
X57468956Y-20179033D01*
X57612217Y-20135576D01*
X57744246Y-20065004D01*
X57859971Y-19970031D01*
X57883773Y-19941028D01*
X58089801Y-19735000D01*
X58151939Y-19735000D01*
X58351898Y-19695226D01*
X58540256Y-19617205D01*
X58709774Y-19503937D01*
X58853937Y-19359774D01*
X58967205Y-19190256D01*
X59045226Y-19001898D01*
X59085000Y-18801939D01*
X59085000Y-18598061D01*
X59045226Y-18398102D01*
X58967205Y-18209744D01*
X58853937Y-18040226D01*
X58709774Y-17896063D01*
X58540256Y-17782795D01*
X58351898Y-17704774D01*
X58151939Y-17665000D01*
X57948061Y-17665000D01*
X57748102Y-17704774D01*
X57559744Y-17782795D01*
X57390226Y-17896063D01*
X57246063Y-18040226D01*
X57132795Y-18209744D01*
X57054774Y-18398102D01*
X57015000Y-18598061D01*
X57015000Y-18660199D01*
X57005169Y-18670030D01*
X55053711Y-18670030D01*
X55009774Y-18626093D01*
X54840256Y-18512825D01*
X54651898Y-18434804D01*
X54451939Y-18395030D01*
X54248061Y-18395030D01*
X54048102Y-18434804D01*
X53859744Y-18512825D01*
X53690226Y-18626093D01*
X53546063Y-18770256D01*
X53432795Y-18939774D01*
X53354774Y-19128132D01*
X53315000Y-19328091D01*
X53315000Y-19390228D01*
X52711354Y-19993875D01*
X52682352Y-20017676D01*
X52635099Y-20075254D01*
X52562579Y-20123710D01*
X52418416Y-20267873D01*
X52305148Y-20437391D01*
X52227127Y-20625749D01*
X52187353Y-20825708D01*
X25465001Y-20825708D01*
X25465001Y-18092323D01*
X25468677Y-18055000D01*
X25465001Y-18017677D01*
X25465001Y-18017668D01*
X25454004Y-17906015D01*
X25410547Y-17762754D01*
X25358296Y-17665000D01*
X25339975Y-17630724D01*
X25268800Y-17543998D01*
X25245002Y-17515000D01*
X25216004Y-17491202D01*
X24114487Y-16389685D01*
X24151034Y-16378599D01*
X24409014Y-16240706D01*
X24635134Y-16055134D01*
X24820706Y-15829014D01*
X24958599Y-15571034D01*
X25043513Y-15291111D01*
X25072185Y-15000000D01*
X25043513Y-14708889D01*
X24958599Y-14428966D01*
X24820706Y-14170986D01*
X24635134Y-13944866D01*
X24409014Y-13759294D01*
X24351244Y-13728416D01*
X24580269Y-13557588D01*
X24775178Y-13341355D01*
X24924157Y-13091252D01*
X25021481Y-12816891D01*
X24900814Y-12587000D01*
X23707000Y-12587000D01*
X23707000Y-12607000D01*
X23453000Y-12607000D01*
X23453000Y-12587000D01*
X23433000Y-12587000D01*
X23433000Y-12333000D01*
X23453000Y-12333000D01*
X23453000Y-11139845D01*
X23707000Y-11139845D01*
X23707000Y-12333000D01*
X24900814Y-12333000D01*
X25021481Y-12103109D01*
X24924157Y-11828748D01*
X24775178Y-11578645D01*
X24580269Y-11362412D01*
X24346920Y-11188359D01*
X24084099Y-11063175D01*
X23936890Y-11018524D01*
X23707000Y-11139845D01*
X23453000Y-11139845D01*
X23223110Y-11018524D01*
X23075901Y-11063175D01*
X22813080Y-11188359D01*
X22579731Y-11362412D01*
X22384822Y-11578645D01*
X22315201Y-11695523D01*
X22280706Y-11630986D01*
X22095134Y-11404866D01*
X21869014Y-11219294D01*
X21611034Y-11081401D01*
X21331111Y-10996487D01*
X21112950Y-10975000D01*
X20967050Y-10975000D01*
X20748889Y-10996487D01*
X20468966Y-11081401D01*
X20210986Y-11219294D01*
X19984866Y-11404866D01*
X19799294Y-11630986D01*
X19770000Y-11685791D01*
X19740706Y-11630986D01*
X19555134Y-11404866D01*
X19329014Y-11219294D01*
X19071034Y-11081401D01*
X18791111Y-10996487D01*
X18572950Y-10975000D01*
X18427050Y-10975000D01*
X18208889Y-10996487D01*
X17928966Y-11081401D01*
X17670986Y-11219294D01*
X17444866Y-11404866D01*
X17259294Y-11630986D01*
X17121401Y-11888966D01*
X17036487Y-12168889D01*
X17007815Y-12460000D01*
X17036487Y-12751111D01*
X17121401Y-13031034D01*
X17259294Y-13289014D01*
X17444866Y-13515134D01*
X17474687Y-13539607D01*
X17405820Y-13560498D01*
X17295506Y-13619463D01*
X17198815Y-13698815D01*
X17119463Y-13795506D01*
X17060498Y-13905820D01*
X17024188Y-14025518D01*
X17011928Y-14150000D01*
X17011928Y-15850000D01*
X17024188Y-15974482D01*
X17060498Y-16094180D01*
X17119463Y-16204494D01*
X17198815Y-16301185D01*
X17295506Y-16380537D01*
X17405820Y-16439502D01*
X17525518Y-16475812D01*
X17650000Y-16488072D01*
X19350000Y-16488072D01*
X19474482Y-16475812D01*
X19594180Y-16439502D01*
X19704494Y-16380537D01*
X19801185Y-16301185D01*
X19880537Y-16204494D01*
X19939502Y-16094180D01*
X19960393Y-16025313D01*
X19984866Y-16055134D01*
X20210986Y-16240706D01*
X20468966Y-16378599D01*
X20748889Y-16463513D01*
X20967050Y-16485000D01*
X21112950Y-16485000D01*
X21331111Y-16463513D01*
X21611034Y-16378599D01*
X21834404Y-16259205D01*
X23945002Y-18369804D01*
X23945001Y-33067679D01*
X23941325Y-33105001D01*
X23945001Y-33142323D01*
X23945001Y-33142333D01*
X23955998Y-33253986D01*
X23999455Y-33397247D01*
X24070027Y-33529277D01*
X24109872Y-33577827D01*
X24165000Y-33645002D01*
X24194004Y-33668805D01*
X28965000Y-38439803D01*
X28965000Y-38501939D01*
X29004774Y-38701898D01*
X29082795Y-38890256D01*
X29196063Y-39059774D01*
X29340226Y-39203937D01*
X29509744Y-39317205D01*
X29564776Y-39340000D01*
X10927000Y-39340000D01*
X10927000Y-36804495D01*
X11015000Y-36804495D01*
X11015000Y-37195505D01*
X11091282Y-37579003D01*
X11240915Y-37940250D01*
X11458149Y-38265364D01*
X11734636Y-38541851D01*
X12059750Y-38759085D01*
X12420997Y-38908718D01*
X12804495Y-38985000D01*
X13195505Y-38985000D01*
X13579003Y-38908718D01*
X13940250Y-38759085D01*
X14265364Y-38541851D01*
X14541851Y-38265364D01*
X14759085Y-37940250D01*
X14908718Y-37579003D01*
X14985000Y-37195505D01*
X14985000Y-36804495D01*
X14908718Y-36420997D01*
X14759085Y-36059750D01*
X14541851Y-35734636D01*
X14265364Y-35458149D01*
X13940250Y-35240915D01*
X13579003Y-35091282D01*
X13195505Y-35015000D01*
X12804495Y-35015000D01*
X12420997Y-35091282D01*
X12059750Y-35240915D01*
X11734636Y-35458149D01*
X11458149Y-35734636D01*
X11240915Y-36059750D01*
X11091282Y-36420997D01*
X11015000Y-36804495D01*
X10927000Y-36804495D01*
X10927000Y-26027000D01*
X13600000Y-26027000D01*
X13624776Y-26024560D01*
X13648601Y-26017333D01*
X13670557Y-26005597D01*
X13689803Y-25989803D01*
X13705597Y-25970557D01*
X13717333Y-25948601D01*
X13724560Y-25924776D01*
X13727000Y-25900000D01*
X13727000Y-21050000D01*
X13724560Y-21025224D01*
X13717333Y-21001399D01*
X13705597Y-20979443D01*
X13689803Y-20960197D01*
X13670557Y-20944403D01*
X13648601Y-20932667D01*
X13624776Y-20925440D01*
X13600000Y-20923000D01*
X10927000Y-20923000D01*
X10927000Y-12804495D01*
X11015000Y-12804495D01*
X11015000Y-13195505D01*
X11091282Y-13579003D01*
X11240915Y-13940250D01*
X11458149Y-14265364D01*
X11734636Y-14541851D01*
X12059750Y-14759085D01*
X12420997Y-14908718D01*
X12804495Y-14985000D01*
X13195505Y-14985000D01*
X13579003Y-14908718D01*
X13940250Y-14759085D01*
X14265364Y-14541851D01*
X14541851Y-14265364D01*
X14759085Y-13940250D01*
X14908718Y-13579003D01*
X14985000Y-13195505D01*
X14985000Y-12804495D01*
X14908718Y-12420997D01*
X14759085Y-12059750D01*
X14541851Y-11734636D01*
X14265364Y-11458149D01*
X13940250Y-11240915D01*
X13579003Y-11091282D01*
X13195505Y-11015000D01*
X12804495Y-11015000D01*
X12420997Y-11091282D01*
X12059750Y-11240915D01*
X11734636Y-11458149D01*
X11458149Y-11734636D01*
X11240915Y-12059750D01*
X11091282Y-12420997D01*
X11015000Y-12804495D01*
X10927000Y-12804495D01*
X10927000Y-10660000D01*
X59673000Y-10660000D01*
X59673000Y-12334766D01*
M02*
