%TF.GenerationSoftware,KiCad,Pcbnew,8.0.6*%
%TF.CreationDate,2024-11-12T13:07:58+05:30*%
%TF.ProjectId,SensePi_yashpal,53656e73-6550-4695-9f79-61736870616c,rev?*%
%TF.SameCoordinates,Original*%
%TF.FileFunction,Copper,L2,Bot*%
%TF.FilePolarity,Positive*%
%FSLAX46Y46*%
G04 Gerber Fmt 4.6, Leading zero omitted, Abs format (unit mm)*
G04 Created by KiCad (PCBNEW 8.0.6) date 2024-11-12 13:07:58*
%MOMM*%
%LPD*%
G01*
G04 APERTURE LIST*
%TA.AperFunction,NonConductor*%
%ADD10C,0.300000*%
%TD*%
%TA.AperFunction,NonConductor*%
%ADD11C,0.000000*%
%TD*%
%TA.AperFunction,ViaPad*%
%ADD12C,0.300010*%
%TD*%
%TA.AperFunction,ViaPad*%
%ADD13C,0.350010*%
%TD*%
%TA.AperFunction,ViaPad*%
%ADD14C,0.950010*%
%TD*%
%TA.AperFunction,ViaPad*%
%ADD15C,0.600000*%
%TD*%
%TA.AperFunction,ViaPad*%
%ADD16C,1.200010*%
%TD*%
%TA.AperFunction,ViaPad*%
%ADD17C,1.300000*%
%TD*%
%TA.AperFunction,ViaPad*%
%ADD18C,3.200010*%
%TD*%
%TA.AperFunction,Conductor*%
%ADD19C,0.254000*%
%TD*%
%TA.AperFunction,Conductor*%
%ADD20C,0.250000*%
%TD*%
G04 APERTURE END LIST*
D10*
X155398610Y-109858790D02*
G75*
G02*
X155098610Y-109858790I-150000J0D01*
G01*
X155098610Y-109858790D02*
G75*
G02*
X155398610Y-109858790I150000J0D01*
G01*
X140548500Y-115951000D02*
G75*
G02*
X140248500Y-115951000I-150000J0D01*
G01*
X140248500Y-115951000D02*
G75*
G02*
X140548500Y-115951000I150000J0D01*
G01*
X162384880Y-95727520D02*
G75*
G02*
X162084880Y-95727520I-150000J0D01*
G01*
X162084880Y-95727520D02*
G75*
G02*
X162384880Y-95727520I150000J0D01*
G01*
X140164960Y-95275400D02*
G75*
G02*
X139864960Y-95275400I-150000J0D01*
G01*
X139864960Y-95275400D02*
G75*
G02*
X140164960Y-95275400I150000J0D01*
G01*
D11*
%TA.AperFunction,NonConductor*%
G36*
X157024810Y-115615090D02*
G01*
X157107330Y-115627330D01*
X157188240Y-115647600D01*
X157266780Y-115675700D01*
X157342190Y-115711370D01*
X157413730Y-115754250D01*
X157480730Y-115803940D01*
X157542540Y-115859960D01*
X157598560Y-115921770D01*
X157648250Y-115988770D01*
X157691130Y-116060310D01*
X157726800Y-116135720D01*
X157754900Y-116214260D01*
X157775170Y-116295170D01*
X157787410Y-116377690D01*
X157791500Y-116461000D01*
X157791500Y-116586000D01*
X157791500Y-116711000D01*
X157787410Y-116794310D01*
X157775170Y-116876830D01*
X157754900Y-116957740D01*
X157726800Y-117036280D01*
X157691130Y-117111690D01*
X157648250Y-117183230D01*
X157598560Y-117250230D01*
X157542540Y-117312040D01*
X157480730Y-117368060D01*
X157413730Y-117417750D01*
X157342190Y-117460630D01*
X157266780Y-117496300D01*
X157188240Y-117524400D01*
X157107330Y-117544670D01*
X157024810Y-117556910D01*
X156941500Y-117561000D01*
X156858190Y-117556910D01*
X156775670Y-117544670D01*
X156694760Y-117524400D01*
X156616220Y-117496300D01*
X156540810Y-117460630D01*
X156469270Y-117417750D01*
X156402270Y-117368060D01*
X156340460Y-117312040D01*
X156284440Y-117250230D01*
X156234750Y-117183230D01*
X156191870Y-117111690D01*
X156156200Y-117036280D01*
X156128100Y-116957740D01*
X156107830Y-116876830D01*
X156095590Y-116794310D01*
X156091500Y-116711000D01*
X156091500Y-116461000D01*
X156095590Y-116377690D01*
X156107830Y-116295170D01*
X156128100Y-116214260D01*
X156156200Y-116135720D01*
X156191870Y-116060310D01*
X156234750Y-115988770D01*
X156284440Y-115921770D01*
X156340460Y-115859960D01*
X156402270Y-115803940D01*
X156469270Y-115754250D01*
X156540810Y-115711370D01*
X156616220Y-115675700D01*
X156694760Y-115647600D01*
X156775670Y-115627330D01*
X156858190Y-115615090D01*
X156941500Y-115611000D01*
X157024810Y-115615090D01*
G37*
%TD.AperFunction*%
D10*
X136121280Y-117078760D02*
G75*
G02*
X135821280Y-117078760I-150000J0D01*
G01*
X135821280Y-117078760D02*
G75*
G02*
X136121280Y-117078760I150000J0D01*
G01*
X140424040Y-110342680D02*
G75*
G02*
X140124040Y-110342680I-150000J0D01*
G01*
X140124040Y-110342680D02*
G75*
G02*
X140424040Y-110342680I150000J0D01*
G01*
D11*
%TA.AperFunction,NonConductor*%
G36*
X139598020Y-126094820D02*
G01*
X139695090Y-126109210D01*
X139790280Y-126133060D01*
X139882680Y-126166120D01*
X139971400Y-126208080D01*
X140055570Y-126258530D01*
X140134390Y-126316990D01*
X140207110Y-126382890D01*
X140273010Y-126455610D01*
X140331470Y-126534430D01*
X140381920Y-126618600D01*
X140423880Y-126707320D01*
X140456940Y-126799720D01*
X140480790Y-126894910D01*
X140495180Y-126991980D01*
X140500000Y-127090000D01*
X140500000Y-127390000D01*
X140500000Y-127690000D01*
X140495180Y-127788020D01*
X140480790Y-127885090D01*
X140456940Y-127980280D01*
X140423880Y-128072680D01*
X140381920Y-128161400D01*
X140331470Y-128245570D01*
X140273010Y-128324390D01*
X140207110Y-128397110D01*
X140134390Y-128463010D01*
X140055570Y-128521470D01*
X139971400Y-128571920D01*
X139882680Y-128613880D01*
X139790280Y-128646940D01*
X139695090Y-128670790D01*
X139598020Y-128685180D01*
X139500000Y-128690000D01*
X139401980Y-128685180D01*
X139304910Y-128670790D01*
X139209720Y-128646940D01*
X139117320Y-128613880D01*
X139028600Y-128571920D01*
X138944430Y-128521470D01*
X138865610Y-128463010D01*
X138792890Y-128397110D01*
X138726990Y-128324390D01*
X138668530Y-128245570D01*
X138618080Y-128161400D01*
X138576120Y-128072680D01*
X138543060Y-127980280D01*
X138519210Y-127885090D01*
X138504820Y-127788020D01*
X138500000Y-127690000D01*
X138500000Y-127090000D01*
X138504820Y-126991980D01*
X138519210Y-126894910D01*
X138543060Y-126799720D01*
X138576120Y-126707320D01*
X138618080Y-126618600D01*
X138668530Y-126534430D01*
X138726990Y-126455610D01*
X138792890Y-126382890D01*
X138865610Y-126316990D01*
X138944430Y-126258530D01*
X139028600Y-126208080D01*
X139117320Y-126166120D01*
X139209720Y-126133060D01*
X139304910Y-126109210D01*
X139401980Y-126094820D01*
X139500000Y-126090000D01*
X139598020Y-126094820D01*
G37*
%TD.AperFunction*%
D10*
X139072760Y-90906600D02*
G75*
G02*
X138772760Y-90906600I-150000J0D01*
G01*
X138772760Y-90906600D02*
G75*
G02*
X139072760Y-90906600I150000J0D01*
G01*
D11*
%TA.AperFunction,NonConductor*%
G36*
X159524810Y-115615090D02*
G01*
X159607330Y-115627330D01*
X159688240Y-115647600D01*
X159766780Y-115675700D01*
X159842190Y-115711370D01*
X159913730Y-115754250D01*
X159980730Y-115803940D01*
X160042540Y-115859960D01*
X160098560Y-115921770D01*
X160148250Y-115988770D01*
X160191130Y-116060310D01*
X160226800Y-116135720D01*
X160254900Y-116214260D01*
X160275170Y-116295170D01*
X160287410Y-116377690D01*
X160291500Y-116461000D01*
X160291500Y-116586000D01*
X160291500Y-116711000D01*
X160287410Y-116794310D01*
X160275170Y-116876830D01*
X160254900Y-116957740D01*
X160226800Y-117036280D01*
X160191130Y-117111690D01*
X160148250Y-117183230D01*
X160098560Y-117250230D01*
X160042540Y-117312040D01*
X159980730Y-117368060D01*
X159913730Y-117417750D01*
X159842190Y-117460630D01*
X159766780Y-117496300D01*
X159688240Y-117524400D01*
X159607330Y-117544670D01*
X159524810Y-117556910D01*
X159441500Y-117561000D01*
X159358190Y-117556910D01*
X159275670Y-117544670D01*
X159194760Y-117524400D01*
X159116220Y-117496300D01*
X159040810Y-117460630D01*
X158969270Y-117417750D01*
X158902270Y-117368060D01*
X158840460Y-117312040D01*
X158784440Y-117250230D01*
X158734750Y-117183230D01*
X158691870Y-117111690D01*
X158656200Y-117036280D01*
X158628100Y-116957740D01*
X158607830Y-116876830D01*
X158595590Y-116794310D01*
X158591500Y-116711000D01*
X158591500Y-116461000D01*
X158595590Y-116377690D01*
X158607830Y-116295170D01*
X158628100Y-116214260D01*
X158656200Y-116135720D01*
X158691870Y-116060310D01*
X158734750Y-115988770D01*
X158784440Y-115921770D01*
X158840460Y-115859960D01*
X158902270Y-115803940D01*
X158969270Y-115754250D01*
X159040810Y-115711370D01*
X159116220Y-115675700D01*
X159194760Y-115647600D01*
X159275670Y-115627330D01*
X159358190Y-115615090D01*
X159441500Y-115611000D01*
X159524810Y-115615090D01*
G37*
%TD.AperFunction*%
%TA.AperFunction,NonConductor*%
G36*
X140010000Y-83880000D02*
G01*
X138010000Y-83880000D01*
X138010000Y-81280000D01*
X140010000Y-81280000D01*
X140010000Y-83880000D01*
G37*
%TD.AperFunction*%
D10*
X137721150Y-96943850D02*
G75*
G02*
X137421150Y-96943850I-150000J0D01*
G01*
X137421150Y-96943850D02*
G75*
G02*
X137721150Y-96943850I150000J0D01*
G01*
X162384880Y-96413320D02*
G75*
G02*
X162084880Y-96413320I-150000J0D01*
G01*
X162084880Y-96413320D02*
G75*
G02*
X162384880Y-96413320I150000J0D01*
G01*
X138910000Y-87502800D02*
G75*
G02*
X138610000Y-87502800I-150000J0D01*
G01*
X138610000Y-87502800D02*
G75*
G02*
X138910000Y-87502800I150000J0D01*
G01*
X142961500Y-122936000D02*
G75*
G02*
X142661500Y-122936000I-150000J0D01*
G01*
X142661500Y-122936000D02*
G75*
G02*
X142961500Y-122936000I150000J0D01*
G01*
X162405200Y-90459560D02*
G75*
G02*
X162105200Y-90459560I-150000J0D01*
G01*
X162105200Y-90459560D02*
G75*
G02*
X162405200Y-90459560I150000J0D01*
G01*
D11*
%TA.AperFunction,NonConductor*%
G36*
X109300000Y-105000000D02*
G01*
X106700000Y-105000000D01*
X106700000Y-103000000D01*
X109300000Y-103000000D01*
X109300000Y-105000000D01*
G37*
%TD.AperFunction*%
%TA.AperFunction,NonConductor*%
G36*
X142138020Y-126094820D02*
G01*
X142235090Y-126109210D01*
X142330280Y-126133060D01*
X142422680Y-126166120D01*
X142511400Y-126208080D01*
X142595570Y-126258530D01*
X142674390Y-126316990D01*
X142747110Y-126382890D01*
X142813010Y-126455610D01*
X142871470Y-126534430D01*
X142921920Y-126618600D01*
X142963880Y-126707320D01*
X142996940Y-126799720D01*
X143020790Y-126894910D01*
X143035180Y-126991980D01*
X143040000Y-127090000D01*
X143040000Y-127390000D01*
X143040000Y-127690000D01*
X143035180Y-127788020D01*
X143020790Y-127885090D01*
X142996940Y-127980280D01*
X142963880Y-128072680D01*
X142921920Y-128161400D01*
X142871470Y-128245570D01*
X142813010Y-128324390D01*
X142747110Y-128397110D01*
X142674390Y-128463010D01*
X142595570Y-128521470D01*
X142511400Y-128571920D01*
X142422680Y-128613880D01*
X142330280Y-128646940D01*
X142235090Y-128670790D01*
X142138020Y-128685180D01*
X142040000Y-128690000D01*
X141941980Y-128685180D01*
X141844910Y-128670790D01*
X141749720Y-128646940D01*
X141657320Y-128613880D01*
X141568600Y-128571920D01*
X141484430Y-128521470D01*
X141405610Y-128463010D01*
X141332890Y-128397110D01*
X141266990Y-128324390D01*
X141208530Y-128245570D01*
X141158080Y-128161400D01*
X141116120Y-128072680D01*
X141083060Y-127980280D01*
X141059210Y-127885090D01*
X141044820Y-127788020D01*
X141040000Y-127690000D01*
X141040000Y-127090000D01*
X141044820Y-126991980D01*
X141059210Y-126894910D01*
X141083060Y-126799720D01*
X141116120Y-126707320D01*
X141158080Y-126618600D01*
X141208530Y-126534430D01*
X141266990Y-126455610D01*
X141332890Y-126382890D01*
X141405610Y-126316990D01*
X141484430Y-126258530D01*
X141568600Y-126208080D01*
X141657320Y-126166120D01*
X141749720Y-126133060D01*
X141844910Y-126109210D01*
X141941980Y-126094820D01*
X142040000Y-126090000D01*
X142138020Y-126094820D01*
G37*
%TD.AperFunction*%
%TA.AperFunction,NonConductor*%
G36*
X137058020Y-126094820D02*
G01*
X137155090Y-126109210D01*
X137250280Y-126133060D01*
X137342680Y-126166120D01*
X137431400Y-126208080D01*
X137515570Y-126258530D01*
X137594390Y-126316990D01*
X137667110Y-126382890D01*
X137733010Y-126455610D01*
X137791470Y-126534430D01*
X137841920Y-126618600D01*
X137883880Y-126707320D01*
X137916940Y-126799720D01*
X137940790Y-126894910D01*
X137955180Y-126991980D01*
X137960000Y-127090000D01*
X137960000Y-127390000D01*
X137960000Y-127690000D01*
X137955180Y-127788020D01*
X137940790Y-127885090D01*
X137916940Y-127980280D01*
X137883880Y-128072680D01*
X137841920Y-128161400D01*
X137791470Y-128245570D01*
X137733010Y-128324390D01*
X137667110Y-128397110D01*
X137594390Y-128463010D01*
X137515570Y-128521470D01*
X137431400Y-128571920D01*
X137342680Y-128613880D01*
X137250280Y-128646940D01*
X137155090Y-128670790D01*
X137058020Y-128685180D01*
X136960000Y-128690000D01*
X136861980Y-128685180D01*
X136764910Y-128670790D01*
X136669720Y-128646940D01*
X136577320Y-128613880D01*
X136488600Y-128571920D01*
X136404430Y-128521470D01*
X136325610Y-128463010D01*
X136252890Y-128397110D01*
X136186990Y-128324390D01*
X136128530Y-128245570D01*
X136078080Y-128161400D01*
X136036120Y-128072680D01*
X136003060Y-127980280D01*
X135979210Y-127885090D01*
X135964820Y-127788020D01*
X135960000Y-127690000D01*
X135960000Y-127090000D01*
X135964820Y-126991980D01*
X135979210Y-126894910D01*
X136003060Y-126799720D01*
X136036120Y-126707320D01*
X136078080Y-126618600D01*
X136128530Y-126534430D01*
X136186990Y-126455610D01*
X136252890Y-126382890D01*
X136325610Y-126316990D01*
X136404430Y-126258530D01*
X136488600Y-126208080D01*
X136577320Y-126166120D01*
X136669720Y-126133060D01*
X136764910Y-126109210D01*
X136861980Y-126094820D01*
X136960000Y-126090000D01*
X137058020Y-126094820D01*
G37*
%TD.AperFunction*%
D10*
X148506320Y-109169200D02*
G75*
G02*
X148206320Y-109169200I-150000J0D01*
G01*
X148206320Y-109169200D02*
G75*
G02*
X148506320Y-109169200I150000J0D01*
G01*
D11*
%TA.AperFunction,NonConductor*%
G36*
X164524810Y-115615090D02*
G01*
X164607330Y-115627330D01*
X164688240Y-115647600D01*
X164766780Y-115675700D01*
X164842190Y-115711370D01*
X164913730Y-115754250D01*
X164980730Y-115803940D01*
X165042540Y-115859960D01*
X165098560Y-115921770D01*
X165148250Y-115988770D01*
X165191130Y-116060310D01*
X165226800Y-116135720D01*
X165254900Y-116214260D01*
X165275170Y-116295170D01*
X165287410Y-116377690D01*
X165291500Y-116461000D01*
X165291500Y-116586000D01*
X165291500Y-116711000D01*
X165287410Y-116794310D01*
X165275170Y-116876830D01*
X165254900Y-116957740D01*
X165226800Y-117036280D01*
X165191130Y-117111690D01*
X165148250Y-117183230D01*
X165098560Y-117250230D01*
X165042540Y-117312040D01*
X164980730Y-117368060D01*
X164913730Y-117417750D01*
X164842190Y-117460630D01*
X164766780Y-117496300D01*
X164688240Y-117524400D01*
X164607330Y-117544670D01*
X164524810Y-117556910D01*
X164441500Y-117561000D01*
X164358190Y-117556910D01*
X164275670Y-117544670D01*
X164194760Y-117524400D01*
X164116220Y-117496300D01*
X164040810Y-117460630D01*
X163969270Y-117417750D01*
X163902270Y-117368060D01*
X163840460Y-117312040D01*
X163784440Y-117250230D01*
X163734750Y-117183230D01*
X163691870Y-117111690D01*
X163656200Y-117036280D01*
X163628100Y-116957740D01*
X163607830Y-116876830D01*
X163595590Y-116794310D01*
X163591500Y-116711000D01*
X163591500Y-116461000D01*
X163595590Y-116377690D01*
X163607830Y-116295170D01*
X163628100Y-116214260D01*
X163656200Y-116135720D01*
X163691870Y-116060310D01*
X163734750Y-115988770D01*
X163784440Y-115921770D01*
X163840460Y-115859960D01*
X163902270Y-115803940D01*
X163969270Y-115754250D01*
X164040810Y-115711370D01*
X164116220Y-115675700D01*
X164194760Y-115647600D01*
X164275670Y-115627330D01*
X164358190Y-115615090D01*
X164441500Y-115611000D01*
X164524810Y-115615090D01*
G37*
%TD.AperFunction*%
%TA.AperFunction,NonConductor*%
G36*
X168073000Y-81028950D02*
G01*
X168058670Y-81019370D01*
X167651930Y-80850890D01*
X167220130Y-80765000D01*
X166779870Y-80765000D01*
X166348080Y-80850890D01*
X165941330Y-81019370D01*
X165575270Y-81263960D01*
X165263960Y-81575270D01*
X165019370Y-81941330D01*
X164850890Y-82348080D01*
X164765000Y-82779870D01*
X164765000Y-83220130D01*
X164850890Y-83651930D01*
X165019370Y-84058670D01*
X165263960Y-84424730D01*
X165575270Y-84736040D01*
X165941330Y-84980630D01*
X166348080Y-85149110D01*
X166779870Y-85235000D01*
X167220130Y-85235000D01*
X167651930Y-85149110D01*
X168058670Y-84980630D01*
X168073000Y-84971060D01*
X168073000Y-104473000D01*
X165100000Y-104473000D01*
X165075220Y-104475440D01*
X165051400Y-104482670D01*
X165029440Y-104494400D01*
X165010200Y-104510200D01*
X164994400Y-104529440D01*
X164982670Y-104551400D01*
X164975440Y-104575220D01*
X164973000Y-104600000D01*
X164973000Y-108900000D01*
X164975440Y-108924780D01*
X164982670Y-108948600D01*
X164994400Y-108970560D01*
X165010200Y-108989800D01*
X165029440Y-109005600D01*
X165051400Y-109017330D01*
X165075220Y-109024560D01*
X165100000Y-109027000D01*
X168073000Y-109027000D01*
X168073000Y-115153870D01*
X168034890Y-115122600D01*
X167881350Y-115040530D01*
X167714750Y-114989990D01*
X167541500Y-114972930D01*
X166341500Y-114972930D01*
X166168250Y-114989990D01*
X166001650Y-115040530D01*
X165848110Y-115122600D01*
X165713540Y-115233040D01*
X165603100Y-115367610D01*
X165548720Y-115469340D01*
X165496630Y-115405870D01*
X165270510Y-115220290D01*
X165012530Y-115082400D01*
X164732610Y-114997490D01*
X164441500Y-114968820D01*
X164150390Y-114997490D01*
X163870470Y-115082400D01*
X163612490Y-115220290D01*
X163386370Y-115405870D01*
X163200790Y-115631990D01*
X163191500Y-115649370D01*
X163182210Y-115631990D01*
X162996630Y-115405870D01*
X162770510Y-115220290D01*
X162512530Y-115082400D01*
X162232610Y-114997490D01*
X161941500Y-114968820D01*
X161650390Y-114997490D01*
X161370470Y-115082400D01*
X161112490Y-115220290D01*
X160886370Y-115405870D01*
X160700790Y-115631990D01*
X160691500Y-115649370D01*
X160682210Y-115631990D01*
X160496630Y-115405870D01*
X160270510Y-115220290D01*
X160012530Y-115082400D01*
X159732610Y-114997490D01*
X159441500Y-114968820D01*
X159150390Y-114997490D01*
X158870470Y-115082400D01*
X158612490Y-115220290D01*
X158386370Y-115405870D01*
X158200790Y-115631990D01*
X158191500Y-115649370D01*
X158182210Y-115631990D01*
X157996630Y-115405870D01*
X157770510Y-115220290D01*
X157512530Y-115082400D01*
X157232610Y-114997490D01*
X156941500Y-114968820D01*
X156650390Y-114997490D01*
X156370470Y-115082400D01*
X156112490Y-115220290D01*
X155886370Y-115405870D01*
X155700790Y-115631990D01*
X155687040Y-115657720D01*
X155530550Y-115451570D01*
X155312690Y-115258500D01*
X155061360Y-115111650D01*
X154798390Y-115019520D01*
X154568500Y-115140850D01*
X154568500Y-116459000D01*
X154588500Y-116459000D01*
X154588500Y-116713000D01*
X154568500Y-116713000D01*
X154568500Y-118031160D01*
X154798390Y-118152480D01*
X155061360Y-118060350D01*
X155312690Y-117913500D01*
X155530550Y-117720430D01*
X155687040Y-117514280D01*
X155700790Y-117540010D01*
X155886370Y-117766130D01*
X156112490Y-117951710D01*
X156370470Y-118089600D01*
X156650390Y-118174510D01*
X156941500Y-118203190D01*
X157232610Y-118174510D01*
X157512530Y-118089600D01*
X157770510Y-117951710D01*
X157996630Y-117766130D01*
X158182210Y-117540010D01*
X158191500Y-117522630D01*
X158200790Y-117540010D01*
X158386370Y-117766130D01*
X158612490Y-117951710D01*
X158870470Y-118089600D01*
X159150390Y-118174510D01*
X159441500Y-118203190D01*
X159732610Y-118174510D01*
X160012530Y-118089600D01*
X160270510Y-117951710D01*
X160496630Y-117766130D01*
X160682210Y-117540010D01*
X160691500Y-117522630D01*
X160700790Y-117540010D01*
X160886370Y-117766130D01*
X161112490Y-117951710D01*
X161370470Y-118089600D01*
X161650390Y-118174510D01*
X161941500Y-118203190D01*
X162232610Y-118174510D01*
X162512530Y-118089600D01*
X162770510Y-117951710D01*
X162996630Y-117766130D01*
X163182210Y-117540010D01*
X163191500Y-117522630D01*
X163200790Y-117540010D01*
X163386370Y-117766130D01*
X163612490Y-117951710D01*
X163870470Y-118089600D01*
X164150390Y-118174510D01*
X164441500Y-118203190D01*
X164732610Y-118174510D01*
X165012530Y-118089600D01*
X165270510Y-117951710D01*
X165496630Y-117766130D01*
X165548720Y-117702660D01*
X165603100Y-117804390D01*
X165713540Y-117938960D01*
X165848110Y-118049410D01*
X166001650Y-118131470D01*
X166168250Y-118182010D01*
X166341500Y-118199070D01*
X167541500Y-118199070D01*
X167714750Y-118182010D01*
X167881350Y-118131470D01*
X168034890Y-118049410D01*
X168073000Y-118018130D01*
X168073000Y-125028950D01*
X168058670Y-125019370D01*
X167651930Y-124850890D01*
X167220130Y-124765000D01*
X166779870Y-124765000D01*
X166348080Y-124850890D01*
X165941330Y-125019370D01*
X165575270Y-125263960D01*
X165263960Y-125575270D01*
X165019370Y-125941330D01*
X164850890Y-126348080D01*
X164765000Y-126779870D01*
X164765000Y-127220130D01*
X164850890Y-127651930D01*
X165019370Y-128058670D01*
X165263960Y-128424730D01*
X165575270Y-128736040D01*
X165941330Y-128980630D01*
X166348080Y-129149110D01*
X166779870Y-129235000D01*
X167220130Y-129235000D01*
X167651930Y-129149110D01*
X168058670Y-128980630D01*
X168073000Y-128971060D01*
X168073000Y-130290000D01*
X104710000Y-130290000D01*
X104710000Y-127220130D01*
X106765000Y-127220130D01*
X106850890Y-127651930D01*
X107019370Y-128058670D01*
X107263960Y-128424730D01*
X107575270Y-128736040D01*
X107941330Y-128980630D01*
X108348080Y-129149110D01*
X108779870Y-129235000D01*
X109220130Y-129235000D01*
X109651930Y-129149110D01*
X110058670Y-128980630D01*
X110424730Y-128736040D01*
X110470770Y-128690000D01*
X132781930Y-128690000D01*
X132794190Y-128814480D01*
X132830500Y-128934180D01*
X132889460Y-129044490D01*
X132968820Y-129141190D01*
X133065510Y-129220540D01*
X133175820Y-129279500D01*
X133295520Y-129315810D01*
X133420000Y-129328070D01*
X135420000Y-129328070D01*
X135544480Y-129315810D01*
X135664180Y-129279500D01*
X135774490Y-129220540D01*
X135871190Y-129141190D01*
X135950540Y-129044490D01*
X135975740Y-128997350D01*
X136047250Y-129056030D01*
X136331290Y-129207850D01*
X136639490Y-129301340D01*
X136960000Y-129332910D01*
X137280520Y-129301340D01*
X137588720Y-129207850D01*
X137872750Y-129056030D01*
X138121710Y-128851710D01*
X138230000Y-128719770D01*
X138338290Y-128851710D01*
X138587250Y-129056030D01*
X138871290Y-129207850D01*
X139179490Y-129301340D01*
X139500000Y-129332910D01*
X139820520Y-129301340D01*
X140128720Y-129207850D01*
X140412750Y-129056030D01*
X140661710Y-128851710D01*
X140768280Y-128721860D01*
X140973680Y-128935920D01*
X141237240Y-129120010D01*
X141531650Y-129249140D01*
X141659570Y-129280120D01*
X141913000Y-129160780D01*
X142167000Y-129160780D01*
X142420430Y-129280120D01*
X142548360Y-129249140D01*
X142842760Y-129120010D01*
X143106320Y-128935920D01*
X143328900Y-128703950D01*
X143501940Y-128433020D01*
X143618810Y-128133530D01*
X143675000Y-127817000D01*
X143675000Y-127517000D01*
X142167000Y-127517000D01*
X142167000Y-129160780D01*
X141913000Y-129160780D01*
X141913000Y-127517000D01*
X141893000Y-127517000D01*
X141893000Y-127263000D01*
X141913000Y-127263000D01*
X142167000Y-127263000D01*
X143675000Y-127263000D01*
X143675000Y-126963000D01*
X143618810Y-126646470D01*
X143501940Y-126346980D01*
X143328900Y-126076050D01*
X143106320Y-125844080D01*
X142842760Y-125659990D01*
X142548360Y-125530860D01*
X142420430Y-125499880D01*
X142167000Y-125619220D01*
X142167000Y-127263000D01*
X141913000Y-127263000D01*
X141913000Y-125619220D01*
X141659570Y-125499880D01*
X141531650Y-125530860D01*
X141237240Y-125659990D01*
X140973680Y-125844080D01*
X140768280Y-126058140D01*
X140661710Y-125928290D01*
X140412750Y-125723970D01*
X140128710Y-125572150D01*
X139820520Y-125478660D01*
X139500000Y-125447090D01*
X139179480Y-125478660D01*
X138871290Y-125572150D01*
X138587250Y-125723970D01*
X138338290Y-125928290D01*
X138230000Y-126060230D01*
X138121710Y-125928290D01*
X137872750Y-125723970D01*
X137588710Y-125572150D01*
X137280520Y-125478660D01*
X136960000Y-125447090D01*
X136639480Y-125478660D01*
X136331290Y-125572150D01*
X136047250Y-125723970D01*
X135975740Y-125782660D01*
X135950540Y-125735510D01*
X135871190Y-125638820D01*
X135774490Y-125559460D01*
X135664180Y-125500500D01*
X135544480Y-125464190D01*
X135420000Y-125451930D01*
X133420000Y-125451930D01*
X133295520Y-125464190D01*
X133175820Y-125500500D01*
X133065510Y-125559460D01*
X132968820Y-125638820D01*
X132889460Y-125735510D01*
X132830500Y-125845820D01*
X132794190Y-125965520D01*
X132781930Y-126090000D01*
X132781930Y-128690000D01*
X110470770Y-128690000D01*
X110736040Y-128424730D01*
X110980630Y-128058670D01*
X111149110Y-127651930D01*
X111235000Y-127220130D01*
X111235000Y-126779870D01*
X111149110Y-126348080D01*
X111042210Y-126090000D01*
X110980630Y-125941330D01*
X110736040Y-125575270D01*
X110424730Y-125263960D01*
X110058670Y-125019370D01*
X109651930Y-124850890D01*
X109220130Y-124765000D01*
X108779870Y-124765000D01*
X108348080Y-124850890D01*
X107941330Y-125019370D01*
X107575270Y-125263960D01*
X107263960Y-125575270D01*
X107019370Y-125941330D01*
X106850890Y-126348080D01*
X106765000Y-126779870D01*
X106765000Y-127220130D01*
X104710000Y-127220130D01*
X104710000Y-126779870D01*
X104710000Y-116945270D01*
X152975180Y-116945270D01*
X153049060Y-117226830D01*
X153176450Y-117488570D01*
X153352450Y-117720430D01*
X153570310Y-117913500D01*
X153821640Y-118060350D01*
X154084610Y-118152480D01*
X154314500Y-118031160D01*
X154314500Y-116713000D01*
X153115340Y-116713000D01*
X152975180Y-116945270D01*
X104710000Y-116945270D01*
X104710000Y-116226730D01*
X152975180Y-116226730D01*
X153115340Y-116459000D01*
X154314500Y-116459000D01*
X154314500Y-115140850D01*
X154084610Y-115019520D01*
X153821640Y-115111650D01*
X153570310Y-115258500D01*
X153352450Y-115451570D01*
X153176450Y-115683430D01*
X153049060Y-115945170D01*
X152975180Y-116226730D01*
X104710000Y-116226730D01*
X104710000Y-106920430D01*
X106109880Y-106920430D01*
X106140860Y-107048360D01*
X106269990Y-107342760D01*
X106454080Y-107606320D01*
X106686050Y-107828900D01*
X106956980Y-108001940D01*
X107256470Y-108118810D01*
X107573000Y-108175000D01*
X107873000Y-108175000D01*
X107873000Y-106667000D01*
X108127000Y-106667000D01*
X108127000Y-108175000D01*
X108427000Y-108175000D01*
X108743530Y-108118810D01*
X109043020Y-108001940D01*
X109313950Y-107828900D01*
X109545920Y-107606320D01*
X109730010Y-107342760D01*
X109859140Y-107048360D01*
X109889604Y-106922560D01*
X134919000Y-106922560D01*
X134968380Y-107170820D01*
X135065250Y-107404680D01*
X135205880Y-107615140D01*
X135384860Y-107794130D01*
X135595320Y-107934750D01*
X135829180Y-108031620D01*
X136077440Y-108081000D01*
X136330560Y-108081000D01*
X136578820Y-108031620D01*
X136812680Y-107934750D01*
X137023140Y-107794130D01*
X137202130Y-107615140D01*
X137342750Y-107404680D01*
X137439620Y-107170820D01*
X137489000Y-106922560D01*
X138511000Y-106922560D01*
X138560380Y-107170820D01*
X138657250Y-107404680D01*
X138797880Y-107615140D01*
X138976860Y-107794130D01*
X139187320Y-107934750D01*
X139421180Y-108031620D01*
X139669440Y-108081000D01*
X139922560Y-108081000D01*
X140170820Y-108031620D01*
X140404680Y-107934750D01*
X140615140Y-107794130D01*
X140794130Y-107615140D01*
X140934750Y-107404680D01*
X141031620Y-107170820D01*
X141081000Y-106922560D01*
X141081000Y-106669440D01*
X141031620Y-106421180D01*
X140934750Y-106187320D01*
X140794130Y-105976860D01*
X140615140Y-105797880D01*
X140404680Y-105657250D01*
X140170820Y-105560380D01*
X139922560Y-105511000D01*
X139669440Y-105511000D01*
X139421180Y-105560380D01*
X139187320Y-105657250D01*
X138976860Y-105797880D01*
X138797880Y-105976860D01*
X138657250Y-106187320D01*
X138560380Y-106421180D01*
X138511000Y-106669440D01*
X138511000Y-106922560D01*
X137489000Y-106922560D01*
X137489000Y-106669440D01*
X137439620Y-106421180D01*
X137342750Y-106187320D01*
X137202130Y-105976860D01*
X137023140Y-105797880D01*
X136812680Y-105657250D01*
X136578820Y-105560380D01*
X136330560Y-105511000D01*
X136077440Y-105511000D01*
X135829180Y-105560380D01*
X135595320Y-105657250D01*
X135384860Y-105797880D01*
X135205880Y-105976860D01*
X135065250Y-106187320D01*
X134968380Y-106421180D01*
X134919000Y-106669440D01*
X134919000Y-106922560D01*
X109889604Y-106922560D01*
X109890120Y-106920430D01*
X109771930Y-106669440D01*
X109770780Y-106667000D01*
X108127000Y-106667000D01*
X107873000Y-106667000D01*
X106229220Y-106667000D01*
X106109880Y-106920430D01*
X104710000Y-106920430D01*
X104710000Y-105000000D01*
X106061930Y-105000000D01*
X106074190Y-105124480D01*
X106110500Y-105244180D01*
X106169460Y-105354490D01*
X106248820Y-105451190D01*
X106345510Y-105530540D01*
X106395650Y-105557340D01*
X106269990Y-105737240D01*
X106140860Y-106031650D01*
X106109880Y-106159570D01*
X106229220Y-106413000D01*
X107873000Y-106413000D01*
X107873000Y-106393000D01*
X108127000Y-106393000D01*
X108127000Y-106413000D01*
X109770780Y-106413000D01*
X109890120Y-106159570D01*
X109859140Y-106031650D01*
X109730010Y-105737240D01*
X109604350Y-105557340D01*
X109654490Y-105530540D01*
X109751190Y-105451190D01*
X109830540Y-105354490D01*
X109889500Y-105244180D01*
X109925810Y-105124480D01*
X109938070Y-105000000D01*
X109938070Y-104089530D01*
X139090080Y-104089530D01*
X139143470Y-104318200D01*
X139373370Y-104424100D01*
X139619520Y-104483100D01*
X139872460Y-104492950D01*
X140122450Y-104453270D01*
X140359900Y-104365580D01*
X140448530Y-104318200D01*
X140501920Y-104089530D01*
X139796000Y-103383610D01*
X139090080Y-104089530D01*
X109938070Y-104089530D01*
X109938070Y-103280460D01*
X138507050Y-103280460D01*
X138546730Y-103530450D01*
X138634420Y-103767900D01*
X138681800Y-103856530D01*
X138910470Y-103909920D01*
X139616400Y-103204000D01*
X139975610Y-103204000D01*
X140681530Y-103909920D01*
X140910200Y-103856530D01*
X141016100Y-103626630D01*
X141075100Y-103380480D01*
X141084950Y-103127550D01*
X141045270Y-102877550D01*
X140957580Y-102640100D01*
X140910200Y-102551470D01*
X140681530Y-102498080D01*
X139975610Y-103204000D01*
X139616400Y-103204000D01*
X138910470Y-102498080D01*
X138681800Y-102551470D01*
X138575910Y-102781370D01*
X138516900Y-103027520D01*
X138507050Y-103280460D01*
X109938070Y-103280460D01*
X109938070Y-103000000D01*
X109925810Y-102875520D01*
X109889500Y-102755820D01*
X109830540Y-102645510D01*
X109751190Y-102548820D01*
X109654490Y-102469460D01*
X109544180Y-102410500D01*
X109424480Y-102374190D01*
X109300000Y-102361930D01*
X106700000Y-102361930D01*
X106575520Y-102374190D01*
X106455820Y-102410500D01*
X106345510Y-102469460D01*
X106248820Y-102548820D01*
X106169460Y-102645510D01*
X106110500Y-102755820D01*
X106074190Y-102875520D01*
X106061930Y-103000000D01*
X106061930Y-105000000D01*
X104710000Y-105000000D01*
X104710000Y-103000000D01*
X104710000Y-102318470D01*
X139090080Y-102318470D01*
X139796000Y-103024400D01*
X140501920Y-102318470D01*
X140448530Y-102089800D01*
X140218630Y-101983910D01*
X139972480Y-101924900D01*
X139719550Y-101915050D01*
X139469550Y-101954730D01*
X139232100Y-102042420D01*
X139143470Y-102089800D01*
X139090080Y-102318470D01*
X104710000Y-102318470D01*
X104710000Y-83220130D01*
X106765000Y-83220130D01*
X106850890Y-83651930D01*
X107019370Y-84058670D01*
X107263960Y-84424730D01*
X107575270Y-84736040D01*
X107941330Y-84980630D01*
X108348080Y-85149110D01*
X108779870Y-85235000D01*
X109220130Y-85235000D01*
X109651930Y-85149110D01*
X110058670Y-84980630D01*
X110424730Y-84736040D01*
X110736040Y-84424730D01*
X110980630Y-84058670D01*
X111149110Y-83651930D01*
X111235000Y-83220130D01*
X111235000Y-82960320D01*
X134835000Y-82960320D01*
X134858660Y-83200520D01*
X134952150Y-83508710D01*
X135103970Y-83792750D01*
X135308290Y-84041710D01*
X135557250Y-84246030D01*
X135841290Y-84397850D01*
X136149480Y-84491340D01*
X136470000Y-84522910D01*
X136790520Y-84491340D01*
X137098710Y-84397850D01*
X137382750Y-84246030D01*
X137454260Y-84187350D01*
X137479460Y-84234490D01*
X137558820Y-84331190D01*
X137655510Y-84410540D01*
X137765820Y-84469500D01*
X137885520Y-84505810D01*
X138010000Y-84518070D01*
X138724250Y-84515000D01*
X138883000Y-84356250D01*
X139137000Y-84356250D01*
X139295750Y-84515000D01*
X140010000Y-84518070D01*
X140134480Y-84505810D01*
X140254180Y-84469500D01*
X140364490Y-84410540D01*
X140461190Y-84331190D01*
X140540540Y-84234490D01*
X140599500Y-84124180D01*
X140635810Y-84004480D01*
X140648070Y-83880000D01*
X140645000Y-82865750D01*
X140486250Y-82707000D01*
X139137000Y-82707000D01*
X139137000Y-84356250D01*
X138883000Y-84356250D01*
X138883000Y-82707000D01*
X138863000Y-82707000D01*
X138863000Y-82453000D01*
X138883000Y-82453000D01*
X139137000Y-82453000D01*
X140486250Y-82453000D01*
X140645000Y-82294250D01*
X140648070Y-81280000D01*
X140635810Y-81155520D01*
X140599500Y-81035820D01*
X140540540Y-80925510D01*
X140461190Y-80828820D01*
X140364490Y-80749460D01*
X140254180Y-80690500D01*
X140134480Y-80654190D01*
X140010000Y-80641930D01*
X139295750Y-80645000D01*
X139137000Y-80803750D01*
X139137000Y-82453000D01*
X138883000Y-82453000D01*
X138883000Y-80803750D01*
X138724250Y-80645000D01*
X138010000Y-80641930D01*
X137885520Y-80654190D01*
X137765820Y-80690500D01*
X137655510Y-80749460D01*
X137558820Y-80828820D01*
X137479460Y-80925510D01*
X137454260Y-80972660D01*
X137382750Y-80913970D01*
X137098720Y-80762150D01*
X136790520Y-80668660D01*
X136470000Y-80637090D01*
X136149490Y-80668660D01*
X135841290Y-80762150D01*
X135557250Y-80913970D01*
X135308290Y-81118290D01*
X135103970Y-81367250D01*
X134952150Y-81651290D01*
X134858660Y-81959480D01*
X134835000Y-82199680D01*
X134835000Y-82960320D01*
X111235000Y-82960320D01*
X111235000Y-82779870D01*
X111149110Y-82348080D01*
X111087640Y-82199680D01*
X110980630Y-81941330D01*
X110736040Y-81575270D01*
X110424730Y-81263960D01*
X110058670Y-81019370D01*
X109651930Y-80850890D01*
X109220130Y-80765000D01*
X108779870Y-80765000D01*
X108348080Y-80850890D01*
X107941330Y-81019370D01*
X107575270Y-81263960D01*
X107263960Y-81575270D01*
X107019370Y-81941330D01*
X106850890Y-82348080D01*
X106765000Y-82779870D01*
X106765000Y-83220130D01*
X104710000Y-83220130D01*
X104710000Y-82779870D01*
X104710000Y-79710000D01*
X168073000Y-79710000D01*
X168073000Y-81028950D01*
G37*
%TD.AperFunction*%
D10*
X155760560Y-96540320D02*
G75*
G02*
X155460560Y-96540320I-150000J0D01*
G01*
X155460560Y-96540320D02*
G75*
G02*
X155760560Y-96540320I150000J0D01*
G01*
X126073500Y-103560000D02*
G75*
G02*
X125773500Y-103560000I-150000J0D01*
G01*
X125773500Y-103560000D02*
G75*
G02*
X126073500Y-103560000I150000J0D01*
G01*
D11*
%TA.AperFunction,NonConductor*%
G36*
X167545010Y-115611020D02*
G01*
X167548510Y-115611100D01*
X167552020Y-115611220D01*
X167555520Y-115611390D01*
X167559020Y-115611610D01*
X167562510Y-115611880D01*
X167566000Y-115612200D01*
X167569490Y-115612570D01*
X167572970Y-115612990D01*
X167576450Y-115613450D01*
X167579920Y-115613970D01*
X167583380Y-115614530D01*
X167586830Y-115615140D01*
X167590270Y-115615800D01*
X167593710Y-115616510D01*
X167597130Y-115617270D01*
X167600540Y-115618070D01*
X167603940Y-115618920D01*
X167607330Y-115619820D01*
X167610710Y-115620770D01*
X167614070Y-115621760D01*
X167617420Y-115622810D01*
X167620750Y-115623890D01*
X167624070Y-115625030D01*
X167627370Y-115626210D01*
X167630660Y-115627440D01*
X167633920Y-115628710D01*
X167637170Y-115630030D01*
X167640400Y-115631390D01*
X167643610Y-115632800D01*
X167646800Y-115634260D01*
X167649970Y-115635760D01*
X167653120Y-115637300D01*
X167656250Y-115638890D01*
X167659350Y-115640520D01*
X167662430Y-115642190D01*
X167665490Y-115643910D01*
X167668520Y-115645670D01*
X167671530Y-115647470D01*
X167674510Y-115649320D01*
X167677460Y-115651210D01*
X167680390Y-115653130D01*
X167683290Y-115655100D01*
X167686170Y-115657110D01*
X167689010Y-115659160D01*
X167691830Y-115661250D01*
X167694620Y-115663380D01*
X167697370Y-115665540D01*
X167700100Y-115667750D01*
X167702790Y-115669990D01*
X167705460Y-115672270D01*
X167708090Y-115674590D01*
X167710680Y-115676940D01*
X167713250Y-115679330D01*
X167715780Y-115681760D01*
X167718280Y-115684220D01*
X167720740Y-115686720D01*
X167723170Y-115689250D01*
X167725560Y-115691820D01*
X167727910Y-115694410D01*
X167730230Y-115697040D01*
X167732510Y-115699710D01*
X167734750Y-115702400D01*
X167736960Y-115705130D01*
X167739120Y-115707880D01*
X167741250Y-115710670D01*
X167743340Y-115713490D01*
X167745390Y-115716330D01*
X167747400Y-115719210D01*
X167749370Y-115722110D01*
X167751290Y-115725040D01*
X167753180Y-115727990D01*
X167755030Y-115730970D01*
X167756830Y-115733980D01*
X167758590Y-115737010D01*
X167760310Y-115740070D01*
X167761980Y-115743150D01*
X167763610Y-115746250D01*
X167765200Y-115749380D01*
X167766740Y-115752530D01*
X167768240Y-115755700D01*
X167769700Y-115758890D01*
X167771110Y-115762100D01*
X167772470Y-115765330D01*
X167773790Y-115768580D01*
X167775060Y-115771840D01*
X167776290Y-115775130D01*
X167777470Y-115778430D01*
X167778610Y-115781750D01*
X167779690Y-115785080D01*
X167780740Y-115788430D01*
X167781730Y-115791790D01*
X167782680Y-115795170D01*
X167783580Y-115798560D01*
X167784430Y-115801960D01*
X167785230Y-115805370D01*
X167785990Y-115808790D01*
X167786700Y-115812230D01*
X167787360Y-115815670D01*
X167787970Y-115819120D01*
X167788530Y-115822580D01*
X167789050Y-115826050D01*
X167789510Y-115829530D01*
X167789930Y-115833010D01*
X167790300Y-115836500D01*
X167790620Y-115839990D01*
X167790890Y-115843480D01*
X167791110Y-115846980D01*
X167791280Y-115850480D01*
X167791400Y-115853990D01*
X167791480Y-115857490D01*
X167791500Y-115861000D01*
X167791500Y-117311000D01*
X167791480Y-117314510D01*
X167791400Y-117318010D01*
X167791280Y-117321520D01*
X167791110Y-117325020D01*
X167790890Y-117328520D01*
X167790620Y-117332010D01*
X167790300Y-117335500D01*
X167789930Y-117338990D01*
X167789510Y-117342470D01*
X167789050Y-117345950D01*
X167788530Y-117349420D01*
X167787970Y-117352880D01*
X167787360Y-117356330D01*
X167786700Y-117359770D01*
X167785990Y-117363210D01*
X167785230Y-117366630D01*
X167784430Y-117370040D01*
X167783580Y-117373440D01*
X167782680Y-117376830D01*
X167781730Y-117380210D01*
X167780740Y-117383570D01*
X167779690Y-117386920D01*
X167778610Y-117390250D01*
X167777470Y-117393570D01*
X167776290Y-117396870D01*
X167775060Y-117400160D01*
X167773790Y-117403420D01*
X167772470Y-117406670D01*
X167771110Y-117409900D01*
X167769700Y-117413110D01*
X167768240Y-117416300D01*
X167766740Y-117419470D01*
X167765200Y-117422620D01*
X167763610Y-117425750D01*
X167761980Y-117428850D01*
X167760310Y-117431930D01*
X167758590Y-117434990D01*
X167756830Y-117438020D01*
X167755030Y-117441030D01*
X167753180Y-117444010D01*
X167751290Y-117446960D01*
X167749370Y-117449890D01*
X167747400Y-117452790D01*
X167745390Y-117455670D01*
X167743340Y-117458510D01*
X167741250Y-117461330D01*
X167739120Y-117464120D01*
X167736960Y-117466870D01*
X167734750Y-117469600D01*
X167732510Y-117472290D01*
X167730230Y-117474960D01*
X167727910Y-117477590D01*
X167725560Y-117480180D01*
X167723170Y-117482750D01*
X167720740Y-117485280D01*
X167718280Y-117487780D01*
X167715780Y-117490240D01*
X167713250Y-117492670D01*
X167710680Y-117495060D01*
X167708090Y-117497410D01*
X167705460Y-117499730D01*
X167702790Y-117502010D01*
X167700100Y-117504250D01*
X167697370Y-117506460D01*
X167694620Y-117508620D01*
X167691830Y-117510750D01*
X167689010Y-117512840D01*
X167686170Y-117514890D01*
X167683290Y-117516900D01*
X167680390Y-117518870D01*
X167677460Y-117520790D01*
X167674510Y-117522680D01*
X167671530Y-117524530D01*
X167668520Y-117526330D01*
X167665490Y-117528090D01*
X167662430Y-117529810D01*
X167659350Y-117531480D01*
X167656250Y-117533110D01*
X167653120Y-117534700D01*
X167649970Y-117536240D01*
X167646800Y-117537740D01*
X167643610Y-117539200D01*
X167640400Y-117540610D01*
X167637170Y-117541970D01*
X167633920Y-117543290D01*
X167630660Y-117544560D01*
X167627370Y-117545790D01*
X167624070Y-117546970D01*
X167620750Y-117548110D01*
X167617420Y-117549190D01*
X167614070Y-117550240D01*
X167610710Y-117551230D01*
X167607330Y-117552180D01*
X167603940Y-117553080D01*
X167600540Y-117553930D01*
X167597130Y-117554730D01*
X167593710Y-117555490D01*
X167590270Y-117556200D01*
X167586830Y-117556860D01*
X167583380Y-117557470D01*
X167579920Y-117558030D01*
X167576450Y-117558550D01*
X167572970Y-117559010D01*
X167569490Y-117559430D01*
X167566000Y-117559800D01*
X167562510Y-117560120D01*
X167559020Y-117560390D01*
X167555520Y-117560610D01*
X167552020Y-117560780D01*
X167548510Y-117560900D01*
X167545010Y-117560980D01*
X167541500Y-117561000D01*
X166341500Y-117561000D01*
X166337990Y-117560980D01*
X166334490Y-117560900D01*
X166330980Y-117560780D01*
X166327480Y-117560610D01*
X166323980Y-117560390D01*
X166320490Y-117560120D01*
X166317000Y-117559800D01*
X166313510Y-117559430D01*
X166310030Y-117559010D01*
X166306550Y-117558550D01*
X166303080Y-117558030D01*
X166299620Y-117557470D01*
X166296170Y-117556860D01*
X166292730Y-117556200D01*
X166289290Y-117555490D01*
X166285870Y-117554730D01*
X166282460Y-117553930D01*
X166279060Y-117553080D01*
X166275670Y-117552180D01*
X166272290Y-117551230D01*
X166268930Y-117550240D01*
X166265580Y-117549190D01*
X166262250Y-117548110D01*
X166258930Y-117546970D01*
X166255630Y-117545790D01*
X166252340Y-117544560D01*
X166249080Y-117543290D01*
X166245830Y-117541970D01*
X166242600Y-117540610D01*
X166239390Y-117539200D01*
X166236200Y-117537740D01*
X166233030Y-117536240D01*
X166229880Y-117534700D01*
X166226750Y-117533110D01*
X166223650Y-117531480D01*
X166220570Y-117529810D01*
X166217510Y-117528090D01*
X166214480Y-117526330D01*
X166211470Y-117524530D01*
X166208490Y-117522680D01*
X166205540Y-117520790D01*
X166202610Y-117518870D01*
X166199710Y-117516900D01*
X166196830Y-117514890D01*
X166193990Y-117512840D01*
X166191170Y-117510750D01*
X166188380Y-117508620D01*
X166185630Y-117506460D01*
X166182900Y-117504250D01*
X166180210Y-117502010D01*
X166177540Y-117499730D01*
X166174910Y-117497410D01*
X166172320Y-117495060D01*
X166169750Y-117492670D01*
X166167220Y-117490240D01*
X166164720Y-117487780D01*
X166162260Y-117485280D01*
X166159830Y-117482750D01*
X166157440Y-117480180D01*
X166155090Y-117477590D01*
X166152770Y-117474960D01*
X166150490Y-117472290D01*
X166148250Y-117469600D01*
X166146040Y-117466870D01*
X166143880Y-117464120D01*
X166141750Y-117461330D01*
X166139660Y-117458510D01*
X166137610Y-117455670D01*
X166135600Y-117452790D01*
X166133630Y-117449890D01*
X166131710Y-117446960D01*
X166129820Y-117444010D01*
X166127970Y-117441030D01*
X166126170Y-117438020D01*
X166124410Y-117434990D01*
X166122690Y-117431930D01*
X166121020Y-117428850D01*
X166119390Y-117425750D01*
X166117800Y-117422620D01*
X166116260Y-117419470D01*
X166114760Y-117416300D01*
X166113300Y-117413110D01*
X166111890Y-117409900D01*
X166110530Y-117406670D01*
X166109210Y-117403420D01*
X166107940Y-117400160D01*
X166106710Y-117396870D01*
X166105530Y-117393570D01*
X166104390Y-117390250D01*
X166103310Y-117386920D01*
X166102260Y-117383570D01*
X166101270Y-117380210D01*
X166100320Y-117376830D01*
X166099420Y-117373440D01*
X166098570Y-117370040D01*
X166097770Y-117366630D01*
X166097010Y-117363210D01*
X166096300Y-117359770D01*
X166095640Y-117356330D01*
X166095030Y-117352880D01*
X166094470Y-117349420D01*
X166093950Y-117345950D01*
X166093490Y-117342470D01*
X166093070Y-117338990D01*
X166092700Y-117335500D01*
X166092380Y-117332010D01*
X166092110Y-117328520D01*
X166091890Y-117325020D01*
X166091720Y-117321520D01*
X166091600Y-117318010D01*
X166091520Y-117314510D01*
X166091500Y-117311000D01*
X166091500Y-115861000D01*
X166091520Y-115857490D01*
X166091600Y-115853990D01*
X166091720Y-115850480D01*
X166091890Y-115846980D01*
X166092110Y-115843480D01*
X166092380Y-115839990D01*
X166092700Y-115836500D01*
X166093070Y-115833010D01*
X166093490Y-115829530D01*
X166093950Y-115826050D01*
X166094470Y-115822580D01*
X166095030Y-115819120D01*
X166095640Y-115815670D01*
X166096300Y-115812230D01*
X166097010Y-115808790D01*
X166097770Y-115805370D01*
X166098570Y-115801960D01*
X166099420Y-115798560D01*
X166100320Y-115795170D01*
X166101270Y-115791790D01*
X166102260Y-115788430D01*
X166103310Y-115785080D01*
X166104390Y-115781750D01*
X166105530Y-115778430D01*
X166106710Y-115775130D01*
X166107940Y-115771840D01*
X166109210Y-115768580D01*
X166110530Y-115765330D01*
X166111890Y-115762100D01*
X166113300Y-115758890D01*
X166114760Y-115755700D01*
X166116260Y-115752530D01*
X166117800Y-115749380D01*
X166119390Y-115746250D01*
X166121020Y-115743150D01*
X166122690Y-115740070D01*
X166124410Y-115737010D01*
X166126170Y-115733980D01*
X166127970Y-115730970D01*
X166129820Y-115727990D01*
X166131710Y-115725040D01*
X166133630Y-115722110D01*
X166135600Y-115719210D01*
X166137610Y-115716330D01*
X166139660Y-115713490D01*
X166141750Y-115710670D01*
X166143880Y-115707880D01*
X166146040Y-115705130D01*
X166148250Y-115702400D01*
X166150490Y-115699710D01*
X166152770Y-115697040D01*
X166155090Y-115694410D01*
X166157440Y-115691820D01*
X166159830Y-115689250D01*
X166162260Y-115686720D01*
X166164720Y-115684220D01*
X166167220Y-115681760D01*
X166169750Y-115679330D01*
X166172320Y-115676940D01*
X166174910Y-115674590D01*
X166177540Y-115672270D01*
X166180210Y-115669990D01*
X166182900Y-115667750D01*
X166185630Y-115665540D01*
X166188380Y-115663380D01*
X166191170Y-115661250D01*
X166193990Y-115659160D01*
X166196830Y-115657110D01*
X166199710Y-115655100D01*
X166202610Y-115653130D01*
X166205540Y-115651210D01*
X166208490Y-115649320D01*
X166211470Y-115647470D01*
X166214480Y-115645670D01*
X166217510Y-115643910D01*
X166220570Y-115642190D01*
X166223650Y-115640520D01*
X166226750Y-115638890D01*
X166229880Y-115637300D01*
X166233030Y-115635760D01*
X166236200Y-115634260D01*
X166239390Y-115632800D01*
X166242600Y-115631390D01*
X166245830Y-115630030D01*
X166249080Y-115628710D01*
X166252340Y-115627440D01*
X166255630Y-115626210D01*
X166258930Y-115625030D01*
X166262250Y-115623890D01*
X166265580Y-115622810D01*
X166268930Y-115621760D01*
X166272290Y-115620770D01*
X166275670Y-115619820D01*
X166279060Y-115618920D01*
X166282460Y-115618070D01*
X166285870Y-115617270D01*
X166289290Y-115616510D01*
X166292730Y-115615800D01*
X166296170Y-115615140D01*
X166299620Y-115614530D01*
X166303080Y-115613970D01*
X166306550Y-115613450D01*
X166310030Y-115612990D01*
X166313510Y-115612570D01*
X166317000Y-115612200D01*
X166320490Y-115611880D01*
X166323980Y-115611610D01*
X166327480Y-115611390D01*
X166330980Y-115611220D01*
X166334490Y-115611100D01*
X166337990Y-115611020D01*
X166341500Y-115611000D01*
X167541500Y-115611000D01*
X167545010Y-115611020D01*
G37*
%TD.AperFunction*%
%TA.AperFunction,NonConductor*%
G36*
X162024810Y-115615090D02*
G01*
X162107330Y-115627330D01*
X162188240Y-115647600D01*
X162266780Y-115675700D01*
X162342190Y-115711370D01*
X162413730Y-115754250D01*
X162480730Y-115803940D01*
X162542540Y-115859960D01*
X162598560Y-115921770D01*
X162648250Y-115988770D01*
X162691130Y-116060310D01*
X162726800Y-116135720D01*
X162754900Y-116214260D01*
X162775170Y-116295170D01*
X162787410Y-116377690D01*
X162791500Y-116461000D01*
X162791500Y-116586000D01*
X162791500Y-116711000D01*
X162787410Y-116794310D01*
X162775170Y-116876830D01*
X162754900Y-116957740D01*
X162726800Y-117036280D01*
X162691130Y-117111690D01*
X162648250Y-117183230D01*
X162598560Y-117250230D01*
X162542540Y-117312040D01*
X162480730Y-117368060D01*
X162413730Y-117417750D01*
X162342190Y-117460630D01*
X162266780Y-117496300D01*
X162188240Y-117524400D01*
X162107330Y-117544670D01*
X162024810Y-117556910D01*
X161941500Y-117561000D01*
X161858190Y-117556910D01*
X161775670Y-117544670D01*
X161694760Y-117524400D01*
X161616220Y-117496300D01*
X161540810Y-117460630D01*
X161469270Y-117417750D01*
X161402270Y-117368060D01*
X161340460Y-117312040D01*
X161284440Y-117250230D01*
X161234750Y-117183230D01*
X161191870Y-117111690D01*
X161156200Y-117036280D01*
X161128100Y-116957740D01*
X161107830Y-116876830D01*
X161095590Y-116794310D01*
X161091500Y-116711000D01*
X161091500Y-116461000D01*
X161095590Y-116377690D01*
X161107830Y-116295170D01*
X161128100Y-116214260D01*
X161156200Y-116135720D01*
X161191870Y-116060310D01*
X161234750Y-115988770D01*
X161284440Y-115921770D01*
X161340460Y-115859960D01*
X161402270Y-115803940D01*
X161469270Y-115754250D01*
X161540810Y-115711370D01*
X161616220Y-115675700D01*
X161694760Y-115647600D01*
X161775670Y-115627330D01*
X161858190Y-115615090D01*
X161941500Y-115611000D01*
X162024810Y-115615090D01*
G37*
%TD.AperFunction*%
%TA.AperFunction,NonConductor*%
G36*
X108398020Y-105544820D02*
G01*
X108495090Y-105559210D01*
X108590280Y-105583060D01*
X108682680Y-105616120D01*
X108771400Y-105658080D01*
X108855570Y-105708530D01*
X108934390Y-105766990D01*
X109007110Y-105832890D01*
X109073010Y-105905610D01*
X109131470Y-105984430D01*
X109181920Y-106068600D01*
X109223880Y-106157320D01*
X109256940Y-106249720D01*
X109280790Y-106344910D01*
X109295180Y-106441980D01*
X109300000Y-106540000D01*
X109295180Y-106638020D01*
X109280790Y-106735090D01*
X109256940Y-106830280D01*
X109223880Y-106922680D01*
X109181920Y-107011400D01*
X109131470Y-107095570D01*
X109073010Y-107174390D01*
X109007110Y-107247110D01*
X108934390Y-107313010D01*
X108855570Y-107371470D01*
X108771400Y-107421920D01*
X108682680Y-107463880D01*
X108590280Y-107496940D01*
X108495090Y-107520790D01*
X108398020Y-107535180D01*
X108300000Y-107540000D01*
X107700000Y-107540000D01*
X107601980Y-107535180D01*
X107504910Y-107520790D01*
X107409720Y-107496940D01*
X107317320Y-107463880D01*
X107228600Y-107421920D01*
X107144430Y-107371470D01*
X107065610Y-107313010D01*
X106992890Y-107247110D01*
X106926990Y-107174390D01*
X106868530Y-107095570D01*
X106818080Y-107011400D01*
X106776120Y-106922680D01*
X106743060Y-106830280D01*
X106719210Y-106735090D01*
X106704820Y-106638020D01*
X106700000Y-106540000D01*
X106704820Y-106441980D01*
X106719210Y-106344910D01*
X106743060Y-106249720D01*
X106776120Y-106157320D01*
X106818080Y-106068600D01*
X106868530Y-105984430D01*
X106926990Y-105905610D01*
X106992890Y-105832890D01*
X107065610Y-105766990D01*
X107144430Y-105708530D01*
X107228600Y-105658080D01*
X107317320Y-105616120D01*
X107409720Y-105583060D01*
X107504910Y-105559210D01*
X107601980Y-105544820D01*
X107700000Y-105540000D01*
X108000000Y-105540000D01*
X108300000Y-105540000D01*
X108398020Y-105544820D01*
G37*
%TD.AperFunction*%
%TA.AperFunction,NonConductor*%
G36*
X154524810Y-115615090D02*
G01*
X154607330Y-115627330D01*
X154688240Y-115647600D01*
X154766780Y-115675700D01*
X154842190Y-115711370D01*
X154913730Y-115754250D01*
X154980730Y-115803940D01*
X155042540Y-115859960D01*
X155098560Y-115921770D01*
X155148250Y-115988770D01*
X155191130Y-116060310D01*
X155226800Y-116135720D01*
X155254900Y-116214260D01*
X155275170Y-116295170D01*
X155287410Y-116377690D01*
X155291500Y-116461000D01*
X155291500Y-116586000D01*
X155291500Y-116711000D01*
X155287410Y-116794310D01*
X155275170Y-116876830D01*
X155254900Y-116957740D01*
X155226800Y-117036280D01*
X155191130Y-117111690D01*
X155148250Y-117183230D01*
X155098560Y-117250230D01*
X155042540Y-117312040D01*
X154980730Y-117368060D01*
X154913730Y-117417750D01*
X154842190Y-117460630D01*
X154766780Y-117496300D01*
X154688240Y-117524400D01*
X154607330Y-117544670D01*
X154524810Y-117556910D01*
X154441500Y-117561000D01*
X154358190Y-117556910D01*
X154275670Y-117544670D01*
X154194760Y-117524400D01*
X154116220Y-117496300D01*
X154040810Y-117460630D01*
X153969270Y-117417750D01*
X153902270Y-117368060D01*
X153840460Y-117312040D01*
X153784440Y-117250230D01*
X153734750Y-117183230D01*
X153691870Y-117111690D01*
X153656200Y-117036280D01*
X153628100Y-116957740D01*
X153607830Y-116876830D01*
X153595590Y-116794310D01*
X153591500Y-116711000D01*
X153591500Y-116461000D01*
X153595590Y-116377690D01*
X153607830Y-116295170D01*
X153628100Y-116214260D01*
X153656200Y-116135720D01*
X153691870Y-116060310D01*
X153734750Y-115988770D01*
X153784440Y-115921770D01*
X153840460Y-115859960D01*
X153902270Y-115803940D01*
X153969270Y-115754250D01*
X154040810Y-115711370D01*
X154116220Y-115675700D01*
X154194760Y-115647600D01*
X154275670Y-115627330D01*
X154358190Y-115615090D01*
X154441500Y-115611000D01*
X154524810Y-115615090D01*
G37*
%TD.AperFunction*%
D10*
X166189800Y-120091200D02*
G75*
G02*
X165889800Y-120091200I-150000J0D01*
G01*
X165889800Y-120091200D02*
G75*
G02*
X166189800Y-120091200I150000J0D01*
G01*
X143469500Y-108648500D02*
G75*
G02*
X143169500Y-108648500I-150000J0D01*
G01*
X143169500Y-108648500D02*
G75*
G02*
X143469500Y-108648500I150000J0D01*
G01*
X136380360Y-111729520D02*
G75*
G02*
X136080360Y-111729520I-150000J0D01*
G01*
X136080360Y-111729520D02*
G75*
G02*
X136380360Y-111729520I150000J0D01*
G01*
X131468000Y-113855500D02*
G75*
G02*
X131168000Y-113855500I-150000J0D01*
G01*
X131168000Y-113855500D02*
G75*
G02*
X131468000Y-113855500I150000J0D01*
G01*
X132039500Y-104648000D02*
G75*
G02*
X131739500Y-104648000I-150000J0D01*
G01*
X131739500Y-104648000D02*
G75*
G02*
X132039500Y-104648000I150000J0D01*
G01*
X158066880Y-94904560D02*
G75*
G02*
X157766880Y-94904560I-150000J0D01*
G01*
X157766880Y-94904560D02*
G75*
G02*
X158066880Y-94904560I150000J0D01*
G01*
D11*
%TA.AperFunction,NonConductor*%
G36*
X135420000Y-128690000D02*
G01*
X133420000Y-128690000D01*
X133420000Y-126090000D01*
X135420000Y-126090000D01*
X135420000Y-128690000D01*
G37*
%TD.AperFunction*%
D10*
X135953640Y-110322360D02*
G75*
G02*
X135653640Y-110322360I-150000J0D01*
G01*
X135653640Y-110322360D02*
G75*
G02*
X135953640Y-110322360I150000J0D01*
G01*
D11*
%TA.AperFunction,NonConductor*%
G36*
X136568020Y-81284820D02*
G01*
X136665090Y-81299210D01*
X136760280Y-81323060D01*
X136852680Y-81356120D01*
X136941400Y-81398080D01*
X137025570Y-81448530D01*
X137104390Y-81506990D01*
X137177110Y-81572890D01*
X137243010Y-81645610D01*
X137301470Y-81724430D01*
X137351920Y-81808600D01*
X137393880Y-81897320D01*
X137426940Y-81989720D01*
X137450790Y-82084910D01*
X137465180Y-82181980D01*
X137470000Y-82280000D01*
X137470000Y-82580000D01*
X137470000Y-82880000D01*
X137465180Y-82978020D01*
X137450790Y-83075090D01*
X137426940Y-83170280D01*
X137393880Y-83262680D01*
X137351920Y-83351400D01*
X137301470Y-83435570D01*
X137243010Y-83514390D01*
X137177110Y-83587110D01*
X137104390Y-83653010D01*
X137025570Y-83711470D01*
X136941400Y-83761920D01*
X136852680Y-83803880D01*
X136760280Y-83836940D01*
X136665090Y-83860790D01*
X136568020Y-83875180D01*
X136470000Y-83880000D01*
X136371980Y-83875180D01*
X136274910Y-83860790D01*
X136179720Y-83836940D01*
X136087320Y-83803880D01*
X135998600Y-83761920D01*
X135914430Y-83711470D01*
X135835610Y-83653010D01*
X135762890Y-83587110D01*
X135696990Y-83514390D01*
X135638530Y-83435570D01*
X135588080Y-83351400D01*
X135546120Y-83262680D01*
X135513060Y-83170280D01*
X135489210Y-83075090D01*
X135474820Y-82978020D01*
X135470000Y-82880000D01*
X135470000Y-82280000D01*
X135474820Y-82181980D01*
X135489210Y-82084910D01*
X135513060Y-81989720D01*
X135546120Y-81897320D01*
X135588080Y-81808600D01*
X135638530Y-81724430D01*
X135696990Y-81645610D01*
X135762890Y-81572890D01*
X135835610Y-81506990D01*
X135914430Y-81448530D01*
X135998600Y-81398080D01*
X136087320Y-81356120D01*
X136179720Y-81323060D01*
X136274910Y-81299210D01*
X136371980Y-81284820D01*
X136470000Y-81280000D01*
X136568020Y-81284820D01*
G37*
%TD.AperFunction*%
D10*
X150391000Y-105219500D02*
G75*
G02*
X150091000Y-105219500I-150000J0D01*
G01*
X150091000Y-105219500D02*
G75*
G02*
X150391000Y-105219500I150000J0D01*
G01*
X131404500Y-116395500D02*
G75*
G02*
X131104500Y-116395500I-150000J0D01*
G01*
X131104500Y-116395500D02*
G75*
G02*
X131404500Y-116395500I150000J0D01*
G01*
X146898500Y-114554000D02*
G75*
G02*
X146598500Y-114554000I-150000J0D01*
G01*
X146598500Y-114554000D02*
G75*
G02*
X146898500Y-114554000I150000J0D01*
G01*
D12*
%TO.N,*%
X155249000Y-109859000D03*
D13*
X155611000Y-96540000D03*
D12*
X157917000Y-94905000D03*
D14*
X159441000Y-116586000D03*
D12*
X140015000Y-95275000D03*
D15*
X116750000Y-107920000D03*
D13*
X136230000Y-111730000D03*
D12*
X143320000Y-108648000D03*
D15*
X155950000Y-111000000D03*
X127762000Y-103505000D03*
D14*
X164441000Y-116586000D03*
D15*
X156250000Y-99100000D03*
D16*
X136960000Y-127390000D03*
D15*
X167800000Y-97850000D03*
D12*
X163900000Y-105000000D03*
X140398000Y-115951000D03*
D13*
X138760000Y-87503000D03*
D15*
X166600000Y-98750000D03*
X141986000Y-120015000D03*
X154800000Y-112100000D03*
D13*
X148356000Y-109169000D03*
D16*
X108000000Y-104000000D03*
D17*
X139796000Y-106796000D03*
D15*
X167500000Y-103000000D03*
D13*
X142811000Y-122936000D03*
D15*
X158500000Y-107700000D03*
D13*
X162255000Y-90460000D03*
X138923000Y-90907000D03*
X162235000Y-95728000D03*
X162235000Y-96413000D03*
D14*
X166941000Y-116586000D03*
D15*
X150241000Y-98425000D03*
X167500000Y-101800000D03*
D13*
X131255000Y-116395000D03*
D14*
X154441000Y-116586000D03*
X161941000Y-116586000D03*
D13*
X125923000Y-103560000D03*
D14*
X156941000Y-116586000D03*
D15*
X161600000Y-102100000D03*
D16*
X108000000Y-106540000D03*
D15*
X160000000Y-105000000D03*
D13*
X135804000Y-110322000D03*
D15*
X167700000Y-112300000D03*
D13*
X166040000Y-120091000D03*
D18*
X109000000Y-83000000D03*
D16*
X136470000Y-82580000D03*
D13*
X135971000Y-117079000D03*
D17*
X139796000Y-103204000D03*
D18*
X167000000Y-127000000D03*
D16*
X142040000Y-127390000D03*
D12*
X146749000Y-114554000D03*
D13*
X131889000Y-104648000D03*
D16*
X139010000Y-82580000D03*
D18*
X167000000Y-83000000D03*
D15*
X163900000Y-105000000D03*
X166600000Y-101800000D03*
X154800000Y-111000000D03*
X167800000Y-98750000D03*
D13*
X140274000Y-110343000D03*
D15*
X161600000Y-107700000D03*
X158500000Y-102100000D03*
D16*
X134420000Y-127390000D03*
D15*
X154800000Y-99100000D03*
X156833000Y-95770000D03*
X166600000Y-97850000D03*
D13*
X150241000Y-105219000D03*
D16*
X139500000Y-127390000D03*
D17*
X136204000Y-106796000D03*
D15*
X165200000Y-102100000D03*
X148690000Y-123310000D03*
X166600000Y-103000000D03*
X134239000Y-122555000D03*
D12*
X131318000Y-113855000D03*
D18*
X109000000Y-127000000D03*
D15*
X130810000Y-104648000D03*
D13*
X137571000Y-96944000D03*
D15*
X167700000Y-111200000D03*
%TD*%
D19*
%TO.N,*%
X140540540Y-84234490D02*
X140599500Y-84124180D01*
X133420000Y-125451930D02*
X133295520Y-125464190D01*
X160682210Y-115631990D02*
X160496630Y-115405870D01*
X136578820Y-108031620D02*
X136812680Y-107934750D01*
X107263960Y-125575270D02*
X107019370Y-125941330D01*
X140794130Y-105976860D02*
X140615140Y-105797880D01*
X109220130Y-124765000D02*
X108779870Y-124765000D01*
X156941500Y-118203190D02*
X157232610Y-118174510D01*
X137872750Y-125723970D02*
X137588710Y-125572150D01*
X137202130Y-105976860D02*
X137023140Y-105797880D01*
X137489000Y-106669440D02*
X138511000Y-106669440D01*
X134835000Y-82199680D02*
X134835000Y-82960320D01*
D20*
X161600000Y-103400000D02*
X160000000Y-105000000D01*
D19*
X139232100Y-102042420D02*
X139143470Y-102089800D01*
X133420000Y-129328070D02*
X135420000Y-129328070D01*
D20*
X156250000Y-99100000D02*
X154800000Y-99100000D01*
D19*
X132794190Y-125965520D02*
X132781930Y-126090000D01*
X140461190Y-84331190D02*
X140540540Y-84234490D01*
X110736040Y-81575270D02*
X110424730Y-81263960D01*
X109925810Y-102875520D02*
X109889500Y-102755820D01*
X136047250Y-125723970D02*
X135975740Y-125782660D01*
X111149110Y-83651930D02*
X111235000Y-83220130D01*
X139373370Y-104424100D02*
X139619520Y-104483100D01*
X158386370Y-117766130D02*
X158612490Y-117951710D01*
X165263960Y-125575270D02*
X165019370Y-125941330D01*
D20*
X166600000Y-97850000D02*
X167800000Y-97850000D01*
D19*
X140364490Y-84410540D02*
X140461190Y-84331190D01*
X135384860Y-107794130D02*
X135595320Y-107934750D01*
X138010000Y-84518070D02*
X138724250Y-84515000D01*
X135774490Y-125559460D02*
X135664180Y-125500500D01*
X138338290Y-128851710D02*
X138587250Y-129056030D01*
X109830540Y-105354490D02*
X109889500Y-105244180D01*
X109424480Y-102374190D02*
X109300000Y-102361930D01*
X109043020Y-108001940D02*
X109313950Y-107828900D01*
X138871290Y-125572150D02*
X138587250Y-125723970D01*
D20*
X154800000Y-111000000D02*
X154800000Y-112100000D01*
D19*
X133065510Y-125559460D02*
X132968820Y-125638820D01*
X137439620Y-107170820D02*
X137489000Y-106922560D01*
X161941500Y-114968820D02*
X161650390Y-114997490D01*
X167220130Y-129235000D02*
X167651930Y-129149110D01*
X165019370Y-81941330D02*
X164850890Y-82348080D01*
X153049060Y-115945170D02*
X152975180Y-116226730D01*
X156370470Y-118089600D02*
X156650390Y-118174510D01*
X167220130Y-80765000D02*
X166779870Y-80765000D01*
X138863000Y-82453000D02*
X138883000Y-82453000D01*
X154568500Y-116459000D02*
X154588500Y-116459000D01*
X142548360Y-125530860D02*
X142420430Y-125499880D01*
X158612490Y-117951710D02*
X158870470Y-118089600D01*
X108779870Y-129235000D02*
X109220130Y-129235000D01*
X110424730Y-84736040D02*
X110736040Y-84424730D01*
X153176450Y-115683430D02*
X153049060Y-115945170D01*
X135308290Y-81118290D02*
X135103970Y-81367250D01*
X110424730Y-81263960D02*
X110058670Y-81019370D01*
X106765000Y-82779870D02*
X104710000Y-82779870D01*
X137382750Y-84246030D02*
X137454260Y-84187350D01*
X164850890Y-126348080D02*
X164765000Y-126779870D01*
X154314500Y-116459000D02*
X154314500Y-115140850D01*
X104710000Y-82779870D02*
X104710000Y-79710000D01*
X140364490Y-80749460D02*
X140254180Y-80690500D01*
X135557250Y-84246030D02*
X135841290Y-84397850D01*
X161370470Y-115082400D02*
X161112490Y-115220290D01*
X158191500Y-117522630D02*
X158200790Y-117540010D01*
X141913000Y-129160780D02*
X141913000Y-127517000D01*
X139090080Y-102318470D02*
X139796000Y-103024400D01*
X139090080Y-104089530D02*
X109938070Y-104089530D01*
X160700790Y-115631990D02*
X160691500Y-115649370D01*
X108779870Y-124765000D02*
X108348080Y-124850890D01*
D20*
X148200000Y-98800000D02*
X154500000Y-98800000D01*
D19*
X110736040Y-125575270D02*
X110424730Y-125263960D01*
X134968380Y-107170820D02*
X135065250Y-107404680D01*
X107941330Y-81019370D02*
X107575270Y-81263960D01*
X139137000Y-82707000D02*
X139137000Y-84356250D01*
X163191500Y-115649370D02*
X163182210Y-115631990D01*
X160496630Y-117766130D02*
X160682210Y-117540010D01*
X135975740Y-125782660D02*
X135950540Y-125735510D01*
X164850890Y-82348080D02*
X164765000Y-82779870D01*
X109544180Y-102410500D02*
X109424480Y-102374190D01*
X138121710Y-128851710D02*
X138230000Y-128719770D01*
X140599500Y-81035820D02*
X140540540Y-80925510D01*
X135950540Y-125735510D02*
X135871190Y-125638820D01*
X109770780Y-106667000D02*
X108127000Y-106667000D01*
D20*
X144900000Y-99000000D02*
X145100000Y-98800000D01*
D19*
X140910200Y-103856530D02*
X141016100Y-103626630D01*
D20*
X143100000Y-123310000D02*
X142580000Y-122790000D01*
D19*
X139421180Y-105560380D02*
X139187320Y-105657250D01*
X106061930Y-105000000D02*
X106074190Y-105124480D01*
X166348080Y-124850890D02*
X165941330Y-125019370D01*
X155700790Y-117540010D02*
X155886370Y-117766130D01*
X106850890Y-82348080D02*
X106765000Y-82779870D01*
X163182210Y-117540010D02*
X163191500Y-117522630D01*
X141084950Y-103127550D02*
X141045270Y-102877550D01*
X138587250Y-129056030D02*
X138871290Y-129207850D01*
X165012530Y-118089600D02*
X165270510Y-117951710D01*
X138681800Y-102551470D02*
X138575910Y-102781370D01*
D20*
X167500000Y-101800000D02*
X167500000Y-103000000D01*
D19*
X132889460Y-125735510D02*
X132830500Y-125845820D01*
X138575910Y-102781370D02*
X138516900Y-103027520D01*
X140973680Y-128935920D02*
X141237240Y-129120010D01*
X152975180Y-116945270D02*
X153049060Y-117226830D01*
X104710000Y-126779870D02*
X104710000Y-116945270D01*
X135384860Y-105797880D02*
X135205880Y-105976860D01*
X159150390Y-118174510D02*
X159441500Y-118203190D01*
D20*
X148690000Y-126340000D02*
X148690000Y-123310000D01*
D19*
X142420430Y-125499880D02*
X142167000Y-125619220D01*
X156112490Y-115220290D02*
X155886370Y-115405870D01*
X142548360Y-129249140D02*
X142842760Y-129120010D01*
X167220130Y-85235000D02*
X167651930Y-85149110D01*
D20*
X158500000Y-107700000D02*
X161600000Y-107700000D01*
D19*
X137765820Y-80690500D02*
X137655510Y-80749460D01*
X154084610Y-118152480D02*
X154314500Y-118031160D01*
X140934750Y-107404680D02*
X141031620Y-107170820D01*
X165029440Y-104494400D02*
X165010200Y-104510200D01*
X138883000Y-82707000D02*
X138863000Y-82707000D01*
X109545920Y-107606320D02*
X109730010Y-107342760D01*
X155530550Y-115451570D02*
X155312690Y-115258500D01*
X135595320Y-107934750D02*
X135829180Y-108031620D01*
X104710000Y-102318470D02*
X104710000Y-82779870D01*
X106248820Y-102548820D02*
X106169460Y-102645510D01*
X138883000Y-80803750D02*
X139137000Y-80803750D01*
X140957580Y-102640100D02*
X140910200Y-102551470D01*
X106345510Y-105530540D02*
X106395650Y-105557340D01*
X140170820Y-105560380D02*
X139922560Y-105511000D01*
D20*
X166600000Y-103000000D02*
X166600000Y-101800000D01*
D19*
X162512530Y-115082400D02*
X162232610Y-114997490D01*
X165263960Y-84424730D02*
X165575270Y-84736040D01*
D20*
X154800000Y-111000000D02*
X155950000Y-111000000D01*
D19*
X143618810Y-128133530D02*
X143675000Y-127817000D01*
X137489000Y-106669440D02*
X137439620Y-106421180D01*
X165496630Y-115405870D02*
X165270510Y-115220290D01*
X167714750Y-114989990D02*
X167541500Y-114972930D01*
X135595320Y-105657250D02*
X135384860Y-105797880D01*
X109890120Y-106159570D02*
X109859140Y-106031650D01*
X140254180Y-80690500D02*
X140134480Y-80654190D01*
X166779870Y-129235000D02*
X167220130Y-129235000D01*
X163870470Y-118089600D02*
X164150390Y-118174510D01*
X111235000Y-127220130D02*
X111235000Y-126779870D01*
X137479460Y-84234490D02*
X137558820Y-84331190D01*
D20*
X109550000Y-106540000D02*
X122860000Y-106540000D01*
D19*
X166779870Y-85235000D02*
X167220130Y-85235000D01*
X139616400Y-103204000D02*
X138910470Y-102498080D01*
X137885520Y-84505810D02*
X138010000Y-84518070D01*
X164150390Y-114997490D02*
X163870470Y-115082400D01*
X139820520Y-129301340D02*
X140128720Y-129207850D01*
X139616400Y-103204000D02*
X139975610Y-103204000D01*
X134858660Y-83200520D02*
X134952150Y-83508710D01*
X106169460Y-102645510D02*
X106110500Y-102755820D01*
X106850890Y-126348080D02*
X106765000Y-126779870D01*
X107263960Y-81575270D02*
X107019370Y-81941330D01*
X168073000Y-81028950D02*
X168058670Y-81019370D01*
X109300000Y-102361930D02*
X106700000Y-102361930D01*
X135664180Y-125500500D02*
X135544480Y-125464190D01*
X138657250Y-107404680D02*
X138797880Y-107615140D01*
X165019370Y-84058670D02*
X165263960Y-84424730D01*
X106110500Y-102755820D02*
X106074190Y-102875520D01*
X141031620Y-106421180D02*
X140934750Y-106187320D01*
X164765000Y-83220130D02*
X164850890Y-83651930D01*
D20*
X142040000Y-127390000D02*
X147640000Y-127390000D01*
D19*
X142167000Y-125619220D02*
X141913000Y-125619220D01*
X107873000Y-106393000D02*
X108127000Y-106393000D01*
D20*
X138760000Y-87502800D02*
X138760000Y-82830000D01*
D19*
X159441500Y-118203190D02*
X159732610Y-118174510D01*
X138010000Y-80641930D02*
X137885520Y-80654190D01*
X134835000Y-82960320D02*
X134858660Y-83200520D01*
X104710000Y-106920430D02*
X104710000Y-103000000D01*
X164765000Y-82779870D02*
X164765000Y-83220130D01*
X109938070Y-103000000D02*
X109925810Y-102875520D01*
X139669440Y-105511000D02*
X139421180Y-105560380D01*
X159732610Y-114997490D02*
X159441500Y-114968820D01*
X140254180Y-84469500D02*
X140364490Y-84410540D01*
X165075220Y-104475440D02*
X165051400Y-104482670D01*
X136960000Y-129332910D02*
X137280520Y-129301340D01*
X141893000Y-127517000D02*
X141893000Y-127263000D01*
D20*
X166600000Y-99174260D02*
X166600000Y-101800000D01*
D19*
X153352450Y-115451570D02*
X153176450Y-115683430D01*
X164732610Y-114997490D02*
X164441500Y-114968820D01*
X136149480Y-84491340D02*
X136470000Y-84522910D01*
X160012530Y-115082400D02*
X159732610Y-114997490D01*
X161112490Y-117951710D02*
X161370470Y-118089600D01*
X140599500Y-84124180D02*
X140635810Y-84004480D01*
X168073000Y-104473000D02*
X165100000Y-104473000D01*
X155312690Y-117913500D02*
X155530550Y-117720430D01*
X137280520Y-125478660D02*
X136960000Y-125447090D01*
X108427000Y-108175000D02*
X108743530Y-108118810D01*
X140794130Y-107615140D02*
X140934750Y-107404680D01*
X107941330Y-128980630D02*
X108348080Y-129149110D01*
X164732610Y-118174510D02*
X165012530Y-118089600D01*
X107575270Y-81263960D02*
X107263960Y-81575270D01*
X137342750Y-106187320D02*
X137202130Y-105976860D01*
X140010000Y-84518070D02*
X140134480Y-84505810D01*
X156941500Y-114968820D02*
X156650390Y-114997490D01*
X108348080Y-129149110D02*
X108779870Y-129235000D01*
X106061930Y-103000000D02*
X106061930Y-105000000D01*
X139137000Y-82453000D02*
X140486250Y-82453000D01*
X152975180Y-116226730D02*
X104710000Y-116226730D01*
X140448530Y-102089800D02*
X140218630Y-101983910D01*
X160886370Y-117766130D02*
X161112490Y-117951710D01*
X138976860Y-105797880D02*
X138797880Y-105976860D01*
X162996630Y-115405870D02*
X162770510Y-115220290D01*
X107019370Y-125941330D02*
X106850890Y-126348080D01*
D20*
X134800000Y-115800000D02*
X137000000Y-115800000D01*
D19*
X137885520Y-80654190D02*
X137765820Y-80690500D01*
X139187320Y-105657250D02*
X138976860Y-105797880D01*
X109938070Y-103280460D02*
X109938070Y-103000000D01*
X160691500Y-115649370D02*
X160682210Y-115631990D01*
D20*
X147640000Y-127390000D02*
X148690000Y-126340000D01*
D19*
X168058670Y-84980630D02*
X168073000Y-84971060D01*
X153570310Y-117913500D02*
X153821640Y-118060350D01*
X165548720Y-115469340D02*
X165496630Y-115405870D01*
D20*
X157360000Y-100960000D02*
X158500000Y-102100000D01*
D19*
X106074190Y-105124480D02*
X106110500Y-105244180D01*
X154798390Y-115019520D02*
X154568500Y-115140850D01*
X166779870Y-80765000D02*
X166348080Y-80850890D01*
X109651930Y-80850890D02*
X109220130Y-80765000D01*
X106850890Y-83651930D02*
X107019370Y-84058670D01*
X135065250Y-107404680D02*
X135205880Y-107615140D01*
X138634420Y-103767900D02*
X138681800Y-103856530D01*
D20*
X122860000Y-106540000D02*
X125840000Y-103560000D01*
D19*
X137454260Y-84187350D02*
X137479460Y-84234490D01*
X165575270Y-128736040D02*
X165941330Y-128980630D01*
X167714750Y-118182010D02*
X167881350Y-118131470D01*
D20*
X139796000Y-95494360D02*
X140014960Y-95275400D01*
D19*
X165575270Y-84736040D02*
X165941330Y-84980630D01*
X136149490Y-80668660D02*
X135841290Y-80762150D01*
X135103970Y-81367250D02*
X134952150Y-81651290D01*
X155700790Y-115631990D02*
X155687040Y-115657720D01*
X137765820Y-84469500D02*
X137885520Y-84505810D01*
X111087640Y-82199680D02*
X110980630Y-81941330D01*
D20*
X142580000Y-116780000D02*
X141600000Y-115800000D01*
D19*
X107575270Y-128736040D02*
X107941330Y-128980630D01*
X110058670Y-128980630D02*
X110424730Y-128736040D01*
X142842760Y-125659990D02*
X142548360Y-125530860D01*
X168073000Y-125028950D02*
X168058670Y-125019370D01*
X137479460Y-80925510D02*
X137454260Y-80972660D01*
X132781930Y-126090000D02*
X132781930Y-128690000D01*
X110058670Y-81019370D02*
X109651930Y-80850890D01*
X141913000Y-127517000D02*
X142167000Y-127517000D01*
X104710000Y-103000000D02*
X104710000Y-102318470D01*
X136790520Y-80668660D02*
X136470000Y-80637090D01*
X108779870Y-85235000D02*
X109220130Y-85235000D01*
X158386370Y-115405870D02*
X158200790Y-115631990D01*
X165012530Y-115082400D02*
X164732610Y-114997490D01*
X153115340Y-116713000D02*
X152975180Y-116945270D01*
D20*
X163900000Y-105000000D02*
X163900000Y-103400000D01*
D19*
X137655510Y-84410540D02*
X137765820Y-84469500D01*
X140412750Y-125723970D02*
X140128710Y-125572150D01*
X139143470Y-102089800D02*
X139090080Y-102318470D01*
D20*
X157120000Y-113290000D02*
X158110000Y-112300000D01*
D19*
X134858660Y-81959480D02*
X134835000Y-82199680D01*
X139972480Y-101924900D02*
X139719550Y-101915050D01*
X154314500Y-118031160D02*
X154314500Y-116713000D01*
X140122450Y-104453270D02*
X140359900Y-104365580D01*
D20*
X165200000Y-102100000D02*
X165700000Y-102100000D01*
X161600000Y-107700000D02*
X161600000Y-102100000D01*
D19*
X139975610Y-103204000D02*
X139616400Y-103204000D01*
X166348080Y-85149110D02*
X166779870Y-85235000D01*
X155061360Y-118060350D02*
X155312690Y-117913500D01*
X134919000Y-106922560D02*
X134968380Y-107170820D01*
X164441500Y-118203190D02*
X164732610Y-118174510D01*
X136047250Y-129056030D02*
X136331290Y-129207850D01*
X107873000Y-108175000D02*
X107873000Y-106667000D01*
X108348080Y-124850890D02*
X107941330Y-125019370D01*
D20*
X157700000Y-111000000D02*
X158500000Y-110200000D01*
D19*
X137872750Y-129056030D02*
X138121710Y-128851710D01*
X163386370Y-115405870D02*
X163200790Y-115631990D01*
X140010000Y-80641930D02*
X139295750Y-80645000D01*
X136330560Y-108081000D02*
X136578820Y-108031620D01*
X163612490Y-117951710D02*
X163870470Y-118089600D01*
X137489000Y-106922560D02*
X137489000Y-106669440D01*
X158191500Y-115649370D02*
X158182210Y-115631990D01*
X135664180Y-129279500D02*
X135774490Y-129220540D01*
X108127000Y-106667000D02*
X107873000Y-106667000D01*
X135829180Y-105560380D02*
X135595320Y-105657250D01*
X110980630Y-81941330D02*
X110736040Y-81575270D01*
X106395650Y-105557340D02*
X106269990Y-105737240D01*
X107941330Y-125019370D02*
X107575270Y-125263960D01*
D20*
X155950000Y-111000000D02*
X156374260Y-111000000D01*
D19*
X139137000Y-80803750D02*
X138883000Y-80803750D01*
X111235000Y-83220130D02*
X111235000Y-82779870D01*
X140128720Y-129207850D02*
X140412750Y-129056030D01*
X109938070Y-105000000D02*
X109938070Y-104089530D01*
X108127000Y-106667000D02*
X108127000Y-108175000D01*
X143675000Y-127263000D02*
X143675000Y-126963000D01*
X140461190Y-80828820D02*
X140364490Y-80749460D01*
X110736040Y-84424730D02*
X110980630Y-84058670D01*
X154314500Y-116713000D02*
X153115340Y-116713000D01*
X165010200Y-108989800D02*
X165029440Y-109005600D01*
X106061930Y-103000000D02*
X104710000Y-103000000D01*
X136077440Y-108081000D02*
X136330560Y-108081000D01*
D20*
X160000000Y-105000000D02*
X161600000Y-106600000D01*
X137755740Y-117500000D02*
X142155740Y-117500000D01*
D19*
X165270510Y-117951710D02*
X165496630Y-117766130D01*
X156650390Y-118174510D02*
X156941500Y-118203190D01*
X155886370Y-117766130D02*
X156112490Y-117951710D01*
X162232610Y-118174510D02*
X162512530Y-118089600D01*
X109938070Y-104089530D02*
X139090080Y-104089530D01*
X157232610Y-114997490D02*
X156941500Y-114968820D01*
D20*
X165700000Y-102100000D02*
X166600000Y-103000000D01*
D19*
X138121710Y-125928290D02*
X137872750Y-125723970D01*
X140635810Y-84004480D02*
X140648070Y-83880000D01*
X136639480Y-125478660D02*
X136331290Y-125572150D01*
X165496630Y-117766130D02*
X165548720Y-117702660D01*
X107263960Y-128424730D02*
X107575270Y-128736040D01*
X154568500Y-115140850D02*
X154568500Y-116459000D01*
X104710000Y-103000000D02*
X106061930Y-103000000D01*
X168058670Y-125019370D02*
X167651930Y-124850890D01*
D20*
X161600000Y-102100000D02*
X158500000Y-102100000D01*
X157360000Y-99610000D02*
X157360000Y-100960000D01*
D19*
X106956980Y-108001940D02*
X107256470Y-108118810D01*
X137098710Y-84397850D02*
X137382750Y-84246030D01*
X108127000Y-106393000D02*
X108127000Y-106413000D01*
D20*
X154800000Y-111000000D02*
X154800000Y-110307400D01*
D19*
X137439620Y-106421180D02*
X137342750Y-106187320D01*
D20*
X161600000Y-102100000D02*
X162024260Y-102100000D01*
D19*
X111042210Y-126090000D02*
X110980630Y-125941330D01*
X135871190Y-125638820D02*
X135774490Y-125559460D01*
X135975740Y-128997350D02*
X136047250Y-129056030D01*
X140910200Y-102551470D02*
X140681530Y-102498080D01*
D20*
X154500000Y-98800000D02*
X154800000Y-99100000D01*
D19*
X156112490Y-117951710D02*
X156370470Y-118089600D01*
D20*
X161600000Y-107700000D02*
X163310000Y-107700000D01*
D19*
X143501940Y-128433020D02*
X143618810Y-128133530D01*
X160496630Y-115405870D02*
X160270510Y-115220290D01*
X168034890Y-115122600D02*
X167881350Y-115040530D01*
X136331290Y-125572150D02*
X136047250Y-125723970D01*
X164982670Y-104551400D02*
X164975440Y-104575220D01*
X157512530Y-118089600D02*
X157770510Y-117951710D01*
X140359900Y-104365580D02*
X140448530Y-104318200D01*
X166779870Y-124765000D02*
X166348080Y-124850890D01*
X153821640Y-118060350D02*
X154084610Y-118152480D01*
X154314500Y-115140850D02*
X154084610Y-115019520D01*
X141081000Y-106922560D02*
X141081000Y-106669440D01*
X111087640Y-82199680D02*
X134835000Y-82199680D01*
X138871290Y-129207850D02*
X139179490Y-129301340D01*
X165100000Y-104473000D02*
X165075220Y-104475440D01*
X141659570Y-125499880D02*
X141531650Y-125530860D01*
X137454260Y-80972660D02*
X137382750Y-80913970D01*
X139922560Y-105511000D02*
X139669440Y-105511000D01*
X157996630Y-117766130D02*
X158182210Y-117540010D01*
D20*
X156250000Y-99100000D02*
X156250000Y-96571440D01*
D19*
X140170820Y-108031620D02*
X140404680Y-107934750D01*
X138560380Y-107170820D02*
X138657250Y-107404680D01*
X109730010Y-105737240D02*
X109604350Y-105557340D01*
X137202130Y-107615140D02*
X137342750Y-107404680D01*
X138883000Y-84356250D02*
X138883000Y-82707000D01*
X109220130Y-80765000D02*
X108779870Y-80765000D01*
X135103970Y-83792750D02*
X135308290Y-84041710D01*
X168058670Y-81019370D02*
X167651930Y-80850890D01*
X158612490Y-115220290D02*
X158386370Y-115405870D01*
X143106320Y-128935920D02*
X143328900Y-128703950D01*
X140448530Y-104318200D02*
X140501920Y-104089530D01*
X109651930Y-85149110D02*
X110058670Y-84980630D01*
X165941330Y-125019370D02*
X165575270Y-125263960D01*
D20*
X130000000Y-111850000D02*
X133950000Y-111850000D01*
D19*
X135829180Y-108031620D02*
X136077440Y-108081000D01*
X167220130Y-124765000D02*
X166779870Y-124765000D01*
X110736040Y-128424730D02*
X110980630Y-128058670D01*
X165075220Y-109024560D02*
X165100000Y-109027000D01*
X110980630Y-84058670D02*
X111149110Y-83651930D01*
D20*
X142580000Y-122790000D02*
X142580000Y-117500000D01*
D19*
X157512530Y-115082400D02*
X157232610Y-114997490D01*
X109604350Y-105557340D02*
X109654490Y-105530540D01*
X138511000Y-106669440D02*
X137489000Y-106669440D01*
X165019370Y-128058670D02*
X165263960Y-128424730D01*
X135420000Y-125451930D02*
X133420000Y-125451930D01*
X143501940Y-126346980D02*
X143328900Y-126076050D01*
X135205880Y-107615140D02*
X135384860Y-107794130D01*
D20*
X167700000Y-111200000D02*
X167700000Y-112300000D01*
D19*
X140486250Y-82453000D02*
X140645000Y-82294250D01*
X155687040Y-115657720D02*
X155530550Y-115451570D01*
D20*
X167800000Y-97850000D02*
X167800000Y-98750000D01*
D19*
X141075100Y-103380480D02*
X141084950Y-103127550D01*
X168073000Y-84971060D02*
X168073000Y-104473000D01*
X158182210Y-117540010D02*
X158191500Y-117522630D01*
D20*
X158500000Y-103500000D02*
X160000000Y-105000000D01*
D19*
X154588500Y-116713000D02*
X154568500Y-116713000D01*
X152975180Y-116226730D02*
X153115340Y-116459000D01*
X138511000Y-106922560D02*
X138560380Y-107170820D01*
X163612490Y-115220290D02*
X163386370Y-115405870D01*
X164975440Y-108924780D02*
X164982670Y-108948600D01*
X138657250Y-106187320D02*
X138560380Y-106421180D01*
X106765000Y-126779870D02*
X106765000Y-127220130D01*
X140768280Y-128721860D02*
X140973680Y-128935920D01*
X104710000Y-116945270D02*
X104710000Y-116226730D01*
X153049060Y-117226830D02*
X153176450Y-117488570D01*
X167541500Y-118199070D02*
X167714750Y-118182010D01*
X107873000Y-106667000D02*
X108127000Y-106667000D01*
X165270510Y-115220290D02*
X165012530Y-115082400D01*
X142167000Y-125619220D02*
X142167000Y-127263000D01*
X164973000Y-108900000D02*
X164975440Y-108924780D01*
X160886370Y-115405870D02*
X160700790Y-115631990D01*
X107575270Y-125263960D02*
X107263960Y-125575270D01*
X139187320Y-107934750D02*
X139421180Y-108031620D01*
X109830540Y-102645510D02*
X109751190Y-102548820D01*
X161650390Y-118174510D02*
X161941500Y-118203190D01*
X141237240Y-129120010D02*
X141531650Y-129249140D01*
X108779870Y-80765000D02*
X108348080Y-80850890D01*
X137280520Y-129301340D02*
X137588720Y-129207850D01*
X165100000Y-109027000D02*
X168073000Y-109027000D01*
X109889500Y-102755820D02*
X109830540Y-102645510D01*
X109651930Y-124850890D02*
X109220130Y-124765000D01*
X155886370Y-115405870D02*
X155700790Y-115631990D01*
D20*
X142580000Y-117500000D02*
X145530000Y-117500000D01*
D19*
X138910470Y-103909920D02*
X139616400Y-103204000D01*
X140973680Y-125844080D02*
X140768280Y-126058140D01*
X138587250Y-125723970D02*
X138338290Y-125928290D01*
X140661710Y-125928290D02*
X140412750Y-125723970D01*
X106575520Y-102374190D02*
X106455820Y-102410500D01*
X139619520Y-104483100D02*
X139872460Y-104492950D01*
X161941500Y-118203190D02*
X162232610Y-118174510D01*
X143106320Y-125844080D02*
X142842760Y-125659990D01*
X166001650Y-115040530D02*
X165848110Y-115122600D01*
D20*
X163900000Y-107110000D02*
X163900000Y-105000000D01*
D19*
X138230000Y-126060230D02*
X138121710Y-125928290D01*
X157770510Y-117951710D02*
X157996630Y-117766130D01*
X138724250Y-84515000D02*
X138883000Y-84356250D01*
X140404680Y-105657250D02*
X140170820Y-105560380D01*
X109771930Y-106669440D02*
X134919000Y-106669440D01*
X135557250Y-80913970D02*
X135308290Y-81118290D01*
X140412750Y-129056030D02*
X140661710Y-128851710D01*
D20*
X125840000Y-103560000D02*
X128400000Y-103560000D01*
D19*
X136470000Y-80637090D02*
X136149490Y-80668660D01*
X139090080Y-104089530D02*
X139143470Y-104318200D01*
X104710000Y-130290000D02*
X104710000Y-126779870D01*
X138863000Y-82707000D02*
X138863000Y-82453000D01*
X109925810Y-105124480D02*
X109938070Y-105000000D01*
X139421180Y-108031620D02*
X139669440Y-108081000D01*
X164994400Y-108970560D02*
X165010200Y-108989800D01*
X166001650Y-118131470D02*
X166168250Y-118182010D01*
X137558820Y-80828820D02*
X137479460Y-80925510D01*
X140218630Y-101983910D02*
X139972480Y-101924900D01*
X140615140Y-107794130D02*
X140794130Y-107615140D01*
X164765000Y-126779870D02*
X164765000Y-127220130D01*
X141031620Y-107170820D02*
X141081000Y-106922560D01*
X106765000Y-83220130D02*
X106850890Y-83651930D01*
X107263960Y-84424730D02*
X107575270Y-84736040D01*
X162770510Y-117951710D02*
X162996630Y-117766130D01*
X161370470Y-118089600D02*
X161650390Y-118174510D01*
X167881350Y-118131470D02*
X168034890Y-118049410D01*
X141659570Y-129280120D02*
X141913000Y-129160780D01*
X143618810Y-126646470D02*
X143501940Y-126346980D01*
X153570310Y-115258500D02*
X153352450Y-115451570D01*
X135841290Y-84397850D02*
X136149480Y-84491340D01*
X106140860Y-106031650D02*
X106109880Y-106159570D01*
X138910470Y-102498080D02*
X138681800Y-102551470D01*
D20*
X155930000Y-112100000D02*
X157120000Y-113290000D01*
D19*
X104710000Y-79710000D02*
X168073000Y-79710000D01*
D20*
X166600000Y-98750000D02*
X166600000Y-99174260D01*
D19*
X139295750Y-80645000D02*
X139137000Y-80803750D01*
X106269990Y-105737240D02*
X106140860Y-106031650D01*
X167541500Y-114972930D02*
X166341500Y-114972930D01*
X138976860Y-107794130D02*
X139187320Y-107934750D01*
X138724250Y-80645000D02*
X138010000Y-80641930D01*
X139179490Y-129301340D02*
X139500000Y-129332910D01*
X111149110Y-82348080D02*
X111087640Y-82199680D01*
D20*
X144675400Y-95275400D02*
X140439220Y-95275400D01*
D19*
X106765000Y-127220130D02*
X106850890Y-127651930D01*
X165010200Y-104510200D02*
X164994400Y-104529440D01*
D20*
X134619440Y-115619440D02*
X134800000Y-115800000D01*
D19*
X154568500Y-118031160D02*
X154798390Y-118152480D01*
X138797880Y-107615140D02*
X138976860Y-107794130D01*
X168073000Y-109027000D02*
X168073000Y-115153870D01*
X160270510Y-117951710D02*
X160496630Y-117766130D01*
X155530550Y-117720430D02*
X155687040Y-117514280D01*
X168073000Y-115153870D02*
X168034890Y-115122600D01*
X138797880Y-105976860D02*
X138657250Y-106187320D01*
D20*
X154800000Y-112100000D02*
X155930000Y-112100000D01*
D19*
X165019370Y-125941330D02*
X164850890Y-126348080D01*
X135841290Y-80762150D02*
X135557250Y-80913970D01*
D20*
X166600000Y-101800000D02*
X167500000Y-101800000D01*
D19*
X160691500Y-117522630D02*
X160700790Y-117540010D01*
X108743530Y-108118810D02*
X109043020Y-108001940D01*
X165263960Y-128424730D02*
X165575270Y-128736040D01*
X165848110Y-118049410D02*
X166001650Y-118131470D01*
D20*
X156374260Y-111000000D02*
X157700000Y-111000000D01*
D19*
X107019370Y-81941330D02*
X106850890Y-82348080D01*
X138883000Y-82453000D02*
X138883000Y-80803750D01*
X106109880Y-106920430D02*
X106140860Y-107048360D01*
X106700000Y-102361930D02*
X106575520Y-102374190D01*
X132830500Y-125845820D02*
X132794190Y-125965520D01*
X110424730Y-125263960D02*
X110058670Y-125019370D01*
X106109880Y-106159570D02*
X106229220Y-106413000D01*
X106765000Y-82779870D02*
X106765000Y-83220130D01*
X109313950Y-107828900D02*
X109545920Y-107606320D01*
X106074190Y-102875520D02*
X106061930Y-103000000D01*
X138507050Y-103280460D02*
X138546730Y-103530450D01*
X139975610Y-103204000D02*
X140681530Y-103909920D01*
D20*
X130000000Y-111850000D02*
X123850000Y-111850000D01*
D19*
X109220130Y-129235000D02*
X109651930Y-129149110D01*
X136960000Y-125447090D02*
X136639480Y-125478660D01*
X137342750Y-107404680D02*
X137439620Y-107170820D01*
X133295520Y-125464190D02*
X133175820Y-125500500D01*
D20*
X166600000Y-97850000D02*
X166600000Y-98750000D01*
D19*
X109771930Y-106669440D02*
X109770780Y-106667000D01*
X107019370Y-128058670D02*
X107263960Y-128424730D01*
X158200790Y-115631990D02*
X158191500Y-115649370D01*
D20*
X157120000Y-118310000D02*
X157120000Y-113290000D01*
D19*
X137023140Y-105797880D02*
X136812680Y-105657250D01*
X104710000Y-116226730D02*
X104710000Y-106920430D01*
X141237240Y-125659990D02*
X140973680Y-125844080D01*
D20*
X157150000Y-99400000D02*
X157360000Y-99610000D01*
D19*
X165263960Y-81575270D02*
X165019370Y-81941330D01*
X140768280Y-126058140D02*
X140661710Y-125928290D01*
X153821640Y-115111650D02*
X153570310Y-115258500D01*
D20*
X163310000Y-107700000D02*
X163900000Y-107110000D01*
D19*
X139295750Y-84515000D02*
X140010000Y-84518070D01*
X109938070Y-103280460D02*
X138507050Y-103280460D01*
X109651930Y-129149110D02*
X110058670Y-128980630D01*
X111149110Y-126348080D02*
X111042210Y-126090000D01*
X165051400Y-109017330D02*
X165075220Y-109024560D01*
D20*
X156250000Y-99100000D02*
X156550000Y-99400000D01*
D19*
X155061360Y-115111650D02*
X154798390Y-115019520D01*
X166348080Y-129149110D02*
X166779870Y-129235000D01*
X163200790Y-117540010D02*
X163386370Y-117766130D01*
X156650390Y-114997490D02*
X156370470Y-115082400D01*
X108127000Y-106413000D02*
X109770780Y-106413000D01*
X161650390Y-114997490D02*
X161370470Y-115082400D01*
X164441500Y-114968820D02*
X164150390Y-114997490D01*
X168073000Y-128971060D02*
X168073000Y-130290000D01*
X137098720Y-80762150D02*
X136790520Y-80668660D01*
X154798390Y-118152480D02*
X155061360Y-118060350D01*
X106455820Y-102410500D02*
X106345510Y-102469460D01*
X140661710Y-128851710D02*
X140768280Y-128721860D01*
X164982670Y-108948600D02*
X164994400Y-108970560D01*
X132889460Y-129044490D02*
X132968820Y-129141190D01*
D20*
X134619440Y-112519440D02*
X133950000Y-111850000D01*
D19*
X109859140Y-106031650D02*
X109730010Y-105737240D01*
X141081000Y-106669440D02*
X141031620Y-106421180D01*
X139872460Y-104492950D02*
X140122450Y-104453270D01*
X104710000Y-102318470D02*
X139090080Y-102318470D01*
X109938070Y-104089530D02*
X109938070Y-103280460D01*
X107873000Y-106667000D02*
X106229220Y-106667000D01*
X141045270Y-102877550D02*
X140957580Y-102640100D01*
X104710000Y-116226730D02*
X152975180Y-116226730D01*
X140645000Y-82865750D02*
X140486250Y-82707000D01*
X162770510Y-115220290D02*
X162512530Y-115082400D01*
X140648070Y-81280000D02*
X140635810Y-81155520D01*
X136578820Y-105560380D02*
X136330560Y-105511000D01*
X141893000Y-127263000D02*
X141913000Y-127263000D01*
X106140860Y-107048360D02*
X106269990Y-107342760D01*
X106765000Y-126779870D02*
X104710000Y-126779870D01*
X157770510Y-115220290D02*
X157512530Y-115082400D01*
X108127000Y-108175000D02*
X108427000Y-108175000D01*
X137382750Y-80913970D02*
X137098720Y-80762150D01*
D20*
X140439220Y-95275400D02*
X140014960Y-95275400D01*
D19*
X139796000Y-103383610D02*
X139090080Y-104089530D01*
X162996630Y-117766130D02*
X163182210Y-117540010D01*
X162512530Y-118089600D02*
X162770510Y-117951710D01*
X165548720Y-117702660D02*
X165603100Y-117804390D01*
X152975180Y-116945270D02*
X104710000Y-116945270D01*
X109770780Y-106413000D02*
X109890120Y-106159570D01*
X165051400Y-104482670D02*
X165029440Y-104494400D01*
X139500000Y-129332910D02*
X139820520Y-129301340D01*
X165029440Y-109005600D02*
X165051400Y-109017330D01*
D20*
X156250000Y-96571440D02*
X157916880Y-94904560D01*
D19*
X139796000Y-103024400D02*
X140501920Y-102318470D01*
X139820520Y-125478660D02*
X139500000Y-125447090D01*
X165941330Y-84980630D02*
X166348080Y-85149110D01*
X109654490Y-102469460D02*
X109544180Y-102410500D01*
X141531650Y-129249140D02*
X141659570Y-129280120D01*
X106229220Y-106667000D02*
X106109880Y-106920430D01*
D20*
X148690000Y-123310000D02*
X143100000Y-123310000D01*
D19*
X111235000Y-82779870D02*
X111149110Y-82348080D01*
X168073000Y-79710000D02*
X168073000Y-81028950D01*
X139469550Y-101954730D02*
X139232100Y-102042420D01*
X109890120Y-106920430D02*
X109771930Y-106669440D01*
X135871190Y-129141190D02*
X135950540Y-129044490D01*
X141913000Y-125619220D02*
X142167000Y-125619220D01*
X104710000Y-126779870D02*
X106765000Y-126779870D01*
X164765000Y-127220130D02*
X164850890Y-127651930D01*
D20*
X134619440Y-113980560D02*
X134619440Y-115619440D01*
D19*
X167651930Y-129149110D02*
X168058670Y-128980630D01*
D20*
X144900000Y-105100000D02*
X144900000Y-99000000D01*
X158500000Y-110200000D02*
X158500000Y-107700000D01*
D19*
X153176450Y-117488570D02*
X153352450Y-117720430D01*
D20*
X162024260Y-102100000D02*
X165200000Y-102100000D01*
D19*
X140404680Y-107934750D02*
X140615140Y-107794130D01*
X141913000Y-127263000D02*
X141913000Y-125619220D01*
D20*
X145100000Y-98800000D02*
X148200000Y-98800000D01*
X145530000Y-117500000D02*
X146910000Y-116120000D01*
D19*
X155687040Y-117514280D02*
X155700790Y-117540010D01*
D20*
X123850000Y-111850000D02*
X122860000Y-110860000D01*
D19*
X139137000Y-84356250D02*
X139295750Y-84515000D01*
X164975440Y-104575220D02*
X164973000Y-104600000D01*
X138230000Y-128719770D02*
X138338290Y-128851710D01*
X142842760Y-129120010D02*
X143106320Y-128935920D01*
X159732610Y-118174510D02*
X160012530Y-118089600D01*
X167881350Y-115040530D02*
X167714750Y-114989990D01*
D20*
X156550000Y-99400000D02*
X157150000Y-99400000D01*
D19*
X108348080Y-85149110D02*
X108779870Y-85235000D01*
X136812680Y-105657250D02*
X136578820Y-105560380D01*
X142167000Y-127517000D02*
X142167000Y-129160780D01*
D20*
X166600000Y-98750000D02*
X167800000Y-98750000D01*
X163900000Y-103400000D02*
X165200000Y-102100000D01*
D19*
X133295520Y-129315810D02*
X133420000Y-129328070D01*
D20*
X142155740Y-117500000D02*
X142580000Y-117500000D01*
D19*
X153352450Y-117720430D02*
X153570310Y-117913500D01*
X139719550Y-101915050D02*
X139469550Y-101954730D01*
X135544480Y-125464190D02*
X135420000Y-125451930D01*
X165941330Y-128980630D02*
X166348080Y-129149110D01*
X138338290Y-125928290D02*
X138230000Y-126060230D01*
X135205880Y-105976860D02*
X135065250Y-106187320D01*
X166348080Y-80850890D02*
X165941330Y-81019370D01*
X143328900Y-126076050D02*
X143106320Y-125844080D01*
D20*
X158500000Y-102100000D02*
X158500000Y-107700000D01*
D19*
X107873000Y-106413000D02*
X107873000Y-106393000D01*
X140486250Y-82707000D02*
X139137000Y-82707000D01*
X140934750Y-106187320D02*
X140794130Y-105976860D01*
X167651930Y-85149110D02*
X168058670Y-84980630D01*
X160682210Y-117540010D02*
X160691500Y-117522630D01*
X140635810Y-81155520D02*
X140599500Y-81035820D01*
X132968820Y-129141190D02*
X133065510Y-129220540D01*
D20*
X134619440Y-113980560D02*
X134619440Y-112519440D01*
D19*
X138511000Y-106669440D02*
X138511000Y-106922560D01*
X140681530Y-102498080D02*
X139975610Y-103204000D01*
X167651930Y-80850890D02*
X167220130Y-80765000D01*
X163182210Y-115631990D02*
X162996630Y-115405870D01*
X142167000Y-127263000D02*
X143675000Y-127263000D01*
X104710000Y-82779870D02*
X106765000Y-82779870D01*
X106686050Y-107828900D02*
X106956980Y-108001940D01*
X164850890Y-127651930D02*
X165019370Y-128058670D01*
X141913000Y-125619220D02*
X141659570Y-125499880D01*
X110424730Y-128736040D02*
X110736040Y-128424730D01*
X109751190Y-102548820D02*
X109654490Y-102469460D01*
X135308290Y-84041710D02*
X135557250Y-84246030D01*
X107941330Y-84980630D02*
X108348080Y-85149110D01*
X160012530Y-118089600D02*
X160270510Y-117951710D01*
X142167000Y-127517000D02*
X141913000Y-127517000D01*
X137558820Y-84331190D02*
X137655510Y-84410540D01*
X138507050Y-103280460D02*
X109938070Y-103280460D01*
X139090080Y-102318470D02*
X104710000Y-102318470D01*
X139500000Y-125447090D02*
X139179480Y-125478660D01*
X135774490Y-129220540D02*
X135871190Y-129141190D01*
X136790520Y-84491340D02*
X137098710Y-84397850D01*
X166341500Y-114972930D02*
X166168250Y-114989990D01*
D20*
X148200000Y-98800000D02*
X144675400Y-95275400D01*
X138760000Y-82830000D02*
X139010000Y-82580000D01*
D19*
X134835000Y-82199680D02*
X111087640Y-82199680D01*
X165603100Y-117804390D02*
X165713540Y-117938960D01*
X104710000Y-106920430D02*
X106109880Y-106920430D01*
X108348080Y-80850890D02*
X107941330Y-81019370D01*
X110980630Y-128058670D02*
X111149110Y-127651930D01*
D20*
X142580000Y-117500000D02*
X142580000Y-116780000D01*
X158500000Y-106500000D02*
X160000000Y-105000000D01*
D19*
X165575270Y-125263960D02*
X165263960Y-125575270D01*
X141913000Y-127517000D02*
X141893000Y-127517000D01*
X164973000Y-104600000D02*
X164973000Y-108900000D01*
X136331290Y-129207850D02*
X136639490Y-129301340D01*
X165848110Y-115122600D02*
X165713540Y-115233040D01*
X138560380Y-106421180D02*
X138511000Y-106669440D01*
X140681530Y-103909920D02*
X140910200Y-103856530D01*
X138883000Y-80803750D02*
X138724250Y-80645000D01*
X166341500Y-118199070D02*
X167541500Y-118199070D01*
D20*
X166600000Y-103000000D02*
X167500000Y-103000000D01*
D19*
X167651930Y-124850890D02*
X167220130Y-124765000D01*
X159150390Y-114997490D02*
X158870470Y-115082400D01*
D20*
X137000000Y-115800000D02*
X141600000Y-115800000D01*
D19*
X160700790Y-117540010D02*
X160886370Y-117766130D01*
D20*
X160000000Y-105000000D02*
X163900000Y-105000000D01*
D19*
X109730010Y-107342760D02*
X109859140Y-107048360D01*
X138546730Y-103530450D02*
X138634420Y-103767900D01*
X154568500Y-116713000D02*
X154568500Y-118031160D01*
X157232610Y-118174510D02*
X157512530Y-118089600D01*
X140645000Y-82294250D02*
X140648070Y-81280000D01*
X111235000Y-126779870D02*
X111149110Y-126348080D01*
X139669440Y-108081000D02*
X139922560Y-108081000D01*
X158870470Y-118089600D02*
X159150390Y-118174510D01*
D20*
X139796000Y-103204000D02*
X139796000Y-95494360D01*
D19*
X139137000Y-80803750D02*
X139137000Y-82453000D01*
X109220130Y-85235000D02*
X109651930Y-85149110D01*
X164994400Y-104529440D02*
X164982670Y-104551400D01*
X140128710Y-125572150D02*
X139820520Y-125478660D01*
X168073000Y-130290000D02*
X104710000Y-130290000D01*
X140134480Y-80654190D02*
X140010000Y-80641930D01*
X109889500Y-105244180D02*
X109925810Y-105124480D01*
X156370470Y-115082400D02*
X156112490Y-115220290D01*
X140501920Y-102318470D02*
X140448530Y-102089800D01*
X110980630Y-125941330D02*
X110736040Y-125575270D01*
X157996630Y-115405870D02*
X157770510Y-115220290D01*
X138681800Y-103856530D02*
X138910470Y-103909920D01*
X135420000Y-129328070D02*
X135544480Y-129315810D01*
X141531650Y-125530860D02*
X141237240Y-125659990D01*
X107256470Y-108118810D02*
X107573000Y-108175000D01*
D20*
X154800000Y-110307400D02*
X155248610Y-109858790D01*
D19*
X163870470Y-115082400D02*
X163612490Y-115220290D01*
D20*
X122860000Y-110860000D02*
X122860000Y-106540000D01*
D19*
X135544480Y-129315810D02*
X135664180Y-129279500D01*
X165713540Y-117938960D02*
X165848110Y-118049410D01*
X132781930Y-128690000D02*
X132794190Y-128814480D01*
X133175820Y-129279500D02*
X133295520Y-129315810D01*
X158870470Y-115082400D02*
X158612490Y-115220290D01*
X136470000Y-84522910D02*
X136790520Y-84491340D01*
X137588720Y-129207850D02*
X137872750Y-129056030D01*
X138516900Y-103027520D02*
X138507050Y-103280460D01*
X135950540Y-129044490D02*
X135975740Y-128997350D01*
X140648070Y-83880000D02*
X140645000Y-82865750D01*
X164150390Y-118174510D02*
X164441500Y-118203190D01*
X132968820Y-125638820D02*
X132889460Y-125735510D01*
X143675000Y-127517000D02*
X142167000Y-127517000D01*
X136639490Y-129301340D02*
X136960000Y-129332910D01*
X107575270Y-84736040D02*
X107941330Y-84980630D01*
X163386370Y-117766130D02*
X163612490Y-117951710D01*
X139137000Y-82707000D02*
X138883000Y-82707000D01*
X162232610Y-114997490D02*
X161941500Y-114968820D01*
X106269990Y-107342760D02*
X106454080Y-107606320D01*
X166168250Y-118182010D02*
X166341500Y-118199070D01*
D20*
X158110000Y-112300000D02*
X167700000Y-112300000D01*
D19*
X106229220Y-106413000D02*
X107873000Y-106413000D01*
X158182210Y-115631990D02*
X157996630Y-115405870D01*
X142420430Y-129280120D02*
X142548360Y-129249140D01*
X165603100Y-115367610D02*
X165548720Y-115469340D01*
X137655510Y-80749460D02*
X137558820Y-80828820D01*
X155312690Y-115258500D02*
X155061360Y-115111650D01*
X140134480Y-84505810D02*
X140254180Y-84469500D01*
X104710000Y-116945270D02*
X152975180Y-116945270D01*
X140540540Y-80925510D02*
X140461190Y-80828820D01*
X143675000Y-127817000D02*
X143675000Y-127517000D01*
X137023140Y-107794130D02*
X137202130Y-107615140D01*
X109654490Y-105530540D02*
X109751190Y-105451190D01*
X110058670Y-84980630D02*
X110424730Y-84736040D01*
X142167000Y-129160780D02*
X142420430Y-129280120D01*
X154588500Y-116459000D02*
X154588500Y-116713000D01*
X163191500Y-117522630D02*
X163200790Y-117540010D01*
X143675000Y-126963000D02*
X143618810Y-126646470D01*
X106248820Y-105451190D02*
X106345510Y-105530540D01*
X132781930Y-126090000D02*
X111042210Y-126090000D01*
X166168250Y-114989990D02*
X166001650Y-115040530D01*
X141016100Y-103626630D02*
X141075100Y-103380480D01*
X164850890Y-83651930D02*
X165019370Y-84058670D01*
X132794190Y-128814480D02*
X132830500Y-128934180D01*
X139143470Y-104318200D02*
X139373370Y-104424100D01*
X106110500Y-105244180D02*
X106169460Y-105354490D01*
X107019370Y-84058670D02*
X107263960Y-84424730D01*
X106109880Y-106920430D02*
X104710000Y-106920430D01*
X159441500Y-114968820D02*
X159150390Y-114997490D01*
X136330560Y-105511000D02*
X136077440Y-105511000D01*
D20*
X136075740Y-115800000D02*
X137000000Y-115800000D01*
D19*
X153115340Y-116459000D02*
X154314500Y-116459000D01*
X136812680Y-107934750D02*
X137023140Y-107794130D01*
X106169460Y-105354490D02*
X106248820Y-105451190D01*
X133065510Y-129220540D02*
X133175820Y-129279500D01*
X109859140Y-107048360D02*
X109890120Y-106920430D01*
X165575270Y-81263960D02*
X165263960Y-81575270D01*
X168058670Y-128980630D02*
X168073000Y-128971060D01*
X139179480Y-125478660D02*
X138871290Y-125572150D01*
X133175820Y-125500500D02*
X133065510Y-125559460D01*
X168034890Y-118049410D02*
X168073000Y-118018130D01*
X158200790Y-117540010D02*
X158386370Y-117766130D01*
X140615140Y-105797880D02*
X140404680Y-105657250D01*
X111149110Y-127651930D02*
X111235000Y-127220130D01*
X134919000Y-106669440D02*
X109771930Y-106669440D01*
X106345510Y-102469460D02*
X106248820Y-102548820D01*
X106454080Y-107606320D02*
X106686050Y-107828900D01*
X163200790Y-115631990D02*
X163191500Y-115649370D01*
X110058670Y-125019370D02*
X109651930Y-124850890D01*
X134952150Y-81651290D02*
X134858660Y-81959480D01*
X109751190Y-105451190D02*
X109830540Y-105354490D01*
X136077440Y-105511000D02*
X135829180Y-105560380D01*
X107573000Y-108175000D02*
X107873000Y-108175000D01*
D20*
X108000000Y-106540000D02*
X109550000Y-106540000D01*
D19*
X143328900Y-128703950D02*
X143501940Y-128433020D01*
X106850890Y-127651930D02*
X107019370Y-128058670D01*
X160270510Y-115220290D02*
X160012530Y-115082400D01*
X135065250Y-106187320D02*
X134968380Y-106421180D01*
X137588710Y-125572150D02*
X137280520Y-125478660D01*
X168073000Y-118018130D02*
X168073000Y-125028950D01*
X134968380Y-106421180D02*
X134919000Y-106669440D01*
X132830500Y-128934180D02*
X132889460Y-129044490D01*
X165713540Y-115233040D02*
X165603100Y-115367610D01*
X165941330Y-81019370D02*
X165575270Y-81263960D01*
X161112490Y-115220290D02*
X160886370Y-115405870D01*
X111042210Y-126090000D02*
X132781930Y-126090000D01*
X154084610Y-115019520D02*
X153821640Y-115111650D01*
X134952150Y-83508710D02*
X135103970Y-83792750D01*
X139922560Y-108081000D02*
X140170820Y-108031620D01*
X138883000Y-82707000D02*
X139137000Y-82707000D01*
X140501920Y-104089530D02*
X139796000Y-103383610D01*
X134919000Y-106669440D02*
X134919000Y-106922560D01*
%TD*%
M02*
