M48
; DRILL file {KiCad 5.1.4-e60b266~84~ubuntu18.04.1} date Sat Oct 26 18:44:58 2019
; FORMAT={-:-/ absolute / metric / decimal}
; #@! TF.CreationDate,2019-10-26T18:44:58+05:30
; #@! TF.GenerationSoftware,Kicad,Pcbnew,5.1.4-e60b266~84~ubuntu18.04.1
; #@! TF.FileFunction,Plated,1,2,PTH
FMAT,2
METRIC
T1C0.400
T2C1.000
T3C1.200
T4C1.500
T5C1.700
%
G90
G05
T1
X14.2Y-35.9
X14.2Y-44.05
X14.2Y-45.0
X14.2Y-48.25
X14.2Y-49.05
X15.0Y-48.25
X15.0Y-49.05
X15.15Y-44.05
X15.15Y-45.0
X18.25Y-39.5
X18.25Y-44.5
X21.0Y-42.0
X22.25Y-39.5
X22.25Y-44.5
X23.25Y-31.7
X23.5Y-42.0
X24.5Y-34.0
X26.25Y-47.5
X26.5Y-36.75
X27.35Y-36.75
X27.35Y-37.8
X27.35Y-46.3
X27.35Y-47.5
X28.1Y-35.35
X28.5Y-50.0
X31.6Y-17.0
X35.3Y-28.25
X35.75Y-33.5
X37.5Y-31.85
X37.5Y-37.0
X39.1Y-28.25
X39.35Y-27.2
X41.215Y-37.485
X41.5Y-22.0
X44.7Y-22.0
X47.8Y-22.0
T2
X16.0Y-28.0
X16.0Y-30.54
X16.0Y-33.08
X18.54Y-28.0
X18.54Y-30.54
X18.54Y-33.08
T3
X40.0Y-50.0
X42.54Y-50.0
T4
X54.13Y-31.76
T5
X51.59Y-29.22
X51.59Y-34.3
X56.67Y-29.22
X56.67Y-34.3
T0
M30
