G04 #@! TF.GenerationSoftware,KiCad,Pcbnew,no-vcs-found-e5c4cfc~61~ubuntu16.04.1*
G04 #@! TF.CreationDate,2017-11-03T16:10:43+05:30*
G04 #@! TF.ProjectId,snap_rev2,736E61705F726576322E6B696361645F,rev?*
G04 #@! TF.SameCoordinates,Original*
G04 #@! TF.FileFunction,Legend,Top*
G04 #@! TF.FilePolarity,Positive*
%FSLAX46Y46*%
G04 Gerber Fmt 4.6, Leading zero omitted, Abs format (unit mm)*
G04 Created by KiCad (PCBNEW no-vcs-found-e5c4cfc~61~ubuntu16.04.1) date Fri Nov  3 16:10:43 2017*
%MOMM*%
%LPD*%
G01*
G04 APERTURE LIST*
%ADD10C,0.120000*%
%ADD11C,0.150000*%
%ADD12C,0.127000*%
%ADD13C,0.100000*%
%ADD14C,4.200000*%
%ADD15R,1.100000X1.700000*%
%ADD16C,2.480000*%
%ADD17R,0.830000X1.680000*%
%ADD18C,1.400000*%
%ADD19C,0.900000*%
%ADD20R,1.600000X0.900000*%
%ADD21R,2.000000X1.300000*%
%ADD22R,2.000000X0.900000*%
%ADD23R,0.900000X2.000000*%
%ADD24R,1.250000X0.680000*%
%ADD25R,1.150000X0.680000*%
%ADD26R,1.700000X1.100000*%
%ADD27R,1.300000X1.200000*%
%ADD28C,2.100000*%
%ADD29R,1.650000X1.400000*%
%ADD30R,1.400000X1.650000*%
%ADD31R,1.200000X1.150000*%
%ADD32R,2.600000X2.400000*%
%ADD33R,2.600000X2.800000*%
%ADD34C,1.500000*%
%ADD35R,3.150000X1.400000*%
G04 APERTURE END LIST*
D10*
X62850000Y-94380000D02*
X61650000Y-94380000D01*
X61650000Y-92620000D02*
X62850000Y-92620000D01*
D11*
X80100000Y-91600000D02*
X70100000Y-91600000D01*
X70100000Y-88350000D02*
X80100000Y-88350000D01*
X70096200Y-95030600D02*
X70096200Y-93278000D01*
X70096200Y-88350400D02*
X70096200Y-91601600D01*
X70096200Y-104327000D02*
X70096200Y-102396600D01*
X80103800Y-104352400D02*
X80103800Y-103082400D01*
X80103800Y-88350400D02*
X80103800Y-91601600D01*
D10*
X94777000Y-105195000D02*
X96477000Y-105195000D01*
X94927000Y-106895000D02*
X96477000Y-106895000D01*
X64880000Y-103650000D02*
X64880000Y-104850000D01*
X63120000Y-104850000D02*
X63120000Y-103650000D01*
X62850000Y-96630000D02*
X61650000Y-96630000D01*
X61650000Y-94870000D02*
X62850000Y-94870000D01*
X62850000Y-92130000D02*
X61650000Y-92130000D01*
X61650000Y-90370000D02*
X62850000Y-90370000D01*
X86130000Y-105400000D02*
X86130000Y-106600000D01*
X84370000Y-106600000D02*
X84370000Y-105400000D01*
X97636000Y-106645000D02*
X97636000Y-105445000D01*
X99396000Y-105445000D02*
X99396000Y-106645000D01*
X91880000Y-105400000D02*
X91880000Y-106600000D01*
X90120000Y-106600000D02*
X90120000Y-105400000D01*
X104610000Y-107625000D02*
X104610000Y-106695000D01*
X104610000Y-104465000D02*
X104610000Y-105395000D01*
X104610000Y-104465000D02*
X102450000Y-104465000D01*
X104610000Y-107625000D02*
X103150000Y-107625000D01*
X93850000Y-106500000D02*
X93850000Y-105500000D01*
X92150000Y-105500000D02*
X92150000Y-106500000D01*
X62750000Y-100400000D02*
X61750000Y-100400000D01*
X61750000Y-102100000D02*
X62750000Y-102100000D01*
X61900000Y-98900000D02*
X62600000Y-98900000D01*
X62600000Y-100100000D02*
X61900000Y-100100000D01*
X54450000Y-93200000D02*
X54450000Y-94100000D01*
X54450000Y-96800000D02*
X59350000Y-96800000D01*
X59350000Y-93200000D02*
X54450000Y-93200000D01*
X96222000Y-102655000D02*
X95222000Y-102655000D01*
X95222000Y-104355000D02*
X96222000Y-104355000D01*
X68650000Y-108150000D02*
X69350000Y-108150000D01*
X69350000Y-109350000D02*
X68650000Y-109350000D01*
X68850000Y-104750000D02*
X68850000Y-103750000D01*
X67150000Y-103750000D02*
X67150000Y-104750000D01*
X68650000Y-106400000D02*
X69350000Y-106400000D01*
X69350000Y-107600000D02*
X68650000Y-107600000D01*
X66850000Y-104750000D02*
X66850000Y-103750000D01*
X65150000Y-103750000D02*
X65150000Y-104750000D01*
X88150000Y-105500000D02*
X88150000Y-106500000D01*
X89850000Y-106500000D02*
X89850000Y-105500000D01*
X99825000Y-105545000D02*
X99825000Y-106545000D01*
X101525000Y-106545000D02*
X101525000Y-105545000D01*
X61750000Y-98600000D02*
X62750000Y-98600000D01*
X62750000Y-96900000D02*
X61750000Y-96900000D01*
D11*
X107200000Y-96000000D02*
X106000000Y-96000000D01*
X103600000Y-96000000D02*
X100100000Y-96000000D01*
X106200000Y-90000000D02*
X101900000Y-90000000D01*
X98000000Y-90000000D02*
X98000000Y-95100000D01*
X99500000Y-90000000D02*
X98000000Y-90000000D01*
D10*
X60250000Y-107250000D02*
X60250000Y-104750000D01*
X53750000Y-107250000D02*
X53750000Y-104750000D01*
X60250000Y-109400000D02*
X60250000Y-108750000D01*
X53750000Y-109400000D02*
X60250000Y-109400000D01*
X53750000Y-108750000D02*
X53750000Y-109400000D01*
X60250000Y-102600000D02*
X60250000Y-103250000D01*
X53750000Y-102600000D02*
X60250000Y-102600000D01*
X53750000Y-103250000D02*
X53750000Y-102600000D01*
X72900000Y-106850000D02*
X72450000Y-106850000D01*
X74050000Y-107255000D02*
X72900000Y-106850000D01*
X72900000Y-108750000D02*
X72450000Y-108750000D01*
X74050000Y-108345000D02*
X72900000Y-108750000D01*
X74050000Y-106100000D02*
X74050000Y-109500000D01*
X82450000Y-106100000D02*
X74050000Y-106100000D01*
X82450000Y-109500000D02*
X82450000Y-106100000D01*
X74050000Y-109500000D02*
X82450000Y-109500000D01*
D12*
X64623000Y-93844714D02*
X64369000Y-93481857D01*
X64187571Y-93844714D02*
X64187571Y-93082714D01*
X64477857Y-93082714D01*
X64550428Y-93119000D01*
X64586714Y-93155285D01*
X64623000Y-93227857D01*
X64623000Y-93336714D01*
X64586714Y-93409285D01*
X64550428Y-93445571D01*
X64477857Y-93481857D01*
X64187571Y-93481857D01*
X65312428Y-93082714D02*
X64949571Y-93082714D01*
X64913285Y-93445571D01*
X64949571Y-93409285D01*
X65022142Y-93373000D01*
X65203571Y-93373000D01*
X65276142Y-93409285D01*
X65312428Y-93445571D01*
X65348714Y-93518142D01*
X65348714Y-93699571D01*
X65312428Y-93772142D01*
X65276142Y-93808428D01*
X65203571Y-93844714D01*
X65022142Y-93844714D01*
X64949571Y-93808428D01*
X64913285Y-93772142D01*
X59187571Y-90344714D02*
X59187571Y-89582714D01*
X59369000Y-89582714D01*
X59477857Y-89619000D01*
X59550428Y-89691571D01*
X59586714Y-89764142D01*
X59623000Y-89909285D01*
X59623000Y-90018142D01*
X59586714Y-90163285D01*
X59550428Y-90235857D01*
X59477857Y-90308428D01*
X59369000Y-90344714D01*
X59187571Y-90344714D01*
X59913285Y-89655285D02*
X59949571Y-89619000D01*
X60022142Y-89582714D01*
X60203571Y-89582714D01*
X60276142Y-89619000D01*
X60312428Y-89655285D01*
X60348714Y-89727857D01*
X60348714Y-89800428D01*
X60312428Y-89909285D01*
X59877000Y-90344714D01*
X60348714Y-90344714D01*
X88207573Y-95594714D02*
X88207573Y-94832714D01*
X88497859Y-94832714D01*
X88570430Y-94869000D01*
X88606716Y-94905285D01*
X88643002Y-94977857D01*
X88643002Y-95086714D01*
X88606716Y-95159285D01*
X88570430Y-95195571D01*
X88497859Y-95231857D01*
X88207573Y-95231857D01*
X89368716Y-95594714D02*
X88933287Y-95594714D01*
X89151002Y-95594714D02*
X89151002Y-94832714D01*
X89078430Y-94941571D01*
X89005859Y-95014142D01*
X88933287Y-95050428D01*
X80669428Y-89582714D02*
X80669428Y-90199571D01*
X80705714Y-90272142D01*
X80742000Y-90308428D01*
X80814571Y-90344714D01*
X80959714Y-90344714D01*
X81032285Y-90308428D01*
X81068571Y-90272142D01*
X81104857Y-90199571D01*
X81104857Y-89582714D01*
X81431428Y-89655285D02*
X81467714Y-89619000D01*
X81540285Y-89582714D01*
X81721714Y-89582714D01*
X81794285Y-89619000D01*
X81830571Y-89655285D01*
X81866857Y-89727857D01*
X81866857Y-89800428D01*
X81830571Y-89909285D01*
X81395142Y-90344714D01*
X81866857Y-90344714D01*
D11*
X74007142Y-90566666D02*
X74483333Y-90566666D01*
X73911904Y-90852380D02*
X74245238Y-89852380D01*
X74578571Y-90852380D01*
X74911904Y-90852380D02*
X74911904Y-89852380D01*
X75483333Y-90852380D01*
X75483333Y-89852380D01*
X75816666Y-89852380D02*
X76388095Y-89852380D01*
X76102380Y-90852380D02*
X76102380Y-89852380D01*
D13*
X94619047Y-104476190D02*
X94619047Y-104880952D01*
X94642857Y-104928571D01*
X94666666Y-104952380D01*
X94714285Y-104976190D01*
X94809523Y-104976190D01*
X94857142Y-104952380D01*
X94880952Y-104928571D01*
X94904761Y-104880952D01*
X94904761Y-104476190D01*
X95404761Y-104976190D02*
X95119047Y-104976190D01*
X95261904Y-104976190D02*
X95261904Y-104476190D01*
X95214285Y-104547619D01*
X95166666Y-104595238D01*
X95119047Y-104619047D01*
D12*
X63873000Y-106844714D02*
X63619000Y-106481857D01*
X63437571Y-106844714D02*
X63437571Y-106082714D01*
X63727857Y-106082714D01*
X63800428Y-106119000D01*
X63836714Y-106155285D01*
X63873000Y-106227857D01*
X63873000Y-106336714D01*
X63836714Y-106409285D01*
X63800428Y-106445571D01*
X63727857Y-106481857D01*
X63437571Y-106481857D01*
X64127000Y-106082714D02*
X64635000Y-106082714D01*
X64308428Y-106844714D01*
X64623000Y-96094714D02*
X64369000Y-95731857D01*
X64187571Y-96094714D02*
X64187571Y-95332714D01*
X64477857Y-95332714D01*
X64550428Y-95369000D01*
X64586714Y-95405285D01*
X64623000Y-95477857D01*
X64623000Y-95586714D01*
X64586714Y-95659285D01*
X64550428Y-95695571D01*
X64477857Y-95731857D01*
X64187571Y-95731857D01*
X65276142Y-95332714D02*
X65131000Y-95332714D01*
X65058428Y-95369000D01*
X65022142Y-95405285D01*
X64949571Y-95514142D01*
X64913285Y-95659285D01*
X64913285Y-95949571D01*
X64949571Y-96022142D01*
X64985857Y-96058428D01*
X65058428Y-96094714D01*
X65203571Y-96094714D01*
X65276142Y-96058428D01*
X65312428Y-96022142D01*
X65348714Y-95949571D01*
X65348714Y-95768142D01*
X65312428Y-95695571D01*
X65276142Y-95659285D01*
X65203571Y-95623000D01*
X65058428Y-95623000D01*
X64985857Y-95659285D01*
X64949571Y-95695571D01*
X64913285Y-95768142D01*
X64623000Y-91594714D02*
X64369000Y-91231857D01*
X64187571Y-91594714D02*
X64187571Y-90832714D01*
X64477857Y-90832714D01*
X64550428Y-90869000D01*
X64586714Y-90905285D01*
X64623000Y-90977857D01*
X64623000Y-91086714D01*
X64586714Y-91159285D01*
X64550428Y-91195571D01*
X64477857Y-91231857D01*
X64187571Y-91231857D01*
X65276142Y-91086714D02*
X65276142Y-91594714D01*
X65094714Y-90796428D02*
X64913285Y-91340714D01*
X65385000Y-91340714D01*
X85123000Y-103844714D02*
X84869000Y-103481857D01*
X84687571Y-103844714D02*
X84687571Y-103082714D01*
X84977857Y-103082714D01*
X85050428Y-103119000D01*
X85086714Y-103155285D01*
X85123000Y-103227857D01*
X85123000Y-103336714D01*
X85086714Y-103409285D01*
X85050428Y-103445571D01*
X84977857Y-103481857D01*
X84687571Y-103481857D01*
X85377000Y-103082714D02*
X85848714Y-103082714D01*
X85594714Y-103373000D01*
X85703571Y-103373000D01*
X85776142Y-103409285D01*
X85812428Y-103445571D01*
X85848714Y-103518142D01*
X85848714Y-103699571D01*
X85812428Y-103772142D01*
X85776142Y-103808428D01*
X85703571Y-103844714D01*
X85485857Y-103844714D01*
X85413285Y-103808428D01*
X85377000Y-103772142D01*
X98373000Y-103844714D02*
X98119000Y-103481857D01*
X97937571Y-103844714D02*
X97937571Y-103082714D01*
X98227857Y-103082714D01*
X98300428Y-103119000D01*
X98336714Y-103155285D01*
X98373000Y-103227857D01*
X98373000Y-103336714D01*
X98336714Y-103409285D01*
X98300428Y-103445571D01*
X98227857Y-103481857D01*
X97937571Y-103481857D01*
X98663285Y-103155285D02*
X98699571Y-103119000D01*
X98772142Y-103082714D01*
X98953571Y-103082714D01*
X99026142Y-103119000D01*
X99062428Y-103155285D01*
X99098714Y-103227857D01*
X99098714Y-103300428D01*
X99062428Y-103409285D01*
X98627000Y-103844714D01*
X99098714Y-103844714D01*
X90949000Y-103799714D02*
X90695000Y-103436857D01*
X90513571Y-103799714D02*
X90513571Y-103037714D01*
X90803857Y-103037714D01*
X90876428Y-103074000D01*
X90912714Y-103110285D01*
X90949000Y-103182857D01*
X90949000Y-103291714D01*
X90912714Y-103364285D01*
X90876428Y-103400571D01*
X90803857Y-103436857D01*
X90513571Y-103436857D01*
X91674714Y-103799714D02*
X91239285Y-103799714D01*
X91457000Y-103799714D02*
X91457000Y-103037714D01*
X91384428Y-103146571D01*
X91311857Y-103219142D01*
X91239285Y-103255428D01*
X103827428Y-103917285D02*
X103754857Y-103881000D01*
X103682285Y-103808428D01*
X103573428Y-103699571D01*
X103500857Y-103663285D01*
X103428285Y-103663285D01*
X103464571Y-103844714D02*
X103392000Y-103808428D01*
X103319428Y-103735857D01*
X103283142Y-103590714D01*
X103283142Y-103336714D01*
X103319428Y-103191571D01*
X103392000Y-103119000D01*
X103464571Y-103082714D01*
X103609714Y-103082714D01*
X103682285Y-103119000D01*
X103754857Y-103191571D01*
X103791142Y-103336714D01*
X103791142Y-103590714D01*
X103754857Y-103735857D01*
X103682285Y-103808428D01*
X103609714Y-103844714D01*
X103464571Y-103844714D01*
X104516857Y-103844714D02*
X104081428Y-103844714D01*
X104299142Y-103844714D02*
X104299142Y-103082714D01*
X104226571Y-103191571D01*
X104154000Y-103264142D01*
X104081428Y-103300428D01*
X92873000Y-103844714D02*
X92510142Y-103844714D01*
X92510142Y-103082714D01*
X93054428Y-103082714D02*
X93526142Y-103082714D01*
X93272142Y-103373000D01*
X93381000Y-103373000D01*
X93453571Y-103409285D01*
X93489857Y-103445571D01*
X93526142Y-103518142D01*
X93526142Y-103699571D01*
X93489857Y-103772142D01*
X93453571Y-103808428D01*
X93381000Y-103844714D01*
X93163285Y-103844714D01*
X93090714Y-103808428D01*
X93054428Y-103772142D01*
X64623000Y-101594714D02*
X64260142Y-101594714D01*
X64260142Y-100832714D01*
X64840714Y-100905285D02*
X64877000Y-100869000D01*
X64949571Y-100832714D01*
X65131000Y-100832714D01*
X65203571Y-100869000D01*
X65239857Y-100905285D01*
X65276142Y-100977857D01*
X65276142Y-101050428D01*
X65239857Y-101159285D01*
X64804428Y-101594714D01*
X65276142Y-101594714D01*
X64623000Y-99844714D02*
X64260142Y-99844714D01*
X64260142Y-99082714D01*
X65276142Y-99844714D02*
X64840714Y-99844714D01*
X65058428Y-99844714D02*
X65058428Y-99082714D01*
X64985857Y-99191571D01*
X64913285Y-99264142D01*
X64840714Y-99300428D01*
X52937571Y-93844714D02*
X52937571Y-93082714D01*
X53119000Y-93082714D01*
X53227857Y-93119000D01*
X53300428Y-93191571D01*
X53336714Y-93264142D01*
X53373000Y-93409285D01*
X53373000Y-93518142D01*
X53336714Y-93663285D01*
X53300428Y-93735857D01*
X53227857Y-93808428D01*
X53119000Y-93844714D01*
X52937571Y-93844714D01*
X54098714Y-93844714D02*
X53663285Y-93844714D01*
X53881000Y-93844714D02*
X53881000Y-93082714D01*
X53808428Y-93191571D01*
X53735857Y-93264142D01*
X53663285Y-93300428D01*
X95623000Y-102272142D02*
X95586714Y-102308428D01*
X95477857Y-102344714D01*
X95405285Y-102344714D01*
X95296428Y-102308428D01*
X95223857Y-102235857D01*
X95187571Y-102163285D01*
X95151285Y-102018142D01*
X95151285Y-101909285D01*
X95187571Y-101764142D01*
X95223857Y-101691571D01*
X95296428Y-101619000D01*
X95405285Y-101582714D01*
X95477857Y-101582714D01*
X95586714Y-101619000D01*
X95623000Y-101655285D01*
X96058428Y-101909285D02*
X95985857Y-101873000D01*
X95949571Y-101836714D01*
X95913285Y-101764142D01*
X95913285Y-101727857D01*
X95949571Y-101655285D01*
X95985857Y-101619000D01*
X96058428Y-101582714D01*
X96203571Y-101582714D01*
X96276142Y-101619000D01*
X96312428Y-101655285D01*
X96348714Y-101727857D01*
X96348714Y-101764142D01*
X96312428Y-101836714D01*
X96276142Y-101873000D01*
X96203571Y-101909285D01*
X96058428Y-101909285D01*
X95985857Y-101945571D01*
X95949571Y-101981857D01*
X95913285Y-102054428D01*
X95913285Y-102199571D01*
X95949571Y-102272142D01*
X95985857Y-102308428D01*
X96058428Y-102344714D01*
X96203571Y-102344714D01*
X96276142Y-102308428D01*
X96312428Y-102272142D01*
X96348714Y-102199571D01*
X96348714Y-102054428D01*
X96312428Y-101981857D01*
X96276142Y-101945571D01*
X96203571Y-101909285D01*
X66623000Y-109022142D02*
X66586714Y-109058428D01*
X66477857Y-109094714D01*
X66405285Y-109094714D01*
X66296428Y-109058428D01*
X66223857Y-108985857D01*
X66187571Y-108913285D01*
X66151285Y-108768142D01*
X66151285Y-108659285D01*
X66187571Y-108514142D01*
X66223857Y-108441571D01*
X66296428Y-108369000D01*
X66405285Y-108332714D01*
X66477857Y-108332714D01*
X66586714Y-108369000D01*
X66623000Y-108405285D01*
X66877000Y-108332714D02*
X67385000Y-108332714D01*
X67058428Y-109094714D01*
X67873000Y-102272142D02*
X67836714Y-102308428D01*
X67727857Y-102344714D01*
X67655285Y-102344714D01*
X67546428Y-102308428D01*
X67473857Y-102235857D01*
X67437571Y-102163285D01*
X67401285Y-102018142D01*
X67401285Y-101909285D01*
X67437571Y-101764142D01*
X67473857Y-101691571D01*
X67546428Y-101619000D01*
X67655285Y-101582714D01*
X67727857Y-101582714D01*
X67836714Y-101619000D01*
X67873000Y-101655285D01*
X68526142Y-101582714D02*
X68381000Y-101582714D01*
X68308428Y-101619000D01*
X68272142Y-101655285D01*
X68199571Y-101764142D01*
X68163285Y-101909285D01*
X68163285Y-102199571D01*
X68199571Y-102272142D01*
X68235857Y-102308428D01*
X68308428Y-102344714D01*
X68453571Y-102344714D01*
X68526142Y-102308428D01*
X68562428Y-102272142D01*
X68598714Y-102199571D01*
X68598714Y-102018142D01*
X68562428Y-101945571D01*
X68526142Y-101909285D01*
X68453571Y-101873000D01*
X68308428Y-101873000D01*
X68235857Y-101909285D01*
X68199571Y-101945571D01*
X68163285Y-102018142D01*
X66623000Y-107272142D02*
X66586714Y-107308428D01*
X66477857Y-107344714D01*
X66405285Y-107344714D01*
X66296428Y-107308428D01*
X66223857Y-107235857D01*
X66187571Y-107163285D01*
X66151285Y-107018142D01*
X66151285Y-106909285D01*
X66187571Y-106764142D01*
X66223857Y-106691571D01*
X66296428Y-106619000D01*
X66405285Y-106582714D01*
X66477857Y-106582714D01*
X66586714Y-106619000D01*
X66623000Y-106655285D01*
X67312428Y-106582714D02*
X66949571Y-106582714D01*
X66913285Y-106945571D01*
X66949571Y-106909285D01*
X67022142Y-106873000D01*
X67203571Y-106873000D01*
X67276142Y-106909285D01*
X67312428Y-106945571D01*
X67348714Y-107018142D01*
X67348714Y-107199571D01*
X67312428Y-107272142D01*
X67276142Y-107308428D01*
X67203571Y-107344714D01*
X67022142Y-107344714D01*
X66949571Y-107308428D01*
X66913285Y-107272142D01*
X65873000Y-102272142D02*
X65836714Y-102308428D01*
X65727857Y-102344714D01*
X65655285Y-102344714D01*
X65546428Y-102308428D01*
X65473857Y-102235857D01*
X65437571Y-102163285D01*
X65401285Y-102018142D01*
X65401285Y-101909285D01*
X65437571Y-101764142D01*
X65473857Y-101691571D01*
X65546428Y-101619000D01*
X65655285Y-101582714D01*
X65727857Y-101582714D01*
X65836714Y-101619000D01*
X65873000Y-101655285D01*
X66526142Y-101836714D02*
X66526142Y-102344714D01*
X66344714Y-101546428D02*
X66163285Y-102090714D01*
X66635000Y-102090714D01*
X88873000Y-103727142D02*
X88836714Y-103763428D01*
X88727857Y-103799714D01*
X88655285Y-103799714D01*
X88546428Y-103763428D01*
X88473857Y-103690857D01*
X88437571Y-103618285D01*
X88401285Y-103473142D01*
X88401285Y-103364285D01*
X88437571Y-103219142D01*
X88473857Y-103146571D01*
X88546428Y-103074000D01*
X88655285Y-103037714D01*
X88727857Y-103037714D01*
X88836714Y-103074000D01*
X88873000Y-103110285D01*
X89127000Y-103037714D02*
X89598714Y-103037714D01*
X89344714Y-103328000D01*
X89453571Y-103328000D01*
X89526142Y-103364285D01*
X89562428Y-103400571D01*
X89598714Y-103473142D01*
X89598714Y-103654571D01*
X89562428Y-103727142D01*
X89526142Y-103763428D01*
X89453571Y-103799714D01*
X89235857Y-103799714D01*
X89163285Y-103763428D01*
X89127000Y-103727142D01*
X100548000Y-103772142D02*
X100511714Y-103808428D01*
X100402857Y-103844714D01*
X100330285Y-103844714D01*
X100221428Y-103808428D01*
X100148857Y-103735857D01*
X100112571Y-103663285D01*
X100076285Y-103518142D01*
X100076285Y-103409285D01*
X100112571Y-103264142D01*
X100148857Y-103191571D01*
X100221428Y-103119000D01*
X100330285Y-103082714D01*
X100402857Y-103082714D01*
X100511714Y-103119000D01*
X100548000Y-103155285D01*
X100838285Y-103155285D02*
X100874571Y-103119000D01*
X100947142Y-103082714D01*
X101128571Y-103082714D01*
X101201142Y-103119000D01*
X101237428Y-103155285D01*
X101273714Y-103227857D01*
X101273714Y-103300428D01*
X101237428Y-103409285D01*
X100802000Y-103844714D01*
X101273714Y-103844714D01*
X64623000Y-98022142D02*
X64586714Y-98058428D01*
X64477857Y-98094714D01*
X64405285Y-98094714D01*
X64296428Y-98058428D01*
X64223857Y-97985857D01*
X64187571Y-97913285D01*
X64151285Y-97768142D01*
X64151285Y-97659285D01*
X64187571Y-97514142D01*
X64223857Y-97441571D01*
X64296428Y-97369000D01*
X64405285Y-97332714D01*
X64477857Y-97332714D01*
X64586714Y-97369000D01*
X64623000Y-97405285D01*
X65348714Y-98094714D02*
X64913285Y-98094714D01*
X65131000Y-98094714D02*
X65131000Y-97332714D01*
X65058428Y-97441571D01*
X64985857Y-97514142D01*
X64913285Y-97550428D01*
D11*
X103666666Y-88452380D02*
X103666666Y-89166666D01*
X103619047Y-89309523D01*
X103523809Y-89404761D01*
X103380952Y-89452380D01*
X103285714Y-89452380D01*
X104666666Y-89452380D02*
X104095238Y-89452380D01*
X104380952Y-89452380D02*
X104380952Y-88452380D01*
X104285714Y-88595238D01*
X104190476Y-88690476D01*
X104095238Y-88738095D01*
X55666666Y-106404761D02*
X55809523Y-106452380D01*
X56047619Y-106452380D01*
X56142857Y-106404761D01*
X56190476Y-106357142D01*
X56238095Y-106261904D01*
X56238095Y-106166666D01*
X56190476Y-106071428D01*
X56142857Y-106023809D01*
X56047619Y-105976190D01*
X55857142Y-105928571D01*
X55761904Y-105880952D01*
X55714285Y-105833333D01*
X55666666Y-105738095D01*
X55666666Y-105642857D01*
X55714285Y-105547619D01*
X55761904Y-105500000D01*
X55857142Y-105452380D01*
X56095238Y-105452380D01*
X56238095Y-105500000D01*
X56571428Y-105452380D02*
X56809523Y-106452380D01*
X57000000Y-105738095D01*
X57190476Y-106452380D01*
X57428571Y-105452380D01*
X58333333Y-106452380D02*
X57761904Y-106452380D01*
X58047619Y-106452380D02*
X58047619Y-105452380D01*
X57952380Y-105595238D01*
X57857142Y-105690476D01*
X57761904Y-105738095D01*
X75023809Y-107726190D02*
X75023809Y-108202380D01*
X74690476Y-107202380D02*
X75023809Y-107726190D01*
X75357142Y-107202380D01*
X76214285Y-108202380D02*
X75642857Y-108202380D01*
X75928571Y-108202380D02*
X75928571Y-107202380D01*
X75833333Y-107345238D01*
X75738095Y-107440476D01*
X75642857Y-107488095D01*
%LPC*%
D14*
X102000000Y-100000000D03*
X55000000Y-100000000D03*
D15*
X61300000Y-93500000D03*
X63200000Y-93500000D03*
D16*
X57000000Y-90000000D03*
D17*
X55375000Y-90000000D03*
X58625000Y-90000000D03*
D18*
X84730000Y-100330000D03*
X84730000Y-97790000D03*
X84730000Y-95250000D03*
X84730000Y-92710000D03*
X84730000Y-90170000D03*
X87270000Y-90170000D03*
X87270000Y-92710000D03*
X87270000Y-95250000D03*
X87270000Y-97790000D03*
X87270000Y-100330000D03*
D19*
X86000000Y-101250000D03*
D18*
X86000000Y-89250000D03*
D20*
X78000000Y-94500000D03*
X78000000Y-93100000D03*
D21*
X79850000Y-92550000D03*
D22*
X79850000Y-93450000D03*
X79850000Y-94150000D03*
X79850000Y-94850000D03*
X79850000Y-95550000D03*
X79850000Y-96250000D03*
X79850000Y-96950000D03*
X79850000Y-97650000D03*
X79850000Y-98350000D03*
X79850000Y-99050000D03*
X79850000Y-99750000D03*
X79850000Y-100450000D03*
X79850000Y-101150000D03*
X79850000Y-101850000D03*
X79850000Y-102550000D03*
D23*
X79300000Y-104100000D03*
X78600000Y-104100000D03*
X77900000Y-104100000D03*
X77200000Y-104100000D03*
X76500000Y-104100000D03*
X75800000Y-104100000D03*
X75100000Y-104100000D03*
X74400000Y-104100000D03*
X73700000Y-104100000D03*
X73000000Y-104100000D03*
X72300000Y-104100000D03*
X71600000Y-104100000D03*
D22*
X70350000Y-101850000D03*
X70350000Y-101150000D03*
X70350000Y-100450000D03*
X70350000Y-99750000D03*
X70350000Y-99050000D03*
X70350000Y-98350000D03*
X70350000Y-97650000D03*
X70350000Y-96950000D03*
X70350000Y-96250000D03*
D21*
X70350000Y-92550000D03*
D22*
X70350000Y-95550000D03*
D23*
X70800000Y-104100000D03*
D24*
X95197000Y-105545000D03*
D25*
X95147000Y-106045000D03*
X95147000Y-106545000D03*
X96297000Y-106545000D03*
X96297000Y-106045000D03*
X96297000Y-105545000D03*
D26*
X64000000Y-105200000D03*
X64000000Y-103300000D03*
D15*
X61300000Y-95750000D03*
X63200000Y-95750000D03*
X61300000Y-91250000D03*
X63200000Y-91250000D03*
D26*
X85250000Y-106950000D03*
X85250000Y-105050000D03*
X98516000Y-105095000D03*
X98516000Y-106995000D03*
X91000000Y-106950000D03*
X91000000Y-105050000D03*
D27*
X102850000Y-105095000D03*
X102850000Y-106995000D03*
X104850000Y-106045000D03*
D28*
X108000000Y-108000000D03*
D29*
X93000000Y-105000000D03*
X93000000Y-107000000D03*
D30*
X61250000Y-101250000D03*
X63250000Y-101250000D03*
D31*
X61500000Y-99500000D03*
X63000000Y-99500000D03*
D26*
X55450000Y-93900000D03*
X55450000Y-95000000D03*
X55450000Y-96100000D03*
X58550000Y-96100000D03*
X58550000Y-95000000D03*
X58550000Y-93900000D03*
D30*
X94722000Y-103505000D03*
X96722000Y-103505000D03*
D31*
X68250000Y-108750000D03*
X69750000Y-108750000D03*
D29*
X68000000Y-103250000D03*
X68000000Y-105250000D03*
D31*
X68250000Y-107000000D03*
X69750000Y-107000000D03*
D29*
X66000000Y-103250000D03*
X66000000Y-105250000D03*
X89000000Y-107000000D03*
X89000000Y-105000000D03*
X100675000Y-107045000D03*
X100675000Y-105045000D03*
D30*
X63250000Y-97750000D03*
X61250000Y-97750000D03*
D32*
X107400000Y-89400000D03*
X100700000Y-89400000D03*
X108400000Y-96600000D03*
X104800000Y-96600000D03*
D33*
X98900000Y-96400000D03*
D34*
X101000000Y-93000000D03*
X107000000Y-93000000D03*
D28*
X52000000Y-90000000D03*
D35*
X59875000Y-104000000D03*
X54125000Y-104000000D03*
X54125000Y-108000000D03*
X59875000Y-108000000D03*
D18*
X71750000Y-106850000D03*
X71750000Y-108750000D03*
M02*
