G04 #@! TF.GenerationSoftware,KiCad,Pcbnew,no-vcs-found-e5c4cfc~61~ubuntu16.04.1*
G04 #@! TF.CreationDate,2017-11-03T16:10:43+05:30*
G04 #@! TF.ProjectId,snap_rev2,736E61705F726576322E6B696361645F,rev?*
G04 #@! TF.SameCoordinates,Original*
G04 #@! TF.FileFunction,Copper,L1,Top,Signal*
G04 #@! TF.FilePolarity,Positive*
%FSLAX46Y46*%
G04 Gerber Fmt 4.6, Leading zero omitted, Abs format (unit mm)*
G04 Created by KiCad (PCBNEW no-vcs-found-e5c4cfc~61~ubuntu16.04.1) date Fri Nov  3 16:10:43 2017*
%MOMM*%
%LPD*%
G01*
G04 APERTURE LIST*
%ADD10C,3.800000*%
%ADD11R,0.700000X1.300000*%
%ADD12R,0.750000X1.600000*%
%ADD13C,1.000000*%
%ADD14R,1.200000X0.500000*%
%ADD15R,1.600000X0.900000*%
%ADD16R,1.600000X0.500000*%
%ADD17R,0.500000X1.600000*%
%ADD18R,0.850000X0.280000*%
%ADD19R,0.750000X0.280000*%
%ADD20R,1.300000X0.700000*%
%ADD21R,0.900000X0.800000*%
%ADD22R,1.250000X1.000000*%
%ADD23R,1.000000X1.250000*%
%ADD24R,0.800000X0.750000*%
%ADD25R,2.200000X2.000000*%
%ADD26R,2.200000X2.400000*%
%ADD27R,2.750000X1.000000*%
%ADD28C,0.800000*%
%ADD29C,0.250000*%
%ADD30C,0.254000*%
G04 APERTURE END LIST*
D10*
X102000000Y-100000000D03*
X55000000Y-100000000D03*
D11*
X61300000Y-93500000D03*
X63200000Y-93500000D03*
D12*
X55375000Y-90000000D03*
X58625000Y-90000000D03*
D13*
X84730000Y-100330000D03*
X84730000Y-97790000D03*
X84730000Y-95250000D03*
X84730000Y-92710000D03*
X84730000Y-90170000D03*
X87270000Y-90170000D03*
X87270000Y-92710000D03*
X87270000Y-95250000D03*
X87270000Y-97790000D03*
X87270000Y-100330000D03*
D14*
X78000000Y-94500000D03*
X78000000Y-93100000D03*
D15*
X79850000Y-92550000D03*
D16*
X79850000Y-93450000D03*
X79850000Y-94150000D03*
X79850000Y-94850000D03*
X79850000Y-95550000D03*
X79850000Y-96250000D03*
X79850000Y-96950000D03*
X79850000Y-97650000D03*
X79850000Y-98350000D03*
X79850000Y-99050000D03*
X79850000Y-99750000D03*
X79850000Y-100450000D03*
X79850000Y-101150000D03*
X79850000Y-101850000D03*
X79850000Y-102550000D03*
D17*
X79300000Y-104100000D03*
X78600000Y-104100000D03*
X77900000Y-104100000D03*
X77200000Y-104100000D03*
X76500000Y-104100000D03*
X75800000Y-104100000D03*
X75100000Y-104100000D03*
X74400000Y-104100000D03*
X73700000Y-104100000D03*
X73000000Y-104100000D03*
X72300000Y-104100000D03*
X71600000Y-104100000D03*
D16*
X70350000Y-101850000D03*
X70350000Y-101150000D03*
X70350000Y-100450000D03*
X70350000Y-99750000D03*
X70350000Y-99050000D03*
X70350000Y-98350000D03*
X70350000Y-97650000D03*
X70350000Y-96950000D03*
X70350000Y-96250000D03*
D15*
X70350000Y-92550000D03*
D16*
X70350000Y-95550000D03*
D17*
X70800000Y-104100000D03*
D18*
X95197000Y-105545000D03*
D19*
X95147000Y-106045000D03*
X95147000Y-106545000D03*
X96297000Y-106545000D03*
X96297000Y-106045000D03*
X96297000Y-105545000D03*
D20*
X64000000Y-105200000D03*
X64000000Y-103300000D03*
D11*
X61300000Y-95750000D03*
X63200000Y-95750000D03*
X61300000Y-91250000D03*
X63200000Y-91250000D03*
D20*
X85250000Y-106950000D03*
X85250000Y-105050000D03*
X98516000Y-105095000D03*
X98516000Y-106995000D03*
X91000000Y-106950000D03*
X91000000Y-105050000D03*
D21*
X102850000Y-105095000D03*
X102850000Y-106995000D03*
X104850000Y-106045000D03*
D22*
X93000000Y-105000000D03*
X93000000Y-107000000D03*
D23*
X61250000Y-101250000D03*
X63250000Y-101250000D03*
D24*
X61500000Y-99500000D03*
X63000000Y-99500000D03*
D20*
X55450000Y-93900000D03*
X55450000Y-95000000D03*
X55450000Y-96100000D03*
X58550000Y-96100000D03*
X58550000Y-95000000D03*
X58550000Y-93900000D03*
D23*
X94722000Y-103505000D03*
X96722000Y-103505000D03*
D24*
X68250000Y-108750000D03*
X69750000Y-108750000D03*
D22*
X68000000Y-103250000D03*
X68000000Y-105250000D03*
D24*
X68250000Y-107000000D03*
X69750000Y-107000000D03*
D22*
X66000000Y-103250000D03*
X66000000Y-105250000D03*
X89000000Y-107000000D03*
X89000000Y-105000000D03*
X100675000Y-107045000D03*
X100675000Y-105045000D03*
D23*
X63250000Y-97750000D03*
X61250000Y-97750000D03*
D25*
X107400000Y-89400000D03*
X100700000Y-89400000D03*
X108400000Y-96600000D03*
X104800000Y-96600000D03*
D26*
X98900000Y-96400000D03*
D27*
X59875000Y-104000000D03*
X54125000Y-104000000D03*
X54125000Y-108000000D03*
X59875000Y-108000000D03*
D13*
X71750000Y-106850000D03*
X71750000Y-108750000D03*
D28*
X66000000Y-108000000D03*
X102000008Y-106000000D03*
X87500000Y-108000000D03*
X68230832Y-90647776D03*
X78250000Y-107750000D03*
X80500000Y-104750000D03*
X89250000Y-89750000D03*
X105500000Y-89750000D03*
X72250000Y-97249966D03*
X86737340Y-104012660D03*
X69500000Y-103250000D03*
X93851531Y-92675766D03*
X89750000Y-92750000D03*
X73500000Y-98500000D03*
X96000000Y-107750000D03*
X62250000Y-107000000D03*
X81750000Y-104500000D03*
X85794134Y-93794136D03*
X82500000Y-94250000D03*
X65250000Y-93500000D03*
X73500000Y-102000000D03*
X65250000Y-91750000D03*
X75750000Y-101000000D03*
X66500000Y-92500000D03*
X74696207Y-99955472D03*
X96250000Y-91750000D03*
X77749662Y-102276421D03*
X76750000Y-101750000D03*
X106500000Y-98250000D03*
D29*
X107400000Y-89400000D02*
X105850000Y-89400000D01*
X105850000Y-89400000D02*
X105500000Y-89750000D01*
X62500000Y-108000000D02*
X66000000Y-108000000D01*
X59875000Y-108000000D02*
X62500000Y-108000000D01*
X59875000Y-108000000D02*
X54125000Y-108000000D01*
X55450000Y-96800000D02*
X55000000Y-97250000D01*
X55000000Y-97250000D02*
X55000000Y-100000000D01*
X55450000Y-96100000D02*
X55450000Y-96800000D01*
X55450000Y-95000000D02*
X55450000Y-96100000D01*
X55450000Y-93900000D02*
X55450000Y-95000000D01*
X59125000Y-100000000D02*
X55000000Y-100000000D01*
X61250000Y-97750000D02*
X61250000Y-97875000D01*
X61250000Y-97875000D02*
X59125000Y-100000000D01*
X66000000Y-105250000D02*
X66000000Y-108000000D01*
X79850000Y-92550000D02*
X81200000Y-92550000D01*
X81200000Y-92550000D02*
X83580000Y-90170000D01*
X83580000Y-90170000D02*
X84022894Y-90170000D01*
X84022894Y-90170000D02*
X84730000Y-90170000D01*
X79850000Y-92550000D02*
X78800000Y-92550000D01*
X78800000Y-92550000D02*
X78500000Y-92250000D01*
X78500000Y-92250000D02*
X73750000Y-92250000D01*
X73750000Y-92250000D02*
X73450000Y-92550000D01*
X73450000Y-92550000D02*
X70350000Y-92550000D01*
X102850000Y-105095000D02*
X102000000Y-105095000D01*
X102000000Y-105095000D02*
X100725000Y-105095000D01*
X102000008Y-106000000D02*
X102000008Y-105095008D01*
X102000008Y-105095008D02*
X102000000Y-105095000D01*
X87500000Y-108000000D02*
X87500000Y-105250000D01*
X87500000Y-105250000D02*
X87750000Y-105000000D01*
X87750000Y-105000000D02*
X89000000Y-105000000D01*
X70000000Y-92550000D02*
X68230832Y-90780832D01*
X68230832Y-90780832D02*
X68230832Y-90647776D01*
X70350000Y-92550000D02*
X70000000Y-92550000D01*
X79850000Y-104100000D02*
X80500000Y-104750000D01*
X79300000Y-104100000D02*
X79850000Y-104100000D01*
X87270000Y-90170000D02*
X88830000Y-90170000D01*
X88830000Y-90170000D02*
X89250000Y-89750000D01*
X70800000Y-104100000D02*
X70300000Y-104100000D01*
X70300000Y-104100000D02*
X69150000Y-105250000D01*
X69150000Y-105250000D02*
X68000000Y-105250000D01*
X87270000Y-90170000D02*
X84730000Y-90170000D01*
X63250000Y-97750000D02*
X64250000Y-97750000D01*
X64250000Y-97750000D02*
X66136410Y-97750000D01*
X63000000Y-99500000D02*
X63650000Y-99500000D01*
X63650000Y-99500000D02*
X64250000Y-98900000D01*
X64250000Y-98900000D02*
X64250000Y-97750000D01*
X66136410Y-97750000D02*
X68836410Y-100450000D01*
X68836410Y-100450000D02*
X70350000Y-100450000D01*
X71849966Y-97650000D02*
X72250000Y-97249966D01*
X70350000Y-97650000D02*
X71849966Y-97650000D01*
X90700000Y-105050000D02*
X89662660Y-104012660D01*
X86737340Y-108487340D02*
X86737340Y-104012660D01*
X98595000Y-109000000D02*
X87250000Y-109000000D01*
X100675000Y-107045000D02*
X100550000Y-107045000D01*
X89662660Y-104012660D02*
X86737340Y-104012660D01*
X91000000Y-105050000D02*
X90700000Y-105050000D01*
X100550000Y-107045000D02*
X98595000Y-109000000D01*
X87250000Y-109000000D02*
X86737340Y-108487340D01*
X94722000Y-103505000D02*
X94722000Y-98778000D01*
X94722000Y-98778000D02*
X95250000Y-98250000D01*
X95250000Y-98250000D02*
X100250000Y-98250000D01*
X100250000Y-98250000D02*
X100750000Y-97750000D01*
X100750000Y-97750000D02*
X100750000Y-95000000D01*
X100750000Y-95000000D02*
X98425766Y-92675766D01*
X98425766Y-92675766D02*
X93851531Y-92675766D01*
X85250000Y-105050000D02*
X85250000Y-103250000D01*
X85250000Y-103250000D02*
X85750000Y-102750000D01*
X85750000Y-102750000D02*
X92245000Y-102750000D01*
X92245000Y-102750000D02*
X93000000Y-103505000D01*
X93000000Y-103505000D02*
X94722000Y-103505000D01*
X69450000Y-103250000D02*
X69500000Y-103250000D01*
X87270000Y-92710000D02*
X89710000Y-92710000D01*
X89710000Y-92710000D02*
X89750000Y-92750000D01*
X66000000Y-103250000D02*
X64050000Y-103250000D01*
X64050000Y-103250000D02*
X64000000Y-103300000D01*
X61300000Y-95750000D02*
X60350000Y-95750000D01*
X60350000Y-95750000D02*
X60000000Y-96100000D01*
X60000000Y-96100000D02*
X58550000Y-96100000D01*
X60250000Y-94750000D02*
X60000000Y-95000000D01*
X60000000Y-95000000D02*
X58550000Y-95000000D01*
X60250000Y-93750000D02*
X60250000Y-94750000D01*
X60500000Y-93500000D02*
X60250000Y-93750000D01*
X61300000Y-93500000D02*
X60500000Y-93500000D01*
X75100000Y-104100000D02*
X75100000Y-103050000D01*
X75100000Y-103050000D02*
X75024999Y-102974999D01*
X64524999Y-93975001D02*
X63900000Y-94600000D01*
X75024999Y-102974999D02*
X75024999Y-100651999D01*
X75500000Y-96750000D02*
X73250000Y-94500000D01*
X64902004Y-92774994D02*
X64524999Y-93151999D01*
X75024999Y-100651999D02*
X75500000Y-100176998D01*
X62100000Y-94600000D02*
X61300000Y-93800000D01*
X61300000Y-93800000D02*
X61300000Y-93500000D01*
X75500000Y-100176998D02*
X75500000Y-96750000D01*
X73250000Y-94500000D02*
X67426998Y-94500000D01*
X67426998Y-94500000D02*
X65701992Y-92774994D01*
X63900000Y-94600000D02*
X62100000Y-94600000D01*
X65701992Y-92774994D02*
X64902004Y-92774994D01*
X64524999Y-93151999D02*
X64524999Y-93975001D01*
X58550000Y-93900000D02*
X58550000Y-92200000D01*
X59500000Y-91250000D02*
X58550000Y-92200000D01*
X61300000Y-91250000D02*
X59500000Y-91250000D01*
X60250000Y-101000000D02*
X60250000Y-100000000D01*
X61250000Y-101250000D02*
X60500000Y-101250000D01*
X60500000Y-101250000D02*
X60250000Y-101000000D01*
X60750000Y-99500000D02*
X60250000Y-100000000D01*
X61500000Y-99500000D02*
X60750000Y-99500000D01*
X73500000Y-96750000D02*
X73000000Y-96250000D01*
X73000000Y-96250000D02*
X70350000Y-96250000D01*
X73500000Y-98500000D02*
X73500000Y-96750000D01*
X96297000Y-106545000D02*
X96297000Y-107453000D01*
X96297000Y-107453000D02*
X96000000Y-107750000D01*
X59875000Y-104000000D02*
X59875000Y-104500000D01*
X60250000Y-106000000D02*
X59875000Y-105625000D01*
X59875000Y-105625000D02*
X59875000Y-104500000D01*
X61815685Y-106000000D02*
X60250000Y-106000000D01*
X62250000Y-107000000D02*
X62250000Y-106434315D01*
X62250000Y-106434315D02*
X61815685Y-106000000D01*
X54125000Y-104000000D02*
X59875000Y-104000000D01*
X58875000Y-104000000D02*
X60750000Y-104000000D01*
X79850000Y-101850000D02*
X80900000Y-101850000D01*
X81750000Y-102700000D02*
X81750000Y-104500000D01*
X80900000Y-101850000D02*
X81750000Y-102700000D01*
X59000000Y-103875000D02*
X58875000Y-104000000D01*
X68000000Y-105750000D02*
X68250000Y-106000000D01*
X68250000Y-106000000D02*
X68250000Y-107000000D01*
X68000000Y-105250000D02*
X68000000Y-105750000D01*
X66000000Y-105250000D02*
X68000000Y-105250000D01*
X68250000Y-108750000D02*
X68250000Y-107000000D01*
X96722000Y-104528000D02*
X96297000Y-104953000D01*
X96297000Y-104953000D02*
X96297000Y-105545000D01*
X96722000Y-103505000D02*
X96722000Y-104528000D01*
X98516000Y-105095000D02*
X97616000Y-105095000D01*
X97616000Y-105095000D02*
X97166000Y-105545000D01*
X97166000Y-105545000D02*
X96297000Y-105545000D01*
X98516000Y-105095000D02*
X100625000Y-105095000D01*
X100625000Y-105095000D02*
X100675000Y-105045000D01*
X100725000Y-105095000D02*
X100675000Y-105045000D01*
X91000000Y-105050000D02*
X92950000Y-105050000D01*
X92950000Y-105050000D02*
X93000000Y-105000000D01*
X102850000Y-106995000D02*
X100725000Y-106995000D01*
X100725000Y-106995000D02*
X100675000Y-107045000D01*
X91000000Y-106950000D02*
X89050000Y-106950000D01*
X89050000Y-106950000D02*
X89000000Y-107000000D01*
X94500000Y-108000000D02*
X95147000Y-107353000D01*
X95147000Y-107353000D02*
X95147000Y-106545000D01*
X91450000Y-108000000D02*
X94500000Y-108000000D01*
X91000000Y-106950000D02*
X91000000Y-107550000D01*
X91000000Y-107550000D02*
X91450000Y-108000000D01*
X70350000Y-101850000D02*
X70350000Y-102350000D01*
X70350000Y-102350000D02*
X69450000Y-103250000D01*
X69450000Y-103250000D02*
X68000000Y-103250000D01*
X66000000Y-103250000D02*
X68000000Y-103250000D01*
X95197000Y-105545000D02*
X95197000Y-105155000D01*
X95197000Y-105155000D02*
X94722000Y-104680000D01*
X94722000Y-104680000D02*
X94722000Y-103505000D01*
X71600000Y-105600000D02*
X71750000Y-105750000D01*
X71750000Y-105750000D02*
X71750000Y-106850000D01*
X71600000Y-104100000D02*
X71600000Y-105600000D01*
X70892894Y-107000000D02*
X69750000Y-107000000D01*
X71750000Y-106850000D02*
X71042894Y-106850000D01*
X71042894Y-106850000D02*
X70892894Y-107000000D01*
X72300000Y-104100000D02*
X72300000Y-105150000D01*
X72300000Y-105150000D02*
X72750000Y-105600000D01*
X72750000Y-105600000D02*
X72750000Y-108500000D01*
X72750000Y-108500000D02*
X72500000Y-108750000D01*
X72500000Y-108750000D02*
X71750000Y-108750000D01*
X71750000Y-108750000D02*
X69750000Y-108750000D01*
X95147000Y-106045000D02*
X93205000Y-106045000D01*
X93205000Y-106045000D02*
X93000000Y-106250000D01*
X93000000Y-106250000D02*
X93000000Y-107000000D01*
X98516000Y-106995000D02*
X97616000Y-106995000D01*
X97616000Y-106995000D02*
X97166000Y-106545000D01*
X97166000Y-106545000D02*
X96297000Y-106545000D01*
X81550000Y-99000000D02*
X85940000Y-99000000D01*
X85940000Y-99000000D02*
X87270000Y-100330000D01*
X79850000Y-98350000D02*
X80900000Y-98350000D01*
X80900000Y-98350000D02*
X81550000Y-99000000D01*
X79850000Y-101150000D02*
X83910000Y-101150000D01*
X83910000Y-101150000D02*
X84730000Y-100330000D01*
X91500000Y-95750000D02*
X89460000Y-97790000D01*
X87977106Y-97790000D02*
X87270000Y-97790000D01*
X89460000Y-97790000D02*
X87977106Y-97790000D01*
X90686400Y-91299989D02*
X91500000Y-92113589D01*
X83086421Y-91299989D02*
X90686400Y-91299989D01*
X81124976Y-93261434D02*
X83086421Y-91299989D01*
X91500000Y-92113589D02*
X91500000Y-95750000D01*
X81124976Y-93925024D02*
X81124976Y-93261434D01*
X80900000Y-94150000D02*
X81124976Y-93925024D01*
X79850000Y-94150000D02*
X80900000Y-94150000D01*
X85229999Y-97290001D02*
X84730000Y-97790000D01*
X91000000Y-95500000D02*
X90000000Y-96500000D01*
X86020000Y-96500000D02*
X85229999Y-97290001D01*
X79850000Y-94850000D02*
X80900000Y-94850000D01*
X90000000Y-96500000D02*
X86020000Y-96500000D01*
X91000000Y-92250000D02*
X91000000Y-95500000D01*
X81574987Y-94175013D02*
X81574987Y-93447835D01*
X81574987Y-93447835D02*
X83272821Y-91750000D01*
X80900000Y-94850000D02*
X81574987Y-94175013D01*
X90500000Y-91750000D02*
X91000000Y-92250000D01*
X83272821Y-91750000D02*
X90500000Y-91750000D01*
X85814136Y-93794136D02*
X85794134Y-93794136D01*
X87270000Y-95250000D02*
X85814136Y-93794136D01*
X82500000Y-94250000D02*
X81200000Y-95550000D01*
X81200000Y-95550000D02*
X79850000Y-95550000D01*
X84000000Y-95250000D02*
X81600000Y-97650000D01*
X81600000Y-97650000D02*
X79850000Y-97650000D01*
X84730000Y-95250000D02*
X84000000Y-95250000D01*
X83500000Y-94750000D02*
X82000000Y-96250000D01*
X83790000Y-92710000D02*
X83500000Y-93000000D01*
X83500000Y-93000000D02*
X83500000Y-94750000D01*
X84730000Y-92710000D02*
X83790000Y-92710000D01*
X82000000Y-96250000D02*
X79850000Y-96250000D01*
X65250000Y-95000000D02*
X64500000Y-95750000D01*
X64500000Y-95750000D02*
X63800000Y-95750000D01*
X63800000Y-95750000D02*
X63200000Y-95750000D01*
X65250000Y-93500000D02*
X65250000Y-95000000D01*
X73500000Y-102000000D02*
X73700000Y-102200000D01*
X73700000Y-102200000D02*
X73700000Y-104100000D01*
X63200000Y-93200000D02*
X64650000Y-91750000D01*
X64684315Y-91750000D02*
X65250000Y-91750000D01*
X63200000Y-93500000D02*
X63200000Y-93200000D01*
X64650000Y-91750000D02*
X64684315Y-91750000D01*
X75800000Y-104100000D02*
X75800000Y-101050000D01*
X75800000Y-101050000D02*
X75750000Y-101000000D01*
X66500000Y-91934315D02*
X66500000Y-92500000D01*
X63200000Y-91250000D02*
X63800000Y-91250000D01*
X64025001Y-91024999D02*
X65590684Y-91024999D01*
X65590684Y-91024999D02*
X66500000Y-91934315D01*
X63800000Y-91250000D02*
X64025001Y-91024999D01*
X74400000Y-104100000D02*
X74400000Y-100251679D01*
X74400000Y-100251679D02*
X74696207Y-99955472D01*
X104850000Y-106045000D02*
X104850000Y-102850000D01*
X104850000Y-102850000D02*
X102000000Y-100000000D01*
X97350000Y-89400000D02*
X96250000Y-90500000D01*
X96250000Y-90500000D02*
X96250000Y-91750000D01*
X100700000Y-89400000D02*
X97350000Y-89400000D01*
X77200000Y-104100000D02*
X77200000Y-102826083D01*
X77200000Y-102826083D02*
X77749662Y-102276421D01*
X104800000Y-96600000D02*
X104800000Y-97850000D01*
X104800000Y-97850000D02*
X105200000Y-98250000D01*
X105200000Y-98250000D02*
X105500000Y-98250000D01*
X76500000Y-102000000D02*
X76750000Y-101750000D01*
X76500000Y-104100000D02*
X76500000Y-102000000D01*
X106500000Y-98250000D02*
X105500000Y-98250000D01*
X70350000Y-101150000D02*
X66600000Y-101150000D01*
X66600000Y-101150000D02*
X66500000Y-101250000D01*
X63250000Y-101250000D02*
X66500000Y-101250000D01*
X98900000Y-96400000D02*
X91600000Y-96400000D01*
X91600000Y-96400000D02*
X90000000Y-98000000D01*
X89500000Y-102250000D02*
X90000000Y-101750000D01*
X83750000Y-105500000D02*
X83750000Y-102750000D01*
X83750000Y-102750000D02*
X84250000Y-102250000D01*
X90000000Y-101750000D02*
X90000000Y-98000000D01*
X84250000Y-102250000D02*
X89500000Y-102250000D01*
X83750000Y-106750000D02*
X83950000Y-106950000D01*
X83950000Y-106950000D02*
X85250000Y-106950000D01*
X83750000Y-105500000D02*
X83750000Y-106750000D01*
X78250000Y-105500000D02*
X83750000Y-105500000D01*
X77900000Y-104100000D02*
X77900000Y-105150000D01*
X77900000Y-105150000D02*
X78250000Y-105500000D01*
X79850000Y-102550000D02*
X78800000Y-102550000D01*
X78500000Y-102250000D02*
X78500000Y-97000000D01*
X78800000Y-102550000D02*
X78500000Y-102250000D01*
X75250000Y-93750000D02*
X69709413Y-93750000D01*
X65959413Y-90000000D02*
X58625000Y-90000000D01*
X78500000Y-97000000D02*
X75250000Y-93750000D01*
X69709413Y-93750000D02*
X65959413Y-90000000D01*
X55000000Y-92250000D02*
X55375000Y-91875000D01*
X55375000Y-91875000D02*
X55375000Y-90000000D01*
X52500000Y-92250000D02*
X55000000Y-92250000D01*
X52000000Y-92750000D02*
X52500000Y-92250000D01*
X52000000Y-102000000D02*
X52000000Y-92750000D01*
X52750000Y-102750000D02*
X52000000Y-102000000D01*
X61500000Y-102750000D02*
X52750000Y-102750000D01*
X62250000Y-103500000D02*
X61500000Y-102750000D01*
X62250000Y-104750000D02*
X62250000Y-103500000D01*
X62700000Y-105200000D02*
X62250000Y-104750000D01*
X64000000Y-105200000D02*
X62700000Y-105200000D01*
D30*
G36*
X77959161Y-106202148D02*
X78250000Y-106260000D01*
X82373000Y-106260000D01*
X82373000Y-109290000D01*
X74127000Y-109290000D01*
X74127000Y-106127000D01*
X77846694Y-106127000D01*
X77959161Y-106202148D01*
X77959161Y-106202148D01*
G37*
X77959161Y-106202148D02*
X78250000Y-106260000D01*
X82373000Y-106260000D01*
X82373000Y-109290000D01*
X74127000Y-109290000D01*
X74127000Y-106127000D01*
X77846694Y-106127000D01*
X77959161Y-106202148D01*
M02*
