G04 #@! TF.GenerationSoftware,KiCad,Pcbnew,5.0.2-bee76a0~70~ubuntu16.04.1*
G04 #@! TF.CreationDate,2019-02-05T22:35:56+05:30*
G04 #@! TF.ProjectId,senseBe_rev1,73656e73-6542-4655-9f72-6576312e6b69,rev?*
G04 #@! TF.SameCoordinates,Original*
G04 #@! TF.FileFunction,Copper,L1,Top*
G04 #@! TF.FilePolarity,Positive*
%FSLAX46Y46*%
G04 Gerber Fmt 4.6, Leading zero omitted, Abs format (unit mm)*
G04 Created by KiCad (PCBNEW 5.0.2-bee76a0~70~ubuntu16.04.1) date Tue Feb  5 22:35:56 2019*
%MOMM*%
%LPD*%
G01*
G04 APERTURE LIST*
G04 #@! TA.AperFunction,SMDPad,CuDef*
%ADD10R,0.800000X0.900000*%
G04 #@! TD*
G04 #@! TA.AperFunction,SMDPad,CuDef*
%ADD11R,1.200000X0.900000*%
G04 #@! TD*
G04 #@! TA.AperFunction,Conductor*
%ADD12C,0.100000*%
G04 #@! TD*
G04 #@! TA.AperFunction,ComponentPad*
%ADD13C,1.800000*%
G04 #@! TD*
G04 #@! TA.AperFunction,SMDPad,CuDef*
%ADD14R,1.500000X1.250000*%
G04 #@! TD*
G04 #@! TA.AperFunction,SMDPad,CuDef*
%ADD15R,1.600000X0.500000*%
G04 #@! TD*
G04 #@! TA.AperFunction,SMDPad,CuDef*
%ADD16R,0.500000X1.600000*%
G04 #@! TD*
G04 #@! TA.AperFunction,SMDPad,CuDef*
%ADD17R,0.900000X1.600000*%
G04 #@! TD*
G04 #@! TA.AperFunction,SMDPad,CuDef*
%ADD18R,0.500000X1.200000*%
G04 #@! TD*
G04 #@! TA.AperFunction,ComponentPad*
%ADD19O,1.700000X1.000000*%
G04 #@! TD*
G04 #@! TA.AperFunction,ComponentPad*
%ADD20O,1.000000X1.700000*%
G04 #@! TD*
G04 #@! TA.AperFunction,SMDPad,CuDef*
%ADD21R,1.600000X0.800000*%
G04 #@! TD*
G04 #@! TA.AperFunction,SMDPad,CuDef*
%ADD22R,0.750000X1.200000*%
G04 #@! TD*
G04 #@! TA.AperFunction,SMDPad,CuDef*
%ADD23R,1.200000X0.750000*%
G04 #@! TD*
G04 #@! TA.AperFunction,ComponentPad*
%ADD24R,1.800000X1.800000*%
G04 #@! TD*
G04 #@! TA.AperFunction,SMDPad,CuDef*
%ADD25R,0.600000X0.500000*%
G04 #@! TD*
G04 #@! TA.AperFunction,WasherPad*
%ADD26C,1.600000*%
G04 #@! TD*
G04 #@! TA.AperFunction,ComponentPad*
%ADD27C,1.600000*%
G04 #@! TD*
G04 #@! TA.AperFunction,SMDPad,CuDef*
%ADD28R,0.800000X1.900000*%
G04 #@! TD*
G04 #@! TA.AperFunction,SMDPad,CuDef*
%ADD29R,1.900000X0.800000*%
G04 #@! TD*
G04 #@! TA.AperFunction,SMDPad,CuDef*
%ADD30R,0.900000X1.200000*%
G04 #@! TD*
G04 #@! TA.AperFunction,ComponentPad*
%ADD31O,2.000000X2.600000*%
G04 #@! TD*
G04 #@! TA.AperFunction,ComponentPad*
%ADD32R,2.000000X2.600000*%
G04 #@! TD*
G04 #@! TA.AperFunction,BGAPad,CuDef*
%ADD33C,1.500000*%
G04 #@! TD*
G04 #@! TA.AperFunction,SMDPad,CuDef*
%ADD34R,0.600000X1.300000*%
G04 #@! TD*
G04 #@! TA.AperFunction,SMDPad,CuDef*
%ADD35R,0.600000X0.300000*%
G04 #@! TD*
G04 #@! TA.AperFunction,ComponentPad*
%ADD36C,1.000000*%
G04 #@! TD*
G04 #@! TA.AperFunction,SMDPad,CuDef*
%ADD37R,1.300000X0.700000*%
G04 #@! TD*
G04 #@! TA.AperFunction,ComponentPad*
%ADD38C,2.600000*%
G04 #@! TD*
G04 #@! TA.AperFunction,ViaPad*
%ADD39C,0.800000*%
G04 #@! TD*
G04 #@! TA.AperFunction,Conductor*
%ADD40C,0.250000*%
G04 #@! TD*
G04 #@! TA.AperFunction,Conductor*
%ADD41C,0.254000*%
G04 #@! TD*
G04 APERTURE END LIST*
D10*
G04 #@! TO.P,Q3,1*
G04 #@! TO.N,/LED_GREEN*
X50950000Y-3000000D03*
G04 #@! TO.P,Q3,2*
G04 #@! TO.N,GND*
X49050000Y-3000000D03*
G04 #@! TO.P,Q3,3*
G04 #@! TO.N,Net-(Q3-Pad3)*
X50000000Y-5000000D03*
G04 #@! TD*
D11*
G04 #@! TO.P,R14,1*
G04 #@! TO.N,Net-(C11-Pad2)*
X5600000Y-7000000D03*
G04 #@! TO.P,R14,2*
G04 #@! TO.N,Net-(Q6-Pad3)*
X7800000Y-7000000D03*
G04 #@! TD*
D12*
G04 #@! TO.N,/RX_OUT*
G04 #@! TO.C,U2*
G36*
X15674324Y-19101205D02*
X15698612Y-19104808D01*
X15722429Y-19110774D01*
X15745547Y-19119045D01*
X15767743Y-19129543D01*
X15788804Y-19142166D01*
X15808525Y-19156793D01*
X15826718Y-19173282D01*
X15843207Y-19191475D01*
X15857834Y-19211196D01*
X15870457Y-19232257D01*
X15880955Y-19254453D01*
X15889226Y-19277571D01*
X15895192Y-19301388D01*
X15898795Y-19325676D01*
X15900000Y-19350200D01*
X15900000Y-20649800D01*
X15898795Y-20674324D01*
X15895192Y-20698612D01*
X15889226Y-20722429D01*
X15880955Y-20745547D01*
X15870457Y-20767743D01*
X15857834Y-20788804D01*
X15843207Y-20808525D01*
X15826718Y-20826718D01*
X15808525Y-20843207D01*
X15788804Y-20857834D01*
X15767743Y-20870457D01*
X15745547Y-20880955D01*
X15722429Y-20889226D01*
X15698612Y-20895192D01*
X15674324Y-20898795D01*
X15649800Y-20900000D01*
X14350200Y-20900000D01*
X14325676Y-20898795D01*
X14301388Y-20895192D01*
X14277571Y-20889226D01*
X14254453Y-20880955D01*
X14232257Y-20870457D01*
X14211196Y-20857834D01*
X14191475Y-20843207D01*
X14173282Y-20826718D01*
X14156793Y-20808525D01*
X14142166Y-20788804D01*
X14129543Y-20767743D01*
X14119045Y-20745547D01*
X14110774Y-20722429D01*
X14104808Y-20698612D01*
X14101205Y-20674324D01*
X14100000Y-20649800D01*
X14100000Y-19350200D01*
X14101205Y-19325676D01*
X14104808Y-19301388D01*
X14110774Y-19277571D01*
X14119045Y-19254453D01*
X14129543Y-19232257D01*
X14142166Y-19211196D01*
X14156793Y-19191475D01*
X14173282Y-19173282D01*
X14191475Y-19156793D01*
X14211196Y-19142166D01*
X14232257Y-19129543D01*
X14254453Y-19119045D01*
X14277571Y-19110774D01*
X14301388Y-19104808D01*
X14325676Y-19101205D01*
X14350200Y-19100000D01*
X15649800Y-19100000D01*
X15674324Y-19101205D01*
X15674324Y-19101205D01*
G37*
D13*
G04 #@! TD*
G04 #@! TO.P,U2,1*
G04 #@! TO.N,/RX_OUT*
X15000000Y-20000000D03*
G04 #@! TO.P,U2,2*
G04 #@! TO.N,Net-(Q4-Pad3)*
X17540000Y-20000000D03*
G04 #@! TO.P,U2,3*
G04 #@! TO.N,VDD*
X20080000Y-20000000D03*
G04 #@! TD*
D14*
G04 #@! TO.P,C10,2*
G04 #@! TO.N,GND*
X7950000Y-9000000D03*
G04 #@! TO.P,C10,1*
G04 #@! TO.N,VDD*
X5450000Y-9000000D03*
G04 #@! TD*
D15*
G04 #@! TO.P,U1,12*
G04 #@! TO.N,GND*
X44250000Y-20700000D03*
D16*
G04 #@! TO.P,U1,2*
G04 #@! TO.N,/LED_GREEN*
X52800000Y-20250000D03*
D17*
G04 #@! TO.P,U1,1*
G04 #@! TO.N,GND*
X55800000Y-20250000D03*
D16*
G04 #@! TO.P,U1,3*
G04 #@! TO.N,/LED_RED*
X52100000Y-20250000D03*
G04 #@! TO.P,U1,4*
G04 #@! TO.N,/IR_LED_EN*
X51400000Y-20250000D03*
G04 #@! TO.P,U1,5*
G04 #@! TO.N,/REG_EN*
X50700000Y-20250000D03*
G04 #@! TO.P,U1,6*
G04 #@! TO.N,/LIGHT_SENSE_EN*
X50000000Y-20250000D03*
G04 #@! TO.P,U1,7*
G04 #@! TO.N,N/C*
X49300000Y-20250000D03*
G04 #@! TO.P,U1,8*
G04 #@! TO.N,VDD*
X48600000Y-20250000D03*
G04 #@! TO.P,U1,9*
G04 #@! TO.N,/DEC4*
X47900000Y-20250000D03*
G04 #@! TO.P,U1,10*
G04 #@! TO.N,/DCC*
X47200000Y-20250000D03*
G04 #@! TO.P,U1,11*
G04 #@! TO.N,VDD*
X46500000Y-20250000D03*
D15*
G04 #@! TO.P,U1,13*
G04 #@! TO.N,/LFCLK_XL1*
X44250000Y-21500000D03*
G04 #@! TO.P,U1,14*
G04 #@! TO.N,/LFCLK_XL2*
X44250000Y-22200000D03*
G04 #@! TO.P,U1,15*
G04 #@! TO.N,N/C*
X44250000Y-22900000D03*
G04 #@! TO.P,U1,16*
G04 #@! TO.N,/PWR1*
X44250000Y-23600000D03*
G04 #@! TO.P,U1,17*
G04 #@! TO.N,/PWR2*
X44250000Y-24300000D03*
G04 #@! TO.P,U1,18*
G04 #@! TO.N,/LIGHT_SENSE*
X44250000Y-25000000D03*
G04 #@! TO.P,U1,19*
G04 #@! TO.N,/RX_OUT*
X44250000Y-25700000D03*
G04 #@! TO.P,U1,20*
G04 #@! TO.N,/RX_EN*
X44250000Y-26400000D03*
G04 #@! TO.P,U1,21*
G04 #@! TO.N,/BUTTON*
X44250000Y-27100000D03*
G04 #@! TO.P,U1,22*
G04 #@! TO.N,N/C*
X44250000Y-27800000D03*
G04 #@! TO.P,U1,23*
X44250000Y-28500000D03*
G04 #@! TO.P,U1,24*
G04 #@! TO.N,GND*
X44250000Y-29200000D03*
D16*
G04 #@! TO.P,U1,25*
G04 #@! TO.N,N/C*
X45800000Y-29750000D03*
G04 #@! TO.P,U1,26*
G04 #@! TO.N,/FOCUS*
X46500000Y-29750000D03*
G04 #@! TO.P,U1,27*
G04 #@! TO.N,/TRIGGER*
X47200000Y-29750000D03*
G04 #@! TO.P,U1,28*
G04 #@! TO.N,N/C*
X47900000Y-29750000D03*
G04 #@! TO.P,U1,29*
X48600000Y-29750000D03*
G04 #@! TO.P,U1,30*
X49300000Y-29750000D03*
G04 #@! TO.P,U1,31*
G04 #@! TO.N,/RX*
X50000000Y-29750000D03*
G04 #@! TO.P,U1,32*
G04 #@! TO.N,/GPIO2*
X50700000Y-29750000D03*
G04 #@! TO.P,U1,33*
G04 #@! TO.N,/GPIO1*
X51400000Y-29750000D03*
G04 #@! TO.P,U1,34*
G04 #@! TO.N,/TX*
X52100000Y-29750000D03*
G04 #@! TO.P,U1,35*
G04 #@! TO.N,/RESET*
X52800000Y-29750000D03*
G04 #@! TO.P,U1,36*
G04 #@! TO.N,/SWDCLK*
X53500000Y-29750000D03*
G04 #@! TO.P,U1,37*
G04 #@! TO.N,/SWDIO*
X54200000Y-29750000D03*
G04 #@! TO.P,U1,38*
G04 #@! TO.N,N/C*
X54900000Y-29750000D03*
D17*
G04 #@! TO.P,U1,39*
G04 #@! TO.N,GND*
X55800000Y-29750000D03*
D18*
G04 #@! TO.P,U1,40*
G04 #@! TO.N,N/C*
X55250000Y-27900000D03*
G04 #@! TO.P,U1,41*
X53850000Y-27900000D03*
G04 #@! TD*
D19*
G04 #@! TO.P,J1,1*
G04 #@! TO.N,GND*
X13400000Y-37900000D03*
D20*
G04 #@! TO.P,J1,2*
G04 #@! TO.N,/TRIGGER*
X13400000Y-35000000D03*
D19*
G04 #@! TO.P,J1,3*
G04 #@! TO.N,/FOCUS*
X13400000Y-36600000D03*
G04 #@! TO.P,J1,4*
G04 #@! TO.N,/TRIGGER*
X13400000Y-32900000D03*
G04 #@! TO.P,J1,*
G04 #@! TO.N,*
X4100000Y-38500000D03*
X4100000Y-31500000D03*
G04 #@! TD*
D21*
G04 #@! TO.P,D3,2*
G04 #@! TO.N,Net-(D2-Pad4)*
X31600000Y-18700000D03*
G04 #@! TO.P,D3,1*
G04 #@! TO.N,VDD*
X28400000Y-18700000D03*
G04 #@! TO.P,D3,3*
X28400000Y-17300000D03*
G04 #@! TO.P,D3,4*
G04 #@! TO.N,Net-(D2-Pad2)*
X31600000Y-17300000D03*
G04 #@! TD*
D22*
G04 #@! TO.P,C1,1*
G04 #@! TO.N,GND*
X53900000Y-14150000D03*
G04 #@! TO.P,C1,2*
G04 #@! TO.N,/DEC4*
X53900000Y-16050000D03*
G04 #@! TD*
D23*
G04 #@! TO.P,C2,1*
G04 #@! TO.N,GND*
X36250000Y-31700000D03*
G04 #@! TO.P,C2,2*
G04 #@! TO.N,/BUTTON*
X34350000Y-31700000D03*
G04 #@! TD*
G04 #@! TO.P,C4,1*
G04 #@! TO.N,GND*
X38050000Y-19300000D03*
G04 #@! TO.P,C4,2*
G04 #@! TO.N,/LFCLK_XL1*
X39950000Y-19300000D03*
G04 #@! TD*
G04 #@! TO.P,C5,2*
G04 #@! TO.N,/LFCLK_XL2*
X39950000Y-24600000D03*
G04 #@! TO.P,C5,1*
G04 #@! TO.N,GND*
X38050000Y-24600000D03*
G04 #@! TD*
D22*
G04 #@! TO.P,C6,2*
G04 #@! TO.N,VDD*
X46000000Y-16050000D03*
G04 #@! TO.P,C6,1*
G04 #@! TO.N,GND*
X46000000Y-14150000D03*
G04 #@! TD*
G04 #@! TO.P,C7,2*
G04 #@! TO.N,VDD*
X47600000Y-16050000D03*
G04 #@! TO.P,C7,1*
G04 #@! TO.N,GND*
X47600000Y-14150000D03*
G04 #@! TD*
D23*
G04 #@! TO.P,C8,1*
G04 #@! TO.N,VDD*
X20650000Y-23200000D03*
G04 #@! TO.P,C8,2*
G04 #@! TO.N,GND*
X22550000Y-23200000D03*
G04 #@! TD*
G04 #@! TO.P,C9,1*
G04 #@! TO.N,/Sheet5C63BFE7/VLED*
X42250000Y-10700000D03*
G04 #@! TO.P,C9,2*
G04 #@! TO.N,GND*
X40350000Y-10700000D03*
G04 #@! TD*
G04 #@! TO.P,C11,2*
G04 #@! TO.N,Net-(C11-Pad2)*
X40350000Y-9000000D03*
G04 #@! TO.P,C11,1*
G04 #@! TO.N,/Sheet5C63BFE7/VLED*
X42250000Y-9000000D03*
G04 #@! TD*
D13*
G04 #@! TO.P,D1,2*
G04 #@! TO.N,GND*
X28810000Y-4000000D03*
D24*
G04 #@! TO.P,D1,1*
G04 #@! TO.N,/LIGHT_SENSE*
X31350000Y-4000000D03*
G04 #@! TD*
D25*
G04 #@! TO.P,D2,4*
G04 #@! TO.N,Net-(D2-Pad4)*
X30672000Y-18434000D03*
G04 #@! TO.P,D2,3*
G04 #@! TO.N,VDD*
X29272000Y-18434000D03*
G04 #@! TO.P,D2,1*
X29272000Y-17634000D03*
G04 #@! TO.P,D2,2*
G04 #@! TO.N,Net-(D2-Pad2)*
X30672000Y-17634000D03*
G04 #@! TD*
D24*
G04 #@! TO.P,D4,1*
G04 #@! TO.N,Net-(D4-Pad1)*
X40000000Y-15000000D03*
D13*
G04 #@! TO.P,D4,2*
G04 #@! TO.N,/Sheet5C63BFE7/VLED*
X42540000Y-15000000D03*
G04 #@! TD*
D26*
G04 #@! TO.P,P1,*
G04 #@! TO.N,*
X41780000Y-34730000D03*
X57020000Y-37270000D03*
D27*
G04 #@! TO.P,P1,1*
G04 #@! TO.N,/SWDIO*
X54480000Y-34730000D03*
G04 #@! TO.P,P1,3*
G04 #@! TO.N,/SWDCLK*
X51940000Y-34730000D03*
G04 #@! TO.P,P1,5*
G04 #@! TO.N,/RESET*
X49400000Y-34730000D03*
G04 #@! TO.P,P1,7*
G04 #@! TO.N,/GPIO2*
X46860000Y-34730000D03*
G04 #@! TO.P,P1,9*
G04 #@! TO.N,GND*
X44320000Y-34730000D03*
G04 #@! TO.P,P1,10*
X44320000Y-37270000D03*
G04 #@! TO.P,P1,8*
G04 #@! TO.N,/RX*
X46860000Y-37270000D03*
G04 #@! TO.P,P1,6*
G04 #@! TO.N,/GPIO1*
X49400000Y-37270000D03*
G04 #@! TO.P,P1,4*
G04 #@! TO.N,VDD*
X51940000Y-37270000D03*
G04 #@! TO.P,P1,2*
G04 #@! TO.N,/TX*
X54480000Y-37270000D03*
D26*
G04 #@! TO.P,P1,*
G04 #@! TO.N,*
X57020000Y-34730000D03*
G04 #@! TD*
D10*
G04 #@! TO.P,Q1,1*
G04 #@! TO.N,GND*
X19450000Y-35000000D03*
G04 #@! TO.P,Q1,2*
G04 #@! TO.N,VDD*
X17550000Y-35000000D03*
G04 #@! TO.P,Q1,3*
G04 #@! TO.N,Net-(Q1-Pad3)*
X18500000Y-37000000D03*
G04 #@! TD*
G04 #@! TO.P,Q2,3*
G04 #@! TO.N,Net-(Q2-Pad3)*
X50000000Y-10000000D03*
G04 #@! TO.P,Q2,2*
G04 #@! TO.N,GND*
X49050000Y-8000000D03*
G04 #@! TO.P,Q2,1*
G04 #@! TO.N,/LED_RED*
X50950000Y-8000000D03*
G04 #@! TD*
G04 #@! TO.P,Q4,3*
G04 #@! TO.N,Net-(Q4-Pad3)*
X17600000Y-24900000D03*
G04 #@! TO.P,Q4,2*
G04 #@! TO.N,GND*
X18550000Y-26900000D03*
G04 #@! TO.P,Q4,1*
G04 #@! TO.N,/RX_EN*
X16650000Y-26900000D03*
G04 #@! TD*
D28*
G04 #@! TO.P,Q5,3*
G04 #@! TO.N,Net-(D4-Pad1)*
X41300000Y-6500000D03*
G04 #@! TO.P,Q5,2*
G04 #@! TO.N,GND*
X40350000Y-3500000D03*
G04 #@! TO.P,Q5,1*
G04 #@! TO.N,/IR_LED_EN*
X42250000Y-3500000D03*
G04 #@! TD*
D29*
G04 #@! TO.P,Q6,1*
G04 #@! TO.N,/PWR1*
X15500000Y-5950000D03*
G04 #@! TO.P,Q6,2*
G04 #@! TO.N,GND*
X15500000Y-4050000D03*
G04 #@! TO.P,Q6,3*
G04 #@! TO.N,Net-(Q6-Pad3)*
X12500000Y-5000000D03*
G04 #@! TD*
G04 #@! TO.P,Q7,3*
G04 #@! TO.N,Net-(Q7-Pad3)*
X12500000Y-9000000D03*
G04 #@! TO.P,Q7,2*
G04 #@! TO.N,GND*
X15500000Y-8050000D03*
G04 #@! TO.P,Q7,1*
G04 #@! TO.N,/PWR2*
X15500000Y-9950000D03*
G04 #@! TD*
D11*
G04 #@! TO.P,R1,1*
G04 #@! TO.N,/LIGHT_SENSE_EN*
X36400000Y-4000000D03*
G04 #@! TO.P,R1,2*
G04 #@! TO.N,/LIGHT_SENSE*
X34200000Y-4000000D03*
G04 #@! TD*
D30*
G04 #@! TO.P,R2,1*
G04 #@! TO.N,/LED_RED*
X53900000Y-7900000D03*
G04 #@! TO.P,R2,2*
G04 #@! TO.N,GND*
X53900000Y-10100000D03*
G04 #@! TD*
G04 #@! TO.P,R3,1*
G04 #@! TO.N,Net-(Q3-Pad3)*
X46000000Y-5100000D03*
G04 #@! TO.P,R3,2*
G04 #@! TO.N,Net-(D2-Pad2)*
X46000000Y-2900000D03*
G04 #@! TD*
G04 #@! TO.P,R4,2*
G04 #@! TO.N,Net-(D2-Pad4)*
X46000000Y-7900000D03*
G04 #@! TO.P,R4,1*
G04 #@! TO.N,Net-(Q2-Pad3)*
X46000000Y-10100000D03*
G04 #@! TD*
G04 #@! TO.P,R5,2*
G04 #@! TO.N,GND*
X53900000Y-5100000D03*
G04 #@! TO.P,R5,1*
G04 #@! TO.N,/LED_GREEN*
X53900000Y-2900000D03*
G04 #@! TD*
D11*
G04 #@! TO.P,R6,2*
G04 #@! TO.N,GND*
X18700000Y-23200000D03*
G04 #@! TO.P,R6,1*
G04 #@! TO.N,Net-(Q4-Pad3)*
X16500000Y-23200000D03*
G04 #@! TD*
G04 #@! TO.P,R7,2*
G04 #@! TO.N,GND*
X18700000Y-28800000D03*
G04 #@! TO.P,R7,1*
G04 #@! TO.N,/RX_EN*
X16500000Y-28800000D03*
G04 #@! TD*
G04 #@! TO.P,R8,1*
G04 #@! TO.N,/IR_LED_EN*
X42400000Y-1300000D03*
G04 #@! TO.P,R8,2*
G04 #@! TO.N,GND*
X40200000Y-1300000D03*
G04 #@! TD*
G04 #@! TO.P,R9,2*
G04 #@! TO.N,GND*
X5600000Y-3000000D03*
G04 #@! TO.P,R9,1*
G04 #@! TO.N,/REG_EN*
X7800000Y-3000000D03*
G04 #@! TD*
D30*
G04 #@! TO.P,R10,1*
G04 #@! TO.N,/PWR1*
X19000000Y-6100000D03*
G04 #@! TO.P,R10,2*
G04 #@! TO.N,GND*
X19000000Y-3900000D03*
G04 #@! TD*
D11*
G04 #@! TO.P,R11,1*
G04 #@! TO.N,/Sheet5C63BFE7/VLED*
X5600000Y-16000000D03*
G04 #@! TO.P,R11,2*
G04 #@! TO.N,Net-(C11-Pad2)*
X7800000Y-16000000D03*
G04 #@! TD*
G04 #@! TO.P,R12,2*
G04 #@! TO.N,GND*
X7800000Y-5000000D03*
G04 #@! TO.P,R12,1*
G04 #@! TO.N,Net-(C11-Pad2)*
X5600000Y-5000000D03*
G04 #@! TD*
D30*
G04 #@! TO.P,R13,2*
G04 #@! TO.N,GND*
X19000000Y-7900000D03*
G04 #@! TO.P,R13,1*
G04 #@! TO.N,/PWR2*
X19000000Y-10100000D03*
G04 #@! TD*
D11*
G04 #@! TO.P,R15,2*
G04 #@! TO.N,Net-(Q7-Pad3)*
X7800000Y-14000000D03*
G04 #@! TO.P,R15,1*
G04 #@! TO.N,Net-(C11-Pad2)*
X5600000Y-14000000D03*
G04 #@! TD*
D31*
G04 #@! TO.P,SW1,2*
G04 #@! TO.N,Net-(Q1-Pad3)*
X23460000Y-36000000D03*
D32*
G04 #@! TO.P,SW1,1*
G04 #@! TO.N,GND*
X26000000Y-36000000D03*
G04 #@! TD*
G04 #@! TO.P,SW2,1*
G04 #@! TO.N,GND*
X36500000Y-36000000D03*
D31*
G04 #@! TO.P,SW2,2*
G04 #@! TO.N,/BUTTON*
X33960000Y-36000000D03*
G04 #@! TD*
D33*
G04 #@! TO.P,TP1,1*
G04 #@! TO.N,Net-(C11-Pad2)*
X10200000Y-16000000D03*
G04 #@! TD*
D34*
G04 #@! TO.P,U3,EP*
G04 #@! TO.N,N/C*
X6700000Y-11500000D03*
D35*
G04 #@! TO.P,U3,2*
G04 #@! TO.N,GND*
X7500000Y-11500000D03*
G04 #@! TO.P,U3,5*
G04 #@! TO.N,VDD*
X5900000Y-11500000D03*
G04 #@! TO.P,U3,4*
G04 #@! TO.N,Net-(L3-Pad1)*
X5900000Y-11000000D03*
G04 #@! TO.P,U3,6*
G04 #@! TO.N,Net-(C11-Pad2)*
X5900000Y-12000000D03*
G04 #@! TO.P,U3,1*
G04 #@! TO.N,/REG_EN*
X7500000Y-12000000D03*
G04 #@! TO.P,U3,3*
G04 #@! TO.N,GND*
X7500000Y-11000000D03*
G04 #@! TD*
D36*
G04 #@! TO.P,Y1,1*
G04 #@! TO.N,/LFCLK_XL1*
X40500000Y-21000000D03*
G04 #@! TO.P,Y1,2*
G04 #@! TO.N,/LFCLK_XL2*
X40500000Y-22900000D03*
G04 #@! TD*
D14*
G04 #@! TO.P,C3,2*
G04 #@! TO.N,GND*
X19750000Y-33000000D03*
G04 #@! TO.P,C3,1*
G04 #@! TO.N,VDD*
X17250000Y-33000000D03*
G04 #@! TD*
D37*
G04 #@! TO.P,L1,2*
G04 #@! TO.N,Net-(L1-Pad2)*
X51900000Y-14150000D03*
G04 #@! TO.P,L1,1*
G04 #@! TO.N,/DEC4*
X51900000Y-16050000D03*
G04 #@! TD*
G04 #@! TO.P,L2,1*
G04 #@! TO.N,Net-(L1-Pad2)*
X49600000Y-14150000D03*
G04 #@! TO.P,L2,2*
G04 #@! TO.N,/DCC*
X49600000Y-16050000D03*
G04 #@! TD*
D38*
G04 #@! TO.P,L3,1*
G04 #@! TO.N,Net-(L3-Pad1)*
X4000000Y-23400000D03*
G04 #@! TO.P,L3,2*
G04 #@! TO.N,/Sheet5C63BFE7/VLED*
X9000000Y-23400000D03*
G04 #@! TD*
D39*
G04 #@! TO.N,GND*
X4100000Y-3000000D03*
X41400000Y-12200000D03*
X46000000Y-12700000D03*
X47600000Y-3000000D03*
X20300000Y-3900000D03*
X20300000Y-7900000D03*
X38800000Y-1300000D03*
X23300000Y-21800000D03*
X18700000Y-30100000D03*
X20800000Y-35000000D03*
X36600000Y-20800000D03*
X8700000Y-11000000D03*
X43900000Y-30400000D03*
X42700000Y-20700000D03*
X42700000Y-19500000D03*
X43900000Y-19500000D03*
X42700000Y-30400000D03*
X42700000Y-29200000D03*
X55800000Y-22800000D03*
X55800000Y-21900000D03*
X54900000Y-21900000D03*
X54900000Y-22800000D03*
X55800000Y-18725000D03*
X54812653Y-18725000D03*
X55800000Y-31400000D03*
X54925000Y-31400000D03*
X51816000Y-22733000D03*
X51816000Y-25400000D03*
X51816000Y-27432000D03*
X47371000Y-27051000D03*
X49403000Y-24892000D03*
X46736000Y-23368000D03*
X53900000Y-12446000D03*
X47625000Y-6477000D03*
X22479000Y-13335000D03*
G04 #@! TO.N,VDD*
X4825000Y-12700000D03*
X37536724Y-16863276D03*
X47000000Y-17900000D03*
G04 #@! TO.N,/Sheet5C63BFE7/VLED*
X33100000Y-24700000D03*
G04 #@! TO.N,/LIGHT_SENSE*
X41500000Y-24900000D03*
G04 #@! TO.N,Net-(D2-Pad4)*
X36500000Y-11000000D03*
X36500000Y-7900000D03*
X33000000Y-14500000D03*
X32974840Y-19974840D03*
G04 #@! TO.N,Net-(D2-Pad2)*
X44200000Y-2900000D03*
X36500000Y-12700000D03*
G04 #@! TO.N,Net-(D4-Pad1)*
X38800000Y-6500000D03*
G04 #@! TO.N,Net-(L3-Pad1)*
X4100000Y-10600000D03*
G04 #@! TO.N,/TX*
X51900000Y-32000000D03*
G04 #@! TO.N,/RX_EN*
X37500000Y-26425000D03*
X16510000Y-29845000D03*
G04 #@! TO.N,/RX_OUT*
X36100000Y-25700000D03*
G04 #@! TO.N,/FOCUS*
X40513000Y-36322000D03*
G04 #@! TO.N,/TRIGGER*
X47200000Y-31600000D03*
G04 #@! TO.N,/LIGHT_SENSE_EN*
X50000000Y-18600000D03*
X38800000Y-4000000D03*
G04 #@! TO.N,/IR_LED_EN*
X52200000Y-18100000D03*
X44200000Y-1200000D03*
G04 #@! TO.N,/PWR1*
X42852463Y-23204321D03*
X35400000Y-7000000D03*
G04 #@! TO.N,/PWR2*
X42300000Y-24100000D03*
X34200000Y-8000000D03*
G04 #@! TO.N,/REG_EN*
X10000000Y-10900000D03*
X9700000Y-3000000D03*
X51100000Y-18300000D03*
G04 #@! TD*
D40*
G04 #@! TO.N,GND*
X19750000Y-34700000D02*
X19450000Y-35000000D01*
X19750000Y-33000000D02*
X19750000Y-34700000D01*
X40350000Y-1450000D02*
X40200000Y-1300000D01*
X40350000Y-3500000D02*
X40350000Y-1450000D01*
X18850000Y-8050000D02*
X19000000Y-7900000D01*
X15500000Y-8050000D02*
X18850000Y-8050000D01*
X18850000Y-4050000D02*
X19000000Y-3900000D01*
X15500000Y-4050000D02*
X18850000Y-4050000D01*
X18550000Y-28650000D02*
X18700000Y-28800000D01*
X18550000Y-26900000D02*
X18550000Y-28650000D01*
X7500000Y-11500000D02*
X7500000Y-11000000D01*
X5750000Y-3000000D02*
X7750000Y-5000000D01*
X7750000Y-5000000D02*
X7800000Y-5000000D01*
X5600000Y-3000000D02*
X5750000Y-3000000D01*
X7950000Y-10550000D02*
X7500000Y-11000000D01*
X7950000Y-9000000D02*
X7950000Y-10550000D01*
X5600000Y-3000000D02*
X4100000Y-3000000D01*
X46000000Y-14150000D02*
X47600000Y-14150000D01*
X40350000Y-11150000D02*
X41400000Y-12200000D01*
X40350000Y-10700000D02*
X40350000Y-11150000D01*
X46000000Y-14150000D02*
X46000000Y-12700000D01*
X49050000Y-3000000D02*
X47600000Y-3000000D01*
X53200000Y-5100000D02*
X53900000Y-5100000D01*
X51900000Y-5100000D02*
X53200000Y-5100000D01*
X49050000Y-7950000D02*
X51900000Y-5100000D01*
X49050000Y-8000000D02*
X49050000Y-7950000D01*
X19000000Y-3900000D02*
X20300000Y-3900000D01*
X19000000Y-7900000D02*
X20300000Y-7900000D01*
X40200000Y-1300000D02*
X38800000Y-1300000D01*
X18700000Y-26750000D02*
X18550000Y-26900000D01*
X18700000Y-23200000D02*
X18700000Y-26750000D01*
X22550000Y-22550000D02*
X23300000Y-21800000D01*
X22550000Y-23200000D02*
X22550000Y-22550000D01*
X18700000Y-28800000D02*
X18700000Y-30100000D01*
X19450000Y-35000000D02*
X20800000Y-35000000D01*
X36250000Y-35750000D02*
X36500000Y-36000000D01*
X36250000Y-31700000D02*
X36250000Y-35750000D01*
X38050000Y-24600000D02*
X38050000Y-19300000D01*
X38050000Y-19350000D02*
X36600000Y-20800000D01*
X38050000Y-19300000D02*
X38050000Y-19350000D01*
X7500000Y-11000000D02*
X8700000Y-11000000D01*
X44250000Y-20700000D02*
X42700000Y-20700000D01*
X44250000Y-29200000D02*
X42700000Y-29200000D01*
X55800000Y-21900000D02*
X55800000Y-20250000D01*
X55800000Y-20250000D02*
X55800000Y-18725000D01*
X55800000Y-29750000D02*
X55800000Y-31400000D01*
X45300000Y-20700000D02*
X45847000Y-21247000D01*
X44250000Y-20700000D02*
X45300000Y-20700000D01*
X45847000Y-22479000D02*
X46736000Y-23368000D01*
X45847000Y-21247000D02*
X45847000Y-22479000D01*
X41400000Y-31700000D02*
X42700000Y-30400000D01*
X36250000Y-31700000D02*
X41400000Y-31700000D01*
X37770000Y-37270000D02*
X36500000Y-36000000D01*
X44320000Y-37270000D02*
X37770000Y-37270000D01*
X53900000Y-14150000D02*
X53900000Y-12446000D01*
X53900000Y-12446000D02*
X53900000Y-10100000D01*
X51900000Y-5100000D02*
X51900000Y-4783000D01*
X51900000Y-4783000D02*
X51054000Y-3937000D01*
X49050000Y-3050000D02*
X49050000Y-3000000D01*
X49937000Y-3937000D02*
X49050000Y-3050000D01*
X51054000Y-3937000D02*
X49937000Y-3937000D01*
X49050000Y-7902000D02*
X47625000Y-6477000D01*
X49050000Y-8000000D02*
X49050000Y-7902000D01*
X20800000Y-35000000D02*
X22399000Y-33401000D01*
X26000000Y-35700000D02*
X26000000Y-36000000D01*
X23701000Y-33401000D02*
X26000000Y-35700000D01*
X22399000Y-33401000D02*
X23701000Y-33401000D01*
G04 #@! TO.N,/DEC4*
X47900000Y-20250000D02*
X47900000Y-19314998D01*
X51350000Y-17200000D02*
X50014998Y-17200000D01*
X51900000Y-16650000D02*
X51350000Y-17200000D01*
X51900000Y-16050000D02*
X51900000Y-16650000D01*
X47900000Y-19314998D02*
X50014998Y-17200000D01*
X51900000Y-16050000D02*
X53900000Y-16050000D01*
G04 #@! TO.N,/BUTTON*
X34350000Y-31075000D02*
X34350000Y-31700000D01*
X38325000Y-27100000D02*
X34350000Y-31075000D01*
X44250000Y-27100000D02*
X38325000Y-27100000D01*
X34350000Y-35610000D02*
X33960000Y-36000000D01*
X34350000Y-31700000D02*
X34350000Y-35610000D01*
G04 #@! TO.N,VDD*
X17250000Y-34700000D02*
X17550000Y-35000000D01*
X17250000Y-33000000D02*
X17250000Y-34700000D01*
X50210000Y-39000000D02*
X51940000Y-37270000D01*
X48600000Y-21300000D02*
X48200000Y-21700000D01*
X48600000Y-20250000D02*
X48600000Y-21300000D01*
X46500000Y-21300000D02*
X46500000Y-20250000D01*
X46900000Y-21700000D02*
X46500000Y-21300000D01*
X48200000Y-21700000D02*
X46900000Y-21700000D01*
X46000000Y-19750000D02*
X46500000Y-20250000D01*
X46000000Y-16050000D02*
X46000000Y-19750000D01*
X46000000Y-16050000D02*
X47600000Y-16050000D01*
X28400000Y-17300000D02*
X28400000Y-18700000D01*
X20650000Y-20570000D02*
X20080000Y-20000000D01*
X20650000Y-23200000D02*
X20650000Y-20570000D01*
X17375000Y-33000000D02*
X17250000Y-33000000D01*
X20650000Y-29725000D02*
X17375000Y-33000000D01*
X20650000Y-23200000D02*
X20650000Y-29725000D01*
X18200000Y-39000000D02*
X50210000Y-39000000D01*
X17550000Y-38350000D02*
X18200000Y-39000000D01*
X17550000Y-35000000D02*
X17550000Y-38350000D01*
X5450000Y-9000000D02*
X3600000Y-9000000D01*
X3374999Y-11174999D02*
X3700000Y-11500000D01*
X3374999Y-9225001D02*
X3374999Y-11174999D01*
X3600000Y-9000000D02*
X3374999Y-9225001D01*
X5900000Y-11500000D02*
X3700000Y-11500000D01*
X4825000Y-12025000D02*
X4825000Y-12700000D01*
X5350000Y-11500000D02*
X4825000Y-12025000D01*
X5900000Y-11500000D02*
X5350000Y-11500000D01*
X47600000Y-17300000D02*
X47000000Y-17900000D01*
X47600000Y-16050000D02*
X47600000Y-17300000D01*
X21380000Y-18700000D02*
X28400000Y-18700000D01*
X20080000Y-20000000D02*
X21380000Y-18700000D01*
X37400000Y-17000000D02*
X37536724Y-16863276D01*
X28666000Y-18434000D02*
X28400000Y-18700000D01*
X29272000Y-18434000D02*
X28666000Y-18434000D01*
X28938000Y-17300000D02*
X29272000Y-17634000D01*
X28400000Y-17300000D02*
X28938000Y-17300000D01*
X31115000Y-21209000D02*
X28606000Y-18700000D01*
X28606000Y-18700000D02*
X28400000Y-18700000D01*
X33191000Y-21209000D02*
X31115000Y-21209000D01*
X37536724Y-16863276D02*
X33191000Y-21209000D01*
G04 #@! TO.N,/LFCLK_XL1*
X43200000Y-21500000D02*
X44250000Y-21500000D01*
X40999999Y-21499999D02*
X43200000Y-21500000D01*
X40500000Y-21000000D02*
X40999999Y-21499999D01*
X40500000Y-19850000D02*
X39950000Y-19300000D01*
X40500000Y-21000000D02*
X40500000Y-19850000D01*
G04 #@! TO.N,/LFCLK_XL2*
X40500000Y-24050000D02*
X39950000Y-24600000D01*
X40500000Y-22900000D02*
X40500000Y-24050000D01*
X41200000Y-22200000D02*
X44250000Y-22200000D01*
X40500000Y-22900000D02*
X41200000Y-22200000D01*
G04 #@! TO.N,/Sheet5C63BFE7/VLED*
X42250000Y-14710000D02*
X42540000Y-15000000D01*
X42250000Y-10700000D02*
X42250000Y-14710000D01*
X42250000Y-10700000D02*
X42250000Y-9000000D01*
X33100000Y-22689998D02*
X33100000Y-24700000D01*
X38789998Y-17000000D02*
X33100000Y-22689998D01*
X41812792Y-17000000D02*
X38789998Y-17000000D01*
X42540000Y-16272792D02*
X41812792Y-17000000D01*
X42540000Y-15000000D02*
X42540000Y-16272792D01*
X5600000Y-20000000D02*
X5600000Y-16000000D01*
X9000000Y-23400000D02*
X5600000Y-20000000D01*
G04 #@! TO.N,Net-(C11-Pad2)*
X5900000Y-13700000D02*
X5600000Y-14000000D01*
X5900000Y-12000000D02*
X5900000Y-13700000D01*
X5600000Y-5000000D02*
X5600000Y-7000000D01*
X5600000Y-7000000D02*
X3300000Y-7000000D01*
X3300000Y-7000000D02*
X2700000Y-7600000D01*
X2700000Y-7600000D02*
X2700000Y-13400000D01*
X3300000Y-14000000D02*
X5600000Y-14000000D01*
X2700000Y-13400000D02*
X3300000Y-14000000D01*
X7750000Y-16000000D02*
X7800000Y-16000000D01*
X5750000Y-14000000D02*
X7750000Y-16000000D01*
X5600000Y-14000000D02*
X5750000Y-14000000D01*
X7800000Y-16000000D02*
X10200000Y-16000000D01*
X31176997Y-15250001D02*
X10949999Y-15250001D01*
X37426998Y-9000000D02*
X31176997Y-15250001D01*
X10949999Y-15250001D02*
X10200000Y-16000000D01*
X40350000Y-9000000D02*
X37426998Y-9000000D01*
G04 #@! TO.N,/LIGHT_SENSE*
X41600000Y-25000000D02*
X41500000Y-24900000D01*
X44250000Y-25000000D02*
X41600000Y-25000000D01*
X31350000Y-4000000D02*
X34200000Y-4000000D01*
G04 #@! TO.N,Net-(D2-Pad4)*
X37065685Y-7900000D02*
X46000000Y-7900000D01*
X36500000Y-7900000D02*
X37065685Y-7900000D01*
X33000000Y-14500000D02*
X36500000Y-11000000D01*
X31334000Y-18434000D02*
X31600000Y-18700000D01*
X30672000Y-18434000D02*
X31334000Y-18434000D01*
X32000000Y-18700000D02*
X32974840Y-19674840D01*
X32974840Y-19674840D02*
X32974840Y-19974840D01*
X31600000Y-18700000D02*
X32000000Y-18700000D01*
G04 #@! TO.N,Net-(D2-Pad2)*
X46000000Y-2900000D02*
X44200000Y-2900000D01*
X31266000Y-17634000D02*
X31600000Y-17300000D01*
X30672000Y-17634000D02*
X31266000Y-17634000D01*
X31900000Y-17300000D02*
X31600000Y-17300000D01*
X36500000Y-12700000D02*
X31900000Y-17300000D01*
G04 #@! TO.N,Net-(D4-Pad1)*
X41300000Y-6500000D02*
X38800000Y-6500000D01*
G04 #@! TO.N,Net-(L1-Pad2)*
X49600000Y-14150000D02*
X51900000Y-14150000D01*
G04 #@! TO.N,/DCC*
X47200000Y-19050000D02*
X47200000Y-20250000D01*
X49600000Y-16650000D02*
X47200000Y-19050000D01*
X49600000Y-16050000D02*
X49600000Y-16650000D01*
G04 #@! TO.N,Net-(L3-Pad1)*
X4500000Y-11000000D02*
X4100000Y-10600000D01*
X5900000Y-11000000D02*
X4500000Y-11000000D01*
G04 #@! TO.N,/SWDIO*
X54200000Y-34450000D02*
X54480000Y-34730000D01*
X54200000Y-29750000D02*
X54200000Y-34450000D01*
G04 #@! TO.N,/SWDCLK*
X53500000Y-33170000D02*
X51940000Y-34730000D01*
X53500000Y-29750000D02*
X53500000Y-33170000D01*
G04 #@! TO.N,/RESET*
X49400000Y-33598630D02*
X49998630Y-33000000D01*
X49400000Y-34730000D02*
X49400000Y-33598630D01*
X52800000Y-32173002D02*
X52800000Y-31900000D01*
X51973002Y-33000000D02*
X52800000Y-32173002D01*
X49998630Y-33000000D02*
X51973002Y-33000000D01*
X52800000Y-29750000D02*
X52800000Y-31900000D01*
G04 #@! TO.N,/GPIO2*
X50700000Y-30800000D02*
X50700000Y-29750000D01*
X46860000Y-33912000D02*
X49022000Y-31750000D01*
X49022000Y-31750000D02*
X49750000Y-31750000D01*
X46860000Y-34730000D02*
X46860000Y-33912000D01*
X49750000Y-31750000D02*
X50700000Y-30800000D01*
G04 #@! TO.N,/RX*
X49558000Y-31242000D02*
X48768000Y-31242000D01*
X48768000Y-31242000D02*
X46609000Y-33401000D01*
X46609000Y-33401000D02*
X45847000Y-33401000D01*
X45593000Y-36003000D02*
X46060001Y-36470001D01*
X46060001Y-36470001D02*
X46860000Y-37270000D01*
X45847000Y-33401000D02*
X45593000Y-33655000D01*
X50000000Y-30800000D02*
X49558000Y-31242000D01*
X50000000Y-29750000D02*
X50000000Y-30800000D01*
X45593000Y-33655000D02*
X45593000Y-36003000D01*
G04 #@! TO.N,/GPIO1*
X49400000Y-37270000D02*
X48133000Y-36003000D01*
X48133000Y-36003000D02*
X48133000Y-33528000D01*
X48133000Y-33528000D02*
X49403000Y-32258000D01*
X49403000Y-32258000D02*
X50038000Y-32258000D01*
X51400000Y-30896000D02*
X51400000Y-29750000D01*
X50038000Y-32258000D02*
X51400000Y-30896000D01*
G04 #@! TO.N,/TX*
X51900000Y-31000000D02*
X51900000Y-32000000D01*
X52100000Y-30800000D02*
X51900000Y-31000000D01*
X52100000Y-29750000D02*
X52100000Y-30800000D01*
G04 #@! TO.N,Net-(Q1-Pad3)*
X22460000Y-37000000D02*
X23460000Y-36000000D01*
X18500000Y-37000000D02*
X22460000Y-37000000D01*
G04 #@! TO.N,Net-(Q2-Pad3)*
X46100000Y-10000000D02*
X46000000Y-10100000D01*
X50000000Y-10000000D02*
X46100000Y-10000000D01*
G04 #@! TO.N,/LED_RED*
X52100000Y-20250000D02*
X52100000Y-19314998D01*
X53800000Y-8000000D02*
X53900000Y-7900000D01*
X50950000Y-8000000D02*
X53800000Y-8000000D01*
X52100000Y-19314998D02*
X54014998Y-17400000D01*
X54014998Y-17400000D02*
X54482000Y-17400000D01*
X54482000Y-17400000D02*
X54991000Y-16891000D01*
X54991000Y-9141000D02*
X53900000Y-8050000D01*
X53900000Y-8050000D02*
X53900000Y-7900000D01*
X54991000Y-16891000D02*
X54991000Y-9141000D01*
G04 #@! TO.N,/LED_GREEN*
X53800000Y-3000000D02*
X53900000Y-2900000D01*
X50950000Y-3000000D02*
X53800000Y-3000000D01*
X52800000Y-19700000D02*
X54593000Y-17907000D01*
X52800000Y-20250000D02*
X52800000Y-19700000D01*
X54593000Y-17907000D02*
X54737000Y-17907000D01*
X54737000Y-17907000D02*
X55499000Y-17145000D01*
X55499000Y-3799000D02*
X54600000Y-2900000D01*
X55499000Y-17145000D02*
X55499000Y-3799000D01*
X54600000Y-2900000D02*
X53900000Y-2900000D01*
G04 #@! TO.N,Net-(Q3-Pad3)*
X46100000Y-5000000D02*
X46000000Y-5100000D01*
X50000000Y-5000000D02*
X46100000Y-5000000D01*
G04 #@! TO.N,Net-(Q4-Pad3)*
X17600000Y-20060000D02*
X17540000Y-20000000D01*
X17600000Y-24300000D02*
X16500000Y-23200000D01*
X17600000Y-24900000D02*
X17600000Y-24300000D01*
X16500000Y-21040000D02*
X17540000Y-20000000D01*
X16500000Y-23200000D02*
X16500000Y-21040000D01*
G04 #@! TO.N,/RX_EN*
X16650000Y-28650000D02*
X16500000Y-28800000D01*
X16650000Y-26900000D02*
X16650000Y-28650000D01*
X37525000Y-26400000D02*
X37500000Y-26425000D01*
X44250000Y-26400000D02*
X37525000Y-26400000D01*
X16500000Y-29835000D02*
X16510000Y-29845000D01*
X16500000Y-28800000D02*
X16500000Y-29835000D01*
G04 #@! TO.N,Net-(Q6-Pad3)*
X12500000Y-5650000D02*
X12500000Y-5000000D01*
X11150000Y-7000000D02*
X12500000Y-5650000D01*
X7800000Y-7000000D02*
X11150000Y-7000000D01*
G04 #@! TO.N,Net-(Q7-Pad3)*
X12500000Y-9650000D02*
X12500000Y-9000000D01*
X12500000Y-10150000D02*
X12500000Y-9650000D01*
X8650000Y-14000000D02*
X12500000Y-10150000D01*
X7800000Y-14000000D02*
X8650000Y-14000000D01*
G04 #@! TO.N,/RX_OUT*
X44250000Y-25700000D02*
X36100000Y-25700000D01*
G04 #@! TO.N,/FOCUS*
X44500000Y-32800000D02*
X46500000Y-30800000D01*
X46500000Y-30800000D02*
X46500000Y-29750000D01*
X41200000Y-32800000D02*
X44500000Y-32800000D01*
X40600000Y-33400000D02*
X41200000Y-32800000D01*
X40600000Y-36235000D02*
X40513000Y-36322000D01*
X40600000Y-33400000D02*
X40600000Y-36235000D01*
G04 #@! TO.N,/TRIGGER*
X47200000Y-29750000D02*
X47200000Y-31600000D01*
X13400000Y-35000000D02*
X13400000Y-32900000D01*
G04 #@! TO.N,/LIGHT_SENSE_EN*
X50000000Y-20250000D02*
X50000000Y-18600000D01*
X38800000Y-4000000D02*
X36400000Y-4000000D01*
G04 #@! TO.N,/IR_LED_EN*
X52200000Y-18400000D02*
X52200000Y-18100000D01*
X51400000Y-19200000D02*
X52200000Y-18400000D01*
X51400000Y-20250000D02*
X51400000Y-19200000D01*
X42500000Y-1200000D02*
X42400000Y-1300000D01*
X44200000Y-1200000D02*
X42500000Y-1200000D01*
X42250000Y-1450000D02*
X42400000Y-1300000D01*
X42250000Y-3500000D02*
X42250000Y-1450000D01*
G04 #@! TO.N,/PWR1*
X43248142Y-23600000D02*
X42852463Y-23204321D01*
X44250000Y-23600000D02*
X43248142Y-23600000D01*
X20300000Y-6100000D02*
X19000000Y-6100000D01*
X21200000Y-7000000D02*
X20300000Y-6100000D01*
X35400000Y-7000000D02*
X21200000Y-7000000D01*
X18850000Y-5950000D02*
X19000000Y-6100000D01*
X15500000Y-5950000D02*
X18850000Y-5950000D01*
G04 #@! TO.N,/PWR2*
X44250000Y-24300000D02*
X42500000Y-24300000D01*
X42500000Y-24300000D02*
X42300000Y-24100000D01*
X18850000Y-9950000D02*
X19000000Y-10100000D01*
X15500000Y-9950000D02*
X18850000Y-9950000D01*
X21800000Y-8000000D02*
X24100000Y-8000000D01*
X19700000Y-10100000D02*
X21800000Y-8000000D01*
X34200000Y-8000000D02*
X24100000Y-8000000D01*
X19000000Y-10100000D02*
X19700000Y-10100000D01*
X24100000Y-8000000D02*
X23800000Y-8000000D01*
G04 #@! TO.N,/REG_EN*
X8900000Y-12000000D02*
X10000000Y-10900000D01*
X7500000Y-12000000D02*
X8900000Y-12000000D01*
X9700000Y-3000000D02*
X7800000Y-3000000D01*
X51100000Y-18800000D02*
X51100000Y-18300000D01*
X50700000Y-19200000D02*
X51100000Y-18800000D01*
X50700000Y-20250000D02*
X50700000Y-19200000D01*
G04 #@! TD*
D41*
G04 #@! TO.N,GND*
G36*
X38965000Y-723690D02*
X38965000Y-1014250D01*
X39123750Y-1173000D01*
X40073000Y-1173000D01*
X40073000Y-1153000D01*
X40327000Y-1153000D01*
X40327000Y-1173000D01*
X40347000Y-1173000D01*
X40347000Y-1427000D01*
X40327000Y-1427000D01*
X40327000Y-1447000D01*
X40073000Y-1447000D01*
X40073000Y-1427000D01*
X39123750Y-1427000D01*
X38965000Y-1585750D01*
X38965000Y-1876310D01*
X39061673Y-2109699D01*
X39240302Y-2288327D01*
X39351919Y-2334560D01*
X39315000Y-2423691D01*
X39315000Y-3093044D01*
X39005874Y-2965000D01*
X38594126Y-2965000D01*
X38213720Y-3122569D01*
X38096289Y-3240000D01*
X37556573Y-3240000D01*
X37457809Y-3092191D01*
X37247765Y-2951843D01*
X37000000Y-2902560D01*
X35800000Y-2902560D01*
X35552235Y-2951843D01*
X35342191Y-3092191D01*
X35300000Y-3155334D01*
X35257809Y-3092191D01*
X35047765Y-2951843D01*
X34800000Y-2902560D01*
X33600000Y-2902560D01*
X33352235Y-2951843D01*
X33142191Y-3092191D01*
X33043427Y-3240000D01*
X32897440Y-3240000D01*
X32897440Y-3100000D01*
X32848157Y-2852235D01*
X32707809Y-2642191D01*
X32497765Y-2501843D01*
X32250000Y-2452560D01*
X30450000Y-2452560D01*
X30202235Y-2501843D01*
X29992191Y-2642191D01*
X29859942Y-2840114D01*
X29825110Y-2805282D01*
X29710553Y-2919839D01*
X29624148Y-2663357D01*
X29050664Y-2453542D01*
X28440540Y-2479161D01*
X27995852Y-2663357D01*
X27909446Y-2919841D01*
X28810000Y-3820395D01*
X28824143Y-3806253D01*
X29003748Y-3985858D01*
X28989605Y-4000000D01*
X29003748Y-4014143D01*
X28824143Y-4193748D01*
X28810000Y-4179605D01*
X27909446Y-5080159D01*
X27995852Y-5336643D01*
X28569336Y-5546458D01*
X29179460Y-5520839D01*
X29624148Y-5336643D01*
X29710553Y-5080161D01*
X29825110Y-5194718D01*
X29859942Y-5159886D01*
X29992191Y-5357809D01*
X30202235Y-5498157D01*
X30450000Y-5547440D01*
X32250000Y-5547440D01*
X32497765Y-5498157D01*
X32707809Y-5357809D01*
X32848157Y-5147765D01*
X32897440Y-4900000D01*
X32897440Y-4760000D01*
X33043427Y-4760000D01*
X33142191Y-4907809D01*
X33352235Y-5048157D01*
X33600000Y-5097440D01*
X34800000Y-5097440D01*
X35047765Y-5048157D01*
X35257809Y-4907809D01*
X35300000Y-4844666D01*
X35342191Y-4907809D01*
X35552235Y-5048157D01*
X35800000Y-5097440D01*
X37000000Y-5097440D01*
X37247765Y-5048157D01*
X37457809Y-4907809D01*
X37556573Y-4760000D01*
X38096289Y-4760000D01*
X38213720Y-4877431D01*
X38594126Y-5035000D01*
X39005874Y-5035000D01*
X39386280Y-4877431D01*
X39432843Y-4830868D01*
X39590301Y-4988327D01*
X39823690Y-5085000D01*
X40064250Y-5085000D01*
X40223000Y-4926250D01*
X40223000Y-3627000D01*
X40203000Y-3627000D01*
X40203000Y-3373000D01*
X40223000Y-3373000D01*
X40223000Y-3353000D01*
X40477000Y-3353000D01*
X40477000Y-3373000D01*
X40497000Y-3373000D01*
X40497000Y-3627000D01*
X40477000Y-3627000D01*
X40477000Y-4926250D01*
X40562531Y-5011781D01*
X40442191Y-5092191D01*
X40301843Y-5302235D01*
X40252560Y-5550000D01*
X40252560Y-5740000D01*
X39503711Y-5740000D01*
X39386280Y-5622569D01*
X39005874Y-5465000D01*
X38594126Y-5465000D01*
X38213720Y-5622569D01*
X37922569Y-5913720D01*
X37765000Y-6294126D01*
X37765000Y-6705874D01*
X37922569Y-7086280D01*
X37976289Y-7140000D01*
X37203711Y-7140000D01*
X37086280Y-7022569D01*
X36705874Y-6865000D01*
X36435000Y-6865000D01*
X36435000Y-6794126D01*
X36277431Y-6413720D01*
X35986280Y-6122569D01*
X35605874Y-5965000D01*
X35194126Y-5965000D01*
X34813720Y-6122569D01*
X34696289Y-6240000D01*
X21514802Y-6240000D01*
X20890331Y-5615530D01*
X20847929Y-5552071D01*
X20596537Y-5384096D01*
X20374852Y-5340000D01*
X20374847Y-5340000D01*
X20300000Y-5325112D01*
X20225153Y-5340000D01*
X20065614Y-5340000D01*
X20048157Y-5252235D01*
X19907809Y-5042191D01*
X19846680Y-5001346D01*
X19988327Y-4859698D01*
X20085000Y-4626309D01*
X20085000Y-4185750D01*
X19926250Y-4027000D01*
X19127000Y-4027000D01*
X19127000Y-4047000D01*
X18873000Y-4047000D01*
X18873000Y-4027000D01*
X18073750Y-4027000D01*
X17915000Y-4185750D01*
X17915000Y-4626309D01*
X18011673Y-4859698D01*
X18153320Y-5001346D01*
X18092191Y-5042191D01*
X17993427Y-5190000D01*
X16973163Y-5190000D01*
X16907809Y-5092191D01*
X16774306Y-5002987D01*
X16809698Y-4988327D01*
X16988327Y-4809699D01*
X17085000Y-4576310D01*
X17085000Y-4335750D01*
X16926250Y-4177000D01*
X15627000Y-4177000D01*
X15627000Y-4197000D01*
X15373000Y-4197000D01*
X15373000Y-4177000D01*
X14073750Y-4177000D01*
X13988219Y-4262531D01*
X13907809Y-4142191D01*
X13697765Y-4001843D01*
X13450000Y-3952560D01*
X11550000Y-3952560D01*
X11302235Y-4001843D01*
X11092191Y-4142191D01*
X10951843Y-4352235D01*
X10902560Y-4600000D01*
X10902560Y-5400000D01*
X10951843Y-5647765D01*
X11092191Y-5857809D01*
X11167242Y-5907957D01*
X10835199Y-6240000D01*
X8956573Y-6240000D01*
X8857809Y-6092191D01*
X8724306Y-6002987D01*
X8759698Y-5988327D01*
X8938327Y-5809699D01*
X9035000Y-5576310D01*
X9035000Y-5285750D01*
X8876250Y-5127000D01*
X7927000Y-5127000D01*
X7927000Y-5147000D01*
X7673000Y-5147000D01*
X7673000Y-5127000D01*
X7653000Y-5127000D01*
X7653000Y-4873000D01*
X7673000Y-4873000D01*
X7673000Y-4853000D01*
X7927000Y-4853000D01*
X7927000Y-4873000D01*
X8876250Y-4873000D01*
X9035000Y-4714250D01*
X9035000Y-4423690D01*
X8938327Y-4190301D01*
X8759698Y-4011673D01*
X8724306Y-3997013D01*
X8857809Y-3907809D01*
X8956573Y-3760000D01*
X8996289Y-3760000D01*
X9113720Y-3877431D01*
X9494126Y-4035000D01*
X9905874Y-4035000D01*
X10286280Y-3877431D01*
X10577431Y-3586280D01*
X10603356Y-3523690D01*
X13915000Y-3523690D01*
X13915000Y-3764250D01*
X14073750Y-3923000D01*
X15373000Y-3923000D01*
X15373000Y-3173750D01*
X15627000Y-3173750D01*
X15627000Y-3923000D01*
X16926250Y-3923000D01*
X17085000Y-3764250D01*
X17085000Y-3523690D01*
X16988327Y-3290301D01*
X16871717Y-3173691D01*
X17915000Y-3173691D01*
X17915000Y-3614250D01*
X18073750Y-3773000D01*
X18873000Y-3773000D01*
X18873000Y-2823750D01*
X19127000Y-2823750D01*
X19127000Y-3773000D01*
X19926250Y-3773000D01*
X19939914Y-3759336D01*
X27263542Y-3759336D01*
X27289161Y-4369460D01*
X27473357Y-4814148D01*
X27729841Y-4900554D01*
X28630395Y-4000000D01*
X27729841Y-3099446D01*
X27473357Y-3185852D01*
X27263542Y-3759336D01*
X19939914Y-3759336D01*
X20085000Y-3614250D01*
X20085000Y-3173691D01*
X19988327Y-2940302D01*
X19809699Y-2761673D01*
X19576310Y-2665000D01*
X19285750Y-2665000D01*
X19127000Y-2823750D01*
X18873000Y-2823750D01*
X18714250Y-2665000D01*
X18423690Y-2665000D01*
X18190301Y-2761673D01*
X18011673Y-2940302D01*
X17915000Y-3173691D01*
X16871717Y-3173691D01*
X16809698Y-3111673D01*
X16576309Y-3015000D01*
X15785750Y-3015000D01*
X15627000Y-3173750D01*
X15373000Y-3173750D01*
X15214250Y-3015000D01*
X14423691Y-3015000D01*
X14190302Y-3111673D01*
X14011673Y-3290301D01*
X13915000Y-3523690D01*
X10603356Y-3523690D01*
X10735000Y-3205874D01*
X10735000Y-2794126D01*
X10577431Y-2413720D01*
X10286280Y-2122569D01*
X9905874Y-1965000D01*
X9494126Y-1965000D01*
X9113720Y-2122569D01*
X8996289Y-2240000D01*
X8956573Y-2240000D01*
X8857809Y-2092191D01*
X8647765Y-1951843D01*
X8400000Y-1902560D01*
X7200000Y-1902560D01*
X6952235Y-1951843D01*
X6742191Y-2092191D01*
X6701346Y-2153320D01*
X6559698Y-2011673D01*
X6326309Y-1915000D01*
X5885750Y-1915000D01*
X5727000Y-2073750D01*
X5727000Y-2873000D01*
X5747000Y-2873000D01*
X5747000Y-3127000D01*
X5727000Y-3127000D01*
X5727000Y-3147000D01*
X5473000Y-3147000D01*
X5473000Y-3127000D01*
X4523750Y-3127000D01*
X4365000Y-3285750D01*
X4365000Y-3576310D01*
X4461673Y-3809699D01*
X4640302Y-3988327D01*
X4675694Y-4002987D01*
X4542191Y-4092191D01*
X4401843Y-4302235D01*
X4352560Y-4550000D01*
X4352560Y-5450000D01*
X4401843Y-5697765D01*
X4542191Y-5907809D01*
X4680164Y-6000000D01*
X4542191Y-6092191D01*
X4443427Y-6240000D01*
X3374846Y-6240000D01*
X3299999Y-6225112D01*
X3225152Y-6240000D01*
X3225148Y-6240000D01*
X3003463Y-6284096D01*
X2752071Y-6452071D01*
X2709671Y-6515527D01*
X2215530Y-7009669D01*
X2152071Y-7052071D01*
X1984096Y-7303464D01*
X1940000Y-7525149D01*
X1940000Y-7525153D01*
X1925112Y-7600000D01*
X1940000Y-7674847D01*
X1940001Y-13325148D01*
X1925112Y-13400000D01*
X1940001Y-13474852D01*
X1969384Y-13622569D01*
X1984097Y-13696537D01*
X2088952Y-13853463D01*
X2152072Y-13947929D01*
X2215528Y-13990329D01*
X2709670Y-14484472D01*
X2752071Y-14547929D01*
X3003463Y-14715904D01*
X3225148Y-14760000D01*
X3225152Y-14760000D01*
X3299999Y-14774888D01*
X3374846Y-14760000D01*
X4443427Y-14760000D01*
X4542191Y-14907809D01*
X4680164Y-15000000D01*
X4542191Y-15092191D01*
X4401843Y-15302235D01*
X4352560Y-15550000D01*
X4352560Y-16450000D01*
X4401843Y-16697765D01*
X4542191Y-16907809D01*
X4752235Y-17048157D01*
X4840001Y-17065615D01*
X4840000Y-19925153D01*
X4825112Y-20000000D01*
X4840000Y-20074847D01*
X4840000Y-20074851D01*
X4884096Y-20296536D01*
X5052071Y-20547929D01*
X5115530Y-20590331D01*
X7204213Y-22679015D01*
X7065000Y-23015105D01*
X7065000Y-23784895D01*
X7359586Y-24496090D01*
X7903910Y-25040414D01*
X8615105Y-25335000D01*
X9384895Y-25335000D01*
X10096090Y-25040414D01*
X10640414Y-24496090D01*
X10935000Y-23784895D01*
X10935000Y-23015105D01*
X10640414Y-22303910D01*
X10096090Y-21759586D01*
X9384895Y-21465000D01*
X8615105Y-21465000D01*
X8279015Y-21604213D01*
X6360000Y-19685199D01*
X6360000Y-17065614D01*
X6447765Y-17048157D01*
X6657809Y-16907809D01*
X6700000Y-16844666D01*
X6742191Y-16907809D01*
X6952235Y-17048157D01*
X7200000Y-17097440D01*
X8400000Y-17097440D01*
X8647765Y-17048157D01*
X8857809Y-16907809D01*
X8956573Y-16760000D01*
X9015688Y-16760000D01*
X9025853Y-16784540D01*
X9415460Y-17174147D01*
X9924506Y-17385000D01*
X10475494Y-17385000D01*
X10984540Y-17174147D01*
X11374147Y-16784540D01*
X11585000Y-16275494D01*
X11585000Y-16010001D01*
X31102150Y-16010001D01*
X31176997Y-16024889D01*
X31251844Y-16010001D01*
X31251849Y-16010001D01*
X31473534Y-15965905D01*
X31724926Y-15797930D01*
X31767328Y-15734471D01*
X32269044Y-15232755D01*
X32413720Y-15377431D01*
X32649927Y-15475271D01*
X31872639Y-16252560D01*
X30800000Y-16252560D01*
X30552235Y-16301843D01*
X30342191Y-16442191D01*
X30201843Y-16652235D01*
X30177369Y-16775274D01*
X30124235Y-16785843D01*
X29972000Y-16887564D01*
X29825495Y-16789671D01*
X29798157Y-16652235D01*
X29657809Y-16442191D01*
X29447765Y-16301843D01*
X29200000Y-16252560D01*
X27600000Y-16252560D01*
X27352235Y-16301843D01*
X27142191Y-16442191D01*
X27001843Y-16652235D01*
X26952560Y-16900000D01*
X26952560Y-17700000D01*
X27000298Y-17940000D01*
X21454848Y-17940000D01*
X21380000Y-17925112D01*
X21305152Y-17940000D01*
X21305148Y-17940000D01*
X21083463Y-17984096D01*
X20832071Y-18152071D01*
X20789671Y-18215527D01*
X20494838Y-18510360D01*
X20385330Y-18465000D01*
X19774670Y-18465000D01*
X19210493Y-18698690D01*
X18810000Y-19099183D01*
X18409507Y-18698690D01*
X17845330Y-18465000D01*
X17234670Y-18465000D01*
X16670493Y-18698690D01*
X16432401Y-18936782D01*
X16284527Y-18715473D01*
X15993312Y-18520889D01*
X15649800Y-18452560D01*
X14350200Y-18452560D01*
X14006688Y-18520889D01*
X13715473Y-18715473D01*
X13520889Y-19006688D01*
X13452560Y-19350200D01*
X13452560Y-20649800D01*
X13520889Y-20993312D01*
X13715473Y-21284527D01*
X14006688Y-21479111D01*
X14350200Y-21547440D01*
X15649800Y-21547440D01*
X15740001Y-21529498D01*
X15740000Y-22134386D01*
X15652235Y-22151843D01*
X15442191Y-22292191D01*
X15301843Y-22502235D01*
X15252560Y-22750000D01*
X15252560Y-23650000D01*
X15301843Y-23897765D01*
X15442191Y-24107809D01*
X15652235Y-24248157D01*
X15900000Y-24297440D01*
X16522638Y-24297440D01*
X16572907Y-24347708D01*
X16552560Y-24450000D01*
X16552560Y-25350000D01*
X16601843Y-25597765D01*
X16738684Y-25802560D01*
X16250000Y-25802560D01*
X16002235Y-25851843D01*
X15792191Y-25992191D01*
X15651843Y-26202235D01*
X15602560Y-26450000D01*
X15602560Y-27350000D01*
X15651843Y-27597765D01*
X15742763Y-27733836D01*
X15652235Y-27751843D01*
X15442191Y-27892191D01*
X15301843Y-28102235D01*
X15252560Y-28350000D01*
X15252560Y-29250000D01*
X15301843Y-29497765D01*
X15442191Y-29707809D01*
X15475000Y-29729731D01*
X15475000Y-30050874D01*
X15632569Y-30431280D01*
X15923720Y-30722431D01*
X16304126Y-30880000D01*
X16715874Y-30880000D01*
X17096280Y-30722431D01*
X17387431Y-30431280D01*
X17545000Y-30050874D01*
X17545000Y-29716368D01*
X17557809Y-29707809D01*
X17598654Y-29646680D01*
X17740302Y-29788327D01*
X17973691Y-29885000D01*
X18414250Y-29885000D01*
X18573000Y-29726250D01*
X18573000Y-28927000D01*
X18553000Y-28927000D01*
X18553000Y-28673000D01*
X18573000Y-28673000D01*
X18573000Y-28653000D01*
X18827000Y-28653000D01*
X18827000Y-28673000D01*
X18847000Y-28673000D01*
X18847000Y-28927000D01*
X18827000Y-28927000D01*
X18827000Y-29726250D01*
X18985750Y-29885000D01*
X19415197Y-29885000D01*
X17572639Y-31727560D01*
X16500000Y-31727560D01*
X16252235Y-31776843D01*
X16042191Y-31917191D01*
X15901843Y-32127235D01*
X15852560Y-32375000D01*
X15852560Y-33625000D01*
X15901843Y-33872765D01*
X16042191Y-34082809D01*
X16252235Y-34223157D01*
X16490001Y-34270451D01*
X16490001Y-34625149D01*
X16475112Y-34700000D01*
X16490001Y-34774852D01*
X16502560Y-34837990D01*
X16502560Y-35450000D01*
X16551843Y-35697765D01*
X16692191Y-35907809D01*
X16790000Y-35973164D01*
X16790001Y-38275148D01*
X16775112Y-38350000D01*
X16834097Y-38646537D01*
X16881156Y-38716965D01*
X17002072Y-38897929D01*
X17065528Y-38940329D01*
X17415198Y-39290000D01*
X5287191Y-39290000D01*
X5519146Y-38942855D01*
X5607235Y-38500000D01*
X5547935Y-38201874D01*
X11955881Y-38201874D01*
X12157632Y-38612763D01*
X12498322Y-38900002D01*
X12923000Y-39035000D01*
X13273000Y-39035000D01*
X13273000Y-38027000D01*
X13527000Y-38027000D01*
X13527000Y-39035000D01*
X13877000Y-39035000D01*
X14301678Y-38900002D01*
X14642368Y-38612763D01*
X14844119Y-38201874D01*
X14717954Y-38027000D01*
X13527000Y-38027000D01*
X13273000Y-38027000D01*
X12082046Y-38027000D01*
X11955881Y-38201874D01*
X5547935Y-38201874D01*
X5519146Y-38057145D01*
X5268289Y-37681711D01*
X4892855Y-37430854D01*
X4561783Y-37365000D01*
X3638217Y-37365000D01*
X3307145Y-37430854D01*
X2931711Y-37681711D01*
X2680854Y-38057145D01*
X2592765Y-38500000D01*
X2680854Y-38942855D01*
X2912809Y-39290000D01*
X710000Y-39290000D01*
X710000Y-32900000D01*
X11892765Y-32900000D01*
X11980854Y-33342855D01*
X12231711Y-33718289D01*
X12526075Y-33914977D01*
X12330854Y-34207145D01*
X12265000Y-34538217D01*
X12265000Y-35461782D01*
X12317266Y-35724545D01*
X12231711Y-35781711D01*
X11980854Y-36157145D01*
X11892765Y-36600000D01*
X11980854Y-37042855D01*
X12123616Y-37256514D01*
X11955881Y-37598126D01*
X12082046Y-37773000D01*
X13273000Y-37773000D01*
X13273000Y-37753000D01*
X13527000Y-37753000D01*
X13527000Y-37773000D01*
X14717954Y-37773000D01*
X14844119Y-37598126D01*
X14676384Y-37256514D01*
X14819146Y-37042855D01*
X14907235Y-36600000D01*
X14819146Y-36157145D01*
X14568289Y-35781711D01*
X14482734Y-35724545D01*
X14535000Y-35461783D01*
X14535000Y-34538218D01*
X14469146Y-34207145D01*
X14273925Y-33914977D01*
X14568289Y-33718289D01*
X14819146Y-33342855D01*
X14907235Y-32900000D01*
X14819146Y-32457145D01*
X14568289Y-32081711D01*
X14192855Y-31830854D01*
X13861783Y-31765000D01*
X12938217Y-31765000D01*
X12607145Y-31830854D01*
X12231711Y-32081711D01*
X11980854Y-32457145D01*
X11892765Y-32900000D01*
X710000Y-32900000D01*
X710000Y-31500000D01*
X2592765Y-31500000D01*
X2680854Y-31942855D01*
X2931711Y-32318289D01*
X3307145Y-32569146D01*
X3638217Y-32635000D01*
X4561783Y-32635000D01*
X4892855Y-32569146D01*
X5268289Y-32318289D01*
X5519146Y-31942855D01*
X5607235Y-31500000D01*
X5519146Y-31057145D01*
X5268289Y-30681711D01*
X4892855Y-30430854D01*
X4561783Y-30365000D01*
X3638217Y-30365000D01*
X3307145Y-30430854D01*
X2931711Y-30681711D01*
X2680854Y-31057145D01*
X2592765Y-31500000D01*
X710000Y-31500000D01*
X710000Y-23015105D01*
X2065000Y-23015105D01*
X2065000Y-23784895D01*
X2359586Y-24496090D01*
X2903910Y-25040414D01*
X3615105Y-25335000D01*
X4384895Y-25335000D01*
X5096090Y-25040414D01*
X5640414Y-24496090D01*
X5935000Y-23784895D01*
X5935000Y-23015105D01*
X5640414Y-22303910D01*
X5096090Y-21759586D01*
X4384895Y-21465000D01*
X3615105Y-21465000D01*
X2903910Y-21759586D01*
X2359586Y-22303910D01*
X2065000Y-23015105D01*
X710000Y-23015105D01*
X710000Y-2423690D01*
X4365000Y-2423690D01*
X4365000Y-2714250D01*
X4523750Y-2873000D01*
X5473000Y-2873000D01*
X5473000Y-2073750D01*
X5314250Y-1915000D01*
X4873691Y-1915000D01*
X4640302Y-2011673D01*
X4461673Y-2190301D01*
X4365000Y-2423690D01*
X710000Y-2423690D01*
X710000Y-710000D01*
X38970671Y-710000D01*
X38965000Y-723690D01*
X38965000Y-723690D01*
G37*
X38965000Y-723690D02*
X38965000Y-1014250D01*
X39123750Y-1173000D01*
X40073000Y-1173000D01*
X40073000Y-1153000D01*
X40327000Y-1153000D01*
X40327000Y-1173000D01*
X40347000Y-1173000D01*
X40347000Y-1427000D01*
X40327000Y-1427000D01*
X40327000Y-1447000D01*
X40073000Y-1447000D01*
X40073000Y-1427000D01*
X39123750Y-1427000D01*
X38965000Y-1585750D01*
X38965000Y-1876310D01*
X39061673Y-2109699D01*
X39240302Y-2288327D01*
X39351919Y-2334560D01*
X39315000Y-2423691D01*
X39315000Y-3093044D01*
X39005874Y-2965000D01*
X38594126Y-2965000D01*
X38213720Y-3122569D01*
X38096289Y-3240000D01*
X37556573Y-3240000D01*
X37457809Y-3092191D01*
X37247765Y-2951843D01*
X37000000Y-2902560D01*
X35800000Y-2902560D01*
X35552235Y-2951843D01*
X35342191Y-3092191D01*
X35300000Y-3155334D01*
X35257809Y-3092191D01*
X35047765Y-2951843D01*
X34800000Y-2902560D01*
X33600000Y-2902560D01*
X33352235Y-2951843D01*
X33142191Y-3092191D01*
X33043427Y-3240000D01*
X32897440Y-3240000D01*
X32897440Y-3100000D01*
X32848157Y-2852235D01*
X32707809Y-2642191D01*
X32497765Y-2501843D01*
X32250000Y-2452560D01*
X30450000Y-2452560D01*
X30202235Y-2501843D01*
X29992191Y-2642191D01*
X29859942Y-2840114D01*
X29825110Y-2805282D01*
X29710553Y-2919839D01*
X29624148Y-2663357D01*
X29050664Y-2453542D01*
X28440540Y-2479161D01*
X27995852Y-2663357D01*
X27909446Y-2919841D01*
X28810000Y-3820395D01*
X28824143Y-3806253D01*
X29003748Y-3985858D01*
X28989605Y-4000000D01*
X29003748Y-4014143D01*
X28824143Y-4193748D01*
X28810000Y-4179605D01*
X27909446Y-5080159D01*
X27995852Y-5336643D01*
X28569336Y-5546458D01*
X29179460Y-5520839D01*
X29624148Y-5336643D01*
X29710553Y-5080161D01*
X29825110Y-5194718D01*
X29859942Y-5159886D01*
X29992191Y-5357809D01*
X30202235Y-5498157D01*
X30450000Y-5547440D01*
X32250000Y-5547440D01*
X32497765Y-5498157D01*
X32707809Y-5357809D01*
X32848157Y-5147765D01*
X32897440Y-4900000D01*
X32897440Y-4760000D01*
X33043427Y-4760000D01*
X33142191Y-4907809D01*
X33352235Y-5048157D01*
X33600000Y-5097440D01*
X34800000Y-5097440D01*
X35047765Y-5048157D01*
X35257809Y-4907809D01*
X35300000Y-4844666D01*
X35342191Y-4907809D01*
X35552235Y-5048157D01*
X35800000Y-5097440D01*
X37000000Y-5097440D01*
X37247765Y-5048157D01*
X37457809Y-4907809D01*
X37556573Y-4760000D01*
X38096289Y-4760000D01*
X38213720Y-4877431D01*
X38594126Y-5035000D01*
X39005874Y-5035000D01*
X39386280Y-4877431D01*
X39432843Y-4830868D01*
X39590301Y-4988327D01*
X39823690Y-5085000D01*
X40064250Y-5085000D01*
X40223000Y-4926250D01*
X40223000Y-3627000D01*
X40203000Y-3627000D01*
X40203000Y-3373000D01*
X40223000Y-3373000D01*
X40223000Y-3353000D01*
X40477000Y-3353000D01*
X40477000Y-3373000D01*
X40497000Y-3373000D01*
X40497000Y-3627000D01*
X40477000Y-3627000D01*
X40477000Y-4926250D01*
X40562531Y-5011781D01*
X40442191Y-5092191D01*
X40301843Y-5302235D01*
X40252560Y-5550000D01*
X40252560Y-5740000D01*
X39503711Y-5740000D01*
X39386280Y-5622569D01*
X39005874Y-5465000D01*
X38594126Y-5465000D01*
X38213720Y-5622569D01*
X37922569Y-5913720D01*
X37765000Y-6294126D01*
X37765000Y-6705874D01*
X37922569Y-7086280D01*
X37976289Y-7140000D01*
X37203711Y-7140000D01*
X37086280Y-7022569D01*
X36705874Y-6865000D01*
X36435000Y-6865000D01*
X36435000Y-6794126D01*
X36277431Y-6413720D01*
X35986280Y-6122569D01*
X35605874Y-5965000D01*
X35194126Y-5965000D01*
X34813720Y-6122569D01*
X34696289Y-6240000D01*
X21514802Y-6240000D01*
X20890331Y-5615530D01*
X20847929Y-5552071D01*
X20596537Y-5384096D01*
X20374852Y-5340000D01*
X20374847Y-5340000D01*
X20300000Y-5325112D01*
X20225153Y-5340000D01*
X20065614Y-5340000D01*
X20048157Y-5252235D01*
X19907809Y-5042191D01*
X19846680Y-5001346D01*
X19988327Y-4859698D01*
X20085000Y-4626309D01*
X20085000Y-4185750D01*
X19926250Y-4027000D01*
X19127000Y-4027000D01*
X19127000Y-4047000D01*
X18873000Y-4047000D01*
X18873000Y-4027000D01*
X18073750Y-4027000D01*
X17915000Y-4185750D01*
X17915000Y-4626309D01*
X18011673Y-4859698D01*
X18153320Y-5001346D01*
X18092191Y-5042191D01*
X17993427Y-5190000D01*
X16973163Y-5190000D01*
X16907809Y-5092191D01*
X16774306Y-5002987D01*
X16809698Y-4988327D01*
X16988327Y-4809699D01*
X17085000Y-4576310D01*
X17085000Y-4335750D01*
X16926250Y-4177000D01*
X15627000Y-4177000D01*
X15627000Y-4197000D01*
X15373000Y-4197000D01*
X15373000Y-4177000D01*
X14073750Y-4177000D01*
X13988219Y-4262531D01*
X13907809Y-4142191D01*
X13697765Y-4001843D01*
X13450000Y-3952560D01*
X11550000Y-3952560D01*
X11302235Y-4001843D01*
X11092191Y-4142191D01*
X10951843Y-4352235D01*
X10902560Y-4600000D01*
X10902560Y-5400000D01*
X10951843Y-5647765D01*
X11092191Y-5857809D01*
X11167242Y-5907957D01*
X10835199Y-6240000D01*
X8956573Y-6240000D01*
X8857809Y-6092191D01*
X8724306Y-6002987D01*
X8759698Y-5988327D01*
X8938327Y-5809699D01*
X9035000Y-5576310D01*
X9035000Y-5285750D01*
X8876250Y-5127000D01*
X7927000Y-5127000D01*
X7927000Y-5147000D01*
X7673000Y-5147000D01*
X7673000Y-5127000D01*
X7653000Y-5127000D01*
X7653000Y-4873000D01*
X7673000Y-4873000D01*
X7673000Y-4853000D01*
X7927000Y-4853000D01*
X7927000Y-4873000D01*
X8876250Y-4873000D01*
X9035000Y-4714250D01*
X9035000Y-4423690D01*
X8938327Y-4190301D01*
X8759698Y-4011673D01*
X8724306Y-3997013D01*
X8857809Y-3907809D01*
X8956573Y-3760000D01*
X8996289Y-3760000D01*
X9113720Y-3877431D01*
X9494126Y-4035000D01*
X9905874Y-4035000D01*
X10286280Y-3877431D01*
X10577431Y-3586280D01*
X10603356Y-3523690D01*
X13915000Y-3523690D01*
X13915000Y-3764250D01*
X14073750Y-3923000D01*
X15373000Y-3923000D01*
X15373000Y-3173750D01*
X15627000Y-3173750D01*
X15627000Y-3923000D01*
X16926250Y-3923000D01*
X17085000Y-3764250D01*
X17085000Y-3523690D01*
X16988327Y-3290301D01*
X16871717Y-3173691D01*
X17915000Y-3173691D01*
X17915000Y-3614250D01*
X18073750Y-3773000D01*
X18873000Y-3773000D01*
X18873000Y-2823750D01*
X19127000Y-2823750D01*
X19127000Y-3773000D01*
X19926250Y-3773000D01*
X19939914Y-3759336D01*
X27263542Y-3759336D01*
X27289161Y-4369460D01*
X27473357Y-4814148D01*
X27729841Y-4900554D01*
X28630395Y-4000000D01*
X27729841Y-3099446D01*
X27473357Y-3185852D01*
X27263542Y-3759336D01*
X19939914Y-3759336D01*
X20085000Y-3614250D01*
X20085000Y-3173691D01*
X19988327Y-2940302D01*
X19809699Y-2761673D01*
X19576310Y-2665000D01*
X19285750Y-2665000D01*
X19127000Y-2823750D01*
X18873000Y-2823750D01*
X18714250Y-2665000D01*
X18423690Y-2665000D01*
X18190301Y-2761673D01*
X18011673Y-2940302D01*
X17915000Y-3173691D01*
X16871717Y-3173691D01*
X16809698Y-3111673D01*
X16576309Y-3015000D01*
X15785750Y-3015000D01*
X15627000Y-3173750D01*
X15373000Y-3173750D01*
X15214250Y-3015000D01*
X14423691Y-3015000D01*
X14190302Y-3111673D01*
X14011673Y-3290301D01*
X13915000Y-3523690D01*
X10603356Y-3523690D01*
X10735000Y-3205874D01*
X10735000Y-2794126D01*
X10577431Y-2413720D01*
X10286280Y-2122569D01*
X9905874Y-1965000D01*
X9494126Y-1965000D01*
X9113720Y-2122569D01*
X8996289Y-2240000D01*
X8956573Y-2240000D01*
X8857809Y-2092191D01*
X8647765Y-1951843D01*
X8400000Y-1902560D01*
X7200000Y-1902560D01*
X6952235Y-1951843D01*
X6742191Y-2092191D01*
X6701346Y-2153320D01*
X6559698Y-2011673D01*
X6326309Y-1915000D01*
X5885750Y-1915000D01*
X5727000Y-2073750D01*
X5727000Y-2873000D01*
X5747000Y-2873000D01*
X5747000Y-3127000D01*
X5727000Y-3127000D01*
X5727000Y-3147000D01*
X5473000Y-3147000D01*
X5473000Y-3127000D01*
X4523750Y-3127000D01*
X4365000Y-3285750D01*
X4365000Y-3576310D01*
X4461673Y-3809699D01*
X4640302Y-3988327D01*
X4675694Y-4002987D01*
X4542191Y-4092191D01*
X4401843Y-4302235D01*
X4352560Y-4550000D01*
X4352560Y-5450000D01*
X4401843Y-5697765D01*
X4542191Y-5907809D01*
X4680164Y-6000000D01*
X4542191Y-6092191D01*
X4443427Y-6240000D01*
X3374846Y-6240000D01*
X3299999Y-6225112D01*
X3225152Y-6240000D01*
X3225148Y-6240000D01*
X3003463Y-6284096D01*
X2752071Y-6452071D01*
X2709671Y-6515527D01*
X2215530Y-7009669D01*
X2152071Y-7052071D01*
X1984096Y-7303464D01*
X1940000Y-7525149D01*
X1940000Y-7525153D01*
X1925112Y-7600000D01*
X1940000Y-7674847D01*
X1940001Y-13325148D01*
X1925112Y-13400000D01*
X1940001Y-13474852D01*
X1969384Y-13622569D01*
X1984097Y-13696537D01*
X2088952Y-13853463D01*
X2152072Y-13947929D01*
X2215528Y-13990329D01*
X2709670Y-14484472D01*
X2752071Y-14547929D01*
X3003463Y-14715904D01*
X3225148Y-14760000D01*
X3225152Y-14760000D01*
X3299999Y-14774888D01*
X3374846Y-14760000D01*
X4443427Y-14760000D01*
X4542191Y-14907809D01*
X4680164Y-15000000D01*
X4542191Y-15092191D01*
X4401843Y-15302235D01*
X4352560Y-15550000D01*
X4352560Y-16450000D01*
X4401843Y-16697765D01*
X4542191Y-16907809D01*
X4752235Y-17048157D01*
X4840001Y-17065615D01*
X4840000Y-19925153D01*
X4825112Y-20000000D01*
X4840000Y-20074847D01*
X4840000Y-20074851D01*
X4884096Y-20296536D01*
X5052071Y-20547929D01*
X5115530Y-20590331D01*
X7204213Y-22679015D01*
X7065000Y-23015105D01*
X7065000Y-23784895D01*
X7359586Y-24496090D01*
X7903910Y-25040414D01*
X8615105Y-25335000D01*
X9384895Y-25335000D01*
X10096090Y-25040414D01*
X10640414Y-24496090D01*
X10935000Y-23784895D01*
X10935000Y-23015105D01*
X10640414Y-22303910D01*
X10096090Y-21759586D01*
X9384895Y-21465000D01*
X8615105Y-21465000D01*
X8279015Y-21604213D01*
X6360000Y-19685199D01*
X6360000Y-17065614D01*
X6447765Y-17048157D01*
X6657809Y-16907809D01*
X6700000Y-16844666D01*
X6742191Y-16907809D01*
X6952235Y-17048157D01*
X7200000Y-17097440D01*
X8400000Y-17097440D01*
X8647765Y-17048157D01*
X8857809Y-16907809D01*
X8956573Y-16760000D01*
X9015688Y-16760000D01*
X9025853Y-16784540D01*
X9415460Y-17174147D01*
X9924506Y-17385000D01*
X10475494Y-17385000D01*
X10984540Y-17174147D01*
X11374147Y-16784540D01*
X11585000Y-16275494D01*
X11585000Y-16010001D01*
X31102150Y-16010001D01*
X31176997Y-16024889D01*
X31251844Y-16010001D01*
X31251849Y-16010001D01*
X31473534Y-15965905D01*
X31724926Y-15797930D01*
X31767328Y-15734471D01*
X32269044Y-15232755D01*
X32413720Y-15377431D01*
X32649927Y-15475271D01*
X31872639Y-16252560D01*
X30800000Y-16252560D01*
X30552235Y-16301843D01*
X30342191Y-16442191D01*
X30201843Y-16652235D01*
X30177369Y-16775274D01*
X30124235Y-16785843D01*
X29972000Y-16887564D01*
X29825495Y-16789671D01*
X29798157Y-16652235D01*
X29657809Y-16442191D01*
X29447765Y-16301843D01*
X29200000Y-16252560D01*
X27600000Y-16252560D01*
X27352235Y-16301843D01*
X27142191Y-16442191D01*
X27001843Y-16652235D01*
X26952560Y-16900000D01*
X26952560Y-17700000D01*
X27000298Y-17940000D01*
X21454848Y-17940000D01*
X21380000Y-17925112D01*
X21305152Y-17940000D01*
X21305148Y-17940000D01*
X21083463Y-17984096D01*
X20832071Y-18152071D01*
X20789671Y-18215527D01*
X20494838Y-18510360D01*
X20385330Y-18465000D01*
X19774670Y-18465000D01*
X19210493Y-18698690D01*
X18810000Y-19099183D01*
X18409507Y-18698690D01*
X17845330Y-18465000D01*
X17234670Y-18465000D01*
X16670493Y-18698690D01*
X16432401Y-18936782D01*
X16284527Y-18715473D01*
X15993312Y-18520889D01*
X15649800Y-18452560D01*
X14350200Y-18452560D01*
X14006688Y-18520889D01*
X13715473Y-18715473D01*
X13520889Y-19006688D01*
X13452560Y-19350200D01*
X13452560Y-20649800D01*
X13520889Y-20993312D01*
X13715473Y-21284527D01*
X14006688Y-21479111D01*
X14350200Y-21547440D01*
X15649800Y-21547440D01*
X15740001Y-21529498D01*
X15740000Y-22134386D01*
X15652235Y-22151843D01*
X15442191Y-22292191D01*
X15301843Y-22502235D01*
X15252560Y-22750000D01*
X15252560Y-23650000D01*
X15301843Y-23897765D01*
X15442191Y-24107809D01*
X15652235Y-24248157D01*
X15900000Y-24297440D01*
X16522638Y-24297440D01*
X16572907Y-24347708D01*
X16552560Y-24450000D01*
X16552560Y-25350000D01*
X16601843Y-25597765D01*
X16738684Y-25802560D01*
X16250000Y-25802560D01*
X16002235Y-25851843D01*
X15792191Y-25992191D01*
X15651843Y-26202235D01*
X15602560Y-26450000D01*
X15602560Y-27350000D01*
X15651843Y-27597765D01*
X15742763Y-27733836D01*
X15652235Y-27751843D01*
X15442191Y-27892191D01*
X15301843Y-28102235D01*
X15252560Y-28350000D01*
X15252560Y-29250000D01*
X15301843Y-29497765D01*
X15442191Y-29707809D01*
X15475000Y-29729731D01*
X15475000Y-30050874D01*
X15632569Y-30431280D01*
X15923720Y-30722431D01*
X16304126Y-30880000D01*
X16715874Y-30880000D01*
X17096280Y-30722431D01*
X17387431Y-30431280D01*
X17545000Y-30050874D01*
X17545000Y-29716368D01*
X17557809Y-29707809D01*
X17598654Y-29646680D01*
X17740302Y-29788327D01*
X17973691Y-29885000D01*
X18414250Y-29885000D01*
X18573000Y-29726250D01*
X18573000Y-28927000D01*
X18553000Y-28927000D01*
X18553000Y-28673000D01*
X18573000Y-28673000D01*
X18573000Y-28653000D01*
X18827000Y-28653000D01*
X18827000Y-28673000D01*
X18847000Y-28673000D01*
X18847000Y-28927000D01*
X18827000Y-28927000D01*
X18827000Y-29726250D01*
X18985750Y-29885000D01*
X19415197Y-29885000D01*
X17572639Y-31727560D01*
X16500000Y-31727560D01*
X16252235Y-31776843D01*
X16042191Y-31917191D01*
X15901843Y-32127235D01*
X15852560Y-32375000D01*
X15852560Y-33625000D01*
X15901843Y-33872765D01*
X16042191Y-34082809D01*
X16252235Y-34223157D01*
X16490001Y-34270451D01*
X16490001Y-34625149D01*
X16475112Y-34700000D01*
X16490001Y-34774852D01*
X16502560Y-34837990D01*
X16502560Y-35450000D01*
X16551843Y-35697765D01*
X16692191Y-35907809D01*
X16790000Y-35973164D01*
X16790001Y-38275148D01*
X16775112Y-38350000D01*
X16834097Y-38646537D01*
X16881156Y-38716965D01*
X17002072Y-38897929D01*
X17065528Y-38940329D01*
X17415198Y-39290000D01*
X5287191Y-39290000D01*
X5519146Y-38942855D01*
X5607235Y-38500000D01*
X5547935Y-38201874D01*
X11955881Y-38201874D01*
X12157632Y-38612763D01*
X12498322Y-38900002D01*
X12923000Y-39035000D01*
X13273000Y-39035000D01*
X13273000Y-38027000D01*
X13527000Y-38027000D01*
X13527000Y-39035000D01*
X13877000Y-39035000D01*
X14301678Y-38900002D01*
X14642368Y-38612763D01*
X14844119Y-38201874D01*
X14717954Y-38027000D01*
X13527000Y-38027000D01*
X13273000Y-38027000D01*
X12082046Y-38027000D01*
X11955881Y-38201874D01*
X5547935Y-38201874D01*
X5519146Y-38057145D01*
X5268289Y-37681711D01*
X4892855Y-37430854D01*
X4561783Y-37365000D01*
X3638217Y-37365000D01*
X3307145Y-37430854D01*
X2931711Y-37681711D01*
X2680854Y-38057145D01*
X2592765Y-38500000D01*
X2680854Y-38942855D01*
X2912809Y-39290000D01*
X710000Y-39290000D01*
X710000Y-32900000D01*
X11892765Y-32900000D01*
X11980854Y-33342855D01*
X12231711Y-33718289D01*
X12526075Y-33914977D01*
X12330854Y-34207145D01*
X12265000Y-34538217D01*
X12265000Y-35461782D01*
X12317266Y-35724545D01*
X12231711Y-35781711D01*
X11980854Y-36157145D01*
X11892765Y-36600000D01*
X11980854Y-37042855D01*
X12123616Y-37256514D01*
X11955881Y-37598126D01*
X12082046Y-37773000D01*
X13273000Y-37773000D01*
X13273000Y-37753000D01*
X13527000Y-37753000D01*
X13527000Y-37773000D01*
X14717954Y-37773000D01*
X14844119Y-37598126D01*
X14676384Y-37256514D01*
X14819146Y-37042855D01*
X14907235Y-36600000D01*
X14819146Y-36157145D01*
X14568289Y-35781711D01*
X14482734Y-35724545D01*
X14535000Y-35461783D01*
X14535000Y-34538218D01*
X14469146Y-34207145D01*
X14273925Y-33914977D01*
X14568289Y-33718289D01*
X14819146Y-33342855D01*
X14907235Y-32900000D01*
X14819146Y-32457145D01*
X14568289Y-32081711D01*
X14192855Y-31830854D01*
X13861783Y-31765000D01*
X12938217Y-31765000D01*
X12607145Y-31830854D01*
X12231711Y-32081711D01*
X11980854Y-32457145D01*
X11892765Y-32900000D01*
X710000Y-32900000D01*
X710000Y-31500000D01*
X2592765Y-31500000D01*
X2680854Y-31942855D01*
X2931711Y-32318289D01*
X3307145Y-32569146D01*
X3638217Y-32635000D01*
X4561783Y-32635000D01*
X4892855Y-32569146D01*
X5268289Y-32318289D01*
X5519146Y-31942855D01*
X5607235Y-31500000D01*
X5519146Y-31057145D01*
X5268289Y-30681711D01*
X4892855Y-30430854D01*
X4561783Y-30365000D01*
X3638217Y-30365000D01*
X3307145Y-30430854D01*
X2931711Y-30681711D01*
X2680854Y-31057145D01*
X2592765Y-31500000D01*
X710000Y-31500000D01*
X710000Y-23015105D01*
X2065000Y-23015105D01*
X2065000Y-23784895D01*
X2359586Y-24496090D01*
X2903910Y-25040414D01*
X3615105Y-25335000D01*
X4384895Y-25335000D01*
X5096090Y-25040414D01*
X5640414Y-24496090D01*
X5935000Y-23784895D01*
X5935000Y-23015105D01*
X5640414Y-22303910D01*
X5096090Y-21759586D01*
X4384895Y-21465000D01*
X3615105Y-21465000D01*
X2903910Y-21759586D01*
X2359586Y-22303910D01*
X2065000Y-23015105D01*
X710000Y-23015105D01*
X710000Y-2423690D01*
X4365000Y-2423690D01*
X4365000Y-2714250D01*
X4523750Y-2873000D01*
X5473000Y-2873000D01*
X5473000Y-2073750D01*
X5314250Y-1915000D01*
X4873691Y-1915000D01*
X4640302Y-2011673D01*
X4461673Y-2190301D01*
X4365000Y-2423690D01*
X710000Y-2423690D01*
X710000Y-710000D01*
X38970671Y-710000D01*
X38965000Y-723690D01*
G36*
X38177000Y-19173000D02*
X38197000Y-19173000D01*
X38197000Y-19427000D01*
X38177000Y-19427000D01*
X38177000Y-20151250D01*
X38335750Y-20310000D01*
X38776309Y-20310000D01*
X39009698Y-20213327D01*
X39010898Y-20212127D01*
X39102235Y-20273157D01*
X39350000Y-20322440D01*
X39572427Y-20322440D01*
X39537793Y-20357074D01*
X39365000Y-20774234D01*
X39365000Y-21225766D01*
X39537793Y-21642926D01*
X39844867Y-21950000D01*
X39537793Y-22257074D01*
X39365000Y-22674234D01*
X39365000Y-23125766D01*
X39537793Y-23542926D01*
X39572427Y-23577560D01*
X39350000Y-23577560D01*
X39102235Y-23626843D01*
X39010898Y-23687873D01*
X39009698Y-23686673D01*
X38776309Y-23590000D01*
X38335750Y-23590000D01*
X38177000Y-23748750D01*
X38177000Y-24473000D01*
X38197000Y-24473000D01*
X38197000Y-24727000D01*
X38177000Y-24727000D01*
X38177000Y-24747000D01*
X37923000Y-24747000D01*
X37923000Y-24727000D01*
X36973750Y-24727000D01*
X36815000Y-24885750D01*
X36815000Y-24940000D01*
X36803711Y-24940000D01*
X36686280Y-24822569D01*
X36305874Y-24665000D01*
X35894126Y-24665000D01*
X35513720Y-24822569D01*
X35222569Y-25113720D01*
X35065000Y-25494126D01*
X35065000Y-25905874D01*
X35222569Y-26286280D01*
X35513720Y-26577431D01*
X35894126Y-26735000D01*
X36305874Y-26735000D01*
X36478511Y-26663492D01*
X36622569Y-27011280D01*
X36913720Y-27302431D01*
X37008506Y-27341692D01*
X33865530Y-30484669D01*
X33802071Y-30527071D01*
X33694086Y-30688682D01*
X33502235Y-30726843D01*
X33292191Y-30867191D01*
X33151843Y-31077235D01*
X33102560Y-31325000D01*
X33102560Y-32075000D01*
X33151843Y-32322765D01*
X33292191Y-32532809D01*
X33502235Y-32673157D01*
X33590000Y-32690614D01*
X33590001Y-34106566D01*
X33322056Y-34159864D01*
X32781231Y-34521231D01*
X32419864Y-35062055D01*
X32325000Y-35538969D01*
X32325000Y-36461030D01*
X32419864Y-36937944D01*
X32781231Y-37478769D01*
X33322055Y-37840136D01*
X33960000Y-37967031D01*
X34597944Y-37840136D01*
X34941365Y-37610670D01*
X34961673Y-37659699D01*
X35140302Y-37838327D01*
X35373691Y-37935000D01*
X36214250Y-37935000D01*
X36373000Y-37776250D01*
X36373000Y-36127000D01*
X36627000Y-36127000D01*
X36627000Y-37776250D01*
X36785750Y-37935000D01*
X37626309Y-37935000D01*
X37859698Y-37838327D01*
X38038327Y-37659699D01*
X38135000Y-37426310D01*
X38135000Y-36285750D01*
X37976250Y-36127000D01*
X36627000Y-36127000D01*
X36373000Y-36127000D01*
X36353000Y-36127000D01*
X36353000Y-35873000D01*
X36373000Y-35873000D01*
X36373000Y-34223750D01*
X36627000Y-34223750D01*
X36627000Y-35873000D01*
X37976250Y-35873000D01*
X38135000Y-35714250D01*
X38135000Y-34573690D01*
X38038327Y-34340301D01*
X37859698Y-34161673D01*
X37626309Y-34065000D01*
X36785750Y-34065000D01*
X36627000Y-34223750D01*
X36373000Y-34223750D01*
X36214250Y-34065000D01*
X35373691Y-34065000D01*
X35140302Y-34161673D01*
X35110000Y-34191975D01*
X35110000Y-32690614D01*
X35197765Y-32673157D01*
X35289102Y-32612127D01*
X35290302Y-32613327D01*
X35523691Y-32710000D01*
X35964250Y-32710000D01*
X36123000Y-32551250D01*
X36123000Y-31827000D01*
X36377000Y-31827000D01*
X36377000Y-32551250D01*
X36535750Y-32710000D01*
X36976309Y-32710000D01*
X37209698Y-32613327D01*
X37388327Y-32434699D01*
X37485000Y-32201310D01*
X37485000Y-31985750D01*
X37326250Y-31827000D01*
X36377000Y-31827000D01*
X36123000Y-31827000D01*
X36103000Y-31827000D01*
X36103000Y-31573000D01*
X36123000Y-31573000D01*
X36123000Y-30848750D01*
X36377000Y-30848750D01*
X36377000Y-31573000D01*
X37326250Y-31573000D01*
X37485000Y-31414250D01*
X37485000Y-31198690D01*
X37388327Y-30965301D01*
X37209698Y-30786673D01*
X36976309Y-30690000D01*
X36535750Y-30690000D01*
X36377000Y-30848750D01*
X36123000Y-30848750D01*
X35964250Y-30690000D01*
X35809801Y-30690000D01*
X38639802Y-27860000D01*
X42802560Y-27860000D01*
X42802560Y-28050000D01*
X42822451Y-28150000D01*
X42802560Y-28250000D01*
X42802560Y-28750000D01*
X42816498Y-28820074D01*
X42815000Y-28823691D01*
X42815000Y-28916250D01*
X42840751Y-28942001D01*
X42851843Y-28997765D01*
X42992191Y-29207809D01*
X43167578Y-29325000D01*
X42973750Y-29325000D01*
X42815000Y-29483750D01*
X42815000Y-29576309D01*
X42911673Y-29809698D01*
X43090301Y-29988327D01*
X43323690Y-30085000D01*
X43964250Y-30085000D01*
X44123000Y-29926250D01*
X44123000Y-29397440D01*
X44377000Y-29397440D01*
X44377000Y-29926250D01*
X44535750Y-30085000D01*
X44902560Y-30085000D01*
X44902560Y-30550000D01*
X44951843Y-30797765D01*
X45092191Y-31007809D01*
X45167242Y-31057957D01*
X44185199Y-32040000D01*
X41274846Y-32040000D01*
X41199999Y-32025112D01*
X41125152Y-32040000D01*
X41125148Y-32040000D01*
X40903463Y-32084096D01*
X40652071Y-32252071D01*
X40609671Y-32315527D01*
X40115530Y-32809669D01*
X40052071Y-32852071D01*
X39884096Y-33103464D01*
X39840000Y-33325149D01*
X39840000Y-33325153D01*
X39825112Y-33400000D01*
X39840000Y-33474847D01*
X39840001Y-35531288D01*
X39635569Y-35735720D01*
X39478000Y-36116126D01*
X39478000Y-36527874D01*
X39635569Y-36908280D01*
X39926720Y-37199431D01*
X40307126Y-37357000D01*
X40718874Y-37357000D01*
X41099280Y-37199431D01*
X41390431Y-36908280D01*
X41548000Y-36527874D01*
X41548000Y-36165000D01*
X42065439Y-36165000D01*
X42592862Y-35946534D01*
X42996534Y-35542862D01*
X43043525Y-35429417D01*
X43066136Y-35484005D01*
X43312255Y-35558139D01*
X44140395Y-34730000D01*
X43312255Y-33901861D01*
X43066136Y-33975995D01*
X43045126Y-34034448D01*
X42996534Y-33917138D01*
X42639396Y-33560000D01*
X43540734Y-33560000D01*
X43491861Y-33722255D01*
X44320000Y-34550395D01*
X44334142Y-34536252D01*
X44513748Y-34715858D01*
X44499605Y-34730000D01*
X44513748Y-34744142D01*
X44334143Y-34923748D01*
X44320000Y-34909605D01*
X43491861Y-35737745D01*
X43565995Y-35983864D01*
X43607709Y-35998858D01*
X43565995Y-36016136D01*
X43491861Y-36262255D01*
X44320000Y-37090395D01*
X44334142Y-37076252D01*
X44513748Y-37255858D01*
X44499605Y-37270000D01*
X44513748Y-37284142D01*
X44334142Y-37463748D01*
X44320000Y-37449605D01*
X44305858Y-37463748D01*
X44126252Y-37284142D01*
X44140395Y-37270000D01*
X43312255Y-36441861D01*
X43066136Y-36515995D01*
X42873035Y-37053223D01*
X42900222Y-37623454D01*
X43066136Y-38024005D01*
X43312253Y-38098139D01*
X43197378Y-38213014D01*
X43224364Y-38240000D01*
X18514802Y-38240000D01*
X18372241Y-38097440D01*
X18900000Y-38097440D01*
X19147765Y-38048157D01*
X19357809Y-37907809D01*
X19456573Y-37760000D01*
X22385153Y-37760000D01*
X22460000Y-37774888D01*
X22534847Y-37760000D01*
X22534852Y-37760000D01*
X22663751Y-37734360D01*
X22822055Y-37840136D01*
X23460000Y-37967031D01*
X24097944Y-37840136D01*
X24441365Y-37610670D01*
X24461673Y-37659699D01*
X24640302Y-37838327D01*
X24873691Y-37935000D01*
X25714250Y-37935000D01*
X25873000Y-37776250D01*
X25873000Y-36127000D01*
X26127000Y-36127000D01*
X26127000Y-37776250D01*
X26285750Y-37935000D01*
X27126309Y-37935000D01*
X27359698Y-37838327D01*
X27538327Y-37659699D01*
X27635000Y-37426310D01*
X27635000Y-36285750D01*
X27476250Y-36127000D01*
X26127000Y-36127000D01*
X25873000Y-36127000D01*
X25853000Y-36127000D01*
X25853000Y-35873000D01*
X25873000Y-35873000D01*
X25873000Y-34223750D01*
X26127000Y-34223750D01*
X26127000Y-35873000D01*
X27476250Y-35873000D01*
X27635000Y-35714250D01*
X27635000Y-34573690D01*
X27538327Y-34340301D01*
X27359698Y-34161673D01*
X27126309Y-34065000D01*
X26285750Y-34065000D01*
X26127000Y-34223750D01*
X25873000Y-34223750D01*
X25714250Y-34065000D01*
X24873691Y-34065000D01*
X24640302Y-34161673D01*
X24461673Y-34340301D01*
X24441365Y-34389330D01*
X24097945Y-34159864D01*
X23460000Y-34032969D01*
X22822056Y-34159864D01*
X22281231Y-34521231D01*
X21919864Y-35062055D01*
X21825000Y-35538969D01*
X21825000Y-36240000D01*
X19456573Y-36240000D01*
X19357809Y-36092191D01*
X19237469Y-36011781D01*
X19323000Y-35926250D01*
X19323000Y-35127000D01*
X19577000Y-35127000D01*
X19577000Y-35926250D01*
X19735750Y-36085000D01*
X19976310Y-36085000D01*
X20209699Y-35988327D01*
X20388327Y-35809698D01*
X20485000Y-35576309D01*
X20485000Y-35285750D01*
X20326250Y-35127000D01*
X19577000Y-35127000D01*
X19323000Y-35127000D01*
X19303000Y-35127000D01*
X19303000Y-34873000D01*
X19323000Y-34873000D01*
X19323000Y-34853000D01*
X19577000Y-34853000D01*
X19577000Y-34873000D01*
X20326250Y-34873000D01*
X20485000Y-34714250D01*
X20485000Y-34423691D01*
X20417197Y-34260000D01*
X20626309Y-34260000D01*
X20859698Y-34163327D01*
X21038327Y-33984699D01*
X21135000Y-33751310D01*
X21135000Y-33285750D01*
X20976250Y-33127000D01*
X19877000Y-33127000D01*
X19877000Y-33147000D01*
X19623000Y-33147000D01*
X19623000Y-33127000D01*
X19603000Y-33127000D01*
X19603000Y-32873000D01*
X19623000Y-32873000D01*
X19623000Y-31898750D01*
X19877000Y-31898750D01*
X19877000Y-32873000D01*
X20976250Y-32873000D01*
X21135000Y-32714250D01*
X21135000Y-32248690D01*
X21038327Y-32015301D01*
X20859698Y-31836673D01*
X20626309Y-31740000D01*
X20035750Y-31740000D01*
X19877000Y-31898750D01*
X19623000Y-31898750D01*
X19587026Y-31862776D01*
X21134476Y-30315327D01*
X21197929Y-30272929D01*
X21240327Y-30209476D01*
X21240329Y-30209474D01*
X21324103Y-30084096D01*
X21365904Y-30021537D01*
X21410000Y-29799852D01*
X21410000Y-29799848D01*
X21424888Y-29725001D01*
X21410000Y-29650154D01*
X21410000Y-27825322D01*
X27865000Y-27825322D01*
X27865000Y-28674678D01*
X28190034Y-29459380D01*
X28790620Y-30059966D01*
X29575322Y-30385000D01*
X30424678Y-30385000D01*
X31209380Y-30059966D01*
X31809966Y-29459380D01*
X32135000Y-28674678D01*
X32135000Y-27825322D01*
X31809966Y-27040620D01*
X31209380Y-26440034D01*
X30424678Y-26115000D01*
X29575322Y-26115000D01*
X28790620Y-26440034D01*
X28190034Y-27040620D01*
X27865000Y-27825322D01*
X21410000Y-27825322D01*
X21410000Y-24190614D01*
X21497765Y-24173157D01*
X21589102Y-24112127D01*
X21590302Y-24113327D01*
X21823691Y-24210000D01*
X22264250Y-24210000D01*
X22423000Y-24051250D01*
X22423000Y-23327000D01*
X22677000Y-23327000D01*
X22677000Y-24051250D01*
X22835750Y-24210000D01*
X23276309Y-24210000D01*
X23509698Y-24113327D01*
X23688327Y-23934699D01*
X23785000Y-23701310D01*
X23785000Y-23485750D01*
X23626250Y-23327000D01*
X22677000Y-23327000D01*
X22423000Y-23327000D01*
X22403000Y-23327000D01*
X22403000Y-23073000D01*
X22423000Y-23073000D01*
X22423000Y-22348750D01*
X22677000Y-22348750D01*
X22677000Y-23073000D01*
X23626250Y-23073000D01*
X23785000Y-22914250D01*
X23785000Y-22698690D01*
X23688327Y-22465301D01*
X23509698Y-22286673D01*
X23276309Y-22190000D01*
X22835750Y-22190000D01*
X22677000Y-22348750D01*
X22423000Y-22348750D01*
X22264250Y-22190000D01*
X21823691Y-22190000D01*
X21590302Y-22286673D01*
X21589102Y-22287873D01*
X21497765Y-22226843D01*
X21410000Y-22209386D01*
X21410000Y-20800243D01*
X21615000Y-20305330D01*
X21615000Y-19694670D01*
X21569640Y-19585162D01*
X21694802Y-19460000D01*
X27076837Y-19460000D01*
X27142191Y-19557809D01*
X27352235Y-19698157D01*
X27600000Y-19747440D01*
X28578639Y-19747440D01*
X30524671Y-21693473D01*
X30567071Y-21756929D01*
X30630527Y-21799329D01*
X30818462Y-21924904D01*
X30866605Y-21934480D01*
X31040148Y-21969000D01*
X31040152Y-21969000D01*
X31115000Y-21983888D01*
X31189848Y-21969000D01*
X32746197Y-21969000D01*
X32615530Y-22099667D01*
X32552071Y-22142069D01*
X32384096Y-22393462D01*
X32340000Y-22615147D01*
X32340000Y-22615151D01*
X32325112Y-22689998D01*
X32340000Y-22764845D01*
X32340001Y-23996288D01*
X32222569Y-24113720D01*
X32065000Y-24494126D01*
X32065000Y-24905874D01*
X32222569Y-25286280D01*
X32513720Y-25577431D01*
X32894126Y-25735000D01*
X33305874Y-25735000D01*
X33686280Y-25577431D01*
X33977431Y-25286280D01*
X34135000Y-24905874D01*
X34135000Y-24494126D01*
X33977431Y-24113720D01*
X33962401Y-24098690D01*
X36815000Y-24098690D01*
X36815000Y-24314250D01*
X36973750Y-24473000D01*
X37923000Y-24473000D01*
X37923000Y-23748750D01*
X37764250Y-23590000D01*
X37323691Y-23590000D01*
X37090302Y-23686673D01*
X36911673Y-23865301D01*
X36815000Y-24098690D01*
X33962401Y-24098690D01*
X33860000Y-23996289D01*
X33860000Y-23004799D01*
X36887781Y-19977019D01*
X36911673Y-20034699D01*
X37090302Y-20213327D01*
X37323691Y-20310000D01*
X37764250Y-20310000D01*
X37923000Y-20151250D01*
X37923000Y-19427000D01*
X37903000Y-19427000D01*
X37903000Y-19173000D01*
X37923000Y-19173000D01*
X37923000Y-19153000D01*
X38177000Y-19153000D01*
X38177000Y-19173000D01*
X38177000Y-19173000D01*
G37*
X38177000Y-19173000D02*
X38197000Y-19173000D01*
X38197000Y-19427000D01*
X38177000Y-19427000D01*
X38177000Y-20151250D01*
X38335750Y-20310000D01*
X38776309Y-20310000D01*
X39009698Y-20213327D01*
X39010898Y-20212127D01*
X39102235Y-20273157D01*
X39350000Y-20322440D01*
X39572427Y-20322440D01*
X39537793Y-20357074D01*
X39365000Y-20774234D01*
X39365000Y-21225766D01*
X39537793Y-21642926D01*
X39844867Y-21950000D01*
X39537793Y-22257074D01*
X39365000Y-22674234D01*
X39365000Y-23125766D01*
X39537793Y-23542926D01*
X39572427Y-23577560D01*
X39350000Y-23577560D01*
X39102235Y-23626843D01*
X39010898Y-23687873D01*
X39009698Y-23686673D01*
X38776309Y-23590000D01*
X38335750Y-23590000D01*
X38177000Y-23748750D01*
X38177000Y-24473000D01*
X38197000Y-24473000D01*
X38197000Y-24727000D01*
X38177000Y-24727000D01*
X38177000Y-24747000D01*
X37923000Y-24747000D01*
X37923000Y-24727000D01*
X36973750Y-24727000D01*
X36815000Y-24885750D01*
X36815000Y-24940000D01*
X36803711Y-24940000D01*
X36686280Y-24822569D01*
X36305874Y-24665000D01*
X35894126Y-24665000D01*
X35513720Y-24822569D01*
X35222569Y-25113720D01*
X35065000Y-25494126D01*
X35065000Y-25905874D01*
X35222569Y-26286280D01*
X35513720Y-26577431D01*
X35894126Y-26735000D01*
X36305874Y-26735000D01*
X36478511Y-26663492D01*
X36622569Y-27011280D01*
X36913720Y-27302431D01*
X37008506Y-27341692D01*
X33865530Y-30484669D01*
X33802071Y-30527071D01*
X33694086Y-30688682D01*
X33502235Y-30726843D01*
X33292191Y-30867191D01*
X33151843Y-31077235D01*
X33102560Y-31325000D01*
X33102560Y-32075000D01*
X33151843Y-32322765D01*
X33292191Y-32532809D01*
X33502235Y-32673157D01*
X33590000Y-32690614D01*
X33590001Y-34106566D01*
X33322056Y-34159864D01*
X32781231Y-34521231D01*
X32419864Y-35062055D01*
X32325000Y-35538969D01*
X32325000Y-36461030D01*
X32419864Y-36937944D01*
X32781231Y-37478769D01*
X33322055Y-37840136D01*
X33960000Y-37967031D01*
X34597944Y-37840136D01*
X34941365Y-37610670D01*
X34961673Y-37659699D01*
X35140302Y-37838327D01*
X35373691Y-37935000D01*
X36214250Y-37935000D01*
X36373000Y-37776250D01*
X36373000Y-36127000D01*
X36627000Y-36127000D01*
X36627000Y-37776250D01*
X36785750Y-37935000D01*
X37626309Y-37935000D01*
X37859698Y-37838327D01*
X38038327Y-37659699D01*
X38135000Y-37426310D01*
X38135000Y-36285750D01*
X37976250Y-36127000D01*
X36627000Y-36127000D01*
X36373000Y-36127000D01*
X36353000Y-36127000D01*
X36353000Y-35873000D01*
X36373000Y-35873000D01*
X36373000Y-34223750D01*
X36627000Y-34223750D01*
X36627000Y-35873000D01*
X37976250Y-35873000D01*
X38135000Y-35714250D01*
X38135000Y-34573690D01*
X38038327Y-34340301D01*
X37859698Y-34161673D01*
X37626309Y-34065000D01*
X36785750Y-34065000D01*
X36627000Y-34223750D01*
X36373000Y-34223750D01*
X36214250Y-34065000D01*
X35373691Y-34065000D01*
X35140302Y-34161673D01*
X35110000Y-34191975D01*
X35110000Y-32690614D01*
X35197765Y-32673157D01*
X35289102Y-32612127D01*
X35290302Y-32613327D01*
X35523691Y-32710000D01*
X35964250Y-32710000D01*
X36123000Y-32551250D01*
X36123000Y-31827000D01*
X36377000Y-31827000D01*
X36377000Y-32551250D01*
X36535750Y-32710000D01*
X36976309Y-32710000D01*
X37209698Y-32613327D01*
X37388327Y-32434699D01*
X37485000Y-32201310D01*
X37485000Y-31985750D01*
X37326250Y-31827000D01*
X36377000Y-31827000D01*
X36123000Y-31827000D01*
X36103000Y-31827000D01*
X36103000Y-31573000D01*
X36123000Y-31573000D01*
X36123000Y-30848750D01*
X36377000Y-30848750D01*
X36377000Y-31573000D01*
X37326250Y-31573000D01*
X37485000Y-31414250D01*
X37485000Y-31198690D01*
X37388327Y-30965301D01*
X37209698Y-30786673D01*
X36976309Y-30690000D01*
X36535750Y-30690000D01*
X36377000Y-30848750D01*
X36123000Y-30848750D01*
X35964250Y-30690000D01*
X35809801Y-30690000D01*
X38639802Y-27860000D01*
X42802560Y-27860000D01*
X42802560Y-28050000D01*
X42822451Y-28150000D01*
X42802560Y-28250000D01*
X42802560Y-28750000D01*
X42816498Y-28820074D01*
X42815000Y-28823691D01*
X42815000Y-28916250D01*
X42840751Y-28942001D01*
X42851843Y-28997765D01*
X42992191Y-29207809D01*
X43167578Y-29325000D01*
X42973750Y-29325000D01*
X42815000Y-29483750D01*
X42815000Y-29576309D01*
X42911673Y-29809698D01*
X43090301Y-29988327D01*
X43323690Y-30085000D01*
X43964250Y-30085000D01*
X44123000Y-29926250D01*
X44123000Y-29397440D01*
X44377000Y-29397440D01*
X44377000Y-29926250D01*
X44535750Y-30085000D01*
X44902560Y-30085000D01*
X44902560Y-30550000D01*
X44951843Y-30797765D01*
X45092191Y-31007809D01*
X45167242Y-31057957D01*
X44185199Y-32040000D01*
X41274846Y-32040000D01*
X41199999Y-32025112D01*
X41125152Y-32040000D01*
X41125148Y-32040000D01*
X40903463Y-32084096D01*
X40652071Y-32252071D01*
X40609671Y-32315527D01*
X40115530Y-32809669D01*
X40052071Y-32852071D01*
X39884096Y-33103464D01*
X39840000Y-33325149D01*
X39840000Y-33325153D01*
X39825112Y-33400000D01*
X39840000Y-33474847D01*
X39840001Y-35531288D01*
X39635569Y-35735720D01*
X39478000Y-36116126D01*
X39478000Y-36527874D01*
X39635569Y-36908280D01*
X39926720Y-37199431D01*
X40307126Y-37357000D01*
X40718874Y-37357000D01*
X41099280Y-37199431D01*
X41390431Y-36908280D01*
X41548000Y-36527874D01*
X41548000Y-36165000D01*
X42065439Y-36165000D01*
X42592862Y-35946534D01*
X42996534Y-35542862D01*
X43043525Y-35429417D01*
X43066136Y-35484005D01*
X43312255Y-35558139D01*
X44140395Y-34730000D01*
X43312255Y-33901861D01*
X43066136Y-33975995D01*
X43045126Y-34034448D01*
X42996534Y-33917138D01*
X42639396Y-33560000D01*
X43540734Y-33560000D01*
X43491861Y-33722255D01*
X44320000Y-34550395D01*
X44334142Y-34536252D01*
X44513748Y-34715858D01*
X44499605Y-34730000D01*
X44513748Y-34744142D01*
X44334143Y-34923748D01*
X44320000Y-34909605D01*
X43491861Y-35737745D01*
X43565995Y-35983864D01*
X43607709Y-35998858D01*
X43565995Y-36016136D01*
X43491861Y-36262255D01*
X44320000Y-37090395D01*
X44334142Y-37076252D01*
X44513748Y-37255858D01*
X44499605Y-37270000D01*
X44513748Y-37284142D01*
X44334142Y-37463748D01*
X44320000Y-37449605D01*
X44305858Y-37463748D01*
X44126252Y-37284142D01*
X44140395Y-37270000D01*
X43312255Y-36441861D01*
X43066136Y-36515995D01*
X42873035Y-37053223D01*
X42900222Y-37623454D01*
X43066136Y-38024005D01*
X43312253Y-38098139D01*
X43197378Y-38213014D01*
X43224364Y-38240000D01*
X18514802Y-38240000D01*
X18372241Y-38097440D01*
X18900000Y-38097440D01*
X19147765Y-38048157D01*
X19357809Y-37907809D01*
X19456573Y-37760000D01*
X22385153Y-37760000D01*
X22460000Y-37774888D01*
X22534847Y-37760000D01*
X22534852Y-37760000D01*
X22663751Y-37734360D01*
X22822055Y-37840136D01*
X23460000Y-37967031D01*
X24097944Y-37840136D01*
X24441365Y-37610670D01*
X24461673Y-37659699D01*
X24640302Y-37838327D01*
X24873691Y-37935000D01*
X25714250Y-37935000D01*
X25873000Y-37776250D01*
X25873000Y-36127000D01*
X26127000Y-36127000D01*
X26127000Y-37776250D01*
X26285750Y-37935000D01*
X27126309Y-37935000D01*
X27359698Y-37838327D01*
X27538327Y-37659699D01*
X27635000Y-37426310D01*
X27635000Y-36285750D01*
X27476250Y-36127000D01*
X26127000Y-36127000D01*
X25873000Y-36127000D01*
X25853000Y-36127000D01*
X25853000Y-35873000D01*
X25873000Y-35873000D01*
X25873000Y-34223750D01*
X26127000Y-34223750D01*
X26127000Y-35873000D01*
X27476250Y-35873000D01*
X27635000Y-35714250D01*
X27635000Y-34573690D01*
X27538327Y-34340301D01*
X27359698Y-34161673D01*
X27126309Y-34065000D01*
X26285750Y-34065000D01*
X26127000Y-34223750D01*
X25873000Y-34223750D01*
X25714250Y-34065000D01*
X24873691Y-34065000D01*
X24640302Y-34161673D01*
X24461673Y-34340301D01*
X24441365Y-34389330D01*
X24097945Y-34159864D01*
X23460000Y-34032969D01*
X22822056Y-34159864D01*
X22281231Y-34521231D01*
X21919864Y-35062055D01*
X21825000Y-35538969D01*
X21825000Y-36240000D01*
X19456573Y-36240000D01*
X19357809Y-36092191D01*
X19237469Y-36011781D01*
X19323000Y-35926250D01*
X19323000Y-35127000D01*
X19577000Y-35127000D01*
X19577000Y-35926250D01*
X19735750Y-36085000D01*
X19976310Y-36085000D01*
X20209699Y-35988327D01*
X20388327Y-35809698D01*
X20485000Y-35576309D01*
X20485000Y-35285750D01*
X20326250Y-35127000D01*
X19577000Y-35127000D01*
X19323000Y-35127000D01*
X19303000Y-35127000D01*
X19303000Y-34873000D01*
X19323000Y-34873000D01*
X19323000Y-34853000D01*
X19577000Y-34853000D01*
X19577000Y-34873000D01*
X20326250Y-34873000D01*
X20485000Y-34714250D01*
X20485000Y-34423691D01*
X20417197Y-34260000D01*
X20626309Y-34260000D01*
X20859698Y-34163327D01*
X21038327Y-33984699D01*
X21135000Y-33751310D01*
X21135000Y-33285750D01*
X20976250Y-33127000D01*
X19877000Y-33127000D01*
X19877000Y-33147000D01*
X19623000Y-33147000D01*
X19623000Y-33127000D01*
X19603000Y-33127000D01*
X19603000Y-32873000D01*
X19623000Y-32873000D01*
X19623000Y-31898750D01*
X19877000Y-31898750D01*
X19877000Y-32873000D01*
X20976250Y-32873000D01*
X21135000Y-32714250D01*
X21135000Y-32248690D01*
X21038327Y-32015301D01*
X20859698Y-31836673D01*
X20626309Y-31740000D01*
X20035750Y-31740000D01*
X19877000Y-31898750D01*
X19623000Y-31898750D01*
X19587026Y-31862776D01*
X21134476Y-30315327D01*
X21197929Y-30272929D01*
X21240327Y-30209476D01*
X21240329Y-30209474D01*
X21324103Y-30084096D01*
X21365904Y-30021537D01*
X21410000Y-29799852D01*
X21410000Y-29799848D01*
X21424888Y-29725001D01*
X21410000Y-29650154D01*
X21410000Y-27825322D01*
X27865000Y-27825322D01*
X27865000Y-28674678D01*
X28190034Y-29459380D01*
X28790620Y-30059966D01*
X29575322Y-30385000D01*
X30424678Y-30385000D01*
X31209380Y-30059966D01*
X31809966Y-29459380D01*
X32135000Y-28674678D01*
X32135000Y-27825322D01*
X31809966Y-27040620D01*
X31209380Y-26440034D01*
X30424678Y-26115000D01*
X29575322Y-26115000D01*
X28790620Y-26440034D01*
X28190034Y-27040620D01*
X27865000Y-27825322D01*
X21410000Y-27825322D01*
X21410000Y-24190614D01*
X21497765Y-24173157D01*
X21589102Y-24112127D01*
X21590302Y-24113327D01*
X21823691Y-24210000D01*
X22264250Y-24210000D01*
X22423000Y-24051250D01*
X22423000Y-23327000D01*
X22677000Y-23327000D01*
X22677000Y-24051250D01*
X22835750Y-24210000D01*
X23276309Y-24210000D01*
X23509698Y-24113327D01*
X23688327Y-23934699D01*
X23785000Y-23701310D01*
X23785000Y-23485750D01*
X23626250Y-23327000D01*
X22677000Y-23327000D01*
X22423000Y-23327000D01*
X22403000Y-23327000D01*
X22403000Y-23073000D01*
X22423000Y-23073000D01*
X22423000Y-22348750D01*
X22677000Y-22348750D01*
X22677000Y-23073000D01*
X23626250Y-23073000D01*
X23785000Y-22914250D01*
X23785000Y-22698690D01*
X23688327Y-22465301D01*
X23509698Y-22286673D01*
X23276309Y-22190000D01*
X22835750Y-22190000D01*
X22677000Y-22348750D01*
X22423000Y-22348750D01*
X22264250Y-22190000D01*
X21823691Y-22190000D01*
X21590302Y-22286673D01*
X21589102Y-22287873D01*
X21497765Y-22226843D01*
X21410000Y-22209386D01*
X21410000Y-20800243D01*
X21615000Y-20305330D01*
X21615000Y-19694670D01*
X21569640Y-19585162D01*
X21694802Y-19460000D01*
X27076837Y-19460000D01*
X27142191Y-19557809D01*
X27352235Y-19698157D01*
X27600000Y-19747440D01*
X28578639Y-19747440D01*
X30524671Y-21693473D01*
X30567071Y-21756929D01*
X30630527Y-21799329D01*
X30818462Y-21924904D01*
X30866605Y-21934480D01*
X31040148Y-21969000D01*
X31040152Y-21969000D01*
X31115000Y-21983888D01*
X31189848Y-21969000D01*
X32746197Y-21969000D01*
X32615530Y-22099667D01*
X32552071Y-22142069D01*
X32384096Y-22393462D01*
X32340000Y-22615147D01*
X32340000Y-22615151D01*
X32325112Y-22689998D01*
X32340000Y-22764845D01*
X32340001Y-23996288D01*
X32222569Y-24113720D01*
X32065000Y-24494126D01*
X32065000Y-24905874D01*
X32222569Y-25286280D01*
X32513720Y-25577431D01*
X32894126Y-25735000D01*
X33305874Y-25735000D01*
X33686280Y-25577431D01*
X33977431Y-25286280D01*
X34135000Y-24905874D01*
X34135000Y-24494126D01*
X33977431Y-24113720D01*
X33962401Y-24098690D01*
X36815000Y-24098690D01*
X36815000Y-24314250D01*
X36973750Y-24473000D01*
X37923000Y-24473000D01*
X37923000Y-23748750D01*
X37764250Y-23590000D01*
X37323691Y-23590000D01*
X37090302Y-23686673D01*
X36911673Y-23865301D01*
X36815000Y-24098690D01*
X33962401Y-24098690D01*
X33860000Y-23996289D01*
X33860000Y-23004799D01*
X36887781Y-19977019D01*
X36911673Y-20034699D01*
X37090302Y-20213327D01*
X37323691Y-20310000D01*
X37764250Y-20310000D01*
X37923000Y-20151250D01*
X37923000Y-19427000D01*
X37903000Y-19427000D01*
X37903000Y-19173000D01*
X37923000Y-19173000D01*
X37923000Y-19153000D01*
X38177000Y-19153000D01*
X38177000Y-19173000D01*
G36*
X55927000Y-29623000D02*
X55947000Y-29623000D01*
X55947000Y-29877000D01*
X55927000Y-29877000D01*
X55927000Y-31026250D01*
X56085750Y-31185000D01*
X56376310Y-31185000D01*
X56451686Y-31153778D01*
X56405677Y-33431229D01*
X56207138Y-33513466D01*
X55803466Y-33917138D01*
X55750000Y-34046216D01*
X55696534Y-33917138D01*
X55292862Y-33513466D01*
X54960000Y-33375590D01*
X54960000Y-31197440D01*
X55150000Y-31197440D01*
X55220073Y-31183502D01*
X55223690Y-31185000D01*
X55514250Y-31185000D01*
X55673000Y-31026250D01*
X55673000Y-30910245D01*
X55748157Y-30797765D01*
X55797440Y-30550000D01*
X55797440Y-29603000D01*
X55927000Y-29603000D01*
X55927000Y-29623000D01*
X55927000Y-29623000D01*
G37*
X55927000Y-29623000D02*
X55947000Y-29623000D01*
X55947000Y-29877000D01*
X55927000Y-29877000D01*
X55927000Y-31026250D01*
X56085750Y-31185000D01*
X56376310Y-31185000D01*
X56451686Y-31153778D01*
X56405677Y-33431229D01*
X56207138Y-33513466D01*
X55803466Y-33917138D01*
X55750000Y-34046216D01*
X55696534Y-33917138D01*
X55292862Y-33513466D01*
X54960000Y-33375590D01*
X54960000Y-31197440D01*
X55150000Y-31197440D01*
X55220073Y-31183502D01*
X55223690Y-31185000D01*
X55514250Y-31185000D01*
X55673000Y-31026250D01*
X55673000Y-30910245D01*
X55748157Y-30797765D01*
X55797440Y-30550000D01*
X55797440Y-29603000D01*
X55927000Y-29603000D01*
X55927000Y-29623000D01*
G36*
X56473000Y-18855050D02*
X56376310Y-18815000D01*
X56085750Y-18815000D01*
X55927000Y-18973750D01*
X55927000Y-20123000D01*
X55947000Y-20123000D01*
X55947000Y-20377000D01*
X55927000Y-20377000D01*
X55927000Y-21526250D01*
X56085750Y-21685000D01*
X56376310Y-21685000D01*
X56473000Y-21644950D01*
X56473000Y-23373000D01*
X53000000Y-23373000D01*
X52951399Y-23382667D01*
X52910197Y-23410197D01*
X52882667Y-23451399D01*
X52873000Y-23500000D01*
X52873000Y-28302560D01*
X52550000Y-28302560D01*
X52450000Y-28322451D01*
X52350000Y-28302560D01*
X51850000Y-28302560D01*
X51750000Y-28322451D01*
X51650000Y-28302560D01*
X51150000Y-28302560D01*
X51050000Y-28322451D01*
X50950000Y-28302560D01*
X50450000Y-28302560D01*
X50350000Y-28322451D01*
X50250000Y-28302560D01*
X49750000Y-28302560D01*
X49650000Y-28322451D01*
X49550000Y-28302560D01*
X49050000Y-28302560D01*
X48950000Y-28322451D01*
X48850000Y-28302560D01*
X48350000Y-28302560D01*
X48250000Y-28322451D01*
X48150000Y-28302560D01*
X47650000Y-28302560D01*
X47550000Y-28322451D01*
X47450000Y-28302560D01*
X46950000Y-28302560D01*
X46850000Y-28322451D01*
X46750000Y-28302560D01*
X46250000Y-28302560D01*
X46150000Y-28322451D01*
X46050000Y-28302560D01*
X45697440Y-28302560D01*
X45697440Y-28250000D01*
X45677549Y-28150000D01*
X45697440Y-28050000D01*
X45697440Y-27550000D01*
X45677549Y-27450000D01*
X45697440Y-27350000D01*
X45697440Y-26850000D01*
X45677549Y-26750000D01*
X45697440Y-26650000D01*
X45697440Y-26150000D01*
X45677549Y-26050000D01*
X45697440Y-25950000D01*
X45697440Y-25450000D01*
X45677549Y-25350000D01*
X45697440Y-25250000D01*
X45697440Y-24750000D01*
X45677549Y-24650000D01*
X45697440Y-24550000D01*
X45697440Y-24050000D01*
X45677549Y-23950000D01*
X45697440Y-23850000D01*
X45697440Y-23350000D01*
X45677549Y-23250000D01*
X45697440Y-23150000D01*
X45697440Y-22650000D01*
X45677549Y-22550000D01*
X45697440Y-22450000D01*
X45697440Y-21950000D01*
X45677549Y-21850000D01*
X45697440Y-21750000D01*
X45697440Y-21366005D01*
X45755535Y-21452950D01*
X45784096Y-21596536D01*
X45952071Y-21847929D01*
X46015529Y-21890331D01*
X46309671Y-22184472D01*
X46352071Y-22247929D01*
X46603463Y-22415904D01*
X46825148Y-22460000D01*
X46825152Y-22460000D01*
X46899999Y-22474888D01*
X46974846Y-22460000D01*
X48125153Y-22460000D01*
X48200000Y-22474888D01*
X48274847Y-22460000D01*
X48274852Y-22460000D01*
X48496537Y-22415904D01*
X48747929Y-22247929D01*
X48790331Y-22184471D01*
X49084472Y-21890329D01*
X49147929Y-21847929D01*
X49248483Y-21697440D01*
X49550000Y-21697440D01*
X49650000Y-21677549D01*
X49750000Y-21697440D01*
X50250000Y-21697440D01*
X50350000Y-21677549D01*
X50450000Y-21697440D01*
X50950000Y-21697440D01*
X51050000Y-21677549D01*
X51150000Y-21697440D01*
X51650000Y-21697440D01*
X51750000Y-21677549D01*
X51850000Y-21697440D01*
X52350000Y-21697440D01*
X52450000Y-21677549D01*
X52550000Y-21697440D01*
X53050000Y-21697440D01*
X53297765Y-21648157D01*
X53507809Y-21507809D01*
X53648157Y-21297765D01*
X53697440Y-21050000D01*
X53697440Y-20535750D01*
X54715000Y-20535750D01*
X54715000Y-21176309D01*
X54811673Y-21409698D01*
X54990301Y-21588327D01*
X55223690Y-21685000D01*
X55514250Y-21685000D01*
X55673000Y-21526250D01*
X55673000Y-20377000D01*
X54873750Y-20377000D01*
X54715000Y-20535750D01*
X53697440Y-20535750D01*
X53697440Y-19877361D01*
X54251110Y-19323691D01*
X54715000Y-19323691D01*
X54715000Y-19964250D01*
X54873750Y-20123000D01*
X55673000Y-20123000D01*
X55673000Y-18973750D01*
X55514250Y-18815000D01*
X55223690Y-18815000D01*
X54990301Y-18911673D01*
X54811673Y-19090302D01*
X54715000Y-19323691D01*
X54251110Y-19323691D01*
X54931627Y-18643175D01*
X55033537Y-18622904D01*
X55284929Y-18454929D01*
X55327331Y-18391470D01*
X55983473Y-17735329D01*
X56046929Y-17692929D01*
X56106708Y-17603463D01*
X56214904Y-17441538D01*
X56228045Y-17375473D01*
X56259000Y-17219852D01*
X56259000Y-17219848D01*
X56273888Y-17145000D01*
X56259000Y-17070152D01*
X56259000Y-3873847D01*
X56273888Y-3799000D01*
X56259000Y-3724153D01*
X56259000Y-3724148D01*
X56214904Y-3502463D01*
X56046929Y-3251071D01*
X55983473Y-3208671D01*
X55190331Y-2415530D01*
X55147929Y-2352071D01*
X54986318Y-2244086D01*
X54948157Y-2052235D01*
X54807809Y-1842191D01*
X54597765Y-1701843D01*
X54350000Y-1652560D01*
X53450000Y-1652560D01*
X53202235Y-1701843D01*
X52992191Y-1842191D01*
X52851843Y-2052235D01*
X52814495Y-2240000D01*
X51906573Y-2240000D01*
X51807809Y-2092191D01*
X51597765Y-1951843D01*
X51350000Y-1902560D01*
X50550000Y-1902560D01*
X50302235Y-1951843D01*
X50092191Y-2092191D01*
X50002987Y-2225694D01*
X49988327Y-2190302D01*
X49809699Y-2011673D01*
X49576310Y-1915000D01*
X49335750Y-1915000D01*
X49177000Y-2073750D01*
X49177000Y-2873000D01*
X49197000Y-2873000D01*
X49197000Y-3127000D01*
X49177000Y-3127000D01*
X49177000Y-3926250D01*
X49262531Y-4011781D01*
X49142191Y-4092191D01*
X49043427Y-4240000D01*
X47039982Y-4240000D01*
X46907809Y-4042191D01*
X46844666Y-4000000D01*
X46907809Y-3957809D01*
X47048157Y-3747765D01*
X47097440Y-3500000D01*
X47097440Y-3285750D01*
X48015000Y-3285750D01*
X48015000Y-3576309D01*
X48111673Y-3809698D01*
X48290301Y-3988327D01*
X48523690Y-4085000D01*
X48764250Y-4085000D01*
X48923000Y-3926250D01*
X48923000Y-3127000D01*
X48173750Y-3127000D01*
X48015000Y-3285750D01*
X47097440Y-3285750D01*
X47097440Y-2423691D01*
X48015000Y-2423691D01*
X48015000Y-2714250D01*
X48173750Y-2873000D01*
X48923000Y-2873000D01*
X48923000Y-2073750D01*
X48764250Y-1915000D01*
X48523690Y-1915000D01*
X48290301Y-2011673D01*
X48111673Y-2190302D01*
X48015000Y-2423691D01*
X47097440Y-2423691D01*
X47097440Y-2300000D01*
X47048157Y-2052235D01*
X46907809Y-1842191D01*
X46697765Y-1701843D01*
X46450000Y-1652560D01*
X45550000Y-1652560D01*
X45302235Y-1701843D01*
X45092191Y-1842191D01*
X44951843Y-2052235D01*
X44934386Y-2140000D01*
X44903711Y-2140000D01*
X44813711Y-2050000D01*
X45077431Y-1786280D01*
X45235000Y-1405874D01*
X45235000Y-994126D01*
X45117311Y-710000D01*
X56473000Y-710000D01*
X56473000Y-18855050D01*
X56473000Y-18855050D01*
G37*
X56473000Y-18855050D02*
X56376310Y-18815000D01*
X56085750Y-18815000D01*
X55927000Y-18973750D01*
X55927000Y-20123000D01*
X55947000Y-20123000D01*
X55947000Y-20377000D01*
X55927000Y-20377000D01*
X55927000Y-21526250D01*
X56085750Y-21685000D01*
X56376310Y-21685000D01*
X56473000Y-21644950D01*
X56473000Y-23373000D01*
X53000000Y-23373000D01*
X52951399Y-23382667D01*
X52910197Y-23410197D01*
X52882667Y-23451399D01*
X52873000Y-23500000D01*
X52873000Y-28302560D01*
X52550000Y-28302560D01*
X52450000Y-28322451D01*
X52350000Y-28302560D01*
X51850000Y-28302560D01*
X51750000Y-28322451D01*
X51650000Y-28302560D01*
X51150000Y-28302560D01*
X51050000Y-28322451D01*
X50950000Y-28302560D01*
X50450000Y-28302560D01*
X50350000Y-28322451D01*
X50250000Y-28302560D01*
X49750000Y-28302560D01*
X49650000Y-28322451D01*
X49550000Y-28302560D01*
X49050000Y-28302560D01*
X48950000Y-28322451D01*
X48850000Y-28302560D01*
X48350000Y-28302560D01*
X48250000Y-28322451D01*
X48150000Y-28302560D01*
X47650000Y-28302560D01*
X47550000Y-28322451D01*
X47450000Y-28302560D01*
X46950000Y-28302560D01*
X46850000Y-28322451D01*
X46750000Y-28302560D01*
X46250000Y-28302560D01*
X46150000Y-28322451D01*
X46050000Y-28302560D01*
X45697440Y-28302560D01*
X45697440Y-28250000D01*
X45677549Y-28150000D01*
X45697440Y-28050000D01*
X45697440Y-27550000D01*
X45677549Y-27450000D01*
X45697440Y-27350000D01*
X45697440Y-26850000D01*
X45677549Y-26750000D01*
X45697440Y-26650000D01*
X45697440Y-26150000D01*
X45677549Y-26050000D01*
X45697440Y-25950000D01*
X45697440Y-25450000D01*
X45677549Y-25350000D01*
X45697440Y-25250000D01*
X45697440Y-24750000D01*
X45677549Y-24650000D01*
X45697440Y-24550000D01*
X45697440Y-24050000D01*
X45677549Y-23950000D01*
X45697440Y-23850000D01*
X45697440Y-23350000D01*
X45677549Y-23250000D01*
X45697440Y-23150000D01*
X45697440Y-22650000D01*
X45677549Y-22550000D01*
X45697440Y-22450000D01*
X45697440Y-21950000D01*
X45677549Y-21850000D01*
X45697440Y-21750000D01*
X45697440Y-21366005D01*
X45755535Y-21452950D01*
X45784096Y-21596536D01*
X45952071Y-21847929D01*
X46015529Y-21890331D01*
X46309671Y-22184472D01*
X46352071Y-22247929D01*
X46603463Y-22415904D01*
X46825148Y-22460000D01*
X46825152Y-22460000D01*
X46899999Y-22474888D01*
X46974846Y-22460000D01*
X48125153Y-22460000D01*
X48200000Y-22474888D01*
X48274847Y-22460000D01*
X48274852Y-22460000D01*
X48496537Y-22415904D01*
X48747929Y-22247929D01*
X48790331Y-22184471D01*
X49084472Y-21890329D01*
X49147929Y-21847929D01*
X49248483Y-21697440D01*
X49550000Y-21697440D01*
X49650000Y-21677549D01*
X49750000Y-21697440D01*
X50250000Y-21697440D01*
X50350000Y-21677549D01*
X50450000Y-21697440D01*
X50950000Y-21697440D01*
X51050000Y-21677549D01*
X51150000Y-21697440D01*
X51650000Y-21697440D01*
X51750000Y-21677549D01*
X51850000Y-21697440D01*
X52350000Y-21697440D01*
X52450000Y-21677549D01*
X52550000Y-21697440D01*
X53050000Y-21697440D01*
X53297765Y-21648157D01*
X53507809Y-21507809D01*
X53648157Y-21297765D01*
X53697440Y-21050000D01*
X53697440Y-20535750D01*
X54715000Y-20535750D01*
X54715000Y-21176309D01*
X54811673Y-21409698D01*
X54990301Y-21588327D01*
X55223690Y-21685000D01*
X55514250Y-21685000D01*
X55673000Y-21526250D01*
X55673000Y-20377000D01*
X54873750Y-20377000D01*
X54715000Y-20535750D01*
X53697440Y-20535750D01*
X53697440Y-19877361D01*
X54251110Y-19323691D01*
X54715000Y-19323691D01*
X54715000Y-19964250D01*
X54873750Y-20123000D01*
X55673000Y-20123000D01*
X55673000Y-18973750D01*
X55514250Y-18815000D01*
X55223690Y-18815000D01*
X54990301Y-18911673D01*
X54811673Y-19090302D01*
X54715000Y-19323691D01*
X54251110Y-19323691D01*
X54931627Y-18643175D01*
X55033537Y-18622904D01*
X55284929Y-18454929D01*
X55327331Y-18391470D01*
X55983473Y-17735329D01*
X56046929Y-17692929D01*
X56106708Y-17603463D01*
X56214904Y-17441538D01*
X56228045Y-17375473D01*
X56259000Y-17219852D01*
X56259000Y-17219848D01*
X56273888Y-17145000D01*
X56259000Y-17070152D01*
X56259000Y-3873847D01*
X56273888Y-3799000D01*
X56259000Y-3724153D01*
X56259000Y-3724148D01*
X56214904Y-3502463D01*
X56046929Y-3251071D01*
X55983473Y-3208671D01*
X55190331Y-2415530D01*
X55147929Y-2352071D01*
X54986318Y-2244086D01*
X54948157Y-2052235D01*
X54807809Y-1842191D01*
X54597765Y-1701843D01*
X54350000Y-1652560D01*
X53450000Y-1652560D01*
X53202235Y-1701843D01*
X52992191Y-1842191D01*
X52851843Y-2052235D01*
X52814495Y-2240000D01*
X51906573Y-2240000D01*
X51807809Y-2092191D01*
X51597765Y-1951843D01*
X51350000Y-1902560D01*
X50550000Y-1902560D01*
X50302235Y-1951843D01*
X50092191Y-2092191D01*
X50002987Y-2225694D01*
X49988327Y-2190302D01*
X49809699Y-2011673D01*
X49576310Y-1915000D01*
X49335750Y-1915000D01*
X49177000Y-2073750D01*
X49177000Y-2873000D01*
X49197000Y-2873000D01*
X49197000Y-3127000D01*
X49177000Y-3127000D01*
X49177000Y-3926250D01*
X49262531Y-4011781D01*
X49142191Y-4092191D01*
X49043427Y-4240000D01*
X47039982Y-4240000D01*
X46907809Y-4042191D01*
X46844666Y-4000000D01*
X46907809Y-3957809D01*
X47048157Y-3747765D01*
X47097440Y-3500000D01*
X47097440Y-3285750D01*
X48015000Y-3285750D01*
X48015000Y-3576309D01*
X48111673Y-3809698D01*
X48290301Y-3988327D01*
X48523690Y-4085000D01*
X48764250Y-4085000D01*
X48923000Y-3926250D01*
X48923000Y-3127000D01*
X48173750Y-3127000D01*
X48015000Y-3285750D01*
X47097440Y-3285750D01*
X47097440Y-2423691D01*
X48015000Y-2423691D01*
X48015000Y-2714250D01*
X48173750Y-2873000D01*
X48923000Y-2873000D01*
X48923000Y-2073750D01*
X48764250Y-1915000D01*
X48523690Y-1915000D01*
X48290301Y-2011673D01*
X48111673Y-2190302D01*
X48015000Y-2423691D01*
X47097440Y-2423691D01*
X47097440Y-2300000D01*
X47048157Y-2052235D01*
X46907809Y-1842191D01*
X46697765Y-1701843D01*
X46450000Y-1652560D01*
X45550000Y-1652560D01*
X45302235Y-1701843D01*
X45092191Y-1842191D01*
X44951843Y-2052235D01*
X44934386Y-2140000D01*
X44903711Y-2140000D01*
X44813711Y-2050000D01*
X45077431Y-1786280D01*
X45235000Y-1405874D01*
X45235000Y-994126D01*
X45117311Y-710000D01*
X56473000Y-710000D01*
X56473000Y-18855050D01*
G36*
X19210493Y-21301310D02*
X19774670Y-21535000D01*
X19890001Y-21535000D01*
X19890000Y-22209386D01*
X19802235Y-22226843D01*
X19725885Y-22277859D01*
X19659698Y-22211673D01*
X19426309Y-22115000D01*
X18985750Y-22115000D01*
X18827000Y-22273750D01*
X18827000Y-23073000D01*
X18847000Y-23073000D01*
X18847000Y-23327000D01*
X18827000Y-23327000D01*
X18827000Y-24126250D01*
X18985750Y-24285000D01*
X19426309Y-24285000D01*
X19659698Y-24188327D01*
X19725885Y-24122141D01*
X19802235Y-24173157D01*
X19890000Y-24190614D01*
X19890001Y-28115052D01*
X19838327Y-27990301D01*
X19659698Y-27811673D01*
X19466413Y-27731612D01*
X19488327Y-27709698D01*
X19585000Y-27476309D01*
X19585000Y-27185750D01*
X19426250Y-27027000D01*
X18677000Y-27027000D01*
X18677000Y-27047000D01*
X18423000Y-27047000D01*
X18423000Y-27027000D01*
X18403000Y-27027000D01*
X18403000Y-26773000D01*
X18423000Y-26773000D01*
X18423000Y-25973750D01*
X18677000Y-25973750D01*
X18677000Y-26773000D01*
X19426250Y-26773000D01*
X19585000Y-26614250D01*
X19585000Y-26323691D01*
X19488327Y-26090302D01*
X19309699Y-25911673D01*
X19076310Y-25815000D01*
X18835750Y-25815000D01*
X18677000Y-25973750D01*
X18423000Y-25973750D01*
X18337469Y-25888219D01*
X18457809Y-25807809D01*
X18598157Y-25597765D01*
X18647440Y-25350000D01*
X18647440Y-24450000D01*
X18598157Y-24202235D01*
X18557645Y-24141605D01*
X18573000Y-24126250D01*
X18573000Y-23327000D01*
X18553000Y-23327000D01*
X18553000Y-23073000D01*
X18573000Y-23073000D01*
X18573000Y-22273750D01*
X18414250Y-22115000D01*
X17973691Y-22115000D01*
X17740302Y-22211673D01*
X17598654Y-22353320D01*
X17557809Y-22292191D01*
X17347765Y-22151843D01*
X17260000Y-22134386D01*
X17260000Y-21535000D01*
X17845330Y-21535000D01*
X18409507Y-21301310D01*
X18810000Y-20900817D01*
X19210493Y-21301310D01*
X19210493Y-21301310D01*
G37*
X19210493Y-21301310D02*
X19774670Y-21535000D01*
X19890001Y-21535000D01*
X19890000Y-22209386D01*
X19802235Y-22226843D01*
X19725885Y-22277859D01*
X19659698Y-22211673D01*
X19426309Y-22115000D01*
X18985750Y-22115000D01*
X18827000Y-22273750D01*
X18827000Y-23073000D01*
X18847000Y-23073000D01*
X18847000Y-23327000D01*
X18827000Y-23327000D01*
X18827000Y-24126250D01*
X18985750Y-24285000D01*
X19426309Y-24285000D01*
X19659698Y-24188327D01*
X19725885Y-24122141D01*
X19802235Y-24173157D01*
X19890000Y-24190614D01*
X19890001Y-28115052D01*
X19838327Y-27990301D01*
X19659698Y-27811673D01*
X19466413Y-27731612D01*
X19488327Y-27709698D01*
X19585000Y-27476309D01*
X19585000Y-27185750D01*
X19426250Y-27027000D01*
X18677000Y-27027000D01*
X18677000Y-27047000D01*
X18423000Y-27047000D01*
X18423000Y-27027000D01*
X18403000Y-27027000D01*
X18403000Y-26773000D01*
X18423000Y-26773000D01*
X18423000Y-25973750D01*
X18677000Y-25973750D01*
X18677000Y-26773000D01*
X19426250Y-26773000D01*
X19585000Y-26614250D01*
X19585000Y-26323691D01*
X19488327Y-26090302D01*
X19309699Y-25911673D01*
X19076310Y-25815000D01*
X18835750Y-25815000D01*
X18677000Y-25973750D01*
X18423000Y-25973750D01*
X18337469Y-25888219D01*
X18457809Y-25807809D01*
X18598157Y-25597765D01*
X18647440Y-25350000D01*
X18647440Y-24450000D01*
X18598157Y-24202235D01*
X18557645Y-24141605D01*
X18573000Y-24126250D01*
X18573000Y-23327000D01*
X18553000Y-23327000D01*
X18553000Y-23073000D01*
X18573000Y-23073000D01*
X18573000Y-22273750D01*
X18414250Y-22115000D01*
X17973691Y-22115000D01*
X17740302Y-22211673D01*
X17598654Y-22353320D01*
X17557809Y-22292191D01*
X17347765Y-22151843D01*
X17260000Y-22134386D01*
X17260000Y-21535000D01*
X17845330Y-21535000D01*
X18409507Y-21301310D01*
X18810000Y-20900817D01*
X19210493Y-21301310D01*
G36*
X44951843Y-8747765D02*
X45092191Y-8957809D01*
X45155334Y-9000000D01*
X45092191Y-9042191D01*
X44951843Y-9252235D01*
X44902560Y-9500000D01*
X44902560Y-10700000D01*
X44951843Y-10947765D01*
X45092191Y-11157809D01*
X45302235Y-11298157D01*
X45550000Y-11347440D01*
X46450000Y-11347440D01*
X46697765Y-11298157D01*
X46907809Y-11157809D01*
X47048157Y-10947765D01*
X47085505Y-10760000D01*
X49043427Y-10760000D01*
X49142191Y-10907809D01*
X49352235Y-11048157D01*
X49600000Y-11097440D01*
X50400000Y-11097440D01*
X50647765Y-11048157D01*
X50857809Y-10907809D01*
X50998157Y-10697765D01*
X51047440Y-10450000D01*
X51047440Y-10385750D01*
X52815000Y-10385750D01*
X52815000Y-10826309D01*
X52911673Y-11059698D01*
X53090301Y-11238327D01*
X53323690Y-11335000D01*
X53614250Y-11335000D01*
X53773000Y-11176250D01*
X53773000Y-10227000D01*
X52973750Y-10227000D01*
X52815000Y-10385750D01*
X51047440Y-10385750D01*
X51047440Y-9550000D01*
X50998157Y-9302235D01*
X50861316Y-9097440D01*
X51350000Y-9097440D01*
X51597765Y-9048157D01*
X51807809Y-8907809D01*
X51906573Y-8760000D01*
X52860018Y-8760000D01*
X52992191Y-8957809D01*
X53053320Y-8998654D01*
X52911673Y-9140302D01*
X52815000Y-9373691D01*
X52815000Y-9814250D01*
X52973750Y-9973000D01*
X53773000Y-9973000D01*
X53773000Y-9953000D01*
X54027000Y-9953000D01*
X54027000Y-9973000D01*
X54047000Y-9973000D01*
X54047000Y-10227000D01*
X54027000Y-10227000D01*
X54027000Y-11176250D01*
X54185750Y-11335000D01*
X54231001Y-11335000D01*
X54231001Y-12915000D01*
X54185750Y-12915000D01*
X54027000Y-13073750D01*
X54027000Y-14023000D01*
X54047000Y-14023000D01*
X54047000Y-14277000D01*
X54027000Y-14277000D01*
X54027000Y-14297000D01*
X53773000Y-14297000D01*
X53773000Y-14277000D01*
X53753000Y-14277000D01*
X53753000Y-14023000D01*
X53773000Y-14023000D01*
X53773000Y-13073750D01*
X53614250Y-12915000D01*
X53398690Y-12915000D01*
X53165301Y-13011673D01*
X52986673Y-13190302D01*
X52941978Y-13298204D01*
X52797765Y-13201843D01*
X52550000Y-13152560D01*
X51250000Y-13152560D01*
X51002235Y-13201843D01*
X50792191Y-13342191D01*
X50760246Y-13390000D01*
X50739754Y-13390000D01*
X50707809Y-13342191D01*
X50497765Y-13201843D01*
X50250000Y-13152560D01*
X48950000Y-13152560D01*
X48702235Y-13201843D01*
X48558022Y-13298204D01*
X48513327Y-13190302D01*
X48334699Y-13011673D01*
X48101310Y-12915000D01*
X47885750Y-12915000D01*
X47727000Y-13073750D01*
X47727000Y-14023000D01*
X47747000Y-14023000D01*
X47747000Y-14277000D01*
X47727000Y-14277000D01*
X47727000Y-14297000D01*
X47473000Y-14297000D01*
X47473000Y-14277000D01*
X46127000Y-14277000D01*
X46127000Y-14297000D01*
X45873000Y-14297000D01*
X45873000Y-14277000D01*
X45148750Y-14277000D01*
X44990000Y-14435750D01*
X44990000Y-14876309D01*
X45086673Y-15109698D01*
X45087873Y-15110898D01*
X45026843Y-15202235D01*
X44977560Y-15450000D01*
X44977560Y-16650000D01*
X45026843Y-16897765D01*
X45167191Y-17107809D01*
X45240000Y-17156459D01*
X45240001Y-19675148D01*
X45225112Y-19750000D01*
X45243584Y-19842866D01*
X45176310Y-19815000D01*
X44535750Y-19815000D01*
X44377000Y-19973750D01*
X44377000Y-20575000D01*
X44397000Y-20575000D01*
X44397000Y-20602560D01*
X43450000Y-20602560D01*
X43202235Y-20651843D01*
X43070299Y-20740001D01*
X41620820Y-20740000D01*
X41462207Y-20357074D01*
X41428824Y-20323691D01*
X42815000Y-20323691D01*
X42815000Y-20416250D01*
X42973750Y-20575000D01*
X44123000Y-20575000D01*
X44123000Y-19973750D01*
X43964250Y-19815000D01*
X43323690Y-19815000D01*
X43090301Y-19911673D01*
X42911673Y-20090302D01*
X42815000Y-20323691D01*
X41428824Y-20323691D01*
X41260000Y-20154867D01*
X41260000Y-19924846D01*
X41274888Y-19849999D01*
X41260000Y-19775152D01*
X41260000Y-19775148D01*
X41215904Y-19553463D01*
X41197440Y-19525830D01*
X41197440Y-18925000D01*
X41148157Y-18677235D01*
X41007809Y-18467191D01*
X40797765Y-18326843D01*
X40550000Y-18277560D01*
X39350000Y-18277560D01*
X39102235Y-18326843D01*
X39010898Y-18387873D01*
X39009698Y-18386673D01*
X38776309Y-18290000D01*
X38574801Y-18290000D01*
X39104801Y-17760000D01*
X41737945Y-17760000D01*
X41812792Y-17774888D01*
X41887639Y-17760000D01*
X41887644Y-17760000D01*
X42109329Y-17715904D01*
X42360721Y-17547929D01*
X42403123Y-17484471D01*
X43024475Y-16863120D01*
X43087929Y-16820721D01*
X43130327Y-16757268D01*
X43130329Y-16757266D01*
X43255903Y-16569330D01*
X43255904Y-16569329D01*
X43300000Y-16347644D01*
X43300000Y-16347640D01*
X43300210Y-16346582D01*
X43409507Y-16301310D01*
X43841310Y-15869507D01*
X44075000Y-15305330D01*
X44075000Y-14694670D01*
X43841310Y-14130493D01*
X43409507Y-13698690D01*
X43010000Y-13533209D01*
X43010000Y-13423691D01*
X44990000Y-13423691D01*
X44990000Y-13864250D01*
X45148750Y-14023000D01*
X45873000Y-14023000D01*
X45873000Y-13073750D01*
X46127000Y-13073750D01*
X46127000Y-14023000D01*
X47473000Y-14023000D01*
X47473000Y-13073750D01*
X47314250Y-12915000D01*
X47098690Y-12915000D01*
X46865301Y-13011673D01*
X46800000Y-13076974D01*
X46734699Y-13011673D01*
X46501310Y-12915000D01*
X46285750Y-12915000D01*
X46127000Y-13073750D01*
X45873000Y-13073750D01*
X45714250Y-12915000D01*
X45498690Y-12915000D01*
X45265301Y-13011673D01*
X45086673Y-13190302D01*
X44990000Y-13423691D01*
X43010000Y-13423691D01*
X43010000Y-11690614D01*
X43097765Y-11673157D01*
X43307809Y-11532809D01*
X43448157Y-11322765D01*
X43497440Y-11075000D01*
X43497440Y-10325000D01*
X43448157Y-10077235D01*
X43307809Y-9867191D01*
X43282081Y-9850000D01*
X43307809Y-9832809D01*
X43448157Y-9622765D01*
X43497440Y-9375000D01*
X43497440Y-8660000D01*
X44934386Y-8660000D01*
X44951843Y-8747765D01*
X44951843Y-8747765D01*
G37*
X44951843Y-8747765D02*
X45092191Y-8957809D01*
X45155334Y-9000000D01*
X45092191Y-9042191D01*
X44951843Y-9252235D01*
X44902560Y-9500000D01*
X44902560Y-10700000D01*
X44951843Y-10947765D01*
X45092191Y-11157809D01*
X45302235Y-11298157D01*
X45550000Y-11347440D01*
X46450000Y-11347440D01*
X46697765Y-11298157D01*
X46907809Y-11157809D01*
X47048157Y-10947765D01*
X47085505Y-10760000D01*
X49043427Y-10760000D01*
X49142191Y-10907809D01*
X49352235Y-11048157D01*
X49600000Y-11097440D01*
X50400000Y-11097440D01*
X50647765Y-11048157D01*
X50857809Y-10907809D01*
X50998157Y-10697765D01*
X51047440Y-10450000D01*
X51047440Y-10385750D01*
X52815000Y-10385750D01*
X52815000Y-10826309D01*
X52911673Y-11059698D01*
X53090301Y-11238327D01*
X53323690Y-11335000D01*
X53614250Y-11335000D01*
X53773000Y-11176250D01*
X53773000Y-10227000D01*
X52973750Y-10227000D01*
X52815000Y-10385750D01*
X51047440Y-10385750D01*
X51047440Y-9550000D01*
X50998157Y-9302235D01*
X50861316Y-9097440D01*
X51350000Y-9097440D01*
X51597765Y-9048157D01*
X51807809Y-8907809D01*
X51906573Y-8760000D01*
X52860018Y-8760000D01*
X52992191Y-8957809D01*
X53053320Y-8998654D01*
X52911673Y-9140302D01*
X52815000Y-9373691D01*
X52815000Y-9814250D01*
X52973750Y-9973000D01*
X53773000Y-9973000D01*
X53773000Y-9953000D01*
X54027000Y-9953000D01*
X54027000Y-9973000D01*
X54047000Y-9973000D01*
X54047000Y-10227000D01*
X54027000Y-10227000D01*
X54027000Y-11176250D01*
X54185750Y-11335000D01*
X54231001Y-11335000D01*
X54231001Y-12915000D01*
X54185750Y-12915000D01*
X54027000Y-13073750D01*
X54027000Y-14023000D01*
X54047000Y-14023000D01*
X54047000Y-14277000D01*
X54027000Y-14277000D01*
X54027000Y-14297000D01*
X53773000Y-14297000D01*
X53773000Y-14277000D01*
X53753000Y-14277000D01*
X53753000Y-14023000D01*
X53773000Y-14023000D01*
X53773000Y-13073750D01*
X53614250Y-12915000D01*
X53398690Y-12915000D01*
X53165301Y-13011673D01*
X52986673Y-13190302D01*
X52941978Y-13298204D01*
X52797765Y-13201843D01*
X52550000Y-13152560D01*
X51250000Y-13152560D01*
X51002235Y-13201843D01*
X50792191Y-13342191D01*
X50760246Y-13390000D01*
X50739754Y-13390000D01*
X50707809Y-13342191D01*
X50497765Y-13201843D01*
X50250000Y-13152560D01*
X48950000Y-13152560D01*
X48702235Y-13201843D01*
X48558022Y-13298204D01*
X48513327Y-13190302D01*
X48334699Y-13011673D01*
X48101310Y-12915000D01*
X47885750Y-12915000D01*
X47727000Y-13073750D01*
X47727000Y-14023000D01*
X47747000Y-14023000D01*
X47747000Y-14277000D01*
X47727000Y-14277000D01*
X47727000Y-14297000D01*
X47473000Y-14297000D01*
X47473000Y-14277000D01*
X46127000Y-14277000D01*
X46127000Y-14297000D01*
X45873000Y-14297000D01*
X45873000Y-14277000D01*
X45148750Y-14277000D01*
X44990000Y-14435750D01*
X44990000Y-14876309D01*
X45086673Y-15109698D01*
X45087873Y-15110898D01*
X45026843Y-15202235D01*
X44977560Y-15450000D01*
X44977560Y-16650000D01*
X45026843Y-16897765D01*
X45167191Y-17107809D01*
X45240000Y-17156459D01*
X45240001Y-19675148D01*
X45225112Y-19750000D01*
X45243584Y-19842866D01*
X45176310Y-19815000D01*
X44535750Y-19815000D01*
X44377000Y-19973750D01*
X44377000Y-20575000D01*
X44397000Y-20575000D01*
X44397000Y-20602560D01*
X43450000Y-20602560D01*
X43202235Y-20651843D01*
X43070299Y-20740001D01*
X41620820Y-20740000D01*
X41462207Y-20357074D01*
X41428824Y-20323691D01*
X42815000Y-20323691D01*
X42815000Y-20416250D01*
X42973750Y-20575000D01*
X44123000Y-20575000D01*
X44123000Y-19973750D01*
X43964250Y-19815000D01*
X43323690Y-19815000D01*
X43090301Y-19911673D01*
X42911673Y-20090302D01*
X42815000Y-20323691D01*
X41428824Y-20323691D01*
X41260000Y-20154867D01*
X41260000Y-19924846D01*
X41274888Y-19849999D01*
X41260000Y-19775152D01*
X41260000Y-19775148D01*
X41215904Y-19553463D01*
X41197440Y-19525830D01*
X41197440Y-18925000D01*
X41148157Y-18677235D01*
X41007809Y-18467191D01*
X40797765Y-18326843D01*
X40550000Y-18277560D01*
X39350000Y-18277560D01*
X39102235Y-18326843D01*
X39010898Y-18387873D01*
X39009698Y-18386673D01*
X38776309Y-18290000D01*
X38574801Y-18290000D01*
X39104801Y-17760000D01*
X41737945Y-17760000D01*
X41812792Y-17774888D01*
X41887639Y-17760000D01*
X41887644Y-17760000D01*
X42109329Y-17715904D01*
X42360721Y-17547929D01*
X42403123Y-17484471D01*
X43024475Y-16863120D01*
X43087929Y-16820721D01*
X43130327Y-16757268D01*
X43130329Y-16757266D01*
X43255903Y-16569330D01*
X43255904Y-16569329D01*
X43300000Y-16347644D01*
X43300000Y-16347640D01*
X43300210Y-16346582D01*
X43409507Y-16301310D01*
X43841310Y-15869507D01*
X44075000Y-15305330D01*
X44075000Y-14694670D01*
X43841310Y-14130493D01*
X43409507Y-13698690D01*
X43010000Y-13533209D01*
X43010000Y-13423691D01*
X44990000Y-13423691D01*
X44990000Y-13864250D01*
X45148750Y-14023000D01*
X45873000Y-14023000D01*
X45873000Y-13073750D01*
X46127000Y-13073750D01*
X46127000Y-14023000D01*
X47473000Y-14023000D01*
X47473000Y-13073750D01*
X47314250Y-12915000D01*
X47098690Y-12915000D01*
X46865301Y-13011673D01*
X46800000Y-13076974D01*
X46734699Y-13011673D01*
X46501310Y-12915000D01*
X46285750Y-12915000D01*
X46127000Y-13073750D01*
X45873000Y-13073750D01*
X45714250Y-12915000D01*
X45498690Y-12915000D01*
X45265301Y-13011673D01*
X45086673Y-13190302D01*
X44990000Y-13423691D01*
X43010000Y-13423691D01*
X43010000Y-11690614D01*
X43097765Y-11673157D01*
X43307809Y-11532809D01*
X43448157Y-11322765D01*
X43497440Y-11075000D01*
X43497440Y-10325000D01*
X43448157Y-10077235D01*
X43307809Y-9867191D01*
X43282081Y-9850000D01*
X43307809Y-9832809D01*
X43448157Y-9622765D01*
X43497440Y-9375000D01*
X43497440Y-8660000D01*
X44934386Y-8660000D01*
X44951843Y-8747765D01*
G36*
X39292191Y-9832809D02*
X39323347Y-9853627D01*
X39211673Y-9965301D01*
X39115000Y-10198690D01*
X39115000Y-10414250D01*
X39273750Y-10573000D01*
X40223000Y-10573000D01*
X40223000Y-10553000D01*
X40477000Y-10553000D01*
X40477000Y-10573000D01*
X40497000Y-10573000D01*
X40497000Y-10827000D01*
X40477000Y-10827000D01*
X40477000Y-11551250D01*
X40635750Y-11710000D01*
X41076309Y-11710000D01*
X41309698Y-11613327D01*
X41310898Y-11612127D01*
X41402235Y-11673157D01*
X41490000Y-11690614D01*
X41490001Y-13840028D01*
X41357809Y-13642191D01*
X41147765Y-13501843D01*
X40900000Y-13452560D01*
X39100000Y-13452560D01*
X38852235Y-13501843D01*
X38642191Y-13642191D01*
X38501843Y-13852235D01*
X38452560Y-14100000D01*
X38452560Y-15900000D01*
X38501843Y-16147765D01*
X38581267Y-16266630D01*
X38493461Y-16284096D01*
X38466901Y-16301843D01*
X38433650Y-16324061D01*
X38414155Y-16276996D01*
X38123004Y-15985845D01*
X37742598Y-15828276D01*
X37330850Y-15828276D01*
X36950444Y-15985845D01*
X36659293Y-16276996D01*
X36501724Y-16657402D01*
X36501724Y-16823474D01*
X33876982Y-19448217D01*
X33852271Y-19388560D01*
X33561120Y-19097409D01*
X33409343Y-19034541D01*
X33047440Y-18672638D01*
X33047440Y-18300000D01*
X32998157Y-18052235D01*
X32963254Y-18000000D01*
X32998157Y-17947765D01*
X33047440Y-17700000D01*
X33047440Y-17227361D01*
X36539803Y-13735000D01*
X36705874Y-13735000D01*
X37086280Y-13577431D01*
X37377431Y-13286280D01*
X37535000Y-12905874D01*
X37535000Y-12494126D01*
X37377431Y-12113720D01*
X37113711Y-11850000D01*
X37377431Y-11586280D01*
X37535000Y-11205874D01*
X37535000Y-10985750D01*
X39115000Y-10985750D01*
X39115000Y-11201310D01*
X39211673Y-11434699D01*
X39390302Y-11613327D01*
X39623691Y-11710000D01*
X40064250Y-11710000D01*
X40223000Y-11551250D01*
X40223000Y-10827000D01*
X39273750Y-10827000D01*
X39115000Y-10985750D01*
X37535000Y-10985750D01*
X37535000Y-10794126D01*
X37377431Y-10413720D01*
X37232755Y-10269044D01*
X37741800Y-9760000D01*
X39243541Y-9760000D01*
X39292191Y-9832809D01*
X39292191Y-9832809D01*
G37*
X39292191Y-9832809D02*
X39323347Y-9853627D01*
X39211673Y-9965301D01*
X39115000Y-10198690D01*
X39115000Y-10414250D01*
X39273750Y-10573000D01*
X40223000Y-10573000D01*
X40223000Y-10553000D01*
X40477000Y-10553000D01*
X40477000Y-10573000D01*
X40497000Y-10573000D01*
X40497000Y-10827000D01*
X40477000Y-10827000D01*
X40477000Y-11551250D01*
X40635750Y-11710000D01*
X41076309Y-11710000D01*
X41309698Y-11613327D01*
X41310898Y-11612127D01*
X41402235Y-11673157D01*
X41490000Y-11690614D01*
X41490001Y-13840028D01*
X41357809Y-13642191D01*
X41147765Y-13501843D01*
X40900000Y-13452560D01*
X39100000Y-13452560D01*
X38852235Y-13501843D01*
X38642191Y-13642191D01*
X38501843Y-13852235D01*
X38452560Y-14100000D01*
X38452560Y-15900000D01*
X38501843Y-16147765D01*
X38581267Y-16266630D01*
X38493461Y-16284096D01*
X38466901Y-16301843D01*
X38433650Y-16324061D01*
X38414155Y-16276996D01*
X38123004Y-15985845D01*
X37742598Y-15828276D01*
X37330850Y-15828276D01*
X36950444Y-15985845D01*
X36659293Y-16276996D01*
X36501724Y-16657402D01*
X36501724Y-16823474D01*
X33876982Y-19448217D01*
X33852271Y-19388560D01*
X33561120Y-19097409D01*
X33409343Y-19034541D01*
X33047440Y-18672638D01*
X33047440Y-18300000D01*
X32998157Y-18052235D01*
X32963254Y-18000000D01*
X32998157Y-17947765D01*
X33047440Y-17700000D01*
X33047440Y-17227361D01*
X36539803Y-13735000D01*
X36705874Y-13735000D01*
X37086280Y-13577431D01*
X37377431Y-13286280D01*
X37535000Y-12905874D01*
X37535000Y-12494126D01*
X37377431Y-12113720D01*
X37113711Y-11850000D01*
X37377431Y-11586280D01*
X37535000Y-11205874D01*
X37535000Y-10985750D01*
X39115000Y-10985750D01*
X39115000Y-11201310D01*
X39211673Y-11434699D01*
X39390302Y-11613327D01*
X39623691Y-11710000D01*
X40064250Y-11710000D01*
X40223000Y-11551250D01*
X40223000Y-10827000D01*
X39273750Y-10827000D01*
X39115000Y-10985750D01*
X37535000Y-10985750D01*
X37535000Y-10794126D01*
X37377431Y-10413720D01*
X37232755Y-10269044D01*
X37741800Y-9760000D01*
X39243541Y-9760000D01*
X39292191Y-9832809D01*
G36*
X35465000Y-8105874D02*
X35622569Y-8486280D01*
X35913720Y-8777431D01*
X36294126Y-8935000D01*
X36417196Y-8935000D01*
X30862196Y-14490001D01*
X11024847Y-14490001D01*
X10949999Y-14475113D01*
X10875151Y-14490001D01*
X10875147Y-14490001D01*
X10701604Y-14524521D01*
X10653461Y-14534097D01*
X10532382Y-14615000D01*
X10510612Y-14629546D01*
X10475494Y-14615000D01*
X9924506Y-14615000D01*
X9415460Y-14825853D01*
X9025853Y-15215460D01*
X9015688Y-15240000D01*
X8956573Y-15240000D01*
X8857809Y-15092191D01*
X8719836Y-15000000D01*
X8857809Y-14907809D01*
X8998157Y-14697765D01*
X9001908Y-14678906D01*
X9197929Y-14547929D01*
X9240331Y-14484470D01*
X12984473Y-10740329D01*
X13047929Y-10697929D01*
X13215904Y-10446537D01*
X13260000Y-10224852D01*
X13260000Y-10224848D01*
X13274888Y-10150001D01*
X13260000Y-10075154D01*
X13260000Y-10047440D01*
X13450000Y-10047440D01*
X13697765Y-9998157D01*
X13902560Y-9861316D01*
X13902560Y-10350000D01*
X13951843Y-10597765D01*
X14092191Y-10807809D01*
X14302235Y-10948157D01*
X14550000Y-10997440D01*
X16450000Y-10997440D01*
X16697765Y-10948157D01*
X16907809Y-10807809D01*
X16973163Y-10710000D01*
X17904549Y-10710000D01*
X17951843Y-10947765D01*
X18092191Y-11157809D01*
X18302235Y-11298157D01*
X18550000Y-11347440D01*
X19450000Y-11347440D01*
X19561195Y-11325322D01*
X27865000Y-11325322D01*
X27865000Y-12174678D01*
X28190034Y-12959380D01*
X28790620Y-13559966D01*
X29575322Y-13885000D01*
X30424678Y-13885000D01*
X31209380Y-13559966D01*
X31809966Y-12959380D01*
X32135000Y-12174678D01*
X32135000Y-11325322D01*
X31809966Y-10540620D01*
X31209380Y-9940034D01*
X30424678Y-9615000D01*
X29575322Y-9615000D01*
X28790620Y-9940034D01*
X28190034Y-10540620D01*
X27865000Y-11325322D01*
X19561195Y-11325322D01*
X19697765Y-11298157D01*
X19907809Y-11157809D01*
X20048157Y-10947765D01*
X20086318Y-10755914D01*
X20247929Y-10647929D01*
X20290331Y-10584470D01*
X22114803Y-8760000D01*
X33496289Y-8760000D01*
X33613720Y-8877431D01*
X33994126Y-9035000D01*
X34405874Y-9035000D01*
X34786280Y-8877431D01*
X35077431Y-8586280D01*
X35235000Y-8205874D01*
X35235000Y-8035000D01*
X35465000Y-8035000D01*
X35465000Y-8105874D01*
X35465000Y-8105874D01*
G37*
X35465000Y-8105874D02*
X35622569Y-8486280D01*
X35913720Y-8777431D01*
X36294126Y-8935000D01*
X36417196Y-8935000D01*
X30862196Y-14490001D01*
X11024847Y-14490001D01*
X10949999Y-14475113D01*
X10875151Y-14490001D01*
X10875147Y-14490001D01*
X10701604Y-14524521D01*
X10653461Y-14534097D01*
X10532382Y-14615000D01*
X10510612Y-14629546D01*
X10475494Y-14615000D01*
X9924506Y-14615000D01*
X9415460Y-14825853D01*
X9025853Y-15215460D01*
X9015688Y-15240000D01*
X8956573Y-15240000D01*
X8857809Y-15092191D01*
X8719836Y-15000000D01*
X8857809Y-14907809D01*
X8998157Y-14697765D01*
X9001908Y-14678906D01*
X9197929Y-14547929D01*
X9240331Y-14484470D01*
X12984473Y-10740329D01*
X13047929Y-10697929D01*
X13215904Y-10446537D01*
X13260000Y-10224852D01*
X13260000Y-10224848D01*
X13274888Y-10150001D01*
X13260000Y-10075154D01*
X13260000Y-10047440D01*
X13450000Y-10047440D01*
X13697765Y-9998157D01*
X13902560Y-9861316D01*
X13902560Y-10350000D01*
X13951843Y-10597765D01*
X14092191Y-10807809D01*
X14302235Y-10948157D01*
X14550000Y-10997440D01*
X16450000Y-10997440D01*
X16697765Y-10948157D01*
X16907809Y-10807809D01*
X16973163Y-10710000D01*
X17904549Y-10710000D01*
X17951843Y-10947765D01*
X18092191Y-11157809D01*
X18302235Y-11298157D01*
X18550000Y-11347440D01*
X19450000Y-11347440D01*
X19561195Y-11325322D01*
X27865000Y-11325322D01*
X27865000Y-12174678D01*
X28190034Y-12959380D01*
X28790620Y-13559966D01*
X29575322Y-13885000D01*
X30424678Y-13885000D01*
X31209380Y-13559966D01*
X31809966Y-12959380D01*
X32135000Y-12174678D01*
X32135000Y-11325322D01*
X31809966Y-10540620D01*
X31209380Y-9940034D01*
X30424678Y-9615000D01*
X29575322Y-9615000D01*
X28790620Y-9940034D01*
X28190034Y-10540620D01*
X27865000Y-11325322D01*
X19561195Y-11325322D01*
X19697765Y-11298157D01*
X19907809Y-11157809D01*
X20048157Y-10947765D01*
X20086318Y-10755914D01*
X20247929Y-10647929D01*
X20290331Y-10584470D01*
X22114803Y-8760000D01*
X33496289Y-8760000D01*
X33613720Y-8877431D01*
X33994126Y-9035000D01*
X34405874Y-9035000D01*
X34786280Y-8877431D01*
X35077431Y-8586280D01*
X35235000Y-8205874D01*
X35235000Y-8035000D01*
X35465000Y-8035000D01*
X35465000Y-8105874D01*
G36*
X13902560Y-6350000D02*
X13951843Y-6597765D01*
X14092191Y-6807809D01*
X14302235Y-6948157D01*
X14550000Y-6997440D01*
X16450000Y-6997440D01*
X16697765Y-6948157D01*
X16907809Y-6807809D01*
X16973163Y-6710000D01*
X17904549Y-6710000D01*
X17951843Y-6947765D01*
X17986869Y-7000184D01*
X17915000Y-7173691D01*
X17915000Y-7614250D01*
X18073750Y-7773000D01*
X18873000Y-7773000D01*
X18873000Y-7753000D01*
X19127000Y-7753000D01*
X19127000Y-7773000D01*
X19926250Y-7773000D01*
X20085000Y-7614250D01*
X20085000Y-7173691D01*
X20013131Y-7000184D01*
X20048157Y-6947765D01*
X20052273Y-6927074D01*
X20609671Y-7484473D01*
X20652071Y-7547929D01*
X20903463Y-7715904D01*
X20991735Y-7733462D01*
X20075179Y-8650019D01*
X20085000Y-8626309D01*
X20085000Y-8185750D01*
X19926250Y-8027000D01*
X19127000Y-8027000D01*
X19127000Y-8047000D01*
X18873000Y-8047000D01*
X18873000Y-8027000D01*
X18073750Y-8027000D01*
X17915000Y-8185750D01*
X17915000Y-8626309D01*
X18011673Y-8859698D01*
X18153320Y-9001346D01*
X18092191Y-9042191D01*
X17993427Y-9190000D01*
X16973163Y-9190000D01*
X16907809Y-9092191D01*
X16774306Y-9002987D01*
X16809698Y-8988327D01*
X16988327Y-8809699D01*
X17085000Y-8576310D01*
X17085000Y-8335750D01*
X16926250Y-8177000D01*
X15627000Y-8177000D01*
X15627000Y-8197000D01*
X15373000Y-8197000D01*
X15373000Y-8177000D01*
X14073750Y-8177000D01*
X13988219Y-8262531D01*
X13907809Y-8142191D01*
X13697765Y-8001843D01*
X13450000Y-7952560D01*
X11550000Y-7952560D01*
X11302235Y-8001843D01*
X11092191Y-8142191D01*
X10951843Y-8352235D01*
X10902560Y-8600000D01*
X10902560Y-9400000D01*
X10951843Y-9647765D01*
X11092191Y-9857809D01*
X11302235Y-9998157D01*
X11531448Y-10043750D01*
X10989916Y-10585283D01*
X10877431Y-10313720D01*
X10586280Y-10022569D01*
X10205874Y-9865000D01*
X9794126Y-9865000D01*
X9413720Y-10022569D01*
X9122569Y-10313720D01*
X8965000Y-10694126D01*
X8965000Y-10860198D01*
X8585199Y-11240000D01*
X8435000Y-11240000D01*
X8435000Y-11223691D01*
X8338327Y-10990302D01*
X8273025Y-10925000D01*
X8276250Y-10925000D01*
X8435000Y-10766250D01*
X8435000Y-10723691D01*
X8338327Y-10490302D01*
X8159699Y-10311673D01*
X8034949Y-10260000D01*
X8077002Y-10260000D01*
X8077002Y-10101252D01*
X8235750Y-10260000D01*
X8826309Y-10260000D01*
X9059698Y-10163327D01*
X9238327Y-9984699D01*
X9335000Y-9751310D01*
X9335000Y-9285750D01*
X9176250Y-9127000D01*
X8077000Y-9127000D01*
X8077000Y-9147000D01*
X7823000Y-9147000D01*
X7823000Y-9127000D01*
X7803000Y-9127000D01*
X7803000Y-8873000D01*
X7823000Y-8873000D01*
X7823000Y-8853000D01*
X8077000Y-8853000D01*
X8077000Y-8873000D01*
X9176250Y-8873000D01*
X9335000Y-8714250D01*
X9335000Y-8248690D01*
X9238327Y-8015301D01*
X9059698Y-7836673D01*
X8938802Y-7786596D01*
X8956573Y-7760000D01*
X11075153Y-7760000D01*
X11150000Y-7774888D01*
X11224847Y-7760000D01*
X11224852Y-7760000D01*
X11446537Y-7715904D01*
X11697929Y-7547929D01*
X11714125Y-7523690D01*
X13915000Y-7523690D01*
X13915000Y-7764250D01*
X14073750Y-7923000D01*
X15373000Y-7923000D01*
X15373000Y-7173750D01*
X15627000Y-7173750D01*
X15627000Y-7923000D01*
X16926250Y-7923000D01*
X17085000Y-7764250D01*
X17085000Y-7523690D01*
X16988327Y-7290301D01*
X16809698Y-7111673D01*
X16576309Y-7015000D01*
X15785750Y-7015000D01*
X15627000Y-7173750D01*
X15373000Y-7173750D01*
X15214250Y-7015000D01*
X14423691Y-7015000D01*
X14190302Y-7111673D01*
X14011673Y-7290301D01*
X13915000Y-7523690D01*
X11714125Y-7523690D01*
X11740331Y-7484470D01*
X12984476Y-6240327D01*
X13047929Y-6197929D01*
X13090327Y-6134476D01*
X13090329Y-6134474D01*
X13148483Y-6047440D01*
X13450000Y-6047440D01*
X13697765Y-5998157D01*
X13902560Y-5861316D01*
X13902560Y-6350000D01*
X13902560Y-6350000D01*
G37*
X13902560Y-6350000D02*
X13951843Y-6597765D01*
X14092191Y-6807809D01*
X14302235Y-6948157D01*
X14550000Y-6997440D01*
X16450000Y-6997440D01*
X16697765Y-6948157D01*
X16907809Y-6807809D01*
X16973163Y-6710000D01*
X17904549Y-6710000D01*
X17951843Y-6947765D01*
X17986869Y-7000184D01*
X17915000Y-7173691D01*
X17915000Y-7614250D01*
X18073750Y-7773000D01*
X18873000Y-7773000D01*
X18873000Y-7753000D01*
X19127000Y-7753000D01*
X19127000Y-7773000D01*
X19926250Y-7773000D01*
X20085000Y-7614250D01*
X20085000Y-7173691D01*
X20013131Y-7000184D01*
X20048157Y-6947765D01*
X20052273Y-6927074D01*
X20609671Y-7484473D01*
X20652071Y-7547929D01*
X20903463Y-7715904D01*
X20991735Y-7733462D01*
X20075179Y-8650019D01*
X20085000Y-8626309D01*
X20085000Y-8185750D01*
X19926250Y-8027000D01*
X19127000Y-8027000D01*
X19127000Y-8047000D01*
X18873000Y-8047000D01*
X18873000Y-8027000D01*
X18073750Y-8027000D01*
X17915000Y-8185750D01*
X17915000Y-8626309D01*
X18011673Y-8859698D01*
X18153320Y-9001346D01*
X18092191Y-9042191D01*
X17993427Y-9190000D01*
X16973163Y-9190000D01*
X16907809Y-9092191D01*
X16774306Y-9002987D01*
X16809698Y-8988327D01*
X16988327Y-8809699D01*
X17085000Y-8576310D01*
X17085000Y-8335750D01*
X16926250Y-8177000D01*
X15627000Y-8177000D01*
X15627000Y-8197000D01*
X15373000Y-8197000D01*
X15373000Y-8177000D01*
X14073750Y-8177000D01*
X13988219Y-8262531D01*
X13907809Y-8142191D01*
X13697765Y-8001843D01*
X13450000Y-7952560D01*
X11550000Y-7952560D01*
X11302235Y-8001843D01*
X11092191Y-8142191D01*
X10951843Y-8352235D01*
X10902560Y-8600000D01*
X10902560Y-9400000D01*
X10951843Y-9647765D01*
X11092191Y-9857809D01*
X11302235Y-9998157D01*
X11531448Y-10043750D01*
X10989916Y-10585283D01*
X10877431Y-10313720D01*
X10586280Y-10022569D01*
X10205874Y-9865000D01*
X9794126Y-9865000D01*
X9413720Y-10022569D01*
X9122569Y-10313720D01*
X8965000Y-10694126D01*
X8965000Y-10860198D01*
X8585199Y-11240000D01*
X8435000Y-11240000D01*
X8435000Y-11223691D01*
X8338327Y-10990302D01*
X8273025Y-10925000D01*
X8276250Y-10925000D01*
X8435000Y-10766250D01*
X8435000Y-10723691D01*
X8338327Y-10490302D01*
X8159699Y-10311673D01*
X8034949Y-10260000D01*
X8077002Y-10260000D01*
X8077002Y-10101252D01*
X8235750Y-10260000D01*
X8826309Y-10260000D01*
X9059698Y-10163327D01*
X9238327Y-9984699D01*
X9335000Y-9751310D01*
X9335000Y-9285750D01*
X9176250Y-9127000D01*
X8077000Y-9127000D01*
X8077000Y-9147000D01*
X7823000Y-9147000D01*
X7823000Y-9127000D01*
X7803000Y-9127000D01*
X7803000Y-8873000D01*
X7823000Y-8873000D01*
X7823000Y-8853000D01*
X8077000Y-8853000D01*
X8077000Y-8873000D01*
X9176250Y-8873000D01*
X9335000Y-8714250D01*
X9335000Y-8248690D01*
X9238327Y-8015301D01*
X9059698Y-7836673D01*
X8938802Y-7786596D01*
X8956573Y-7760000D01*
X11075153Y-7760000D01*
X11150000Y-7774888D01*
X11224847Y-7760000D01*
X11224852Y-7760000D01*
X11446537Y-7715904D01*
X11697929Y-7547929D01*
X11714125Y-7523690D01*
X13915000Y-7523690D01*
X13915000Y-7764250D01*
X14073750Y-7923000D01*
X15373000Y-7923000D01*
X15373000Y-7173750D01*
X15627000Y-7173750D01*
X15627000Y-7923000D01*
X16926250Y-7923000D01*
X17085000Y-7764250D01*
X17085000Y-7523690D01*
X16988327Y-7290301D01*
X16809698Y-7111673D01*
X16576309Y-7015000D01*
X15785750Y-7015000D01*
X15627000Y-7173750D01*
X15373000Y-7173750D01*
X15214250Y-7015000D01*
X14423691Y-7015000D01*
X14190302Y-7111673D01*
X14011673Y-7290301D01*
X13915000Y-7523690D01*
X11714125Y-7523690D01*
X11740331Y-7484470D01*
X12984476Y-6240327D01*
X13047929Y-6197929D01*
X13090327Y-6134476D01*
X13090329Y-6134474D01*
X13148483Y-6047440D01*
X13450000Y-6047440D01*
X13697765Y-5998157D01*
X13902560Y-5861316D01*
X13902560Y-6350000D01*
G36*
X43322569Y-3486280D02*
X43613720Y-3777431D01*
X43994126Y-3935000D01*
X44405874Y-3935000D01*
X44786280Y-3777431D01*
X44903711Y-3660000D01*
X44934386Y-3660000D01*
X44951843Y-3747765D01*
X45092191Y-3957809D01*
X45155334Y-4000000D01*
X45092191Y-4042191D01*
X44951843Y-4252235D01*
X44902560Y-4500000D01*
X44902560Y-5700000D01*
X44951843Y-5947765D01*
X45092191Y-6157809D01*
X45302235Y-6298157D01*
X45550000Y-6347440D01*
X46450000Y-6347440D01*
X46697765Y-6298157D01*
X46907809Y-6157809D01*
X47048157Y-5947765D01*
X47085505Y-5760000D01*
X49043427Y-5760000D01*
X49142191Y-5907809D01*
X49352235Y-6048157D01*
X49600000Y-6097440D01*
X50400000Y-6097440D01*
X50647765Y-6048157D01*
X50857809Y-5907809D01*
X50998157Y-5697765D01*
X51047440Y-5450000D01*
X51047440Y-5385750D01*
X52815000Y-5385750D01*
X52815000Y-5826309D01*
X52911673Y-6059698D01*
X53090301Y-6238327D01*
X53323690Y-6335000D01*
X53614250Y-6335000D01*
X53773000Y-6176250D01*
X53773000Y-5227000D01*
X52973750Y-5227000D01*
X52815000Y-5385750D01*
X51047440Y-5385750D01*
X51047440Y-4550000D01*
X50998157Y-4302235D01*
X50861316Y-4097440D01*
X51350000Y-4097440D01*
X51597765Y-4048157D01*
X51807809Y-3907809D01*
X51906573Y-3760000D01*
X52860018Y-3760000D01*
X52992191Y-3957809D01*
X53053320Y-3998654D01*
X52911673Y-4140302D01*
X52815000Y-4373691D01*
X52815000Y-4814250D01*
X52973750Y-4973000D01*
X53773000Y-4973000D01*
X53773000Y-4953000D01*
X54027000Y-4953000D01*
X54027000Y-4973000D01*
X54047000Y-4973000D01*
X54047000Y-5227000D01*
X54027000Y-5227000D01*
X54027000Y-6176250D01*
X54185750Y-6335000D01*
X54476310Y-6335000D01*
X54709699Y-6238327D01*
X54739001Y-6209025D01*
X54739001Y-6796214D01*
X54597765Y-6701843D01*
X54350000Y-6652560D01*
X53450000Y-6652560D01*
X53202235Y-6701843D01*
X52992191Y-6842191D01*
X52851843Y-7052235D01*
X52814495Y-7240000D01*
X51906573Y-7240000D01*
X51807809Y-7092191D01*
X51597765Y-6951843D01*
X51350000Y-6902560D01*
X50550000Y-6902560D01*
X50302235Y-6951843D01*
X50092191Y-7092191D01*
X50002987Y-7225694D01*
X49988327Y-7190302D01*
X49809699Y-7011673D01*
X49576310Y-6915000D01*
X49335750Y-6915000D01*
X49177000Y-7073750D01*
X49177000Y-7873000D01*
X49197000Y-7873000D01*
X49197000Y-8127000D01*
X49177000Y-8127000D01*
X49177000Y-8926250D01*
X49262531Y-9011781D01*
X49142191Y-9092191D01*
X49043427Y-9240000D01*
X47039982Y-9240000D01*
X46907809Y-9042191D01*
X46844666Y-9000000D01*
X46907809Y-8957809D01*
X47048157Y-8747765D01*
X47097440Y-8500000D01*
X47097440Y-8285750D01*
X48015000Y-8285750D01*
X48015000Y-8576309D01*
X48111673Y-8809698D01*
X48290301Y-8988327D01*
X48523690Y-9085000D01*
X48764250Y-9085000D01*
X48923000Y-8926250D01*
X48923000Y-8127000D01*
X48173750Y-8127000D01*
X48015000Y-8285750D01*
X47097440Y-8285750D01*
X47097440Y-7423691D01*
X48015000Y-7423691D01*
X48015000Y-7714250D01*
X48173750Y-7873000D01*
X48923000Y-7873000D01*
X48923000Y-7073750D01*
X48764250Y-6915000D01*
X48523690Y-6915000D01*
X48290301Y-7011673D01*
X48111673Y-7190302D01*
X48015000Y-7423691D01*
X47097440Y-7423691D01*
X47097440Y-7300000D01*
X47048157Y-7052235D01*
X46907809Y-6842191D01*
X46697765Y-6701843D01*
X46450000Y-6652560D01*
X45550000Y-6652560D01*
X45302235Y-6701843D01*
X45092191Y-6842191D01*
X44951843Y-7052235D01*
X44934386Y-7140000D01*
X42347440Y-7140000D01*
X42347440Y-5550000D01*
X42298157Y-5302235D01*
X42161316Y-5097440D01*
X42650000Y-5097440D01*
X42897765Y-5048157D01*
X43107809Y-4907809D01*
X43248157Y-4697765D01*
X43297440Y-4450000D01*
X43297440Y-3425613D01*
X43322569Y-3486280D01*
X43322569Y-3486280D01*
G37*
X43322569Y-3486280D02*
X43613720Y-3777431D01*
X43994126Y-3935000D01*
X44405874Y-3935000D01*
X44786280Y-3777431D01*
X44903711Y-3660000D01*
X44934386Y-3660000D01*
X44951843Y-3747765D01*
X45092191Y-3957809D01*
X45155334Y-4000000D01*
X45092191Y-4042191D01*
X44951843Y-4252235D01*
X44902560Y-4500000D01*
X44902560Y-5700000D01*
X44951843Y-5947765D01*
X45092191Y-6157809D01*
X45302235Y-6298157D01*
X45550000Y-6347440D01*
X46450000Y-6347440D01*
X46697765Y-6298157D01*
X46907809Y-6157809D01*
X47048157Y-5947765D01*
X47085505Y-5760000D01*
X49043427Y-5760000D01*
X49142191Y-5907809D01*
X49352235Y-6048157D01*
X49600000Y-6097440D01*
X50400000Y-6097440D01*
X50647765Y-6048157D01*
X50857809Y-5907809D01*
X50998157Y-5697765D01*
X51047440Y-5450000D01*
X51047440Y-5385750D01*
X52815000Y-5385750D01*
X52815000Y-5826309D01*
X52911673Y-6059698D01*
X53090301Y-6238327D01*
X53323690Y-6335000D01*
X53614250Y-6335000D01*
X53773000Y-6176250D01*
X53773000Y-5227000D01*
X52973750Y-5227000D01*
X52815000Y-5385750D01*
X51047440Y-5385750D01*
X51047440Y-4550000D01*
X50998157Y-4302235D01*
X50861316Y-4097440D01*
X51350000Y-4097440D01*
X51597765Y-4048157D01*
X51807809Y-3907809D01*
X51906573Y-3760000D01*
X52860018Y-3760000D01*
X52992191Y-3957809D01*
X53053320Y-3998654D01*
X52911673Y-4140302D01*
X52815000Y-4373691D01*
X52815000Y-4814250D01*
X52973750Y-4973000D01*
X53773000Y-4973000D01*
X53773000Y-4953000D01*
X54027000Y-4953000D01*
X54027000Y-4973000D01*
X54047000Y-4973000D01*
X54047000Y-5227000D01*
X54027000Y-5227000D01*
X54027000Y-6176250D01*
X54185750Y-6335000D01*
X54476310Y-6335000D01*
X54709699Y-6238327D01*
X54739001Y-6209025D01*
X54739001Y-6796214D01*
X54597765Y-6701843D01*
X54350000Y-6652560D01*
X53450000Y-6652560D01*
X53202235Y-6701843D01*
X52992191Y-6842191D01*
X52851843Y-7052235D01*
X52814495Y-7240000D01*
X51906573Y-7240000D01*
X51807809Y-7092191D01*
X51597765Y-6951843D01*
X51350000Y-6902560D01*
X50550000Y-6902560D01*
X50302235Y-6951843D01*
X50092191Y-7092191D01*
X50002987Y-7225694D01*
X49988327Y-7190302D01*
X49809699Y-7011673D01*
X49576310Y-6915000D01*
X49335750Y-6915000D01*
X49177000Y-7073750D01*
X49177000Y-7873000D01*
X49197000Y-7873000D01*
X49197000Y-8127000D01*
X49177000Y-8127000D01*
X49177000Y-8926250D01*
X49262531Y-9011781D01*
X49142191Y-9092191D01*
X49043427Y-9240000D01*
X47039982Y-9240000D01*
X46907809Y-9042191D01*
X46844666Y-9000000D01*
X46907809Y-8957809D01*
X47048157Y-8747765D01*
X47097440Y-8500000D01*
X47097440Y-8285750D01*
X48015000Y-8285750D01*
X48015000Y-8576309D01*
X48111673Y-8809698D01*
X48290301Y-8988327D01*
X48523690Y-9085000D01*
X48764250Y-9085000D01*
X48923000Y-8926250D01*
X48923000Y-8127000D01*
X48173750Y-8127000D01*
X48015000Y-8285750D01*
X47097440Y-8285750D01*
X47097440Y-7423691D01*
X48015000Y-7423691D01*
X48015000Y-7714250D01*
X48173750Y-7873000D01*
X48923000Y-7873000D01*
X48923000Y-7073750D01*
X48764250Y-6915000D01*
X48523690Y-6915000D01*
X48290301Y-7011673D01*
X48111673Y-7190302D01*
X48015000Y-7423691D01*
X47097440Y-7423691D01*
X47097440Y-7300000D01*
X47048157Y-7052235D01*
X46907809Y-6842191D01*
X46697765Y-6701843D01*
X46450000Y-6652560D01*
X45550000Y-6652560D01*
X45302235Y-6701843D01*
X45092191Y-6842191D01*
X44951843Y-7052235D01*
X44934386Y-7140000D01*
X42347440Y-7140000D01*
X42347440Y-5550000D01*
X42298157Y-5302235D01*
X42161316Y-5097440D01*
X42650000Y-5097440D01*
X42897765Y-5048157D01*
X43107809Y-4907809D01*
X43248157Y-4697765D01*
X43297440Y-4450000D01*
X43297440Y-3425613D01*
X43322569Y-3486280D01*
G36*
X50088684Y-3902560D02*
X49895466Y-3902560D01*
X49988327Y-3809698D01*
X50002987Y-3774306D01*
X50088684Y-3902560D01*
X50088684Y-3902560D01*
G37*
X50088684Y-3902560D02*
X49895466Y-3902560D01*
X49988327Y-3809698D01*
X50002987Y-3774306D01*
X50088684Y-3902560D01*
G04 #@! TD*
M02*
