G04 #@! TF.GenerationSoftware,KiCad,Pcbnew,5.0.2-bee76a0~70~ubuntu16.04.1*
G04 #@! TF.CreationDate,2019-02-05T22:35:56+05:30*
G04 #@! TF.ProjectId,senseBe_rev1,73656e73-6542-4655-9f72-6576312e6b69,rev?*
G04 #@! TF.SameCoordinates,Original*
G04 #@! TF.FileFunction,Legend,Top*
G04 #@! TF.FilePolarity,Positive*
%FSLAX46Y46*%
G04 Gerber Fmt 4.6, Leading zero omitted, Abs format (unit mm)*
G04 Created by KiCad (PCBNEW 5.0.2-bee76a0~70~ubuntu16.04.1) date Tue Feb  5 22:35:56 2019*
%MOMM*%
%LPD*%
G01*
G04 APERTURE LIST*
%ADD10C,0.120000*%
%ADD11C,0.150000*%
%ADD12C,0.050000*%
%ADD13C,0.127000*%
G04 APERTURE END LIST*
D10*
G04 #@! TO.C,Q3*
X48420000Y-4760000D02*
X49350000Y-4760000D01*
X51580000Y-4760000D02*
X50650000Y-4760000D01*
X51580000Y-4760000D02*
X51580000Y-2600000D01*
X48420000Y-4760000D02*
X48420000Y-3300000D01*
G04 #@! TO.C,R14*
X7200000Y-7680000D02*
X6200000Y-7680000D01*
X6200000Y-6320000D02*
X7200000Y-6320000D01*
G04 #@! TO.C,U2*
X20300000Y-18840000D02*
X17540000Y-18840000D01*
G04 #@! TO.C,C10*
X6200000Y-9850000D02*
X7200000Y-9850000D01*
X7200000Y-8150000D02*
X6200000Y-8150000D01*
D11*
G04 #@! TO.C,U1*
X59999600Y-30003800D02*
X56748400Y-30003800D01*
X43997600Y-30003800D02*
X45267600Y-30003800D01*
X44023000Y-19996200D02*
X45953400Y-19996200D01*
X59999600Y-19996200D02*
X56748400Y-19996200D01*
X53319400Y-19996200D02*
X55072000Y-19996200D01*
X60000000Y-20000000D02*
X60000000Y-30000000D01*
X56750000Y-30000000D02*
X56750000Y-20000000D01*
G04 #@! TO.C,J1*
X3700000Y-35000000D02*
G75*
G03X3700000Y-35000000I-600000J0D01*
G01*
X10700000Y-35000000D02*
G75*
G03X10700000Y-35000000I-600000J0D01*
G01*
X13250000Y-38500000D02*
X13250000Y-31500000D01*
X13250000Y-31500000D02*
X-50000Y-31500000D01*
X-50000Y-31500000D02*
X-50000Y-38500000D01*
X-50000Y-38500000D02*
X13250000Y-38500000D01*
X-3400000Y-37600000D02*
X-3400000Y-32400000D01*
X-3400000Y-37600000D02*
X-50000Y-37600000D01*
X-3400000Y-32400000D02*
X-50000Y-32400000D01*
D10*
G04 #@! TO.C,D3*
X32500000Y-18700000D02*
X32500000Y-19500000D01*
X32500044Y-19500000D02*
X28050000Y-19500000D01*
X31950000Y-16500000D02*
X28050000Y-16500000D01*
G04 #@! TO.C,C1*
X54500000Y-14750000D02*
X54500000Y-15450000D01*
X53300000Y-15450000D02*
X53300000Y-14750000D01*
G04 #@! TO.C,C2*
X35650000Y-32300000D02*
X34950000Y-32300000D01*
X34950000Y-31100000D02*
X35650000Y-31100000D01*
G04 #@! TO.C,C4*
X38650000Y-18700000D02*
X39350000Y-18700000D01*
X39350000Y-19900000D02*
X38650000Y-19900000D01*
G04 #@! TO.C,C5*
X39350000Y-25200000D02*
X38650000Y-25200000D01*
X38650000Y-24000000D02*
X39350000Y-24000000D01*
G04 #@! TO.C,C6*
X45400000Y-15450000D02*
X45400000Y-14750000D01*
X46600000Y-14750000D02*
X46600000Y-15450000D01*
G04 #@! TO.C,C7*
X47000000Y-15450000D02*
X47000000Y-14750000D01*
X48200000Y-14750000D02*
X48200000Y-15450000D01*
G04 #@! TO.C,C8*
X21250000Y-22600000D02*
X21950000Y-22600000D01*
X21950000Y-23800000D02*
X21250000Y-23800000D01*
G04 #@! TO.C,C9*
X41650000Y-11300000D02*
X40950000Y-11300000D01*
X40950000Y-10100000D02*
X41650000Y-10100000D01*
G04 #@! TO.C,C11*
X40950000Y-8400000D02*
X41650000Y-8400000D01*
X41650000Y-9600000D02*
X40950000Y-9600000D01*
G04 #@! TO.C,D1*
X32640000Y-5545000D02*
X32640000Y-2455000D01*
X32580000Y-4000000D02*
G75*
G03X32580000Y-4000000I-2500000J0D01*
G01*
X27090000Y-4000462D02*
G75*
G02X32640000Y-2455170I2990000J462D01*
G01*
X27090000Y-3999538D02*
G75*
G03X32640000Y-5544830I2990000J-462D01*
G01*
D11*
G04 #@! TO.C,D2*
X28572000Y-17534000D02*
X28572000Y-19034000D01*
X29172000Y-16934000D02*
X28572000Y-17534000D01*
X28572000Y-19034000D02*
X31272000Y-19034000D01*
X31272000Y-19034000D02*
X31272000Y-16934000D01*
X31272000Y-16934000D02*
X29172000Y-16934000D01*
D10*
G04 #@! TO.C,D4*
X44260000Y-15000462D02*
G75*
G03X38710000Y-13455170I-2990000J462D01*
G01*
X44260000Y-14999538D02*
G75*
G02X38710000Y-16544830I-2990000J-462D01*
G01*
X43770000Y-15000000D02*
G75*
G03X43770000Y-15000000I-2500000J0D01*
G01*
X38710000Y-13455000D02*
X38710000Y-16545000D01*
G04 #@! TO.C,Q1*
X16920000Y-36760000D02*
X17850000Y-36760000D01*
X20080000Y-36760000D02*
X19150000Y-36760000D01*
X20080000Y-36760000D02*
X20080000Y-34600000D01*
X16920000Y-36760000D02*
X16920000Y-35300000D01*
G04 #@! TO.C,Q2*
X48420000Y-9760000D02*
X48420000Y-8300000D01*
X51580000Y-9760000D02*
X51580000Y-7600000D01*
X51580000Y-9760000D02*
X50650000Y-9760000D01*
X48420000Y-9760000D02*
X49350000Y-9760000D01*
G04 #@! TO.C,Q4*
X19180000Y-25140000D02*
X19180000Y-26600000D01*
X16020000Y-25140000D02*
X16020000Y-27300000D01*
X16020000Y-25140000D02*
X16950000Y-25140000D01*
X19180000Y-25140000D02*
X18250000Y-25140000D01*
G04 #@! TO.C,Q5*
X39720000Y-5760000D02*
X39720000Y-4300000D01*
X42880000Y-5760000D02*
X42880000Y-2600000D01*
X42880000Y-5760000D02*
X41950000Y-5760000D01*
X39720000Y-5760000D02*
X40650000Y-5760000D01*
G04 #@! TO.C,Q6*
X13240000Y-3420000D02*
X13240000Y-4350000D01*
X13240000Y-6580000D02*
X13240000Y-5650000D01*
X13240000Y-6580000D02*
X16400000Y-6580000D01*
X13240000Y-3420000D02*
X14700000Y-3420000D01*
G04 #@! TO.C,Q7*
X13240000Y-7420000D02*
X14700000Y-7420000D01*
X13240000Y-10580000D02*
X16400000Y-10580000D01*
X13240000Y-10580000D02*
X13240000Y-9650000D01*
X13240000Y-7420000D02*
X13240000Y-8350000D01*
G04 #@! TO.C,R1*
X34800000Y-3320000D02*
X35800000Y-3320000D01*
X35800000Y-4680000D02*
X34800000Y-4680000D01*
G04 #@! TO.C,R2*
X53220000Y-9500000D02*
X53220000Y-8500000D01*
X54580000Y-8500000D02*
X54580000Y-9500000D01*
G04 #@! TO.C,R3*
X46680000Y-3500000D02*
X46680000Y-4500000D01*
X45320000Y-4500000D02*
X45320000Y-3500000D01*
G04 #@! TO.C,R4*
X45320000Y-9500000D02*
X45320000Y-8500000D01*
X46680000Y-8500000D02*
X46680000Y-9500000D01*
G04 #@! TO.C,R5*
X54580000Y-3500000D02*
X54580000Y-4500000D01*
X53220000Y-4500000D02*
X53220000Y-3500000D01*
G04 #@! TO.C,R6*
X17100000Y-22520000D02*
X18100000Y-22520000D01*
X18100000Y-23880000D02*
X17100000Y-23880000D01*
G04 #@! TO.C,R7*
X17100000Y-28120000D02*
X18100000Y-28120000D01*
X18100000Y-29480000D02*
X17100000Y-29480000D01*
G04 #@! TO.C,R8*
X40800000Y-620000D02*
X41800000Y-620000D01*
X41800000Y-1980000D02*
X40800000Y-1980000D01*
G04 #@! TO.C,R9*
X7200000Y-3680000D02*
X6200000Y-3680000D01*
X6200000Y-2320000D02*
X7200000Y-2320000D01*
G04 #@! TO.C,R10*
X19680000Y-4500000D02*
X19680000Y-5500000D01*
X18320000Y-5500000D02*
X18320000Y-4500000D01*
G04 #@! TO.C,R11*
X7200000Y-16680000D02*
X6200000Y-16680000D01*
X6200000Y-15320000D02*
X7200000Y-15320000D01*
G04 #@! TO.C,R12*
X6200000Y-4320000D02*
X7200000Y-4320000D01*
X7200000Y-5680000D02*
X6200000Y-5680000D01*
G04 #@! TO.C,R13*
X18320000Y-9500000D02*
X18320000Y-8500000D01*
X19680000Y-8500000D02*
X19680000Y-9500000D01*
G04 #@! TO.C,R15*
X6200000Y-13320000D02*
X7200000Y-13320000D01*
X7200000Y-14680000D02*
X6200000Y-14680000D01*
G04 #@! TO.C,SW1*
X22660000Y-38400000D02*
X22660000Y-39020000D01*
X24260000Y-38400000D02*
X22660000Y-38400000D01*
X24260000Y-39020000D02*
X24260000Y-38400000D01*
X25200000Y-38400000D02*
X25200000Y-39020000D01*
X26800000Y-38400000D02*
X25200000Y-38400000D01*
X26800000Y-39020000D02*
X26800000Y-38400000D01*
X23710000Y-33020000D02*
X23710000Y-34020000D01*
X25750000Y-33020000D02*
X25750000Y-34020000D01*
X23710000Y-34450000D02*
X23460000Y-34020000D01*
X25750000Y-34450000D02*
X23710000Y-34450000D01*
X26000000Y-34020000D02*
X25750000Y-34450000D01*
X23460000Y-34020000D02*
X23460000Y-33020000D01*
X26000000Y-34020000D02*
X23460000Y-34020000D01*
X26000000Y-33020000D02*
X26000000Y-34020000D01*
X22090000Y-39020000D02*
X27370000Y-39020000D01*
X22090000Y-33020000D02*
X22090000Y-39020000D01*
X27370000Y-33020000D02*
X22090000Y-33020000D01*
X27370000Y-39020000D02*
X27370000Y-33020000D01*
G04 #@! TO.C,SW2*
X37870000Y-39020000D02*
X37870000Y-33020000D01*
X37870000Y-33020000D02*
X32590000Y-33020000D01*
X32590000Y-33020000D02*
X32590000Y-39020000D01*
X32590000Y-39020000D02*
X37870000Y-39020000D01*
X36500000Y-33020000D02*
X36500000Y-34020000D01*
X36500000Y-34020000D02*
X33960000Y-34020000D01*
X33960000Y-34020000D02*
X33960000Y-33020000D01*
X36500000Y-34020000D02*
X36250000Y-34450000D01*
X36250000Y-34450000D02*
X34210000Y-34450000D01*
X34210000Y-34450000D02*
X33960000Y-34020000D01*
X36250000Y-33020000D02*
X36250000Y-34020000D01*
X34210000Y-33020000D02*
X34210000Y-34020000D01*
X37300000Y-39020000D02*
X37300000Y-38400000D01*
X37300000Y-38400000D02*
X35700000Y-38400000D01*
X35700000Y-38400000D02*
X35700000Y-39020000D01*
X34760000Y-39020000D02*
X34760000Y-38400000D01*
X34760000Y-38400000D02*
X33160000Y-38400000D01*
X33160000Y-38400000D02*
X33160000Y-39020000D01*
D11*
G04 #@! TO.C,U3*
X7700000Y-12400000D02*
X8000000Y-12200000D01*
X8000000Y-12200000D02*
X8000000Y-10600000D01*
X7700000Y-12400000D02*
X5400000Y-12400000D01*
X5400000Y-12400000D02*
X5400000Y-10600000D01*
X5400000Y-10600000D02*
X8000000Y-10600000D01*
D10*
G04 #@! TO.C,Y1*
X40500000Y-23650000D02*
G75*
G03X40500000Y-20250000I0J1700000D01*
G01*
X40500000Y-23650000D02*
G75*
G02X40500000Y-20250000I0J1700000D01*
G01*
G04 #@! TO.C,C3*
X18000000Y-33850000D02*
X19000000Y-33850000D01*
X19000000Y-32150000D02*
X18000000Y-32150000D01*
G04 #@! TO.C,L1*
X51020000Y-15700000D02*
X51020000Y-14500000D01*
X52780000Y-14500000D02*
X52780000Y-15700000D01*
G04 #@! TO.C,L2*
X48720000Y-15700000D02*
X48720000Y-14500000D01*
X50480000Y-14500000D02*
X50480000Y-15700000D01*
G04 #@! TO.C,L3*
X12620000Y-23400000D02*
G75*
G03X12620000Y-23400000I-6120000J0D01*
G01*
G04 #@! TO.C,Q3*
D11*
X49904761Y-2147619D02*
X49809523Y-2100000D01*
X49714285Y-2004761D01*
X49571428Y-1861904D01*
X49476190Y-1814285D01*
X49380952Y-1814285D01*
X49428571Y-2052380D02*
X49333333Y-2004761D01*
X49238095Y-1909523D01*
X49190476Y-1719047D01*
X49190476Y-1385714D01*
X49238095Y-1195238D01*
X49333333Y-1100000D01*
X49428571Y-1052380D01*
X49619047Y-1052380D01*
X49714285Y-1100000D01*
X49809523Y-1195238D01*
X49857142Y-1385714D01*
X49857142Y-1719047D01*
X49809523Y-1909523D01*
X49714285Y-2004761D01*
X49619047Y-2052380D01*
X49428571Y-2052380D01*
X50190476Y-1052380D02*
X50809523Y-1052380D01*
X50476190Y-1433333D01*
X50619047Y-1433333D01*
X50714285Y-1480952D01*
X50761904Y-1528571D01*
X50809523Y-1623809D01*
X50809523Y-1861904D01*
X50761904Y-1957142D01*
X50714285Y-2004761D01*
X50619047Y-2052380D01*
X50333333Y-2052380D01*
X50238095Y-2004761D01*
X50190476Y-1957142D01*
G04 #@! TO.C,R14*
X9317857Y-7729285D02*
X9067857Y-7372142D01*
X8889285Y-7729285D02*
X8889285Y-6979285D01*
X9175000Y-6979285D01*
X9246428Y-7015000D01*
X9282142Y-7050714D01*
X9317857Y-7122142D01*
X9317857Y-7229285D01*
X9282142Y-7300714D01*
X9246428Y-7336428D01*
X9175000Y-7372142D01*
X8889285Y-7372142D01*
X10032142Y-7729285D02*
X9603571Y-7729285D01*
X9817857Y-7729285D02*
X9817857Y-6979285D01*
X9746428Y-7086428D01*
X9675000Y-7157857D01*
X9603571Y-7193571D01*
X10675000Y-7229285D02*
X10675000Y-7729285D01*
X10496428Y-6943571D02*
X10317857Y-7479285D01*
X10782142Y-7479285D01*
G04 #@! TO.C,U2*
X16838095Y-17552380D02*
X16838095Y-18361904D01*
X16885714Y-18457142D01*
X16933333Y-18504761D01*
X17028571Y-18552380D01*
X17219047Y-18552380D01*
X17314285Y-18504761D01*
X17361904Y-18457142D01*
X17409523Y-18361904D01*
X17409523Y-17552380D01*
X17838095Y-17647619D02*
X17885714Y-17600000D01*
X17980952Y-17552380D01*
X18219047Y-17552380D01*
X18314285Y-17600000D01*
X18361904Y-17647619D01*
X18409523Y-17742857D01*
X18409523Y-17838095D01*
X18361904Y-17980952D01*
X17790476Y-18552380D01*
X18409523Y-18552380D01*
G04 #@! TO.C,C10*
X2692857Y-9267857D02*
X2657142Y-9303571D01*
X2550000Y-9339285D01*
X2478571Y-9339285D01*
X2371428Y-9303571D01*
X2300000Y-9232142D01*
X2264285Y-9160714D01*
X2228571Y-9017857D01*
X2228571Y-8910714D01*
X2264285Y-8767857D01*
X2300000Y-8696428D01*
X2371428Y-8625000D01*
X2478571Y-8589285D01*
X2550000Y-8589285D01*
X2657142Y-8625000D01*
X2692857Y-8660714D01*
X3407142Y-9339285D02*
X2978571Y-9339285D01*
X3192857Y-9339285D02*
X3192857Y-8589285D01*
X3121428Y-8696428D01*
X3050000Y-8767857D01*
X2978571Y-8803571D01*
X3871428Y-8589285D02*
X3942857Y-8589285D01*
X4014285Y-8625000D01*
X4050000Y-8660714D01*
X4085714Y-8732142D01*
X4121428Y-8875000D01*
X4121428Y-9053571D01*
X4085714Y-9196428D01*
X4050000Y-9267857D01*
X4014285Y-9303571D01*
X3942857Y-9339285D01*
X3871428Y-9339285D01*
X3800000Y-9303571D01*
X3764285Y-9267857D01*
X3728571Y-9196428D01*
X3692857Y-9053571D01*
X3692857Y-8875000D01*
X3728571Y-8732142D01*
X3764285Y-8660714D01*
X3800000Y-8625000D01*
X3871428Y-8589285D01*
G04 #@! TO.C,U1*
D12*
X42164047Y-27412190D02*
X42164047Y-27816952D01*
X42187857Y-27864571D01*
X42211666Y-27888380D01*
X42259285Y-27912190D01*
X42354523Y-27912190D01*
X42402142Y-27888380D01*
X42425952Y-27864571D01*
X42449761Y-27816952D01*
X42449761Y-27412190D01*
X42949761Y-27912190D02*
X42664047Y-27912190D01*
X42806904Y-27912190D02*
X42806904Y-27412190D01*
X42759285Y-27483619D01*
X42711666Y-27531238D01*
X42664047Y-27555047D01*
D11*
X58116666Y-26192857D02*
X58116666Y-25716666D01*
X58402380Y-26288095D02*
X57402380Y-25954761D01*
X58402380Y-25621428D01*
X58402380Y-25288095D02*
X57402380Y-25288095D01*
X58402380Y-24716666D01*
X57402380Y-24716666D01*
X57402380Y-24383333D02*
X57402380Y-23811904D01*
X58402380Y-24097619D02*
X57402380Y-24097619D01*
G04 #@! TO.C,J1*
X9191666Y-30059380D02*
X9191666Y-30773666D01*
X9144047Y-30916523D01*
X9048809Y-31011761D01*
X8905952Y-31059380D01*
X8810714Y-31059380D01*
X10191666Y-31059380D02*
X9620238Y-31059380D01*
X9905952Y-31059380D02*
X9905952Y-30059380D01*
X9810714Y-30202238D01*
X9715476Y-30297476D01*
X9620238Y-30345095D01*
G04 #@! TO.C,D3*
X30630904Y-20772380D02*
X30630904Y-19772380D01*
X30869000Y-19772380D01*
X31011857Y-19820000D01*
X31107095Y-19915238D01*
X31154714Y-20010476D01*
X31202333Y-20200952D01*
X31202333Y-20343809D01*
X31154714Y-20534285D01*
X31107095Y-20629523D01*
X31011857Y-20724761D01*
X30869000Y-20772380D01*
X30630904Y-20772380D01*
X31535666Y-19772380D02*
X32154714Y-19772380D01*
X31821380Y-20153333D01*
X31964238Y-20153333D01*
X32059476Y-20200952D01*
X32107095Y-20248571D01*
X32154714Y-20343809D01*
X32154714Y-20581904D01*
X32107095Y-20677142D01*
X32059476Y-20724761D01*
X31964238Y-20772380D01*
X31678523Y-20772380D01*
X31583285Y-20724761D01*
X31535666Y-20677142D01*
G04 #@! TO.C,C1*
X55247000Y-15380857D02*
X55211285Y-15416571D01*
X55104142Y-15452285D01*
X55032714Y-15452285D01*
X54925571Y-15416571D01*
X54854142Y-15345142D01*
X54818428Y-15273714D01*
X54782714Y-15130857D01*
X54782714Y-15023714D01*
X54818428Y-14880857D01*
X54854142Y-14809428D01*
X54925571Y-14738000D01*
X55032714Y-14702285D01*
X55104142Y-14702285D01*
X55211285Y-14738000D01*
X55247000Y-14773714D01*
X55961285Y-15452285D02*
X55532714Y-15452285D01*
X55747000Y-15452285D02*
X55747000Y-14702285D01*
X55675571Y-14809428D01*
X55604142Y-14880857D01*
X55532714Y-14916571D01*
G04 #@! TO.C,C2*
X32575000Y-31987857D02*
X32539285Y-32023571D01*
X32432142Y-32059285D01*
X32360714Y-32059285D01*
X32253571Y-32023571D01*
X32182142Y-31952142D01*
X32146428Y-31880714D01*
X32110714Y-31737857D01*
X32110714Y-31630714D01*
X32146428Y-31487857D01*
X32182142Y-31416428D01*
X32253571Y-31345000D01*
X32360714Y-31309285D01*
X32432142Y-31309285D01*
X32539285Y-31345000D01*
X32575000Y-31380714D01*
X32860714Y-31380714D02*
X32896428Y-31345000D01*
X32967857Y-31309285D01*
X33146428Y-31309285D01*
X33217857Y-31345000D01*
X33253571Y-31380714D01*
X33289285Y-31452142D01*
X33289285Y-31523571D01*
X33253571Y-31630714D01*
X32825000Y-32059285D01*
X33289285Y-32059285D01*
G04 #@! TO.C,C4*
X35975000Y-19547857D02*
X35939285Y-19583571D01*
X35832142Y-19619285D01*
X35760714Y-19619285D01*
X35653571Y-19583571D01*
X35582142Y-19512142D01*
X35546428Y-19440714D01*
X35510714Y-19297857D01*
X35510714Y-19190714D01*
X35546428Y-19047857D01*
X35582142Y-18976428D01*
X35653571Y-18905000D01*
X35760714Y-18869285D01*
X35832142Y-18869285D01*
X35939285Y-18905000D01*
X35975000Y-18940714D01*
X36617857Y-19119285D02*
X36617857Y-19619285D01*
X36439285Y-18833571D02*
X36260714Y-19369285D01*
X36725000Y-19369285D01*
G04 #@! TO.C,C5*
X35975000Y-24847857D02*
X35939285Y-24883571D01*
X35832142Y-24919285D01*
X35760714Y-24919285D01*
X35653571Y-24883571D01*
X35582142Y-24812142D01*
X35546428Y-24740714D01*
X35510714Y-24597857D01*
X35510714Y-24490714D01*
X35546428Y-24347857D01*
X35582142Y-24276428D01*
X35653571Y-24205000D01*
X35760714Y-24169285D01*
X35832142Y-24169285D01*
X35939285Y-24205000D01*
X35975000Y-24240714D01*
X36653571Y-24169285D02*
X36296428Y-24169285D01*
X36260714Y-24526428D01*
X36296428Y-24490714D01*
X36367857Y-24455000D01*
X36546428Y-24455000D01*
X36617857Y-24490714D01*
X36653571Y-24526428D01*
X36689285Y-24597857D01*
X36689285Y-24776428D01*
X36653571Y-24847857D01*
X36617857Y-24883571D01*
X36546428Y-24919285D01*
X36367857Y-24919285D01*
X36296428Y-24883571D01*
X36260714Y-24847857D01*
G04 #@! TO.C,C6*
X45849000Y-17666857D02*
X45813285Y-17702571D01*
X45706142Y-17738285D01*
X45634714Y-17738285D01*
X45527571Y-17702571D01*
X45456142Y-17631142D01*
X45420428Y-17559714D01*
X45384714Y-17416857D01*
X45384714Y-17309714D01*
X45420428Y-17166857D01*
X45456142Y-17095428D01*
X45527571Y-17024000D01*
X45634714Y-16988285D01*
X45706142Y-16988285D01*
X45813285Y-17024000D01*
X45849000Y-17059714D01*
X46491857Y-16988285D02*
X46349000Y-16988285D01*
X46277571Y-17024000D01*
X46241857Y-17059714D01*
X46170428Y-17166857D01*
X46134714Y-17309714D01*
X46134714Y-17595428D01*
X46170428Y-17666857D01*
X46206142Y-17702571D01*
X46277571Y-17738285D01*
X46420428Y-17738285D01*
X46491857Y-17702571D01*
X46527571Y-17666857D01*
X46563285Y-17595428D01*
X46563285Y-17416857D01*
X46527571Y-17345428D01*
X46491857Y-17309714D01*
X46420428Y-17274000D01*
X46277571Y-17274000D01*
X46206142Y-17309714D01*
X46170428Y-17345428D01*
X46134714Y-17416857D01*
G04 #@! TO.C,C7*
X47627000Y-13094857D02*
X47591285Y-13130571D01*
X47484142Y-13166285D01*
X47412714Y-13166285D01*
X47305571Y-13130571D01*
X47234142Y-13059142D01*
X47198428Y-12987714D01*
X47162714Y-12844857D01*
X47162714Y-12737714D01*
X47198428Y-12594857D01*
X47234142Y-12523428D01*
X47305571Y-12452000D01*
X47412714Y-12416285D01*
X47484142Y-12416285D01*
X47591285Y-12452000D01*
X47627000Y-12487714D01*
X47877000Y-12416285D02*
X48377000Y-12416285D01*
X48055571Y-13166285D01*
G04 #@! TO.C,C8*
X24475000Y-23467857D02*
X24439285Y-23503571D01*
X24332142Y-23539285D01*
X24260714Y-23539285D01*
X24153571Y-23503571D01*
X24082142Y-23432142D01*
X24046428Y-23360714D01*
X24010714Y-23217857D01*
X24010714Y-23110714D01*
X24046428Y-22967857D01*
X24082142Y-22896428D01*
X24153571Y-22825000D01*
X24260714Y-22789285D01*
X24332142Y-22789285D01*
X24439285Y-22825000D01*
X24475000Y-22860714D01*
X24903571Y-23110714D02*
X24832142Y-23075000D01*
X24796428Y-23039285D01*
X24760714Y-22967857D01*
X24760714Y-22932142D01*
X24796428Y-22860714D01*
X24832142Y-22825000D01*
X24903571Y-22789285D01*
X25046428Y-22789285D01*
X25117857Y-22825000D01*
X25153571Y-22860714D01*
X25189285Y-22932142D01*
X25189285Y-22967857D01*
X25153571Y-23039285D01*
X25117857Y-23075000D01*
X25046428Y-23110714D01*
X24903571Y-23110714D01*
X24832142Y-23146428D01*
X24796428Y-23182142D01*
X24760714Y-23253571D01*
X24760714Y-23396428D01*
X24796428Y-23467857D01*
X24832142Y-23503571D01*
X24903571Y-23539285D01*
X25046428Y-23539285D01*
X25117857Y-23503571D01*
X25153571Y-23467857D01*
X25189285Y-23396428D01*
X25189285Y-23253571D01*
X25153571Y-23182142D01*
X25117857Y-23146428D01*
X25046428Y-23110714D01*
G04 #@! TO.C,C9*
X38356000Y-10987857D02*
X38320285Y-11023571D01*
X38213142Y-11059285D01*
X38141714Y-11059285D01*
X38034571Y-11023571D01*
X37963142Y-10952142D01*
X37927428Y-10880714D01*
X37891714Y-10737857D01*
X37891714Y-10630714D01*
X37927428Y-10487857D01*
X37963142Y-10416428D01*
X38034571Y-10345000D01*
X38141714Y-10309285D01*
X38213142Y-10309285D01*
X38320285Y-10345000D01*
X38356000Y-10380714D01*
X38713142Y-11059285D02*
X38856000Y-11059285D01*
X38927428Y-11023571D01*
X38963142Y-10987857D01*
X39034571Y-10880714D01*
X39070285Y-10737857D01*
X39070285Y-10452142D01*
X39034571Y-10380714D01*
X38998857Y-10345000D01*
X38927428Y-10309285D01*
X38784571Y-10309285D01*
X38713142Y-10345000D01*
X38677428Y-10380714D01*
X38641714Y-10452142D01*
X38641714Y-10630714D01*
X38677428Y-10702142D01*
X38713142Y-10737857D01*
X38784571Y-10773571D01*
X38927428Y-10773571D01*
X38998857Y-10737857D01*
X39034571Y-10702142D01*
X39070285Y-10630714D01*
G04 #@! TO.C,C11*
X37871857Y-9157857D02*
X37836142Y-9193571D01*
X37729000Y-9229285D01*
X37657571Y-9229285D01*
X37550428Y-9193571D01*
X37479000Y-9122142D01*
X37443285Y-9050714D01*
X37407571Y-8907857D01*
X37407571Y-8800714D01*
X37443285Y-8657857D01*
X37479000Y-8586428D01*
X37550428Y-8515000D01*
X37657571Y-8479285D01*
X37729000Y-8479285D01*
X37836142Y-8515000D01*
X37871857Y-8550714D01*
X38586142Y-9229285D02*
X38157571Y-9229285D01*
X38371857Y-9229285D02*
X38371857Y-8479285D01*
X38300428Y-8586428D01*
X38229000Y-8657857D01*
X38157571Y-8693571D01*
X39300428Y-9229285D02*
X38871857Y-9229285D01*
X39086142Y-9229285D02*
X39086142Y-8479285D01*
X39014714Y-8586428D01*
X38943285Y-8657857D01*
X38871857Y-8693571D01*
G04 #@! TO.C,D1*
X29341904Y-8412380D02*
X29341904Y-7412380D01*
X29580000Y-7412380D01*
X29722857Y-7460000D01*
X29818095Y-7555238D01*
X29865714Y-7650476D01*
X29913333Y-7840952D01*
X29913333Y-7983809D01*
X29865714Y-8174285D01*
X29818095Y-8269523D01*
X29722857Y-8364761D01*
X29580000Y-8412380D01*
X29341904Y-8412380D01*
X30865714Y-8412380D02*
X30294285Y-8412380D01*
X30580000Y-8412380D02*
X30580000Y-7412380D01*
X30484761Y-7555238D01*
X30389523Y-7650476D01*
X30294285Y-7698095D01*
G04 #@! TO.C,D2*
X27201904Y-20772380D02*
X27201904Y-19772380D01*
X27440000Y-19772380D01*
X27582857Y-19820000D01*
X27678095Y-19915238D01*
X27725714Y-20010476D01*
X27773333Y-20200952D01*
X27773333Y-20343809D01*
X27725714Y-20534285D01*
X27678095Y-20629523D01*
X27582857Y-20724761D01*
X27440000Y-20772380D01*
X27201904Y-20772380D01*
X28154285Y-19867619D02*
X28201904Y-19820000D01*
X28297142Y-19772380D01*
X28535238Y-19772380D01*
X28630476Y-19820000D01*
X28678095Y-19867619D01*
X28725714Y-19962857D01*
X28725714Y-20058095D01*
X28678095Y-20200952D01*
X28106666Y-20772380D01*
X28725714Y-20772380D01*
G04 #@! TO.C,D4*
X36261904Y-15452380D02*
X36261904Y-14452380D01*
X36500000Y-14452380D01*
X36642857Y-14500000D01*
X36738095Y-14595238D01*
X36785714Y-14690476D01*
X36833333Y-14880952D01*
X36833333Y-15023809D01*
X36785714Y-15214285D01*
X36738095Y-15309523D01*
X36642857Y-15404761D01*
X36500000Y-15452380D01*
X36261904Y-15452380D01*
X37690476Y-14785714D02*
X37690476Y-15452380D01*
X37452380Y-14404761D02*
X37214285Y-15119047D01*
X37833333Y-15119047D01*
G04 #@! TO.C,P1*
D13*
X48837571Y-33574712D02*
X48837571Y-32812712D01*
X49127857Y-32812712D01*
X49200428Y-32848998D01*
X49236714Y-32885283D01*
X49273000Y-32957855D01*
X49273000Y-33066712D01*
X49236714Y-33139283D01*
X49200428Y-33175569D01*
X49127857Y-33211855D01*
X48837571Y-33211855D01*
X49998714Y-33574712D02*
X49563285Y-33574712D01*
X49781000Y-33574712D02*
X49781000Y-32812712D01*
X49708428Y-32921569D01*
X49635857Y-32994140D01*
X49563285Y-33030426D01*
G04 #@! TO.C,Q1*
D11*
X20097761Y-38139619D02*
X20002523Y-38092000D01*
X19907285Y-37996761D01*
X19764428Y-37853904D01*
X19669190Y-37806285D01*
X19573952Y-37806285D01*
X19621571Y-38044380D02*
X19526333Y-37996761D01*
X19431095Y-37901523D01*
X19383476Y-37711047D01*
X19383476Y-37377714D01*
X19431095Y-37187238D01*
X19526333Y-37092000D01*
X19621571Y-37044380D01*
X19812047Y-37044380D01*
X19907285Y-37092000D01*
X20002523Y-37187238D01*
X20050142Y-37377714D01*
X20050142Y-37711047D01*
X20002523Y-37901523D01*
X19907285Y-37996761D01*
X19812047Y-38044380D01*
X19621571Y-38044380D01*
X21002523Y-38044380D02*
X20431095Y-38044380D01*
X20716809Y-38044380D02*
X20716809Y-37044380D01*
X20621571Y-37187238D01*
X20526333Y-37282476D01*
X20431095Y-37330095D01*
G04 #@! TO.C,Q2*
X49904761Y-7147619D02*
X49809523Y-7100000D01*
X49714285Y-7004761D01*
X49571428Y-6861904D01*
X49476190Y-6814285D01*
X49380952Y-6814285D01*
X49428571Y-7052380D02*
X49333333Y-7004761D01*
X49238095Y-6909523D01*
X49190476Y-6719047D01*
X49190476Y-6385714D01*
X49238095Y-6195238D01*
X49333333Y-6100000D01*
X49428571Y-6052380D01*
X49619047Y-6052380D01*
X49714285Y-6100000D01*
X49809523Y-6195238D01*
X49857142Y-6385714D01*
X49857142Y-6719047D01*
X49809523Y-6909523D01*
X49714285Y-7004761D01*
X49619047Y-7052380D01*
X49428571Y-7052380D01*
X50238095Y-6147619D02*
X50285714Y-6100000D01*
X50380952Y-6052380D01*
X50619047Y-6052380D01*
X50714285Y-6100000D01*
X50761904Y-6147619D01*
X50809523Y-6242857D01*
X50809523Y-6338095D01*
X50761904Y-6480952D01*
X50190476Y-7052380D01*
X50809523Y-7052380D01*
G04 #@! TO.C,Q4*
X15004761Y-26447619D02*
X14909523Y-26400000D01*
X14814285Y-26304761D01*
X14671428Y-26161904D01*
X14576190Y-26114285D01*
X14480952Y-26114285D01*
X14528571Y-26352380D02*
X14433333Y-26304761D01*
X14338095Y-26209523D01*
X14290476Y-26019047D01*
X14290476Y-25685714D01*
X14338095Y-25495238D01*
X14433333Y-25400000D01*
X14528571Y-25352380D01*
X14719047Y-25352380D01*
X14814285Y-25400000D01*
X14909523Y-25495238D01*
X14957142Y-25685714D01*
X14957142Y-26019047D01*
X14909523Y-26209523D01*
X14814285Y-26304761D01*
X14719047Y-26352380D01*
X14528571Y-26352380D01*
X15814285Y-25685714D02*
X15814285Y-26352380D01*
X15576190Y-25304761D02*
X15338095Y-26019047D01*
X15957142Y-26019047D01*
G04 #@! TO.C,Q5*
X38790571Y-5490714D02*
X38719142Y-5455000D01*
X38647714Y-5383571D01*
X38540571Y-5276428D01*
X38469142Y-5240714D01*
X38397714Y-5240714D01*
X38433428Y-5419285D02*
X38362000Y-5383571D01*
X38290571Y-5312142D01*
X38254857Y-5169285D01*
X38254857Y-4919285D01*
X38290571Y-4776428D01*
X38362000Y-4705000D01*
X38433428Y-4669285D01*
X38576285Y-4669285D01*
X38647714Y-4705000D01*
X38719142Y-4776428D01*
X38754857Y-4919285D01*
X38754857Y-5169285D01*
X38719142Y-5312142D01*
X38647714Y-5383571D01*
X38576285Y-5419285D01*
X38433428Y-5419285D01*
X39433428Y-4669285D02*
X39076285Y-4669285D01*
X39040571Y-5026428D01*
X39076285Y-4990714D01*
X39147714Y-4955000D01*
X39326285Y-4955000D01*
X39397714Y-4990714D01*
X39433428Y-5026428D01*
X39469142Y-5097857D01*
X39469142Y-5276428D01*
X39433428Y-5347857D01*
X39397714Y-5383571D01*
X39326285Y-5419285D01*
X39147714Y-5419285D01*
X39076285Y-5383571D01*
X39040571Y-5347857D01*
G04 #@! TO.C,Q6*
X13898571Y-3204714D02*
X13827142Y-3169000D01*
X13755714Y-3097571D01*
X13648571Y-2990428D01*
X13577142Y-2954714D01*
X13505714Y-2954714D01*
X13541428Y-3133285D02*
X13470000Y-3097571D01*
X13398571Y-3026142D01*
X13362857Y-2883285D01*
X13362857Y-2633285D01*
X13398571Y-2490428D01*
X13470000Y-2419000D01*
X13541428Y-2383285D01*
X13684285Y-2383285D01*
X13755714Y-2419000D01*
X13827142Y-2490428D01*
X13862857Y-2633285D01*
X13862857Y-2883285D01*
X13827142Y-3026142D01*
X13755714Y-3097571D01*
X13684285Y-3133285D01*
X13541428Y-3133285D01*
X14505714Y-2383285D02*
X14362857Y-2383285D01*
X14291428Y-2419000D01*
X14255714Y-2454714D01*
X14184285Y-2561857D01*
X14148571Y-2704714D01*
X14148571Y-2990428D01*
X14184285Y-3061857D01*
X14220000Y-3097571D01*
X14291428Y-3133285D01*
X14434285Y-3133285D01*
X14505714Y-3097571D01*
X14541428Y-3061857D01*
X14577142Y-2990428D01*
X14577142Y-2811857D01*
X14541428Y-2740428D01*
X14505714Y-2704714D01*
X14434285Y-2669000D01*
X14291428Y-2669000D01*
X14220000Y-2704714D01*
X14184285Y-2740428D01*
X14148571Y-2811857D01*
G04 #@! TO.C,Q7*
X10428571Y-9410714D02*
X10357142Y-9375000D01*
X10285714Y-9303571D01*
X10178571Y-9196428D01*
X10107142Y-9160714D01*
X10035714Y-9160714D01*
X10071428Y-9339285D02*
X10000000Y-9303571D01*
X9928571Y-9232142D01*
X9892857Y-9089285D01*
X9892857Y-8839285D01*
X9928571Y-8696428D01*
X10000000Y-8625000D01*
X10071428Y-8589285D01*
X10214285Y-8589285D01*
X10285714Y-8625000D01*
X10357142Y-8696428D01*
X10392857Y-8839285D01*
X10392857Y-9089285D01*
X10357142Y-9232142D01*
X10285714Y-9303571D01*
X10214285Y-9339285D01*
X10071428Y-9339285D01*
X10642857Y-8589285D02*
X11142857Y-8589285D01*
X10821428Y-9339285D01*
G04 #@! TO.C,R1*
X35181000Y-3133285D02*
X34931000Y-2776142D01*
X34752428Y-3133285D02*
X34752428Y-2383285D01*
X35038142Y-2383285D01*
X35109571Y-2419000D01*
X35145285Y-2454714D01*
X35181000Y-2526142D01*
X35181000Y-2633285D01*
X35145285Y-2704714D01*
X35109571Y-2740428D01*
X35038142Y-2776142D01*
X34752428Y-2776142D01*
X35895285Y-3133285D02*
X35466714Y-3133285D01*
X35681000Y-3133285D02*
X35681000Y-2383285D01*
X35609571Y-2490428D01*
X35538142Y-2561857D01*
X35466714Y-2597571D01*
G04 #@! TO.C,R2*
X55175000Y-9339285D02*
X54925000Y-8982142D01*
X54746428Y-9339285D02*
X54746428Y-8589285D01*
X55032142Y-8589285D01*
X55103571Y-8625000D01*
X55139285Y-8660714D01*
X55175000Y-8732142D01*
X55175000Y-8839285D01*
X55139285Y-8910714D01*
X55103571Y-8946428D01*
X55032142Y-8982142D01*
X54746428Y-8982142D01*
X55460714Y-8660714D02*
X55496428Y-8625000D01*
X55567857Y-8589285D01*
X55746428Y-8589285D01*
X55817857Y-8625000D01*
X55853571Y-8660714D01*
X55889285Y-8732142D01*
X55889285Y-8803571D01*
X55853571Y-8910714D01*
X55425000Y-9339285D01*
X55889285Y-9339285D01*
G04 #@! TO.C,R3*
X44325000Y-4339285D02*
X44075000Y-3982142D01*
X43896428Y-4339285D02*
X43896428Y-3589285D01*
X44182142Y-3589285D01*
X44253571Y-3625000D01*
X44289285Y-3660714D01*
X44325000Y-3732142D01*
X44325000Y-3839285D01*
X44289285Y-3910714D01*
X44253571Y-3946428D01*
X44182142Y-3982142D01*
X43896428Y-3982142D01*
X44575000Y-3589285D02*
X45039285Y-3589285D01*
X44789285Y-3875000D01*
X44896428Y-3875000D01*
X44967857Y-3910714D01*
X45003571Y-3946428D01*
X45039285Y-4017857D01*
X45039285Y-4196428D01*
X45003571Y-4267857D01*
X44967857Y-4303571D01*
X44896428Y-4339285D01*
X44682142Y-4339285D01*
X44610714Y-4303571D01*
X44575000Y-4267857D01*
G04 #@! TO.C,R4*
X44452000Y-8213285D02*
X44202000Y-7856142D01*
X44023428Y-8213285D02*
X44023428Y-7463285D01*
X44309142Y-7463285D01*
X44380571Y-7499000D01*
X44416285Y-7534714D01*
X44452000Y-7606142D01*
X44452000Y-7713285D01*
X44416285Y-7784714D01*
X44380571Y-7820428D01*
X44309142Y-7856142D01*
X44023428Y-7856142D01*
X45094857Y-7713285D02*
X45094857Y-8213285D01*
X44916285Y-7427571D02*
X44737714Y-7963285D01*
X45202000Y-7963285D01*
G04 #@! TO.C,R5*
X55275000Y-4339285D02*
X55025000Y-3982142D01*
X54846428Y-4339285D02*
X54846428Y-3589285D01*
X55132142Y-3589285D01*
X55203571Y-3625000D01*
X55239285Y-3660714D01*
X55275000Y-3732142D01*
X55275000Y-3839285D01*
X55239285Y-3910714D01*
X55203571Y-3946428D01*
X55132142Y-3982142D01*
X54846428Y-3982142D01*
X55953571Y-3589285D02*
X55596428Y-3589285D01*
X55560714Y-3946428D01*
X55596428Y-3910714D01*
X55667857Y-3875000D01*
X55846428Y-3875000D01*
X55917857Y-3910714D01*
X55953571Y-3946428D01*
X55989285Y-4017857D01*
X55989285Y-4196428D01*
X55953571Y-4267857D01*
X55917857Y-4303571D01*
X55846428Y-4339285D01*
X55667857Y-4339285D01*
X55596428Y-4303571D01*
X55560714Y-4267857D01*
G04 #@! TO.C,R6*
X14475000Y-23539285D02*
X14225000Y-23182142D01*
X14046428Y-23539285D02*
X14046428Y-22789285D01*
X14332142Y-22789285D01*
X14403571Y-22825000D01*
X14439285Y-22860714D01*
X14475000Y-22932142D01*
X14475000Y-23039285D01*
X14439285Y-23110714D01*
X14403571Y-23146428D01*
X14332142Y-23182142D01*
X14046428Y-23182142D01*
X15117857Y-22789285D02*
X14975000Y-22789285D01*
X14903571Y-22825000D01*
X14867857Y-22860714D01*
X14796428Y-22967857D01*
X14760714Y-23110714D01*
X14760714Y-23396428D01*
X14796428Y-23467857D01*
X14832142Y-23503571D01*
X14903571Y-23539285D01*
X15046428Y-23539285D01*
X15117857Y-23503571D01*
X15153571Y-23467857D01*
X15189285Y-23396428D01*
X15189285Y-23217857D01*
X15153571Y-23146428D01*
X15117857Y-23110714D01*
X15046428Y-23075000D01*
X14903571Y-23075000D01*
X14832142Y-23110714D01*
X14796428Y-23146428D01*
X14760714Y-23217857D01*
G04 #@! TO.C,R7*
X14675000Y-29139285D02*
X14425000Y-28782142D01*
X14246428Y-29139285D02*
X14246428Y-28389285D01*
X14532142Y-28389285D01*
X14603571Y-28425000D01*
X14639285Y-28460714D01*
X14675000Y-28532142D01*
X14675000Y-28639285D01*
X14639285Y-28710714D01*
X14603571Y-28746428D01*
X14532142Y-28782142D01*
X14246428Y-28782142D01*
X14925000Y-28389285D02*
X15425000Y-28389285D01*
X15103571Y-29139285D01*
G04 #@! TO.C,R8*
X38483000Y-2625285D02*
X38233000Y-2268142D01*
X38054428Y-2625285D02*
X38054428Y-1875285D01*
X38340142Y-1875285D01*
X38411571Y-1911000D01*
X38447285Y-1946714D01*
X38483000Y-2018142D01*
X38483000Y-2125285D01*
X38447285Y-2196714D01*
X38411571Y-2232428D01*
X38340142Y-2268142D01*
X38054428Y-2268142D01*
X38911571Y-2196714D02*
X38840142Y-2161000D01*
X38804428Y-2125285D01*
X38768714Y-2053857D01*
X38768714Y-2018142D01*
X38804428Y-1946714D01*
X38840142Y-1911000D01*
X38911571Y-1875285D01*
X39054428Y-1875285D01*
X39125857Y-1911000D01*
X39161571Y-1946714D01*
X39197285Y-2018142D01*
X39197285Y-2053857D01*
X39161571Y-2125285D01*
X39125857Y-2161000D01*
X39054428Y-2196714D01*
X38911571Y-2196714D01*
X38840142Y-2232428D01*
X38804428Y-2268142D01*
X38768714Y-2339571D01*
X38768714Y-2482428D01*
X38804428Y-2553857D01*
X38840142Y-2589571D01*
X38911571Y-2625285D01*
X39054428Y-2625285D01*
X39125857Y-2589571D01*
X39161571Y-2553857D01*
X39197285Y-2482428D01*
X39197285Y-2339571D01*
X39161571Y-2268142D01*
X39125857Y-2232428D01*
X39054428Y-2196714D01*
G04 #@! TO.C,R9*
X6733000Y-2117285D02*
X6483000Y-1760142D01*
X6304428Y-2117285D02*
X6304428Y-1367285D01*
X6590142Y-1367285D01*
X6661571Y-1403000D01*
X6697285Y-1438714D01*
X6733000Y-1510142D01*
X6733000Y-1617285D01*
X6697285Y-1688714D01*
X6661571Y-1724428D01*
X6590142Y-1760142D01*
X6304428Y-1760142D01*
X7090142Y-2117285D02*
X7233000Y-2117285D01*
X7304428Y-2081571D01*
X7340142Y-2045857D01*
X7411571Y-1938714D01*
X7447285Y-1795857D01*
X7447285Y-1510142D01*
X7411571Y-1438714D01*
X7375857Y-1403000D01*
X7304428Y-1367285D01*
X7161571Y-1367285D01*
X7090142Y-1403000D01*
X7054428Y-1438714D01*
X7018714Y-1510142D01*
X7018714Y-1688714D01*
X7054428Y-1760142D01*
X7090142Y-1795857D01*
X7161571Y-1831571D01*
X7304428Y-1831571D01*
X7375857Y-1795857D01*
X7411571Y-1760142D01*
X7447285Y-1688714D01*
G04 #@! TO.C,R10*
X18694857Y-2752285D02*
X18444857Y-2395142D01*
X18266285Y-2752285D02*
X18266285Y-2002285D01*
X18552000Y-2002285D01*
X18623428Y-2038000D01*
X18659142Y-2073714D01*
X18694857Y-2145142D01*
X18694857Y-2252285D01*
X18659142Y-2323714D01*
X18623428Y-2359428D01*
X18552000Y-2395142D01*
X18266285Y-2395142D01*
X19409142Y-2752285D02*
X18980571Y-2752285D01*
X19194857Y-2752285D02*
X19194857Y-2002285D01*
X19123428Y-2109428D01*
X19052000Y-2180857D01*
X18980571Y-2216571D01*
X19873428Y-2002285D02*
X19944857Y-2002285D01*
X20016285Y-2038000D01*
X20052000Y-2073714D01*
X20087714Y-2145142D01*
X20123428Y-2288000D01*
X20123428Y-2466571D01*
X20087714Y-2609428D01*
X20052000Y-2680857D01*
X20016285Y-2716571D01*
X19944857Y-2752285D01*
X19873428Y-2752285D01*
X19802000Y-2716571D01*
X19766285Y-2680857D01*
X19730571Y-2609428D01*
X19694857Y-2466571D01*
X19694857Y-2288000D01*
X19730571Y-2145142D01*
X19766285Y-2073714D01*
X19802000Y-2038000D01*
X19873428Y-2002285D01*
G04 #@! TO.C,R11*
X2817857Y-16339285D02*
X2567857Y-15982142D01*
X2389285Y-16339285D02*
X2389285Y-15589285D01*
X2675000Y-15589285D01*
X2746428Y-15625000D01*
X2782142Y-15660714D01*
X2817857Y-15732142D01*
X2817857Y-15839285D01*
X2782142Y-15910714D01*
X2746428Y-15946428D01*
X2675000Y-15982142D01*
X2389285Y-15982142D01*
X3532142Y-16339285D02*
X3103571Y-16339285D01*
X3317857Y-16339285D02*
X3317857Y-15589285D01*
X3246428Y-15696428D01*
X3175000Y-15767857D01*
X3103571Y-15803571D01*
X4246428Y-16339285D02*
X3817857Y-16339285D01*
X4032142Y-16339285D02*
X4032142Y-15589285D01*
X3960714Y-15696428D01*
X3889285Y-15767857D01*
X3817857Y-15803571D01*
G04 #@! TO.C,R12*
X9317857Y-5729285D02*
X9067857Y-5372142D01*
X8889285Y-5729285D02*
X8889285Y-4979285D01*
X9175000Y-4979285D01*
X9246428Y-5015000D01*
X9282142Y-5050714D01*
X9317857Y-5122142D01*
X9317857Y-5229285D01*
X9282142Y-5300714D01*
X9246428Y-5336428D01*
X9175000Y-5372142D01*
X8889285Y-5372142D01*
X10032142Y-5729285D02*
X9603571Y-5729285D01*
X9817857Y-5729285D02*
X9817857Y-4979285D01*
X9746428Y-5086428D01*
X9675000Y-5157857D01*
X9603571Y-5193571D01*
X10317857Y-5050714D02*
X10353571Y-5015000D01*
X10425000Y-4979285D01*
X10603571Y-4979285D01*
X10675000Y-5015000D01*
X10710714Y-5050714D01*
X10746428Y-5122142D01*
X10746428Y-5193571D01*
X10710714Y-5300714D01*
X10282142Y-5729285D01*
X10746428Y-5729285D01*
G04 #@! TO.C,R13*
X20472857Y-9483285D02*
X20222857Y-9126142D01*
X20044285Y-9483285D02*
X20044285Y-8733285D01*
X20330000Y-8733285D01*
X20401428Y-8769000D01*
X20437142Y-8804714D01*
X20472857Y-8876142D01*
X20472857Y-8983285D01*
X20437142Y-9054714D01*
X20401428Y-9090428D01*
X20330000Y-9126142D01*
X20044285Y-9126142D01*
X21187142Y-9483285D02*
X20758571Y-9483285D01*
X20972857Y-9483285D02*
X20972857Y-8733285D01*
X20901428Y-8840428D01*
X20830000Y-8911857D01*
X20758571Y-8947571D01*
X21437142Y-8733285D02*
X21901428Y-8733285D01*
X21651428Y-9019000D01*
X21758571Y-9019000D01*
X21830000Y-9054714D01*
X21865714Y-9090428D01*
X21901428Y-9161857D01*
X21901428Y-9340428D01*
X21865714Y-9411857D01*
X21830000Y-9447571D01*
X21758571Y-9483285D01*
X21544285Y-9483285D01*
X21472857Y-9447571D01*
X21437142Y-9411857D01*
G04 #@! TO.C,R15*
X2717857Y-14339285D02*
X2467857Y-13982142D01*
X2289285Y-14339285D02*
X2289285Y-13589285D01*
X2575000Y-13589285D01*
X2646428Y-13625000D01*
X2682142Y-13660714D01*
X2717857Y-13732142D01*
X2717857Y-13839285D01*
X2682142Y-13910714D01*
X2646428Y-13946428D01*
X2575000Y-13982142D01*
X2289285Y-13982142D01*
X3432142Y-14339285D02*
X3003571Y-14339285D01*
X3217857Y-14339285D02*
X3217857Y-13589285D01*
X3146428Y-13696428D01*
X3075000Y-13767857D01*
X3003571Y-13803571D01*
X4110714Y-13589285D02*
X3753571Y-13589285D01*
X3717857Y-13946428D01*
X3753571Y-13910714D01*
X3825000Y-13875000D01*
X4003571Y-13875000D01*
X4075000Y-13910714D01*
X4110714Y-13946428D01*
X4146428Y-14017857D01*
X4146428Y-14196428D01*
X4110714Y-14267857D01*
X4075000Y-14303571D01*
X4003571Y-14339285D01*
X3825000Y-14339285D01*
X3753571Y-14303571D01*
X3717857Y-14267857D01*
G04 #@! TO.C,SW1*
D10*
X27751333Y-36409809D02*
X27865619Y-36447904D01*
X28056095Y-36447904D01*
X28132285Y-36409809D01*
X28170380Y-36371714D01*
X28208476Y-36295523D01*
X28208476Y-36219333D01*
X28170380Y-36143142D01*
X28132285Y-36105047D01*
X28056095Y-36066952D01*
X27903714Y-36028857D01*
X27827523Y-35990761D01*
X27789428Y-35952666D01*
X27751333Y-35876476D01*
X27751333Y-35800285D01*
X27789428Y-35724095D01*
X27827523Y-35686000D01*
X27903714Y-35647904D01*
X28094190Y-35647904D01*
X28208476Y-35686000D01*
X28475142Y-35647904D02*
X28665619Y-36447904D01*
X28818000Y-35876476D01*
X28970380Y-36447904D01*
X29160857Y-35647904D01*
X29884666Y-36447904D02*
X29427523Y-36447904D01*
X29656095Y-36447904D02*
X29656095Y-35647904D01*
X29579904Y-35762190D01*
X29503714Y-35838380D01*
X29427523Y-35876476D01*
G04 #@! TO.C,SW2*
X30302333Y-33978809D02*
X30416619Y-34016904D01*
X30607095Y-34016904D01*
X30683285Y-33978809D01*
X30721380Y-33940714D01*
X30759476Y-33864523D01*
X30759476Y-33788333D01*
X30721380Y-33712142D01*
X30683285Y-33674047D01*
X30607095Y-33635952D01*
X30454714Y-33597857D01*
X30378523Y-33559761D01*
X30340428Y-33521666D01*
X30302333Y-33445476D01*
X30302333Y-33369285D01*
X30340428Y-33293095D01*
X30378523Y-33255000D01*
X30454714Y-33216904D01*
X30645190Y-33216904D01*
X30759476Y-33255000D01*
X31026142Y-33216904D02*
X31216619Y-34016904D01*
X31369000Y-33445476D01*
X31521380Y-34016904D01*
X31711857Y-33216904D01*
X31978523Y-33293095D02*
X32016619Y-33255000D01*
X32092809Y-33216904D01*
X32283285Y-33216904D01*
X32359476Y-33255000D01*
X32397571Y-33293095D01*
X32435666Y-33369285D01*
X32435666Y-33445476D01*
X32397571Y-33559761D01*
X31940428Y-34016904D01*
X32435666Y-34016904D01*
G04 #@! TO.C,TP1*
D11*
X11553571Y-15589285D02*
X11982142Y-15589285D01*
X11767857Y-16339285D02*
X11767857Y-15589285D01*
X12232142Y-16339285D02*
X12232142Y-15589285D01*
X12517857Y-15589285D01*
X12589285Y-15625000D01*
X12625000Y-15660714D01*
X12660714Y-15732142D01*
X12660714Y-15839285D01*
X12625000Y-15910714D01*
X12589285Y-15946428D01*
X12517857Y-15982142D01*
X12232142Y-15982142D01*
X13375000Y-16339285D02*
X12946428Y-16339285D01*
X13160714Y-16339285D02*
X13160714Y-15589285D01*
X13089285Y-15696428D01*
X13017857Y-15767857D01*
X12946428Y-15803571D01*
G04 #@! TO.C,U3*
X3138095Y-10952380D02*
X3138095Y-11761904D01*
X3185714Y-11857142D01*
X3233333Y-11904761D01*
X3328571Y-11952380D01*
X3519047Y-11952380D01*
X3614285Y-11904761D01*
X3661904Y-11857142D01*
X3709523Y-11761904D01*
X3709523Y-10952380D01*
X4090476Y-10952380D02*
X4709523Y-10952380D01*
X4376190Y-11333333D01*
X4519047Y-11333333D01*
X4614285Y-11380952D01*
X4661904Y-11428571D01*
X4709523Y-11523809D01*
X4709523Y-11761904D01*
X4661904Y-11857142D01*
X4614285Y-11904761D01*
X4519047Y-11952380D01*
X4233333Y-11952380D01*
X4138095Y-11904761D01*
X4090476Y-11857142D01*
G04 #@! TO.C,Y1*
X37023809Y-21926190D02*
X37023809Y-22402380D01*
X36690476Y-21402380D02*
X37023809Y-21926190D01*
X37357142Y-21402380D01*
X38214285Y-22402380D02*
X37642857Y-22402380D01*
X37928571Y-22402380D02*
X37928571Y-21402380D01*
X37833333Y-21545238D01*
X37738095Y-21640476D01*
X37642857Y-21688095D01*
G04 #@! TO.C,C3*
X18417000Y-31890857D02*
X18381285Y-31926571D01*
X18274142Y-31962285D01*
X18202714Y-31962285D01*
X18095571Y-31926571D01*
X18024142Y-31855142D01*
X17988428Y-31783714D01*
X17952714Y-31640857D01*
X17952714Y-31533714D01*
X17988428Y-31390857D01*
X18024142Y-31319428D01*
X18095571Y-31248000D01*
X18202714Y-31212285D01*
X18274142Y-31212285D01*
X18381285Y-31248000D01*
X18417000Y-31283714D01*
X18667000Y-31212285D02*
X19131285Y-31212285D01*
X18881285Y-31498000D01*
X18988428Y-31498000D01*
X19059857Y-31533714D01*
X19095571Y-31569428D01*
X19131285Y-31640857D01*
X19131285Y-31819428D01*
X19095571Y-31890857D01*
X19059857Y-31926571D01*
X18988428Y-31962285D01*
X18774142Y-31962285D01*
X18702714Y-31926571D01*
X18667000Y-31890857D01*
G04 #@! TO.C,L1*
X51776333Y-13279380D02*
X51300142Y-13279380D01*
X51300142Y-12279380D01*
X52633476Y-13279380D02*
X52062047Y-13279380D01*
X52347761Y-13279380D02*
X52347761Y-12279380D01*
X52252523Y-12422238D01*
X52157285Y-12517476D01*
X52062047Y-12565095D01*
G04 #@! TO.C,L2*
X49433333Y-13279380D02*
X48957142Y-13279380D01*
X48957142Y-12279380D01*
X49719047Y-12374619D02*
X49766666Y-12327000D01*
X49861904Y-12279380D01*
X50100000Y-12279380D01*
X50195238Y-12327000D01*
X50242857Y-12374619D01*
X50290476Y-12469857D01*
X50290476Y-12565095D01*
X50242857Y-12707952D01*
X49671428Y-13279380D01*
X50290476Y-13279380D01*
G04 #@! TO.C,L3*
X12025333Y-19502380D02*
X11549142Y-19502380D01*
X11549142Y-18502380D01*
X12263428Y-18502380D02*
X12882476Y-18502380D01*
X12549142Y-18883333D01*
X12692000Y-18883333D01*
X12787238Y-18930952D01*
X12834857Y-18978571D01*
X12882476Y-19073809D01*
X12882476Y-19311904D01*
X12834857Y-19407142D01*
X12787238Y-19454761D01*
X12692000Y-19502380D01*
X12406285Y-19502380D01*
X12311047Y-19454761D01*
X12263428Y-19407142D01*
G04 #@! TD*
M02*
